  0
SECTION
  2
HEADER
  9
$ACADVER
  1
AC1015
  9
$ACADMAINTVER
 70
     6
  9
$DWGCODEPAGE
  3
ANSI_1252
  9
$INSBASE
 10
0.0
 20
0.0
 30
0.0
  9
$EXTMIN
 10
-120.0
 20
-120.0
 30
0.0
  9
$EXTMAX
 10
120.0
 20
120.0
 30
0.0
  9
$LIMMIN
 10
0.0
 20
0.0
  9
$LIMMAX
 10
420.0
 20
297.0
  9
$ORTHOMODE
 70
     0
  9
$REGENMODE
 70
     1
  9
$FILLMODE
 70
     1
  9
$QTEXTMODE
 70
     0
  9
$MIRRTEXT
 70
     1
  9
$LTSCALE
 40
1.0
  9
$ATTMODE
 70
     1
  9
$TEXTSIZE
 40
6.35
  9
$TRACEWID
 40
1.0
  9
$TEXTSTYLE
  7
Standard
  9
$CLAYER
  8
0
  9
$CELTYPE
  6
ByLayer
  9
$CECOLOR
 62
   256
  9
$CELTSCALE
 40
1.0
  9
$DISPSILH
 70
     0
  9
$DIMSCALE
 40
1.0
  9
$DIMASZ
 40
5.9944
  9
$DIMEXO
 40
0.9906
  9
$DIMDLI
 40
3.75
  9
$DIMRND
 40
0.0
  9
$DIMDLE
 40
0.0
  9
$DIMEXE
 40
0.9906
  9
$DIMTP
 40
0.0
  9
$DIMTM
 40
0.0
  9
$DIMTXT
 40
6.35
  9
$DIMCEN
 40
2.5
  9
$DIMTSZ
 40
0.0
  9
$DIMTOL
 70
     0
  9
$DIMLIM
 70
     0
  9
$DIMTIH
 70
     1
  9
$DIMTOH
 70
     1
  9
$DIMSE1
 70
     0
  9
$DIMSE2
 70
     0
  9
$DIMTAD
 70
     1
  9
$DIMZIN
 70
     0
  9
$DIMBLK
  1

  9
$DIMASO
 70
     1
  9
$DIMSHO
 70
     1
  9
$DIMPOST
  1

  9
$DIMAPOST
  1

  9
$DIMALT
 70
     0
  9
$DIMALTD
 70
     3
  9
$DIMALTF
 40
0.0393700787
  9
$DIMLFAC
 40
1.0
  9
$DIMTOFL
 70
     1
  9
$DIMTVP
 40
0.0
  9
$DIMTIX
 70
     0
  9
$DIMSOXD
 70
     0
  9
$DIMSAH
 70
     0
  9
$DIMBLK1
  1

  9
$DIMBLK2
  1

  9
$DIMSTYLE
  2
ISO-25
  9
$DIMCLRD
 70
     0
  9
$DIMCLRE
 70
     0
  9
$DIMCLRT
 70
     0
  9
$DIMTFAC
 40
1.0
  9
$DIMGAP
 40
1.524
  9
$DIMJUST
 70
     0
  9
$DIMSD1
 70
     0
  9
$DIMSD2
 70
     0
  9
$DIMTOLJ
 70
     0
  9
$DIMTZIN
 70
     0
  9
$DIMALTZ
 70
     0
  9
$DIMALTTZ
 70
     0
  9
$DIMUPT
 70
     0
  9
$DIMDEC
 70
     2
  9
$DIMTDEC
 70
     2
  9
$DIMALTU
 70
     2
  9
$DIMALTTD
 70
     3
  9
$DIMTXSTY
  7
Standard
  9
$DIMAUNIT
 70
     0
  9
$DIMADEC
 70
     2
  9
$DIMALTRND
 40
0.0
  9
$DIMAZIN
 70
     0
  9
$DIMDSEP
 70
    44
  9
$DIMATFIT
 70
     3
  9
$DIMFRAC
 70
     0
  9
$DIMLDRBLK
  1

  9
$DIMLUNIT
 70
     2
  9
$DIMLWD
 70
    -2
  9
$DIMLWE
 70
    -2
  9
$DIMTMOVE
 70
     0
  9
$LUNITS
 70
     2
  9
$LUPREC
 70
     2
  9
$SKETCHINC
 40
1.0
  9
$FILLETRAD
 40
10.0
  9
$AUNITS
 70
     0
  9
$AUPREC
 70
     2
  9
$MENU
  1
.
  9
$ELEVATION
 40
0.0
  9
$PELEVATION
 40
0.0
  9
$THICKNESS
 40
0.0
  9
$LIMCHECK
 70
     0
  9
$CHAMFERA
 40
0.0
  9
$CHAMFERB
 40
0.0
  9
$CHAMFERC
 40
0.0
  9
$CHAMFERD
 40
0.0
  9
$SKPOLY
 70
     0
  9
$TDCREATE
 40
2457996.634602048
  9
$TDUCREATE
 40
2457996.592935382
  9
$TDUPDATE
 40
2457996.634627234
  9
$TDUUPDATE
 40
2457996.592960567
  9
$TDINDWG
 40
0.0000000116
  9
$TDUSRTIMER
 40
0.0000000116
  9
$USRTIMER
 70
     1
  9
$ANGBASE
 50
0.0
  9
$ANGDIR
 70
     0
  9
$PDMODE
 70
     0
  9
$PDSIZE
 40
-1.0
  9
$PLINEWID
 40
0.0
  9
$SPLFRAME
 70
     0
  9
$SPLINETYPE
 70
     6
  9
$SPLINESEGS
 70
     8
  9
$HANDSEED
  5
121
  9
$SURFTAB1
 70
     6
  9
$SURFTAB2
 70
     6
  9
$SURFTYPE
 70
     6
  9
$SURFU
 70
     6
  9
$SURFV
 70
     6
  9
$UCSBASE
  2

  9
$UCSNAME
  2

  9
$UCSORG
 10
0.0
 20
0.0
 30
0.0
  9
$UCSXDIR
 10
1.0
 20
0.0
 30
0.0
  9
$UCSYDIR
 10
0.0
 20
1.0
 30
0.0
  9
$UCSORTHOREF
  2

  9
$UCSORTHOVIEW
 70
     0
  9
$UCSORGTOP
 10
0.0
 20
0.0
 30
0.0
  9
$UCSORGBOTTOM
 10
0.0
 20
0.0
 30
0.0
  9
$UCSORGLEFT
 10
0.0
 20
0.0
 30
0.0
  9
$UCSORGRIGHT
 10
0.0
 20
0.0
 30
0.0
  9
$UCSORGFRONT
 10
0.0
 20
0.0
 30
0.0
  9
$UCSORGBACK
 10
0.0
 20
0.0
 30
0.0
  9
$PUCSBASE
  2

  9
$PUCSNAME
  2

  9
$PUCSORG
 10
0.0
 20
0.0
 30
0.0
  9
$PUCSXDIR
 10
1.0
 20
0.0
 30
0.0
  9
$PUCSYDIR
 10
0.0
 20
1.0
 30
0.0
  9
$PUCSORTHOREF
  2

  9
$PUCSORTHOVIEW
 70
     0
  9
$PUCSORGTOP
 10
0.0
 20
0.0
 30
0.0
  9
$PUCSORGBOTTOM
 10
0.0
 20
0.0
 30
0.0
  9
$PUCSORGLEFT
 10
0.0
 20
0.0
 30
0.0
  9
$PUCSORGRIGHT
 10
0.0
 20
0.0
 30
0.0
  9
$PUCSORGFRONT
 10
0.0
 20
0.0
 30
0.0
  9
$PUCSORGBACK
 10
0.0
 20
0.0
 30
0.0
  9
$USERI1
 70
     0
  9
$USERI2
 70
     0
  9
$USERI3
 70
     0
  9
$USERI4
 70
     0
  9
$USERI5
 70
     0
  9
$USERR1
 40
0.0
  9
$USERR2
 40
0.0
  9
$USERR3
 40
0.0
  9
$USERR4
 40
0.0
  9
$USERR5
 40
0.0
  9
$WORLDVIEW
 70
     1
  9
$SHADEDGE
 70
     3
  9
$SHADEDIF
 70
    70
  9
$TILEMODE
 70
     1
  9
$MAXACTVP
 70
    64
  9
$PINSBASE
 10
0.0
 20
0.0
 30
0.0
  9
$PLIMCHECK
 70
     0
  9
$PEXTMIN
 10
1.0000000000E+20
 20
1.0000000000E+20
 30
1.0000000000E+20
  9
$PEXTMAX
 10
-1.0000000000E+20
 20
-1.0000000000E+20
 30
-1.0000000000E+20
  9
$PLIMMIN
 10
0.0
 20
0.0
  9
$PLIMMAX
 10
420.0
 20
297.0
  9
$UNITMODE
 70
     0
  9
$VISRETAIN
 70
     1
  9
$PLINEGEN
 70
     0
  9
$PSLTSCALE
 70
     1
  9
$TREEDEPTH
 70
  3020
  9
$CMLSTYLE
  2
Standard
  9
$CMLJUST
 70
     0
  9
$CMLSCALE
 40
20.0
  9
$PROXYGRAPHICS
 70
     1
  9
$MEASUREMENT
 70
     1
  9
$CELWEIGHT
370
    -1
  9
$ENDCAPS
280
     0
  9
$JOINSTYLE
280
     0
  9
$LWDISPLAY
290
     1
  9
$INSUNITS
 70
     4
  9
$HYPERLINKBASE
  1

  9
$STYLESHEET
  1

  9
$XEDIT
290
     1
  9
$CEPSNTYPE
380
     0
  9
$PSTYLEMODE
290
     1
  9
$FINGERPRINTGUID
  2
{6860545E-F058-41B0-BCA0-5039FA2FD3DF}
  9
$VERSIONGUID
  2
{FAEB1C32-E019-11D5-929B-00C0DF256EC4}
  9
$EXTNAMES
290
     1
  9
$PSVPSCALE
 40
0.0
  9
$OLESTARTUP
290
     0
  0
ENDSEC
  0
SECTION
  2
CLASSES
  0
CLASS
  1
ACDBDICTIONARYWDFLT
  2
AcDbDictionaryWithDefault
  3
ObjectDBX Classes
 90
        0
280
     0
281
     0
  0
CLASS
  1
VISUALSTYLE
  2
AcDbVisualStyle
  3
ObjectDBX Classes
 90
     4095
280
     0
281
     0
  0
CLASS
  1
MATERIAL
  2
AcDbMaterial
  3
ObjectDBX Classes
 90
     1153
280
     0
281
     0
  0
CLASS
  1
SCALE
  2
AcDbScale
  3
ObjectDBX Classes
 90
     1153
280
     0
281
     0
  0
CLASS
  1
TABLESTYLE
  2
AcDbTableStyle
  3
ObjectDBX Classes
 90
     4095
280
     0
281
     0
  0
CLASS
  1
MLEADERSTYLE
  2
AcDbMLeaderStyle
  3
ACDB_MLEADERSTYLE_CLASS
 90
     4095
280
     0
281
     0
  0
CLASS
  1
SUN
  2
AcDbSun
  3
SCENEOE
 90
     1153
280
     0
281
     0
  0
CLASS
  1
ACDBPLACEHOLDER
  2
AcDbPlaceHolder
  3
ObjectDBX Classes
 90
        0
280
     0
281
     0
  0
CLASS
  1
LAYOUT
  2
AcDbLayout
  3
ObjectDBX Classes
 90
        0
280
     0
281
     0
  0
ENDSEC
  0
SECTION
  2
TABLES
  0
TABLE
  2
VPORT
  5
8
330
0
100
AcDbSymbolTable
 70
     1
  0
VPORT
  5
29
330
8
100
AcDbSymbolTableRecord
100
AcDbViewportTableRecord
  2
*Active
 70
     0
 10
0.0
 20
0.0
 11
1.0
 21
1.0
 12
0.0
 22
0.0
 13
0.0
 23
0.0
 14
10.0
 24
10.0
 15
10.0
 25
10.0
 16
0.0
 26
0.0
 36
1.0
 17
0.0
 27
0.0
 37
0.0
 40
244.8
 41
1.0
 42
50.0
 43
0.0
 44
0.0
 50
0.0
 51
0.0
 71
     0
 72
   100
 73
     1
 74
     3
 75
     0
 76
     0
 77
     0
 78
     0
281
     0
 65
     1
110
0.0
120
0.0
130
0.0
111
1.0
121
0.0
131
0.0
112
0.0
122
1.0
132
0.0
 79
     0
146
0.0
  0
ENDTAB
  0
TABLE
  2
LTYPE
  5
5
330
0
100
AcDbSymbolTable
 70
     6
  0
LTYPE
  5
14
330
5
100
AcDbSymbolTableRecord
100
AcDbLinetypeTableRecord
  2
ByBlock
 70
     0
  3

 72
    65
 73
     0
 40
0.0
  0
LTYPE
  5
15
330
5
100
AcDbSymbolTableRecord
100
AcDbLinetypeTableRecord
  2
ByLayer
 70
     0
  3

 72
    65
 73
     0
 40
0.0
  0
LTYPE
  5
16
330
5
100
AcDbSymbolTableRecord
100
AcDbLinetypeTableRecord
  2
Continuous
 70
     0
  3
Solid line
 72
    65
 73
     0
 40
0.0
  0
LTYPE
  5
6E
330
5
100
AcDbSymbolTableRecord
100
AcDbLinetypeTableRecord
  2
HIDDEN
 70
     0
  3
Hidden __ __ __ __ __ __ __ __ __ __ __ __ __ __
 72
    65
 73
     2
 40
1.905
 49
1.27
 74
     0
 49
-0.635
 74
     0
  0
LTYPE
  5
6F
330
5
100
AcDbSymbolTableRecord
100
AcDbLinetypeTableRecord
  2
PHANTOM
 70
     0
  3
Phantom ______  __  __  ______  __  __  ______
 72
    65
 73
     6
 40
12.7
 49
6.35
 74
     0
 49
-1.27
 74
     0
 49
1.27
 74
     0
 49
-1.27
 74
     0
 49
1.27
 74
     0
 49
-1.27
 74
     0
  0
LTYPE
  5
70
330
5
100
AcDbSymbolTableRecord
100
AcDbLinetypeTableRecord
  2
CENTER
 70
     0
  3
Center ____ _ ____ _ ____ _ ____ _ ____ _ ____
 72
    65
 73
     4
 40
10.16
 49
6.35
 74
     0
 49
-1.27
 74
     0
 49
1.27
 74
     0
 49
-1.27
 74
     0
  0
LTYPE
  5
71
330
5
100
AcDbSymbolTableRecord
100
AcDbLinetypeTableRecord
  2
CENTERX2
 70
     0
  3
Center (2x) ________  __  ________  __  _____
 72
    65
 73
     4
 40
20.32
 49
12.7
 74
     0
 49
-2.54
 74
     0
 49
2.54
 74
     0
 49
-2.54
 74
     0
  0
LTYPE
  5
72
330
5
100
AcDbSymbolTableRecord
100
AcDbLinetypeTableRecord
  2
DOT2
 70
     0
  3
Dot (.5x) ........................................
 72
    65
 73
     2
 40
0.635
 49
0.0
 74
     0
 49
-0.635
 74
     0
  0
ENDTAB
  0
TABLE
  2
LAYER
  5
2
330
0
100
AcDbSymbolTable
 70
     1
  0
LAYER
  5
10
330
2
100
AcDbSymbolTableRecord
100
AcDbLayerTableRecord
  2
0
 70
     0
 62
     7
  6
Continuous
370
    -3
390
F
  0
ENDTAB
  0
TABLE
  2
STYLE
  5
3
330
0
100
AcDbSymbolTable
 70
     2
  0
STYLE
  5
11
330
3
100
AcDbSymbolTableRecord
100
AcDbTextStyleTableRecord
  2
Standard
 70
     0
 40
0.0
 41
1.0
 50
0.0
 71
     0
 42
6.35
  3
txt
  4

  0
STYLE
  5
11E
330
3
100
AcDbSymbolTableRecord
100
AcDbTextStyleTableRecord
  2
SLDTEXTSTYLE0
 70
     0
 40
0.0
 41
0.7
 50
0.0
 71
     0
 42
6.35
  3
TXT
  4

  0
ENDTAB
  0
TABLE
  2
VIEW
  5
6
330
0
100
AcDbSymbolTable
 70
     0
  0
ENDTAB
  0
TABLE
  2
UCS
  5
7
330
0
100
AcDbSymbolTable
 70
     0
  0
ENDTAB
  0
TABLE
  2
APPID
  5
9
330
0
100
AcDbSymbolTable
 70
     1
  0
APPID
  5
12
330
9
100
AcDbSymbolTableRecord
100
AcDbRegAppTableRecord
  2
ACAD
 70
     0
  0
ENDTAB
  0
TABLE
  2
DIMSTYLE
  5
A
330
0
100
AcDbSymbolTable
 70
     1
100
AcDbDimStyleTable
  0
DIMSTYLE
105
27
330
A
100
AcDbSymbolTableRecord
100
AcDbDimStyleTableRecord
  2
ISO-25
 70
     0
 41
2.5
 42
0.625
 43
3.75
 44
1.25
 73
     0
 74
     0
 77
     1
 78
     8
140
2.5
141
2.5
143
0.0393700787
147
0.625
171
     3
172
     1
178
     0
271
     2
272
     2
274
     3
278
    44
283
     0
284
     8
340
11
  0
ENDTAB
  0
TABLE
  2
BLOCK_RECORD
  5
1
330
0
100
AcDbSymbolTable
 70
     1
  0
BLOCK_RECORD
  5
1F
330
1
100
AcDbSymbolTableRecord
100
AcDbBlockTableRecord
  2
*Model_Space
340
22
  0
BLOCK_RECORD
  5
1B
330
1
100
AcDbSymbolTableRecord
100
AcDbBlockTableRecord
  2
*Paper_Space
340
1E
  0
BLOCK_RECORD
  5
23
330
1
100
AcDbSymbolTableRecord
100
AcDbBlockTableRecord
  2
*Paper_Space0
340
26
  0
ENDTAB
  0
ENDSEC
  0
SECTION
  2
BLOCKS
  0
BLOCK
  5
20
330
1F
100
AcDbEntity
  8
0
100
AcDbBlockBegin
  2
*Model_Space
 70
     0
 10
0.0
 20
0.0
 30
0.0
  3
*Model_Space
  1

  0
ENDBLK
  5
21
330
1F
100
AcDbEntity
  8
0
100
AcDbBlockEnd
  0
BLOCK
  5
1C
330
1B
100
AcDbEntity
 67
     1
  8
0
100
AcDbBlockBegin
  2
*Paper_Space
 70
     0
 10
0.0
 20
0.0
 30
0.0
  3
*Paper_Space
  1

  0
ENDBLK
  5
1D
330
1B
100
AcDbEntity
 67
     1
  8
0
100
AcDbBlockEnd
  0
BLOCK
  5
24
330
23
100
AcDbEntity
  8
0
100
AcDbBlockBegin
  2
*Paper_Space0
 70
     0
 10
0.0
 20
0.0
 30
0.0
  3
*Paper_Space0
  1

  0
ENDBLK
  5
25
330
23
100
AcDbEntity
  8
0
100
AcDbBlockEnd
  0
ENDSEC
  0
SECTION
  2
ENTITIES
  0
CIRCLE
  5
73
330
1F
100
AcDbEntity
  8
0
  6
Continuous
 62
     7
370
    15
100
AcDbCircle
 10
-44.536046343
 20
50.2659275753
 30
0.0
 40
10.0
  0
CIRCLE
  5
74
330
1F
100
AcDbEntity
  8
0
  6
Continuous
 62
     7
370
    15
100
AcDbCircle
 10
70.3167720994
 20
7.0717133604
 30
0.0
 40
9.999999999999995
  0
CIRCLE
  5
75
330
1F
100
AcDbEntity
  8
0
  6
Continuous
 62
     7
370
    15
100
AcDbCircle
 10
-100.0
 20
-100.0
 30
0.0
 40
15.0
  0
LINE
  5
76
330
1F
100
AcDbEntity
  8
0
  6
Continuous
 62
     7
370
    15
100
AcDbLine
 10
-60.8504890972
 20
41.524916546
 30
0.0
 11
-64.2504890972
 21
41.524916546
 31
0.0
  0
LINE
  5
77
330
1F
100
AcDbEntity
  8
0
  6
Continuous
 62
     7
370
    15
100
AcDbLine
 10
-60.8504890972
 20
41.524916546
 30
0.0
 11
-60.8504890972
 21
26.524916546
 31
0.0
  0
LINE
  5
78
330
1F
100
AcDbEntity
  8
0
  6
Continuous
 62
     7
370
    15
100
AcDbLine
 10
-60.8504890972
 20
26.524916546
 30
0.0
 11
-64.2504890972
 21
26.524916546
 31
0.0
  0
LINE
  5
79
330
1F
100
AcDbEntity
  8
0
  6
Continuous
 62
     7
370
    15
100
AcDbLine
 10
-64.2504890972
 20
41.524916546
 30
0.0
 11
-64.2504890972
 21
26.524916546
 31
0.0
  0
LINE
  5
7A
330
1F
100
AcDbEntity
  8
0
  6
Continuous
 62
     7
370
    15
100
AcDbLine
 10
-47.5
 20
-20.0
 30
0.0
 11
-62.5
 21
-20.0
 31
0.0
  0
LINE
  5
7B
330
1F
100
AcDbEntity
  8
0
  6
Continuous
 62
     7
370
    15
100
AcDbLine
 10
-47.5
 20
-20.0
 30
0.0
 11
-47.5
 21
-23.4
 31
0.0
  0
LINE
  5
7C
330
1F
100
AcDbEntity
  8
0
  6
Continuous
 62
     7
370
    15
100
AcDbLine
 10
-47.5
 20
-23.4
 30
0.0
 11
-62.5
 21
-23.4
 31
0.0
  0
LINE
  5
7D
330
1F
100
AcDbEntity
  8
0
  6
Continuous
 62
     7
370
    15
100
AcDbLine
 10
-62.5
 20
-20.0
 30
0.0
 11
-62.5
 21
-23.4
 31
0.0
  0
LINE
  5
7E
330
1F
100
AcDbEntity
  8
0
  6
Continuous
 62
     7
370
    15
100
AcDbLine
 10
39.1
 20
-17.3087803784
 30
0.0
 11
24.1
 21
-17.3087803784
 31
0.0
  0
LINE
  5
7F
330
1F
100
AcDbEntity
  8
0
  6
Continuous
 62
     7
370
    15
100
AcDbLine
 10
39.1
 20
-17.3087803784
 30
0.0
 11
39.1
 21
-20.7087803784
 31
0.0
  0
LINE
  5
80
330
1F
100
AcDbEntity
  8
0
  6
Continuous
 62
     7
370
    15
100
AcDbLine
 10
39.1
 20
-20.7087803784
 30
0.0
 11
24.1
 21
-20.7087803784
 31
0.0
  0
LINE
  5
81
330
1F
100
AcDbEntity
  8
0
  6
Continuous
 62
     7
370
    15
100
AcDbLine
 10
24.1
 20
-17.3087803784
 30
0.0
 11
24.1
 21
-20.7087803784
 31
0.0
  0
LINE
  5
82
330
1F
100
AcDbEntity
  8
0
  6
Continuous
 62
     7
370
    15
100
AcDbLine
 10
42.5
 20
-87.3087803784
 30
0.0
 11
27.5
 21
-87.3087803784
 31
0.0
  0
LINE
  5
83
330
1F
100
AcDbEntity
  8
0
  6
Continuous
 62
     7
370
    15
100
AcDbLine
 10
42.5
 20
-87.3087803784
 30
0.0
 11
42.5
 21
-90.7087803784
 31
0.0
  0
LINE
  5
84
330
1F
100
AcDbEntity
  8
0
  6
Continuous
 62
     7
370
    15
100
AcDbLine
 10
42.5
 20
-90.7087803784
 30
0.0
 11
27.5
 21
-90.7087803784
 31
0.0
  0
LINE
  5
85
330
1F
100
AcDbEntity
  8
0
  6
Continuous
 62
     7
370
    15
100
AcDbLine
 10
27.5
 20
-87.3087803784
 30
0.0
 11
27.5
 21
-90.7087803784
 31
0.0
  0
LINE
  5
86
330
1F
100
AcDbEntity
  8
0
  6
Continuous
 62
     7
370
    15
100
AcDbLine
 10
10.4875336499
 20
-50.0
 30
0.0
 11
-4.5124663501
 21
-50.0
 31
0.0
  0
LINE
  5
87
330
1F
100
AcDbEntity
  8
0
  6
Continuous
 62
     7
370
    15
100
AcDbLine
 10
10.4875336499
 20
-50.0
 30
0.0
 11
10.4875336499
 21
-53.4
 31
0.0
  0
LINE
  5
88
330
1F
100
AcDbEntity
  8
0
  6
Continuous
 62
     7
370
    15
100
AcDbLine
 10
10.4875336499
 20
-53.4
 30
0.0
 11
-4.5124663501
 21
-53.4
 31
0.0
  0
LINE
  5
89
330
1F
100
AcDbEntity
  8
0
  6
Continuous
 62
     7
370
    15
100
AcDbLine
 10
-4.5124663501
 20
-50.0
 30
0.0
 11
-4.5124663501
 21
-53.4
 31
0.0
  0
LINE
  5
8A
330
1F
100
AcDbEntity
  8
0
  6
Continuous
 62
     7
370
    15
100
AcDbLine
 10
92.5
 20
-47.7355422389
 30
0.0
 11
77.5
 21
-47.7355422389
 31
0.0
  0
LINE
  5
8B
330
1F
100
AcDbEntity
  8
0
  6
Continuous
 62
     7
370
    15
100
AcDbLine
 10
92.5
 20
-47.7355422389
 30
0.0
 11
92.5
 21
-51.1355422389
 31
0.0
  0
LINE
  5
8C
330
1F
100
AcDbEntity
  8
0
  6
Continuous
 62
     7
370
    15
100
AcDbLine
 10
92.5
 20
-51.1355422389
 30
0.0
 11
77.5
 21
-51.1355422389
 31
0.0
  0
LINE
  5
8D
330
1F
100
AcDbEntity
  8
0
  6
Continuous
 62
     7
370
    15
100
AcDbLine
 10
77.5
 20
-47.7355422389
 30
0.0
 11
77.5
 21
-51.1355422389
 31
0.0
  0
LINE
  5
8E
330
1F
100
AcDbEntity
  8
0
  6
Continuous
 62
     7
370
    15
100
AcDbLine
 10
88.2001087945
 20
-97.5
 30
0.0
 11
84.8001087945
 21
-97.5
 31
0.0
  0
LINE
  5
8F
330
1F
100
AcDbEntity
  8
0
  6
Continuous
 62
     7
370
    15
100
AcDbLine
 10
88.2001087945
 20
-97.5
 30
0.0
 11
88.2001087945
 21
-112.5
 31
0.0
  0
LINE
  5
90
330
1F
100
AcDbEntity
  8
0
  6
Continuous
 62
     7
370
    15
100
AcDbLine
 10
88.2001087945
 20
-112.5
 30
0.0
 11
84.8001087945
 21
-112.5
 31
0.0
  0
LINE
  5
91
330
1F
100
AcDbEntity
  8
0
  6
Continuous
 62
     7
370
    15
100
AcDbLine
 10
84.8001087945
 20
-97.5
 30
0.0
 11
84.8001087945
 21
-112.5
 31
0.0
  0
LINE
  5
92
330
1F
100
AcDbEntity
  8
0
  6
Continuous
 62
     7
370
    15
100
AcDbLine
 10
-93.4
 20
57.5
 30
0.0
 11
-90.0
 21
57.5
 31
0.0
  0
LINE
  5
93
330
1F
100
AcDbEntity
  8
0
  6
Continuous
 62
     7
370
    15
100
AcDbLine
 10
-93.4
 20
57.5
 30
0.0
 11
-93.4
 21
72.5
 31
0.0
  0
LINE
  5
94
330
1F
100
AcDbEntity
  8
0
  6
Continuous
 62
     7
370
    15
100
AcDbLine
 10
-93.4
 20
72.5
 30
0.0
 11
-90.0
 21
72.5
 31
0.0
  0
LINE
  5
95
330
1F
100
AcDbEntity
  8
0
  6
Continuous
 62
     7
370
    15
100
AcDbLine
 10
-90.0
 20
57.5
 30
0.0
 11
-90.0
 21
72.5
 31
0.0
  0
LINE
  5
96
330
1F
100
AcDbEntity
  8
0
  6
Continuous
 62
     7
370
    15
100
AcDbLine
 10
-18.3504890972
 20
69.024916546
 30
0.0
 11
-33.3504890972
 21
69.024916546
 31
0.0
  0
LINE
  5
97
330
1F
100
AcDbEntity
  8
0
  6
Continuous
 62
     7
370
    15
100
AcDbLine
 10
-18.3504890972
 20
69.024916546
 30
0.0
 11
-18.3504890972
 21
65.624916546
 31
0.0
  0
LINE
  5
98
330
1F
100
AcDbEntity
  8
0
  6
Continuous
 62
     7
370
    15
100
AcDbLine
 10
-18.3504890972
 20
65.624916546
 30
0.0
 11
-33.3504890972
 21
65.624916546
 31
0.0
  0
LINE
  5
99
330
1F
100
AcDbEntity
  8
0
  6
Continuous
 62
     7
370
    15
100
AcDbLine
 10
-33.3504890972
 20
69.024916546
 30
0.0
 11
-33.3504890972
 21
65.624916546
 31
0.0
  0
LINE
  5
9A
330
1F
100
AcDbEntity
  8
0
  6
Continuous
 62
     7
370
    15
100
AcDbLine
 10
88.4
 20
-5.2355422389
 30
0.0
 11
85.0
 21
-5.2355422389
 31
0.0
  0
LINE
  5
9B
330
1F
100
AcDbEntity
  8
0
  6
Continuous
 62
     7
370
    15
100
AcDbLine
 10
88.4
 20
-5.2355422389
 30
0.0
 11
88.4
 21
-20.2355422389
 31
0.0
  0
LINE
  5
9C
330
1F
100
AcDbEntity
  8
0
  6
Continuous
 62
     7
370
    15
100
AcDbLine
 10
88.4
 20
-20.2355422389
 30
0.0
 11
85.0
 21
-20.2355422389
 31
0.0
  0
LINE
  5
9D
330
1F
100
AcDbEntity
  8
0
  6
Continuous
 62
     7
370
    15
100
AcDbLine
 10
85.0
 20
-5.2355422389
 30
0.0
 11
85.0
 21
-20.2355422389
 31
0.0
  0
LINE
  5
9E
330
1F
100
AcDbEntity
  8
0
  6
Continuous
 62
     7
370
    15
100
AcDbLine
 10
112.5
 20
70.0376959007
 30
0.0
 11
97.5
 21
70.0376959007
 31
0.0
  0
LINE
  5
9F
330
1F
100
AcDbEntity
  8
0
  6
Continuous
 62
     7
370
    15
100
AcDbLine
 10
112.5
 20
70.0376959007
 30
0.0
 11
112.5
 21
66.6376959007
 31
0.0
  0
LINE
  5
A0
330
1F
100
AcDbEntity
  8
0
  6
Continuous
 62
     7
370
    15
100
AcDbLine
 10
112.5
 20
66.6376959007
 30
0.0
 11
97.5
 21
66.6376959007
 31
0.0
  0
LINE
  5
A1
330
1F
100
AcDbEntity
  8
0
  6
Continuous
 62
     7
370
    15
100
AcDbLine
 10
97.5
 20
70.0376959007
 30
0.0
 11
97.5
 21
66.6376959007
 31
0.0
  0
LINE
  5
A2
330
1F
100
AcDbEntity
  8
0
  6
Continuous
 62
     7
370
    15
100
AcDbLine
 10
58.4
 20
64.7644577611
 30
0.0
 11
55.0
 21
64.7644577611
 31
0.0
  0
LINE
  5
A3
330
1F
100
AcDbEntity
  8
0
  6
Continuous
 62
     7
370
    15
100
AcDbLine
 10
58.4
 20
64.7644577611
 30
0.0
 11
58.4
 21
49.7644577611
 31
0.0
  0
LINE
  5
A4
330
1F
100
AcDbEntity
  8
0
  6
Continuous
 62
     7
370
    15
100
AcDbLine
 10
58.4
 20
49.7644577611
 30
0.0
 11
55.0
 21
49.7644577611
 31
0.0
  0
LINE
  5
A5
330
1F
100
AcDbEntity
  8
0
  6
Continuous
 62
     7
370
    15
100
AcDbLine
 10
55.0
 20
64.7644577611
 30
0.0
 11
55.0
 21
49.7644577611
 31
0.0
  0
LINE
  5
A6
330
1F
100
AcDbEntity
  8
0
  6
Continuous
 62
     7
370
    15
100
AcDbLine
 10
-18.3504890972
 20
34.4842078617
 30
0.0
 11
-33.3504890972
 21
34.4842078617
 31
0.0
  0
LINE
  5
A7
330
1F
100
AcDbEntity
  8
0
  6
Continuous
 62
     7
370
    15
100
AcDbLine
 10
-18.3504890972
 20
34.4842078617
 30
0.0
 11
-18.3504890972
 21
31.0842078617
 31
0.0
  0
LINE
  5
A8
330
1F
100
AcDbEntity
  8
0
  6
Continuous
 62
     7
370
    15
100
AcDbLine
 10
-18.3504890972
 20
31.0842078617
 30
0.0
 11
-33.3504890972
 21
31.0842078617
 31
0.0
  0
LINE
  5
A9
330
1F
100
AcDbEntity
  8
0
  6
Continuous
 62
     7
370
    15
100
AcDbLine
 10
-33.3504890972
 20
34.4842078617
 30
0.0
 11
-33.3504890972
 21
31.0842078617
 31
0.0
  0
LINE
  5
AA
330
1F
100
AcDbEntity
  8
0
  6
Continuous
 62
     7
370
    15
100
AcDbLine
 10
-98.0
 20
90.0
 30
0.0
 11
-101.4
 21
90.0
 31
0.0
  0
LINE
  5
AB
330
1F
100
AcDbEntity
  8
0
  6
Continuous
 62
     7
370
    15
100
AcDbLine
 10
-98.0
 20
-41.5
 30
0.0
 11
-98.0
 21
90.0
 31
0.0
  0
ARC
  5
AC
330
1F
100
AcDbEntity
  8
0
  6
Continuous
 62
     7
370
    15
100
AcDbCircle
 10
-106.5
 20
-41.5
 30
0.0
 40
8.500000000000043
100
AcDbArc
 50
180.0
 51
0.0
  0
LINE
  5
AD
330
1F
100
AcDbEntity
  8
0
  6
Continuous
 62
     7
370
    15
100
AcDbLine
 10
-115.0
 20
90.0
 30
0.0
 11
-115.0
 21
-41.5
 31
0.0
  0
LINE
  5
AE
330
1F
100
AcDbEntity
  8
0
  6
Continuous
 62
     7
370
    15
100
AcDbLine
 10
-111.6
 20
90.0
 30
0.0
 11
-115.0
 21
90.0
 31
0.0
  0
LINE
  5
AF
330
1F
100
AcDbEntity
  8
0
  6
Continuous
 62
     7
370
    15
100
AcDbLine
 10
-111.6
 20
80.0
 30
0.0
 11
-111.6
 21
90.0
 31
0.0
  0
LINE
  5
B0
330
1F
100
AcDbEntity
  8
0
  6
Continuous
 62
     7
370
    15
100
AcDbLine
 10
-101.4
 20
80.0
 30
0.0
 11
-111.6
 21
80.0
 31
0.0
  0
LINE
  5
B1
330
1F
100
AcDbEntity
  8
0
  6
Continuous
 62
     7
370
    15
100
AcDbLine
 10
-101.4
 20
90.0
 30
0.0
 11
-101.4
 21
80.0
 31
0.0
  0
LINE
  5
B2
330
1F
100
AcDbEntity
  8
0
  6
Continuous
 62
     7
370
    15
100
AcDbLine
 10
120.0
 20
-120.0
 30
0.0
 11
120.0
 21
120.0
 31
0.0
  0
LINE
  5
B3
330
1F
100
AcDbEntity
  8
0
  6
Continuous
 62
     7
370
    15
100
AcDbLine
 10
120.0
 20
120.0
 30
0.0
 11
-120.0
 21
120.0
 31
0.0
  0
LINE
  5
B4
330
1F
100
AcDbEntity
  8
0
  6
Continuous
 62
     7
370
    15
100
AcDbLine
 10
-120.0
 20
120.0
 30
0.0
 11
-120.0
 21
-120.0
 31
0.0
  0
LINE
  5
B5
330
1F
100
AcDbEntity
  8
0
  6
Continuous
 62
     7
370
    15
100
AcDbLine
 10
-120.0
 20
-120.0
 30
0.0
 11
120.0
 21
-120.0
 31
0.0
  0
LINE
  5
B6
330
1F
100
AcDbEntity
  8
0
  6
Continuous
 62
     7
370
    15
100
AcDbLine
 10
-93.4
 20
-12.5
 30
0.0
 11
-90.0
 21
-12.5
 31
0.0
  0
LINE
  5
B7
330
1F
100
AcDbEntity
  8
0
  6
Continuous
 62
     7
370
    15
100
AcDbLine
 10
-90.0
 20
-12.5
 30
0.0
 11
-90.0
 21
-27.5
 31
0.0
  0
LINE
  5
B8
330
1F
100
AcDbEntity
  8
0
  6
Continuous
 62
     7
370
    15
100
AcDbLine
 10
-93.4
 20
-27.5
 30
0.0
 11
-90.0
 21
-27.5
 31
0.0
  0
LINE
  5
B9
330
1F
100
AcDbEntity
  8
0
  6
Continuous
 62
     7
370
    15
100
AcDbLine
 10
-93.4
 20
-12.5
 30
0.0
 11
-93.4
 21
-27.5
 31
0.0
  0
LINE
  5
BA
330
1F
100
AcDbEntity
  8
0
  6
Continuous
 62
     7
370
    15
100
AcDbLine
 10
9.1495109028
 20
88.124916546
 30
0.0
 11
12.5495109028
 21
88.124916546
 31
0.0
  0
LINE
  5
BB
330
1F
100
AcDbEntity
  8
0
  6
Continuous
 62
     7
370
    15
100
AcDbLine
 10
12.5495109028
 20
88.124916546
 30
0.0
 11
12.5495109028
 21
73.124916546
 31
0.0
  0
LINE
  5
BC
330
1F
100
AcDbEntity
  8
0
  6
Continuous
 62
     7
370
    15
100
AcDbLine
 10
9.1495109028
 20
73.124916546
 30
0.0
 11
12.5495109028
 21
73.124916546
 31
0.0
  0
LINE
  5
BD
330
1F
100
AcDbEntity
  8
0
  6
Continuous
 62
     7
370
    15
100
AcDbLine
 10
9.1495109028
 20
88.124916546
 30
0.0
 11
9.1495109028
 21
73.124916546
 31
0.0
  0
LINE
  5
BE
330
1F
100
AcDbEntity
  8
0
  6
Continuous
 62
     7
370
    15
100
AcDbLine
 10
65.9
 20
25.6644577611
 30
0.0
 11
80.9
 21
25.6644577611
 31
0.0
  0
LINE
  5
BF
330
1F
100
AcDbEntity
  8
0
  6
Continuous
 62
     7
370
    15
100
AcDbLine
 10
80.9
 20
25.6644577611
 30
0.0
 11
80.9
 21
22.2644577611
 31
0.0
  0
LINE
  5
C0
330
1F
100
AcDbEntity
  8
0
  6
Continuous
 62
     7
370
    15
100
AcDbLine
 10
65.9
 20
22.2644577611
 30
0.0
 11
80.9
 21
22.2644577611
 31
0.0
  0
LINE
  5
C1
330
1F
100
AcDbEntity
  8
0
  6
Continuous
 62
     7
370
    15
100
AcDbLine
 10
65.9
 20
25.6644577611
 30
0.0
 11
65.9
 21
22.2644577611
 31
0.0
  0
LINE
  5
C2
330
1F
100
AcDbEntity
  8
0
  6
Continuous
 62
     7
370
    15
100
AcDbLine
 10
-28.3264850188
 20
112.5
 30
0.0
 11
-24.9264850188
 21
112.5
 31
0.0
  0
LINE
  5
C3
330
1F
100
AcDbEntity
  8
0
  6
Continuous
 62
     7
370
    15
100
AcDbLine
 10
-24.9264850188
 20
112.5
 30
0.0
 11
-24.9264850188
 21
97.5
 31
0.0
  0
LINE
  5
C4
330
1F
100
AcDbEntity
  8
0
  6
Continuous
 62
     7
370
    15
100
AcDbLine
 10
-28.3264850188
 20
97.5
 30
0.0
 11
-24.9264850188
 21
97.5
 31
0.0
  0
LINE
  5
C5
330
1F
100
AcDbEntity
  8
0
  6
Continuous
 62
     7
370
    15
100
AcDbLine
 10
-28.3264850188
 20
112.5
 30
0.0
 11
-28.3264850188
 21
97.5
 31
0.0
  0
LINE
  5
C6
330
1F
100
AcDbEntity
  8
0
  6
Continuous
 62
     7
370
    15
100
AcDbLine
 10
-82.5
 20
100.0
 30
0.0
 11
-67.5
 21
100.0
 31
0.0
  0
LINE
  5
C7
330
1F
100
AcDbEntity
  8
0
  6
Continuous
 62
     7
370
    15
100
AcDbLine
 10
-67.5
 20
100.0
 30
0.0
 11
-67.5
 21
96.6
 31
0.0
  0
LINE
  5
C8
330
1F
100
AcDbEntity
  8
0
  6
Continuous
 62
     7
370
    15
100
AcDbLine
 10
-82.5
 20
96.6
 30
0.0
 11
-67.5
 21
96.6
 31
0.0
  0
LINE
  5
C9
330
1F
100
AcDbEntity
  8
0
  6
Continuous
 62
     7
370
    15
100
AcDbLine
 10
-82.5
 20
100.0
 30
0.0
 11
-82.5
 21
96.6
 31
0.0
  0
LINE
  5
CA
330
1F
100
AcDbEntity
  8
0
  6
Continuous
 62
     7
370
    15
100
AcDbLine
 10
-93.4
 20
30.0
 30
0.0
 11
-90.0
 21
30.0
 31
0.0
  0
LINE
  5
CB
330
1F
100
AcDbEntity
  8
0
  6
Continuous
 62
     7
370
    15
100
AcDbLine
 10
-90.0
 20
30.0
 30
0.0
 11
-90.0
 21
15.0
 31
0.0
  0
LINE
  5
CC
330
1F
100
AcDbEntity
  8
0
  6
Continuous
 62
     7
370
    15
100
AcDbLine
 10
-93.4
 20
15.0
 30
0.0
 11
-90.0
 21
15.0
 31
0.0
  0
LINE
  5
CD
330
1F
100
AcDbEntity
  8
0
  6
Continuous
 62
     7
370
    15
100
AcDbLine
 10
-93.4
 20
30.0
 30
0.0
 11
-93.4
 21
15.0
 31
0.0
  0
LINE
  5
CE
330
1F
100
AcDbEntity
  8
0
  6
Continuous
 62
     7
370
    15
100
AcDbLine
 10
50.0
 20
-59.8087803784
 30
0.0
 11
46.6
 21
-59.8087803784
 31
0.0
  0
LINE
  5
CF
330
1F
100
AcDbEntity
  8
0
  6
Continuous
 62
     7
370
    15
100
AcDbLine
 10
46.6
 20
-59.8087803784
 30
0.0
 11
46.6
 21
-44.8087803784
 31
0.0
  0
LINE
  5
D0
330
1F
100
AcDbEntity
  8
0
  6
Continuous
 62
     7
370
    15
100
AcDbLine
 10
50.0
 20
-44.8087803784
 30
0.0
 11
46.6
 21
-44.8087803784
 31
0.0
  0
LINE
  5
D1
330
1F
100
AcDbEntity
  8
0
  6
Continuous
 62
     7
370
    15
100
AcDbLine
 10
50.0
 20
-59.8087803784
 30
0.0
 11
50.0
 21
-44.8087803784
 31
0.0
  0
LINE
  5
D2
330
1F
100
AcDbEntity
  8
0
  6
Continuous
 62
     7
370
    15
100
AcDbLine
 10
-15.4124663501
 20
-77.5
 30
0.0
 11
-12.0124663501
 21
-77.5
 31
0.0
  0
LINE
  5
D3
330
1F
100
AcDbEntity
  8
0
  6
Continuous
 62
     7
370
    15
100
AcDbLine
 10
-12.0124663501
 20
-77.5
 30
0.0
 11
-12.0124663501
 21
-92.5
 31
0.0
  0
LINE
  5
D4
330
1F
100
AcDbEntity
  8
0
  6
Continuous
 62
     7
370
    15
100
AcDbLine
 10
-15.4124663501
 20
-92.5
 30
0.0
 11
-12.0124663501
 21
-92.5
 31
0.0
  0
LINE
  5
D5
330
1F
100
AcDbEntity
  8
0
  6
Continuous
 62
     7
370
    15
100
AcDbLine
 10
-15.4124663501
 20
-77.5
 30
0.0
 11
-15.4124663501
 21
-92.5
 31
0.0
  0
LINE
  5
D6
330
1F
100
AcDbEntity
  8
0
  6
Continuous
 62
     7
370
    15
100
AcDbLine
 10
-92.5
 20
-55.0
 30
0.0
 11
-77.5
 21
-55.0
 31
0.0
  0
LINE
  5
D7
330
1F
100
AcDbEntity
  8
0
  6
Continuous
 62
     7
370
    15
100
AcDbLine
 10
-77.5
 20
-55.0
 30
0.0
 11
-77.5
 21
-58.4
 31
0.0
  0
LINE
  5
D8
330
1F
100
AcDbEntity
  8
0
  6
Continuous
 62
     7
370
    15
100
AcDbLine
 10
-92.5
 20
-58.4
 30
0.0
 11
-77.5
 21
-58.4
 31
0.0
  0
LINE
  5
D9
330
1F
100
AcDbEntity
  8
0
  6
Continuous
 62
     7
370
    15
100
AcDbLine
 10
-92.5
 20
-55.0
 30
0.0
 11
-92.5
 21
-58.4
 31
0.0
  0
LINE
  5
DA
330
1F
100
AcDbEntity
  8
0
  6
Continuous
 62
     7
370
    15
100
AcDbLine
 10
-79.7792439491
 20
-112.5
 30
0.0
 11
-83.1792439491
 21
-112.5
 31
0.0
  0
LINE
  5
DB
330
1F
100
AcDbEntity
  8
0
  6
Continuous
 62
     7
370
    15
100
AcDbLine
 10
-83.1792439491
 20
-112.5
 30
0.0
 11
-83.1792439491
 21
-97.5
 31
0.0
  0
LINE
  5
DC
330
1F
100
AcDbEntity
  8
0
  6
Continuous
 62
     7
370
    15
100
AcDbLine
 10
-79.7792439491
 20
-97.5
 30
0.0
 11
-83.1792439491
 21
-97.5
 31
0.0
  0
LINE
  5
DD
330
1F
100
AcDbEntity
  8
0
  6
Continuous
 62
     7
370
    15
100
AcDbLine
 10
-79.7792439491
 20
-112.5
 30
0.0
 11
-79.7792439491
 21
-97.5
 31
0.0
  0
LINE
  5
DE
330
1F
100
AcDbEntity
  8
0
  6
Continuous
 62
     7
370
    15
100
AcDbLine
 10
-115.6609451311
 20
114.607122315
 30
0.0
 11
-115.9643255397
 21
112.3174588535
 31
0.0
  0
LINE
  5
DF
330
1F
100
AcDbEntity
  8
0
  6
Continuous
 62
     7
370
    15
100
AcDbLine
 10
-115.9643255397
 20
112.3174588535
 30
0.0
 11
-116.2511694901
 21
112.3174588535
 31
0.0
  0
LINE
  5
E0
330
1F
100
AcDbEntity
  8
0
  6
Continuous
 62
     7
370
    15
100
AcDbLine
 10
-116.2511694901
 20
112.3174588535
 30
0.0
 11
-115.8320338731
 21
115.4924588535
 31
0.0
  0
LINE
  5
E1
330
1F
100
AcDbEntity
  8
0
  6
Continuous
 62
     7
370
    15
100
AcDbLine
 10
-115.8320338731
 20
115.4924588535
 30
0.0
 11
-115.7913287449
 21
115.4924588535
 31
0.0
  0
LINE
  5
E2
330
1F
100
AcDbEntity
  8
0
  6
Continuous
 62
     7
370
    15
100
AcDbLine
 10
-115.7913287449
 20
115.4924588535
 30
0.0
 11
-114.4804964131
 21
112.8873306484
 31
0.0
  0
LINE
  5
E3
330
1F
100
AcDbEntity
  8
0
  6
Continuous
 62
     7
370
    15
100
AcDbLine
 10
-114.4804964131
 20
112.8873306484
 30
0.0
 11
-113.1728441695
 21
115.4924588535
 31
0.0
  0
LINE
  5
E4
330
1F
100
AcDbEntity
  8
0
  6
Continuous
 62
     7
370
    15
100
AcDbLine
 10
-113.1728441695
 20
115.4924588535
 30
0.0
 11
-113.1315030237
 21
115.4924588535
 31
0.0
  0
LINE
  5
E5
330
1F
100
AcDbEntity
  8
0
  6
Continuous
 62
     7
370
    15
100
AcDbLine
 10
-113.1315030237
 20
115.4924588535
 30
0.0
 11
-112.7098233362
 21
112.3174588535
 31
0.0
  0
LINE
  5
E6
330
1F
100
AcDbEntity
  8
0
  6
Continuous
 62
     7
370
    15
100
AcDbLine
 10
-112.7098233362
 20
112.3174588535
 30
0.0
 11
-112.9960312689
 21
112.3174588535
 31
0.0
  0
LINE
  5
E7
330
1F
100
AcDbEntity
  8
0
  6
Continuous
 62
     7
370
    15
100
AcDbLine
 10
-112.9960312689
 20
112.3174588535
 30
0.0
 11
-113.3000476952
 21
114.602034174
 31
0.0
  0
LINE
  5
E8
330
1F
100
AcDbEntity
  8
0
  6
Continuous
 62
     7
370
    15
100
AcDbLine
 10
-113.3000476952
 20
114.602034174
 30
0.0
 11
-114.4461514612
 21
112.3174588535
 31
0.0
  0
LINE
  5
E9
330
1F
100
AcDbEntity
  8
0
  6
Continuous
 62
     7
370
    15
100
AcDbLine
 10
-114.4461514612
 20
112.3174588535
 30
0.0
 11
-114.5103892417
 21
112.3174588535
 31
0.0
  0
LINE
  5
EA
330
1F
100
AcDbEntity
  8
0
  6
Continuous
 62
     7
370
    15
100
AcDbLine
 10
-114.5103892417
 20
112.3174588535
 30
0.0
 11
-115.6609451311
 21
114.607122315
 31
0.0
  0
SPLINE
  5
EB
330
1F
100
AcDbEntity
  8
0
  6
Continuous
 62
     7
370
    15
100
AcDbSpline
210
0.0
220
0.0
230
1.0
 70
     8
 71
     3
 72
    23
 73
    19
 74
     0
 42
0.000000001
 43
0.00000001
 40
0.0
 40
0.0
 40
0.0
 40
0.0
 40
0.0552745490875213
 40
0.1099660938819807
 40
0.1632474428518009
 40
0.2180761854823516
 40
0.2733008743735934
 40
0.3309093000114307
 40
0.3909945233652126
 40
0.4541759534308211
 40
0.5188615408488259
 40
0.5833105320111635
 40
0.6485166818638207
 40
0.7150308870971948
 40
0.7825020728543329
 40
0.8523226850768626
 40
0.9249284897844301
 40
1.0
 40
1.0
 40
1.0
 40
1.0
 10
-99.27713102852275
 20
114.7502262813663
 30
0.0
 10
-99.27750695846662
 20
114.7668068073171
 30
0.0
 10
-99.2782548532605
 20
114.799792977325
 30
0.0
 10
-99.28768666953547
 20
114.8479850039208
 30
0.0
 10
-99.3018599067127
 20
114.894703719154
 30
0.0
 10
-99.3213450897268
 20
114.9397504470272
 30
0.0
 10
-99.34742562712505
 20
114.9828127669205
 30
0.0
 10
-99.37863677204352
 20
115.0242578098877
 30
0.0
 10
-99.41580069158285
 20
115.0638489522719
 30
0.0
 10
-99.45838691851199
 20
115.1007518135822
 30
0.0
 10
-99.5041176273053
 20
115.1359210501537
 30
0.0
 10
-99.55423706609882
 20
115.1657784208422
 30
0.0
 10
-99.60723405244465
 20
115.1913100128686
 30
0.0
 10
-99.66316726077277
 20
115.21236434692
 30
0.0
 10
-99.72221820613306
 20
115.2282024155166
 30
0.0
 10
-99.7841094405806
 20
115.2395742145026
 30
0.0
 10
-99.8489589820526
 20
115.2466840870091
 30
0.0
 10
-99.89320191037335
 20
115.2477077214403
 30
0.0
 10
-99.91569272724068
 20
115.248228084251
 30
0.0
  0
SPLINE
  5
EC
330
1F
100
AcDbEntity
  8
0
  6
Continuous
 62
     7
370
    15
100
AcDbSpline
210
0.0
220
0.0
230
1.0
 70
     8
 71
     3
 72
    19
 73
    15
 74
     0
 42
0.000000001
 43
0.00000001
 40
0.0
 40
0.0
 40
0.0
 40
0.0
 40
0.1227119423657764
 40
0.2396849640167833
 40
0.3518158552561025
 40
0.4637661328620859
 40
0.5208177931608317
 40
0.5794482914480086
 40
0.6406041451203285
 40
0.7052975118059862
 40
0.7736338807131309
 40
0.8446693818863832
 40
0.9200565080211351
 40
1.0
 40
1.0
 40
1.0
 40
1.0
 10
-99.9156927272407
 20
115.248228084251
 30
0.0
 10
-99.95184388321482
 20
115.2469659201481
 30
0.0
 10
-100.0224554989368
 20
115.2445006200988
 30
0.0
 10
-100.1242504592724
 20
115.2229078864691
 30
0.0
 10
-100.2188829979728
 20
115.1884563393001
 30
0.0
 10
-100.2912173598075
 20
115.1473328145298
 30
0.0
 10
-100.3446322663655
 20
115.1067377781078
 30
0.0
 10
-100.382802060307
 20
115.0712844704711
 30
0.0
 10
-100.4202856661743
 20
115.031884694721
 30
0.0
 10
-100.4546171016018
 20
114.986111740005
 30
0.0
 10
-100.4893370661566
 20
114.9370654374747
 30
0.0
 10
-100.5209460612576
 20
114.882252526362
 30
0.0
 10
-100.5516616392284
 20
114.8231028258166
 30
0.0
 10
-100.5701696663826
 20
114.7812875001874
 30
0.0
 10
-100.5796951310869
 20
114.7597665457894
 30
0.0
  0
LINE
  5
ED
330
1F
100
AcDbEntity
  8
0
  6
Continuous
 62
     7
370
    15
100
AcDbLine
 10
-100.5796951311
 20
114.7597665458
 30
0.0
 11
-100.8646310285
 21
114.7597665458
 31
0.0
  0
SPLINE
  5
EE
330
1F
100
AcDbEntity
  8
0
  6
Continuous
 62
     7
370
    15
100
AcDbSpline
210
0.0
220
0.0
230
1.0
 70
     8
 71
     3
 72
    23
 73
    19
 74
     0
 42
0.000000001
 43
0.00000001
 40
0.0
 40
0.0
 40
0.0
 40
0.0
 40
0.0726253460834373
 40
0.1419766113262391
 40
0.2089849284189362
 40
0.2739568703644421
 40
0.3368893473968414
 40
0.3987449534945931
 40
0.4601158852788595
 40
0.5208249225900247
 40
0.5809944586324894
 40
0.6401519276014636
 40
0.6986224507562545
 40
0.7572710809271654
 40
0.816426694004654
 40
0.8762540482034714
 40
0.9371652930625367
 40
1.0
 40
1.0
 40
1.0
 40
1.0
 10
-100.8646310285227
 20
114.7597665457894
 30
0.0
 10
-100.856911650405
 20
114.7917274419671
 30
0.0
 10
-100.8418208975782
 20
114.8542083798072
 30
0.0
 10
-100.8103452416457
 20
114.9434778235758
 30
0.0
 10
-100.7760559172905
 20
115.0279541608374
 30
0.0
 10
-100.7348815152925
 20
115.1060555991182
 30
0.0
 10
-100.6899700025303
 20
115.1793517465971
 30
0.0
 10
-100.6385143908513
 20
115.2461801666504
 30
0.0
 10
-100.5828886425237
 20
115.3082404996099
 30
0.0
 10
-100.5213617242285
 20
115.3633160793939
 30
0.0
 10
-100.4568378668829
 20
115.4131887337457
 30
0.0
 10
-100.3884078903947
 20
115.4557111071919
 30
0.0
 10
-100.3174485511364
 20
115.4922908744333
 30
0.0
 10
-100.2434682091044
 20
115.5224263704917
 30
0.0
 10
-100.1662466104981
 20
115.5451280955317
 30
0.0
 10
-100.0864818807714
 20
115.5615989120319
 30
0.0
 10
-100.0039649913817
 20
115.5722951370692
 30
0.0
 10
-99.94795110562468
 20
115.5733390435833
 30
0.0
 10
-99.91950883300991
 20
115.573869109892
 30
0.0
  0
SPLINE
  5
EF
330
1F
100
AcDbEntity
  8
0
  6
Continuous
 62
     7
370
    15
100
AcDbSpline
210
0.0
220
0.0
230
1.0
 70
     8
 71
     3
 72
    19
 73
    15
 74
     0
 42
0.000000001
 43
0.00000001
 40
0.0
 40
0.0
 40
0.0
 40
0.0
 40
0.0902542493426731
 40
0.1785397915286799
 40
0.2660930338538139
 40
0.3546309779571707
 40
0.4418861533505595
 40
0.5257469151636411
 40
0.6081136336036286
 40
0.6901972728278789
 40
0.7708214843303284
 40
0.8483261812554053
 40
0.924011740024744
 40
1.0
 40
1.0
 40
1.0
 40
1.0
 10
-99.91950883300991
 20
115.573869109892
 30
0.0
 10
-99.87806805984182
 20
115.5726179510269
 30
0.0
 10
-99.79609045705739
 20
115.5701429247033
 30
0.0
 10
-99.67565540732372
 20
115.5475419716116
 30
0.0
 10
-99.55951679285252
 20
115.5117777444046
 30
0.0
 10
-99.4489458323334
 20
115.4623622919302
 30
0.0
 10
-99.34624053990682
 20
115.4014138007047
 30
0.0
 10
-99.2548584276433
 20
115.3288743608073
 30
0.0
 10
-99.1760381356998
 20
115.2461435658866
 30
0.0
 10
-99.10991252167949
 20
115.1547647396833
 30
0.0
 10
-99.05813734396651
 20
115.0571058133109
 30
0.0
 10
-99.01995899088134
 20
114.9565942421845
 30
0.0
 10
-98.99671646597541
 20
114.853468453853
 30
0.0
 10
-98.99370424658329
 20
114.7838386363156
 30
0.0
 10
-98.99219513108685
 20
114.7489542461099
 30
0.0
  0
SPLINE
  5
F0
330
1F
100
AcDbEntity
  8
0
  6
Continuous
 62
     7
370
    15
100
AcDbSpline
210
0.0
220
0.0
230
1.0
 70
     8
 71
     3
 72
    15
 73
    11
 74
     0
 42
0.000000001
 43
0.00000001
 40
0.0
 40
0.0
 40
0.0
 40
0.0
 40
0.1280675485958915
 40
0.2506083188676601
 40
0.3706301659144942
 40
0.4900722467299451
 40
0.6103747641546136
 40
0.734313069911521
 40
0.8632165042449798
 40
1.0
 40
1.0
 40
1.0
 40
1.0
 10
-98.99219513108685
 20
114.7489542461099
 30
0.0
 10
-98.99325067439382
 20
114.715383796627
 30
0.0
 10
-98.99531620884464
 20
114.6496916365069
 30
0.0
 10
-99.0128546417476
 20
114.5537871355315
 30
0.0
 10
-99.04236968021388
 20
114.4633979695613
 30
0.0
 10
-99.08325439340955
 20
114.378143629635
 30
0.0
 10
-99.13617851398459
 20
114.2985646677954
 30
0.0
 10
-99.20028874616375
 20
114.2244820382291
 30
0.0
 10
-99.27603758934572
 20
114.1555671590699
 30
0.0
 10
-99.3334406259812
 20
114.1160887800136
 30
0.0
 10
-99.36299340833044
 20
114.0957641419432
 30
0.0
  0
SPLINE
  5
F1
330
1F
100
AcDbEntity
  8
0
  6
Continuous
 62
     7
370
    15
100
AcDbSpline
210
0.0
220
0.0
230
1.0
 70
     8
 71
     3
 72
    11
 73
     7
 74
     0
 42
0.000000001
 43
0.00000001
 40
0.0
 40
0.0
 40
0.0
 40
0.0
 40
0.2538796003266595
 40
0.5030089172783566
 40
0.7502910806899522
 40
1.0
 40
1.0
 40
1.0
 40
1.0
 10
-99.36299340833044
 20
114.0957641419432
 30
0.0
 10
-99.32921888811035
 20
114.0794553720449
 30
0.0
 10
-99.26230179502507
 20
114.0471429819271
 30
0.0
 10
-99.1710881003774
 20
113.983773830465
 30
0.0
 10
-99.08828602773212
 20
113.9106070010797
 30
0.0
 10
-99.04210908263583
 20
113.8535090230795
 30
0.0
 10
-99.01890787147146
 20
113.8248206323279
 30
0.0
  0
SPLINE
  5
F2
330
1F
100
AcDbEntity
  8
0
  6
Continuous
 62
     7
370
    15
100
AcDbSpline
210
0.0
220
0.0
230
1.0
 70
     8
 71
     3
 72
    15
 73
    11
 74
     0
 42
0.000000001
 43
0.00000001
 40
0.0
 40
0.0
 40
0.0
 40
0.0
 40
0.1281355097972528
 40
0.2541727119019784
 40
0.3781116451389988
 40
0.5017122630072837
 40
0.6239863093684771
 40
0.747095613617741
 40
0.8728746366500554
 40
1.0
 40
1.0
 40
1.0
 40
1.0
 10
-99.01890787147146
 20
113.8248206323279
 30
0.0
 10
-99.00363036805149
 20
113.8039039576543
 30
0.0
 10
-98.97332554090804
 20
113.7624131333374
 30
0.0
 10
-98.93591902100464
 20
113.6957050898569
 30
0.0
 10
-98.90198361016965
 20
113.6282576674367
 30
0.0
 10
-98.87554019692327
 20
113.5582630633989
 30
0.0
 10
-98.85506247486408
 20
113.4865325438298
 30
0.0
 10
-98.84042478847513
 20
113.4129429416912
 30
0.0
 10
-98.83133146067607
 20
113.3374341642062
 30
0.0
 10
-98.83002920992011
 20
113.2863507000062
 30
0.0
 10
-98.82937461826633
 20
113.2606729961099
 30
0.0
  0
SPLINE
  5
F3
330
1F
100
AcDbEntity
  8
0
  6
Continuous
 62
     7
370
    15
100
AcDbSpline
210
0.0
220
0.0
230
1.0
 70
     8
 71
     3
 72
    19
 73
    15
 74
     0
 42
0.000000001
 43
0.00000001
 40
0.0
 40
0.0
 40
0.0
 40
0.0
 40
0.0796482511802222
 40
0.1589216764181073
 40
0.2396194947370247
 40
0.3226094298185523
 40
0.4060346366179199
 40
0.4876020954923851
 40
0.5696846265959291
 40
0.6530361450088271
 40
0.7374357177222858
 40
0.8224778158555028
 40
0.9097476551184033
 40
1.0
 40
1.0
 40
1.0
 40
1.0
 10
-98.82937461826633
 20
113.2606729961099
 30
0.0
 10
-98.83100249838662
 20
113.2162141776043
 30
0.0
 10
-98.83425059779736
 20
113.1275057645032
 30
0.0
 10
-98.86328286520504
 20
112.9964465527359
 30
0.0
 10
-98.90828916212027
 20
112.8683348470995
 30
0.0
 10
-98.9722036683195
 20
112.7458026714981
 30
0.0
 10
-99.05009776561396
 20
112.6311576115908
 30
0.0
 10
-99.14276905254698
 20
112.5285812455349
 30
0.0
 10
-99.24916458017634
 20
112.4404082258872
 30
0.0
 10
-99.36782399020521
 20
112.3667389475803
 30
0.0
 10
-99.4963816710445
 20
112.3078491181621
 30
0.0
 10
-99.6338823866418
 20
112.2669755807227
 30
0.0
 10
-99.77834493559581
 20
112.2403545667352
 30
0.0
 10
-99.8774115555184
 20
112.2374999070992
 30
0.0
 10
-99.92777706217659
 20
112.2360485970715
 30
0.0
  0
SPLINE
  5
F4
330
1F
100
AcDbEntity
  8
0
  6
Continuous
 62
     7
370
    15
100
AcDbSpline
210
0.0
220
0.0
230
1.0
 70
     8
 71
     3
 72
    23
 73
    19
 74
     0
 42
0.000000001
 43
0.00000001
 40
0.0
 40
0.0
 40
0.0
 40
0.0
 40
0.0655411703374004
 40
0.1289631677825877
 40
0.1903771361885541
 40
0.2500923616690464
 40
0.3085484324591975
 40
0.3663979630552964
 40
0.4245421892666768
 40
0.4831699964229001
 40
0.5422433998311154
 40
0.6017393520173312
 40
0.6625060022495995
 40
0.7248555134488432
 40
0.7891278292811774
 40
0.8563463998785099
 40
0.926295234986907
 40
1.0
 40
1.0
 40
1.0
 40
1.0
 10
-99.92777706217659
 20
112.2360485970715
 30
0.0
 10
-99.96172171314774
 20
112.2368361905274
 30
0.0
 10
-100.0285134670328
 20
112.2383859118167
 30
0.0
 10
-100.126705783426
 20
112.2489800714736
 30
0.0
 10
-100.2204333249924
 20
112.2683294333679
 30
0.0
 10
-100.3098228173338
 20
112.2943674318071
 30
0.0
 10
-100.3949536717765
 20
112.3273799406944
 30
0.0
 10
-100.4755661100449
 20
112.3684904738995
 30
0.0
 10
-100.552156084881
 20
112.4168516221894
 30
0.0
 10
-100.624000847705
 20
112.4730342339853
 30
0.0
 10
-100.6910918341242
 20
112.535882306479
 30
0.0
 10
-100.7516460911044
 20
112.6065115512354
 30
0.0
 10
-100.8066731889876
 20
112.683616339078
 30
0.0
 10
-100.854699725533
 20
112.768092254344
 30
0.0
 10
-100.8979132468346
 20
112.8588475948746
 30
0.0
 10
-100.9334559717932
 20
112.9570444469779
 30
0.0
 10
-100.9647393090561
 20
113.0618049526394
 30
0.0
 10
-100.9792839516222
 20
113.1348097597989
 30
0.0
 10
-100.9867464131381
 20
113.1722665457894
 30
0.0
  0
LINE
  5
F5
330
1F
100
AcDbEntity
  8
0
  6
Continuous
 62
     7
370
    15
100
AcDbLine
 10
-100.9867464131
 20
113.1722665458
 30
0.0
 11
-100.7018105157
 21
113.1722665458
 31
0.0
  0
SPLINE
  5
F6
330
1F
100
AcDbEntity
  8
0
  6
Continuous
 62
     7
370
    15
100
AcDbSpline
210
0.0
220
0.0
230
1.0
 70
     8
 71
     3
 72
    15
 73
    11
 74
     0
 42
0.000000001
 43
0.00000001
 40
0.0
 40
0.0
 40
0.0
 40
0.0
 40
0.1497703860319837
 40
0.2913164099952466
 40
0.4259663731047522
 40
0.5521595739695521
 40
0.6715274135236086
 40
0.7861216286916702
 40
0.895325073070452
 40
1.0
 40
1.0
 40
1.0
 40
1.0
 10
-100.7018105157022
 20
113.1722665457894
 30
0.0
 10
-100.6943871013243
 20
113.1478199408957
 30
0.0
 10
-100.679947915556
 20
113.1002691709278
 30
0.0
 10
-100.6553695166242
 20
113.0318340364942
 30
0.0
 10
-100.6273675841032
 20
112.9690978024974
 30
0.0
 10
-100.597327948769
 20
112.9116002561317
 30
0.0
 10
-100.5657789298769
 20
112.858775148182
 30
0.0
 10
-100.5304775335032
 20
112.812019309844
 30
0.0
 10
-100.4940383804052
 20
112.7692790906965
 30
0.0
 10
-100.4665706812937
 20
112.7451993355793
 30
0.0
 10
-100.453127623074
 20
112.7334143823279
 30
0.0
  0
SPLINE
  5
F7
330
1F
100
AcDbEntity
  8
0
  6
Continuous
 62
     7
370
    15
100
AcDbSpline
210
0.0
220
0.0
230
1.0
 70
     8
 71
     3
 72
    15
 73
    11
 74
     0
 42
0.000000001
 43
0.00000001
 40
0.0
 40
0.0
 40
0.0
 40
0.0
 40
0.1182713048357369
 40
0.2361775330837602
 40
0.3556629329485174
 40
0.4759041646706895
 40
0.6001273417110807
 40
0.7286081161551058
 40
0.8613134756739491
 40
1.0
 40
1.0
 40
1.0
 40
1.0
 10
-100.453127623074
 20
112.7334143823279
 30
0.0
 10
-100.4353507286548
 20
112.7197089651603
 30
0.0
 10
-100.3998518130416
 20
112.6923404363272
 30
0.0
 10
-100.342004917688
 20
112.6574139590109
 30
0.0
 10
-100.2811674853102
 20
112.6271507431715
 30
0.0
 10
-100.2160213165527
 20
112.6040333906288
 30
0.0
 10
-100.1479722033551
 20
112.58445936977
 30
0.0
 10
-100.0759202363234
 20
112.5716500416999
 30
0.0
 10
-100.000501089372
 20
112.5628614862671
 30
0.0
 10
-99.94900461821237
 20
112.5620859412704
 30
0.0
 10
-99.92268892115094
 20
112.5616896227125
 30
0.0
  0
SPLINE
  5
F8
330
1F
100
AcDbEntity
  8
0
  6
Continuous
 62
     7
370
    15
100
AcDbSpline
210
0.0
220
0.0
230
1.0
 70
     8
 71
     3
 72
    23
 73
    19
 74
     0
 42
0.000000001
 43
0.00000001
 40
0.0
 40
0.0
 40
0.0
 40
0.0
 40
0.0760717369555655
 40
0.1487517145745047
 40
0.218402793845844
 40
0.285759581062381
 40
0.3505980236748767
 40
0.4149640445981249
 40
0.4780693385717833
 40
0.5417606760069067
 40
0.6043498585387103
 40
0.6640750210708941
 40
0.7214636230802028
 40
0.7775871282364414
 40
0.8326444469271296
 40
0.8878435110684594
 40
0.9434603426519441
 40
1.0
 40
1.0
 40
1.0
 40
1.0
 10
-99.92268892115094
 20
112.5616896227125
 30
0.0
 10
-99.89297681517711
 20
112.5622483367581
 30
0.0
 10
-99.83487735690116
 20
112.5633408538422
 30
0.0
 10
-99.75010044879394
 20
112.5733881021955
 30
0.0
 10
-99.66944869278788
 20
112.5880206915344
 30
0.0
 10
-99.59381753869756
 20
112.6106203259479
 30
0.0
 10
-99.5222162927434
 20
112.6385429554838
 30
0.0
 10
-99.45564865344252
 20
112.6736025804156
 30
0.0
 10
-99.39324075710991
 20
112.714736720758
 30
0.0
 10
-99.33579193933025
 20
112.7614901003824
 30
0.0
 10
-99.28413422894359
 20
112.8126724566344
 30
0.0
 10
-99.238650527646
 20
112.8662057425703
 30
0.0
 10
-99.19998387044681
 20
112.9218642450541
 30
0.0
 10
-99.16879305308971
 20
112.9799559690285
 30
0.0
 10
-99.14416362531703
 20
113.0402403552269
 30
0.0
 10
-99.12739672194381
 20
113.1028865789984
 30
0.0
 10
-99.11573856179476
 20
113.1673819561978
 30
0.0
 10
-99.11478913503367
 20
113.2112232351663
 30
0.0
 10
-99.11431051570223
 20
113.2333242380971
 30
0.0
  0
SPLINE
  5
F9
330
1F
100
AcDbEntity
  8
0
  6
Continuous
 62
     7
370
    15
100
AcDbSpline
210
0.0
220
0.0
230
1.0
 70
     8
 71
     3
 72
    23
 73
    19
 74
     0
 42
0.000000001
 43
0.00000001
 40
0.0
 40
0.0
 40
0.0
 40
0.0
 40
0.0669091856056587
 40
0.1334854404229653
 40
0.2010351165700822
 40
0.2712343400187698
 40
0.3428799841615828
 40
0.4138361296100203
 40
0.4859766219744148
 40
0.560229557255547
 40
0.5998841807523869
 40
0.644054839642593
 40
0.6918919315842552
 40
0.7446875244737666
 40
0.8014917751698706
 40
0.8628576982200896
 40
0.929328379394734
 40
1.0
 40
1.0
 40
1.0
 40
1.0
 10
-99.11431051570223
 20
113.2333242380971
 30
0.0
 10
-99.11569871780064
 20
113.2629073812149
 30
0.0
 10
-99.11846821449716
 20
113.3219264658508
 30
0.0
 10
-99.13961242584756
 20
113.4087559796552
 30
0.0
 10
-99.17439125266439
 20
113.4924157895106
 30
0.0
 10
-99.22307988792244
 20
113.5714785419204
 30
0.0
 10
-99.2823487274793
 20
113.6447538240266
 30
0.0
 10
-99.35162260727276
 20
113.7101329545602
 30
0.0
 10
-99.43147678586858
 20
113.764080822889
 30
0.0
 10
-99.50497338134872
 20
113.8013541040507
 30
0.0
 10
-99.57007463047039
 20
113.8267877365388
 30
0.0
 10
-99.6257871577816
 20
113.8437285971463
 30
0.0
 10
-99.68815921941331
 20
113.8580738419383
 30
0.0
 10
-99.75643655018031
 20
113.8714199739642
 30
0.0
 10
-99.83113361081075
 20
113.882778625502
 30
0.0
 10
-99.91216907954808
 20
113.8922508440692
 30
0.0
 10
-99.99955937757535
 20
113.8998300597832
 30
0.0
 10
-100.0600577923183
 20
113.903214696217
 30
0.0
 10
-100.0912335926253
 20
113.9049588534817
 30
0.0
  0
LINE
  5
FA
330
1F
100
AcDbEntity
  8
0
  6
Continuous
 62
     7
370
    15
100
AcDbLine
 10
-100.0912335926
 20
113.9049588535
 30
0.0
 11
-100.0912335926
 21
114.2305998791
 31
0.0
  0
SPLINE
  5
FB
330
1F
100
AcDbEntity
  8
0
  6
Continuous
 62
     7
370
    15
100
AcDbSpline
210
0.0
220
0.0
230
1.0
 70
     8
 71
     3
 72
    19
 73
    15
 74
     0
 42
0.000000001
 43
0.00000001
 40
0.0
 40
0.0
 40
0.0
 40
0.0
 40
0.1101655532114476
 40
0.2157872561749737
 40
0.318027434909421
 40
0.4175739541655099
 40
0.5116504876474506
 40
0.5961620971027646
 40
0.6729345334849977
 40
0.7436695573498597
 40
0.8106770010653659
 40
0.8740589623137306
 40
0.9366963019193753
 40
1.0
 40
1.0
 40
1.0
 40
1.0
 10
-100.0912335926253
 20
114.2305998791227
 30
0.0
 10
-100.0519532494362
 20
114.2312664510698
 30
0.0
 10
-99.97501270648706
 20
114.2325721017684
 30
0.0
 10
-99.86262287288345
 20
114.2483636540554
 30
0.0
 10
-99.75515065401788
 20
114.2702082237916
 30
0.0
 10
-99.65497782377423
 20
114.3036683624941
 30
0.0
 10
-99.5636750623775
 20
114.3425306317878
 30
0.0
 10
-99.48446370906034
 20
114.3877537075628
 30
0.0
 10
-99.41845351117612
 20
114.4380228015224
 30
0.0
 10
-99.36596525346619
 20
114.4941138114258
 30
0.0
 10
-99.32647802462162
 20
114.5542710330713
 30
0.0
 10
-99.29760657267087
 20
114.6169697154022
 30
0.0
 10
-99.28055199100564
 20
114.6827593992516
 30
0.0
 10
-99.27827536458726
 20
114.7276581337319
 30
0.0
 10
-99.27713102852275
 20
114.7502262813663
 30
0.0
  0
LINE
  5
FC
330
1F
100
AcDbEntity
  8
0
  6
Continuous
 62
     7
370
    15
100
AcDbLine
 10
-102.6149515413
 20
112.3174588535
 30
0.0
 11
-102.6556566695
 21
112.3174588535
 31
0.0
  0
LINE
  5
FD
330
1F
100
AcDbEntity
  8
0
  6
Continuous
 62
     7
370
    15
100
AcDbLine
 10
-102.6556566695
 20
112.3174588535
 30
0.0
 11
-103.9989259003
 21
115.4924588535
 31
0.0
  0
LINE
  5
FE
330
1F
100
AcDbEntity
  8
0
  6
Continuous
 62
     7
370
    15
100
AcDbLine
 10
-103.9989259003
 20
115.4924588535
 30
0.0
 11
-103.6936374388
 21
115.4924588535
 31
0.0
  0
LINE
  5
FF
330
1F
100
AcDbEntity
  8
0
  6
Continuous
 62
     7
370
    15
100
AcDbLine
 10
-103.6936374388
 20
115.4924588535
 30
0.0
 11
-102.6353041054
 21
112.9903655041
 31
0.0
  0
LINE
  5
100
330
1F
100
AcDbEntity
  8
0
  6
Continuous
 62
     7
370
    15
100
AcDbLine
 10
-102.6353041054
 20
112.9903655041
 30
0.0
 11
-101.5769707721
 21
115.4924588535
 31
0.0
  0
LINE
  5
101
330
1F
100
AcDbEntity
  8
0
  6
Continuous
 62
     7
370
    15
100
AcDbLine
 10
-101.5769707721
 20
115.4924588535
 30
0.0
 11
-101.2716823106
 21
115.4924588535
 31
0.0
  0
LINE
  5
102
330
1F
100
AcDbEntity
  8
0
  6
Continuous
 62
     7
370
    15
100
AcDbLine
 10
-101.2716823106
 20
115.4924588535
 30
0.0
 11
-102.6149515413
 21
112.3174588535
 31
0.0
  0
LINE
  5
103
330
1F
100
AcDbEntity
  8
0
  6
Continuous
 62
     7
370
    15
100
AcDbLine
 10
-105.7899515413
 20
112.3174588535
 30
0.0
 11
-106.0748874388
 21
112.3174588535
 31
0.0
  0
LINE
  5
104
330
1F
100
AcDbEntity
  8
0
  6
Continuous
 62
     7
370
    15
100
AcDbLine
 10
-106.0748874388
 20
112.3174588535
 30
0.0
 11
-106.0748874388
 21
115.4924588535
 31
0.0
  0
LINE
  5
105
330
1F
100
AcDbEntity
  8
0
  6
Continuous
 62
     7
370
    15
100
AcDbLine
 10
-106.0748874388
 20
115.4924588535
 30
0.0
 11
-105.7899515413
 21
115.4924588535
 31
0.0
  0
LINE
  5
106
330
1F
100
AcDbEntity
  8
0
  6
Continuous
 62
     7
370
    15
100
AcDbLine
 10
-105.7899515413
 20
115.4924588535
 30
0.0
 11
-105.7899515413
 21
112.3174588535
 31
0.0
  0
LINE
  5
107
330
1F
100
AcDbEntity
  8
0
  6
Continuous
 62
     7
370
    15
100
AcDbLine
 10
-106.8889900029
 20
112.3174588535
 30
0.0
 11
-107.1739259003
 21
112.3174588535
 31
0.0
  0
LINE
  5
108
330
1F
100
AcDbEntity
  8
0
  6
Continuous
 62
     7
370
    15
100
AcDbLine
 10
-107.1739259003
 20
112.3174588535
 30
0.0
 11
-107.1739259003
 21
115.4924588535
 31
0.0
  0
LINE
  5
109
330
1F
100
AcDbEntity
  8
0
  6
Continuous
 62
     7
370
    15
100
AcDbLine
 10
-107.1739259003
 20
115.4924588535
 30
0.0
 11
-106.8889900029
 21
115.4924588535
 31
0.0
  0
LINE
  5
10A
330
1F
100
AcDbEntity
  8
0
  6
Continuous
 62
     7
370
    15
100
AcDbLine
 10
-106.8889900029
 20
115.4924588535
 30
0.0
 11
-106.8889900029
 21
112.3174588535
 31
0.0
  0
LINE
  5
10B
330
1F
100
AcDbEntity
  8
0
  6
Continuous
 62
     7
370
    15
100
AcDbLine
 10
-107.9880284644
 20
112.3174588535
 30
0.0
 11
-108.2729643619
 21
112.3174588535
 31
0.0
  0
LINE
  5
10C
330
1F
100
AcDbEntity
  8
0
  6
Continuous
 62
     7
370
    15
100
AcDbLine
 10
-108.2729643619
 20
112.3174588535
 30
0.0
 11
-108.2729643619
 21
115.4924588535
 31
0.0
  0
LINE
  5
10D
330
1F
100
AcDbEntity
  8
0
  6
Continuous
 62
     7
370
    15
100
AcDbLine
 10
-108.2729643619
 20
115.4924588535
 30
0.0
 11
-107.9880284644
 21
115.4924588535
 31
0.0
  0
LINE
  5
10E
330
1F
100
AcDbEntity
  8
0
  6
Continuous
 62
     7
370
    15
100
AcDbLine
 10
-107.9880284644
 20
115.4924588535
 30
0.0
 11
-107.9880284644
 21
112.3174588535
 31
0.0
  0
SPLINE
  5
10F
330
1F
100
AcDbEntity
  8
0
  6
Continuous
 62
     7
370
    15
100
AcDbSpline
210
0.0
220
0.0
230
1.0
 70
     8
 71
     3
 72
    15
 73
    11
 74
     0
 42
0.000000001
 43
0.00000001
 40
0.0
 40
0.0
 40
0.0
 40
0.0
 40
0.1277566033101528
 40
0.2494143553365528
 40
0.3727964764554215
 40
0.5001113325158788
 40
0.6286099407651244
 40
0.7506433738258135
 40
0.8737683791425163
 40
1.0
 40
1.0
 40
1.0
 40
1.0
 10
-109.2295348746765
 20
112.2767537252765
 30
0.0
 10
-109.2472476605179
 20
112.277700417
 30
0.0
 10
-109.2818276583213
 20
112.279548607229
 30
0.0
 10
-109.3315263816587
 20
112.2951177243528
 30
0.0
 10
-109.3772527031551
 20
112.3194504347168
 30
0.0
 10
-109.4178815559451
 20
112.3532568454618
 30
0.0
 10
-109.4510271694571
 20
112.3940784041135
 30
0.0
 10
-109.4760873381881
 20
112.4396186051625
 30
0.0
 10
-109.4911369733097
 20
112.4893131948174
 30
0.0
 10
-109.4931162435146
 20
112.5238523351083
 30
0.0
 10
-109.4941182080099
 20
112.5413370586099
 30
0.0
  0
SPLINE
  5
110
330
1F
100
AcDbEntity
  8
0
  6
Continuous
 62
     7
370
    15
100
AcDbSpline
210
0.0
220
0.0
230
1.0
 70
     8
 71
     3
 72
    15
 73
    11
 74
     0
 42
0.000000001
 43
0.00000001
 40
0.0
 40
0.0
 40
0.0
 40
0.0
 40
0.1290969581672441
 40
0.2520459672599907
 40
0.3739049644019981
 40
0.5010378352202007
 40
0.6281707060384033
 40
0.7513764634091713
 40
0.8724260133704331
 40
1.0
 40
1.0
 40
1.0
 40
1.0
 10
-109.4941182080099
 20
112.5413370586099
 30
0.0
 10
-109.4931547322567
 20
112.5592525672904
 30
0.0
 10
-109.4912736640922
 20
112.5942303992892
 30
0.0
 10
-109.4760557437209
 20
112.6443038753579
 30
0.0
 10
-109.4512216086359
 20
112.6898138166777
 30
0.0
 10
-109.417652428893
 20
112.7300878572183
 30
0.0
 10
-109.3772625319085
 20
112.763822053208
 30
0.0
 10
-109.3316366886399
 20
112.7883736869847
 30
0.0
 10
-109.2817079627927
 20
112.8029246323245
 30
0.0
 10
-109.2472275186599
 20
112.8049044868031
 30
0.0
 10
-109.2295348746765
 20
112.8059203919432
 30
0.0
  0
SPLINE
  5
111
330
1F
100
AcDbEntity
  8
0
  6
Continuous
 62
     7
370
    15
100
AcDbSpline
210
0.0
220
0.0
230
1.0
 70
     8
 71
     3
 72
    15
 73
    11
 74
     0
 42
0.000000001
 43
0.00000001
 40
0.0
 40
0.0
 40
0.0
 40
0.0
 40
0.1275189266999359
 40
0.2499859477487955
 40
0.3717923515057347
 40
0.4988703527764555
 40
0.6259483540471763
 40
0.7484917380160447
 40
0.8709587590648952
 40
1.0
 40
1.0
 40
1.0
 40
1.0
 10
-109.2295348746765
 20
112.8059203919432
 30
0.0
 10
-109.2118544679197
 20
112.8048697693062
 30
0.0
 10
-109.1771940974626
 20
112.8028101464531
 30
0.0
 10
-109.1270843167759
 20
112.7886798781137
 30
0.0
 10
-109.0817320183216
 20
112.7635895218288
 30
0.0
 10
-109.0413349105507
 20
112.7301497157434
 30
0.0
 10
-109.0080368925609
 20
112.6896043641893
 30
0.0
 10
-108.9820523731307
 20
112.6446137898358
 30
0.0
 10
-108.9680451936884
 20
112.5940844879963
 30
0.0
 10
-108.9660005736888
 20
112.5592232828513
 30
0.0
 10
-108.9649515413432
 20
112.5413370586099
 30
0.0
  0
SPLINE
  5
112
330
1F
100
AcDbEntity
  8
0
  6
Continuous
 62
     7
370
    15
100
AcDbSpline
210
0.0
220
0.0
230
1.0
 70
     8
 71
     3
 72
    15
 73
    11
 74
     0
 42
0.000000001
 43
0.00000001
 40
0.0
 40
0.0
 40
0.0
 40
0.0
 40
0.1261777183170064
 40
0.2488206074857863
 40
0.3715399692351529
 40
0.4999837069108815
 40
0.6272441978753703
 40
0.7492255210762757
 40
0.872297950417658
 40
0.9999999999999999
 40
0.9999999999999999
 40
0.9999999999999999
 40
0.9999999999999999
 10
-108.9649515413432
 20
112.5413370586099
 30
0.0
 10
-108.9660361220195
 20
112.5238806094682
 30
0.0
 10
-108.968174899185
 20
112.4894567481247
 30
0.0
 10
-108.9820202651306
 20
112.4393085641731
 30
0.0
 10
-109.0082349249821
 20
112.394289872261
 30
0.0
 10
-109.0411052399902
 20
112.3531943612445
 30
0.0
 10
-109.081742004718
 20
112.3196837143356
 30
0.0
 10
-109.12719153683
 20
112.2948068230427
 30
0.0
 10
-109.1770764638726
 20
112.2796648126964
 30
0.0
 10
-109.2118348429099
 20
112.277735957468
 30
0.0
 10
-109.2295348746765
 20
112.2767537252765
 30
0.0
  0
LINE
  5
113
330
1F
100
AcDbEntity
  8
0
  6
Continuous
 62
     7
370
    15
100
AcDbLine
 10
-111.7736053875
 20
112.3174588535
 30
0.0
 11
-112.0585412849
 21
112.3174588535
 31
0.0
  0
LINE
  5
114
330
1F
100
AcDbEntity
  8
0
  6
Continuous
 62
     7
370
    15
100
AcDbLine
 10
-112.0585412849
 20
112.3174588535
 30
0.0
 11
-112.0585412849
 21
115.4924588535
 31
0.0
  0
LINE
  5
115
330
1F
100
AcDbEntity
  8
0
  6
Continuous
 62
     7
370
    15
100
AcDbLine
 10
-112.0585412849
 20
115.4924588535
 30
0.0
 11
-111.7736053875
 21
115.4924588535
 31
0.0
  0
LINE
  5
116
330
1F
100
AcDbEntity
  8
0
  6
Continuous
 62
     7
370
    15
100
AcDbLine
 10
-111.7736053875
 20
115.4924588535
 30
0.0
 11
-111.7736053875
 21
114.2833893423
 31
0.0
  0
LINE
  5
117
330
1F
100
AcDbEntity
  8
0
  6
Continuous
 62
     7
370
    15
100
AcDbLine
 10
-111.7736053875
 20
114.2833893423
 30
0.0
 11
-110.4500527032
 21
115.4924588535
 31
0.0
  0
LINE
  5
118
330
1F
100
AcDbEntity
  8
0
  6
Continuous
 62
     7
370
    15
100
AcDbLine
 10
-110.4500527032
 20
115.4924588535
 30
0.0
 11
-110.0436374388
 21
115.4924588535
 31
0.0
  0
LINE
  5
119
330
1F
100
AcDbEntity
  8
0
  6
Continuous
 62
     7
370
    15
100
AcDbLine
 10
-110.0436374388
 20
115.4924588535
 30
0.0
 11
-111.6037886808
 21
114.0677793663
 31
0.0
  0
LINE
  5
11A
330
1F
100
AcDbEntity
  8
0
  6
Continuous
 62
     7
370
    15
100
AcDbLine
 10
-111.6037886808
 20
114.0677793663
 30
0.0
 11
-109.9215220542
 21
112.3174588535
 31
0.0
  0
LINE
  5
11B
330
1F
100
AcDbEntity
  8
0
  6
Continuous
 62
     7
370
    15
100
AcDbLine
 10
-109.9215220542
 20
112.3174588535
 30
0.0
 11
-110.3012245782
 21
112.3174588535
 31
0.0
  0
LINE
  5
11C
330
1F
100
AcDbEntity
  8
0
  6
Continuous
 62
     7
370
    15
100
AcDbLine
 10
-110.3012245782
 20
112.3174588535
 30
0.0
 11
-111.7736053875
 21
113.8496253198
 31
0.0
  0
LINE
  5
11D
330
1F
100
AcDbEntity
  8
0
  6
Continuous
 62
     7
370
    15
100
AcDbLine
 10
-111.7736053875
 20
113.8496253198
 30
0.0
 11
-111.7736053875
 21
112.3174588535
 31
0.0
  0
MTEXT
  5
11F
330
1F
100
AcDbEntity
  8
0
  6
Continuous
 62
     7
100
AcDbMText
 10
-120.0
 20
-121.0195663917
 30
0.0
 40
4.83362
 41
0.0
 71
     1
 72
     1
  1
SOLIDWORKS Educational Product.
  7
SLDTEXTSTYLE0
 73
     1
 44
1.0
  0
MTEXT
  5
120
330
1F
100
AcDbEntity
  8
0
  6
Continuous
 62
     7
100
AcDbMText
 10
-120.0
 20
-128.2699963917
 30
0.0
 40
4.83362
 41
0.0
 71
     1
 72
     1
  1
For Instructional Use Only.
  7
SLDTEXTSTYLE0
 73
     1
 44
1.0
  0
ENDSEC
  0
SECTION
  2
OBJECTS
  0
DICTIONARY
  5
C
330
0
100
AcDbDictionary
281
     1
  3
ACAD_GROUP
350
D
  3
ACAD_LAYOUT
350
1A
  3
ACAD_MLINESTYLE
350
17
  3
ACAD_PLOTSETTINGS
350
19
  3
ACAD_PLOTSTYLENAME
350
E
  3
ACAD_SCALELIST
350
47
  0
DICTIONARY
  5
D
102
{ACAD_REACTORS
330
C
102
}
330
C
100
AcDbDictionary
281
     1
  0
DICTIONARY
  5
1A
102
{ACAD_REACTORS
330
C
102
}
330
C
100
AcDbDictionary
281
     1
  3
Layout1
350
1E
  3
Layout2
350
26
  3
Model
350
22
  0
DICTIONARY
  5
17
102
{ACAD_REACTORS
330
C
102
}
330
C
100
AcDbDictionary
281
     1
  3
Standard
350
18
  0
DICTIONARY
  5
19
102
{ACAD_REACTORS
330
C
102
}
330
C
100
AcDbDictionary
281
     1
  0
ACDBDICTIONARYWDFLT
  5
E
102
{ACAD_REACTORS
330
C
102
}
330
C
100
AcDbDictionary
281
     1
  3
Normal
350
F
100
AcDbDictionaryWithDefault
340
F
  0
DICTIONARY
  5
47
102
{ACAD_REACTORS
330
C
102
}
330
C
100
AcDbDictionary
281
     1
  3
A0
350
48
  3
A1
350
49
  3
A2
350
4A
  3
A3
350
4B
  3
A4
350
4C
  3
A5
350
4D
  3
A6
350
4E
  3
A7
350
4F
  3
A8
350
50
  3
A9
350
51
  3
B0
350
52
  3
B1
350
53
  3
B2
350
54
  3
B3
350
55
  3
B4
350
56
  3
B5
350
57
  3
B6
350
58
  3
B7
350
59
  3
B8
350
5A
  3
B9
350
5B
  3
C0
350
5C
  3
C1
350
5D
  3
C2
350
5E
  3
C3
350
5F
  3
C4
350
60
  3
C5
350
61
  3
C6
350
62
  3
C7
350
63
  3
C8
350
64
  3
C9
350
65
  3
D0
350
66
  3
D1
350
67
  3
D2
350
68
  0
LAYOUT
  5
1E
102
{ACAD_REACTORS
330
1A
102
}
330
1A
100
AcDbPlotSettings
  1

  2
none_device
  4

  6

 40
0.0
 41
0.0
 42
0.0
 43
0.0
 44
0.0
 45
0.0
 46
0.0
 47
0.0
 48
0.0
 49
0.0
140
0.0
141
0.0
142
1.0
143
1.0
 70
   688
 72
     1
 73
     0
 74
     5
  7

 75
    16
147
1.0
148
0.0
149
0.0
100
AcDbLayout
  1
Layout1
 70
     1
 71
     1
 10
0.0
 20
0.0
 11
420.0
 21
297.0
 12
0.0
 22
0.0
 32
0.0
 14
1.0000000000E+20
 24
1.0000000000E+20
 34
1.0000000000E+20
 15
-1.0000000000E+20
 25
-1.0000000000E+20
 35
-1.0000000000E+20
146
0.0
 13
0.0
 23
0.0
 33
0.0
 16
1.0
 26
0.0
 36
0.0
 17
0.0
 27
1.0
 37
0.0
 76
     0
330
1B
  0
LAYOUT
  5
26
102
{ACAD_REACTORS
330
1A
102
}
330
1A
100
AcDbPlotSettings
  1

  2
none_device
  4

  6

 40
0.0
 41
0.0
 42
0.0
 43
0.0
 44
0.0
 45
0.0
 46
0.0
 47
0.0
 48
0.0
 49
0.0
140
0.0
141
0.0
142
1.0
143
1.0
 70
   688
 72
     1
 73
     0
 74
     5
  7

 75
    16
147
1.0
148
0.0
149
0.0
100
AcDbLayout
  1
Layout2
 70
     1
 71
     2
 10
0.0
 20
0.0
 11
0.0
 21
0.0
 12
0.0
 22
0.0
 32
0.0
 14
0.0
 24
0.0
 34
0.0
 15
0.0
 25
0.0
 35
0.0
146
0.0
 13
0.0
 23
0.0
 33
0.0
 16
1.0
 26
0.0
 36
0.0
 17
0.0
 27
1.0
 37
0.0
 76
     0
330
23
  0
LAYOUT
  5
22
102
{ACAD_REACTORS
330
1A
102
}
330
1A
100
AcDbPlotSettings
  1

  2
none_device
  4
ANSI_A_(11.00_x_8.50_Inches)
  6

 40
6.35
 41
19.05
 42
6.35000508
 43
19.05000254
 44
279.4
 45
215.9
 46
133.34999746
 47
88.89999873
 48
0.0
 49
0.0
140
0.0
141
0.0
142
0.0350625
143
1.0
 70
  1696
 72
     0
 73
     0
 74
     0
  7

 75
     0
147
0.0179189148
148
-1300.4909072572
149
0.0
100
AcDbLayout
  1
Model
 70
     1
 71
     0
 10
0.0
 20
0.0
 11
420.0
 21
297.0
 12
0.0
 22
0.0
 32
0.0
 14
-120.0
 24
-120.0
 34
0.0
 15
120.0
 25
120.0
 35
0.0
146
0.0
 13
0.0
 23
0.0
 33
0.0
 16
1.0
 26
0.0
 36
0.0
 17
0.0
 27
1.0
 37
0.0
 76
     0
330
1F
331
29
  0
MLINESTYLE
  5
18
102
{ACAD_REACTORS
330
17
102
}
330
17
100
AcDbMlineStyle
  2
Standard
 70
     0
  3

 62
   256
 51
90.0
 52
90.0
 71
     2
 49
0.5
 62
   256
  6
BYLAYER
 49
-0.5
 62
   256
  6
BYLAYER
  0
ACDBPLACEHOLDER
  5
F
102
{ACAD_REACTORS
330
E
102
}
330
E
  0
SCALE
  5
48
102
{ACAD_REACTORS
330
47
102
}
330
47
100
AcDbScale
 70
     0
300
1:1
140
1.0
141
1.0
290
     1
  0
SCALE
  5
49
102
{ACAD_REACTORS
330
47
102
}
330
47
100
AcDbScale
 70
     0
300
1:2
140
1.0
141
2.0
290
     0
  0
SCALE
  5
4A
102
{ACAD_REACTORS
330
47
102
}
330
47
100
AcDbScale
 70
     0
300
1:4
140
1.0
141
4.0
290
     0
  0
SCALE
  5
4B
102
{ACAD_REACTORS
330
47
102
}
330
47
100
AcDbScale
 70
     0
300
1:5
140
1.0
141
5.0
290
     0
  0
SCALE
  5
4C
102
{ACAD_REACTORS
330
47
102
}
330
47
100
AcDbScale
 70
     0
300
1:8
140
1.0
141
8.0
290
     0
  0
SCALE
  5
4D
102
{ACAD_REACTORS
330
47
102
}
330
47
100
AcDbScale
 70
     0
300
1:10
140
1.0
141
10.0
290
     0
  0
SCALE
  5
4E
102
{ACAD_REACTORS
330
47
102
}
330
47
100
AcDbScale
 70
     0
300
1:16
140
1.0
141
16.0
290
     0
  0
SCALE
  5
4F
102
{ACAD_REACTORS
330
47
102
}
330
47
100
AcDbScale
 70
     0
300
1:20
140
1.0
141
20.0
290
     0
  0
SCALE
  5
50
102
{ACAD_REACTORS
330
47
102
}
330
47
100
AcDbScale
 70
     0
300
1:30
140
1.0
141
30.0
290
     0
  0
SCALE
  5
51
102
{ACAD_REACTORS
330
47
102
}
330
47
100
AcDbScale
 70
     0
300
1:40
140
1.0
141
40.0
290
     0
  0
SCALE
  5
52
102
{ACAD_REACTORS
330
47
102
}
330
47
100
AcDbScale
 70
     0
300
1:50
140
1.0
141
50.0
290
     0
  0
SCALE
  5
53
102
{ACAD_REACTORS
330
47
102
}
330
47
100
AcDbScale
 70
     0
300
1:100
140
1.0
141
100.0
290
     0
  0
SCALE
  5
54
102
{ACAD_REACTORS
330
47
102
}
330
47
100
AcDbScale
 70
     0
300
2:1
140
2.0
141
1.0
290
     0
  0
SCALE
  5
55
102
{ACAD_REACTORS
330
47
102
}
330
47
100
AcDbScale
 70
     0
300
4:1
140
4.0
141
1.0
290
     0
  0
SCALE
  5
56
102
{ACAD_REACTORS
330
47
102
}
330
47
100
AcDbScale
 70
     0
300
8:1
140
8.0
141
1.0
290
     0
  0
SCALE
  5
57
102
{ACAD_REACTORS
330
47
102
}
330
47
100
AcDbScale
 70
     0
300
10:1
140
10.0
141
1.0
290
     0
  0
SCALE
  5
58
102
{ACAD_REACTORS
330
47
102
}
330
47
100
AcDbScale
 70
     0
300
100:1
140
100.0
141
1.0
290
     0
  0
SCALE
  5
59
102
{ACAD_REACTORS
330
47
102
}
330
47
100
AcDbScale
 70
     0
300
1/128" = 1'-0"
140
0.0078125
141
12.0
290
     0
  0
SCALE
  5
5A
102
{ACAD_REACTORS
330
47
102
}
330
47
100
AcDbScale
 70
     0
300
1/64" = 1'-0"
140
0.015625
141
12.0
290
     0
  0
SCALE
  5
5B
102
{ACAD_REACTORS
330
47
102
}
330
47
100
AcDbScale
 70
     0
300
1/32" = 1'-0"
140
0.03125
141
12.0
290
     0
  0
SCALE
  5
5C
102
{ACAD_REACTORS
330
47
102
}
330
47
100
AcDbScale
 70
     0
300
1/16" = 1'-0"
140
0.0625
141
12.0
290
     0
  0
SCALE
  5
5D
102
{ACAD_REACTORS
330
47
102
}
330
47
100
AcDbScale
 70
     0
300
3/32" = 1'-0"
140
0.09375
141
12.0
290
     0
  0
SCALE
  5
5E
102
{ACAD_REACTORS
330
47
102
}
330
47
100
AcDbScale
 70
     0
300
1/8" = 1'-0"
140
0.125
141
12.0
290
     0
  0
SCALE
  5
5F
102
{ACAD_REACTORS
330
47
102
}
330
47
100
AcDbScale
 70
     0
300
3/16" = 1'-0"
140
0.1875
141
12.0
290
     0
  0
SCALE
  5
60
102
{ACAD_REACTORS
330
47
102
}
330
47
100
AcDbScale
 70
     0
300
1/4" = 1'-0"
140
0.25
141
12.0
290
     0
  0
SCALE
  5
61
102
{ACAD_REACTORS
330
47
102
}
330
47
100
AcDbScale
 70
     0
300
3/8" = 1'-0"
140
0.375
141
12.0
290
     0
  0
SCALE
  5
62
102
{ACAD_REACTORS
330
47
102
}
330
47
100
AcDbScale
 70
     0
300
1/2" = 1'-0"
140
0.5
141
12.0
290
     0
  0
SCALE
  5
63
102
{ACAD_REACTORS
330
47
102
}
330
47
100
AcDbScale
 70
     0
300
3/4" = 1'-0"
140
0.75
141
12.0
290
     0
  0
SCALE
  5
64
102
{ACAD_REACTORS
330
47
102
}
330
47
100
AcDbScale
 70
     0
300
1" = 1'-0"
140
1.0
141
12.0
290
     0
  0
SCALE
  5
65
102
{ACAD_REACTORS
330
47
102
}
330
47
100
AcDbScale
 70
     0
300
1-1/2" = 1'-0"
140
1.5
141
12.0
290
     0
  0
SCALE
  5
66
102
{ACAD_REACTORS
330
47
102
}
330
47
100
AcDbScale
 70
     0
300
3" = 1'-0"
140
3.0
141
12.0
290
     0
  0
SCALE
  5
67
102
{ACAD_REACTORS
330
47
102
}
330
47
100
AcDbScale
 70
     0
300
6" = 1'-0"
140
6.0
141
12.0
290
     0
  0
SCALE
  5
68
102
{ACAD_REACTORS
330
47
102
}
330
47
100
AcDbScale
 70
     0
300
1'-0" = 1'-0"
140
12.0
141
12.0
290
     0
  0
ENDSEC
  0
EOF
