  0
SECTION
  2
HEADER
  9
$ACADVER
  1
AC1015
  9
$ACADMAINTVER
 70
     6
  9
$DWGCODEPAGE
  3
ANSI_1252
  9
$INSBASE
 10
0.0
 20
0.0
 30
0.0
  9
$EXTMIN
 10
-12.2792209826
 20
-7.5584419653
 30
0.0
  9
$EXTMAX
 10
12.2792209826
 20
0.0
 30
0.0
  9
$LIMMIN
 10
0.0
 20
0.0
  9
$LIMMAX
 10
420.0
 20
297.0
  9
$ORTHOMODE
 70
     0
  9
$REGENMODE
 70
     1
  9
$FILLMODE
 70
     1
  9
$QTEXTMODE
 70
     0
  9
$MIRRTEXT
 70
     1
  9
$LTSCALE
 40
1.0
  9
$ATTMODE
 70
     1
  9
$TEXTSIZE
 40
6.35
  9
$TRACEWID
 40
1.0
  9
$TEXTSTYLE
  7
Standard
  9
$CLAYER
  8
0
  9
$CELTYPE
  6
ByLayer
  9
$CECOLOR
 62
   256
  9
$CELTSCALE
 40
1.0
  9
$DISPSILH
 70
     0
  9
$DIMSCALE
 40
1.0
  9
$DIMASZ
 40
5.9944
  9
$DIMEXO
 40
0.9906
  9
$DIMDLI
 40
3.75
  9
$DIMRND
 40
0.0
  9
$DIMDLE
 40
0.0
  9
$DIMEXE
 40
0.9906
  9
$DIMTP
 40
0.0
  9
$DIMTM
 40
0.0
  9
$DIMTXT
 40
6.35
  9
$DIMCEN
 40
2.5
  9
$DIMTSZ
 40
0.0
  9
$DIMTOL
 70
     0
  9
$DIMLIM
 70
     0
  9
$DIMTIH
 70
     1
  9
$DIMTOH
 70
     1
  9
$DIMSE1
 70
     0
  9
$DIMSE2
 70
     0
  9
$DIMTAD
 70
     1
  9
$DIMZIN
 70
     0
  9
$DIMBLK
  1

  9
$DIMASO
 70
     1
  9
$DIMSHO
 70
     1
  9
$DIMPOST
  1

  9
$DIMAPOST
  1

  9
$DIMALT
 70
     0
  9
$DIMALTD
 70
     3
  9
$DIMALTF
 40
0.0393700787
  9
$DIMLFAC
 40
1.0
  9
$DIMTOFL
 70
     1
  9
$DIMTVP
 40
0.0
  9
$DIMTIX
 70
     0
  9
$DIMSOXD
 70
     0
  9
$DIMSAH
 70
     0
  9
$DIMBLK1
  1

  9
$DIMBLK2
  1

  9
$DIMSTYLE
  2
ISO-25
  9
$DIMCLRD
 70
     0
  9
$DIMCLRE
 70
     0
  9
$DIMCLRT
 70
     0
  9
$DIMTFAC
 40
1.0
  9
$DIMGAP
 40
1.524
  9
$DIMJUST
 70
     0
  9
$DIMSD1
 70
     0
  9
$DIMSD2
 70
     0
  9
$DIMTOLJ
 70
     0
  9
$DIMTZIN
 70
     0
  9
$DIMALTZ
 70
     0
  9
$DIMALTTZ
 70
     0
  9
$DIMUPT
 70
     0
  9
$DIMDEC
 70
     2
  9
$DIMTDEC
 70
     2
  9
$DIMALTU
 70
     2
  9
$DIMALTTD
 70
     3
  9
$DIMTXSTY
  7
Standard
  9
$DIMAUNIT
 70
     0
  9
$DIMADEC
 70
     2
  9
$DIMALTRND
 40
0.0
  9
$DIMAZIN
 70
     0
  9
$DIMDSEP
 70
    44
  9
$DIMATFIT
 70
     3
  9
$DIMFRAC
 70
     0
  9
$DIMLDRBLK
  1

  9
$DIMLUNIT
 70
     2
  9
$DIMLWD
 70
    -2
  9
$DIMLWE
 70
    -2
  9
$DIMTMOVE
 70
     0
  9
$LUNITS
 70
     2
  9
$LUPREC
 70
     2
  9
$SKETCHINC
 40
1.0
  9
$FILLETRAD
 40
10.0
  9
$AUNITS
 70
     0
  9
$AUPREC
 70
     2
  9
$MENU
  1
.
  9
$ELEVATION
 40
0.0
  9
$PELEVATION
 40
0.0
  9
$THICKNESS
 40
0.0
  9
$LIMCHECK
 70
     0
  9
$CHAMFERA
 40
0.0
  9
$CHAMFERB
 40
0.0
  9
$CHAMFERC
 40
0.0
  9
$CHAMFERD
 40
0.0
  9
$SKPOLY
 70
     0
  9
$TDCREATE
 40
2457989.493278796
  9
$TDUCREATE
 40
2457989.45161213
  9
$TDUPDATE
 40
2457989.493303634
  9
$TDUUPDATE
 40
2457989.451636968
  9
$TDINDWG
 40
0.0000000116
  9
$TDUSRTIMER
 40
0.0000000116
  9
$USRTIMER
 70
     1
  9
$ANGBASE
 50
0.0
  9
$ANGDIR
 70
     0
  9
$PDMODE
 70
     0
  9
$PDSIZE
 40
-1.0
  9
$PLINEWID
 40
0.0
  9
$SPLFRAME
 70
     0
  9
$SPLINETYPE
 70
     6
  9
$SPLINESEGS
 70
     8
  9
$HANDSEED
  5
BB
  9
$SURFTAB1
 70
     6
  9
$SURFTAB2
 70
     6
  9
$SURFTYPE
 70
     6
  9
$SURFU
 70
     6
  9
$SURFV
 70
     6
  9
$UCSBASE
  2

  9
$UCSNAME
  2

  9
$UCSORG
 10
0.0
 20
0.0
 30
0.0
  9
$UCSXDIR
 10
1.0
 20
0.0
 30
0.0
  9
$UCSYDIR
 10
0.0
 20
1.0
 30
0.0
  9
$UCSORTHOREF
  2

  9
$UCSORTHOVIEW
 70
     0
  9
$UCSORGTOP
 10
0.0
 20
0.0
 30
0.0
  9
$UCSORGBOTTOM
 10
0.0
 20
0.0
 30
0.0
  9
$UCSORGLEFT
 10
0.0
 20
0.0
 30
0.0
  9
$UCSORGRIGHT
 10
0.0
 20
0.0
 30
0.0
  9
$UCSORGFRONT
 10
0.0
 20
0.0
 30
0.0
  9
$UCSORGBACK
 10
0.0
 20
0.0
 30
0.0
  9
$PUCSBASE
  2

  9
$PUCSNAME
  2

  9
$PUCSORG
 10
0.0
 20
0.0
 30
0.0
  9
$PUCSXDIR
 10
1.0
 20
0.0
 30
0.0
  9
$PUCSYDIR
 10
0.0
 20
1.0
 30
0.0
  9
$PUCSORTHOREF
  2

  9
$PUCSORTHOVIEW
 70
     0
  9
$PUCSORGTOP
 10
0.0
 20
0.0
 30
0.0
  9
$PUCSORGBOTTOM
 10
0.0
 20
0.0
 30
0.0
  9
$PUCSORGLEFT
 10
0.0
 20
0.0
 30
0.0
  9
$PUCSORGRIGHT
 10
0.0
 20
0.0
 30
0.0
  9
$PUCSORGFRONT
 10
0.0
 20
0.0
 30
0.0
  9
$PUCSORGBACK
 10
0.0
 20
0.0
 30
0.0
  9
$USERI1
 70
     0
  9
$USERI2
 70
     0
  9
$USERI3
 70
     0
  9
$USERI4
 70
     0
  9
$USERI5
 70
     0
  9
$USERR1
 40
0.0
  9
$USERR2
 40
0.0
  9
$USERR3
 40
0.0
  9
$USERR4
 40
0.0
  9
$USERR5
 40
0.0
  9
$WORLDVIEW
 70
     1
  9
$SHADEDGE
 70
     3
  9
$SHADEDIF
 70
    70
  9
$TILEMODE
 70
     1
  9
$MAXACTVP
 70
    64
  9
$PINSBASE
 10
0.0
 20
0.0
 30
0.0
  9
$PLIMCHECK
 70
     0
  9
$PEXTMIN
 10
1.0000000000E+20
 20
1.0000000000E+20
 30
1.0000000000E+20
  9
$PEXTMAX
 10
-1.0000000000E+20
 20
-1.0000000000E+20
 30
-1.0000000000E+20
  9
$PLIMMIN
 10
0.0
 20
0.0
  9
$PLIMMAX
 10
420.0
 20
297.0
  9
$UNITMODE
 70
     0
  9
$VISRETAIN
 70
     1
  9
$PLINEGEN
 70
     0
  9
$PSLTSCALE
 70
     1
  9
$TREEDEPTH
 70
  3020
  9
$CMLSTYLE
  2
Standard
  9
$CMLJUST
 70
     0
  9
$CMLSCALE
 40
20.0
  9
$PROXYGRAPHICS
 70
     1
  9
$MEASUREMENT
 70
     1
  9
$CELWEIGHT
370
    -1
  9
$ENDCAPS
280
     0
  9
$JOINSTYLE
280
     0
  9
$LWDISPLAY
290
     1
  9
$INSUNITS
 70
     4
  9
$HYPERLINKBASE
  1

  9
$STYLESHEET
  1

  9
$XEDIT
290
     1
  9
$CEPSNTYPE
380
     0
  9
$PSTYLEMODE
290
     1
  9
$FINGERPRINTGUID
  2
{FF802FCF-6773-4074-8C6C-01536F9FF0FD}
  9
$VERSIONGUID
  2
{FAEB1C32-E019-11D5-929B-00C0DF256EC4}
  9
$EXTNAMES
290
     1
  9
$PSVPSCALE
 40
0.0
  9
$OLESTARTUP
290
     0
  0
ENDSEC
  0
SECTION
  2
CLASSES
  0
CLASS
  1
ACDBDICTIONARYWDFLT
  2
AcDbDictionaryWithDefault
  3
ObjectDBX Classes
 90
        0
280
     0
281
     0
  0
CLASS
  1
VISUALSTYLE
  2
AcDbVisualStyle
  3
ObjectDBX Classes
 90
     4095
280
     0
281
     0
  0
CLASS
  1
MATERIAL
  2
AcDbMaterial
  3
ObjectDBX Classes
 90
     1153
280
     0
281
     0
  0
CLASS
  1
SCALE
  2
AcDbScale
  3
ObjectDBX Classes
 90
     1153
280
     0
281
     0
  0
CLASS
  1
TABLESTYLE
  2
AcDbTableStyle
  3
ObjectDBX Classes
 90
     4095
280
     0
281
     0
  0
CLASS
  1
MLEADERSTYLE
  2
AcDbMLeaderStyle
  3
ACDB_MLEADERSTYLE_CLASS
 90
     4095
280
     0
281
     0
  0
CLASS
  1
SUN
  2
AcDbSun
  3
SCENEOE
 90
     1153
280
     0
281
     0
  0
CLASS
  1
ACDBPLACEHOLDER
  2
AcDbPlaceHolder
  3
ObjectDBX Classes
 90
        0
280
     0
281
     0
  0
CLASS
  1
LAYOUT
  2
AcDbLayout
  3
ObjectDBX Classes
 90
        0
280
     0
281
     0
  0
ENDSEC
  0
SECTION
  2
TABLES
  0
TABLE
  2
VPORT
  5
8
330
0
100
AcDbSymbolTable
 70
     1
  0
VPORT
  5
29
330
8
100
AcDbSymbolTableRecord
100
AcDbViewportTableRecord
  2
*Active
 70
     0
 10
0.0
 20
0.0
 11
1.0
 21
1.0
 12
0.0
 22
-3.7792209826
 13
0.0
 23
0.0
 14
10.0
 24
10.0
 15
10.0
 25
10.0
 16
0.0
 26
0.0
 36
1.0
 17
0.0
 27
0.0
 37
0.0
 40
7.7096108046
 41
3.2491407724
 42
50.0
 43
0.0
 44
0.0
 50
0.0
 51
0.0
 71
     0
 72
   100
 73
     1
 74
     3
 75
     0
 76
     0
 77
     0
 78
     0
281
     0
 65
     1
110
0.0
120
0.0
130
0.0
111
1.0
121
0.0
131
0.0
112
0.0
122
1.0
132
0.0
 79
     0
146
0.0
  0
ENDTAB
  0
TABLE
  2
LTYPE
  5
5
330
0
100
AcDbSymbolTable
 70
     6
  0
LTYPE
  5
14
330
5
100
AcDbSymbolTableRecord
100
AcDbLinetypeTableRecord
  2
ByBlock
 70
     0
  3

 72
    65
 73
     0
 40
0.0
  0
LTYPE
  5
15
330
5
100
AcDbSymbolTableRecord
100
AcDbLinetypeTableRecord
  2
ByLayer
 70
     0
  3

 72
    65
 73
     0
 40
0.0
  0
LTYPE
  5
16
330
5
100
AcDbSymbolTableRecord
100
AcDbLinetypeTableRecord
  2
Continuous
 70
     0
  3
Solid line
 72
    65
 73
     0
 40
0.0
  0
LTYPE
  5
6E
330
5
100
AcDbSymbolTableRecord
100
AcDbLinetypeTableRecord
  2
HIDDEN
 70
     0
  3
Hidden __ __ __ __ __ __ __ __ __ __ __ __ __ __
 72
    65
 73
     2
 40
1.905
 49
1.27
 74
     0
 49
-0.635
 74
     0
  0
LTYPE
  5
6F
330
5
100
AcDbSymbolTableRecord
100
AcDbLinetypeTableRecord
  2
PHANTOM
 70
     0
  3
Phantom ______  __  __  ______  __  __  ______
 72
    65
 73
     6
 40
12.7
 49
6.35
 74
     0
 49
-1.27
 74
     0
 49
1.27
 74
     0
 49
-1.27
 74
     0
 49
1.27
 74
     0
 49
-1.27
 74
     0
  0
LTYPE
  5
70
330
5
100
AcDbSymbolTableRecord
100
AcDbLinetypeTableRecord
  2
CENTER
 70
     0
  3
Center ____ _ ____ _ ____ _ ____ _ ____ _ ____
 72
    65
 73
     4
 40
10.16
 49
6.35
 74
     0
 49
-1.27
 74
     0
 49
1.27
 74
     0
 49
-1.27
 74
     0
  0
LTYPE
  5
71
330
5
100
AcDbSymbolTableRecord
100
AcDbLinetypeTableRecord
  2
CENTERX2
 70
     0
  3
Center (2x) ________  __  ________  __  _____
 72
    65
 73
     4
 40
20.32
 49
12.7
 74
     0
 49
-2.54
 74
     0
 49
2.54
 74
     0
 49
-2.54
 74
     0
  0
LTYPE
  5
72
330
5
100
AcDbSymbolTableRecord
100
AcDbLinetypeTableRecord
  2
DOT2
 70
     0
  3
Dot (.5x) ........................................
 72
    65
 73
     2
 40
0.635
 49
0.0
 74
     0
 49
-0.635
 74
     0
  0
ENDTAB
  0
TABLE
  2
LAYER
  5
2
330
0
100
AcDbSymbolTable
 70
     1
  0
LAYER
  5
10
330
2
100
AcDbSymbolTableRecord
100
AcDbLayerTableRecord
  2
0
 70
     0
 62
     7
  6
Continuous
370
    -3
390
F
  0
ENDTAB
  0
TABLE
  2
STYLE
  5
3
330
0
100
AcDbSymbolTable
 70
     2
  0
STYLE
  5
11
330
3
100
AcDbSymbolTableRecord
100
AcDbTextStyleTableRecord
  2
Standard
 70
     0
 40
0.0
 41
1.0
 50
0.0
 71
     0
 42
6.35
  3
txt
  4

  0
STYLE
  5
B8
330
3
100
AcDbSymbolTableRecord
100
AcDbTextStyleTableRecord
  2
SLDTEXTSTYLE0
 70
     0
 40
0.0
 41
0.7
 50
0.0
 71
     0
 42
6.35
  3
TXT
  4

  0
ENDTAB
  0
TABLE
  2
VIEW
  5
6
330
0
100
AcDbSymbolTable
 70
     0
  0
ENDTAB
  0
TABLE
  2
UCS
  5
7
330
0
100
AcDbSymbolTable
 70
     0
  0
ENDTAB
  0
TABLE
  2
APPID
  5
9
330
0
100
AcDbSymbolTable
 70
     1
  0
APPID
  5
12
330
9
100
AcDbSymbolTableRecord
100
AcDbRegAppTableRecord
  2
ACAD
 70
     0
  0
ENDTAB
  0
TABLE
  2
DIMSTYLE
  5
A
330
0
100
AcDbSymbolTable
 70
     1
100
AcDbDimStyleTable
  0
DIMSTYLE
105
27
330
A
100
AcDbSymbolTableRecord
100
AcDbDimStyleTableRecord
  2
ISO-25
 70
     0
 41
2.5
 42
0.625
 43
3.75
 44
1.25
 73
     0
 74
     0
 77
     1
 78
     8
140
2.5
141
2.5
143
0.0393700787
147
0.625
171
     3
172
     1
178
     0
271
     2
272
     2
274
     3
278
    44
283
     0
284
     8
340
11
  0
ENDTAB
  0
TABLE
  2
BLOCK_RECORD
  5
1
330
0
100
AcDbSymbolTable
 70
     1
  0
BLOCK_RECORD
  5
1F
330
1
100
AcDbSymbolTableRecord
100
AcDbBlockTableRecord
  2
*Model_Space
340
22
  0
BLOCK_RECORD
  5
1B
330
1
100
AcDbSymbolTableRecord
100
AcDbBlockTableRecord
  2
*Paper_Space
340
1E
  0
BLOCK_RECORD
  5
23
330
1
100
AcDbSymbolTableRecord
100
AcDbBlockTableRecord
  2
*Paper_Space0
340
26
  0
ENDTAB
  0
ENDSEC
  0
SECTION
  2
BLOCKS
  0
BLOCK
  5
20
330
1F
100
AcDbEntity
  8
0
100
AcDbBlockBegin
  2
*Model_Space
 70
     0
 10
0.0
 20
0.0
 30
0.0
  3
*Model_Space
  1

  0
ENDBLK
  5
21
330
1F
100
AcDbEntity
  8
0
100
AcDbBlockEnd
  0
BLOCK
  5
1C
330
1B
100
AcDbEntity
 67
     1
  8
0
100
AcDbBlockBegin
  2
*Paper_Space
 70
     0
 10
0.0
 20
0.0
 30
0.0
  3
*Paper_Space
  1

  0
ENDBLK
  5
1D
330
1B
100
AcDbEntity
 67
     1
  8
0
100
AcDbBlockEnd
  0
BLOCK
  5
24
330
23
100
AcDbEntity
  8
0
100
AcDbBlockBegin
  2
*Paper_Space0
 70
     0
 10
0.0
 20
0.0
 30
0.0
  3
*Paper_Space0
  1

  0
ENDBLK
  5
25
330
23
100
AcDbEntity
  8
0
100
AcDbBlockEnd
  0
ENDSEC
  0
SECTION
  2
ENTITIES
  0
LINE
  5
73
330
1F
100
AcDbEntity
  8
0
  6
Continuous
 62
     7
370
    15
100
AcDbLine
 10
-8.5
 20
-4.0
 30
0.0
 11
-8.5
 21
0.0
 31
0.0
  0
ARC
  5
74
330
1F
100
AcDbEntity
  8
0
  6
Continuous
 62
     7
370
    15
100
AcDbCircle
 10
-8.5
 20
-3.7792209826
 30
0.0
 40
3.779220982629002
100
AcDbArc
 50
90.0
 51
270.0
  0
LINE
  5
75
330
1F
100
AcDbEntity
  8
0
  6
Continuous
 62
     7
370
    15
100
AcDbLine
 10
-8.5
 20
-7.5584419653
 30
0.0
 11
8.5
 21
-7.5584419653
 31
0.0
  0
ARC
  5
76
330
1F
100
AcDbEntity
  8
0
  6
Continuous
 62
     7
370
    15
100
AcDbCircle
 10
8.5
 20
-3.7792209826
 30
0.0
 40
3.779220982629002
100
AcDbArc
 50
270.0
 51
90.0
  0
LINE
  5
77
330
1F
100
AcDbEntity
  8
0
  6
Continuous
 62
     7
370
    15
100
AcDbLine
 10
8.5
 20
0.0
 30
0.0
 11
8.5
 21
-4.0
 31
0.0
  0
LINE
  5
78
330
1F
100
AcDbEntity
  8
0
  6
Continuous
 62
     7
370
    15
100
AcDbLine
 10
8.5
 20
-4.0
 30
0.0
 11
5.1
 21
-4.0
 31
0.0
  0
LINE
  5
79
330
1F
100
AcDbEntity
  8
0
  6
Continuous
 62
     7
370
    15
100
AcDbLine
 10
5.1
 20
-4.0
 30
0.0
 11
5.1
 21
0.0
 31
0.0
  0
LINE
  5
7A
330
1F
100
AcDbEntity
  8
0
  6
Continuous
 62
     7
370
    15
100
AcDbLine
 10
5.1
 20
0.0
 30
0.0
 11
-5.1
 21
0.0
 31
0.0
  0
LINE
  5
7B
330
1F
100
AcDbEntity
  8
0
  6
Continuous
 62
     7
370
    15
100
AcDbLine
 10
-5.1
 20
0.0
 30
0.0
 11
-5.1
 21
-4.0
 31
0.0
  0
LINE
  5
7C
330
1F
100
AcDbEntity
  8
0
  6
Continuous
 62
     7
370
    15
100
AcDbLine
 10
-5.1
 20
-4.0
 30
0.0
 11
-8.5
 21
-4.0
 31
0.0
  0
LINE
  5
7D
330
1F
100
AcDbEntity
  8
0
  6
Continuous
 62
     7
370
    15
100
AcDbLine
 10
-3.0121794872
 20
-1.4924328763
 30
0.0
 11
-3.2144330929
 21
-3.018875184
 31
0.0
  0
LINE
  5
7E
330
1F
100
AcDbEntity
  8
0
  6
Continuous
 62
     7
370
    15
100
AcDbLine
 10
-3.2144330929
 20
-3.018875184
 30
0.0
 11
-3.4056623932
 21
-3.018875184
 31
0.0
  0
LINE
  5
7F
330
1F
100
AcDbEntity
  8
0
  6
Continuous
 62
     7
370
    15
100
AcDbLine
 10
-3.4056623932
 20
-3.018875184
 30
0.0
 11
-3.1262386485
 21
-0.9022085173
 31
0.0
  0
LINE
  5
80
330
1F
100
AcDbEntity
  8
0
  6
Continuous
 62
     7
370
    15
100
AcDbLine
 10
-3.1262386485
 20
-0.9022085173
 30
0.0
 11
-3.0991018964
 21
-0.9022085173
 31
0.0
  0
LINE
  5
81
330
1F
100
AcDbEntity
  8
0
  6
Continuous
 62
     7
370
    15
100
AcDbLine
 10
-3.0991018964
 20
-0.9022085173
 30
0.0
 11
-2.2252136752
 21
-2.638960654
 31
0.0
  0
LINE
  5
82
330
1F
100
AcDbEntity
  8
0
  6
Continuous
 62
     7
370
    15
100
AcDbLine
 10
-2.2252136752
 20
-2.638960654
 30
0.0
 11
-1.3534455128
 21
-0.9022085173
 31
0.0
  0
LINE
  5
83
330
1F
100
AcDbEntity
  8
0
  6
Continuous
 62
     7
370
    15
100
AcDbLine
 10
-1.3534455128
 20
-0.9022085173
 30
0.0
 11
-1.3258847489
 21
-0.9022085173
 31
0.0
  0
LINE
  5
84
330
1F
100
AcDbEntity
  8
0
  6
Continuous
 62
     7
370
    15
100
AcDbLine
 10
-1.3258847489
 20
-0.9022085173
 30
0.0
 11
-1.0447649573
 21
-3.018875184
 31
0.0
  0
LINE
  5
85
330
1F
100
AcDbEntity
  8
0
  6
Continuous
 62
     7
370
    15
100
AcDbLine
 10
-1.0447649573
 20
-3.018875184
 30
0.0
 11
-1.2355702457
 21
-3.018875184
 31
0.0
  0
LINE
  5
86
330
1F
100
AcDbEntity
  8
0
  6
Continuous
 62
     7
370
    15
100
AcDbLine
 10
-1.2355702457
 20
-3.018875184
 30
0.0
 11
-1.4382478632
 21
-1.4958249703
 31
0.0
  0
LINE
  5
87
330
1F
100
AcDbEntity
  8
0
  6
Continuous
 62
     7
370
    15
100
AcDbLine
 10
-1.4382478632
 20
-1.4958249703
 30
0.0
 11
-2.2023170406
 21
-3.018875184
 31
0.0
  0
LINE
  5
88
330
1F
100
AcDbEntity
  8
0
  6
Continuous
 62
     7
370
    15
100
AcDbLine
 10
-2.2023170406
 20
-3.018875184
 30
0.0
 11
-2.2451422276
 21
-3.018875184
 31
0.0
  0
LINE
  5
89
330
1F
100
AcDbEntity
  8
0
  6
Continuous
 62
     7
370
    15
100
AcDbLine
 10
-2.2451422276
 20
-3.018875184
 30
0.0
 11
-3.0121794872
 21
-1.4924328763
 31
0.0
  0
LINE
  5
8A
330
1F
100
AcDbEntity
  8
0
  6
Continuous
 62
     7
370
    15
100
AcDbLine
 10
-0.4748931624
 20
-3.018875184
 30
0.0
 11
-0.6648504274
 21
-3.018875184
 31
0.0
  0
LINE
  5
8B
330
1F
100
AcDbEntity
  8
0
  6
Continuous
 62
     7
370
    15
100
AcDbLine
 10
-0.6648504274
 20
-3.018875184
 30
0.0
 11
-0.6648504274
 21
-0.847935013
 31
0.0
  0
LINE
  5
8C
330
1F
100
AcDbEntity
  8
0
  6
Continuous
 62
     7
370
    15
100
AcDbLine
 10
-0.6648504274
 20
-0.847935013
 30
0.0
 11
-0.4748931624
 21
-0.847935013
 31
0.0
  0
LINE
  5
8D
330
1F
100
AcDbEntity
  8
0
  6
Continuous
 62
     7
370
    15
100
AcDbLine
 10
-0.4748931624
 20
-0.847935013
 30
0.0
 11
-0.4748931624
 21
-2.1030097993
 31
0.0
  0
LINE
  5
8E
330
1F
100
AcDbEntity
  8
0
  6
Continuous
 62
     7
370
    15
100
AcDbLine
 10
-0.4748931624
 20
-2.1030097993
 30
0.0
 11
0.2289663462
 21
-1.4720803122
 31
0.0
  0
LINE
  5
8F
330
1F
100
AcDbEntity
  8
0
  6
Continuous
 62
     7
370
    15
100
AcDbLine
 10
0.2289663462
 20
-1.4720803122
 30
0.0
 11
0.5020299145
 21
-1.4720803122
 31
0.0
  0
LINE
  5
90
330
1F
100
AcDbEntity
  8
0
  6
Continuous
 62
     7
370
    15
100
AcDbLine
 10
0.5020299145
 20
-1.4720803122
 30
0.0
 11
-0.3146167201
 21
-2.2047726198
 31
0.0
  0
LINE
  5
91
330
1F
100
AcDbEntity
  8
0
  6
Continuous
 62
     7
370
    15
100
AcDbLine
 10
-0.3146167201
 20
-2.2047726198
 30
0.0
 11
0.5834401709
 21
-3.018875184
 31
0.0
  0
LINE
  5
92
330
1F
100
AcDbEntity
  8
0
  6
Continuous
 62
     7
370
    15
100
AcDbLine
 10
0.5834401709
 20
-3.018875184
 30
0.0
 11
0.3108006143
 21
-3.018875184
 31
0.0
  0
LINE
  5
93
330
1F
100
AcDbEntity
  8
0
  6
Continuous
 62
     7
370
    15
100
AcDbLine
 10
0.3108006143
 20
-3.018875184
 30
0.0
 11
-0.4748931624
 21
-2.3061114286
 31
0.0
  0
LINE
  5
94
330
1F
100
AcDbEntity
  8
0
  6
Continuous
 62
     7
370
    15
100
AcDbLine
 10
-0.4748931624
 20
-2.3061114286
 30
0.0
 11
-0.4748931624
 21
-3.018875184
 31
0.0
  0
SPLINE
  5
95
330
1F
100
AcDbEntity
  8
0
  6
Continuous
 62
     7
370
    15
100
AcDbSpline
210
0.0
220
0.0
230
1.0
 70
     8
 71
     3
 72
    15
 73
    11
 74
     0
 42
0.000000001
 43
0.00000001
 40
0.0
 40
0.0
 40
0.0
 40
0.0
 40
0.1277566033101287
 40
0.24941435533653
 40
0.3727964764553966
 40
0.5001113325158557
 40
0.628609940765107
 40
0.7506433738258057
 40
0.8737683791425144
 40
1.0
 40
1.0
 40
1.0
 40
1.0
 10
1.004059829059829
 20
-3.046011936088016
 30
0.0
 10
0.9922513051655941
 20
-3.045380808272353
 30
0.0
 10
0.9691979732966568
 20
-3.044148681453073
 30
0.0
 10
0.9360654910717477
 20
-3.033769270037173
 30
0.0
 10
0.9055812767407972
 20
-3.017547463127813
 30
0.0
 10
0.8784953748808192
 20
-2.995009855964554
 30
0.0
 10
0.8563982992060821
 20
-2.967795483530014
 30
0.0
 10
0.8396915200521357
 20
-2.937435349497403
 30
0.0
 10
0.8296584299710767
 20
-2.904305623060746
 30
0.0
 10
0.828338916501115
 20
-2.881279529533506
 30
0.0
 10
0.8276709401709402
 20
-2.869623047199127
 30
0.0
  0
SPLINE
  5
96
330
1F
100
AcDbEntity
  8
0
  6
Continuous
 62
     7
370
    15
100
AcDbSpline
210
0.0
220
0.0
230
1.0
 70
     8
 71
     3
 72
    15
 73
    11
 74
     0
 42
0.000000001
 43
0.00000001
 40
0.0
 40
0.0
 40
0.0
 40
0.0
 40
0.1290969581672243
 40
0.2520459672599784
 40
0.373904964401997
 40
0.5010378352202037
 40
0.6281707060384087
 40
0.7513764634091928
 40
0.8724260133704556
 40
1.0
 40
1.0
 40
1.0
 40
1.0
 10
0.8276709401709402
 20
-2.869623047199127
 30
0.0
 10
0.8283132573397277
 20
-2.857679374745468
 30
0.0
 10
0.8295673027827274
 20
-2.834360820079606
 30
0.0
 10
0.8397125830302372
 20
-2.800978502700417
 30
0.0
 10
0.8562686730869338
 20
-2.770638541820629
 30
0.0
 10
0.878648126248864
 20
-2.743789181460154
 30
0.0
 10
0.9055747242385681
 20
-2.721299717467077
 30
0.0
 10
0.9359919530842982
 20
-2.704931961615925
 30
0.0
 10
0.9692777703157678
 20
-2.695231331389366
 30
0.0
 10
0.9922647330709491
 20
-2.693911428403652
 30
0.0
 10
1.004059829059829
 20
-2.693234158310238
 30
0.0
  0
SPLINE
  5
97
330
1F
100
AcDbEntity
  8
0
  6
Continuous
 62
     7
370
    15
100
AcDbSpline
210
0.0
220
0.0
230
1.0
 70
     8
 71
     3
 72
    15
 73
    11
 74
     0
 42
0.000000001
 43
0.00000001
 40
0.0
 40
0.0
 40
0.0
 40
0.0
 40
0.1275189266999438
 40
0.2499859477488064
 40
0.3717923515057532
 40
0.4988703527764727
 40
0.625948354047194
 40
0.7484917380160564
 40
0.8709587590649187
 40
1.0
 40
1.0
 40
1.0
 40
1.0
 10
1.004059829059829
 20
-2.693234158310238
 30
0.0
 10
1.01584676689777
 20
-2.693934573401566
 30
0.0
 10
1.038953680535833
 20
-2.695307655303635
 30
0.0
 10
1.072360200993556
 20
-2.704727834196556
 30
0.0
 10
1.102595066629815
 20
-2.72145473838654
 30
0.0
 10
1.129526471810355
 20
-2.743747942443462
 30
0.0
 10
1.151725150470254
 20
-2.770778176812853
 30
0.0
 10
1.169048163423739
 20
-2.800771893048524
 30
0.0
 10
1.178386283051929
 20
-2.834458094274858
 30
0.0
 10
1.179749363051686
 20
-2.85769889770487
 30
0.0
 10
1.180448717948718
 20
-2.869623047199127
 30
0.0
  0
SPLINE
  5
98
330
1F
100
AcDbEntity
  8
0
  6
Continuous
 62
     7
370
    15
100
AcDbSpline
210
0.0
220
0.0
230
1.0
 70
     8
 71
     3
 72
    15
 73
    11
 74
     0
 42
0.000000001
 43
0.00000001
 40
0.0
 40
0.0
 40
0.0
 40
0.0
 40
0.1261777183170045
 40
0.2488206074857948
 40
0.371539969235154
 40
0.4999837069108845
 40
0.6272441978753713
 40
0.749225521076266
 40
0.8722979504176518
 40
1.0
 40
1.0
 40
1.0
 40
1.0
 10
1.180448717948718
 20
-2.869623047199127
 30
0.0
 10
1.179725664164546
 20
-2.881260679960249
 30
0.0
 10
1.178299812720865
 20
-2.904209920855888
 30
0.0
 10
1.169069568757152
 20
-2.937642043490345
 30
0.0
 10
1.151593128856125
 20
-2.967654504765104
 30
0.0
 10
1.129679585517383
 20
-2.995051512109384
 30
0.0
 10
1.102588409032182
 20
-3.017391943381952
 30
0.0
 10
1.072288720957492
 20
-3.033976537577206
 30
0.0
 10
1.039032102929166
 20
-3.044071211141465
 30
0.0
 10
1.015859850237622
 20
-3.045357114627017
 30
0.0
 10
1.004059829059829
 20
-3.046011936088016
 30
0.0
  0
LINE
  5
99
330
1F
100
AcDbEntity
  8
0
  6
Continuous
 62
     7
370
    15
100
AcDbLine
 10
1.8317307692
 20
-3.018875184
 30
0.0
 11
1.6417735043
 21
-3.018875184
 31
0.0
  0
LINE
  5
9A
330
1F
100
AcDbEntity
  8
0
  6
Continuous
 62
     7
370
    15
100
AcDbLine
 10
1.6417735043
 20
-3.018875184
 30
0.0
 11
1.6417735043
 21
-0.9022085173
 31
0.0
  0
LINE
  5
9B
330
1F
100
AcDbEntity
  8
0
  6
Continuous
 62
     7
370
    15
100
AcDbLine
 10
1.6417735043
 20
-0.9022085173
 30
0.0
 11
1.8317307692
 21
-0.9022085173
 31
0.0
  0
LINE
  5
9C
330
1F
100
AcDbEntity
  8
0
  6
Continuous
 62
     7
370
    15
100
AcDbLine
 10
1.8317307692
 20
-0.9022085173
 30
0.0
 11
1.8317307692
 21
-3.018875184
 31
0.0
  0
LINE
  5
9D
330
1F
100
AcDbEntity
  8
0
  6
Continuous
 62
     7
370
    15
100
AcDbLine
 10
2.5644230769
 20
-3.018875184
 30
0.0
 11
2.374465812
 21
-3.018875184
 31
0.0
  0
LINE
  5
9E
330
1F
100
AcDbEntity
  8
0
  6
Continuous
 62
     7
370
    15
100
AcDbLine
 10
2.374465812
 20
-3.018875184
 30
0.0
 11
2.374465812
 21
-0.9022085173
 31
0.0
  0
LINE
  5
9F
330
1F
100
AcDbEntity
  8
0
  6
Continuous
 62
     7
370
    15
100
AcDbLine
 10
2.374465812
 20
-0.9022085173
 30
0.0
 11
2.5644230769
 21
-0.9022085173
 31
0.0
  0
LINE
  5
A0
330
1F
100
AcDbEntity
  8
0
  6
Continuous
 62
     7
370
    15
100
AcDbLine
 10
2.5644230769
 20
-0.9022085173
 30
0.0
 11
2.5644230769
 21
-3.018875184
 31
0.0
  0
LINE
  5
A1
330
1F
100
AcDbEntity
  8
0
  6
Continuous
 62
     7
370
    15
100
AcDbLine
 10
3.2971153846
 20
-3.018875184
 30
0.0
 11
3.1071581197
 21
-3.018875184
 31
0.0
  0
LINE
  5
A2
330
1F
100
AcDbEntity
  8
0
  6
Continuous
 62
     7
370
    15
100
AcDbLine
 10
3.1071581197
 20
-3.018875184
 30
0.0
 11
3.1071581197
 21
-0.9022085173
 31
0.0
  0
LINE
  5
A3
330
1F
100
AcDbEntity
  8
0
  6
Continuous
 62
     7
370
    15
100
AcDbLine
 10
3.1071581197
 20
-0.9022085173
 30
0.0
 11
3.2971153846
 21
-0.9022085173
 31
0.0
  0
LINE
  5
A4
330
1F
100
AcDbEntity
  8
0
  6
Continuous
 62
     7
370
    15
100
AcDbLine
 10
3.2971153846
 20
-0.9022085173
 30
0.0
 11
3.2971153846
 21
-3.018875184
 31
0.0
  0
LINE
  5
A5
330
1F
100
AcDbEntity
  8
0
  6
Continuous
 62
     7
370
    15
100
AcDbLine
 10
-0.800534188
 20
-6.5466529617
 30
0.0
 11
-0.8276709402
 21
-6.5466529617
 31
0.0
  0
LINE
  5
A6
330
1F
100
AcDbEntity
  8
0
  6
Continuous
 62
     7
370
    15
100
AcDbLine
 10
-0.8276709402
 20
-6.5466529617
 30
0.0
 11
-1.7231837607
 21
-4.4299862951
 31
0.0
  0
LINE
  5
A7
330
1F
100
AcDbEntity
  8
0
  6
Continuous
 62
     7
370
    15
100
AcDbLine
 10
-1.7231837607
 20
-4.4299862951
 30
0.0
 11
-1.5196581197
 21
-4.4299862951
 31
0.0
  0
LINE
  5
A8
330
1F
100
AcDbEntity
  8
0
  6
Continuous
 62
     7
370
    15
100
AcDbLine
 10
-1.5196581197
 20
-4.4299862951
 30
0.0
 11
-0.8141025641
 21
-6.098048528
 31
0.0
  0
LINE
  5
A9
330
1F
100
AcDbEntity
  8
0
  6
Continuous
 62
     7
370
    15
100
AcDbLine
 10
-0.8141025641
 20
-6.098048528
 30
0.0
 11
-0.1085470085
 21
-4.4299862951
 31
0.0
  0
LINE
  5
AA
330
1F
100
AcDbEntity
  8
0
  6
Continuous
 62
     7
370
    15
100
AcDbLine
 10
-0.1085470085
 20
-4.4299862951
 30
0.0
 11
0.0949786325
 21
-4.4299862951
 31
0.0
  0
LINE
  5
AB
330
1F
100
AcDbEntity
  8
0
  6
Continuous
 62
     7
370
    15
100
AcDbLine
 10
0.0949786325
 20
-4.4299862951
 30
0.0
 11
-0.800534188
 21
-6.5466529617
 31
0.0
  0
SPLINE
  5
AC
330
1F
100
AcDbEntity
  8
0
  6
Continuous
 62
     7
370
    15
100
AcDbSpline
210
0.0
220
0.0
230
1.0
 70
     8
 71
     3
 72
    23
 73
    19
 74
     0
 42
0.000000001
 43
0.00000001
 40
0.0
 40
0.0
 40
0.0
 40
0.0
 40
0.0619654006870624
 40
0.1221219056382957
 40
0.1809884968498417
 40
0.2399332164519034
 40
0.2999058311065235
 40
0.3599888474769869
 40
0.4217757417416458
 40
0.4865758264211263
 40
0.5515348046197409
 40
0.6150175427599796
 40
0.6772586166616568
 40
0.7397299623627135
 40
0.8030501026629512
 40
0.8664951320156983
 40
0.9319734741771486
 40
0.9999999999999999
 40
0.9999999999999999
 40
0.9999999999999999
 40
0.9999999999999999
 10
1.506089743589745
 20
-5.021906701045279
 30
0.0
 10
1.50570527086581
 20
-5.007464141053981
 30
0.0
 10
1.504947548956612
 20
-4.979000628692619
 30
0.0
 10
1.498260274757979
 20
-4.937268574428979
 30
0.0
 10
1.488154397262729
 20
-4.897012710835617
 30
0.0
 10
1.473673217395646
 20
-4.858109212607214
 30
0.0
 10
1.45455866505832
 20
-4.820949223024333
 30
0.0
 10
1.431291430536727
 20
-4.785487508805967
 30
0.0
 10
1.404446011231637
 20
-4.751204182232584
 30
0.0
 10
1.373390719779159
 20
-4.719059092454606
 30
0.0
 10
1.339275181610417
 20
-4.689618553900927
 30
0.0
 10
1.303234849718396
 20
-4.663538749864617
 30
0.0
 10
1.265104548570736
 20
-4.641743668571999
 30
0.0
 10
1.225045046112025
 20
-4.623876886943835
 30
0.0
 10
1.183168024136496
 20
-4.609861299267951
 30
0.0
 10
1.139392487800573
 20
-4.600149682188264
 30
0.0
 10
1.09383939223925
 20
-4.594052179991964
 30
0.0
 10
1.062734373416816
 20
-4.593227180790239
 30
0.0
 10
1.046885016025642
 20
-4.592806807882887
 30
0.0
  0
SPLINE
  5
AD
330
1F
100
AcDbEntity
  8
0
  6
Continuous
 62
     7
370
    15
100
AcDbSpline
210
0.0
220
0.0
230
1.0
 70
     8
 71
     3
 72
    23
 73
    19
 74
     0
 42
0.000000001
 43
0.00000001
 40
0.0
 40
0.0
 40
0.0
 40
0.0
 40
0.0644386715952427
 40
0.1265469112716775
 40
0.1868871534365701
 40
0.2458775355894553
 40
0.3040408846912663
 40
0.3621912180726604
 40
0.4209759327916441
 40
0.4806602832796657
 40
0.5406002749537568
 40
0.6006890983494527
 40
0.6619357897571955
 40
0.7244425059139824
 40
0.7890383938817437
 40
0.8563137570509937
 40
0.9263520282058625
 40
0.9999999999999999
 40
0.9999999999999999
 40
0.9999999999999999
 40
0.9999999999999999
 10
1.046885016025642
 20
-4.592806807882887
 30
0.0
 10
1.030332179073008
 20
-4.593239232156789
 30
0.0
 10
0.9978251404068933
 20
-4.594088442031331
 30
0.0
 10
0.9500979157262243
 20
-4.600028815016986
 30
0.0
 10
0.9045679455094118
 20
-4.610277013733227
 30
0.0
 10
0.8611206994378863
 20
-4.624293383481568
 30
0.0
 10
0.8196826642082843
 20
-4.642108791578877
 30
0.0
 10
0.7804553613857131
 20
-4.664298560979848
 30
0.0
 10
0.7435268521666198
 20
-4.690777149695911
 30
0.0
 10
0.7088277166195835
 20
-4.720797867091878
 30
0.0
 10
0.6768575959478206
 20
-4.754221606874845
 30
0.0
 10
0.6487682948295129
 20
-4.791480965491519
 30
0.0
 10
0.6242246291331259
 20
-4.83189564050166
 30
0.0
 10
0.6028104736477241
 20
-4.875356582988837
 30
0.0
 10
0.5854201277405257
 20
-4.922258154693755
 30
0.0
 10
0.5721316034321922
 20
-4.972433861911624
 30
0.0
 10
0.5616167008910266
 20
-5.025665840210178
 30
0.0
 10
0.558103928906189
 20
-5.062426343909152
 30
0.0
 10
0.55630341880342
 20
-5.081268346344425
 30
0.0
  0
LINE
  5
AE
330
1F
100
AcDbEntity
  8
0
  6
Continuous
 62
     7
370
    15
100
AcDbLine
 10
0.5563034188
 20
-5.0812683463
 30
0.0
 11
0.3663461538
 21
-5.0812683463
 31
0.0
  0
SPLINE
  5
AF
330
1F
100
AcDbEntity
  8
0
  6
Continuous
 62
     7
370
    15
100
AcDbSpline
210
0.0
220
0.0
230
1.0
 70
     8
 71
     3
 72
    23
 73
    19
 74
     0
 42
0.000000001
 43
0.00000001
 40
0.0
 40
0.0
 40
0.0
 40
0.0
 40
0.0687907943906186
 40
0.135103289431128
 40
0.1989786743106518
 40
0.2619042997808563
 40
0.3234949693679694
 40
0.3851953779660515
 40
0.4469692387407744
 40
0.5097647767031321
 40
0.5722505688473684
 40
0.6334051756611526
 40
0.6932511629217527
 40
0.7525831627856702
 40
0.8125792661534214
 40
0.8732750849201919
 40
0.9355499428950294
 40
1.0
 40
1.0
 40
1.0
 40
1.0
 10
0.366346153846155
 20
-5.081268346344425
 30
0.0
 10
0.3675841939985698
 20
-5.056067380884853
 30
0.0
 10
0.3700156719095422
 20
-5.00657335540384
 30
0.0
 10
0.3814023039868792
 20
-4.934410802486294
 30
0.0
 10
0.3976951202012523
 20
-4.865434805162209
 30
0.0
 10
0.4207313804863971
 20
-4.800199190523418
 30
0.0
 10
0.4493404151376373
 20
-4.738127149960317
 30
0.0
 10
0.4836485745536995
 20
-4.679465235708925
 30
0.0
 10
0.5242848555784838
 20
-4.624437231105328
 30
0.0
 10
0.5703717852154813
 20
-4.573553263969498
 30
0.0
 10
0.6204271050249348
 20
-4.526873161628947
 30
0.0
 10
0.6744359350859922
 20
-4.486562610027122
 30
0.0
 10
0.7311898325400907
 20
-4.452503827822501
 30
0.0
 10
0.7905166119144008
 20
-4.424030886338557
 30
0.0
 10
0.853085619400356
 20
-4.402658693804455
 30
0.0
 10
0.9183290619984958
 20
-4.386800845091201
 30
0.0
 10
0.9865335873508697
 20
-4.377259912202438
 30
0.0
 10
1.03300350544592
 20
-4.376234365670316
 30
0.0
 10
1.056637286324787
 20
-4.37571279078887
 30
0.0
  0
SPLINE
  5
B0
330
1F
100
AcDbEntity
  8
0
  6
Continuous
 62
     7
370
    15
100
AcDbSpline
210
0.0
220
0.0
230
1.0
 70
     8
 71
     3
 72
    23
 73
    19
 74
     0
 42
0.000000001
 43
0.00000001
 40
0.0
 40
0.0
 40
0.0
 40
0.0
 40
0.0694754602496703
 40
0.1365167976177989
 40
0.2007888236092609
 40
0.2638296728558257
 40
0.32573502296542
 40
0.3872906922152906
 40
0.4495092187626022
 40
0.5129678195454416
 40
0.5762752154930604
 40
0.6375801002639236
 40
0.6979026059171012
 40
0.7571720884269851
 40
0.8165985284886551
 40
0.8766531708928197
 40
0.9372896424102397
 40
1.0
 40
1.0
 40
1.0
 40
1.0
 10
1.056637286324787
 20
-4.37571279078887
 30
0.0
 10
1.079846883510942
 20
-4.376256143020153
 30
0.0
 10
1.12545291289839
 20
-4.377323810745224
 30
0.0
 10
1.192014226400851
 20
-4.386492623683027
 30
0.0
 10
1.255379542576325
 20
-4.400853052910081
 30
0.0
 10
1.315425001377666
 20
-4.421000947537647
 30
0.0
 10
1.371671526142181
 20
-4.448084863151225
 30
0.0
 10
1.424541653088165
 20
-4.480619565101629
 30
0.0
 10
1.474664810090341
 20
-4.518247748836225
 30
0.0
 10
1.51978415065579
 20
-4.562548864588347
 30
0.0
 10
1.561215227146288
 20
-4.609842687577563
 30
0.0
 10
1.596958019543064
 20
-4.660332991190629
 30
0.0
 10
1.627566932691218
 20
-4.7124811782659
 30
0.0
 10
1.653080434333646
 20
-4.766684900174719
 30
0.0
 10
1.671862004073025
 20
-4.823454522119538
 30
0.0
 10
1.686121206071739
 20
-4.881963544760202
 30
0.0
 10
1.694181118159299
 20
-4.942817597130835
 30
0.0
 10
1.695418112369905
 20
-4.984005847451141
 30
0.0
 10
1.69604700854701
 20
-5.00494623095981
 30
0.0
  0
SPLINE
  5
B1
330
1F
100
AcDbEntity
  8
0
  6
Continuous
 62
     7
370
    15
100
AcDbSpline
210
0.0
220
0.0
230
1.0
 70
     8
 71
     3
 72
    19
 73
    15
 74
     0
 42
0.000000001
 43
0.00000001
 40
0.0
 40
0.0
 40
0.0
 40
0.0
 40
0.0987021963061517
 40
0.1956723088106639
 40
0.2924224265079541
 40
0.3913425437998248
 40
0.4444624406718919
 40
0.5042287754493158
 40
0.5703523379946777
 40
0.6425457530977475
 40
0.7222875053440184
 40
0.8079211226827119
 40
0.9004695379850148
 40
1.0
 40
1.0
 40
1.0
 40
1.0
 10
1.69604700854701
 20
-5.00494623095981
 30
0.0
 10
1.695022987676661
 20
-5.034427064250299
 30
0.0
 10
1.69299291605242
 20
-5.092871383946282
 30
0.0
 10
1.67562755498546
 20
-5.178756562846981
 30
0.0
 10
1.648506093513447
 20
-5.261967821056542
 30
0.0
 10
1.615850549133128
 20
-5.328937522793326
 30
0.0
 10
1.582907690105349
 20
-5.382902540446388
 30
0.0
 10
1.553221435513001
 20
-5.427333614374039
 30
0.0
 10
1.518468906942671
 20
-5.475173588114296
 30
0.0
 10
1.478144291508092
 20
-5.526262263573781
 30
0.0
 10
1.433081745016933
 20
-5.58099981094291
 30
0.0
 10
1.38287310336792
 20
-5.63935316339814
 30
0.0
 10
1.32716033090736
 20
-5.700719424194072
 30
0.0
 10
1.288057332832116
 20
-5.742632811700047
 30
0.0
 10
1.26779513888889
 20
-5.764351279036732
 30
0.0
  0
LINE
  5
B2
330
1F
100
AcDbEntity
  8
0
  6
Continuous
 62
     7
370
    15
100
AcDbLine
 10
1.2677951389
 20
-5.764351279
 30
0.0
 11
0.7382044605
 21
-6.3295589446
 31
0.0
  0
LINE
  5
B3
330
1F
100
AcDbEntity
  8
0
  6
Continuous
 62
     7
370
    15
100
AcDbLine
 10
0.7382044605
 20
-6.3295589446
 30
0.0
 11
1.7231837607
 21
-6.3295589446
 31
0.0
  0
LINE
  5
B4
330
1F
100
AcDbEntity
  8
0
  6
Continuous
 62
     7
370
    15
100
AcDbLine
 10
1.7231837607
 20
-6.3295589446
 30
0.0
 11
1.7231837607
 21
-6.5466529617
 31
0.0
  0
LINE
  5
B5
330
1F
100
AcDbEntity
  8
0
  6
Continuous
 62
     7
370
    15
100
AcDbLine
 10
1.7231837607
 20
-6.5466529617
 30
0.0
 11
0.2849358974
 21
-6.5466529617
 31
0.0
  0
LINE
  5
B6
330
1F
100
AcDbEntity
  8
0
  6
Continuous
 62
     7
370
    15
100
AcDbLine
 10
0.2849358974
 20
-6.5466529617
 30
0.0
 11
1.1058226496
 21
-5.6706446818
 31
0.0
  0
SPLINE
  5
B7
330
1F
100
AcDbEntity
  8
0
  6
Continuous
 62
     7
370
    15
100
AcDbSpline
210
0.0
220
0.0
230
1.0
 70
     8
 71
     3
 72
    19
 73
    15
 74
     0
 42
0.000000001
 43
0.00000001
 40
0.0
 40
0.0
 40
0.0
 40
0.0
 40
0.1108026438013184
 40
0.2128292023477703
 40
0.3061013098231106
 40
0.3906473211160101
 40
0.4669244693608519
 40
0.5344810392840308
 40
0.5935869409656723
 40
0.6445570045087178
 40
0.7362004526293727
 40
0.8250240256188646
 40
0.9119855848297588
 40
1.0
 40
1.0
 40
1.0
 40
1.0
 10
1.105822649572651
 20
-5.670644681814511
 30
0.0
 10
1.125808752546924
 20
-5.649781420235114
 30
0.0
 10
1.164197966090261
 20
-5.60970736452686
 30
0.0
 10
1.218495048255825
 20
-5.551200907683907
 30
0.0
 10
1.267262436425709
 20
-5.496923804467147
 30
0.0
 10
1.310815812054382
 20
-5.446978606122149
 30
0.0
 10
1.348210360537522
 20
-5.40063475321724
 30
0.0
 10
1.381394996048797
 20
-5.359393194380841
 30
0.0
 10
1.407983710595099
 20
-5.321441693480343
 30
0.0
 10
1.436840164177641
 20
-5.277450941257048
 30
0.0
 10
1.464788619594664
 20
-5.22374063515655
 30
0.0
 10
1.488805139676236
 20
-5.158103594508202
 30
0.0
 10
1.503449357547545
 20
-5.090535208366056
 30
0.0
 10
1.505206091401069
 20
-5.044874452627947
 30
0.0
 10
1.506089743589745
 20
-5.02190670104528
 30
0.0
  0
MTEXT
  5
B9
330
1F
100
AcDbEntity
  8
0
  6
Continuous
 62
     7
100
AcDbMText
 10
-12.2792209826
 20
-8.5780083569
 30
0.0
 40
4.83362
 41
0.0
 71
     1
 72
     1
  1
SOLIDWORKS Educational Product.
  7
SLDTEXTSTYLE0
 73
     1
 44
1.0
  0
MTEXT
  5
BA
330
1F
100
AcDbEntity
  8
0
  6
Continuous
 62
     7
100
AcDbMText
 10
-12.2792209826
 20
-15.8284383569
 30
0.0
 40
4.83362
 41
0.0
 71
     1
 72
     1
  1
For Instructional Use Only.
  7
SLDTEXTSTYLE0
 73
     1
 44
1.0
  0
ENDSEC
  0
SECTION
  2
OBJECTS
  0
DICTIONARY
  5
C
330
0
100
AcDbDictionary
281
     1
  3
ACAD_GROUP
350
D
  3
ACAD_LAYOUT
350
1A
  3
ACAD_MLINESTYLE
350
17
  3
ACAD_PLOTSETTINGS
350
19
  3
ACAD_PLOTSTYLENAME
350
E
  3
ACAD_SCALELIST
350
47
  0
DICTIONARY
  5
D
102
{ACAD_REACTORS
330
C
102
}
330
C
100
AcDbDictionary
281
     1
  0
DICTIONARY
  5
1A
102
{ACAD_REACTORS
330
C
102
}
330
C
100
AcDbDictionary
281
     1
  3
Layout1
350
1E
  3
Layout2
350
26
  3
Model
350
22
  0
DICTIONARY
  5
17
102
{ACAD_REACTORS
330
C
102
}
330
C
100
AcDbDictionary
281
     1
  3
Standard
350
18
  0
DICTIONARY
  5
19
102
{ACAD_REACTORS
330
C
102
}
330
C
100
AcDbDictionary
281
     1
  0
ACDBDICTIONARYWDFLT
  5
E
102
{ACAD_REACTORS
330
C
102
}
330
C
100
AcDbDictionary
281
     1
  3
Normal
350
F
100
AcDbDictionaryWithDefault
340
F
  0
DICTIONARY
  5
47
102
{ACAD_REACTORS
330
C
102
}
330
C
100
AcDbDictionary
281
     1
  3
A0
350
48
  3
A1
350
49
  3
A2
350
4A
  3
A3
350
4B
  3
A4
350
4C
  3
A5
350
4D
  3
A6
350
4E
  3
A7
350
4F
  3
A8
350
50
  3
A9
350
51
  3
B0
350
52
  3
B1
350
53
  3
B2
350
54
  3
B3
350
55
  3
B4
350
56
  3
B5
350
57
  3
B6
350
58
  3
B7
350
59
  3
B8
350
5A
  3
B9
350
5B
  3
C0
350
5C
  3
C1
350
5D
  3
C2
350
5E
  3
C3
350
5F
  3
C4
350
60
  3
C5
350
61
  3
C6
350
62
  3
C7
350
63
  3
C8
350
64
  3
C9
350
65
  3
D0
350
66
  3
D1
350
67
  3
D2
350
68
  0
LAYOUT
  5
1E
102
{ACAD_REACTORS
330
1A
102
}
330
1A
100
AcDbPlotSettings
  1

  2
none_device
  4

  6

 40
0.0
 41
0.0
 42
0.0
 43
0.0
 44
0.0
 45
0.0
 46
0.0
 47
0.0
 48
0.0
 49
0.0
140
0.0
141
0.0
142
1.0
143
1.0
 70
   688
 72
     1
 73
     0
 74
     5
  7

 75
    16
147
1.0
148
0.0
149
0.0
100
AcDbLayout
  1
Layout1
 70
     1
 71
     1
 10
0.0
 20
0.0
 11
420.0
 21
297.0
 12
0.0
 22
0.0
 32
0.0
 14
1.0000000000E+20
 24
1.0000000000E+20
 34
1.0000000000E+20
 15
-1.0000000000E+20
 25
-1.0000000000E+20
 35
-1.0000000000E+20
146
0.0
 13
0.0
 23
0.0
 33
0.0
 16
1.0
 26
0.0
 36
0.0
 17
0.0
 27
1.0
 37
0.0
 76
     0
330
1B
  0
LAYOUT
  5
26
102
{ACAD_REACTORS
330
1A
102
}
330
1A
100
AcDbPlotSettings
  1

  2
none_device
  4

  6

 40
0.0
 41
0.0
 42
0.0
 43
0.0
 44
0.0
 45
0.0
 46
0.0
 47
0.0
 48
0.0
 49
0.0
140
0.0
141
0.0
142
1.0
143
1.0
 70
   688
 72
     1
 73
     0
 74
     5
  7

 75
    16
147
1.0
148
0.0
149
0.0
100
AcDbLayout
  1
Layout2
 70
     1
 71
     2
 10
0.0
 20
0.0
 11
0.0
 21
0.0
 12
0.0
 22
0.0
 32
0.0
 14
0.0
 24
0.0
 34
0.0
 15
0.0
 25
0.0
 35
0.0
146
0.0
 13
0.0
 23
0.0
 33
0.0
 16
1.0
 26
0.0
 36
0.0
 17
0.0
 27
1.0
 37
0.0
 76
     0
330
23
  0
LAYOUT
  5
22
102
{ACAD_REACTORS
330
1A
102
}
330
1A
100
AcDbPlotSettings
  1

  2
none_device
  4
ANSI_A_(11.00_x_8.50_Inches)
  6

 40
6.35
 41
19.05
 42
6.35000508
 43
19.05000254
 44
279.4
 45
215.9
 46
133.34999746
 47
131.4660214687
 48
0.0
 49
0.0
140
0.0
141
0.0
142
0.4434320392
143
1.0
 70
  1696
 72
     0
 73
     0
 74
     0
  7

 75
     0
147
0.0179189148
148
-1300.4909072572
149
0.0
100
AcDbLayout
  1
Model
 70
     1
 71
     0
 10
0.0
 20
0.0
 11
420.0
 21
297.0
 12
0.0
 22
0.0
 32
0.0
 14
-12.2792209826
 24
-7.5584419653
 34
0.0
 15
12.2792209826
 25
0.0
 35
0.0
146
0.0
 13
0.0
 23
0.0
 33
0.0
 16
1.0
 26
0.0
 36
0.0
 17
0.0
 27
1.0
 37
0.0
 76
     0
330
1F
331
29
  0
MLINESTYLE
  5
18
102
{ACAD_REACTORS
330
17
102
}
330
17
100
AcDbMlineStyle
  2
Standard
 70
     0
  3

 62
   256
 51
90.0
 52
90.0
 71
     2
 49
0.5
 62
   256
  6
BYLAYER
 49
-0.5
 62
   256
  6
BYLAYER
  0
ACDBPLACEHOLDER
  5
F
102
{ACAD_REACTORS
330
E
102
}
330
E
  0
SCALE
  5
48
102
{ACAD_REACTORS
330
47
102
}
330
47
100
AcDbScale
 70
     0
300
1:1
140
1.0
141
1.0
290
     1
  0
SCALE
  5
49
102
{ACAD_REACTORS
330
47
102
}
330
47
100
AcDbScale
 70
     0
300
1:2
140
1.0
141
2.0
290
     0
  0
SCALE
  5
4A
102
{ACAD_REACTORS
330
47
102
}
330
47
100
AcDbScale
 70
     0
300
1:4
140
1.0
141
4.0
290
     0
  0
SCALE
  5
4B
102
{ACAD_REACTORS
330
47
102
}
330
47
100
AcDbScale
 70
     0
300
1:5
140
1.0
141
5.0
290
     0
  0
SCALE
  5
4C
102
{ACAD_REACTORS
330
47
102
}
330
47
100
AcDbScale
 70
     0
300
1:8
140
1.0
141
8.0
290
     0
  0
SCALE
  5
4D
102
{ACAD_REACTORS
330
47
102
}
330
47
100
AcDbScale
 70
     0
300
1:10
140
1.0
141
10.0
290
     0
  0
SCALE
  5
4E
102
{ACAD_REACTORS
330
47
102
}
330
47
100
AcDbScale
 70
     0
300
1:16
140
1.0
141
16.0
290
     0
  0
SCALE
  5
4F
102
{ACAD_REACTORS
330
47
102
}
330
47
100
AcDbScale
 70
     0
300
1:20
140
1.0
141
20.0
290
     0
  0
SCALE
  5
50
102
{ACAD_REACTORS
330
47
102
}
330
47
100
AcDbScale
 70
     0
300
1:30
140
1.0
141
30.0
290
     0
  0
SCALE
  5
51
102
{ACAD_REACTORS
330
47
102
}
330
47
100
AcDbScale
 70
     0
300
1:40
140
1.0
141
40.0
290
     0
  0
SCALE
  5
52
102
{ACAD_REACTORS
330
47
102
}
330
47
100
AcDbScale
 70
     0
300
1:50
140
1.0
141
50.0
290
     0
  0
SCALE
  5
53
102
{ACAD_REACTORS
330
47
102
}
330
47
100
AcDbScale
 70
     0
300
1:100
140
1.0
141
100.0
290
     0
  0
SCALE
  5
54
102
{ACAD_REACTORS
330
47
102
}
330
47
100
AcDbScale
 70
     0
300
2:1
140
2.0
141
1.0
290
     0
  0
SCALE
  5
55
102
{ACAD_REACTORS
330
47
102
}
330
47
100
AcDbScale
 70
     0
300
4:1
140
4.0
141
1.0
290
     0
  0
SCALE
  5
56
102
{ACAD_REACTORS
330
47
102
}
330
47
100
AcDbScale
 70
     0
300
8:1
140
8.0
141
1.0
290
     0
  0
SCALE
  5
57
102
{ACAD_REACTORS
330
47
102
}
330
47
100
AcDbScale
 70
     0
300
10:1
140
10.0
141
1.0
290
     0
  0
SCALE
  5
58
102
{ACAD_REACTORS
330
47
102
}
330
47
100
AcDbScale
 70
     0
300
100:1
140
100.0
141
1.0
290
     0
  0
SCALE
  5
59
102
{ACAD_REACTORS
330
47
102
}
330
47
100
AcDbScale
 70
     0
300
1/128" = 1'-0"
140
0.0078125
141
12.0
290
     0
  0
SCALE
  5
5A
102
{ACAD_REACTORS
330
47
102
}
330
47
100
AcDbScale
 70
     0
300
1/64" = 1'-0"
140
0.015625
141
12.0
290
     0
  0
SCALE
  5
5B
102
{ACAD_REACTORS
330
47
102
}
330
47
100
AcDbScale
 70
     0
300
1/32" = 1'-0"
140
0.03125
141
12.0
290
     0
  0
SCALE
  5
5C
102
{ACAD_REACTORS
330
47
102
}
330
47
100
AcDbScale
 70
     0
300
1/16" = 1'-0"
140
0.0625
141
12.0
290
     0
  0
SCALE
  5
5D
102
{ACAD_REACTORS
330
47
102
}
330
47
100
AcDbScale
 70
     0
300
3/32" = 1'-0"
140
0.09375
141
12.0
290
     0
  0
SCALE
  5
5E
102
{ACAD_REACTORS
330
47
102
}
330
47
100
AcDbScale
 70
     0
300
1/8" = 1'-0"
140
0.125
141
12.0
290
     0
  0
SCALE
  5
5F
102
{ACAD_REACTORS
330
47
102
}
330
47
100
AcDbScale
 70
     0
300
3/16" = 1'-0"
140
0.1875
141
12.0
290
     0
  0
SCALE
  5
60
102
{ACAD_REACTORS
330
47
102
}
330
47
100
AcDbScale
 70
     0
300
1/4" = 1'-0"
140
0.25
141
12.0
290
     0
  0
SCALE
  5
61
102
{ACAD_REACTORS
330
47
102
}
330
47
100
AcDbScale
 70
     0
300
3/8" = 1'-0"
140
0.375
141
12.0
290
     0
  0
SCALE
  5
62
102
{ACAD_REACTORS
330
47
102
}
330
47
100
AcDbScale
 70
     0
300
1/2" = 1'-0"
140
0.5
141
12.0
290
     0
  0
SCALE
  5
63
102
{ACAD_REACTORS
330
47
102
}
330
47
100
AcDbScale
 70
     0
300
3/4" = 1'-0"
140
0.75
141
12.0
290
     0
  0
SCALE
  5
64
102
{ACAD_REACTORS
330
47
102
}
330
47
100
AcDbScale
 70
     0
300
1" = 1'-0"
140
1.0
141
12.0
290
     0
  0
SCALE
  5
65
102
{ACAD_REACTORS
330
47
102
}
330
47
100
AcDbScale
 70
     0
300
1-1/2" = 1'-0"
140
1.5
141
12.0
290
     0
  0
SCALE
  5
66
102
{ACAD_REACTORS
330
47
102
}
330
47
100
AcDbScale
 70
     0
300
3" = 1'-0"
140
3.0
141
12.0
290
     0
  0
SCALE
  5
67
102
{ACAD_REACTORS
330
47
102
}
330
47
100
AcDbScale
 70
     0
300
6" = 1'-0"
140
6.0
141
12.0
290
     0
  0
SCALE
  5
68
102
{ACAD_REACTORS
330
47
102
}
330
47
100
AcDbScale
 70
     0
300
1'-0" = 1'-0"
140
12.0
141
12.0
290
     0
  0
ENDSEC
  0
EOF
