  0
SECTION
  2
HEADER
  9
$ACADVER
  1
AC1015
  9
$ACADMAINTVER
 70
     6
  9
$DWGCODEPAGE
  3
ANSI_1252
  9
$INSBASE
 10
0.0
 20
0.0
 30
0.0
  9
$EXTMIN
 10
0.0
 20
0.0
 30
0.0
  9
$EXTMAX
 10
190.0
 20
37.0
 30
0.0
  9
$LIMMIN
 10
0.0
 20
0.0
  9
$LIMMAX
 10
420.0
 20
297.0
  9
$ORTHOMODE
 70
     0
  9
$REGENMODE
 70
     1
  9
$FILLMODE
 70
     1
  9
$QTEXTMODE
 70
     0
  9
$MIRRTEXT
 70
     1
  9
$LTSCALE
 40
1.0
  9
$ATTMODE
 70
     1
  9
$TEXTSIZE
 40
6.35
  9
$TRACEWID
 40
1.0
  9
$TEXTSTYLE
  7
Standard
  9
$CLAYER
  8
0
  9
$CELTYPE
  6
ByLayer
  9
$CECOLOR
 62
   256
  9
$CELTSCALE
 40
1.0
  9
$DISPSILH
 70
     0
  9
$DIMSCALE
 40
1.0
  9
$DIMASZ
 40
5.9944
  9
$DIMEXO
 40
0.9906
  9
$DIMDLI
 40
3.75
  9
$DIMRND
 40
0.0
  9
$DIMDLE
 40
0.0
  9
$DIMEXE
 40
0.9906
  9
$DIMTP
 40
0.0
  9
$DIMTM
 40
0.0
  9
$DIMTXT
 40
6.35
  9
$DIMCEN
 40
2.5
  9
$DIMTSZ
 40
0.0
  9
$DIMTOL
 70
     0
  9
$DIMLIM
 70
     0
  9
$DIMTIH
 70
     1
  9
$DIMTOH
 70
     1
  9
$DIMSE1
 70
     0
  9
$DIMSE2
 70
     0
  9
$DIMTAD
 70
     1
  9
$DIMZIN
 70
     0
  9
$DIMBLK
  1

  9
$DIMASO
 70
     1
  9
$DIMSHO
 70
     1
  9
$DIMPOST
  1

  9
$DIMAPOST
  1

  9
$DIMALT
 70
     0
  9
$DIMALTD
 70
     3
  9
$DIMALTF
 40
0.0393700787
  9
$DIMLFAC
 40
1.0
  9
$DIMTOFL
 70
     1
  9
$DIMTVP
 40
0.0
  9
$DIMTIX
 70
     0
  9
$DIMSOXD
 70
     0
  9
$DIMSAH
 70
     0
  9
$DIMBLK1
  1

  9
$DIMBLK2
  1

  9
$DIMSTYLE
  2
ISO-25
  9
$DIMCLRD
 70
     0
  9
$DIMCLRE
 70
     0
  9
$DIMCLRT
 70
     0
  9
$DIMTFAC
 40
1.0
  9
$DIMGAP
 40
1.524
  9
$DIMJUST
 70
     0
  9
$DIMSD1
 70
     0
  9
$DIMSD2
 70
     0
  9
$DIMTOLJ
 70
     0
  9
$DIMTZIN
 70
     0
  9
$DIMALTZ
 70
     0
  9
$DIMALTTZ
 70
     0
  9
$DIMUPT
 70
     0
  9
$DIMDEC
 70
     2
  9
$DIMTDEC
 70
     2
  9
$DIMALTU
 70
     2
  9
$DIMALTTD
 70
     3
  9
$DIMTXSTY
  7
Standard
  9
$DIMAUNIT
 70
     0
  9
$DIMADEC
 70
     2
  9
$DIMALTRND
 40
0.0
  9
$DIMAZIN
 70
     0
  9
$DIMDSEP
 70
    44
  9
$DIMATFIT
 70
     3
  9
$DIMFRAC
 70
     0
  9
$DIMLDRBLK
  1

  9
$DIMLUNIT
 70
     2
  9
$DIMLWD
 70
    -2
  9
$DIMLWE
 70
    -2
  9
$DIMTMOVE
 70
     0
  9
$LUNITS
 70
     2
  9
$LUPREC
 70
     2
  9
$SKETCHINC
 40
1.0
  9
$FILLETRAD
 40
10.0
  9
$AUNITS
 70
     0
  9
$AUPREC
 70
     2
  9
$MENU
  1
.
  9
$ELEVATION
 40
0.0
  9
$PELEVATION
 40
0.0
  9
$THICKNESS
 40
0.0
  9
$LIMCHECK
 70
     0
  9
$CHAMFERA
 40
0.0
  9
$CHAMFERB
 40
0.0
  9
$CHAMFERC
 40
0.0
  9
$CHAMFERD
 40
0.0
  9
$SKPOLY
 70
     0
  9
$TDCREATE
 40
2457989.493691748
  9
$TDUCREATE
 40
2457989.452025081
  9
$TDUPDATE
 40
2457989.493728148
  9
$TDUUPDATE
 40
2457989.452061481
  9
$TDINDWG
 40
0.0000000116
  9
$TDUSRTIMER
 40
0.0000000116
  9
$USRTIMER
 70
     1
  9
$ANGBASE
 50
0.0
  9
$ANGDIR
 70
     0
  9
$PDMODE
 70
     0
  9
$PDSIZE
 40
-1.0
  9
$PLINEWID
 40
0.0
  9
$SPLFRAME
 70
     0
  9
$SPLINETYPE
 70
     6
  9
$SPLINESEGS
 70
     8
  9
$HANDSEED
  5
118
  9
$SURFTAB1
 70
     6
  9
$SURFTAB2
 70
     6
  9
$SURFTYPE
 70
     6
  9
$SURFU
 70
     6
  9
$SURFV
 70
     6
  9
$UCSBASE
  2

  9
$UCSNAME
  2

  9
$UCSORG
 10
0.0
 20
0.0
 30
0.0
  9
$UCSXDIR
 10
1.0
 20
0.0
 30
0.0
  9
$UCSYDIR
 10
0.0
 20
1.0
 30
0.0
  9
$UCSORTHOREF
  2

  9
$UCSORTHOVIEW
 70
     0
  9
$UCSORGTOP
 10
0.0
 20
0.0
 30
0.0
  9
$UCSORGBOTTOM
 10
0.0
 20
0.0
 30
0.0
  9
$UCSORGLEFT
 10
0.0
 20
0.0
 30
0.0
  9
$UCSORGRIGHT
 10
0.0
 20
0.0
 30
0.0
  9
$UCSORGFRONT
 10
0.0
 20
0.0
 30
0.0
  9
$UCSORGBACK
 10
0.0
 20
0.0
 30
0.0
  9
$PUCSBASE
  2

  9
$PUCSNAME
  2

  9
$PUCSORG
 10
0.0
 20
0.0
 30
0.0
  9
$PUCSXDIR
 10
1.0
 20
0.0
 30
0.0
  9
$PUCSYDIR
 10
0.0
 20
1.0
 30
0.0
  9
$PUCSORTHOREF
  2

  9
$PUCSORTHOVIEW
 70
     0
  9
$PUCSORGTOP
 10
0.0
 20
0.0
 30
0.0
  9
$PUCSORGBOTTOM
 10
0.0
 20
0.0
 30
0.0
  9
$PUCSORGLEFT
 10
0.0
 20
0.0
 30
0.0
  9
$PUCSORGRIGHT
 10
0.0
 20
0.0
 30
0.0
  9
$PUCSORGFRONT
 10
0.0
 20
0.0
 30
0.0
  9
$PUCSORGBACK
 10
0.0
 20
0.0
 30
0.0
  9
$USERI1
 70
     0
  9
$USERI2
 70
     0
  9
$USERI3
 70
     0
  9
$USERI4
 70
     0
  9
$USERI5
 70
     0
  9
$USERR1
 40
0.0
  9
$USERR2
 40
0.0
  9
$USERR3
 40
0.0
  9
$USERR4
 40
0.0
  9
$USERR5
 40
0.0
  9
$WORLDVIEW
 70
     1
  9
$SHADEDGE
 70
     3
  9
$SHADEDIF
 70
    70
  9
$TILEMODE
 70
     1
  9
$MAXACTVP
 70
    64
  9
$PINSBASE
 10
0.0
 20
0.0
 30
0.0
  9
$PLIMCHECK
 70
     0
  9
$PEXTMIN
 10
1.0000000000E+20
 20
1.0000000000E+20
 30
1.0000000000E+20
  9
$PEXTMAX
 10
-1.0000000000E+20
 20
-1.0000000000E+20
 30
-1.0000000000E+20
  9
$PLIMMIN
 10
0.0
 20
0.0
  9
$PLIMMAX
 10
420.0
 20
297.0
  9
$UNITMODE
 70
     0
  9
$VISRETAIN
 70
     1
  9
$PLINEGEN
 70
     0
  9
$PSLTSCALE
 70
     1
  9
$TREEDEPTH
 70
  3020
  9
$CMLSTYLE
  2
Standard
  9
$CMLJUST
 70
     0
  9
$CMLSCALE
 40
20.0
  9
$PROXYGRAPHICS
 70
     1
  9
$MEASUREMENT
 70
     1
  9
$CELWEIGHT
370
    -1
  9
$ENDCAPS
280
     0
  9
$JOINSTYLE
280
     0
  9
$LWDISPLAY
290
     1
  9
$INSUNITS
 70
     4
  9
$HYPERLINKBASE
  1

  9
$STYLESHEET
  1

  9
$XEDIT
290
     1
  9
$CEPSNTYPE
380
     0
  9
$PSTYLEMODE
290
     1
  9
$FINGERPRINTGUID
  2
{2FD6B01F-4B5D-438C-BE7B-AE52865DB55C}
  9
$VERSIONGUID
  2
{FAEB1C32-E019-11D5-929B-00C0DF256EC4}
  9
$EXTNAMES
290
     1
  9
$PSVPSCALE
 40
0.0
  9
$OLESTARTUP
290
     0
  0
ENDSEC
  0
SECTION
  2
CLASSES
  0
CLASS
  1
ACDBDICTIONARYWDFLT
  2
AcDbDictionaryWithDefault
  3
ObjectDBX Classes
 90
        0
280
     0
281
     0
  0
CLASS
  1
VISUALSTYLE
  2
AcDbVisualStyle
  3
ObjectDBX Classes
 90
     4095
280
     0
281
     0
  0
CLASS
  1
MATERIAL
  2
AcDbMaterial
  3
ObjectDBX Classes
 90
     1153
280
     0
281
     0
  0
CLASS
  1
SCALE
  2
AcDbScale
  3
ObjectDBX Classes
 90
     1153
280
     0
281
     0
  0
CLASS
  1
TABLESTYLE
  2
AcDbTableStyle
  3
ObjectDBX Classes
 90
     4095
280
     0
281
     0
  0
CLASS
  1
MLEADERSTYLE
  2
AcDbMLeaderStyle
  3
ACDB_MLEADERSTYLE_CLASS
 90
     4095
280
     0
281
     0
  0
CLASS
  1
SUN
  2
AcDbSun
  3
SCENEOE
 90
     1153
280
     0
281
     0
  0
CLASS
  1
ACDBPLACEHOLDER
  2
AcDbPlaceHolder
  3
ObjectDBX Classes
 90
        0
280
     0
281
     0
  0
CLASS
  1
LAYOUT
  2
AcDbLayout
  3
ObjectDBX Classes
 90
        0
280
     0
281
     0
  0
ENDSEC
  0
SECTION
  2
TABLES
  0
TABLE
  2
VPORT
  5
8
330
0
100
AcDbSymbolTable
 70
     1
  0
VPORT
  5
29
330
8
100
AcDbSymbolTableRecord
100
AcDbViewportTableRecord
  2
*Active
 70
     0
 10
0.0
 20
0.0
 11
1.0
 21
1.0
 12
95.0
 22
18.5
 13
0.0
 23
0.0
 14
10.0
 24
10.0
 15
10.0
 25
10.0
 16
0.0
 26
0.0
 36
1.0
 17
0.0
 27
0.0
 37
0.0
 40
37.74
 41
5.1351351351
 42
50.0
 43
0.0
 44
0.0
 50
0.0
 51
0.0
 71
     0
 72
   100
 73
     1
 74
     3
 75
     0
 76
     0
 77
     0
 78
     0
281
     0
 65
     1
110
0.0
120
0.0
130
0.0
111
1.0
121
0.0
131
0.0
112
0.0
122
1.0
132
0.0
 79
     0
146
0.0
  0
ENDTAB
  0
TABLE
  2
LTYPE
  5
5
330
0
100
AcDbSymbolTable
 70
     6
  0
LTYPE
  5
14
330
5
100
AcDbSymbolTableRecord
100
AcDbLinetypeTableRecord
  2
ByBlock
 70
     0
  3

 72
    65
 73
     0
 40
0.0
  0
LTYPE
  5
15
330
5
100
AcDbSymbolTableRecord
100
AcDbLinetypeTableRecord
  2
ByLayer
 70
     0
  3

 72
    65
 73
     0
 40
0.0
  0
LTYPE
  5
16
330
5
100
AcDbSymbolTableRecord
100
AcDbLinetypeTableRecord
  2
Continuous
 70
     0
  3
Solid line
 72
    65
 73
     0
 40
0.0
  0
LTYPE
  5
6E
330
5
100
AcDbSymbolTableRecord
100
AcDbLinetypeTableRecord
  2
HIDDEN
 70
     0
  3
Hidden __ __ __ __ __ __ __ __ __ __ __ __ __ __
 72
    65
 73
     2
 40
1.905
 49
1.27
 74
     0
 49
-0.635
 74
     0
  0
LTYPE
  5
6F
330
5
100
AcDbSymbolTableRecord
100
AcDbLinetypeTableRecord
  2
PHANTOM
 70
     0
  3
Phantom ______  __  __  ______  __  __  ______
 72
    65
 73
     6
 40
12.7
 49
6.35
 74
     0
 49
-1.27
 74
     0
 49
1.27
 74
     0
 49
-1.27
 74
     0
 49
1.27
 74
     0
 49
-1.27
 74
     0
  0
LTYPE
  5
70
330
5
100
AcDbSymbolTableRecord
100
AcDbLinetypeTableRecord
  2
CENTER
 70
     0
  3
Center ____ _ ____ _ ____ _ ____ _ ____ _ ____
 72
    65
 73
     4
 40
10.16
 49
6.35
 74
     0
 49
-1.27
 74
     0
 49
1.27
 74
     0
 49
-1.27
 74
     0
  0
LTYPE
  5
71
330
5
100
AcDbSymbolTableRecord
100
AcDbLinetypeTableRecord
  2
CENTERX2
 70
     0
  3
Center (2x) ________  __  ________  __  _____
 72
    65
 73
     4
 40
20.32
 49
12.7
 74
     0
 49
-2.54
 74
     0
 49
2.54
 74
     0
 49
-2.54
 74
     0
  0
LTYPE
  5
72
330
5
100
AcDbSymbolTableRecord
100
AcDbLinetypeTableRecord
  2
DOT2
 70
     0
  3
Dot (.5x) ........................................
 72
    65
 73
     2
 40
0.635
 49
0.0
 74
     0
 49
-0.635
 74
     0
  0
ENDTAB
  0
TABLE
  2
LAYER
  5
2
330
0
100
AcDbSymbolTable
 70
     1
  0
LAYER
  5
10
330
2
100
AcDbSymbolTableRecord
100
AcDbLayerTableRecord
  2
0
 70
     0
 62
     7
  6
Continuous
370
    -3
390
F
  0
ENDTAB
  0
TABLE
  2
STYLE
  5
3
330
0
100
AcDbSymbolTable
 70
     2
  0
STYLE
  5
11
330
3
100
AcDbSymbolTableRecord
100
AcDbTextStyleTableRecord
  2
Standard
 70
     0
 40
0.0
 41
1.0
 50
0.0
 71
     0
 42
6.35
  3
txt
  4

  0
STYLE
  5
115
330
3
100
AcDbSymbolTableRecord
100
AcDbTextStyleTableRecord
  2
SLDTEXTSTYLE0
 70
     0
 40
0.0
 41
0.7
 50
0.0
 71
     0
 42
6.35
  3
TXT
  4

  0
ENDTAB
  0
TABLE
  2
VIEW
  5
6
330
0
100
AcDbSymbolTable
 70
     0
  0
ENDTAB
  0
TABLE
  2
UCS
  5
7
330
0
100
AcDbSymbolTable
 70
     0
  0
ENDTAB
  0
TABLE
  2
APPID
  5
9
330
0
100
AcDbSymbolTable
 70
     1
  0
APPID
  5
12
330
9
100
AcDbSymbolTableRecord
100
AcDbRegAppTableRecord
  2
ACAD
 70
     0
  0
ENDTAB
  0
TABLE
  2
DIMSTYLE
  5
A
330
0
100
AcDbSymbolTable
 70
     1
100
AcDbDimStyleTable
  0
DIMSTYLE
105
27
330
A
100
AcDbSymbolTableRecord
100
AcDbDimStyleTableRecord
  2
ISO-25
 70
     0
 41
2.5
 42
0.625
 43
3.75
 44
1.25
 73
     0
 74
     0
 77
     1
 78
     8
140
2.5
141
2.5
143
0.0393700787
147
0.625
171
     3
172
     1
178
     0
271
     2
272
     2
274
     3
278
    44
283
     0
284
     8
340
11
  0
ENDTAB
  0
TABLE
  2
BLOCK_RECORD
  5
1
330
0
100
AcDbSymbolTable
 70
     1
  0
BLOCK_RECORD
  5
1F
330
1
100
AcDbSymbolTableRecord
100
AcDbBlockTableRecord
  2
*Model_Space
340
22
  0
BLOCK_RECORD
  5
1B
330
1
100
AcDbSymbolTableRecord
100
AcDbBlockTableRecord
  2
*Paper_Space
340
1E
  0
BLOCK_RECORD
  5
23
330
1
100
AcDbSymbolTableRecord
100
AcDbBlockTableRecord
  2
*Paper_Space0
340
26
  0
ENDTAB
  0
ENDSEC
  0
SECTION
  2
BLOCKS
  0
BLOCK
  5
20
330
1F
100
AcDbEntity
  8
0
100
AcDbBlockBegin
  2
*Model_Space
 70
     0
 10
0.0
 20
0.0
 30
0.0
  3
*Model_Space
  1

  0
ENDBLK
  5
21
330
1F
100
AcDbEntity
  8
0
100
AcDbBlockEnd
  0
BLOCK
  5
1C
330
1B
100
AcDbEntity
 67
     1
  8
0
100
AcDbBlockBegin
  2
*Paper_Space
 70
     0
 10
0.0
 20
0.0
 30
0.0
  3
*Paper_Space
  1

  0
ENDBLK
  5
1D
330
1B
100
AcDbEntity
 67
     1
  8
0
100
AcDbBlockEnd
  0
BLOCK
  5
24
330
23
100
AcDbEntity
  8
0
100
AcDbBlockBegin
  2
*Paper_Space0
 70
     0
 10
0.0
 20
0.0
 30
0.0
  3
*Paper_Space0
  1

  0
ENDBLK
  5
25
330
23
100
AcDbEntity
  8
0
100
AcDbBlockEnd
  0
ENDSEC
  0
SECTION
  2
ENTITIES
  0
LINE
  5
73
330
1F
100
AcDbEntity
  8
0
  6
Continuous
 62
     7
370
    15
100
AcDbLine
 10
60.5425686125
 20
9.7941673949
 30
0.0
 11
60.7257416894
 21
7.5172242859
 31
0.0
  0
LINE
  5
74
330
1F
100
AcDbEntity
  8
0
  6
Continuous
 62
     7
370
    15
100
AcDbLine
 10
60.7257416894
 20
7.5172242859
 30
0.0
 11
60.4299934923
 21
7.4523504878
 31
0.0
  0
LINE
  5
75
330
1F
100
AcDbEntity
  8
0
  6
Continuous
 62
     7
370
    15
100
AcDbLine
 10
60.4299934923
 20
7.4523504878
 30
0.0
 11
60.1965750228
 21
10.6178102234
 31
0.0
  0
LINE
  5
76
330
1F
100
AcDbEntity
  8
0
  6
Continuous
 62
     7
370
    15
100
AcDbLine
 10
60.1965750228
 20
10.6178102234
 30
0.0
 11
60.2468204154
 21
10.6286225231
 31
0.0
  0
LINE
  5
77
330
1F
100
AcDbEntity
  8
0
  6
Continuous
 62
     7
370
    15
100
AcDbLine
 10
60.2468204154
 20
10.6286225231
 30
0.0
 11
62.0435702151
 21
8.380936225
 31
0.0
  0
LINE
  5
78
330
1F
100
AcDbEntity
  8
0
  6
Continuous
 62
     7
370
    15
100
AcDbLine
 10
62.0435702151
 20
8.380936225
 30
0.0
 11
62.7304692535
 21
11.1698735247
 31
0.0
  0
LINE
  5
79
330
1F
100
AcDbEntity
  8
0
  6
Continuous
 62
     7
370
    15
100
AcDbLine
 10
62.7304692535
 20
11.1698735247
 30
0.0
 11
62.7800786285
 21
11.1806858244
 31
0.0
  0
LINE
  5
7A
330
1F
100
AcDbEntity
  8
0
  6
Continuous
 62
     7
370
    15
100
AcDbLine
 10
62.7800786285
 20
11.1806858244
 30
0.0
 11
63.8899293898
 21
8.2066673949
 31
0.0
  0
LINE
  5
7B
330
1F
100
AcDbEntity
  8
0
  6
Continuous
 62
     7
370
    15
100
AcDbLine
 10
63.8899293898
 20
8.2066673949
 30
0.0
 11
63.5871849987
 21
8.1405215616
 31
0.0
  0
LINE
  5
7C
330
1F
100
AcDbEntity
  8
0
  6
Continuous
 62
     7
370
    15
100
AcDbLine
 10
63.5871849987
 20
8.1405215616
 30
0.0
 11
62.8080634042
 21
10.2705445984
 31
0.0
  0
LINE
  5
7D
330
1F
100
AcDbEntity
  8
0
  6
Continuous
 62
     7
370
    15
100
AcDbLine
 10
62.8080634042
 20
10.2705445984
 30
0.0
 11
62.2013025869
 21
7.8384131882
 31
0.0
  0
LINE
  5
7E
330
1F
100
AcDbEntity
  8
0
  6
Continuous
 62
     7
370
    15
100
AcDbLine
 10
62.2013025869
 20
7.8384131882
 30
0.0
 11
62.1243444539
 21
7.8218767298
 31
0.0
  0
LINE
  5
7F
330
1F
100
AcDbEntity
  8
0
  6
Continuous
 62
     7
370
    15
100
AcDbLine
 10
62.1243444539
 20
7.8218767298
 30
0.0
 11
60.5425686125
 21
9.7941673949
 31
0.0
  0
LINE
  5
80
330
1F
100
AcDbEntity
  8
0
  6
Continuous
 62
     7
370
    15
100
AcDbLine
 10
57.7302224923
 20
6.8648991801
 30
0.0
 11
57.4230259779
 21
6.7981173292
 31
0.0
  0
LINE
  5
81
330
1F
100
AcDbEntity
  8
0
  6
Continuous
 62
     7
370
    15
100
AcDbLine
 10
57.4230259779
 20
6.7981173292
 30
0.0
 11
56.753935433
 21
9.8681744205
 31
0.0
  0
LINE
  5
82
330
1F
100
AcDbEntity
  8
0
  6
Continuous
 62
     7
370
    15
100
AcDbLine
 10
56.753935433
 20
9.8681744205
 30
0.0
 11
57.0611319475
 21
9.9349562715
 31
0.0
  0
LINE
  5
83
330
1F
100
AcDbEntity
  8
0
  6
Continuous
 62
     7
370
    15
100
AcDbLine
 10
57.0611319475
 20
9.9349562715
 30
0.0
 11
57.7302224923
 21
6.8648991801
 31
0.0
  0
LINE
  5
84
330
1F
100
AcDbEntity
  8
0
  6
Continuous
 62
     7
370
    15
100
AcDbLine
 10
58.6847979258
 20
7.0726597156
 30
0.0
 11
58.3776014113
 21
7.0058778647
 31
0.0
  0
LINE
  5
85
330
1F
100
AcDbEntity
  8
0
  6
Continuous
 62
     7
370
    15
100
AcDbLine
 10
58.3776014113
 20
7.0058778647
 30
0.0
 11
57.7085108665
 21
10.075934956
 31
0.0
  0
LINE
  5
86
330
1F
100
AcDbEntity
  8
0
  6
Continuous
 62
     7
370
    15
100
AcDbLine
 10
57.7085108665
 20
10.075934956
 30
0.0
 11
58.0157073809
 21
10.142716807
 31
0.0
  0
LINE
  5
87
330
1F
100
AcDbEntity
  8
0
  6
Continuous
 62
     7
370
    15
100
AcDbLine
 10
58.0157073809
 20
10.142716807
 30
0.0
 11
58.6847979258
 21
7.0726597156
 31
0.0
  0
SPLINE
  5
88
330
1F
100
AcDbEntity
  8
0
  6
Continuous
 62
     7
370
    15
100
AcDbSpline
210
0.0
220
0.0
230
1.0
 70
     8
 71
     3
 72
    15
 73
    11
 74
     0
 42
0.000000001
 43
0.00000001
 40
0.0
 40
0.0
 40
0.0
 40
0.0
 40
0.1268795783260976
 40
0.248567726425036
 40
0.3715670824097989
 40
0.4986881417417528
 40
0.6265401335278875
 40
0.7496545138731904
 40
0.8727305647093594
 40
1.0
 40
1.0
 40
1.0
 40
1.0
 10
55.60532440172966
 20
6.341468423945462
 30
0.0
 10
55.58798659696195
 20
6.338605886765201
 30
0.0
 10
55.5540203845173
 20
6.332997936549007
 30
0.0
 10
55.50244320649541
 20
6.337394189353908
 30
0.0
 10
55.4526777792034
 20
6.351289581099445
 30
0.0
 10
55.4066037313091
 20
6.376545860119447
 30
0.0
 10
55.36546761075321
 20
6.40911412056486
 30
0.0
 10
55.33183299944449
 20
6.448639492139011
 30
0.0
 10
55.30601094430078
 20
6.493853069767393
 30
0.0
 10
55.29698983622736
 20
6.527336103529678
 30
0.0
 10
55.29240372865274
 20
6.544358047342897
 30
0.0
  0
SPLINE
  5
89
330
1F
100
AcDbEntity
  8
0
  6
Continuous
 62
     7
370
    15
100
AcDbSpline
210
0.0
220
0.0
230
1.0
 70
     8
 71
     3
 72
    15
 73
    11
 74
     0
 42
0.000000001
 43
0.00000001
 40
0.0
 40
0.0
 40
0.0
 40
0.0
 40
0.1297391518437002
 40
0.2526732768656605
 40
0.3754925459375785
 40
0.5017120374672209
 40
0.6284244122905583
 40
0.7513585373125088
 40
0.8729169035687642
 40
1.0
 40
1.0
 40
1.0
 40
1.0
 10
55.29240372865274
 20
6.544358047342897
 30
0.0
 10
55.28962055141504
 20
6.562112798648379
 30
0.0
 10
55.28420017905439
 20
6.596691036046566
 30
0.0
 10
55.28735831005416
 20
6.648985815560827
 30
0.0
 10
55.30176391977847
 20
6.698752749848921
 30
0.0
 10
55.32614084126456
 20
6.744933799720095
 30
0.0
 10
55.35813859396
 20
6.786321404510439
 30
0.0
 10
55.39759684358444
 20
6.819526896497507
 30
0.0
 10
55.4423579201592
 20
6.845742453484429
 30
0.0
 10
55.47570517280956
 20
6.854639437361995
 30
0.0
 10
55.49274928153736
 20
6.859186773304436
 30
0.0
  0
SPLINE
  5
8A
330
1F
100
AcDbEntity
  8
0
  6
Continuous
 62
     7
370
    15
100
AcDbSpline
210
0.0
220
0.0
230
1.0
 70
     8
 71
     3
 72
    15
 73
    11
 74
     0
 42
0.000000001
 43
0.00000001
 40
0.0
 40
0.0
 40
0.0
 40
0.0
 40
0.126712675931473
 40
0.2497703128693872
 40
0.3711337087588846
 40
0.4973719953228176
 40
0.6241032385744739
 40
0.7470556694148744
 40
0.8699698211662917
 40
0.9999999999999999
 40
0.9999999999999999
 40
0.9999999999999999
 40
0.9999999999999999
 10
55.49274928153736
 20
6.859186773304436
 30
0.0
 10
55.51008352147385
 20
6.862028986264975
 30
0.0
 10
55.54425199357394
 20
6.867631428287265
 30
0.0
 10
55.5958931250527
 20
6.863448257674558
 30
0.0
 10
55.64540582580365
 20
6.849109930249201
 30
0.0
 10
55.69142496601098
 20
6.824812580977738
 30
0.0
 10
55.73278439698824
 20
6.79280492183667
 30
0.0
 10
55.76620019021568
 20
6.753258793258572
 30
0.0
 10
55.79233838995551
 20
6.707744667774573
 30
0.0
 10
55.80114352871887
 20
6.673764970308474
 30
0.0
 10
55.80566995461428
 20
6.656297149906999
 30
0.0
  0
SPLINE
  5
8B
330
1F
100
AcDbEntity
  8
0
  6
Continuous
 62
     7
370
    15
100
AcDbSpline
210
0.0
220
0.0
230
1.0
 70
     8
 71
     3
 72
    15
 73
    11
 74
     0
 42
0.000000001
 43
0.00000001
 40
0.0
 40
0.0
 40
0.0
 40
0.0
 40
0.1267316354450032
 40
0.2497024631684192
 40
0.3725584006508784
 40
0.5001783528247884
 40
0.6281390306640817
 40
0.7499464192607667
 40
0.8728789621676504
 40
1.0
 40
1.0
 40
1.0
 40
1.0
 10
55.80566995461428
 20
6.656297149906999
 30
0.0
 10
55.80844234688115
 20
6.638967075029582
 30
0.0
 10
55.81390485965844
 20
6.604821201597194
 30
0.0
 10
55.8107195483032
 20
6.552929824686709
 30
0.0
 10
55.79618301002967
 20
6.503030259720428
 30
0.0
 10
55.77196428691553
 20
6.456370897731237
 30
0.0
 10
55.74013101324942
 20
6.414642044565307
 30
0.0
 10
55.70096192901039
 20
6.380735867126829
 30
0.0
 10
55.6558137246443
 20
6.355096852547171
 30
0.0
 10
55.62234106937465
 20
6.346061681027378
 30
0.0
 10
55.60532440172966
 20
6.341468423945462
 30
0.0
  0
LINE
  5
8C
330
1F
100
AcDbEntity
  8
0
  6
Continuous
 62
     7
370
    15
100
AcDbLine
 10
56.7756470589
 20
6.6571386446
 30
0.0
 11
56.4684505445
 21
6.5903567937
 31
0.0
  0
LINE
  5
8D
330
1F
100
AcDbEntity
  8
0
  6
Continuous
 62
     7
370
    15
100
AcDbLine
 10
56.4684505445
 20
6.5903567937
 30
0.0
 11
55.7993599996
 21
9.660413885
 31
0.0
  0
LINE
  5
8E
330
1F
100
AcDbEntity
  8
0
  6
Continuous
 62
     7
370
    15
100
AcDbLine
 10
55.7993599996
 20
9.660413885
 30
0.0
 11
56.106556514
 21
9.727195736
 31
0.0
  0
LINE
  5
8F
330
1F
100
AcDbEntity
  8
0
  6
Continuous
 62
     7
370
    15
100
AcDbLine
 10
56.106556514
 20
9.727195736
 30
0.0
 11
56.7756470589
 21
6.6571386446
 31
0.0
  0
LINE
  5
90
330
1F
100
AcDbEntity
  8
0
  6
Continuous
 62
     7
370
    15
100
AcDbLine
 10
53.415552513
 20
5.9261606646
 30
0.0
 11
53.1217123688
 21
5.8619228841
 31
0.0
  0
LINE
  5
91
330
1F
100
AcDbEntity
  8
0
  6
Continuous
 62
     7
370
    15
100
AcDbLine
 10
53.1217123688
 20
5.8619228841
 30
0.0
 11
52.435449348
 21
9.0089381085
 31
0.0
  0
LINE
  5
92
330
1F
100
AcDbEntity
  8
0
  6
Continuous
 62
     7
370
    15
100
AcDbLine
 10
52.435449348
 20
9.0089381085
 30
0.0
 11
52.7292894922
 21
9.0731758889
 31
0.0
  0
LINE
  5
93
330
1F
100
AcDbEntity
  8
0
  6
Continuous
 62
     7
370
    15
100
AcDbLine
 10
52.7292894922
 20
9.0731758889
 30
0.0
 11
53.1198043159
 21
7.2827862655
 31
0.0
  0
LINE
  5
94
330
1F
100
AcDbEntity
  8
0
  6
Continuous
 62
     7
370
    15
100
AcDbLine
 10
53.1198043159
 20
7.2827862655
 30
0.0
 11
53.9707959025
 21
8.4257099434
 31
0.0
  0
LINE
  5
95
330
1F
100
AcDbEntity
  8
0
  6
Continuous
 62
     7
370
    15
100
AcDbLine
 10
53.9707959025
 20
8.4257099434
 30
0.0
 11
54.4007438191
 21
8.5192045348
 31
0.0
  0
LINE
  5
96
330
1F
100
AcDbEntity
  8
0
  6
Continuous
 62
     7
370
    15
100
AcDbLine
 10
54.4007438191
 20
8.5192045348
 30
0.0
 11
53.3907478255
 21
7.1644869867
 31
0.0
  0
LINE
  5
97
330
1F
100
AcDbEntity
  8
0
  6
Continuous
 62
     7
370
    15
100
AcDbLine
 10
53.3907478255
 20
7.1644869867
 30
0.0
 11
54.9687075611
 21
6.2645220428
 31
0.0
  0
LINE
  5
98
330
1F
100
AcDbEntity
  8
0
  6
Continuous
 62
     7
370
    15
100
AcDbLine
 10
54.9687075611
 20
6.2645220428
 30
0.0
 11
54.5552961028
 21
6.1742075396
 31
0.0
  0
LINE
  5
99
330
1F
100
AcDbEntity
  8
0
  6
Continuous
 62
     7
370
    15
100
AcDbLine
 10
54.5552961028
 20
6.1742075396
 30
0.0
 11
53.1929463432
 21
6.9469689578
 31
0.0
  0
LINE
  5
9A
330
1F
100
AcDbEntity
  8
0
  6
Continuous
 62
     7
370
    15
100
AcDbLine
 10
53.1929463432
 20
6.9469689578
 30
0.0
 11
53.415552513
 21
5.9261606646
 31
0.0
  0
LINE
  5
9B
330
1F
100
AcDbEntity
  8
0
  6
Continuous
 62
     7
370
    15
100
AcDbLine
 10
67.9424569131
 20
11.1970079618
 30
0.0
 11
66.7779086359
 21
10.9432369281
 31
0.0
  0
LINE
  5
9C
330
1F
100
AcDbEntity
  8
0
  6
Continuous
 62
     7
370
    15
100
AcDbLine
 10
66.7779086359
 20
10.9432369281
 30
0.0
 11
66.7219390846
 21
11.2001880499
 31
0.0
  0
LINE
  5
9D
330
1F
100
AcDbEntity
  8
0
  6
Continuous
 62
     7
370
    15
100
AcDbLine
 10
66.7219390846
 20
11.2001880499
 30
0.0
 11
68.3895773057
 21
11.5639901332
 31
0.0
  0
LINE
  5
9E
330
1F
100
AcDbEntity
  8
0
  6
Continuous
 62
     7
370
    15
100
AcDbLine
 10
68.3895773057
 20
11.5639901332
 30
0.0
 11
67.5417658073
 21
9.2717826012
 31
0.0
  0
LINE
  5
9F
330
1F
100
AcDbEntity
  8
0
  6
Continuous
 62
     7
370
    15
100
AcDbLine
 10
67.5417658073
 20
9.2717826012
 30
0.0
 11
68.7858162881
 21
9.5427261108
 31
0.0
  0
LINE
  5
A0
330
1F
100
AcDbEntity
  8
0
  6
Continuous
 62
     7
370
    15
100
AcDbLine
 10
68.7858162881
 20
9.5427261108
 30
0.0
 11
68.842421857
 21
9.2838669361
 31
0.0
  0
LINE
  5
A1
330
1F
100
AcDbEntity
  8
0
  6
Continuous
 62
     7
370
    15
100
AcDbLine
 10
68.842421857
 20
9.2838669361
 30
0.0
 11
67.09591745
 21
8.9035283945
 31
0.0
  0
LINE
  5
A2
330
1F
100
AcDbEntity
  8
0
  6
Continuous
 62
     7
370
    15
100
AcDbLine
 10
67.09591745
 20
8.9035283945
 30
0.0
 11
67.9424569131
 21
11.1970079618
 31
0.0
  0
SPLINE
  5
A3
330
1F
100
AcDbEntity
  8
0
  6
Continuous
 62
     7
370
    15
100
AcDbSpline
210
0.0
220
0.0
230
1.0
 70
     8
 71
     3
 72
    23
 73
    19
 74
     0
 42
0.000000001
 43
0.00000001
 40
0.0
 40
0.0
 40
0.0
 40
0.0
 40
0.0697793100763704
 40
0.1372573906424261
 40
0.2025868100154425
 40
0.2656610564392175
 40
0.3284690815352381
 40
0.3900021264441349
 40
0.4521678601443578
 40
0.5148831607401113
 40
0.5771891562618588
 40
0.6377027727650703
 40
0.6970663541585786
 40
0.7560637204394332
 40
0.8152393910329846
 40
0.8752819347960515
 40
0.9363698411947512
 40
1.0
 40
1.0
 40
1.0
 40
1.0
 10
69.18183546821386
 20
10.52225391605507
 30
0.0
 10
69.19013346585173
 20
10.49026343879548
 30
0.0
 10
69.20645580412196
 20
10.42733748797635
 30
0.0
 10
69.24093339110995
 20
10.33770932860248
 30
0.0
 10
69.27974370483335
 20
10.25341331456763
 30
0.0
 10
69.32625616961927
 20
10.17558906257981
 30
0.0
 10
69.37873941411712
 20
10.10393320266375
 30
0.0
 10
69.43788456779593
 20
10.03817771581582
 30
0.0
 10
69.50371567623512
 20
9.979250039963723
 30
0.0
 10
69.57450640411302
 20
9.92578285581236
 30
0.0
 10
69.64979828248303
 20
9.88030957899034
 30
0.0
 10
69.72771187732053
 20
9.843023281135455
 30
0.0
 10
69.80776442579734
 20
9.81502912892352
 30
0.0
 10
69.88951099846852
 20
9.795011217881358
 30
0.0
 10
69.97335022625258
 20
9.78415287867842
 30
0.0
 10
70.05878052149633
 20
9.782619368644292
 30
0.0
 10
70.14621298492632
 20
9.788554502166905
 30
0.0
 10
70.20421596765063
 20
9.799750129563597
 30
0.0
 10
70.23380862526516
 20
9.80546204906789
 30
0.0
  0
SPLINE
  5
A4
330
1F
100
AcDbEntity
  8
0
  6
Continuous
 62
     7
370
    15
100
AcDbSpline
210
0.0
220
0.0
230
1.0
 70
     8
 71
     3
 72
    19
 73
    15
 74
     0
 42
0.000000001
 43
0.00000001
 40
0.0
 40
0.0
 40
0.0
 40
0.0
 40
0.0798609343416056
 40
0.1590298035016421
 40
0.2384900323568311
 40
0.319096920736665
 40
0.3982720895560711
 40
0.4748339720325522
 40
0.5478206462321382
 40
0.6195111063516281
 40
0.6958032507061974
 40
0.7842688284204861
 40
0.8858035616593243
 40
1.0
 40
1.0
 40
1.0
 40
1.0
 10
70.23380862526516
 20
9.80546204906789
 30
0.0
 10
70.26238833028307
 20
9.812303301040693
 30
0.0
 10
70.31930007205777
 20
9.825926519525547
 30
0.0
 10
70.40159890375885
 20
9.856685349410673
 30
0.0
 10
70.48162969631215
 20
9.893399764368272
 30
0.0
 10
70.55764357586666
 20
9.937882915994189
 30
0.0
 10
70.62949999604848
 20
9.986922173851926
 30
0.0
 10
70.69402252131502
 20
10.04103269475296
 30
0.0
 10
70.75222462776202
 20
10.09799032926649
 30
0.0
 10
70.80412251722548
 20
10.16074871701767
 30
0.0
 10
70.85101385202908
 20
10.23415389887441
 30
0.0
 10
70.89602941023821
 20
10.32122009714547
 30
0.0
 10
70.9393492264694
 20
10.4244398635603
 30
0.0
 10
70.96583641510692
 20
10.49921071913565
 30
0.0
 10
70.97985730314976
 20
10.5387903743884
 30
0.0
  0
LINE
  5
A5
330
1F
100
AcDbEntity
  8
0
  6
Continuous
 62
     7
370
    15
100
AcDbLine
 10
70.9798573031
 20
10.5387903744
 30
0.0
 11
71.2539809009
 21
10.462468259
 31
0.0
  0
SPLINE
  5
A6
330
1F
100
AcDbEntity
  8
0
  6
Continuous
 62
     7
370
    15
100
AcDbSpline
210
0.0
220
0.0
230
1.0
 70
     8
 71
     3
 72
    19
 73
    15
 74
     0
 42
0.000000001
 43
0.00000001
 40
0.0
 40
0.0
 40
0.0
 40
0.0
 40
0.095112854450806
 40
0.1849367363968288
 40
0.270275160207069
 40
0.3512805833457233
 40
0.4299050745497862
 40
0.507606627781932
 40
0.5847510183402257
 40
0.6627377158452337
 40
0.7423191809605568
 40
0.8242358819255325
 40
0.9102099278503774
 40
1.0
 40
1.0
 40
1.0
 40
1.0
 10
71.25398090090617
 20
10.46246825900379
 30
0.0
 10
71.24193195304652
 20
10.42006321749676
 30
0.0
 10
71.21850406722554
 20
10.33761116589592
 30
0.0
 10
71.1731364538691
 20
10.2206901319194
 30
0.0
 10
71.12056606327509
 20
10.11409751090506
 30
0.0
 10
71.06020153376394
 20
10.01776065696399
 30
0.0
 10
70.99290061358695
 20
9.930590982169345
 30
0.0
 10
70.91882291851024
 20
9.851579123173268
 30
0.0
 10
70.83826808769163
 20
9.779571447130813
 30
0.0
 10
70.74990357744407
 20
9.715923774369575
 30
0.0
 10
70.65425109240705
 20
9.659267347653502
 30
0.0
 10
70.54930269889672
 20
9.61272566851817
 30
0.0
 10
70.43694370111227
 20
9.571794498662001
 30
0.0
 10
70.35763978093756
 20
9.553015924666953
 30
0.0
 10
70.31712693456002
 20
9.543422786247378
 30
0.0
  0
SPLINE
  5
A7
330
1F
100
AcDbEntity
  8
0
  6
Continuous
 62
     7
370
    15
100
AcDbSpline
210
0.0
220
0.0
230
1.0
 70
     8
 71
     3
 72
    23
 73
    19
 74
     0
 42
0.000000001
 43
0.00000001
 40
0.0
 40
0.0
 40
0.0
 40
0.0
 40
0.0720550100461775
 40
0.1406346655785729
 40
0.206341123848353
 40
0.269880836388681
 40
0.3323274932723707
 40
0.3939543625017533
 40
0.4562775022828324
 40
0.5194035426850547
 40
0.5823628286697985
 40
0.6438367851587079
 40
0.7035761731272797
 40
0.7625104162414107
 40
0.8214044869979472
 40
0.8800325420792119
 40
0.9396446501708998
 40
1.0
 40
1.0
 40
1.0
 40
1.0
 10
70.31712693456002
 20
9.543422786247378
 30
0.0
 10
70.27188464142637
 20
9.534741264478422
 30
0.0
 10
70.18358217972688
 20
9.51779694776945
 30
0.0
 10
70.05189470011192
 20
9.506975601913789
 30
0.0
 10
69.92529440598067
 20
9.509326135764722
 30
0.0
 10
69.80353865501873
 20
9.524630603301835
 30
0.0
 10
69.68660061101023
 20
9.55230478928091
 30
0.0
 10
69.57483216179679
 20
9.594302162123817
 30
0.0
 10
69.4682534941974
 20
9.649072560545342
 30
0.0
 10
69.3684645866021
 20
9.716843080449893
 30
0.0
 10
69.27556085283517
 20
9.792762308218563
 30
0.0
 10
69.1909310679001
 20
9.874746995873776
 30
0.0
 10
69.11532582871747
 20
9.961740252985035
 30
0.0
 10
69.04870220783599
 20
10.05377831827821
 30
0.0
 10
68.99143107309622
 20
10.15111771777285
 30
0.0
 10
68.94350373110171
 20
10.2537956826351
 30
0.0
 10
68.90419323511843
 20
10.36118633900873
 30
0.0
 10
68.88622353749786
 20
10.43576181146156
 30
0.0
 10
68.8771830243036
 20
10.47328055868327
 30
0.0
  0
SPLINE
  5
A8
330
1F
100
AcDbEntity
  8
0
  6
Continuous
 62
     7
370
    15
100
AcDbSpline
210
0.0
220
0.0
230
1.0
 70
     8
 71
     3
 72
    15
 73
    11
 74
     0
 42
0.000000001
 43
0.00000001
 40
0.0
 40
0.0
 40
0.0
 40
0.0
 40
0.1284585741711293
 40
0.2540152999176332
 40
0.377511956794494
 40
0.5005792642217864
 40
0.6233731896585151
 40
0.7469877128377655
 40
0.871951949282059
 40
1.0
 40
1.0
 40
1.0
 40
1.0
 10
68.8771830243036
 20
10.47328055868327
 30
0.0
 10
68.87021332195346
 20
10.50901535977062
 30
0.0
 10
68.85643136116
 20
10.57967772134726
 30
0.0
 10
68.84657511256631
 20
10.68633667002051
 30
0.0
 10
68.84511881029802
 20
10.79184736039776
 30
0.0
 10
68.85285144695455
 20
10.8963137016844
 30
0.0
 10
68.86915869605737
 20
10.9998612826058
 30
0.0
 10
68.89586908683033
 20
11.10173037714319
 30
0.0
 10
68.9298657469601
 20
11.20301769651538
 30
0.0
 10
68.95949734271228
 20
11.2683242451892
 30
0.0
 10
68.974493721419
 20
11.30137551060635
 30
0.0
  0
SPLINE
  5
A9
330
1F
100
AcDbEntity
  8
0
  6
Continuous
 62
     7
370
    15
100
AcDbSpline
210
0.0
220
0.0
230
1.0
 70
     8
 71
     3
 72
    15
 73
    11
 74
     0
 42
0.000000001
 43
0.00000001
 40
0.0
 40
0.0
 40
0.0
 40
0.0
 40
0.1287275148238361
 40
0.2533385506134399
 40
0.3749694836447682
 40
0.4953532843040742
 40
0.6167750241119148
 40
0.7400594133659425
 40
0.8668563717777433
 40
1.0
 40
1.0
 40
1.0
 40
1.0
 10
68.974493721419
 20
11.30137551060635
 30
0.0
 10
68.9954338082102
 20
11.34175528354858
 30
0.0
 10
69.03664435472514
 20
11.42122355546606
 30
0.0
 10
69.11305883225808
 20
11.52985671377405
 30
0.0
 10
69.19953745774954
 20
11.62647803004676
 30
0.0
 10
69.29549221733049
 20
11.71216221715333
 30
0.0
 10
69.40246142573069
 20
11.78472093507511
 30
0.0
 10
69.51904153083716
 20
11.84532220050367
 30
0.0
 10
69.64551440297272
 20
11.89445091374171
 30
0.0
 10
69.73466461257667
 20
11.91653912007786
 30
0.0
 10
69.78032805635489
 20
11.9278528743884
 30
0.0
  0
SPLINE
  5
AA
330
1F
100
AcDbEntity
  8
0
  6
Continuous
 62
     7
370
    15
100
AcDbSpline
210
0.0
220
0.0
230
1.0
 70
     8
 71
     3
 72
    15
 73
    11
 74
     0
 42
0.000000001
 43
0.00000001
 40
0.0
 40
0.0
 40
0.0
 40
0.0
 40
0.1331397891241193
 40
0.2606900841065882
 40
0.3840582395583013
 40
0.5049122452572069
 40
0.6255460131102778
 40
0.7471438812429794
 40
0.8714247605225407
 40
1.0
 40
1.0
 40
1.0
 40
1.0
 10
69.78032805635489
 20
11.9278528743884
 30
0.0
 10
69.8278915797179
 20
11.9366672459134
 30
0.0
 10
69.92102180763457
 20
11.9539259427261
 30
0.0
 10
70.06055961386248
 20
11.9629133764549
 30
0.0
 10
70.19566108690809
 20
11.95600878616317
 30
0.0
 10
70.32654458883678
 20
11.93360945849392
 30
0.0
 10
70.45323667581664
 20
11.89593278524931
 30
0.0
 10
70.5754044685644
 20
11.8424967422634
 30
0.0
 10
70.69356837351327
 20
11.77439402043519
 30
0.0
 10
70.76614154609366
 20
11.71801468720889
 30
0.0
 10
70.80304440250875
 20
11.68934626381148
 30
0.0
  0
SPLINE
  5
AB
330
1F
100
AcDbEntity
  8
0
  6
Continuous
 62
     7
370
    15
100
AcDbSpline
210
0.0
220
0.0
230
1.0
 70
     8
 71
     3
 72
    15
 73
    11
 74
     0
 42
0.000000001
 43
0.00000001
 40
0.0
 40
0.0
 40
0.0
 40
0.0
 40
0.1185952297135508
 40
0.2376444568888646
 40
0.3569914863957841
 40
0.4787337403723865
 40
0.6028069737104026
 40
0.7304337418177279
 40
0.8630757147888387
 40
1.0
 40
1.0
 40
1.0
 40
1.0
 10
70.80304440250875
 20
11.68934626381148
 30
0.0
 10
70.82853318150683
 20
11.66736774606257
 30
0.0
 10
70.87960831375614
 20
11.62332657403332
 30
0.0
 10
70.94779114340783
 20
11.54822644225584
 30
0.0
 10
71.01082084447923
 20
11.4677709332434
 30
0.0
 10
71.06677192849486
 20
11.38044546314299
 30
0.0
 10
71.11574719257055
 20
11.2864253203117
 30
0.0
 10
71.1584592573867
 20
11.18606097728254
 30
0.0
 10
71.1947822995095
 20
11.07930538961914
 30
0.0
 10
71.21337301428616
 20
11.005138702811
 30
0.0
 10
71.22281603712412
 20
10.96746625579866
 30
0.0
  0
LINE
  5
AC
330
1F
100
AcDbEntity
  8
0
  6
Continuous
 62
     7
370
    15
100
AcDbLine
 10
71.2228160371
 20
10.9674662558
 30
0.0
 11
69.1818354682
 21
10.5222539161
 31
0.0
  0
LINE
  5
AD
330
1F
100
AcDbEntity
  8
0
  6
Continuous
 62
     7
370
    15
100
AcDbLine
 10
77.4048884661
 20
13.0888315944
 30
0.0
 11
77.3139379453
 21
13.5060591585
 31
0.0
  0
LINE
  5
AE
330
1F
100
AcDbEntity
  8
0
  6
Continuous
 62
     7
370
    15
100
AcDbLine
 10
77.3139379453
 20
13.5060591585
 30
0.0
 11
77.6020539309
 21
13.5690249037
 31
0.0
  0
LINE
  5
AF
330
1F
100
AcDbEntity
  8
0
  6
Continuous
 62
     7
370
    15
100
AcDbLine
 10
77.6020539309
 20
13.5690249037
 30
0.0
 11
78.0968756456
 21
11.298441971
 31
0.0
  0
LINE
  5
B0
330
1F
100
AcDbEntity
  8
0
  6
Continuous
 62
     7
370
    15
100
AcDbLine
 10
78.0968756456
 20
11.298441971
 30
0.0
 11
77.80875966
 21
11.2354762258
 31
0.0
  0
LINE
  5
B1
330
1F
100
AcDbEntity
  8
0
  6
Continuous
 62
     7
370
    15
100
AcDbLine
 10
77.80875966
 20
11.2354762258
 30
0.0
 11
77.7235332978
 21
11.6259910495
 31
0.0
  0
SPLINE
  5
B2
330
1F
100
AcDbEntity
  8
0
  6
Continuous
 62
     7
370
    15
100
AcDbSpline
210
0.0
220
0.0
230
1.0
 70
     8
 71
     3
 72
    15
 73
    11
 74
     0
 42
0.000000001
 43
0.00000001
 40
0.0
 40
0.0
 40
0.0
 40
0.0
 40
0.134134254262705
 40
0.2624563521645796
 40
0.3871371385958385
 40
0.509268246964036
 40
0.6296995118130476
 40
0.750464860659896
 40
0.8731914630380626
 40
1.0
 40
1.0
 40
1.0
 40
1.0
 10
77.72353329783846
 20
11.62599104949561
 30
0.0
 10
77.70042723315625
 20
11.58370797572283
 30
0.0
 10
77.65521631009483
 20
11.50097399131512
 30
0.0
 10
77.5741169598155
 20
11.38771146299103
 30
0.0
 10
77.48498965781249
 20
11.28645826570336
 30
0.0
 10
77.38665139584347
 20
11.19817763823933
 30
0.0
 10
77.27955176711204
 20
11.1231880815579
 30
0.0
 10
77.16423168320138
 20
11.06131835340031
 30
0.0
 10
77.04061331961972
 20
11.01134544448713
 30
0.0
 10
76.95363254404467
 20
10.98958387718404
 30
0.0
 10
76.90943073373589
 20
10.97852510398279
 30
0.0
  0
SPLINE
  5
B3
330
1F
100
AcDbEntity
  8
0
  6
Continuous
 62
     7
370
    15
100
AcDbSpline
210
0.0
220
0.0
230
1.0
 70
     8
 71
     3
 72
    23
 73
    19
 74
     0
 42
0.000000001
 43
0.00000001
 40
0.0
 40
0.0
 40
0.0
 40
0.0
 40
0.0636754210906764
 40
0.125622931615287
 40
0.1860914289558948
 40
0.2463937631599519
 40
0.3064849644646157
 40
0.3675323842973919
 40
0.4299639231276836
 40
0.494499338947438
 40
0.5590131570022165
 40
0.6221796693130643
 40
0.6840830714582642
 40
0.7455871684171154
 40
0.8073174340326518
 40
0.8697489728629434
 40
0.9340767508037165
 40
0.9999999999999999
 40
0.9999999999999999
 40
0.9999999999999999
 40
0.9999999999999999
 10
76.90943073373589
 20
10.97852510398279
 30
0.0
 10
76.86968715054724
 20
10.9709870373488
 30
0.0
 10
76.79127847499335
 20
10.95611545875454
 30
0.0
 10
76.67316425522263
 20
10.94712535931648
 30
0.0
 10
76.55701988932951
 20
10.95120522831059
 30
0.0
 10
76.44302741594478
 20
10.96644728437616
 30
0.0
 10
76.33068527630887
 20
10.99305411033244
 30
0.0
 10
76.22102397883825
 20
11.0331992487538
 30
0.0
 10
76.11294923686215
 20
11.08427157886825
 30
0.0
 10
76.00840910412742
 20
11.14673941311783
 30
0.0
 10
75.90983146223877
 20
11.21894879350011
 30
0.0
 10
75.81903922209179
 20
11.29827034834356
 30
0.0
 10
75.73845040937664
 20
11.38540448867789
 30
0.0
 10
75.6675229629825
 20
11.47936504616843
 30
0.0
 10
75.60599081722411
 20
11.58020327054007
 30
0.0
 10
75.5552866533804
 20
11.68878666470226
 30
0.0
 10
75.51260662326662
 20
11.80371125980856
 30
0.0
 10
75.49326731233651
 20
11.88418805092395
 30
0.0
 10
75.4834792113
 20
11.92491933475202
 30
0.0
  0
SPLINE
  5
B4
330
1F
100
AcDbEntity
  8
0
  6
Continuous
 62
     7
370
    15
100
AcDbSpline
210
0.0
220
0.0
230
1.0
 70
     8
 71
     3
 72
    23
 73
    19
 74
     0
 42
0.000000001
 43
0.00000001
 40
0.0
 40
0.0
 40
0.0
 40
0.0
 40
0.0649259366304374
 40
0.1280734622448942
 40
0.1897213280563992
 40
0.2511695780201036
 40
0.3122800140787211
 40
0.3739315198315274
 40
0.437192658537936
 40
0.5020061692197327
 40
0.5669597500843813
 40
0.6297062218001653
 40
0.6910631070024373
 40
0.7519058141678052
 40
0.8124082536847542
 40
0.8736773005381382
 40
0.935894931064561
 40
0.9999999999999999
 40
0.9999999999999999
 40
0.9999999999999999
 40
0.9999999999999999
 10
75.4834792113
 20
11.92491933475202
 30
0.0
 10
75.47563315051241
 20
11.96529195149601
 30
0.0
 10
75.4601559433714
 20
12.04493132328854
 30
0.0
 10
75.45192522005588
 20
12.16498877711251
 30
0.0
 10
75.4539069034409
 20
12.28303343208337
 30
0.0
 10
75.46912085640649
 20
12.39881624930079
 30
0.0
 10
75.49396213307905
 20
12.51295042969856
 30
0.0
 10
75.53317606124082
 20
12.6242233815678
 30
0.0
 10
75.58267216610896
 20
12.73378401047118
 30
0.0
 10
75.64354880181419
 20
12.83992736287878
 30
0.0
 10
75.71332070762188
 20
12.93999731065741
 30
0.0
 10
75.79045218023897
 20
13.03174058713052
 30
0.0
 10
75.87502816188439
 20
13.11297219575126
 30
0.0
 10
75.96613812100405
 20
13.18450161518214
 30
0.0
 10
76.06427271984285
 20
13.24598421155788
 30
0.0
 10
76.16889076336473
 20
13.29748671077567
 30
0.0
 10
76.28021528201405
 20
13.33960666828642
 30
0.0
 10
76.35797550706201
 20
13.35847049418442
 30
0.0
 10
76.39743654303078
 20
13.36804333314945
 30
0.0
  0
SPLINE
  5
B5
330
1F
100
AcDbEntity
  8
0
  6
Continuous
 62
     7
370
    15
100
AcDbSpline
210
0.0
220
0.0
230
1.0
 70
     8
 71
     3
 72
    15
 73
    11
 74
     0
 42
0.000000001
 43
0.00000001
 40
0.0
 40
0.0
 40
0.0
 40
0.0
 40
0.1284065362397506
 40
0.2523653736243778
 40
0.3730699910683889
 40
0.4930272921212592
 40
0.6140326461777037
 40
0.7378689095060277
 40
0.8658801614444201
 40
1.0
 40
1.0
 40
1.0
 40
1.0
 10
76.39743654303078
 20
13.36804333314945
 30
0.0
 10
76.44329524585872
 20
13.37662911027677
 30
0.0
 10
76.53342421446118
 20
13.39350327350895
 30
0.0
 10
76.66917208634638
 20
13.39848154689203
 30
0.0
 10
76.80145028291354
 20
13.38885100712903
 30
0.0
 10
76.9301857829872
 20
13.36149914272314
 30
0.0
 10
77.05597095881087
 20
13.31900934309085
 30
0.0
 10
77.1771257389731
 20
13.25804229296117
 30
0.0
 10
77.29544884358465
 20
13.18235051555443
 30
0.0
 10
77.36784621982304
 20
13.12048512926657
 30
0.0
 10
77.40488846610768
 20
13.0888315943674
 30
0.0
  0
LINE
  5
B6
330
1F
100
AcDbEntity
  8
0
  6
Continuous
 62
     7
370
    15
100
AcDbLine
 10
88.1291215496
 20
13.481511762
 30
0.0
 11
88.0623396986
 21
13.4668833565
 31
0.0
  0
LINE
  5
B7
330
1F
100
AcDbEntity
  8
0
  6
Continuous
 62
     7
370
    15
100
AcDbLine
 10
88.0623396986
 20
13.4668833565
 30
0.0
 11
86.0766926634
 21
16.2500964976
 31
0.0
  0
LINE
  5
B8
330
1F
100
AcDbEntity
  8
0
  6
Continuous
 62
     7
370
    15
100
AcDbLine
 10
86.0766926634
 20
16.2500964976
 30
0.0
 11
86.4106019182
 21
16.3226025072
 31
0.0
  0
LINE
  5
B9
330
1F
100
AcDbEntity
  8
0
  6
Continuous
 62
     7
370
    15
100
AcDbLine
 10
86.4106019182
 20
16.3226025072
 30
0.0
 11
87.9440404198
 21
14.1715908886
 31
0.0
  0
LINE
  5
BA
330
1F
100
AcDbEntity
  8
0
  6
Continuous
 62
     7
370
    15
100
AcDbLine
 10
87.9440404198
 20
14.1715908886
 30
0.0
 11
88.4617587692
 21
16.7697228998
 31
0.0
  0
LINE
  5
BB
330
1F
100
AcDbEntity
  8
0
  6
Continuous
 62
     7
370
    15
100
AcDbLine
 10
88.4617587692
 20
16.7697228998
 30
0.0
 11
88.795668024
 21
16.8428649271
 31
0.0
  0
LINE
  5
BC
330
1F
100
AcDbEntity
  8
0
  6
Continuous
 62
     7
370
    15
100
AcDbLine
 10
88.795668024
 20
16.8428649271
 30
0.0
 11
88.1291215496
 21
13.481511762
 31
0.0
  0
SPLINE
  5
BD
330
1F
100
AcDbEntity
  8
0
  6
Continuous
 62
     7
370
    15
100
AcDbSpline
210
0.0
220
0.0
230
1.0
 70
     8
 71
     3
 72
    23
 73
    19
 74
     0
 42
0.000000001
 43
0.00000001
 40
0.0
 40
0.0
 40
0.0
 40
0.0
 40
0.0623276472039614
 40
0.1228350933000261
 40
0.182201166294442
 40
0.2416546158102742
 40
0.3014717934488403
 40
0.3617520787302367
 40
0.424046997855018
 40
0.4889022825441571
 40
0.5537832892817796
 40
0.6170321719291783
 40
0.679807361661784
 40
0.7420278347656565
 40
0.8045663147950332
 40
0.8678972171468611
 40
0.9326266024617231
 40
1.0
 40
1.0
 40
1.0
 40
1.0
 10
91.01583598303537
 20
16.43862385040838
 30
0.0
 10
91.01077747985705
 20
16.4597454419722
 30
0.0
 10
91.00080820076914
 20
16.50137179539281
 30
0.0
 10
90.97818009577976
 20
16.56081723769479
 30
0.0
 10
90.9500407193446
 20
16.61668045779784
 30
0.0
 10
90.91598529230656
 20
16.66883272748727
 30
0.0
 10
90.87745744297956
 20
16.71822066965532
 30
0.0
 10
90.83214471719673
 20
16.76291893839701
 30
0.0
 10
90.78167089274717
 20
16.80439818887059
 30
0.0
 10
90.72631581015449
 20
16.84205323015054
 30
0.0
 10
90.6676423746497
 20
16.87498351784866
 30
0.0
 10
90.60678979646012
 20
16.9019451400487
 30
0.0
 10
90.54442403858648
 20
16.92258079453298
 30
0.0
 10
90.48033449510277
 20
16.93552241815683
 30
0.0
 10
90.41524261177877
 20
16.94375711616116
 30
0.0
 10
90.34878254015283
 20
16.94368202300889
 30
0.0
 10
90.28075719579914
 20
16.93925736030851
 30
0.0
 10
90.2355842536402
 20
16.93035408828064
 30
0.0
 10
90.2125457186123
 20
16.92581335361351
 30
0.0
  0
SPLINE
  5
BE
330
1F
100
AcDbEntity
  8
0
  6
Continuous
 62
     7
370
    15
100
AcDbSpline
210
0.0
220
0.0
230
1.0
 70
     8
 71
     3
 72
    23
 73
    19
 74
     0
 42
0.000000001
 43
0.00000001
 40
0.0
 40
0.0
 40
0.0
 40
0.0
 40
0.0627141158353626
 40
0.1236202000552271
 40
0.1821753176858763
 40
0.2399685590055934
 40
0.2975183097679747
 40
0.3545369306947374
 40
0.4127965285448171
 40
0.4722170824067245
 40
0.5325294647452152
 40
0.5928297193599521
 40
0.6545872446204417
 40
0.7182412796251026
 40
0.7841887461581848
 40
0.85239328403877
 40
0.9243811620583736
 40
1.0
 40
1.0
 40
1.0
 40
1.0
 10
90.2125457186123
 20
16.92581335361351
 30
0.0
 10
90.18868111334889
 20
16.91986083851996
 30
0.0
 10
90.14163991317241
 20
16.90812741779171
 30
0.0
 10
90.07437716942975
 20
16.88383347765554
 30
0.0
 10
90.01112744226512
 20
16.85473975974283
 30
0.0
 10
89.95325660354973
 20
16.81848217804331
 30
0.0
 10
89.89893848951503
 20
16.77813405316338
 30
0.0
 10
89.84957866287232
 20
16.73155183625805
 30
0.0
 10
89.80413588164882
 20
16.68016421621248
 30
0.0
 10
89.76435661181264
 20
16.62267835517434
 30
0.0
 10
89.72942905833946
 20
16.56127670991927
 30
0.0
 10
89.70020176341063
 20
16.49585297163985
 30
0.0
 10
89.67909328659354
 20
16.42604912167091
 30
0.0
 10
89.66294377015384
 20
16.35272292435829
 30
0.0
 10
89.65359708566048
 20
16.27563404114336
 30
0.0
 10
89.65056192099621
 20
16.19482478212672
 30
0.0
 10
89.65363161558072
 20
16.11018025315111
 30
0.0
 10
89.66068505171643
 20
16.05273401488823
 30
0.0
 10
89.66429852309949
 20
16.02330433919043
 30
0.0
  0
LINE
  5
BF
330
1F
100
AcDbEntity
  8
0
  6
Continuous
 62
     7
370
    15
100
AcDbLine
 10
89.6642985231
 20
16.0233043392
 30
0.0
 11
89.3698223612
 21
15.9590665587
 31
0.0
  0
SPLINE
  5
C0
330
1F
100
AcDbEntity
  8
0
  6
Continuous
 62
     7
370
    15
100
AcDbSpline
210
0.0
220
0.0
230
1.0
 70
     8
 71
     3
 72
    23
 73
    19
 74
     0
 42
0.000000001
 43
0.00000001
 40
0.0
 40
0.0
 40
0.0
 40
0.0
 40
0.0684600283866613
 40
0.134796198982386
 40
0.1987209687501284
 40
0.2611846925933823
 40
0.3228236091818247
 40
0.3844197473683485
 40
0.4460824169120409
 40
0.5088315035705041
 40
0.5714684714616276
 40
0.6322352560930475
 40
0.6923283681129414
 40
0.7521050730182538
 40
0.8120236958017596
 40
0.8727832504522297
 40
0.9354903160650205
 40
0.9999999999999999
 40
0.9999999999999999
 40
0.9999999999999999
 40
0.9999999999999999
 10
89.3698223612405
 20
15.95906655874171
 30
0.0
 10
89.36365292726742
 20
15.99651044928183
 30
0.0
 10
89.35150545568375
 20
16.07023659633238
 30
0.0
 10
89.34486714485872
 20
16.18031750331893
 30
0.0
 10
89.34700432916392
 20
16.28718766020842
 30
0.0
 10
89.35963444996685
 20
16.39081238291208
 30
0.0
 10
89.38311961740425
 20
16.49111943615971
 30
0.0
 10
89.4144543326287
 20
16.58880329324954
 30
0.0
 10
89.45690624450755
 20
16.68296361278644
 30
0.0
 10
89.50920770477926
 20
16.77256445955325
 30
0.0
 10
89.56803550211784
 20
16.85746163670783
 30
0.0
 10
89.63492028601874
 20
16.93427294948875
 30
0.0
 10
89.70754925689972
 20
17.00332797985316
 30
0.0
 10
89.78666020657272
 20
17.0642201039208
 30
0.0
 10
89.87264225661283
 20
17.11557623114704
 30
0.0
 10
89.96415499623043
 20
17.15998515191987
 30
0.0
 10
90.06223168298283
 20
17.19573786895118
 30
0.0
 10
90.13074058773975
 20
17.21245070663138
 30
0.0
 10
90.16548041412511
 20
17.22092553310069
 30
0.0
  0
SPLINE
  5
C1
330
1F
100
AcDbEntity
  8
0
  6
Continuous
 62
     7
370
    15
100
AcDbSpline
210
0.0
220
0.0
230
1.0
 70
     8
 71
     3
 72
    23
 73
    19
 74
     0
 42
0.000000001
 43
0.00000001
 40
0.0
 40
0.0
 40
0.0
 40
0.0
 40
0.0702226140045979
 40
0.1374879230581203
 40
0.2024226659630896
 40
0.2656554023581092
 40
0.3278534416113976
 40
0.3897218955699822
 40
0.452155304656379
 40
0.5155004049541452
 40
0.5788342778324106
 40
0.6397616568168031
 40
0.699725783599869
 40
0.7590100703577192
 40
0.8178745308757029
 40
0.877463915372459
 40
0.9380195772403612
 40
0.9999999999999999
 40
0.9999999999999999
 40
0.9999999999999999
 40
0.9999999999999999
 10
90.16548041412511
 20
17.22092553310069
 30
0.0
 10
90.20014489946747
 20
17.22779755643559
 30
0.0
 10
90.26801403480452
 20
17.24125219962876
 30
0.0
 10
90.36970632297076
 20
17.24880560254402
 30
0.0
 10
90.46809813733907
 20
17.24893598272073
 30
0.0
 10
90.56339372109265
 20
17.2378670066083
 30
0.0
 10
90.65548428551278
 20
17.21747605540844
 30
0.0
 10
90.74459593767631
 20
17.18758575606905
 30
0.0
 10
90.82995621387754
 20
17.14695893728916
 30
0.0
 10
90.9117439315196
 20
17.09819860552609
 30
0.0
 10
90.98781211463235
 20
17.04216478052622
 30
0.0
 10
91.05716383560211
 20
16.980580570574
 30
0.0
 10
91.11920941131572
 20
16.91436660670624
 30
0.0
 10
91.17340483646191
 20
16.8428633961132
 30
0.0
 10
91.22009970962702
 20
16.76651662203069
 30
0.0
 10
91.25988517969363
 20
16.68561493408588
 30
0.0
 10
91.2910475867361
 20
16.59928141666504
 30
0.0
 10
91.30595291481384
 20
16.53947347811984
 30
0.0
 10
91.31349223303538
 20
16.50922180713915
 30
0.0
  0
SPLINE
  5
C2
330
1F
100
AcDbEntity
  8
0
  6
Continuous
 62
     7
370
    15
100
AcDbSpline
210
0.0
220
0.0
230
1.0
 70
     8
 71
     3
 72
    19
 73
    15
 74
     0
 42
0.000000001
 43
0.00000001
 40
0.0
 40
0.0
 40
0.0
 40
0.0
 40
0.0987787919030796
 40
0.1964064883531206
 40
0.293556032309206
 40
0.3926586141432937
 40
0.4460574218652067
 40
0.5054049506323689
 40
0.5716090457280555
 40
0.6439427514787762
 40
0.723096563318584
 40
0.808694988769696
 40
0.9009701785975374
 40
0.9999999999999999
 40
0.9999999999999999
 40
0.9999999999999999
 40
0.9999999999999999
 10
91.31349223303539
 20
16.50922180713915
 30
0.0
 10
91.3214141382373
 20
16.46611544996912
 30
0.0
 10
91.33716563257931
 20
16.38040506543872
 30
0.0
 10
91.34053980460806
 20
16.24976713209514
 30
0.0
 10
91.32659494082802
 20
16.12001970127244
 30
0.0
 10
91.3023777743159
 20
16.01171525947055
 30
0.0
 10
91.27229919268228
 20
15.9227299977787
 30
0.0
 10
91.24436769885148
 20
15.84847565238653
 30
0.0
 10
91.20899743624945
 20
15.76819021804179
 30
0.0
 10
91.16821752013242
 20
15.68075140602501
 30
0.0
 10
91.12120363392074
 20
15.58675908254239
 30
0.0
 10
91.0673245981955
 20
15.48639035013913
 30
0.0
 10
91.00861520074046
 20
15.37860906882834
 30
0.0
 10
90.96559800217544
 20
15.30553993356631
 30
0.0
 10
90.94332997341999
 20
15.26771539688274
 30
0.0
  0
LINE
  5
C3
330
1F
100
AcDbEntity
  8
0
  6
Continuous
 62
     7
370
    15
100
AcDbLine
 10
90.9433299734
 20
15.2677153969
 30
0.0
 11
90.3588297731
 21
14.2774359498
 31
0.0
  0
LINE
  5
C4
330
1F
100
AcDbEntity
  8
0
  6
Continuous
 62
     7
370
    15
100
AcDbLine
 10
90.3588297731
 20
14.2774359498
 30
0.0
 11
91.7758770487
 21
14.5859044994
 31
0.0
  0
LINE
  5
C5
330
1F
100
AcDbEntity
  8
0
  6
Continuous
 62
     7
370
    15
100
AcDbLine
 10
91.7758770487
 20
14.5859044994
 30
0.0
 11
91.8407508468
 21
14.2895202847
 31
0.0
  0
LINE
  5
C6
330
1F
100
AcDbEntity
  8
0
  6
Continuous
 62
     7
370
    15
100
AcDbLine
 10
91.8407508468
 20
14.2895202847
 30
0.0
 11
89.7558850616
 21
13.8354036982
 31
0.0
  0
LINE
  5
C7
330
1F
100
AcDbEntity
  8
0
  6
Continuous
 62
     7
370
    15
100
AcDbLine
 10
89.7558850616
 20
13.8354036982
 30
0.0
 11
90.6526699173
 21
15.3580299001
 31
0.0
  0
SPLINE
  5
C8
330
1F
100
AcDbEntity
  8
0
  6
Continuous
 62
     7
370
    15
100
AcDbSpline
210
0.0
220
0.0
230
1.0
 70
     8
 71
     3
 72
    19
 73
    15
 74
     0
 42
0.000000001
 43
0.00000001
 40
0.0
 40
0.0
 40
0.0
 40
0.0
 40
0.1097478766988653
 40
0.2113902529713585
 40
0.3044100706915127
 40
0.3886243258389498
 40
0.4645480455292842
 40
0.5320074632583837
 40
0.5910252831176542
 40
0.6417932816575581
 40
0.7339111219956229
 40
0.8232700759378726
 40
0.9114264589743662
 40
0.9999999999999999
 40
0.9999999999999999
 40
0.9999999999999999
 40
0.9999999999999999
 10
90.65266991733024
 20
15.35802990008787
 30
0.0
 10
90.67433760593788
 20
15.39489317504776
 30
0.0
 10
90.71607270199482
 20
15.46589716394956
 30
0.0
 10
90.77548221641123
 20
15.56855830533963
 30
0.0
 10
90.82743008866835
 20
15.66400392637996
 30
0.0
 10
90.87342799505836
 20
15.7512531523152
 30
0.0
 10
90.91326927977447
 20
15.83050744393486
 30
0.0
 10
90.94528747564405
 20
15.90257965595266
 30
0.0
 10
90.97277054472988
 20
15.96596758108238
 30
0.0
 10
90.99881453903718
 20
16.04024162594837
 30
0.0
 10
91.02180185583501
 20
16.12802155309562
 30
0.0
 10
91.03451870611059
 20
16.23255647470775
 30
0.0
 10
91.0340368036783
 20
16.33670785482053
 30
0.0
 10
91.02191246278805
 20
16.40459843497183
 30
0.0
 10
91.01583598303537
 20
16.43862385040838
 30
0.0
  0
LINE
  5
C9
330
1F
100
AcDbEntity
  8
0
  6
Continuous
 62
     7
370
    15
100
AcDbLine
 10
49.2069853405
 20
7.3270110357
 30
0.0
 11
49.3901584175
 21
5.0500679267
 31
0.0
  0
LINE
  5
CA
330
1F
100
AcDbEntity
  8
0
  6
Continuous
 62
     7
370
    15
100
AcDbLine
 10
49.3901584175
 20
5.0500679267
 30
0.0
 11
49.0944102203
 21
4.9851941287
 31
0.0
  0
LINE
  5
CB
330
1F
100
AcDbEntity
  8
0
  6
Continuous
 62
     7
370
    15
100
AcDbLine
 10
49.0944102203
 20
4.9851941287
 30
0.0
 11
48.8609917508
 21
8.1506538642
 31
0.0
  0
LINE
  5
CC
330
1F
100
AcDbEntity
  8
0
  6
Continuous
 62
     7
370
    15
100
AcDbLine
 10
48.8609917508
 20
8.1506538642
 30
0.0
 11
48.9112371434
 21
8.1614661639
 31
0.0
  0
LINE
  5
CD
330
1F
100
AcDbEntity
  8
0
  6
Continuous
 62
     7
370
    15
100
AcDbLine
 10
48.9112371434
 20
8.1614661639
 30
0.0
 11
50.7079869431
 21
5.9137798658
 31
0.0
  0
LINE
  5
CE
330
1F
100
AcDbEntity
  8
0
  6
Continuous
 62
     7
370
    15
100
AcDbLine
 10
50.7079869431
 20
5.9137798658
 30
0.0
 11
51.3948859816
 21
8.7027171655
 31
0.0
  0
LINE
  5
CF
330
1F
100
AcDbEntity
  8
0
  6
Continuous
 62
     7
370
    15
100
AcDbLine
 10
51.3948859816
 20
8.7027171655
 30
0.0
 11
51.4444953566
 21
8.7135294652
 31
0.0
  0
LINE
  5
D0
330
1F
100
AcDbEntity
  8
0
  6
Continuous
 62
     7
370
    15
100
AcDbLine
 10
51.4444953566
 20
8.7135294652
 30
0.0
 11
52.5543461178
 21
5.7395110357
 31
0.0
  0
LINE
  5
D1
330
1F
100
AcDbEntity
  8
0
  6
Continuous
 62
     7
370
    15
100
AcDbLine
 10
52.5543461178
 20
5.7395110357
 30
0.0
 11
52.2516017268
 21
5.6733652024
 31
0.0
  0
LINE
  5
D2
330
1F
100
AcDbEntity
  8
0
  6
Continuous
 62
     7
370
    15
100
AcDbLine
 10
52.2516017268
 20
5.6733652024
 30
0.0
 11
51.4724801322
 21
7.8033882392
 31
0.0
  0
LINE
  5
D3
330
1F
100
AcDbEntity
  8
0
  6
Continuous
 62
     7
370
    15
100
AcDbLine
 10
51.4724801322
 20
7.8033882392
 30
0.0
 11
50.8657193149
 21
5.371256829
 31
0.0
  0
LINE
  5
D4
330
1F
100
AcDbEntity
  8
0
  6
Continuous
 62
     7
370
    15
100
AcDbLine
 10
50.8657193149
 20
5.371256829
 30
0.0
 11
50.7887611819
 21
5.3547203706
 31
0.0
  0
LINE
  5
D5
330
1F
100
AcDbEntity
  8
0
  6
Continuous
 62
     7
370
    15
100
AcDbLine
 10
50.7887611819
 20
5.3547203706
 30
0.0
 11
49.2069853405
 21
7.3270110357
 31
0.0
  0
LINE
  5
D6
330
1F
100
AcDbEntity
  8
0
  6
Continuous
 62
     7
370
    15
100
AcDbLine
 10
90.6126836963
 20
12.4152284255
 30
0.0
 11
93.9349068583
 21
13.1383005255
 31
0.0
  0
LINE
  5
D7
330
1F
100
AcDbEntity
  8
0
  6
Continuous
 62
     7
370
    15
100
AcDbLine
 10
93.9349068583
 20
13.1383005255
 30
0.0
 11
94.7855799171
 21
9.2298026878
 31
0.0
  0
LINE
  5
D8
330
1F
100
AcDbEntity
  8
0
  6
Continuous
 62
     7
370
    15
100
AcDbLine
 10
170.0
 20
25.6
 30
0.0
 11
94.7855799171
 21
9.2298026878
 31
0.0
  0
LINE
  5
D9
330
1F
100
AcDbEntity
  8
0
  6
Continuous
 62
     7
370
    15
100
AcDbLine
 10
190.0
 20
25.6
 30
0.0
 11
170.0
 21
25.6
 31
0.0
  0
LINE
  5
DA
330
1F
100
AcDbEntity
  8
0
  6
Continuous
 62
     7
370
    15
100
AcDbLine
 10
190.0
 20
29.6
 30
0.0
 11
190.0
 21
25.6
 31
0.0
  0
LINE
  5
DB
330
1F
100
AcDbEntity
  8
0
  6
Continuous
 62
     7
370
    15
100
AcDbLine
 10
180.0
 20
29.6
 30
0.0
 11
190.0
 21
29.6
 31
0.0
  0
LINE
  5
DC
330
1F
100
AcDbEntity
  8
0
  6
Continuous
 62
     7
370
    15
100
AcDbLine
 10
180.0
 20
33.0
 30
0.0
 11
180.0
 21
29.6
 31
0.0
  0
LINE
  5
DD
330
1F
100
AcDbEntity
  8
0
  6
Continuous
 62
     7
370
    15
100
AcDbLine
 10
190.0
 20
33.0
 30
0.0
 11
180.0
 21
33.0
 31
0.0
  0
LINE
  5
DE
330
1F
100
AcDbEntity
  8
0
  6
Continuous
 62
     7
370
    15
100
AcDbLine
 10
190.0
 20
37.0
 30
0.0
 11
190.0
 21
33.0
 31
0.0
  0
LINE
  5
DF
330
1F
100
AcDbEntity
  8
0
  6
Continuous
 62
     7
370
    15
100
AcDbLine
 10
170.0
 20
37.0
 30
0.0
 11
190.0
 21
37.0
 31
0.0
  0
LINE
  5
E0
330
1F
100
AcDbEntity
  8
0
  6
Continuous
 62
     7
370
    15
100
AcDbLine
 10
0.0
 20
0.0
 30
0.0
 11
170.0
 21
37.0
 31
0.0
  0
LINE
  5
E1
330
1F
100
AcDbEntity
  8
0
  6
Continuous
 62
     7
370
    15
100
AcDbLine
 10
52.3783783784
 20
0.0
 30
0.0
 11
0.0
 21
0.0
 31
0.0
  0
LINE
  5
E2
330
1F
100
AcDbEntity
  8
0
  6
Continuous
 62
     7
370
    15
100
AcDbLine
 10
91.4633567551
 20
8.5067305879
 30
0.0
 11
52.3783783784
 21
0.0
 31
0.0
  0
LINE
  5
E3
330
1F
100
AcDbEntity
  8
0
  6
Continuous
 62
     7
370
    15
100
AcDbLine
 10
91.4633567551
 20
8.5067305879
 30
0.0
 11
90.6126836963
 21
12.4152284255
 31
0.0
  0
LINE
  5
E4
330
1F
100
AcDbEntity
  8
0
  6
Continuous
 62
     7
370
    15
100
AcDbLine
 10
83.2707479967
 20
11.5540476386
 30
0.0
 11
82.9800879406
 21
11.4904458757
 31
0.0
  0
LINE
  5
E5
330
1F
100
AcDbEntity
  8
0
  6
Continuous
 62
     7
370
    15
100
AcDbLine
 10
82.9800879406
 20
11.4904458757
 30
0.0
 11
82.3040012019
 21
14.5916678309
 31
0.0
  0
LINE
  5
E6
330
1F
100
AcDbEntity
  8
0
  6
Continuous
 62
     7
370
    15
100
AcDbLine
 10
82.3040012019
 20
14.5916678309
 30
0.0
 11
82.5946612579
 21
14.6552695937
 31
0.0
  0
LINE
  5
E7
330
1F
100
AcDbEntity
  8
0
  6
Continuous
 62
     7
370
    15
100
AcDbLine
 10
82.5946612579
 20
14.6552695937
 30
0.0
 11
82.6856117788
 21
14.2380420296
 31
0.0
  0
SPLINE
  5
E8
330
1F
100
AcDbEntity
  8
0
  6
Continuous
 62
     7
370
    15
100
AcDbSpline
210
0.0
220
0.0
230
1.0
 70
     8
 71
     3
 72
    15
 73
    11
 74
     0
 42
0.000000001
 43
0.00000001
 40
0.0
 40
0.0
 40
0.0
 40
0.0
 40
0.1349601194311565
 40
0.2635411383421794
 40
0.3871885959808301
 40
0.5082045822973141
 40
0.6281031407508956
 40
0.7490495902857895
 40
0.872336897458004
 40
1.0
 40
1.0
 40
1.0
 40
1.0
 10
82.68561177878152
 20
14.23804202958624
 30
0.0
 10
82.70652453457647
 20
14.28220246247816
 30
0.0
 10
82.74736157214959
 20
14.36843601653156
 30
0.0
 10
82.8228852312517
 20
14.48693979648641
 30
0.0
 10
82.90892303281
 20
14.59135413623133
 30
0.0
 10
83.00385983702687
 20
14.68345384315237
 30
0.0
 10
83.11008115448973
 20
14.76064511362911
 30
0.0
 10
83.22510743834333
 20
14.82540523608837
 30
0.0
 10
83.35017896977081
 20
14.87635405827603
 30
0.0
 10
83.43833253818595
 20
14.8984407416962
 30
0.0
 10
83.48317788455074
 20
14.90967664497085
 30
0.0
  0
SPLINE
  5
E9
330
1F
100
AcDbEntity
  8
0
  6
Continuous
 62
     7
370
    15
100
AcDbSpline
210
0.0
220
0.0
230
1.0
 70
     8
 71
     3
 72
    23
 73
    19
 74
     0
 42
0.000000001
 43
0.00000001
 40
0.0
 40
0.0
 40
0.0
 40
0.0
 40
0.0642043273282051
 40
0.1263451381954867
 40
0.1876617723279486
 40
0.2481522732842503
 40
0.3087567229538962
 40
0.37019764274867
 40
0.4331268885831275
 40
0.4979814117028211
 40
0.563043176923279
 40
0.6259661830047512
 40
0.6875730339737834
 40
0.7489399610045735
 40
0.8102913473598623
 40
0.8720109948312191
 40
0.9351662375252573
 40
0.9999999999999999
 40
0.9999999999999999
 40
0.9999999999999999
 40
0.9999999999999999
 10
83.48317788455074
 20
14.90967664497085
 30
0.0
 10
83.52313483857044
 20
14.91723408010402
 30
0.0
 10
83.60176453671656
 20
14.93210605565519
 30
0.0
 10
83.72048937545976
 20
14.9408528099414
 30
0.0
 10
83.83708627247896
 20
14.93791263961416
 30
0.0
 10
83.9517033768309
 20
14.92231432219799
 30
0.0
 10
84.06431496243903
 20
14.89561963624695
 30
0.0
 10
84.1749094169273
 20
14.85648585052102
 30
0.0
 10
84.28329107743484
 20
14.8050967666281
 30
0.0
 10
84.38871660203375
 20
14.74325393089403
 30
0.0
 10
84.48813262672587
 20
14.67216649642537
 30
0.0
 10
84.57928511179415
 20
14.59379210039743
 30
0.0
 10
84.65978757659909
 20
14.50770586507502
 30
0.0
 10
84.73152889341475
 20
14.41545966528703
 30
0.0
 10
84.79272104810022
 20
14.31574655358243
 30
0.0
 10
84.84373661664118
 20
14.20930953617336
 30
0.0
 10
84.88555808320586
 20
14.0964741437299
 30
0.0
 10
84.90500339922622
 20
14.01777595842794
 30
0.0
 10
84.91485356564048
 20
13.97791081965034
 30
0.0
  0
SPLINE
  5
EA
330
1F
100
AcDbEntity
  8
0
  6
Continuous
 62
     7
370
    15
100
AcDbSpline
210
0.0
220
0.0
230
1.0
 70
     8
 71
     3
 72
    23
 73
    19
 74
     0
 42
0.000000001
 43
0.00000001
 40
0.0
 40
0.0
 40
0.0
 40
0.0
 40
0.0661169266194588
 40
0.1301115414804772
 40
0.1929156472284984
 40
0.2544817763905282
 40
0.3160723654963908
 40
0.3779701414909372
 40
0.4412212193929446
 40
0.5056874397821116
 40
0.5700783314391051
 40
0.632433155730894
 40
0.6933772738625371
 40
0.7535244014669945
 40
0.8138567400644109
 40
0.8743552837662486
 40
0.9363979911615017
 40
1.0
 40
1.0
 40
1.0
 40
1.0
 10
84.91485356564048
 20
13.97791081965034
 30
0.0
 10
84.92290738677977
 20
13.93669199616499
 30
0.0
 10
84.93875650646548
 20
13.85557744750247
 30
0.0
 10
84.9476894085405
 20
13.73320226521248
 30
0.0
 10
84.94634470107653
 20
13.61348608164371
 30
0.0
 10
84.93196786596445
 20
13.49610356750994
 30
0.0
 10
84.90652685745968
 20
13.3812561225938
 30
0.0
 10
84.86935388658272
 20
13.26849692010769
 30
0.0
 10
84.82024294449951
 20
13.15839334631407
 30
0.0
 10
84.75979821428292
 20
13.05231997588734
 30
0.0
 10
84.69144627241874
 20
12.95185678450785
 30
0.0
 10
84.61487990724858
 20
12.86028610487897
 30
0.0
 10
84.5309741079988
 20
12.77931428050105
 30
0.0
 10
84.44099793371565
 20
12.70708493490203
 30
0.0
 10
84.34315803076758
 20
12.64646628500189
 30
0.0
 10
84.23937507542948
 20
12.59417287558596
 30
0.0
 10
84.12844815214606
 20
12.55257433222339
 30
0.0
 10
84.05094236576475
 20
12.53358634132377
 30
0.0
 10
84.0117085335892
 20
12.52397452157341
 30
0.0
  0
SPLINE
  5
EB
330
1F
100
AcDbEntity
  8
0
  6
Continuous
 62
     7
370
    15
100
AcDbSpline
210
0.0
220
0.0
230
1.0
 70
     8
 71
     3
 72
    15
 73
    11
 74
     0
 42
0.000000001
 43
0.00000001
 40
0.0
 40
0.0
 40
0.0
 40
0.0
 40
0.1264142543669077
 40
0.2496160569562703
 40
0.3705637898370266
 40
0.4908690932391669
 40
0.6124630546527083
 40
0.7366604206959508
 40
0.865710971120273
 40
1.0
 40
1.0
 40
1.0
 40
1.0
 10
84.0117085335892
 20
12.52397452157341
 30
0.0
 10
83.96711027582589
 20
12.51578476972834
 30
0.0
 10
83.87904709572213
 20
12.49961338483781
 30
0.0
 10
83.74597030747553
 20
12.49265065083067
 30
0.0
 10
83.61541753259733
 20
12.50189714428627
 30
0.0
 10
83.48712910501408
 20
12.52513282400838
 30
0.0
 10
83.36186043122572
 20
12.56534389007879
 30
0.0
 10
83.23892928048386
 20
12.62001151499662
 30
0.0
 10
83.11800822570466
 20
12.68913809829032
 30
0.0
 10
83.0426733481999
 20
12.74613574762428
 30
0.0
 10
83.00425661051229
 20
12.77520148471444
 30
0.0
  0
LINE
  5
EC
330
1F
100
AcDbEntity
  8
0
  6
Continuous
 62
     7
370
    15
100
AcDbLine
 10
83.0042566105
 20
12.7752014847
 30
0.0
 11
83.2707479967
 21
11.5540476386
 31
0.0
  0
LINE
  5
ED
330
1F
100
AcDbEntity
  8
0
  6
Continuous
 62
     7
370
    15
100
AcDbLine
 10
79.0659511807
 20
11.5084530212
 30
0.0
 11
78.7759271423
 21
11.445487276
 31
0.0
  0
LINE
  5
EE
330
1F
100
AcDbEntity
  8
0
  6
Continuous
 62
     7
370
    15
100
AcDbLine
 10
78.7759271423
 20
11.445487276
 30
0.0
 11
78.2811054275
 21
13.7160702087
 31
0.0
  0
LINE
  5
EF
330
1F
100
AcDbEntity
  8
0
  6
Continuous
 62
     7
370
    15
100
AcDbLine
 10
78.2811054275
 20
13.7160702087
 30
0.0
 11
78.571129466
 21
13.7790359539
 31
0.0
  0
LINE
  5
F0
330
1F
100
AcDbEntity
  8
0
  6
Continuous
 62
     7
370
    15
100
AcDbLine
 10
78.571129466
 20
13.7790359539
 30
0.0
 11
78.6563558282
 21
13.3866130773
 31
0.0
  0
SPLINE
  5
F1
330
1F
100
AcDbEntity
  8
0
  6
Continuous
 62
     7
370
    15
100
AcDbSpline
210
0.0
220
0.0
230
1.0
 70
     8
 71
     3
 72
    11
 73
     7
 74
     0
 42
0.000000001
 43
0.00000001
 40
0.0
 40
0.0
 40
0.0
 40
0.0
 40
0.282531409561395
 40
0.5417398538214825
 40
0.7803325040939886
 40
1.0
 40
1.0
 40
1.0
 40
1.0
 10
78.6563558281592
 20
13.38661307725811
 30
0.0
 10
78.67393983571377
 20
13.42615755132325
 30
0.0
 10
78.70765629115849
 20
13.50198210347748
 30
0.0
 10
78.76652519471814
 20
13.60606340383144
 30
0.0
 10
78.828553379331
 20
13.69715678795007
 30
0.0
 10
78.87681589213479
 20
13.74820551509744
 30
0.0
 10
78.89995057976178
 20
13.77267577757862
 30
0.0
  0
SPLINE
  5
F2
330
1F
100
AcDbEntity
  8
0
  6
Continuous
 62
     7
370
    15
100
AcDbSpline
210
0.0
220
0.0
230
1.0
 70
     8
 71
     3
 72
    11
 73
     7
 74
     0
 42
0.000000001
 43
0.00000001
 40
0.0
 40
0.0
 40
0.0
 40
0.0
 40
0.2583447880668357
 40
0.5072913636238489
 40
0.7529545123852988
 40
1.0
 40
1.0
 40
1.0
 40
1.0
 10
78.89995057976176
 20
13.77267577757862
 30
0.0
 10
78.93253190937934
 20
13.80114965456372
 30
0.0
 10
78.99650930661674
 20
13.85706156976633
 30
0.0
 10
79.10354875175015
 20
13.92437228613201
 30
0.0
 10
79.21708361815443
 20
13.97572201763706
 30
0.0
 10
79.2968830381025
 20
13.99679848348981
 30
0.0
 10
79.33689469033871
 20
14.00736628238631
 30
0.0
  0
SPLINE
  5
F3
330
1F
100
AcDbEntity
  8
0
  6
Continuous
 62
     7
370
    15
100
AcDbSpline
210
0.0
220
0.0
230
1.0
 70
     8
 71
     3
 72
    19
 73
    15
 74
     0
 42
0.000000001
 43
0.00000001
 40
0.0
 40
0.0
 40
0.0
 40
0.0
 40
0.0837386779579926
 40
0.1664441129164028
 40
0.2484410040010063
 40
0.3312453985341037
 40
0.4124141437091763
 40
0.4899369449188539
 40
0.5657722925249712
 40
0.6392492013221606
 40
0.7164305665236932
 40
0.8015394173360575
 40
0.8959953975921282
 40
1.0
 40
1.0
 40
1.0
 40
1.0
 10
79.3368946903387
 20
14.00736628238631
 30
0.0
 10
79.3641561610028
 20
14.01264842524884
 30
0.0
 10
79.41834272582723
 20
14.02314753515228
 30
0.0
 10
79.50076794574888
 20
14.02788542839989
 30
0.0
 10
79.58278915115312
 20
14.02395136349472
 30
0.0
 10
79.6635531633605
 20
14.01200204329333
 30
0.0
 10
79.74121672471684
 20
13.99232201487732
 30
0.0
 10
79.81465450423404
 20
13.96645897434827
 30
0.0
 10
79.88198511553475
 20
13.93264705595415
 30
0.0
 10
79.94496069530055
 20
13.89152762430908
 30
0.0
 10
80.00451976585151
 20
13.84066437791422
 30
0.0
 10
80.06249552274645
 20
13.77821798414518
 30
0.0
 10
80.11968043368604
 20
13.70348721858842
 30
0.0
 10
80.15483492430774
 20
13.64789367944426
 30
0.0
 10
80.17325787142845
 20
13.61875951155298
 30
0.0
  0
SPLINE
  5
F4
330
1F
100
AcDbEntity
  8
0
  6
Continuous
 62
     7
370
    15
100
AcDbSpline
210
0.0
220
0.0
230
1.0
 70
     8
 71
     3
 72
    15
 73
    11
 74
     0
 42
0.000000001
 43
0.00000001
 40
0.0
 40
0.0
 40
0.0
 40
0.0
 40
0.1406042369995414
 40
0.273769247692199
 40
0.4006825211401616
 40
0.5252548943488272
 40
0.6465434441485552
 40
0.7642723555684077
 40
0.8816077131656066
 40
1.0
 40
1.0
 40
1.0
 40
1.0
 10
80.17325787142843
 20
13.61875951155298
 30
0.0
 10
80.18884445449201
 20
13.66670041801871
 30
0.0
 10
80.21919295045818
 20
13.76004572664442
 30
0.0
 10
80.28295098355157
 20
13.88914665936232
 30
0.0
 10
80.35839261384093
 20
14.00485706217377
 30
0.0
 10
80.4470296975289
 20
14.10528975223538
 30
0.0
 10
80.54566648542635
 20
14.19095793917292
 30
0.0
 10
80.65320242412938
 20
14.26027642501356
 30
0.0
 10
80.7682688972402
 20
14.31467007461283
 30
0.0
 10
80.85018172433837
 20
14.33576761209138
 30
0.0
 10
80.89132177367202
 20
14.34636367821964
 30
0.0
  0
SPLINE
  5
F5
330
1F
100
AcDbEntity
  8
0
  6
Continuous
 62
     7
370
    15
100
AcDbSpline
210
0.0
220
0.0
230
1.0
 70
     8
 71
     3
 72
    23
 73
    19
 74
     0
 42
0.000000001
 43
0.00000001
 40
0.0
 40
0.0
 40
0.0
 40
0.0
 40
0.0756928313428739
 40
0.14765751105654
 40
0.2182584802213993
 40
0.2887504460124768
 40
0.3589763048114376
 40
0.4287196536963009
 40
0.4998784063683256
 40
0.5735022832094863
 40
0.6132020976707552
 40
0.6561814462877055
 40
0.7033853019934656
 40
0.754406527701753
 40
0.8092278337943021
 40
0.8685976210685479
 40
0.9319662384877084
 40
1.0
 40
1.0
 40
1.0
 40
1.0
 10
80.89132177367202
 20
14.34636367821964
 30
0.0
 10
80.92998527541128
 20
14.3534628927211
 30
0.0
 10
81.00540795856728
 20
14.36731165917817
 30
0.0
 10
81.11914727331185
 20
14.3681558493188
 30
0.0
 10
81.22896909019121
 20
14.3530450170503
 30
0.0
 10
81.33422092222648
 20
14.32096488870581
 30
0.0
 10
81.43308901278401
 20
14.27384340044967
 30
0.0
 10
81.52400759632424
 20
14.21206096218541
 30
0.0
 10
81.60531042281532
 20
14.13549311197313
 30
0.0
 10
81.66474750870137
 20
14.06013685806274
 30
0.0
 10
81.70839432282264
 20
13.99175404786915
 30
0.0
 10
81.739334241978
 20
13.93185732970751
 30
0.0
 10
81.76975398252198
 20
13.86524189898111
 30
0.0
 10
81.7990713651082
 20
13.79144480342735
 30
0.0
 10
81.8260403558693
 20
13.71011006256322
 30
0.0
 10
81.85298600865474
 20
13.62205440383776
 30
0.0
 10
81.87748078156615
 20
13.52618518729272
 30
0.0
 10
81.89276719049278
 20
13.45978759621986
 30
0.0
 10
81.90068174963356
 20
13.42541015257862
 30
0.0
  0
LINE
  5
F6
330
1F
100
AcDbEntity
  8
0
  6
Continuous
 62
     7
370
    15
100
AcDbLine
 10
81.9006817496
 20
13.4254101526
 30
0.0
 11
82.1709892416
 21
12.1858117952
 31
0.0
  0
LINE
  5
F7
330
1F
100
AcDbEntity
  8
0
  6
Continuous
 62
     7
370
    15
100
AcDbLine
 10
82.1709892416
 20
12.1858117952
 30
0.0
 11
81.872696974
 21
12.1203019795
 31
0.0
  0
LINE
  5
F8
330
1F
100
AcDbEntity
  8
0
  6
Continuous
 62
     7
370
    15
100
AcDbLine
 10
81.872696974
 20
12.1203019795
 30
0.0
 11
81.602389482
 21
13.3599003369
 31
0.0
  0
SPLINE
  5
F9
330
1F
100
AcDbEntity
  8
0
  6
Continuous
 62
     7
370
    15
100
AcDbSpline
210
0.0
220
0.0
230
1.0
 70
     8
 71
     3
 72
    23
 73
    19
 74
     0
 42
0.000000001
 43
0.00000001
 40
0.0
 40
0.0
 40
0.0
 40
0.0
 40
0.0790208954107588
 40
0.1511095209612524
 40
0.2171132857380572
 40
0.2773718157087223
 40
0.3307378962037081
 40
0.3783580153806005
 40
0.4198406818692055
 40
0.4553912509398512
 40
0.5203174476018985
 40
0.5839323593749371
 40
0.6483929563328118
 40
0.7146162582092231
 40
0.7828453731997145
 40
0.8515895010088742
 40
0.9236694662246965
 40
1.0
 40
1.0
 40
1.0
 40
1.0
 10
81.60238948200536
 20
13.35990033687349
 30
0.0
 10
81.5960425930584
 20
13.38921115330899
 30
0.0
 10
81.58390560899383
 20
13.4452614347887
 30
0.0
 10
81.5629161540008
 20
13.52494291138317
 30
0.0
 10
81.54370087577274
 20
13.59772214355805
 30
0.0
 10
81.52348556142101
 20
13.66284445039326
 30
0.0
 10
81.50302504619917
 20
13.72052273897302
 30
0.0
 10
81.48294022758996
 20
13.77073850928099
 30
0.0
 10
81.46277667498553
 20
13.81356798902296
 30
0.0
 10
81.43585115386426
 20
13.86032766295072
 30
0.0
 10
81.39713742833216
 20
13.90939709021468
 30
0.0
 10
81.34486852492478
 20
13.96119312326469
 30
0.0
 10
81.28261102933604
 20
14.00142489436623
 30
0.0
 10
81.21447568428763
 20
14.03431766377444
 30
0.0
 10
81.1402380634859
 20
14.05661191753034
 30
0.0
 10
81.0612676794016
 20
14.06648488369821
 30
0.0
 10
80.97847800733864
 20
14.06561365801242
 30
0.0
 10
80.92302332909233
 20
14.05528942578876
 30
0.0
 10
80.89450186181304
 20
14.04997946347605
 30
0.0
  0
SPLINE
  5
FA
330
1F
100
AcDbEntity
  8
0
  6
Continuous
 62
     7
370
    15
100
AcDbSpline
210
0.0
220
0.0
230
1.0
 70
     8
 71
     3
 72
    23
 73
    19
 74
     0
 42
0.000000001
 43
0.00000001
 40
0.0
 40
0.0
 40
0.0
 40
0.0
 40
0.0674413442566905
 40
0.1333357183036734
 40
0.1999306760999844
 40
0.2683682186458664
 40
0.3372704021548251
 40
0.4052353856734447
 40
0.4735987168980654
 40
0.5444871135704586
 40
0.5828777084171456
 40
0.6266500893623225
 40
0.6752379811084994
 40
0.7292104670495747
 40
0.7886138897147591
 40
0.853561157208995
 40
0.9237918122674162
 40
0.9999999999999999
 40
0.9999999999999999
 40
0.9999999999999999
 40
0.9999999999999999
 10
80.89450186181304
 20
14.04997946347605
 30
0.0
 10
80.85998499273633
 20
14.04092126762473
 30
0.0
 10
80.79174300286111
 20
14.0230126529065
 30
0.0
 10
80.69616787570982
 20
13.97650013205959
 30
0.0
 10
80.60912664445695
 20
13.9152272031591
 30
0.0
 10
80.53040177187191
 20
13.84113114772055
 30
0.0
 10
80.46334900255128
 20
13.75544619159057
 30
0.0
 10
80.40902379972347
 20
13.66115510913731
 30
0.0
 10
80.3702889526727
 20
13.55838359485126
 30
0.0
 10
80.348761103428
 20
13.46677548328051
 30
0.0
 10
80.33921273435352
 20
13.3863911216169
 30
0.0
 10
80.33821362561292
 20
13.31727788868508
 30
0.0
 10
80.33971971204943
 20
13.23998413655695
 30
0.0
 10
80.34748158393735
 20
13.15474910278917
 30
0.0
 10
80.35814695922957
 20
13.06117924348757
 30
0.0
 10
80.37337508933027
 20
12.95951672078781
 30
0.0
 10
80.39426620605033
 20
12.8498342997809
 30
0.0
 10
80.40995832701941
 20
12.77410517571587
 30
0.0
 10
80.41812465828741
 20
12.73469500834785
 30
0.0
  0
LINE
  5
FB
330
1F
100
AcDbEntity
  8
0
  6
Continuous
 62
     7
370
    15
100
AcDbLine
 10
80.4181246583
 20
12.7346950083
 30
0.0
 11
80.6121100349
 21
11.8455423641
 31
0.0
  0
LINE
  5
FC
330
1F
100
AcDbEntity
  8
0
  6
Continuous
 62
     7
370
    15
100
AcDbLine
 10
80.6121100349
 20
11.8455423641
 30
0.0
 11
80.3220859964
 21
11.7825766189
 31
0.0
  0
LINE
  5
FD
330
1F
100
AcDbEntity
  8
0
  6
Continuous
 62
     7
370
    15
100
AcDbLine
 10
80.3220859964
 20
11.7825766189
 30
0.0
 11
80.0683149628
 21
12.9452168433
 31
0.0
  0
SPLINE
  5
FE
330
1F
100
AcDbEntity
  8
0
  6
Continuous
 62
     7
370
    15
100
AcDbSpline
210
0.0
220
0.0
230
1.0
 70
     8
 71
     3
 72
    23
 73
    19
 74
     0
 42
0.000000001
 43
0.00000001
 40
0.0
 40
0.0
 40
0.0
 40
0.0
 40
0.0834458418961418
 40
0.159612677495157
 40
0.2292980067182376
 40
0.2917696484789716
 40
0.3475679501320169
 40
0.3966199509983914
 40
0.4391691486140499
 40
0.4751286884716929
 40
0.5398380488412544
 40
0.6025937691875043
 40
0.6654109803159108
 40
0.7295252305490117
 40
0.794625484897584
 40
0.8599836300189053
 40
0.9282536783524256
 40
1.0
 40
1.0
 40
1.0
 40
1.0
 10
80.06831496277458
 20
12.94521684328375
 30
0.0
 10
80.06096479959936
 20
12.97809304702371
 30
0.0
 10
80.04690563022953
 20
13.04097765320148
 30
0.0
 10
80.02560392810703
 20
13.13107592071169
 30
0.0
 10
80.00325462701964
 20
13.21217521419075
 30
0.0
 10
79.98149659002485
 20
13.28485846762829
 30
0.0
 10
79.96121671272007
 20
13.34933577446525
 30
0.0
 10
79.9391664476568
 20
13.40463021245703
 30
0.0
 10
79.91881011245661
 20
13.45197747671445
 30
0.0
 10
79.89088881248134
 20
13.50269905022267
 30
0.0
 10
79.85216297520162
 20
13.55644043074948
 30
0.0
 10
79.79815771475677
 20
13.61154684178183
 30
0.0
 10
79.73561354863685
 20
13.65635758791825
 30
0.0
 10
79.66612240557511
 20
13.69137750212905
 30
0.0
 10
79.5910425741903
 20
13.71560557688146
 30
0.0
 10
79.51144504361896
 20
13.72782681993207
 30
0.0
 10
79.42805606427788
 20
13.72736814031106
 30
0.0
 10
79.37240649307239
 20
13.71695428734781
 30
0.0
 10
79.34389088424895
 20
13.71161808527093
 30
0.0
  0
SPLINE
  5
FF
330
1F
100
AcDbEntity
  8
0
  6
Continuous
 62
     7
370
    15
100
AcDbSpline
210
0.0
220
0.0
230
1.0
 70
     8
 71
     3
 72
    23
 73
    19
 74
     0
 42
0.000000001
 43
0.00000001
 40
0.0
 40
0.0
 40
0.0
 40
0.0
 40
0.0679137450499575
 40
0.1350048719805656
 40
0.203687210000744
 40
0.274839000188714
 40
0.3466390291429934
 40
0.4176602101736168
 40
0.4895348030107945
 40
0.5639385028058698
 40
0.6035614887631274
 40
0.6475798182107445
 40
0.695329899205587
 40
0.747387714504311
 40
0.8038974320027065
 40
0.8644918281042099
 40
0.9301410080409931
 40
0.9999999999999999
 40
0.9999999999999999
 40
0.9999999999999999
 40
0.9999999999999999
 10
79.34389088424895
 20
13.71161808527093
 30
0.0
 10
79.31085205981206
 20
13.70296978692329
 30
0.0
 10
79.24517459996636
 20
13.68577794438222
 30
0.0
 10
79.15305860375452
 20
13.64009401985356
 30
0.0
 10
79.06706450518064
 20
13.58135758665216
 30
0.0
 10
78.98963113281063
 20
13.50813458560597
 30
0.0
 10
78.9214248552527
 20
13.42480707697523
 30
0.0
 10
78.86670796573318
 20
13.33145720646193
 30
0.0
 10
78.82669467387359
 20
13.22968190962214
 30
0.0
 10
78.80400285711275
 20
13.13885546144555
 30
0.0
 10
78.79409481297496
 20
13.06011274263526
 30
0.0
 10
78.79031882943147
 20
12.99423982775148
 30
0.0
 10
78.79139988875492
 20
12.9220476925825
 30
0.0
 10
78.79572295901266
 20
12.84371115748308
 30
0.0
 10
78.80500863950301
 20
12.75931684570775
 30
0.0
 10
78.81771795455838
 20
12.66849751747841
 30
0.0
 10
78.83498232966178
 20
12.57160896159978
 30
0.0
 10
78.84889362545209
 20
12.50505729912893
 30
0.0
 10
78.85606536341562
 20
12.47074769264272
 30
0.0
  0
LINE
  5
100
330
1F
100
AcDbEntity
  8
0
  6
Continuous
 62
     7
370
    15
100
AcDbLine
 10
78.8560653634
 20
12.4707476926
 30
0.0
 11
79.0659511807
 21
11.5084530212
 31
0.0
  0
LINE
  5
101
330
1F
100
AcDbEntity
  8
0
  6
Continuous
 62
     7
370
    15
100
AcDbLine
 10
73.580912795
 20
10.3149610752
 30
0.0
 11
73.2743522982
 21
10.2481792243
 31
0.0
  0
LINE
  5
102
330
1F
100
AcDbEntity
  8
0
  6
Continuous
 62
     7
370
    15
100
AcDbLine
 10
73.2743522982
 20
10.2481792243
 30
0.0
 11
72.6052617533
 21
13.3182363156
 31
0.0
  0
LINE
  5
103
330
1F
100
AcDbEntity
  8
0
  6
Continuous
 62
     7
370
    15
100
AcDbLine
 10
72.6052617533
 20
13.3182363156
 30
0.0
 11
73.216474694
 21
13.4511639999
 31
0.0
  0
SPLINE
  5
104
330
1F
100
AcDbEntity
  8
0
  6
Continuous
 62
     7
370
    15
100
AcDbSpline
210
0.0
220
0.0
230
1.0
 70
     8
 71
     3
 72
    15
 73
    11
 74
     0
 42
0.000000001
 43
0.00000001
 40
0.0
 40
0.0
 40
0.0
 40
0.0
 40
0.1764759410818875
 40
0.33803025705622
 40
0.4853904657703017
 40
0.6177289098815065
 40
0.7352393034791574
 40
0.8378644372839592
 40
0.9257412825836613
 40
1.0
 40
1.0
 40
1.0
 40
1.0
 10
73.21647469404579
 20
13.45116399991638
 30
0.0
 10
73.2573794127938
 20
13.45991460664239
 30
0.0
 10
73.3357302208894
 20
13.4766759273236
 30
0.0
 10
73.44843334315433
 20
13.49982166633835
 30
0.0
 10
73.55126488323037
 20
13.51897655707663
 30
0.0
 10
73.64419267418133
 20
13.53411790678821
 30
0.0
 10
73.72682015731951
 20
13.54654410916558
 30
0.0
 10
73.79935561717949
 20
13.55493674717823
 30
0.0
 10
73.86196496909619
 20
13.55973850236334
 30
0.0
 10
73.90039913891204
 20
13.56030127837064
 30
0.0
 10
73.91800213795605
 20
13.56055903196766
 30
0.0
  0
SPLINE
  5
105
330
1F
100
AcDbEntity
  8
0
  6
Continuous
 62
     7
370
    15
100
AcDbSpline
210
0.0
220
0.0
230
1.0
 70
     8
 71
     3
 72
    23
 73
    19
 74
     0
 42
0.000000001
 43
0.00000001
 40
0.0
 40
0.0
 40
0.0
 40
0.0
 40
0.0643027239000049
 40
0.1273271033863359
 40
0.1887284034995249
 40
0.2491482312655193
 40
0.3094376553754863
 40
0.3700014323532898
 40
0.4307419092747065
 40
0.4925671964897623
 40
0.5541455126714404
 40
0.6155331750215155
 40
0.6768143586580735
 40
0.7386098446768826
 40
0.8010093854138662
 40
0.8652964822593453
 40
0.931364067177865
 40
1.0
 40
1.0
 40
1.0
 40
1.0
 10
73.91800213795605
 20
13.56055903196766
 30
0.0
 10
73.94156929139386
 20
13.55994578224356
 30
0.0
 10
73.98823508096392
 20
13.55873147425961
 30
0.0
 10
74.05680311639429
 20
13.54914200741736
 30
0.0
 10
74.12336514106053
 20
13.5363634284848
 30
0.0
 10
74.18727860565407
 20
13.51684649577646
 30
0.0
 10
74.24917919741024
 20
13.49265577694649
 30
0.0
 10
74.30905065950232
 20
13.46345160690088
 30
0.0
 10
74.36654908197528
 20
13.4287453301797
 30
0.0
 10
74.42161363019412
 20
13.3896651623469
 30
0.0
 10
74.47331960081173
 20
13.34580332210785
 30
0.0
 10
74.52031187001626
 20
13.29723686486765
 30
0.0
 10
74.56337119012944
 20
13.24502792429761
 30
0.0
 10
74.60081207654532
 20
13.18818501543794
 30
0.0
 10
74.63348309168857
 20
13.12724898449991
 30
0.0
 10
74.66121280517206
 20
13.06224631856807
 30
0.0
 10
74.68530841133119
 20
12.99332337044661
 30
0.0
 10
74.69650621782803
 20
12.94523031367093
 30
0.0
 10
74.70221187353297
 20
12.9207252979933
 30
0.0
  0
SPLINE
  5
106
330
1F
100
AcDbEntity
  8
0
  6
Continuous
 62
     7
370
    15
100
AcDbSpline
210
0.0
220
0.0
230
1.0
 70
     8
 71
     3
 72
    23
 73
    19
 74
     0
 42
0.000000001
 43
0.00000001
 40
0.0
 40
0.0
 40
0.0
 40
0.0
 40
0.0798141055890049
 40
0.1554653608514067
 40
0.2291944136173368
 40
0.302082367321554
 40
0.3745324217824948
 40
0.4462566904584693
 40
0.5194253317311075
 40
0.5958981041718512
 40
0.6360426334393665
 40
0.6792110469452086
 40
0.7250321239191165
 40
0.7735090464871696
 40
0.8252359048882513
 40
0.8802701196137155
 40
0.9384665192198883
 40
0.9999999999999999
 40
0.9999999999999999
 40
0.9999999999999999
 40
0.9999999999999999
 10
74.70221187353297
 20
12.9207252979933
 30
0.0
 10
74.70964571855032
 20
12.87973290632526
 30
0.0
 10
74.72412568283242
 20
12.79988615598203
 30
0.0
 10
74.72745625415206
 20
12.67987761018211
 30
0.0
 10
74.71321389169997
 20
12.56446726521177
 30
0.0
 10
74.68334225152599
 20
12.45382048437846
 30
0.0
 10
74.6377390537896
 20
12.34967948159128
 30
0.0
 10
74.57540596409758
 20
12.25449117433207
 30
0.0
 10
74.4989264477864
 20
12.16751142430795
 30
0.0
 10
74.42265358170562
 20
12.10381920121554
 30
0.0
 10
74.35337129131754
 20
12.05744374782967
 30
0.0
 10
74.29489469692616
 20
12.02397012506056
 30
0.0
 10
74.23068005978548
 20
11.99197820955677
 30
0.0
 10
74.16009432292465
 20
11.96334162653878
 30
0.0
 10
74.08460241245614
 20
11.93406209282284
 30
0.0
 10
74.00240948880861
 20
11.90853146791418
 30
0.0
 10
73.91454239785726
 20
11.88433422677878
 30
0.0
 10
73.85381135522816
 20
11.86984070529719
 30
0.0
 10
73.82259949372528
 20
11.86239196465997
 30
0.0
  0
LINE
  5
107
330
1F
100
AcDbEntity
  8
0
  6
Continuous
 62
     7
370
    15
100
AcDbLine
 10
73.8225994937
 20
11.8623919647
 30
0.0
 11
75.2377387165
 21
10.6762190881
 31
0.0
  0
LINE
  5
108
330
1F
100
AcDbEntity
  8
0
  6
Continuous
 62
     7
370
    15
100
AcDbLine
 10
75.2377387165
 20
10.6762190881
 30
0.0
 11
74.8580361924
 21
10.5935367964
 31
0.0
  0
LINE
  5
109
330
1F
100
AcDbEntity
  8
0
  6
Continuous
 62
     7
370
    15
100
AcDbLine
 10
74.8580361924
 20
10.5935367964
 30
0.0
 11
73.4454410402
 21
11.7803456906
 31
0.0
  0
LINE
  5
10A
330
1F
100
AcDbEntity
  8
0
  6
Continuous
 62
     7
370
    15
100
AcDbLine
 10
73.4454410402
 20
11.7803456906
 30
0.0
 11
73.2699001748
 21
11.7421846329
 31
0.0
  0
LINE
  5
10B
330
1F
100
AcDbEntity
  8
0
  6
Continuous
 62
     7
370
    15
100
AcDbLine
 10
73.2699001748
 20
11.7421846329
 30
0.0
 11
73.580912795
 21
10.3149610752
 31
0.0
  0
LINE
  5
10C
330
1F
100
AcDbEntity
  8
0
  6
Continuous
 62
     7
370
    15
100
AcDbLine
 10
66.0295312177
 20
10.6130185462
 30
0.0
 11
65.9385806969
 21
11.0302461103
 31
0.0
  0
LINE
  5
10D
330
1F
100
AcDbEntity
  8
0
  6
Continuous
 62
     7
370
    15
100
AcDbLine
 10
65.9385806969
 20
11.0302461103
 30
0.0
 11
66.2266966825
 21
11.0932118555
 31
0.0
  0
LINE
  5
10E
330
1F
100
AcDbEntity
  8
0
  6
Continuous
 62
     7
370
    15
100
AcDbLine
 10
66.2266966825
 20
11.0932118555
 30
0.0
 11
66.7215183972
 21
8.8226289228
 31
0.0
  0
LINE
  5
10F
330
1F
100
AcDbEntity
  8
0
  6
Continuous
 62
     7
370
    15
100
AcDbLine
 10
66.7215183972
 20
8.8226289228
 30
0.0
 11
66.4334024116
 21
8.7596631776
 31
0.0
  0
LINE
  5
110
330
1F
100
AcDbEntity
  8
0
  6
Continuous
 62
     7
370
    15
100
AcDbLine
 10
66.4334024116
 20
8.7596631776
 30
0.0
 11
66.3481760495
 21
9.1501780013
 31
0.0
  0
SPLINE
  5
111
330
1F
100
AcDbEntity
  8
0
  6
Continuous
 62
     7
370
    15
100
AcDbSpline
210
0.0
220
0.0
230
1.0
 70
     8
 71
     3
 72
    15
 73
    11
 74
     0
 42
0.000000001
 43
0.00000001
 40
0.0
 40
0.0
 40
0.0
 40
0.0
 40
0.134134254262705
 40
0.2624563521645796
 40
0.3871371385958385
 40
0.509268246964036
 40
0.6296995118130476
 40
0.750464860659896
 40
0.8731914630380626
 40
1.0
 40
1.0
 40
1.0
 40
1.0
 10
66.34817604945913
 20
9.150178001318931
 30
0.0
 10
66.3250699847769
 20
9.107894927546152
 30
0.0
 10
66.27985906171548
 20
9.025160943138449
 30
0.0
 10
66.19875971143617
 20
8.911898414814353
 30
0.0
 10
66.10963240943316
 20
8.810645217526682
 30
0.0
 10
66.01129414746414
 20
8.722364590062657
 30
0.0
 10
65.90419451873271
 20
8.64737503338122
 30
0.0
 10
65.78887443482205
 20
8.585505305223629
 30
0.0
 10
65.66525607124038
 20
8.535532396310455
 30
0.0
 10
65.57827529566534
 20
8.51377082900736
 30
0.0
 10
65.53407348535656
 20
8.50271205580611
 30
0.0
  0
SPLINE
  5
112
330
1F
100
AcDbEntity
  8
0
  6
Continuous
 62
     7
370
    15
100
AcDbSpline
210
0.0
220
0.0
230
1.0
 70
     8
 71
     3
 72
    23
 73
    19
 74
     0
 42
0.000000001
 43
0.00000001
 40
0.0
 40
0.0
 40
0.0
 40
0.0
 40
0.0636754210906764
 40
0.125622931615287
 40
0.1860914289558948
 40
0.2463937631599519
 40
0.3064849644646157
 40
0.3675323842973919
 40
0.4299639231276836
 40
0.494499338947438
 40
0.5590131570022165
 40
0.6221796693130643
 40
0.6840830714582642
 40
0.7455871684171154
 40
0.8073174340326518
 40
0.8697489728629434
 40
0.9340767508037157
 40
0.9999999999999999
 40
0.9999999999999999
 40
0.9999999999999999
 40
0.9999999999999999
 10
65.53407348535656
 20
8.50271205580611
 30
0.0
 10
65.49432990216792
 20
8.495173989172125
 30
0.0
 10
65.41592122661403
 20
8.48030241057786
 30
0.0
 10
65.2978070068433
 20
8.471312311139805
 30
0.0
 10
65.18166264095018
 20
8.47539218013391
 30
0.0
 10
65.06767016756545
 20
8.490634236199483
 30
0.0
 10
64.95532802792954
 20
8.517241062155765
 30
0.0
 10
64.8456667304589
 20
8.557386200577128
 30
0.0
 10
64.73759198848283
 20
8.60845853069157
 30
0.0
 10
64.63305185574809
 20
8.670926364941156
 30
0.0
 10
64.53447421385943
 20
8.74313574532343
 30
0.0
 10
64.44368197371244
 20
8.822457300166876
 30
0.0
 10
64.36309316099732
 20
8.909591440501213
 30
0.0
 10
64.29216571460316
 20
9.003551997991755
 30
0.0
 10
64.2306335688448
 20
9.104390222363401
 30
0.0
 10
64.17992940500108
 20
9.212973616525584
 30
0.0
 10
64.13724937488728
 20
9.327898211631885
 30
0.0
 10
64.11791006395718
 20
9.40837500274727
 30
0.0
 10
64.10812196292066
 20
9.449106286575342
 30
0.0
  0
SPLINE
  5
113
330
1F
100
AcDbEntity
  8
0
  6
Continuous
 62
     7
370
    15
100
AcDbSpline
210
0.0
220
0.0
230
1.0
 70
     8
 71
     3
 72
    23
 73
    19
 74
     0
 42
0.000000001
 43
0.00000001
 40
0.0
 40
0.0
 40
0.0
 40
0.0
 40
0.0649259366304374
 40
0.1280734622448942
 40
0.1897213280563992
 40
0.2511695780201036
 40
0.3122800140787211
 40
0.3739315198315282
 40
0.4371926585379361
 40
0.5020061692197321
 40
0.5669597500843813
 40
0.6297062218001653
 40
0.6910631070024373
 40
0.7519058141678052
 40
0.8124082536847547
 40
0.8736773005381383
 40
0.9358949310645611
 40
1.0
 40
1.0
 40
1.0
 40
1.0
 10
64.10812196292066
 20
9.449106286575342
 30
0.0
 10
64.10027590213308
 20
9.489478903319338
 30
0.0
 10
64.08479869499207
 20
9.569118275111865
 30
0.0
 10
64.07656797167654
 20
9.689175728935831
 30
0.0
 10
64.07854965506155
 20
9.807220383906692
 30
0.0
 10
64.09376360802717
 20
9.923003201124116
 30
0.0
 10
64.1186048846997
 20
10.03713738152188
 30
0.0
 10
64.15781881286148
 20
10.14841033339112
 30
0.0
 10
64.20731491772966
 20
10.25797096229451
 30
0.0
 10
64.26819155343485
 20
10.3641143147021
 30
0.0
 10
64.33796345924253
 20
10.46418426248073
 30
0.0
 10
64.41509493185964
 20
10.55592753895385
 30
0.0
 10
64.49967091350504
 20
10.63715914757458
 30
0.0
 10
64.5907808726247
 20
10.70868856700546
 30
0.0
 10
64.68891547146353
 20
10.77017116338122
 30
0.0
 10
64.79353351498536
 20
10.82167366259898
 30
0.0
 10
64.90485803363472
 20
10.86379362010974
 30
0.0
 10
64.98261825868268
 20
10.88265744600774
 30
0.0
 10
65.02207929465143
 20
10.89223028497278
 30
0.0
  0
SPLINE
  5
114
330
1F
100
AcDbEntity
  8
0
  6
Continuous
 62
     7
370
    15
100
AcDbSpline
210
0.0
220
0.0
230
1.0
 70
     8
 71
     3
 72
    15
 73
    11
 74
     0
 42
0.000000001
 43
0.00000001
 40
0.0
 40
0.0
 40
0.0
 40
0.0
 40
0.1284065362397493
 40
0.2523653736243753
 40
0.3730699910683853
 40
0.4930272921212543
 40
0.6140326461776977
 40
0.7378689095060205
 40
0.8658801614444117
 40
1.0
 40
1.0
 40
1.0
 40
1.0
 10
65.02207929465143
 20
10.89223028497278
 30
0.0
 10
65.06793799747938
 20
10.90081606210009
 30
0.0
 10
65.15806696608185
 20
10.91769022533227
 30
0.0
 10
65.29381483796705
 20
10.92266849871535
 30
0.0
 10
65.42609303453419
 20
10.91303795895235
 30
0.0
 10
65.55482853460789
 20
10.88568609454646
 30
0.0
 10
65.6806137104315
 20
10.84319629491417
 30
0.0
 10
65.80176849059382
 20
10.7822292447845
 30
0.0
 10
65.9200915952053
 20
10.70653746737775
 30
0.0
 10
65.99248897144372
 20
10.64467208108989
 30
0.0
 10
66.02953121772836
 20
10.61301854619073
 30
0.0
  0
MTEXT
  5
116
330
1F
100
AcDbEntity
  8
0
  6
Continuous
 62
     7
100
AcDbMText
 10
0.0
 20
-1.0195663917
 30
0.0
 40
4.83362
 41
0.0
 71
     1
 72
     1
  1
SOLIDWORKS Educational Product.
  7
SLDTEXTSTYLE0
 73
     1
 44
1.0
  0
MTEXT
  5
117
330
1F
100
AcDbEntity
  8
0
  6
Continuous
 62
     7
100
AcDbMText
 10
0.0
 20
-8.2699963917
 30
0.0
 40
4.83362
 41
0.0
 71
     1
 72
     1
  1
For Instructional Use Only.
  7
SLDTEXTSTYLE0
 73
     1
 44
1.0
  0
ENDSEC
  0
SECTION
  2
OBJECTS
  0
DICTIONARY
  5
C
330
0
100
AcDbDictionary
281
     1
  3
ACAD_GROUP
350
D
  3
ACAD_LAYOUT
350
1A
  3
ACAD_MLINESTYLE
350
17
  3
ACAD_PLOTSETTINGS
350
19
  3
ACAD_PLOTSTYLENAME
350
E
  3
ACAD_SCALELIST
350
47
  0
DICTIONARY
  5
D
102
{ACAD_REACTORS
330
C
102
}
330
C
100
AcDbDictionary
281
     1
  0
DICTIONARY
  5
1A
102
{ACAD_REACTORS
330
C
102
}
330
C
100
AcDbDictionary
281
     1
  3
Layout1
350
1E
  3
Layout2
350
26
  3
Model
350
22
  0
DICTIONARY
  5
17
102
{ACAD_REACTORS
330
C
102
}
330
C
100
AcDbDictionary
281
     1
  3
Standard
350
18
  0
DICTIONARY
  5
19
102
{ACAD_REACTORS
330
C
102
}
330
C
100
AcDbDictionary
281
     1
  0
ACDBDICTIONARYWDFLT
  5
E
102
{ACAD_REACTORS
330
C
102
}
330
C
100
AcDbDictionary
281
     1
  3
Normal
350
F
100
AcDbDictionaryWithDefault
340
F
  0
DICTIONARY
  5
47
102
{ACAD_REACTORS
330
C
102
}
330
C
100
AcDbDictionary
281
     1
  3
A0
350
48
  3
A1
350
49
  3
A2
350
4A
  3
A3
350
4B
  3
A4
350
4C
  3
A5
350
4D
  3
A6
350
4E
  3
A7
350
4F
  3
A8
350
50
  3
A9
350
51
  3
B0
350
52
  3
B1
350
53
  3
B2
350
54
  3
B3
350
55
  3
B4
350
56
  3
B5
350
57
  3
B6
350
58
  3
B7
350
59
  3
B8
350
5A
  3
B9
350
5B
  3
C0
350
5C
  3
C1
350
5D
  3
C2
350
5E
  3
C3
350
5F
  3
C4
350
60
  3
C5
350
61
  3
C6
350
62
  3
C7
350
63
  3
C8
350
64
  3
C9
350
65
  3
D0
350
66
  3
D1
350
67
  3
D2
350
68
  0
LAYOUT
  5
1E
102
{ACAD_REACTORS
330
1A
102
}
330
1A
100
AcDbPlotSettings
  1

  2
none_device
  4

  6

 40
0.0
 41
0.0
 42
0.0
 43
0.0
 44
0.0
 45
0.0
 46
0.0
 47
0.0
 48
0.0
 49
0.0
140
0.0
141
0.0
142
1.0
143
1.0
 70
   688
 72
     1
 73
     0
 74
     5
  7

 75
    16
147
1.0
148
0.0
149
0.0
100
AcDbLayout
  1
Layout1
 70
     1
 71
     1
 10
0.0
 20
0.0
 11
420.0
 21
297.0
 12
0.0
 22
0.0
 32
0.0
 14
1.0000000000E+20
 24
1.0000000000E+20
 34
1.0000000000E+20
 15
-1.0000000000E+20
 25
-1.0000000000E+20
 35
-1.0000000000E+20
146
0.0
 13
0.0
 23
0.0
 33
0.0
 16
1.0
 26
0.0
 36
0.0
 17
0.0
 27
1.0
 37
0.0
 76
     0
330
1B
  0
LAYOUT
  5
26
102
{ACAD_REACTORS
330
1A
102
}
330
1A
100
AcDbPlotSettings
  1

  2
none_device
  4

  6

 40
0.0
 41
0.0
 42
0.0
 43
0.0
 44
0.0
 45
0.0
 46
0.0
 47
0.0
 48
0.0
 49
0.0
140
0.0
141
0.0
142
1.0
143
1.0
 70
   688
 72
     1
 73
     0
 74
     5
  7

 75
    16
147
1.0
148
0.0
149
0.0
100
AcDbLayout
  1
Layout2
 70
     1
 71
     2
 10
0.0
 20
0.0
 11
0.0
 21
0.0
 12
0.0
 22
0.0
 32
0.0
 14
0.0
 24
0.0
 34
0.0
 15
0.0
 25
0.0
 35
0.0
146
0.0
 13
0.0
 23
0.0
 33
0.0
 16
1.0
 26
0.0
 36
0.0
 17
0.0
 27
1.0
 37
0.0
 76
     0
330
23
  0
LAYOUT
  5
22
102
{ACAD_REACTORS
330
1A
102
}
330
1A
100
AcDbPlotSettings
  1

  2
none_device
  4
ANSI_A_(11.00_x_8.50_Inches)
  6

 40
6.35
 41
19.05
 42
6.35000508
 43
19.05000254
 44
279.4
 45
215.9
 46
-4.95300254
 47
61.9673092563
 48
0.0
 49
0.0
140
0.0
141
0.0
142
0.0573157895
143
1.0
 70
  1696
 72
     0
 73
     0
 74
     0
  7

 75
     0
147
0.0179189148
148
-1300.4909072572
149
0.0
100
AcDbLayout
  1
Model
 70
     1
 71
     0
 10
0.0
 20
0.0
 11
420.0
 21
297.0
 12
0.0
 22
0.0
 32
0.0
 14
0.0
 24
0.0
 34
0.0
 15
190.0
 25
37.0
 35
0.0
146
0.0
 13
0.0
 23
0.0
 33
0.0
 16
1.0
 26
0.0
 36
0.0
 17
0.0
 27
1.0
 37
0.0
 76
     0
330
1F
331
29
  0
MLINESTYLE
  5
18
102
{ACAD_REACTORS
330
17
102
}
330
17
100
AcDbMlineStyle
  2
Standard
 70
     0
  3

 62
   256
 51
90.0
 52
90.0
 71
     2
 49
0.5
 62
   256
  6
BYLAYER
 49
-0.5
 62
   256
  6
BYLAYER
  0
ACDBPLACEHOLDER
  5
F
102
{ACAD_REACTORS
330
E
102
}
330
E
  0
SCALE
  5
48
102
{ACAD_REACTORS
330
47
102
}
330
47
100
AcDbScale
 70
     0
300
1:1
140
1.0
141
1.0
290
     1
  0
SCALE
  5
49
102
{ACAD_REACTORS
330
47
102
}
330
47
100
AcDbScale
 70
     0
300
1:2
140
1.0
141
2.0
290
     0
  0
SCALE
  5
4A
102
{ACAD_REACTORS
330
47
102
}
330
47
100
AcDbScale
 70
     0
300
1:4
140
1.0
141
4.0
290
     0
  0
SCALE
  5
4B
102
{ACAD_REACTORS
330
47
102
}
330
47
100
AcDbScale
 70
     0
300
1:5
140
1.0
141
5.0
290
     0
  0
SCALE
  5
4C
102
{ACAD_REACTORS
330
47
102
}
330
47
100
AcDbScale
 70
     0
300
1:8
140
1.0
141
8.0
290
     0
  0
SCALE
  5
4D
102
{ACAD_REACTORS
330
47
102
}
330
47
100
AcDbScale
 70
     0
300
1:10
140
1.0
141
10.0
290
     0
  0
SCALE
  5
4E
102
{ACAD_REACTORS
330
47
102
}
330
47
100
AcDbScale
 70
     0
300
1:16
140
1.0
141
16.0
290
     0
  0
SCALE
  5
4F
102
{ACAD_REACTORS
330
47
102
}
330
47
100
AcDbScale
 70
     0
300
1:20
140
1.0
141
20.0
290
     0
  0
SCALE
  5
50
102
{ACAD_REACTORS
330
47
102
}
330
47
100
AcDbScale
 70
     0
300
1:30
140
1.0
141
30.0
290
     0
  0
SCALE
  5
51
102
{ACAD_REACTORS
330
47
102
}
330
47
100
AcDbScale
 70
     0
300
1:40
140
1.0
141
40.0
290
     0
  0
SCALE
  5
52
102
{ACAD_REACTORS
330
47
102
}
330
47
100
AcDbScale
 70
     0
300
1:50
140
1.0
141
50.0
290
     0
  0
SCALE
  5
53
102
{ACAD_REACTORS
330
47
102
}
330
47
100
AcDbScale
 70
     0
300
1:100
140
1.0
141
100.0
290
     0
  0
SCALE
  5
54
102
{ACAD_REACTORS
330
47
102
}
330
47
100
AcDbScale
 70
     0
300
2:1
140
2.0
141
1.0
290
     0
  0
SCALE
  5
55
102
{ACAD_REACTORS
330
47
102
}
330
47
100
AcDbScale
 70
     0
300
4:1
140
4.0
141
1.0
290
     0
  0
SCALE
  5
56
102
{ACAD_REACTORS
330
47
102
}
330
47
100
AcDbScale
 70
     0
300
8:1
140
8.0
141
1.0
290
     0
  0
SCALE
  5
57
102
{ACAD_REACTORS
330
47
102
}
330
47
100
AcDbScale
 70
     0
300
10:1
140
10.0
141
1.0
290
     0
  0
SCALE
  5
58
102
{ACAD_REACTORS
330
47
102
}
330
47
100
AcDbScale
 70
     0
300
100:1
140
100.0
141
1.0
290
     0
  0
SCALE
  5
59
102
{ACAD_REACTORS
330
47
102
}
330
47
100
AcDbScale
 70
     0
300
1/128" = 1'-0"
140
0.0078125
141
12.0
290
     0
  0
SCALE
  5
5A
102
{ACAD_REACTORS
330
47
102
}
330
47
100
AcDbScale
 70
     0
300
1/64" = 1'-0"
140
0.015625
141
12.0
290
     0
  0
SCALE
  5
5B
102
{ACAD_REACTORS
330
47
102
}
330
47
100
AcDbScale
 70
     0
300
1/32" = 1'-0"
140
0.03125
141
12.0
290
     0
  0
SCALE
  5
5C
102
{ACAD_REACTORS
330
47
102
}
330
47
100
AcDbScale
 70
     0
300
1/16" = 1'-0"
140
0.0625
141
12.0
290
     0
  0
SCALE
  5
5D
102
{ACAD_REACTORS
330
47
102
}
330
47
100
AcDbScale
 70
     0
300
3/32" = 1'-0"
140
0.09375
141
12.0
290
     0
  0
SCALE
  5
5E
102
{ACAD_REACTORS
330
47
102
}
330
47
100
AcDbScale
 70
     0
300
1/8" = 1'-0"
140
0.125
141
12.0
290
     0
  0
SCALE
  5
5F
102
{ACAD_REACTORS
330
47
102
}
330
47
100
AcDbScale
 70
     0
300
3/16" = 1'-0"
140
0.1875
141
12.0
290
     0
  0
SCALE
  5
60
102
{ACAD_REACTORS
330
47
102
}
330
47
100
AcDbScale
 70
     0
300
1/4" = 1'-0"
140
0.25
141
12.0
290
     0
  0
SCALE
  5
61
102
{ACAD_REACTORS
330
47
102
}
330
47
100
AcDbScale
 70
     0
300
3/8" = 1'-0"
140
0.375
141
12.0
290
     0
  0
SCALE
  5
62
102
{ACAD_REACTORS
330
47
102
}
330
47
100
AcDbScale
 70
     0
300
1/2" = 1'-0"
140
0.5
141
12.0
290
     0
  0
SCALE
  5
63
102
{ACAD_REACTORS
330
47
102
}
330
47
100
AcDbScale
 70
     0
300
3/4" = 1'-0"
140
0.75
141
12.0
290
     0
  0
SCALE
  5
64
102
{ACAD_REACTORS
330
47
102
}
330
47
100
AcDbScale
 70
     0
300
1" = 1'-0"
140
1.0
141
12.0
290
     0
  0
SCALE
  5
65
102
{ACAD_REACTORS
330
47
102
}
330
47
100
AcDbScale
 70
     0
300
1-1/2" = 1'-0"
140
1.5
141
12.0
290
     0
  0
SCALE
  5
66
102
{ACAD_REACTORS
330
47
102
}
330
47
100
AcDbScale
 70
     0
300
3" = 1'-0"
140
3.0
141
12.0
290
     0
  0
SCALE
  5
67
102
{ACAD_REACTORS
330
47
102
}
330
47
100
AcDbScale
 70
     0
300
6" = 1'-0"
140
6.0
141
12.0
290
     0
  0
SCALE
  5
68
102
{ACAD_REACTORS
330
47
102
}
330
47
100
AcDbScale
 70
     0
300
1'-0" = 1'-0"
140
12.0
141
12.0
290
     0
  0
ENDSEC
  0
EOF
