  0
SECTION
  2
HEADER
  9
$ACADVER
  1
AC1015
  9
$ACADMAINTVER
 70
     6
  9
$DWGCODEPAGE
  3
ANSI_1252
  9
$INSBASE
 10
0.0
 20
0.0
 30
0.0
  9
$EXTMIN
 10
-169.4
 20
-30.0
 30
0.0
  9
$EXTMAX
 10
169.4
 20
30.0
 30
0.0
  9
$LIMMIN
 10
0.0
 20
0.0
  9
$LIMMAX
 10
420.0
 20
297.0
  9
$ORTHOMODE
 70
     0
  9
$REGENMODE
 70
     1
  9
$FILLMODE
 70
     1
  9
$QTEXTMODE
 70
     0
  9
$MIRRTEXT
 70
     1
  9
$LTSCALE
 40
1.0
  9
$ATTMODE
 70
     1
  9
$TEXTSIZE
 40
6.35
  9
$TRACEWID
 40
1.0
  9
$TEXTSTYLE
  7
Standard
  9
$CLAYER
  8
0
  9
$CELTYPE
  6
ByLayer
  9
$CECOLOR
 62
   256
  9
$CELTSCALE
 40
1.0
  9
$DISPSILH
 70
     0
  9
$DIMSCALE
 40
1.0
  9
$DIMASZ
 40
5.9944
  9
$DIMEXO
 40
0.9906
  9
$DIMDLI
 40
3.75
  9
$DIMRND
 40
0.0
  9
$DIMDLE
 40
0.0
  9
$DIMEXE
 40
0.9906
  9
$DIMTP
 40
0.0
  9
$DIMTM
 40
0.0
  9
$DIMTXT
 40
6.35
  9
$DIMCEN
 40
2.5
  9
$DIMTSZ
 40
0.0
  9
$DIMTOL
 70
     0
  9
$DIMLIM
 70
     0
  9
$DIMTIH
 70
     1
  9
$DIMTOH
 70
     1
  9
$DIMSE1
 70
     0
  9
$DIMSE2
 70
     0
  9
$DIMTAD
 70
     1
  9
$DIMZIN
 70
     0
  9
$DIMBLK
  1

  9
$DIMASO
 70
     1
  9
$DIMSHO
 70
     1
  9
$DIMPOST
  1

  9
$DIMAPOST
  1

  9
$DIMALT
 70
     0
  9
$DIMALTD
 70
     3
  9
$DIMALTF
 40
0.0393700787
  9
$DIMLFAC
 40
1.0
  9
$DIMTOFL
 70
     1
  9
$DIMTVP
 40
0.0
  9
$DIMTIX
 70
     0
  9
$DIMSOXD
 70
     0
  9
$DIMSAH
 70
     0
  9
$DIMBLK1
  1

  9
$DIMBLK2
  1

  9
$DIMSTYLE
  2
ISO-25
  9
$DIMCLRD
 70
     0
  9
$DIMCLRE
 70
     0
  9
$DIMCLRT
 70
     0
  9
$DIMTFAC
 40
1.0
  9
$DIMGAP
 40
1.524
  9
$DIMJUST
 70
     0
  9
$DIMSD1
 70
     0
  9
$DIMSD2
 70
     0
  9
$DIMTOLJ
 70
     0
  9
$DIMTZIN
 70
     0
  9
$DIMALTZ
 70
     0
  9
$DIMALTTZ
 70
     0
  9
$DIMUPT
 70
     0
  9
$DIMDEC
 70
     2
  9
$DIMTDEC
 70
     2
  9
$DIMALTU
 70
     2
  9
$DIMALTTD
 70
     3
  9
$DIMTXSTY
  7
Standard
  9
$DIMAUNIT
 70
     0
  9
$DIMADEC
 70
     2
  9
$DIMALTRND
 40
0.0
  9
$DIMAZIN
 70
     0
  9
$DIMDSEP
 70
    44
  9
$DIMATFIT
 70
     3
  9
$DIMFRAC
 70
     0
  9
$DIMLDRBLK
  1

  9
$DIMLUNIT
 70
     2
  9
$DIMLWD
 70
    -2
  9
$DIMLWE
 70
    -2
  9
$DIMTMOVE
 70
     0
  9
$LUNITS
 70
     2
  9
$LUPREC
 70
     2
  9
$SKETCHINC
 40
1.0
  9
$FILLETRAD
 40
10.0
  9
$AUNITS
 70
     0
  9
$AUPREC
 70
     2
  9
$MENU
  1
.
  9
$ELEVATION
 40
0.0
  9
$PELEVATION
 40
0.0
  9
$THICKNESS
 40
0.0
  9
$LIMCHECK
 70
     0
  9
$CHAMFERA
 40
0.0
  9
$CHAMFERB
 40
0.0
  9
$CHAMFERC
 40
0.0
  9
$CHAMFERD
 40
0.0
  9
$SKPOLY
 70
     0
  9
$TDCREATE
 40
2458001.596923403
  9
$TDUCREATE
 40
2458001.555256736
  9
$TDUPDATE
 40
2458001.596948183
  9
$TDUUPDATE
 40
2458001.555281516
  9
$TDINDWG
 40
0.0000000116
  9
$TDUSRTIMER
 40
0.0000000116
  9
$USRTIMER
 70
     1
  9
$ANGBASE
 50
0.0
  9
$ANGDIR
 70
     0
  9
$PDMODE
 70
     0
  9
$PDSIZE
 40
-1.0
  9
$PLINEWID
 40
0.0
  9
$SPLFRAME
 70
     0
  9
$SPLINETYPE
 70
     6
  9
$SPLINESEGS
 70
     8
  9
$HANDSEED
  5
1A2
  9
$SURFTAB1
 70
     6
  9
$SURFTAB2
 70
     6
  9
$SURFTYPE
 70
     6
  9
$SURFU
 70
     6
  9
$SURFV
 70
     6
  9
$UCSBASE
  2

  9
$UCSNAME
  2

  9
$UCSORG
 10
0.0
 20
0.0
 30
0.0
  9
$UCSXDIR
 10
1.0
 20
0.0
 30
0.0
  9
$UCSYDIR
 10
0.0
 20
1.0
 30
0.0
  9
$UCSORTHOREF
  2

  9
$UCSORTHOVIEW
 70
     0
  9
$UCSORGTOP
 10
0.0
 20
0.0
 30
0.0
  9
$UCSORGBOTTOM
 10
0.0
 20
0.0
 30
0.0
  9
$UCSORGLEFT
 10
0.0
 20
0.0
 30
0.0
  9
$UCSORGRIGHT
 10
0.0
 20
0.0
 30
0.0
  9
$UCSORGFRONT
 10
0.0
 20
0.0
 30
0.0
  9
$UCSORGBACK
 10
0.0
 20
0.0
 30
0.0
  9
$PUCSBASE
  2

  9
$PUCSNAME
  2

  9
$PUCSORG
 10
0.0
 20
0.0
 30
0.0
  9
$PUCSXDIR
 10
1.0
 20
0.0
 30
0.0
  9
$PUCSYDIR
 10
0.0
 20
1.0
 30
0.0
  9
$PUCSORTHOREF
  2

  9
$PUCSORTHOVIEW
 70
     0
  9
$PUCSORGTOP
 10
0.0
 20
0.0
 30
0.0
  9
$PUCSORGBOTTOM
 10
0.0
 20
0.0
 30
0.0
  9
$PUCSORGLEFT
 10
0.0
 20
0.0
 30
0.0
  9
$PUCSORGRIGHT
 10
0.0
 20
0.0
 30
0.0
  9
$PUCSORGFRONT
 10
0.0
 20
0.0
 30
0.0
  9
$PUCSORGBACK
 10
0.0
 20
0.0
 30
0.0
  9
$USERI1
 70
     0
  9
$USERI2
 70
     0
  9
$USERI3
 70
     0
  9
$USERI4
 70
     0
  9
$USERI5
 70
     0
  9
$USERR1
 40
0.0
  9
$USERR2
 40
0.0
  9
$USERR3
 40
0.0
  9
$USERR4
 40
0.0
  9
$USERR5
 40
0.0
  9
$WORLDVIEW
 70
     1
  9
$SHADEDGE
 70
     3
  9
$SHADEDIF
 70
    70
  9
$TILEMODE
 70
     1
  9
$MAXACTVP
 70
    64
  9
$PINSBASE
 10
0.0
 20
0.0
 30
0.0
  9
$PLIMCHECK
 70
     0
  9
$PEXTMIN
 10
1.0000000000E+20
 20
1.0000000000E+20
 30
1.0000000000E+20
  9
$PEXTMAX
 10
-1.0000000000E+20
 20
-1.0000000000E+20
 30
-1.0000000000E+20
  9
$PLIMMIN
 10
0.0
 20
0.0
  9
$PLIMMAX
 10
420.0
 20
297.0
  9
$UNITMODE
 70
     0
  9
$VISRETAIN
 70
     1
  9
$PLINEGEN
 70
     0
  9
$PSLTSCALE
 70
     1
  9
$TREEDEPTH
 70
  3020
  9
$CMLSTYLE
  2
Standard
  9
$CMLJUST
 70
     0
  9
$CMLSCALE
 40
20.0
  9
$PROXYGRAPHICS
 70
     1
  9
$MEASUREMENT
 70
     1
  9
$CELWEIGHT
370
    -1
  9
$ENDCAPS
280
     0
  9
$JOINSTYLE
280
     0
  9
$LWDISPLAY
290
     1
  9
$INSUNITS
 70
     4
  9
$HYPERLINKBASE
  1

  9
$STYLESHEET
  1

  9
$XEDIT
290
     1
  9
$CEPSNTYPE
380
     0
  9
$PSTYLEMODE
290
     1
  9
$FINGERPRINTGUID
  2
{60995FFF-DE9E-41E2-8D62-A970715DED04}
  9
$VERSIONGUID
  2
{FAEB1C32-E019-11D5-929B-00C0DF256EC4}
  9
$EXTNAMES
290
     1
  9
$PSVPSCALE
 40
0.0
  9
$OLESTARTUP
290
     0
  0
ENDSEC
  0
SECTION
  2
CLASSES
  0
CLASS
  1
ACDBDICTIONARYWDFLT
  2
AcDbDictionaryWithDefault
  3
ObjectDBX Classes
 90
        0
280
     0
281
     0
  0
CLASS
  1
VISUALSTYLE
  2
AcDbVisualStyle
  3
ObjectDBX Classes
 90
     4095
280
     0
281
     0
  0
CLASS
  1
MATERIAL
  2
AcDbMaterial
  3
ObjectDBX Classes
 90
     1153
280
     0
281
     0
  0
CLASS
  1
SCALE
  2
AcDbScale
  3
ObjectDBX Classes
 90
     1153
280
     0
281
     0
  0
CLASS
  1
TABLESTYLE
  2
AcDbTableStyle
  3
ObjectDBX Classes
 90
     4095
280
     0
281
     0
  0
CLASS
  1
MLEADERSTYLE
  2
AcDbMLeaderStyle
  3
ACDB_MLEADERSTYLE_CLASS
 90
     4095
280
     0
281
     0
  0
CLASS
  1
SUN
  2
AcDbSun
  3
SCENEOE
 90
     1153
280
     0
281
     0
  0
CLASS
  1
ACDBPLACEHOLDER
  2
AcDbPlaceHolder
  3
ObjectDBX Classes
 90
        0
280
     0
281
     0
  0
CLASS
  1
LAYOUT
  2
AcDbLayout
  3
ObjectDBX Classes
 90
        0
280
     0
281
     0
  0
ENDSEC
  0
SECTION
  2
TABLES
  0
TABLE
  2
VPORT
  5
8
330
0
100
AcDbSymbolTable
 70
     1
  0
VPORT
  5
29
330
8
100
AcDbSymbolTableRecord
100
AcDbViewportTableRecord
  2
*Active
 70
     0
 10
0.0
 20
0.0
 11
1.0
 21
1.0
 12
0.0
 22
0.0
 13
0.0
 23
0.0
 14
10.0
 24
10.0
 15
10.0
 25
10.0
 16
0.0
 26
0.0
 36
1.0
 17
0.0
 27
0.0
 37
0.0
 40
61.2
 41
5.6466666667
 42
50.0
 43
0.0
 44
0.0
 50
0.0
 51
0.0
 71
     0
 72
   100
 73
     1
 74
     3
 75
     0
 76
     0
 77
     0
 78
     0
281
     0
 65
     1
110
0.0
120
0.0
130
0.0
111
1.0
121
0.0
131
0.0
112
0.0
122
1.0
132
0.0
 79
     0
146
0.0
  0
ENDTAB
  0
TABLE
  2
LTYPE
  5
5
330
0
100
AcDbSymbolTable
 70
     6
  0
LTYPE
  5
14
330
5
100
AcDbSymbolTableRecord
100
AcDbLinetypeTableRecord
  2
ByBlock
 70
     0
  3

 72
    65
 73
     0
 40
0.0
  0
LTYPE
  5
15
330
5
100
AcDbSymbolTableRecord
100
AcDbLinetypeTableRecord
  2
ByLayer
 70
     0
  3

 72
    65
 73
     0
 40
0.0
  0
LTYPE
  5
16
330
5
100
AcDbSymbolTableRecord
100
AcDbLinetypeTableRecord
  2
Continuous
 70
     0
  3
Solid line
 72
    65
 73
     0
 40
0.0
  0
LTYPE
  5
6E
330
5
100
AcDbSymbolTableRecord
100
AcDbLinetypeTableRecord
  2
HIDDEN
 70
     0
  3
Hidden __ __ __ __ __ __ __ __ __ __ __ __ __ __
 72
    65
 73
     2
 40
1.905
 49
1.27
 74
     0
 49
-0.635
 74
     0
  0
LTYPE
  5
6F
330
5
100
AcDbSymbolTableRecord
100
AcDbLinetypeTableRecord
  2
PHANTOM
 70
     0
  3
Phantom ______  __  __  ______  __  __  ______
 72
    65
 73
     6
 40
12.7
 49
6.35
 74
     0
 49
-1.27
 74
     0
 49
1.27
 74
     0
 49
-1.27
 74
     0
 49
1.27
 74
     0
 49
-1.27
 74
     0
  0
LTYPE
  5
70
330
5
100
AcDbSymbolTableRecord
100
AcDbLinetypeTableRecord
  2
CENTER
 70
     0
  3
Center ____ _ ____ _ ____ _ ____ _ ____ _ ____
 72
    65
 73
     4
 40
10.16
 49
6.35
 74
     0
 49
-1.27
 74
     0
 49
1.27
 74
     0
 49
-1.27
 74
     0
  0
LTYPE
  5
71
330
5
100
AcDbSymbolTableRecord
100
AcDbLinetypeTableRecord
  2
CENTERX2
 70
     0
  3
Center (2x) ________  __  ________  __  _____
 72
    65
 73
     4
 40
20.32
 49
12.7
 74
     0
 49
-2.54
 74
     0
 49
2.54
 74
     0
 49
-2.54
 74
     0
  0
LTYPE
  5
72
330
5
100
AcDbSymbolTableRecord
100
AcDbLinetypeTableRecord
  2
DOT2
 70
     0
  3
Dot (.5x) ........................................
 72
    65
 73
     2
 40
0.635
 49
0.0
 74
     0
 49
-0.635
 74
     0
  0
ENDTAB
  0
TABLE
  2
LAYER
  5
2
330
0
100
AcDbSymbolTable
 70
     1
  0
LAYER
  5
10
330
2
100
AcDbSymbolTableRecord
100
AcDbLayerTableRecord
  2
0
 70
     0
 62
     7
  6
Continuous
370
    -3
390
F
  0
ENDTAB
  0
TABLE
  2
STYLE
  5
3
330
0
100
AcDbSymbolTable
 70
     2
  0
STYLE
  5
11
330
3
100
AcDbSymbolTableRecord
100
AcDbTextStyleTableRecord
  2
Standard
 70
     0
 40
0.0
 41
1.0
 50
0.0
 71
     0
 42
6.35
  3
txt
  4

  0
STYLE
  5
19F
330
3
100
AcDbSymbolTableRecord
100
AcDbTextStyleTableRecord
  2
SLDTEXTSTYLE0
 70
     0
 40
0.0
 41
0.7
 50
0.0
 71
     0
 42
6.35
  3
TXT
  4

  0
ENDTAB
  0
TABLE
  2
VIEW
  5
6
330
0
100
AcDbSymbolTable
 70
     0
  0
ENDTAB
  0
TABLE
  2
UCS
  5
7
330
0
100
AcDbSymbolTable
 70
     0
  0
ENDTAB
  0
TABLE
  2
APPID
  5
9
330
0
100
AcDbSymbolTable
 70
     1
  0
APPID
  5
12
330
9
100
AcDbSymbolTableRecord
100
AcDbRegAppTableRecord
  2
ACAD
 70
     0
  0
ENDTAB
  0
TABLE
  2
DIMSTYLE
  5
A
330
0
100
AcDbSymbolTable
 70
     1
100
AcDbDimStyleTable
  0
DIMSTYLE
105
27
330
A
100
AcDbSymbolTableRecord
100
AcDbDimStyleTableRecord
  2
ISO-25
 70
     0
 41
2.5
 42
0.625
 43
3.75
 44
1.25
 73
     0
 74
     0
 77
     1
 78
     8
140
2.5
141
2.5
143
0.0393700787
147
0.625
171
     3
172
     1
178
     0
271
     2
272
     2
274
     3
278
    44
283
     0
284
     8
340
11
  0
ENDTAB
  0
TABLE
  2
BLOCK_RECORD
  5
1
330
0
100
AcDbSymbolTable
 70
     1
  0
BLOCK_RECORD
  5
1F
330
1
100
AcDbSymbolTableRecord
100
AcDbBlockTableRecord
  2
*Model_Space
340
22
  0
BLOCK_RECORD
  5
1B
330
1
100
AcDbSymbolTableRecord
100
AcDbBlockTableRecord
  2
*Paper_Space
340
1E
  0
BLOCK_RECORD
  5
23
330
1
100
AcDbSymbolTableRecord
100
AcDbBlockTableRecord
  2
*Paper_Space0
340
26
  0
ENDTAB
  0
ENDSEC
  0
SECTION
  2
BLOCKS
  0
BLOCK
  5
20
330
1F
100
AcDbEntity
  8
0
100
AcDbBlockBegin
  2
*Model_Space
 70
     0
 10
0.0
 20
0.0
 30
0.0
  3
*Model_Space
  1

  0
ENDBLK
  5
21
330
1F
100
AcDbEntity
  8
0
100
AcDbBlockEnd
  0
BLOCK
  5
1C
330
1B
100
AcDbEntity
 67
     1
  8
0
100
AcDbBlockBegin
  2
*Paper_Space
 70
     0
 10
0.0
 20
0.0
 30
0.0
  3
*Paper_Space
  1

  0
ENDBLK
  5
1D
330
1B
100
AcDbEntity
 67
     1
  8
0
100
AcDbBlockEnd
  0
BLOCK
  5
24
330
23
100
AcDbEntity
  8
0
100
AcDbBlockBegin
  2
*Paper_Space0
 70
     0
 10
0.0
 20
0.0
 30
0.0
  3
*Paper_Space0
  1

  0
ENDBLK
  5
25
330
23
100
AcDbEntity
  8
0
100
AcDbBlockEnd
  0
ENDSEC
  0
SECTION
  2
ENTITIES
  0
CIRCLE
  5
73
330
1F
100
AcDbEntity
  8
0
  6
Continuous
 62
     7
370
    15
100
AcDbCircle
 10
-63.4
 20
-20.0
 30
0.0
 40
5.000000000000007
  0
ARC
  5
74
330
1F
100
AcDbEntity
  8
0
  6
Continuous
 62
     7
370
    15
100
AcDbCircle
 10
67.1718252471
 20
5.0
 30
0.0
 40
5.000000000000007
100
AcDbArc
 50
180.0
 51
351.2131190888
  0
ARC
  5
75
330
1F
100
AcDbEntity
  8
0
  6
Continuous
 62
     7
370
    15
100
AcDbCircle
 10
37.1718252471
 20
5.0
 30
0.0
 40
25.0
100
AcDbArc
 50
0.0
 51
90.0
  0
LINE
  5
76
330
1F
100
AcDbEntity
  8
0
  6
Continuous
 62
     7
370
    15
100
AcDbLine
 10
3.0
 20
30.0
 30
0.0
 11
37.1718252471
 21
30.0
 31
0.0
  0
LINE
  5
77
330
1F
100
AcDbEntity
  8
0
  6
Continuous
 62
     7
370
    15
100
AcDbLine
 10
3.0
 20
30.0
 30
0.0
 11
3.0
 21
3.0
 31
0.0
  0
ARC
  5
78
330
1F
100
AcDbEntity
  8
0
  6
Continuous
 62
     7
370
    15
100
AcDbCircle
 10
0.0
 20
3.0
 30
0.0
 40
3.000000000000004
100
AcDbArc
 50
180.0
 51
0.0
  0
LINE
  5
79
330
1F
100
AcDbEntity
  8
0
  6
Continuous
 62
     7
370
    15
100
AcDbLine
 10
-3.0
 20
30.0
 30
0.0
 11
-3.0
 21
3.0
 31
0.0
  0
LINE
  5
7A
330
1F
100
AcDbEntity
  8
0
  6
Continuous
 62
     7
370
    15
100
AcDbLine
 10
-50.0
 20
30.0
 30
0.0
 11
-3.0
 21
30.0
 31
0.0
  0
LINE
  5
7B
330
1F
100
AcDbEntity
  8
0
  6
Continuous
 62
     7
370
    15
100
AcDbLine
 10
-50.0
 20
0.0
 30
0.0
 11
-50.0
 21
30.0
 31
0.0
  0
LINE
  5
7C
330
1F
100
AcDbEntity
  8
0
  6
Continuous
 62
     7
370
    15
100
AcDbLine
 10
-50.0
 20
0.0
 30
0.0
 11
-53.4
 21
0.0
 31
0.0
  0
LINE
  5
7D
330
1F
100
AcDbEntity
  8
0
  6
Continuous
 62
     7
370
    15
100
AcDbLine
 10
-53.4
 20
0.0
 30
0.0
 11
-53.4
 21
29.9443858518
 31
0.0
  0
ARC
  5
7E
330
1F
100
AcDbEntity
  8
0
  6
Continuous
 62
     7
370
    15
100
AcDbCircle
 10
-50.8867590533
 20
-26.8153356301
 30
0.0
 40
56.81533563005662
100
AcDbArc
 50
92.5353207988
 51
103.5399383669
  0
LINE
  5
7F
330
1F
100
AcDbEntity
  8
0
  6
Continuous
 62
     7
370
    15
100
AcDbLine
 10
-140.1345118023
 20
10.1319156001
 30
0.0
 11
-64.1885417503
 21
28.4209290865
 31
0.0
  0
ARC
  5
80
330
1F
100
AcDbEntity
  8
0
  6
Continuous
 62
     7
370
    15
100
AcDbCircle
 10
-141.2457428631
 20
14.7463537124
 30
0.0
 40
4.746353712365904
100
AcDbArc
 50
192.1495770473
 51
283.5399383669
  0
LINE
  5
81
330
1F
100
AcDbEntity
  8
0
  6
Continuous
 62
     7
370
    15
100
AcDbLine
 10
-149.0447970172
 20
28.4209290865
 30
0.0
 11
-145.8857853311
 21
13.7474145462
 31
0.0
  0
ARC
  5
82
330
1F
100
AcDbEntity
  8
0
  6
Continuous
 62
     7
370
    15
100
AcDbCircle
 10
-151.0
 20
28.0
 30
0.0
 40
2.000000000000007
100
AcDbArc
 50
12.1495770473
 51
90.0
  0
LINE
  5
83
330
1F
100
AcDbEntity
  8
0
  6
Continuous
 62
     7
370
    15
100
AcDbLine
 10
-156.0
 20
30.0
 30
0.0
 11
-151.0
 21
30.0
 31
0.0
  0
LINE
  5
84
330
1F
100
AcDbEntity
  8
0
  6
Continuous
 62
     7
370
    15
100
AcDbLine
 10
-156.0
 20
30.0
 30
0.0
 11
-156.0
 21
0.0
 31
0.0
  0
LINE
  5
85
330
1F
100
AcDbEntity
  8
0
  6
Continuous
 62
     7
370
    15
100
AcDbLine
 10
-156.0
 20
0.0
 30
0.0
 11
-159.4
 21
0.0
 31
0.0
  0
LINE
  5
86
330
1F
100
AcDbEntity
  8
0
  6
Continuous
 62
     7
370
    15
100
AcDbLine
 10
-159.4
 20
30.0
 30
0.0
 11
-159.4
 21
0.0
 31
0.0
  0
LINE
  5
87
330
1F
100
AcDbEntity
  8
0
  6
Continuous
 62
     7
370
    15
100
AcDbLine
 10
-164.4
 20
30.0
 30
0.0
 11
-159.4
 21
30.0
 31
0.0
  0
ARC
  5
88
330
1F
100
AcDbEntity
  8
0
  6
Continuous
 62
     7
370
    15
100
AcDbCircle
 10
-164.4
 20
25.0
 30
0.0
 40
5.000000000000028
100
AcDbArc
 50
90.0
 51
180.0
  0
LINE
  5
89
330
1F
100
AcDbEntity
  8
0
  6
Continuous
 62
     7
370
    15
100
AcDbLine
 10
-169.4
 20
25.0
 30
0.0
 11
-169.4
 21
-25.0
 31
0.0
  0
ARC
  5
8A
330
1F
100
AcDbEntity
  8
0
  6
Continuous
 62
     7
370
    15
100
AcDbCircle
 10
-164.4
 20
-25.0
 30
0.0
 40
5.000000000000028
100
AcDbArc
 50
180.0
 51
270.0
  0
LINE
  5
8B
330
1F
100
AcDbEntity
  8
0
  6
Continuous
 62
     7
370
    15
100
AcDbLine
 10
-164.4
 20
-30.0
 30
0.0
 11
164.4
 21
-30.0
 31
0.0
  0
ARC
  5
8C
330
1F
100
AcDbEntity
  8
0
  6
Continuous
 62
     7
370
    15
100
AcDbCircle
 10
164.4
 20
-25.0
 30
0.0
 40
5.000000000000028
100
AcDbArc
 50
270.0
 51
0.0
  0
LINE
  5
8D
330
1F
100
AcDbEntity
  8
0
  6
Continuous
 62
     7
370
    15
100
AcDbLine
 10
169.4
 20
25.0
 30
0.0
 11
169.4
 21
-25.0
 31
0.0
  0
ARC
  5
8E
330
1F
100
AcDbEntity
  8
0
  6
Continuous
 62
     7
370
    15
100
AcDbCircle
 10
164.4
 20
25.0
 30
0.0
 40
5.000000000000028
100
AcDbArc
 50
0.0
 51
90.0
  0
LINE
  5
8F
330
1F
100
AcDbEntity
  8
0
  6
Continuous
 62
     7
370
    15
100
AcDbLine
 10
159.4
 20
30.0
 30
0.0
 11
164.4
 21
30.0
 31
0.0
  0
LINE
  5
90
330
1F
100
AcDbEntity
  8
0
  6
Continuous
 62
     7
370
    15
100
AcDbLine
 10
159.4
 20
30.0
 30
0.0
 11
159.4
 21
0.0
 31
0.0
  0
LINE
  5
91
330
1F
100
AcDbEntity
  8
0
  6
Continuous
 62
     7
370
    15
100
AcDbLine
 10
156.0
 20
0.0
 30
0.0
 11
159.4
 21
0.0
 31
0.0
  0
LINE
  5
92
330
1F
100
AcDbEntity
  8
0
  6
Continuous
 62
     7
370
    15
100
AcDbLine
 10
156.0
 20
30.0
 30
0.0
 11
156.0
 21
0.0
 31
0.0
  0
LINE
  5
93
330
1F
100
AcDbEntity
  8
0
  6
Continuous
 62
     7
370
    15
100
AcDbLine
 10
151.0
 20
30.0
 30
0.0
 11
156.0
 21
30.0
 31
0.0
  0
ARC
  5
94
330
1F
100
AcDbEntity
  8
0
  6
Continuous
 62
     7
370
    15
100
AcDbCircle
 10
151.0
 20
28.0
 30
0.0
 40
2.000000000000011
100
AcDbArc
 50
90.0
 51
167.8504229527
  0
LINE
  5
95
330
1F
100
AcDbEntity
  8
0
  6
Continuous
 62
     7
370
    15
100
AcDbLine
 10
145.8857853311
 20
13.7474145462
 30
0.0
 11
149.0447970172
 21
28.4209290865
 31
0.0
  0
ARC
  5
96
330
1F
100
AcDbEntity
  8
0
  6
Continuous
 62
     7
370
    15
100
AcDbCircle
 10
141.2457428631
 20
14.7463537124
 30
0.0
 40
4.746353712365906
100
AcDbArc
 50
256.4600616331
 51
347.8504229527
  0
LINE
  5
97
330
1F
100
AcDbEntity
  8
0
  6
Continuous
 62
     7
370
    15
100
AcDbLine
 10
96.5608719373
 20
20.6251502852
 30
0.0
 11
140.1345118023
 21
10.1319156001
 31
0.0
  0
ARC
  5
98
330
1F
100
AcDbEntity
  8
0
  6
Continuous
 62
     7
370
    15
100
AcDbCircle
 10
91.8784098698
 20
1.1810110914
 30
0.0
 40
20.0
100
AcDbArc
 50
76.4600616331
 51
171.2131190888
  0
SPLINE
  5
99
330
1F
100
AcDbEntity
  8
0
  6
Continuous
 62
     7
370
    15
100
AcDbSpline
210
0.0
220
0.0
230
1.0
 70
     8
 71
     3
 72
    31
 73
    27
 74
     0
 42
0.000000001
 43
0.00000001
 40
0.0
 40
0.0
 40
0.0
 40
0.0
 40
0.0412914469532474
 40
0.0821355032144641
 40
0.1226360352259631
 40
0.162830869755124
 40
0.2030066005770554
 40
0.2435260831621617
 40
0.2841729362467873
 40
0.3254098107964584
 40
0.3668546660987568
 40
0.407550595165851
 40
0.4481873740566105
 40
0.4886828510840631
 40
0.5290149651896819
 40
0.5698427286954864
 40
0.6113702381646687
 40
0.6532377352823788
 40
0.6954461190732804
 40
0.7377513945470104
 40
0.7800433605771132
 40
0.8228070703900522
 40
0.8659781422330309
 40
0.9095950301662465
 40
0.954231404704788
 40
1.0
 40
1.0
 40
1.0
 40
1.0
 10
-7.350667735042784
 20
-23.95406901041675
 30
0.0
 10
-7.350301009124484
 20
-23.92897420501625
 30
0.0
 10
-7.349571530744241
 20
-23.87905649513378
 30
0.0
 10
-7.341204558690062
 20
-23.80496970456593
 30
0.0
 10
-7.330395709470714
 20
-23.73186956300414
 30
0.0
 10
-7.312080260250423
 20
-23.66068266780762
 30
0.0
 10
-7.290925163557671
 20
-23.59032934029166
 30
0.0
 10
-7.263920212424214
 20
-23.52165755902897
 30
0.0
 10
-7.232242077483536
 20
-23.45434820906317
 30
0.0
 10
-7.196276023686965
 20
-23.38857468033978
 30
0.0
 10
-7.155789013616883
 20
-23.32541902161355
 30
0.0
 10
-7.11098420239648
 20
-23.26575243259901
 30
0.0
 10
-7.063549120433254
 20
-23.20885813952024
 30
0.0
 10
-7.011264639174096
 20
-23.15670034567295
 30
0.0
 10
-6.956349522255739
 20
-23.10719316756763
 30
0.0
 10
-6.897250122707059
 20
-23.0616591796571
 30
0.0
 10
-6.834305417486993
 20
-23.01996455799888
 30
0.0
 10
-6.768460714128112
 20
-22.98133832670693
 30
0.0
 10
-6.699754332146299
 20
-22.94694598693667
 30
0.0
 10
-6.628601571151025
 20
-22.91731525283661
 30
0.0
 10
-6.555431177190854
 20
-22.89199248586626
 30
0.0
 10
-6.480126104907665
 20
-22.87194477147272
 30
0.0
 10
-6.403186185936905
 20
-22.85513302122986
 30
0.0
 10
-6.324005109079817
 20
-22.84455752640516
 30
0.0
 10
-6.24288579092762
 20
-22.83708501255386
 30
0.0
 10
-6.187957062516159
 20
-22.83626112168344
 30
0.0
 10
-6.160148737980818
 20
-22.8358440170941
 30
0.0
  0
SPLINE
  5
9A
330
1F
100
AcDbEntity
  8
0
  6
Continuous
 62
     7
370
    15
100
AcDbSpline
210
0.0
220
0.0
230
1.0
 70
     8
 71
     3
 72
    19
 73
    15
 74
     0
 42
0.000000001
 43
0.00000001
 40
0.0
 40
0.0
 40
0.0
 40
0.0
 40
0.0912688044343261
 40
0.1820814045527836
 40
0.2719096545272038
 40
0.362049458505355
 40
0.4500663484251175
 40
0.5339764739707168
 40
0.6136024537413247
 40
0.6901976142648829
 40
0.7654128769004128
 40
0.8414365506928784
 40
0.9197327486057716
 40
0.9999999999999999
 40
0.9999999999999999
 40
0.9999999999999999
 40
0.9999999999999999
 10
-6.160148737980819
 20
-22.8358440170941
 30
0.0
 10
-6.125323433849858
 20
-22.83661061341314
 30
0.0
 10
-6.055846898801065
 20
-22.83813997424307
 30
0.0
 10
-5.952784299276186
 20
-22.85101121064366
 30
0.0
 10
-5.85123970057217
 20
-22.87041655214691
 30
0.0
 10
-5.752994757964411
 20
-22.89916550642702
 30
0.0
 10
-5.659240662328004
 20
-22.93397712966669
 30
0.0
 10
-5.571482909994623
 20
-22.97307044037334
 30
0.0
 10
-5.491787299812049
 20
-23.01846845285711
 30
0.0
 10
-5.41867132241502
 20
-23.06812857179367
 30
0.0
 10
-5.351998235664809
 20
-23.12414237256428
 30
0.0
 10
-5.291083636779282
 20
-23.18717946750277
 30
0.0
 10
-5.234678390383047
 20
-23.2569117861134
 30
0.0
 10
-5.202699803545488
 20
-23.30830619480734
 30
0.0
 10
-5.1865117521368
 20
-23.33432283319987
 30
0.0
  0
LINE
  5
9B
330
1F
100
AcDbEntity
  8
0
  6
Continuous
 62
     7
370
    15
100
AcDbLine
 10
-5.1865117521
 20
-23.3343228332
 30
0.0
 11
-5.4051428118
 21
-23.4701655983
 31
0.0
  0
SPLINE
  5
9C
330
1F
100
AcDbEntity
  8
0
  6
Continuous
 62
     7
370
    15
100
AcDbSpline
210
0.0
220
0.0
230
1.0
 70
     8
 71
     3
 72
    15
 73
    11
 74
     0
 42
0.000000001
 43
0.00000001
 40
0.0
 40
0.0
 40
0.0
 40
0.0
 40
0.1283242377690993
 40
0.2525844750621366
 40
0.3735064833109019
 40
0.4933644513855714
 40
0.6146085973434222
 40
0.7384702442356696
 40
0.8659947178700196
 40
1.0
 40
1.0
 40
1.0
 40
1.0
 10
-5.405142811832313
 20
-23.47016559829068
 30
0.0
 10
-5.429116217744827
 20
-23.44037258269998
 30
0.0
 10
-5.476303797060585
 20
-23.38173008979046
 30
0.0
 10
-5.558243864427876
 20
-23.30605099646751
 30
0.0
 10
-5.645565855895783
 20
-23.24105137899662
 30
0.0
 10
-5.739761946763348
 20
-23.18807867656746
 30
0.0
 10
-5.840700019782947
 20
-23.14714869670649
 30
0.0
 10
-5.947982012162282
 20
-23.11818572224957
 30
0.0
 10
-6.061592625466496
 20
-23.10013761080197
 30
0.0
 10
-6.139479698712115
 20
-23.09808631847991
 30
0.0
 10
-6.179388271234022
 20
-23.09703525641034
 30
0.0
  0
SPLINE
  5
9D
330
1F
100
AcDbEntity
  8
0
  6
Continuous
 62
     7
370
    15
100
AcDbSpline
210
0.0
220
0.0
230
1.0
 70
     8
 71
     3
 72
    23
 73
    19
 74
     0
 42
0.000000001
 43
0.00000001
 40
0.0
 40
0.0
 40
0.0
 40
0.0
 40
0.0695216413260459
 40
0.1369209822612554
 40
0.2019692428653322
 40
0.2654615503849179
 40
0.3282478845128383
 40
0.3908167166700983
 40
0.4535501756793825
 40
0.5175419816323167
 40
0.5807383719174795
 40
0.6419215091741681
 40
0.701596724408931
 40
0.7603128802455004
 40
0.8187565130146944
 40
0.877718079536196
 40
0.9380940530276959
 40
1.0
 40
1.0
 40
1.0
 40
1.0
 10
-6.179388271234022
 20
-23.09703525641034
 30
0.0
 10
-6.211285570522987
 20
-23.09791407103353
 30
0.0
 10
-6.274106434168074
 20
-23.09964487253846
 30
0.0
 10
-6.366330182004397
 20
-23.11046371730711
 30
0.0
 10
-6.454176829222252
 20
-23.13012317302393
 30
0.0
 10
-6.538196990135805
 20
-23.1560266768925
 30
0.0
 10
-6.617793076259646
 20
-23.19074403108688
 30
0.0
 10
-6.693173631659008
 20
-23.23299476281331
 30
0.0
 10
-6.765007280190193
 20
-23.28209768323809
 30
0.0
 10
-6.831212391888428
 20
-23.33898430938192
 30
0.0
 10
-6.891773179325022
 20
-23.40085034432536
 30
0.0
 10
-6.944242931058963
 20
-23.46716933981427
 30
0.0
 10
-6.989925607053689
 20
-23.53595486839508
 30
0.0
 10
-7.025770262414331
 20
-23.60892462070692
 30
0.0
 10
-7.055103246435415
 20
-23.6844092316591
 30
0.0
 10
-7.074400739351334
 20
-23.7638335509372
 30
0.0
 10
-7.087260370001276
 20
-23.8461800548559
 30
0.0
 10
-7.088731651000655
 20
-23.90232476950234
 30
0.0
 10
-7.089476495726544
 20
-23.93074836404923
 30
0.0
  0
SPLINE
  5
9E
330
1F
100
AcDbEntity
  8
0
  6
Continuous
 62
     7
370
    15
100
AcDbSpline
210
0.0
220
0.0
230
1.0
 70
     8
 71
     3
 72
    19
 73
    15
 74
     0
 42
0.000000001
 43
0.00000001
 40
0.0
 40
0.0
 40
0.0
 40
0.0
 40
0.080525242352541
 40
0.1599654769449853
 40
0.2403213612945774
 40
0.3225285276294007
 40
0.4050235832074835
 40
0.4865966363996181
 40
0.5678654736293196
 40
0.6513327733845233
 40
0.7362375672940284
 40
0.821529069009538
 40
0.9090049060738453
 40
1.0
 40
1.0
 40
1.0
 40
1.0
 10
-7.089476495726544
 20
-23.93074836404923
 30
0.0
 10
-7.087996962786425
 20
-23.96797609488883
 30
0.0
 10
-7.085057832328605
 20
-24.04192994520155
 30
0.0
 10
-7.062022749468929
 20
-24.15109393816514
 30
0.0
 10
-7.024316715528253
 20
-24.25663703068227
 30
0.0
 10
-6.97271265757055
 20
-24.35780988042113
 30
0.0
 10
-6.907455183300332
 20
-24.4514372821525
 30
0.0
 10
-6.830809307747728
 20
-24.53540983320966
 30
0.0
 10
-6.742732546252919
 20
-24.60810042334549
 30
0.0
 10
-6.644000959305426
 20
-24.66836477902145
 30
0.0
 10
-6.536932764311148
 20
-24.71681188054165
 30
0.0
 10
-6.422686349827283
 20
-24.7513272043753
 30
0.0
 10
-6.302195282397036
 20
-24.77215944512466
 30
0.0
 10
-6.219700148060764
 20
-24.7747837620437
 30
0.0
 10
-6.177639222756459
 20
-24.77612179487188
 30
0.0
  0
SPLINE
  5
9F
330
1F
100
AcDbEntity
  8
0
  6
Continuous
 62
     7
370
    15
100
AcDbSpline
210
0.0
220
0.0
230
1.0
 70
     8
 71
     3
 72
    15
 73
    11
 74
     0
 42
0.000000001
 43
0.00000001
 40
0.0
 40
0.0
 40
0.0
 40
0.0
 40
0.1299810785766151
 40
0.2554473120268492
 40
0.377298344718116
 40
0.4984417785420233
 40
0.6193721253366247
 40
0.741856501957812
 40
0.8685636891457529
 40
0.9999999999999999
 40
0.9999999999999999
 40
0.9999999999999999
 40
0.9999999999999999
 10
-6.177639222756459
 20
-24.77612179487188
 30
0.0
 10
-6.139092679556343
 20
-24.77504120107269
 30
0.0
 10
-6.063338493206882
 20
-24.77291754750389
 30
0.0
 10
-5.952603554371883
 20
-24.755015189308
 30
0.0
 10
-5.847180021361686
 20
-24.72570842969162
 30
0.0
 10
-5.747071641174979
 20
-24.68483981831216
 30
0.0
 10
-5.652461341186535
 20
-24.63201366371986
 30
0.0
 10
-5.563960414185941
 20
-24.56685428180073
 30
0.0
 10
-5.479807846462747
 20
-24.49123616832198
 30
0.0
 10
-5.430333277245364
 20
-24.43276342671951
 30
0.0
 10
-5.405142811832313
 20
-24.40299145299154
 30
0.0
  0
LINE
  5
A0
330
1F
100
AcDbEntity
  8
0
  6
Continuous
 62
     7
370
    15
100
AcDbLine
 10
-5.4051428118
 20
-24.402991453
 30
0.0
 11
-5.1865117521
 21
-24.5464134282
 31
0.0
  0
SPLINE
  5
A1
330
1F
100
AcDbEntity
  8
0
  6
Continuous
 62
     7
370
    15
100
AcDbSpline
210
0.0
220
0.0
230
1.0
 70
     8
 71
     3
 72
    23
 73
    19
 74
     0
 42
0.000000001
 43
0.00000001
 40
0.0
 40
0.0
 40
0.0
 40
0.0
 40
0.0596333961362501
 40
0.1190688615049889
 40
0.1781965462156696
 40
0.2369566475521789
 40
0.2959319880758023
 40
0.3558557687429114
 40
0.4164733051171468
 40
0.4777415997317962
 40
0.5399029904536086
 40
0.6025375151243935
 40
0.6654223850767752
 40
0.7297652560446459
 40
0.794828770841605
 40
0.8618265399701647
 40
0.930010932434066
 40
1.0
 40
1.0
 40
1.0
 40
1.0
 10
-5.1865117521368
 20
-24.54641342815179
 30
0.0
 10
-5.199473668802512
 20
-24.56544815761832
 30
0.0
 10
-5.22535447989673
 20
-24.6034544378821
 30
0.0
 10
-5.268617927967737
 20
-24.65704278966014
 30
0.0
 10
-5.315284240403176
 20
-24.70720314095554
 30
0.0
 10
-5.365171357278387
 20
-24.75386825465217
 30
0.0
 10
-5.417627883902948
 20
-24.79815483372448
 30
0.0
 10
-5.474445794441765
 20
-24.8379456965774
 30
0.0
 10
-5.533793024926887
 20
-24.87547745094294
 30
0.0
 10
-5.596366282867387
 20
-24.90924898812604
 30
0.0
 10
-5.661518619250771
 20
-24.93960573288614
 30
0.0
 10
-5.72915835704354
 20
-24.96570898615697
 30
0.0
 10
-5.798991570352068
 20
-24.9881359135082
 30
0.0
 10
-5.87110036649606
 20
-25.00596208817597
 30
0.0
 10
-5.945626905745172
 20
-25.02019056517433
 30
0.0
 10
-6.022378446989863
 20
-25.02963170867733
 30
0.0
 10
-6.101328556214968
 20
-25.03667930851284
 30
0.0
 10
-6.154690755844719
 20
-25.03709996092456
 30
0.0
 10
-6.181720335870775
 20
-25.03731303418812
 30
0.0
  0
SPLINE
  5
A2
330
1F
100
AcDbEntity
  8
0
  6
Continuous
 62
     7
370
    15
100
AcDbSpline
210
0.0
220
0.0
230
1.0
 70
     8
 71
     3
 72
    23
 73
    19
 74
     0
 42
0.000000001
 43
0.00000001
 40
0.0
 40
0.0
 40
0.0
 40
0.0
 40
0.0695585437274133
 40
0.1363352505575721
 40
0.2010957661175483
 40
0.2644499547795249
 40
0.3270049911572458
 40
0.3893913874403773
 40
0.4519764903030331
 40
0.5156699828847834
 40
0.5789732464632442
 40
0.640167028800425
 40
0.6997398434247564
 40
0.7586849854260637
 40
0.8178204012911087
 40
0.8769839874813289
 40
0.9376342848620921
 40
1.0
 40
1.0
 40
1.0
 40
1.0
 10
-6.181720335870775
 20
-25.03731303418812
 30
0.0
 10
-6.222974148076499
 20
-25.03657189259248
 30
0.0
 10
-6.303831919417475
 20
-25.03511924968587
 30
0.0
 10
-6.422179861760932
 20
-25.01914648770149
 30
0.0
 10
-6.535281702888464
 20
-24.99506685083174
 30
0.0
 10
-6.64309880174457
 20
-24.96050462685749
 30
0.0
 10
-6.745647943557146
 20
-24.91601285838424
 30
0.0
 10
-6.842833506763882
 20
-24.86166547167023
 30
0.0
 10
-6.934333695704574
 20
-24.79701115589977
 30
0.0
 10
-7.019243673995691
 20
-24.72320068636957
 30
0.0
 10
-7.097227412252392
 20
-24.64317201051489
 30
0.0
 10
-7.164188774110209
 20
-24.55681585851994
 30
0.0
 10
-7.222268442594173
 20
-24.46730720147514
 30
0.0
 10
-7.268907905493649
 20
-24.37266916106956
 30
0.0
 10
-7.306033950870442
 20
-24.2741595625837
 30
0.0
 10
-7.331400171767512
 20
-24.17098924996692
 30
0.0
 10
-7.347806388191461
 20
-24.06400877442057
 30
0.0
 10
-7.349705126996692
 20
-23.9910547052361
 30
0.0
 10
-7.350667735042784
 20
-23.95406901041675
 30
0.0
  0
LINE
  5
A3
330
1F
100
AcDbEntity
  8
0
  6
Continuous
 62
     7
370
    15
100
AcDbLine
 10
-4.7760683761
 20
-22.8731570513
 30
0.0
 11
-4.4029380342
 21
-22.8731570513
 31
0.0
  0
LINE
  5
A4
330
1F
100
AcDbEntity
  8
0
  6
Continuous
 62
     7
370
    15
100
AcDbLine
 10
-4.4029380342
 20
-22.8731570513
 30
0.0
 11
-4.4029380342
 21
-22.014957265
 31
0.0
  0
LINE
  5
A5
330
1F
100
AcDbEntity
  8
0
  6
Continuous
 62
     7
370
    15
100
AcDbLine
 10
-4.4029380342
 20
-22.014957265
 30
0.0
 11
-4.1417467949
 21
-22.014957265
 31
0.0
  0
LINE
  5
A6
330
1F
100
AcDbEntity
  8
0
  6
Continuous
 62
     7
370
    15
100
AcDbLine
 10
-4.1417467949
 20
-22.014957265
 30
0.0
 11
-4.1417467949
 21
-22.8731570513
 31
0.0
  0
LINE
  5
A7
330
1F
100
AcDbEntity
  8
0
  6
Continuous
 62
     7
370
    15
100
AcDbLine
 10
-4.1417467949
 20
-22.8731570513
 30
0.0
 11
-3.768616453
 21
-22.8731570513
 31
0.0
  0
LINE
  5
A8
330
1F
100
AcDbEntity
  8
0
  6
Continuous
 62
     7
370
    15
100
AcDbLine
 10
-3.768616453
 20
-22.8731570513
 30
0.0
 11
-3.768616453
 21
-23.1343482906
 31
0.0
  0
LINE
  5
A9
330
1F
100
AcDbEntity
  8
0
  6
Continuous
 62
     7
370
    15
100
AcDbLine
 10
-3.768616453
 20
-23.1343482906
 30
0.0
 11
-4.1417467949
 21
-23.1343482906
 31
0.0
  0
LINE
  5
AA
330
1F
100
AcDbEntity
  8
0
  6
Continuous
 62
     7
370
    15
100
AcDbLine
 10
-4.1417467949
 20
-23.1343482906
 30
0.0
 11
-4.1417467949
 21
-25.0
 31
0.0
  0
LINE
  5
AB
330
1F
100
AcDbEntity
  8
0
  6
Continuous
 62
     7
370
    15
100
AcDbLine
 10
-4.1417467949
 20
-25.0
 30
0.0
 11
-4.4029380342
 21
-25.0
 31
0.0
  0
LINE
  5
AC
330
1F
100
AcDbEntity
  8
0
  6
Continuous
 62
     7
370
    15
100
AcDbLine
 10
-4.4029380342
 20
-25.0
 30
0.0
 11
-4.4029380342
 21
-23.1343482906
 31
0.0
  0
LINE
  5
AD
330
1F
100
AcDbEntity
  8
0
  6
Continuous
 62
     7
370
    15
100
AcDbLine
 10
-4.4029380342
 20
-23.1343482906
 30
0.0
 11
-4.7760683761
 21
-23.1343482906
 31
0.0
  0
LINE
  5
AE
330
1F
100
AcDbEntity
  8
0
  6
Continuous
 62
     7
370
    15
100
AcDbLine
 10
-4.7760683761
 20
-23.1343482906
 30
0.0
 11
-4.7760683761
 21
-22.8731570513
 31
0.0
  0
LINE
  5
AF
330
1F
100
AcDbEntity
  8
0
  6
Continuous
 62
     7
370
    15
100
AcDbLine
 10
-3.1342948718
 20
-25.0
 30
0.0
 11
-3.3954861111
 21
-25.0
 31
0.0
  0
LINE
  5
B0
330
1F
100
AcDbEntity
  8
0
  6
Continuous
 62
     7
370
    15
100
AcDbLine
 10
-3.3954861111
 20
-25.0
 30
0.0
 11
-3.3954861111
 21
-22.8731570513
 31
0.0
  0
LINE
  5
B1
330
1F
100
AcDbEntity
  8
0
  6
Continuous
 62
     7
370
    15
100
AcDbLine
 10
-3.3954861111
 20
-22.8731570513
 30
0.0
 11
-3.1342948718
 21
-22.8731570513
 31
0.0
  0
LINE
  5
B2
330
1F
100
AcDbEntity
  8
0
  6
Continuous
 62
     7
370
    15
100
AcDbLine
 10
-3.1342948718
 20
-22.8731570513
 30
0.0
 11
-3.1342948718
 21
-23.1862367288
 31
0.0
  0
SPLINE
  5
B3
330
1F
100
AcDbEntity
  8
0
  6
Continuous
 62
     7
370
    15
100
AcDbSpline
210
0.0
220
0.0
230
1.0
 70
     8
 71
     3
 72
    15
 73
    11
 74
     0
 42
0.000000001
 43
0.00000001
 40
0.0
 40
0.0
 40
0.0
 40
0.0
 40
0.1600594124854964
 40
0.3061123827401291
 40
0.4383665141302066
 40
0.5605414552552189
 40
0.6753172249527025
 40
0.7861136344281766
 40
0.8928417881050883
 40
1.0
 40
1.0
 40
1.0
 40
1.0
 10
-3.134294871794927
 20
-23.18623672876611
 30
0.0
 10
-3.115012314666613
 20
-23.15708613818797
 30
0.0
 10
-3.078134573981379
 20
-23.10133586020314
 30
0.0
 10
-3.01683876308424
 20
-23.02760311408075
 30
0.0
 10
-2.954054147729519
 20
-22.96655500686876
 30
0.0
 10
-2.889480161621391
 20
-22.91790654512975
 30
0.0
 10
-2.822641944017536
 20
-22.88147385048874
 30
0.0
 10
-2.75500639547585
 20
-22.85478696362026
 30
0.0
 10
-2.685509412505088
 20
-22.83900642231873
 30
0.0
 10
-2.63880809813226
 20
-22.83689956424532
 30
0.0
 10
-2.615410490117577
 20
-22.8358440170941
 30
0.0
  0
SPLINE
  5
B4
330
1F
100
AcDbEntity
  8
0
  6
Continuous
 62
     7
370
    15
100
AcDbSpline
210
0.0
220
0.0
230
1.0
 70
     8
 71
     3
 72
    11
 73
     7
 74
     0
 42
0.000000001
 43
0.00000001
 40
0.0
 40
0.0
 40
0.0
 40
0.0
 40
0.2252775478670103
 40
0.4635231951764786
 40
0.7203235553269197
 40
1.0
 40
1.0
 40
1.0
 40
1.0
 10
-2.615410490117577
 20
-22.8358440170941
 30
0.0
 10
-2.597260860295015
 20
-22.83683399664952
 30
0.0
 10
-2.559916817418664
 20
-22.83887094392204
 30
0.0
 10
-2.50338605673025
 20
-22.85318256417481
 30
0.0
 10
-2.445141591064944
 20
-22.87603184840489
 30
0.0
 10
-2.407603546428627
 20
-22.89751922403763
 30
0.0
 10
-2.388034188034243
 20
-22.9087210369926
 30
0.0
  0
LINE
  5
B5
330
1F
100
AcDbEntity
  8
0
  6
Continuous
 62
     7
370
    15
100
AcDbLine
 10
-2.388034188
 20
-22.908721037
 30
0.0
 11
-2.5314561632
 21
-23.1349313068
 31
0.0
  0
SPLINE
  5
B6
330
1F
100
AcDbEntity
  8
0
  6
Continuous
 62
     7
370
    15
100
AcDbSpline
210
0.0
220
0.0
230
1.0
 70
     8
 71
     3
 72
    11
 73
     7
 74
     0
 42
0.000000001
 43
0.00000001
 40
0.0
 40
0.0
 40
0.0
 40
0.0
 40
0.2951388013693733
 40
0.560229944888241
 40
0.7949833567409025
 40
1.0
 40
1.0
 40
1.0
 40
1.0
 10
-2.5314561631945
 20
-23.13493130675756
 30
0.0
 10
-2.544020033752822
 20
-23.12932645451777
 30
0.0
 10
-2.567868665236769
 20
-23.11868737200189
 30
0.0
 10
-2.602755884925722
 20
-23.10609606952899
 30
0.0
 10
-2.63492125838586
 20
-23.09868206093386
 30
0.0
 10
-2.655413550667368
 20
-23.09755887505255
 30
0.0
 10
-2.66496686364856
 20
-23.09703525641034
 30
0.0
  0
SPLINE
  5
B7
330
1F
100
AcDbEntity
  8
0
  6
Continuous
 62
     7
370
    15
100
AcDbSpline
210
0.0
220
0.0
230
1.0
 70
     8
 71
     3
 72
    19
 73
    15
 74
     0
 42
0.000000001
 43
0.00000001
 40
0.0
 40
0.0
 40
0.0
 40
0.0
 40
0.0938065293523323
 40
0.1913381281363397
 40
0.2951906166251695
 40
0.4103123367232987
 40
0.4719302510512789
 40
0.5364251593464332
 40
0.6031187283036329
 40
0.6741176724906003
 40
0.749332023225886
 40
0.8282833841715632
 40
0.9120398092627635
 40
1.0
 40
1.0
 40
1.0
 40
1.0
 10
-2.66496686364856
 20
-23.09703525641034
 30
0.0
 10
-2.685926631335996
 20
-23.09843228748408
 30
0.0
 10
-2.728678481800729
 20
-23.10128182591648
 30
0.0
 10
-2.791447437559901
 20
-23.12368272737509
 30
0.0
 10
-2.852355976896431
 20
-23.15987603715966
 30
0.0
 10
-2.900728484207984
 20
-23.20001576528803
 30
0.0
 10
-2.938183262342582
 20
-23.23872247544145
 30
0.0
 10
-2.964909390358345
 20
-23.27252355781411
 30
0.0
 10
-2.98942569839066
 20
-23.31042436034104
 30
0.0
 10
-3.012850578092738
 20
-23.35177696050368
 30
0.0
 10
-3.034193323932135
 20
-23.39728743366266
 30
0.0
 10
-3.054112772073569
 20
-23.44650109387122
 30
0.0
 10
-3.07212314796795
 20
-23.49947494202085
 30
0.0
 10
-3.082392964147276
 20
-23.53638112103735
 30
0.0
 10
-3.087653579059884
 20
-23.55528595753213
 30
0.0
  0
SPLINE
  5
B8
330
1F
100
AcDbEntity
  8
0
  6
Continuous
 62
     7
370
    15
100
AcDbSpline
210
0.0
220
0.0
230
1.0
 70
     8
 71
     3
 72
    15
 73
    11
 74
     0
 42
0.000000001
 43
0.00000001
 40
0.0
 40
0.0
 40
0.0
 40
0.0
 40
0.0708548685015334
 40
0.156938149557354
 40
0.258600394960084
 40
0.3758909295892017
 40
0.5081661676989038
 40
0.656237808578227
 40
0.8201767703979113
 40
0.9999999999999999
 40
0.9999999999999999
 40
0.9999999999999999
 40
0.9999999999999999
 10
-3.087653579059884
 20
-23.55528595753213
 30
0.0
 10
-3.091588789495013
 20
-23.57214739294262
 30
0.0
 10
-3.100304981577065
 20
-23.60949419109729
 30
0.0
 10
-3.108779730605365
 20
-23.67215007742842
 30
0.0
 10
-3.117153014303718
 20
-23.74617748891253
 30
0.0
 10
-3.123054190396567
 20
-23.83178248311393
 30
0.0
 10
-3.128524145665502
 20
-23.9287512832137
 30
0.0
 10
-3.131609255707953
 20
-24.03723161418763
 30
0.0
 10
-3.134189664849488
 20
-24.15733482344085
 30
0.0
 10
-3.134258738908209
 20
-24.24129980645599
 30
0.0
 10
-3.134294871794927
 20
-24.28522218883555
 30
0.0
  0
LINE
  5
B9
330
1F
100
AcDbEntity
  8
0
  6
Continuous
 62
     7
370
    15
100
AcDbLine
 10
-3.1342948718
 20
-24.2852221888
 30
0.0
 11
-3.1342948718
 21
-25.0
 31
0.0
  0
LINE
  5
BA
330
1F
100
AcDbEntity
  8
0
  6
Continuous
 62
     7
370
    15
100
AcDbLine
 10
9.6081063034
 20
-22.9011418269
 30
0.0
 11
9.3300075955
 21
-25.0
 31
0.0
  0
LINE
  5
BB
330
1F
100
AcDbEntity
  8
0
  6
Continuous
 62
     7
370
    15
100
AcDbLine
 10
9.3300075955
 20
-25.0
 30
0.0
 11
9.0670673077
 21
-25.0
 31
0.0
  0
LINE
  5
BC
330
1F
100
AcDbEntity
  8
0
  6
Continuous
 62
     7
370
    15
100
AcDbLine
 10
9.0670673077
 20
-25.0
 30
0.0
 11
9.4512749566
 21
-22.0895833333
 31
0.0
  0
LINE
  5
BD
330
1F
100
AcDbEntity
  8
0
  6
Continuous
 62
     7
370
    15
100
AcDbLine
 10
9.4512749566
 20
-22.0895833333
 30
0.0
 11
9.4885879908
 21
-22.0895833333
 31
0.0
  0
LINE
  5
BE
330
1F
100
AcDbEntity
  8
0
  6
Continuous
 62
     7
370
    15
100
AcDbLine
 10
9.4885879908
 20
-22.0895833333
 30
0.0
 11
10.6901842949
 21
-24.4776175214
 31
0.0
  0
LINE
  5
BF
330
1F
100
AcDbEntity
  8
0
  6
Continuous
 62
     7
370
    15
100
AcDbLine
 10
10.6901842949
 20
-24.4776175214
 30
0.0
 11
11.8888655182
 21
-22.0895833333
 31
0.0
  0
LINE
  5
C0
330
1F
100
AcDbEntity
  8
0
  6
Continuous
 62
     7
370
    15
100
AcDbLine
 10
11.8888655182
 20
-22.0895833333
 30
0.0
 11
11.9267615685
 21
-22.0895833333
 31
0.0
  0
LINE
  5
C1
330
1F
100
AcDbEntity
  8
0
  6
Continuous
 62
     7
370
    15
100
AcDbLine
 10
11.9267615685
 20
-22.0895833333
 30
0.0
 11
12.3133012821
 21
-25.0
 31
0.0
  0
LINE
  5
C2
330
1F
100
AcDbEntity
  8
0
  6
Continuous
 62
     7
370
    15
100
AcDbLine
 10
12.3133012821
 20
-25.0
 30
0.0
 11
12.0509440104
 21
-25.0
 31
0.0
  0
LINE
  5
C3
330
1F
100
AcDbEntity
  8
0
  6
Continuous
 62
     7
370
    15
100
AcDbLine
 10
12.0509440104
 20
-25.0
 30
0.0
 11
11.7722622863
 21
-22.9058059562
 31
0.0
  0
LINE
  5
C4
330
1F
100
AcDbEntity
  8
0
  6
Continuous
 62
     7
370
    15
100
AcDbLine
 10
11.7722622863
 20
-22.9058059562
 30
0.0
 11
10.7216671675
 21
-25.0
 31
0.0
  0
LINE
  5
C5
330
1F
100
AcDbEntity
  8
0
  6
Continuous
 62
     7
370
    15
100
AcDbLine
 10
10.7216671675
 20
-25.0
 30
0.0
 11
10.6627825354
 21
-25.0
 31
0.0
  0
LINE
  5
C6
330
1F
100
AcDbEntity
  8
0
  6
Continuous
 62
     7
370
    15
100
AcDbLine
 10
10.6627825354
 20
-25.0
 30
0.0
 11
9.6081063034
 21
-22.9011418269
 31
0.0
  0
SPLINE
  5
C7
330
1F
100
AcDbEntity
  8
0
  6
Continuous
 62
     7
370
    15
100
AcDbSpline
210
0.0
220
0.0
230
1.0
 70
     8
 71
     3
 72
    23
 73
    19
 74
     0
 42
0.000000001
 43
0.00000001
 40
0.0
 40
0.0
 40
0.0
 40
0.0
 40
0.0679784896192565
 40
0.1330435352439089
 40
0.1965074380533962
 40
0.2586134167685766
 40
0.3197283376065485
 40
0.3808728540495674
 40
0.4426356023162047
 40
0.5050793035048797
 40
0.5678805200585777
 40
0.6288138541554894
 40
0.6889100905404398
 40
0.7487650058898478
 40
0.809385782963119
 40
0.8708843357532267
 40
0.9340374630737027
 40
1.0
 40
1.0
 40
1.0
 40
1.0
 10
6.380528846153784
 20
-23.39379048143705
 30
0.0
 10
6.380973055002239
 20
-23.37414483802396
 30
0.0
 10
6.381842434653309
 20
-23.33569553050835
 30
0.0
 10
6.388780910874369
 20
-23.27920116624436
 30
0.0
 10
6.40141354214868
 20
-23.22552630259759
 30
0.0
 10
6.417258617666898
 20
-23.17386485758402
 30
0.0
 10
6.439280496957564
 20
-23.12521758057763
 30
0.0
 10
6.465595574033452
 20
-23.07893574306028
 30
0.0
 10
6.496518688687456
 20
-23.03508331600709
 30
0.0
 10
6.532144925184407
 20
-22.9943348781934
 30
0.0
 10
6.571316343877999
 20
-22.95732325387726
 30
0.0
 10
6.613637768473403
 20
-22.92506034716534
 30
0.0
 10
6.658157378261157
 20
-22.89753083665904
 30
0.0
 10
6.705063665239711
 20
-22.87444278347694
 30
0.0
 10
6.75480723710318
 20
-22.85697913378354
 30
0.0
 10
6.80704039050341
 20
-22.8449571296522
 30
0.0
 10
6.861657398459542
 20
-22.83692836875169
 30
0.0
 10
6.898994822845387
 20
-22.83621067305989
 30
0.0
 10
6.918069744925152
 20
-22.8358440170941
 30
0.0
  0
SPLINE
  5
C8
330
1F
100
AcDbEntity
  8
0
  6
Continuous
 62
     7
370
    15
100
AcDbSpline
210
0.0
220
0.0
230
1.0
 70
     8
 71
     3
 72
    15
 73
    11
 74
     0
 42
0.000000001
 43
0.00000001
 40
0.0
 40
0.0
 40
0.0
 40
0.0
 40
0.1057142614175168
 40
0.2134116126389966
 40
0.3261267300734719
 40
0.4444516715568681
 40
0.5690610798550858
 40
0.7027122044812153
 40
0.8463179465861964
 40
0.9999999999999999
 40
0.9999999999999999
 40
0.9999999999999999
 40
0.9999999999999999
 10
6.918069744925152
 20
-22.8358440170941
 30
0.0
 10
6.940681240556992
 20
-22.83676232897162
 30
0.0
 10
6.986328400006106
 20
-22.83861617930421
 30
0.0
 10
7.054810193213967
 20
-22.85333930417019
 30
0.0
 10
7.123191133033107
 20
-22.87756486751956
 30
0.0
 10
7.191646918690712
 20
-22.91102321155154
 30
0.0
 10
7.259676070041114
 20
-22.95431929822096
 30
0.0
 10
7.327876991931594
 20
-23.00664800727903
 30
0.0
 10
7.397068431405005
 20
-23.06766507107028
 30
0.0
 10
7.440272579858957
 20
-23.11431424839869
 30
0.0
 10
7.462606837606776
 20
-23.13842940371269
 30
0.0
  0
LINE
  5
C9
330
1F
100
AcDbEntity
  8
0
  6
Continuous
 62
     7
370
    15
100
AcDbLine
 10
7.4626068376
 20
-23.1384294037
 30
0.0
 11
7.2853699252
 21
-23.3209134615
 31
0.0
  0
SPLINE
  5
CA
330
1F
100
AcDbEntity
  8
0
  6
Continuous
 62
     7
370
    15
100
AcDbSpline
210
0.0
220
0.0
230
1.0
 70
     8
 71
     3
 72
    15
 73
    11
 74
     0
 42
0.000000001
 43
0.00000001
 40
0.0
 40
0.0
 40
0.0
 40
0.0
 40
0.1582230975563177
 40
0.3050355053581678
 40
0.4413089638879031
 40
0.565963227104723
 40
0.6835251144150569
 40
0.793334129629599
 40
0.8985175121610023
 40
0.9999999999999999
 40
0.9999999999999999
 40
0.9999999999999999
 40
0.9999999999999999
 10
7.285369925213613
 20
-23.32091346153855
 30
0.0
 10
7.270077345791825
 20
-23.30319056544944
 30
0.0
 10
7.240595052977434
 20
-23.26902290820823
 30
0.0
 10
7.193835898834342
 20
-23.22334012135979
 30
0.0
 10
7.147249604671657
 20
-23.18497505963214
 30
0.0
 10
7.101473894813436
 20
-23.15258440147957
 30
0.0
 10
7.055357703208253
 20
-23.12809603373651
 30
0.0
 10
7.009442206404223
 20
-23.1102220324683
 30
0.0
 10
6.963679863722444
 20
-23.09916094764208
 30
0.0
 10
6.93309052372494
 20
-23.09773531022801
 30
0.0
 10
6.918069744925153
 20
-23.09703525641034
 30
0.0
  0
SPLINE
  5
CB
330
1F
100
AcDbEntity
  8
0
  6
Continuous
 62
     7
370
    15
100
AcDbSpline
210
0.0
220
0.0
230
1.0
 70
     8
 71
     3
 72
    15
 73
    11
 74
     0
 42
0.000000001
 43
0.00000001
 40
0.0
 40
0.0
 40
0.0
 40
0.0
 40
0.1249584925460607
 40
0.2459006286062667
 40
0.36916602958607
 40
0.4985108411773528
 40
0.6285038663666056
 40
0.7510283288509915
 40
0.8737241742784327
 40
1.0
 40
1.0
 40
1.0
 40
1.0
 10
6.918069744925153
 20
-23.09703525641034
 30
0.0
 10
6.899659788015075
 20
-23.09792906447574
 30
0.0
 10
6.863431598281318
 20
-23.09968795225242
 30
0.0
 10
6.811521557678867
 20
-23.11724477497723
 30
0.0
 10
6.763332853422868
 20
-23.14419418427991
 30
0.0
 10
6.721624936120117
 20
-23.18241925048623
 30
0.0
 10
6.686294406959546
 20
-23.22629525260101
 30
0.0
 10
6.660505054350881
 20
-23.27535350609248
 30
0.0
 10
6.644733935820891
 20
-23.3281135757697
 30
0.0
 10
6.642734286616816
 20
-23.36472649908083
 30
0.0
 10
6.641720085470023
 20
-23.38329619057166
 30
0.0
  0
SPLINE
  5
CC
330
1F
100
AcDbEntity
  8
0
  6
Continuous
 62
     7
370
    15
100
AcDbSpline
210
0.0
220
0.0
230
1.0
 70
     8
 71
     3
 72
    11
 73
     7
 74
     0
 42
0.000000001
 43
0.00000001
 40
0.0
 40
0.0
 40
0.0
 40
0.0
 40
0.2400399314959787
 40
0.479403193606084
 40
0.7317567388575533
 40
1.0
 40
1.0
 40
1.0
 40
1.0
 10
6.641720085470023
 20
-23.38329619057166
 30
0.0
 10
6.64264377876448
 20
-23.40010346776205
 30
0.0
 10
6.644488561474233
 20
-23.43367064265114
 30
0.0
 10
6.658829996508856
 20
-23.48318766841019
 30
0.0
 10
6.681669343434466
 20
-23.53146486028835
 30
0.0
 10
6.703015332370616
 20
-23.56103711039292
 30
0.0
 10
6.71401408920934
 20
-23.5762745392629
 30
0.0
  0
SPLINE
  5
CD
330
1F
100
AcDbEntity
  8
0
  6
Continuous
 62
     7
370
    15
100
AcDbSpline
210
0.0
220
0.0
230
1.0
 70
     8
 71
     3
 72
    15
 73
    11
 74
     0
 42
0.000000001
 43
0.00000001
 40
0.0
 40
0.0
 40
0.0
 40
0.0
 40
0.0834251049856345
 40
0.1775598214659677
 40
0.2839823599504417
 40
0.4022167468072146
 40
0.5335684803800568
 40
0.6761209941988173
 40
0.831649372553984
 40
1.0
 40
1.0
 40
1.0
 40
1.0
 10
6.71401408920934
 20
-23.5762745392629
 30
0.0
 10
6.720636113494479
 20
-23.58441088706841
 30
0.0
 10
6.734730257577547
 20
-23.60172807790659
 30
0.0
 10
6.761180552471924
 20
-23.62576300839727
 30
0.0
 10
6.791134978957548
 20
-23.65232451114268
 30
0.0
 10
6.82715757003611
 20
-23.6788815118921
 30
0.0
 10
6.867696371199224
 20
-23.70684789291187
 30
0.0
 10
6.91363046646507
 20
-23.73512228562944
 30
0.0
 10
6.963502123277308
 20
-23.7658599651348
 30
0.0
 10
6.99920653836268
 20
-23.78535512969114
 30
0.0
 10
7.017765508146306
 20
-23.7954886151176
 30
0.0
  0
SPLINE
  5
CE
330
1F
100
AcDbEntity
  8
0
  6
Continuous
 62
     7
370
    15
100
AcDbSpline
210
0.0
220
0.0
230
1.0
 70
     8
 71
     3
 72
    15
 73
    11
 74
     0
 42
0.000000001
 43
0.00000001
 40
0.0
 40
0.0
 40
0.0
 40
0.0
 40
0.158989101226794
 40
0.3071145916055705
 40
0.4462131585962129
 40
0.5748760724117273
 40
0.6941521095829574
 40
0.8045811801532406
 40
0.9065933190457638
 40
1.0
 40
1.0
 40
1.0
 40
1.0
 10
7.017765508146306
 20
-23.7954886151176
 30
0.0
 10
7.040394893387159
 20
-23.8081654777553
 30
0.0
 10
7.084107414263769
 20
-23.83265300213134
 30
0.0
 10
7.146218007035154
 20
-23.8706627972521
 30
0.0
 10
7.202586159556803
 20
-23.9084411899367
 30
0.0
 10
7.253689473667032
 20
-23.94558415517897
 30
0.0
 10
7.298544656376609
 20
-23.98313091473891
 30
0.0
 10
7.338512620694804
 20
-24.01964230550809
 30
0.0
 10
7.37259646365017
 20
-24.05622151007517
 30
0.0
 10
7.391683746734883
 20
-24.08177755758175
 30
0.0
 10
7.400807124732845
 20
-24.09399288862188
 30
0.0
  0
SPLINE
  5
CF
330
1F
100
AcDbEntity
  8
0
  6
Continuous
 62
     7
370
    15
100
AcDbSpline
210
0.0
220
0.0
230
1.0
 70
     8
 71
     3
 72
    11
 73
     7
 74
     0
 42
0.000000001
 43
0.00000001
 40
0.0
 40
0.0
 40
0.0
 40
0.0
 40
0.2488386141270707
 40
0.4952350254576663
 40
0.7433356038750063
 40
1.0
 40
1.0
 40
1.0
 40
1.0
 10
7.400807124732845
 20
-24.09399288862188
 30
0.0
 10
7.415950045443934
 20
-24.11866165350673
 30
0.0
 10
7.446087268118029
 20
-24.16775707404113
 30
0.0
 10
7.477734528974567
 20
-24.24859882590875
 30
0.0
 10
7.49607869799563
 20
-24.33434011870922
 30
0.0
 10
7.498625079931564
 20
-24.39299101841339
 30
0.0
 10
7.49991987179481
 20
-24.42281400240393
 30
0.0
  0
SPLINE
  5
D0
330
1F
100
AcDbEntity
  8
0
  6
Continuous
 62
     7
370
    15
100
AcDbSpline
210
0.0
220
0.0
230
1.0
 70
     8
 71
     3
 72
    23
 73
    19
 74
     0
 42
0.000000001
 43
0.00000001
 40
0.0
 40
0.0
 40
0.0
 40
0.0
 40
0.0645481255642482
 40
0.1271991327555114
 40
0.188597338087423
 40
0.2486395150940122
 40
0.3095246994640569
 40
0.37003699105335
 40
0.4318892436070742
 40
0.4957042857252931
 40
0.559519327843512
 40
0.621371580397237
 40
0.6823971072916406
 40
0.7435684819321642
 40
0.8054984835712136
 40
0.8686397008205239
 40
0.9330662250811649
 40
1.0
 40
1.0
 40
1.0
 40
1.0
 10
7.49991987179481
 20
-24.42281400240393
 30
0.0
 10
7.499321545163766
 20
-24.44382650079917
 30
0.0
 10
7.498142477175221
 20
-24.48523392432289
 30
0.0
 10
7.489945025084666
 20
-24.54621532735405
 30
0.0
 10
7.475846154892107
 20
-24.60453555168639
 30
0.0
 10
7.456642598774271
 20
-24.66082740450071
 30
0.0
 10
7.430711307734624
 20
-24.7140123084564
 30
0.0
 10
7.400320074031996
 20
-24.76543209407293
 30
0.0
 10
7.363835995642146
 20
-24.81397446033051
 30
0.0
 10
7.322182631513197
 20
-24.85957566709749
 30
0.0
 10
7.276575991579453
 20
-24.90122435111309
 30
0.0
 10
7.227925351531928
 20
-24.93783236513158
 30
0.0
 10
7.176170800125993
 20
-24.96824566814774
 30
0.0
 10
7.121682144419387
 20
-24.99341274392413
 30
0.0
 10
7.064335582074551
 20
-25.01342664651407
 30
0.0
 10
7.004122146876163
 20
-25.02728233470545
 30
0.0
 10
6.941233236080596
 20
-25.03557516044865
 30
0.0
 10
6.8984669015812
 20
-25.03672641832355
 30
0.0
 10
6.876675597622802
 20
-25.03731303418812
 30
0.0
  0
SPLINE
  5
D1
330
1F
100
AcDbEntity
  8
0
  6
Continuous
 62
     7
370
    15
100
AcDbSpline
210
0.0
220
0.0
230
1.0
 70
     8
 71
     3
 72
    15
 73
    11
 74
     0
 42
0.000000001
 43
0.00000001
 40
0.0
 40
0.0
 40
0.0
 40
0.0
 40
0.126742518961846
 40
0.2517239612496071
 40
0.3772186880262438
 40
0.5046935492516296
 40
0.6314582385934868
 40
0.7554010672029527
 40
0.8777005336014756
 40
1.0
 40
1.0
 40
1.0
 40
1.0
 10
6.876675597622802
 20
-25.03731303418812
 30
0.0
 10
6.847266107094917
 20
-25.03648755659597
 30
0.0
 10
6.788855768444157
 20
-25.03484807135362
 30
0.0
 10
6.702466519842502
 20
-25.01945940025496
 30
0.0
 10
6.618047174690993
 20
-24.9955146589617
 30
0.0
 10
6.536236575995757
 20
-24.96248896847425
 30
0.0
 10
6.458864301529684
 20
-24.92078626260425
 30
0.0
 10
6.388073883870484
 20
-24.87084152222329
 30
0.0
 10
6.323619411812358
 20
-24.81430460176306
 30
0.0
 10
6.286932966330575
 20
-24.77097023495383
 30
0.0
 10
6.268589743589682
 20
-24.74930305154923
 30
0.0
  0
LINE
  5
D2
330
1F
100
AcDbEntity
  8
0
  6
Continuous
 62
     7
370
    15
100
AcDbLine
 10
6.2685897436
 20
-24.7493030515
 30
0.0
 11
6.4417455429
 21
-24.5522435897
 31
0.0
  0
SPLINE
  5
D3
330
1F
100
AcDbEntity
  8
0
  6
Continuous
 62
     7
370
    15
100
AcDbSpline
210
0.0
220
0.0
230
1.0
 70
     8
 71
     3
 72
    15
 73
    11
 74
     0
 42
0.000000001
 43
0.00000001
 40
0.0
 40
0.0
 40
0.0
 40
0.0
 40
0.1474758177483574
 40
0.285904171544376
 40
0.4171716482444348
 40
0.5405007435864946
 40
0.6592377183802373
 40
0.7750060983159524
 40
0.8872285734286341
 40
1.0
 40
1.0
 40
1.0
 40
1.0
 10
6.441745542868529
 20
-24.55224358974368
 30
0.0
 10
6.458187245801918
 20
-24.57000109334209
 30
0.0
 10
6.490061972979023
 20
-24.60442669906184
 30
0.0
 10
6.541036853851534
 20
-24.65026521329874
 30
0.0
 10
6.592908296316378
 20
-24.68868377030554
 30
0.0
 10
6.645158330330852
 20
-24.72081760986769
 30
0.0
 10
6.698560396860596
 20
-24.74557727546954
 30
0.0
 10
6.752815232029898
 20
-24.76297208242889
 30
0.0
 10
6.807812481085742
 20
-24.77415156846393
 30
0.0
 10
6.844751602359755
 20
-24.77546398536893
 30
0.0
 10
6.863266225961477
 20
-24.77612179487188
 30
0.0
  0
SPLINE
  5
D4
330
1F
100
AcDbEntity
  8
0
  6
Continuous
 62
     7
370
    15
100
AcDbSpline
210
0.0
220
0.0
230
1.0
 70
     8
 71
     3
 72
    15
 73
    11
 74
     0
 42
0.000000001
 43
0.00000001
 40
0.0
 40
0.0
 40
0.0
 40
0.0
 40
0.1340420464623706
 40
0.2618956736507322
 40
0.3878360446911175
 40
0.5176862058208257
 40
0.6445086536782141
 40
0.7647182630567254
 40
0.8802907821584989
 40
1.0
 40
1.0
 40
1.0
 40
1.0
 10
6.863266225961477
 20
-24.77612179487188
 30
0.0
 10
6.88847702510635
 20
-24.77498188872325
 30
0.0
 10
6.937734697602222
 20
-24.77275470332453
 30
0.0
 10
7.008286323068733
 20
-24.75253388334497
 30
0.0
 10
7.073428621373083
 20
-24.72082701269045
 30
0.0
 10
7.129993272378951
 20
-24.67585301070849
 30
0.0
 10
7.178141676552397
 20
-24.62350245420746
 30
0.0
 10
7.213006950152145
 20
-24.56453398714638
 30
0.0
 10
7.234856841294329
 20
-24.50067823417327
 30
0.0
 10
7.237422996129069
 20
-24.45641303967394
 30
0.0
 10
7.238728632478571
 20
-24.4338913094285
 30
0.0
  0
SPLINE
  5
D5
330
1F
100
AcDbEntity
  8
0
  6
Continuous
 62
     7
370
    15
100
AcDbSpline
210
0.0
220
0.0
230
1.0
 70
     8
 71
     3
 72
    11
 73
     7
 74
     0
 42
0.000000001
 43
0.00000001
 40
0.0
 40
0.0
 40
0.0
 40
0.0
 40
0.253475434649867
 40
0.5004533151028995
 40
0.7455781350009854
 40
0.9999999999999999
 40
0.9999999999999999
 40
0.9999999999999999
 40
0.9999999999999999
 10
7.238728632478571
 20
-24.4338913094285
 30
0.0
 10
7.237825327007552
 20
-24.41533979914818
 30
0.0
 10
7.236041871272892
 20
-24.37871232543353
 30
0.0
 10
7.222035888540566
 20
-24.32570088112482
 30
0.0
 10
7.19990603460786
 20
-24.27541779474785
 30
0.0
 10
7.178115621661316
 20
-24.24598961784503
 30
0.0
 10
7.167017644898443
 20
-24.23100168603106
 30
0.0
  0
SPLINE
  5
D6
330
1F
100
AcDbEntity
  8
0
  6
Continuous
 62
     7
370
    15
100
AcDbSpline
210
0.0
220
0.0
230
1.0
 70
     8
 71
     3
 72
    15
 73
    11
 74
     0
 42
0.000000001
 43
0.00000001
 40
0.0
 40
0.0
 40
0.0
 40
0.0
 40
0.0768750740350471
 40
0.1674616757257262
 40
0.2722700232466401
 40
0.3895508405125191
 40
0.5208013683480573
 40
0.6662632933752253
 40
0.8255449152058629
 40
1.0
 40
1.0
 40
1.0
 40
1.0
 10
7.167017644898443
 20
-24.23100168603106
 30
0.0
 10
7.160346641913287
 20
-24.22348835214654
 30
0.0
 10
7.14581478808826
 20
-24.20712159740342
 30
0.0
 10
7.119159328535881
 20
-24.18348479075479
 30
0.0
 10
7.087242982408244
 20
-24.15800775235172
 30
0.0
 10
7.049706787398514
 20
-24.13112249654969
 30
0.0
 10
7.006475074108758
 20
-24.10318365631567
 30
0.0
 10
6.95737262344234
 20
-24.07433780804629
 30
0.0
 10
6.903072104448216
 20
-24.04321487178053
 30
0.0
 10
6.864679025905881
 20
-24.02257614647424
 30
0.0
 10
6.844609708867459
 20
-24.01178761017636
 30
0.0
  0
SPLINE
  5
D7
330
1F
100
AcDbEntity
  8
0
  6
Continuous
 62
     7
370
    15
100
AcDbSpline
210
0.0
220
0.0
230
1.0
 70
     8
 71
     3
 72
    15
 73
    11
 74
     0
 42
0.000000001
 43
0.00000001
 40
0.0
 40
0.0
 40
0.0
 40
0.0
 40
0.1577616635135507
 40
0.3059502132085409
 40
0.443775499000727
 40
0.5728243624015398
 40
0.6921541564432439
 40
0.8022957069908466
 40
0.9055643918329931
 40
0.9999999999999999
 40
0.9999999999999999
 40
0.9999999999999999
 40
0.9999999999999999
 10
6.84460970886746
 20
-24.01178761017637
 30
0.0
 10
6.822950687358496
 20
-23.99969762985791
 30
0.0
 10
6.780946932447617
 20
-23.97625129965489
 30
0.0
 10
6.721451953020601
 20
-23.93973298767817
 30
0.0
 10
6.667777754304177
 20
-23.90259002176852
 30
0.0
 10
6.618632812242184
 20
-23.8669059524638
 30
0.0
 10
6.575258452163975
 20
-23.83079936990744
 30
0.0
 10
6.537825547531806
 20
-23.79423019115741
 30
0.0
 10
6.504860325795695
 20
-23.75867322654266
 30
0.0
 10
6.486610007826341
 20
-23.73347958167908
 30
0.0
 10
6.477892544738186
 20
-23.72144556290072
 30
0.0
  0
SPLINE
  5
D8
330
1F
100
AcDbEntity
  8
0
  6
Continuous
 62
     7
370
    15
100
AcDbSpline
210
0.0
220
0.0
230
1.0
 70
     8
 71
     3
 72
    11
 73
     7
 74
     0
 42
0.000000001
 43
0.00000001
 40
0.0
 40
0.0
 40
0.0
 40
0.0
 40
0.2462523706929795
 40
0.4925907964763782
 40
0.7405699911180915
 40
1.0
 40
1.0
 40
1.0
 40
1.0
 10
6.477892544738186
 20
-23.72144556290072
 30
0.0
 10
6.462816087762075
 20
-23.69720959611212
 30
0.0
 10
6.432657905207303
 20
-23.64872919305985
 30
0.0
 10
6.403374796828845
 20
-23.56781089782489
 30
0.0
 10
6.383246331149467
 20
-23.4826229543195
 30
0.0
 10
6.381448200752716
 20
-23.42384346889006
 30
0.0
 10
6.380528846153784
 20
-23.39379048143705
 30
0.0
  0
SPLINE
  5
D9
330
1F
100
AcDbEntity
  8
0
  6
Continuous
 62
     7
370
    15
100
AcDbSpline
210
0.0
220
0.0
230
1.0
 70
     8
 71
     3
 72
    31
 73
    27
 74
     0
 42
0.000000001
 43
0.00000001
 40
0.0
 40
0.0
 40
0.0
 40
0.0
 40
0.0412914469532473
 40
0.0821355032144641
 40
0.1226360352259631
 40
0.162830869755124
 40
0.2030066005770554
 40
0.2435260831621618
 40
0.2841729362467873
 40
0.3254098107964584
 40
0.3668546660987568
 40
0.407550595165851
 40
0.4481873740566105
 40
0.4886828510840631
 40
0.5290149651896819
 40
0.5698427286954864
 40
0.6113702381646687
 40
0.6532377352823788
 40
0.6954461190732804
 40
0.7377513945470104
 40
0.7800433605771132
 40
0.8228070703900522
 40
0.8659781422330309
 40
0.9095950301662465
 40
0.954231404704788
 40
1.0
 40
1.0
 40
1.0
 40
1.0
 10
3.768616452991375
 20
-23.95406901041675
 30
0.0
 10
3.768983178909674
 20
-23.92897420501625
 30
0.0
 10
3.769712657289916
 20
-23.87905649513378
 30
0.0
 10
3.778079629344096
 20
-23.80496970456593
 30
0.0
 10
3.788888478563443
 20
-23.73186956300414
 30
0.0
 10
3.807203927783732
 20
-23.66068266780763
 30
0.0
 10
3.828359024476487
 20
-23.59032934029165
 30
0.0
 10
3.855363975609944
 20
-23.52165755902897
 30
0.0
 10
3.887042110550621
 20
-23.45434820906316
 30
0.0
 10
3.923008164347195
 20
-23.38857468033979
 30
0.0
 10
3.963495174417276
 20
-23.32541902161355
 30
0.0
 10
4.008299985637679
 20
-23.26575243259902
 30
0.0
 10
4.055735067600905
 20
-23.20885813952024
 30
0.0
 10
4.108019548860064
 20
-23.15670034567295
 30
0.0
 10
4.162934665778418
 20
-23.10719316756763
 30
0.0
 10
4.222034065327099
 20
-23.0616591796571
 30
0.0
 10
4.284978770547169
 20
-23.01996455799888
 30
0.0
 10
4.350823473906043
 20
-22.98133832670693
 30
0.0
 10
4.419529855887861
 20
-22.94694598693667
 30
0.0
 10
4.490682616883133
 20
-22.91731525283661
 30
0.0
 10
4.563853010843306
 20
-22.89199248586626
 30
0.0
 10
4.639158083126491
 20
-22.87194477147272
 30
0.0
 10
4.716098002097253
 20
-22.85513302122986
 30
0.0
 10
4.795279078954339
 20
-22.84455752640516
 30
0.0
 10
4.876398397106541
 20
-22.83708501255386
 30
0.0
 10
4.931327125518001
 20
-22.83626112168344
 30
0.0
 10
4.95913545005334
 20
-22.8358440170941
 30
0.0
  0
SPLINE
  5
DA
330
1F
100
AcDbEntity
  8
0
  6
Continuous
 62
     7
370
    15
100
AcDbSpline
210
0.0
220
0.0
230
1.0
 70
     8
 71
     3
 72
    19
 73
    15
 74
     0
 42
0.000000001
 43
0.00000001
 40
0.0
 40
0.0
 40
0.0
 40
0.0
 40
0.0912688044343261
 40
0.1820814045527836
 40
0.2719096545272038
 40
0.362049458505355
 40
0.4500663484251175
 40
0.5339764739707168
 40
0.6136024537413247
 40
0.6901976142648829
 40
0.7654128769004128
 40
0.8414365506928784
 40
0.9197327486057716
 40
0.9999999999999999
 40
0.9999999999999999
 40
0.9999999999999999
 40
0.9999999999999999
 10
4.959135450053341
 20
-22.8358440170941
 30
0.0
 10
4.993960754184301
 20
-22.83661061341314
 30
0.0
 10
5.063437289233098
 20
-22.83813997424307
 30
0.0
 10
5.166499888757969
 20
-22.85101121064366
 30
0.0
 10
5.268044487461986
 20
-22.87041655214691
 30
0.0
 10
5.366289430069743
 20
-22.89916550642702
 30
0.0
 10
5.460043525706156
 20
-22.93397712966669
 30
0.0
 10
5.547801278039536
 20
-22.97307044037334
 30
0.0
 10
5.627496888222109
 20
-23.01846845285711
 30
0.0
 10
5.700612865619138
 20
-23.06812857179367
 30
0.0
 10
5.767285952369351
 20
-23.12414237256428
 30
0.0
 10
5.828200551254872
 20
-23.18717946750277
 30
0.0
 10
5.884605797651111
 20
-23.2569117861134
 30
0.0
 10
5.91658438448867
 20
-23.30830619480734
 30
0.0
 10
5.932772435897357
 20
-23.33432283319987
 30
0.0
  0
LINE
  5
DB
330
1F
100
AcDbEntity
  8
0
  6
Continuous
 62
     7
370
    15
100
AcDbLine
 10
5.9327724359
 20
-23.3343228332
 30
0.0
 11
5.7141413762
 21
-23.4701655983
 31
0.0
  0
SPLINE
  5
DC
330
1F
100
AcDbEntity
  8
0
  6
Continuous
 62
     7
370
    15
100
AcDbSpline
210
0.0
220
0.0
230
1.0
 70
     8
 71
     3
 72
    15
 73
    11
 74
     0
 42
0.000000001
 43
0.00000001
 40
0.0
 40
0.0
 40
0.0
 40
0.0
 40
0.1283242377690993
 40
0.2525844750621366
 40
0.3735064833109019
 40
0.4933644513855714
 40
0.6146085973434222
 40
0.7384702442356696
 40
0.8659947178700196
 40
1.0
 40
1.0
 40
1.0
 40
1.0
 10
5.714141376201844
 20
-23.47016559829068
 30
0.0
 10
5.690167970289333
 20
-23.44037258269998
 30
0.0
 10
5.642980390973575
 20
-23.38173008979046
 30
0.0
 10
5.561040323606281
 20
-23.30605099646751
 30
0.0
 10
5.473718332138376
 20
-23.24105137899662
 30
0.0
 10
5.379522241270813
 20
-23.18807867656746
 30
0.0
 10
5.278584168251209
 20
-23.14714869670649
 30
0.0
 10
5.171302175871877
 20
-23.11818572224957
 30
0.0
 10
5.057691562567658
 20
-23.10013761080197
 30
0.0
 10
4.979804489322043
 20
-23.09808631847991
 30
0.0
 10
4.939895916800135
 20
-23.09703525641034
 30
0.0
  0
SPLINE
  5
DD
330
1F
100
AcDbEntity
  8
0
  6
Continuous
 62
     7
370
    15
100
AcDbSpline
210
0.0
220
0.0
230
1.0
 70
     8
 71
     3
 72
    23
 73
    19
 74
     0
 42
0.000000001
 43
0.00000001
 40
0.0
 40
0.0
 40
0.0
 40
0.0
 40
0.0695216413260459
 40
0.1369209822612554
 40
0.2019692428653322
 40
0.2654615503849179
 40
0.3282478845128383
 40
0.3908167166700983
 40
0.4535501756793825
 40
0.5175419816323167
 40
0.5807383719174795
 40
0.6419215091741681
 40
0.701596724408931
 40
0.7603128802455004
 40
0.8187565130146944
 40
0.877718079536196
 40
0.9380940530276959
 40
1.0
 40
1.0
 40
1.0
 40
1.0
 10
4.939895916800135
 20
-23.09703525641034
 30
0.0
 10
4.907998617511172
 20
-23.09791407103353
 30
0.0
 10
4.845177753866084
 20
-23.09964487253846
 30
0.0
 10
4.752954006029761
 20
-23.11046371730711
 30
0.0
 10
4.665107358811905
 20
-23.13012317302393
 30
0.0
 10
4.581087197898353
 20
-23.1560266768925
 30
0.0
 10
4.501491111774511
 20
-23.19074403108688
 30
0.0
 10
4.426110556375153
 20
-23.23299476281331
 30
0.0
 10
4.354276907843959
 20
-23.28209768323809
 30
0.0
 10
4.288071796145735
 20
-23.33898430938192
 30
0.0
 10
4.227511008709131
 20
-23.40085034432536
 30
0.0
 10
4.175041256975194
 20
-23.46716933981427
 30
0.0
 10
4.129358580980471
 20
-23.53595486839508
 30
0.0
 10
4.093513925619827
 20
-23.60892462070692
 30
0.0
 10
4.064180941598745
 20
-23.6844092316591
 30
0.0
 10
4.044883448682828
 20
-23.7638335509372
 30
0.0
 10
4.032023818032883
 20
-23.8461800548559
 30
0.0
 10
4.030552537033502
 20
-23.90232476950234
 30
0.0
 10
4.029807692307614
 20
-23.93074836404923
 30
0.0
  0
SPLINE
  5
DE
330
1F
100
AcDbEntity
  8
0
  6
Continuous
 62
     7
370
    15
100
AcDbSpline
210
0.0
220
0.0
230
1.0
 70
     8
 71
     3
 72
    19
 73
    15
 74
     0
 42
0.000000001
 43
0.00000001
 40
0.0
 40
0.0
 40
0.0
 40
0.0
 40
0.080525242352541
 40
0.1599654769449853
 40
0.2403213612945774
 40
0.3225285276294007
 40
0.4050235832074835
 40
0.4865966363996181
 40
0.5678654736293196
 40
0.6513327733845233
 40
0.7362375672940284
 40
0.821529069009538
 40
0.9090049060738453
 40
1.0
 40
1.0
 40
1.0
 40
1.0
 10
4.029807692307614
 20
-23.93074836404923
 30
0.0
 10
4.031287225247731
 20
-23.96797609488883
 30
0.0
 10
4.034226355705552
 20
-24.04192994520155
 30
0.0
 10
4.057261438565229
 20
-24.15109393816514
 30
0.0
 10
4.094967472505905
 20
-24.25663703068227
 30
0.0
 10
4.146571530463604
 20
-24.35780988042113
 30
0.0
 10
4.211829004733826
 20
-24.4514372821525
 30
0.0
 10
4.288474880286431
 20
-24.53540983320966
 30
0.0
 10
4.376551641781237
 20
-24.60810042334549
 30
0.0
 10
4.47528322872873
 20
-24.66836477902145
 30
0.0
 10
4.58235142372301
 20
-24.71681188054165
 30
0.0
 10
4.69659783820688
 20
-24.7513272043753
 30
0.0
 10
4.817088905637125
 20
-24.77215944512466
 30
0.0
 10
4.899584039973393
 20
-24.7747837620437
 30
0.0
 10
4.941644965277699
 20
-24.77612179487188
 30
0.0
  0
SPLINE
  5
DF
330
1F
100
AcDbEntity
  8
0
  6
Continuous
 62
     7
370
    15
100
AcDbSpline
210
0.0
220
0.0
230
1.0
 70
     8
 71
     3
 72
    15
 73
    11
 74
     0
 42
0.000000001
 43
0.00000001
 40
0.0
 40
0.0
 40
0.0
 40
0.0
 40
0.1299810785766151
 40
0.2554473120268492
 40
0.377298344718116
 40
0.4984417785420233
 40
0.6193721253366247
 40
0.741856501957812
 40
0.8685636891457529
 40
0.9999999999999999
 40
0.9999999999999999
 40
0.9999999999999999
 40
0.9999999999999999
 10
4.941644965277699
 20
-24.77612179487188
 30
0.0
 10
4.980191508477818
 20
-24.77504120107269
 30
0.0
 10
5.055945694827277
 20
-24.77291754750389
 30
0.0
 10
5.166680633662273
 20
-24.755015189308
 30
0.0
 10
5.272104166672473
 20
-24.72570842969162
 30
0.0
 10
5.372212546859176
 20
-24.68483981831216
 30
0.0
 10
5.466822846847626
 20
-24.63201366371986
 30
0.0
 10
5.555323773848212
 20
-24.56685428180073
 30
0.0
 10
5.639476341571416
 20
-24.49123616832198
 30
0.0
 10
5.688950910788794
 20
-24.43276342671951
 30
0.0
 10
5.714141376201844
 20
-24.40299145299154
 30
0.0
  0
LINE
  5
E0
330
1F
100
AcDbEntity
  8
0
  6
Continuous
 62
     7
370
    15
100
AcDbLine
 10
5.7141413762
 20
-24.402991453
 30
0.0
 11
5.9327724359
 21
-24.5464134282
 31
0.0
  0
SPLINE
  5
E1
330
1F
100
AcDbEntity
  8
0
  6
Continuous
 62
     7
370
    15
100
AcDbSpline
210
0.0
220
0.0
230
1.0
 70
     8
 71
     3
 72
    23
 73
    19
 74
     0
 42
0.000000001
 43
0.00000001
 40
0.0
 40
0.0
 40
0.0
 40
0.0
 40
0.0596333961362501
 40
0.1190688615049889
 40
0.1781965462156696
 40
0.2369566475521789
 40
0.2959319880758023
 40
0.3558557687429114
 40
0.4164733051171468
 40
0.4777415997317962
 40
0.5399029904536086
 40
0.6025375151243935
 40
0.6654223850767752
 40
0.7297652560446459
 40
0.794828770841605
 40
0.8618265399701647
 40
0.930010932434066
 40
1.0
 40
1.0
 40
1.0
 40
1.0
 10
5.932772435897357
 20
-24.54641342815179
 30
0.0
 10
5.919810519231645
 20
-24.56544815761832
 30
0.0
 10
5.893929708137428
 20
-24.6034544378821
 30
0.0
 10
5.850666260066421
 20
-24.65704278966014
 30
0.0
 10
5.80399994763098
 20
-24.70720314095554
 30
0.0
 10
5.75411283075577
 20
-24.75386825465217
 30
0.0
 10
5.701656304131209
 20
-24.79815483372448
 30
0.0
 10
5.644838393592396
 20
-24.8379456965774
 30
0.0
 10
5.585491163107269
 20
-24.87547745094294
 30
0.0
 10
5.522917905166771
 20
-24.90924898812604
 30
0.0
 10
5.457765568783389
 20
-24.93960573288614
 30
0.0
 10
5.390125830990621
 20
-24.96570898615697
 30
0.0
 10
5.320292617682087
 20
-24.9881359135082
 30
0.0
 10
5.2481838215381
 20
-25.00596208817597
 30
0.0
 10
5.173657282288982
 20
-25.02019056517433
 30
0.0
 10
5.096905741044296
 20
-25.02963170867733
 30
0.0
 10
5.01795563181919
 20
-25.03667930851284
 30
0.0
 10
4.96459343218944
 20
-25.03709996092456
 30
0.0
 10
4.937563852163383
 20
-25.03731303418812
 30
0.0
  0
SPLINE
  5
E2
330
1F
100
AcDbEntity
  8
0
  6
Continuous
 62
     7
370
    15
100
AcDbSpline
210
0.0
220
0.0
230
1.0
 70
     8
 71
     3
 72
    23
 73
    19
 74
     0
 42
0.000000001
 43
0.00000001
 40
0.0
 40
0.0
 40
0.0
 40
0.0
 40
0.0695585437274133
 40
0.1363352505575721
 40
0.2010957661175483
 40
0.2644499547795249
 40
0.3270049911572458
 40
0.3893913874403773
 40
0.4519764903030331
 40
0.5156699828847834
 40
0.5789732464632442
 40
0.640167028800425
 40
0.6997398434247564
 40
0.7586849854260634
 40
0.8178204012911086
 40
0.8769839874813289
 40
0.9376342848620921
 40
1.0
 40
1.0
 40
1.0
 40
1.0
 10
4.937563852163383
 20
-25.03731303418812
 30
0.0
 10
4.896310039957658
 20
-25.03657189259248
 30
0.0
 10
4.815452268616682
 20
-25.03511924968587
 30
0.0
 10
4.697104326273225
 20
-25.01914648770149
 30
0.0
 10
4.584002485145696
 20
-24.99506685083174
 30
0.0
 10
4.476185386289586
 20
-24.96050462685749
 30
0.0
 10
4.373636244477015
 20
-24.91601285838424
 30
0.0
 10
4.276450681270276
 20
-24.86166547167023
 30
0.0
 10
4.184950492329583
 20
-24.79701115589977
 30
0.0
 10
4.100040514038462
 20
-24.72320068636957
 30
0.0
 10
4.02205677578177
 20
-24.6431720105149
 30
0.0
 10
3.955095413923948
 20
-24.55681585851994
 30
0.0
 10
3.897015745439986
 20
-24.46730720147515
 30
0.0
 10
3.850376282540506
 20
-24.37266916106956
 30
0.0
 10
3.813250237163719
 20
-24.2741595625837
 30
0.0
 10
3.787884016266645
 20
-24.17098924996693
 30
0.0
 10
3.771477799842698
 20
-24.06400877442057
 30
0.0
 10
3.769579061037465
 20
-23.9910547052361
 30
0.0
 10
3.768616452991375
 20
-23.95406901041675
 30
0.0
  0
LINE
  5
E3
330
1F
100
AcDbEntity
  8
0
  6
Continuous
 62
     7
370
    15
100
AcDbLine
 10
3.2089209402
 20
-25.0
 30
0.0
 11
2.9477297009
 21
-25.0
 31
0.0
  0
LINE
  5
E4
330
1F
100
AcDbEntity
  8
0
  6
Continuous
 62
     7
370
    15
100
AcDbLine
 10
2.9477297009
 20
-25.0
 30
0.0
 11
2.9477297009
 21
-22.8731570513
 31
0.0
  0
LINE
  5
E5
330
1F
100
AcDbEntity
  8
0
  6
Continuous
 62
     7
370
    15
100
AcDbLine
 10
2.9477297009
 20
-22.8731570513
 30
0.0
 11
3.2089209402
 21
-22.8731570513
 31
0.0
  0
LINE
  5
E6
330
1F
100
AcDbEntity
  8
0
  6
Continuous
 62
     7
370
    15
100
AcDbLine
 10
3.2089209402
 20
-22.8731570513
 30
0.0
 11
3.2089209402
 21
-25.0
 31
0.0
  0
SPLINE
  5
E7
330
1F
100
AcDbEntity
  8
0
  6
Continuous
 62
     7
370
    15
100
AcDbSpline
210
0.0
220
0.0
230
1.0
 70
     8
 71
     3
 72
    15
 73
    11
 74
     0
 42
0.000000001
 43
0.00000001
 40
0.0
 40
0.0
 40
0.0
 40
0.0
 40
0.1318667517023319
 40
0.2566614034533646
 40
0.3842132129425028
 40
0.5133652331525852
 40
0.6404431518253958
 40
0.7610850047778878
 40
0.8791455246531603
 40
0.9999999999999999
 40
0.9999999999999999
 40
0.9999999999999999
 40
0.9999999999999999
 10
3.077159288194393
 20
-22.42540064102572
 30
0.0
 10
3.061136799856343
 20
-22.42467742724615
 30
0.0
 10
3.029951119686242
 20
-22.42326978611397
 30
0.0
 10
2.984742501381414
 20
-22.41032257493679
 30
0.0
 10
2.943307739665662
 20
-22.38918789986452
 30
0.0
 10
2.906166937461094
 20
-22.36072719713952
 30
0.0
 10
2.875208259005388
 20
-22.32667956533603
 30
0.0
 10
2.852674711041695
 20
-22.28815621443223
 30
0.0
 10
2.838476067140377
 20
-22.24640491145524
 30
0.0
 10
2.836692706322096
 20
-22.21737378268509
 30
0.0
 10
2.835790598290547
 20
-22.2026884682159
 30
0.0
  0
SPLINE
  5
E8
330
1F
100
AcDbEntity
  8
0
  6
Continuous
 62
     7
370
    15
100
AcDbSpline
210
0.0
220
0.0
230
1.0
 70
     8
 71
     3
 72
    15
 73
    11
 74
     0
 42
0.000000001
 43
0.00000001
 40
0.0
 40
0.0
 40
0.0
 40
0.0
 40
0.1232898687277995
 40
0.2421490813339749
 40
0.3634374760537305
 40
0.489745393341373
 40
0.6181148445930085
 40
0.7448937812572475
 40
0.8689322665891843
 40
1.0
 40
1.0
 40
1.0
 40
1.0
 10
2.835790598290547
 20
-22.2026884682159
 30
0.0
 10
2.836672942340388
 20
-22.18761180339744
 30
0.0
 10
2.838405921727047
 20
-22.15800028241002
 30
0.0
 10
2.852685354015984
 20
-22.11551232944381
 30
0.0
 10
2.875020563208458
 20
-22.07644497348013
 30
0.0
 10
2.906187436575305
 20
-22.04233031711223
 30
0.0
 10
2.943302284193017
 20
-22.01385360736675
 30
0.0
 10
2.984743910977339
 20
-21.99272316620095
 30
0.0
 10
3.029950747305846
 20
-21.97977485602223
 30
0.0
 10
3.061136673470153
 20
-21.97836736660251
 30
0.0
 10
3.077159288194393
 20
-21.97764423076931
 30
0.0
  0
SPLINE
  5
E9
330
1F
100
AcDbEntity
  8
0
  6
Continuous
 62
     7
370
    15
100
AcDbSpline
210
0.0
220
0.0
230
1.0
 70
     8
 71
     3
 72
    15
 73
    11
 74
     0
 42
0.000000001
 43
0.00000001
 40
0.0
 40
0.0
 40
0.0
 40
0.0
 40
0.1318992643310799
 40
0.2582840923169749
 40
0.3843411247791014
 40
0.5119796151257191
 40
0.6386320084211461
 40
0.7592297631645821
 40
0.8774121680352004
 40
1.0
 40
1.0
 40
1.0
 40
1.0
 10
3.077159288194393
 20
-21.97764423076931
 30
0.0
 10
3.093367245430125
 20
-21.97839607654124
 30
0.0
 10
3.125105538620565
 20
-21.97986833496323
 30
0.0
 10
3.171001368944227
 20
-21.99247582512919
 30
0.0
 10
3.212792467675918
 20
-22.01384633737084
 30
0.0
 10
3.249860975323021
 20
-22.04251783392925
 30
0.0
 10
3.28166924061666
 20
-22.07623662709149
 30
0.0
 10
3.303938676565737
 20
-22.11553637275129
 30
0.0
 10
3.318251603573493
 20
-22.15799406226796
 30
0.0
 10
3.319980021265602
 20
-22.18760970487867
 30
0.0
 10
3.320860042734992
 20
-22.2026884682159
 30
0.0
  0
SPLINE
  5
EA
330
1F
100
AcDbEntity
  8
0
  6
Continuous
 62
     7
370
    15
100
AcDbSpline
210
0.0
220
0.0
230
1.0
 70
     8
 71
     3
 72
    15
 73
    11
 74
     0
 42
0.000000001
 43
0.00000001
 40
0.0
 40
0.0
 40
0.0
 40
0.0
 40
0.1201621349925918
 40
0.2375463202768733
 40
0.357497050927352
 40
0.4849171224652668
 40
0.6133292680851243
 40
0.7401503701286893
 40
0.867301254563262
 40
1.0
 40
1.0
 40
1.0
 40
1.0
 10
3.320860042734991
 20
-22.2026884682159
 30
0.0
 10
3.319960175309211
 20
-22.21737580539983
 30
0.0
 10
3.31818124390337
 20
-22.24641093283763
 30
0.0
 10
3.303949731946739
 20
-22.28813256406216
 30
0.0
 10
3.281479454407455
 20
-22.32688624503018
 30
0.0
 10
3.249881371967159
 20
-22.36053956774834
 30
0.0
 10
3.212787062967366
 20
-22.38919521425236
 30
0.0
 10
3.171002804733686
 20
-22.41056992868708
 30
0.0
 10
3.125105160939159
 20
-22.42317630481798
 30
0.0
 10
3.093367117757074
 20
-22.42464871682284
 30
0.0
 10
3.077159288194393
 20
-22.42540064102572
 30
0.0
  0
LINE
  5
EB
330
1F
100
AcDbEntity
  8
0
  6
Continuous
 62
     7
370
    15
100
AcDbLine
 10
0.7835737179
 20
-25.0
 30
0.0
 11
0.5223824786
 21
-25.0
 31
0.0
  0
LINE
  5
EC
330
1F
100
AcDbEntity
  8
0
  6
Continuous
 62
     7
370
    15
100
AcDbLine
 10
0.5223824786
 20
-25.0
 30
0.0
 11
0.5223824786
 21
-22.8731570513
 31
0.0
  0
LINE
  5
ED
330
1F
100
AcDbEntity
  8
0
  6
Continuous
 62
     7
370
    15
100
AcDbLine
 10
0.5223824786
 20
-22.8731570513
 30
0.0
 11
0.7835737179
 21
-22.8731570513
 31
0.0
  0
LINE
  5
EE
330
1F
100
AcDbEntity
  8
0
  6
Continuous
 62
     7
370
    15
100
AcDbLine
 10
0.7835737179
 20
-22.8731570513
 30
0.0
 11
0.7835737179
 21
-23.256781684
 31
0.0
  0
SPLINE
  5
EF
330
1F
100
AcDbEntity
  8
0
  6
Continuous
 62
     7
370
    15
100
AcDbSpline
210
0.0
220
0.0
230
1.0
 70
     8
 71
     3
 72
    15
 73
    11
 74
     0
 42
0.000000001
 43
0.00000001
 40
0.0
 40
0.0
 40
0.0
 40
0.0
 40
0.140975966268772
 40
0.27356878096317
 40
0.3989883138042534
 40
0.5199297813924313
 40
0.6381100215247444
 40
0.7565889007405946
 40
0.8768597544106074
 40
1.0
 40
1.0
 40
1.0
 40
1.0
 10
0.78357371794866
 20
-23.25678168402786
 30
0.0
 10
0.8114618585912572
 20
-23.22198746747776
 30
0.0
 10
0.865579768479382
 20
-23.15446807634955
 30
0.0
 10
0.955706502756617
 20
-23.06572483667073
 30
0.0
 10
1.050955210346313
 20
-22.99259419417813
 30
0.0
 10
1.150742590627005
 20
-22.93429955123752
 30
0.0
 10
1.255204105573195
 20
-22.89035506508891
 30
0.0
 10
1.363703000298459
 20
-22.85861827596588
 30
0.0
 10
1.476888860063138
 20
-22.83958845128144
 30
0.0
 10
1.553860597153813
 20
-22.83710193239547
 30
0.0
 10
1.592800146901651
 20
-22.8358440170941
 30
0.0
  0
SPLINE
  5
F0
330
1F
100
AcDbEntity
  8
0
  6
Continuous
 62
     7
370
    15
100
AcDbSpline
210
0.0
220
0.0
230
1.0
 70
     8
 71
     3
 72
    23
 73
    19
 74
     0
 42
0.000000001
 43
0.00000001
 40
0.0
 40
0.0
 40
0.0
 40
0.0
 40
0.0772404236164787
 40
0.1511781404663827
 40
0.2234879838003992
 40
0.2955426441988699
 40
0.36697625461979
 40
0.4371305254863864
 40
0.5070436156432686
 40
0.578559733523678
 40
0.6166135446965526
 40
0.6587562369775279
 40
0.7044912261144027
 40
0.7548031149051502
 40
0.8093316253185644
 40
0.8682744554728192
 40
0.9320728834092922
 40
0.9999999999999999
 40
0.9999999999999999
 40
0.9999999999999999
 40
0.9999999999999999
 10
1.592800146901651
 20
-22.8358440170941
 30
0.0
 10
1.632157823009281
 20
-22.837295230208
 30
0.0
 10
1.709190288762878
 20
-22.84013560432438
 30
0.0
 10
1.821347819566888
 20
-22.86260126949233
 30
0.0
 10
1.926100695150477
 20
-22.90097324652158
 30
0.0
 10
2.023075409100452
 20
-22.9535370931603
 30
0.0
 10
2.110493693069268
 20
-23.01890211896097
 30
0.0
 10
2.1872662034932
 20
-23.09505340534045
 30
0.0
 10
2.250765880032775
 20
-23.18264537455482
 30
0.0
 10
2.293338925336701
 20
-23.26390683244919
 30
0.0
 10
2.321383407374982
 20
-23.33599269292484
 30
0.0
 10
2.339039107081415
 20
-23.39773240119156
 30
0.0
 10
2.354032726783049
 20
-23.46651648284823
 30
0.0
 10
2.367031269628717
 20
-23.54213708160358
 30
0.0
 10
2.375826641818484
 20
-23.62512402909319
 30
0.0
 10
2.382763654478721
 20
-23.71513713968719
 30
0.0
 10
2.38773522347917
 20
-23.81214725653382
 30
0.0
 10
2.387932472384223
 20
-23.8792420294455
 30
0.0
 10
2.38803418803413
 20
-23.91384089543277
 30
0.0
  0
LINE
  5
F1
330
1F
100
AcDbEntity
  8
0
  6
Continuous
 62
     7
370
    15
100
AcDbLine
 10
2.388034188
 20
-23.9138408954
 30
0.0
 11
2.388034188
 21
-25.0
 31
0.0
  0
LINE
  5
F2
330
1F
100
AcDbEntity
  8
0
  6
Continuous
 62
     7
370
    15
100
AcDbLine
 10
2.388034188
 20
-25.0
 30
0.0
 11
2.1268429487
 21
-25.0
 31
0.0
  0
LINE
  5
F3
330
1F
100
AcDbEntity
  8
0
  6
Continuous
 62
     7
370
    15
100
AcDbLine
 10
2.1268429487
 20
-25.0
 30
0.0
 11
2.1268429487
 21
-23.9995442708
 31
0.0
  0
SPLINE
  5
F4
330
1F
100
AcDbEntity
  8
0
  6
Continuous
 62
     7
370
    15
100
AcDbSpline
210
0.0
220
0.0
230
1.0
 70
     8
 71
     3
 72
    15
 73
    11
 74
     0
 42
0.000000001
 43
0.00000001
 40
0.0
 40
0.0
 40
0.0
 40
0.0
 40
0.1788500194111614
 40
0.3421096489423011
 40
0.4898256633683926
 40
0.6232544282245673
 40
0.7400796760857916
 40
0.8414826730699869
 40
0.9289076721840656
 40
1.0
 40
1.0
 40
1.0
 40
1.0
 10
2.12684294871789
 20
-23.99954427083341
 30
0.0
 10
2.126682287049755
 20
-23.97058774966349
 30
0.0
 10
2.126374968621356
 20
-23.91519885272823
 30
0.0
 10
2.12540567789618
 20
-23.8358949685634
 30
0.0
 10
2.123069189905499
 20
-23.763977260213
 30
0.0
 10
2.11978597970091
 20
-23.69961766362647
 30
0.0
 10
2.114980440623906
 20
-23.64287797929373
 30
0.0
 10
2.109972335864413
 20
-23.5936426461963
 30
0.0
 10
2.103848006944571
 20
-23.55197417549472
 30
0.0
 10
2.098390632151348
 20
-23.52689047306066
 30
0.0
 10
2.095943092280924
 20
-23.51564085870735
 30
0.0
  0
SPLINE
  5
F5
330
1F
100
AcDbEntity
  8
0
  6
Continuous
 62
     7
370
    15
100
AcDbSpline
210
0.0
220
0.0
230
1.0
 70
     8
 71
     3
 72
    15
 73
    11
 74
     0
 42
0.000000001
 43
0.00000001
 40
0.0
 40
0.0
 40
0.0
 40
0.0
 40
0.1355195283706044
 40
0.2608331631936787
 40
0.3784760291245028
 40
0.4931776464746774
 40
0.6092809649289389
 40
0.7299810378566456
 40
0.8592613089300661
 40
1.0
 40
1.0
 40
1.0
 40
1.0
 10
2.095943092280924
 20
-23.51564085870735
 30
0.0
 10
2.087107456855725
 20
-23.48261911741457
 30
0.0
 10
2.070101592354203
 20
-23.41906248215235
 30
0.0
 10
2.028080179005499
 20
-23.33285232107369
 30
0.0
 10
1.975015648910287
 20
-23.25951132797991
 30
0.0
 10
1.910239877741753
 20
-23.19949294696249
 30
0.0
 10
1.834378557105087
 20
-23.15278422144052
 30
0.0
 10
1.747642200886834
 20
-23.12037552218237
 30
0.0
 10
1.650867819327768
 20
-23.10010549356875
 30
0.0
 10
1.58280200230702
 20
-23.09808721772029
 30
0.0
 10
1.547324886484985
 20
-23.09703525641034
 30
0.0
  0
SPLINE
  5
F6
330
1F
100
AcDbEntity
  8
0
  6
Continuous
 62
     7
370
    15
100
AcDbSpline
210
0.0
220
0.0
230
1.0
 70
     8
 71
     3
 72
    23
 73
    19
 74
     0
 42
0.000000001
 43
0.00000001
 40
0.0
 40
0.0
 40
0.0
 40
0.0
 40
0.0639861098164668
 40
0.1266268580894772
 40
0.1889843719814865
 40
0.2502301939603979
 40
0.3123511629623218
 40
0.3745736184579377
 40
0.4381475308782034
 40
0.5029204126073695
 40
0.5679740951402704
 40
0.6307713337491889
 40
0.6929346089254592
 40
0.7543975343123278
 40
0.8152183520172945
 40
0.8761169254810901
 40
0.938014604793954
 40
1.0
 40
1.0
 40
1.0
 40
1.0
 10
1.547324886484985
 20
-23.09703525641034
 30
0.0
 10
1.526313604344507
 20
-23.09743107695496
 30
0.0
 10
1.484732819866255
 20
-23.09821439558577
 30
0.0
 10
1.42307358727525
 20
-23.10607359995371
 30
0.0
 10
1.36326521231715
 20
-23.11892804190068
 30
0.0
 10
1.304707455194707
 20
-23.13628130772585
 30
0.0
 10
1.248571510047176
 20
-23.16011534945449
 30
0.0
 10
1.19305382267889
 20
-23.18716506981412
 30
0.0
 10
1.140244924173315
 20
-23.22088283894717
 30
0.0
 10
1.089018765965881
 20
-23.25846099260868
 30
0.0
 10
1.041360437220954
 20
-23.30010423811763
 30
0.0
 10
0.9970153843878067
 20
-23.34404696471498
 30
0.0
 10
0.9574852568337688
 20
-23.39084280906211
 30
0.0
 10
0.921671602446076
 20
-23.43973776543002
 30
0.0
 10
0.8907561060541309
 20
-23.49140334738357
 30
0.0
 10
0.8637698179451706
 20
-23.54534110699719
 30
0.0
 10
0.8408725765022838
 20
-23.60162203670371
 30
0.0
 10
0.8294947661568202
 20
-23.64068403702476
 30
0.0
 10
0.8238018329326344
 20
-23.66022886618598
 30
0.0
  0
SPLINE
  5
F7
330
1F
100
AcDbEntity
  8
0
  6
Continuous
 62
     7
370
    15
100
AcDbSpline
210
0.0
220
0.0
230
1.0
 70
     8
 71
     3
 72
    15
 73
    11
 74
     0
 42
0.000000001
 43
0.00000001
 40
0.0
 40
0.0
 40
0.0
 40
0.0
 40
0.0769954547170594
 40
0.1676150771831704
 40
0.2710523936342337
 40
0.3894595025720735
 40
0.5208428024655769
 40
0.6663987586080746
 40
0.8260936125153163
 40
1.0
 40
1.0
 40
1.0
 40
1.0
 10
0.8238018329326344
 20
-23.66022886618598
 30
0.0
 10
0.8205258275396345
 20
-23.67457738920163
 30
0.0
 10
0.8133941351713257
 20
-23.70581337321615
 30
0.0
 10
0.8056913600148812
 20
-23.75707364338296
 30
0.0
 10
0.7987000607076553
 20
-23.81637128330204
 30
0.0
 10
0.7928484945230425
 20
-23.88363709694906
 30
0.0
 10
0.7892683357079263
 20
-23.95910659191289
 30
0.0
 10
0.7853647212479284
 20
-24.04245746418203
 30
0.0
 10
0.783943555587369
 20
-24.13402207324956
 30
0.0
 10
0.7837004493001594
 20
-24.197769921307
 30
0.0
 10
0.7835737179486602
 20
-24.23100168603107
 30
0.0
  0
LINE
  5
F8
330
1F
100
AcDbEntity
  8
0
  6
Continuous
 62
     7
370
    15
100
AcDbLine
 10
0.7835737179
 20
-24.231001686
 30
0.0
 11
0.7835737179
 21
-25.0
 31
0.0
  0
SPLINE
  5
F9
330
1F
100
AcDbEntity
  8
0
  6
Continuous
 62
     7
370
    15
100
AcDbSpline
210
0.0
220
0.0
230
1.0
 70
     8
 71
     3
 72
    15
 73
    11
 74
     0
 42
0.000000001
 43
0.00000001
 40
0.0
 40
0.0
 40
0.0
 40
0.0
 40
0.1289191318119622
 40
0.2552377249249068
 40
0.3786785959785498
 40
0.5010878871851299
 40
0.6227136794297773
 40
0.7462407949383828
 40
0.8715890472316706
 40
1.0
 40
1.0
 40
1.0
 40
1.0
 10
-2.201469017094078
 20
-23.94240868723299
 30
0.0
 10
-2.200534931044058
 20
-23.90680469043989
 30
0.0
 10
-2.198685601197195
 20
-23.83631489569819
 30
0.0
 10
-2.185114320734806
 20
-23.73243209585911
 30
0.0
 10
-2.162364378229566
 20
-23.6320664693572
 30
0.0
 10
-2.130157377725378
 20
-23.53566891581599
 30
0.0
 10
-2.088983138632959
 20
-23.44273894906158
 30
0.0
 10
-2.038789853360323
 20
-23.35342671758069
 30
0.0
 10
-1.979092523801344
 20
-23.26778745730162
 30
0.0
 10
-1.933189472437851
 20
-23.21479951337351
 30
0.0
 10
-1.909960937500061
 20
-23.18798577724367
 30
0.0
  0
SPLINE
  5
FA
330
1F
100
AcDbEntity
  8
0
  6
Continuous
 62
     7
370
    15
100
AcDbSpline
210
0.0
220
0.0
230
1.0
 70
     8
 71
     3
 72
    15
 73
    11
 74
     0
 42
0.000000001
 43
0.00000001
 40
0.0
 40
0.0
 40
0.0
 40
0.0
 40
0.1284975211375106
 40
0.2527129855154518
 40
0.3748191325670437
 40
0.4964364263727283
 40
0.6179105567458505
 40
0.7412876173092895
 40
0.8687004007446073
 40
1.0
 40
1.0
 40
1.0
 40
1.0
 10
-1.909960937500061
 20
-23.18798577724367
 30
0.0
 10
-1.882978388890921
 20
-23.15973399740012
 30
0.0
 10
-1.829912459249098
 20
-23.10417190120412
 30
0.0
 10
-1.740646880298925
 20
-23.03304753444848
 30
0.0
 10
-1.647102911196942
 20
-22.97158279922016
 30
0.0
 10
-1.547545933926642
 20
-22.92212549387053
 30
0.0
 10
-1.443034652638419
 20
-22.8831770359754
 30
0.0
 10
-1.333088056322079
 20
-22.8560972594186
 30
0.0
 10
-1.218105380669146
 20
-22.83842408269734
 30
0.0
 10
-1.139474552889069
 20
-22.83671260984366
 30
0.0
 10
-1.099568476228694
 20
-22.8358440170941
 30
0.0
  0
SPLINE
  5
FB
330
1F
100
AcDbEntity
  8
0
  6
Continuous
 62
     7
370
    15
100
AcDbSpline
210
0.0
220
0.0
230
1.0
 70
     8
 71
     3
 72
    15
 73
    11
 74
     0
 42
0.000000001
 43
0.00000001
 40
0.0
 40
0.0
 40
0.0
 40
0.0
 40
0.1317514273024045
 40
0.2583323505141579
 40
0.3821339760925439
 40
0.5038043916000843
 40
0.6246929865409313
 40
0.746870589727575
 40
0.8715135042348147
 40
1.0
 40
1.0
 40
1.0
 40
1.0
 10
-1.099568476228694
 20
-22.8358440170941
 30
0.0
 10
-1.059661447560819
 20
-22.83669376823753
 30
0.0
 10
-0.9814135171293293
 20
-22.83835992256108
 30
0.0
 10
-0.8668196977403801
 20
-22.85616748626151
 30
0.0
 10
-0.7574336531552449
 20
-22.88339847914643
 30
0.0
 10
-0.6528364445526025
 20
-22.92104393880003
 30
0.0
 10
-0.5543676560124303
 20
-22.97150387029627
 30
0.0
 10
-0.4605929964774139
 20
-23.03171564392854
 30
0.0
 10
-0.3717695670653704
 20
-23.10304795536268
 30
0.0
 10
-0.3185313695223325
 20
-23.15822784912429
 30
0.0
 10
-0.2915080795940789
 20
-23.18623672876611
 30
0.0
  0
SPLINE
  5
FC
330
1F
100
AcDbEntity
  8
0
  6
Continuous
 62
     7
370
    15
100
AcDbSpline
210
0.0
220
0.0
230
1.0
 70
     8
 71
     3
 72
    15
 73
    11
 74
     0
 42
0.000000001
 43
0.00000001
 40
0.0
 40
0.0
 40
0.0
 40
0.0
 40
0.1281572795931862
 40
0.2538343627967347
 40
0.3765056225222069
 40
0.4985336856679091
 40
0.6213677287324644
 40
0.7445647449043583
 40
0.8706337982552829
 40
1.0
 40
1.0
 40
1.0
 40
1.0
 10
-0.2915080795940789
 20
-23.18623672876611
 30
0.0
 10
-0.2682397523150699
 20
-23.21302419194934
 30
0.0
 10
-0.2221534039861908
 20
-23.26608070711292
 30
0.0
 10
-0.1630588747309882
 20
-23.3521089757489
 30
0.0
 10
-0.1121502321476897
 20
-23.44120107130042
 30
0.0
 10
-0.0713520437557786
 20
-23.53454006853837
 30
0.0
 10
-0.0391836044175393
 20
-23.63131114925358
 30
0.0
 10
-0.0163445700909595
 20
-23.73184692877072
 30
0.0
 10
-0.00275963073872
 20
-23.83592538054901
 30
0.0
 10
-0.000927758823559
 20
-23.90661011971187
 30
0.0
 10
-0.000000000000062
 20
-23.94240868723299
 30
0.0
  0
SPLINE
  5
FD
330
1F
100
AcDbEntity
  8
0
  6
Continuous
 62
     7
370
    15
100
AcDbSpline
210
0.0
220
0.0
230
1.0
 70
     8
 71
     3
 72
    23
 73
    19
 74
     0
 42
0.000000001
 43
0.00000001
 40
0.0
 40
0.0
 40
0.0
 40
0.0
 40
0.0624160261588172
 40
0.1233369785373303
 40
0.1832651398530913
 40
0.2431724430697097
 40
0.3028983539197452
 40
0.3637735975039108
 40
0.4256053049523817
 40
0.4896590425101848
 40
0.5537845767921159
 40
0.6162215328110733
 40
0.6778544713083419
 40
0.7395168974879377
 40
0.8020965355763715
 40
0.8658658412779714
 40
0.9315077951965113
 40
1.0
 40
1.0
 40
1.0
 40
1.0
 10
-0.000000000000062
 20
-23.94240868723299
 30
0.0
 10
-0.0008160287102451
 20
-23.97841474709951
 30
0.0
 10
-0.0024285394980612
 20
-24.04956440058226
 30
0.0
 10
-0.0176821300327737
 20
-24.15435550415756
 30
0.0
 10
-0.0414070865628552
 20
-24.25596631802154
 30
0.0
 10
-0.0753607043819748
 20
-24.35397143419556
 30
0.0
 10
-0.11889896547791
 20
-24.44867042817989
 30
0.0
 10
-0.1720271145757704
 20
-24.53964967839218
 30
0.0
 10
-0.2351179771715731
 20
-24.6270886844532
 30
0.0
 10
-0.3066343959045983
 20
-24.71024497495238
 30
0.0
 10
-0.3856745572042978
 20
-24.78688557142051
 30
0.0
 10
-0.4714205448243773
 20
-24.85368235270979
 30
0.0
 10
-0.5621873216993974
 20
-24.91091072743759
 30
0.0
 10
-0.6591818243926898
 20
-24.95700874685056
 30
0.0
 10
-0.761518300049802
 20
-24.99335544407391
 30
0.0
 10
-0.869417481087169
 20
-25.01888396964133
 30
0.0
 10
-0.9827117449131115
 20
-25.03431889359108
 30
0.0
 10
-1.060068309346781
 20
-25.03630094826102
 30
0.0
 10
-1.099568476228694
 20
-25.03731303418812
 30
0.0
  0
SPLINE
  5
FE
330
1F
100
AcDbEntity
  8
0
  6
Continuous
 62
     7
370
    15
100
AcDbSpline
210
0.0
220
0.0
230
1.0
 70
     8
 71
     3
 72
    23
 73
    19
 74
     0
 42
0.000000001
 43
0.00000001
 40
0.0
 40
0.0
 40
0.0
 40
0.0
 40
0.0687422616054891
 40
0.1346351922242766
 40
0.1983241870671472
 40
0.2608250125604215
 40
0.3227135881590249
 40
0.3845545346076187
 40
0.4469128577247566
 40
0.5109576325148286
 40
0.5749307010013365
 40
0.636684537796093
 40
0.6974831152940622
 40
0.7571338075238542
 40
0.8169656636752651
 40
0.8768183516571958
 40
0.9376625803840037
 40
1.0
 40
1.0
 40
1.0
 40
1.0
 10
-1.099568476228694
 20
-25.03731303418812
 30
0.0
 10
-1.139262168582266
 20
-25.0362975513809
 30
0.0
 10
-1.21700427038835
 20
-25.03430867700063
 30
0.0
 10
-1.330698435118583
 20
-25.01894393654039
 30
0.0
 10
-1.438790993244779
 20
-24.99336720936804
 30
0.0
 10
-1.541261440942165
 20
-24.95688930023482
 30
0.0
 10
-1.638672959511376
 20
-24.91090925403364
 30
0.0
 10
-1.729965659653215
 20
-24.8538553669261
 30
0.0
 10
-1.815781303686344
 20
-24.78686576164746
 30
0.0
 10
-1.894838185965517
 20
-24.71025034256494
 30
0.0
 10
-1.966350121465833
 20
-24.62708730149957
 30
0.0
 10
-2.029442140910275
 20
-24.53965003734751
 30
0.0
 10
-2.082569989500517
 20
-24.44867033465002
 30
0.0
 10
-2.126108329276298
 20
-24.35397145913678
 30
0.0
 10
-2.160061926089746
 20
-24.25596631133375
 30
0.0
 10
-2.183786888266922
 20
-24.15435550597282
 30
0.0
 10
-2.199040477283932
 20
-24.04956440011226
 30
0.0
 10
-2.200652988279009
 20
-23.97841474694158
 30
0.0
 10
-2.201469017094079
 20
-23.94240868723299
 30
0.0
  0
SPLINE
  5
FF
330
1F
100
AcDbEntity
  8
0
  6
Continuous
 62
     7
370
    15
100
AcDbSpline
210
0.0
220
0.0
230
1.0
 70
     8
 71
     3
 72
    15
 73
    11
 74
     0
 42
0.000000001
 43
0.00000001
 40
0.0
 40
0.0
 40
0.0
 40
0.0
 40
0.1289191318119623
 40
0.2552377249249071
 40
0.3786785959785498
 40
0.5010878871851299
 40
0.622713679429778
 40
0.7462407949383834
 40
0.8715890472316714
 40
1.0
 40
1.0
 40
1.0
 40
1.0
 10
17.53712606837594
 20
-23.94240868723299
 30
0.0
 10
17.53806015442596
 20
-23.90680469043989
 30
0.0
 10
17.53990948427282
 20
-23.83631489569819
 30
0.0
 10
17.55348076473521
 20
-23.73243209585911
 30
0.0
 10
17.57623070724045
 20
-23.63206646935721
 30
0.0
 10
17.60843770774463
 20
-23.535668915816
 30
0.0
 10
17.64961194683705
 20
-23.44273894906157
 30
0.0
 10
17.6998052321097
 20
-23.35342671758069
 30
0.0
 10
17.75950256166867
 20
-23.26778745730161
 30
0.0
 10
17.80540561303216
 20
-23.21479951337351
 30
0.0
 10
17.82863414796995
 20
-23.18798577724367
 30
0.0
  0
SPLINE
  5
100
330
1F
100
AcDbEntity
  8
0
  6
Continuous
 62
     7
370
    15
100
AcDbSpline
210
0.0
220
0.0
230
1.0
 70
     8
 71
     3
 72
    15
 73
    11
 74
     0
 42
0.000000001
 43
0.00000001
 40
0.0
 40
0.0
 40
0.0
 40
0.0
 40
0.1284975211375114
 40
0.2527129855154515
 40
0.3748191325670437
 40
0.4964364263727286
 40
0.6179105567458502
 40
0.7412876173092895
 40
0.8687004007446079
 40
1.0
 40
1.0
 40
1.0
 40
1.0
 10
17.82863414796995
 20
-23.18798577724367
 30
0.0
 10
17.85561669657909
 20
-23.15973399740012
 30
0.0
 10
17.90868262622091
 20
-23.10417190120411
 30
0.0
 10
17.9979482051711
 20
-23.03304753444849
 30
0.0
 10
18.09149217427307
 20
-22.97158279922017
 30
0.0
 10
18.19104915154337
 20
-22.92212549387052
 30
0.0
 10
18.2955604328316
 20
-22.88317703597542
 30
0.0
 10
18.40550702914793
 20
-22.85609725941859
 30
0.0
 10
18.52048970480087
 20
-22.83842408269735
 30
0.0
 10
18.59912053258094
 20
-22.83671260984366
 30
0.0
 10
18.63902660924132
 20
-22.8358440170941
 30
0.0
  0
SPLINE
  5
101
330
1F
100
AcDbEntity
  8
0
  6
Continuous
 62
     7
370
    15
100
AcDbSpline
210
0.0
220
0.0
230
1.0
 70
     8
 71
     3
 72
    15
 73
    11
 74
     0
 42
0.000000001
 43
0.00000001
 40
0.0
 40
0.0
 40
0.0
 40
0.0
 40
0.1317514273024042
 40
0.2583323505141571
 40
0.3821339760925439
 40
0.5038043916000835
 40
0.6246929865409333
 40
0.7468705897275776
 40
0.8715135042348164
 40
1.0
 40
1.0
 40
1.0
 40
1.0
 10
18.63902660924132
 20
-22.8358440170941
 30
0.0
 10
18.6789336379092
 20
-22.83669376823753
 30
0.0
 10
18.75718156834068
 20
-22.83835992256108
 30
0.0
 10
18.87177538772963
 20
-22.8561674862615
 30
0.0
 10
18.98116143231477
 20
-22.88339847914645
 30
0.0
 10
19.08575864091741
 20
-22.92104393880002
 30
0.0
 10
19.18422742945759
 20
-22.97150387029627
 30
0.0
 10
19.27800208899261
 20
-23.03171564392855
 30
0.0
 10
19.36682551840464
 20
-23.10304795536268
 30
0.0
 10
19.42006371594768
 20
-23.15822784912428
 30
0.0
 10
19.44708700587593
 20
-23.18623672876611
 30
0.0
  0
SPLINE
  5
102
330
1F
100
AcDbEntity
  8
0
  6
Continuous
 62
     7
370
    15
100
AcDbSpline
210
0.0
220
0.0
230
1.0
 70
     8
 71
     3
 72
    15
 73
    11
 74
     0
 42
0.000000001
 43
0.00000001
 40
0.0
 40
0.0
 40
0.0
 40
0.0
 40
0.128157279593188
 40
0.2538343627967363
 40
0.3765056225222078
 40
0.4985336856679106
 40
0.6213677287324655
 40
0.7445647449043589
 40
0.8706337982552833
 40
1.0
 40
1.0
 40
1.0
 40
1.0
 10
19.44708700587593
 20
-23.18623672876611
 30
0.0
 10
19.47035533315494
 20
-23.21302419194934
 30
0.0
 10
19.51644168148383
 20
-23.26608070711292
 30
0.0
 10
19.57553621073902
 20
-23.3521089757489
 30
0.0
 10
19.62644485332233
 20
-23.44120107130042
 30
0.0
 10
19.66724304171424
 20
-23.53454006853837
 30
0.0
 10
19.69941148105248
 20
-23.63131114925357
 30
0.0
 10
19.72225051537906
 20
-23.73184692877073
 30
0.0
 10
19.7358354547313
 20
-23.835925380549
 30
0.0
 10
19.73766732664646
 20
-23.90661011971187
 30
0.0
 10
19.73859508546995
 20
-23.94240868723299
 30
0.0
  0
SPLINE
  5
103
330
1F
100
AcDbEntity
  8
0
  6
Continuous
 62
     7
370
    15
100
AcDbSpline
210
0.0
220
0.0
230
1.0
 70
     8
 71
     3
 72
    23
 73
    19
 74
     0
 42
0.000000001
 43
0.00000001
 40
0.0
 40
0.0
 40
0.0
 40
0.0
 40
0.0624160261588172
 40
0.1233369785373305
 40
0.183265139853091
 40
0.24317244306971
 40
0.302898353919745
 40
0.3637735975039109
 40
0.4256053049523814
 40
0.4896590425101853
 40
0.5537845767921162
 40
0.6162215328110738
 40
0.6778544713083416
 40
0.7395168974879386
 40
0.8020965355763717
 40
0.8658658412779717
 40
0.9315077951965122
 40
1.0
 40
1.0
 40
1.0
 40
1.0
 10
19.73859508546995
 20
-23.94240868723299
 30
0.0
 10
19.73777905675977
 20
-23.97841474709951
 30
0.0
 10
19.73616654597195
 20
-24.04956440058226
 30
0.0
 10
19.72091295543724
 20
-24.15435550415757
 30
0.0
 10
19.69718799890717
 20
-24.25596631802155
 30
0.0
 10
19.66323438108804
 20
-24.35397143419555
 30
0.0
 10
19.61969611999211
 20
-24.44867042817991
 30
0.0
 10
19.56656797089424
 20
-24.53964967839217
 30
0.0
 10
19.50347710829844
 20
-24.6270886844532
 30
0.0
 10
19.43196068956542
 20
-24.71024497495239
 30
0.0
 10
19.35292052826572
 20
-24.78688557142051
 30
0.0
 10
19.26717454064563
 20
-24.85368235270979
 30
0.0
 10
19.17640776377062
 20
-24.91091072743757
 30
0.0
 10
19.07941326107732
 20
-24.95700874685056
 30
0.0
 10
18.97707678542021
 20
-24.99335544407391
 30
0.0
 10
18.86917760438285
 20
-25.01888396964133
 30
0.0
 10
18.7558833405569
 20
-25.03431889359107
 30
0.0
 10
18.67852677612323
 20
-25.03630094826102
 30
0.0
 10
18.63902660924132
 20
-25.03731303418812
 30
0.0
  0
SPLINE
  5
104
330
1F
100
AcDbEntity
  8
0
  6
Continuous
 62
     7
370
    15
100
AcDbSpline
210
0.0
220
0.0
230
1.0
 70
     8
 71
     3
 72
    23
 73
    19
 74
     0
 42
0.000000001
 43
0.00000001
 40
0.0
 40
0.0
 40
0.0
 40
0.0
 40
0.0687422616054893
 40
0.134635192224277
 40
0.1983241870671476
 40
0.2608250125604212
 40
0.3227135881590252
 40
0.3845545346076195
 40
0.446912857724756
 40
0.5109576325148293
 40
0.5749307010013366
 40
0.6366845377960926
 40
0.697483115294062
 40
0.7571338075238543
 40
0.8169656636752654
 40
0.8768183516571959
 40
0.9376625803840037
 40
0.9999999999999999
 40
0.9999999999999999
 40
0.9999999999999999
 40
0.9999999999999999
 10
18.63902660924132
 20
-25.03731303418812
 30
0.0
 10
18.59933291688775
 20
-25.0362975513809
 30
0.0
 10
18.52159081508166
 20
-25.03430867700062
 30
0.0
 10
18.40789665035144
 20
-25.01894393654041
 30
0.0
 10
18.29980409222523
 20
-24.99336720936802
 30
0.0
 10
18.19733364452785
 20
-24.95688930023482
 30
0.0
 10
18.09992212595864
 20
-24.91090925403365
 30
0.0
 10
18.0086294258168
 20
-24.85385536692609
 30
0.0
 10
17.92281378178367
 20
-24.78686576164746
 30
0.0
 10
17.84375689950449
 20
-24.71025034256494
 30
0.0
 10
17.77224496400418
 20
-24.62708730149957
 30
0.0
 10
17.70915294455974
 20
-24.53965003734752
 30
0.0
 10
17.6560250959695
 20
-24.44867033465001
 30
0.0
 10
17.61248675619371
 20
-24.35397145913678
 30
0.0
 10
17.57853315938026
 20
-24.25596631133375
 30
0.0
 10
17.5548081972031
 20
-24.15435550597282
 30
0.0
 10
17.53955460818608
 20
-24.04956440011224
 30
0.0
 10
17.53794209719101
 20
-23.97841474694158
 30
0.0
 10
17.53712606837594
 20
-23.94240868723299
 30
0.0
  0
LINE
  5
105
330
1F
100
AcDbEntity
  8
0
  6
Continuous
 62
     7
370
    15
100
AcDbLine
 10
23.208707265
 20
-25.0
 30
0.0
 11
22.9475160256
 21
-25.0
 31
0.0
  0
LINE
  5
106
330
1F
100
AcDbEntity
  8
0
  6
Continuous
 62
     7
370
    15
100
AcDbLine
 10
22.9475160256
 20
-25.0
 30
0.0
 11
22.9475160256
 21
-22.8731570513
 31
0.0
  0
LINE
  5
107
330
1F
100
AcDbEntity
  8
0
  6
Continuous
 62
     7
370
    15
100
AcDbLine
 10
22.9475160256
 20
-22.8731570513
 30
0.0
 11
23.208707265
 21
-22.8731570513
 31
0.0
  0
LINE
  5
108
330
1F
100
AcDbEntity
  8
0
  6
Continuous
 62
     7
370
    15
100
AcDbLine
 10
23.208707265
 20
-22.8731570513
 30
0.0
 11
23.208707265
 21
-23.1862367288
 31
0.0
  0
SPLINE
  5
109
330
1F
100
AcDbEntity
  8
0
  6
Continuous
 62
     7
370
    15
100
AcDbSpline
210
0.0
220
0.0
230
1.0
 70
     8
 71
     3
 72
    15
 73
    11
 74
     0
 42
0.000000001
 43
0.00000001
 40
0.0
 40
0.0
 40
0.0
 40
0.0
 40
0.1600594124854964
 40
0.30611238274013
 40
0.4383665141302061
 40
0.5605414552552174
 40
0.6753172249527052
 40
0.7861136344281792
 40
0.892841788105089
 40
1.0
 40
1.0
 40
1.0
 40
1.0
 10
23.20870726495717
 20
-23.18623672876611
 30
0.0
 10
23.22798982208548
 20
-23.15708613818797
 30
0.0
 10
23.26486756277072
 20
-23.10133586020314
 30
0.0
 10
23.32616337366786
 20
-23.02760311408074
 30
0.0
 10
23.38894798902259
 20
-22.96655500686876
 30
0.0
 10
23.45352197513069
 20
-22.91790654512975
 30
0.0
 10
23.52036019273456
 20
-22.88147385048875
 30
0.0
 10
23.58799574127625
 20
-22.85478696362025
 30
0.0
 10
23.657492724247
 20
-22.83900642231873
 30
0.0
 10
23.70419403861984
 20
-22.83689956424531
 30
0.0
 10
23.72759164663452
 20
-22.8358440170941
 30
0.0
  0
SPLINE
  5
10A
330
1F
100
AcDbEntity
  8
0
  6
Continuous
 62
     7
370
    15
100
AcDbSpline
210
0.0
220
0.0
230
1.0
 70
     8
 71
     3
 72
    11
 73
     7
 74
     0
 42
0.000000001
 43
0.00000001
 40
0.0
 40
0.0
 40
0.0
 40
0.0
 40
0.2252775478670063
 40
0.4635231951764745
 40
0.7203235553269306
 40
1.0
 40
1.0
 40
1.0
 40
1.0
 10
23.72759164663452
 20
-22.8358440170941
 30
0.0
 10
23.74574127645708
 20
-22.83683399664952
 30
0.0
 10
23.78308531933344
 20
-22.83887094392204
 30
0.0
 10
23.83961608002184
 20
-22.85318256417481
 30
0.0
 10
23.89786054568716
 20
-22.87603184840489
 30
0.0
 10
23.93539859032348
 20
-22.89751922403763
 30
0.0
 10
23.95496794871785
 20
-22.9087210369926
 30
0.0
  0
LINE
  5
10B
330
1F
100
AcDbEntity
  8
0
  6
Continuous
 62
     7
370
    15
100
AcDbLine
 10
23.9549679487
 20
-22.908721037
 30
0.0
 11
23.8115459736
 21
-23.1349313068
 31
0.0
  0
SPLINE
  5
10C
330
1F
100
AcDbEntity
  8
0
  6
Continuous
 62
     7
370
    15
100
AcDbSpline
210
0.0
220
0.0
230
1.0
 70
     8
 71
     3
 72
    11
 73
     7
 74
     0
 42
0.000000001
 43
0.00000001
 40
0.0
 40
0.0
 40
0.0
 40
0.0
 40
0.2951388013693739
 40
0.5602299448882276
 40
0.7949833567408866
 40
1.0
 40
1.0
 40
1.0
 40
1.0
 10
23.8115459735576
 20
-23.13493130675756
 30
0.0
 10
23.79898210299928
 20
-23.12932645451777
 30
0.0
 10
23.77513347151533
 20
-23.11868737200188
 30
0.0
 10
23.74024625182639
 20
-23.10609606952899
 30
0.0
 10
23.70808087836623
 20
-23.09868206093386
 30
0.0
 10
23.68758858608473
 20
-23.09755887505255
 30
0.0
 10
23.67803527310354
 20
-23.09703525641034
 30
0.0
  0
SPLINE
  5
10D
330
1F
100
AcDbEntity
  8
0
  6
Continuous
 62
     7
370
    15
100
AcDbSpline
210
0.0
220
0.0
230
1.0
 70
     8
 71
     3
 72
    19
 73
    15
 74
     0
 42
0.000000001
 43
0.00000001
 40
0.0
 40
0.0
 40
0.0
 40
0.0
 40
0.0938065293523304
 40
0.1913381281363372
 40
0.295190616625171
 40
0.4103123367232963
 40
0.4719302510512788
 40
0.5364251593464318
 40
0.6031187283036333
 40
0.6741176724905988
 40
0.749332023225885
 40
0.8282833841715622
 40
0.9120398092627625
 40
1.0
 40
1.0
 40
1.0
 40
1.0
 10
23.67803527310354
 20
-23.09703525641034
 30
0.0
 10
23.6570755054161
 20
-23.09843228748408
 30
0.0
 10
23.61432365495137
 20
-23.10128182591647
 30
0.0
 10
23.5515546991922
 20
-23.12368272737509
 30
0.0
 10
23.49064615985567
 20
-23.15987603715966
 30
0.0
 10
23.44227365254412
 20
-23.20001576528803
 30
0.0
 10
23.40481887440952
 20
-23.23872247544144
 30
0.0
 10
23.37809274639375
 20
-23.27252355781413
 30
0.0
 10
23.35357643836144
 20
-23.31042436034104
 30
0.0
 10
23.33015155865936
 20
-23.35177696050369
 30
0.0
 10
23.30880881281997
 20
-23.39728743366265
 30
0.0
 10
23.28888936467853
 20
-23.44650109387122
 30
0.0
 10
23.27087898878415
 20
-23.49947494202085
 30
0.0
 10
23.26060917260483
 20
-23.53638112103735
 30
0.0
 10
23.25534855769222
 20
-23.55528595753213
 30
0.0
  0
SPLINE
  5
10E
330
1F
100
AcDbEntity
  8
0
  6
Continuous
 62
     7
370
    15
100
AcDbSpline
210
0.0
220
0.0
230
1.0
 70
     8
 71
     3
 72
    15
 73
    11
 74
     0
 42
0.000000001
 43
0.00000001
 40
0.0
 40
0.0
 40
0.0
 40
0.0
 40
0.0708548685015328
 40
0.1569381495573537
 40
0.2586003949600837
 40
0.3758909295892014
 40
0.5081661676989037
 40
0.6562378085782268
 40
0.8201767703979113
 40
1.0
 40
1.0
 40
1.0
 40
1.0
 10
23.25534855769222
 20
-23.55528595753213
 30
0.0
 10
23.25141334725708
 20
-23.57214739294262
 30
0.0
 10
23.24269715517505
 20
-23.60949419109729
 30
0.0
 10
23.23422240614673
 20
-23.67215007742842
 30
0.0
 10
23.22584912244838
 20
-23.74617748891253
 30
0.0
 10
23.21994794635554
 20
-23.83178248311392
 30
0.0
 10
23.21447799108659
 20
-23.92875128321371
 30
0.0
 10
23.21139288104415
 20
-24.03723161418762
 30
0.0
 10
23.20881247190261
 20
-24.15733482344086
 30
0.0
 10
23.20874339784389
 20
-24.24129980645599
 30
0.0
 10
23.20870726495717
 20
-24.28522218883555
 30
0.0
  0
LINE
  5
10F
330
1F
100
AcDbEntity
  8
0
  6
Continuous
 62
     7
370
    15
100
AcDbLine
 10
23.208707265
 20
-24.2852221888
 30
0.0
 11
23.208707265
 21
-25.0
 31
0.0
  0
LINE
  5
110
330
1F
100
AcDbEntity
  8
0
  6
Continuous
 62
     7
370
    15
100
AcDbLine
 10
26.1191239316
 20
-23.2847664597
 30
0.0
 11
26.1191239316
 21
-22.014957265
 31
0.0
  0
LINE
  5
111
330
1F
100
AcDbEntity
  8
0
  6
Continuous
 62
     7
370
    15
100
AcDbLine
 10
26.1191239316
 20
-22.014957265
 30
0.0
 11
26.3803151709
 21
-22.014957265
 31
0.0
  0
LINE
  5
112
330
1F
100
AcDbEntity
  8
0
  6
Continuous
 62
     7
370
    15
100
AcDbLine
 10
26.3803151709
 20
-22.014957265
 30
0.0
 11
26.3803151709
 21
-25.0
 31
0.0
  0
LINE
  5
113
330
1F
100
AcDbEntity
  8
0
  6
Continuous
 62
     7
370
    15
100
AcDbLine
 10
26.3803151709
 20
-25.0
 30
0.0
 11
26.1191239316
 21
-25.0
 31
0.0
  0
LINE
  5
114
330
1F
100
AcDbEntity
  8
0
  6
Continuous
 62
     7
370
    15
100
AcDbLine
 10
26.1191239316
 20
-25.0
 30
0.0
 11
26.1191239316
 21
-24.6321168036
 31
0.0
  0
SPLINE
  5
115
330
1F
100
AcDbEntity
  8
0
  6
Continuous
 62
     7
370
    15
100
AcDbSpline
210
0.0
220
0.0
230
1.0
 70
     8
 71
     3
 72
    15
 73
    11
 74
     0
 42
0.000000001
 43
0.00000001
 40
0.0
 40
0.0
 40
0.0
 40
0.0
 40
0.1342983790141684
 40
0.262084975382301
 40
0.3862699121345013
 40
0.5071645966227997
 40
0.6273002357255049
 40
0.7481449416029939
 40
0.8723701771613511
 40
1.0
 40
1.0
 40
1.0
 40
1.0
 10
26.11912393162384
 20
-24.63211680355243
 30
0.0
 10
26.08967152060911
 20
-24.6654116325757
 30
0.0
 10
26.03219477016427
 20
-24.73038691008074
 30
0.0
 10
25.93619998337489
 20
-24.81527309756263
 30
0.0
 10
25.83444501639288
 20
-24.88543768993849
 30
0.0
 10
25.72742373923838
 20
-24.94210759007746
 30
0.0
 10
25.61523279521906
 20
-24.98467622263892
 30
0.0
 10
25.4981208821685
 20
-25.01493304662628
 30
0.0
 10
25.37604022796069
 20
-25.03438613456416
 30
0.0
 10
25.29267562103113
 20
-25.03632864798739
 30
0.0
 10
25.25042985443367
 20
-25.03731303418812
 30
0.0
  0
SPLINE
  5
116
330
1F
100
AcDbEntity
  8
0
  6
Continuous
 62
     7
370
    15
100
AcDbSpline
210
0.0
220
0.0
230
1.0
 70
     8
 71
     3
 72
    23
 73
    19
 74
     0
 42
0.000000001
 43
0.00000001
 40
0.0
 40
0.0
 40
0.0
 40
0.0
 40
0.0646199913407667
 40
0.1274334841444691
 40
0.1890041265579389
 40
0.2499300706860472
 40
0.310668453740672
 40
0.372328961136823
 40
0.4349391099970073
 40
0.499575544194033
 40
0.5641912077719228
 40
0.626735216929479
 40
0.6881093335614011
 40
0.7492936065367509
 40
0.8103305278109455
 40
0.8719011702244152
 40
0.9350459146845312
 40
1.0
 40
1.0
 40
1.0
 40
1.0
 10
25.25042985443367
 20
-25.03731303418812
 30
0.0
 10
25.21287054996697
 20
-25.03629324724764
 30
0.0
 10
25.13880193852143
 20
-25.03428218224726
 30
0.0
 10
25.02984502140053
 20
-25.01868043334562
 30
0.0
 10
24.92499331158784
 20
-24.99362538665874
 30
0.0
 10
24.8241477294399
 20
-24.95878280176588
 30
0.0
 10
24.72796083231405
 20
-24.91256470186794
 30
0.0
 10
24.63560907335498
 20
-24.85723248549064
 30
0.0
 10
24.54757088838432
 20
-24.79133996190571
 30
0.0
 10
24.46518818604355
 20
-24.71601170261466
 30
0.0
 10
24.38932443335003
 20
-24.63419158529591
 30
0.0
 10
24.32274967272311
 20
-24.54692436566224
 30
0.0
 10
24.26724130810583
 20
-24.45458740224674
 30
0.0
 10
24.22082425289861
 20
-24.35834977368569
 30
0.0
 10
24.1850707450512
 20
-24.25747064119222
 30
0.0
 10
24.16014624084981
 20
-24.15229885332801
 30
0.0
 10
24.14456266701599
 20
-24.04295876205707
 30
0.0
 10
24.14255243333927
 20
-23.96850238481627
 30
0.0
 10
24.14153311965803
 20
-23.93074836404923
 30
0.0
  0
SPLINE
  5
117
330
1F
100
AcDbEntity
  8
0
  6
Continuous
 62
     7
370
    15
100
AcDbSpline
210
0.0
220
0.0
230
1.0
 70
     8
 71
     3
 72
    23
 73
    19
 74
     0
 42
0.000000001
 43
0.00000001
 40
0.0
 40
0.0
 40
0.0
 40
0.0
 40
0.0637745323056325
 40
0.1260788099895064
 40
0.1869040927472068
 40
0.2475739349176191
 40
0.308003356164447
 40
0.3691318984609769
 40
0.4320332277442047
 40
0.4967907944370897
 40
0.5616108232295655
 40
0.6249138657484617
 40
0.6867263492419252
 40
0.7480788332577699
 40
0.8095822911398949
 40
0.871630742568827
 40
0.9348858208285536
 40
1.0
 40
1.0
 40
1.0
 40
1.0
 10
24.14153311965803
 20
-23.93074836404923
 30
0.0
 10
24.14257502502987
 20
-23.89377467721203
 30
0.0
 10
24.14463481574339
 20
-23.82067969291613
 30
0.0
 10
24.15997954676532
 20
-23.71317829941241
 30
0.0
 10
24.18578330813252
 20
-23.60963543617175
 30
0.0
 10
24.22199541717373
 20
-23.51038445421722
 30
0.0
 10
24.26843066186627
 20
-23.41530525775437
 30
0.0
 10
24.32491610089493
 20
-23.32433060123898
 30
0.0
 10
24.39145581351652
 20
-23.23720985823037
 30
0.0
 10
24.4681680829224
 20
-23.15599158211975
 30
0.0
 10
24.55126860311123
 20
-23.08096884513504
 30
0.0
 10
24.64016830375929
 20
-23.01576799008556
 30
0.0
 10
24.7326557585243
 20
-22.95945820568319
 30
0.0
 10
24.83016553572654
 20
-22.91484278520701
 30
0.0
 10
24.93125437228914
 20
-22.87874604767808
 30
0.0
 10
25.03682220783013
 20
-22.85377220456116
 30
0.0
 10
25.14642981224072
 20
-22.83905603922052
 30
0.0
 10
25.22084541784444
 20
-22.8369249787925
 30
0.0
 10
25.2585920806623
 20
-22.8358440170941
 30
0.0
  0
SPLINE
  5
118
330
1F
100
AcDbEntity
  8
0
  6
Continuous
 62
     7
370
    15
100
AcDbSpline
210
0.0
220
0.0
230
1.0
 70
     8
 71
     3
 72
    15
 73
    11
 74
     0
 42
0.000000001
 43
0.00000001
 40
0.0
 40
0.0
 40
0.0
 40
0.0
 40
0.1288840014739246
 40
0.2529849718578352
 40
0.3742104371825956
 40
0.4941015128996897
 40
0.6147527632399868
 40
0.7385110703733273
 40
0.8662425140769299
 40
1.0
 40
1.0
 40
1.0
 40
1.0
 10
25.2585920806623
 20
-22.8358440170941
 30
0.0
 10
25.30201284280222
 20
-22.8371471320711
 30
0.0
 10
25.38724297348091
 20
-22.8397050019542
 30
0.0
 10
25.51189073215764
 20
-22.86108107023093
 30
0.0
 10
25.62979388211044
 20
-22.89697305850526
 30
0.0
 10
25.74163120561916
 20
-22.94611027278268
 30
0.0
 10
25.84673596432299
 20
-23.00997375465602
 30
0.0
 10
25.9458785934317
 20
-23.08710100027436
 30
0.0
 10
26.03733496373433
 20
-23.17967482353681
 30
0.0
 10
26.09144528283476
 20
-23.24920182837168
 30
0.0
 10
26.11912393162384
 20
-23.28476645966888
 30
0.0
  0
CIRCLE
  5
119
330
1F
100
AcDbEntity
  8
0
  6
Continuous
 62
     7
370
    15
100
AcDbCircle
 10
-38.1274521288
 20
-15.5
 30
0.0
 40
1.499999999999993
  0
CIRCLE
  5
11A
330
1F
100
AcDbEntity
  8
0
  6
Continuous
 62
     7
370
    15
100
AcDbCircle
 10
-13.1274521288
 20
-15.5
 30
0.0
 40
1.499999999999996
  0
CIRCLE
  5
11B
330
1F
100
AcDbEntity
  8
0
  6
Continuous
 62
     7
370
    15
100
AcDbCircle
 10
-13.1274521288
 20
15.5
 30
0.0
 40
1.499999999999996
  0
CIRCLE
  5
11C
330
1F
100
AcDbEntity
  8
0
  6
Continuous
 62
     7
370
    15
100
AcDbCircle
 10
-38.1274521288
 20
15.5
 30
0.0
 40
1.499999999999993
  0
CIRCLE
  5
11D
330
1F
100
AcDbEntity
  8
0
  6
Continuous
 62
     7
370
    15
100
AcDbCircle
 10
39.3725478712
 20
8.0
 30
0.0
 40
4.999999999999993
  0
CIRCLE
  5
11E
330
1F
100
AcDbEntity
  8
0
  6
Continuous
 62
     7
370
    15
100
AcDbCircle
 10
56.8725478712
 20
0.0
 30
0.0
 40
2.100000000000001
  0
CIRCLE
  5
11F
330
1F
100
AcDbEntity
  8
0
  6
Continuous
 62
     7
370
    15
100
AcDbCircle
 10
21.8725478712
 20
0.0
 30
0.0
 40
2.099999999999998
  0
LINE
  5
120
330
1F
100
AcDbEntity
  8
0
  6
Continuous
 62
     7
370
    15
100
AcDbLine
 10
-29.4959535256
 20
-22.9011418269
 30
0.0
 11
-29.7740522336
 21
-25.0
 31
0.0
  0
LINE
  5
121
330
1F
100
AcDbEntity
  8
0
  6
Continuous
 62
     7
370
    15
100
AcDbLine
 10
-29.7740522336
 20
-25.0
 30
0.0
 11
-30.0369925214
 21
-25.0
 31
0.0
  0
LINE
  5
122
330
1F
100
AcDbEntity
  8
0
  6
Continuous
 62
     7
370
    15
100
AcDbLine
 10
-30.0369925214
 20
-25.0
 30
0.0
 11
-29.6527848725
 21
-22.0895833333
 31
0.0
  0
LINE
  5
123
330
1F
100
AcDbEntity
  8
0
  6
Continuous
 62
     7
370
    15
100
AcDbLine
 10
-29.6527848725
 20
-22.0895833333
 30
0.0
 11
-29.6154718383
 21
-22.0895833333
 31
0.0
  0
LINE
  5
124
330
1F
100
AcDbEntity
  8
0
  6
Continuous
 62
     7
370
    15
100
AcDbLine
 10
-29.6154718383
 20
-22.0895833333
 30
0.0
 11
-28.4138755342
 21
-24.4776175214
 31
0.0
  0
LINE
  5
125
330
1F
100
AcDbEntity
  8
0
  6
Continuous
 62
     7
370
    15
100
AcDbLine
 10
-28.4138755342
 20
-24.4776175214
 30
0.0
 11
-27.2151943109
 21
-22.0895833333
 31
0.0
  0
LINE
  5
126
330
1F
100
AcDbEntity
  8
0
  6
Continuous
 62
     7
370
    15
100
AcDbLine
 10
-27.2151943109
 20
-22.0895833333
 30
0.0
 11
-27.1772982606
 21
-22.0895833333
 31
0.0
  0
LINE
  5
127
330
1F
100
AcDbEntity
  8
0
  6
Continuous
 62
     7
370
    15
100
AcDbLine
 10
-27.1772982606
 20
-22.0895833333
 30
0.0
 11
-26.790758547
 21
-25.0
 31
0.0
  0
LINE
  5
128
330
1F
100
AcDbEntity
  8
0
  6
Continuous
 62
     7
370
    15
100
AcDbLine
 10
-26.790758547
 20
-25.0
 30
0.0
 11
-27.0531158186
 21
-25.0
 31
0.0
  0
LINE
  5
129
330
1F
100
AcDbEntity
  8
0
  6
Continuous
 62
     7
370
    15
100
AcDbLine
 10
-27.0531158186
 20
-25.0
 30
0.0
 11
-27.3317975427
 21
-22.9058059562
 31
0.0
  0
LINE
  5
12A
330
1F
100
AcDbEntity
  8
0
  6
Continuous
 62
     7
370
    15
100
AcDbLine
 10
-27.3317975427
 20
-22.9058059562
 30
0.0
 11
-28.3823926616
 21
-25.0
 31
0.0
  0
LINE
  5
12B
330
1F
100
AcDbEntity
  8
0
  6
Continuous
 62
     7
370
    15
100
AcDbLine
 10
-28.3823926616
 20
-25.0
 30
0.0
 11
-28.4412772937
 21
-25.0
 31
0.0
  0
LINE
  5
12C
330
1F
100
AcDbEntity
  8
0
  6
Continuous
 62
     7
370
    15
100
AcDbLine
 10
-28.4412772937
 20
-25.0
 30
0.0
 11
-29.4959535256
 21
-22.9011418269
 31
0.0
  0
LINE
  5
12D
330
1F
100
AcDbEntity
  8
0
  6
Continuous
 62
     7
370
    15
100
AcDbLine
 10
27.9288060897
 20
-25.0
 30
0.0
 11
28.8791224292
 21
-23.5156408587
 31
0.0
  0
LINE
  5
12E
330
1F
100
AcDbEntity
  8
0
  6
Continuous
 62
     7
370
    15
100
AcDbLine
 10
28.8791224292
 20
-23.5156408587
 30
0.0
 11
27.9661191239
 21
-22.0895833333
 31
0.0
  0
LINE
  5
12F
330
1F
100
AcDbEntity
  8
0
  6
Continuous
 62
     7
370
    15
100
AcDbLine
 10
27.9661191239
 20
-22.0895833333
 30
0.0
 11
28.2675384782
 21
-22.0895833333
 31
0.0
  0
LINE
  5
130
330
1F
100
AcDbEntity
  8
0
  6
Continuous
 62
     7
370
    15
100
AcDbLine
 10
28.2675384782
 20
-22.0895833333
 30
0.0
 11
29.0295405983
 21
-23.2801023304
 31
0.0
  0
LINE
  5
131
330
1F
100
AcDbEntity
  8
0
  6
Continuous
 62
     7
370
    15
100
AcDbLine
 10
29.0295405983
 20
-23.2801023304
 30
0.0
 11
29.7915427183
 21
-22.0895833333
 31
0.0
  0
LINE
  5
132
330
1F
100
AcDbEntity
  8
0
  6
Continuous
 62
     7
370
    15
100
AcDbLine
 10
29.7915427183
 20
-22.0895833333
 30
0.0
 11
30.0929620726
 21
-22.0895833333
 31
0.0
  0
LINE
  5
133
330
1F
100
AcDbEntity
  8
0
  6
Continuous
 62
     7
370
    15
100
AcDbLine
 10
30.0929620726
 20
-22.0895833333
 30
0.0
 11
29.1805417835
 21
-23.5156408587
 31
0.0
  0
LINE
  5
134
330
1F
100
AcDbEntity
  8
0
  6
Continuous
 62
     7
370
    15
100
AcDbLine
 10
29.1805417835
 20
-23.5156408587
 30
0.0
 11
30.1302751068
 21
-25.0
 31
0.0
  0
LINE
  5
135
330
1F
100
AcDbEntity
  8
0
  6
Continuous
 62
     7
370
    15
100
AcDbLine
 10
30.1302751068
 20
-25.0
 30
0.0
 11
29.8288557525
 21
-25.0
 31
0.0
  0
LINE
  5
136
330
1F
100
AcDbEntity
  8
0
  6
Continuous
 62
     7
370
    15
100
AcDbLine
 10
29.8288557525
 20
-25.0
 30
0.0
 11
29.0295405983
 21
-23.751179387
 31
0.0
  0
LINE
  5
137
330
1F
100
AcDbEntity
  8
0
  6
Continuous
 62
     7
370
    15
100
AcDbLine
 10
29.0295405983
 20
-23.751179387
 30
0.0
 11
28.230225444
 21
-25.0
 31
0.0
  0
LINE
  5
138
330
1F
100
AcDbEntity
  8
0
  6
Continuous
 62
     7
370
    15
100
AcDbLine
 10
28.230225444
 20
-25.0
 30
0.0
 11
27.9288060897
 21
-25.0
 31
0.0
  0
LINE
  5
139
330
1F
100
AcDbEntity
  8
0
  6
Continuous
 62
     7
370
    15
100
AcDbLine
 10
22.1639423077
 20
-23.2666929587
 30
0.0
 11
22.1639423077
 21
-22.8731570513
 31
0.0
  0
LINE
  5
13A
330
1F
100
AcDbEntity
  8
0
  6
Continuous
 62
     7
370
    15
100
AcDbLine
 10
22.1639423077
 20
-22.8731570513
 30
0.0
 11
22.425133547
 21
-22.8731570513
 31
0.0
  0
LINE
  5
13B
330
1F
100
AcDbEntity
  8
0
  6
Continuous
 62
     7
370
    15
100
AcDbLine
 10
22.425133547
 20
-22.8731570513
 30
0.0
 11
22.425133547
 21
-25.0
 31
0.0
  0
LINE
  5
13C
330
1F
100
AcDbEntity
  8
0
  6
Continuous
 62
     7
370
    15
100
AcDbLine
 10
22.425133547
 20
-25.0
 30
0.0
 11
22.1639423077
 21
-25.0
 31
0.0
  0
LINE
  5
13D
330
1F
100
AcDbEntity
  8
0
  6
Continuous
 62
     7
370
    15
100
AcDbLine
 10
22.1639423077
 20
-25.0
 30
0.0
 11
22.1639423077
 21
-24.6321168036
 31
0.0
  0
SPLINE
  5
13E
330
1F
100
AcDbEntity
  8
0
  6
Continuous
 62
     7
370
    15
100
AcDbSpline
210
0.0
220
0.0
230
1.0
 70
     8
 71
     3
 72
    15
 73
    11
 74
     0
 42
0.000000001
 43
0.00000001
 40
0.0
 40
0.0
 40
0.0
 40
0.0
 40
0.1342983790141684
 40
0.262084975382301
 40
0.3862699121345013
 40
0.5071645966227997
 40
0.6273002357255049
 40
0.7481449416029939
 40
0.8723701771613511
 40
1.0
 40
1.0
 40
1.0
 40
1.0
 10
22.16394230769222
 20
-24.63211680355243
 30
0.0
 10
22.13448989667749
 20
-24.6654116325757
 30
0.0
 10
22.07701314623264
 20
-24.73038691008074
 30
0.0
 10
21.98101835944327
 20
-24.81527309756263
 30
0.0
 10
21.87926339246125
 20
-24.88543768993849
 30
0.0
 10
21.77224211530675
 20
-24.94210759007746
 30
0.0
 10
21.66005117128744
 20
-24.98467622263892
 30
0.0
 10
21.54293925823689
 20
-25.01493304662628
 30
0.0
 10
21.42085860402906
 20
-25.03438613456416
 30
0.0
 10
21.33749399709951
 20
-25.03632864798739
 30
0.0
 10
21.29524823050204
 20
-25.03731303418812
 30
0.0
  0
SPLINE
  5
13F
330
1F
100
AcDbEntity
  8
0
  6
Continuous
 62
     7
370
    15
100
AcDbSpline
210
0.0
220
0.0
230
1.0
 70
     8
 71
     3
 72
    23
 73
    19
 74
     0
 42
0.000000001
 43
0.00000001
 40
0.0
 40
0.0
 40
0.0
 40
0.0
 40
0.0646199913407667
 40
0.1274334841444691
 40
0.1890041265579389
 40
0.2499300706860472
 40
0.310668453740672
 40
0.372328961136823
 40
0.4349391099970073
 40
0.499575544194033
 40
0.5641912077719228
 40
0.626735216929479
 40
0.6881093335614011
 40
0.7492936065367509
 40
0.8103305278109455
 40
0.8719011702244152
 40
0.9350459146845312
 40
1.0
 40
1.0
 40
1.0
 40
1.0
 10
21.29524823050204
 20
-25.03731303418812
 30
0.0
 10
21.25768892603535
 20
-25.03629324724764
 30
0.0
 10
21.1836203145898
 20
-25.03428218224726
 30
0.0
 10
21.07466339746892
 20
-25.01868043334562
 30
0.0
 10
20.96981168765621
 20
-24.99362538665874
 30
0.0
 10
20.86896610550828
 20
-24.95878280176588
 30
0.0
 10
20.77277920838242
 20
-24.91256470186794
 30
0.0
 10
20.68042744942336
 20
-24.85723248549064
 30
0.0
 10
20.5923892644527
 20
-24.79133996190571
 30
0.0
 10
20.51000656211193
 20
-24.71601170261466
 30
0.0
 10
20.4341428094184
 20
-24.63419158529591
 30
0.0
 10
20.36756804879149
 20
-24.54692436566224
 30
0.0
 10
20.3120596841742
 20
-24.45458740224674
 30
0.0
 10
20.26564262896699
 20
-24.35834977368569
 30
0.0
 10
20.22988912111957
 20
-24.25747064119222
 30
0.0
 10
20.20496461691819
 20
-24.15229885332801
 30
0.0
 10
20.18938104308436
 20
-24.04295876205707
 30
0.0
 10
20.18737080940765
 20
-23.96850238481627
 30
0.0
 10
20.18635149572641
 20
-23.93074836404923
 30
0.0
  0
SPLINE
  5
140
330
1F
100
AcDbEntity
  8
0
  6
Continuous
 62
     7
370
    15
100
AcDbSpline
210
0.0
220
0.0
230
1.0
 70
     8
 71
     3
 72
    23
 73
    19
 74
     0
 42
0.000000001
 43
0.00000001
 40
0.0
 40
0.0
 40
0.0
 40
0.0
 40
0.0637745323056325
 40
0.1260788099895064
 40
0.1869040927472068
 40
0.2475739349176191
 40
0.308003356164447
 40
0.3691318984609769
 40
0.4320332277442047
 40
0.4967907944370897
 40
0.5616108232295655
 40
0.6249138657484617
 40
0.6867263492419252
 40
0.7480788332577699
 40
0.8095822911398949
 40
0.871630742568827
 40
0.9348858208285536
 40
1.0
 40
1.0
 40
1.0
 40
1.0
 10
20.18635149572641
 20
-23.93074836404923
 30
0.0
 10
20.18739340109824
 20
-23.89377467721203
 30
0.0
 10
20.18945319181176
 20
-23.82067969291613
 30
0.0
 10
20.2047979228337
 20
-23.71317829941241
 30
0.0
 10
20.2306016842009
 20
-23.60963543617175
 30
0.0
 10
20.2668137932421
 20
-23.51038445421722
 30
0.0
 10
20.31324903793465
 20
-23.41530525775437
 30
0.0
 10
20.36973447696331
 20
-23.32433060123898
 30
0.0
 10
20.43627418958489
 20
-23.23720985823037
 30
0.0
 10
20.51298645899078
 20
-23.15599158211975
 30
0.0
 10
20.5960869791796
 20
-23.08096884513504
 30
0.0
 10
20.68498667982767
 20
-23.01576799008556
 30
0.0
 10
20.77747413459268
 20
-22.95945820568319
 30
0.0
 10
20.87498391179492
 20
-22.91484278520701
 30
0.0
 10
20.97607274835751
 20
-22.87874604767808
 30
0.0
 10
21.0816405838985
 20
-22.85377220456116
 30
0.0
 10
21.1912481883091
 20
-22.83905603922052
 30
0.0
 10
21.26566379391282
 20
-22.8369249787925
 30
0.0
 10
21.30341045673068
 20
-22.8358440170941
 30
0.0
  0
SPLINE
  5
141
330
1F
100
AcDbEntity
  8
0
  6
Continuous
 62
     7
370
    15
100
AcDbSpline
210
0.0
220
0.0
230
1.0
 70
     8
 71
     3
 72
    15
 73
    11
 74
     0
 42
0.000000001
 43
0.00000001
 40
0.0
 40
0.0
 40
0.0
 40
0.0
 40
0.1298621417207352
 40
0.2546535308972855
 40
0.3760145541937115
 40
0.4952552518176062
 40
0.6147977192994559
 40
0.7381055541683305
 40
0.8651963000723564
 40
1.0
 40
1.0
 40
1.0
 40
1.0
 10
21.30341045673068
 20
-22.8358440170941
 30
0.0
 10
21.34681712524909
 20
-22.83703957596552
 30
0.0
 10
21.43193555357806
 20
-22.83938401048638
 30
0.0
 10
21.55644152318861
 20
-22.85889438552481
 30
0.0
 10
21.67422565154056
 20
-22.89185565851014
 30
0.0
 10
21.78619715736557
 20
-22.93669062561659
 30
0.0
 10
21.89195395407657
 20
-22.99626995569244
 30
0.0
 10
21.99049482853453
 20
-23.07142519709126
 30
0.0
 10
22.08285106673751
 20
-23.16168236268487
 30
0.0
 10
22.13638634498034
 20
-23.23100885728221
 30
0.0
 10
22.16394230769222
 20
-23.26669295873405
 30
0.0
  0
LINE
  5
142
330
1F
100
AcDbEntity
  8
0
  6
Continuous
 62
     7
370
    15
100
AcDbLine
 10
16.1600419004
 20
-25.0
 30
0.0
 11
15.3729700855
 21
-25.0
 31
0.0
  0
LINE
  5
143
330
1F
100
AcDbEntity
  8
0
  6
Continuous
 62
     7
370
    15
100
AcDbLine
 10
15.3729700855
 20
-25.0
 30
0.0
 11
15.3729700855
 21
-22.0895833333
 31
0.0
  0
LINE
  5
144
330
1F
100
AcDbEntity
  8
0
  6
Continuous
 62
     7
370
    15
100
AcDbLine
 10
15.3729700855
 20
-22.0895833333
 30
0.0
 11
15.9408278245
 21
-22.0895833333
 31
0.0
  0
SPLINE
  5
145
330
1F
100
AcDbEntity
  8
0
  6
Continuous
 62
     7
370
    15
100
AcDbSpline
210
0.0
220
0.0
230
1.0
 70
     8
 71
     3
 72
    23
 73
    19
 74
     0
 42
0.000000001
 43
0.00000001
 40
0.0
 40
0.0
 40
0.0
 40
0.0
 40
0.0625940971873317
 40
0.1213229386347511
 40
0.1766801421977675
 40
0.2283650957096759
 40
0.2768684458368079
 40
0.3218791276660455
 40
0.364098625109892
 40
0.4033556962427033
 40
0.4779679481633715
 40
0.550535461364776
 40
0.6235844567403249
 40
0.6981748822642037
 40
0.7733536703408753
 40
0.8472811254977319
 40
0.9228183395566686
 40
0.9999999999999999
 40
0.9999999999999999
 40
0.9999999999999999
 40
0.9999999999999999
 10
15.94082782451913
 20
-22.08958333333342
 30
0.0
 10
15.96862519596457
 20
-22.08972947816155
 30
0.0
 10
16.02250341997648
 20
-22.09001274321068
 30
0.0
 10
16.10085137249717
 20
-22.09440591833707
 30
0.0
 10
16.17423446086908
 20
-22.10039611287306
 30
0.0
 10
16.24267396680581
 20
-22.10990077919684
 30
0.0
 10
16.30613826516315
 20
-22.12136929864448
 30
0.0
 10
16.36481861589008
 20
-22.13525765404816
 30
0.0
 10
16.41852841985368
 20
-22.15191073695392
 30
0.0
 10
16.48265133221046
 20
-22.17839243628828
 30
0.0
 10
16.55576154842935
 20
-22.21774390425526
 30
0.0
 10
16.63492354521868
 20
-22.27589283610835
 30
0.0
 10
16.7026150466383
 20
-22.34701715216738
 30
0.0
 10
16.76097831162974
 20
-22.42724707456487
 30
0.0
 10
16.80737959978264
 20
-22.5155040228602
 30
0.0
 10
16.84094859284814
 20
-22.60968443162342
 30
0.0
 10
16.86220118325054
 20
-22.7085735229696
 30
0.0
 10
16.8643868514646
 20
-22.77646371314632
 30
0.0
 10
16.86549145299135
 20
-22.81077432224901
 30
0.0
  0
SPLINE
  5
146
330
1F
100
AcDbEntity
  8
0
  6
Continuous
 62
     7
370
    15
100
AcDbSpline
210
0.0
220
0.0
230
1.0
 70
     8
 71
     3
 72
    15
 73
    11
 74
     0
 42
0.000000001
 43
0.00000001
 40
0.0
 40
0.0
 40
0.0
 40
0.0
 40
0.1305691070873085
 40
0.2565806086940811
 40
0.380551616803683
 40
0.5036229172007097
 40
0.6257393231697874
 40
0.7475485819596246
 40
0.8717661185648731
 40
1.0
 40
1.0
 40
1.0
 40
1.0
 10
16.86549145299135
 20
-22.81077432224901
 30
0.0
 10
16.86458238979834
 20
-22.84291576289312
 30
0.0
 10
16.86279599489524
 20
-22.90607672484453
 30
0.0
 10
16.84571371228342
 20
-22.99845676690956
 30
0.0
 10
16.81897058501553
 20
-23.08639394113683
 30
0.0
 10
16.78179604151432
 20
-23.1695673175817
 30
0.0
 10
16.73348146491389
 20
-23.24609764946532
 30
0.0
 10
16.6762224939763
 20
-23.31660229867064
 30
0.0
 10
16.60714017666684
 20
-23.37809612404085
 30
0.0
 10
16.55538195865308
 20
-23.41247471622142
 30
0.0
 10
16.52909112913985
 20
-23.42993748330671
 30
0.0
  0
SPLINE
  5
147
330
1F
100
AcDbEntity
  8
0
  6
Continuous
 62
     7
370
    15
100
AcDbSpline
210
0.0
220
0.0
230
1.0
 70
     8
 71
     3
 72
    19
 73
    15
 74
     0
 42
0.000000001
 43
0.00000001
 40
0.0
 40
0.0
 40
0.0
 40
0.0
 40
0.1060574933033977
 40
0.2029142570846127
 40
0.2903001653958385
 40
0.3702225656250396
 40
0.4463837207709714
 40
0.5213968999648283
 40
0.5982910828464569
 40
0.6761424688569283
 40
0.7555286995560234
 40
0.8348871724576596
 40
0.916646048746641
 40
1.0
 40
1.0
 40
1.0
 40
1.0
 10
16.52909112913985
 20
-23.42993748330671
 30
0.0
 10
16.56215381803862
 20
-23.44263105683055
 30
0.0
 10
16.62541093213919
 20
-23.46691700741369
 30
0.0
 10
16.71246233652458
 20
-23.50985435455886
 30
0.0
 10
16.78746364513147
 20
-23.5565558237355
 30
0.0
 10
16.85099150997751
 20
-23.60755617769427
 30
0.0
 10
16.90532288135758
 20
-23.66252880190487
 30
0.0
 10
16.95276511908218
 20
-23.72227975107448
 30
0.0
 10
16.99324599985764
 20
-23.78758846819039
 30
0.0
 10
17.02793228213211
 20
-23.85777402706018
 30
0.0
 10
17.05499812270869
 20
-23.93211976294981
 30
0.0
 10
17.07526784794947
 20
-24.00992831902602
 30
0.0
 10
17.08688244702252
 20
-24.09092068724418
 30
0.0
 10
17.08853526539493
 20
-24.14604013661077
 30
0.0
 10
17.08936965811955
 20
-24.17386610243064
 30
0.0
  0
SPLINE
  5
148
330
1F
100
AcDbEntity
  8
0
  6
Continuous
 62
     7
370
    15
100
AcDbSpline
210
0.0
220
0.0
230
1.0
 70
     8
 71
     3
 72
    23
 73
    19
 74
     0
 42
0.000000001
 43
0.00000001
 40
0.0
 40
0.0
 40
0.0
 40
0.0
 40
0.0611602766365179
 40
0.1203345577262024
 40
0.1781802550631267
 40
0.2352351259863639
 40
0.2926829614441803
 40
0.3511862482150803
 40
0.4104566095096935
 40
0.4717198544629959
 40
0.5337612027725901
 40
0.5957390238870954
 40
0.6578875151248852
 40
0.7212951802914617
 40
0.7868225145418898
 40
0.854686153828685
 40
0.9254779862699966
 40
1.0
 40
1.0
 40
1.0
 40
1.0
 10
17.08936965811955
 20
-24.17386610243064
 30
0.0
 10
17.08855736413468
 20
-24.20227748359389
 30
0.0
 10
17.0869591529625
 20
-24.25817767199542
 30
0.0
 10
17.07516783117675
 20
-24.34029726899962
 30
0.0
 10
17.05520311542302
 20
-24.41877453115324
 30
0.0
 10
17.02770288240427
 20
-24.49411705510432
 30
0.0
 10
16.99181136246747
 20
-24.56617908358976
 30
0.0
 10
16.94813185879424
 20
-24.6350422560833
 30
0.0
 10
16.89605073118644
 20
-24.70001467267048
 30
0.0
 10
16.83779011932582
 20
-24.76181830450078
 30
0.0
 10
16.7718798709641
 20
-24.81738879194938
 30
0.0
 10
16.7007694485672
 20
-24.86687893613617
 30
0.0
 10
16.6235633123223
 20
-24.90757991755004
 30
0.0
 10
16.54152948158362
 20
-24.94176984733545
 30
0.0
 10
16.45374772586245
 20
-24.96788642844003
 30
0.0
 10
16.36061222438525
 20
-24.98615766995033
 30
0.0
 10
16.26220330196653
 20
-24.99846876321643
 30
0.0
 10
16.19467352678631
 20
-24.99948092704872
 30
0.0
 10
16.16004190037383
 20
-25.00000000000008
 30
0.0
  0
LINE
  5
149
330
1F
100
AcDbEntity
  8
0
  6
Continuous
 62
     7
370
    15
100
AcDbLine
 10
12.7237446581
 20
-22.8731570513
 30
0.0
 11
13.096875
 21
-22.8731570513
 31
0.0
  0
LINE
  5
14A
330
1F
100
AcDbEntity
  8
0
  6
Continuous
 62
     7
370
    15
100
AcDbLine
 10
13.096875
 20
-22.8731570513
 30
0.0
 11
13.096875
 21
-22.014957265
 31
0.0
  0
LINE
  5
14B
330
1F
100
AcDbEntity
  8
0
  6
Continuous
 62
     7
370
    15
100
AcDbLine
 10
13.096875
 20
-22.014957265
 30
0.0
 11
13.3580662393
 21
-22.014957265
 31
0.0
  0
LINE
  5
14C
330
1F
100
AcDbEntity
  8
0
  6
Continuous
 62
     7
370
    15
100
AcDbLine
 10
13.3580662393
 20
-22.014957265
 30
0.0
 11
13.3580662393
 21
-22.8731570513
 31
0.0
  0
LINE
  5
14D
330
1F
100
AcDbEntity
  8
0
  6
Continuous
 62
     7
370
    15
100
AcDbLine
 10
13.3580662393
 20
-22.8731570513
 30
0.0
 11
13.7311965812
 21
-22.8731570513
 31
0.0
  0
LINE
  5
14E
330
1F
100
AcDbEntity
  8
0
  6
Continuous
 62
     7
370
    15
100
AcDbLine
 10
13.7311965812
 20
-22.8731570513
 30
0.0
 11
13.7311965812
 21
-23.1343482906
 31
0.0
  0
LINE
  5
14F
330
1F
100
AcDbEntity
  8
0
  6
Continuous
 62
     7
370
    15
100
AcDbLine
 10
13.7311965812
 20
-23.1343482906
 30
0.0
 11
13.3580662393
 21
-23.1343482906
 31
0.0
  0
LINE
  5
150
330
1F
100
AcDbEntity
  8
0
  6
Continuous
 62
     7
370
    15
100
AcDbLine
 10
13.3580662393
 20
-23.1343482906
 30
0.0
 11
13.3580662393
 21
-25.0
 31
0.0
  0
LINE
  5
151
330
1F
100
AcDbEntity
  8
0
  6
Continuous
 62
     7
370
    15
100
AcDbLine
 10
13.3580662393
 20
-25.0
 30
0.0
 11
13.096875
 21
-25.0
 31
0.0
  0
LINE
  5
152
330
1F
100
AcDbEntity
  8
0
  6
Continuous
 62
     7
370
    15
100
AcDbLine
 10
13.096875
 20
-25.0
 30
0.0
 11
13.096875
 21
-23.1343482906
 31
0.0
  0
LINE
  5
153
330
1F
100
AcDbEntity
  8
0
  6
Continuous
 62
     7
370
    15
100
AcDbLine
 10
13.096875
 20
-23.1343482906
 30
0.0
 11
12.7237446581
 21
-23.1343482906
 31
0.0
  0
LINE
  5
154
330
1F
100
AcDbEntity
  8
0
  6
Continuous
 62
     7
370
    15
100
AcDbLine
 10
12.7237446581
 20
-23.1343482906
 30
0.0
 11
12.7237446581
 21
-22.8731570513
 31
0.0
  0
SPLINE
  5
155
330
1F
100
AcDbEntity
  8
0
  6
Continuous
 62
     7
370
    15
100
AcDbSpline
210
0.0
220
0.0
230
1.0
 70
     8
 71
     3
 72
    23
 73
    19
 74
     0
 42
0.000000001
 43
0.00000001
 40
0.0
 40
0.0
 40
0.0
 40
0.0
 40
0.0683846151037673
 40
0.1344755875434516
 40
0.1983910577839559
 40
0.2607534774484877
 40
0.3218292228076489
 40
0.3830372384795258
 40
0.4446531231064265
 40
0.5073980112040055
 40
0.5698252379730263
 40
0.6307776406313129
 40
0.6909286865237166
 40
0.7509451326917356
 40
0.8110494767293279
 40
0.8723308525469935
 40
0.9350040935894045
 40
1.0
 40
1.0
 40
1.0
 40
1.0
 10
-9.701388888888916
 20
-23.99254807692316
 30
0.0
 10
-9.700108632828483
 20
-24.02057161772864
 30
0.0
 10
-9.697591060920367
 20
-24.07567878048956
 30
0.0
 10
-9.685853647227804
 20
-24.15631460427898
 30
0.0
 10
-9.667352732369105
 20
-24.2331274370186
 30
0.0
 10
-9.641351017782217
 20
-24.30554113323107
 30
0.0
 10
-9.609862932769662
 20
-24.37450148331372
 30
0.0
 10
-9.571291000418507
 20
-24.43949693905491
 30
0.0
 10
-9.525273526090139
 20
-24.50023145588805
 30
0.0
 10
-9.473945667733025
 20
-24.55724829589854
 30
0.0
 10
-9.416812446195022
 20
-24.60802322646477
 30
0.0
 10
-9.356705899845014
 20
-24.65346878086911
 30
0.0
 10
-9.292765238958172
 20
-24.69155831576846
 30
0.0
 10
-9.22549463024326
 20
-24.72247516456939
 30
0.0
 10
-9.155002854144206
 20
-24.7466784523876
 30
0.0
 10
-9.081267701419986
 20
-24.76319949137214
 30
0.0
 10
-9.004434267760708
 20
-24.77426498441034
 30
0.0
 10
-8.952058630591788
 20
-24.77549539648483
 30
0.0
 10
-8.925394381009642
 20
-24.77612179487188
 30
0.0
  0
SPLINE
  5
156
330
1F
100
AcDbEntity
  8
0
  6
Continuous
 62
     7
370
    15
100
AcDbSpline
210
0.0
220
0.0
230
1.0
 70
     8
 71
     3
 72
    19
 73
    15
 74
     0
 42
0.000000001
 43
0.00000001
 40
0.0
 40
0.0
 40
0.0
 40
0.0
 40
0.082592263331437
 40
0.163878894098496
 40
0.245658739629502
 40
0.3277256953541227
 40
0.4086099609103186
 40
0.4857490859539298
 40
0.5591690561972755
 40
0.6302684758575453
 40
0.70530602843207
 40
0.7920649660966066
 40
0.8897964374100897
 40
1.0
 40
1.0
 40
1.0
 40
1.0
 10
-8.925394381009642
 20
-24.77612179487188
 30
0.0
 10
-8.899324408865109
 20
-24.77561616680409
 30
0.0
 10
-8.847596583135479
 20
-24.77461290372312
 30
0.0
 10
-8.770561298785305
 20
-24.7648572611382
 30
0.0
 10
-8.694774441775104
 20
-24.74908257361281
 30
0.0
 10
-8.620549683665399
 20
-24.72755381400158
 30
0.0
 10
-8.549393450483475
 20
-24.7012961578152
 30
0.0
 10
-8.483497002009942
 20
-24.66961181725821
 30
0.0
 10
-8.422893632230355
 20
-24.63456229571065
 30
0.0
 10
-8.366251130848774
 20
-24.59447365520908
 30
0.0
 10
-8.311309953638782
 20
-24.54540553780242
 30
0.0
 10
-8.256808255114143
 20
-24.48417392933751
 30
0.0
 10
-8.19836987133528
 20
-24.41175650296031
 30
0.0
 10
-8.16179043022633
 20
-24.35725216047749
 30
0.0
 10
-8.142403679220113
 20
-24.32836538461547
 30
0.0
  0
LINE
  5
157
330
1F
100
AcDbEntity
  8
0
  6
Continuous
 62
     7
370
    15
100
AcDbLine
 10
-8.1424036792
 20
-24.3283653846
 30
0.0
 11
-7.9103632479
 21
-24.4502157619
 31
0.0
  0
SPLINE
  5
158
330
1F
100
AcDbEntity
  8
0
  6
Continuous
 62
     7
370
    15
100
AcDbSpline
210
0.0
220
0.0
230
1.0
 70
     8
 71
     3
 72
    19
 73
    15
 74
     0
 42
0.000000001
 43
0.00000001
 40
0.0
 40
0.0
 40
0.0
 40
0.0
 40
0.0933698567361949
 40
0.1816607660710045
 40
0.2658742270426203
 40
0.346354784034309
 40
0.4245998617178943
 40
0.501903183837377
 40
0.5799920909873474
 40
0.6584434305294316
 40
0.7386722364878339
 40
0.8218941484362439
 40
0.9088007920466165
 40
1.0
 40
1.0
 40
1.0
 40
1.0
 10
-7.910363247863275
 20
-24.45021576188577
 30
0.0
 10
-7.928854035690802
 20
-24.48301477009506
 30
0.0
 10
-7.964829786317639
 20
-24.54682865142621
 30
0.0
 10
-8.026697551081572
 20
-24.63450026397354
 30
0.0
 10
-8.091551673338556
 20
-24.71337065625136
 30
0.0
 10
-8.162319675303431
 20
-24.78133275567671
 30
0.0
 10
-8.236884283338407
 20
-24.84058167520585
 30
0.0
 10
-8.315658996871496
 20
-24.8924185449275
 30
0.0
 10
-8.399053924476428
 20
-24.9365891240484
 30
0.0
 10
-8.487073011092631
 20
-24.97380298204736
 30
0.0
 10
-8.580455435464462
 20
-25.00241611494544
 30
0.0
 10
-8.67942749405067
 20
-25.02262623198511
 30
0.0
 10
-8.784178791100768
 20
-25.0351187952617
 30
0.0
 10
-8.855979751383657
 20
-25.03656996291976
 30
0.0
 10
-8.892745476095111
 20
-25.03731303418812
 30
0.0
  0
SPLINE
  5
159
330
1F
100
AcDbEntity
  8
0
  6
Continuous
 62
     7
370
    15
100
AcDbSpline
210
0.0
220
0.0
230
1.0
 70
     8
 71
     3
 72
    23
 73
    19
 74
     0
 42
0.000000001
 43
0.00000001
 40
0.0
 40
0.0
 40
0.0
 40
0.0
 40
0.0715786576891427
 40
0.1396292246928486
 40
0.2047966973966662
 40
0.2681349633966812
 40
0.3298137469867299
 40
0.3913013977745597
 40
0.4534335150970546
 40
0.5165516903197668
 40
0.5796312707049237
 40
0.6411189214927527
 40
0.7012940466987743
 40
0.7608103356761332
 40
0.8199317217781449
 40
0.878919575499382
 40
0.9389828222504477
 40
0.9999999999999999
 40
0.9999999999999999
 40
0.9999999999999999
 40
0.9999999999999999
 10
-8.892745476095111
 20
-25.03731303418812
 30
0.0
 10
-8.93360937051
 20
-25.03635910327418
 30
0.0
 10
-9.01332299017385
 20
-25.03449826041649
 30
0.0
 10
-9.129356934648056
 20
-25.01845565755046
 30
0.0
 10
-9.238605177208377
 20
-24.99228489261291
 30
0.0
 10
-9.341061575770867
 20
-24.95572545126571
 30
0.0
 10
-9.436475222705884
 20
-24.90797189665014
 30
0.0
 10
-9.525035754951283
 20
-24.84979725612648
 30
0.0
 10
-9.607208896403037
 20
-24.78150037529318
 30
0.0
 10
-9.6804052179695
 20
-24.70248967794123
 30
0.0
 10
-9.746300279961458
 20
-24.61793628845214
 30
0.0
 10
-9.80444692907219
 20
-24.52982892498373
 30
0.0
 10
-9.853057066676994
 20
-24.43838926748966
 30
0.0
 10
-9.89259932646475
 20
-24.34419943291296
 30
0.0
 10
-9.924534800490234
 20
-24.24785308810359
 30
0.0
 10
-9.946792589279204
 20
-24.14847361179751
 30
0.0
 10
-9.959623159476186
 20
-24.04632997418828
 30
0.0
 10
-9.961589308533148
 20
-23.97723058252298
 30
0.0
 10
-9.962580128205156
 20
-23.94240868723299
 30
0.0
  0
SPLINE
  5
15A
330
1F
100
AcDbEntity
  8
0
  6
Continuous
 62
     7
370
    15
100
AcDbSpline
210
0.0
220
0.0
230
1.0
 70
     8
 71
     3
 72
    15
 73
    11
 74
     0
 42
0.000000001
 43
0.00000001
 40
0.0
 40
0.0
 40
0.0
 40
0.0
 40
0.1280448079611189
 40
0.2537679000244885
 40
0.3774284265813016
 40
0.5005508414825312
 40
0.6232958832424742
 40
0.7465783319335083
 40
0.8723475406047155
 40
1.0
 40
1.0
 40
1.0
 40
1.0
 10
-9.962580128205156
 20
-23.94240868723299
 30
0.0
 10
-9.961699401753465
 20
-23.90973316455837
 30
0.0
 10
-9.959953918233278
 20
-23.84497459368483
 30
0.0
 10
-9.948951888477923
 20
-23.74912580457244
 30
0.0
 10
-9.92945351620649
 20
-23.65596881160673
 30
0.0
 10
-9.902697370636883
 20
-23.56542620814691
 30
0.0
 10
-9.86814553080475
 20
-23.47764959316132
 30
0.0
 10
-9.825876119944594
 20
-23.39258554501754
 30
0.0
 10
-9.775823291509516
 20
-23.31032458050263
 30
0.0
 10
-9.73717905029655
 20
-23.25843340324678
 30
0.0
 10
-9.71771334134618
 20
-23.23229500534196
 30
0.0
  0
SPLINE
  5
15B
330
1F
100
AcDbEntity
  8
0
  6
Continuous
 62
     7
370
    15
100
AcDbSpline
210
0.0
220
0.0
230
1.0
 70
     8
 71
     3
 72
    15
 73
    11
 74
     0
 42
0.000000001
 43
0.00000001
 40
0.0
 40
0.0
 40
0.0
 40
0.0
 40
0.1288352544875548
 40
0.2535893349864771
 40
0.3746432573141713
 40
0.4953400422377923
 40
0.6163247746357913
 40
0.7397593354405135
 40
0.8668423203805459
 40
1.0
 40
1.0
 40
1.0
 40
1.0
 10
-9.71771334134618
 20
-23.23229500534196
 30
0.0
 10
-9.691346893228419
 20
-23.20080523658422
 30
0.0
 10
-9.639449219173802
 20
-23.13882321504891
 30
0.0
 10
-9.551674083203967
 20
-23.0573828334317
 30
0.0
 10
-9.456628027078775
 20
-22.98915952752553
 30
0.0
 10
-9.355502168946678
 20
-22.93260835539154
 30
0.0
 10
-9.247121184266534
 20
-22.8896392572672
 30
0.0
 10
-9.132941970231109
 20
-22.85761836894667
 30
0.0
 10
-9.011664420255768
 20
-22.83967522524817
 30
0.0
 10
-8.928754781261146
 20
-22.83714080645654
 30
0.0
 10
-8.886332298344044
 20
-22.8358440170941
 30
0.0
  0
SPLINE
  5
15C
330
1F
100
AcDbEntity
  8
0
  6
Continuous
 62
     7
370
    15
100
AcDbSpline
210
0.0
220
0.0
230
1.0
 70
     8
 71
     3
 72
    15
 73
    11
 74
     0
 42
0.000000001
 43
0.00000001
 40
0.0
 40
0.0
 40
0.0
 40
0.0
 40
0.1320402344259825
 40
0.2590328407793689
 40
0.3818798239250165
 40
0.5022584437149854
 40
0.6227521895274787
 40
0.7447426318590019
 40
0.8701089273418194
 40
1.0
 40
1.0
 40
1.0
 40
1.0
 10
-8.886332298344044
 20
-22.8358440170941
 30
0.0
 10
-8.842719617029017
 20
-22.83696997322673
 30
0.0
 10
-8.75716147799549
 20
-22.8391788424922
 30
0.0
 10
-8.632402624966689
 20
-22.85965681140438
 30
0.0
 10
-8.514355529129055
 20
-22.8921308701693
 30
0.0
 10
-8.403067428819886
 20
-22.93799387334148
 30
0.0
 10
-8.298527041039106
 20
-22.99716642920526
 30
0.0
 10
-8.201413879577292
 20
-23.07046056762721
 30
0.0
 10
-8.110067115868599
 20
-23.15562608420663
 30
0.0
 10
-8.056924089287332
 20
-23.22112144347444
 30
0.0
 10
-8.029881560496822
 20
-23.25444961939111
 30
0.0
  0
SPLINE
  5
15D
330
1F
100
AcDbEntity
  8
0
  6
Continuous
 62
     7
370
    15
100
AcDbSpline
210
0.0
220
0.0
230
1.0
 70
     8
 71
     3
 72
    15
 73
    11
 74
     0
 42
0.000000001
 43
0.00000001
 40
0.0
 40
0.0
 40
0.0
 40
0.0
 40
0.1185218400132594
 40
0.2362547631617471
 40
0.3561744339909317
 40
0.4772496548985577
 40
0.6015398708217043
 40
0.7296183821680412
 40
0.8621582661414409
 40
1.0
 40
1.0
 40
1.0
 40
1.0
 10
-8.029881560496822
 20
-23.25444961939111
 30
0.0
 10
-8.011481957626257
 20
-23.27956533557959
 30
0.0
 10
-7.974805225152574
 20
-23.32962959022737
 30
0.0
 10
-7.928864630659076
 20
-23.41126358217359
 30
0.0
 10
-7.888985773044667
 20
-23.49667233235642
 30
0.0
 10
-7.857110090581794
 20
-23.58723643058888
 30
0.0
 10
-7.83129926726538
 20
-23.68188283148269
 30
0.0
 10
-7.812625353110591
 20
-23.78128814991476
 30
0.0
 10
-7.801674188135101
 20
-23.88542278454043
 30
0.0
 10
-7.799521563018577
 20
-23.95637587858862
 30
0.0
 10
-7.798424145299172
 20
-23.99254807692316
 30
0.0
  0
LINE
  5
15E
330
1F
100
AcDbEntity
  8
0
  6
Continuous
 62
     7
370
    15
100
AcDbLine
 10
-7.7984241453
 20
-23.9925480769
 30
0.0
 11
-9.7013888889
 21
-23.9925480769
 31
0.0
  0
LINE
  5
15F
330
1F
100
AcDbEntity
  8
0
  6
Continuous
 62
     7
370
    15
100
AcDbLine
 10
-10.4849626068
 20
-25.0
 30
0.0
 11
-10.7461538462
 21
-25.0
 31
0.0
  0
LINE
  5
160
330
1F
100
AcDbEntity
  8
0
  6
Continuous
 62
     7
370
    15
100
AcDbLine
 10
-10.7461538462
 20
-25.0
 30
0.0
 11
-10.7461538462
 21
-22.014957265
 31
0.0
  0
LINE
  5
161
330
1F
100
AcDbEntity
  8
0
  6
Continuous
 62
     7
370
    15
100
AcDbLine
 10
-10.7461538462
 20
-22.014957265
 30
0.0
 11
-10.4849626068
 21
-22.014957265
 31
0.0
  0
LINE
  5
162
330
1F
100
AcDbEntity
  8
0
  6
Continuous
 62
     7
370
    15
100
AcDbLine
 10
-10.4849626068
 20
-22.014957265
 30
0.0
 11
-10.4849626068
 21
-25.0
 31
0.0
  0
LINE
  5
163
330
1F
100
AcDbEntity
  8
0
  6
Continuous
 62
     7
370
    15
100
AcDbLine
 10
-11.1565972222
 20
-25.0
 30
0.0
 11
-12.7983707265
 21
-25.0
 31
0.0
  0
LINE
  5
164
330
1F
100
AcDbEntity
  8
0
  6
Continuous
 62
     7
370
    15
100
AcDbLine
 10
-12.7983707265
 20
-25.0
 30
0.0
 11
-12.7983707265
 21
-22.0895833333
 31
0.0
  0
LINE
  5
165
330
1F
100
AcDbEntity
  8
0
  6
Continuous
 62
     7
370
    15
100
AcDbLine
 10
-12.7983707265
 20
-22.0895833333
 30
0.0
 11
-11.1565972222
 21
-22.0895833333
 31
0.0
  0
LINE
  5
166
330
1F
100
AcDbEntity
  8
0
  6
Continuous
 62
     7
370
    15
100
AcDbLine
 10
-11.1565972222
 20
-22.0895833333
 30
0.0
 11
-11.1565972222
 21
-22.3880876068
 31
0.0
  0
LINE
  5
167
330
1F
100
AcDbEntity
  8
0
  6
Continuous
 62
     7
370
    15
100
AcDbLine
 10
-11.1565972222
 20
-22.3880876068
 30
0.0
 11
-12.5371794872
 21
-22.3880876068
 31
0.0
  0
LINE
  5
168
330
1F
100
AcDbEntity
  8
0
  6
Continuous
 62
     7
370
    15
100
AcDbLine
 10
-12.5371794872
 20
-22.3880876068
 30
0.0
 11
-12.5371794872
 21
-23.2836004274
 31
0.0
  0
LINE
  5
169
330
1F
100
AcDbEntity
  8
0
  6
Continuous
 62
     7
370
    15
100
AcDbLine
 10
-12.5371794872
 20
-23.2836004274
 30
0.0
 11
-11.1565972222
 21
-23.2836004274
 31
0.0
  0
LINE
  5
16A
330
1F
100
AcDbEntity
  8
0
  6
Continuous
 62
     7
370
    15
100
AcDbLine
 10
-11.1565972222
 20
-23.2836004274
 30
0.0
 11
-11.1565972222
 21
-23.5821047009
 31
0.0
  0
LINE
  5
16B
330
1F
100
AcDbEntity
  8
0
  6
Continuous
 62
     7
370
    15
100
AcDbLine
 10
-11.1565972222
 20
-23.5821047009
 30
0.0
 11
-12.5371794872
 21
-23.5821047009
 31
0.0
  0
LINE
  5
16C
330
1F
100
AcDbEntity
  8
0
  6
Continuous
 62
     7
370
    15
100
AcDbLine
 10
-12.5371794872
 20
-23.5821047009
 30
0.0
 11
-12.5371794872
 21
-24.7014957265
 31
0.0
  0
LINE
  5
16D
330
1F
100
AcDbEntity
  8
0
  6
Continuous
 62
     7
370
    15
100
AcDbLine
 10
-12.5371794872
 20
-24.7014957265
 30
0.0
 11
-11.1565972222
 21
-24.7014957265
 31
0.0
  0
LINE
  5
16E
330
1F
100
AcDbEntity
  8
0
  6
Continuous
 62
     7
370
    15
100
AcDbLine
 10
-11.1565972222
 20
-24.7014957265
 30
0.0
 11
-11.1565972222
 21
-25.0
 31
0.0
  0
LINE
  5
16F
330
1F
100
AcDbEntity
  8
0
  6
Continuous
 62
     7
370
    15
100
AcDbLine
 10
-16.081917735
 20
-23.5447916667
 30
0.0
 11
-15.7834134615
 21
-22.0895833333
 31
0.0
  0
LINE
  5
170
330
1F
100
AcDbEntity
  8
0
  6
Continuous
 62
     7
370
    15
100
AcDbLine
 10
-15.7834134615
 20
-22.0895833333
 30
0.0
 11
-14.5893963675
 21
-22.0895833333
 31
0.0
  0
LINE
  5
171
330
1F
100
AcDbEntity
  8
0
  6
Continuous
 62
     7
370
    15
100
AcDbLine
 10
-14.5893963675
 20
-22.0895833333
 30
0.0
 11
-14.5893963675
 21
-22.3880876068
 31
0.0
  0
LINE
  5
172
330
1F
100
AcDbEntity
  8
0
  6
Continuous
 62
     7
370
    15
100
AcDbLine
 10
-14.5893963675
 20
-22.3880876068
 30
0.0
 11
-15.5793578058
 21
-22.3880876068
 31
0.0
  0
LINE
  5
173
330
1F
100
AcDbEntity
  8
0
  6
Continuous
 62
     7
370
    15
100
AcDbLine
 10
-15.5793578058
 20
-22.3880876068
 30
0.0
 11
-15.7361891526
 21
-23.1535878239
 31
0.0
  0
SPLINE
  5
174
330
1F
100
AcDbEntity
  8
0
  6
Continuous
 62
     7
370
    15
100
AcDbSpline
210
0.0
220
0.0
230
1.0
 70
     8
 71
     3
 72
    11
 73
     7
 74
     0
 42
0.000000001
 43
0.00000001
 40
0.0
 40
0.0
 40
0.0
 40
0.0
 40
0.275068369018746
 40
0.532901460089936
 40
0.7739734595924461
 40
0.9999999999999999
 40
0.9999999999999999
 40
0.9999999999999999
 40
0.9999999999999999
 10
-15.73618915264428
 20
-23.15358782385158
 30
0.0
 10
-15.70537542853712
 20
-23.14508086568555
 30
0.0
 10
-15.64567871158604
 20
-23.12859997970155
 30
0.0
 10
-15.55756804148704
 20
-23.11030113369561
 30
0.0
 10
-15.47392083419598
 20
-23.09927028527399
 30
0.0
 10
-15.41964125534867
 20
-23.09776409433023
 30
0.0
 10
-15.39337565104171
 20
-23.09703525641034
 30
0.0
  0
SPLINE
  5
175
330
1F
100
AcDbEntity
  8
0
  6
Continuous
 62
     7
370
    15
100
AcDbSpline
210
0.0
220
0.0
230
1.0
 70
     8
 71
     3
 72
    23
 73
    19
 74
     0
 42
0.000000001
 43
0.00000001
 40
0.0
 40
0.0
 40
0.0
 40
0.0
 40
0.0658076458106948
 40
0.1293942736680555
 40
0.1908940606321901
 40
0.2512810689298349
 40
0.3108149644652733
 40
0.3703709874482443
 40
0.4307682625897273
 40
0.4928812506175015
 40
0.5551039481552492
 40
0.6160670509938421
 40
0.6772560331746538
 40
0.7382598051991152
 40
0.8007621343762958
 40
0.864777581574483
 40
0.9310452949994023
 40
0.9999999999999999
 40
0.9999999999999999
 40
0.9999999999999999
 40
0.9999999999999999
 10
-15.39337565104171
 20
-23.09703525641034
 30
0.0
 10
-15.36087566034056
 20
-23.09773869222309
 30
0.0
 10
-15.29697255851721
 20
-23.099121822784
 30
0.0
 10
-15.20347421985645
 20
-23.11240317616119
 30
0.0
 10
-15.11422180805543
 20
-23.13330821231505
 30
0.0
 10
-15.02940197999807
 20
-23.16251259854489
 30
0.0
 10
-14.948857819736
 20
-23.19985718025471
 30
0.0
 10
-14.87333037724297
 20
-23.24650695208797
 30
0.0
 10
-14.80168596983666
 20
-23.30100103757372
 30
0.0
 10
-14.73520989617358
 20
-23.36365400287585
 30
0.0
 10
-14.67490248039555
 20
-23.43260727585369
 30
0.0
 10
-14.62187802351175
 20
-23.50674629123925
 30
0.0
 10
-14.57683925050278
 20
-23.5853505436214
 30
0.0
 10
-14.54061640850137
 20
-23.66917104981622
 30
0.0
 10
-14.51169157815406
 20
-23.75728113155091
 30
0.0
 10
-14.49243959196548
 20
-23.8506078683518
 30
0.0
 10
-14.47961986433518
 20
-23.94827157291054
 30
0.0
 10
-14.47818761809204
 20
-24.01504864695686
 30
0.0
 10
-14.47745726495731
 20
-24.0491006443644
 30
0.0
  0
SPLINE
  5
176
330
1F
100
AcDbEntity
  8
0
  6
Continuous
 62
     7
370
    15
100
AcDbSpline
210
0.0
220
0.0
230
1.0
 70
     8
 71
     3
 72
    31
 73
    27
 74
     0
 42
0.000000001
 43
0.00000001
 40
0.0
 40
0.0
 40
0.0
 40
0.0
 40
0.0440144705761384
 40
0.0874341236677058
 40
0.1301183986578977
 40
0.1725536945581825
 40
0.2145547559681377
 40
0.2562980920971296
 40
0.2984382251332501
 40
0.3408490025880961
 40
0.3827151889670272
 40
0.4239240454075327
 40
0.4642462432504168
 40
0.5040736714617956
 40
0.5438619058684915
 40
0.5835667249796533
 40
0.6230943188523332
 40
0.6632290607685847
 40
0.7035512586114702
 40
0.7439378946861851
 40
0.7845412548000926
 40
0.8257501112405969
 40
0.8677573633885063
 40
0.9107451640323103
 40
0.9549144468914782
 40
1.0
 40
1.0
 40
1.0
 40
1.0
 10
-14.47745726495731
 20
-24.0491006443644
 30
0.0
 10
-14.47801030671737
 20
-24.07281822878803
 30
0.0
 10
-14.47910891635664
 20
-24.11993287500436
 30
0.0
 10
-14.48469574191852
 20
-24.1899027847409
 30
0.0
 10
-14.49545240581236
 20
-24.25839140248852
 30
0.0
 10
-14.50989449543937
 20
-24.32540781403537
 30
0.0
 10
-14.52863958942615
 20
-24.39082514316287
 30
0.0
 10
-14.5513317372247
 20
-24.45483063394484
 30
0.0
 10
-14.57910212438617
 20
-24.51702591109972
 30
0.0
 10
-14.60956285726517
 20
-24.57799946874747
 30
0.0
 10
-14.64386126786954
 20
-24.63637287026593
 30
0.0
 10
-14.6819282766508
 20
-24.69096312871839
 30
0.0
 10
-14.7221464857208
 20
-24.74258916516333
 30
0.0
 10
-14.76542137589057
 20
-24.79069729910012
 30
0.0
 10
-14.81215517956455
 20
-24.83497140385996
 30
0.0
 10
-14.86178191391325
 20
-24.87567423080269
 30
0.0
 10
-14.91390557967734
 20
-24.91349412272734
 30
0.0
 10
-14.96933258772638
 20
-24.94689588978698
 30
0.0
 10
-15.02682785480977
 20
-24.9776323479688
 30
0.0
 10
-15.08722167584861
 20
-25.00284781324109
 30
0.0
 10
-15.14913929402667
 20
-25.02539150832126
 30
0.0
 10
-15.21347187212548
 20
-25.04336085955543
 30
0.0
 10
-15.28007369130655
 20
-25.05744108495036
 30
0.0
 10
-15.34905453734732
 20
-25.06700438199897
 30
0.0
 10
-15.42005263021826
 20
-25.07396978863345
 30
0.0
 10
-15.4681784591314
 20
-25.07440581640728
 30
0.0
 10
-15.49248839810368
 20
-25.07462606837616
 30
0.0
  0
SPLINE
  5
177
330
1F
100
AcDbEntity
  8
0
  6
Continuous
 62
     7
370
    15
100
AcDbSpline
210
0.0
220
0.0
230
1.0
 70
     8
 71
     3
 72
    23
 73
    19
 74
     0
 42
0.000000001
 43
0.00000001
 40
0.0
 40
0.0
 40
0.0
 40
0.0
 40
0.0654211437588933
 40
0.1287083718818837
 40
0.1902361418635391
 40
0.2507244020335377
 40
0.3106371794134435
 40
0.3707664082897267
 40
0.4316147444123515
 40
0.4935229735663541
 40
0.5558834553775335
 40
0.6173423673185103
 40
0.6786680390972759
 40
0.74071135954515
 40
0.8029853625127458
 40
0.866802580265518
 40
0.9323471713458887
 40
0.9999999999999999
 40
0.9999999999999999
 40
0.9999999999999999
 40
0.9999999999999999
 10
-15.49248839810368
 20
-25.07462606837615
 30
0.0
 10
-15.52148794003284
 20
-25.07405160369528
 30
0.0
 10
-15.57854111294553
 20
-25.07292141229948
 30
0.0
 10
-15.66212875115921
 20
-25.06109806473999
 30
0.0
 10
-15.74255155125074
 20
-25.04416449854929
 30
0.0
 10
-15.81916211751081
 20
-25.01868898130039
 30
0.0
 10
-15.89264703143712
 20
-24.98676811779906
 30
0.0
 10
-15.96201699378893
 20
-24.94642461090674
 30
0.0
 10
-16.02904453494302
 20
-24.9007068680885
 30
0.0
 10
-16.09100484169246
 20
-24.84675576505768
 30
0.0
 10
-16.14851144319073
 20
-24.7877859985104
 30
0.0
 10
-16.19998965324541
 20
-24.7237920552315
 30
0.0
 10
-16.24583584771036
 20
-24.65583013225872
 30
0.0
 10
-16.28531585517667
 20
-24.58357017913741
 30
0.0
 10
-16.31899188837845
 20
-24.50720206739939
 30
0.0
 10
-16.34544756612998
 20
-24.42643966725295
 30
0.0
 10
-16.36680034104399
 20
-24.34170496159619
 30
0.0
 10
-16.37583379247582
 20
-24.28336897704648
 30
0.0
 10
-16.38042200854705
 20
-24.2537393162394
 30
0.0
  0
LINE
  5
178
330
1F
100
AcDbEntity
  8
0
  6
Continuous
 62
     7
370
    15
100
AcDbLine
 10
-16.3804220085
 20
-24.2537393162
 30
0.0
 11
-16.1192307692
 21
-24.2537393162
 31
0.0
  0
SPLINE
  5
179
330
1F
100
AcDbEntity
  8
0
  6
Continuous
 62
     7
370
    15
100
AcDbSpline
210
0.0
220
0.0
230
1.0
 70
     8
 71
     3
 72
    19
 73
    15
 74
     0
 42
0.000000001
 43
0.00000001
 40
0.0
 40
0.0
 40
0.0
 40
0.0
 40
0.094687251867552
 40
0.1819941557072726
 40
0.264376948610511
 40
0.3421798619477706
 40
0.4186176108621453
 40
0.4965090753719084
 40
0.5773690916117311
 40
0.6615105924541982
 40
0.746732550829195
 40
0.8312579843277407
 40
0.9152056162136543
 40
1.0
 40
1.0
 40
1.0
 40
1.0
 10
-16.11923076923082
 20
-24.25373931623941
 30
0.0
 10
-16.11280410573436
 20
-24.28149342580534
 30
0.0
 10
-16.10045170164632
 20
-24.3348383654697
 30
0.0
 10
-16.07333846890434
 20
-24.40978686775678
 30
0.0
 10
-16.04018809507376
 20
-24.47657612696833
 30
0.0
 10
-16.00076912201487
 20
-24.53608964353567
 30
0.0
 10
-15.95374507880697
 20
-24.58798569662461
 30
0.0
 10
-15.90008578581288
 20
-24.63423393205738
 30
0.0
 10
-15.83992520884304
 20
-24.6759569413851
 30
0.0
 10
-15.77307441024823
 20
-24.71073456387001
 30
0.0
 10
-15.70254829607528
 20
-24.74039483083421
 30
0.0
 10
-15.6287341339423
 20
-24.7601454962196
 30
0.0
 10
-15.55364176964461
 20
-24.77403308389901
 30
0.0
 10
-15.50285219633241
 20
-24.77542323261324
 30
0.0
 10
-15.47732997796479
 20
-24.77612179487188
 30
0.0
  0
SPLINE
  5
17A
330
1F
100
AcDbEntity
  8
0
  6
Continuous
 62
     7
370
    15
100
AcDbSpline
210
0.0
220
0.0
230
1.0
 70
     8
 71
     3
 72
    23
 73
    19
 74
     0
 42
0.000000001
 43
0.00000001
 40
0.0
 40
0.0
 40
0.0
 40
0.0
 40
0.0642072952829854
 40
0.126424689779742
 40
0.1876802842649225
 40
0.2482164244552128
 40
0.3083050600086132
 40
0.369660991325142
 40
0.4316985517867806
 40
0.495946892208764
 40
0.5597580239721188
 40
0.6222954078261581
 40
0.6839106352841733
 40
0.7450924080566238
 40
0.806740225389292
 40
0.8690866181212029
 40
0.9332900029747992
 40
0.9999999999999999
 40
0.9999999999999999
 40
0.9999999999999999
 40
0.9999999999999999
 10
-15.47732997796479
 20
-24.77612179487188
 30
0.0
 10
-15.45241810483923
 20
-24.77543927895913
 30
0.0
 10
-15.40336642281694
 20
-24.77409539954231
 30
0.0
 10
-15.33117862090615
 20
-24.7637517686557
 30
0.0
 10
-15.26148422491782
 20
-24.7478213358481
 30
0.0
 10
-15.19497092885099
 20
-24.72398098619792
 30
0.0
 10
-15.13047481527606
 20
-24.69500594355454
 30
0.0
 10
-15.06962734070399
 20
-24.65782322872432
 30
0.0
 10
-15.01066822203405
 20
-24.61503177291022
 30
0.0
 10
-14.95543006576684
 20
-24.56600652757058
 30
0.0
 10
-14.90483916659088
 20
-24.51198113269968
 30
0.0
 10
-14.86013839205274
 20
-24.45420737161957
 30
0.0
 10
-14.82290425630492
 20
-24.39257568434552
 30
0.0
 10
-14.79152654791745
 20
-24.32815306855223
 30
0.0
 10
-14.76769996550363
 20
-24.26023345880325
 30
0.0
 10
-14.75070231623681
 20
-24.18913516016284
 30
0.0
 10
-14.74072120125501
 20
-24.11468256055071
 30
0.0
 10
-14.73934816648069
 20
-24.06390052140941
 30
0.0
 10
-14.73864850427355
 20
-24.03802333733983
 30
0.0
  0
SPLINE
  5
17B
330
1F
100
AcDbEntity
  8
0
  6
Continuous
 62
     7
370
    15
100
AcDbSpline
210
0.0
220
0.0
230
1.0
 70
     8
 71
     3
 72
    23
 73
    19
 74
     0
 42
0.000000001
 43
0.00000001
 40
0.0
 40
0.0
 40
0.0
 40
0.0
 40
0.065351382026593
 40
0.1279160318306139
 40
0.1883602055716989
 40
0.2472160772654515
 40
0.3056301291974122
 40
0.3637698398318185
 40
0.422660913912779
 40
0.4826872940903906
 40
0.5433002212395596
 40
0.6041179553231041
 40
0.6649648912652848
 40
0.7274134941125656
 40
0.7914676251494238
 40
0.8580554427291011
 40
0.9270368146149487
 40
1.0
 40
1.0
 40
1.0
 40
1.0
 10
-14.73864850427355
 20
-24.03802333733983
 30
0.0
 10
-14.73919606130191
 20
-24.01467701292625
 30
0.0
 10
-14.74026782627607
 20
-23.96897990470595
 30
0.0
 10
-14.74902449693871
 20
-23.90212413601642
 30
0.0
 10
-14.76425593168759
 20
-23.83886577881681
 30
0.0
 10
-14.78539709852444
 20
-23.77889935925799
 30
0.0
 10
-14.81223904632434
 20
-23.72216831821024
 30
0.0
 10
-14.84504053341327
 20
-23.6686141068414
 30
0.0
 10
-14.88441713872701
 20
-23.61894258004783
 30
0.0
 10
-14.9293971198927
 20
-23.57313049826659
 30
0.0
 10
-14.97867300274834
 20
-23.53085056362507
 30
0.0
 10
-15.03309259108654
 20
-23.49480789173616
 30
0.0
 10
-15.09151706592752
 20
-23.46448640783165
 30
0.0
 10
-15.15324251262869
 20
-23.43831926873352
 30
0.0
 10
-15.21973713365644
 20
-23.419525672708
 30
0.0
 10
-15.28968411903383
 20
-23.40541606796835
 30
0.0
 10
-15.36383879820163
 20
-23.39725412650314
 30
0.0
 10
-15.41453882875111
 20
-23.39612165146688
 30
0.0
 10
-15.44059995993594
 20
-23.39553952991461
 30
0.0
  0
SPLINE
  5
17C
330
1F
100
AcDbEntity
  8
0
  6
Continuous
 62
     7
370
    15
100
AcDbSpline
210
0.0
220
0.0
230
1.0
 70
     8
 71
     3
 72
    15
 73
    11
 74
     0
 42
0.000000001
 43
0.00000001
 40
0.0
 40
0.0
 40
0.0
 40
0.0
 40
0.1022030370352194
 40
0.211023342373875
 40
0.3250996615652089
 40
0.4465020971348879
 40
0.5737877176488528
 40
0.7089007097660674
 40
0.8503578712933985
 40
1.0
 40
1.0
 40
1.0
 40
1.0
 10
-15.44059995993594
 20
-23.39553952991461
 30
0.0
 10
-15.46315895609224
 20
-23.39602231910935
 30
0.0
 10
-15.50973755989498
 20
-23.39701915631192
 30
0.0
 10
-15.58118648188354
 20
-23.4043588087324
 30
0.0
 10
-15.65626834914454
 20
-23.41619946011102
 30
0.0
 10
-15.73469534336598
 20
-23.4324863575601
 30
0.0
 10
-15.8167029920683
 20
-23.45379981841236
 30
0.0
 10
-15.90211823362545
 20
-23.47934038827779
 30
0.0
 10
-15.99112066007736
 20
-23.50987647887475
 30
0.0
 10
-16.05108998209226
 20
-23.53293713518672
 30
0.0
 10
-16.08191773504278
 20
-23.54479166666675
 30
0.0
  0
LINE
  5
17D
330
1F
100
AcDbEntity
  8
0
  6
Continuous
 62
     7
370
    15
100
AcDbLine
 10
-17.9102564103
 20
-25.0
 30
0.0
 11
-17.9475694444
 21
-25.0
 31
0.0
  0
LINE
  5
17E
330
1F
100
AcDbEntity
  8
0
  6
Continuous
 62
     7
370
    15
100
AcDbLine
 10
-17.9475694444
 20
-25.0
 30
0.0
 11
-19.1788995726
 21
-22.0895833333
 31
0.0
  0
LINE
  5
17F
330
1F
100
AcDbEntity
  8
0
  6
Continuous
 62
     7
370
    15
100
AcDbLine
 10
-19.1788995726
 20
-22.0895833333
 30
0.0
 11
-18.8990518162
 21
-22.0895833333
 31
0.0
  0
LINE
  5
180
330
1F
100
AcDbEntity
  8
0
  6
Continuous
 62
     7
370
    15
100
AcDbLine
 10
-18.8990518162
 20
-22.0895833333
 30
0.0
 11
-17.9289129274
 21
-24.3831689036
 31
0.0
  0
LINE
  5
181
330
1F
100
AcDbEntity
  8
0
  6
Continuous
 62
     7
370
    15
100
AcDbLine
 10
-17.9289129274
 20
-24.3831689036
 30
0.0
 11
-16.9587740385
 21
-22.0895833333
 31
0.0
  0
LINE
  5
182
330
1F
100
AcDbEntity
  8
0
  6
Continuous
 62
     7
370
    15
100
AcDbLine
 10
-16.9587740385
 20
-22.0895833333
 30
0.0
 11
-16.6789262821
 21
-22.0895833333
 31
0.0
  0
LINE
  5
183
330
1F
100
AcDbEntity
  8
0
  6
Continuous
 62
     7
370
    15
100
AcDbLine
 10
-16.6789262821
 20
-22.0895833333
 30
0.0
 11
-17.9102564103
 21
-25.0
 31
0.0
  0
LINE
  5
184
330
1F
100
AcDbEntity
  8
0
  6
Continuous
 62
     7
370
    15
100
AcDbLine
 10
-20.8206730769
 20
-25.0
 30
0.0
 11
-21.0818643162
 21
-25.0
 31
0.0
  0
LINE
  5
185
330
1F
100
AcDbEntity
  8
0
  6
Continuous
 62
     7
370
    15
100
AcDbLine
 10
-21.0818643162
 20
-25.0
 30
0.0
 11
-21.0818643162
 21
-22.0895833333
 31
0.0
  0
LINE
  5
186
330
1F
100
AcDbEntity
  8
0
  6
Continuous
 62
     7
370
    15
100
AcDbLine
 10
-21.0818643162
 20
-22.0895833333
 30
0.0
 11
-20.8206730769
 21
-22.0895833333
 31
0.0
  0
LINE
  5
187
330
1F
100
AcDbEntity
  8
0
  6
Continuous
 62
     7
370
    15
100
AcDbLine
 10
-20.8206730769
 20
-22.0895833333
 30
0.0
 11
-20.8206730769
 21
-25.0
 31
0.0
  0
LINE
  5
188
330
1F
100
AcDbEntity
  8
0
  6
Continuous
 62
     7
370
    15
100
AcDbLine
 10
-21.828125
 20
-25.0
 30
0.0
 11
-22.0893162393
 21
-25.0
 31
0.0
  0
LINE
  5
189
330
1F
100
AcDbEntity
  8
0
  6
Continuous
 62
     7
370
    15
100
AcDbLine
 10
-22.0893162393
 20
-25.0
 30
0.0
 11
-22.0893162393
 21
-22.0895833333
 31
0.0
  0
LINE
  5
18A
330
1F
100
AcDbEntity
  8
0
  6
Continuous
 62
     7
370
    15
100
AcDbLine
 10
-22.0893162393
 20
-22.0895833333
 30
0.0
 11
-21.828125
 21
-22.0895833333
 31
0.0
  0
LINE
  5
18B
330
1F
100
AcDbEntity
  8
0
  6
Continuous
 62
     7
370
    15
100
AcDbLine
 10
-21.828125
 20
-22.0895833333
 30
0.0
 11
-21.828125
 21
-25.0
 31
0.0
  0
LINE
  5
18C
330
1F
100
AcDbEntity
  8
0
  6
Continuous
 62
     7
370
    15
100
AcDbLine
 10
-22.8355769231
 20
-25.0
 30
0.0
 11
-23.0967681624
 21
-25.0
 31
0.0
  0
LINE
  5
18D
330
1F
100
AcDbEntity
  8
0
  6
Continuous
 62
     7
370
    15
100
AcDbLine
 10
-23.0967681624
 20
-25.0
 30
0.0
 11
-23.0967681624
 21
-22.0895833333
 31
0.0
  0
LINE
  5
18E
330
1F
100
AcDbEntity
  8
0
  6
Continuous
 62
     7
370
    15
100
AcDbLine
 10
-23.0967681624
 20
-22.0895833333
 30
0.0
 11
-22.8355769231
 21
-22.0895833333
 31
0.0
  0
LINE
  5
18F
330
1F
100
AcDbEntity
  8
0
  6
Continuous
 62
     7
370
    15
100
AcDbLine
 10
-22.8355769231
 20
-22.0895833333
 30
0.0
 11
-22.8355769231
 21
-25.0
 31
0.0
  0
SPLINE
  5
190
330
1F
100
AcDbEntity
  8
0
  6
Continuous
 62
     7
370
    15
100
AcDbSpline
210
0.0
220
0.0
230
1.0
 70
     8
 71
     3
 72
    15
 73
    11
 74
     0
 42
0.000000001
 43
0.00000001
 40
0.0
 40
0.0
 40
0.0
 40
0.0
 40
0.1277566033101267
 40
0.2494143553365321
 40
0.3727964764553918
 40
0.5001113325158555
 40
0.6286099407651099
 40
0.750643373825811
 40
0.8737683791425161
 40
1.0
 40
1.0
 40
1.0
 40
1.0
 10
-23.97362446581196
 20
-25.03731303418812
 30
0.0
 10
-23.98986118616654
 20
-25.03644523344158
 30
0.0
 10
-24.02155951748632
 20
-25.03475105906507
 30
0.0
 10
-24.06711668054557
 20
-25.02047936836821
 30
0.0
 10
-24.10903247525062
 20
-24.99817438386783
 30
0.0
 10
-24.1462755903081
 20
-24.96718517401836
 30
0.0
 10
-24.17665906936087
 20
-24.92976541192087
 30
0.0
 10
-24.19963089069754
 20
-24.88802022762603
 30
0.0
 10
-24.213426389559
 20
-24.84246685377562
 30
0.0
 10
-24.2152407205802
 20
-24.81080597517567
 30
0.0
 10
-24.21615918803418
 20
-24.7947783119659
 30
0.0
  0
SPLINE
  5
191
330
1F
100
AcDbEntity
  8
0
  6
Continuous
 62
     7
370
    15
100
AcDbSpline
210
0.0
220
0.0
230
1.0
 70
     8
 71
     3
 72
    15
 73
    11
 74
     0
 42
0.000000001
 43
0.00000001
 40
0.0
 40
0.0
 40
0.0
 40
0.0
 40
0.1290969581672274
 40
0.2520459672599774
 40
0.3739049644019982
 40
0.5010378352202083
 40
0.6281707060384126
 40
0.7513764634091886
 40
0.8724260133704588
 40
1.0
 40
1.0
 40
1.0
 40
1.0
 10
-24.21615918803418
 20
-24.7947783119659
 30
0.0
 10
-24.2152760019271
 20
-24.77835576234212
 30
0.0
 10
-24.21355168944298
 20
-24.74629274967656
 30
0.0
 10
-24.19960192910264
 20
-24.70039206328016
 30
0.0
 10
-24.1768373052747
 20
-24.65867461707047
 30
0.0
 10
-24.14606555717703
 20
-24.6217567465748
 30
0.0
 10
-24.10904148494119
 20
-24.59083373358434
 30
0.0
 10
-24.06721779527831
 20
-24.56832806928898
 30
0.0
 10
-24.02144979658506
 20
-24.55498970272748
 30
0.0
 10
-23.98984272279668
 20
-24.55317483612212
 30
0.0
 10
-23.97362446581196
 20
-24.55224358974367
 30
0.0
  0
SPLINE
  5
192
330
1F
100
AcDbEntity
  8
0
  6
Continuous
 62
     7
370
    15
100
AcDbSpline
210
0.0
220
0.0
230
1.0
 70
     8
 71
     3
 72
    15
 73
    11
 74
     0
 42
0.000000001
 43
0.00000001
 40
0.0
 40
0.0
 40
0.0
 40
0.0
 40
0.1275189266999399
 40
0.2499859477488076
 40
0.3717923515057489
 40
0.4988703527764679
 40
0.6259483540471927
 40
0.7484917380160565
 40
0.8709587590649154
 40
1.0
 40
1.0
 40
1.0
 40
1.0
 10
-23.97362446581196
 20
-24.55224358974367
 30
0.0
 10
-23.9574174262848
 20
-24.55320666049424
 30
0.0
 10
-23.92564542003246
 20
-24.55509464810959
 30
0.0
 10
-23.87971145440309
 20
-24.56804739408737
 30
0.0
 10
-23.83813851415324
 20
-24.59104688734859
 30
0.0
 10
-23.80110783202999
 20
-24.62170004292685
 30
0.0
 10
-23.77058464887262
 20
-24.65886661518477
 30
0.0
 10
-23.74676550606159
 20
-24.70010797500882
 30
0.0
 10
-23.73392559157281
 20
-24.74642650169502
 30
0.0
 10
-23.73205135657316
 20
-24.77838260641129
 30
0.0
 10
-23.73108974358974
 20
-24.7947783119659
 30
0.0
  0
SPLINE
  5
193
330
1F
100
AcDbEntity
  8
0
  6
Continuous
 62
     7
370
    15
100
AcDbSpline
210
0.0
220
0.0
230
1.0
 70
     8
 71
     3
 72
    15
 73
    11
 74
     0
 42
0.000000001
 43
0.00000001
 40
0.0
 40
0.0
 40
0.0
 40
0.0
 40
0.126177718317003
 40
0.2488206074857903
 40
0.3715399692351511
 40
0.4999837069108849
 40
0.6272441978753766
 40
0.7492255210762669
 40
0.8722979504176542
 40
1.0
 40
1.0
 40
1.0
 40
1.0
 10
-23.73108974358974
 20
-24.7947783119659
 30
0.0
 10
-23.73208394254297
 20
-24.81078005701243
 30
0.0
 10
-23.73404448827803
 20
-24.84233526324394
 30
0.0
 10
-23.74673607372815
 20
-24.88830443186632
 30
0.0
 10
-23.77076617859206
 20
-24.92957156611912
 30
0.0
 10
-23.80089730068283
 20
-24.9672424512175
 30
0.0
 10
-23.83814766834997
 20
-24.99796054421727
 30
0.0
 10
-23.87980973945268
 20
-25.02076436123576
 30
0.0
 10
-23.92553758924161
 20
-25.0346445373866
 30
0.0
 10
-23.95739943669249
 20
-25.03641265467924
 30
0.0
 10
-23.97362446581196
 20
-25.03731303418812
 30
0.0
  0
LINE
  5
194
330
1F
100
AcDbEntity
  8
0
  6
Continuous
 62
     7
370
    15
100
AcDbLine
 10
-26.0071848291
 20
-25.0
 30
0.0
 11
-26.2683760684
 21
-25.0
 31
0.0
  0
LINE
  5
195
330
1F
100
AcDbEntity
  8
0
  6
Continuous
 62
     7
370
    15
100
AcDbLine
 10
-26.2683760684
 20
-25.0
 30
0.0
 11
-26.2683760684
 21
-22.014957265
 31
0.0
  0
LINE
  5
196
330
1F
100
AcDbEntity
  8
0
  6
Continuous
 62
     7
370
    15
100
AcDbLine
 10
-26.2683760684
 20
-22.014957265
 30
0.0
 11
-26.0071848291
 21
-22.014957265
 31
0.0
  0
LINE
  5
197
330
1F
100
AcDbEntity
  8
0
  6
Continuous
 62
     7
370
    15
100
AcDbLine
 10
-26.0071848291
 20
-22.014957265
 30
0.0
 11
-26.0071848291
 21
-23.7406850962
 31
0.0
  0
LINE
  5
198
330
1F
100
AcDbEntity
  8
0
  6
Continuous
 62
     7
370
    15
100
AcDbLine
 10
-26.0071848291
 20
-23.7406850962
 30
0.0
 11
-25.0393780048
 21
-22.8731570513
 31
0.0
  0
LINE
  5
199
330
1F
100
AcDbEntity
  8
0
  6
Continuous
 62
     7
370
    15
100
AcDbLine
 10
-25.0393780048
 20
-22.8731570513
 30
0.0
 11
-24.6639155983
 21
-22.8731570513
 31
0.0
  0
LINE
  5
19A
330
1F
100
AcDbEntity
  8
0
  6
Continuous
 62
     7
370
    15
100
AcDbLine
 10
-24.6639155983
 20
-22.8731570513
 30
0.0
 11
-25.7868047209
 21
-23.8806089744
 31
0.0
  0
LINE
  5
19B
330
1F
100
AcDbEntity
  8
0
  6
Continuous
 62
     7
370
    15
100
AcDbLine
 10
-25.7868047209
 20
-23.8806089744
 30
0.0
 11
-24.5519764957
 21
-25.0
 31
0.0
  0
LINE
  5
19C
330
1F
100
AcDbEntity
  8
0
  6
Continuous
 62
     7
370
    15
100
AcDbLine
 10
-24.5519764957
 20
-25.0
 30
0.0
 11
-24.9268558861
 21
-25.0
 31
0.0
  0
LINE
  5
19D
330
1F
100
AcDbEntity
  8
0
  6
Continuous
 62
     7
370
    15
100
AcDbLine
 10
-24.9268558861
 20
-25.0
 30
0.0
 11
-26.0071848291
 21
-24.0199498364
 31
0.0
  0
LINE
  5
19E
330
1F
100
AcDbEntity
  8
0
  6
Continuous
 62
     7
370
    15
100
AcDbLine
 10
-26.0071848291
 20
-24.0199498364
 30
0.0
 11
-26.0071848291
 21
-25.0
 31
0.0
  0
MTEXT
  5
1A0
330
1F
100
AcDbEntity
  8
0
  6
Continuous
 62
     7
100
AcDbMText
 10
-169.4
 20
-31.0195663917
 30
0.0
 40
4.83362
 41
0.0
 71
     1
 72
     1
  1
SOLIDWORKS Educational Product.
  7
SLDTEXTSTYLE0
 73
     1
 44
1.0
  0
MTEXT
  5
1A1
330
1F
100
AcDbEntity
  8
0
  6
Continuous
 62
     7
100
AcDbMText
 10
-169.4
 20
-38.2699963917
 30
0.0
 40
4.83362
 41
0.0
 71
     1
 72
     1
  1
For Instructional Use Only.
  7
SLDTEXTSTYLE0
 73
     1
 44
1.0
  0
ENDSEC
  0
SECTION
  2
OBJECTS
  0
DICTIONARY
  5
C
330
0
100
AcDbDictionary
281
     1
  3
ACAD_GROUP
350
D
  3
ACAD_LAYOUT
350
1A
  3
ACAD_MLINESTYLE
350
17
  3
ACAD_PLOTSETTINGS
350
19
  3
ACAD_PLOTSTYLENAME
350
E
  3
ACAD_SCALELIST
350
47
  0
DICTIONARY
  5
D
102
{ACAD_REACTORS
330
C
102
}
330
C
100
AcDbDictionary
281
     1
  0
DICTIONARY
  5
1A
102
{ACAD_REACTORS
330
C
102
}
330
C
100
AcDbDictionary
281
     1
  3
Layout1
350
1E
  3
Layout2
350
26
  3
Model
350
22
  0
DICTIONARY
  5
17
102
{ACAD_REACTORS
330
C
102
}
330
C
100
AcDbDictionary
281
     1
  3
Standard
350
18
  0
DICTIONARY
  5
19
102
{ACAD_REACTORS
330
C
102
}
330
C
100
AcDbDictionary
281
     1
  0
ACDBDICTIONARYWDFLT
  5
E
102
{ACAD_REACTORS
330
C
102
}
330
C
100
AcDbDictionary
281
     1
  3
Normal
350
F
100
AcDbDictionaryWithDefault
340
F
  0
DICTIONARY
  5
47
102
{ACAD_REACTORS
330
C
102
}
330
C
100
AcDbDictionary
281
     1
  3
A0
350
48
  3
A1
350
49
  3
A2
350
4A
  3
A3
350
4B
  3
A4
350
4C
  3
A5
350
4D
  3
A6
350
4E
  3
A7
350
4F
  3
A8
350
50
  3
A9
350
51
  3
B0
350
52
  3
B1
350
53
  3
B2
350
54
  3
B3
350
55
  3
B4
350
56
  3
B5
350
57
  3
B6
350
58
  3
B7
350
59
  3
B8
350
5A
  3
B9
350
5B
  3
C0
350
5C
  3
C1
350
5D
  3
C2
350
5E
  3
C3
350
5F
  3
C4
350
60
  3
C5
350
61
  3
C6
350
62
  3
C7
350
63
  3
C8
350
64
  3
C9
350
65
  3
D0
350
66
  3
D1
350
67
  3
D2
350
68
  0
LAYOUT
  5
1E
102
{ACAD_REACTORS
330
1A
102
}
330
1A
100
AcDbPlotSettings
  1

  2
none_device
  4

  6

 40
0.0
 41
0.0
 42
0.0
 43
0.0
 44
0.0
 45
0.0
 46
0.0
 47
0.0
 48
0.0
 49
0.0
140
0.0
141
0.0
142
1.0
143
1.0
 70
   688
 72
     1
 73
     0
 74
     5
  7

 75
    16
147
1.0
148
0.0
149
0.0
100
AcDbLayout
  1
Layout1
 70
     1
 71
     1
 10
0.0
 20
0.0
 11
420.0
 21
297.0
 12
0.0
 22
0.0
 32
0.0
 14
1.0000000000E+20
 24
1.0000000000E+20
 34
1.0000000000E+20
 15
-1.0000000000E+20
 25
-1.0000000000E+20
 35
-1.0000000000E+20
146
0.0
 13
0.0
 23
0.0
 33
0.0
 16
1.0
 26
0.0
 36
0.0
 17
0.0
 27
1.0
 37
0.0
 76
     0
330
1B
  0
LAYOUT
  5
26
102
{ACAD_REACTORS
330
1A
102
}
330
1A
100
AcDbPlotSettings
  1

  2
none_device
  4

  6

 40
0.0
 41
0.0
 42
0.0
 43
0.0
 44
0.0
 45
0.0
 46
0.0
 47
0.0
 48
0.0
 49
0.0
140
0.0
141
0.0
142
1.0
143
1.0
 70
   688
 72
     1
 73
     0
 74
     5
  7

 75
    16
147
1.0
148
0.0
149
0.0
100
AcDbLayout
  1
Layout2
 70
     1
 71
     2
 10
0.0
 20
0.0
 11
0.0
 21
0.0
 12
0.0
 22
0.0
 32
0.0
 14
0.0
 24
0.0
 34
0.0
 15
0.0
 25
0.0
 35
0.0
146
0.0
 13
0.0
 23
0.0
 33
0.0
 16
1.0
 26
0.0
 36
0.0
 17
0.0
 27
1.0
 37
0.0
 76
     0
330
23
  0
LAYOUT
  5
22
102
{ACAD_REACTORS
330
1A
102
}
330
1A
100
AcDbPlotSettings
  1

  2
none_device
  4
ANSI_A_(11.00_x_8.50_Inches)
  6

 40
6.35
 41
19.05
 42
6.35000508
 43
19.05000254
 44
279.4
 45
215.9
 46
133.34999746
 47
88.89999873
 48
0.0
 49
0.0
140
0.0
141
0.0
142
0.0321428571
143
1.0
 70
  1696
 72
     0
 73
     0
 74
     0
  7

 75
     0
147
0.0179189148
148
-1300.4909072572
149
0.0
100
AcDbLayout
  1
Model
 70
     1
 71
     0
 10
0.0
 20
0.0
 11
420.0
 21
297.0
 12
0.0
 22
0.0
 32
0.0
 14
-169.4
 24
-30.0
 34
0.0
 15
169.4
 25
30.0
 35
0.0
146
0.0
 13
0.0
 23
0.0
 33
0.0
 16
1.0
 26
0.0
 36
0.0
 17
0.0
 27
1.0
 37
0.0
 76
     0
330
1F
331
29
  0
MLINESTYLE
  5
18
102
{ACAD_REACTORS
330
17
102
}
330
17
100
AcDbMlineStyle
  2
Standard
 70
     0
  3

 62
   256
 51
90.0
 52
90.0
 71
     2
 49
0.5
 62
   256
  6
BYLAYER
 49
-0.5
 62
   256
  6
BYLAYER
  0
ACDBPLACEHOLDER
  5
F
102
{ACAD_REACTORS
330
E
102
}
330
E
  0
SCALE
  5
48
102
{ACAD_REACTORS
330
47
102
}
330
47
100
AcDbScale
 70
     0
300
1:1
140
1.0
141
1.0
290
     1
  0
SCALE
  5
49
102
{ACAD_REACTORS
330
47
102
}
330
47
100
AcDbScale
 70
     0
300
1:2
140
1.0
141
2.0
290
     0
  0
SCALE
  5
4A
102
{ACAD_REACTORS
330
47
102
}
330
47
100
AcDbScale
 70
     0
300
1:4
140
1.0
141
4.0
290
     0
  0
SCALE
  5
4B
102
{ACAD_REACTORS
330
47
102
}
330
47
100
AcDbScale
 70
     0
300
1:5
140
1.0
141
5.0
290
     0
  0
SCALE
  5
4C
102
{ACAD_REACTORS
330
47
102
}
330
47
100
AcDbScale
 70
     0
300
1:8
140
1.0
141
8.0
290
     0
  0
SCALE
  5
4D
102
{ACAD_REACTORS
330
47
102
}
330
47
100
AcDbScale
 70
     0
300
1:10
140
1.0
141
10.0
290
     0
  0
SCALE
  5
4E
102
{ACAD_REACTORS
330
47
102
}
330
47
100
AcDbScale
 70
     0
300
1:16
140
1.0
141
16.0
290
     0
  0
SCALE
  5
4F
102
{ACAD_REACTORS
330
47
102
}
330
47
100
AcDbScale
 70
     0
300
1:20
140
1.0
141
20.0
290
     0
  0
SCALE
  5
50
102
{ACAD_REACTORS
330
47
102
}
330
47
100
AcDbScale
 70
     0
300
1:30
140
1.0
141
30.0
290
     0
  0
SCALE
  5
51
102
{ACAD_REACTORS
330
47
102
}
330
47
100
AcDbScale
 70
     0
300
1:40
140
1.0
141
40.0
290
     0
  0
SCALE
  5
52
102
{ACAD_REACTORS
330
47
102
}
330
47
100
AcDbScale
 70
     0
300
1:50
140
1.0
141
50.0
290
     0
  0
SCALE
  5
53
102
{ACAD_REACTORS
330
47
102
}
330
47
100
AcDbScale
 70
     0
300
1:100
140
1.0
141
100.0
290
     0
  0
SCALE
  5
54
102
{ACAD_REACTORS
330
47
102
}
330
47
100
AcDbScale
 70
     0
300
2:1
140
2.0
141
1.0
290
     0
  0
SCALE
  5
55
102
{ACAD_REACTORS
330
47
102
}
330
47
100
AcDbScale
 70
     0
300
4:1
140
4.0
141
1.0
290
     0
  0
SCALE
  5
56
102
{ACAD_REACTORS
330
47
102
}
330
47
100
AcDbScale
 70
     0
300
8:1
140
8.0
141
1.0
290
     0
  0
SCALE
  5
57
102
{ACAD_REACTORS
330
47
102
}
330
47
100
AcDbScale
 70
     0
300
10:1
140
10.0
141
1.0
290
     0
  0
SCALE
  5
58
102
{ACAD_REACTORS
330
47
102
}
330
47
100
AcDbScale
 70
     0
300
100:1
140
100.0
141
1.0
290
     0
  0
SCALE
  5
59
102
{ACAD_REACTORS
330
47
102
}
330
47
100
AcDbScale
 70
     0
300
1/128" = 1'-0"
140
0.0078125
141
12.0
290
     0
  0
SCALE
  5
5A
102
{ACAD_REACTORS
330
47
102
}
330
47
100
AcDbScale
 70
     0
300
1/64" = 1'-0"
140
0.015625
141
12.0
290
     0
  0
SCALE
  5
5B
102
{ACAD_REACTORS
330
47
102
}
330
47
100
AcDbScale
 70
     0
300
1/32" = 1'-0"
140
0.03125
141
12.0
290
     0
  0
SCALE
  5
5C
102
{ACAD_REACTORS
330
47
102
}
330
47
100
AcDbScale
 70
     0
300
1/16" = 1'-0"
140
0.0625
141
12.0
290
     0
  0
SCALE
  5
5D
102
{ACAD_REACTORS
330
47
102
}
330
47
100
AcDbScale
 70
     0
300
3/32" = 1'-0"
140
0.09375
141
12.0
290
     0
  0
SCALE
  5
5E
102
{ACAD_REACTORS
330
47
102
}
330
47
100
AcDbScale
 70
     0
300
1/8" = 1'-0"
140
0.125
141
12.0
290
     0
  0
SCALE
  5
5F
102
{ACAD_REACTORS
330
47
102
}
330
47
100
AcDbScale
 70
     0
300
3/16" = 1'-0"
140
0.1875
141
12.0
290
     0
  0
SCALE
  5
60
102
{ACAD_REACTORS
330
47
102
}
330
47
100
AcDbScale
 70
     0
300
1/4" = 1'-0"
140
0.25
141
12.0
290
     0
  0
SCALE
  5
61
102
{ACAD_REACTORS
330
47
102
}
330
47
100
AcDbScale
 70
     0
300
3/8" = 1'-0"
140
0.375
141
12.0
290
     0
  0
SCALE
  5
62
102
{ACAD_REACTORS
330
47
102
}
330
47
100
AcDbScale
 70
     0
300
1/2" = 1'-0"
140
0.5
141
12.0
290
     0
  0
SCALE
  5
63
102
{ACAD_REACTORS
330
47
102
}
330
47
100
AcDbScale
 70
     0
300
3/4" = 1'-0"
140
0.75
141
12.0
290
     0
  0
SCALE
  5
64
102
{ACAD_REACTORS
330
47
102
}
330
47
100
AcDbScale
 70
     0
300
1" = 1'-0"
140
1.0
141
12.0
290
     0
  0
SCALE
  5
65
102
{ACAD_REACTORS
330
47
102
}
330
47
100
AcDbScale
 70
     0
300
1-1/2" = 1'-0"
140
1.5
141
12.0
290
     0
  0
SCALE
  5
66
102
{ACAD_REACTORS
330
47
102
}
330
47
100
AcDbScale
 70
     0
300
3" = 1'-0"
140
3.0
141
12.0
290
     0
  0
SCALE
  5
67
102
{ACAD_REACTORS
330
47
102
}
330
47
100
AcDbScale
 70
     0
300
6" = 1'-0"
140
6.0
141
12.0
290
     0
  0
SCALE
  5
68
102
{ACAD_REACTORS
330
47
102
}
330
47
100
AcDbScale
 70
     0
300
1'-0" = 1'-0"
140
12.0
141
12.0
290
     0
  0
ENDSEC
  0
EOF
