  0
SECTION
  2
HEADER
  9
$ACADVER
  1
AC1015
  9
$ACADMAINTVER
 70
     6
  9
$DWGCODEPAGE
  3
ANSI_1252
  9
$INSBASE
 10
0.0
 20
0.0
 30
0.0
  9
$EXTMIN
 10
-169.4
 20
-30.0
 30
0.0
  9
$EXTMAX
 10
169.4
 20
30.0
 30
0.0
  9
$LIMMIN
 10
0.0
 20
0.0
  9
$LIMMAX
 10
420.0
 20
297.0
  9
$ORTHOMODE
 70
     0
  9
$REGENMODE
 70
     1
  9
$FILLMODE
 70
     1
  9
$QTEXTMODE
 70
     0
  9
$MIRRTEXT
 70
     1
  9
$LTSCALE
 40
1.0
  9
$ATTMODE
 70
     1
  9
$TEXTSIZE
 40
6.35
  9
$TRACEWID
 40
1.0
  9
$TEXTSTYLE
  7
Standard
  9
$CLAYER
  8
0
  9
$CELTYPE
  6
ByLayer
  9
$CECOLOR
 62
   256
  9
$CELTSCALE
 40
1.0
  9
$DISPSILH
 70
     0
  9
$DIMSCALE
 40
1.0
  9
$DIMASZ
 40
5.9944
  9
$DIMEXO
 40
0.9906
  9
$DIMDLI
 40
3.75
  9
$DIMRND
 40
0.0
  9
$DIMDLE
 40
0.0
  9
$DIMEXE
 40
0.9906
  9
$DIMTP
 40
0.0
  9
$DIMTM
 40
0.0
  9
$DIMTXT
 40
6.35
  9
$DIMCEN
 40
2.5
  9
$DIMTSZ
 40
0.0
  9
$DIMTOL
 70
     0
  9
$DIMLIM
 70
     0
  9
$DIMTIH
 70
     1
  9
$DIMTOH
 70
     1
  9
$DIMSE1
 70
     0
  9
$DIMSE2
 70
     0
  9
$DIMTAD
 70
     1
  9
$DIMZIN
 70
     0
  9
$DIMBLK
  1

  9
$DIMASO
 70
     1
  9
$DIMSHO
 70
     1
  9
$DIMPOST
  1

  9
$DIMAPOST
  1

  9
$DIMALT
 70
     0
  9
$DIMALTD
 70
     3
  9
$DIMALTF
 40
0.0393700787
  9
$DIMLFAC
 40
1.0
  9
$DIMTOFL
 70
     1
  9
$DIMTVP
 40
0.0
  9
$DIMTIX
 70
     0
  9
$DIMSOXD
 70
     0
  9
$DIMSAH
 70
     0
  9
$DIMBLK1
  1

  9
$DIMBLK2
  1

  9
$DIMSTYLE
  2
ISO-25
  9
$DIMCLRD
 70
     0
  9
$DIMCLRE
 70
     0
  9
$DIMCLRT
 70
     0
  9
$DIMTFAC
 40
1.0
  9
$DIMGAP
 40
1.524
  9
$DIMJUST
 70
     0
  9
$DIMSD1
 70
     0
  9
$DIMSD2
 70
     0
  9
$DIMTOLJ
 70
     0
  9
$DIMTZIN
 70
     0
  9
$DIMALTZ
 70
     0
  9
$DIMALTTZ
 70
     0
  9
$DIMUPT
 70
     0
  9
$DIMDEC
 70
     2
  9
$DIMTDEC
 70
     2
  9
$DIMALTU
 70
     2
  9
$DIMALTTD
 70
     3
  9
$DIMTXSTY
  7
Standard
  9
$DIMAUNIT
 70
     0
  9
$DIMADEC
 70
     2
  9
$DIMALTRND
 40
0.0
  9
$DIMAZIN
 70
     0
  9
$DIMDSEP
 70
    44
  9
$DIMATFIT
 70
     3
  9
$DIMFRAC
 70
     0
  9
$DIMLDRBLK
  1

  9
$DIMLUNIT
 70
     2
  9
$DIMLWD
 70
    -2
  9
$DIMLWE
 70
    -2
  9
$DIMTMOVE
 70
     0
  9
$LUNITS
 70
     2
  9
$LUPREC
 70
     2
  9
$SKETCHINC
 40
1.0
  9
$FILLETRAD
 40
10.0
  9
$AUNITS
 70
     0
  9
$AUPREC
 70
     2
  9
$MENU
  1
.
  9
$ELEVATION
 40
0.0
  9
$PELEVATION
 40
0.0
  9
$THICKNESS
 40
0.0
  9
$LIMCHECK
 70
     0
  9
$CHAMFERA
 40
0.0
  9
$CHAMFERB
 40
0.0
  9
$CHAMFERC
 40
0.0
  9
$CHAMFERD
 40
0.0
  9
$SKPOLY
 70
     0
  9
$TDCREATE
 40
2458001.645955313
  9
$TDUCREATE
 40
2458001.604288646
  9
$TDUPDATE
 40
2458001.645980231
  9
$TDUUPDATE
 40
2458001.604313565
  9
$TDINDWG
 40
0.0000000116
  9
$TDUSRTIMER
 40
0.0000000116
  9
$USRTIMER
 70
     1
  9
$ANGBASE
 50
0.0
  9
$ANGDIR
 70
     0
  9
$PDMODE
 70
     0
  9
$PDSIZE
 40
-1.0
  9
$PLINEWID
 40
0.0
  9
$SPLFRAME
 70
     0
  9
$SPLINETYPE
 70
     6
  9
$SPLINESEGS
 70
     8
  9
$HANDSEED
  5
1A9
  9
$SURFTAB1
 70
     6
  9
$SURFTAB2
 70
     6
  9
$SURFTYPE
 70
     6
  9
$SURFU
 70
     6
  9
$SURFV
 70
     6
  9
$UCSBASE
  2

  9
$UCSNAME
  2

  9
$UCSORG
 10
0.0
 20
0.0
 30
0.0
  9
$UCSXDIR
 10
1.0
 20
0.0
 30
0.0
  9
$UCSYDIR
 10
0.0
 20
1.0
 30
0.0
  9
$UCSORTHOREF
  2

  9
$UCSORTHOVIEW
 70
     0
  9
$UCSORGTOP
 10
0.0
 20
0.0
 30
0.0
  9
$UCSORGBOTTOM
 10
0.0
 20
0.0
 30
0.0
  9
$UCSORGLEFT
 10
0.0
 20
0.0
 30
0.0
  9
$UCSORGRIGHT
 10
0.0
 20
0.0
 30
0.0
  9
$UCSORGFRONT
 10
0.0
 20
0.0
 30
0.0
  9
$UCSORGBACK
 10
0.0
 20
0.0
 30
0.0
  9
$PUCSBASE
  2

  9
$PUCSNAME
  2

  9
$PUCSORG
 10
0.0
 20
0.0
 30
0.0
  9
$PUCSXDIR
 10
1.0
 20
0.0
 30
0.0
  9
$PUCSYDIR
 10
0.0
 20
1.0
 30
0.0
  9
$PUCSORTHOREF
  2

  9
$PUCSORTHOVIEW
 70
     0
  9
$PUCSORGTOP
 10
0.0
 20
0.0
 30
0.0
  9
$PUCSORGBOTTOM
 10
0.0
 20
0.0
 30
0.0
  9
$PUCSORGLEFT
 10
0.0
 20
0.0
 30
0.0
  9
$PUCSORGRIGHT
 10
0.0
 20
0.0
 30
0.0
  9
$PUCSORGFRONT
 10
0.0
 20
0.0
 30
0.0
  9
$PUCSORGBACK
 10
0.0
 20
0.0
 30
0.0
  9
$USERI1
 70
     0
  9
$USERI2
 70
     0
  9
$USERI3
 70
     0
  9
$USERI4
 70
     0
  9
$USERI5
 70
     0
  9
$USERR1
 40
0.0
  9
$USERR2
 40
0.0
  9
$USERR3
 40
0.0
  9
$USERR4
 40
0.0
  9
$USERR5
 40
0.0
  9
$WORLDVIEW
 70
     1
  9
$SHADEDGE
 70
     3
  9
$SHADEDIF
 70
    70
  9
$TILEMODE
 70
     1
  9
$MAXACTVP
 70
    64
  9
$PINSBASE
 10
0.0
 20
0.0
 30
0.0
  9
$PLIMCHECK
 70
     0
  9
$PEXTMIN
 10
1.0000000000E+20
 20
1.0000000000E+20
 30
1.0000000000E+20
  9
$PEXTMAX
 10
-1.0000000000E+20
 20
-1.0000000000E+20
 30
-1.0000000000E+20
  9
$PLIMMIN
 10
0.0
 20
0.0
  9
$PLIMMAX
 10
420.0
 20
297.0
  9
$UNITMODE
 70
     0
  9
$VISRETAIN
 70
     1
  9
$PLINEGEN
 70
     0
  9
$PSLTSCALE
 70
     1
  9
$TREEDEPTH
 70
  3020
  9
$CMLSTYLE
  2
Standard
  9
$CMLJUST
 70
     0
  9
$CMLSCALE
 40
20.0
  9
$PROXYGRAPHICS
 70
     1
  9
$MEASUREMENT
 70
     1
  9
$CELWEIGHT
370
    -1
  9
$ENDCAPS
280
     0
  9
$JOINSTYLE
280
     0
  9
$LWDISPLAY
290
     1
  9
$INSUNITS
 70
     4
  9
$HYPERLINKBASE
  1

  9
$STYLESHEET
  1

  9
$XEDIT
290
     1
  9
$CEPSNTYPE
380
     0
  9
$PSTYLEMODE
290
     1
  9
$FINGERPRINTGUID
  2
{E491658A-0F67-4BD2-B6CC-975E004CF02C}
  9
$VERSIONGUID
  2
{FAEB1C32-E019-11D5-929B-00C0DF256EC4}
  9
$EXTNAMES
290
     1
  9
$PSVPSCALE
 40
0.0
  9
$OLESTARTUP
290
     0
  0
ENDSEC
  0
SECTION
  2
CLASSES
  0
CLASS
  1
ACDBDICTIONARYWDFLT
  2
AcDbDictionaryWithDefault
  3
ObjectDBX Classes
 90
        0
280
     0
281
     0
  0
CLASS
  1
VISUALSTYLE
  2
AcDbVisualStyle
  3
ObjectDBX Classes
 90
     4095
280
     0
281
     0
  0
CLASS
  1
MATERIAL
  2
AcDbMaterial
  3
ObjectDBX Classes
 90
     1153
280
     0
281
     0
  0
CLASS
  1
SCALE
  2
AcDbScale
  3
ObjectDBX Classes
 90
     1153
280
     0
281
     0
  0
CLASS
  1
TABLESTYLE
  2
AcDbTableStyle
  3
ObjectDBX Classes
 90
     4095
280
     0
281
     0
  0
CLASS
  1
MLEADERSTYLE
  2
AcDbMLeaderStyle
  3
ACDB_MLEADERSTYLE_CLASS
 90
     4095
280
     0
281
     0
  0
CLASS
  1
SUN
  2
AcDbSun
  3
SCENEOE
 90
     1153
280
     0
281
     0
  0
CLASS
  1
ACDBPLACEHOLDER
  2
AcDbPlaceHolder
  3
ObjectDBX Classes
 90
        0
280
     0
281
     0
  0
CLASS
  1
LAYOUT
  2
AcDbLayout
  3
ObjectDBX Classes
 90
        0
280
     0
281
     0
  0
ENDSEC
  0
SECTION
  2
TABLES
  0
TABLE
  2
VPORT
  5
8
330
0
100
AcDbSymbolTable
 70
     1
  0
VPORT
  5
29
330
8
100
AcDbSymbolTableRecord
100
AcDbViewportTableRecord
  2
*Active
 70
     0
 10
0.0
 20
0.0
 11
1.0
 21
1.0
 12
0.0
 22
0.0
 13
0.0
 23
0.0
 14
10.0
 24
10.0
 15
10.0
 25
10.0
 16
0.0
 26
0.0
 36
1.0
 17
0.0
 27
0.0
 37
0.0
 40
61.2
 41
5.6466666667
 42
50.0
 43
0.0
 44
0.0
 50
0.0
 51
0.0
 71
     0
 72
   100
 73
     1
 74
     3
 75
     0
 76
     0
 77
     0
 78
     0
281
     0
 65
     1
110
0.0
120
0.0
130
0.0
111
1.0
121
0.0
131
0.0
112
0.0
122
1.0
132
0.0
 79
     0
146
0.0
  0
ENDTAB
  0
TABLE
  2
LTYPE
  5
5
330
0
100
AcDbSymbolTable
 70
     6
  0
LTYPE
  5
14
330
5
100
AcDbSymbolTableRecord
100
AcDbLinetypeTableRecord
  2
ByBlock
 70
     0
  3

 72
    65
 73
     0
 40
0.0
  0
LTYPE
  5
15
330
5
100
AcDbSymbolTableRecord
100
AcDbLinetypeTableRecord
  2
ByLayer
 70
     0
  3

 72
    65
 73
     0
 40
0.0
  0
LTYPE
  5
16
330
5
100
AcDbSymbolTableRecord
100
AcDbLinetypeTableRecord
  2
Continuous
 70
     0
  3
Solid line
 72
    65
 73
     0
 40
0.0
  0
LTYPE
  5
6E
330
5
100
AcDbSymbolTableRecord
100
AcDbLinetypeTableRecord
  2
HIDDEN
 70
     0
  3
Hidden __ __ __ __ __ __ __ __ __ __ __ __ __ __
 72
    65
 73
     2
 40
1.905
 49
1.27
 74
     0
 49
-0.635
 74
     0
  0
LTYPE
  5
6F
330
5
100
AcDbSymbolTableRecord
100
AcDbLinetypeTableRecord
  2
PHANTOM
 70
     0
  3
Phantom ______  __  __  ______  __  __  ______
 72
    65
 73
     6
 40
12.7
 49
6.35
 74
     0
 49
-1.27
 74
     0
 49
1.27
 74
     0
 49
-1.27
 74
     0
 49
1.27
 74
     0
 49
-1.27
 74
     0
  0
LTYPE
  5
70
330
5
100
AcDbSymbolTableRecord
100
AcDbLinetypeTableRecord
  2
CENTER
 70
     0
  3
Center ____ _ ____ _ ____ _ ____ _ ____ _ ____
 72
    65
 73
     4
 40
10.16
 49
6.35
 74
     0
 49
-1.27
 74
     0
 49
1.27
 74
     0
 49
-1.27
 74
     0
  0
LTYPE
  5
71
330
5
100
AcDbSymbolTableRecord
100
AcDbLinetypeTableRecord
  2
CENTERX2
 70
     0
  3
Center (2x) ________  __  ________  __  _____
 72
    65
 73
     4
 40
20.32
 49
12.7
 74
     0
 49
-2.54
 74
     0
 49
2.54
 74
     0
 49
-2.54
 74
     0
  0
LTYPE
  5
72
330
5
100
AcDbSymbolTableRecord
100
AcDbLinetypeTableRecord
  2
DOT2
 70
     0
  3
Dot (.5x) ........................................
 72
    65
 73
     2
 40
0.635
 49
0.0
 74
     0
 49
-0.635
 74
     0
  0
ENDTAB
  0
TABLE
  2
LAYER
  5
2
330
0
100
AcDbSymbolTable
 70
     1
  0
LAYER
  5
10
330
2
100
AcDbSymbolTableRecord
100
AcDbLayerTableRecord
  2
0
 70
     0
 62
     7
  6
Continuous
370
    -3
390
F
  0
ENDTAB
  0
TABLE
  2
STYLE
  5
3
330
0
100
AcDbSymbolTable
 70
     2
  0
STYLE
  5
11
330
3
100
AcDbSymbolTableRecord
100
AcDbTextStyleTableRecord
  2
Standard
 70
     0
 40
0.0
 41
1.0
 50
0.0
 71
     0
 42
6.35
  3
txt
  4

  0
STYLE
  5
1A6
330
3
100
AcDbSymbolTableRecord
100
AcDbTextStyleTableRecord
  2
SLDTEXTSTYLE0
 70
     0
 40
0.0
 41
0.7
 50
0.0
 71
     0
 42
6.35
  3
TXT
  4

  0
ENDTAB
  0
TABLE
  2
VIEW
  5
6
330
0
100
AcDbSymbolTable
 70
     0
  0
ENDTAB
  0
TABLE
  2
UCS
  5
7
330
0
100
AcDbSymbolTable
 70
     0
  0
ENDTAB
  0
TABLE
  2
APPID
  5
9
330
0
100
AcDbSymbolTable
 70
     1
  0
APPID
  5
12
330
9
100
AcDbSymbolTableRecord
100
AcDbRegAppTableRecord
  2
ACAD
 70
     0
  0
ENDTAB
  0
TABLE
  2
DIMSTYLE
  5
A
330
0
100
AcDbSymbolTable
 70
     1
100
AcDbDimStyleTable
  0
DIMSTYLE
105
27
330
A
100
AcDbSymbolTableRecord
100
AcDbDimStyleTableRecord
  2
ISO-25
 70
     0
 41
2.5
 42
0.625
 43
3.75
 44
1.25
 73
     0
 74
     0
 77
     1
 78
     8
140
2.5
141
2.5
143
0.0393700787
147
0.625
171
     3
172
     1
178
     0
271
     2
272
     2
274
     3
278
    44
283
     0
284
     8
340
11
  0
ENDTAB
  0
TABLE
  2
BLOCK_RECORD
  5
1
330
0
100
AcDbSymbolTable
 70
     1
  0
BLOCK_RECORD
  5
1F
330
1
100
AcDbSymbolTableRecord
100
AcDbBlockTableRecord
  2
*Model_Space
340
22
  0
BLOCK_RECORD
  5
1B
330
1
100
AcDbSymbolTableRecord
100
AcDbBlockTableRecord
  2
*Paper_Space
340
1E
  0
BLOCK_RECORD
  5
23
330
1
100
AcDbSymbolTableRecord
100
AcDbBlockTableRecord
  2
*Paper_Space0
340
26
  0
ENDTAB
  0
ENDSEC
  0
SECTION
  2
BLOCKS
  0
BLOCK
  5
20
330
1F
100
AcDbEntity
  8
0
100
AcDbBlockBegin
  2
*Model_Space
 70
     0
 10
0.0
 20
0.0
 30
0.0
  3
*Model_Space
  1

  0
ENDBLK
  5
21
330
1F
100
AcDbEntity
  8
0
100
AcDbBlockEnd
  0
BLOCK
  5
1C
330
1B
100
AcDbEntity
 67
     1
  8
0
100
AcDbBlockBegin
  2
*Paper_Space
 70
     0
 10
0.0
 20
0.0
 30
0.0
  3
*Paper_Space
  1

  0
ENDBLK
  5
1D
330
1B
100
AcDbEntity
 67
     1
  8
0
100
AcDbBlockEnd
  0
BLOCK
  5
24
330
23
100
AcDbEntity
  8
0
100
AcDbBlockBegin
  2
*Paper_Space0
 70
     0
 10
0.0
 20
0.0
 30
0.0
  3
*Paper_Space0
  1

  0
ENDBLK
  5
25
330
23
100
AcDbEntity
  8
0
100
AcDbBlockEnd
  0
ENDSEC
  0
SECTION
  2
ENTITIES
  0
LINE
  5
73
330
1F
100
AcDbEntity
  8
0
  6
Continuous
 62
     7
370
    15
100
AcDbLine
 10
-96.0
 20
-21.6
 30
0.0
 11
-96.0
 21
-25.0
 31
0.0
  0
LINE
  5
74
330
1F
100
AcDbEntity
  8
0
  6
Continuous
 62
     7
370
    15
100
AcDbLine
 10
-86.0
 20
-21.6
 30
0.0
 11
-96.0
 21
-21.6
 31
0.0
  0
LINE
  5
75
330
1F
100
AcDbEntity
  8
0
  6
Continuous
 62
     7
370
    15
100
AcDbLine
 10
-86.0
 20
-25.0
 30
0.0
 11
-86.0
 21
-21.6
 31
0.0
  0
LINE
  5
76
330
1F
100
AcDbEntity
  8
0
  6
Continuous
 62
     7
370
    15
100
AcDbLine
 10
-96.0
 20
-25.0
 30
0.0
 11
-86.0
 21
-25.0
 31
0.0
  0
LINE
  5
77
330
1F
100
AcDbEntity
  8
0
  6
Continuous
 62
     7
370
    15
100
AcDbLine
 10
-126.0
 20
-21.6
 30
0.0
 11
-126.0
 21
-25.0
 31
0.0
  0
LINE
  5
78
330
1F
100
AcDbEntity
  8
0
  6
Continuous
 62
     7
370
    15
100
AcDbLine
 10
-116.0
 20
-21.6
 30
0.0
 11
-126.0
 21
-21.6
 31
0.0
  0
LINE
  5
79
330
1F
100
AcDbEntity
  8
0
  6
Continuous
 62
     7
370
    15
100
AcDbLine
 10
-116.0
 20
-25.0
 30
0.0
 11
-116.0
 21
-21.6
 31
0.0
  0
LINE
  5
7A
330
1F
100
AcDbEntity
  8
0
  6
Continuous
 62
     7
370
    15
100
AcDbLine
 10
-126.0
 20
-25.0
 30
0.0
 11
-116.0
 21
-25.0
 31
0.0
  0
CIRCLE
  5
7B
330
1F
100
AcDbEntity
  8
0
  6
Continuous
 62
     7
370
    15
100
AcDbCircle
 10
-43.4
 20
-10.0
 30
0.0
 40
5.0
  0
ARC
  5
7C
330
1F
100
AcDbEntity
  8
0
  6
Continuous
 62
     7
370
    15
100
AcDbCircle
 10
67.1718252471
 20
5.0
 30
0.0
 40
5.000000000000007
100
AcDbArc
 50
180.0
 51
0.0
  0
ARC
  5
7D
330
1F
100
AcDbEntity
  8
0
  6
Continuous
 62
     7
370
    15
100
AcDbCircle
 10
37.1718252471
 20
5.0
 30
0.0
 40
25.0
100
AcDbArc
 50
0.0
 51
90.0
  0
LINE
  5
7E
330
1F
100
AcDbEntity
  8
0
  6
Continuous
 62
     7
370
    15
100
AcDbLine
 10
3.0
 20
30.0
 30
0.0
 11
37.1718252471
 21
30.0
 31
0.0
  0
LINE
  5
7F
330
1F
100
AcDbEntity
  8
0
  6
Continuous
 62
     7
370
    15
100
AcDbLine
 10
3.0
 20
30.0
 30
0.0
 11
3.0
 21
3.0
 31
0.0
  0
ARC
  5
80
330
1F
100
AcDbEntity
  8
0
  6
Continuous
 62
     7
370
    15
100
AcDbCircle
 10
0.0
 20
3.0
 30
0.0
 40
3.000000000000004
100
AcDbArc
 50
180.0
 51
0.0
  0
LINE
  5
81
330
1F
100
AcDbEntity
  8
0
  6
Continuous
 62
     7
370
    15
100
AcDbLine
 10
-3.0
 20
30.0
 30
0.0
 11
-3.0
 21
3.0
 31
0.0
  0
LINE
  5
82
330
1F
100
AcDbEntity
  8
0
  6
Continuous
 62
     7
370
    15
100
AcDbLine
 10
-54.2855567812
 20
30.0
 30
0.0
 11
-3.0
 21
30.0
 31
0.0
  0
ARC
  5
83
330
1F
100
AcDbEntity
  8
0
  6
Continuous
 62
     7
370
    15
100
AcDbCircle
 10
-54.2855567812
 20
-0.669100239
 30
0.0
 40
30.66910023900697
100
AcDbArc
 50
90.0
 51
110.8061130581
  0
LINE
  5
84
330
1F
100
AcDbEntity
  8
0
  6
Continuous
 62
     7
370
    15
100
AcDbLine
 10
-122.9501160377
 20
6.0479203154
 30
0.0
 11
-65.1794266609
 21
28.0
 31
0.0
  0
ARC
  5
85
330
1F
100
AcDbEntity
  8
0
  6
Continuous
 62
     7
370
    15
100
AcDbCircle
 10
-128.658069818
 20
21.0693865981
 30
0.0
 40
16.06938659812894
100
AcDbArc
 50
202.19105668
 51
290.8061130581
  0
LINE
  5
86
330
1F
100
AcDbEntity
  8
0
  6
Continuous
 62
     7
370
    15
100
AcDbLine
 10
-149.1481408983
 20
28.7553925254
 30
0.0
 11
-143.5371897331
 21
15.0000393357
 31
0.0
  0
ARC
  5
87
330
1F
100
AcDbEntity
  8
0
  6
Continuous
 62
     7
370
    15
100
AcDbCircle
 10
-151.0
 20
28.0
 30
0.0
 40
2.000000000000044
100
AcDbArc
 50
22.19105668
 51
90.0
  0
LINE
  5
88
330
1F
100
AcDbEntity
  8
0
  6
Continuous
 62
     7
370
    15
100
AcDbLine
 10
-156.0
 20
30.0
 30
0.0
 11
-151.0
 21
30.0
 31
0.0
  0
LINE
  5
89
330
1F
100
AcDbEntity
  8
0
  6
Continuous
 62
     7
370
    15
100
AcDbLine
 10
-156.0
 20
30.0
 30
0.0
 11
-156.0
 21
0.0
 31
0.0
  0
LINE
  5
8A
330
1F
100
AcDbEntity
  8
0
  6
Continuous
 62
     7
370
    15
100
AcDbLine
 10
-156.0
 20
0.0
 30
0.0
 11
-159.4
 21
0.0
 31
0.0
  0
LINE
  5
8B
330
1F
100
AcDbEntity
  8
0
  6
Continuous
 62
     7
370
    15
100
AcDbLine
 10
-159.4
 20
30.0
 30
0.0
 11
-159.4
 21
0.0
 31
0.0
  0
LINE
  5
8C
330
1F
100
AcDbEntity
  8
0
  6
Continuous
 62
     7
370
    15
100
AcDbLine
 10
-164.4
 20
30.0
 30
0.0
 11
-159.4
 21
30.0
 31
0.0
  0
ARC
  5
8D
330
1F
100
AcDbEntity
  8
0
  6
Continuous
 62
     7
370
    15
100
AcDbCircle
 10
-164.4
 20
25.0
 30
0.0
 40
5.000000000000028
100
AcDbArc
 50
90.0
 51
180.0
  0
LINE
  5
8E
330
1F
100
AcDbEntity
  8
0
  6
Continuous
 62
     7
370
    15
100
AcDbLine
 10
-169.4
 20
25.0
 30
0.0
 11
-169.4
 21
-25.0
 31
0.0
  0
ARC
  5
8F
330
1F
100
AcDbEntity
  8
0
  6
Continuous
 62
     7
370
    15
100
AcDbCircle
 10
-164.4
 20
-25.0
 30
0.0
 40
5.000000000000028
100
AcDbArc
 50
180.0
 51
270.0
  0
LINE
  5
90
330
1F
100
AcDbEntity
  8
0
  6
Continuous
 62
     7
370
    15
100
AcDbLine
 10
-164.4
 20
-30.0
 30
0.0
 11
-53.4
 21
-30.0
 31
0.0
  0
LINE
  5
91
330
1F
100
AcDbEntity
  8
0
  6
Continuous
 62
     7
370
    15
100
AcDbLine
 10
-53.4
 20
-30.0
 30
0.0
 11
-53.4
 21
0.0
 31
0.0
  0
LINE
  5
92
330
1F
100
AcDbEntity
  8
0
  6
Continuous
 62
     7
370
    15
100
AcDbLine
 10
-50.0
 20
0.0
 30
0.0
 11
-53.4
 21
0.0
 31
0.0
  0
LINE
  5
93
330
1F
100
AcDbEntity
  8
0
  6
Continuous
 62
     7
370
    15
100
AcDbLine
 10
-50.0
 20
-30.0
 30
0.0
 11
-50.0
 21
0.0
 31
0.0
  0
LINE
  5
94
330
1F
100
AcDbEntity
  8
0
  6
Continuous
 62
     7
370
    15
100
AcDbLine
 10
-50.0
 20
-30.0
 30
0.0
 11
164.4
 21
-30.0
 31
0.0
  0
ARC
  5
95
330
1F
100
AcDbEntity
  8
0
  6
Continuous
 62
     7
370
    15
100
AcDbCircle
 10
164.4
 20
-25.0
 30
0.0
 40
5.000000000000028
100
AcDbArc
 50
270.0
 51
0.0
  0
LINE
  5
96
330
1F
100
AcDbEntity
  8
0
  6
Continuous
 62
     7
370
    15
100
AcDbLine
 10
169.4
 20
25.0
 30
0.0
 11
169.4
 21
-25.0
 31
0.0
  0
ARC
  5
97
330
1F
100
AcDbEntity
  8
0
  6
Continuous
 62
     7
370
    15
100
AcDbCircle
 10
164.4
 20
25.0
 30
0.0
 40
5.000000000000028
100
AcDbArc
 50
0.0
 51
90.0
  0
LINE
  5
98
330
1F
100
AcDbEntity
  8
0
  6
Continuous
 62
     7
370
    15
100
AcDbLine
 10
159.4
 20
30.0
 30
0.0
 11
164.4
 21
30.0
 31
0.0
  0
LINE
  5
99
330
1F
100
AcDbEntity
  8
0
  6
Continuous
 62
     7
370
    15
100
AcDbLine
 10
159.4
 20
30.0
 30
0.0
 11
159.4
 21
0.0
 31
0.0
  0
LINE
  5
9A
330
1F
100
AcDbEntity
  8
0
  6
Continuous
 62
     7
370
    15
100
AcDbLine
 10
156.0
 20
0.0
 30
0.0
 11
159.4
 21
0.0
 31
0.0
  0
LINE
  5
9B
330
1F
100
AcDbEntity
  8
0
  6
Continuous
 62
     7
370
    15
100
AcDbLine
 10
156.0
 20
30.0
 30
0.0
 11
156.0
 21
0.0
 31
0.0
  0
LINE
  5
9C
330
1F
100
AcDbEntity
  8
0
  6
Continuous
 62
     7
370
    15
100
AcDbLine
 10
151.0
 20
30.0
 30
0.0
 11
156.0
 21
30.0
 31
0.0
  0
ARC
  5
9D
330
1F
100
AcDbEntity
  8
0
  6
Continuous
 62
     7
370
    15
100
AcDbCircle
 10
151.0
 20
28.0
 30
0.0
 40
2.000000000000044
100
AcDbArc
 50
90.0
 51
157.80894332
  0
LINE
  5
9E
330
1F
100
AcDbEntity
  8
0
  6
Continuous
 62
     7
370
    15
100
AcDbLine
 10
143.5371897331
 20
15.0000393357
 30
0.0
 11
149.1481408983
 21
28.7553925254
 31
0.0
  0
ARC
  5
9F
330
1F
100
AcDbEntity
  8
0
  6
Continuous
 62
     7
370
    15
100
AcDbCircle
 10
128.658069818
 20
21.0693865981
 30
0.0
 40
16.06938659812894
100
AcDbArc
 50
249.1938869419
 51
337.80894332
  0
LINE
  5
A0
330
1F
100
AcDbEntity
  8
0
  6
Continuous
 62
     7
370
    15
100
AcDbLine
 10
85.7238922445
 20
20.1933812729
 30
0.0
 11
122.9501160377
 21
6.0479203154
 31
0.0
  0
ARC
  5
A1
330
1F
100
AcDbEntity
  8
0
  6
Continuous
 62
     7
370
    15
100
AcDbCircle
 10
82.1718252471
 20
10.8455034364
 30
0.0
 40
10.0
100
AcDbArc
 50
69.1938869419
 51
180.0
  0
LINE
  5
A2
330
1F
100
AcDbEntity
  8
0
  6
Continuous
 62
     7
370
    15
100
AcDbLine
 10
72.1718252471
 20
10.8455034364
 30
0.0
 11
72.1718252471
 21
5.0
 31
0.0
  0
SPLINE
  5
A3
330
1F
100
AcDbEntity
  8
0
  6
Continuous
 62
     7
370
    15
100
AcDbSpline
210
0.0
220
0.0
230
1.0
 70
     8
 71
     3
 72
    31
 73
    27
 74
     0
 42
0.000000001
 43
0.00000001
 40
0.0
 40
0.0
 40
0.0
 40
0.0
 40
0.0412914469532474
 40
0.0821355032144641
 40
0.1226360352259631
 40
0.162830869755124
 40
0.2030066005770554
 40
0.2435260831621617
 40
0.2841729362467873
 40
0.3254098107964584
 40
0.3668546660987568
 40
0.407550595165851
 40
0.4481873740566105
 40
0.4886828510840631
 40
0.5290149651896819
 40
0.5698427286954864
 40
0.6113702381646687
 40
0.6532377352823788
 40
0.6954461190732804
 40
0.7377513945470104
 40
0.7800433605771132
 40
0.8228070703900522
 40
0.8659781422330309
 40
0.9095950301662465
 40
0.954231404704788
 40
1.0
 40
1.0
 40
1.0
 40
1.0
 10
-7.332011217948764
 20
-23.95406901041675
 30
0.0
 10
-7.331644492030465
 20
-23.92897420501625
 30
0.0
 10
-7.330915013650221
 20
-23.87905649513378
 30
0.0
 10
-7.322548041596042
 20
-23.80496970456593
 30
0.0
 10
-7.311739192376693
 20
-23.73186956300414
 30
0.0
 10
-7.293423743156404
 20
-23.66068266780762
 30
0.0
 10
-7.272268646463652
 20
-23.59032934029166
 30
0.0
 10
-7.245263695330196
 20
-23.52165755902897
 30
0.0
 10
-7.213585560389517
 20
-23.45434820906317
 30
0.0
 10
-7.177619506592945
 20
-23.38857468033978
 30
0.0
 10
-7.137132496522863
 20
-23.32541902161355
 30
0.0
 10
-7.09232768530246
 20
-23.26575243259901
 30
0.0
 10
-7.044892603339234
 20
-23.20885813952024
 30
0.0
 10
-6.992608122080076
 20
-23.15670034567295
 30
0.0
 10
-6.937693005161721
 20
-23.10719316756763
 30
0.0
 10
-6.87859360561304
 20
-23.0616591796571
 30
0.0
 10
-6.815648900392974
 20
-23.01996455799888
 30
0.0
 10
-6.749804197034093
 20
-22.98133832670693
 30
0.0
 10
-6.681097815052279
 20
-22.94694598693667
 30
0.0
 10
-6.609945054057006
 20
-22.91731525283661
 30
0.0
 10
-6.536774660096834
 20
-22.89199248586626
 30
0.0
 10
-6.461469587813646
 20
-22.87194477147272
 30
0.0
 10
-6.384529668842887
 20
-22.85513302122986
 30
0.0
 10
-6.305348591985799
 20
-22.84455752640516
 30
0.0
 10
-6.224229273833599
 20
-22.83708501255386
 30
0.0
 10
-6.169300545422141
 20
-22.83626112168344
 30
0.0
 10
-6.141492220886798
 20
-22.8358440170941
 30
0.0
  0
SPLINE
  5
A4
330
1F
100
AcDbEntity
  8
0
  6
Continuous
 62
     7
370
    15
100
AcDbSpline
210
0.0
220
0.0
230
1.0
 70
     8
 71
     3
 72
    19
 73
    15
 74
     0
 42
0.000000001
 43
0.00000001
 40
0.0
 40
0.0
 40
0.0
 40
0.0
 40
0.0912688044343261
 40
0.1820814045527836
 40
0.2719096545272038
 40
0.362049458505355
 40
0.4500663484251175
 40
0.5339764739707168
 40
0.6136024537413247
 40
0.6901976142648829
 40
0.7654128769004128
 40
0.8414365506928784
 40
0.9197327486057716
 40
0.9999999999999999
 40
0.9999999999999999
 40
0.9999999999999999
 40
0.9999999999999999
 10
-6.141492220886799
 20
-22.8358440170941
 30
0.0
 10
-6.106666916755838
 20
-22.83661061341314
 30
0.0
 10
-6.037190381707044
 20
-22.83813997424307
 30
0.0
 10
-5.934127782182168
 20
-22.85101121064366
 30
0.0
 10
-5.832583183478151
 20
-22.87041655214691
 30
0.0
 10
-5.734338240870392
 20
-22.89916550642702
 30
0.0
 10
-5.640584145233986
 20
-22.93397712966669
 30
0.0
 10
-5.552826392900605
 20
-22.97307044037334
 30
0.0
 10
-5.473130782718028
 20
-23.01846845285711
 30
0.0
 10
-5.400014805321002
 20
-23.06812857179367
 30
0.0
 10
-5.333341718570789
 20
-23.12414237256428
 30
0.0
 10
-5.272427119685264
 20
-23.18717946750277
 30
0.0
 10
-5.216021873289028
 20
-23.2569117861134
 30
0.0
 10
-5.184043286451469
 20
-23.30830619480734
 30
0.0
 10
-5.167855235042781
 20
-23.33432283319987
 30
0.0
  0
LINE
  5
A5
330
1F
100
AcDbEntity
  8
0
  6
Continuous
 62
     7
370
    15
100
AcDbLine
 10
-5.167855235
 20
-23.3343228332
 30
0.0
 11
-5.3864862947
 21
-23.4701655983
 31
0.0
  0
SPLINE
  5
A6
330
1F
100
AcDbEntity
  8
0
  6
Continuous
 62
     7
370
    15
100
AcDbSpline
210
0.0
220
0.0
230
1.0
 70
     8
 71
     3
 72
    15
 73
    11
 74
     0
 42
0.000000001
 43
0.00000001
 40
0.0
 40
0.0
 40
0.0
 40
0.0
 40
0.1283242377690993
 40
0.2525844750621366
 40
0.3735064833109019
 40
0.4933644513855714
 40
0.6146085973434222
 40
0.7384702442356696
 40
0.8659947178700196
 40
1.0
 40
1.0
 40
1.0
 40
1.0
 10
-5.386486294738294
 20
-23.47016559829068
 30
0.0
 10
-5.410459700650807
 20
-23.44037258269998
 30
0.0
 10
-5.457647279966565
 20
-23.38173008979046
 30
0.0
 10
-5.539587347333858
 20
-23.30605099646751
 30
0.0
 10
-5.626909338801764
 20
-23.24105137899662
 30
0.0
 10
-5.721105429669328
 20
-23.18807867656746
 30
0.0
 10
-5.822043502688928
 20
-23.14714869670649
 30
0.0
 10
-5.929325495068262
 20
-23.11818572224957
 30
0.0
 10
-6.042936108372477
 20
-23.10013761080197
 30
0.0
 10
-6.120823181618096
 20
-23.09808631847991
 30
0.0
 10
-6.160731754140003
 20
-23.09703525641034
 30
0.0
  0
SPLINE
  5
A7
330
1F
100
AcDbEntity
  8
0
  6
Continuous
 62
     7
370
    15
100
AcDbSpline
210
0.0
220
0.0
230
1.0
 70
     8
 71
     3
 72
    23
 73
    19
 74
     0
 42
0.000000001
 43
0.00000001
 40
0.0
 40
0.0
 40
0.0
 40
0.0
 40
0.0695216413260459
 40
0.1369209822612554
 40
0.2019692428653322
 40
0.2654615503849179
 40
0.3282478845128383
 40
0.3908167166700983
 40
0.4535501756793825
 40
0.5175419816323167
 40
0.5807383719174795
 40
0.6419215091741681
 40
0.701596724408931
 40
0.7603128802455004
 40
0.8187565130146944
 40
0.877718079536196
 40
0.9380940530276959
 40
1.0
 40
1.0
 40
1.0
 40
1.0
 10
-6.160731754140003
 20
-23.09703525641034
 30
0.0
 10
-6.192629053428967
 20
-23.09791407103353
 30
0.0
 10
-6.255449917074055
 20
-23.09964487253846
 30
0.0
 10
-6.347673664910378
 20
-23.11046371730711
 30
0.0
 10
-6.435520312128235
 20
-23.13012317302393
 30
0.0
 10
-6.519540473041785
 20
-23.1560266768925
 30
0.0
 10
-6.599136559165627
 20
-23.19074403108688
 30
0.0
 10
-6.674517114564988
 20
-23.23299476281331
 30
0.0
 10
-6.746350763096176
 20
-23.28209768323809
 30
0.0
 10
-6.812555874794409
 20
-23.33898430938192
 30
0.0
 10
-6.873116662231003
 20
-23.40085034432536
 30
0.0
 10
-6.925586413964943
 20
-23.46716933981427
 30
0.0
 10
-6.971269089959669
 20
-23.53595486839508
 30
0.0
 10
-7.007113745320312
 20
-23.60892462070692
 30
0.0
 10
-7.036446729341396
 20
-23.6844092316591
 30
0.0
 10
-7.055744222257314
 20
-23.7638335509372
 30
0.0
 10
-7.068603852907257
 20
-23.8461800548559
 30
0.0
 10
-7.070075133906637
 20
-23.90232476950234
 30
0.0
 10
-7.070819978632525
 20
-23.93074836404923
 30
0.0
  0
SPLINE
  5
A8
330
1F
100
AcDbEntity
  8
0
  6
Continuous
 62
     7
370
    15
100
AcDbSpline
210
0.0
220
0.0
230
1.0
 70
     8
 71
     3
 72
    19
 73
    15
 74
     0
 42
0.000000001
 43
0.00000001
 40
0.0
 40
0.0
 40
0.0
 40
0.0
 40
0.080525242352541
 40
0.1599654769449853
 40
0.2403213612945774
 40
0.3225285276294007
 40
0.4050235832074835
 40
0.4865966363996181
 40
0.5678654736293196
 40
0.6513327733845233
 40
0.7362375672940284
 40
0.821529069009538
 40
0.9090049060738453
 40
1.0
 40
1.0
 40
1.0
 40
1.0
 10
-7.070819978632525
 20
-23.93074836404923
 30
0.0
 10
-7.069340445692407
 20
-23.96797609488883
 30
0.0
 10
-7.066401315234587
 20
-24.04192994520155
 30
0.0
 10
-7.04336623237491
 20
-24.15109393816514
 30
0.0
 10
-7.005660198434233
 20
-24.25663703068227
 30
0.0
 10
-6.954056140476531
 20
-24.35780988042113
 30
0.0
 10
-6.888798666206312
 20
-24.4514372821525
 30
0.0
 10
-6.812152790653709
 20
-24.53540983320966
 30
0.0
 10
-6.7240760291589
 20
-24.60810042334549
 30
0.0
 10
-6.625344442211408
 20
-24.66836477902145
 30
0.0
 10
-6.518276247217129
 20
-24.71681188054165
 30
0.0
 10
-6.404029832733264
 20
-24.7513272043753
 30
0.0
 10
-6.283538765303017
 20
-24.77215944512466
 30
0.0
 10
-6.201043630966745
 20
-24.7747837620437
 30
0.0
 10
-6.15898270566244
 20
-24.77612179487188
 30
0.0
  0
SPLINE
  5
A9
330
1F
100
AcDbEntity
  8
0
  6
Continuous
 62
     7
370
    15
100
AcDbSpline
210
0.0
220
0.0
230
1.0
 70
     8
 71
     3
 72
    15
 73
    11
 74
     0
 42
0.000000001
 43
0.00000001
 40
0.0
 40
0.0
 40
0.0
 40
0.0
 40
0.1299810785766151
 40
0.2554473120268492
 40
0.377298344718116
 40
0.4984417785420233
 40
0.6193721253366247
 40
0.741856501957812
 40
0.8685636891457529
 40
0.9999999999999999
 40
0.9999999999999999
 40
0.9999999999999999
 40
0.9999999999999999
 10
-6.15898270566244
 20
-24.77612179487188
 30
0.0
 10
-6.120436162462324
 20
-24.77504120107269
 30
0.0
 10
-6.044681976112863
 20
-24.77291754750389
 30
0.0
 10
-5.933947037277864
 20
-24.755015189308
 30
0.0
 10
-5.828523504267667
 20
-24.72570842969162
 30
0.0
 10
-5.728415124080959
 20
-24.68483981831216
 30
0.0
 10
-5.633804824092516
 20
-24.63201366371986
 30
0.0
 10
-5.545303897091924
 20
-24.56685428180073
 30
0.0
 10
-5.461151329368726
 20
-24.49123616832198
 30
0.0
 10
-5.411676760151344
 20
-24.43276342671951
 30
0.0
 10
-5.386486294738294
 20
-24.40299145299154
 30
0.0
  0
LINE
  5
AA
330
1F
100
AcDbEntity
  8
0
  6
Continuous
 62
     7
370
    15
100
AcDbLine
 10
-5.3864862947
 20
-24.402991453
 30
0.0
 11
-5.167855235
 21
-24.5464134282
 31
0.0
  0
SPLINE
  5
AB
330
1F
100
AcDbEntity
  8
0
  6
Continuous
 62
     7
370
    15
100
AcDbSpline
210
0.0
220
0.0
230
1.0
 70
     8
 71
     3
 72
    23
 73
    19
 74
     0
 42
0.000000001
 43
0.00000001
 40
0.0
 40
0.0
 40
0.0
 40
0.0
 40
0.0596333961362501
 40
0.1190688615049889
 40
0.1781965462156696
 40
0.2369566475521789
 40
0.2959319880758023
 40
0.3558557687429114
 40
0.4164733051171468
 40
0.4777415997317962
 40
0.5399029904536086
 40
0.6025375151243935
 40
0.6654223850767752
 40
0.7297652560446459
 40
0.794828770841605
 40
0.8618265399701647
 40
0.930010932434066
 40
1.0
 40
1.0
 40
1.0
 40
1.0
 10
-5.167855235042781
 20
-24.54641342815179
 30
0.0
 10
-5.180817151708494
 20
-24.56544815761832
 30
0.0
 10
-5.206697962802711
 20
-24.6034544378821
 30
0.0
 10
-5.249961410873718
 20
-24.65704278966014
 30
0.0
 10
-5.296627723309157
 20
-24.70720314095554
 30
0.0
 10
-5.346514840184368
 20
-24.75386825465217
 30
0.0
 10
-5.398971366808928
 20
-24.79815483372448
 30
0.0
 10
-5.455789277347745
 20
-24.8379456965774
 30
0.0
 10
-5.515136507832866
 20
-24.87547745094294
 30
0.0
 10
-5.57770976577337
 20
-24.90924898812604
 30
0.0
 10
-5.642862102156751
 20
-24.93960573288614
 30
0.0
 10
-5.71050183994952
 20
-24.96570898615697
 30
0.0
 10
-5.780335053258049
 20
-24.9881359135082
 30
0.0
 10
-5.85244384940204
 20
-25.00596208817597
 30
0.0
 10
-5.926970388651154
 20
-25.02019056517433
 30
0.0
 10
-6.003721929895844
 20
-25.02963170867733
 30
0.0
 10
-6.082672039120947
 20
-25.03667930851284
 30
0.0
 10
-6.1360342387507
 20
-25.03709996092456
 30
0.0
 10
-6.163063818776756
 20
-25.03731303418812
 30
0.0
  0
SPLINE
  5
AC
330
1F
100
AcDbEntity
  8
0
  6
Continuous
 62
     7
370
    15
100
AcDbSpline
210
0.0
220
0.0
230
1.0
 70
     8
 71
     3
 72
    23
 73
    19
 74
     0
 42
0.000000001
 43
0.00000001
 40
0.0
 40
0.0
 40
0.0
 40
0.0
 40
0.0695585437274133
 40
0.1363352505575721
 40
0.2010957661175483
 40
0.2644499547795249
 40
0.3270049911572458
 40
0.3893913874403773
 40
0.4519764903030331
 40
0.5156699828847834
 40
0.5789732464632442
 40
0.640167028800425
 40
0.6997398434247564
 40
0.7586849854260637
 40
0.8178204012911087
 40
0.8769839874813289
 40
0.9376342848620921
 40
1.0
 40
1.0
 40
1.0
 40
1.0
 10
-6.163063818776756
 20
-25.03731303418812
 30
0.0
 10
-6.20431763098248
 20
-25.03657189259248
 30
0.0
 10
-6.285175402323457
 20
-25.03511924968587
 30
0.0
 10
-6.403523344666913
 20
-25.01914648770149
 30
0.0
 10
-6.516625185794444
 20
-24.99506685083174
 30
0.0
 10
-6.62444228465055
 20
-24.96050462685749
 30
0.0
 10
-6.726991426463126
 20
-24.91601285838424
 30
0.0
 10
-6.824176989669862
 20
-24.86166547167023
 30
0.0
 10
-6.915677178610556
 20
-24.79701115589977
 30
0.0
 10
-7.000587156901674
 20
-24.72320068636957
 30
0.0
 10
-7.078570895158373
 20
-24.64317201051489
 30
0.0
 10
-7.14553225701619
 20
-24.55681585851994
 30
0.0
 10
-7.203611925500153
 20
-24.46730720147514
 30
0.0
 10
-7.250251388399631
 20
-24.37266916106956
 30
0.0
 10
-7.287377433776421
 20
-24.2741595625837
 30
0.0
 10
-7.312743654673493
 20
-24.17098924996692
 30
0.0
 10
-7.329149871097441
 20
-24.06400877442057
 30
0.0
 10
-7.331048609902674
 20
-23.9910547052361
 30
0.0
 10
-7.332011217948764
 20
-23.95406901041675
 30
0.0
  0
LINE
  5
AD
330
1F
100
AcDbEntity
  8
0
  6
Continuous
 62
     7
370
    15
100
AcDbLine
 10
-4.757411859
 20
-22.8731570513
 30
0.0
 11
-4.3842815171
 21
-22.8731570513
 31
0.0
  0
LINE
  5
AE
330
1F
100
AcDbEntity
  8
0
  6
Continuous
 62
     7
370
    15
100
AcDbLine
 10
-4.3842815171
 20
-22.8731570513
 30
0.0
 11
-4.3842815171
 21
-22.014957265
 31
0.0
  0
LINE
  5
AF
330
1F
100
AcDbEntity
  8
0
  6
Continuous
 62
     7
370
    15
100
AcDbLine
 10
-4.3842815171
 20
-22.014957265
 30
0.0
 11
-4.1230902778
 21
-22.014957265
 31
0.0
  0
LINE
  5
B0
330
1F
100
AcDbEntity
  8
0
  6
Continuous
 62
     7
370
    15
100
AcDbLine
 10
-4.1230902778
 20
-22.014957265
 30
0.0
 11
-4.1230902778
 21
-22.8731570513
 31
0.0
  0
LINE
  5
B1
330
1F
100
AcDbEntity
  8
0
  6
Continuous
 62
     7
370
    15
100
AcDbLine
 10
-4.1230902778
 20
-22.8731570513
 30
0.0
 11
-3.7499599359
 21
-22.8731570513
 31
0.0
  0
LINE
  5
B2
330
1F
100
AcDbEntity
  8
0
  6
Continuous
 62
     7
370
    15
100
AcDbLine
 10
-3.7499599359
 20
-22.8731570513
 30
0.0
 11
-3.7499599359
 21
-23.1343482906
 31
0.0
  0
LINE
  5
B3
330
1F
100
AcDbEntity
  8
0
  6
Continuous
 62
     7
370
    15
100
AcDbLine
 10
-3.7499599359
 20
-23.1343482906
 30
0.0
 11
-4.1230902778
 21
-23.1343482906
 31
0.0
  0
LINE
  5
B4
330
1F
100
AcDbEntity
  8
0
  6
Continuous
 62
     7
370
    15
100
AcDbLine
 10
-4.1230902778
 20
-23.1343482906
 30
0.0
 11
-4.1230902778
 21
-25.0
 31
0.0
  0
LINE
  5
B5
330
1F
100
AcDbEntity
  8
0
  6
Continuous
 62
     7
370
    15
100
AcDbLine
 10
-4.1230902778
 20
-25.0
 30
0.0
 11
-4.3842815171
 21
-25.0
 31
0.0
  0
LINE
  5
B6
330
1F
100
AcDbEntity
  8
0
  6
Continuous
 62
     7
370
    15
100
AcDbLine
 10
-4.3842815171
 20
-25.0
 30
0.0
 11
-4.3842815171
 21
-23.1343482906
 31
0.0
  0
LINE
  5
B7
330
1F
100
AcDbEntity
  8
0
  6
Continuous
 62
     7
370
    15
100
AcDbLine
 10
-4.3842815171
 20
-23.1343482906
 30
0.0
 11
-4.757411859
 21
-23.1343482906
 31
0.0
  0
LINE
  5
B8
330
1F
100
AcDbEntity
  8
0
  6
Continuous
 62
     7
370
    15
100
AcDbLine
 10
-4.757411859
 20
-23.1343482906
 30
0.0
 11
-4.757411859
 21
-22.8731570513
 31
0.0
  0
LINE
  5
B9
330
1F
100
AcDbEntity
  8
0
  6
Continuous
 62
     7
370
    15
100
AcDbLine
 10
-3.1156383547
 20
-25.0
 30
0.0
 11
-3.376829594
 21
-25.0
 31
0.0
  0
LINE
  5
BA
330
1F
100
AcDbEntity
  8
0
  6
Continuous
 62
     7
370
    15
100
AcDbLine
 10
-3.376829594
 20
-25.0
 30
0.0
 11
-3.376829594
 21
-22.8731570513
 31
0.0
  0
LINE
  5
BB
330
1F
100
AcDbEntity
  8
0
  6
Continuous
 62
     7
370
    15
100
AcDbLine
 10
-3.376829594
 20
-22.8731570513
 30
0.0
 11
-3.1156383547
 21
-22.8731570513
 31
0.0
  0
LINE
  5
BC
330
1F
100
AcDbEntity
  8
0
  6
Continuous
 62
     7
370
    15
100
AcDbLine
 10
-3.1156383547
 20
-22.8731570513
 30
0.0
 11
-3.1156383547
 21
-23.1862367288
 31
0.0
  0
SPLINE
  5
BD
330
1F
100
AcDbEntity
  8
0
  6
Continuous
 62
     7
370
    15
100
AcDbSpline
210
0.0
220
0.0
230
1.0
 70
     8
 71
     3
 72
    15
 73
    11
 74
     0
 42
0.000000001
 43
0.00000001
 40
0.0
 40
0.0
 40
0.0
 40
0.0
 40
0.1600594124854926
 40
0.3061123827401259
 40
0.4383665141302039
 40
0.5605414552552167
 40
0.6753172249527007
 40
0.786113634428177
 40
0.8928417881050881
 40
1.0
 40
1.0
 40
1.0
 40
1.0
 10
-3.115638354700904
 20
-23.1862367287661
 30
0.0
 10
-3.096355797572589
 20
-23.15708613818796
 30
0.0
 10
-3.059478056887355
 20
-23.10133586020313
 30
0.0
 10
-2.998182245990218
 20
-23.02760311408074
 30
0.0
 10
-2.935397630635496
 20
-22.96655500686876
 30
0.0
 10
-2.870823644527369
 20
-22.91790654512975
 30
0.0
 10
-2.803985426923514
 20
-22.88147385048875
 30
0.0
 10
-2.736349878381829
 20
-22.85478696362025
 30
0.0
 10
-2.666852895411065
 20
-22.83900642231873
 30
0.0
 10
-2.620151581038237
 20
-22.83689956424531
 30
0.0
 10
-2.596753973023555
 20
-22.8358440170941
 30
0.0
  0
SPLINE
  5
BE
330
1F
100
AcDbEntity
  8
0
  6
Continuous
 62
     7
370
    15
100
AcDbSpline
210
0.0
220
0.0
230
1.0
 70
     8
 71
     3
 72
    11
 73
     7
 74
     0
 42
0.000000001
 43
0.00000001
 40
0.0
 40
0.0
 40
0.0
 40
0.0
 40
0.2252775478670103
 40
0.4635231951764786
 40
0.7203235553269197
 40
1.0
 40
1.0
 40
1.0
 40
1.0
 10
-2.596753973023555
 20
-22.8358440170941
 30
0.0
 10
-2.578604343200992
 20
-22.83683399664952
 30
0.0
 10
-2.541260300324641
 20
-22.83887094392204
 30
0.0
 10
-2.484729539636228
 20
-22.8531825641748
 30
0.0
 10
-2.426485073970921
 20
-22.87603184840489
 30
0.0
 10
-2.388947029334604
 20
-22.89751922403762
 30
0.0
 10
-2.369377670940221
 20
-22.9087210369926
 30
0.0
  0
LINE
  5
BF
330
1F
100
AcDbEntity
  8
0
  6
Continuous
 62
     7
370
    15
100
AcDbLine
 10
-2.3693776709
 20
-22.908721037
 30
0.0
 11
-2.5127996461
 21
-23.1349313068
 31
0.0
  0
SPLINE
  5
C0
330
1F
100
AcDbEntity
  8
0
  6
Continuous
 62
     7
370
    15
100
AcDbSpline
210
0.0
220
0.0
230
1.0
 70
     8
 71
     3
 72
    11
 73
     7
 74
     0
 42
0.000000001
 43
0.00000001
 40
0.0
 40
0.0
 40
0.0
 40
0.0
 40
0.2951388013693826
 40
0.5602299448882417
 40
0.7949833567409028
 40
0.9999999999999999
 40
0.9999999999999999
 40
0.9999999999999999
 40
0.9999999999999999
 10
-2.512799646100477
 20
-23.13493130675756
 30
0.0
 10
-2.5253635166588
 20
-23.12932645451776
 30
0.0
 10
-2.549212148142745
 20
-23.11868737200188
 30
0.0
 10
-2.5840993678317
 20
-23.10609606952899
 30
0.0
 10
-2.616264741291837
 20
-23.09868206093386
 30
0.0
 10
-2.636757033573345
 20
-23.09755887505255
 30
0.0
 10
-2.646310346554537
 20
-23.09703525641034
 30
0.0
  0
SPLINE
  5
C1
330
1F
100
AcDbEntity
  8
0
  6
Continuous
 62
     7
370
    15
100
AcDbSpline
210
0.0
220
0.0
230
1.0
 70
     8
 71
     3
 72
    19
 73
    15
 74
     0
 42
0.000000001
 43
0.00000001
 40
0.0
 40
0.0
 40
0.0
 40
0.0
 40
0.0938065293523323
 40
0.1913381281363397
 40
0.2951906166251695
 40
0.4103123367232987
 40
0.4719302510512789
 40
0.5364251593464332
 40
0.6031187283036329
 40
0.6741176724906003
 40
0.749332023225886
 40
0.8282833841715632
 40
0.9120398092627635
 40
1.0
 40
1.0
 40
1.0
 40
1.0
 10
-2.646310346554537
 20
-23.09703525641034
 30
0.0
 10
-2.667270114241973
 20
-23.09843228748408
 30
0.0
 10
-2.710021964706706
 20
-23.10128182591647
 30
0.0
 10
-2.772790920465878
 20
-23.12368272737509
 30
0.0
 10
-2.833699459802408
 20
-23.15987603715965
 30
0.0
 10
-2.88207196711396
 20
-23.20001576528804
 30
0.0
 10
-2.91952674524856
 20
-23.23872247544144
 30
0.0
 10
-2.946252873264323
 20
-23.27252355781411
 30
0.0
 10
-2.970769181296637
 20
-23.31042436034105
 30
0.0
 10
-2.994194060998717
 20
-23.35177696050368
 30
0.0
 10
-3.015536806838111
 20
-23.39728743366266
 30
0.0
 10
-3.035456254979547
 20
-23.44650109387121
 30
0.0
 10
-3.053466630873927
 20
-23.49947494202085
 30
0.0
 10
-3.063736447053253
 20
-23.53638112103735
 30
0.0
 10
-3.068997061965862
 20
-23.55528595753213
 30
0.0
  0
SPLINE
  5
C2
330
1F
100
AcDbEntity
  8
0
  6
Continuous
 62
     7
370
    15
100
AcDbSpline
210
0.0
220
0.0
230
1.0
 70
     8
 71
     3
 72
    15
 73
    11
 74
     0
 42
0.000000001
 43
0.00000001
 40
0.0
 40
0.0
 40
0.0
 40
0.0
 40
0.0708548685015334
 40
0.156938149557354
 40
0.258600394960084
 40
0.3758909295892017
 40
0.5081661676989038
 40
0.656237808578227
 40
0.8201767703979113
 40
0.9999999999999999
 40
0.9999999999999999
 40
0.9999999999999999
 40
0.9999999999999999
 10
-3.068997061965862
 20
-23.55528595753213
 30
0.0
 10
-3.07293227240099
 20
-23.57214739294261
 30
0.0
 10
-3.081648464483043
 20
-23.60949419109728
 30
0.0
 10
-3.090123213511343
 20
-23.67215007742842
 30
0.0
 10
-3.098496497209695
 20
-23.74617748891254
 30
0.0
 10
-3.104397673302544
 20
-23.83178248311392
 30
0.0
 10
-3.10986762857148
 20
-23.92875128321369
 30
0.0
 10
-3.11295273861393
 20
-24.03723161418762
 30
0.0
 10
-3.115533147755466
 20
-24.15733482344085
 30
0.0
 10
-3.115602221814187
 20
-24.24129980645599
 30
0.0
 10
-3.115638354700904
 20
-24.28522218883555
 30
0.0
  0
LINE
  5
C3
330
1F
100
AcDbEntity
  8
0
  6
Continuous
 62
     7
370
    15
100
AcDbLine
 10
-3.1156383547
 20
-24.2852221888
 30
0.0
 11
-3.1156383547
 21
-25.0
 31
0.0
  0
LINE
  5
C4
330
1F
100
AcDbEntity
  8
0
  6
Continuous
 62
     7
370
    15
100
AcDbLine
 10
9.6267628205
 20
-22.9011418269
 30
0.0
 11
9.3486641126
 21
-25.0
 31
0.0
  0
LINE
  5
C5
330
1F
100
AcDbEntity
  8
0
  6
Continuous
 62
     7
370
    15
100
AcDbLine
 10
9.3486641126
 20
-25.0
 30
0.0
 11
9.0857238248
 21
-25.0
 31
0.0
  0
LINE
  5
C6
330
1F
100
AcDbEntity
  8
0
  6
Continuous
 62
     7
370
    15
100
AcDbLine
 10
9.0857238248
 20
-25.0
 30
0.0
 11
9.4699314737
 21
-22.0895833333
 31
0.0
  0
LINE
  5
C7
330
1F
100
AcDbEntity
  8
0
  6
Continuous
 62
     7
370
    15
100
AcDbLine
 10
9.4699314737
 20
-22.0895833333
 30
0.0
 11
9.5072445079
 21
-22.0895833333
 31
0.0
  0
LINE
  5
C8
330
1F
100
AcDbEntity
  8
0
  6
Continuous
 62
     7
370
    15
100
AcDbLine
 10
9.5072445079
 20
-22.0895833333
 30
0.0
 11
10.708840812
 21
-24.4776175214
 31
0.0
  0
LINE
  5
C9
330
1F
100
AcDbEntity
  8
0
  6
Continuous
 62
     7
370
    15
100
AcDbLine
 10
10.708840812
 20
-24.4776175214
 30
0.0
 11
11.9075220353
 21
-22.0895833333
 31
0.0
  0
LINE
  5
CA
330
1F
100
AcDbEntity
  8
0
  6
Continuous
 62
     7
370
    15
100
AcDbLine
 10
11.9075220353
 20
-22.0895833333
 30
0.0
 11
11.9454180856
 21
-22.0895833333
 31
0.0
  0
LINE
  5
CB
330
1F
100
AcDbEntity
  8
0
  6
Continuous
 62
     7
370
    15
100
AcDbLine
 10
11.9454180856
 20
-22.0895833333
 30
0.0
 11
12.3319577991
 21
-25.0
 31
0.0
  0
LINE
  5
CC
330
1F
100
AcDbEntity
  8
0
  6
Continuous
 62
     7
370
    15
100
AcDbLine
 10
12.3319577991
 20
-25.0
 30
0.0
 11
12.0696005275
 21
-25.0
 31
0.0
  0
LINE
  5
CD
330
1F
100
AcDbEntity
  8
0
  6
Continuous
 62
     7
370
    15
100
AcDbLine
 10
12.0696005275
 20
-25.0
 30
0.0
 11
11.7909188034
 21
-22.9058059562
 31
0.0
  0
LINE
  5
CE
330
1F
100
AcDbEntity
  8
0
  6
Continuous
 62
     7
370
    15
100
AcDbLine
 10
11.7909188034
 20
-22.9058059562
 30
0.0
 11
10.7403236846
 21
-25.0
 31
0.0
  0
LINE
  5
CF
330
1F
100
AcDbEntity
  8
0
  6
Continuous
 62
     7
370
    15
100
AcDbLine
 10
10.7403236846
 20
-25.0
 30
0.0
 11
10.6814390525
 21
-25.0
 31
0.0
  0
LINE
  5
D0
330
1F
100
AcDbEntity
  8
0
  6
Continuous
 62
     7
370
    15
100
AcDbLine
 10
10.6814390525
 20
-25.0
 30
0.0
 11
9.6267628205
 21
-22.9011418269
 31
0.0
  0
SPLINE
  5
D1
330
1F
100
AcDbEntity
  8
0
  6
Continuous
 62
     7
370
    15
100
AcDbSpline
210
0.0
220
0.0
230
1.0
 70
     8
 71
     3
 72
    23
 73
    19
 74
     0
 42
0.000000001
 43
0.00000001
 40
0.0
 40
0.0
 40
0.0
 40
0.0
 40
0.0679784896192565
 40
0.1330435352439089
 40
0.1965074380533962
 40
0.2586134167685766
 40
0.3197283376065485
 40
0.3808728540495674
 40
0.4426356023162047
 40
0.5050793035048797
 40
0.5678805200585777
 40
0.6288138541554894
 40
0.6889100905404398
 40
0.7487650058898478
 40
0.809385782963119
 40
0.8708843357532267
 40
0.9340374630737027
 40
1.0
 40
1.0
 40
1.0
 40
1.0
 10
6.399185363247817
 20
-23.39379048143705
 30
0.0
 10
6.399629572096273
 20
-23.37414483802396
 30
0.0
 10
6.400498951747342
 20
-23.33569553050835
 30
0.0
 10
6.407437427968402
 20
-23.27920116624436
 30
0.0
 10
6.420070059242711
 20
-23.22552630259759
 30
0.0
 10
6.435915134760932
 20
-23.17386485758402
 30
0.0
 10
6.457937014051597
 20
-23.12521758057763
 30
0.0
 10
6.484252091127486
 20
-23.07893574306028
 30
0.0
 10
6.515175205781487
 20
-23.03508331600709
 30
0.0
 10
6.55080144227844
 20
-22.9943348781934
 30
0.0
 10
6.589972860972034
 20
-22.95732325387726
 30
0.0
 10
6.632294285567436
 20
-22.92506034716534
 30
0.0
 10
6.676813895355189
 20
-22.89753083665904
 30
0.0
 10
6.723720182333745
 20
-22.87444278347694
 30
0.0
 10
6.773463754197211
 20
-22.85697913378354
 30
0.0
 10
6.825696907597443
 20
-22.8449571296522
 30
0.0
 10
6.880313915553574
 20
-22.83692836875169
 30
0.0
 10
6.917651339939421
 20
-22.83621067305989
 30
0.0
 10
6.936726262019185
 20
-22.8358440170941
 30
0.0
  0
SPLINE
  5
D2
330
1F
100
AcDbEntity
  8
0
  6
Continuous
 62
     7
370
    15
100
AcDbSpline
210
0.0
220
0.0
230
1.0
 70
     8
 71
     3
 72
    15
 73
    11
 74
     0
 42
0.000000001
 43
0.00000001
 40
0.0
 40
0.0
 40
0.0
 40
0.0
 40
0.1057142614175168
 40
0.2134116126389966
 40
0.3261267300734719
 40
0.4444516715568681
 40
0.5690610798550858
 40
0.7027122044812153
 40
0.8463179465861964
 40
0.9999999999999999
 40
0.9999999999999999
 40
0.9999999999999999
 40
0.9999999999999999
 10
6.936726262019185
 20
-22.8358440170941
 30
0.0
 10
6.959337757651025
 20
-22.83676232897162
 30
0.0
 10
7.004984917100138
 20
-22.83861617930421
 30
0.0
 10
7.073466710308001
 20
-22.85333930417019
 30
0.0
 10
7.141847650127141
 20
-22.87756486751956
 30
0.0
 10
7.210303435784746
 20
-22.91102321155154
 30
0.0
 10
7.278332587135147
 20
-22.95431929822096
 30
0.0
 10
7.346533509025627
 20
-23.00664800727903
 30
0.0
 10
7.415724948499038
 20
-23.06766507107028
 30
0.0
 10
7.458929096952988
 20
-23.11431424839869
 30
0.0
 10
7.481263354700808
 20
-23.13842940371269
 30
0.0
  0
LINE
  5
D3
330
1F
100
AcDbEntity
  8
0
  6
Continuous
 62
     7
370
    15
100
AcDbLine
 10
7.4812633547
 20
-23.1384294037
 30
0.0
 11
7.3040264423
 21
-23.3209134615
 31
0.0
  0
SPLINE
  5
D4
330
1F
100
AcDbEntity
  8
0
  6
Continuous
 62
     7
370
    15
100
AcDbSpline
210
0.0
220
0.0
230
1.0
 70
     8
 71
     3
 72
    15
 73
    11
 74
     0
 42
0.000000001
 43
0.00000001
 40
0.0
 40
0.0
 40
0.0
 40
0.0
 40
0.1582230975563177
 40
0.3050355053581678
 40
0.4413089638879031
 40
0.565963227104723
 40
0.6835251144150569
 40
0.793334129629599
 40
0.8985175121610023
 40
0.9999999999999999
 40
0.9999999999999999
 40
0.9999999999999999
 40
0.9999999999999999
 10
7.304026442307647
 20
-23.32091346153855
 30
0.0
 10
7.288733862885858
 20
-23.30319056544944
 30
0.0
 10
7.259251570071466
 20
-23.26902290820823
 30
0.0
 10
7.212492415928377
 20
-23.22334012135979
 30
0.0
 10
7.16590612176569
 20
-23.18497505963214
 30
0.0
 10
7.120130411907469
 20
-23.15258440147957
 30
0.0
 10
7.074014220302288
 20
-23.12809603373651
 30
0.0
 10
7.028098723498255
 20
-23.1102220324683
 30
0.0
 10
6.982336380816477
 20
-23.09916094764208
 30
0.0
 10
6.951747040818972
 20
-23.09773531022801
 30
0.0
 10
6.936726262019186
 20
-23.09703525641034
 30
0.0
  0
SPLINE
  5
D5
330
1F
100
AcDbEntity
  8
0
  6
Continuous
 62
     7
370
    15
100
AcDbSpline
210
0.0
220
0.0
230
1.0
 70
     8
 71
     3
 72
    15
 73
    11
 74
     0
 42
0.000000001
 43
0.00000001
 40
0.0
 40
0.0
 40
0.0
 40
0.0
 40
0.1249584925460607
 40
0.2459006286062667
 40
0.36916602958607
 40
0.4985108411773528
 40
0.6285038663666056
 40
0.7510283288509915
 40
0.8737241742784327
 40
1.0
 40
1.0
 40
1.0
 40
1.0
 10
6.936726262019186
 20
-23.09703525641034
 30
0.0
 10
6.918316305109108
 20
-23.09792906447574
 30
0.0
 10
6.882088115375351
 20
-23.09968795225242
 30
0.0
 10
6.8301780747729
 20
-23.11724477497723
 30
0.0
 10
6.781989370516902
 20
-23.14419418427991
 30
0.0
 10
6.740281453214149
 20
-23.18241925048623
 30
0.0
 10
6.704950924053581
 20
-23.22629525260101
 30
0.0
 10
6.679161571444913
 20
-23.27535350609248
 30
0.0
 10
6.663390452914925
 20
-23.3281135757697
 30
0.0
 10
6.661390803710848
 20
-23.36472649908083
 30
0.0
 10
6.660376602564057
 20
-23.38329619057166
 30
0.0
  0
SPLINE
  5
D6
330
1F
100
AcDbEntity
  8
0
  6
Continuous
 62
     7
370
    15
100
AcDbSpline
210
0.0
220
0.0
230
1.0
 70
     8
 71
     3
 72
    11
 73
     7
 74
     0
 42
0.000000001
 43
0.00000001
 40
0.0
 40
0.0
 40
0.0
 40
0.0
 40
0.2400399314959787
 40
0.479403193606084
 40
0.7317567388575533
 40
1.0
 40
1.0
 40
1.0
 40
1.0
 10
6.660376602564057
 20
-23.38329619057166
 30
0.0
 10
6.661300295858514
 20
-23.40010346776205
 30
0.0
 10
6.663145078568268
 20
-23.43367064265114
 30
0.0
 10
6.677486513602887
 20
-23.48318766841019
 30
0.0
 10
6.7003258605285
 20
-23.53146486028835
 30
0.0
 10
6.721671849464649
 20
-23.56103711039292
 30
0.0
 10
6.732670606303373
 20
-23.5762745392629
 30
0.0
  0
SPLINE
  5
D7
330
1F
100
AcDbEntity
  8
0
  6
Continuous
 62
     7
370
    15
100
AcDbSpline
210
0.0
220
0.0
230
1.0
 70
     8
 71
     3
 72
    15
 73
    11
 74
     0
 42
0.000000001
 43
0.00000001
 40
0.0
 40
0.0
 40
0.0
 40
0.0
 40
0.0834251049856345
 40
0.1775598214659677
 40
0.2839823599504417
 40
0.4022167468072146
 40
0.5335684803800568
 40
0.6761209941988173
 40
0.831649372553984
 40
1.0
 40
1.0
 40
1.0
 40
1.0
 10
6.732670606303373
 20
-23.5762745392629
 30
0.0
 10
6.739292630588513
 20
-23.58441088706841
 30
0.0
 10
6.753386774671579
 20
-23.60172807790659
 30
0.0
 10
6.779837069565956
 20
-23.62576300839727
 30
0.0
 10
6.809791496051581
 20
-23.65232451114268
 30
0.0
 10
6.845814087130145
 20
-23.6788815118921
 30
0.0
 10
6.886352888293257
 20
-23.70684789291187
 30
0.0
 10
6.932286983559103
 20
-23.73512228562944
 30
0.0
 10
6.982158640371342
 20
-23.7658599651348
 30
0.0
 10
7.017863055456712
 20
-23.78535512969114
 30
0.0
 10
7.036422025240339
 20
-23.7954886151176
 30
0.0
  0
SPLINE
  5
D8
330
1F
100
AcDbEntity
  8
0
  6
Continuous
 62
     7
370
    15
100
AcDbSpline
210
0.0
220
0.0
230
1.0
 70
     8
 71
     3
 72
    15
 73
    11
 74
     0
 42
0.000000001
 43
0.00000001
 40
0.0
 40
0.0
 40
0.0
 40
0.0
 40
0.158989101226794
 40
0.3071145916055705
 40
0.4462131585962129
 40
0.5748760724117273
 40
0.6941521095829574
 40
0.8045811801532406
 40
0.9065933190457638
 40
1.0
 40
1.0
 40
1.0
 40
1.0
 10
7.036422025240339
 20
-23.7954886151176
 30
0.0
 10
7.059051410481191
 20
-23.8081654777553
 30
0.0
 10
7.102763931357802
 20
-23.83265300213134
 30
0.0
 10
7.164874524129189
 20
-23.8706627972521
 30
0.0
 10
7.221242676650833
 20
-23.9084411899367
 30
0.0
 10
7.272345990761066
 20
-23.94558415517897
 30
0.0
 10
7.317201173470641
 20
-23.98313091473891
 30
0.0
 10
7.357169137788838
 20
-24.01964230550809
 30
0.0
 10
7.391252980744202
 20
-24.05622151007517
 30
0.0
 10
7.410340263828918
 20
-24.08177755758175
 30
0.0
 10
7.419463641826877
 20
-24.09399288862188
 30
0.0
  0
SPLINE
  5
D9
330
1F
100
AcDbEntity
  8
0
  6
Continuous
 62
     7
370
    15
100
AcDbSpline
210
0.0
220
0.0
230
1.0
 70
     8
 71
     3
 72
    11
 73
     7
 74
     0
 42
0.000000001
 43
0.00000001
 40
0.0
 40
0.0
 40
0.0
 40
0.0
 40
0.2488386141270707
 40
0.4952350254576663
 40
0.7433356038750063
 40
1.0
 40
1.0
 40
1.0
 40
1.0
 10
7.419463641826877
 20
-24.09399288862188
 30
0.0
 10
7.434606562537969
 20
-24.11866165350673
 30
0.0
 10
7.464743785212062
 20
-24.16775707404113
 30
0.0
 10
7.496391046068601
 20
-24.24859882590875
 30
0.0
 10
7.514735215089663
 20
-24.33434011870922
 30
0.0
 10
7.517281597025598
 20
-24.39299101841339
 30
0.0
 10
7.518576388888843
 20
-24.42281400240393
 30
0.0
  0
SPLINE
  5
DA
330
1F
100
AcDbEntity
  8
0
  6
Continuous
 62
     7
370
    15
100
AcDbSpline
210
0.0
220
0.0
230
1.0
 70
     8
 71
     3
 72
    23
 73
    19
 74
     0
 42
0.000000001
 43
0.00000001
 40
0.0
 40
0.0
 40
0.0
 40
0.0
 40
0.0645481255642482
 40
0.1271991327555114
 40
0.188597338087423
 40
0.2486395150940122
 40
0.3095246994640569
 40
0.37003699105335
 40
0.4318892436070742
 40
0.4957042857252931
 40
0.559519327843512
 40
0.621371580397237
 40
0.6823971072916406
 40
0.7435684819321642
 40
0.8054984835712136
 40
0.8686397008205239
 40
0.9330662250811649
 40
1.0
 40
1.0
 40
1.0
 40
1.0
 10
7.518576388888843
 20
-24.42281400240393
 30
0.0
 10
7.517978062257798
 20
-24.44382650079917
 30
0.0
 10
7.516798994269253
 20
-24.48523392432289
 30
0.0
 10
7.5086015421787
 20
-24.54621532735405
 30
0.0
 10
7.494502671986139
 20
-24.60453555168639
 30
0.0
 10
7.475299115868306
 20
-24.66082740450071
 30
0.0
 10
7.449367824828657
 20
-24.7140123084564
 30
0.0
 10
7.418976591126029
 20
-24.76543209407293
 30
0.0
 10
7.38249251273618
 20
-24.81397446033051
 30
0.0
 10
7.34083914860723
 20
-24.85957566709749
 30
0.0
 10
7.295232508673487
 20
-24.90122435111309
 30
0.0
 10
7.24658186862596
 20
-24.93783236513158
 30
0.0
 10
7.194827317220025
 20
-24.96824566814774
 30
0.0
 10
7.14033866151342
 20
-24.99341274392413
 30
0.0
 10
7.082992099168584
 20
-25.01342664651407
 30
0.0
 10
7.022778663970197
 20
-25.02728233470545
 30
0.0
 10
6.959889753174628
 20
-25.03557516044865
 30
0.0
 10
6.917123418675233
 20
-25.03672641832355
 30
0.0
 10
6.895332114716835
 20
-25.03731303418812
 30
0.0
  0
SPLINE
  5
DB
330
1F
100
AcDbEntity
  8
0
  6
Continuous
 62
     7
370
    15
100
AcDbSpline
210
0.0
220
0.0
230
1.0
 70
     8
 71
     3
 72
    15
 73
    11
 74
     0
 42
0.000000001
 43
0.00000001
 40
0.0
 40
0.0
 40
0.0
 40
0.0
 40
0.126742518961846
 40
0.2517239612496071
 40
0.3772186880262438
 40
0.5046935492516296
 40
0.6314582385934868
 40
0.7554010672029527
 40
0.8777005336014756
 40
1.0
 40
1.0
 40
1.0
 40
1.0
 10
6.895332114716835
 20
-25.03731303418812
 30
0.0
 10
6.865922624188951
 20
-25.03648755659597
 30
0.0
 10
6.807512285538191
 20
-25.03484807135362
 30
0.0
 10
6.721123036936535
 20
-25.01945940025496
 30
0.0
 10
6.636703691785026
 20
-24.9955146589617
 30
0.0
 10
6.55489309308979
 20
-24.96248896847425
 30
0.0
 10
6.477520818623717
 20
-24.92078626260425
 30
0.0
 10
6.406730400964516
 20
-24.87084152222329
 30
0.0
 10
6.342275928906393
 20
-24.81430460176306
 30
0.0
 10
6.305589483424608
 20
-24.77097023495383
 30
0.0
 10
6.287246260683715
 20
-24.74930305154923
 30
0.0
  0
LINE
  5
DC
330
1F
100
AcDbEntity
  8
0
  6
Continuous
 62
     7
370
    15
100
AcDbLine
 10
6.2872462607
 20
-24.7493030515
 30
0.0
 11
6.46040206
 21
-24.5522435897
 31
0.0
  0
SPLINE
  5
DD
330
1F
100
AcDbEntity
  8
0
  6
Continuous
 62
     7
370
    15
100
AcDbSpline
210
0.0
220
0.0
230
1.0
 70
     8
 71
     3
 72
    15
 73
    11
 74
     0
 42
0.000000001
 43
0.00000001
 40
0.0
 40
0.0
 40
0.0
 40
0.0
 40
0.1474758177483574
 40
0.285904171544376
 40
0.4171716482444348
 40
0.5405007435864946
 40
0.6592377183802373
 40
0.7750060983159524
 40
0.8872285734286341
 40
1.0
 40
1.0
 40
1.0
 40
1.0
 10
6.460402059962562
 20
-24.55224358974368
 30
0.0
 10
6.476843762895951
 20
-24.57000109334209
 30
0.0
 10
6.508718490073058
 20
-24.60442669906184
 30
0.0
 10
6.559693370945567
 20
-24.65026521329874
 30
0.0
 10
6.611564813410411
 20
-24.68868377030554
 30
0.0
 10
6.663814847424887
 20
-24.72081760986769
 30
0.0
 10
6.717216913954627
 20
-24.74557727546954
 30
0.0
 10
6.771471749123933
 20
-24.76297208242889
 30
0.0
 10
6.826468998179775
 20
-24.77415156846393
 30
0.0
 10
6.863408119453788
 20
-24.77546398536893
 30
0.0
 10
6.88192274305551
 20
-24.77612179487188
 30
0.0
  0
SPLINE
  5
DE
330
1F
100
AcDbEntity
  8
0
  6
Continuous
 62
     7
370
    15
100
AcDbSpline
210
0.0
220
0.0
230
1.0
 70
     8
 71
     3
 72
    15
 73
    11
 74
     0
 42
0.000000001
 43
0.00000001
 40
0.0
 40
0.0
 40
0.0
 40
0.0
 40
0.1340420464623706
 40
0.2618956736507322
 40
0.3878360446911175
 40
0.5176862058208257
 40
0.6445086536782141
 40
0.7647182630567254
 40
0.8802907821584989
 40
1.0
 40
1.0
 40
1.0
 40
1.0
 10
6.88192274305551
 20
-24.77612179487188
 30
0.0
 10
6.907133542200384
 20
-24.77498188872325
 30
0.0
 10
6.956391214696254
 20
-24.77275470332453
 30
0.0
 10
7.026942840162767
 20
-24.75253388334497
 30
0.0
 10
7.092085138467116
 20
-24.72082701269045
 30
0.0
 10
7.148649789472985
 20
-24.67585301070849
 30
0.0
 10
7.19679819364643
 20
-24.62350245420746
 30
0.0
 10
7.231663467246177
 20
-24.56453398714638
 30
0.0
 10
7.253513358388363
 20
-24.50067823417327
 30
0.0
 10
7.256079513223102
 20
-24.45641303967394
 30
0.0
 10
7.257385149572604
 20
-24.4338913094285
 30
0.0
  0
SPLINE
  5
DF
330
1F
100
AcDbEntity
  8
0
  6
Continuous
 62
     7
370
    15
100
AcDbSpline
210
0.0
220
0.0
230
1.0
 70
     8
 71
     3
 72
    11
 73
     7
 74
     0
 42
0.000000001
 43
0.00000001
 40
0.0
 40
0.0
 40
0.0
 40
0.0
 40
0.253475434649867
 40
0.5004533151028995
 40
0.7455781350009854
 40
0.9999999999999999
 40
0.9999999999999999
 40
0.9999999999999999
 40
0.9999999999999999
 10
7.257385149572604
 20
-24.4338913094285
 30
0.0
 10
7.256481844101585
 20
-24.41533979914818
 30
0.0
 10
7.254698388366924
 20
-24.37871232543353
 30
0.0
 10
7.240692405634601
 20
-24.32570088112482
 30
0.0
 10
7.218562551701893
 20
-24.27541779474785
 30
0.0
 10
7.196772138755348
 20
-24.24598961784503
 30
0.0
 10
7.185674161992475
 20
-24.23100168603106
 30
0.0
  0
SPLINE
  5
E0
330
1F
100
AcDbEntity
  8
0
  6
Continuous
 62
     7
370
    15
100
AcDbSpline
210
0.0
220
0.0
230
1.0
 70
     8
 71
     3
 72
    15
 73
    11
 74
     0
 42
0.000000001
 43
0.00000001
 40
0.0
 40
0.0
 40
0.0
 40
0.0
 40
0.0768750740350471
 40
0.1674616757257262
 40
0.2722700232466401
 40
0.3895508405125191
 40
0.5208013683480573
 40
0.6662632933752253
 40
0.8255449152058629
 40
1.0
 40
1.0
 40
1.0
 40
1.0
 10
7.185674161992475
 20
-24.23100168603106
 30
0.0
 10
7.17900315900732
 20
-24.22348835214654
 30
0.0
 10
7.164471305182293
 20
-24.20712159740342
 30
0.0
 10
7.137815845629914
 20
-24.18348479075479
 30
0.0
 10
7.105899499502276
 20
-24.15800775235172
 30
0.0
 10
7.068363304492546
 20
-24.13112249654969
 30
0.0
 10
7.02513159120279
 20
-24.10318365631567
 30
0.0
 10
6.976029140536373
 20
-24.07433780804629
 30
0.0
 10
6.92172862154225
 20
-24.04321487178053
 30
0.0
 10
6.883335542999913
 20
-24.02257614647424
 30
0.0
 10
6.863266225961492
 20
-24.01178761017636
 30
0.0
  0
SPLINE
  5
E1
330
1F
100
AcDbEntity
  8
0
  6
Continuous
 62
     7
370
    15
100
AcDbSpline
210
0.0
220
0.0
230
1.0
 70
     8
 71
     3
 72
    15
 73
    11
 74
     0
 42
0.000000001
 43
0.00000001
 40
0.0
 40
0.0
 40
0.0
 40
0.0
 40
0.1577616635135507
 40
0.3059502132085409
 40
0.443775499000727
 40
0.5728243624015398
 40
0.6921541564432439
 40
0.8022957069908466
 40
0.9055643918329931
 40
0.9999999999999999
 40
0.9999999999999999
 40
0.9999999999999999
 40
0.9999999999999999
 10
6.863266225961493
 20
-24.01178761017637
 30
0.0
 10
6.841607204452529
 20
-23.99969762985791
 30
0.0
 10
6.79960344954165
 20
-23.97625129965489
 30
0.0
 10
6.740108470114634
 20
-23.93973298767817
 30
0.0
 10
6.68643427139821
 20
-23.90259002176852
 30
0.0
 10
6.637289329336218
 20
-23.8669059524638
 30
0.0
 10
6.593914969258008
 20
-23.83079936990744
 30
0.0
 10
6.556482064625838
 20
-23.79423019115741
 30
0.0
 10
6.523516842889729
 20
-23.75867322654266
 30
0.0
 10
6.505266524920374
 20
-23.73347958167908
 30
0.0
 10
6.496549061832219
 20
-23.72144556290072
 30
0.0
  0
SPLINE
  5
E2
330
1F
100
AcDbEntity
  8
0
  6
Continuous
 62
     7
370
    15
100
AcDbSpline
210
0.0
220
0.0
230
1.0
 70
     8
 71
     3
 72
    11
 73
     7
 74
     0
 42
0.000000001
 43
0.00000001
 40
0.0
 40
0.0
 40
0.0
 40
0.0
 40
0.2462523706929795
 40
0.4925907964763782
 40
0.7405699911180915
 40
1.0
 40
1.0
 40
1.0
 40
1.0
 10
6.496549061832219
 20
-23.72144556290072
 30
0.0
 10
6.481472604856108
 20
-23.69720959611212
 30
0.0
 10
6.451314422301335
 20
-23.64872919305985
 30
0.0
 10
6.422031313922878
 20
-23.56781089782489
 30
0.0
 10
6.401902848243499
 20
-23.4826229543195
 30
0.0
 10
6.400104717846749
 20
-23.42384346889006
 30
0.0
 10
6.399185363247817
 20
-23.39379048143705
 30
0.0
  0
SPLINE
  5
E3
330
1F
100
AcDbEntity
  8
0
  6
Continuous
 62
     7
370
    15
100
AcDbSpline
210
0.0
220
0.0
230
1.0
 70
     8
 71
     3
 72
    31
 73
    27
 74
     0
 42
0.000000001
 43
0.00000001
 40
0.0
 40
0.0
 40
0.0
 40
0.0
 40
0.0412914469532473
 40
0.0821355032144641
 40
0.1226360352259631
 40
0.162830869755124
 40
0.2030066005770554
 40
0.2435260831621618
 40
0.2841729362467873
 40
0.3254098107964584
 40
0.3668546660987568
 40
0.407550595165851
 40
0.4481873740566105
 40
0.4886828510840631
 40
0.5290149651896819
 40
0.5698427286954864
 40
0.6113702381646687
 40
0.6532377352823788
 40
0.6954461190732804
 40
0.7377513945470104
 40
0.7800433605771132
 40
0.8228070703900522
 40
0.8659781422330309
 40
0.9095950301662465
 40
0.954231404704788
 40
1.0
 40
1.0
 40
1.0
 40
1.0
 10
3.787272970085411
 20
-23.95406901041675
 30
0.0
 10
3.787639696003711
 20
-23.92897420501625
 30
0.0
 10
3.788369174383954
 20
-23.87905649513378
 30
0.0
 10
3.796736146438132
 20
-23.80496970456593
 30
0.0
 10
3.80754499565748
 20
-23.73186956300414
 30
0.0
 10
3.825860444877769
 20
-23.66068266780763
 30
0.0
 10
3.847015541570524
 20
-23.59032934029165
 30
0.0
 10
3.874020492703981
 20
-23.52165755902897
 30
0.0
 10
3.905698627644658
 20
-23.45434820906316
 30
0.0
 10
3.941664681441231
 20
-23.38857468033979
 30
0.0
 10
3.982151691511313
 20
-23.32541902161355
 30
0.0
 10
4.026956502731716
 20
-23.26575243259902
 30
0.0
 10
4.074391584694941
 20
-23.20885813952024
 30
0.0
 10
4.1266760659541
 20
-23.15670034567295
 30
0.0
 10
4.181591182872454
 20
-23.10719316756763
 30
0.0
 10
4.240690582421137
 20
-23.0616591796571
 30
0.0
 10
4.303635287641204
 20
-23.01996455799888
 30
0.0
 10
4.369479991000079
 20
-22.98133832670693
 30
0.0
 10
4.438186372981898
 20
-22.94694598693667
 30
0.0
 10
4.509339133977168
 20
-22.91731525283661
 30
0.0
 10
4.582509527937343
 20
-22.89199248586626
 30
0.0
 10
4.657814600220528
 20
-22.87194477147272
 30
0.0
 10
4.734754519191289
 20
-22.85513302122986
 30
0.0
 10
4.813935596048376
 20
-22.84455752640516
 30
0.0
 10
4.895054914200578
 20
-22.83708501255386
 30
0.0
 10
4.949983642612036
 20
-22.83626112168344
 30
0.0
 10
4.977791967147376
 20
-22.8358440170941
 30
0.0
  0
SPLINE
  5
E4
330
1F
100
AcDbEntity
  8
0
  6
Continuous
 62
     7
370
    15
100
AcDbSpline
210
0.0
220
0.0
230
1.0
 70
     8
 71
     3
 72
    19
 73
    15
 74
     0
 42
0.000000001
 43
0.00000001
 40
0.0
 40
0.0
 40
0.0
 40
0.0
 40
0.0912688044343261
 40
0.1820814045527836
 40
0.2719096545272038
 40
0.362049458505355
 40
0.4500663484251175
 40
0.5339764739707168
 40
0.6136024537413247
 40
0.6901976142648829
 40
0.7654128769004128
 40
0.8414365506928784
 40
0.9197327486057716
 40
0.9999999999999999
 40
0.9999999999999999
 40
0.9999999999999999
 40
0.9999999999999999
 10
4.977791967147377
 20
-22.8358440170941
 30
0.0
 10
5.012617271278337
 20
-22.83661061341314
 30
0.0
 10
5.082093806327133
 20
-22.83813997424307
 30
0.0
 10
5.185156405852005
 20
-22.85101121064366
 30
0.0
 10
5.286701004556023
 20
-22.87041655214691
 30
0.0
 10
5.38494594716378
 20
-22.89916550642702
 30
0.0
 10
5.478700042800193
 20
-22.93397712966669
 30
0.0
 10
5.566457795133572
 20
-22.97307044037334
 30
0.0
 10
5.646153405316146
 20
-23.01846845285711
 30
0.0
 10
5.719269382713175
 20
-23.06812857179367
 30
0.0
 10
5.785942469463387
 20
-23.12414237256428
 30
0.0
 10
5.846857068348909
 20
-23.18717946750277
 30
0.0
 10
5.903262314745148
 20
-23.2569117861134
 30
0.0
 10
5.935240901582707
 20
-23.30830619480734
 30
0.0
 10
5.951428952991394
 20
-23.33432283319987
 30
0.0
  0
LINE
  5
E5
330
1F
100
AcDbEntity
  8
0
  6
Continuous
 62
     7
370
    15
100
AcDbLine
 10
5.951428953
 20
-23.3343228332
 30
0.0
 11
5.7327978933
 21
-23.4701655983
 31
0.0
  0
SPLINE
  5
E6
330
1F
100
AcDbEntity
  8
0
  6
Continuous
 62
     7
370
    15
100
AcDbSpline
210
0.0
220
0.0
230
1.0
 70
     8
 71
     3
 72
    15
 73
    11
 74
     0
 42
0.000000001
 43
0.00000001
 40
0.0
 40
0.0
 40
0.0
 40
0.0
 40
0.1283242377690993
 40
0.2525844750621366
 40
0.3735064833109019
 40
0.4933644513855714
 40
0.6146085973434222
 40
0.7384702442356696
 40
0.8659947178700196
 40
1.0
 40
1.0
 40
1.0
 40
1.0
 10
5.732797893295881
 20
-23.47016559829068
 30
0.0
 10
5.708824487383368
 20
-23.44037258269998
 30
0.0
 10
5.661636908067611
 20
-23.38173008979046
 30
0.0
 10
5.579696840700317
 20
-23.30605099646751
 30
0.0
 10
5.492374849232413
 20
-23.24105137899662
 30
0.0
 10
5.398178758364849
 20
-23.18807867656746
 30
0.0
 10
5.297240685345246
 20
-23.14714869670649
 30
0.0
 10
5.189958692965914
 20
-23.11818572224957
 30
0.0
 10
5.076348079661696
 20
-23.10013761080197
 30
0.0
 10
4.998461006416081
 20
-23.09808631847991
 30
0.0
 10
4.958552433894172
 20
-23.09703525641034
 30
0.0
  0
SPLINE
  5
E7
330
1F
100
AcDbEntity
  8
0
  6
Continuous
 62
     7
370
    15
100
AcDbSpline
210
0.0
220
0.0
230
1.0
 70
     8
 71
     3
 72
    23
 73
    19
 74
     0
 42
0.000000001
 43
0.00000001
 40
0.0
 40
0.0
 40
0.0
 40
0.0
 40
0.0695216413260459
 40
0.1369209822612554
 40
0.2019692428653322
 40
0.2654615503849179
 40
0.3282478845128383
 40
0.3908167166700983
 40
0.4535501756793825
 40
0.5175419816323167
 40
0.5807383719174795
 40
0.6419215091741681
 40
0.701596724408931
 40
0.7603128802455004
 40
0.8187565130146944
 40
0.877718079536196
 40
0.9380940530276959
 40
1.0
 40
1.0
 40
1.0
 40
1.0
 10
4.958552433894172
 20
-23.09703525641034
 30
0.0
 10
4.926655134605208
 20
-23.09791407103353
 30
0.0
 10
4.863834270960122
 20
-23.09964487253846
 30
0.0
 10
4.771610523123798
 20
-23.11046371730711
 30
0.0
 10
4.683763875905941
 20
-23.13012317302393
 30
0.0
 10
4.59974371499239
 20
-23.1560266768925
 30
0.0
 10
4.520147628868548
 20
-23.19074403108688
 30
0.0
 10
4.444767073469189
 20
-23.23299476281331
 30
0.0
 10
4.372933424937997
 20
-23.28209768323809
 30
0.0
 10
4.306728313239771
 20
-23.33898430938192
 30
0.0
 10
4.246167525803168
 20
-23.40085034432536
 30
0.0
 10
4.193697774069231
 20
-23.46716933981427
 30
0.0
 10
4.148015098074507
 20
-23.53595486839508
 30
0.0
 10
4.112170442713864
 20
-23.60892462070692
 30
0.0
 10
4.082837458692782
 20
-23.6844092316591
 30
0.0
 10
4.063539965776863
 20
-23.7638335509372
 30
0.0
 10
4.050680335126921
 20
-23.8461800548559
 30
0.0
 10
4.04920905412754
 20
-23.90232476950234
 30
0.0
 10
4.048464209401651
 20
-23.93074836404923
 30
0.0
  0
SPLINE
  5
E8
330
1F
100
AcDbEntity
  8
0
  6
Continuous
 62
     7
370
    15
100
AcDbSpline
210
0.0
220
0.0
230
1.0
 70
     8
 71
     3
 72
    19
 73
    15
 74
     0
 42
0.000000001
 43
0.00000001
 40
0.0
 40
0.0
 40
0.0
 40
0.0
 40
0.080525242352541
 40
0.1599654769449853
 40
0.2403213612945774
 40
0.3225285276294007
 40
0.4050235832074835
 40
0.4865966363996181
 40
0.5678654736293196
 40
0.6513327733845233
 40
0.7362375672940284
 40
0.821529069009538
 40
0.9090049060738453
 40
1.0
 40
1.0
 40
1.0
 40
1.0
 10
4.048464209401651
 20
-23.93074836404923
 30
0.0
 10
4.049943742341767
 20
-23.96797609488883
 30
0.0
 10
4.052882872799589
 20
-24.04192994520155
 30
0.0
 10
4.075917955659265
 20
-24.15109393816514
 30
0.0
 10
4.113623989599942
 20
-24.25663703068227
 30
0.0
 10
4.16522804755764
 20
-24.35780988042113
 30
0.0
 10
4.230485521827863
 20
-24.4514372821525
 30
0.0
 10
4.307131397380468
 20
-24.53540983320966
 30
0.0
 10
4.395208158875272
 20
-24.60810042334549
 30
0.0
 10
4.493939745822768
 20
-24.66836477902145
 30
0.0
 10
4.601007940817047
 20
-24.71681188054165
 30
0.0
 10
4.715254355300916
 20
-24.7513272043753
 30
0.0
 10
4.83574542273116
 20
-24.77215944512466
 30
0.0
 10
4.91824055706743
 20
-24.7747837620437
 30
0.0
 10
4.960301482371736
 20
-24.77612179487188
 30
0.0
  0
SPLINE
  5
E9
330
1F
100
AcDbEntity
  8
0
  6
Continuous
 62
     7
370
    15
100
AcDbSpline
210
0.0
220
0.0
230
1.0
 70
     8
 71
     3
 72
    15
 73
    11
 74
     0
 42
0.000000001
 43
0.00000001
 40
0.0
 40
0.0
 40
0.0
 40
0.0
 40
0.1299810785766151
 40
0.2554473120268492
 40
0.377298344718116
 40
0.4984417785420233
 40
0.6193721253366247
 40
0.741856501957812
 40
0.8685636891457529
 40
0.9999999999999999
 40
0.9999999999999999
 40
0.9999999999999999
 40
0.9999999999999999
 10
4.960301482371736
 20
-24.77612179487188
 30
0.0
 10
4.998848025571854
 20
-24.77504120107269
 30
0.0
 10
5.074602211921313
 20
-24.77291754750389
 30
0.0
 10
5.18533715075631
 20
-24.755015189308
 30
0.0
 10
5.290760683766512
 20
-24.72570842969162
 30
0.0
 10
5.390869063953214
 20
-24.68483981831216
 30
0.0
 10
5.485479363941662
 20
-24.63201366371986
 30
0.0
 10
5.573980290942249
 20
-24.56685428180073
 30
0.0
 10
5.658132858665453
 20
-24.49123616832198
 30
0.0
 10
5.707607427882832
 20
-24.43276342671951
 30
0.0
 10
5.732797893295881
 20
-24.40299145299154
 30
0.0
  0
LINE
  5
EA
330
1F
100
AcDbEntity
  8
0
  6
Continuous
 62
     7
370
    15
100
AcDbLine
 10
5.7327978933
 20
-24.402991453
 30
0.0
 11
5.951428953
 21
-24.5464134282
 31
0.0
  0
SPLINE
  5
EB
330
1F
100
AcDbEntity
  8
0
  6
Continuous
 62
     7
370
    15
100
AcDbSpline
210
0.0
220
0.0
230
1.0
 70
     8
 71
     3
 72
    23
 73
    19
 74
     0
 42
0.000000001
 43
0.00000001
 40
0.0
 40
0.0
 40
0.0
 40
0.0
 40
0.0596333961362501
 40
0.1190688615049889
 40
0.1781965462156696
 40
0.2369566475521789
 40
0.2959319880758023
 40
0.3558557687429114
 40
0.4164733051171468
 40
0.4777415997317962
 40
0.5399029904536086
 40
0.6025375151243935
 40
0.6654223850767752
 40
0.7297652560446459
 40
0.794828770841605
 40
0.8618265399701647
 40
0.930010932434066
 40
1.0
 40
1.0
 40
1.0
 40
1.0
 10
5.951428952991394
 20
-24.54641342815179
 30
0.0
 10
5.938467036325681
 20
-24.56544815761832
 30
0.0
 10
5.912586225231465
 20
-24.6034544378821
 30
0.0
 10
5.869322777160459
 20
-24.65704278966014
 30
0.0
 10
5.822656464725016
 20
-24.70720314095554
 30
0.0
 10
5.772769347849807
 20
-24.75386825465217
 30
0.0
 10
5.720312821225247
 20
-24.79815483372448
 30
0.0
 10
5.663494910686432
 20
-24.8379456965774
 30
0.0
 10
5.604147680201305
 20
-24.87547745094294
 30
0.0
 10
5.541574422260808
 20
-24.90924898812604
 30
0.0
 10
5.476422085877425
 20
-24.93960573288614
 30
0.0
 10
5.408782348084658
 20
-24.96570898615697
 30
0.0
 10
5.338949134776122
 20
-24.9881359135082
 30
0.0
 10
5.266840338632136
 20
-25.00596208817597
 30
0.0
 10
5.192313799383019
 20
-25.02019056517433
 30
0.0
 10
5.115562258138334
 20
-25.02963170867733
 30
0.0
 10
5.036612148913227
 20
-25.03667930851284
 30
0.0
 10
4.983249949283477
 20
-25.03709996092456
 30
0.0
 10
4.956220369257419
 20
-25.03731303418812
 30
0.0
  0
SPLINE
  5
EC
330
1F
100
AcDbEntity
  8
0
  6
Continuous
 62
     7
370
    15
100
AcDbSpline
210
0.0
220
0.0
230
1.0
 70
     8
 71
     3
 72
    23
 73
    19
 74
     0
 42
0.000000001
 43
0.00000001
 40
0.0
 40
0.0
 40
0.0
 40
0.0
 40
0.0695585437274133
 40
0.1363352505575721
 40
0.2010957661175483
 40
0.2644499547795249
 40
0.3270049911572458
 40
0.3893913874403773
 40
0.4519764903030331
 40
0.5156699828847834
 40
0.5789732464632442
 40
0.640167028800425
 40
0.6997398434247564
 40
0.7586849854260634
 40
0.8178204012911086
 40
0.8769839874813289
 40
0.9376342848620921
 40
1.0
 40
1.0
 40
1.0
 40
1.0
 10
4.956220369257419
 20
-25.03731303418812
 30
0.0
 10
4.914966557051695
 20
-25.03657189259248
 30
0.0
 10
4.83410878571072
 20
-25.03511924968587
 30
0.0
 10
4.715760843367262
 20
-25.01914648770149
 30
0.0
 10
4.602659002239732
 20
-24.99506685083174
 30
0.0
 10
4.494841903383622
 20
-24.96050462685749
 30
0.0
 10
4.392292761571052
 20
-24.91601285838424
 30
0.0
 10
4.295107198364313
 20
-24.86166547167023
 30
0.0
 10
4.20360700942362
 20
-24.79701115589977
 30
0.0
 10
4.118697031132498
 20
-24.72320068636957
 30
0.0
 10
4.040713292875807
 20
-24.6431720105149
 30
0.0
 10
3.973751931017984
 20
-24.55681585851994
 30
0.0
 10
3.915672262534022
 20
-24.46730720147515
 30
0.0
 10
3.869032799634543
 20
-24.37266916106956
 30
0.0
 10
3.831906754257756
 20
-24.2741595625837
 30
0.0
 10
3.806540533360681
 20
-24.17098924996693
 30
0.0
 10
3.790134316936735
 20
-24.06400877442057
 30
0.0
 10
3.788235578131501
 20
-23.9910547052361
 30
0.0
 10
3.787272970085411
 20
-23.95406901041675
 30
0.0
  0
LINE
  5
ED
330
1F
100
AcDbEntity
  8
0
  6
Continuous
 62
     7
370
    15
100
AcDbLine
 10
3.2275774573
 20
-25.0
 30
0.0
 11
2.9663862179
 21
-25.0
 31
0.0
  0
LINE
  5
EE
330
1F
100
AcDbEntity
  8
0
  6
Continuous
 62
     7
370
    15
100
AcDbLine
 10
2.9663862179
 20
-25.0
 30
0.0
 11
2.9663862179
 21
-22.8731570513
 31
0.0
  0
LINE
  5
EF
330
1F
100
AcDbEntity
  8
0
  6
Continuous
 62
     7
370
    15
100
AcDbLine
 10
2.9663862179
 20
-22.8731570513
 30
0.0
 11
3.2275774573
 21
-22.8731570513
 31
0.0
  0
LINE
  5
F0
330
1F
100
AcDbEntity
  8
0
  6
Continuous
 62
     7
370
    15
100
AcDbLine
 10
3.2275774573
 20
-22.8731570513
 30
0.0
 11
3.2275774573
 21
-25.0
 31
0.0
  0
SPLINE
  5
F1
330
1F
100
AcDbEntity
  8
0
  6
Continuous
 62
     7
370
    15
100
AcDbSpline
210
0.0
220
0.0
230
1.0
 70
     8
 71
     3
 72
    15
 73
    11
 74
     0
 42
0.000000001
 43
0.00000001
 40
0.0
 40
0.0
 40
0.0
 40
0.0
 40
0.1318667517023319
 40
0.2566614034533646
 40
0.3842132129425028
 40
0.5133652331525852
 40
0.6404431518253958
 40
0.7610850047778878
 40
0.8791455246531603
 40
0.9999999999999999
 40
0.9999999999999999
 40
0.9999999999999999
 40
0.9999999999999999
 10
3.095815805288384
 20
-22.42540064102572
 30
0.0
 10
3.079793316950335
 20
-22.42467742724615
 30
0.0
 10
3.048607636780233
 20
-22.42326978611397
 30
0.0
 10
3.003399018475406
 20
-22.41032257493679
 30
0.0
 10
2.961964256759654
 20
-22.38918789986452
 30
0.0
 10
2.924823454555086
 20
-22.36072719713952
 30
0.0
 10
2.89386477609938
 20
-22.32667956533603
 30
0.0
 10
2.871331228135686
 20
-22.28815621443223
 30
0.0
 10
2.857132584234369
 20
-22.24640491145524
 30
0.0
 10
2.855349223416088
 20
-22.21737378268509
 30
0.0
 10
2.854447115384539
 20
-22.2026884682159
 30
0.0
  0
SPLINE
  5
F2
330
1F
100
AcDbEntity
  8
0
  6
Continuous
 62
     7
370
    15
100
AcDbSpline
210
0.0
220
0.0
230
1.0
 70
     8
 71
     3
 72
    15
 73
    11
 74
     0
 42
0.000000001
 43
0.00000001
 40
0.0
 40
0.0
 40
0.0
 40
0.0
 40
0.1232898687277995
 40
0.2421490813339749
 40
0.3634374760537305
 40
0.489745393341373
 40
0.6181148445930085
 40
0.7448937812572475
 40
0.8689322665891843
 40
1.0
 40
1.0
 40
1.0
 40
1.0
 10
2.854447115384539
 20
-22.2026884682159
 30
0.0
 10
2.855329459434379
 20
-22.18761180339744
 30
0.0
 10
2.857062438821039
 20
-22.15800028241002
 30
0.0
 10
2.871341871109975
 20
-22.11551232944381
 30
0.0
 10
2.89367708030245
 20
-22.07644497348013
 30
0.0
 10
2.924843953669297
 20
-22.04233031711223
 30
0.0
 10
2.961958801287008
 20
-22.01385360736675
 30
0.0
 10
3.003400428071331
 20
-21.99272316620095
 30
0.0
 10
3.048607264399838
 20
-21.97977485602223
 30
0.0
 10
3.079793190564145
 20
-21.97836736660251
 30
0.0
 10
3.095815805288384
 20
-21.97764423076931
 30
0.0
  0
SPLINE
  5
F3
330
1F
100
AcDbEntity
  8
0
  6
Continuous
 62
     7
370
    15
100
AcDbSpline
210
0.0
220
0.0
230
1.0
 70
     8
 71
     3
 72
    15
 73
    11
 74
     0
 42
0.000000001
 43
0.00000001
 40
0.0
 40
0.0
 40
0.0
 40
0.0
 40
0.1318992643310799
 40
0.2582840923169749
 40
0.3843411247791014
 40
0.5119796151257191
 40
0.6386320084211461
 40
0.7592297631645821
 40
0.8774121680352004
 40
1.0
 40
1.0
 40
1.0
 40
1.0
 10
3.095815805288384
 20
-21.97764423076931
 30
0.0
 10
3.112023762524116
 20
-21.97839607654124
 30
0.0
 10
3.143762055714557
 20
-21.97986833496323
 30
0.0
 10
3.189657886038218
 20
-21.99247582512919
 30
0.0
 10
3.23144898476991
 20
-22.01384633737084
 30
0.0
 10
3.268517492417012
 20
-22.04251783392925
 30
0.0
 10
3.300325757710651
 20
-22.07623662709149
 30
0.0
 10
3.322595193659729
 20
-22.11553637275129
 30
0.0
 10
3.336908120667484
 20
-22.15799406226796
 30
0.0
 10
3.338636538359594
 20
-22.18760970487867
 30
0.0
 10
3.339516559828983
 20
-22.2026884682159
 30
0.0
  0
SPLINE
  5
F4
330
1F
100
AcDbEntity
  8
0
  6
Continuous
 62
     7
370
    15
100
AcDbSpline
210
0.0
220
0.0
230
1.0
 70
     8
 71
     3
 72
    15
 73
    11
 74
     0
 42
0.000000001
 43
0.00000001
 40
0.0
 40
0.0
 40
0.0
 40
0.0
 40
0.1201621349925918
 40
0.2375463202768733
 40
0.357497050927352
 40
0.4849171224652668
 40
0.6133292680851243
 40
0.7401503701286893
 40
0.867301254563262
 40
1.0
 40
1.0
 40
1.0
 40
1.0
 10
3.339516559828983
 20
-22.2026884682159
 30
0.0
 10
3.338616692403202
 20
-22.21737580539983
 30
0.0
 10
3.336837760997362
 20
-22.24641093283763
 30
0.0
 10
3.32260624904073
 20
-22.28813256406216
 30
0.0
 10
3.300135971501446
 20
-22.32688624503018
 30
0.0
 10
3.26853788906115
 20
-22.36053956774834
 30
0.0
 10
3.231443580061359
 20
-22.38919521425236
 30
0.0
 10
3.189659321827678
 20
-22.41056992868708
 30
0.0
 10
3.14376167803315
 20
-22.42317630481798
 30
0.0
 10
3.112023634851066
 20
-22.42464871682284
 30
0.0
 10
3.095815805288384
 20
-22.42540064102572
 30
0.0
  0
LINE
  5
F5
330
1F
100
AcDbEntity
  8
0
  6
Continuous
 62
     7
370
    15
100
AcDbLine
 10
0.802230235
 20
-25.0
 30
0.0
 11
0.5410389957
 21
-25.0
 31
0.0
  0
LINE
  5
F6
330
1F
100
AcDbEntity
  8
0
  6
Continuous
 62
     7
370
    15
100
AcDbLine
 10
0.5410389957
 20
-25.0
 30
0.0
 11
0.5410389957
 21
-22.8731570513
 31
0.0
  0
LINE
  5
F7
330
1F
100
AcDbEntity
  8
0
  6
Continuous
 62
     7
370
    15
100
AcDbLine
 10
0.5410389957
 20
-22.8731570513
 30
0.0
 11
0.802230235
 21
-22.8731570513
 31
0.0
  0
LINE
  5
F8
330
1F
100
AcDbEntity
  8
0
  6
Continuous
 62
     7
370
    15
100
AcDbLine
 10
0.802230235
 20
-22.8731570513
 30
0.0
 11
0.802230235
 21
-23.256781684
 31
0.0
  0
SPLINE
  5
F9
330
1F
100
AcDbEntity
  8
0
  6
Continuous
 62
     7
370
    15
100
AcDbSpline
210
0.0
220
0.0
230
1.0
 70
     8
 71
     3
 72
    15
 73
    11
 74
     0
 42
0.000000001
 43
0.00000001
 40
0.0
 40
0.0
 40
0.0
 40
0.0
 40
0.140975966268772
 40
0.2735687809631701
 40
0.3989883138042534
 40
0.5199297813924313
 40
0.6381100215247444
 40
0.7565889007405946
 40
0.8768597544106074
 40
1.0
 40
1.0
 40
1.0
 40
1.0
 10
0.8022302350426828
 20
-23.25678168402786
 30
0.0
 10
0.8301183756852798
 20
-23.22198746747776
 30
0.0
 10
0.8842362855734045
 20
-23.15446807634954
 30
0.0
 10
0.9743630198506398
 20
-23.06572483667073
 30
0.0
 10
1.069611727440336
 20
-22.99259419417813
 30
0.0
 10
1.169399107721028
 20
-22.93429955123752
 30
0.0
 10
1.273860622667218
 20
-22.89035506508891
 30
0.0
 10
1.382359517392481
 20
-22.85861827596588
 30
0.0
 10
1.495545377157161
 20
-22.83958845128144
 30
0.0
 10
1.572517114247835
 20
-22.83710193239547
 30
0.0
 10
1.611456663995674
 20
-22.8358440170941
 30
0.0
  0
SPLINE
  5
FA
330
1F
100
AcDbEntity
  8
0
  6
Continuous
 62
     7
370
    15
100
AcDbSpline
210
0.0
220
0.0
230
1.0
 70
     8
 71
     3
 72
    23
 73
    19
 74
     0
 42
0.000000001
 43
0.00000001
 40
0.0
 40
0.0
 40
0.0
 40
0.0
 40
0.0772404236164787
 40
0.1511781404663827
 40
0.2234879838003992
 40
0.2955426441988699
 40
0.36697625461979
 40
0.4371305254863864
 40
0.5070436156432686
 40
0.578559733523678
 40
0.6166135446965526
 40
0.6587562369775279
 40
0.7044912261144027
 40
0.7548031149051502
 40
0.8093316253185644
 40
0.8682744554728192
 40
0.9320728834092922
 40
0.9999999999999999
 40
0.9999999999999999
 40
0.9999999999999999
 40
0.9999999999999999
 10
1.611456663995674
 20
-22.8358440170941
 30
0.0
 10
1.650814340103304
 20
-22.837295230208
 30
0.0
 10
1.727846805856901
 20
-22.84013560432438
 30
0.0
 10
1.840004336660911
 20
-22.86260126949233
 30
0.0
 10
1.9447572122445
 20
-22.90097324652158
 30
0.0
 10
2.041731926194474
 20
-22.9535370931603
 30
0.0
 10
2.12915021016329
 20
-23.01890211896097
 30
0.0
 10
2.205922720587223
 20
-23.09505340534045
 30
0.0
 10
2.269422397126798
 20
-23.18264537455482
 30
0.0
 10
2.311995442430723
 20
-23.26390683244919
 30
0.0
 10
2.340039924469004
 20
-23.33599269292484
 30
0.0
 10
2.357695624175438
 20
-23.39773240119156
 30
0.0
 10
2.372689243877072
 20
-23.46651648284823
 30
0.0
 10
2.38568778672274
 20
-23.54213708160358
 30
0.0
 10
2.394483158912506
 20
-23.62512402909319
 30
0.0
 10
2.401420171572743
 20
-23.71513713968719
 30
0.0
 10
2.406391740573193
 20
-23.81214725653382
 30
0.0
 10
2.406588989478246
 20
-23.8792420294455
 30
0.0
 10
2.406690705128153
 20
-23.91384089543277
 30
0.0
  0
LINE
  5
FB
330
1F
100
AcDbEntity
  8
0
  6
Continuous
 62
     7
370
    15
100
AcDbLine
 10
2.4066907051
 20
-23.9138408954
 30
0.0
 11
2.4066907051
 21
-25.0
 31
0.0
  0
LINE
  5
FC
330
1F
100
AcDbEntity
  8
0
  6
Continuous
 62
     7
370
    15
100
AcDbLine
 10
2.4066907051
 20
-25.0
 30
0.0
 11
2.1454994658
 21
-25.0
 31
0.0
  0
LINE
  5
FD
330
1F
100
AcDbEntity
  8
0
  6
Continuous
 62
     7
370
    15
100
AcDbLine
 10
2.1454994658
 20
-25.0
 30
0.0
 11
2.1454994658
 21
-23.9995442708
 31
0.0
  0
SPLINE
  5
FE
330
1F
100
AcDbEntity
  8
0
  6
Continuous
 62
     7
370
    15
100
AcDbSpline
210
0.0
220
0.0
230
1.0
 70
     8
 71
     3
 72
    15
 73
    11
 74
     0
 42
0.000000001
 43
0.00000001
 40
0.0
 40
0.0
 40
0.0
 40
0.0
 40
0.1788500194111614
 40
0.3421096489423011
 40
0.4898256633683926
 40
0.6232544282245673
 40
0.7400796760857916
 40
0.8414826730699869
 40
0.9289076721840656
 40
1.0
 40
1.0
 40
1.0
 40
1.0
 10
2.145499465811913
 20
-23.99954427083341
 30
0.0
 10
2.145338804143777
 20
-23.97058774966349
 30
0.0
 10
2.145031485715378
 20
-23.91519885272823
 30
0.0
 10
2.144062194990203
 20
-23.8358949685634
 30
0.0
 10
2.141725706999521
 20
-23.763977260213
 30
0.0
 10
2.138442496794933
 20
-23.69961766362647
 30
0.0
 10
2.133636957717929
 20
-23.64287797929373
 30
0.0
 10
2.128628852958436
 20
-23.5936426461963
 30
0.0
 10
2.122504524038594
 20
-23.55197417549472
 30
0.0
 10
2.117047149245372
 20
-23.52689047306066
 30
0.0
 10
2.114599609374947
 20
-23.51564085870735
 30
0.0
  0
SPLINE
  5
FF
330
1F
100
AcDbEntity
  8
0
  6
Continuous
 62
     7
370
    15
100
AcDbSpline
210
0.0
220
0.0
230
1.0
 70
     8
 71
     3
 72
    15
 73
    11
 74
     0
 42
0.000000001
 43
0.00000001
 40
0.0
 40
0.0
 40
0.0
 40
0.0
 40
0.1355195283706044
 40
0.2608331631936787
 40
0.3784760291245028
 40
0.4931776464746774
 40
0.6092809649289389
 40
0.7299810378566456
 40
0.8592613089300661
 40
1.0
 40
1.0
 40
1.0
 40
1.0
 10
2.114599609374947
 20
-23.51564085870735
 30
0.0
 10
2.105763973949748
 20
-23.48261911741457
 30
0.0
 10
2.088758109448226
 20
-23.41906248215235
 30
0.0
 10
2.046736696099522
 20
-23.33285232107369
 30
0.0
 10
1.99367216600431
 20
-23.25951132797991
 30
0.0
 10
1.928896394835776
 20
-23.19949294696249
 30
0.0
 10
1.853035074199109
 20
-23.15278422144052
 30
0.0
 10
1.766298717980856
 20
-23.12037552218237
 30
0.0
 10
1.66952433642179
 20
-23.10010549356875
 30
0.0
 10
1.601458519401043
 20
-23.09808721772029
 30
0.0
 10
1.565981403579007
 20
-23.09703525641034
 30
0.0
  0
SPLINE
  5
100
330
1F
100
AcDbEntity
  8
0
  6
Continuous
 62
     7
370
    15
100
AcDbSpline
210
0.0
220
0.0
230
1.0
 70
     8
 71
     3
 72
    23
 73
    19
 74
     0
 42
0.000000001
 43
0.00000001
 40
0.0
 40
0.0
 40
0.0
 40
0.0
 40
0.0639861098164668
 40
0.1266268580894772
 40
0.1889843719814865
 40
0.2502301939603979
 40
0.3123511629623218
 40
0.3745736184579377
 40
0.4381475308782034
 40
0.5029204126073695
 40
0.5679740951402704
 40
0.6307713337491889
 40
0.6929346089254592
 40
0.7543975343123278
 40
0.8152183520172945
 40
0.8761169254810901
 40
0.938014604793954
 40
1.0
 40
1.0
 40
1.0
 40
1.0
 10
1.565981403579007
 20
-23.09703525641034
 30
0.0
 10
1.544970121438529
 20
-23.09743107695496
 30
0.0
 10
1.503389336960278
 20
-23.09821439558577
 30
0.0
 10
1.441730104369273
 20
-23.10607359995371
 30
0.0
 10
1.381921729411173
 20
-23.11892804190068
 30
0.0
 10
1.323363972288729
 20
-23.13628130772585
 30
0.0
 10
1.267228027141199
 20
-23.16011534945449
 30
0.0
 10
1.211710339772913
 20
-23.18716506981412
 30
0.0
 10
1.158901441267338
 20
-23.22088283894717
 30
0.0
 10
1.107675283059904
 20
-23.25846099260868
 30
0.0
 10
1.060016954314977
 20
-23.30010423811763
 30
0.0
 10
1.015671901481829
 20
-23.34404696471498
 30
0.0
 10
0.9761417739277914
 20
-23.39084280906211
 30
0.0
 10
0.9403281195400989
 20
-23.43973776543002
 30
0.0
 10
0.9094126231481535
 20
-23.49140334738357
 30
0.0
 10
0.8824263350391934
 20
-23.54534110699719
 30
0.0
 10
0.8595290935963065
 20
-23.60162203670371
 30
0.0
 10
0.8481512832508429
 20
-23.64068403702476
 30
0.0
 10
0.8424583500266571
 20
-23.66022886618598
 30
0.0
  0
SPLINE
  5
101
330
1F
100
AcDbEntity
  8
0
  6
Continuous
 62
     7
370
    15
100
AcDbSpline
210
0.0
220
0.0
230
1.0
 70
     8
 71
     3
 72
    15
 73
    11
 74
     0
 42
0.000000001
 43
0.00000001
 40
0.0
 40
0.0
 40
0.0
 40
0.0
 40
0.0769954547170594
 40
0.1676150771831704
 40
0.2710523936342337
 40
0.3894595025720735
 40
0.5208428024655769
 40
0.6663987586080746
 40
0.8260936125153163
 40
1.0
 40
1.0
 40
1.0
 40
1.0
 10
0.8424583500266571
 20
-23.66022886618598
 30
0.0
 10
0.8391823446336575
 20
-23.67457738920163
 30
0.0
 10
0.8320506522653487
 20
-23.70581337321615
 30
0.0
 10
0.8243478771089039
 20
-23.75707364338296
 30
0.0
 10
0.8173565778016779
 20
-23.81637128330204
 30
0.0
 10
0.8115050116170653
 20
-23.88363709694906
 30
0.0
 10
0.8079248528019488
 20
-23.95910659191289
 30
0.0
 10
0.8040212383419513
 20
-24.04245746418203
 30
0.0
 10
0.8026000726813916
 20
-24.13402207324956
 30
0.0
 10
0.8023569663941821
 20
-24.197769921307
 30
0.0
 10
0.8022302350426829
 20
-24.23100168603107
 30
0.0
  0
LINE
  5
102
330
1F
100
AcDbEntity
  8
0
  6
Continuous
 62
     7
370
    15
100
AcDbLine
 10
0.802230235
 20
-24.231001686
 30
0.0
 11
0.802230235
 21
-25.0
 31
0.0
  0
SPLINE
  5
103
330
1F
100
AcDbEntity
  8
0
  6
Continuous
 62
     7
370
    15
100
AcDbSpline
210
0.0
220
0.0
230
1.0
 70
     8
 71
     3
 72
    15
 73
    11
 74
     0
 42
0.000000001
 43
0.00000001
 40
0.0
 40
0.0
 40
0.0
 40
0.0
 40
0.1289191318119622
 40
0.2552377249249068
 40
0.3786785959785498
 40
0.5010878871851299
 40
0.6227136794297773
 40
0.7462407949383828
 40
0.8715890472316706
 40
1.0
 40
1.0
 40
1.0
 40
1.0
 10
-2.182812500000077
 20
-23.94240868723299
 30
0.0
 10
-2.181878413950056
 20
-23.90680469043989
 30
0.0
 10
-2.180029084103193
 20
-23.83631489569819
 30
0.0
 10
-2.166457803640804
 20
-23.73243209585911
 30
0.0
 10
-2.143707861135564
 20
-23.6320664693572
 30
0.0
 10
-2.111500860631376
 20
-23.53566891581599
 30
0.0
 10
-2.070326621538956
 20
-23.44273894906158
 30
0.0
 10
-2.020133336266321
 20
-23.35342671758069
 30
0.0
 10
-1.960436006707343
 20
-23.26778745730162
 30
0.0
 10
-1.914532955343849
 20
-23.21479951337351
 30
0.0
 10
-1.89130442040606
 20
-23.18798577724367
 30
0.0
  0
SPLINE
  5
104
330
1F
100
AcDbEntity
  8
0
  6
Continuous
 62
     7
370
    15
100
AcDbSpline
210
0.0
220
0.0
230
1.0
 70
     8
 71
     3
 72
    15
 73
    11
 74
     0
 42
0.000000001
 43
0.00000001
 40
0.0
 40
0.0
 40
0.0
 40
0.0
 40
0.1284975211375106
 40
0.2527129855154518
 40
0.3748191325670437
 40
0.4964364263727283
 40
0.6179105567458505
 40
0.7412876173092895
 40
0.8687004007446073
 40
1.0
 40
1.0
 40
1.0
 40
1.0
 10
-1.89130442040606
 20
-23.18798577724367
 30
0.0
 10
-1.864321871796919
 20
-23.15973399740012
 30
0.0
 10
-1.811255942155096
 20
-23.10417190120412
 30
0.0
 10
-1.721990363204922
 20
-23.03304753444848
 30
0.0
 10
-1.62844639410294
 20
-22.97158279922016
 30
0.0
 10
-1.528889416832639
 20
-22.92212549387053
 30
0.0
 10
-1.424378135544418
 20
-22.8831770359754
 30
0.0
 10
-1.314431539228077
 20
-22.8560972594186
 30
0.0
 10
-1.199448863575143
 20
-22.83842408269734
 30
0.0
 10
-1.120818035795068
 20
-22.83671260984366
 30
0.0
 10
-1.080911959134692
 20
-22.8358440170941
 30
0.0
  0
SPLINE
  5
105
330
1F
100
AcDbEntity
  8
0
  6
Continuous
 62
     7
370
    15
100
AcDbSpline
210
0.0
220
0.0
230
1.0
 70
     8
 71
     3
 72
    15
 73
    11
 74
     0
 42
0.000000001
 43
0.00000001
 40
0.0
 40
0.0
 40
0.0
 40
0.0
 40
0.1317514273024045
 40
0.2583323505141579
 40
0.3821339760925439
 40
0.5038043916000843
 40
0.6246929865409313
 40
0.746870589727575
 40
0.8715135042348147
 40
1.0
 40
1.0
 40
1.0
 40
1.0
 10
-1.080911959134692
 20
-22.8358440170941
 30
0.0
 10
-1.041004930466817
 20
-22.83669376823753
 30
0.0
 10
-0.9627570000353272
 20
-22.83835992256108
 30
0.0
 10
-0.8481631806463784
 20
-22.85616748626151
 30
0.0
 10
-0.738777136061243
 20
-22.88339847914643
 30
0.0
 10
-0.6341799274586005
 20
-22.92104393880003
 30
0.0
 10
-0.5357111389184286
 20
-22.97150387029627
 30
0.0
 10
-0.441936479383412
 20
-23.03171564392854
 30
0.0
 10
-0.3531130499713684
 20
-23.10304795536268
 30
0.0
 10
-0.2998748524283307
 20
-23.15822784912429
 30
0.0
 10
-0.2728515625000771
 20
-23.18623672876611
 30
0.0
  0
SPLINE
  5
106
330
1F
100
AcDbEntity
  8
0
  6
Continuous
 62
     7
370
    15
100
AcDbSpline
210
0.0
220
0.0
230
1.0
 70
     8
 71
     3
 72
    15
 73
    11
 74
     0
 42
0.000000001
 43
0.00000001
 40
0.0
 40
0.0
 40
0.0
 40
0.0
 40
0.1281572795931862
 40
0.2538343627967347
 40
0.3765056225222069
 40
0.4985336856679091
 40
0.6213677287324644
 40
0.7445647449043583
 40
0.8706337982552829
 40
1.0
 40
1.0
 40
1.0
 40
1.0
 10
-0.2728515625000771
 20
-23.18623672876611
 30
0.0
 10
-0.249583235221068
 20
-23.21302419194934
 30
0.0
 10
-0.2034968868921889
 20
-23.26608070711292
 30
0.0
 10
-0.1444023576369863
 20
-23.3521089757489
 30
0.0
 10
-0.0934937150536878
 20
-23.44120107130042
 30
0.0
 10
-0.0526955266617768
 20
-23.53454006853837
 30
0.0
 10
-0.0205270873235374
 20
-23.63131114925358
 30
0.0
 10
0.0023119470030423
 20
-23.73184692877072
 30
0.0
 10
0.0158968863552819
 20
-23.83592538054901
 30
0.0
 10
0.0177287582704429
 20
-23.90661011971187
 30
0.0
 10
0.0186565170939399
 20
-23.94240868723299
 30
0.0
  0
SPLINE
  5
107
330
1F
100
AcDbEntity
  8
0
  6
Continuous
 62
     7
370
    15
100
AcDbSpline
210
0.0
220
0.0
230
1.0
 70
     8
 71
     3
 72
    23
 73
    19
 74
     0
 42
0.000000001
 43
0.00000001
 40
0.0
 40
0.0
 40
0.0
 40
0.0
 40
0.0624160261588172
 40
0.1233369785373303
 40
0.1832651398530913
 40
0.2431724430697097
 40
0.3028983539197452
 40
0.3637735975039108
 40
0.4256053049523817
 40
0.4896590425101848
 40
0.5537845767921159
 40
0.6162215328110733
 40
0.6778544713083419
 40
0.7395168974879377
 40
0.8020965355763715
 40
0.8658658412779714
 40
0.9315077951965113
 40
1.0
 40
1.0
 40
1.0
 40
1.0
 10
0.0186565170939399
 20
-23.94240868723299
 30
0.0
 10
0.0178404883837567
 20
-23.97841474709951
 30
0.0
 10
0.0162279775959407
 20
-24.04956440058226
 30
0.0
 10
0.0009743870612282
 20
-24.15435550415756
 30
0.0
 10
-0.0227505694688533
 20
-24.25596631802154
 30
0.0
 10
-0.056704187287973
 20
-24.35397143419556
 30
0.0
 10
-0.1002424483839081
 20
-24.44867042817989
 30
0.0
 10
-0.1533705974817686
 20
-24.53964967839218
 30
0.0
 10
-0.2164614600775712
 20
-24.6270886844532
 30
0.0
 10
-0.2879778788105965
 20
-24.71024497495238
 30
0.0
 10
-0.3670180401102959
 20
-24.78688557142051
 30
0.0
 10
-0.4527640277303754
 20
-24.85368235270979
 30
0.0
 10
-0.5435308046053956
 20
-24.91091072743759
 30
0.0
 10
-0.6405253072986877
 20
-24.95700874685056
 30
0.0
 10
-0.7428617829558004
 20
-24.99335544407391
 30
0.0
 10
-0.8507609639931669
 20
-25.01888396964133
 30
0.0
 10
-0.9640552278191097
 20
-25.03431889359108
 30
0.0
 10
-1.041411792252779
 20
-25.03630094826102
 30
0.0
 10
-1.080911959134692
 20
-25.03731303418812
 30
0.0
  0
SPLINE
  5
108
330
1F
100
AcDbEntity
  8
0
  6
Continuous
 62
     7
370
    15
100
AcDbSpline
210
0.0
220
0.0
230
1.0
 70
     8
 71
     3
 72
    23
 73
    19
 74
     0
 42
0.000000001
 43
0.00000001
 40
0.0
 40
0.0
 40
0.0
 40
0.0
 40
0.0687422616054891
 40
0.1346351922242766
 40
0.1983241870671472
 40
0.2608250125604215
 40
0.3227135881590249
 40
0.3845545346076187
 40
0.4469128577247566
 40
0.5109576325148286
 40
0.5749307010013365
 40
0.636684537796093
 40
0.6974831152940622
 40
0.7571338075238542
 40
0.8169656636752651
 40
0.8768183516571958
 40
0.9376625803840037
 40
1.0
 40
1.0
 40
1.0
 40
1.0
 10
-1.080911959134692
 20
-25.03731303418812
 30
0.0
 10
-1.120605651488264
 20
-25.0362975513809
 30
0.0
 10
-1.198347753294349
 20
-25.03430867700063
 30
0.0
 10
-1.312041918024581
 20
-25.01894393654039
 30
0.0
 10
-1.420134476150777
 20
-24.99336720936804
 30
0.0
 10
-1.522604923848162
 20
-24.95688930023482
 30
0.0
 10
-1.620016442417374
 20
-24.91090925403364
 30
0.0
 10
-1.711309142559213
 20
-24.8538553669261
 30
0.0
 10
-1.797124786592342
 20
-24.78686576164746
 30
0.0
 10
-1.876181668871515
 20
-24.71025034256494
 30
0.0
 10
-1.947693604371831
 20
-24.62708730149957
 30
0.0
 10
-2.010785623816273
 20
-24.53965003734751
 30
0.0
 10
-2.063913472406515
 20
-24.44867033465002
 30
0.0
 10
-2.107451812182296
 20
-24.35397145913678
 30
0.0
 10
-2.141405408995745
 20
-24.25596631133375
 30
0.0
 10
-2.16513037117292
 20
-24.15435550597282
 30
0.0
 10
-2.180383960189931
 20
-24.04956440011226
 30
0.0
 10
-2.181996471185007
 20
-23.97841474694158
 30
0.0
 10
-2.182812500000077
 20
-23.94240868723299
 30
0.0
  0
SPLINE
  5
109
330
1F
100
AcDbEntity
  8
0
  6
Continuous
 62
     7
370
    15
100
AcDbSpline
210
0.0
220
0.0
230
1.0
 70
     8
 71
     3
 72
    15
 73
    11
 74
     0
 42
0.000000001
 43
0.00000001
 40
0.0
 40
0.0
 40
0.0
 40
0.0
 40
0.1289191318119623
 40
0.2552377249249071
 40
0.3786785959785498
 40
0.5010878871851299
 40
0.622713679429778
 40
0.7462407949383834
 40
0.8715890472316714
 40
1.0
 40
1.0
 40
1.0
 40
1.0
 10
17.55578258546997
 20
-23.94240868723299
 30
0.0
 10
17.55671667151999
 20
-23.90680469043989
 30
0.0
 10
17.55856600136686
 20
-23.83631489569819
 30
0.0
 10
17.57213728182924
 20
-23.73243209585911
 30
0.0
 10
17.59488722433449
 20
-23.63206646935721
 30
0.0
 10
17.62709422483866
 20
-23.535668915816
 30
0.0
 10
17.66826846393109
 20
-23.44273894906157
 30
0.0
 10
17.71846174920373
 20
-23.35342671758069
 30
0.0
 10
17.7781590787627
 20
-23.26778745730161
 30
0.0
 10
17.82406213012619
 20
-23.21479951337351
 30
0.0
 10
17.84729066506399
 20
-23.18798577724367
 30
0.0
  0
SPLINE
  5
10A
330
1F
100
AcDbEntity
  8
0
  6
Continuous
 62
     7
370
    15
100
AcDbSpline
210
0.0
220
0.0
230
1.0
 70
     8
 71
     3
 72
    15
 73
    11
 74
     0
 42
0.000000001
 43
0.00000001
 40
0.0
 40
0.0
 40
0.0
 40
0.0
 40
0.1284975211375114
 40
0.2527129855154515
 40
0.3748191325670437
 40
0.4964364263727286
 40
0.6179105567458502
 40
0.7412876173092895
 40
0.8687004007446079
 40
1.0
 40
1.0
 40
1.0
 40
1.0
 10
17.84729066506399
 20
-23.18798577724367
 30
0.0
 10
17.87427321367313
 20
-23.15973399740012
 30
0.0
 10
17.92733914331495
 20
-23.10417190120411
 30
0.0
 10
18.01660472226514
 20
-23.03304753444849
 30
0.0
 10
18.11014869136711
 20
-22.97158279922017
 30
0.0
 10
18.2097056686374
 20
-22.92212549387052
 30
0.0
 10
18.31421694992564
 20
-22.88317703597542
 30
0.0
 10
18.42416354624197
 20
-22.85609725941859
 30
0.0
 10
18.53914622189491
 20
-22.83842408269735
 30
0.0
 10
18.61777704967498
 20
-22.83671260984366
 30
0.0
 10
18.65768312633536
 20
-22.8358440170941
 30
0.0
  0
SPLINE
  5
10B
330
1F
100
AcDbEntity
  8
0
  6
Continuous
 62
     7
370
    15
100
AcDbSpline
210
0.0
220
0.0
230
1.0
 70
     8
 71
     3
 72
    15
 73
    11
 74
     0
 42
0.000000001
 43
0.00000001
 40
0.0
 40
0.0
 40
0.0
 40
0.0
 40
0.1317514273024039
 40
0.2583323505141564
 40
0.382133976092543
 40
0.5038043916000823
 40
0.6246929865409317
 40
0.7468705897275726
 40
0.871513504234814
 40
1.0
 40
1.0
 40
1.0
 40
1.0
 10
18.65768312633536
 20
-22.8358440170941
 30
0.0
 10
18.69759015500323
 20
-22.83669376823753
 30
0.0
 10
18.77583808543472
 20
-22.83835992256108
 30
0.0
 10
18.89043190482367
 20
-22.8561674862615
 30
0.0
 10
18.99981794940881
 20
-22.88339847914646
 30
0.0
 10
19.10441515801146
 20
-22.92104393880003
 30
0.0
 10
19.20288394655162
 20
-22.97150387029626
 30
0.0
 10
19.29665860608663
 20
-23.03171564392854
 30
0.0
 10
19.38548203549869
 20
-23.10304795536268
 30
0.0
 10
19.43872023304172
 20
-23.15822784912429
 30
0.0
 10
19.46574352296997
 20
-23.18623672876611
 30
0.0
  0
SPLINE
  5
10C
330
1F
100
AcDbEntity
  8
0
  6
Continuous
 62
     7
370
    15
100
AcDbSpline
210
0.0
220
0.0
230
1.0
 70
     8
 71
     3
 72
    15
 73
    11
 74
     0
 42
0.000000001
 43
0.00000001
 40
0.0
 40
0.0
 40
0.0
 40
0.0
 40
0.1281572795931857
 40
0.2538343627967343
 40
0.3765056225222062
 40
0.4985336856679077
 40
0.6213677287324643
 40
0.744564744904358
 40
0.8706337982552829
 40
1.0
 40
1.0
 40
1.0
 40
1.0
 10
19.46574352296997
 20
-23.18623672876611
 30
0.0
 10
19.48901185024898
 20
-23.21302419194935
 30
0.0
 10
19.53509819857787
 20
-23.26608070711293
 30
0.0
 10
19.59419272783306
 20
-23.3521089757489
 30
0.0
 10
19.64510137041637
 20
-23.44120107130042
 30
0.0
 10
19.68589955880826
 20
-23.53454006853837
 30
0.0
 10
19.71806799814652
 20
-23.63131114925358
 30
0.0
 10
19.74090703247309
 20
-23.73184692877073
 30
0.0
 10
19.75449197182533
 20
-23.835925380549
 30
0.0
 10
19.7563238437405
 20
-23.90661011971187
 30
0.0
 10
19.75725160256399
 20
-23.94240868723299
 30
0.0
  0
SPLINE
  5
10D
330
1F
100
AcDbEntity
  8
0
  6
Continuous
 62
     7
370
    15
100
AcDbSpline
210
0.0
220
0.0
230
1.0
 70
     8
 71
     3
 72
    23
 73
    19
 74
     0
 42
0.000000001
 43
0.00000001
 40
0.0
 40
0.0
 40
0.0
 40
0.0
 40
0.0624160261588171
 40
0.1233369785373302
 40
0.1832651398530916
 40
0.24317244306971
 40
0.302898353919745
 40
0.3637735975039108
 40
0.4256053049523812
 40
0.4896590425101852
 40
0.5537845767921161
 40
0.6162215328110737
 40
0.6778544713083415
 40
0.7395168974879385
 40
0.8020965355763715
 40
0.8658658412779716
 40
0.9315077951965102
 40
0.9999999999999999
 40
0.9999999999999999
 40
0.9999999999999999
 40
0.9999999999999999
 10
19.75725160256399
 20
-23.94240868723299
 30
0.0
 10
19.75643557385381
 20
-23.97841474709951
 30
0.0
 10
19.754823063066
 20
-24.04956440058226
 30
0.0
 10
19.73956947253128
 20
-24.15435550415757
 30
0.0
 10
19.71584451600119
 20
-24.25596631802153
 30
0.0
 10
19.68189089818208
 20
-24.35397143419557
 30
0.0
 10
19.63835263708615
 20
-24.4486704281799
 30
0.0
 10
19.58522448798828
 20
-24.53964967839218
 30
0.0
 10
19.52213362539248
 20
-24.62708868445321
 30
0.0
 10
19.45061720665945
 20
-24.71024497495238
 30
0.0
 10
19.37157704535975
 20
-24.78688557142051
 30
0.0
 10
19.28583105773967
 20
-24.85368235270979
 30
0.0
 10
19.19506428086465
 20
-24.91091072743757
 30
0.0
 10
19.09806977817136
 20
-24.95700874685057
 30
0.0
 10
18.99573330251424
 20
-24.99335544407391
 30
0.0
 10
18.88783412147688
 20
-25.01888396964133
 30
0.0
 10
18.77453985765094
 20
-25.03431889359108
 30
0.0
 10
18.69718329321727
 20
-25.03630094826102
 30
0.0
 10
18.65768312633536
 20
-25.03731303418812
 30
0.0
  0
SPLINE
  5
10E
330
1F
100
AcDbEntity
  8
0
  6
Continuous
 62
     7
370
    15
100
AcDbSpline
210
0.0
220
0.0
230
1.0
 70
     8
 71
     3
 72
    23
 73
    19
 74
     0
 42
0.000000001
 43
0.00000001
 40
0.0
 40
0.0
 40
0.0
 40
0.0
 40
0.0687422616054893
 40
0.1346351922242771
 40
0.1983241870671477
 40
0.2608250125604213
 40
0.3227135881590254
 40
0.3845545346076179
 40
0.446912857724756
 40
0.5109576325148278
 40
0.5749307010013365
 40
0.6366845377960925
 40
0.6974831152940619
 40
0.7571338075238543
 40
0.8169656636752652
 40
0.8768183516571959
 40
0.9376625803840037
 40
1.0
 40
1.0
 40
1.0
 40
1.0
 10
18.65768312633536
 20
-25.03731303418812
 30
0.0
 10
18.61798943398179
 20
-25.0362975513809
 30
0.0
 10
18.5402473321757
 20
-25.03430867700062
 30
0.0
 10
18.42655316744547
 20
-25.0189439365404
 30
0.0
 10
18.31846060931927
 20
-24.99336720936802
 30
0.0
 10
18.2159901616219
 20
-24.95688930023483
 30
0.0
 10
18.11857864305267
 20
-24.91090925403365
 30
0.0
 10
18.02728594291084
 20
-24.85385536692608
 30
0.0
 10
17.94147029887771
 20
-24.78686576164746
 30
0.0
 10
17.86241341659854
 20
-24.71025034256493
 30
0.0
 10
17.79090148109821
 20
-24.62708730149956
 30
0.0
 10
17.72780946165378
 20
-24.53965003734752
 30
0.0
 10
17.67468161306353
 20
-24.44867033465001
 30
0.0
 10
17.63114327328775
 20
-24.35397145913678
 30
0.0
 10
17.5971896764743
 20
-24.25596631133375
 30
0.0
 10
17.57346471429714
 20
-24.15435550597282
 30
0.0
 10
17.55821112528011
 20
-24.04956440011224
 30
0.0
 10
17.55659861428504
 20
-23.97841474694158
 30
0.0
 10
17.55578258546998
 20
-23.94240868723299
 30
0.0
  0
LINE
  5
10F
330
1F
100
AcDbEntity
  8
0
  6
Continuous
 62
     7
370
    15
100
AcDbLine
 10
23.2273637821
 20
-25.0
 30
0.0
 11
22.9661725427
 21
-25.0
 31
0.0
  0
LINE
  5
110
330
1F
100
AcDbEntity
  8
0
  6
Continuous
 62
     7
370
    15
100
AcDbLine
 10
22.9661725427
 20
-25.0
 30
0.0
 11
22.9661725427
 21
-22.8731570513
 31
0.0
  0
LINE
  5
111
330
1F
100
AcDbEntity
  8
0
  6
Continuous
 62
     7
370
    15
100
AcDbLine
 10
22.9661725427
 20
-22.8731570513
 30
0.0
 11
23.2273637821
 21
-22.8731570513
 31
0.0
  0
LINE
  5
112
330
1F
100
AcDbEntity
  8
0
  6
Continuous
 62
     7
370
    15
100
AcDbLine
 10
23.2273637821
 20
-22.8731570513
 30
0.0
 11
23.2273637821
 21
-23.1862367288
 31
0.0
  0
SPLINE
  5
113
330
1F
100
AcDbEntity
  8
0
  6
Continuous
 62
     7
370
    15
100
AcDbSpline
210
0.0
220
0.0
230
1.0
 70
     8
 71
     3
 72
    15
 73
    11
 74
     0
 42
0.000000001
 43
0.00000001
 40
0.0
 40
0.0
 40
0.0
 40
0.0
 40
0.1600594124854964
 40
0.30611238274013
 40
0.4383665141302061
 40
0.5605414552552174
 40
0.6753172249527052
 40
0.7861136344281792
 40
0.892841788105089
 40
1.0
 40
1.0
 40
1.0
 40
1.0
 10
23.2273637820512
 20
-23.18623672876611
 30
0.0
 10
23.24664633917951
 20
-23.15708613818797
 30
0.0
 10
23.28352407986475
 20
-23.10133586020314
 30
0.0
 10
23.34481989076189
 20
-23.02760311408074
 30
0.0
 10
23.40760450611661
 20
-22.96655500686876
 30
0.0
 10
23.47217849222473
 20
-22.91790654512975
 30
0.0
 10
23.5390167098286
 20
-22.88147385048875
 30
0.0
 10
23.60665225837027
 20
-22.85478696362025
 30
0.0
 10
23.67614924134104
 20
-22.83900642231873
 30
0.0
 10
23.72285055571387
 20
-22.83689956424531
 30
0.0
 10
23.74624816372855
 20
-22.8358440170941
 30
0.0
  0
SPLINE
  5
114
330
1F
100
AcDbEntity
  8
0
  6
Continuous
 62
     7
370
    15
100
AcDbSpline
210
0.0
220
0.0
230
1.0
 70
     8
 71
     3
 72
    11
 73
     7
 74
     0
 42
0.000000001
 43
0.00000001
 40
0.0
 40
0.0
 40
0.0
 40
0.0
 40
0.2252775478670062
 40
0.4635231951764882
 40
0.7203235553269307
 40
1.0
 40
1.0
 40
1.0
 40
1.0
 10
23.74624816372855
 20
-22.8358440170941
 30
0.0
 10
23.76439779355112
 20
-22.83683399664951
 30
0.0
 10
23.80174183642746
 20
-22.83887094392202
 30
0.0
 10
23.8582725971159
 20
-22.85318256417482
 30
0.0
 10
23.91651706278117
 20
-22.87603184840487
 30
0.0
 10
23.9540551074175
 20
-22.89751922403762
 30
0.0
 10
23.97362446581188
 20
-22.9087210369926
 30
0.0
  0
LINE
  5
115
330
1F
100
AcDbEntity
  8
0
  6
Continuous
 62
     7
370
    15
100
AcDbLine
 10
23.9736244658
 20
-22.908721037
 30
0.0
 11
23.8302024907
 21
-23.1349313068
 31
0.0
  0
SPLINE
  5
116
330
1F
100
AcDbEntity
  8
0
  6
Continuous
 62
     7
370
    15
100
AcDbSpline
210
0.0
220
0.0
230
1.0
 70
     8
 71
     3
 72
    11
 73
     7
 74
     0
 42
0.000000001
 43
0.00000001
 40
0.0
 40
0.0
 40
0.0
 40
0.0
 40
0.2951388013693741
 40
0.560229944888228
 40
0.7949833567409114
 40
1.0
 40
1.0
 40
1.0
 40
1.0
 10
23.83020249065163
 20
-23.13493130675756
 30
0.0
 10
23.81763862009331
 20
-23.12932645451777
 30
0.0
 10
23.79378998860936
 20
-23.11868737200188
 30
0.0
 10
23.75890276892041
 20
-23.10609606952899
 30
0.0
 10
23.72673739546027
 20
-23.09868206093386
 30
0.0
 10
23.70624510317876
 20
-23.09755887505255
 30
0.0
 10
23.69669179019757
 20
-23.09703525641034
 30
0.0
  0
SPLINE
  5
117
330
1F
100
AcDbEntity
  8
0
  6
Continuous
 62
     7
370
    15
100
AcDbSpline
210
0.0
220
0.0
230
1.0
 70
     8
 71
     3
 72
    19
 73
    15
 74
     0
 42
0.000000001
 43
0.00000001
 40
0.0
 40
0.0
 40
0.0
 40
0.0
 40
0.0938065293523305
 40
0.1913381281363375
 40
0.2951906166251714
 40
0.4103123367232968
 40
0.4719302510512794
 40
0.5364251593464325
 40
0.6031187283036341
 40
0.6741176724905997
 40
0.7493320232258861
 40
0.8282833841715633
 40
0.9120398092627637
 40
1.0
 40
1.0
 40
1.0
 40
1.0
 10
23.69669179019757
 20
-23.09703525641034
 30
0.0
 10
23.67573202251014
 20
-23.09843228748408
 30
0.0
 10
23.6329801720454
 20
-23.10128182591648
 30
0.0
 10
23.57021121628622
 20
-23.12368272737508
 30
0.0
 10
23.50930267694969
 20
-23.15987603715965
 30
0.0
 10
23.46093016963814
 20
-23.20001576528803
 30
0.0
 10
23.42347539150356
 20
-23.23872247544145
 30
0.0
 10
23.39674926348777
 20
-23.27252355781411
 30
0.0
 10
23.37223295545548
 20
-23.31042436034105
 30
0.0
 10
23.34880807575339
 20
-23.35177696050368
 30
0.0
 10
23.32746532991399
 20
-23.39728743366266
 30
0.0
 10
23.30754588177256
 20
-23.44650109387122
 30
0.0
 10
23.28953550587819
 20
-23.49947494202086
 30
0.0
 10
23.27926568969885
 20
-23.53638112103735
 30
0.0
 10
23.27400507478625
 20
-23.55528595753213
 30
0.0
  0
SPLINE
  5
118
330
1F
100
AcDbEntity
  8
0
  6
Continuous
 62
     7
370
    15
100
AcDbSpline
210
0.0
220
0.0
230
1.0
 70
     8
 71
     3
 72
    15
 73
    11
 74
     0
 42
0.000000001
 43
0.00000001
 40
0.0
 40
0.0
 40
0.0
 40
0.0
 40
0.0708548685015338
 40
0.1569381495573546
 40
0.2586003949600845
 40
0.3758909295892021
 40
0.5081661676989041
 40
0.6562378085782273
 40
0.8201767703979115
 40
1.0
 40
1.0
 40
1.0
 40
1.0
 10
23.27400507478625
 20
-23.55528595753213
 30
0.0
 10
23.27006986435111
 20
-23.57214739294262
 30
0.0
 10
23.26135367226908
 20
-23.6094941910973
 30
0.0
 10
23.25287892324075
 20
-23.67215007742841
 30
0.0
 10
23.24450563954241
 20
-23.74617748891253
 30
0.0
 10
23.23860446344955
 20
-23.83178248311392
 30
0.0
 10
23.23313450818063
 20
-23.9287512832137
 30
0.0
 10
23.23004939813817
 20
-24.03723161418762
 30
0.0
 10
23.22746898899664
 20
-24.15733482344086
 30
0.0
 10
23.22739991493792
 20
-24.24129980645598
 30
0.0
 10
23.2273637820512
 20
-24.28522218883555
 30
0.0
  0
LINE
  5
119
330
1F
100
AcDbEntity
  8
0
  6
Continuous
 62
     7
370
    15
100
AcDbLine
 10
23.2273637821
 20
-24.2852221888
 30
0.0
 11
23.2273637821
 21
-25.0
 31
0.0
  0
LINE
  5
11A
330
1F
100
AcDbEntity
  8
0
  6
Continuous
 62
     7
370
    15
100
AcDbLine
 10
26.1377804487
 20
-23.2847664597
 30
0.0
 11
26.1377804487
 21
-22.014957265
 31
0.0
  0
LINE
  5
11B
330
1F
100
AcDbEntity
  8
0
  6
Continuous
 62
     7
370
    15
100
AcDbLine
 10
26.1377804487
 20
-22.014957265
 30
0.0
 11
26.398971688
 21
-22.014957265
 31
0.0
  0
LINE
  5
11C
330
1F
100
AcDbEntity
  8
0
  6
Continuous
 62
     7
370
    15
100
AcDbLine
 10
26.398971688
 20
-22.014957265
 30
0.0
 11
26.398971688
 21
-25.0
 31
0.0
  0
LINE
  5
11D
330
1F
100
AcDbEntity
  8
0
  6
Continuous
 62
     7
370
    15
100
AcDbLine
 10
26.398971688
 20
-25.0
 30
0.0
 11
26.1377804487
 21
-25.0
 31
0.0
  0
LINE
  5
11E
330
1F
100
AcDbEntity
  8
0
  6
Continuous
 62
     7
370
    15
100
AcDbLine
 10
26.1377804487
 20
-25.0
 30
0.0
 11
26.1377804487
 21
-24.6321168036
 31
0.0
  0
SPLINE
  5
11F
330
1F
100
AcDbEntity
  8
0
  6
Continuous
 62
     7
370
    15
100
AcDbSpline
210
0.0
220
0.0
230
1.0
 70
     8
 71
     3
 72
    15
 73
    11
 74
     0
 42
0.000000001
 43
0.00000001
 40
0.0
 40
0.0
 40
0.0
 40
0.0
 40
0.1342983790141684
 40
0.262084975382301
 40
0.3862699121345013
 40
0.5071645966227997
 40
0.6273002357255049
 40
0.7481449416029939
 40
0.8723701771613511
 40
1.0
 40
1.0
 40
1.0
 40
1.0
 10
26.13778044871788
 20
-24.63211680355243
 30
0.0
 10
26.10832803770315
 20
-24.6654116325757
 30
0.0
 10
26.05085128725831
 20
-24.73038691008074
 30
0.0
 10
25.95485650046893
 20
-24.81527309756263
 30
0.0
 10
25.85310153348692
 20
-24.88543768993849
 30
0.0
 10
25.74608025633242
 20
-24.94210759007746
 30
0.0
 10
25.6338893123131
 20
-24.98467622263892
 30
0.0
 10
25.51677739926255
 20
-25.01493304662628
 30
0.0
 10
25.39469674505472
 20
-25.03438613456416
 30
0.0
 10
25.31133213812517
 20
-25.03632864798739
 30
0.0
 10
25.26908637152771
 20
-25.03731303418812
 30
0.0
  0
SPLINE
  5
120
330
1F
100
AcDbEntity
  8
0
  6
Continuous
 62
     7
370
    15
100
AcDbSpline
210
0.0
220
0.0
230
1.0
 70
     8
 71
     3
 72
    23
 73
    19
 74
     0
 42
0.000000001
 43
0.00000001
 40
0.0
 40
0.0
 40
0.0
 40
0.0
 40
0.0646199913407667
 40
0.1274334841444691
 40
0.1890041265579389
 40
0.2499300706860472
 40
0.310668453740672
 40
0.372328961136823
 40
0.4349391099970073
 40
0.499575544194033
 40
0.5641912077719228
 40
0.626735216929479
 40
0.6881093335614011
 40
0.7492936065367509
 40
0.8103305278109455
 40
0.8719011702244152
 40
0.9350459146845312
 40
1.0
 40
1.0
 40
1.0
 40
1.0
 10
25.26908637152771
 20
-25.03731303418812
 30
0.0
 10
25.23152706706101
 20
-25.03629324724764
 30
0.0
 10
25.15745845561547
 20
-25.03428218224726
 30
0.0
 10
25.04850153849458
 20
-25.01868043334562
 30
0.0
 10
24.94364982868187
 20
-24.99362538665874
 30
0.0
 10
24.84280424653394
 20
-24.95878280176588
 30
0.0
 10
24.74661734940808
 20
-24.91256470186794
 30
0.0
 10
24.65426559044903
 20
-24.85723248549064
 30
0.0
 10
24.56622740547836
 20
-24.79133996190571
 30
0.0
 10
24.48384470313759
 20
-24.71601170261466
 30
0.0
 10
24.40798095044407
 20
-24.63419158529591
 30
0.0
 10
24.34140618981715
 20
-24.54692436566224
 30
0.0
 10
24.28589782519987
 20
-24.45458740224674
 30
0.0
 10
24.23948076999266
 20
-24.35834977368569
 30
0.0
 10
24.20372726214523
 20
-24.25747064119222
 30
0.0
 10
24.17880275794385
 20
-24.15229885332801
 30
0.0
 10
24.16321918411002
 20
-24.04295876205707
 30
0.0
 10
24.16120895043331
 20
-23.96850238481627
 30
0.0
 10
24.16018963675207
 20
-23.93074836404923
 30
0.0
  0
SPLINE
  5
121
330
1F
100
AcDbEntity
  8
0
  6
Continuous
 62
     7
370
    15
100
AcDbSpline
210
0.0
220
0.0
230
1.0
 70
     8
 71
     3
 72
    23
 73
    19
 74
     0
 42
0.000000001
 43
0.00000001
 40
0.0
 40
0.0
 40
0.0
 40
0.0
 40
0.0637745323056325
 40
0.1260788099895064
 40
0.1869040927472068
 40
0.2475739349176191
 40
0.308003356164447
 40
0.3691318984609769
 40
0.4320332277442047
 40
0.4967907944370897
 40
0.5616108232295655
 40
0.6249138657484617
 40
0.6867263492419252
 40
0.7480788332577699
 40
0.8095822911398949
 40
0.871630742568827
 40
0.9348858208285536
 40
1.0
 40
1.0
 40
1.0
 40
1.0
 10
24.16018963675207
 20
-23.93074836404923
 30
0.0
 10
24.1612315421239
 20
-23.89377467721203
 30
0.0
 10
24.16329133283742
 20
-23.82067969291613
 30
0.0
 10
24.17863606385936
 20
-23.71317829941241
 30
0.0
 10
24.20443982522656
 20
-23.60963543617175
 30
0.0
 10
24.24065193426777
 20
-23.51038445421722
 30
0.0
 10
24.28708717896032
 20
-23.41530525775437
 30
0.0
 10
24.34357261798898
 20
-23.32433060123898
 30
0.0
 10
24.41011233061055
 20
-23.23720985823037
 30
0.0
 10
24.48682460001645
 20
-23.15599158211975
 30
0.0
 10
24.56992512020526
 20
-23.08096884513504
 30
0.0
 10
24.65882482085333
 20
-23.01576799008556
 30
0.0
 10
24.75131227561834
 20
-22.95945820568319
 30
0.0
 10
24.84882205282058
 20
-22.91484278520701
 30
0.0
 10
24.94991088938317
 20
-22.87874604767808
 30
0.0
 10
25.05547872492417
 20
-22.85377220456116
 30
0.0
 10
25.16508632933476
 20
-22.83905603922052
 30
0.0
 10
25.23950193493848
 20
-22.8369249787925
 30
0.0
 10
25.27724859775634
 20
-22.8358440170941
 30
0.0
  0
SPLINE
  5
122
330
1F
100
AcDbEntity
  8
0
  6
Continuous
 62
     7
370
    15
100
AcDbSpline
210
0.0
220
0.0
230
1.0
 70
     8
 71
     3
 72
    15
 73
    11
 74
     0
 42
0.000000001
 43
0.00000001
 40
0.0
 40
0.0
 40
0.0
 40
0.0
 40
0.1288840014739246
 40
0.2529849718578352
 40
0.3742104371825956
 40
0.4941015128996897
 40
0.6147527632399868
 40
0.7385110703733273
 40
0.8662425140769299
 40
1.0
 40
1.0
 40
1.0
 40
1.0
 10
25.27724859775634
 20
-22.8358440170941
 30
0.0
 10
25.32066935989626
 20
-22.8371471320711
 30
0.0
 10
25.40589949057495
 20
-22.8397050019542
 30
0.0
 10
25.53054724925168
 20
-22.86108107023093
 30
0.0
 10
25.64845039920448
 20
-22.89697305850526
 30
0.0
 10
25.76028772271319
 20
-22.94611027278268
 30
0.0
 10
25.86539248141704
 20
-23.00997375465602
 30
0.0
 10
25.96453511052573
 20
-23.08710100027436
 30
0.0
 10
26.05599148082837
 20
-23.17967482353681
 30
0.0
 10
26.1101017999288
 20
-23.24920182837168
 30
0.0
 10
26.13778044871788
 20
-23.28476645966888
 30
0.0
  0
CIRCLE
  5
123
330
1F
100
AcDbEntity
  8
0
  6
Continuous
 62
     7
370
    15
100
AcDbCircle
 10
-38.1274521288
 20
-15.5
 30
0.0
 40
1.499999999999993
  0
CIRCLE
  5
124
330
1F
100
AcDbEntity
  8
0
  6
Continuous
 62
     7
370
    15
100
AcDbCircle
 10
-13.1274521288
 20
-15.5
 30
0.0
 40
1.499999999999996
  0
CIRCLE
  5
125
330
1F
100
AcDbEntity
  8
0
  6
Continuous
 62
     7
370
    15
100
AcDbCircle
 10
-13.1274521288
 20
15.5
 30
0.0
 40
1.499999999999995
  0
CIRCLE
  5
126
330
1F
100
AcDbEntity
  8
0
  6
Continuous
 62
     7
370
    15
100
AcDbCircle
 10
-38.1274521288
 20
15.5
 30
0.0
 40
1.499999999999993
  0
CIRCLE
  5
127
330
1F
100
AcDbEntity
  8
0
  6
Continuous
 62
     7
370
    15
100
AcDbCircle
 10
39.3725478712
 20
8.0
 30
0.0
 40
4.999999999999993
  0
CIRCLE
  5
128
330
1F
100
AcDbEntity
  8
0
  6
Continuous
 62
     7
370
    15
100
AcDbCircle
 10
56.8725478712
 20
0.0
 30
0.0
 40
2.100000000000001
  0
CIRCLE
  5
129
330
1F
100
AcDbEntity
  8
0
  6
Continuous
 62
     7
370
    15
100
AcDbCircle
 10
21.8725478712
 20
0.0
 30
0.0
 40
2.099999999999998
  0
LINE
  5
12A
330
1F
100
AcDbEntity
  8
0
  6
Continuous
 62
     7
370
    15
100
AcDbLine
 10
-29.4772970085
 20
-22.9011418269
 30
0.0
 11
-29.7553957165
 21
-25.0
 31
0.0
  0
LINE
  5
12B
330
1F
100
AcDbEntity
  8
0
  6
Continuous
 62
     7
370
    15
100
AcDbLine
 10
-29.7553957165
 20
-25.0
 30
0.0
 11
-30.0183360043
 21
-25.0
 31
0.0
  0
LINE
  5
12C
330
1F
100
AcDbEntity
  8
0
  6
Continuous
 62
     7
370
    15
100
AcDbLine
 10
-30.0183360043
 20
-25.0
 30
0.0
 11
-29.6341283554
 21
-22.0895833333
 31
0.0
  0
LINE
  5
12D
330
1F
100
AcDbEntity
  8
0
  6
Continuous
 62
     7
370
    15
100
AcDbLine
 10
-29.6341283554
 20
-22.0895833333
 30
0.0
 11
-29.5968153212
 21
-22.0895833333
 31
0.0
  0
LINE
  5
12E
330
1F
100
AcDbEntity
  8
0
  6
Continuous
 62
     7
370
    15
100
AcDbLine
 10
-29.5968153212
 20
-22.0895833333
 30
0.0
 11
-28.3952190171
 21
-24.4776175214
 31
0.0
  0
LINE
  5
12F
330
1F
100
AcDbEntity
  8
0
  6
Continuous
 62
     7
370
    15
100
AcDbLine
 10
-28.3952190171
 20
-24.4776175214
 30
0.0
 11
-27.1965377938
 21
-22.0895833333
 31
0.0
  0
LINE
  5
130
330
1F
100
AcDbEntity
  8
0
  6
Continuous
 62
     7
370
    15
100
AcDbLine
 10
-27.1965377938
 20
-22.0895833333
 30
0.0
 11
-27.1586417435
 21
-22.0895833333
 31
0.0
  0
LINE
  5
131
330
1F
100
AcDbEntity
  8
0
  6
Continuous
 62
     7
370
    15
100
AcDbLine
 10
-27.1586417435
 20
-22.0895833333
 30
0.0
 11
-26.7721020299
 21
-25.0
 31
0.0
  0
LINE
  5
132
330
1F
100
AcDbEntity
  8
0
  6
Continuous
 62
     7
370
    15
100
AcDbLine
 10
-26.7721020299
 20
-25.0
 30
0.0
 11
-27.0344593015
 21
-25.0
 31
0.0
  0
LINE
  5
133
330
1F
100
AcDbEntity
  8
0
  6
Continuous
 62
     7
370
    15
100
AcDbLine
 10
-27.0344593015
 20
-25.0
 30
0.0
 11
-27.3131410256
 21
-22.9058059562
 31
0.0
  0
LINE
  5
134
330
1F
100
AcDbEntity
  8
0
  6
Continuous
 62
     7
370
    15
100
AcDbLine
 10
-27.3131410256
 20
-22.9058059562
 30
0.0
 11
-28.3637361445
 21
-25.0
 31
0.0
  0
LINE
  5
135
330
1F
100
AcDbEntity
  8
0
  6
Continuous
 62
     7
370
    15
100
AcDbLine
 10
-28.3637361445
 20
-25.0
 30
0.0
 11
-28.4226207766
 21
-25.0
 31
0.0
  0
LINE
  5
136
330
1F
100
AcDbEntity
  8
0
  6
Continuous
 62
     7
370
    15
100
AcDbLine
 10
-28.4226207766
 20
-25.0
 30
0.0
 11
-29.4772970085
 21
-22.9011418269
 31
0.0
  0
LINE
  5
137
330
1F
100
AcDbEntity
  8
0
  6
Continuous
 62
     7
370
    15
100
AcDbLine
 10
28.8989449786
 20
-25.0
 30
0.0
 11
28.8989449786
 21
-23.6165026542
 31
0.0
  0
LINE
  5
138
330
1F
100
AcDbEntity
  8
0
  6
Continuous
 62
     7
370
    15
100
AcDbLine
 10
28.8989449786
 20
-23.6165026542
 30
0.0
 11
27.9661191239
 21
-22.0895833333
 31
0.0
  0
LINE
  5
139
330
1F
100
AcDbEntity
  8
0
  6
Continuous
 62
     7
370
    15
100
AcDbLine
 10
27.9661191239
 20
-22.0895833333
 30
0.0
 11
28.2652064136
 21
-22.0895833333
 31
0.0
  0
LINE
  5
13A
330
1F
100
AcDbEntity
  8
0
  6
Continuous
 62
     7
370
    15
100
AcDbLine
 10
28.2652064136
 20
-22.0895833333
 30
0.0
 11
29.0301236144
 21
-23.3401529948
 31
0.0
  0
LINE
  5
13B
330
1F
100
AcDbEntity
  8
0
  6
Continuous
 62
     7
370
    15
100
AcDbLine
 10
29.0301236144
 20
-23.3401529948
 30
0.0
 11
29.793874783
 21
-22.0895833333
 31
0.0
  0
LINE
  5
13C
330
1F
100
AcDbEntity
  8
0
  6
Continuous
 62
     7
370
    15
100
AcDbLine
 10
29.793874783
 20
-22.0895833333
 30
0.0
 11
30.0929620726
 21
-22.0895833333
 31
0.0
  0
LINE
  5
13D
330
1F
100
AcDbEntity
  8
0
  6
Continuous
 62
     7
370
    15
100
AcDbLine
 10
30.0929620726
 20
-22.0895833333
 30
0.0
 11
29.1601362179
 21
-23.6165026542
 31
0.0
  0
LINE
  5
13E
330
1F
100
AcDbEntity
  8
0
  6
Continuous
 62
     7
370
    15
100
AcDbLine
 10
29.1601362179
 20
-23.6165026542
 30
0.0
 11
29.1601362179
 21
-25.0
 31
0.0
  0
LINE
  5
13F
330
1F
100
AcDbEntity
  8
0
  6
Continuous
 62
     7
370
    15
100
AcDbLine
 10
29.1601362179
 20
-25.0
 30
0.0
 11
28.8989449786
 21
-25.0
 31
0.0
  0
LINE
  5
140
330
1F
100
AcDbEntity
  8
0
  6
Continuous
 62
     7
370
    15
100
AcDbLine
 10
22.1825988248
 20
-23.2666929587
 30
0.0
 11
22.1825988248
 21
-22.8731570513
 31
0.0
  0
LINE
  5
141
330
1F
100
AcDbEntity
  8
0
  6
Continuous
 62
     7
370
    15
100
AcDbLine
 10
22.1825988248
 20
-22.8731570513
 30
0.0
 11
22.4437900641
 21
-22.8731570513
 31
0.0
  0
LINE
  5
142
330
1F
100
AcDbEntity
  8
0
  6
Continuous
 62
     7
370
    15
100
AcDbLine
 10
22.4437900641
 20
-22.8731570513
 30
0.0
 11
22.4437900641
 21
-25.0
 31
0.0
  0
LINE
  5
143
330
1F
100
AcDbEntity
  8
0
  6
Continuous
 62
     7
370
    15
100
AcDbLine
 10
22.4437900641
 20
-25.0
 30
0.0
 11
22.1825988248
 21
-25.0
 31
0.0
  0
LINE
  5
144
330
1F
100
AcDbEntity
  8
0
  6
Continuous
 62
     7
370
    15
100
AcDbLine
 10
22.1825988248
 20
-25.0
 30
0.0
 11
22.1825988248
 21
-24.6321168036
 31
0.0
  0
SPLINE
  5
145
330
1F
100
AcDbEntity
  8
0
  6
Continuous
 62
     7
370
    15
100
AcDbSpline
210
0.0
220
0.0
230
1.0
 70
     8
 71
     3
 72
    15
 73
    11
 74
     0
 42
0.000000001
 43
0.00000001
 40
0.0
 40
0.0
 40
0.0
 40
0.0
 40
0.1342983790141668
 40
0.2620849753823001
 40
0.3862699121345012
 40
0.5071645966228002
 40
0.6273002357255061
 40
0.7481449416029959
 40
0.8723701771613538
 40
1.0
 40
1.0
 40
1.0
 40
1.0
 10
22.18259882478621
 20
-24.63211680355243
 30
0.0
 10
22.15314641377148
 20
-24.6654116325757
 30
0.0
 10
22.09566966332664
 20
-24.73038691008074
 30
0.0
 10
21.99967487653726
 20
-24.81527309756262
 30
0.0
 10
21.89791990955526
 20
-24.8854376899385
 30
0.0
 10
21.79089863240074
 20
-24.94210759007746
 30
0.0
 10
21.67870768838143
 20
-24.98467622263893
 30
0.0
 10
21.56159577533089
 20
-25.01493304662628
 30
0.0
 10
21.43951512112305
 20
-25.03438613456416
 30
0.0
 10
21.35615051419351
 20
-25.03632864798739
 30
0.0
 10
21.31390474759604
 20
-25.03731303418812
 30
0.0
  0
SPLINE
  5
146
330
1F
100
AcDbEntity
  8
0
  6
Continuous
 62
     7
370
    15
100
AcDbSpline
210
0.0
220
0.0
230
1.0
 70
     8
 71
     3
 72
    23
 73
    19
 74
     0
 42
0.000000001
 43
0.00000001
 40
0.0
 40
0.0
 40
0.0
 40
0.0
 40
0.0646199913407686
 40
0.1274334841444709
 40
0.1890041265579404
 40
0.2499300706860486
 40
0.3106684537406733
 40
0.3723289611368242
 40
0.4349391099970084
 40
0.4995755441940339
 40
0.5641912077719236
 40
0.6267352169294796
 40
0.6881093335614016
 40
0.7492936065367513
 40
0.8103305278109463
 40
0.8719011702244154
 40
0.9350459146845314
 40
1.0
 40
1.0
 40
1.0
 40
1.0
 10
21.31390474759604
 20
-25.03731303418812
 30
0.0
 10
21.27634544312934
 20
-25.03629324724764
 30
0.0
 10
21.20227683168379
 20
-25.03428218224726
 30
0.0
 10
21.09331991456292
 20
-25.01868043334563
 30
0.0
 10
20.98846820475021
 20
-24.99362538665874
 30
0.0
 10
20.88762262260227
 20
-24.95878280176588
 30
0.0
 10
20.79143572547641
 20
-24.91256470186793
 30
0.0
 10
20.69908396651735
 20
-24.85723248549064
 30
0.0
 10
20.6110457815467
 20
-24.79133996190571
 30
0.0
 10
20.52866307920593
 20
-24.71601170261467
 30
0.0
 10
20.45279932651239
 20
-24.63419158529589
 30
0.0
 10
20.38622456588548
 20
-24.54692436566225
 30
0.0
 10
20.33071620126819
 20
-24.45458740224672
 30
0.0
 10
20.284299146061
 20
-24.3583497736857
 30
0.0
 10
20.24854563821356
 20
-24.25747064119222
 30
0.0
 10
20.22362113401219
 20
-24.15229885332802
 30
0.0
 10
20.20803756017835
 20
-24.04295876205708
 30
0.0
 10
20.20602732650164
 20
-23.96850238481626
 30
0.0
 10
20.2050080128204
 20
-23.93074836404923
 30
0.0
  0
SPLINE
  5
147
330
1F
100
AcDbEntity
  8
0
  6
Continuous
 62
     7
370
    15
100
AcDbSpline
210
0.0
220
0.0
230
1.0
 70
     8
 71
     3
 72
    23
 73
    19
 74
     0
 42
0.000000001
 43
0.00000001
 40
0.0
 40
0.0
 40
0.0
 40
0.0
 40
0.0637745323056325
 40
0.1260788099895064
 40
0.1869040927472068
 40
0.2475739349176191
 40
0.308003356164447
 40
0.3691318984609769
 40
0.4320332277442047
 40
0.4967907944370897
 40
0.5616108232295655
 40
0.6249138657484617
 40
0.6867263492419252
 40
0.7480788332577699
 40
0.8095822911398949
 40
0.871630742568827
 40
0.9348858208285536
 40
1.0
 40
1.0
 40
1.0
 40
1.0
 10
20.2050080128204
 20
-23.93074836404923
 30
0.0
 10
20.20604991819224
 20
-23.89377467721203
 30
0.0
 10
20.20810970890576
 20
-23.82067969291613
 30
0.0
 10
20.2234544399277
 20
-23.71317829941241
 30
0.0
 10
20.24925820129489
 20
-23.60963543617175
 30
0.0
 10
20.2854703103361
 20
-23.51038445421722
 30
0.0
 10
20.33190555502865
 20
-23.41530525775437
 30
0.0
 10
20.3883909940573
 20
-23.32433060123898
 30
0.0
 10
20.45493070667889
 20
-23.23720985823037
 30
0.0
 10
20.53164297608478
 20
-23.15599158211975
 30
0.0
 10
20.6147434962736
 20
-23.08096884513504
 30
0.0
 10
20.70364319692166
 20
-23.01576799008556
 30
0.0
 10
20.79613065168667
 20
-22.95945820568319
 30
0.0
 10
20.89364042888891
 20
-22.91484278520701
 30
0.0
 10
20.9947292654515
 20
-22.87874604767808
 30
0.0
 10
21.1002971009925
 20
-22.85377220456116
 30
0.0
 10
21.20990470540309
 20
-22.83905603922052
 30
0.0
 10
21.28432031100682
 20
-22.8369249787925
 30
0.0
 10
21.32206697382468
 20
-22.8358440170941
 30
0.0
  0
SPLINE
  5
148
330
1F
100
AcDbEntity
  8
0
  6
Continuous
 62
     7
370
    15
100
AcDbSpline
210
0.0
220
0.0
230
1.0
 70
     8
 71
     3
 72
    15
 73
    11
 74
     0
 42
0.000000001
 43
0.00000001
 40
0.0
 40
0.0
 40
0.0
 40
0.0
 40
0.1298621417207355
 40
0.254653530897286
 40
0.3760145541937123
 40
0.4952552518176073
 40
0.6147977192994573
 40
0.7381055541683321
 40
0.8651963000723583
 40
1.0
 40
1.0
 40
1.0
 40
1.0
 10
21.32206697382468
 20
-22.8358440170941
 30
0.0
 10
21.36547364234308
 20
-22.83703957596552
 30
0.0
 10
21.45059207067204
 20
-22.83938401048636
 30
0.0
 10
21.57509804028261
 20
-22.85889438552483
 30
0.0
 10
21.69288216863455
 20
-22.89185565851013
 30
0.0
 10
21.80485367445957
 20
-22.93669062561659
 30
0.0
 10
21.91061047117056
 20
-22.99626995569244
 30
0.0
 10
22.00915134562852
 20
-23.07142519709126
 30
0.0
 10
22.10150758383151
 20
-23.16168236268488
 30
0.0
 10
22.15504286207432
 20
-23.23100885728221
 30
0.0
 10
22.18259882478621
 20
-23.26669295873405
 30
0.0
  0
LINE
  5
149
330
1F
100
AcDbEntity
  8
0
  6
Continuous
 62
     7
370
    15
100
AcDbLine
 10
16.1786984175
 20
-25.0
 30
0.0
 11
15.3916266026
 21
-25.0
 31
0.0
  0
LINE
  5
14A
330
1F
100
AcDbEntity
  8
0
  6
Continuous
 62
     7
370
    15
100
AcDbLine
 10
15.3916266026
 20
-25.0
 30
0.0
 11
15.3916266026
 21
-22.0895833333
 31
0.0
  0
LINE
  5
14B
330
1F
100
AcDbEntity
  8
0
  6
Continuous
 62
     7
370
    15
100
AcDbLine
 10
15.3916266026
 20
-22.0895833333
 30
0.0
 11
15.9594843416
 21
-22.0895833333
 31
0.0
  0
SPLINE
  5
14C
330
1F
100
AcDbEntity
  8
0
  6
Continuous
 62
     7
370
    15
100
AcDbSpline
210
0.0
220
0.0
230
1.0
 70
     8
 71
     3
 72
    23
 73
    19
 74
     0
 42
0.000000001
 43
0.00000001
 40
0.0
 40
0.0
 40
0.0
 40
0.0
 40
0.0625940971873317
 40
0.1213229386347511
 40
0.1766801421977675
 40
0.2283650957096759
 40
0.2768684458368079
 40
0.3218791276660455
 40
0.364098625109892
 40
0.4033556962427033
 40
0.4779679481633715
 40
0.550535461364776
 40
0.6235844567403249
 40
0.6981748822642037
 40
0.7733536703408753
 40
0.8472811254977319
 40
0.9228183395566686
 40
0.9999999999999999
 40
0.9999999999999999
 40
0.9999999999999999
 40
0.9999999999999999
 10
15.95948434161315
 20
-22.08958333333342
 30
0.0
 10
15.98728171305859
 20
-22.08972947816155
 30
0.0
 10
16.0411599370705
 20
-22.09001274321068
 30
0.0
 10
16.11950788959119
 20
-22.09440591833707
 30
0.0
 10
16.19289097796311
 20
-22.10039611287306
 30
0.0
 10
16.26133048389984
 20
-22.10990077919684
 30
0.0
 10
16.32479478225718
 20
-22.12136929864448
 30
0.0
 10
16.38347513298411
 20
-22.13525765404816
 30
0.0
 10
16.43718493694771
 20
-22.15191073695392
 30
0.0
 10
16.50130784930449
 20
-22.17839243628828
 30
0.0
 10
16.57441806552337
 20
-22.21774390425526
 30
0.0
 10
16.65358006231271
 20
-22.27589283610835
 30
0.0
 10
16.72127156373232
 20
-22.34701715216738
 30
0.0
 10
16.77963482872377
 20
-22.42724707456487
 30
0.0
 10
16.82603611687667
 20
-22.5155040228602
 30
0.0
 10
16.85960510994216
 20
-22.60968443162342
 30
0.0
 10
16.88085770034457
 20
-22.7085735229696
 30
0.0
 10
16.88304336855862
 20
-22.77646371314632
 30
0.0
 10
16.88414797008538
 20
-22.81077432224901
 30
0.0
  0
SPLINE
  5
14D
330
1F
100
AcDbEntity
  8
0
  6
Continuous
 62
     7
370
    15
100
AcDbSpline
210
0.0
220
0.0
230
1.0
 70
     8
 71
     3
 72
    15
 73
    11
 74
     0
 42
0.000000001
 43
0.00000001
 40
0.0
 40
0.0
 40
0.0
 40
0.0
 40
0.1305691070873085
 40
0.2565806086940811
 40
0.380551616803683
 40
0.5036229172007097
 40
0.6257393231697874
 40
0.7475485819596246
 40
0.8717661185648731
 40
1.0
 40
1.0
 40
1.0
 40
1.0
 10
16.88414797008538
 20
-22.81077432224901
 30
0.0
 10
16.88323890689237
 20
-22.84291576289312
 30
0.0
 10
16.88145251198927
 20
-22.90607672484453
 30
0.0
 10
16.86437022937744
 20
-22.99845676690956
 30
0.0
 10
16.83762710210956
 20
-23.08639394113683
 30
0.0
 10
16.80045255860835
 20
-23.1695673175817
 30
0.0
 10
16.75213798200792
 20
-23.24609764946532
 30
0.0
 10
16.69487901107033
 20
-23.31660229867064
 30
0.0
 10
16.62579669376086
 20
-23.37809612404085
 30
0.0
 10
16.57403847574711
 20
-23.41247471622142
 30
0.0
 10
16.54774764623388
 20
-23.42993748330671
 30
0.0
  0
SPLINE
  5
14E
330
1F
100
AcDbEntity
  8
0
  6
Continuous
 62
     7
370
    15
100
AcDbSpline
210
0.0
220
0.0
230
1.0
 70
     8
 71
     3
 72
    19
 73
    15
 74
     0
 42
0.000000001
 43
0.00000001
 40
0.0
 40
0.0
 40
0.0
 40
0.0
 40
0.1060574933033977
 40
0.2029142570846127
 40
0.2903001653958385
 40
0.3702225656250396
 40
0.4463837207709714
 40
0.5213968999648283
 40
0.5982910828464569
 40
0.6761424688569283
 40
0.7555286995560234
 40
0.8348871724576596
 40
0.916646048746641
 40
1.0
 40
1.0
 40
1.0
 40
1.0
 10
16.54774764623388
 20
-23.42993748330671
 30
0.0
 10
16.58081033513265
 20
-23.44263105683055
 30
0.0
 10
16.64406744923321
 20
-23.46691700741369
 30
0.0
 10
16.7311188536186
 20
-23.50985435455886
 30
0.0
 10
16.8061201622255
 20
-23.5565558237355
 30
0.0
 10
16.86964802707153
 20
-23.60755617769427
 30
0.0
 10
16.92397939845161
 20
-23.66252880190487
 30
0.0
 10
16.97142163617621
 20
-23.72227975107448
 30
0.0
 10
17.01190251695166
 20
-23.78758846819039
 30
0.0
 10
17.04658879922614
 20
-23.85777402706018
 30
0.0
 10
17.07365463980272
 20
-23.93211976294981
 30
0.0
 10
17.0939243650435
 20
-24.00992831902602
 30
0.0
 10
17.10553896411654
 20
-24.09092068724418
 30
0.0
 10
17.10719178248895
 20
-24.14604013661077
 30
0.0
 10
17.10802617521358
 20
-24.17386610243064
 30
0.0
  0
SPLINE
  5
14F
330
1F
100
AcDbEntity
  8
0
  6
Continuous
 62
     7
370
    15
100
AcDbSpline
210
0.0
220
0.0
230
1.0
 70
     8
 71
     3
 72
    23
 73
    19
 74
     0
 42
0.000000001
 43
0.00000001
 40
0.0
 40
0.0
 40
0.0
 40
0.0
 40
0.0611602766365179
 40
0.1203345577262024
 40
0.1781802550631267
 40
0.2352351259863639
 40
0.2926829614441803
 40
0.3511862482150803
 40
0.4104566095096935
 40
0.4717198544629959
 40
0.5337612027725901
 40
0.5957390238870954
 40
0.6578875151248852
 40
0.7212951802914617
 40
0.7868225145418898
 40
0.854686153828685
 40
0.9254779862699966
 40
1.0
 40
1.0
 40
1.0
 40
1.0
 10
17.10802617521358
 20
-24.17386610243064
 30
0.0
 10
17.10721388122871
 20
-24.20227748359389
 30
0.0
 10
17.10561567005652
 20
-24.25817767199542
 30
0.0
 10
17.09382434827078
 20
-24.34029726899962
 30
0.0
 10
17.07385963251704
 20
-24.41877453115324
 30
0.0
 10
17.0463593994983
 20
-24.49411705510432
 30
0.0
 10
17.01046787956149
 20
-24.56617908358976
 30
0.0
 10
16.96678837588826
 20
-24.6350422560833
 30
0.0
 10
16.91470724828046
 20
-24.70001467267048
 30
0.0
 10
16.85644663641984
 20
-24.76181830450078
 30
0.0
 10
16.79053638805813
 20
-24.81738879194938
 30
0.0
 10
16.71942596566123
 20
-24.86687893613617
 30
0.0
 10
16.64221982941633
 20
-24.90757991755004
 30
0.0
 10
16.56018599867765
 20
-24.94176984733545
 30
0.0
 10
16.47240424295648
 20
-24.96788642844003
 30
0.0
 10
16.37926874147928
 20
-24.98615766995033
 30
0.0
 10
16.28085981906056
 20
-24.99846876321643
 30
0.0
 10
16.21333004388033
 20
-24.99948092704872
 30
0.0
 10
16.17869841746786
 20
-25.00000000000008
 30
0.0
  0
LINE
  5
150
330
1F
100
AcDbEntity
  8
0
  6
Continuous
 62
     7
370
    15
100
AcDbLine
 10
12.7424011752
 20
-22.8731570513
 30
0.0
 11
13.1155315171
 21
-22.8731570513
 31
0.0
  0
LINE
  5
151
330
1F
100
AcDbEntity
  8
0
  6
Continuous
 62
     7
370
    15
100
AcDbLine
 10
13.1155315171
 20
-22.8731570513
 30
0.0
 11
13.1155315171
 21
-22.014957265
 31
0.0
  0
LINE
  5
152
330
1F
100
AcDbEntity
  8
0
  6
Continuous
 62
     7
370
    15
100
AcDbLine
 10
13.1155315171
 20
-22.014957265
 30
0.0
 11
13.3767227564
 21
-22.014957265
 31
0.0
  0
LINE
  5
153
330
1F
100
AcDbEntity
  8
0
  6
Continuous
 62
     7
370
    15
100
AcDbLine
 10
13.3767227564
 20
-22.014957265
 30
0.0
 11
13.3767227564
 21
-22.8731570513
 31
0.0
  0
LINE
  5
154
330
1F
100
AcDbEntity
  8
0
  6
Continuous
 62
     7
370
    15
100
AcDbLine
 10
13.3767227564
 20
-22.8731570513
 30
0.0
 11
13.7498530983
 21
-22.8731570513
 31
0.0
  0
LINE
  5
155
330
1F
100
AcDbEntity
  8
0
  6
Continuous
 62
     7
370
    15
100
AcDbLine
 10
13.7498530983
 20
-22.8731570513
 30
0.0
 11
13.7498530983
 21
-23.1343482906
 31
0.0
  0
LINE
  5
156
330
1F
100
AcDbEntity
  8
0
  6
Continuous
 62
     7
370
    15
100
AcDbLine
 10
13.7498530983
 20
-23.1343482906
 30
0.0
 11
13.3767227564
 21
-23.1343482906
 31
0.0
  0
LINE
  5
157
330
1F
100
AcDbEntity
  8
0
  6
Continuous
 62
     7
370
    15
100
AcDbLine
 10
13.3767227564
 20
-23.1343482906
 30
0.0
 11
13.3767227564
 21
-25.0
 31
0.0
  0
LINE
  5
158
330
1F
100
AcDbEntity
  8
0
  6
Continuous
 62
     7
370
    15
100
AcDbLine
 10
13.3767227564
 20
-25.0
 30
0.0
 11
13.1155315171
 21
-25.0
 31
0.0
  0
LINE
  5
159
330
1F
100
AcDbEntity
  8
0
  6
Continuous
 62
     7
370
    15
100
AcDbLine
 10
13.1155315171
 20
-25.0
 30
0.0
 11
13.1155315171
 21
-23.1343482906
 31
0.0
  0
LINE
  5
15A
330
1F
100
AcDbEntity
  8
0
  6
Continuous
 62
     7
370
    15
100
AcDbLine
 10
13.1155315171
 20
-23.1343482906
 30
0.0
 11
12.7424011752
 21
-23.1343482906
 31
0.0
  0
LINE
  5
15B
330
1F
100
AcDbEntity
  8
0
  6
Continuous
 62
     7
370
    15
100
AcDbLine
 10
12.7424011752
 20
-23.1343482906
 30
0.0
 11
12.7424011752
 21
-22.8731570513
 31
0.0
  0
SPLINE
  5
15C
330
1F
100
AcDbEntity
  8
0
  6
Continuous
 62
     7
370
    15
100
AcDbSpline
210
0.0
220
0.0
230
1.0
 70
     8
 71
     3
 72
    23
 73
    19
 74
     0
 42
0.000000001
 43
0.00000001
 40
0.0
 40
0.0
 40
0.0
 40
0.0
 40
0.0683846151037673
 40
0.1344755875434516
 40
0.1983910577839559
 40
0.2607534774484877
 40
0.3218292228076489
 40
0.3830372384795258
 40
0.4446531231064265
 40
0.5073980112040055
 40
0.5698252379730263
 40
0.6307776406313129
 40
0.6909286865237166
 40
0.7509451326917356
 40
0.8110494767293279
 40
0.8723308525469935
 40
0.9350040935894045
 40
1.0
 40
1.0
 40
1.0
 40
1.0
 10
-9.682732371794915
 20
-23.99254807692316
 30
0.0
 10
-9.681452115734483
 20
-24.02057161772865
 30
0.0
 10
-9.678934543826365
 20
-24.07567878048956
 30
0.0
 10
-9.6671971301338
 20
-24.15631460427898
 30
0.0
 10
-9.648696215275107
 20
-24.23312743701861
 30
0.0
 10
-9.62269450068821
 20
-24.30554113323107
 30
0.0
 10
-9.591206415675662
 20
-24.37450148331372
 30
0.0
 10
-9.552634483324503
 20
-24.43949693905491
 30
0.0
 10
-9.50661700899614
 20
-24.50023145588805
 30
0.0
 10
-9.455289150639022
 20
-24.55724829589855
 30
0.0
 10
-9.39815592910102
 20
-24.60802322646478
 30
0.0
 10
-9.338049382751015
 20
-24.65346878086911
 30
0.0
 10
-9.274108721864172
 20
-24.69155831576846
 30
0.0
 10
-9.206838113149256
 20
-24.72247516456939
 30
0.0
 10
-9.136346337050206
 20
-24.74667845238761
 30
0.0
 10
-9.06261118432598
 20
-24.76319949137214
 30
0.0
 10
-8.985777750666708
 20
-24.77426498441035
 30
0.0
 10
-8.933402113497785
 20
-24.77549539648484
 30
0.0
 10
-8.906737863915641
 20
-24.77612179487188
 30
0.0
  0
SPLINE
  5
15D
330
1F
100
AcDbEntity
  8
0
  6
Continuous
 62
     7
370
    15
100
AcDbSpline
210
0.0
220
0.0
230
1.0
 70
     8
 71
     3
 72
    19
 73
    15
 74
     0
 42
0.000000001
 43
0.00000001
 40
0.0
 40
0.0
 40
0.0
 40
0.0
 40
0.082592263331437
 40
0.163878894098496
 40
0.245658739629502
 40
0.3277256953541227
 40
0.4086099609103186
 40
0.4857490859539298
 40
0.5591690561972755
 40
0.6302684758575453
 40
0.70530602843207
 40
0.7920649660966066
 40
0.8897964374100897
 40
1.0
 40
1.0
 40
1.0
 40
1.0
 10
-8.906737863915641
 20
-24.77612179487188
 30
0.0
 10
-8.880667891771107
 20
-24.77561616680409
 30
0.0
 10
-8.828940066041476
 20
-24.77461290372313
 30
0.0
 10
-8.751904781691302
 20
-24.76485726113821
 30
0.0
 10
-8.676117924681103
 20
-24.74908257361281
 30
0.0
 10
-8.601893166571399
 20
-24.72755381400158
 30
0.0
 10
-8.530736933389472
 20
-24.7012961578152
 30
0.0
 10
-8.46484048491594
 20
-24.66961181725821
 30
0.0
 10
-8.404237115136354
 20
-24.63456229571066
 30
0.0
 10
-8.347594613754772
 20
-24.59447365520909
 30
0.0
 10
-8.29265343654478
 20
-24.54540553780242
 30
0.0
 10
-8.23815173802014
 20
-24.48417392933752
 30
0.0
 10
-8.17971335424128
 20
-24.41175650296032
 30
0.0
 10
-8.143133913132328
 20
-24.35725216047749
 30
0.0
 10
-8.123747162126111
 20
-24.32836538461547
 30
0.0
  0
LINE
  5
15E
330
1F
100
AcDbEntity
  8
0
  6
Continuous
 62
     7
370
    15
100
AcDbLine
 10
-8.1237471621
 20
-24.3283653846
 30
0.0
 11
-7.8917067308
 21
-24.4502157619
 31
0.0
  0
SPLINE
  5
15F
330
1F
100
AcDbEntity
  8
0
  6
Continuous
 62
     7
370
    15
100
AcDbSpline
210
0.0
220
0.0
230
1.0
 70
     8
 71
     3
 72
    19
 73
    15
 74
     0
 42
0.000000001
 43
0.00000001
 40
0.0
 40
0.0
 40
0.0
 40
0.0
 40
0.0933698567361949
 40
0.1816607660710045
 40
0.2658742270426203
 40
0.346354784034309
 40
0.4245998617178943
 40
0.501903183837377
 40
0.5799920909873474
 40
0.6584434305294316
 40
0.7386722364878339
 40
0.8218941484362439
 40
0.9088007920466165
 40
1.0
 40
1.0
 40
1.0
 40
1.0
 10
-7.891706730769274
 20
-24.45021576188577
 30
0.0
 10
-7.9101975185968
 20
-24.48301477009507
 30
0.0
 10
-7.946173269223637
 20
-24.54682865142622
 30
0.0
 10
-8.008041033987569
 20
-24.63450026397353
 30
0.0
 10
-8.072895156244554
 20
-24.71337065625136
 30
0.0
 10
-8.143663158209428
 20
-24.78133275567672
 30
0.0
 10
-8.218227766244407
 20
-24.84058167520586
 30
0.0
 10
-8.297002479777493
 20
-24.89241854492751
 30
0.0
 10
-8.380397407382427
 20
-24.9365891240484
 30
0.0
 10
-8.468416493998628
 20
-24.97380298204737
 30
0.0
 10
-8.56179891837046
 20
-25.00241611494544
 30
0.0
 10
-8.660770976956666
 20
-25.02262623198511
 30
0.0
 10
-8.765522274006766
 20
-25.0351187952617
 30
0.0
 10
-8.837323234289656
 20
-25.03656996291976
 30
0.0
 10
-8.87408895900111
 20
-25.03731303418812
 30
0.0
  0
SPLINE
  5
160
330
1F
100
AcDbEntity
  8
0
  6
Continuous
 62
     7
370
    15
100
AcDbSpline
210
0.0
220
0.0
230
1.0
 70
     8
 71
     3
 72
    23
 73
    19
 74
     0
 42
0.000000001
 43
0.00000001
 40
0.0
 40
0.0
 40
0.0
 40
0.0
 40
0.0715786576891427
 40
0.1396292246928486
 40
0.2047966973966662
 40
0.2681349633966812
 40
0.3298137469867299
 40
0.3913013977745597
 40
0.4534335150970546
 40
0.5165516903197668
 40
0.5796312707049237
 40
0.6411189214927527
 40
0.7012940466987743
 40
0.7608103356761332
 40
0.8199317217781449
 40
0.878919575499382
 40
0.9389828222504477
 40
0.9999999999999999
 40
0.9999999999999999
 40
0.9999999999999999
 40
0.9999999999999999
 10
-8.87408895900111
 20
-25.03731303418812
 30
0.0
 10
-8.914952853415999
 20
-25.03635910327418
 30
0.0
 10
-8.994666473079848
 20
-25.03449826041649
 30
0.0
 10
-9.110700417554055
 20
-25.01845565755046
 30
0.0
 10
-9.219948660114374
 20
-24.99228489261292
 30
0.0
 10
-9.322405058676866
 20
-24.95572545126571
 30
0.0
 10
-9.41781870561188
 20
-24.90797189665015
 30
0.0
 10
-9.506379237857281
 20
-24.84979725612648
 30
0.0
 10
-9.588552379309034
 20
-24.78150037529319
 30
0.0
 10
-9.661748700875501
 20
-24.70248967794123
 30
0.0
 10
-9.727643762867457
 20
-24.61793628845214
 30
0.0
 10
-9.785790411978189
 20
-24.52982892498374
 30
0.0
 10
-9.834400549582993
 20
-24.43838926748967
 30
0.0
 10
-9.87394280937075
 20
-24.34419943291296
 30
0.0
 10
-9.905878283396234
 20
-24.24785308810359
 30
0.0
 10
-9.928136072185202
 20
-24.14847361179752
 30
0.0
 10
-9.940966642382183
 20
-24.04632997418828
 30
0.0
 10
-9.942932791439144
 20
-23.97723058252298
 30
0.0
 10
-9.943923611111153
 20
-23.94240868723299
 30
0.0
  0
SPLINE
  5
161
330
1F
100
AcDbEntity
  8
0
  6
Continuous
 62
     7
370
    15
100
AcDbSpline
210
0.0
220
0.0
230
1.0
 70
     8
 71
     3
 72
    15
 73
    11
 74
     0
 42
0.000000001
 43
0.00000001
 40
0.0
 40
0.0
 40
0.0
 40
0.0
 40
0.1280448079611189
 40
0.2537679000244883
 40
0.3774284265813014
 40
0.5005508414825353
 40
0.6232958832424782
 40
0.7465783319335083
 40
0.8723475406047154
 40
0.9999999999999999
 40
0.9999999999999999
 40
0.9999999999999999
 40
0.9999999999999999
 10
-9.943923611111153
 20
-23.94240868723299
 30
0.0
 10
-9.94304288465946
 20
-23.90973316455837
 30
0.0
 10
-9.941297401139275
 20
-23.84497459368483
 30
0.0
 10
-9.930295371383927
 20
-23.74912580457245
 30
0.0
 10
-9.910796999112485
 20
-23.65596881160673
 30
0.0
 10
-9.88404085354288
 20
-23.56542620814691
 30
0.0
 10
-9.84948901371075
 20
-23.47764959316133
 30
0.0
 10
-9.807219602850589
 20
-23.39258554501755
 30
0.0
 10
-9.757166774415515
 20
-23.31032458050263
 30
0.0
 10
-9.71852253320255
 20
-23.25843340324678
 30
0.0
 10
-9.699056824252178
 20
-23.23229500534197
 30
0.0
  0
SPLINE
  5
162
330
1F
100
AcDbEntity
  8
0
  6
Continuous
 62
     7
370
    15
100
AcDbSpline
210
0.0
220
0.0
230
1.0
 70
     8
 71
     3
 72
    15
 73
    11
 74
     0
 42
0.000000001
 43
0.00000001
 40
0.0
 40
0.0
 40
0.0
 40
0.0
 40
0.1288352544875549
 40
0.2535893349864772
 40
0.3746432573141715
 40
0.4953400422377925
 40
0.6163247746357916
 40
0.7397593354405139
 40
0.8668423203805457
 40
1.0
 40
1.0
 40
1.0
 40
1.0
 10
-9.699056824252178
 20
-23.23229500534197
 30
0.0
 10
-9.672690376134417
 20
-23.20080523658423
 30
0.0
 10
-9.620792702079802
 20
-23.13882321504892
 30
0.0
 10
-9.53301756610996
 20
-23.0573828334317
 30
0.0
 10
-9.437971509984774
 20
-22.98915952752553
 30
0.0
 10
-9.33684565185268
 20
-22.93260835539157
 30
0.0
 10
-9.22846466717253
 20
-22.88963925726719
 30
0.0
 10
-9.114285453137107
 20
-22.85761836894667
 30
0.0
 10
-8.993007903161763
 20
-22.83967522524817
 30
0.0
 10
-8.910098264167145
 20
-22.83714080645655
 30
0.0
 10
-8.867675781250043
 20
-22.8358440170941
 30
0.0
  0
SPLINE
  5
163
330
1F
100
AcDbEntity
  8
0
  6
Continuous
 62
     7
370
    15
100
AcDbSpline
210
0.0
220
0.0
230
1.0
 70
     8
 71
     3
 72
    15
 73
    11
 74
     0
 42
0.000000001
 43
0.00000001
 40
0.0
 40
0.0
 40
0.0
 40
0.0
 40
0.1320402344259828
 40
0.2590328407793693
 40
0.381879823925016
 40
0.5022584437149852
 40
0.6227521895274785
 40
0.7447426318590017
 40
0.8701089273418194
 40
1.0
 40
1.0
 40
1.0
 40
1.0
 10
-8.867675781250043
 20
-22.8358440170941
 30
0.0
 10
-8.824063099935014
 20
-22.83696997322673
 30
0.0
 10
-8.738504960901487
 20
-22.83917884249221
 30
0.0
 10
-8.61374610787269
 20
-22.85965681140439
 30
0.0
 10
-8.495699012035056
 20
-22.89213087016931
 30
0.0
 10
-8.384410911725883
 20
-22.93799387334147
 30
0.0
 10
-8.279870523945105
 20
-22.99716642920526
 30
0.0
 10
-8.182757362483292
 20
-23.07046056762722
 30
0.0
 10
-8.091410598774596
 20
-23.15562608420663
 30
0.0
 10
-8.038267572193329
 20
-23.22112144347444
 30
0.0
 10
-8.01122504340282
 20
-23.25444961939111
 30
0.0
  0
SPLINE
  5
164
330
1F
100
AcDbEntity
  8
0
  6
Continuous
 62
     7
370
    15
100
AcDbSpline
210
0.0
220
0.0
230
1.0
 70
     8
 71
     3
 72
    15
 73
    11
 74
     0
 42
0.000000001
 43
0.00000001
 40
0.0
 40
0.0
 40
0.0
 40
0.0
 40
0.1185218400132594
 40
0.2362547631617471
 40
0.3561744339909317
 40
0.4772496548985577
 40
0.6015398708217043
 40
0.7296183821680412
 40
0.8621582661414409
 40
1.0
 40
1.0
 40
1.0
 40
1.0
 10
-8.01122504340282
 20
-23.25444961939111
 30
0.0
 10
-7.992825440532255
 20
-23.27956533557959
 30
0.0
 10
-7.956148708058572
 20
-23.32962959022737
 30
0.0
 10
-7.910208113565073
 20
-23.4112635821736
 30
0.0
 10
-7.870329255950668
 20
-23.49667233235642
 30
0.0
 10
-7.838453573487791
 20
-23.58723643058888
 30
0.0
 10
-7.812642750171378
 20
-23.68188283148269
 30
0.0
 10
-7.79396883601659
 20
-23.78128814991477
 30
0.0
 10
-7.783017671041101
 20
-23.88542278454043
 30
0.0
 10
-7.780865045924575
 20
-23.95637587858863
 30
0.0
 10
-7.77976762820517
 20
-23.99254807692316
 30
0.0
  0
LINE
  5
165
330
1F
100
AcDbEntity
  8
0
  6
Continuous
 62
     7
370
    15
100
AcDbLine
 10
-7.7797676282
 20
-23.9925480769
 30
0.0
 11
-9.6827323718
 21
-23.9925480769
 31
0.0
  0
LINE
  5
166
330
1F
100
AcDbEntity
  8
0
  6
Continuous
 62
     7
370
    15
100
AcDbLine
 10
-10.4663060897
 20
-25.0
 30
0.0
 11
-10.7274973291
 21
-25.0
 31
0.0
  0
LINE
  5
167
330
1F
100
AcDbEntity
  8
0
  6
Continuous
 62
     7
370
    15
100
AcDbLine
 10
-10.7274973291
 20
-25.0
 30
0.0
 11
-10.7274973291
 21
-22.014957265
 31
0.0
  0
LINE
  5
168
330
1F
100
AcDbEntity
  8
0
  6
Continuous
 62
     7
370
    15
100
AcDbLine
 10
-10.7274973291
 20
-22.014957265
 30
0.0
 11
-10.4663060897
 21
-22.014957265
 31
0.0
  0
LINE
  5
169
330
1F
100
AcDbEntity
  8
0
  6
Continuous
 62
     7
370
    15
100
AcDbLine
 10
-10.4663060897
 20
-22.014957265
 30
0.0
 11
-10.4663060897
 21
-25.0
 31
0.0
  0
LINE
  5
16A
330
1F
100
AcDbEntity
  8
0
  6
Continuous
 62
     7
370
    15
100
AcDbLine
 10
-11.1379407051
 20
-25.0
 30
0.0
 11
-12.7797142094
 21
-25.0
 31
0.0
  0
LINE
  5
16B
330
1F
100
AcDbEntity
  8
0
  6
Continuous
 62
     7
370
    15
100
AcDbLine
 10
-12.7797142094
 20
-25.0
 30
0.0
 11
-12.7797142094
 21
-22.0895833333
 31
0.0
  0
LINE
  5
16C
330
1F
100
AcDbEntity
  8
0
  6
Continuous
 62
     7
370
    15
100
AcDbLine
 10
-12.7797142094
 20
-22.0895833333
 30
0.0
 11
-11.1379407051
 21
-22.0895833333
 31
0.0
  0
LINE
  5
16D
330
1F
100
AcDbEntity
  8
0
  6
Continuous
 62
     7
370
    15
100
AcDbLine
 10
-11.1379407051
 20
-22.0895833333
 30
0.0
 11
-11.1379407051
 21
-22.3880876068
 31
0.0
  0
LINE
  5
16E
330
1F
100
AcDbEntity
  8
0
  6
Continuous
 62
     7
370
    15
100
AcDbLine
 10
-11.1379407051
 20
-22.3880876068
 30
0.0
 11
-12.5185229701
 21
-22.3880876068
 31
0.0
  0
LINE
  5
16F
330
1F
100
AcDbEntity
  8
0
  6
Continuous
 62
     7
370
    15
100
AcDbLine
 10
-12.5185229701
 20
-22.3880876068
 30
0.0
 11
-12.5185229701
 21
-23.2836004274
 31
0.0
  0
LINE
  5
170
330
1F
100
AcDbEntity
  8
0
  6
Continuous
 62
     7
370
    15
100
AcDbLine
 10
-12.5185229701
 20
-23.2836004274
 30
0.0
 11
-11.1379407051
 21
-23.2836004274
 31
0.0
  0
LINE
  5
171
330
1F
100
AcDbEntity
  8
0
  6
Continuous
 62
     7
370
    15
100
AcDbLine
 10
-11.1379407051
 20
-23.2836004274
 30
0.0
 11
-11.1379407051
 21
-23.5821047009
 31
0.0
  0
LINE
  5
172
330
1F
100
AcDbEntity
  8
0
  6
Continuous
 62
     7
370
    15
100
AcDbLine
 10
-11.1379407051
 20
-23.5821047009
 30
0.0
 11
-12.5185229701
 21
-23.5821047009
 31
0.0
  0
LINE
  5
173
330
1F
100
AcDbEntity
  8
0
  6
Continuous
 62
     7
370
    15
100
AcDbLine
 10
-12.5185229701
 20
-23.5821047009
 30
0.0
 11
-12.5185229701
 21
-24.7014957265
 31
0.0
  0
LINE
  5
174
330
1F
100
AcDbEntity
  8
0
  6
Continuous
 62
     7
370
    15
100
AcDbLine
 10
-12.5185229701
 20
-24.7014957265
 30
0.0
 11
-11.1379407051
 21
-24.7014957265
 31
0.0
  0
LINE
  5
175
330
1F
100
AcDbEntity
  8
0
  6
Continuous
 62
     7
370
    15
100
AcDbLine
 10
-11.1379407051
 20
-24.7014957265
 30
0.0
 11
-11.1379407051
 21
-25.0
 31
0.0
  0
LINE
  5
176
330
1F
100
AcDbEntity
  8
0
  6
Continuous
 62
     7
370
    15
100
AcDbLine
 10
-16.0632612179
 20
-23.5447916667
 30
0.0
 11
-15.7647569444
 21
-22.0895833333
 31
0.0
  0
LINE
  5
177
330
1F
100
AcDbEntity
  8
0
  6
Continuous
 62
     7
370
    15
100
AcDbLine
 10
-15.7647569444
 20
-22.0895833333
 30
0.0
 11
-14.5707398504
 21
-22.0895833333
 31
0.0
  0
LINE
  5
178
330
1F
100
AcDbEntity
  8
0
  6
Continuous
 62
     7
370
    15
100
AcDbLine
 10
-14.5707398504
 20
-22.0895833333
 30
0.0
 11
-14.5707398504
 21
-22.3880876068
 31
0.0
  0
LINE
  5
179
330
1F
100
AcDbEntity
  8
0
  6
Continuous
 62
     7
370
    15
100
AcDbLine
 10
-14.5707398504
 20
-22.3880876068
 30
0.0
 11
-15.5607012887
 21
-22.3880876068
 31
0.0
  0
LINE
  5
17A
330
1F
100
AcDbEntity
  8
0
  6
Continuous
 62
     7
370
    15
100
AcDbLine
 10
-15.5607012887
 20
-22.3880876068
 30
0.0
 11
-15.7175326356
 21
-23.1535878239
 31
0.0
  0
SPLINE
  5
17B
330
1F
100
AcDbEntity
  8
0
  6
Continuous
 62
     7
370
    15
100
AcDbSpline
210
0.0
220
0.0
230
1.0
 70
     8
 71
     3
 72
    11
 73
     7
 74
     0
 42
0.000000001
 43
0.00000001
 40
0.0
 40
0.0
 40
0.0
 40
0.0
 40
0.275068369018746
 40
0.532901460089936
 40
0.7739734595924461
 40
0.9999999999999999
 40
0.9999999999999999
 40
0.9999999999999999
 40
0.9999999999999999
 10
-15.71753263555026
 20
-23.15358782385157
 30
0.0
 10
-15.68671891144311
 20
-23.14508086568554
 30
0.0
 10
-15.62702219449202
 20
-23.12859997970154
 30
0.0
 10
-15.53891152439302
 20
-23.1103011336956
 30
0.0
 10
-15.45526431710197
 20
-23.09927028527399
 30
0.0
 10
-15.40098473825466
 20
-23.09776409433023
 30
0.0
 10
-15.3747191339477
 20
-23.09703525641034
 30
0.0
  0
SPLINE
  5
17C
330
1F
100
AcDbEntity
  8
0
  6
Continuous
 62
     7
370
    15
100
AcDbSpline
210
0.0
220
0.0
230
1.0
 70
     8
 71
     3
 72
    23
 73
    19
 74
     0
 42
0.000000001
 43
0.00000001
 40
0.0
 40
0.0
 40
0.0
 40
0.0
 40
0.0658076458106948
 40
0.1293942736680555
 40
0.1908940606321901
 40
0.2512810689298349
 40
0.3108149644652733
 40
0.3703709874482443
 40
0.4307682625897273
 40
0.4928812506175015
 40
0.5551039481552492
 40
0.6160670509938421
 40
0.6772560331746538
 40
0.7382598051991152
 40
0.8007621343762958
 40
0.864777581574483
 40
0.9310452949994023
 40
0.9999999999999999
 40
0.9999999999999999
 40
0.9999999999999999
 40
0.9999999999999999
 10
-15.3747191339477
 20
-23.09703525641034
 30
0.0
 10
-15.34221914324654
 20
-23.09773869222308
 30
0.0
 10
-15.2783160414232
 20
-23.09912182278399
 30
0.0
 10
-15.18481770276243
 20
-23.11240317616119
 30
0.0
 10
-15.09556529096141
 20
-23.13330821231504
 30
0.0
 10
-15.01074546290405
 20
-23.16251259854488
 30
0.0
 10
-14.93020130264198
 20
-23.19985718025471
 30
0.0
 10
-14.85467386014895
 20
-23.24650695208796
 30
0.0
 10
-14.78302945274264
 20
-23.30100103757371
 30
0.0
 10
-14.71655337907956
 20
-23.36365400287584
 30
0.0
 10
-14.65624596330153
 20
-23.43260727585368
 30
0.0
 10
-14.60322150641773
 20
-23.50674629123925
 30
0.0
 10
-14.55818273340877
 20
-23.5853505436214
 30
0.0
 10
-14.52195989140736
 20
-23.66917104981621
 30
0.0
 10
-14.49303506106004
 20
-23.7572811315509
 30
0.0
 10
-14.47378307487147
 20
-23.85060786835179
 30
0.0
 10
-14.46096334724116
 20
-23.94827157291054
 30
0.0
 10
-14.45953110099803
 20
-24.01504864695685
 30
0.0
 10
-14.45880074786329
 20
-24.04910064436439
 30
0.0
  0
SPLINE
  5
17D
330
1F
100
AcDbEntity
  8
0
  6
Continuous
 62
     7
370
    15
100
AcDbSpline
210
0.0
220
0.0
230
1.0
 70
     8
 71
     3
 72
    31
 73
    27
 74
     0
 42
0.000000001
 43
0.00000001
 40
0.0
 40
0.0
 40
0.0
 40
0.0
 40
0.0440144705761384
 40
0.0874341236677058
 40
0.1301183986578977
 40
0.1725536945581825
 40
0.2145547559681377
 40
0.2562980920971296
 40
0.2984382251332501
 40
0.3408490025880961
 40
0.3827151889670272
 40
0.4239240454075327
 40
0.4642462432504168
 40
0.5040736714617956
 40
0.5438619058684915
 40
0.5835667249796533
 40
0.6230943188523332
 40
0.6632290607685847
 40
0.7035512586114702
 40
0.7439378946861851
 40
0.7845412548000926
 40
0.8257501112405969
 40
0.8677573633885063
 40
0.9107451640323103
 40
0.9549144468914782
 40
1.0
 40
1.0
 40
1.0
 40
1.0
 10
-14.45880074786329
 20
-24.04910064436439
 30
0.0
 10
-14.45935378962336
 20
-24.07281822878802
 30
0.0
 10
-14.46045239926262
 20
-24.11993287500436
 30
0.0
 10
-14.46603922482451
 20
-24.18990278474089
 30
0.0
 10
-14.47679588871835
 20
-24.25839140248852
 30
0.0
 10
-14.49123797834535
 20
-24.32540781403536
 30
0.0
 10
-14.50998307233214
 20
-24.39082514316286
 30
0.0
 10
-14.53267522013068
 20
-24.45483063394484
 30
0.0
 10
-14.56044560729215
 20
-24.51702591109971
 30
0.0
 10
-14.59090634017115
 20
-24.57799946874746
 30
0.0
 10
-14.62520475077552
 20
-24.63637287026593
 30
0.0
 10
-14.66327175955678
 20
-24.69096312871838
 30
0.0
 10
-14.70348996862678
 20
-24.74258916516332
 30
0.0
 10
-14.74676485879655
 20
-24.79069729910012
 30
0.0
 10
-14.79349866247053
 20
-24.83497140385996
 30
0.0
 10
-14.84312539681924
 20
-24.87567423080268
 30
0.0
 10
-14.89524906258332
 20
-24.91349412272733
 30
0.0
 10
-14.95067607063237
 20
-24.94689588978698
 30
0.0
 10
-15.00817133771576
 20
-24.97763234796879
 30
0.0
 10
-15.0685651587546
 20
-25.00284781324109
 30
0.0
 10
-15.13048277693266
 20
-25.02539150832125
 30
0.0
 10
-15.19481535503146
 20
-25.04336085955543
 30
0.0
 10
-15.26141717421253
 20
-25.05744108495035
 30
0.0
 10
-15.33039802025331
 20
-25.06700438199897
 30
0.0
 10
-15.40139611312424
 20
-25.07396978863344
 30
0.0
 10
-15.44952194203738
 20
-25.07440581640726
 30
0.0
 10
-15.47383188100966
 20
-25.07462606837615
 30
0.0
  0
SPLINE
  5
17E
330
1F
100
AcDbEntity
  8
0
  6
Continuous
 62
     7
370
    15
100
AcDbSpline
210
0.0
220
0.0
230
1.0
 70
     8
 71
     3
 72
    23
 73
    19
 74
     0
 42
0.000000001
 43
0.00000001
 40
0.0
 40
0.0
 40
0.0
 40
0.0
 40
0.0654211437588933
 40
0.1287083718818837
 40
0.1902361418635391
 40
0.2507244020335377
 40
0.3106371794134435
 40
0.3707664082897267
 40
0.4316147444123515
 40
0.4935229735663541
 40
0.5558834553775335
 40
0.6173423673185103
 40
0.6786680390972759
 40
0.74071135954515
 40
0.8029853625127458
 40
0.866802580265518
 40
0.9323471713458887
 40
0.9999999999999999
 40
0.9999999999999999
 40
0.9999999999999999
 40
0.9999999999999999
 10
-15.47383188100966
 20
-25.07462606837615
 30
0.0
 10
-15.50283142293882
 20
-25.07405160369527
 30
0.0
 10
-15.55988459585151
 20
-25.07292141229947
 30
0.0
 10
-15.6434722340652
 20
-25.06109806473998
 30
0.0
 10
-15.72389503415672
 20
-25.04416449854928
 30
0.0
 10
-15.80050560041679
 20
-25.01868898130038
 30
0.0
 10
-15.87399051434311
 20
-24.98676811779905
 30
0.0
 10
-15.94336047669492
 20
-24.94642461090673
 30
0.0
 10
-16.010388017849
 20
-24.90070686808849
 30
0.0
 10
-16.07234832459845
 20
-24.84675576505767
 30
0.0
 10
-16.12985492609672
 20
-24.78778599851039
 30
0.0
 10
-16.18133313615139
 20
-24.7237920552315
 30
0.0
 10
-16.22717933061634
 20
-24.65583013225871
 30
0.0
 10
-16.26665933808265
 20
-24.58357017913741
 30
0.0
 10
-16.30033537128444
 20
-24.50720206739939
 30
0.0
 10
-16.32679104903597
 20
-24.42643966725293
 30
0.0
 10
-16.34814382394997
 20
-24.34170496159619
 30
0.0
 10
-16.3571772753818
 20
-24.28336897704648
 30
0.0
 10
-16.36176549145304
 20
-24.2537393162394
 30
0.0
  0
LINE
  5
17F
330
1F
100
AcDbEntity
  8
0
  6
Continuous
 62
     7
370
    15
100
AcDbLine
 10
-16.3617654915
 20
-24.2537393162
 30
0.0
 11
-16.1005742521
 21
-24.2537393162
 31
0.0
  0
SPLINE
  5
180
330
1F
100
AcDbEntity
  8
0
  6
Continuous
 62
     7
370
    15
100
AcDbSpline
210
0.0
220
0.0
230
1.0
 70
     8
 71
     3
 72
    19
 73
    15
 74
     0
 42
0.000000001
 43
0.00000001
 40
0.0
 40
0.0
 40
0.0
 40
0.0
 40
0.094687251867552
 40
0.1819941557072726
 40
0.264376948610511
 40
0.3421798619477707
 40
0.4186176108621454
 40
0.4965090753719085
 40
0.5773690916117312
 40
0.6615105924541984
 40
0.7467325508291988
 40
0.8312579843277426
 40
0.9152056162136543
 40
1.0
 40
1.0
 40
1.0
 40
1.0
 10
-16.10057425213681
 20
-24.2537393162394
 30
0.0
 10
-16.09414758864034
 20
-24.28149342580533
 30
0.0
 10
-16.08179518455231
 20
-24.3348383654697
 30
0.0
 10
-16.05468195181032
 20
-24.40978686775676
 30
0.0
 10
-16.02153157797974
 20
-24.47657612696832
 30
0.0
 10
-15.98211260492085
 20
-24.53608964353566
 30
0.0
 10
-15.93508856171296
 20
-24.5879856966246
 30
0.0
 10
-15.88142926871886
 20
-24.63423393205737
 30
0.0
 10
-15.82126869174903
 20
-24.6759569413851
 30
0.0
 10
-15.75441789315421
 20
-24.71073456387
 30
0.0
 10
-15.68389177898126
 20
-24.74039483083419
 30
0.0
 10
-15.61007761684829
 20
-24.7601454962196
 30
0.0
 10
-15.5349852525506
 20
-24.774033083899
 30
0.0
 10
-15.48419567923839
 20
-24.77542323261324
 30
0.0
 10
-15.45867346087077
 20
-24.77612179487187
 30
0.0
  0
SPLINE
  5
181
330
1F
100
AcDbEntity
  8
0
  6
Continuous
 62
     7
370
    15
100
AcDbSpline
210
0.0
220
0.0
230
1.0
 70
     8
 71
     3
 72
    23
 73
    19
 74
     0
 42
0.000000001
 43
0.00000001
 40
0.0
 40
0.0
 40
0.0
 40
0.0
 40
0.0642072952829854
 40
0.126424689779742
 40
0.1876802842649225
 40
0.2482164244552128
 40
0.3083050600086132
 40
0.369660991325142
 40
0.4316985517867806
 40
0.495946892208764
 40
0.5597580239721188
 40
0.6222954078261581
 40
0.6839106352841733
 40
0.7450924080566238
 40
0.806740225389292
 40
0.8690866181212029
 40
0.9332900029747992
 40
0.9999999999999999
 40
0.9999999999999999
 40
0.9999999999999999
 40
0.9999999999999999
 10
-15.45867346087077
 20
-24.77612179487187
 30
0.0
 10
-15.43376158774521
 20
-24.77543927895912
 30
0.0
 10
-15.38470990572292
 20
-24.7740953995423
 30
0.0
 10
-15.31252210381214
 20
-24.7637517686557
 30
0.0
 10
-15.24282770782381
 20
-24.74782133584809
 30
0.0
 10
-15.17631441175698
 20
-24.72398098619791
 30
0.0
 10
-15.11181829818204
 20
-24.69500594355453
 30
0.0
 10
-15.05097082360998
 20
-24.65782322872431
 30
0.0
 10
-14.99201170494003
 20
-24.61503177291022
 30
0.0
 10
-14.93677354867282
 20
-24.56600652757057
 30
0.0
 10
-14.88618264949686
 20
-24.51198113269967
 30
0.0
 10
-14.84148187495873
 20
-24.45420737161956
 30
0.0
 10
-14.8042477392109
 20
-24.39257568434551
 30
0.0
 10
-14.77287003082344
 20
-24.32815306855223
 30
0.0
 10
-14.74904344840961
 20
-24.26023345880324
 30
0.0
 10
-14.73204579914279
 20
-24.18913516016283
 30
0.0
 10
-14.72206468416099
 20
-24.11468256055071
 30
0.0
 10
-14.72069164938667
 20
-24.06390052140941
 30
0.0
 10
-14.71999198717953
 20
-24.03802333733982
 30
0.0
  0
SPLINE
  5
182
330
1F
100
AcDbEntity
  8
0
  6
Continuous
 62
     7
370
    15
100
AcDbSpline
210
0.0
220
0.0
230
1.0
 70
     8
 71
     3
 72
    23
 73
    19
 74
     0
 42
0.000000001
 43
0.00000001
 40
0.0
 40
0.0
 40
0.0
 40
0.0
 40
0.065351382026593
 40
0.1279160318306139
 40
0.1883602055716989
 40
0.2472160772654515
 40
0.3056301291974122
 40
0.3637698398318185
 40
0.422660913912779
 40
0.4826872940903906
 40
0.5433002212395596
 40
0.6041179553231041
 40
0.6649648912652848
 40
0.7274134941125656
 40
0.7914676251494238
 40
0.8580554427291011
 40
0.9270368146149487
 40
1.0
 40
1.0
 40
1.0
 40
1.0
 10
-14.71999198717953
 20
-24.03802333733982
 30
0.0
 10
-14.7205395442079
 20
-24.01467701292624
 30
0.0
 10
-14.72161130918206
 20
-23.96897990470595
 30
0.0
 10
-14.73036797984469
 20
-23.90212413601641
 30
0.0
 10
-14.74559941459357
 20
-23.83886577881681
 30
0.0
 10
-14.76674058143042
 20
-23.77889935925798
 30
0.0
 10
-14.79358252923033
 20
-23.72216831821024
 30
0.0
 10
-14.82638401631925
 20
-23.66861410684139
 30
0.0
 10
-14.86576062163299
 20
-23.61894258004782
 30
0.0
 10
-14.91074060279868
 20
-23.57313049826658
 30
0.0
 10
-14.96001648565432
 20
-23.53085056362507
 30
0.0
 10
-15.01443607399253
 20
-23.49480789173615
 30
0.0
 10
-15.07286054883351
 20
-23.46448640783165
 30
0.0
 10
-15.13458599553468
 20
-23.4383192687335
 30
0.0
 10
-15.20108061656243
 20
-23.41952567270799
 30
0.0
 10
-15.27102760193981
 20
-23.40541606796834
 30
0.0
 10
-15.34518228110761
 20
-23.39725412650314
 30
0.0
 10
-15.39588231165709
 20
-23.39612165146687
 30
0.0
 10
-15.42194344284193
 20
-23.39553952991461
 30
0.0
  0
SPLINE
  5
183
330
1F
100
AcDbEntity
  8
0
  6
Continuous
 62
     7
370
    15
100
AcDbSpline
210
0.0
220
0.0
230
1.0
 70
     8
 71
     3
 72
    15
 73
    11
 74
     0
 42
0.000000001
 43
0.00000001
 40
0.0
 40
0.0
 40
0.0
 40
0.0
 40
0.1022030370352194
 40
0.211023342373875
 40
0.3250996615652089
 40
0.4465020971348879
 40
0.5737877176488528
 40
0.7089007097660674
 40
0.8503578712933985
 40
1.0
 40
1.0
 40
1.0
 40
1.0
 10
-15.42194344284193
 20
-23.39553952991461
 30
0.0
 10
-15.44450243899822
 20
-23.39602231910934
 30
0.0
 10
-15.49108104280096
 20
-23.39701915631191
 30
0.0
 10
-15.56252996478952
 20
-23.40435880873238
 30
0.0
 10
-15.63761183205053
 20
-23.41619946011101
 30
0.0
 10
-15.71603882627196
 20
-23.43248635756009
 30
0.0
 10
-15.79804647497429
 20
-23.45379981841236
 30
0.0
 10
-15.88346171653144
 20
-23.47934038827779
 30
0.0
 10
-15.97246414298334
 20
-23.50987647887474
 30
0.0
 10
-16.03243346499825
 20
-23.53293713518671
 30
0.0
 10
-16.06326121794876
 20
-23.54479166666675
 30
0.0
  0
LINE
  5
184
330
1F
100
AcDbEntity
  8
0
  6
Continuous
 62
     7
370
    15
100
AcDbLine
 10
-17.8915998932
 20
-25.0
 30
0.0
 11
-17.9289129274
 21
-25.0
 31
0.0
  0
LINE
  5
185
330
1F
100
AcDbEntity
  8
0
  6
Continuous
 62
     7
370
    15
100
AcDbLine
 10
-17.9289129274
 20
-25.0
 30
0.0
 11
-19.1602430556
 21
-22.0895833333
 31
0.0
  0
LINE
  5
186
330
1F
100
AcDbEntity
  8
0
  6
Continuous
 62
     7
370
    15
100
AcDbLine
 10
-19.1602430556
 20
-22.0895833333
 30
0.0
 11
-18.8803952991
 21
-22.0895833333
 31
0.0
  0
LINE
  5
187
330
1F
100
AcDbEntity
  8
0
  6
Continuous
 62
     7
370
    15
100
AcDbLine
 10
-18.8803952991
 20
-22.0895833333
 30
0.0
 11
-17.9102564103
 21
-24.3831689036
 31
0.0
  0
LINE
  5
188
330
1F
100
AcDbEntity
  8
0
  6
Continuous
 62
     7
370
    15
100
AcDbLine
 10
-17.9102564103
 20
-24.3831689036
 30
0.0
 11
-16.9401175214
 21
-22.0895833333
 31
0.0
  0
LINE
  5
189
330
1F
100
AcDbEntity
  8
0
  6
Continuous
 62
     7
370
    15
100
AcDbLine
 10
-16.9401175214
 20
-22.0895833333
 30
0.0
 11
-16.660269765
 21
-22.0895833333
 31
0.0
  0
LINE
  5
18A
330
1F
100
AcDbEntity
  8
0
  6
Continuous
 62
     7
370
    15
100
AcDbLine
 10
-16.660269765
 20
-22.0895833333
 30
0.0
 11
-17.8915998932
 21
-25.0
 31
0.0
  0
LINE
  5
18B
330
1F
100
AcDbEntity
  8
0
  6
Continuous
 62
     7
370
    15
100
AcDbLine
 10
-20.8020165598
 20
-25.0
 30
0.0
 11
-21.0632077991
 21
-25.0
 31
0.0
  0
LINE
  5
18C
330
1F
100
AcDbEntity
  8
0
  6
Continuous
 62
     7
370
    15
100
AcDbLine
 10
-21.0632077991
 20
-25.0
 30
0.0
 11
-21.0632077991
 21
-22.0895833333
 31
0.0
  0
LINE
  5
18D
330
1F
100
AcDbEntity
  8
0
  6
Continuous
 62
     7
370
    15
100
AcDbLine
 10
-21.0632077991
 20
-22.0895833333
 30
0.0
 11
-20.8020165598
 21
-22.0895833333
 31
0.0
  0
LINE
  5
18E
330
1F
100
AcDbEntity
  8
0
  6
Continuous
 62
     7
370
    15
100
AcDbLine
 10
-20.8020165598
 20
-22.0895833333
 30
0.0
 11
-20.8020165598
 21
-25.0
 31
0.0
  0
LINE
  5
18F
330
1F
100
AcDbEntity
  8
0
  6
Continuous
 62
     7
370
    15
100
AcDbLine
 10
-21.8094684829
 20
-25.0
 30
0.0
 11
-22.0706597222
 21
-25.0
 31
0.0
  0
LINE
  5
190
330
1F
100
AcDbEntity
  8
0
  6
Continuous
 62
     7
370
    15
100
AcDbLine
 10
-22.0706597222
 20
-25.0
 30
0.0
 11
-22.0706597222
 21
-22.0895833333
 31
0.0
  0
LINE
  5
191
330
1F
100
AcDbEntity
  8
0
  6
Continuous
 62
     7
370
    15
100
AcDbLine
 10
-22.0706597222
 20
-22.0895833333
 30
0.0
 11
-21.8094684829
 21
-22.0895833333
 31
0.0
  0
LINE
  5
192
330
1F
100
AcDbEntity
  8
0
  6
Continuous
 62
     7
370
    15
100
AcDbLine
 10
-21.8094684829
 20
-22.0895833333
 30
0.0
 11
-21.8094684829
 21
-25.0
 31
0.0
  0
LINE
  5
193
330
1F
100
AcDbEntity
  8
0
  6
Continuous
 62
     7
370
    15
100
AcDbLine
 10
-22.816920406
 20
-25.0
 30
0.0
 11
-23.0781116453
 21
-25.0
 31
0.0
  0
LINE
  5
194
330
1F
100
AcDbEntity
  8
0
  6
Continuous
 62
     7
370
    15
100
AcDbLine
 10
-23.0781116453
 20
-25.0
 30
0.0
 11
-23.0781116453
 21
-22.0895833333
 31
0.0
  0
LINE
  5
195
330
1F
100
AcDbEntity
  8
0
  6
Continuous
 62
     7
370
    15
100
AcDbLine
 10
-23.0781116453
 20
-22.0895833333
 30
0.0
 11
-22.816920406
 21
-22.0895833333
 31
0.0
  0
LINE
  5
196
330
1F
100
AcDbEntity
  8
0
  6
Continuous
 62
     7
370
    15
100
AcDbLine
 10
-22.816920406
 20
-22.0895833333
 30
0.0
 11
-22.816920406
 21
-25.0
 31
0.0
  0
SPLINE
  5
197
330
1F
100
AcDbEntity
  8
0
  6
Continuous
 62
     7
370
    15
100
AcDbSpline
210
0.0
220
0.0
230
1.0
 70
     8
 71
     3
 72
    15
 73
    11
 74
     0
 42
0.000000001
 43
0.00000001
 40
0.0
 40
0.0
 40
0.0
 40
0.0
 40
0.1277566033101267
 40
0.2494143553365321
 40
0.3727964764553918
 40
0.5001113325158555
 40
0.6286099407651099
 40
0.750643373825811
 40
0.8737683791425161
 40
1.0
 40
1.0
 40
1.0
 40
1.0
 10
-23.95496794871793
 20
-25.03731303418811
 30
0.0
 10
-23.97120466907251
 20
-25.03644523344158
 30
0.0
 10
-24.0029030003923
 20
-25.03475105906507
 30
0.0
 10
-24.04846016345153
 20
-25.0204793683682
 30
0.0
 10
-24.09037595815659
 20
-24.99817438386782
 30
0.0
 10
-24.12761907321407
 20
-24.96718517401836
 30
0.0
 10
-24.15800255226683
 20
-24.92976541192086
 30
0.0
 10
-24.18097437360351
 20
-24.88802022762602
 30
0.0
 10
-24.19476987246497
 20
-24.84246685377562
 30
0.0
 10
-24.19658420348616
 20
-24.81080597517566
 30
0.0
 10
-24.19750267094015
 20
-24.79477831196589
 30
0.0
  0
SPLINE
  5
198
330
1F
100
AcDbEntity
  8
0
  6
Continuous
 62
     7
370
    15
100
AcDbSpline
210
0.0
220
0.0
230
1.0
 70
     8
 71
     3
 72
    15
 73
    11
 74
     0
 42
0.000000001
 43
0.00000001
 40
0.0
 40
0.0
 40
0.0
 40
0.0
 40
0.1290969581672274
 40
0.2520459672599774
 40
0.3739049644019982
 40
0.5010378352202083
 40
0.6281707060384126
 40
0.7513764634091886
 40
0.8724260133704588
 40
1.0
 40
1.0
 40
1.0
 40
1.0
 10
-24.19750267094015
 20
-24.79477831196589
 30
0.0
 10
-24.19661948483307
 20
-24.77835576234211
 30
0.0
 10
-24.19489517234895
 20
-24.74629274967655
 30
0.0
 10
-24.18094541200861
 20
-24.70039206328016
 30
0.0
 10
-24.15818078818067
 20
-24.65867461707046
 30
0.0
 10
-24.127409040083
 20
-24.62175674657479
 30
0.0
 10
-24.09038496784716
 20
-24.59083373358433
 30
0.0
 10
-24.04856127818428
 20
-24.56832806928898
 30
0.0
 10
-24.00279327949102
 20
-24.55498970272747
 30
0.0
 10
-23.97118620570264
 20
-24.55317483612212
 30
0.0
 10
-23.95496794871793
 20
-24.55224358974367
 30
0.0
  0
SPLINE
  5
199
330
1F
100
AcDbEntity
  8
0
  6
Continuous
 62
     7
370
    15
100
AcDbSpline
210
0.0
220
0.0
230
1.0
 70
     8
 71
     3
 72
    15
 73
    11
 74
     0
 42
0.000000001
 43
0.00000001
 40
0.0
 40
0.0
 40
0.0
 40
0.0
 40
0.1275189266999399
 40
0.2499859477488076
 40
0.3717923515057489
 40
0.4988703527764679
 40
0.6259483540471927
 40
0.7484917380160565
 40
0.8709587590649154
 40
1.0
 40
1.0
 40
1.0
 40
1.0
 10
-23.95496794871793
 20
-24.55224358974367
 30
0.0
 10
-23.93876090919076
 20
-24.55320666049424
 30
0.0
 10
-23.90698890293842
 20
-24.55509464810959
 30
0.0
 10
-23.86105493730906
 20
-24.56804739408736
 30
0.0
 10
-23.81948199705921
 20
-24.59104688734859
 30
0.0
 10
-23.78245131493595
 20
-24.62170004292685
 30
0.0
 10
-23.75192813177859
 20
-24.65886661518476
 30
0.0
 10
-23.72810898896755
 20
-24.70010797500882
 30
0.0
 10
-23.71526907447879
 20
-24.74642650169502
 30
0.0
 10
-23.71339483947912
 20
-24.77838260641128
 30
0.0
 10
-23.7124332264957
 20
-24.79477831196589
 30
0.0
  0
SPLINE
  5
19A
330
1F
100
AcDbEntity
  8
0
  6
Continuous
 62
     7
370
    15
100
AcDbSpline
210
0.0
220
0.0
230
1.0
 70
     8
 71
     3
 72
    15
 73
    11
 74
     0
 42
0.000000001
 43
0.00000001
 40
0.0
 40
0.0
 40
0.0
 40
0.0
 40
0.126177718317003
 40
0.2488206074857903
 40
0.3715399692351511
 40
0.4999837069108849
 40
0.6272441978753766
 40
0.7492255210762669
 40
0.8722979504176542
 40
1.0
 40
1.0
 40
1.0
 40
1.0
 10
-23.7124332264957
 20
-24.79477831196589
 30
0.0
 10
-23.71342742544894
 20
-24.81078005701243
 30
0.0
 10
-23.715387971184
 20
-24.84233526324394
 30
0.0
 10
-23.72807955663411
 20
-24.88830443186632
 30
0.0
 10
-23.75210966149803
 20
-24.92957156611912
 30
0.0
 10
-23.78224078358879
 20
-24.96724245121749
 30
0.0
 10
-23.81949115125594
 20
-24.99796054421727
 30
0.0
 10
-23.86115322235865
 20
-25.02076436123576
 30
0.0
 10
-23.90688107214759
 20
-25.03464453738659
 30
0.0
 10
-23.93874291959846
 20
-25.03641265467923
 30
0.0
 10
-23.95496794871793
 20
-25.03731303418811
 30
0.0
  0
LINE
  5
19B
330
1F
100
AcDbEntity
  8
0
  6
Continuous
 62
     7
370
    15
100
AcDbLine
 10
-25.988528312
 20
-25.0
 30
0.0
 11
-26.2497195513
 21
-25.0
 31
0.0
  0
LINE
  5
19C
330
1F
100
AcDbEntity
  8
0
  6
Continuous
 62
     7
370
    15
100
AcDbLine
 10
-26.2497195513
 20
-25.0
 30
0.0
 11
-26.2497195513
 21
-22.014957265
 31
0.0
  0
LINE
  5
19D
330
1F
100
AcDbEntity
  8
0
  6
Continuous
 62
     7
370
    15
100
AcDbLine
 10
-26.2497195513
 20
-22.014957265
 30
0.0
 11
-25.988528312
 21
-22.014957265
 31
0.0
  0
LINE
  5
19E
330
1F
100
AcDbEntity
  8
0
  6
Continuous
 62
     7
370
    15
100
AcDbLine
 10
-25.988528312
 20
-22.014957265
 30
0.0
 11
-25.988528312
 21
-23.7406850962
 31
0.0
  0
LINE
  5
19F
330
1F
100
AcDbEntity
  8
0
  6
Continuous
 62
     7
370
    15
100
AcDbLine
 10
-25.988528312
 20
-23.7406850962
 30
0.0
 11
-25.0207214877
 21
-22.8731570513
 31
0.0
  0
LINE
  5
1A0
330
1F
100
AcDbEntity
  8
0
  6
Continuous
 62
     7
370
    15
100
AcDbLine
 10
-25.0207214877
 20
-22.8731570513
 30
0.0
 11
-24.6452590812
 21
-22.8731570513
 31
0.0
  0
LINE
  5
1A1
330
1F
100
AcDbEntity
  8
0
  6
Continuous
 62
     7
370
    15
100
AcDbLine
 10
-24.6452590812
 20
-22.8731570513
 30
0.0
 11
-25.7681482038
 21
-23.8806089744
 31
0.0
  0
LINE
  5
1A2
330
1F
100
AcDbEntity
  8
0
  6
Continuous
 62
     7
370
    15
100
AcDbLine
 10
-25.7681482038
 20
-23.8806089744
 30
0.0
 11
-24.5333199786
 21
-25.0
 31
0.0
  0
LINE
  5
1A3
330
1F
100
AcDbEntity
  8
0
  6
Continuous
 62
     7
370
    15
100
AcDbLine
 10
-24.5333199786
 20
-25.0
 30
0.0
 11
-24.908199369
 21
-25.0
 31
0.0
  0
LINE
  5
1A4
330
1F
100
AcDbEntity
  8
0
  6
Continuous
 62
     7
370
    15
100
AcDbLine
 10
-24.908199369
 20
-25.0
 30
0.0
 11
-25.988528312
 21
-24.0199498364
 31
0.0
  0
LINE
  5
1A5
330
1F
100
AcDbEntity
  8
0
  6
Continuous
 62
     7
370
    15
100
AcDbLine
 10
-25.988528312
 20
-24.0199498364
 30
0.0
 11
-25.988528312
 21
-25.0
 31
0.0
  0
MTEXT
  5
1A7
330
1F
100
AcDbEntity
  8
0
  6
Continuous
 62
     7
100
AcDbMText
 10
-169.4
 20
-31.0195663917
 30
0.0
 40
4.83362
 41
0.0
 71
     1
 72
     1
  1
SOLIDWORKS Educational Product.
  7
SLDTEXTSTYLE0
 73
     1
 44
1.0
  0
MTEXT
  5
1A8
330
1F
100
AcDbEntity
  8
0
  6
Continuous
 62
     7
100
AcDbMText
 10
-169.4
 20
-38.2699963917
 30
0.0
 40
4.83362
 41
0.0
 71
     1
 72
     1
  1
For Instructional Use Only.
  7
SLDTEXTSTYLE0
 73
     1
 44
1.0
  0
ENDSEC
  0
SECTION
  2
OBJECTS
  0
DICTIONARY
  5
C
330
0
100
AcDbDictionary
281
     1
  3
ACAD_GROUP
350
D
  3
ACAD_LAYOUT
350
1A
  3
ACAD_MLINESTYLE
350
17
  3
ACAD_PLOTSETTINGS
350
19
  3
ACAD_PLOTSTYLENAME
350
E
  3
ACAD_SCALELIST
350
47
  0
DICTIONARY
  5
D
102
{ACAD_REACTORS
330
C
102
}
330
C
100
AcDbDictionary
281
     1
  0
DICTIONARY
  5
1A
102
{ACAD_REACTORS
330
C
102
}
330
C
100
AcDbDictionary
281
     1
  3
Layout1
350
1E
  3
Layout2
350
26
  3
Model
350
22
  0
DICTIONARY
  5
17
102
{ACAD_REACTORS
330
C
102
}
330
C
100
AcDbDictionary
281
     1
  3
Standard
350
18
  0
DICTIONARY
  5
19
102
{ACAD_REACTORS
330
C
102
}
330
C
100
AcDbDictionary
281
     1
  0
ACDBDICTIONARYWDFLT
  5
E
102
{ACAD_REACTORS
330
C
102
}
330
C
100
AcDbDictionary
281
     1
  3
Normal
350
F
100
AcDbDictionaryWithDefault
340
F
  0
DICTIONARY
  5
47
102
{ACAD_REACTORS
330
C
102
}
330
C
100
AcDbDictionary
281
     1
  3
A0
350
48
  3
A1
350
49
  3
A2
350
4A
  3
A3
350
4B
  3
A4
350
4C
  3
A5
350
4D
  3
A6
350
4E
  3
A7
350
4F
  3
A8
350
50
  3
A9
350
51
  3
B0
350
52
  3
B1
350
53
  3
B2
350
54
  3
B3
350
55
  3
B4
350
56
  3
B5
350
57
  3
B6
350
58
  3
B7
350
59
  3
B8
350
5A
  3
B9
350
5B
  3
C0
350
5C
  3
C1
350
5D
  3
C2
350
5E
  3
C3
350
5F
  3
C4
350
60
  3
C5
350
61
  3
C6
350
62
  3
C7
350
63
  3
C8
350
64
  3
C9
350
65
  3
D0
350
66
  3
D1
350
67
  3
D2
350
68
  0
LAYOUT
  5
1E
102
{ACAD_REACTORS
330
1A
102
}
330
1A
100
AcDbPlotSettings
  1

  2
none_device
  4

  6

 40
0.0
 41
0.0
 42
0.0
 43
0.0
 44
0.0
 45
0.0
 46
0.0
 47
0.0
 48
0.0
 49
0.0
140
0.0
141
0.0
142
1.0
143
1.0
 70
   688
 72
     1
 73
     0
 74
     5
  7

 75
    16
147
1.0
148
0.0
149
0.0
100
AcDbLayout
  1
Layout1
 70
     1
 71
     1
 10
0.0
 20
0.0
 11
420.0
 21
297.0
 12
0.0
 22
0.0
 32
0.0
 14
1.0000000000E+20
 24
1.0000000000E+20
 34
1.0000000000E+20
 15
-1.0000000000E+20
 25
-1.0000000000E+20
 35
-1.0000000000E+20
146
0.0
 13
0.0
 23
0.0
 33
0.0
 16
1.0
 26
0.0
 36
0.0
 17
0.0
 27
1.0
 37
0.0
 76
     0
330
1B
  0
LAYOUT
  5
26
102
{ACAD_REACTORS
330
1A
102
}
330
1A
100
AcDbPlotSettings
  1

  2
none_device
  4

  6

 40
0.0
 41
0.0
 42
0.0
 43
0.0
 44
0.0
 45
0.0
 46
0.0
 47
0.0
 48
0.0
 49
0.0
140
0.0
141
0.0
142
1.0
143
1.0
 70
   688
 72
     1
 73
     0
 74
     5
  7

 75
    16
147
1.0
148
0.0
149
0.0
100
AcDbLayout
  1
Layout2
 70
     1
 71
     2
 10
0.0
 20
0.0
 11
0.0
 21
0.0
 12
0.0
 22
0.0
 32
0.0
 14
0.0
 24
0.0
 34
0.0
 15
0.0
 25
0.0
 35
0.0
146
0.0
 13
0.0
 23
0.0
 33
0.0
 16
1.0
 26
0.0
 36
0.0
 17
0.0
 27
1.0
 37
0.0
 76
     0
330
23
  0
LAYOUT
  5
22
102
{ACAD_REACTORS
330
1A
102
}
330
1A
100
AcDbPlotSettings
  1

  2
none_device
  4
ANSI_A_(11.00_x_8.50_Inches)
  6

 40
6.35
 41
19.05
 42
6.35000508
 43
19.05000254
 44
279.4
 45
215.9
 46
133.34999746
 47
88.89999873
 48
0.0
 49
0.0
140
0.0
141
0.0
142
0.0321428571
143
1.0
 70
  1696
 72
     0
 73
     0
 74
     0
  7

 75
     0
147
0.0179189148
148
-1300.4909072572
149
0.0
100
AcDbLayout
  1
Model
 70
     1
 71
     0
 10
0.0
 20
0.0
 11
420.0
 21
297.0
 12
0.0
 22
0.0
 32
0.0
 14
-169.4
 24
-30.0
 34
0.0
 15
169.4
 25
30.0
 35
0.0
146
0.0
 13
0.0
 23
0.0
 33
0.0
 16
1.0
 26
0.0
 36
0.0
 17
0.0
 27
1.0
 37
0.0
 76
     0
330
1F
331
29
  0
MLINESTYLE
  5
18
102
{ACAD_REACTORS
330
17
102
}
330
17
100
AcDbMlineStyle
  2
Standard
 70
     0
  3

 62
   256
 51
90.0
 52
90.0
 71
     2
 49
0.5
 62
   256
  6
BYLAYER
 49
-0.5
 62
   256
  6
BYLAYER
  0
ACDBPLACEHOLDER
  5
F
102
{ACAD_REACTORS
330
E
102
}
330
E
  0
SCALE
  5
48
102
{ACAD_REACTORS
330
47
102
}
330
47
100
AcDbScale
 70
     0
300
1:1
140
1.0
141
1.0
290
     1
  0
SCALE
  5
49
102
{ACAD_REACTORS
330
47
102
}
330
47
100
AcDbScale
 70
     0
300
1:2
140
1.0
141
2.0
290
     0
  0
SCALE
  5
4A
102
{ACAD_REACTORS
330
47
102
}
330
47
100
AcDbScale
 70
     0
300
1:4
140
1.0
141
4.0
290
     0
  0
SCALE
  5
4B
102
{ACAD_REACTORS
330
47
102
}
330
47
100
AcDbScale
 70
     0
300
1:5
140
1.0
141
5.0
290
     0
  0
SCALE
  5
4C
102
{ACAD_REACTORS
330
47
102
}
330
47
100
AcDbScale
 70
     0
300
1:8
140
1.0
141
8.0
290
     0
  0
SCALE
  5
4D
102
{ACAD_REACTORS
330
47
102
}
330
47
100
AcDbScale
 70
     0
300
1:10
140
1.0
141
10.0
290
     0
  0
SCALE
  5
4E
102
{ACAD_REACTORS
330
47
102
}
330
47
100
AcDbScale
 70
     0
300
1:16
140
1.0
141
16.0
290
     0
  0
SCALE
  5
4F
102
{ACAD_REACTORS
330
47
102
}
330
47
100
AcDbScale
 70
     0
300
1:20
140
1.0
141
20.0
290
     0
  0
SCALE
  5
50
102
{ACAD_REACTORS
330
47
102
}
330
47
100
AcDbScale
 70
     0
300
1:30
140
1.0
141
30.0
290
     0
  0
SCALE
  5
51
102
{ACAD_REACTORS
330
47
102
}
330
47
100
AcDbScale
 70
     0
300
1:40
140
1.0
141
40.0
290
     0
  0
SCALE
  5
52
102
{ACAD_REACTORS
330
47
102
}
330
47
100
AcDbScale
 70
     0
300
1:50
140
1.0
141
50.0
290
     0
  0
SCALE
  5
53
102
{ACAD_REACTORS
330
47
102
}
330
47
100
AcDbScale
 70
     0
300
1:100
140
1.0
141
100.0
290
     0
  0
SCALE
  5
54
102
{ACAD_REACTORS
330
47
102
}
330
47
100
AcDbScale
 70
     0
300
2:1
140
2.0
141
1.0
290
     0
  0
SCALE
  5
55
102
{ACAD_REACTORS
330
47
102
}
330
47
100
AcDbScale
 70
     0
300
4:1
140
4.0
141
1.0
290
     0
  0
SCALE
  5
56
102
{ACAD_REACTORS
330
47
102
}
330
47
100
AcDbScale
 70
     0
300
8:1
140
8.0
141
1.0
290
     0
  0
SCALE
  5
57
102
{ACAD_REACTORS
330
47
102
}
330
47
100
AcDbScale
 70
     0
300
10:1
140
10.0
141
1.0
290
     0
  0
SCALE
  5
58
102
{ACAD_REACTORS
330
47
102
}
330
47
100
AcDbScale
 70
     0
300
100:1
140
100.0
141
1.0
290
     0
  0
SCALE
  5
59
102
{ACAD_REACTORS
330
47
102
}
330
47
100
AcDbScale
 70
     0
300
1/128" = 1'-0"
140
0.0078125
141
12.0
290
     0
  0
SCALE
  5
5A
102
{ACAD_REACTORS
330
47
102
}
330
47
100
AcDbScale
 70
     0
300
1/64" = 1'-0"
140
0.015625
141
12.0
290
     0
  0
SCALE
  5
5B
102
{ACAD_REACTORS
330
47
102
}
330
47
100
AcDbScale
 70
     0
300
1/32" = 1'-0"
140
0.03125
141
12.0
290
     0
  0
SCALE
  5
5C
102
{ACAD_REACTORS
330
47
102
}
330
47
100
AcDbScale
 70
     0
300
1/16" = 1'-0"
140
0.0625
141
12.0
290
     0
  0
SCALE
  5
5D
102
{ACAD_REACTORS
330
47
102
}
330
47
100
AcDbScale
 70
     0
300
3/32" = 1'-0"
140
0.09375
141
12.0
290
     0
  0
SCALE
  5
5E
102
{ACAD_REACTORS
330
47
102
}
330
47
100
AcDbScale
 70
     0
300
1/8" = 1'-0"
140
0.125
141
12.0
290
     0
  0
SCALE
  5
5F
102
{ACAD_REACTORS
330
47
102
}
330
47
100
AcDbScale
 70
     0
300
3/16" = 1'-0"
140
0.1875
141
12.0
290
     0
  0
SCALE
  5
60
102
{ACAD_REACTORS
330
47
102
}
330
47
100
AcDbScale
 70
     0
300
1/4" = 1'-0"
140
0.25
141
12.0
290
     0
  0
SCALE
  5
61
102
{ACAD_REACTORS
330
47
102
}
330
47
100
AcDbScale
 70
     0
300
3/8" = 1'-0"
140
0.375
141
12.0
290
     0
  0
SCALE
  5
62
102
{ACAD_REACTORS
330
47
102
}
330
47
100
AcDbScale
 70
     0
300
1/2" = 1'-0"
140
0.5
141
12.0
290
     0
  0
SCALE
  5
63
102
{ACAD_REACTORS
330
47
102
}
330
47
100
AcDbScale
 70
     0
300
3/4" = 1'-0"
140
0.75
141
12.0
290
     0
  0
SCALE
  5
64
102
{ACAD_REACTORS
330
47
102
}
330
47
100
AcDbScale
 70
     0
300
1" = 1'-0"
140
1.0
141
12.0
290
     0
  0
SCALE
  5
65
102
{ACAD_REACTORS
330
47
102
}
330
47
100
AcDbScale
 70
     0
300
1-1/2" = 1'-0"
140
1.5
141
12.0
290
     0
  0
SCALE
  5
66
102
{ACAD_REACTORS
330
47
102
}
330
47
100
AcDbScale
 70
     0
300
3" = 1'-0"
140
3.0
141
12.0
290
     0
  0
SCALE
  5
67
102
{ACAD_REACTORS
330
47
102
}
330
47
100
AcDbScale
 70
     0
300
6" = 1'-0"
140
6.0
141
12.0
290
     0
  0
SCALE
  5
68
102
{ACAD_REACTORS
330
47
102
}
330
47
100
AcDbScale
 70
     0
300
1'-0" = 1'-0"
140
12.0
141
12.0
290
     0
  0
ENDSEC
  0
EOF
