  0
SECTION
  2
HEADER
  9
$ACADVER
  1
AC1015
  9
$ACADMAINTVER
 70
     6
  9
$DWGCODEPAGE
  3
ANSI_1252
  9
$INSBASE
 10
0.0
 20
0.0
 30
0.0
  9
$EXTMIN
 10
0.0
 20
0.0
 30
0.0
  9
$EXTMAX
 10
338.8
 20
130.0
 30
0.0
  9
$LIMMIN
 10
0.0
 20
0.0
  9
$LIMMAX
 10
420.0
 20
297.0
  9
$ORTHOMODE
 70
     0
  9
$REGENMODE
 70
     1
  9
$FILLMODE
 70
     1
  9
$QTEXTMODE
 70
     0
  9
$MIRRTEXT
 70
     1
  9
$LTSCALE
 40
1.0
  9
$ATTMODE
 70
     1
  9
$TEXTSIZE
 40
6.35
  9
$TRACEWID
 40
1.0
  9
$TEXTSTYLE
  7
Standard
  9
$CLAYER
  8
0
  9
$CELTYPE
  6
ByLayer
  9
$CECOLOR
 62
   256
  9
$CELTSCALE
 40
1.0
  9
$DISPSILH
 70
     0
  9
$DIMSCALE
 40
1.0
  9
$DIMASZ
 40
5.9944
  9
$DIMEXO
 40
0.9906
  9
$DIMDLI
 40
3.75
  9
$DIMRND
 40
0.0
  9
$DIMDLE
 40
0.0
  9
$DIMEXE
 40
0.9906
  9
$DIMTP
 40
0.0
  9
$DIMTM
 40
0.0
  9
$DIMTXT
 40
6.35
  9
$DIMCEN
 40
2.5
  9
$DIMTSZ
 40
0.0
  9
$DIMTOL
 70
     0
  9
$DIMLIM
 70
     0
  9
$DIMTIH
 70
     1
  9
$DIMTOH
 70
     1
  9
$DIMSE1
 70
     0
  9
$DIMSE2
 70
     0
  9
$DIMTAD
 70
     1
  9
$DIMZIN
 70
     0
  9
$DIMBLK
  1

  9
$DIMASO
 70
     1
  9
$DIMSHO
 70
     1
  9
$DIMPOST
  1

  9
$DIMAPOST
  1

  9
$DIMALT
 70
     0
  9
$DIMALTD
 70
     3
  9
$DIMALTF
 40
0.0393700787
  9
$DIMLFAC
 40
1.0
  9
$DIMTOFL
 70
     1
  9
$DIMTVP
 40
0.0
  9
$DIMTIX
 70
     0
  9
$DIMSOXD
 70
     0
  9
$DIMSAH
 70
     0
  9
$DIMBLK1
  1

  9
$DIMBLK2
  1

  9
$DIMSTYLE
  2
ISO-25
  9
$DIMCLRD
 70
     0
  9
$DIMCLRE
 70
     0
  9
$DIMCLRT
 70
     0
  9
$DIMTFAC
 40
1.0
  9
$DIMGAP
 40
1.524
  9
$DIMJUST
 70
     0
  9
$DIMSD1
 70
     0
  9
$DIMSD2
 70
     0
  9
$DIMTOLJ
 70
     0
  9
$DIMTZIN
 70
     0
  9
$DIMALTZ
 70
     0
  9
$DIMALTTZ
 70
     0
  9
$DIMUPT
 70
     0
  9
$DIMDEC
 70
     2
  9
$DIMTDEC
 70
     2
  9
$DIMALTU
 70
     2
  9
$DIMALTTD
 70
     3
  9
$DIMTXSTY
  7
Standard
  9
$DIMAUNIT
 70
     0
  9
$DIMADEC
 70
     2
  9
$DIMALTRND
 40
0.0
  9
$DIMAZIN
 70
     0
  9
$DIMDSEP
 70
    44
  9
$DIMATFIT
 70
     3
  9
$DIMFRAC
 70
     0
  9
$DIMLDRBLK
  1

  9
$DIMLUNIT
 70
     2
  9
$DIMLWD
 70
    -2
  9
$DIMLWE
 70
    -2
  9
$DIMTMOVE
 70
     0
  9
$LUNITS
 70
     2
  9
$LUPREC
 70
     2
  9
$SKETCHINC
 40
1.0
  9
$FILLETRAD
 40
10.0
  9
$AUNITS
 70
     0
  9
$AUPREC
 70
     2
  9
$MENU
  1
.
  9
$ELEVATION
 40
0.0
  9
$PELEVATION
 40
0.0
  9
$THICKNESS
 40
0.0
  9
$LIMCHECK
 70
     0
  9
$CHAMFERA
 40
0.0
  9
$CHAMFERB
 40
0.0
  9
$CHAMFERC
 40
0.0
  9
$CHAMFERD
 40
0.0
  9
$SKPOLY
 70
     0
  9
$TDCREATE
 40
2458001.597714792
  9
$TDUCREATE
 40
2458001.556048125
  9
$TDUPDATE
 40
2458001.597739884
  9
$TDUUPDATE
 40
2458001.556073218
  9
$TDINDWG
 40
0.0000000116
  9
$TDUSRTIMER
 40
0.0000000116
  9
$USRTIMER
 70
     1
  9
$ANGBASE
 50
0.0
  9
$ANGDIR
 70
     0
  9
$PDMODE
 70
     0
  9
$PDSIZE
 40
-1.0
  9
$PLINEWID
 40
0.0
  9
$SPLFRAME
 70
     0
  9
$SPLINETYPE
 70
     6
  9
$SPLINESEGS
 70
     8
  9
$HANDSEED
  5
13C
  9
$SURFTAB1
 70
     6
  9
$SURFTAB2
 70
     6
  9
$SURFTYPE
 70
     6
  9
$SURFU
 70
     6
  9
$SURFV
 70
     6
  9
$UCSBASE
  2

  9
$UCSNAME
  2

  9
$UCSORG
 10
0.0
 20
0.0
 30
0.0
  9
$UCSXDIR
 10
1.0
 20
0.0
 30
0.0
  9
$UCSYDIR
 10
0.0
 20
1.0
 30
0.0
  9
$UCSORTHOREF
  2

  9
$UCSORTHOVIEW
 70
     0
  9
$UCSORGTOP
 10
0.0
 20
0.0
 30
0.0
  9
$UCSORGBOTTOM
 10
0.0
 20
0.0
 30
0.0
  9
$UCSORGLEFT
 10
0.0
 20
0.0
 30
0.0
  9
$UCSORGRIGHT
 10
0.0
 20
0.0
 30
0.0
  9
$UCSORGFRONT
 10
0.0
 20
0.0
 30
0.0
  9
$UCSORGBACK
 10
0.0
 20
0.0
 30
0.0
  9
$PUCSBASE
  2

  9
$PUCSNAME
  2

  9
$PUCSORG
 10
0.0
 20
0.0
 30
0.0
  9
$PUCSXDIR
 10
1.0
 20
0.0
 30
0.0
  9
$PUCSYDIR
 10
0.0
 20
1.0
 30
0.0
  9
$PUCSORTHOREF
  2

  9
$PUCSORTHOVIEW
 70
     0
  9
$PUCSORGTOP
 10
0.0
 20
0.0
 30
0.0
  9
$PUCSORGBOTTOM
 10
0.0
 20
0.0
 30
0.0
  9
$PUCSORGLEFT
 10
0.0
 20
0.0
 30
0.0
  9
$PUCSORGRIGHT
 10
0.0
 20
0.0
 30
0.0
  9
$PUCSORGFRONT
 10
0.0
 20
0.0
 30
0.0
  9
$PUCSORGBACK
 10
0.0
 20
0.0
 30
0.0
  9
$USERI1
 70
     0
  9
$USERI2
 70
     0
  9
$USERI3
 70
     0
  9
$USERI4
 70
     0
  9
$USERI5
 70
     0
  9
$USERR1
 40
0.0
  9
$USERR2
 40
0.0
  9
$USERR3
 40
0.0
  9
$USERR4
 40
0.0
  9
$USERR5
 40
0.0
  9
$WORLDVIEW
 70
     1
  9
$SHADEDGE
 70
     3
  9
$SHADEDIF
 70
    70
  9
$TILEMODE
 70
     1
  9
$MAXACTVP
 70
    64
  9
$PINSBASE
 10
0.0
 20
0.0
 30
0.0
  9
$PLIMCHECK
 70
     0
  9
$PEXTMIN
 10
1.0000000000E+20
 20
1.0000000000E+20
 30
1.0000000000E+20
  9
$PEXTMAX
 10
-1.0000000000E+20
 20
-1.0000000000E+20
 30
-1.0000000000E+20
  9
$PLIMMIN
 10
0.0
 20
0.0
  9
$PLIMMAX
 10
420.0
 20
297.0
  9
$UNITMODE
 70
     0
  9
$VISRETAIN
 70
     1
  9
$PLINEGEN
 70
     0
  9
$PSLTSCALE
 70
     1
  9
$TREEDEPTH
 70
  3020
  9
$CMLSTYLE
  2
Standard
  9
$CMLJUST
 70
     0
  9
$CMLSCALE
 40
20.0
  9
$PROXYGRAPHICS
 70
     1
  9
$MEASUREMENT
 70
     1
  9
$CELWEIGHT
370
    -1
  9
$ENDCAPS
280
     0
  9
$JOINSTYLE
280
     0
  9
$LWDISPLAY
290
     1
  9
$INSUNITS
 70
     4
  9
$HYPERLINKBASE
  1

  9
$STYLESHEET
  1

  9
$XEDIT
290
     1
  9
$CEPSNTYPE
380
     0
  9
$PSTYLEMODE
290
     1
  9
$FINGERPRINTGUID
  2
{C0639A3E-47DF-4699-B2F8-A07FF5F8A1C6}
  9
$VERSIONGUID
  2
{FAEB1C32-E019-11D5-929B-00C0DF256EC4}
  9
$EXTNAMES
290
     1
  9
$PSVPSCALE
 40
0.0
  9
$OLESTARTUP
290
     0
  0
ENDSEC
  0
SECTION
  2
CLASSES
  0
CLASS
  1
ACDBDICTIONARYWDFLT
  2
AcDbDictionaryWithDefault
  3
ObjectDBX Classes
 90
        0
280
     0
281
     0
  0
CLASS
  1
VISUALSTYLE
  2
AcDbVisualStyle
  3
ObjectDBX Classes
 90
     4095
280
     0
281
     0
  0
CLASS
  1
MATERIAL
  2
AcDbMaterial
  3
ObjectDBX Classes
 90
     1153
280
     0
281
     0
  0
CLASS
  1
SCALE
  2
AcDbScale
  3
ObjectDBX Classes
 90
     1153
280
     0
281
     0
  0
CLASS
  1
TABLESTYLE
  2
AcDbTableStyle
  3
ObjectDBX Classes
 90
     4095
280
     0
281
     0
  0
CLASS
  1
MLEADERSTYLE
  2
AcDbMLeaderStyle
  3
ACDB_MLEADERSTYLE_CLASS
 90
     4095
280
     0
281
     0
  0
CLASS
  1
SUN
  2
AcDbSun
  3
SCENEOE
 90
     1153
280
     0
281
     0
  0
CLASS
  1
ACDBPLACEHOLDER
  2
AcDbPlaceHolder
  3
ObjectDBX Classes
 90
        0
280
     0
281
     0
  0
CLASS
  1
LAYOUT
  2
AcDbLayout
  3
ObjectDBX Classes
 90
        0
280
     0
281
     0
  0
ENDSEC
  0
SECTION
  2
TABLES
  0
TABLE
  2
VPORT
  5
8
330
0
100
AcDbSymbolTable
 70
     1
  0
VPORT
  5
29
330
8
100
AcDbSymbolTableRecord
100
AcDbViewportTableRecord
  2
*Active
 70
     0
 10
0.0
 20
0.0
 11
1.0
 21
1.0
 12
169.4
 22
65.0
 13
0.0
 23
0.0
 14
10.0
 24
10.0
 15
10.0
 25
10.0
 16
0.0
 26
0.0
 36
1.0
 17
0.0
 27
0.0
 37
0.0
 40
132.6
 41
2.6061538462
 42
50.0
 43
0.0
 44
0.0
 50
0.0
 51
0.0
 71
     0
 72
   100
 73
     1
 74
     3
 75
     0
 76
     0
 77
     0
 78
     0
281
     0
 65
     1
110
0.0
120
0.0
130
0.0
111
1.0
121
0.0
131
0.0
112
0.0
122
1.0
132
0.0
 79
     0
146
0.0
  0
ENDTAB
  0
TABLE
  2
LTYPE
  5
5
330
0
100
AcDbSymbolTable
 70
     6
  0
LTYPE
  5
14
330
5
100
AcDbSymbolTableRecord
100
AcDbLinetypeTableRecord
  2
ByBlock
 70
     0
  3

 72
    65
 73
     0
 40
0.0
  0
LTYPE
  5
15
330
5
100
AcDbSymbolTableRecord
100
AcDbLinetypeTableRecord
  2
ByLayer
 70
     0
  3

 72
    65
 73
     0
 40
0.0
  0
LTYPE
  5
16
330
5
100
AcDbSymbolTableRecord
100
AcDbLinetypeTableRecord
  2
Continuous
 70
     0
  3
Solid line
 72
    65
 73
     0
 40
0.0
  0
LTYPE
  5
6E
330
5
100
AcDbSymbolTableRecord
100
AcDbLinetypeTableRecord
  2
HIDDEN
 70
     0
  3
Hidden __ __ __ __ __ __ __ __ __ __ __ __ __ __
 72
    65
 73
     2
 40
1.905
 49
1.27
 74
     0
 49
-0.635
 74
     0
  0
LTYPE
  5
6F
330
5
100
AcDbSymbolTableRecord
100
AcDbLinetypeTableRecord
  2
PHANTOM
 70
     0
  3
Phantom ______  __  __  ______  __  __  ______
 72
    65
 73
     6
 40
12.7
 49
6.35
 74
     0
 49
-1.27
 74
     0
 49
1.27
 74
     0
 49
-1.27
 74
     0
 49
1.27
 74
     0
 49
-1.27
 74
     0
  0
LTYPE
  5
70
330
5
100
AcDbSymbolTableRecord
100
AcDbLinetypeTableRecord
  2
CENTER
 70
     0
  3
Center ____ _ ____ _ ____ _ ____ _ ____ _ ____
 72
    65
 73
     4
 40
10.16
 49
6.35
 74
     0
 49
-1.27
 74
     0
 49
1.27
 74
     0
 49
-1.27
 74
     0
  0
LTYPE
  5
71
330
5
100
AcDbSymbolTableRecord
100
AcDbLinetypeTableRecord
  2
CENTERX2
 70
     0
  3
Center (2x) ________  __  ________  __  _____
 72
    65
 73
     4
 40
20.32
 49
12.7
 74
     0
 49
-2.54
 74
     0
 49
2.54
 74
     0
 49
-2.54
 74
     0
  0
LTYPE
  5
72
330
5
100
AcDbSymbolTableRecord
100
AcDbLinetypeTableRecord
  2
DOT2
 70
     0
  3
Dot (.5x) ........................................
 72
    65
 73
     2
 40
0.635
 49
0.0
 74
     0
 49
-0.635
 74
     0
  0
ENDTAB
  0
TABLE
  2
LAYER
  5
2
330
0
100
AcDbSymbolTable
 70
     1
  0
LAYER
  5
10
330
2
100
AcDbSymbolTableRecord
100
AcDbLayerTableRecord
  2
0
 70
     0
 62
     7
  6
Continuous
370
    -3
390
F
  0
ENDTAB
  0
TABLE
  2
STYLE
  5
3
330
0
100
AcDbSymbolTable
 70
     2
  0
STYLE
  5
11
330
3
100
AcDbSymbolTableRecord
100
AcDbTextStyleTableRecord
  2
Standard
 70
     0
 40
0.0
 41
1.0
 50
0.0
 71
     0
 42
6.35
  3
txt
  4

  0
STYLE
  5
139
330
3
100
AcDbSymbolTableRecord
100
AcDbTextStyleTableRecord
  2
SLDTEXTSTYLE0
 70
     0
 40
0.0
 41
0.7
 50
0.0
 71
     0
 42
6.35
  3
TXT
  4

  0
ENDTAB
  0
TABLE
  2
VIEW
  5
6
330
0
100
AcDbSymbolTable
 70
     0
  0
ENDTAB
  0
TABLE
  2
UCS
  5
7
330
0
100
AcDbSymbolTable
 70
     0
  0
ENDTAB
  0
TABLE
  2
APPID
  5
9
330
0
100
AcDbSymbolTable
 70
     1
  0
APPID
  5
12
330
9
100
AcDbSymbolTableRecord
100
AcDbRegAppTableRecord
  2
ACAD
 70
     0
  0
ENDTAB
  0
TABLE
  2
DIMSTYLE
  5
A
330
0
100
AcDbSymbolTable
 70
     1
100
AcDbDimStyleTable
  0
DIMSTYLE
105
27
330
A
100
AcDbSymbolTableRecord
100
AcDbDimStyleTableRecord
  2
ISO-25
 70
     0
 41
2.5
 42
0.625
 43
3.75
 44
1.25
 73
     0
 74
     0
 77
     1
 78
     8
140
2.5
141
2.5
143
0.0393700787
147
0.625
171
     3
172
     1
178
     0
271
     2
272
     2
274
     3
278
    44
283
     0
284
     8
340
11
  0
ENDTAB
  0
TABLE
  2
BLOCK_RECORD
  5
1
330
0
100
AcDbSymbolTable
 70
     1
  0
BLOCK_RECORD
  5
1F
330
1
100
AcDbSymbolTableRecord
100
AcDbBlockTableRecord
  2
*Model_Space
340
22
  0
BLOCK_RECORD
  5
1B
330
1
100
AcDbSymbolTableRecord
100
AcDbBlockTableRecord
  2
*Paper_Space
340
1E
  0
BLOCK_RECORD
  5
23
330
1
100
AcDbSymbolTableRecord
100
AcDbBlockTableRecord
  2
*Paper_Space0
340
26
  0
ENDTAB
  0
ENDSEC
  0
SECTION
  2
BLOCKS
  0
BLOCK
  5
20
330
1F
100
AcDbEntity
  8
0
100
AcDbBlockBegin
  2
*Model_Space
 70
     0
 10
0.0
 20
0.0
 30
0.0
  3
*Model_Space
  1

  0
ENDBLK
  5
21
330
1F
100
AcDbEntity
  8
0
100
AcDbBlockEnd
  0
BLOCK
  5
1C
330
1B
100
AcDbEntity
 67
     1
  8
0
100
AcDbBlockBegin
  2
*Paper_Space
 70
     0
 10
0.0
 20
0.0
 30
0.0
  3
*Paper_Space
  1

  0
ENDBLK
  5
1D
330
1B
100
AcDbEntity
 67
     1
  8
0
100
AcDbBlockEnd
  0
BLOCK
  5
24
330
23
100
AcDbEntity
  8
0
100
AcDbBlockBegin
  2
*Paper_Space0
 70
     0
 10
0.0
 20
0.0
 30
0.0
  3
*Paper_Space0
  1

  0
ENDBLK
  5
25
330
23
100
AcDbEntity
  8
0
100
AcDbBlockEnd
  0
ENDSEC
  0
SECTION
  2
ENTITIES
  0
SPLINE
  5
73
330
1F
100
AcDbEntity
  8
0
  6
Continuous
 62
     7
370
    15
100
AcDbSpline
210
0.0
220
0.0
230
1.0
 70
     8
 71
     3
 72
    15
 73
    11
 74
     0
 42
0.000000001
 43
0.00000001
 40
0.0
 40
0.0
 40
0.0
 40
0.0
 40
0.1209110787487092
 40
0.2387622286387334
 40
0.3547548590848714
 40
0.470359399450219
 40
0.5891440987928731
 40
0.7163289048363523
 40
0.852445285857603
 40
1.0
 40
1.0
 40
1.0
 40
1.0
 10
177.1924879807692
 20
7.360897435897433
 30
0.0
 10
177.2351699039864
 20
7.359666739420065
 30
0.0
 10
177.3194535876269
 20
7.357236492028713
 30
0.0
 10
177.4434881398299
 20
7.338167310145382
 30
0.0
 10
177.5631786003805
 20
7.307765312319245
 30
0.0
 10
177.6792003717445
 20
7.264208276070718
 30
0.0
 10
177.7924985694386
 20
7.204745027009663
 30
0.0
 10
177.9026997853269
 20
7.126419638457481
 30
0.0
 10
178.0101228570427
 20
7.028529544557764
 30
0.0
 10
178.0764148890395
 20
6.95346087473894
 30
0.0
 10
178.1108974358974
 20
6.914413060897433
 30
0.0
  0
LINE
  5
74
330
1F
100
AcDbEntity
  8
0
  6
Continuous
 62
     7
370
    15
100
AcDbLine
 10
178.1108974359
 20
6.9144130609
 30
0.0
 11
178.1108974359
 21
7.3201923077
 31
0.0
  0
LINE
  5
75
330
1F
100
AcDbEntity
  8
0
  6
Continuous
 62
     7
370
    15
100
AcDbLine
 10
178.1108974359
 20
7.3201923077
 30
0.0
 11
178.3958333333
 21
7.3201923077
 31
0.0
  0
LINE
  5
76
330
1F
100
AcDbEntity
  8
0
  6
Continuous
 62
     7
370
    15
100
AcDbLine
 10
178.3958333333
 20
7.3201923077
 30
0.0
 11
178.3958333333
 21
5.478921274
 31
0.0
  0
SPLINE
  5
77
330
1F
100
AcDbEntity
  8
0
  6
Continuous
 62
     7
370
    15
100
AcDbSpline
210
0.0
220
0.0
230
1.0
 70
     8
 71
     3
 72
    15
 73
    11
 74
     0
 42
0.000000001
 43
0.00000001
 40
0.0
 40
0.0
 40
0.0
 40
0.0
 40
0.1634452548497624
 40
0.315488712712919
 40
0.4562908239366651
 40
0.5858641495747716
 40
0.7054286858067529
 40
0.8133707129824367
 40
0.9117182381600958
 40
1.0
 40
1.0
 40
1.0
 40
1.0
 10
178.3958333333334
 20
5.47892127403846
 30
0.0
 10
178.3955820161441
 20
5.439698598930842
 30
0.0
 10
178.3950969134311
 20
5.363989387976789
 30
0.0
 10
178.3916035323645
 20
5.254516948613651
 30
0.0
 10
178.3842369180288
 20
5.15340128530972
 30
0.0
 10
178.3758833285152
 20
5.060181236446638
 30
0.0
 10
178.3638666644253
 20
4.97528889374937
 30
0.0
 10
178.3491923884305
 20
4.898470943795116
 30
0.0
 10
178.3326500223426
 20
4.829653669361632
 30
0.0
 10
178.318117396509
 20
4.787267563572377
 30
0.0
 10
178.3112429887821
 20
4.76721754807692
 30
0.0
  0
SPLINE
  5
78
330
1F
100
AcDbEntity
  8
0
  6
Continuous
 62
     7
370
    15
100
AcDbSpline
210
0.0
220
0.0
230
1.0
 70
     8
 71
     3
 72
    23
 73
    19
 74
     0
 42
0.000000001
 43
0.00000001
 40
0.0
 40
0.0
 40
0.0
 40
0.0
 40
0.0613707062984567
 40
0.1209064680177752
 40
0.179423665000029
 40
0.237606687439777
 40
0.2959384682493643
 40
0.3542182268208507
 40
0.4135370665946777
 40
0.4740867825531828
 40
0.5351211890802668
 40
0.5969876649622163
 40
0.6600198335468003
 40
0.7242774964844803
 40
0.7900118502255273
 40
0.8577476843344293
 40
0.9278290322155331
 40
0.9999999999999999
 40
0.9999999999999999
 40
0.9999999999999999
 40
0.9999999999999999
 10
178.3112429887821
 20
4.76721754807692
 30
0.0
 10
178.3010927507854
 20
4.741155404919018
 30
0.0
 10
178.2810957603686
 20
4.689810359892628
 30
0.0
 10
178.2436437928737
 20
4.617026368886949
 30
0.0
 10
178.201703037448
 20
4.548495000955001
 30
0.0
 10
178.1537997708003
 20
4.484598170128644
 30
0.0
 10
178.1001506128572
 20
4.425656642485563
 30
0.0
 10
178.0420195449742
 20
4.370389871710386
 30
0.0
 10
177.9782744427561
 20
4.319967091296635
 30
0.0
 10
177.9089517538264
 20
4.275258285746514
 30
0.0
 10
177.8356495008513
 20
4.234992886621614
 30
0.0
 10
177.7584098225479
 20
4.200116357819334
 30
0.0
 10
177.6776682677467
 20
4.169739006818773
 30
0.0
 10
177.5926663589389
 20
4.146985327835357
 30
0.0
 10
177.5047367891001
 20
4.127268831321081
 30
0.0
 10
177.4128455480486
 20
4.114437580636224
 30
0.0
 10
177.3175295109467
 20
4.105704463621033
 30
0.0
 10
177.2527183447309
 20
4.104896895132771
 30
0.0
 10
177.219836738782
 20
4.104487179487177
 30
0.0
  0
SPLINE
  5
79
330
1F
100
AcDbEntity
  8
0
  6
Continuous
 62
     7
370
    15
100
AcDbSpline
210
0.0
220
0.0
230
1.0
 70
     8
 71
     3
 72
    19
 73
    15
 74
     0
 42
0.000000001
 43
0.00000001
 40
0.0
 40
0.0
 40
0.0
 40
0.0
 40
0.0964914237691135
 40
0.1884736749922992
 40
0.2768399149587986
 40
0.3621365621714227
 40
0.4434367545654548
 40
0.5201655209986107
 40
0.5927096635689897
 40
0.6629173343528109
 40
0.7354188002027011
 40
0.8148809699994107
 40
0.903060555739981
 40
1.0
 40
1.0
 40
1.0
 40
1.0
 10
177.219836738782
 20
4.104487179487177
 30
0.0
 10
177.1718627295362
 20
4.105264134472561
 30
0.0
 10
177.0781566002918
 20
4.106781736303676
 30
0.0
 10
176.9415363569278
 20
4.124462780708005
 30
0.0
 10
176.8117834324235
 20
4.149458533424568
 30
0.0
 10
176.6906123181313
 20
4.187291314205324
 30
0.0
 10
176.5787887302558
 20
4.233589154889889
 30
0.0
 10
176.4770763574534
 20
4.286743147927153
 30
0.0
 10
176.3863882813481
 20
4.347693449482696
 30
0.0
 10
176.3046332351238
 20
4.417090423171209
 30
0.0
 10
176.2308447926433
 20
4.499607477227973
 30
0.0
 10
176.1614236081609
 20
4.59685214296972
 30
0.0
 10
176.0946026109041
 20
4.710305678128292
 30
0.0
 10
176.0554424894097
 20
4.79357478225858
 30
0.0
 10
176.0349358974359
 20
4.837179487179485
 30
0.0
  0
LINE
  5
7A
330
1F
100
AcDbEntity
  8
0
  6
Continuous
 62
     7
370
    15
100
AcDbLine
 10
176.0349358974
 20
4.8371794872
 30
0.0
 11
176.3198717949
 21
4.8371794872
 31
0.0
  0
SPLINE
  5
7B
330
1F
100
AcDbEntity
  8
0
  6
Continuous
 62
     7
370
    15
100
AcDbSpline
210
0.0
220
0.0
230
1.0
 70
     8
 71
     3
 72
    15
 73
    11
 74
     0
 42
0.000000001
 43
0.00000001
 40
0.0
 40
0.0
 40
0.0
 40
0.0
 40
0.1247164867022969
 40
0.243805373915499
 40
0.3600615340644482
 40
0.4751119996583978
 40
0.5935250978118934
 40
0.7193501703843507
 40
0.8538547713042717
 40
1.0
 40
1.0
 40
1.0
 40
1.0
 10
176.3198717948718
 20
4.837179487179485
 30
0.0
 10
176.3427882275988
 20
4.800797728443086
 30
0.0
 10
176.3875870316509
 20
4.729675870163001
 30
0.0
 10
176.471360296528
 20
4.637588935850697
 30
0.0
 10
176.5631688925716
 20
4.558891240741391
 30
0.0
 10
176.6661111766033
 20
4.49547218141124
 30
0.0
 10
176.7806154791519
 20
4.447656870639687
 30
0.0
 10
176.9067506873201
 20
4.413570708872761
 30
0.0
 10
177.0455432013224
 20
4.393163381081644
 30
0.0
 10
177.1421704384742
 20
4.390703849968594
 30
0.0
 10
177.1924879807692
 20
4.389423076923075
 30
0.0
  0
SPLINE
  5
7C
330
1F
100
AcDbEntity
  8
0
  6
Continuous
 62
     7
370
    15
100
AcDbSpline
210
0.0
220
0.0
230
1.0
 70
     8
 71
     3
 72
    23
 73
    19
 74
     0
 42
0.000000001
 43
0.00000001
 40
0.0
 40
0.0
 40
0.0
 40
0.0
 40
0.0981712978276953
 40
0.1892644356875805
 40
0.2744630560180384
 40
0.3550231712817346
 40
0.4309204620429262
 40
0.5010860453857559
 40
0.5666076270375989
 40
0.6297208634282989
 40
0.6627106951128602
 40
0.6987655616316113
 40
0.7386105373889598
 40
0.7825812280784425
 40
0.8304087872491277
 40
0.8825778660702764
 40
0.9392286810451782
 40
1.0
 40
1.0
 40
1.0
 40
1.0
 10
177.1924879807692
 20
4.389423076923075
 30
0.0
 10
177.2421693741527
 20
4.390720426187166
 30
0.0
 10
177.3379501277023
 20
4.393221585709256
 30
0.0
 10
177.4756826881934
 20
4.413579816494472
 30
0.0
 10
177.6014080962979
 20
4.447664288549742
 30
0.0
 10
177.7144019925809
 20
4.495387610358741
 30
0.0
 10
177.8133311540398
 20
4.553853336286604
 30
0.0
 10
177.8986134604194
 20
4.619167689501184
 30
0.0
 10
177.9676875594916
 20
4.692810456521559
 30
0.0
 10
178.0141450363993
 20
4.760648237761009
 30
0.0
 10
178.0430235823638
 20
4.821085841128924
 30
0.0
 10
178.0614133971442
 20
4.873112838890453
 30
0.0
 10
178.0763576408633
 20
4.931943663627078
 30
0.0
 10
178.0888579220565
 20
4.997381081486123
 30
0.0
 10
178.0991729649007
 20
5.06951858468277
 30
0.0
 10
178.105707008173
 20
5.148521114887107
 30
0.0
 10
178.1104294229565
 20
5.23420912370767
 30
0.0
 10
178.1107378241764
 20
5.293620756226433
 30
0.0
 10
178.1108974358975
 20
5.324368990384614
 30
0.0
  0
LINE
  5
7D
330
1F
100
AcDbEntity
  8
0
  6
Continuous
 62
     7
370
    15
100
AcDbLine
 10
178.1108974359
 20
5.3243689904
 30
0.0
 11
178.1108974359
 21
5.4445763221
 31
0.0
  0
SPLINE
  5
7E
330
1F
100
AcDbEntity
  8
0
  6
Continuous
 62
     7
370
    15
100
AcDbSpline
210
0.0
220
0.0
230
1.0
 70
     8
 71
     3
 72
    15
 73
    11
 74
     0
 42
0.000000001
 43
0.00000001
 40
0.0
 40
0.0
 40
0.0
 40
0.0
 40
0.1265607130145274
 40
0.2508952618879497
 40
0.3747192653150376
 40
0.4998264235934758
 40
0.6249635314328795
 40
0.7490394747387523
 40
0.8731801199413541
 40
1.0
 40
1.0
 40
1.0
 40
1.0
 10
178.1108974358974
 20
5.444576322115383
 30
0.0
 10
178.081976707968
 20
5.41015768730139
 30
0.0
 10
178.024643958847
 20
5.341925830907764
 30
0.0
 10
177.9256317406622
 20
5.2525163461933
 30
0.0
 10
177.8174849671979
 20
5.175512499419885
 30
0.0
 10
177.700387753733
 20
5.112358452397257
 30
0.0
 10
177.5772084197747
 20
5.061847445787405
 30
0.0
 10
177.4492811107531
 20
5.026520616968443
 30
0.0
 10
177.317752603535
 20
5.003696993496483
 30
0.0
 10
177.2286238676226
 20
5.001241070911033
 30
0.0
 10
177.1835837339744
 20
4.999999999999997
 30
0.0
  0
SPLINE
  5
7F
330
1F
100
AcDbEntity
  8
0
  6
Continuous
 62
     7
370
    15
100
AcDbSpline
210
0.0
220
0.0
230
1.0
 70
     8
 71
     3
 72
    31
 73
    27
 74
     0
 42
0.000000001
 43
0.00000001
 40
0.0
 40
0.0
 40
0.0
 40
0.0
 40
0.0428647590311963
 40
0.0852222575672431
 40
0.127202284143743
 40
0.1690253126086035
 40
0.210882033099713
 40
0.2529626777271269
 40
0.2956282851000583
 40
0.3385532936306125
 40
0.3814632477171867
 40
0.4235815621432683
 40
0.4650661653954531
 40
0.5063122188418699
 40
0.5470395054616204
 40
0.5876758328931725
 40
0.6286747862975607
 40
0.669946464602765
 40
0.7110355744560748
 40
0.7519958286352201
 40
0.7926726074835051
 40
0.8334460178854428
 40
0.874190607042242
 40
0.9154935830294668
 40
0.9574778068391474
 40
1.0
 40
1.0
 40
1.0
 40
1.0
 10
177.1835837339744
 20
4.999999999999998
 30
0.0
 10
177.1570622609992
 20
5.000467202583916
 30
0.0
 10
177.104333169502
 20
5.00139607888796
 30
0.0
 10
177.0259970773698
 20
5.009522969837881
 30
0.0
 10
176.9488169654577
 20
5.021314686061912
 30
0.0
 10
176.8729728343104
 20
5.038624277140014
 30
0.0
 10
176.7983552424568
 20
5.060841771928764
 30
0.0
 10
176.7250874981753
 20
5.088615527794389
 30
0.0
 10
176.652576370504
 20
5.12001638507919
 30
0.0
 10
176.5821399045866
 20
5.157003142484517
 30
0.0
 10
176.514479628849
 20
5.198153235136079
 30
0.0
 10
176.4501058823332
 20
5.242729228851669
 30
0.0
 10
176.3893558504468
 20
5.290497818899245
 30
0.0
 10
176.3328077493033
 20
5.341930042857173
 30
0.0
 10
176.2805357544889
 20
5.396951461862991
 30
0.0
 10
176.2318368170393
 20
5.454975542114007
 30
0.0
 10
176.1875162236285
 20
5.516812514620285
 30
0.0
 10
176.146664506246
 20
5.581334826096786
 30
0.0
 10
176.1112337284076
 20
5.648972235554425
 30
0.0
 10
176.0801329053946
 20
5.718258079263847
 30
0.0
 10
176.0530915165363
 20
5.78904420940417
 30
0.0
 10
176.0315329021038
 20
5.861567616240761
 30
0.0
 10
176.015067249352
 20
5.935782577997966
 30
0.0
 10
176.0028115434405
 20
6.011567513760306
 30
0.0
 10
175.9958601697243
 20
6.089155793967572
 30
0.0
 10
175.9947762029126
 20
6.141426589308462
 30
0.0
 10
175.9942307692308
 20
6.167728365384614
 30
0.0
  0
SPLINE
  5
80
330
1F
100
AcDbEntity
  8
0
  6
Continuous
 62
     7
370
    15
100
AcDbSpline
210
0.0
220
0.0
230
1.0
 70
     8
 71
     3
 72
    31
 73
    27
 74
     0
 42
0.000000001
 43
0.00000001
 40
0.0
 40
0.0
 40
0.0
 40
0.0
 40
0.0420341186638456
 40
0.0839054330862327
 40
0.1250689344486245
 40
0.1661584697031391
 40
0.2072102728707283
 40
0.2484907320562538
 40
0.2898781122327919
 40
0.332169514204085
 40
0.3744758421539223
 40
0.4162249804562081
 40
0.4576095869585081
 40
0.4990731704672244
 40
0.5405533615534514
 40
0.5822488491953596
 40
0.6245497501260037
 40
0.6674328009210374
 40
0.7103225433055266
 40
0.752467118569865
 40
0.7940647568438068
 40
0.8352157072950149
 40
0.876228344224686
 40
0.9174461887061485
 40
0.9586431404713152
 40
1.0
 40
1.0
 40
1.0
 40
1.0
 10
175.9942307692308
 20
6.167728365384614
 30
0.0
 10
175.9947017272093
 20
6.194038316755242
 30
0.0
 10
175.9956418190778
 20
6.246556317236815
 30
0.0
 10
176.0037616360608
 20
6.32446118826687
 30
0.0
 10
176.0153442078956
 20
6.401322890236296
 30
0.0
 10
176.0336755411989
 20
6.476349175914089
 30
0.0
 10
176.0557395437624
 20
6.550394486442286
 30
0.0
 10
176.0830659274393
 20
6.6229119004727
 30
0.0
 10
176.1159215162665
 20
6.693923505162819
 30
0.0
 10
176.1531232177586
 20
6.763481887259735
 30
0.0
 10
176.1949280732354
 20
6.830653652235985
 30
0.0
 10
176.2407682522531
 20
6.894449966735234
 30
0.0
 10
176.2906990953317
 20
6.954401379839421
 30
0.0
 10
176.3440317616443
 20
7.011112705391465
 30
0.0
 10
176.4014174528148
 20
7.064036774237832
 30
0.0
 10
176.4628264815852
 20
7.113045135239296
 30
0.0
 10
176.5276535229514
 20
7.158959287640925
 30
0.0
 10
176.5960994925906
 20
7.200788857779862
 30
0.0
 10
176.6671082664594
 20
7.237784181408696
 30
0.0
 10
176.7388758011714
 20
7.271541322904636
 30
0.0
 10
176.8123527715117
 20
7.298332988478402
 30
0.0
 10
176.8861692894178
 20
7.321939656889166
 30
0.0
 10
176.9616253549527
 20
7.338663012552886
 30
0.0
 10
177.0377957763102
 20
7.351564617721138
 30
0.0
 10
177.1149413255596
 20
7.359424757508366
 30
0.0
 10
177.1666057374956
 20
7.360405909599793
 30
0.0
 10
177.1924879807692
 20
7.360897435897433
 30
0.0
  0
LINE
  5
81
330
1F
100
AcDbEntity
  8
0
  6
Continuous
 62
     7
370
    15
100
AcDbLine
 10
187.5951923077
 20
5.0
 30
0.0
 11
187.3102564103
 21
5.0
 31
0.0
  0
LINE
  5
82
330
1F
100
AcDbEntity
  8
0
  6
Continuous
 62
     7
370
    15
100
AcDbLine
 10
187.3102564103
 20
5.0
 30
0.0
 11
187.3102564103
 21
8.2564102564
 31
0.0
  0
LINE
  5
83
330
1F
100
AcDbEntity
  8
0
  6
Continuous
 62
     7
370
    15
100
AcDbLine
 10
187.3102564103
 20
8.2564102564
 30
0.0
 11
187.5951923077
 21
8.2564102564
 31
0.0
  0
LINE
  5
84
330
1F
100
AcDbEntity
  8
0
  6
Continuous
 62
     7
370
    15
100
AcDbLine
 10
187.5951923077
 20
8.2564102564
 30
0.0
 11
187.5951923077
 21
5.0
 31
0.0
  0
LINE
  5
85
330
1F
100
AcDbEntity
  8
0
  6
Continuous
 62
     7
370
    15
100
AcDbLine
 10
188.4907051282
 20
5.0
 30
0.0
 11
188.2057692308
 21
5.0
 31
0.0
  0
LINE
  5
86
330
1F
100
AcDbEntity
  8
0
  6
Continuous
 62
     7
370
    15
100
AcDbLine
 10
188.2057692308
 20
5.0
 30
0.0
 11
188.2057692308
 21
8.2564102564
 31
0.0
  0
LINE
  5
87
330
1F
100
AcDbEntity
  8
0
  6
Continuous
 62
     7
370
    15
100
AcDbLine
 10
188.2057692308
 20
8.2564102564
 30
0.0
 11
188.4907051282
 21
8.2564102564
 31
0.0
  0
LINE
  5
88
330
1F
100
AcDbEntity
  8
0
  6
Continuous
 62
     7
370
    15
100
AcDbLine
 10
188.4907051282
 20
8.2564102564
 30
0.0
 11
188.4907051282
 21
5.0
 31
0.0
  0
SPLINE
  5
89
330
1F
100
AcDbEntity
  8
0
  6
Continuous
 62
     7
370
    15
100
AcDbSpline
210
0.0
220
0.0
230
1.0
 70
     8
 71
     3
 72
    23
 73
    19
 74
     0
 42
0.000000001
 43
0.00000001
 40
0.0
 40
0.0
 40
0.0
 40
0.0
 40
0.064557845929719
 40
0.1270135315497589
 40
0.1879548102020908
 40
0.2480139127896339
 40
0.3077476818488365
 40
0.3682345146974886
 40
0.4294698439426712
 40
0.4927434367465846
 40
0.5562577687060836
 40
0.6182167855431454
 40
0.6796554755875571
 40
0.7412455456206319
 40
0.8034152647056991
 40
0.8668154615439944
 40
0.9323283119492659
 40
1.0
 40
1.0
 40
1.0
 40
1.0
 10
190.2817307692307
 20
6.605944511217946
 30
0.0
 10
190.2831415519575
 20
6.663054101216106
 30
0.0
 10
190.2859171788979
 20
6.775413654211754
 30
0.0
 10
190.3094990790759
 20
6.940308597552597
 30
0.0
 10
190.3474347013352
 20
7.098288795083763
 30
0.0
 10
190.4013161645607
 20
7.249059334817053
 30
0.0
 10
190.469628876102
 20
7.393413231884718
 30
0.0
 10
190.5540173043708
 20
7.530247753424258
 30
0.0
 10
190.6535010691002
 20
7.66043799311269
 30
0.0
 10
190.7672999340703
 20
7.782008517504029
 30
0.0
 10
190.8920931596637
 20
7.893169215954224
 30
0.0
 10
191.0257323694058
 20
7.990964843640203
 30
0.0
 10
191.167955992731
 20
8.072351447439377
 30
0.0
 10
191.317197186751
 20
8.140383680497354
 30
0.0
 10
191.4745734836007
 20
8.192675443484868
 30
0.0
 10
191.6397491113074
 20
8.229281548551793
 30
0.0
 10
191.8124136982875
 20
8.252066361186195
 30
0.0
 10
191.9302174701265
 20
8.254946728355183
 30
0.0
 10
191.9900741185897
 20
8.256410256410254
 30
0.0
  0
SPLINE
  5
8A
330
1F
100
AcDbEntity
  8
0
  6
Continuous
 62
     7
370
    15
100
AcDbSpline
210
0.0
220
0.0
230
1.0
 70
     8
 71
     3
 72
    23
 73
    19
 74
     0
 42
0.000000001
 43
0.00000001
 40
0.0
 40
0.0
 40
0.0
 40
0.0
 40
0.0685475367089083
 40
0.1356829456230472
 40
0.2012149895263287
 40
0.2656822347547037
 40
0.3292668348172622
 40
0.3923954278443331
 40
0.4550697616521555
 40
0.517126850064516
 40
0.5787900352866512
 40
0.6397398633435522
 40
0.7001915036663092
 40
0.7598062425966695
 40
0.819628319275013
 40
0.8793547910462807
 40
0.9395116077646719
 40
1.0
 40
1.0
 40
1.0
 40
1.0
 10
191.9900741185897
 20
8.256410256410254
 30
0.0
 10
192.0265543895697
 20
8.255972888194252
 30
0.0
 10
192.0987634121157
 20
8.2551071618572
 30
0.0
 10
192.2055818896611
 20
8.246665161510357
 30
0.0
 10
192.309578857674
 20
8.232592104432893
 30
0.0
 10
192.4108259628051
 20
8.213436812531006
 30
0.0
 10
192.5098157646463
 20
8.189663028055024
 30
0.0
 10
192.6057916974434
 20
8.15869290029641
 30
0.0
 10
192.6993169348134
 20
8.123281189745832
 30
0.0
 10
192.7898016300877
 20
8.082497438502172
 30
0.0
 10
192.8768116434292
 20
8.036716894511656
 30
0.0
 10
192.9603198752216
 20
7.98644700743754
 30
0.0
 10
193.0396629970492
 20
7.931750098158493
 30
0.0
 10
193.1153993095596
 20
7.873091360465467
 30
0.0
 10
193.1862618724643
 20
7.809229810247499
 30
0.0
 10
193.2542626422783
 20
7.741921991042798
 30
0.0
 10
193.3170923346108
 20
7.669229164842954
 30
0.0
 10
193.3558755900696
 20
7.618061831939833
 30
0.0
 10
193.3753205128205
 20
7.5924078525641
 30
0.0
  0
LINE
  5
8B
330
1F
100
AcDbEntity
  8
0
  6
Continuous
 62
     7
370
    15
100
AcDbLine
 10
193.3753205128
 20
7.5924078526
 30
0.0
 11
193.1260016026
 21
7.4016025641
 31
0.0
  0
SPLINE
  5
8C
330
1F
100
AcDbEntity
  8
0
  6
Continuous
 62
     7
370
    15
100
AcDbSpline
210
0.0
220
0.0
230
1.0
 70
     8
 71
     3
 72
    19
 73
    15
 74
     0
 42
0.000000001
 43
0.00000001
 40
0.0
 40
0.0
 40
0.0
 40
0.0
 40
0.0631632593634664
 40
0.1254749410306429
 40
0.187121219816036
 40
0.2482943461142971
 40
0.3092948562551239
 40
0.3698500660670965
 40
0.4309733755473781
 40
0.4924559896728182
 40
0.6161479662918499
 40
0.7408436984673723
 40
0.8681826486700481
 40
1.0
 40
1.0
 40
1.0
 40
1.0
 10
193.1260016025641
 20
7.401602564102562
 30
0.0
 10
193.1082162609838
 20
7.422798836735087
 30
0.0
 10
193.0728853627927
 20
7.464905610284111
 30
0.0
 10
193.0160445147887
 20
7.524032768486317
 30
0.0
 10
192.9568065958759
 20
7.579427684205498
 30
0.0
 10
192.8951942502013
 20
7.631354246440303
 30
0.0
 10
192.830098477524
 20
7.677996598213967
 30
0.0
 10
192.7630961815912
 20
7.721785384455045
 30
0.0
 10
192.6930665262968
 20
7.761035403874349
 30
0.0
 10
192.5962274527255
 20
7.808626826993797
 30
0.0
 10
192.4695469046426
 20
7.858289410469184
 30
0.0
 10
192.3100758720549
 20
7.899930198862922
 30
0.0
 10
192.1436050898579
 20
7.926437979662262
 30
0.0
 10
192.030032981625
 20
7.929308942985937
 30
0.0
 10
191.972265625
 20
7.930769230769229
 30
0.0
  0
SPLINE
  5
8D
330
1F
100
AcDbEntity
  8
0
  6
Continuous
 62
     7
370
    15
100
AcDbSpline
210
0.0
220
0.0
230
1.0
 70
     8
 71
     3
 72
    31
 73
    27
 74
     0
 42
0.000000001
 43
0.00000001
 40
0.0
 40
0.0
 40
0.0
 40
0.0
 40
0.0439549089061966
 40
0.0875018747976114
 40
0.1304626267314922
 40
0.1727520205665185
 40
0.2154030673796049
 40
0.2576498297432459
 40
0.3001527489572958
 40
0.3431214895020865
 40
0.3859251632064358
 40
0.4276857274028032
 40
0.4688179504865863
 40
0.5094918001549932
 40
0.5498830310733527
 40
0.5899800229668852
 40
0.6304052300068387
 40
0.6708686260826415
 40
0.711383943838174
 40
0.7516272580635832
 40
0.7917755768651897
 40
0.8324589188037428
 40
0.8733190450172867
 40
0.9145429556263481
 40
0.9569235582098847
 40
1.0
 40
1.0
 40
1.0
 40
1.0
 10
191.972265625
 20
7.930769230769229
 30
0.0
 10
191.9404400605983
 20
7.930402779063874
 30
0.0
 10
191.8770843030519
 20
7.929673276670641
 30
0.0
 10
191.7830603306621
 20
7.920049284520458
 30
0.0
 10
191.6907920628501
 20
7.906522686837173
 30
0.0
 10
191.6003395184946
 20
7.886451857913044
 30
0.0
 10
191.5118178346768
 20
7.861076696321306
 30
0.0
 10
191.4246482985174
 20
7.83075507083339
 30
0.0
 10
191.3400929687014
 20
7.79324032324615
 30
0.0
 10
191.2569821383214
 20
7.751776401713816
 30
0.0
 10
191.1773538540613
 20
7.704942933982386
 30
0.0
 10
191.1020110607204
 20
7.653858679061289
 30
0.0
 10
191.0312285469634
 20
7.599095284433769
 30
0.0
 10
190.9649503202426
 20
7.540447495076764
 30
0.0
 10
190.9031086242525
 20
7.478179430931117
 30
0.0
 10
190.8461515637364
 20
7.411627492489575
 30
0.0
 10
190.7942762272814
 20
7.341004449370351
 30
0.0
 10
190.7464543545452
 20
7.267241572513868
 30
0.0
 10
190.7036256607163
 20
7.190553718673628
 30
0.0
 10
190.6677664129831
 20
7.110657047632999
 30
0.0
 10
190.636011766411
 20
7.028919754169095
 30
0.0
 10
190.6108845962962
 20
6.94441834398878
 30
0.0
 10
190.5909959274564
 20
6.8577474064024
 30
0.0
 10
190.5772729757726
 20
6.768674334476351
 30
0.0
 10
190.5677584340463
 20
6.67738521084171
 30
0.0
 10
190.5670325592864
 20
6.615509620112912
 30
0.0
 10
190.5666666666667
 20
6.584319911858973
 30
0.0
  0
SPLINE
  5
8E
330
1F
100
AcDbEntity
  8
0
  6
Continuous
 62
     7
370
    15
100
AcDbSpline
210
0.0
220
0.0
230
1.0
 70
     8
 71
     3
 72
    23
 73
    19
 74
     0
 42
0.000000001
 43
0.00000001
 40
0.0
 40
0.0
 40
0.0
 40
0.0
 40
0.0643232165798418
 40
0.1262901037035565
 40
0.1867264692161324
 40
0.2461464323353439
 40
0.3055756426461343
 40
0.3654293856180515
 40
0.426326308948259
 40
0.4888399064006337
 40
0.5517249718140392
 40
0.6139185964661512
 40
0.6754837657683903
 40
0.7373338970992832
 40
0.8002290443945284
 40
0.8645022981233188
 40
0.931040739155688
 40
1.0
 40
1.0
 40
1.0
 40
1.0
 10
190.5666666666666
 20
6.584319911858972
 30
0.0
 10
190.5678113167812
 20
6.537392214500507
 30
0.0
 10
190.5700586854508
 20
6.445255905387091
 30
0.0
 10
190.5900596742238
 20
6.310299708681822
 30
0.0
 10
190.6204535784642
 20
6.18101309746686
 30
0.0
 10
190.6660062803988
 20
6.058204240513389
 30
0.0
 10
190.7221757048357
 20
5.9403588014179
 30
0.0
 10
190.7931511167013
 20
5.829470698684942
 30
0.0
 10
190.8753532613102
 20
5.723864243735183
 30
0.0
 10
190.9699450561071
 20
5.626035283991946
 30
0.0
 10
191.0737274748973
 20
5.53666926175725
 30
0.0
 10
191.185077366129
 20
5.457974091386268
 30
0.0
 10
191.3037173986187
 20
5.392374162291763
 30
0.0
 10
191.4283376274309
 20
5.337785982237681
 30
0.0
 10
191.5598970307714
 20
5.295824522150149
 30
0.0
 10
191.698159030104
 20
5.266284210115046
 30
0.0
 10
191.8428229115094
 20
5.247014517766577
 30
0.0
 10
191.9416737242668
 20
5.245169672161003
 30
0.0
 10
191.9919821714743
 20
5.244230769230767
 30
0.0
  0
SPLINE
  5
8F
330
1F
100
AcDbEntity
  8
0
  6
Continuous
 62
     7
370
    15
100
AcDbSpline
210
0.0
220
0.0
230
1.0
 70
     8
 71
     3
 72
    15
 73
    11
 74
     0
 42
0.000000001
 43
0.00000001
 40
0.0
 40
0.0
 40
0.0
 40
0.0
 40
0.128515189511656
 40
0.2529486363526459
 40
0.3747547340060057
 40
0.4959397538670409
 40
0.6171806414298932
 40
0.740909469278127
 40
0.8678111481861991
 40
1.0
 40
1.0
 40
1.0
 40
1.0
 10
191.9919821714743
 20
5.244230769230767
 30
0.0
 10
192.0474110393471
 20
5.245762733719087
 30
0.0
 10
192.1565083110101
 20
5.248778006308534
 30
0.0
 10
192.316499306334
 20
5.274322468012854
 30
0.0
 10
192.4696574651544
 20
5.315740722048897
 30
0.0
 10
192.6159910258028
 20
5.373705265867028
 30
0.0
 10
192.75508745486
 20
5.449057348464489
 30
0.0
 10
192.8871644252831
 20
5.540404708684088
 30
0.0
 10
193.0123334213831
 20
5.64861626768835
 30
0.0
 10
193.0876002274119
 20
5.731241676893087
 30
0.0
 10
193.1260016025641
 20
5.773397435897433
 30
0.0
  0
LINE
  5
90
330
1F
100
AcDbEntity
  8
0
  6
Continuous
 62
     7
370
    15
100
AcDbLine
 10
193.1260016026
 20
5.7733974359
 30
0.0
 11
193.3753205128
 21
5.5845002003
 31
0.0
  0
SPLINE
  5
91
330
1F
100
AcDbEntity
  8
0
  6
Continuous
 62
     7
370
    15
100
AcDbSpline
210
0.0
220
0.0
230
1.0
 70
     8
 71
     3
 72
    23
 73
    19
 74
     0
 42
0.000000001
 43
0.00000001
 40
0.0
 40
0.0
 40
0.0
 40
0.0
 40
0.0616742388774242
 40
0.1230530616347959
 40
0.1834750007317033
 40
0.2437265005106047
 40
0.3042789165122448
 40
0.3648629209606792
 40
0.4259462039686134
 40
0.4873912299654077
 40
0.549220384075476
 40
0.6111435886925968
 40
0.6735285303101505
 40
0.7369614566573004
 40
0.8007852828728471
 40
0.8660125956416248
 40
0.9321007477905874
 40
0.9999999999999999
 40
0.9999999999999999
 40
0.9999999999999999
 40
0.9999999999999999
 10
193.3753205128205
 20
5.584500200320512
 30
0.0
 10
193.3552562274283
 20
5.558611747504364
 30
0.0
 10
193.3152237634376
 20
5.506958846098541
 30
0.0
 10
193.2504011337428
 20
5.434140937991693
 30
0.0
 10
193.1821138711052
 20
5.365647991503226
 30
0.0
 10
193.1098547627418
 20
5.302032220818273
 30
0.0
 10
193.0344550517997
 20
5.242020669876739
 30
0.0
 10
192.9545608827443
 20
5.187318294362363
 30
0.0
 10
192.8712225461145
 20
5.137161563620491
 30
0.0
 10
192.7847224116787
 20
5.091235710670246
 30
0.0
 10
192.6951523843533
 20
5.050489350869463
 30
0.0
 10
192.6026197897988
 20
5.015606290086701
 30
0.0
 10
192.5075234820201
 20
4.985557283153628
 30
0.0
 10
192.409859113675
 20
4.960835883411245
 30
0.0
 10
192.3094241056962
 20
4.941539971611753
 30
0.0
 10
192.2065808899117
 20
4.928640695145439
 30
0.0
 10
192.1011075031058
 20
4.919803387050975
 30
0.0
 10
192.0299499282275
 20
4.918997920558282
 30
0.0
 10
191.9938902243589
 20
4.918589743589741
 30
0.0
  0
SPLINE
  5
92
330
1F
100
AcDbEntity
  8
0
  6
Continuous
 62
     7
370
    15
100
AcDbSpline
210
0.0
220
0.0
230
1.0
 70
     8
 71
     3
 72
    23
 73
    19
 74
     0
 42
0.000000001
 43
0.00000001
 40
0.0
 40
0.0
 40
0.0
 40
0.0
 40
0.0696628008990818
 40
0.1377495622582694
 40
0.2039167435177793
 40
0.2687798623293398
 40
0.3324137064772213
 40
0.394753540447139
 40
0.4561800316591765
 40
0.516995649196724
 40
0.5773959379659587
 40
0.6371983435092748
 40
0.6969991842614528
 40
0.7567561942255617
 40
0.8165539052726051
 40
0.876947996597868
 40
0.9381317879205976
 40
1.0
 40
1.0
 40
1.0
 40
1.0
 10
191.9938902243589
 20
4.918589743589741
 30
0.0
 10
191.9597420406709
 20
4.91882740826535
 30
0.0
 10
191.8922182360831
 20
4.919297360730752
 30
0.0
 10
191.7925243685492
 20
4.92691025545355
 30
0.0
 10
191.6954695345363
 20
4.937296802507616
 30
0.0
 10
191.6013311239287
 20
4.952936064258498
 30
0.0
 10
191.5095954179937
 20
4.971391287021672
 30
0.0
 10
191.4210940306341
 20
4.99613021267455
 30
0.0
 10
191.334956089809
 20
5.023842670943904
 30
0.0
 10
191.2515276664632
 20
5.056413623205199
 30
0.0
 10
191.1707377959335
 20
5.093167588792675
 30
0.0
 10
191.092847052764
 20
5.13470707436726
 30
0.0
 10
191.0178912605164
 20
5.180682765881429
 30
0.0
 10
190.9451334858833
 20
5.230081239622869
 30
0.0
 10
190.8756485349782
 20
5.284489220605353
 30
0.0
 10
190.8088342655558
 20
5.343151096190794
 30
0.0
 10
190.7443160192592
 20
5.405869148800946
 30
0.0
 10
190.7043992978737
 20
5.45109462290438
 30
0.0
 10
190.6843299278846
 20
5.473833133012818
 30
0.0
  0
SPLINE
  5
93
330
1F
100
AcDbEntity
  8
0
  6
Continuous
 62
     7
370
    15
100
AcDbSpline
210
0.0
220
0.0
230
1.0
 70
     8
 71
     3
 72
    15
 73
    11
 74
     0
 42
0.000000001
 43
0.00000001
 40
0.0
 40
0.0
 40
0.0
 40
0.0
 40
0.1243285095938545
 40
0.2471560163611905
 40
0.3687797492913397
 40
0.4907338624016511
 40
0.6136137718478472
 40
0.7389575757222177
 40
0.8673105751912629
 40
1.0
 40
1.0
 40
1.0
 40
1.0
 10
190.6843299278846
 20
5.473833133012818
 30
0.0
 10
190.6521847369955
 20
5.513331211530495
 30
0.0
 10
190.5882824401589
 20
5.59185051311499
 30
0.0
 10
190.5065255700804
 20
5.719109938970869
 30
0.0
 10
190.4365417164262
 20
5.851977528451084
 30
0.0
 10
190.3799578454345
 20
5.991151320985701
 30
0.0
 10
190.3357230803586
 20
6.136319022268126
 30
0.0
 10
190.3050787105363
 20
6.287553810340684
 30
0.0
 10
190.2851654693314
 20
6.444714443624101
 30
0.0
 10
190.2828882787942
 20
6.551609244765576
 30
0.0
 10
190.2817307692307
 20
6.605944511217946
 30
0.0
  0
LINE
  5
94
330
1F
100
AcDbEntity
  8
0
  6
Continuous
 62
     7
370
    15
100
AcDbLine
 10
146.0149038462
 20
7.2896634615
 30
0.0
 11
145.7115234375
 21
5.0
 31
0.0
  0
LINE
  5
95
330
1F
100
AcDbEntity
  8
0
  6
Continuous
 62
     7
370
    15
100
AcDbLine
 10
145.7115234375
 20
5.0
 30
0.0
 11
145.4246794872
 21
5.0
 31
0.0
  0
LINE
  5
96
330
1F
100
AcDbEntity
  8
0
  6
Continuous
 62
     7
370
    15
100
AcDbLine
 10
145.4246794872
 20
5.0
 30
0.0
 11
145.8438151042
 21
8.175
 31
0.0
  0
LINE
  5
97
330
1F
100
AcDbEntity
  8
0
  6
Continuous
 62
     7
370
    15
100
AcDbLine
 10
145.8438151042
 20
8.175
 30
0.0
 11
145.8845202324
 21
8.175
 31
0.0
  0
LINE
  5
98
330
1F
100
AcDbEntity
  8
0
  6
Continuous
 62
     7
370
    15
100
AcDbLine
 10
145.8845202324
 20
8.175
 30
0.0
 11
147.1953525641
 21
5.5698717949
 31
0.0
  0
LINE
  5
99
330
1F
100
AcDbEntity
  8
0
  6
Continuous
 62
     7
370
    15
100
AcDbLine
 10
147.1953525641
 20
5.5698717949
 30
0.0
 11
148.5030048077
 21
8.175
 31
0.0
  0
LINE
  5
9A
330
1F
100
AcDbEntity
  8
0
  6
Continuous
 62
     7
370
    15
100
AcDbLine
 10
148.5030048077
 20
8.175
 30
0.0
 11
148.5443459535
 21
8.175
 31
0.0
  0
LINE
  5
9B
330
1F
100
AcDbEntity
  8
0
  6
Continuous
 62
     7
370
    15
100
AcDbLine
 10
148.5443459535
 20
8.175
 30
0.0
 11
148.966025641
 21
5.0
 31
0.0
  0
LINE
  5
9C
330
1F
100
AcDbEntity
  8
0
  6
Continuous
 62
     7
370
    15
100
AcDbLine
 10
148.966025641
 20
5.0
 30
0.0
 11
148.6798177083
 21
5.0
 31
0.0
  0
LINE
  5
9D
330
1F
100
AcDbEntity
  8
0
  6
Continuous
 62
     7
370
    15
100
AcDbLine
 10
148.6798177083
 20
5.0
 30
0.0
 11
148.3758012821
 21
7.2845753205
 31
0.0
  0
LINE
  5
9E
330
1F
100
AcDbEntity
  8
0
  6
Continuous
 62
     7
370
    15
100
AcDbLine
 10
148.3758012821
 20
7.2845753205
 30
0.0
 11
147.229697516
 21
5.0
 31
0.0
  0
LINE
  5
9F
330
1F
100
AcDbEntity
  8
0
  6
Continuous
 62
     7
370
    15
100
AcDbLine
 10
147.229697516
 20
5.0
 30
0.0
 11
147.1654597356
 21
5.0
 31
0.0
  0
LINE
  5
A0
330
1F
100
AcDbEntity
  8
0
  6
Continuous
 62
     7
370
    15
100
AcDbLine
 10
147.1654597356
 20
5.0
 30
0.0
 11
146.0149038462
 21
7.2896634615
 31
0.0
  0
LINE
  5
A1
330
1F
100
AcDbEntity
  8
0
  6
Continuous
 62
     7
370
    15
100
AcDbLine
 10
0.0
 20
5.0
 30
0.0
 11
0.0
 21
125.0
 31
0.0
  0
ARC
  5
A2
330
1F
100
AcDbEntity
  8
0
  6
Continuous
 62
     7
370
    15
100
AcDbCircle
 10
5.0
 20
5.0
 30
0.0
 40
5.0
100
AcDbArc
 50
180.0
 51
270.0
  0
LINE
  5
A3
330
1F
100
AcDbEntity
  8
0
  6
Continuous
 62
     7
370
    15
100
AcDbLine
 10
5.0
 20
0.0
 30
0.0
 11
219.4
 21
0.0
 31
0.0
  0
LINE
  5
A4
330
1F
100
AcDbEntity
  8
0
  6
Continuous
 62
     7
370
    15
100
AcDbLine
 10
219.4
 20
0.0
 30
0.0
 11
219.4
 21
30.0
 31
0.0
  0
LINE
  5
A5
330
1F
100
AcDbEntity
  8
0
  6
Continuous
 62
     7
370
    15
100
AcDbLine
 10
222.8
 20
30.0
 30
0.0
 11
219.4
 21
30.0
 31
0.0
  0
LINE
  5
A6
330
1F
100
AcDbEntity
  8
0
  6
Continuous
 62
     7
370
    15
100
AcDbLine
 10
222.8
 20
0.0
 30
0.0
 11
222.8
 21
30.0
 31
0.0
  0
LINE
  5
A7
330
1F
100
AcDbEntity
  8
0
  6
Continuous
 62
     7
370
    15
100
AcDbLine
 10
222.8
 20
0.0
 30
0.0
 11
333.8
 21
0.0
 31
0.0
  0
ARC
  5
A8
330
1F
100
AcDbEntity
  8
0
  6
Continuous
 62
     7
370
    15
100
AcDbCircle
 10
333.8
 20
5.0
 30
0.0
 40
5.0
100
AcDbArc
 50
270.0
 51
0.0
  0
LINE
  5
A9
330
1F
100
AcDbEntity
  8
0
  6
Continuous
 62
     7
370
    15
100
AcDbLine
 10
338.8
 20
5.0
 30
0.0
 11
338.8
 21
125.0
 31
0.0
  0
ARC
  5
AA
330
1F
100
AcDbEntity
  8
0
  6
Continuous
 62
     7
370
    15
100
AcDbCircle
 10
333.8
 20
125.0
 30
0.0
 40
5.0
100
AcDbArc
 50
0.0
 51
90.0
  0
LINE
  5
AB
330
1F
100
AcDbEntity
  8
0
  6
Continuous
 62
     7
370
    15
100
AcDbLine
 10
328.8
 20
130.0
 30
0.0
 11
333.8
 21
130.0
 31
0.0
  0
LINE
  5
AC
330
1F
100
AcDbEntity
  8
0
  6
Continuous
 62
     7
370
    15
100
AcDbLine
 10
328.8
 20
65.0
 30
0.0
 11
328.8
 21
130.0
 31
0.0
  0
LINE
  5
AD
330
1F
100
AcDbEntity
  8
0
  6
Continuous
 62
     7
370
    15
100
AcDbLine
 10
328.8
 20
65.0
 30
0.0
 11
325.4
 21
65.0
 31
0.0
  0
LINE
  5
AE
330
1F
100
AcDbEntity
  8
0
  6
Continuous
 62
     7
370
    15
100
AcDbLine
 10
325.4
 20
65.0
 30
0.0
 11
325.4
 21
130.0
 31
0.0
  0
LINE
  5
AF
330
1F
100
AcDbEntity
  8
0
  6
Continuous
 62
     7
370
    15
100
AcDbLine
 10
13.4
 20
130.0
 30
0.0
 11
325.4
 21
130.0
 31
0.0
  0
LINE
  5
B0
330
1F
100
AcDbEntity
  8
0
  6
Continuous
 62
     7
370
    15
100
AcDbLine
 10
13.4
 20
65.0
 30
0.0
 11
13.4
 21
130.0
 31
0.0
  0
LINE
  5
B1
330
1F
100
AcDbEntity
  8
0
  6
Continuous
 62
     7
370
    15
100
AcDbLine
 10
10.0
 20
65.0
 30
0.0
 11
13.4
 21
65.0
 31
0.0
  0
LINE
  5
B2
330
1F
100
AcDbEntity
  8
0
  6
Continuous
 62
     7
370
    15
100
AcDbLine
 10
10.0
 20
65.0
 30
0.0
 11
10.0
 21
130.0
 31
0.0
  0
LINE
  5
B3
330
1F
100
AcDbEntity
  8
0
  6
Continuous
 62
     7
370
    15
100
AcDbLine
 10
5.0
 20
130.0
 30
0.0
 11
10.0
 21
130.0
 31
0.0
  0
ARC
  5
B4
330
1F
100
AcDbEntity
  8
0
  6
Continuous
 62
     7
370
    15
100
AcDbCircle
 10
5.0
 20
125.0
 30
0.0
 40
5.0
100
AcDbArc
 50
90.0
 51
180.0
  0
CIRCLE
  5
B5
330
1F
100
AcDbEntity
  8
0
  6
Continuous
 62
     7
370
    15
100
AcDbCircle
 10
169.4
 20
105.0
 30
0.0
 40
2.0
  0
CIRCLE
  5
B6
330
1F
100
AcDbEntity
  8
0
  6
Continuous
 62
     7
370
    15
100
AcDbCircle
 10
169.4
 20
33.0
 30
0.0
 40
2.0
  0
LINE
  5
B7
330
1F
100
AcDbEntity
  8
0
  6
Continuous
 62
     7
370
    15
100
AcDbLine
 10
186.4147435897
 20
6.8908804087
 30
0.0
 11
186.4147435897
 21
7.3201923077
 31
0.0
  0
LINE
  5
B8
330
1F
100
AcDbEntity
  8
0
  6
Continuous
 62
     7
370
    15
100
AcDbLine
 10
186.4147435897
 20
7.3201923077
 30
0.0
 11
186.6996794872
 21
7.3201923077
 31
0.0
  0
LINE
  5
B9
330
1F
100
AcDbEntity
  8
0
  6
Continuous
 62
     7
370
    15
100
AcDbLine
 10
186.6996794872
 20
7.3201923077
 30
0.0
 11
186.6996794872
 21
5.0
 31
0.0
  0
LINE
  5
BA
330
1F
100
AcDbEntity
  8
0
  6
Continuous
 62
     7
370
    15
100
AcDbLine
 10
186.6996794872
 20
5.0
 30
0.0
 11
186.4147435897
 21
5.0
 31
0.0
  0
LINE
  5
BB
330
1F
100
AcDbEntity
  8
0
  6
Continuous
 62
     7
370
    15
100
AcDbLine
 10
186.4147435897
 20
5.0
 30
0.0
 11
186.4147435897
 21
5.4013271234
 31
0.0
  0
SPLINE
  5
BC
330
1F
100
AcDbEntity
  8
0
  6
Continuous
 62
     7
370
    15
100
AcDbSpline
210
0.0
220
0.0
230
1.0
 70
     8
 71
     3
 72
    15
 73
    11
 74
     0
 42
0.000000001
 43
0.00000001
 40
0.0
 40
0.0
 40
0.0
 40
0.0
 40
0.1342983790141795
 40
0.2620849753822926
 40
0.3862699121344926
 40
0.5071645966228006
 40
0.6273002357254971
 40
0.7481449416029825
 40
0.8723701771613424
 40
1.0
 40
1.0
 40
1.0
 40
1.0
 10
186.4147435897436
 20
5.401327123397434
 30
0.0
 10
186.3826136868184
 20
5.365005491735686
 30
0.0
 10
186.3199117772422
 20
5.294123370821117
 30
0.0
 10
186.2151901916539
 20
5.201520257204486
 30
0.0
 10
186.1041847731279
 20
5.124977065521726
 30
0.0
 10
185.9874342889594
 20
5.063155356279237
 30
0.0
 10
185.8650441682111
 20
5.016716848030341
 30
0.0
 10
185.7372857176104
 20
4.983709403680511
 30
0.0
 10
185.6041068221111
 20
4.962487853202827
 30
0.0
 10
185.5131636145516
 20
4.960368747650208
 30
0.0
 10
185.4670773237179
 20
4.959294871794869
 30
0.0
  0
SPLINE
  5
BD
330
1F
100
AcDbEntity
  8
0
  6
Continuous
 62
     7
370
    15
100
AcDbSpline
210
0.0
220
0.0
230
1.0
 70
     8
 71
     3
 72
    23
 73
    19
 74
     0
 42
0.000000001
 43
0.00000001
 40
0.0
 40
0.0
 40
0.0
 40
0.0
 40
0.064619991340761
 40
0.1274334841444646
 40
0.1890041265579311
 40
0.2499300706860425
 40
0.3106684537406677
 40
0.3723289611368265
 40
0.4349391099970016
 40
0.4995755441940359
 40
0.5641912077719244
 40
0.6267352169294734
 40
0.6881093335614032
 40
0.7492936065367489
 40
0.810330527810947
 40
0.8719011702244153
 40
0.935045914684531
 40
0.9999999999999999
 40
0.9999999999999999
 40
0.9999999999999999
 40
0.9999999999999999
 10
185.4670773237179
 20
4.959294871794869
 30
0.0
 10
185.426103537027
 20
4.960407366639029
 30
0.0
 10
185.34530141545
 20
4.962601255730354
 30
0.0
 10
185.2264393240454
 20
4.979621345441218
 30
0.0
 10
185.1120556406134
 20
5.006954123645106
 30
0.0
 10
185.0020422782702
 20
5.044964216255488
 30
0.0
 10
184.8971111177692
 20
5.095383961598708
 30
0.0
 10
184.7963637443594
 20
5.155746379464833
 30
0.0
 10
184.7003220880278
 20
5.227629132466592
 30
0.0
 10
184.6104500491105
 20
5.309805415329545
 30
0.0
 10
184.5276895916266
 20
5.399063725131825
 30
0.0
 10
184.4550625800337
 20
5.494264328368568
 30
0.0
 10
184.3945080004511
 20
5.59499556118546
 30
0.0
 10
184.3438712129524
 20
5.699982065070246
 30
0.0
 10
184.3048673862098
 20
5.810032027790386
 30
0.0
 10
184.2776770179901
 20
5.924764887278626
 30
0.0
 10
184.2606767556259
 20
6.044044986846912
 30
0.0
 10
184.2584837734331
 20
6.125270125655072
 30
0.0
 10
184.2573717948718
 20
6.166456330128202
 30
0.0
  0
SPLINE
  5
BE
330
1F
100
AcDbEntity
  8
0
  6
Continuous
 62
     7
370
    15
100
AcDbSpline
210
0.0
220
0.0
230
1.0
 70
     8
 71
     3
 72
    23
 73
    19
 74
     0
 42
0.000000001
 43
0.00000001
 40
0.0
 40
0.0
 40
0.0
 40
0.0
 40
0.0637745323056322
 40
0.1260788099895052
 40
0.1869040927472074
 40
0.2475739349176179
 40
0.3080033561644465
 40
0.3691318984609757
 40
0.4320332277442043
 40
0.496790794437088
 40
0.5616108232295588
 40
0.6249138657484558
 40
0.6867263492419242
 40
0.7480788332577681
 40
0.8095822911398951
 40
0.8716307425688212
 40
0.9348858208285478
 40
0.9999999999999999
 40
0.9999999999999999
 40
0.9999999999999999
 40
0.9999999999999999
 10
184.2573717948718
 20
6.166456330128202
 30
0.0
 10
184.2585084189138
 20
6.206791261223327
 30
0.0
 10
184.2607554633285
 20
6.286531244091579
 30
0.0
 10
184.2774951698979
 20
6.403805491550184
 30
0.0
 10
184.3056447277531
 20
6.51676134235819
 30
0.0
 10
184.3451488467071
 20
6.625035140854036
 30
0.0
 10
184.3958054772808
 20
6.728757900631674
 30
0.0
 10
184.4574259562211
 20
6.828002980466665
 30
0.0
 10
184.5300147336265
 20
6.923043791021499
 30
0.0
 10
184.6137008457057
 20
7.011645546778539
 30
0.0
 10
184.7043559586389
 20
7.09348853258005
 30
0.0
 10
184.8013374502549
 20
7.164616738088572
 30
0.0
 10
184.9022328554532
 20
7.226045593800241
 30
0.0
 10
185.0086071578556
 20
7.27471696159244
 30
0.0
 10
185.1188858886512
 20
7.314095220714905
 30
0.0
 10
185.2340508001505
 20
7.341339413206094
 30
0.0
 10
185.3536227322347
 20
7.357393411759525
 30
0.0
 10
185.4348033928933
 20
7.359718204953724
 30
0.0
 10
185.4759815705128
 20
7.360897435897433
 30
0.0
  0
SPLINE
  5
BF
330
1F
100
AcDbEntity
  8
0
  6
Continuous
 62
     7
370
    15
100
AcDbSpline
210
0.0
220
0.0
230
1.0
 70
     8
 71
     3
 72
    15
 73
    11
 74
     0
 42
0.000000001
 43
0.00000001
 40
0.0
 40
0.0
 40
0.0
 40
0.0
 40
0.1298621417207362
 40
0.2546535308972849
 40
0.3760145541937065
 40
0.4952552518175966
 40
0.6147977192994417
 40
0.7381055541683285
 40
0.8651963000723482
 40
1.0
 40
1.0
 40
1.0
 40
1.0
 10
185.4759815705128
 20
7.360897435897433
 30
0.0
 10
185.5233342998056
 20
7.35959318985589
 30
0.0
 10
185.6161907670736
 20
7.357035624924054
 30
0.0
 10
185.7520154611942
 20
7.335751579427547
 30
0.0
 10
185.8805072375781
 20
7.29979382707994
 30
0.0
 10
186.0026579712054
 20
7.2508829538729
 30
0.0
 10
186.1180290221629
 20
7.185887321062872
 30
0.0
 10
186.2255281579351
 20
7.10389978499144
 30
0.0
 10
186.326280417793
 20
7.005437422525668
 30
0.0
 10
186.3846825395124
 20
6.929808519328589
 30
0.0
 10
186.4147435897436
 20
6.890880408653843
 30
0.0
  0
LINE
  5
C0
330
1F
100
AcDbEntity
  8
0
  6
Continuous
 62
     7
370
    15
100
AcDbLine
 10
181.0314903846
 20
5.0
 30
0.0
 11
180.9907852564
 21
5.0
 31
0.0
  0
LINE
  5
C1
330
1F
100
AcDbEntity
  8
0
  6
Continuous
 62
     7
370
    15
100
AcDbLine
 10
180.9907852564
 20
5.0
 30
0.0
 11
180.1461538462
 21
8.175
 31
0.0
  0
LINE
  5
C2
330
1F
100
AcDbEntity
  8
0
  6
Continuous
 62
     7
370
    15
100
AcDbLine
 10
180.1461538462
 20
8.175
 30
0.0
 11
180.440630008
 21
8.175
 31
0.0
  0
LINE
  5
C3
330
1F
100
AcDbEntity
  8
0
  6
Continuous
 62
     7
370
    15
100
AcDbLine
 10
180.440630008
 20
8.175
 30
0.0
 11
181.0620192308
 21
5.8465394631
 31
0.0
  0
LINE
  5
C4
330
1F
100
AcDbEntity
  8
0
  6
Continuous
 62
     7
370
    15
100
AcDbLine
 10
181.0620192308
 20
5.8465394631
 30
0.0
 11
181.9861528446
 21
8.175
 31
0.0
  0
LINE
  5
C5
330
1F
100
AcDbEntity
  8
0
  6
Continuous
 62
     7
370
    15
100
AcDbLine
 10
181.9861528446
 20
8.175
 30
0.0
 11
182.0274939904
 21
8.175
 31
0.0
  0
LINE
  5
C6
330
1F
100
AcDbEntity
  8
0
  6
Continuous
 62
     7
370
    15
100
AcDbLine
 10
182.0274939904
 20
8.175
 30
0.0
 11
182.9344551282
 21
5.8624399038
 31
0.0
  0
LINE
  5
C7
330
1F
100
AcDbEntity
  8
0
  6
Continuous
 62
     7
370
    15
100
AcDbLine
 10
182.9344551282
 20
5.8624399038
 30
0.0
 11
183.5590244391
 21
8.175
 31
0.0
  0
LINE
  5
C8
330
1F
100
AcDbEntity
  8
0
  6
Continuous
 62
     7
370
    15
100
AcDbLine
 10
183.5590244391
 20
8.175
 30
0.0
 11
183.8503205128
 21
8.175
 31
0.0
  0
LINE
  5
C9
330
1F
100
AcDbEntity
  8
0
  6
Continuous
 62
     7
370
    15
100
AcDbLine
 10
183.8503205128
 20
8.175
 30
0.0
 11
182.9942407853
 21
5.0
 31
0.0
  0
LINE
  5
CA
330
1F
100
AcDbEntity
  8
0
  6
Continuous
 62
     7
370
    15
100
AcDbLine
 10
182.9942407853
 20
5.0
 30
0.0
 11
182.9535356571
 21
5.0
 31
0.0
  0
LINE
  5
CB
330
1F
100
AcDbEntity
  8
0
  6
Continuous
 62
     7
370
    15
100
AcDbLine
 10
182.9535356571
 20
5.0
 30
0.0
 11
181.9982371795
 21
7.4283153045
 31
0.0
  0
LINE
  5
CC
330
1F
100
AcDbEntity
  8
0
  6
Continuous
 62
     7
370
    15
100
AcDbLine
 10
181.9982371795
 20
7.4283153045
 30
0.0
 11
181.0314903846
 21
5.0
 31
0.0
  0
SPLINE
  5
CD
330
1F
100
AcDbEntity
  8
0
  6
Continuous
 62
     7
370
    15
100
AcDbSpline
210
0.0
220
0.0
230
1.0
 70
     8
 71
     3
 72
    23
 73
    19
 74
     0
 42
0.000000001
 43
0.00000001
 40
0.0
 40
0.0
 40
0.0
 40
0.0
 40
0.0679784896192536
 40
0.1330435352439053
 40
0.1965074380533934
 40
0.2586134167685691
 40
0.3197283376065517
 40
0.3808728540495581
 40
0.4426356023162026
 40
0.5050793035048707
 40
0.5678805200585726
 40
0.6288138541554796
 40
0.6889100905404435
 40
0.7487650058898279
 40
0.8093857829631181
 40
0.8708843357532083
 40
0.9340374630736851
 40
1.0
 40
1.0
 40
1.0
 40
1.0
 10
170.661858974359
 20
6.752228565705126
 30
0.0
 10
170.66234356583
 20
6.773660176701216
 30
0.0
 10
170.6632919799948
 20
6.815604875809159
 30
0.0
 10
170.6708612267815
 20
6.877235091369883
 30
0.0
 10
170.6846422790806
 20
6.935789488075438
 30
0.0
 10
170.7019278160097
 20
6.99214742809026
 30
0.0
 10
170.7259516843268
 20
7.045217184824478
 30
0.0
 10
170.7546590411368
 20
7.095706462116145
 30
0.0
 10
170.7883933480321
 20
7.143545473446898
 30
0.0
 10
170.8272583333015
 20
7.187998314698192
 30
0.0
 10
170.8699907900582
 20
7.228374632133985
 30
0.0
 10
170.9161596168895
 20
7.263570530365168
 30
0.0
 10
170.9647264639307
 20
7.29360272364477
 30
0.0
 10
171.0158969588164
 20
7.318789690752522
 30
0.0
 10
171.0701626735765
 20
7.33784094496349
 30
0.0
 10
171.1271442954677
 20
7.350955858561332
 30
0.0
 10
171.1867264859653
 20
7.359714506816428
 30
0.0
 10
171.227458221659
 20
7.360497447571123
 30
0.0
 10
171.2482672275642
 20
7.360897435897433
 30
0.0
  0
SPLINE
  5
CE
330
1F
100
AcDbEntity
  8
0
  6
Continuous
 62
     7
370
    15
100
AcDbSpline
210
0.0
220
0.0
230
1.0
 70
     8
 71
     3
 72
    15
 73
    11
 74
     0
 42
0.000000001
 43
0.00000001
 40
0.0
 40
0.0
 40
0.0
 40
0.0
 40
0.1057142614175236
 40
0.2134116126389716
 40
0.3261267300734497
 40
0.4444516715568521
 40
0.5690610798550754
 40
0.7027122044812105
 40
0.8463179465861916
 40
1.0
 40
1.0
 40
1.0
 40
1.0
 10
171.2482672275642
 20
7.360897435897433
 30
0.0
 10
171.272934313708
 20
7.359895641121951
 30
0.0
 10
171.3227312149251
 20
7.357873258940944
 30
0.0
 10
171.3974386256974
 20
7.341811668178067
 30
0.0
 10
171.4720360145909
 20
7.315383780887839
 30
0.0
 10
171.5467150534902
 20
7.278883769216588
 30
0.0
 10
171.6209286731452
 20
7.231651674668131
 30
0.0
 10
171.6953296788438
 20
7.174565810241155
 30
0.0
 10
171.7708112491785
 20
7.108001740650688
 30
0.0
 10
171.8179430474919
 20
7.057111729019705
 30
0.0
 10
171.8423076923077
 20
7.030804286858972
 30
0.0
  0
LINE
  5
CF
330
1F
100
AcDbEntity
  8
0
  6
Continuous
 62
     7
370
    15
100
AcDbLine
 10
171.8423076923
 20
7.0308042869
 30
0.0
 11
171.6489583333
 21
6.8317307692
 31
0.0
  0
SPLINE
  5
D0
330
1F
100
AcDbEntity
  8
0
  6
Continuous
 62
     7
370
    15
100
AcDbSpline
210
0.0
220
0.0
230
1.0
 70
     8
 71
     3
 72
    15
 73
    11
 74
     0
 42
0.000000001
 43
0.00000001
 40
0.0
 40
0.0
 40
0.0
 40
0.0
 40
0.1582230975562946
 40
0.3050355053581552
 40
0.4413089638879047
 40
0.5659632271047437
 40
0.683525114415045
 40
0.7933341296296075
 40
0.898517512161031
 40
1.0
 40
1.0
 40
1.0
 40
1.0
 10
171.6489583333334
 20
6.831730769230767
 30
0.0
 10
171.6322755194187
 20
6.851064837691607
 30
0.0
 10
171.6001130181666
 20
6.888338645591131
 30
0.0
 10
171.5491030318287
 20
6.938174413062139
 30
0.0
 10
171.4982816200148
 20
6.98002720767413
 30
0.0
 10
171.4483444819877
 20
7.015362471113272
 30
0.0
 10
171.3980359093276
 20
7.042077054105716
 30
0.0
 10
171.3479462764503
 20
7.061575964580126
 30
0.0
 10
171.2980237207976
 20
7.073642602572352
 30
0.0
 10
171.2646535317094
 20
7.075197843387706
 30
0.0
 10
171.2482672275642
 20
7.075961538461536
 30
0.0
  0
SPLINE
  5
D1
330
1F
100
AcDbEntity
  8
0
  6
Continuous
 62
     7
370
    15
100
AcDbSpline
210
0.0
220
0.0
230
1.0
 70
     8
 71
     3
 72
    15
 73
    11
 74
     0
 42
0.000000001
 43
0.00000001
 40
0.0
 40
0.0
 40
0.0
 40
0.0
 40
0.1249584925460573
 40
0.2459006286062905
 40
0.3691660295860963
 40
0.4985108411773664
 40
0.6285038663666076
 40
0.7510283288509991
 40
0.8737241742784349
 40
1.0
 40
1.0
 40
1.0
 40
1.0
 10
171.2482672275642
 20
7.075961538461536
 30
0.0
 10
171.2281836382077
 20
7.074986475117474
 30
0.0
 10
171.1886619766799
 20
7.073067688451991
 30
0.0
 10
171.1320328414773
 20
7.053914790934023
 30
0.0
 10
171.0794633459253
 20
7.024515435331084
 30
0.0
 10
171.0339637997768
 20
6.982815363106012
 30
0.0
 10
170.9954214043289
 20
6.934950633526267
 30
0.0
 10
170.9672875651194
 20
6.881432538808296
 30
0.0
 10
170.9500827085413
 20
6.823876099160418
 30
0.0
 10
170.947901273046
 20
6.783934728275546
 30
0.0
 10
170.9467948717949
 20
6.763676883012818
 30
0.0
  0
SPLINE
  5
D2
330
1F
100
AcDbEntity
  8
0
  6
Continuous
 62
     7
370
    15
100
AcDbSpline
210
0.0
220
0.0
230
1.0
 70
     8
 71
     3
 72
    11
 73
     7
 74
     0
 42
0.000000001
 43
0.00000001
 40
0.0
 40
0.0
 40
0.0
 40
0.0
 40
0.2400399314959816
 40
0.4794031936060911
 40
0.7317567388575391
 40
1.0
 40
1.0
 40
1.0
 40
1.0
 10
170.9467948717949
 20
6.763676883012818
 30
0.0
 10
170.947802537207
 20
6.745341671532401
 30
0.0
 10
170.9498150274359
 20
6.708722935289754
 30
0.0
 10
170.9654602292918
 20
6.654704361734422
 30
0.0
 10
170.9903758804834
 20
6.602038334230977
 30
0.0
 10
171.0136624138683
 20
6.569777697753269
 30
0.0
 10
171.0256610576923
 20
6.553155048076921
 30
0.0
  0
SPLINE
  5
D3
330
1F
100
AcDbEntity
  8
0
  6
Continuous
 62
     7
370
    15
100
AcDbSpline
210
0.0
220
0.0
230
1.0
 70
     8
 71
     3
 72
    15
 73
    11
 74
     0
 42
0.000000001
 43
0.00000001
 40
0.0
 40
0.0
 40
0.0
 40
0.0
 40
0.0834251049856371
 40
0.1775598214659387
 40
0.2839823599504449
 40
0.4022167468072059
 40
0.5335684803800526
 40
0.6761209941988388
 40
0.8316493725539897
 40
1.0
 40
1.0
 40
1.0
 40
1.0
 10
171.0256610576923
 20
6.553155048076921
 30
0.0
 10
171.0328850841852
 20
6.544279032289095
 30
0.0
 10
171.048260514094
 20
6.525387551374724
 30
0.0
 10
171.0771153812515
 20
6.499167627203063
 30
0.0
 10
171.1097929374177
 20
6.470191442389894
 30
0.0
 10
171.1490903095034
 20
6.441220168845077
 30
0.0
 10
171.1933144562267
 20
6.410711389550775
 30
0.0
 10
171.243424378335
 20
6.379866597495238
 30
0.0
 10
171.2978298221301
 20
6.346334583489391
 30
0.0
 10
171.3367800931323
 20
6.325067131246114
 30
0.0
 10
171.3570262419872
 20
6.314012419871792
 30
0.0
  0
SPLINE
  5
D4
330
1F
100
AcDbEntity
  8
0
  6
Continuous
 62
     7
370
    15
100
AcDbSpline
210
0.0
220
0.0
230
1.0
 70
     8
 71
     3
 72
    15
 73
    11
 74
     0
 42
0.000000001
 43
0.00000001
 40
0.0
 40
0.0
 40
0.0
 40
0.0
 40
0.1589891012268005
 40
0.3071145916055753
 40
0.446213158596206
 40
0.5748760724117438
 40
0.6941521095829494
 40
0.8045811801532385
 40
0.906593319045767
 40
1.0
 40
1.0
 40
1.0
 40
1.0
 10
171.3570262419872
 20
6.314012419871792
 30
0.0
 10
171.3817128440682
 20
6.30018311517612
 30
0.0
 10
171.429399230479
 20
6.273469452220431
 30
0.0
 10
171.497156240775
 20
6.232004221179612
 30
0.0
 10
171.5586487707987
 20
6.190791429160041
 30
0.0
 10
171.6143978407371
 20
6.150271830713937
 30
0.0
 10
171.6633307673293
 20
6.109311729375822
 30
0.0
 10
171.7069321829492
 20
6.069481121263993
 30
0.0
 10
171.7441145570823
 20
6.029576534463548
 30
0.0
 10
171.7649370477202
 20
6.001697209910905
 30
0.0
 10
171.774889823718
 20
5.988371394230767
 30
0.0
  0
SPLINE
  5
D5
330
1F
100
AcDbEntity
  8
0
  6
Continuous
 62
     7
370
    15
100
AcDbSpline
210
0.0
220
0.0
230
1.0
 70
     8
 71
     3
 72
    11
 73
     7
 74
     0
 42
0.000000001
 43
0.00000001
 40
0.0
 40
0.0
 40
0.0
 40
0.0
 40
0.2488386141270928
 40
0.4952350254576713
 40
0.7433356038750085
 40
1.0
 40
1.0
 40
1.0
 40
1.0
 10
171.774889823718
 20
5.988371394230767
 30
0.0
 10
171.7914093735846
 20
5.961460014356379
 30
0.0
 10
171.8242863437745
 20
5.907901373773421
 30
0.0
 10
171.8588106283453
 20
5.819710371735988
 30
0.0
 10
171.8788224490956
 20
5.726174415953673
 30
0.0
 10
171.8816003202984
 20
5.662191616276389
 30
0.0
 10
171.8830128205128
 20
5.629657451923074
 30
0.0
  0
SPLINE
  5
D6
330
1F
100
AcDbEntity
  8
0
  6
Continuous
 62
     7
370
    15
100
AcDbSpline
210
0.0
220
0.0
230
1.0
 70
     8
 71
     3
 72
    23
 73
    19
 74
     0
 42
0.000000001
 43
0.00000001
 40
0.0
 40
0.0
 40
0.0
 40
0.0
 40
0.0645481255642519
 40
0.1271991327555133
 40
0.1885973380874271
 40
0.2486395150940182
 40
0.3095246994640546
 40
0.3700369910533546
 40
0.4318892436070759
 40
0.4957042857252937
 40
0.5595193278435191
 40
0.6213715803972432
 40
0.682397107291657
 40
0.7435684819321835
 40
0.8054984835712246
 40
0.8686397008205408
 40
0.9330662250811784
 40
1.0
 40
1.0
 40
1.0
 40
1.0
 10
171.8830128205128
 20
5.629657451923074
 30
0.0
 10
171.8823601005517
 20
5.606734726400991
 30
0.0
 10
171.8810738445642
 20
5.561562991647836
 30
0.0
 10
171.8721311695563
 20
5.495037824704762
 30
0.0
 10
171.8567505838917
 20
5.43141576179675
 30
0.0
 10
171.835801249945
 20
5.370006467817499
 30
0.0
 10
171.8075125688108
 20
5.311986572593088
 30
0.0
 10
171.7743584956807
 20
5.255892261011449
 30
0.0
 10
171.7345576828918
 20
5.202936952366795
 30
0.0
 10
171.6891176492965
 20
5.153190181348273
 30
0.0
 10
171.639364951187
 20
5.10775525333126
 30
0.0
 10
171.5862915256805
 20
5.067819238038356
 30
0.0
 10
171.529832015056
 20
5.034641089293473
 30
0.0
 10
171.4703898451941
 20
5.007186097537396
 30
0.0
 10
171.4078299589999
 20
4.985352749257471
 30
0.0
 10
171.342142575147
 20
4.970237453048684
 30
0.0
 10
171.2735364906428
 20
4.961190734056101
 30
0.0
 10
171.2268823075525
 20
4.959934816374389
 30
0.0
 10
171.2031099759616
 20
4.959294871794869
 30
0.0
  0
SPLINE
  5
D7
330
1F
100
AcDbEntity
  8
0
  6
Continuous
 62
     7
370
    15
100
AcDbSpline
210
0.0
220
0.0
230
1.0
 70
     8
 71
     3
 72
    15
 73
    11
 74
     0
 42
0.000000001
 43
0.00000001
 40
0.0
 40
0.0
 40
0.0
 40
0.0
 40
0.1267425189618462
 40
0.2517239612496193
 40
0.3772186880262417
 40
0.5046935492516225
 40
0.6314582385934971
 40
0.7554010672029496
 40
0.8777005336014617
 40
1.0
 40
1.0
 40
1.0
 40
1.0
 10
171.2031099759616
 20
4.959294871794869
 30
0.0
 10
171.1710268953857
 20
4.960195392804478
 30
0.0
 10
171.1073065259485
 20
4.961983922159772
 30
0.0
 10
171.0130637092922
 20
4.978771563358304
 30
0.0
 10
170.9209698782177
 20
5.004893099314602
 30
0.0
 10
170.8317219523684
 20
5.040921125300899
 30
0.0
 10
170.747315834769
 20
5.086414986249987
 30
0.0
 10
170.6700899245955
 20
5.140900157574671
 30
0.0
 10
170.5997759550774
 20
5.202576798076766
 30
0.0
 10
170.5597543781882
 20
5.249850652777724
 30
0.0
 10
170.5397435897436
 20
5.273487580128203
 30
0.0
  0
LINE
  5
D8
330
1F
100
AcDbEntity
  8
0
  6
Continuous
 62
     7
370
    15
100
AcDbLine
 10
170.5397435897
 20
5.2734875801
 30
0.0
 11
170.7286408253
 21
5.4884615385
 31
0.0
  0
SPLINE
  5
D9
330
1F
100
AcDbEntity
  8
0
  6
Continuous
 62
     7
370
    15
100
AcDbSpline
210
0.0
220
0.0
230
1.0
 70
     8
 71
     3
 72
    15
 73
    11
 74
     0
 42
0.000000001
 43
0.00000001
 40
0.0
 40
0.0
 40
0.0
 40
0.0
 40
0.1474758177483448
 40
0.2859041715443824
 40
0.4171716482444169
 40
0.5405007435864904
 40
0.6592377183802413
 40
0.7750060983159592
 40
0.8872285734285908
 40
1.0
 40
1.0
 40
1.0
 40
1.0
 10
170.7286408253206
 20
5.488461538461536
 30
0.0
 10
170.7465772285206
 20
5.469089716354169
 30
0.0
 10
170.7813496581683
 20
5.43153451011444
 30
0.0
 10
170.8369586191202
 20
5.381528858219646
 30
0.0
 10
170.8935456472637
 20
5.339617705121301
 30
0.0
 10
170.9505456843704
 20
5.304562607417152
 30
0.0
 10
171.008802484221
 20
5.277552063124234
 30
0.0
 10
171.0679895771329
 20
5.258575910077654
 30
0.0
 10
171.127986576103
 20
5.246380107130351
 30
0.0
 10
171.168283799311
 20
5.24494837959762
 30
0.0
 10
171.1884815705129
 20
5.244230769230767
 30
0.0
  0
SPLINE
  5
DA
330
1F
100
AcDbEntity
  8
0
  6
Continuous
 62
     7
370
    15
100
AcDbSpline
210
0.0
220
0.0
230
1.0
 70
     8
 71
     3
 72
    15
 73
    11
 74
     0
 42
0.000000001
 43
0.00000001
 40
0.0
 40
0.0
 40
0.0
 40
0.0
 40
0.1340420464623707
 40
0.2618956736507242
 40
0.3878360446910996
 40
0.5176862058208266
 40
0.6445086536782142
 40
0.7647182630567263
 40
0.8802907821585007
 40
1.0
 40
1.0
 40
1.0
 40
1.0
 10
171.1884815705129
 20
5.244230769230768
 30
0.0
 10
171.2159842604891
 20
5.245474303211092
 30
0.0
 10
171.2697199032119
 20
5.247903960009686
 30
0.0
 10
171.3466853128118
 20
5.269963036351022
 30
0.0
 10
171.4177496382346
 20
5.304552349792329
 30
0.0
 10
171.479456530241
 20
5.353614897408998
 30
0.0
 10
171.5319820620666
 20
5.410724595410136
 30
0.0
 10
171.5700169059936
 20
5.475053832204025
 30
0.0
 10
171.593853150876
 20
5.54471465362925
 30
0.0
 10
171.5966525925139
 20
5.59300395671942
 30
0.0
 10
171.598076923077
 20
5.617573116987177
 30
0.0
  0
SPLINE
  5
DB
330
1F
100
AcDbEntity
  8
0
  6
Continuous
 62
     7
370
    15
100
AcDbSpline
210
0.0
220
0.0
230
1.0
 70
     8
 71
     3
 72
    11
 73
     7
 74
     0
 42
0.000000001
 43
0.00000001
 40
0.0
 40
0.0
 40
0.0
 40
0.0
 40
0.2534754346498636
 40
0.5004533151028979
 40
0.7455781350009623
 40
1.0
 40
1.0
 40
1.0
 40
1.0
 10
171.598076923077
 20
5.617573116987177
 30
0.0
 10
171.5970914989267
 20
5.637811128202067
 30
0.0
 10
171.5951459108525
 20
5.67776837225442
 30
0.0
 10
171.5798666569629
 20
5.735599038773024
 30
0.0
 10
171.5557249981271
 20
5.790453314820612
 30
0.0
 10
171.5319536385491
 20
5.82255678053277
 30
0.0
 10
171.5198467548077
 20
5.838907251602562
 30
0.0
  0
SPLINE
  5
DC
330
1F
100
AcDbEntity
  8
0
  6
Continuous
 62
     7
370
    15
100
AcDbSpline
210
0.0
220
0.0
230
1.0
 70
     8
 71
     3
 72
    15
 73
    11
 74
     0
 42
0.000000001
 43
0.00000001
 40
0.0
 40
0.0
 40
0.0
 40
0.0
 40
0.0768750740350495
 40
0.1674616757257369
 40
0.2722700232466165
 40
0.3895508405125279
 40
0.520801368348045
 40
0.6662632933752073
 40
0.8255449152058482
 40
1.0
 40
1.0
 40
1.0
 40
1.0
 10
171.5198467548077
 20
5.838907251602562
 30
0.0
 10
171.5125692970057
 20
5.847103615840233
 30
0.0
 10
171.4967163655603
 20
5.864958257378179
 30
0.0
 10
171.4676376824122
 20
5.890743864631215
 30
0.0
 10
171.432819850273
 20
5.918536997434583
 30
0.0
 10
171.3918712738987
 20
5.947866367400417
 30
0.0
 10
171.3447094048553
 20
5.978345102201163
 30
0.0
 10
171.2911430950374
 20
6.009813300313234
 30
0.0
 10
171.2319061652257
 20
6.043765594421322
 30
0.0
 10
171.1900228068159
 20
6.066280567482739
 30
0.0
 10
171.1681290064103
 20
6.07804987980769
 30
0.0
  0
SPLINE
  5
DD
330
1F
100
AcDbEntity
  8
0
  6
Continuous
 62
     7
370
    15
100
AcDbSpline
210
0.0
220
0.0
230
1.0
 70
     8
 71
     3
 72
    15
 73
    11
 74
     0
 42
0.000000001
 43
0.00000001
 40
0.0
 40
0.0
 40
0.0
 40
0.0
 40
0.1577616635135723
 40
0.3059502132085292
 40
0.4437754990007189
 40
0.5728243624015233
 40
0.6921541564432542
 40
0.8022957069908392
 40
0.9055643918329922
 40
1.0
 40
1.0
 40
1.0
 40
1.0
 10
171.1681290064103
 20
6.07804987980769
 30
0.0
 10
171.144500982946
 20
6.091238949245997
 30
0.0
 10
171.0986787048613
 20
6.116816764012925
 30
0.0
 10
171.033775090941
 20
6.156654922533
 30
0.0
 10
170.9752214196139
 20
6.197174521707149
 30
0.0
 10
170.9216087555464
 20
6.236102597312318
 30
0.0
 10
170.8742912718247
 20
6.2754915964647
 30
0.0
 10
170.8334553758623
 20
6.315385246010191
 30
0.0
 10
170.7974933157866
 20
6.354174661953551
 30
0.0
 10
170.7775838780018
 20
6.381658638168358
 30
0.0
 10
170.7680739182693
 20
6.394786658653843
 30
0.0
  0
SPLINE
  5
DE
330
1F
100
AcDbEntity
  8
0
  6
Continuous
 62
     7
370
    15
100
AcDbSpline
210
0.0
220
0.0
230
1.0
 70
     8
 71
     3
 72
    11
 73
     7
 74
     0
 42
0.000000001
 43
0.00000001
 40
0.0
 40
0.0
 40
0.0
 40
0.0
 40
0.2462523706929746
 40
0.4925907964763823
 40
0.740569991118088
 40
1.0
 40
1.0
 40
1.0
 40
1.0
 10
170.7680739182693
 20
6.394786658653843
 30
0.0
 10
170.7516268742953
 20
6.421225895150503
 30
0.0
 10
170.718727038781
 20
6.474113607571167
 30
0.0
 10
170.6867818296408
 20
6.562388111463838
 30
0.0
 10
170.6648235034453
 20
6.655320413469728
 30
0.0
 10
170.6628619066488
 20
6.719443488483666
 30
0.0
 10
170.661858974359
 20
6.752228565705126
 30
0.0
  0
SPLINE
  5
DF
330
1F
100
AcDbEntity
  8
0
  6
Continuous
 62
     7
370
    15
100
AcDbSpline
210
0.0
220
0.0
230
1.0
 70
     8
 71
     3
 72
    15
 73
    11
 74
     0
 42
0.000000001
 43
0.00000001
 40
0.0
 40
0.0
 40
0.0
 40
0.0
 40
0.1318667517023365
 40
0.2566614034533454
 40
0.3842132129424829
 40
0.5133652331525987
 40
0.6404431518253852
 40
0.7610850047778731
 40
0.8791455246531562
 40
0.9999999999999999
 40
0.9999999999999999
 40
0.9999999999999999
 40
0.9999999999999999
 10
172.553375400641
 20
7.808653846153844
 30
0.0
 10
172.5358963224541
 20
7.809442806640657
 30
0.0
 10
172.5018755804503
 20
7.810978415148491
 30
0.0
 10
172.4525570877541
 20
7.825102645523589
 30
0.0
 10
172.4073555295188
 20
7.848158654693337
 30
0.0
 10
172.3668382907502
 20
7.879206694029694
 30
0.0
 10
172.3330651869803
 20
7.91634956508805
 30
0.0
 10
172.3084831346562
 20
7.958375038801294
 30
0.0
 10
172.2929937049458
 20
8.003921914776178
 30
0.0
 10
172.2910482204168
 20
8.0355922370709
 30
0.0
 10
172.2900641025641
 20
8.051612580128202
 30
0.0
  0
SPLINE
  5
E0
330
1F
100
AcDbEntity
  8
0
  6
Continuous
 62
     7
370
    15
100
AcDbSpline
210
0.0
220
0.0
230
1.0
 70
     8
 71
     3
 72
    15
 73
    11
 74
     0
 42
0.000000001
 43
0.00000001
 40
0.0
 40
0.0
 40
0.0
 40
0.0
 40
0.1232898687278052
 40
0.2421490813339834
 40
0.363437476053736
 40
0.4897453933413616
 40
0.6181148445930248
 40
0.7448937812572674
 40
0.8689322665891803
 40
1.0
 40
1.0
 40
1.0
 40
1.0
 10
172.2900641025641
 20
8.051612580128202
 30
0.0
 10
172.2910266597094
 20
8.068059850839246
 30
0.0
 10
172.2929171826767
 20
8.10036332828007
 30
0.0
 10
172.3084947451736
 20
8.146713822425008
 30
0.0
 10
172.3328604279291
 20
8.189332756203584
 30
0.0
 10
172.3668606534202
 20
8.226548744968566
 30
0.0
 10
172.4073495780941
 20
8.257614246509082
 30
0.0
 10
172.4525586254952
 20
8.280665636871774
 30
0.0
 10
172.5018751742172
 20
8.294791066157666
 30
0.0
 10
172.5358961845782
 20
8.296326509160995
 30
0.0
 10
172.553375400641
 20
8.297115384615381
 30
0.0
  0
SPLINE
  5
E1
330
1F
100
AcDbEntity
  8
0
  6
Continuous
 62
     7
370
    15
100
AcDbSpline
210
0.0
220
0.0
230
1.0
 70
     8
 71
     3
 72
    15
 73
    11
 74
     0
 42
0.000000001
 43
0.00000001
 40
0.0
 40
0.0
 40
0.0
 40
0.0
 40
0.1318992643310722
 40
0.258284092316994
 40
0.3843411247791204
 40
0.5119796151257059
 40
0.6386320084211534
 40
0.7592297631645828
 40
0.8774121680351996
 40
1.0
 40
1.0
 40
1.0
 40
1.0
 10
172.553375400641
 20
8.297115384615381
 30
0.0
 10
172.5710568085345
 20
8.296295189227823
 30
0.0
 10
172.605680401106
 20
8.294689089131113
 30
0.0
 10
172.6557485796408
 20
8.28093546349551
 30
0.0
 10
172.7013388691663
 20
8.257622177413719
 30
0.0
 10
172.7417772411449
 20
8.226344181168173
 30
0.0
 10
172.7764771669199
 20
8.189560043173019
 30
0.0
 10
172.8007710970461
 20
8.146687593362326
 30
0.0
 10
172.8163851992364
 20
8.100370113889577
 30
0.0
 10
172.8182707458096
 20
8.06806214013245
 30
0.0
 10
172.8192307692308
 20
8.051612580128204
 30
0.0
  0
SPLINE
  5
E2
330
1F
100
AcDbEntity
  8
0
  6
Continuous
 62
     7
370
    15
100
AcDbSpline
210
0.0
220
0.0
230
1.0
 70
     8
 71
     3
 72
    15
 73
    11
 74
     0
 42
0.000000001
 43
0.00000001
 40
0.0
 40
0.0
 40
0.0
 40
0.0
 40
0.1201621349925913
 40
0.237546320276879
 40
0.3574970509273497
 40
0.484917122465278
 40
0.6133292680851088
 40
0.7401503701286692
 40
0.8673012545632689
 40
1.0
 40
1.0
 40
1.0
 40
1.0
 10
172.8192307692308
 20
8.051612580128204
 30
0.0
 10
172.8182490956754
 20
8.035590030473008
 30
0.0
 10
172.8163084432327
 20
8.003915345995402
 30
0.0
 10
172.8007831574617
 20
7.958400839205003
 30
0.0
 10
172.7762701274189
 20
7.916124096330799
 30
0.0
 10
172.7417994920295
 20
7.879411380638267
 30
0.0
 10
172.7013329731206
 20
7.848150675361143
 30
0.0
 10
172.6557501459567
 20
7.824832805068729
 30
0.0
 10
172.6056799890899
 20
7.811080394744116
 30
0.0
 10
172.5710566692549
 20
7.809474127102447
 30
0.0
 10
172.553375400641
 20
7.808653846153844
 30
0.0
  0
LINE
  5
E3
330
1F
100
AcDbEntity
  8
0
  6
Continuous
 62
     7
370
    15
100
AcDbLine
 10
172.6971153846
 20
5.0
 30
0.0
 11
172.4121794872
 21
5.0
 31
0.0
  0
LINE
  5
E4
330
1F
100
AcDbEntity
  8
0
  6
Continuous
 62
     7
370
    15
100
AcDbLine
 10
172.4121794872
 20
5.0
 30
0.0
 11
172.4121794872
 21
7.3201923077
 31
0.0
  0
LINE
  5
E5
330
1F
100
AcDbEntity
  8
0
  6
Continuous
 62
     7
370
    15
100
AcDbLine
 10
172.4121794872
 20
7.3201923077
 30
0.0
 11
172.6971153846
 21
7.3201923077
 31
0.0
  0
LINE
  5
E6
330
1F
100
AcDbEntity
  8
0
  6
Continuous
 62
     7
370
    15
100
AcDbLine
 10
172.6971153846
 20
7.3201923077
 30
0.0
 11
172.6971153846
 21
5.0
 31
0.0
  0
LINE
  5
E7
330
1F
100
AcDbEntity
  8
0
  6
Continuous
 62
     7
370
    15
100
AcDbLine
 10
173.6740384615
 20
5.0
 30
0.0
 11
173.3891025641
 21
5.0
 31
0.0
  0
LINE
  5
E8
330
1F
100
AcDbEntity
  8
0
  6
Continuous
 62
     7
370
    15
100
AcDbLine
 10
173.3891025641
 20
5.0
 30
0.0
 11
173.3891025641
 21
7.3201923077
 31
0.0
  0
LINE
  5
E9
330
1F
100
AcDbEntity
  8
0
  6
Continuous
 62
     7
370
    15
100
AcDbLine
 10
173.3891025641
 20
7.3201923077
 30
0.0
 11
173.6740384615
 21
7.3201923077
 31
0.0
  0
LINE
  5
EA
330
1F
100
AcDbEntity
  8
0
  6
Continuous
 62
     7
370
    15
100
AcDbLine
 10
173.6740384615
 20
7.3201923077
 30
0.0
 11
173.6740384615
 21
6.9016927083
 31
0.0
  0
SPLINE
  5
EB
330
1F
100
AcDbEntity
  8
0
  6
Continuous
 62
     7
370
    15
100
AcDbSpline
210
0.0
220
0.0
230
1.0
 70
     8
 71
     3
 72
    15
 73
    11
 74
     0
 42
0.000000001
 43
0.00000001
 40
0.0
 40
0.0
 40
0.0
 40
0.0
 40
0.1409759662687777
 40
0.2735687809631717
 40
0.3989883138042586
 40
0.519929781392423
 40
0.6381100215247323
 40
0.756588900740586
 40
0.8768597544106109
 40
1.0
 40
1.0
 40
1.0
 40
1.0
 10
173.6740384615384
 20
6.90169270833333
 30
0.0
 10
173.704461887694
 20
6.93965003547889
 30
0.0
 10
173.763499607572
 20
7.013307553073297
 30
0.0
 10
173.8618196813289
 20
7.110118359995667
 30
0.0
 10
173.9657273623358
 20
7.18989724271485
 30
0.0
 10
174.0745863226421
 20
7.253491398650065
 30
0.0
 10
174.188544338947
 20
7.301430838084924
 30
0.0
 10
174.3069067695564
 20
7.336052789855494
 30
0.0
 10
174.4303822529361
 20
7.356812598602151
 30
0.0
 10
174.5143514206713
 20
7.359525164659575
 30
0.0
 10
174.5568309294872
 20
7.360897435897434
 30
0.0
  0
SPLINE
  5
EC
330
1F
100
AcDbEntity
  8
0
  6
Continuous
 62
     7
370
    15
100
AcDbSpline
210
0.0
220
0.0
230
1.0
 70
     8
 71
     3
 72
    23
 73
    19
 74
     0
 42
0.000000001
 43
0.00000001
 40
0.0
 40
0.0
 40
0.0
 40
0.0
 40
0.0772404236164749
 40
0.1511781404663758
 40
0.2234879838003895
 40
0.2955426441988721
 40
0.3669762546197815
 40
0.4371305254863775
 40
0.5070436156432686
 40
0.5785597335236745
 40
0.6166135446965495
 40
0.6587562369775272
 40
0.7044912261144022
 40
0.7548031149051482
 40
0.809331625318564
 40
0.8682744554728196
 40
0.9320728834092934
 40
1.0
 40
1.0
 40
1.0
 40
1.0
 10
174.5568309294871
 20
7.360897435897433
 30
0.0
 10
174.59976657615
 20
7.359314294318636
 30
0.0
 10
174.6838019933358
 20
7.356215704373481
 30
0.0
 10
174.8061556633037
 20
7.331707706008459
 30
0.0
 10
174.9204315275768
 20
7.289847367431087
 30
0.0
 10
175.026222124613
 20
7.232504989279769
 30
0.0
 10
175.1215875253064
 20
7.161197688406304
 30
0.0
 10
175.2053393548597
 20
7.078123557810495
 30
0.0
 10
175.2746117292666
 20
6.982568682303928
 30
0.0
 10
175.3210550514163
 20
6.893919819146426
 30
0.0
 10
175.3516490318217
 20
6.81528069862753
 30
0.0
 10
175.3709097951378
 20
6.747928289609296
 30
0.0
 10
175.3872664711759
 20
6.672891109620201
 30
0.0
 10
175.4014466997349
 20
6.590395910978002
 30
0.0
 10
175.4110416512145
 20
6.499864695534788
 30
0.0
 10
175.4186093013894
 20
6.401668574886783
 30
0.0
 10
175.4240328312081
 20
6.295839356508647
 30
0.0
 10
175.4242480118318
 20
6.222645058786825
 30
0.0
 10
175.4243589743589
 20
6.184900841346151
 30
0.0
  0
LINE
  5
ED
330
1F
100
AcDbEntity
  8
0
  6
Continuous
 62
     7
370
    15
100
AcDbLine
 10
175.4243589744
 20
6.1849008413
 30
0.0
 11
175.4243589744
 21
5.0
 31
0.0
  0
LINE
  5
EE
330
1F
100
AcDbEntity
  8
0
  6
Continuous
 62
     7
370
    15
100
AcDbLine
 10
175.4243589744
 20
5.0
 30
0.0
 11
175.1394230769
 21
5.0
 31
0.0
  0
LINE
  5
EF
330
1F
100
AcDbEntity
  8
0
  6
Continuous
 62
     7
370
    15
100
AcDbLine
 10
175.1394230769
 20
5.0
 30
0.0
 11
175.1394230769
 21
6.09140625
 31
0.0
  0
SPLINE
  5
F0
330
1F
100
AcDbEntity
  8
0
  6
Continuous
 62
     7
370
    15
100
AcDbSpline
210
0.0
220
0.0
230
1.0
 70
     8
 71
     3
 72
    15
 73
    11
 74
     0
 42
0.000000001
 43
0.00000001
 40
0.0
 40
0.0
 40
0.0
 40
0.0
 40
0.1788500194111603
 40
0.3421096489422994
 40
0.4898256633683922
 40
0.6232544282245632
 40
0.7400796760857921
 40
0.8414826730699866
 40
0.9289076721840666
 40
0.9999999999999999
 40
0.9999999999999999
 40
0.9999999999999999
 40
0.9999999999999999
 10
175.139423076923
 20
6.091406249999997
 30
0.0
 10
175.1392478096487
 20
6.122995182185369
 30
0.0
 10
175.1389125531813
 20
6.183419433387468
 30
0.0
 10
175.1378551451176
 20
6.26993276156728
 30
0.0
 10
175.1353062491276
 20
6.348388443404086
 30
0.0
 10
175.1317245652682
 20
6.418598912407576
 30
0.0
 10
175.1264821590023
 20
6.480496749861473
 30
0.0
 10
175.121018771992
 20
6.534208022331401
 30
0.0
 10
175.1143376858976
 20
6.579664535824024
 30
0.0
 10
175.1083841861232
 20
6.607028574843008
 30
0.0
 10
175.1057141426282
 20
6.619300881410254
 30
0.0
  0
SPLINE
  5
F1
330
1F
100
AcDbEntity
  8
0
  6
Continuous
 62
     7
370
    15
100
AcDbSpline
210
0.0
220
0.0
230
1.0
 70
     8
 71
     3
 72
    15
 73
    11
 74
     0
 42
0.000000001
 43
0.00000001
 40
0.0
 40
0.0
 40
0.0
 40
0.0
 40
0.1355195283706031
 40
0.2608331631936759
 40
0.3784760291245067
 40
0.4931776464746733
 40
0.6092809649289375
 40
0.7299810378566298
 40
0.8592613089300506
 40
1.0
 40
1.0
 40
1.0
 40
1.0
 10
175.1057141426282
 20
6.619300881410254
 30
0.0
 10
175.0960752676188
 20
6.655324599184191
 30
0.0
 10
175.0775234154353
 20
6.724659110379338
 30
0.0
 10
175.0316818736005
 20
6.818706558828799
 30
0.0
 10
174.9737932953147
 20
6.898714914931079
 30
0.0
 10
174.9031288176763
 20
6.964189512404647
 30
0.0
 10
174.8203710133455
 20
7.015144485701327
 30
0.0
 10
174.7257495338346
 20
7.050499430346592
 30
0.0
 10
174.6201774812248
 20
7.072612188834175
 30
0.0
 10
174.5459238626566
 20
7.074813944305218
 30
0.0
 10
174.5072215544871
 20
7.075961538461536
 30
0.0
  0
SPLINE
  5
F2
330
1F
100
AcDbEntity
  8
0
  6
Continuous
 62
     7
370
    15
100
AcDbSpline
210
0.0
220
0.0
230
1.0
 70
     8
 71
     3
 72
    23
 73
    19
 74
     0
 42
0.000000001
 43
0.00000001
 40
0.0
 40
0.0
 40
0.0
 40
0.0
 40
0.0639861098164609
 40
0.1266268580894718
 40
0.1889843719814867
 40
0.2502301939603864
 40
0.312351162962327
 40
0.3745736184579436
 40
0.4381475308782137
 40
0.5029204126073689
 40
0.5679740951402685
 40
0.6307713337491978
 40
0.6929346089254531
 40
0.7543975343123358
 40
0.8152183520172952
 40
0.8761169254810911
 40
0.9380146047939499
 40
1.0
 40
1.0
 40
1.0
 40
1.0
 10
174.5072215544871
 20
7.075961538461536
 30
0.0
 10
174.4843001557884
 20
7.07552973423104
 30
0.0
 10
174.438939299994
 20
7.074675204815603
 30
0.0
 10
174.371674682622
 20
7.066101527323319
 30
0.0
 10
174.3064291826677
 20
7.052078499744811
 30
0.0
 10
174.2425479930796
 20
7.033147664299145
 30
0.0
 10
174.1813087801914
 20
7.007146891504292
 30
0.0
 10
174.120744030335
 20
6.977638105657403
 30
0.0
 10
174.0631343228744
 20
6.940855084785005
 30
0.0
 10
174.0072512411937
 20
6.899860735336073
 30
0.0
 10
173.9552603371082
 20
6.854431740235395
 30
0.0
 10
173.9068839158357
 20
6.806494220311014
 30
0.0
 10
173.8637601403222
 20
6.75544420829596
 30
0.0
 10
173.824690699172
 20
6.702104255894619
 30
0.0
 10
173.790964703108
 20
6.645741802854368
 30
0.0
 10
173.7615251160801
 20
6.586900610548611
 30
0.0
 10
173.7365463072333
 20
6.52550323268695
 30
0.0
 10
173.7241341504928
 20
6.482890141427625
 30
0.0
 10
173.7179236778846
 20
6.461568509615382
 30
0.0
  0
SPLINE
  5
F3
330
1F
100
AcDbEntity
  8
0
  6
Continuous
 62
     7
370
    15
100
AcDbSpline
210
0.0
220
0.0
230
1.0
 70
     8
 71
     3
 72
    15
 73
    11
 74
     0
 42
0.000000001
 43
0.00000001
 40
0.0
 40
0.0
 40
0.0
 40
0.0
 40
0.0769954547170535
 40
0.1676150771831752
 40
0.2710523936342355
 40
0.3894595025720755
 40
0.5208428024655765
 40
0.6663987586080743
 40
0.8260936125153153
 40
1.0
 40
1.0
 40
1.0
 40
1.0
 10
173.7179236778846
 20
6.461568509615382
 30
0.0
 10
173.7143498538195
 20
6.445915575416493
 30
0.0
 10
173.7065698257814
 20
6.411839956491564
 30
0.0
 10
173.698166798338
 20
6.355919661764129
 30
0.0
 10
173.6905399263664
 20
6.291231327306954
 30
0.0
 10
173.6841563996196
 20
6.217850439692017
 30
0.0
 10
173.6802507718212
 20
6.135520081549671
 30
0.0
 10
173.6759922833194
 20
6.044591857256051
 30
0.0
 10
173.6744419207807
 20
5.94470319281875
 30
0.0
 10
173.6741767139219
 20
5.875160085846995
 30
0.0
 10
173.6740384615384
 20
5.838907251602562
 30
0.0
  0
LINE
  5
F4
330
1F
100
AcDbEntity
  8
0
  6
Continuous
 62
     7
370
    15
100
AcDbLine
 10
173.6740384615
 20
5.8389072516
 30
0.0
 11
173.6740384615
 21
5.0
 31
0.0
  0
LINE
  5
F5
330
1F
100
AcDbEntity
  8
0
  6
Continuous
 62
     7
370
    15
100
AcDbLine
 10
169.8070512821
 20
6.8908804087
 30
0.0
 11
169.8070512821
 21
7.3201923077
 31
0.0
  0
LINE
  5
F6
330
1F
100
AcDbEntity
  8
0
  6
Continuous
 62
     7
370
    15
100
AcDbLine
 10
169.8070512821
 20
7.3201923077
 30
0.0
 11
170.0919871795
 21
7.3201923077
 31
0.0
  0
LINE
  5
F7
330
1F
100
AcDbEntity
  8
0
  6
Continuous
 62
     7
370
    15
100
AcDbLine
 10
170.0919871795
 20
7.3201923077
 30
0.0
 11
170.0919871795
 21
5.0
 31
0.0
  0
LINE
  5
F8
330
1F
100
AcDbEntity
  8
0
  6
Continuous
 62
     7
370
    15
100
AcDbLine
 10
170.0919871795
 20
5.0
 30
0.0
 11
169.8070512821
 21
5.0
 31
0.0
  0
LINE
  5
F9
330
1F
100
AcDbEntity
  8
0
  6
Continuous
 62
     7
370
    15
100
AcDbLine
 10
169.8070512821
 20
5.0
 30
0.0
 11
169.8070512821
 21
5.4013271234
 31
0.0
  0
SPLINE
  5
FA
330
1F
100
AcDbEntity
  8
0
  6
Continuous
 62
     7
370
    15
100
AcDbSpline
210
0.0
220
0.0
230
1.0
 70
     8
 71
     3
 72
    15
 73
    11
 74
     0
 42
0.000000001
 43
0.00000001
 40
0.0
 40
0.0
 40
0.0
 40
0.0
 40
0.1342983790141795
 40
0.2620849753822926
 40
0.3862699121344926
 40
0.5071645966228006
 40
0.6273002357254971
 40
0.7481449416029825
 40
0.8723701771613424
 40
1.0
 40
1.0
 40
1.0
 40
1.0
 10
169.8070512820513
 20
5.401327123397434
 30
0.0
 10
169.7749213791261
 20
5.365005491735686
 30
0.0
 10
169.7122194695499
 20
5.294123370821117
 30
0.0
 10
169.6074978839616
 20
5.201520257204486
 30
0.0
 10
169.4964924654356
 20
5.124977065521726
 30
0.0
 10
169.3797419812671
 20
5.063155356279237
 30
0.0
 10
169.2573518605188
 20
5.016716848030341
 30
0.0
 10
169.1295934099182
 20
4.983709403680511
 30
0.0
 10
168.9964145144187
 20
4.962487853202827
 30
0.0
 10
168.9054713068593
 20
4.960368747650208
 30
0.0
 10
168.8593850160256
 20
4.959294871794869
 30
0.0
  0
SPLINE
  5
FB
330
1F
100
AcDbEntity
  8
0
  6
Continuous
 62
     7
370
    15
100
AcDbSpline
210
0.0
220
0.0
230
1.0
 70
     8
 71
     3
 72
    23
 73
    19
 74
     0
 42
0.000000001
 43
0.00000001
 40
0.0
 40
0.0
 40
0.0
 40
0.0
 40
0.064619991340761
 40
0.1274334841444646
 40
0.1890041265579311
 40
0.2499300706860425
 40
0.3106684537406677
 40
0.3723289611368265
 40
0.4349391099970016
 40
0.4995755441940359
 40
0.5641912077719244
 40
0.6267352169294734
 40
0.6881093335614032
 40
0.7492936065367489
 40
0.810330527810947
 40
0.8719011702244153
 40
0.935045914684531
 40
0.9999999999999999
 40
0.9999999999999999
 40
0.9999999999999999
 40
0.9999999999999999
 10
168.8593850160256
 20
4.959294871794869
 30
0.0
 10
168.8184112293347
 20
4.960407366639029
 30
0.0
 10
168.7376091077577
 20
4.962601255730354
 30
0.0
 10
168.6187470163532
 20
4.979621345441218
 30
0.0
 10
168.5043633329211
 20
5.006954123645106
 30
0.0
 10
168.3943499705779
 20
5.044964216255488
 30
0.0
 10
168.2894188100769
 20
5.095383961598708
 30
0.0
 10
168.1886714366671
 20
5.155746379464833
 30
0.0
 10
168.0926297803354
 20
5.227629132466592
 30
0.0
 10
168.0027577414182
 20
5.309805415329545
 30
0.0
 10
167.9199972839343
 20
5.399063725131825
 30
0.0
 10
167.8473702723414
 20
5.494264328368568
 30
0.0
 10
167.7868156927589
 20
5.59499556118546
 30
0.0
 10
167.7361789052601
 20
5.699982065070246
 30
0.0
 10
167.6971750785174
 20
5.810032027790386
 30
0.0
 10
167.6699847102978
 20
5.924764887278626
 30
0.0
 10
167.6529844479336
 20
6.044044986846912
 30
0.0
 10
167.6507914657409
 20
6.125270125655072
 30
0.0
 10
167.6496794871795
 20
6.166456330128202
 30
0.0
  0
SPLINE
  5
FC
330
1F
100
AcDbEntity
  8
0
  6
Continuous
 62
     7
370
    15
100
AcDbSpline
210
0.0
220
0.0
230
1.0
 70
     8
 71
     3
 72
    23
 73
    19
 74
     0
 42
0.000000001
 43
0.00000001
 40
0.0
 40
0.0
 40
0.0
 40
0.0
 40
0.0637745323056322
 40
0.1260788099895052
 40
0.1869040927472074
 40
0.2475739349176179
 40
0.3080033561644465
 40
0.3691318984609757
 40
0.4320332277442043
 40
0.496790794437088
 40
0.5616108232295588
 40
0.6249138657484558
 40
0.6867263492419242
 40
0.7480788332577681
 40
0.8095822911398951
 40
0.8716307425688212
 40
0.9348858208285478
 40
0.9999999999999999
 40
0.9999999999999999
 40
0.9999999999999999
 40
0.9999999999999999
 10
167.6496794871795
 20
6.166456330128202
 30
0.0
 10
167.6508161112215
 20
6.206791261223327
 30
0.0
 10
167.6530631556363
 20
6.286531244091579
 30
0.0
 10
167.6698028622056
 20
6.403805491550184
 30
0.0
 10
167.6979524200608
 20
6.51676134235819
 30
0.0
 10
167.7374565390148
 20
6.625035140854036
 30
0.0
 10
167.7881131695885
 20
6.728757900631674
 30
0.0
 10
167.8497336485289
 20
6.828002980466665
 30
0.0
 10
167.9223224259342
 20
6.923043791021499
 30
0.0
 10
168.0060085380133
 20
7.011645546778539
 30
0.0
 10
168.0966636509466
 20
7.09348853258005
 30
0.0
 10
168.1936451425626
 20
7.164616738088572
 30
0.0
 10
168.2945405477609
 20
7.226045593800241
 30
0.0
 10
168.4009148501633
 20
7.27471696159244
 30
0.0
 10
168.5111935809589
 20
7.314095220714905
 30
0.0
 10
168.6263584924582
 20
7.341339413206094
 30
0.0
 10
168.7459304245424
 20
7.357393411759525
 30
0.0
 10
168.827111085201
 20
7.359718204953724
 30
0.0
 10
168.8682892628205
 20
7.360897435897433
 30
0.0
  0
SPLINE
  5
FD
330
1F
100
AcDbEntity
  8
0
  6
Continuous
 62
     7
370
    15
100
AcDbSpline
210
0.0
220
0.0
230
1.0
 70
     8
 71
     3
 72
    15
 73
    11
 74
     0
 42
0.000000001
 43
0.00000001
 40
0.0
 40
0.0
 40
0.0
 40
0.0
 40
0.1298621417207362
 40
0.2546535308972849
 40
0.3760145541937065
 40
0.4952552518175966
 40
0.6147977192994417
 40
0.7381055541683285
 40
0.8651963000723482
 40
1.0
 40
1.0
 40
1.0
 40
1.0
 10
168.8682892628205
 20
7.360897435897433
 30
0.0
 10
168.9156419921134
 20
7.35959318985589
 30
0.0
 10
169.0084984593813
 20
7.357035624924054
 30
0.0
 10
169.1443231535019
 20
7.335751579427547
 30
0.0
 10
169.2728149298859
 20
7.29979382707994
 30
0.0
 10
169.3949656635131
 20
7.2508829538729
 30
0.0
 10
169.5103367144706
 20
7.185887321062872
 30
0.0
 10
169.6178358502428
 20
7.10389978499144
 30
0.0
 10
169.7185881101007
 20
7.005437422525668
 30
0.0
 10
169.7769902318201
 20
6.929808519328589
 30
0.0
 10
169.8070512820513
 20
6.890880408653843
 30
0.0
  0
SPLINE
  5
FE
330
1F
100
AcDbEntity
  8
0
  6
Continuous
 62
     7
370
    15
100
AcDbSpline
210
0.0
220
0.0
230
1.0
 70
     8
 71
     3
 72
    23
 73
    19
 74
     0
 42
0.000000001
 43
0.00000001
 40
0.0
 40
0.0
 40
0.0
 40
0.0
 40
0.064557845929719
 40
0.1270135315497589
 40
0.1879548102020908
 40
0.2480139127896339
 40
0.3077476818488365
 40
0.3682345146974886
 40
0.4294698439426712
 40
0.4927434367465846
 40
0.5562577687060836
 40
0.6182167855431454
 40
0.6796554755875571
 40
0.7412455456206319
 40
0.8034152647056991
 40
0.8668154615439944
 40
0.9323283119492659
 40
1.0
 40
1.0
 40
1.0
 40
1.0
 10
164.0676282051282
 20
6.605944511217946
 30
0.0
 10
164.069038987855
 20
6.663054101216106
 30
0.0
 10
164.0718146147953
 20
6.775413654211754
 30
0.0
 10
164.0953965149733
 20
6.940308597552597
 30
0.0
 10
164.1333321372327
 20
7.098288795083763
 30
0.0
 10
164.1872136004582
 20
7.249059334817053
 30
0.0
 10
164.2555263119995
 20
7.393413231884718
 30
0.0
 10
164.3399147402682
 20
7.530247753424258
 30
0.0
 10
164.4393985049977
 20
7.66043799311269
 30
0.0
 10
164.5531973699677
 20
7.782008517504029
 30
0.0
 10
164.6779905955611
 20
7.893169215954224
 30
0.0
 10
164.8116298053032
 20
7.990964843640203
 30
0.0
 10
164.9538534286285
 20
8.072351447439377
 30
0.0
 10
165.1030946226484
 20
8.140383680497354
 30
0.0
 10
165.2604709194982
 20
8.192675443484868
 30
0.0
 10
165.4256465472048
 20
8.229281548551793
 30
0.0
 10
165.5983111341849
 20
8.252066361186195
 30
0.0
 10
165.716114906024
 20
8.254946728355183
 30
0.0
 10
165.7759715544871
 20
8.256410256410254
 30
0.0
  0
SPLINE
  5
FF
330
1F
100
AcDbEntity
  8
0
  6
Continuous
 62
     7
370
    15
100
AcDbSpline
210
0.0
220
0.0
230
1.0
 70
     8
 71
     3
 72
    23
 73
    19
 74
     0
 42
0.000000001
 43
0.00000001
 40
0.0
 40
0.0
 40
0.0
 40
0.0
 40
0.0685475367089083
 40
0.1356829456230472
 40
0.2012149895263287
 40
0.2656822347547037
 40
0.3292668348172622
 40
0.3923954278443331
 40
0.4550697616521555
 40
0.517126850064516
 40
0.5787900352866512
 40
0.6397398633435522
 40
0.7001915036663092
 40
0.7598062425966695
 40
0.819628319275013
 40
0.8793547910462807
 40
0.9395116077646719
 40
1.0
 40
1.0
 40
1.0
 40
1.0
 10
165.7759715544871
 20
8.256410256410254
 30
0.0
 10
165.8124518254671
 20
8.255972888194252
 30
0.0
 10
165.8846608480131
 20
8.2551071618572
 30
0.0
 10
165.9914793255586
 20
8.246665161510357
 30
0.0
 10
166.0954762935714
 20
8.232592104432893
 30
0.0
 10
166.1967233987025
 20
8.213436812531006
 30
0.0
 10
166.2957132005438
 20
8.189663028055024
 30
0.0
 10
166.3916891333408
 20
8.15869290029641
 30
0.0
 10
166.4852143707108
 20
8.123281189745832
 30
0.0
 10
166.5756990659851
 20
8.082497438502172
 30
0.0
 10
166.6627090793267
 20
8.036716894511656
 30
0.0
 10
166.746217311119
 20
7.98644700743754
 30
0.0
 10
166.8255604329468
 20
7.931750098158493
 30
0.0
 10
166.901296745457
 20
7.873091360465467
 30
0.0
 10
166.9721593083617
 20
7.809229810247499
 30
0.0
 10
167.0401600781758
 20
7.741921991042798
 30
0.0
 10
167.1029897705082
 20
7.669229164842954
 30
0.0
 10
167.1417730259671
 20
7.618061831939833
 30
0.0
 10
167.1612179487179
 20
7.5924078525641
 30
0.0
  0
LINE
  5
100
330
1F
100
AcDbEntity
  8
0
  6
Continuous
 62
     7
370
    15
100
AcDbLine
 10
167.1612179487
 20
7.5924078526
 30
0.0
 11
166.9118990385
 21
7.4016025641
 31
0.0
  0
SPLINE
  5
101
330
1F
100
AcDbEntity
  8
0
  6
Continuous
 62
     7
370
    15
100
AcDbSpline
210
0.0
220
0.0
230
1.0
 70
     8
 71
     3
 72
    19
 73
    15
 74
     0
 42
0.000000001
 43
0.00000001
 40
0.0
 40
0.0
 40
0.0
 40
0.0
 40
0.0631632593634664
 40
0.1254749410306429
 40
0.187121219816036
 40
0.2482943461142971
 40
0.3092948562551239
 40
0.3698500660670965
 40
0.4309733755473781
 40
0.4924559896728182
 40
0.6161479662918499
 40
0.7408436984673723
 40
0.8681826486700481
 40
1.0
 40
1.0
 40
1.0
 40
1.0
 10
166.9118990384615
 20
7.401602564102562
 30
0.0
 10
166.8941136968812
 20
7.422798836735087
 30
0.0
 10
166.8587827986901
 20
7.464905610284111
 30
0.0
 10
166.8019419506862
 20
7.524032768486317
 30
0.0
 10
166.7427040317733
 20
7.579427684205498
 30
0.0
 10
166.6810916860987
 20
7.631354246440303
 30
0.0
 10
166.6159959134214
 20
7.677996598213967
 30
0.0
 10
166.5489936174886
 20
7.721785384455045
 30
0.0
 10
166.4789639621942
 20
7.761035403874349
 30
0.0
 10
166.3821248886229
 20
7.808626826993797
 30
0.0
 10
166.2554443405401
 20
7.858289410469184
 30
0.0
 10
166.0959733079523
 20
7.899930198862922
 30
0.0
 10
165.9295025257554
 20
7.926437979662262
 30
0.0
 10
165.8159304175224
 20
7.929308942985937
 30
0.0
 10
165.7581630608974
 20
7.930769230769229
 30
0.0
  0
SPLINE
  5
102
330
1F
100
AcDbEntity
  8
0
  6
Continuous
 62
     7
370
    15
100
AcDbSpline
210
0.0
220
0.0
230
1.0
 70
     8
 71
     3
 72
    31
 73
    27
 74
     0
 42
0.000000001
 43
0.00000001
 40
0.0
 40
0.0
 40
0.0
 40
0.0
 40
0.0439549089061966
 40
0.0875018747976114
 40
0.1304626267314922
 40
0.1727520205665185
 40
0.2154030673796049
 40
0.2576498297432459
 40
0.3001527489572958
 40
0.3431214895020865
 40
0.3859251632064358
 40
0.4276857274028032
 40
0.4688179504865863
 40
0.5094918001549932
 40
0.5498830310733527
 40
0.5899800229668852
 40
0.6304052300068387
 40
0.6708686260826415
 40
0.711383943838174
 40
0.7516272580635832
 40
0.7917755768651897
 40
0.8324589188037428
 40
0.8733190450172867
 40
0.9145429556263481
 40
0.9569235582098847
 40
1.0
 40
1.0
 40
1.0
 40
1.0
 10
165.7581630608974
 20
7.930769230769229
 30
0.0
 10
165.7263374964958
 20
7.930402779063874
 30
0.0
 10
165.6629817389493
 20
7.929673276670641
 30
0.0
 10
165.5689577665596
 20
7.920049284520458
 30
0.0
 10
165.4766894987476
 20
7.906522686837173
 30
0.0
 10
165.386236954392
 20
7.886451857913044
 30
0.0
 10
165.2977152705743
 20
7.861076696321306
 30
0.0
 10
165.2105457344148
 20
7.83075507083339
 30
0.0
 10
165.1259904045988
 20
7.79324032324615
 30
0.0
 10
165.0428795742188
 20
7.751776401713816
 30
0.0
 10
164.9632512899587
 20
7.704942933982386
 30
0.0
 10
164.8879084966179
 20
7.653858679061289
 30
0.0
 10
164.8171259828608
 20
7.599095284433769
 30
0.0
 10
164.75084775614
 20
7.540447495076764
 30
0.0
 10
164.6890060601499
 20
7.478179430931117
 30
0.0
 10
164.6320489996338
 20
7.411627492489575
 30
0.0
 10
164.5801736631788
 20
7.341004449370351
 30
0.0
 10
164.5323517904427
 20
7.267241572513868
 30
0.0
 10
164.4895230966138
 20
7.190553718673628
 30
0.0
 10
164.4536638488806
 20
7.110657047632999
 30
0.0
 10
164.4219092023084
 20
7.028919754169095
 30
0.0
 10
164.3967820321937
 20
6.94441834398878
 30
0.0
 10
164.3768933633538
 20
6.8577474064024
 30
0.0
 10
164.3631704116701
 20
6.768674334476351
 30
0.0
 10
164.3536558699437
 20
6.67738521084171
 30
0.0
 10
164.3529299951839
 20
6.615509620112912
 30
0.0
 10
164.3525641025641
 20
6.584319911858973
 30
0.0
  0
SPLINE
  5
103
330
1F
100
AcDbEntity
  8
0
  6
Continuous
 62
     7
370
    15
100
AcDbSpline
210
0.0
220
0.0
230
1.0
 70
     8
 71
     3
 72
    23
 73
    19
 74
     0
 42
0.000000001
 43
0.00000001
 40
0.0
 40
0.0
 40
0.0
 40
0.0
 40
0.0643232165798418
 40
0.1262901037035565
 40
0.1867264692161324
 40
0.2461464323353439
 40
0.3055756426461343
 40
0.3654293856180515
 40
0.426326308948259
 40
0.4888399064006337
 40
0.5517249718140392
 40
0.6139185964661512
 40
0.6754837657683903
 40
0.7373338970992832
 40
0.8002290443945284
 40
0.8645022981233188
 40
0.931040739155688
 40
1.0
 40
1.0
 40
1.0
 40
1.0
 10
164.3525641025641
 20
6.584319911858972
 30
0.0
 10
164.3537087526786
 20
6.537392214500507
 30
0.0
 10
164.3559561213482
 20
6.445255905387091
 30
0.0
 10
164.3759571101212
 20
6.310299708681822
 30
0.0
 10
164.4063510143617
 20
6.18101309746686
 30
0.0
 10
164.4519037162962
 20
6.058204240513389
 30
0.0
 10
164.5080731407332
 20
5.9403588014179
 30
0.0
 10
164.5790485525987
 20
5.829470698684942
 30
0.0
 10
164.6612506972076
 20
5.723864243735183
 30
0.0
 10
164.7558424920046
 20
5.626035283991946
 30
0.0
 10
164.8596249107947
 20
5.53666926175725
 30
0.0
 10
164.9709748020264
 20
5.457974091386268
 30
0.0
 10
165.0896148345162
 20
5.392374162291763
 30
0.0
 10
165.2142350633284
 20
5.337785982237681
 30
0.0
 10
165.3457944666688
 20
5.295824522150149
 30
0.0
 10
165.4840564660014
 20
5.266284210115046
 30
0.0
 10
165.6287203474068
 20
5.247014517766577
 30
0.0
 10
165.7275711601642
 20
5.245169672161003
 30
0.0
 10
165.7778796073718
 20
5.244230769230767
 30
0.0
  0
SPLINE
  5
104
330
1F
100
AcDbEntity
  8
0
  6
Continuous
 62
     7
370
    15
100
AcDbSpline
210
0.0
220
0.0
230
1.0
 70
     8
 71
     3
 72
    15
 73
    11
 74
     0
 42
0.000000001
 43
0.00000001
 40
0.0
 40
0.0
 40
0.0
 40
0.0
 40
0.128515189511656
 40
0.2529486363526459
 40
0.3747547340060057
 40
0.4959397538670409
 40
0.6171806414298932
 40
0.740909469278127
 40
0.8678111481861991
 40
1.0
 40
1.0
 40
1.0
 40
1.0
 10
165.7778796073718
 20
5.244230769230767
 30
0.0
 10
165.8333084752445
 20
5.245762733719087
 30
0.0
 10
165.9424057469076
 20
5.248778006308534
 30
0.0
 10
166.1023967422315
 20
5.274322468012854
 30
0.0
 10
166.2555549010519
 20
5.315740722048897
 30
0.0
 10
166.4018884617002
 20
5.373705265867028
 30
0.0
 10
166.5409848907574
 20
5.449057348464489
 30
0.0
 10
166.6730618611805
 20
5.540404708684088
 30
0.0
 10
166.7982308572806
 20
5.64861626768835
 30
0.0
 10
166.8734976633093
 20
5.731241676893087
 30
0.0
 10
166.9118990384615
 20
5.773397435897433
 30
0.0
  0
LINE
  5
105
330
1F
100
AcDbEntity
  8
0
  6
Continuous
 62
     7
370
    15
100
AcDbLine
 10
166.9118990385
 20
5.7733974359
 30
0.0
 11
167.1612179487
 21
5.5845002003
 31
0.0
  0
SPLINE
  5
106
330
1F
100
AcDbEntity
  8
0
  6
Continuous
 62
     7
370
    15
100
AcDbSpline
210
0.0
220
0.0
230
1.0
 70
     8
 71
     3
 72
    23
 73
    19
 74
     0
 42
0.000000001
 43
0.00000001
 40
0.0
 40
0.0
 40
0.0
 40
0.0
 40
0.0616742388774242
 40
0.1230530616347959
 40
0.1834750007317033
 40
0.2437265005106047
 40
0.3042789165122448
 40
0.3648629209606792
 40
0.4259462039686134
 40
0.4873912299654077
 40
0.549220384075476
 40
0.6111435886925968
 40
0.6735285303101505
 40
0.7369614566573004
 40
0.8007852828728471
 40
0.8660125956416248
 40
0.9321007477905874
 40
0.9999999999999999
 40
0.9999999999999999
 40
0.9999999999999999
 40
0.9999999999999999
 10
167.1612179487179
 20
5.584500200320512
 30
0.0
 10
167.1411536633258
 20
5.558611747504364
 30
0.0
 10
167.101121199335
 20
5.506958846098541
 30
0.0
 10
167.0362985696402
 20
5.434140937991693
 30
0.0
 10
166.9680113070027
 20
5.365647991503226
 30
0.0
 10
166.8957521986393
 20
5.302032220818273
 30
0.0
 10
166.8203524876972
 20
5.242020669876739
 30
0.0
 10
166.7404583186417
 20
5.187318294362363
 30
0.0
 10
166.657119982012
 20
5.137161563620491
 30
0.0
 10
166.5706198475761
 20
5.091235710670246
 30
0.0
 10
166.4810498202507
 20
5.050489350869463
 30
0.0
 10
166.3885172256962
 20
5.015606290086701
 30
0.0
 10
166.2934209179176
 20
4.985557283153628
 30
0.0
 10
166.1957565495724
 20
4.960835883411245
 30
0.0
 10
166.0953215415936
 20
4.941539971611753
 30
0.0
 10
165.9924783258091
 20
4.928640695145439
 30
0.0
 10
165.8870049390033
 20
4.919803387050975
 30
0.0
 10
165.8158473641249
 20
4.918997920558282
 30
0.0
 10
165.7797876602564
 20
4.918589743589741
 30
0.0
  0
SPLINE
  5
107
330
1F
100
AcDbEntity
  8
0
  6
Continuous
 62
     7
370
    15
100
AcDbSpline
210
0.0
220
0.0
230
1.0
 70
     8
 71
     3
 72
    23
 73
    19
 74
     0
 42
0.000000001
 43
0.00000001
 40
0.0
 40
0.0
 40
0.0
 40
0.0
 40
0.0696628008990818
 40
0.1377495622582694
 40
0.2039167435177793
 40
0.2687798623293398
 40
0.3324137064772213
 40
0.394753540447139
 40
0.4561800316591765
 40
0.516995649196724
 40
0.5773959379659587
 40
0.6371983435092748
 40
0.6969991842614528
 40
0.7567561942255617
 40
0.8165539052726051
 40
0.876947996597868
 40
0.9381317879205976
 40
1.0
 40
1.0
 40
1.0
 40
1.0
 10
165.7797876602564
 20
4.918589743589741
 30
0.0
 10
165.7456394765683
 20
4.91882740826535
 30
0.0
 10
165.6781156719806
 20
4.919297360730752
 30
0.0
 10
165.5784218044467
 20
4.92691025545355
 30
0.0
 10
165.4813669704338
 20
4.937296802507616
 30
0.0
 10
165.3872285598261
 20
4.952936064258498
 30
0.0
 10
165.2954928538911
 20
4.971391287021672
 30
0.0
 10
165.2069914665315
 20
4.99613021267455
 30
0.0
 10
165.1208535257064
 20
5.023842670943904
 30
0.0
 10
165.0374251023606
 20
5.056413623205199
 30
0.0
 10
164.9566352318309
 20
5.093167588792675
 30
0.0
 10
164.8787444886614
 20
5.13470707436726
 30
0.0
 10
164.8037886964138
 20
5.180682765881429
 30
0.0
 10
164.7310309217807
 20
5.230081239622869
 30
0.0
 10
164.6615459708756
 20
5.284489220605353
 30
0.0
 10
164.5947317014532
 20
5.343151096190794
 30
0.0
 10
164.5302134551566
 20
5.405869148800946
 30
0.0
 10
164.4902967337712
 20
5.45109462290438
 30
0.0
 10
164.470227363782
 20
5.473833133012818
 30
0.0
  0
SPLINE
  5
108
330
1F
100
AcDbEntity
  8
0
  6
Continuous
 62
     7
370
    15
100
AcDbSpline
210
0.0
220
0.0
230
1.0
 70
     8
 71
     3
 72
    15
 73
    11
 74
     0
 42
0.000000001
 43
0.00000001
 40
0.0
 40
0.0
 40
0.0
 40
0.0
 40
0.1243285095938545
 40
0.2471560163611905
 40
0.3687797492913397
 40
0.4907338624016511
 40
0.6136137718478472
 40
0.7389575757222177
 40
0.8673105751912629
 40
1.0
 40
1.0
 40
1.0
 40
1.0
 10
164.470227363782
 20
5.473833133012818
 30
0.0
 10
164.4380821728929
 20
5.513331211530495
 30
0.0
 10
164.3741798760564
 20
5.59185051311499
 30
0.0
 10
164.2924230059778
 20
5.719109938970869
 30
0.0
 10
164.2224391523237
 20
5.851977528451084
 30
0.0
 10
164.165855281332
 20
5.991151320985701
 30
0.0
 10
164.121620516256
 20
6.136319022268126
 30
0.0
 10
164.0909761464337
 20
6.287553810340684
 30
0.0
 10
164.0710629052288
 20
6.444714443624101
 30
0.0
 10
164.0687857146916
 20
6.551609244765576
 30
0.0
 10
164.0676282051282
 20
6.605944511217946
 30
0.0
  0
LINE
  5
109
330
1F
100
AcDbEntity
  8
0
  6
Continuous
 62
     7
370
    15
100
AcDbLine
 10
160.6483974359
 20
6.5875
 30
0.0
 11
160.9740384615
 21
8.175
 31
0.0
  0
LINE
  5
10A
330
1F
100
AcDbEntity
  8
0
  6
Continuous
 62
     7
370
    15
100
AcDbLine
 10
160.9740384615
 20
8.175
 30
0.0
 11
162.2766025641
 21
8.175
 31
0.0
  0
LINE
  5
10B
330
1F
100
AcDbEntity
  8
0
  6
Continuous
 62
     7
370
    15
100
AcDbLine
 10
162.2766025641
 20
8.175
 30
0.0
 11
162.2766025641
 21
7.8493589744
 31
0.0
  0
LINE
  5
10C
330
1F
100
AcDbEntity
  8
0
  6
Continuous
 62
     7
370
    15
100
AcDbLine
 10
162.2766025641
 20
7.8493589744
 30
0.0
 11
161.1966446314
 21
7.8493589744
 31
0.0
  0
LINE
  5
10D
330
1F
100
AcDbEntity
  8
0
  6
Continuous
 62
     7
370
    15
100
AcDbLine
 10
161.1966446314
 20
7.8493589744
 30
0.0
 11
161.0255558894
 21
7.0142678285
 31
0.0
  0
SPLINE
  5
10E
330
1F
100
AcDbEntity
  8
0
  6
Continuous
 62
     7
370
    15
100
AcDbSpline
210
0.0
220
0.0
230
1.0
 70
     8
 71
     3
 72
    11
 73
     7
 74
     0
 42
0.000000001
 43
0.00000001
 40
0.0
 40
0.0
 40
0.0
 40
0.0
 40
0.2750683690187581
 40
0.5329014600899437
 40
0.7739734595924235
 40
1.0
 40
1.0
 40
1.0
 40
1.0
 10
161.025555889423
 20
7.014267828525638
 30
0.0
 10
161.0591708611763
 20
7.023548146524944
 30
0.0
 10
161.1242945523957
 20
7.041527294871121
 30
0.0
 10
161.2204152834128
 20
7.06148967233216
 30
0.0
 10
161.3116667822757
 20
7.073523325155733
 30
0.0
 10
161.370880868291
 20
7.075166442548928
 30
0.0
 10
161.3995342548077
 20
7.075961538461536
 30
0.0
  0
SPLINE
  5
10F
330
1F
100
AcDbEntity
  8
0
  6
Continuous
 62
     7
370
    15
100
AcDbSpline
210
0.0
220
0.0
230
1.0
 70
     8
 71
     3
 72
    23
 73
    19
 74
     0
 42
0.000000001
 43
0.00000001
 40
0.0
 40
0.0
 40
0.0
 40
0.0
 40
0.0658076458106907
 40
0.1293942736680575
 40
0.190894060632176
 40
0.2512810689298317
 40
0.3108149644652744
 40
0.3703709874482464
 40
0.4307682625897227
 40
0.4928812506175013
 40
0.5551039481552504
 40
0.616067050993837
 40
0.6772560331746516
 40
0.7382598051991129
 40
0.8007621343762971
 40
0.8647775815744826
 40
0.9310452949994028
 40
1.0
 40
1.0
 40
1.0
 40
1.0
 10
161.3995342548077
 20
7.075961538461536
 30
0.0
 10
161.434988790118
 20
7.075194153938539
 30
0.0
 10
161.5047012648344
 20
7.073685284235729
 30
0.0
 10
161.6066994524643
 20
7.059196535096975
 30
0.0
 10
161.7040657198836
 20
7.036391041110948
 30
0.0
 10
161.7965964414007
 20
7.004531710678389
 30
0.0
 10
161.8844627980502
 20
6.963792166994949
 30
0.0
 10
161.966856371679
 20
6.91290150681322
 30
0.0
 10
162.0450139070313
 20
6.853453413556033
 30
0.0
 10
162.1175332601184
 20
6.785104724135525
 30
0.0
 10
162.1833231682398
 20
6.709882971796067
 30
0.0
 10
162.2411680302949
 20
6.629004045920893
 30
0.0
 10
162.2903012372138
 20
6.543253952413115
 30
0.0
 10
162.3298170648517
 20
6.451813400200575
 30
0.0
 10
162.3613714252306
 20
6.355693311035465
 30
0.0
 10
162.3823735919817
 20
6.253882325434489
 30
0.0
 10
162.3963587493966
 20
6.147340102279499
 30
0.0
 10
162.3979211998437
 20
6.07449238513806
 30
0.0
 10
162.3987179487179
 20
6.037344751602562
 30
0.0
  0
SPLINE
  5
110
330
1F
100
AcDbEntity
  8
0
  6
Continuous
 62
     7
370
    15
100
AcDbSpline
210
0.0
220
0.0
230
1.0
 70
     8
 71
     3
 72
    31
 73
    27
 74
     0
 42
0.000000001
 43
0.00000001
 40
0.0
 40
0.0
 40
0.0
 40
0.0
 40
0.0440144705761405
 40
0.0874341236677049
 40
0.1301183986578985
 40
0.1725536945581821
 40
0.21455475596814
 40
0.2562980920971298
 40
0.298438225133249
 40
0.3408490025880979
 40
0.3827151889670291
 40
0.4239240454075288
 40
0.4642462432504153
 40
0.5040736714617905
 40
0.5438619058684875
 40
0.583566724979659
 40
0.6230943188523311
 40
0.6632290607685803
 40
0.7035512586114737
 40
0.7439378946861908
 40
0.7845412548000977
 40
0.8257501112405964
 40
0.8677573633885095
 40
0.9107451640323113
 40
0.9549144468914729
 40
1.0
 40
1.0
 40
1.0
 40
1.0
 10
162.3987179487179
 20
6.037344751602562
 30
0.0
 10
162.3981146304342
 20
6.011471023140428
 30
0.0
 10
162.3969161471913
 20
5.960073227268055
 30
0.0
 10
162.3908214283966
 20
5.883742416646387
 30
0.0
 10
162.3790868859669
 20
5.809027560921695
 30
0.0
 10
162.3633318791011
 20
5.735918748325152
 30
0.0
 10
162.3428826856609
 20
5.664554389276953
 30
0.0
 10
162.3181276153353
 20
5.594730217514805
 30
0.0
 10
162.2878326475228
 20
5.526880824254935
 30
0.0
 10
162.2546027571094
 20
5.460364215911947
 30
0.0
 10
162.2171863091773
 20
5.396684141528166
 30
0.0
 10
162.1756586632341
 20
5.337131132307289
 30
0.0
 10
162.1317842533396
 20
5.280811819821925
 30
0.0
 10
162.0845752822453
 20
5.22833021916358
 30
0.0
 10
162.0335929509645
 20
5.180031195789216
 30
0.0
 10
161.9794546953114
 20
5.135628111851712
 30
0.0
 10
161.9225925144779
 20
5.094370047933888
 30
0.0
 10
161.8621266875153
 20
5.05793175659611
 30
0.0
 10
161.7994045779698
 20
5.024401074943229
 30
0.0
 10
161.7335204095637
 20
4.996893294646164
 30
0.0
 10
161.6659739170059
 20
4.972300172740534
 30
0.0
 10
161.5957929227163
 20
4.952697244121437
 30
0.0
 10
161.5231363927005
 20
4.937336998236051
 30
0.0
 10
161.4478845606561
 20
4.926904310546667
 30
0.0
 10
161.370432095706
 20
4.919305685127237
 30
0.0
 10
161.3179311914371
 20
4.918830018464881
 30
0.0
 10
161.2914112580128
 20
4.918589743589742
 30
0.0
  0
SPLINE
  5
111
330
1F
100
AcDbEntity
  8
0
  6
Continuous
 62
     7
370
    15
100
AcDbSpline
210
0.0
220
0.0
230
1.0
 70
     8
 71
     3
 72
    23
 73
    19
 74
     0
 42
0.000000001
 43
0.00000001
 40
0.0
 40
0.0
 40
0.0
 40
0.0
 40
0.0654211437588975
 40
0.1287083718818834
 40
0.1902361418635446
 40
0.2507244020335412
 40
0.3106371794134518
 40
0.3707664082897318
 40
0.4316147444123461
 40
0.4935229735663599
 40
0.555883455377533
 40
0.6173423673185152
 40
0.6786680390972732
 40
0.7407113595451476
 40
0.8029853625127457
 40
0.8668025802655188
 40
0.9323471713458886
 40
1.0
 40
1.0
 40
1.0
 40
1.0
 10
161.2914112580128
 20
4.918589743589741
 30
0.0
 10
161.2597753940901
 20
4.919216432332515
 30
0.0
 10
161.1975355690944
 20
4.920449368400653
 30
0.0
 10
161.1063490546794
 20
4.93334756573828
 30
0.0
 10
161.0186150909433
 20
4.951820547037227
 30
0.0
 10
160.9350399277505
 20
4.979612020399667
 30
0.0
 10
160.8548745671035
 20
5.014434780582929
 30
0.0
 10
160.779198244538
 20
5.05844587901092
 30
0.0
 10
160.7060772905517
 20
5.108319780267192
 30
0.0
 10
160.6384842286433
 20
5.167175529028076
 30
0.0
 10
160.5757497542814
 20
5.231506183443308
 30
0.0
 10
160.5195917069491
 20
5.301317757929351
 30
0.0
 10
160.4695776766237
 20
5.375458037536046
 30
0.0
 10
160.4265085775695
 20
5.454287077304723
 30
0.0
 10
160.3897710868039
 20
5.537597744655296
 30
0.0
 10
160.3609103474386
 20
5.6257021811787
 30
0.0
 10
160.3376164111688
 20
5.718140041895156
 30
0.0
 10
160.3277617368795
 20
5.781779297767567
 30
0.0
 10
160.3227564102564
 20
5.814102564102561
 30
0.0
  0
LINE
  5
112
330
1F
100
AcDbEntity
  8
0
  6
Continuous
 62
     7
370
    15
100
AcDbLine
 10
160.3227564103
 20
5.8141025641
 30
0.0
 11
160.6076923077
 21
5.8141025641
 31
0.0
  0
SPLINE
  5
113
330
1F
100
AcDbEntity
  8
0
  6
Continuous
 62
     7
370
    15
100
AcDbSpline
210
0.0
220
0.0
230
1.0
 70
     8
 71
     3
 72
    19
 73
    15
 74
     0
 42
0.000000001
 43
0.00000001
 40
0.0
 40
0.0
 40
0.0
 40
0.0
 40
0.0946872518675537
 40
0.1819941557072753
 40
0.2643769486105152
 40
0.3421798619477795
 40
0.4186176108621594
 40
0.4965090753719058
 40
0.5773690916117338
 40
0.6615105924542044
 40
0.7467325508291928
 40
0.8312579843277453
 40
0.9152056162136596
 40
1.0
 40
1.0
 40
1.0
 40
1.0
 10
160.6076923076922
 20
5.814102564102561
 30
0.0
 10
160.6147032133248
 20
5.783825353667
 30
0.0
 10
160.628178563239
 20
5.725630874033148
 30
0.0
 10
160.6577566353211
 20
5.643868871538143
 30
0.0
 10
160.6939206795
 20
5.571007861489193
 30
0.0
 10
160.7369231955642
 20
5.506084025233903
 30
0.0
 10
160.788222151791
 20
5.449470149136892
 30
0.0
 10
160.84675956233
 20
5.399017528664755
 30
0.0
 10
160.9123892826607
 20
5.353501518489074
 30
0.0
 10
160.9853174265824
 20
5.315562293960087
 30
0.0
 10
161.0622550056802
 20
5.283205639090055
 30
0.0
 10
161.1427795461888
 20
5.261659458669614
 30
0.0
 10
161.2246984890591
 20
5.246509363019351
 30
0.0
 10
161.2801052963087
 20
5.244992837149279
 30
0.0
 10
161.3079477163461
 20
5.244230769230767
 30
0.0
  0
SPLINE
  5
114
330
1F
100
AcDbEntity
  8
0
  6
Continuous
 62
     7
370
    15
100
AcDbSpline
210
0.0
220
0.0
230
1.0
 70
     8
 71
     3
 72
    23
 73
    19
 74
     0
 42
0.000000001
 43
0.00000001
 40
0.0
 40
0.0
 40
0.0
 40
0.0
 40
0.0642072952829865
 40
0.1264246897797534
 40
0.187680284264929
 40
0.2482164244552245
 40
0.3083050600086178
 40
0.369660991325148
 40
0.4316985517867751
 40
0.495946892208771
 40
0.5597580239721194
 40
0.6222954078261647
 40
0.6839106352841737
 40
0.7450924080566285
 40
0.8067402253892924
 40
0.869086618121204
 40
0.9332900029747992
 40
1.0
 40
1.0
 40
1.0
 40
1.0
 10
161.3079477163461
 20
5.244230769230767
 30
0.0
 10
161.3351243052103
 20
5.244975332044682
 30
0.0
 10
161.3886352310529
 20
5.246441382317566
 30
0.0
 10
161.4673855604101
 20
5.257725343284789
 30
0.0
 10
161.5434158105791
 20
5.275103997256702
 30
0.0
 10
161.6159757699248
 20
5.301111651420547
 30
0.0
 10
161.686335166552
 20
5.332720788849683
 30
0.0
 10
161.7527142297215
 20
5.373283750482649
 30
0.0
 10
161.8170332682705
 20
5.419965338643497
 30
0.0
 10
161.8772930751076
 20
5.473447424468542
 30
0.0
 10
161.9324831469358
 20
5.532384218873172
 30
0.0
 10
161.9812476282502
 20
5.595410140051465
 30
0.0
 10
162.0218666854296
 20
5.662644707986807
 30
0.0
 10
162.0560969127614
 20
5.732923925215836
 30
0.0
 10
162.082089548122
 20
5.807018044942014
 30
0.0
 10
162.1006324382312
 20
5.884579825276986
 30
0.0
 10
162.1115209273022
 20
5.96580084303568
 30
0.0
 10
162.1130187834197
 20
6.021199431189821
 30
0.0
 10
162.113782051282
 20
6.049429086538459
 30
0.0
  0
SPLINE
  5
115
330
1F
100
AcDbEntity
  8
0
  6
Continuous
 62
     7
370
    15
100
AcDbSpline
210
0.0
220
0.0
230
1.0
 70
     8
 71
     3
 72
    23
 73
    19
 74
     0
 42
0.000000001
 43
0.00000001
 40
0.0
 40
0.0
 40
0.0
 40
0.0
 40
0.0653513820265944
 40
0.1279160318306131
 40
0.1883602055716992
 40
0.2472160772654514
 40
0.3056301291974121
 40
0.3637698398318226
 40
0.4226609139127879
 40
0.4826872940904074
 40
0.5433002212395699
 40
0.6041179553231153
 40
0.6649648912652875
 40
0.7274134941125674
 40
0.7914676251494339
 40
0.8580554427291047
 40
0.927036814614958
 40
1.0
 40
1.0
 40
1.0
 40
1.0
 10
162.113782051282
 20
6.049429086538459
 30
0.0
 10
162.113184716342
 20
6.074897804080545
 30
0.0
 10
162.1120155181883
 20
6.124749194866322
 30
0.0
 10
162.1024627865563
 20
6.197682760709449
 30
0.0
 10
162.0858466759213
 20
6.26669187765447
 30
0.0
 10
162.0627835848265
 20
6.332109789900464
 30
0.0
 10
162.0335014599539
 20
6.393998198316182
 30
0.0
 10
161.9977180194932
 20
6.452420974354933
 30
0.0
 10
161.9547617227874
 20
6.506608094493382
 30
0.0
 10
161.9056926524248
 20
6.556584910981995
 30
0.0
 10
161.851937143855
 20
6.602708476045463
 30
0.0
 10
161.7925703202133
 20
6.642027754469724
 30
0.0
 10
161.7288345294776
 20
6.675105736911032
 30
0.0
 10
161.661497678531
 20
6.703651706836255
 30
0.0
 10
161.5889580919552
 20
6.724153811591363
 30
0.0
 10
161.5126522897254
 20
6.739546107670986
 30
0.0
 10
161.4317562760877
 20
6.748450043814837
 30
0.0
 10
161.3764471518519
 20
6.749685471127123
 30
0.0
 10
161.348016826923
 20
6.750320512820511
 30
0.0
  0
SPLINE
  5
116
330
1F
100
AcDbEntity
  8
0
  6
Continuous
 62
     7
370
    15
100
AcDbSpline
210
0.0
220
0.0
230
1.0
 70
     8
 71
     3
 72
    15
 73
    11
 74
     0
 42
0.000000001
 43
0.00000001
 40
0.0
 40
0.0
 40
0.0
 40
0.0
 40
0.102203037035223
 40
0.2110233423738977
 40
0.3250996615652324
 40
0.4465020971348934
 40
0.5737877176488609
 40
0.7089007097660872
 40
0.850357871293422
 40
1.0
 40
1.0
 40
1.0
 40
1.0
 10
161.348016826923
 20
6.750320512820511
 30
0.0
 10
161.3234070129344
 20
6.749793833698989
 30
0.0
 10
161.2725939906041
 20
6.748706374932539
 30
0.0
 10
161.1946497120711
 20
6.740699481382938
 30
0.0
 10
161.1127422205137
 20
6.727782407151703
 30
0.0
 10
161.0271854995448
 20
6.710014882661797
 30
0.0
 10
160.9377226100514
 20
6.686763834459325
 30
0.0
 10
160.8445423465345
 20
6.658901394606139
 30
0.0
 10
160.7474487904051
 20
6.625589295773095
 30
0.0
 10
160.6820277118434
 20
6.600432216160036
 30
0.0
 10
160.6483974358974
 20
6.587499999999998
 30
0.0
  0
LINE
  5
117
330
1F
100
AcDbEntity
  8
0
  6
Continuous
 62
     7
370
    15
100
AcDbLine
 10
158.6538461538
 20
5.0
 30
0.0
 11
158.6131410256
 21
5.0
 31
0.0
  0
LINE
  5
118
330
1F
100
AcDbEntity
  8
0
  6
Continuous
 62
     7
370
    15
100
AcDbLine
 10
158.6131410256
 20
5.0
 30
0.0
 11
157.2698717949
 21
8.175
 31
0.0
  0
LINE
  5
119
330
1F
100
AcDbEntity
  8
0
  6
Continuous
 62
     7
370
    15
100
AcDbLine
 10
157.2698717949
 20
8.175
 30
0.0
 11
157.5751602564
 21
8.175
 31
0.0
  0
LINE
  5
11A
330
1F
100
AcDbEntity
  8
0
  6
Continuous
 62
     7
370
    15
100
AcDbLine
 10
157.5751602564
 20
8.175
 30
0.0
 11
158.6334935897
 21
5.6729066506
 31
0.0
  0
LINE
  5
11B
330
1F
100
AcDbEntity
  8
0
  6
Continuous
 62
     7
370
    15
100
AcDbLine
 10
158.6334935897
 20
5.6729066506
 30
0.0
 11
159.6918269231
 21
8.175
 31
0.0
  0
LINE
  5
11C
330
1F
100
AcDbEntity
  8
0
  6
Continuous
 62
     7
370
    15
100
AcDbLine
 10
159.6918269231
 20
8.175
 30
0.0
 11
159.9971153846
 21
8.175
 31
0.0
  0
LINE
  5
11D
330
1F
100
AcDbEntity
  8
0
  6
Continuous
 62
     7
370
    15
100
AcDbLine
 10
159.9971153846
 20
8.175
 30
0.0
 11
158.6538461538
 21
5.0
 31
0.0
  0
LINE
  5
11E
330
1F
100
AcDbEntity
  8
0
  6
Continuous
 62
     7
370
    15
100
AcDbLine
 10
155.4788461538
 20
5.0
 30
0.0
 11
155.1939102564
 21
5.0
 31
0.0
  0
LINE
  5
11F
330
1F
100
AcDbEntity
  8
0
  6
Continuous
 62
     7
370
    15
100
AcDbLine
 10
155.1939102564
 20
5.0
 30
0.0
 11
155.1939102564
 21
8.175
 31
0.0
  0
LINE
  5
120
330
1F
100
AcDbEntity
  8
0
  6
Continuous
 62
     7
370
    15
100
AcDbLine
 10
155.1939102564
 20
8.175
 30
0.0
 11
155.4788461538
 21
8.175
 31
0.0
  0
LINE
  5
121
330
1F
100
AcDbEntity
  8
0
  6
Continuous
 62
     7
370
    15
100
AcDbLine
 10
155.4788461538
 20
8.175
 30
0.0
 11
155.4788461538
 21
5.0
 31
0.0
  0
LINE
  5
122
330
1F
100
AcDbEntity
  8
0
  6
Continuous
 62
     7
370
    15
100
AcDbLine
 10
154.3798076923
 20
5.0
 30
0.0
 11
154.0948717949
 21
5.0
 31
0.0
  0
LINE
  5
123
330
1F
100
AcDbEntity
  8
0
  6
Continuous
 62
     7
370
    15
100
AcDbLine
 10
154.0948717949
 20
5.0
 30
0.0
 11
154.0948717949
 21
8.175
 31
0.0
  0
LINE
  5
124
330
1F
100
AcDbEntity
  8
0
  6
Continuous
 62
     7
370
    15
100
AcDbLine
 10
154.0948717949
 20
8.175
 30
0.0
 11
154.3798076923
 21
8.175
 31
0.0
  0
LINE
  5
125
330
1F
100
AcDbEntity
  8
0
  6
Continuous
 62
     7
370
    15
100
AcDbLine
 10
154.3798076923
 20
8.175
 30
0.0
 11
154.3798076923
 21
5.0
 31
0.0
  0
LINE
  5
126
330
1F
100
AcDbEntity
  8
0
  6
Continuous
 62
     7
370
    15
100
AcDbLine
 10
153.2807692308
 20
5.0
 30
0.0
 11
152.9958333333
 21
5.0
 31
0.0
  0
LINE
  5
127
330
1F
100
AcDbEntity
  8
0
  6
Continuous
 62
     7
370
    15
100
AcDbLine
 10
152.9958333333
 20
5.0
 30
0.0
 11
152.9958333333
 21
8.175
 31
0.0
  0
LINE
  5
128
330
1F
100
AcDbEntity
  8
0
  6
Continuous
 62
     7
370
    15
100
AcDbLine
 10
152.9958333333
 20
8.175
 30
0.0
 11
153.2807692308
 21
8.175
 31
0.0
  0
LINE
  5
129
330
1F
100
AcDbEntity
  8
0
  6
Continuous
 62
     7
370
    15
100
AcDbLine
 10
153.2807692308
 20
8.175
 30
0.0
 11
153.2807692308
 21
5.0
 31
0.0
  0
SPLINE
  5
12A
330
1F
100
AcDbEntity
  8
0
  6
Continuous
 62
     7
370
    15
100
AcDbSpline
210
0.0
220
0.0
230
1.0
 70
     8
 71
     3
 72
    15
 73
    11
 74
     0
 42
0.000000001
 43
0.00000001
 40
0.0
 40
0.0
 40
0.0
 40
0.0
 40
0.1277566033101213
 40
0.249414355336553
 40
0.3727964764554144
 40
0.5001113325158477
 40
0.6286099407651168
 40
0.7506433738258063
 40
0.8737683791425136
 40
0.9999999999999999
 40
0.9999999999999999
 40
0.9999999999999999
 40
0.9999999999999999
 10
152.0392628205128
 20
4.959294871794869
 30
0.0
 10
152.0215500346715
 20
4.960241563518363
 30
0.0
 10
151.986970036868
 20
4.962089753747285
 30
0.0
 10
151.9372713135307
 20
4.977658870871137
 30
0.0
 10
151.8915449920342
 20
5.001991581235167
 30
0.0
 10
151.8509161392443
 20
5.035797991980074
 30
0.0
 10
151.8177705257322
 20
5.076619550631863
 30
0.0
 10
151.7927103570013
 20
5.122159751680792
 30
0.0
 10
151.7776607218796
 20
5.171854341335772
 30
0.0
 10
151.7756814516748
 20
5.206393481626636
 30
0.0
 10
151.7746794871795
 20
5.223878205128203
 30
0.0
  0
SPLINE
  5
12B
330
1F
100
AcDbEntity
  8
0
  6
Continuous
 62
     7
370
    15
100
AcDbSpline
210
0.0
220
0.0
230
1.0
 70
     8
 71
     3
 72
    15
 73
    11
 74
     0
 42
0.000000001
 43
0.00000001
 40
0.0
 40
0.0
 40
0.0
 40
0.0
 40
0.1290969581672236
 40
0.2520459672599783
 40
0.3739049644019861
 40
0.5010378352202106
 40
0.6281707060383911
 40
0.7513764634091692
 40
0.8724260133704629
 40
1.0
 40
1.0
 40
1.0
 40
1.0
 10
151.7746794871795
 20
5.223878205128203
 30
0.0
 10
151.7756429629326
 20
5.241793713808692
 30
0.0
 10
151.7775240310972
 20
5.276771545807484
 30
0.0
 10
151.7927419514684
 20
5.326845021876266
 30
0.0
 10
151.8175760865534
 20
5.372354963195956
 30
0.0
 10
151.8511452662964
 20
5.412629003736652
 30
0.0
 10
151.8915351632809
 20
5.446363199726282
 30
0.0
 10
151.9371610065496
 20
5.47091483350301
 30
0.0
 10
151.9870897323967
 20
5.485465778842841
 30
0.0
 10
152.0215701765295
 20
5.487445633321415
 30
0.0
 10
152.0392628205128
 20
5.488461538461536
 30
0.0
  0
SPLINE
  5
12C
330
1F
100
AcDbEntity
  8
0
  6
Continuous
 62
     7
370
    15
100
AcDbSpline
210
0.0
220
0.0
230
1.0
 70
     8
 71
     3
 72
    15
 73
    11
 74
     0
 42
0.000000001
 43
0.00000001
 40
0.0
 40
0.0
 40
0.0
 40
0.0
 40
0.1275189266999397
 40
0.2499859477487675
 40
0.3717923515057172
 40
0.4988703527764677
 40
0.6259483540471683
 40
0.7484917380160536
 40
0.8709587590649217
 40
1.0
 40
1.0
 40
1.0
 40
1.0
 10
152.0392628205128
 20
5.488461538461536
 30
0.0
 10
152.0569432272697
 20
5.487410915824545
 30
0.0
 10
152.0916035977268
 20
5.48535129297144
 30
0.0
 10
152.1417133784134
 20
5.471221024632055
 30
0.0
 10
152.1870656768678
 20
5.446130668347079
 30
0.0
 10
152.2274627846387
 20
5.412690862261714
 30
0.0
 10
152.2607608026284
 20
5.372145510707599
 30
0.0
 10
152.2867453220587
 20
5.327154936354113
 30
0.0
 10
152.300752501501
 20
5.276625634514608
 30
0.0
 10
152.3027971215006
 20
5.241764429369588
 30
0.0
 10
152.3038461538461
 20
5.223878205128203
 30
0.0
  0
SPLINE
  5
12D
330
1F
100
AcDbEntity
  8
0
  6
Continuous
 62
     7
370
    15
100
AcDbSpline
210
0.0
220
0.0
230
1.0
 70
     8
 71
     3
 72
    15
 73
    11
 74
     0
 42
0.000000001
 43
0.00000001
 40
0.0
 40
0.0
 40
0.0
 40
0.0
 40
0.1261777183170028
 40
0.2488206074857968
 40
0.3715399692351805
 40
0.4999837069108904
 40
0.6272441978754072
 40
0.7492255210763055
 40
0.8722979504176559
 40
1.0
 40
1.0
 40
1.0
 40
1.0
 10
152.3038461538461
 20
5.223878205128203
 30
0.0
 10
152.3027615731699
 20
5.20642175598652
 30
0.0
 10
152.3006227960044
 20
5.171997894643063
 30
0.0
 10
152.2867774300587
 20
5.121849710691369
 30
0.0
 10
152.2605627702072
 20
5.076831018779249
 30
0.0
 10
152.2276924551992
 20
5.035735507762806
 30
0.0
 10
152.1870556904713
 20
5.002224860853969
 30
0.0
 10
152.1416061583593
 20
4.977347969561087
 30
0.0
 10
152.0917212313168
 20
4.962205959214691
 30
0.0
 10
152.0569628522795
 20
4.960277103986366
 30
0.0
 10
152.0392628205128
 20
4.959294871794869
 30
0.0
  0
LINE
  5
12E
330
1F
100
AcDbEntity
  8
0
  6
Continuous
 62
     7
370
    15
100
AcDbLine
 10
149.8208333333
 20
5.0
 30
0.0
 11
149.5358974359
 21
5.0
 31
0.0
  0
LINE
  5
12F
330
1F
100
AcDbEntity
  8
0
  6
Continuous
 62
     7
370
    15
100
AcDbLine
 10
149.5358974359
 20
5.0
 30
0.0
 11
149.5358974359
 21
8.2564102564
 31
0.0
  0
LINE
  5
130
330
1F
100
AcDbEntity
  8
0
  6
Continuous
 62
     7
370
    15
100
AcDbLine
 10
149.5358974359
 20
8.2564102564
 30
0.0
 11
149.8208333333
 21
8.2564102564
 31
0.0
  0
LINE
  5
131
330
1F
100
AcDbEntity
  8
0
  6
Continuous
 62
     7
370
    15
100
AcDbLine
 10
149.8208333333
 20
8.2564102564
 30
0.0
 11
149.8208333333
 21
6.3737980769
 31
0.0
  0
LINE
  5
132
330
1F
100
AcDbEntity
  8
0
  6
Continuous
 62
     7
370
    15
100
AcDbLine
 10
149.8208333333
 20
6.3737980769
 30
0.0
 11
150.8766225962
 21
7.3201923077
 31
0.0
  0
LINE
  5
133
330
1F
100
AcDbEntity
  8
0
  6
Continuous
 62
     7
370
    15
100
AcDbLine
 10
150.8766225962
 20
7.3201923077
 30
0.0
 11
151.2862179487
 21
7.3201923077
 31
0.0
  0
LINE
  5
134
330
1F
100
AcDbEntity
  8
0
  6
Continuous
 62
     7
370
    15
100
AcDbLine
 10
151.2862179487
 20
7.3201923077
 30
0.0
 11
150.0612479968
 21
6.2211538462
 31
0.0
  0
LINE
  5
135
330
1F
100
AcDbEntity
  8
0
  6
Continuous
 62
     7
370
    15
100
AcDbLine
 10
150.0612479968
 20
6.2211538462
 30
0.0
 11
151.4083333333
 21
5.0
 31
0.0
  0
LINE
  5
136
330
1F
100
AcDbEntity
  8
0
  6
Continuous
 62
     7
370
    15
100
AcDbLine
 10
151.4083333333
 20
5.0
 30
0.0
 11
150.9993739984
 21
5.0
 31
0.0
  0
LINE
  5
137
330
1F
100
AcDbEntity
  8
0
  6
Continuous
 62
     7
370
    15
100
AcDbLine
 10
150.9993739984
 20
5.0
 30
0.0
 11
149.8208333333
 21
6.069145633
 31
0.0
  0
LINE
  5
138
330
1F
100
AcDbEntity
  8
0
  6
Continuous
 62
     7
370
    15
100
AcDbLine
 10
149.8208333333
 20
6.069145633
 30
0.0
 11
149.8208333333
 21
5.0
 31
0.0
  0
MTEXT
  5
13A
330
1F
100
AcDbEntity
  8
0
  6
Continuous
 62
     7
100
AcDbMText
 10
0.0
 20
-1.0195663917
 30
0.0
 40
4.83362
 41
0.0
 71
     1
 72
     1
  1
SOLIDWORKS Educational Product.
  7
SLDTEXTSTYLE0
 73
     1
 44
1.0
  0
MTEXT
  5
13B
330
1F
100
AcDbEntity
  8
0
  6
Continuous
 62
     7
100
AcDbMText
 10
0.0
 20
-8.2699963917
 30
0.0
 40
4.83362
 41
0.0
 71
     1
 72
     1
  1
For Instructional Use Only.
  7
SLDTEXTSTYLE0
 73
     1
 44
1.0
  0
ENDSEC
  0
SECTION
  2
OBJECTS
  0
DICTIONARY
  5
C
330
0
100
AcDbDictionary
281
     1
  3
ACAD_GROUP
350
D
  3
ACAD_LAYOUT
350
1A
  3
ACAD_MLINESTYLE
350
17
  3
ACAD_PLOTSETTINGS
350
19
  3
ACAD_PLOTSTYLENAME
350
E
  3
ACAD_SCALELIST
350
47
  0
DICTIONARY
  5
D
102
{ACAD_REACTORS
330
C
102
}
330
C
100
AcDbDictionary
281
     1
  0
DICTIONARY
  5
1A
102
{ACAD_REACTORS
330
C
102
}
330
C
100
AcDbDictionary
281
     1
  3
Layout1
350
1E
  3
Layout2
350
26
  3
Model
350
22
  0
DICTIONARY
  5
17
102
{ACAD_REACTORS
330
C
102
}
330
C
100
AcDbDictionary
281
     1
  3
Standard
350
18
  0
DICTIONARY
  5
19
102
{ACAD_REACTORS
330
C
102
}
330
C
100
AcDbDictionary
281
     1
  0
ACDBDICTIONARYWDFLT
  5
E
102
{ACAD_REACTORS
330
C
102
}
330
C
100
AcDbDictionary
281
     1
  3
Normal
350
F
100
AcDbDictionaryWithDefault
340
F
  0
DICTIONARY
  5
47
102
{ACAD_REACTORS
330
C
102
}
330
C
100
AcDbDictionary
281
     1
  3
A0
350
48
  3
A1
350
49
  3
A2
350
4A
  3
A3
350
4B
  3
A4
350
4C
  3
A5
350
4D
  3
A6
350
4E
  3
A7
350
4F
  3
A8
350
50
  3
A9
350
51
  3
B0
350
52
  3
B1
350
53
  3
B2
350
54
  3
B3
350
55
  3
B4
350
56
  3
B5
350
57
  3
B6
350
58
  3
B7
350
59
  3
B8
350
5A
  3
B9
350
5B
  3
C0
350
5C
  3
C1
350
5D
  3
C2
350
5E
  3
C3
350
5F
  3
C4
350
60
  3
C5
350
61
  3
C6
350
62
  3
C7
350
63
  3
C8
350
64
  3
C9
350
65
  3
D0
350
66
  3
D1
350
67
  3
D2
350
68
  0
LAYOUT
  5
1E
102
{ACAD_REACTORS
330
1A
102
}
330
1A
100
AcDbPlotSettings
  1

  2
none_device
  4

  6

 40
0.0
 41
0.0
 42
0.0
 43
0.0
 44
0.0
 45
0.0
 46
0.0
 47
0.0
 48
0.0
 49
0.0
140
0.0
141
0.0
142
1.0
143
1.0
 70
   688
 72
     1
 73
     0
 74
     5
  7

 75
    16
147
1.0
148
0.0
149
0.0
100
AcDbLayout
  1
Layout1
 70
     1
 71
     1
 10
0.0
 20
0.0
 11
420.0
 21
297.0
 12
0.0
 22
0.0
 32
0.0
 14
1.0000000000E+20
 24
1.0000000000E+20
 34
1.0000000000E+20
 15
-1.0000000000E+20
 25
-1.0000000000E+20
 35
-1.0000000000E+20
146
0.0
 13
0.0
 23
0.0
 33
0.0
 16
1.0
 26
0.0
 36
0.0
 17
0.0
 27
1.0
 37
0.0
 76
     0
330
1B
  0
LAYOUT
  5
26
102
{ACAD_REACTORS
330
1A
102
}
330
1A
100
AcDbPlotSettings
  1

  2
none_device
  4

  6

 40
0.0
 41
0.0
 42
0.0
 43
0.0
 44
0.0
 45
0.0
 46
0.0
 47
0.0
 48
0.0
 49
0.0
140
0.0
141
0.0
142
1.0
143
1.0
 70
   688
 72
     1
 73
     0
 74
     5
  7

 75
    16
147
1.0
148
0.0
149
0.0
100
AcDbLayout
  1
Layout2
 70
     1
 71
     2
 10
0.0
 20
0.0
 11
0.0
 21
0.0
 12
0.0
 22
0.0
 32
0.0
 14
0.0
 24
0.0
 34
0.0
 15
0.0
 25
0.0
 35
0.0
146
0.0
 13
0.0
 23
0.0
 33
0.0
 16
1.0
 26
0.0
 36
0.0
 17
0.0
 27
1.0
 37
0.0
 76
     0
330
23
  0
LAYOUT
  5
22
102
{ACAD_REACTORS
330
1A
102
}
330
1A
100
AcDbPlotSettings
  1

  2
none_device
  4
ANSI_A_(11.00_x_8.50_Inches)
  6

 40
6.35
 41
19.05
 42
6.35000508
 43
19.05000254
 44
279.4
 45
215.9
 46
-4.95300254
 47
35.8321415871
 48
0.0
 49
0.0
140
0.0
141
0.0
142
0.0321428571
143
1.0
 70
  1696
 72
     0
 73
     0
 74
     0
  7

 75
     0
147
0.0179189148
148
-1300.4909072572
149
0.0
100
AcDbLayout
  1
Model
 70
     1
 71
     0
 10
0.0
 20
0.0
 11
420.0
 21
297.0
 12
0.0
 22
0.0
 32
0.0
 14
0.0
 24
0.0
 34
0.0
 15
338.8
 25
130.0
 35
0.0
146
0.0
 13
0.0
 23
0.0
 33
0.0
 16
1.0
 26
0.0
 36
0.0
 17
0.0
 27
1.0
 37
0.0
 76
     0
330
1F
331
29
  0
MLINESTYLE
  5
18
102
{ACAD_REACTORS
330
17
102
}
330
17
100
AcDbMlineStyle
  2
Standard
 70
     0
  3

 62
   256
 51
90.0
 52
90.0
 71
     2
 49
0.5
 62
   256
  6
BYLAYER
 49
-0.5
 62
   256
  6
BYLAYER
  0
ACDBPLACEHOLDER
  5
F
102
{ACAD_REACTORS
330
E
102
}
330
E
  0
SCALE
  5
48
102
{ACAD_REACTORS
330
47
102
}
330
47
100
AcDbScale
 70
     0
300
1:1
140
1.0
141
1.0
290
     1
  0
SCALE
  5
49
102
{ACAD_REACTORS
330
47
102
}
330
47
100
AcDbScale
 70
     0
300
1:2
140
1.0
141
2.0
290
     0
  0
SCALE
  5
4A
102
{ACAD_REACTORS
330
47
102
}
330
47
100
AcDbScale
 70
     0
300
1:4
140
1.0
141
4.0
290
     0
  0
SCALE
  5
4B
102
{ACAD_REACTORS
330
47
102
}
330
47
100
AcDbScale
 70
     0
300
1:5
140
1.0
141
5.0
290
     0
  0
SCALE
  5
4C
102
{ACAD_REACTORS
330
47
102
}
330
47
100
AcDbScale
 70
     0
300
1:8
140
1.0
141
8.0
290
     0
  0
SCALE
  5
4D
102
{ACAD_REACTORS
330
47
102
}
330
47
100
AcDbScale
 70
     0
300
1:10
140
1.0
141
10.0
290
     0
  0
SCALE
  5
4E
102
{ACAD_REACTORS
330
47
102
}
330
47
100
AcDbScale
 70
     0
300
1:16
140
1.0
141
16.0
290
     0
  0
SCALE
  5
4F
102
{ACAD_REACTORS
330
47
102
}
330
47
100
AcDbScale
 70
     0
300
1:20
140
1.0
141
20.0
290
     0
  0
SCALE
  5
50
102
{ACAD_REACTORS
330
47
102
}
330
47
100
AcDbScale
 70
     0
300
1:30
140
1.0
141
30.0
290
     0
  0
SCALE
  5
51
102
{ACAD_REACTORS
330
47
102
}
330
47
100
AcDbScale
 70
     0
300
1:40
140
1.0
141
40.0
290
     0
  0
SCALE
  5
52
102
{ACAD_REACTORS
330
47
102
}
330
47
100
AcDbScale
 70
     0
300
1:50
140
1.0
141
50.0
290
     0
  0
SCALE
  5
53
102
{ACAD_REACTORS
330
47
102
}
330
47
100
AcDbScale
 70
     0
300
1:100
140
1.0
141
100.0
290
     0
  0
SCALE
  5
54
102
{ACAD_REACTORS
330
47
102
}
330
47
100
AcDbScale
 70
     0
300
2:1
140
2.0
141
1.0
290
     0
  0
SCALE
  5
55
102
{ACAD_REACTORS
330
47
102
}
330
47
100
AcDbScale
 70
     0
300
4:1
140
4.0
141
1.0
290
     0
  0
SCALE
  5
56
102
{ACAD_REACTORS
330
47
102
}
330
47
100
AcDbScale
 70
     0
300
8:1
140
8.0
141
1.0
290
     0
  0
SCALE
  5
57
102
{ACAD_REACTORS
330
47
102
}
330
47
100
AcDbScale
 70
     0
300
10:1
140
10.0
141
1.0
290
     0
  0
SCALE
  5
58
102
{ACAD_REACTORS
330
47
102
}
330
47
100
AcDbScale
 70
     0
300
100:1
140
100.0
141
1.0
290
     0
  0
SCALE
  5
59
102
{ACAD_REACTORS
330
47
102
}
330
47
100
AcDbScale
 70
     0
300
1/128" = 1'-0"
140
0.0078125
141
12.0
290
     0
  0
SCALE
  5
5A
102
{ACAD_REACTORS
330
47
102
}
330
47
100
AcDbScale
 70
     0
300
1/64" = 1'-0"
140
0.015625
141
12.0
290
     0
  0
SCALE
  5
5B
102
{ACAD_REACTORS
330
47
102
}
330
47
100
AcDbScale
 70
     0
300
1/32" = 1'-0"
140
0.03125
141
12.0
290
     0
  0
SCALE
  5
5C
102
{ACAD_REACTORS
330
47
102
}
330
47
100
AcDbScale
 70
     0
300
1/16" = 1'-0"
140
0.0625
141
12.0
290
     0
  0
SCALE
  5
5D
102
{ACAD_REACTORS
330
47
102
}
330
47
100
AcDbScale
 70
     0
300
3/32" = 1'-0"
140
0.09375
141
12.0
290
     0
  0
SCALE
  5
5E
102
{ACAD_REACTORS
330
47
102
}
330
47
100
AcDbScale
 70
     0
300
1/8" = 1'-0"
140
0.125
141
12.0
290
     0
  0
SCALE
  5
5F
102
{ACAD_REACTORS
330
47
102
}
330
47
100
AcDbScale
 70
     0
300
3/16" = 1'-0"
140
0.1875
141
12.0
290
     0
  0
SCALE
  5
60
102
{ACAD_REACTORS
330
47
102
}
330
47
100
AcDbScale
 70
     0
300
1/4" = 1'-0"
140
0.25
141
12.0
290
     0
  0
SCALE
  5
61
102
{ACAD_REACTORS
330
47
102
}
330
47
100
AcDbScale
 70
     0
300
3/8" = 1'-0"
140
0.375
141
12.0
290
     0
  0
SCALE
  5
62
102
{ACAD_REACTORS
330
47
102
}
330
47
100
AcDbScale
 70
     0
300
1/2" = 1'-0"
140
0.5
141
12.0
290
     0
  0
SCALE
  5
63
102
{ACAD_REACTORS
330
47
102
}
330
47
100
AcDbScale
 70
     0
300
3/4" = 1'-0"
140
0.75
141
12.0
290
     0
  0
SCALE
  5
64
102
{ACAD_REACTORS
330
47
102
}
330
47
100
AcDbScale
 70
     0
300
1" = 1'-0"
140
1.0
141
12.0
290
     0
  0
SCALE
  5
65
102
{ACAD_REACTORS
330
47
102
}
330
47
100
AcDbScale
 70
     0
300
1-1/2" = 1'-0"
140
1.5
141
12.0
290
     0
  0
SCALE
  5
66
102
{ACAD_REACTORS
330
47
102
}
330
47
100
AcDbScale
 70
     0
300
3" = 1'-0"
140
3.0
141
12.0
290
     0
  0
SCALE
  5
67
102
{ACAD_REACTORS
330
47
102
}
330
47
100
AcDbScale
 70
     0
300
6" = 1'-0"
140
6.0
141
12.0
290
     0
  0
SCALE
  5
68
102
{ACAD_REACTORS
330
47
102
}
330
47
100
AcDbScale
 70
     0
300
1'-0" = 1'-0"
140
12.0
141
12.0
290
     0
  0
ENDSEC
  0
EOF
