  0
SECTION
  2
HEADER
  9
$ACADVER
  1
AC1015
  9
$ACADMAINTVER
 70
     6
  9
$DWGCODEPAGE
  3
ANSI_1252
  9
$INSBASE
 10
0.0
 20
0.0
 30
0.0
  9
$EXTMIN
 10
0.0
 20
0.0
 30
0.0
  9
$EXTMAX
 10
338.8
 20
130.0
 30
0.0
  9
$LIMMIN
 10
0.0
 20
0.0
  9
$LIMMAX
 10
420.0
 20
297.0
  9
$ORTHOMODE
 70
     0
  9
$REGENMODE
 70
     1
  9
$FILLMODE
 70
     1
  9
$QTEXTMODE
 70
     0
  9
$MIRRTEXT
 70
     1
  9
$LTSCALE
 40
1.0
  9
$ATTMODE
 70
     1
  9
$TEXTSIZE
 40
6.35
  9
$TRACEWID
 40
1.0
  9
$TEXTSTYLE
  7
Standard
  9
$CLAYER
  8
0
  9
$CELTYPE
  6
ByLayer
  9
$CECOLOR
 62
   256
  9
$CELTSCALE
 40
1.0
  9
$DISPSILH
 70
     0
  9
$DIMSCALE
 40
1.0
  9
$DIMASZ
 40
5.9944
  9
$DIMEXO
 40
0.9906
  9
$DIMDLI
 40
3.75
  9
$DIMRND
 40
0.0
  9
$DIMDLE
 40
0.0
  9
$DIMEXE
 40
0.9906
  9
$DIMTP
 40
0.0
  9
$DIMTM
 40
0.0
  9
$DIMTXT
 40
6.35
  9
$DIMCEN
 40
2.5
  9
$DIMTSZ
 40
0.0
  9
$DIMTOL
 70
     0
  9
$DIMLIM
 70
     0
  9
$DIMTIH
 70
     1
  9
$DIMTOH
 70
     1
  9
$DIMSE1
 70
     0
  9
$DIMSE2
 70
     0
  9
$DIMTAD
 70
     1
  9
$DIMZIN
 70
     0
  9
$DIMBLK
  1

  9
$DIMASO
 70
     1
  9
$DIMSHO
 70
     1
  9
$DIMPOST
  1

  9
$DIMAPOST
  1

  9
$DIMALT
 70
     0
  9
$DIMALTD
 70
     3
  9
$DIMALTF
 40
0.0393700787
  9
$DIMLFAC
 40
1.0
  9
$DIMTOFL
 70
     1
  9
$DIMTVP
 40
0.0
  9
$DIMTIX
 70
     0
  9
$DIMSOXD
 70
     0
  9
$DIMSAH
 70
     0
  9
$DIMBLK1
  1

  9
$DIMBLK2
  1

  9
$DIMSTYLE
  2
ISO-25
  9
$DIMCLRD
 70
     0
  9
$DIMCLRE
 70
     0
  9
$DIMCLRT
 70
     0
  9
$DIMTFAC
 40
1.0
  9
$DIMGAP
 40
1.524
  9
$DIMJUST
 70
     0
  9
$DIMSD1
 70
     0
  9
$DIMSD2
 70
     0
  9
$DIMTOLJ
 70
     0
  9
$DIMTZIN
 70
     0
  9
$DIMALTZ
 70
     0
  9
$DIMALTTZ
 70
     0
  9
$DIMUPT
 70
     0
  9
$DIMDEC
 70
     2
  9
$DIMTDEC
 70
     2
  9
$DIMALTU
 70
     2
  9
$DIMALTTD
 70
     3
  9
$DIMTXSTY
  7
Standard
  9
$DIMAUNIT
 70
     0
  9
$DIMADEC
 70
     2
  9
$DIMALTRND
 40
0.0
  9
$DIMAZIN
 70
     0
  9
$DIMDSEP
 70
    44
  9
$DIMATFIT
 70
     3
  9
$DIMFRAC
 70
     0
  9
$DIMLDRBLK
  1

  9
$DIMLUNIT
 70
     2
  9
$DIMLWD
 70
    -2
  9
$DIMLWE
 70
    -2
  9
$DIMTMOVE
 70
     0
  9
$LUNITS
 70
     2
  9
$LUPREC
 70
     2
  9
$SKETCHINC
 40
1.0
  9
$FILLETRAD
 40
10.0
  9
$AUNITS
 70
     0
  9
$AUPREC
 70
     2
  9
$MENU
  1
.
  9
$ELEVATION
 40
0.0
  9
$PELEVATION
 40
0.0
  9
$THICKNESS
 40
0.0
  9
$LIMCHECK
 70
     0
  9
$CHAMFERA
 40
0.0
  9
$CHAMFERB
 40
0.0
  9
$CHAMFERC
 40
0.0
  9
$CHAMFERD
 40
0.0
  9
$SKPOLY
 70
     0
  9
$TDCREATE
 40
2458001.59655912
  9
$TDUCREATE
 40
2458001.554892454
  9
$TDUPDATE
 40
2458001.596572685
  9
$TDUUPDATE
 40
2458001.554906019
  9
$TDINDWG
 40
0.0000000116
  9
$TDUSRTIMER
 40
0.0000000116
  9
$USRTIMER
 70
     1
  9
$ANGBASE
 50
0.0
  9
$ANGDIR
 70
     0
  9
$PDMODE
 70
     0
  9
$PDSIZE
 40
-1.0
  9
$PLINEWID
 40
0.0
  9
$SPLFRAME
 70
     0
  9
$SPLINETYPE
 70
     6
  9
$SPLINESEGS
 70
     8
  9
$HANDSEED
  5
149
  9
$SURFTAB1
 70
     6
  9
$SURFTAB2
 70
     6
  9
$SURFTYPE
 70
     6
  9
$SURFU
 70
     6
  9
$SURFV
 70
     6
  9
$UCSBASE
  2

  9
$UCSNAME
  2

  9
$UCSORG
 10
0.0
 20
0.0
 30
0.0
  9
$UCSXDIR
 10
1.0
 20
0.0
 30
0.0
  9
$UCSYDIR
 10
0.0
 20
1.0
 30
0.0
  9
$UCSORTHOREF
  2

  9
$UCSORTHOVIEW
 70
     0
  9
$UCSORGTOP
 10
0.0
 20
0.0
 30
0.0
  9
$UCSORGBOTTOM
 10
0.0
 20
0.0
 30
0.0
  9
$UCSORGLEFT
 10
0.0
 20
0.0
 30
0.0
  9
$UCSORGRIGHT
 10
0.0
 20
0.0
 30
0.0
  9
$UCSORGFRONT
 10
0.0
 20
0.0
 30
0.0
  9
$UCSORGBACK
 10
0.0
 20
0.0
 30
0.0
  9
$PUCSBASE
  2

  9
$PUCSNAME
  2

  9
$PUCSORG
 10
0.0
 20
0.0
 30
0.0
  9
$PUCSXDIR
 10
1.0
 20
0.0
 30
0.0
  9
$PUCSYDIR
 10
0.0
 20
1.0
 30
0.0
  9
$PUCSORTHOREF
  2

  9
$PUCSORTHOVIEW
 70
     0
  9
$PUCSORGTOP
 10
0.0
 20
0.0
 30
0.0
  9
$PUCSORGBOTTOM
 10
0.0
 20
0.0
 30
0.0
  9
$PUCSORGLEFT
 10
0.0
 20
0.0
 30
0.0
  9
$PUCSORGRIGHT
 10
0.0
 20
0.0
 30
0.0
  9
$PUCSORGFRONT
 10
0.0
 20
0.0
 30
0.0
  9
$PUCSORGBACK
 10
0.0
 20
0.0
 30
0.0
  9
$USERI1
 70
     0
  9
$USERI2
 70
     0
  9
$USERI3
 70
     0
  9
$USERI4
 70
     0
  9
$USERI5
 70
     0
  9
$USERR1
 40
0.0
  9
$USERR2
 40
0.0
  9
$USERR3
 40
0.0
  9
$USERR4
 40
0.0
  9
$USERR5
 40
0.0
  9
$WORLDVIEW
 70
     1
  9
$SHADEDGE
 70
     3
  9
$SHADEDIF
 70
    70
  9
$TILEMODE
 70
     1
  9
$MAXACTVP
 70
    64
  9
$PINSBASE
 10
0.0
 20
0.0
 30
0.0
  9
$PLIMCHECK
 70
     0
  9
$PEXTMIN
 10
1.0000000000E+20
 20
1.0000000000E+20
 30
1.0000000000E+20
  9
$PEXTMAX
 10
-1.0000000000E+20
 20
-1.0000000000E+20
 30
-1.0000000000E+20
  9
$PLIMMIN
 10
0.0
 20
0.0
  9
$PLIMMAX
 10
420.0
 20
297.0
  9
$UNITMODE
 70
     0
  9
$VISRETAIN
 70
     1
  9
$PLINEGEN
 70
     0
  9
$PSLTSCALE
 70
     1
  9
$TREEDEPTH
 70
  3020
  9
$CMLSTYLE
  2
Standard
  9
$CMLJUST
 70
     0
  9
$CMLSCALE
 40
20.0
  9
$PROXYGRAPHICS
 70
     1
  9
$MEASUREMENT
 70
     1
  9
$CELWEIGHT
370
    -1
  9
$ENDCAPS
280
     0
  9
$JOINSTYLE
280
     0
  9
$LWDISPLAY
290
     1
  9
$INSUNITS
 70
     4
  9
$HYPERLINKBASE
  1

  9
$STYLESHEET
  1

  9
$XEDIT
290
     1
  9
$CEPSNTYPE
380
     0
  9
$PSTYLEMODE
290
     1
  9
$FINGERPRINTGUID
  2
{CD43466C-2564-4363-893E-43C8B359442F}
  9
$VERSIONGUID
  2
{FAEB1C32-E019-11D5-929B-00C0DF256EC4}
  9
$EXTNAMES
290
     1
  9
$PSVPSCALE
 40
0.0
  9
$OLESTARTUP
290
     0
  0
ENDSEC
  0
SECTION
  2
CLASSES
  0
CLASS
  1
ACDBDICTIONARYWDFLT
  2
AcDbDictionaryWithDefault
  3
ObjectDBX Classes
 90
        0
280
     0
281
     0
  0
CLASS
  1
VISUALSTYLE
  2
AcDbVisualStyle
  3
ObjectDBX Classes
 90
     4095
280
     0
281
     0
  0
CLASS
  1
MATERIAL
  2
AcDbMaterial
  3
ObjectDBX Classes
 90
     1153
280
     0
281
     0
  0
CLASS
  1
SCALE
  2
AcDbScale
  3
ObjectDBX Classes
 90
     1153
280
     0
281
     0
  0
CLASS
  1
TABLESTYLE
  2
AcDbTableStyle
  3
ObjectDBX Classes
 90
     4095
280
     0
281
     0
  0
CLASS
  1
MLEADERSTYLE
  2
AcDbMLeaderStyle
  3
ACDB_MLEADERSTYLE_CLASS
 90
     4095
280
     0
281
     0
  0
CLASS
  1
SUN
  2
AcDbSun
  3
SCENEOE
 90
     1153
280
     0
281
     0
  0
CLASS
  1
ACDBPLACEHOLDER
  2
AcDbPlaceHolder
  3
ObjectDBX Classes
 90
        0
280
     0
281
     0
  0
CLASS
  1
LAYOUT
  2
AcDbLayout
  3
ObjectDBX Classes
 90
        0
280
     0
281
     0
  0
ENDSEC
  0
SECTION
  2
TABLES
  0
TABLE
  2
VPORT
  5
8
330
0
100
AcDbSymbolTable
 70
     1
  0
VPORT
  5
29
330
8
100
AcDbSymbolTableRecord
100
AcDbViewportTableRecord
  2
*Active
 70
     0
 10
0.0
 20
0.0
 11
1.0
 21
1.0
 12
169.4
 22
65.0
 13
0.0
 23
0.0
 14
10.0
 24
10.0
 15
10.0
 25
10.0
 16
0.0
 26
0.0
 36
1.0
 17
0.0
 27
0.0
 37
0.0
 40
132.6
 41
2.6061538462
 42
50.0
 43
0.0
 44
0.0
 50
0.0
 51
0.0
 71
     0
 72
   100
 73
     1
 74
     3
 75
     0
 76
     0
 77
     0
 78
     0
281
     0
 65
     1
110
0.0
120
0.0
130
0.0
111
1.0
121
0.0
131
0.0
112
0.0
122
1.0
132
0.0
 79
     0
146
0.0
  0
ENDTAB
  0
TABLE
  2
LTYPE
  5
5
330
0
100
AcDbSymbolTable
 70
     6
  0
LTYPE
  5
14
330
5
100
AcDbSymbolTableRecord
100
AcDbLinetypeTableRecord
  2
ByBlock
 70
     0
  3

 72
    65
 73
     0
 40
0.0
  0
LTYPE
  5
15
330
5
100
AcDbSymbolTableRecord
100
AcDbLinetypeTableRecord
  2
ByLayer
 70
     0
  3

 72
    65
 73
     0
 40
0.0
  0
LTYPE
  5
16
330
5
100
AcDbSymbolTableRecord
100
AcDbLinetypeTableRecord
  2
Continuous
 70
     0
  3
Solid line
 72
    65
 73
     0
 40
0.0
  0
LTYPE
  5
6E
330
5
100
AcDbSymbolTableRecord
100
AcDbLinetypeTableRecord
  2
HIDDEN
 70
     0
  3
Hidden __ __ __ __ __ __ __ __ __ __ __ __ __ __
 72
    65
 73
     2
 40
1.905
 49
1.27
 74
     0
 49
-0.635
 74
     0
  0
LTYPE
  5
6F
330
5
100
AcDbSymbolTableRecord
100
AcDbLinetypeTableRecord
  2
PHANTOM
 70
     0
  3
Phantom ______  __  __  ______  __  __  ______
 72
    65
 73
     6
 40
12.7
 49
6.35
 74
     0
 49
-1.27
 74
     0
 49
1.27
 74
     0
 49
-1.27
 74
     0
 49
1.27
 74
     0
 49
-1.27
 74
     0
  0
LTYPE
  5
70
330
5
100
AcDbSymbolTableRecord
100
AcDbLinetypeTableRecord
  2
CENTER
 70
     0
  3
Center ____ _ ____ _ ____ _ ____ _ ____ _ ____
 72
    65
 73
     4
 40
10.16
 49
6.35
 74
     0
 49
-1.27
 74
     0
 49
1.27
 74
     0
 49
-1.27
 74
     0
  0
LTYPE
  5
71
330
5
100
AcDbSymbolTableRecord
100
AcDbLinetypeTableRecord
  2
CENTERX2
 70
     0
  3
Center (2x) ________  __  ________  __  _____
 72
    65
 73
     4
 40
20.32
 49
12.7
 74
     0
 49
-2.54
 74
     0
 49
2.54
 74
     0
 49
-2.54
 74
     0
  0
LTYPE
  5
72
330
5
100
AcDbSymbolTableRecord
100
AcDbLinetypeTableRecord
  2
DOT2
 70
     0
  3
Dot (.5x) ........................................
 72
    65
 73
     2
 40
0.635
 49
0.0
 74
     0
 49
-0.635
 74
     0
  0
ENDTAB
  0
TABLE
  2
LAYER
  5
2
330
0
100
AcDbSymbolTable
 70
     1
  0
LAYER
  5
10
330
2
100
AcDbSymbolTableRecord
100
AcDbLayerTableRecord
  2
0
 70
     0
 62
     7
  6
Continuous
370
    -3
390
F
  0
ENDTAB
  0
TABLE
  2
STYLE
  5
3
330
0
100
AcDbSymbolTable
 70
     2
  0
STYLE
  5
11
330
3
100
AcDbSymbolTableRecord
100
AcDbTextStyleTableRecord
  2
Standard
 70
     0
 40
0.0
 41
1.0
 50
0.0
 71
     0
 42
6.35
  3
txt
  4

  0
STYLE
  5
146
330
3
100
AcDbSymbolTableRecord
100
AcDbTextStyleTableRecord
  2
SLDTEXTSTYLE0
 70
     0
 40
0.0
 41
0.7
 50
0.0
 71
     0
 42
6.35
  3
TXT
  4

  0
ENDTAB
  0
TABLE
  2
VIEW
  5
6
330
0
100
AcDbSymbolTable
 70
     0
  0
ENDTAB
  0
TABLE
  2
UCS
  5
7
330
0
100
AcDbSymbolTable
 70
     0
  0
ENDTAB
  0
TABLE
  2
APPID
  5
9
330
0
100
AcDbSymbolTable
 70
     1
  0
APPID
  5
12
330
9
100
AcDbSymbolTableRecord
100
AcDbRegAppTableRecord
  2
ACAD
 70
     0
  0
ENDTAB
  0
TABLE
  2
DIMSTYLE
  5
A
330
0
100
AcDbSymbolTable
 70
     1
100
AcDbDimStyleTable
  0
DIMSTYLE
105
27
330
A
100
AcDbSymbolTableRecord
100
AcDbDimStyleTableRecord
  2
ISO-25
 70
     0
 41
2.5
 42
0.625
 43
3.75
 44
1.25
 73
     0
 74
     0
 77
     1
 78
     8
140
2.5
141
2.5
143
0.0393700787
147
0.625
171
     3
172
     1
178
     0
271
     2
272
     2
274
     3
278
    44
283
     0
284
     8
340
11
  0
ENDTAB
  0
TABLE
  2
BLOCK_RECORD
  5
1
330
0
100
AcDbSymbolTable
 70
     1
  0
BLOCK_RECORD
  5
1F
330
1
100
AcDbSymbolTableRecord
100
AcDbBlockTableRecord
  2
*Model_Space
340
22
  0
BLOCK_RECORD
  5
1B
330
1
100
AcDbSymbolTableRecord
100
AcDbBlockTableRecord
  2
*Paper_Space
340
1E
  0
BLOCK_RECORD
  5
23
330
1
100
AcDbSymbolTableRecord
100
AcDbBlockTableRecord
  2
*Paper_Space0
340
26
  0
ENDTAB
  0
ENDSEC
  0
SECTION
  2
BLOCKS
  0
BLOCK
  5
20
330
1F
100
AcDbEntity
  8
0
100
AcDbBlockBegin
  2
*Model_Space
 70
     0
 10
0.0
 20
0.0
 30
0.0
  3
*Model_Space
  1

  0
ENDBLK
  5
21
330
1F
100
AcDbEntity
  8
0
100
AcDbBlockEnd
  0
BLOCK
  5
1C
330
1B
100
AcDbEntity
 67
     1
  8
0
100
AcDbBlockBegin
  2
*Paper_Space
 70
     0
 10
0.0
 20
0.0
 30
0.0
  3
*Paper_Space
  1

  0
ENDBLK
  5
1D
330
1B
100
AcDbEntity
 67
     1
  8
0
100
AcDbBlockEnd
  0
BLOCK
  5
24
330
23
100
AcDbEntity
  8
0
100
AcDbBlockBegin
  2
*Paper_Space0
 70
     0
 10
0.0
 20
0.0
 30
0.0
  3
*Paper_Space0
  1

  0
ENDBLK
  5
25
330
23
100
AcDbEntity
  8
0
100
AcDbBlockEnd
  0
ENDSEC
  0
SECTION
  2
ENTITIES
  0
LINE
  5
73
330
1F
100
AcDbEntity
  8
0
  6
Continuous
 62
     7
370
    15
100
AcDbLine
 10
267.8
 20
8.5
 30
0.0
 11
267.8
 21
5.0
 31
0.0
  0
LINE
  5
74
330
1F
100
AcDbEntity
  8
0
  6
Continuous
 62
     7
370
    15
100
AcDbLine
 10
277.8
 20
8.5
 30
0.0
 11
267.8
 21
8.5
 31
0.0
  0
LINE
  5
75
330
1F
100
AcDbEntity
  8
0
  6
Continuous
 62
     7
370
    15
100
AcDbLine
 10
277.8
 20
5.0
 30
0.0
 11
277.8
 21
8.5
 31
0.0
  0
LINE
  5
76
330
1F
100
AcDbEntity
  8
0
  6
Continuous
 62
     7
370
    15
100
AcDbLine
 10
267.8
 20
5.0
 30
0.0
 11
277.8
 21
5.0
 31
0.0
  0
LINE
  5
77
330
1F
100
AcDbEntity
  8
0
  6
Continuous
 62
     7
370
    15
100
AcDbLine
 10
229.2347254872
 20
24.0978527576
 30
0.0
 11
229.2347254872
 21
13.5070195118
 31
0.0
  0
ARC
  5
78
330
1F
100
AcDbEntity
  8
0
  6
Continuous
 62
     7
370
    15
100
AcDbCircle
 10
231.2347254872
 20
24.0978527576
 30
0.0
 40
2.0
100
AcDbArc
 50
90.0
 51
180.0
  0
LINE
  5
79
330
1F
100
AcDbEntity
  8
0
  6
Continuous
 62
     7
370
    15
100
AcDbLine
 10
281.0611840329
 20
26.0978527576
 30
0.0
 11
231.2347254872
 21
26.0978527576
 31
0.0
  0
ARC
  5
7A
330
1F
100
AcDbEntity
  8
0
  6
Continuous
 62
     7
370
    15
100
AcDbCircle
 10
281.0611840329
 20
24.0978527576
 30
0.0
 40
2.0
100
AcDbArc
 50
0.0
 51
90.0
  0
LINE
  5
7B
330
1F
100
AcDbEntity
  8
0
  6
Continuous
 62
     7
370
    15
100
AcDbLine
 10
283.0611840329
 20
13.5070195118
 30
0.0
 11
283.0611840329
 21
24.0978527576
 31
0.0
  0
ARC
  5
7C
330
1F
100
AcDbEntity
  8
0
  6
Continuous
 62
     7
370
    15
100
AcDbCircle
 10
281.0611840329
 20
13.5070195118
 30
0.0
 40
2.000000000000002
100
AcDbArc
 50
270.0
 51
0.0
  0
LINE
  5
7D
330
1F
100
AcDbEntity
  8
0
  6
Continuous
 62
     7
370
    15
100
AcDbLine
 10
231.2347254872
 20
11.5070195118
 30
0.0
 11
281.0611840329
 21
11.5070195118
 31
0.0
  0
ARC
  5
7E
330
1F
100
AcDbEntity
  8
0
  6
Continuous
 62
     7
370
    15
100
AcDbCircle
 10
231.2347254872
 20
13.5070195118
 30
0.0
 40
2.000000000000002
100
AcDbArc
 50
180.0
 51
270.0
  0
LINE
  5
7F
330
1F
100
AcDbEntity
  8
0
  6
Continuous
 62
     7
370
    15
100
AcDbLine
 10
237.8
 20
8.5
 30
0.0
 11
237.8
 21
5.0
 31
0.0
  0
LINE
  5
80
330
1F
100
AcDbEntity
  8
0
  6
Continuous
 62
     7
370
    15
100
AcDbLine
 10
247.8
 20
8.5
 30
0.0
 11
237.8
 21
8.5
 31
0.0
  0
LINE
  5
81
330
1F
100
AcDbEntity
  8
0
  6
Continuous
 62
     7
370
    15
100
AcDbLine
 10
247.8
 20
5.0
 30
0.0
 11
247.8
 21
8.5
 31
0.0
  0
LINE
  5
82
330
1F
100
AcDbEntity
  8
0
  6
Continuous
 62
     7
370
    15
100
AcDbLine
 10
237.8
 20
5.0
 30
0.0
 11
247.8
 21
5.0
 31
0.0
  0
SPLINE
  5
83
330
1F
100
AcDbEntity
  8
0
  6
Continuous
 62
     7
370
    15
100
AcDbSpline
210
0.0
220
0.0
230
1.0
 70
     8
 71
     3
 72
    15
 73
    11
 74
     0
 42
0.000000001
 43
0.00000001
 40
0.0
 40
0.0
 40
0.0
 40
0.0
 40
0.1209110787487092
 40
0.2387622286387334
 40
0.3547548590848714
 40
0.470359399450219
 40
0.5891440987928731
 40
0.7163289048363523
 40
0.852445285857603
 40
1.0
 40
1.0
 40
1.0
 40
1.0
 10
177.3146033653846
 20
7.360897435897433
 30
0.0
 10
177.3572852886017
 20
7.359666739420065
 30
0.0
 10
177.4415689722423
 20
7.357236492028713
 30
0.0
 10
177.5656035244453
 20
7.338167310145382
 30
0.0
 10
177.6852939849958
 20
7.307765312319245
 30
0.0
 10
177.8013157563599
 20
7.264208276070718
 30
0.0
 10
177.914613954054
 20
7.204745027009663
 30
0.0
 10
178.0248151699423
 20
7.126419638457481
 30
0.0
 10
178.1322382416582
 20
7.028529544557764
 30
0.0
 10
178.1985302736549
 20
6.95346087473894
 30
0.0
 10
178.2330128205128
 20
6.914413060897433
 30
0.0
  0
LINE
  5
84
330
1F
100
AcDbEntity
  8
0
  6
Continuous
 62
     7
370
    15
100
AcDbLine
 10
178.2330128205
 20
6.9144130609
 30
0.0
 11
178.2330128205
 21
7.3201923077
 31
0.0
  0
LINE
  5
85
330
1F
100
AcDbEntity
  8
0
  6
Continuous
 62
     7
370
    15
100
AcDbLine
 10
178.2330128205
 20
7.3201923077
 30
0.0
 11
178.5179487179
 21
7.3201923077
 31
0.0
  0
LINE
  5
86
330
1F
100
AcDbEntity
  8
0
  6
Continuous
 62
     7
370
    15
100
AcDbLine
 10
178.5179487179
 20
7.3201923077
 30
0.0
 11
178.5179487179
 21
5.478921274
 31
0.0
  0
SPLINE
  5
87
330
1F
100
AcDbEntity
  8
0
  6
Continuous
 62
     7
370
    15
100
AcDbSpline
210
0.0
220
0.0
230
1.0
 70
     8
 71
     3
 72
    15
 73
    11
 74
     0
 42
0.000000001
 43
0.00000001
 40
0.0
 40
0.0
 40
0.0
 40
0.0
 40
0.1634452548497624
 40
0.315488712712919
 40
0.4562908239366651
 40
0.5858641495747716
 40
0.7054286858067529
 40
0.8133707129824367
 40
0.9117182381600958
 40
1.0
 40
1.0
 40
1.0
 40
1.0
 10
178.5179487179488
 20
5.47892127403846
 30
0.0
 10
178.5176974007595
 20
5.439698598930842
 30
0.0
 10
178.5172122980465
 20
5.363989387976789
 30
0.0
 10
178.5137189169798
 20
5.254516948613651
 30
0.0
 10
178.5063523026442
 20
5.15340128530972
 30
0.0
 10
178.4979987131306
 20
5.060181236446638
 30
0.0
 10
178.4859820490408
 20
4.97528889374937
 30
0.0
 10
178.4713077730459
 20
4.898470943795116
 30
0.0
 10
178.454765406958
 20
4.829653669361632
 30
0.0
 10
178.4402327811244
 20
4.787267563572377
 30
0.0
 10
178.4333583733974
 20
4.76721754807692
 30
0.0
  0
SPLINE
  5
88
330
1F
100
AcDbEntity
  8
0
  6
Continuous
 62
     7
370
    15
100
AcDbSpline
210
0.0
220
0.0
230
1.0
 70
     8
 71
     3
 72
    23
 73
    19
 74
     0
 42
0.000000001
 43
0.00000001
 40
0.0
 40
0.0
 40
0.0
 40
0.0
 40
0.0613707062984567
 40
0.1209064680177752
 40
0.179423665000029
 40
0.237606687439777
 40
0.2959384682493643
 40
0.3542182268208507
 40
0.4135370665946777
 40
0.4740867825531828
 40
0.5351211890802668
 40
0.5969876649622163
 40
0.6600198335468003
 40
0.7242774964844803
 40
0.7900118502255273
 40
0.8577476843344293
 40
0.9278290322155331
 40
0.9999999999999999
 40
0.9999999999999999
 40
0.9999999999999999
 40
0.9999999999999999
 10
178.4333583733974
 20
4.76721754807692
 30
0.0
 10
178.4232081354007
 20
4.741155404919018
 30
0.0
 10
178.4032111449839
 20
4.689810359892628
 30
0.0
 10
178.3657591774891
 20
4.617026368886949
 30
0.0
 10
178.3238184220634
 20
4.548495000955001
 30
0.0
 10
178.2759151554157
 20
4.484598170128644
 30
0.0
 10
178.2222659974726
 20
4.425656642485563
 30
0.0
 10
178.1641349295896
 20
4.370389871710386
 30
0.0
 10
178.1003898273715
 20
4.319967091296635
 30
0.0
 10
178.0310671384418
 20
4.275258285746514
 30
0.0
 10
177.9577648854667
 20
4.234992886621614
 30
0.0
 10
177.8805252071633
 20
4.200116357819334
 30
0.0
 10
177.799783652362
 20
4.169739006818773
 30
0.0
 10
177.7147817435544
 20
4.146985327835357
 30
0.0
 10
177.6268521737155
 20
4.127268831321081
 30
0.0
 10
177.534960932664
 20
4.114437580636224
 30
0.0
 10
177.4396448955621
 20
4.105704463621033
 30
0.0
 10
177.3748337293463
 20
4.104896895132771
 30
0.0
 10
177.3419521233974
 20
4.104487179487177
 30
0.0
  0
SPLINE
  5
89
330
1F
100
AcDbEntity
  8
0
  6
Continuous
 62
     7
370
    15
100
AcDbSpline
210
0.0
220
0.0
230
1.0
 70
     8
 71
     3
 72
    19
 73
    15
 74
     0
 42
0.000000001
 43
0.00000001
 40
0.0
 40
0.0
 40
0.0
 40
0.0
 40
0.0964914237691135
 40
0.1884736749922992
 40
0.2768399149587986
 40
0.3621365621714227
 40
0.4434367545654548
 40
0.5201655209986107
 40
0.5927096635689897
 40
0.6629173343528109
 40
0.7354188002027011
 40
0.8148809699994107
 40
0.903060555739981
 40
1.0
 40
1.0
 40
1.0
 40
1.0
 10
177.3419521233974
 20
4.104487179487177
 30
0.0
 10
177.2939781141516
 20
4.105264134472561
 30
0.0
 10
177.2002719849071
 20
4.106781736303676
 30
0.0
 10
177.0636517415432
 20
4.124462780708005
 30
0.0
 10
176.9338988170389
 20
4.149458533424568
 30
0.0
 10
176.8127277027467
 20
4.187291314205324
 30
0.0
 10
176.7009041148712
 20
4.233589154889889
 30
0.0
 10
176.5991917420689
 20
4.286743147927153
 30
0.0
 10
176.5085036659634
 20
4.347693449482696
 30
0.0
 10
176.4267486197392
 20
4.417090423171209
 30
0.0
 10
176.3529601772586
 20
4.499607477227973
 30
0.0
 10
176.2835389927763
 20
4.59685214296972
 30
0.0
 10
176.2167179955194
 20
4.710305678128292
 30
0.0
 10
176.1775578740251
 20
4.79357478225858
 30
0.0
 10
176.1570512820513
 20
4.837179487179485
 30
0.0
  0
LINE
  5
8A
330
1F
100
AcDbEntity
  8
0
  6
Continuous
 62
     7
370
    15
100
AcDbLine
 10
176.1570512821
 20
4.8371794872
 30
0.0
 11
176.4419871795
 21
4.8371794872
 31
0.0
  0
SPLINE
  5
8B
330
1F
100
AcDbEntity
  8
0
  6
Continuous
 62
     7
370
    15
100
AcDbSpline
210
0.0
220
0.0
230
1.0
 70
     8
 71
     3
 72
    15
 73
    11
 74
     0
 42
0.000000001
 43
0.00000001
 40
0.0
 40
0.0
 40
0.0
 40
0.0
 40
0.1247164867022969
 40
0.243805373915499
 40
0.3600615340644482
 40
0.4751119996583978
 40
0.5935250978118934
 40
0.7193501703843507
 40
0.8538547713042717
 40
1.0
 40
1.0
 40
1.0
 40
1.0
 10
176.4419871794872
 20
4.837179487179485
 30
0.0
 10
176.4649036122142
 20
4.800797728443086
 30
0.0
 10
176.5097024162662
 20
4.729675870163001
 30
0.0
 10
176.5934756811433
 20
4.637588935850697
 30
0.0
 10
176.685284277187
 20
4.558891240741391
 30
0.0
 10
176.7882265612186
 20
4.49547218141124
 30
0.0
 10
176.9027308637673
 20
4.447656870639687
 30
0.0
 10
177.0288660719355
 20
4.413570708872761
 30
0.0
 10
177.1676585859378
 20
4.393163381081644
 30
0.0
 10
177.2642858230896
 20
4.390703849968594
 30
0.0
 10
177.3146033653846
 20
4.389423076923075
 30
0.0
  0
SPLINE
  5
8C
330
1F
100
AcDbEntity
  8
0
  6
Continuous
 62
     7
370
    15
100
AcDbSpline
210
0.0
220
0.0
230
1.0
 70
     8
 71
     3
 72
    23
 73
    19
 74
     0
 42
0.000000001
 43
0.00000001
 40
0.0
 40
0.0
 40
0.0
 40
0.0
 40
0.0981712978276953
 40
0.1892644356875805
 40
0.2744630560180384
 40
0.3550231712817346
 40
0.4309204620429262
 40
0.5010860453857559
 40
0.5666076270375989
 40
0.6297208634282989
 40
0.6627106951128602
 40
0.6987655616316113
 40
0.7386105373889598
 40
0.7825812280784425
 40
0.8304087872491277
 40
0.8825778660702764
 40
0.9392286810451782
 40
1.0
 40
1.0
 40
1.0
 40
1.0
 10
177.3146033653846
 20
4.389423076923075
 30
0.0
 10
177.364284758768
 20
4.390720426187166
 30
0.0
 10
177.4600655123177
 20
4.393221585709256
 30
0.0
 10
177.5977980728088
 20
4.413579816494472
 30
0.0
 10
177.7235234809133
 20
4.447664288549742
 30
0.0
 10
177.8365173771963
 20
4.495387610358741
 30
0.0
 10
177.9354465386552
 20
4.553853336286604
 30
0.0
 10
178.0207288450347
 20
4.619167689501184
 30
0.0
 10
178.089802944107
 20
4.692810456521559
 30
0.0
 10
178.1362604210147
 20
4.760648237761009
 30
0.0
 10
178.1651389669792
 20
4.821085841128924
 30
0.0
 10
178.1835287817596
 20
4.873112838890453
 30
0.0
 10
178.1984730254787
 20
4.931943663627078
 30
0.0
 10
178.2109733066719
 20
4.997381081486123
 30
0.0
 10
178.2212883495161
 20
5.06951858468277
 30
0.0
 10
178.2278223927885
 20
5.148521114887107
 30
0.0
 10
178.2325448075718
 20
5.23420912370767
 30
0.0
 10
178.2328532087917
 20
5.293620756226433
 30
0.0
 10
178.2330128205128
 20
5.324368990384614
 30
0.0
  0
LINE
  5
8D
330
1F
100
AcDbEntity
  8
0
  6
Continuous
 62
     7
370
    15
100
AcDbLine
 10
178.2330128205
 20
5.3243689904
 30
0.0
 11
178.2330128205
 21
5.4445763221
 31
0.0
  0
SPLINE
  5
8E
330
1F
100
AcDbEntity
  8
0
  6
Continuous
 62
     7
370
    15
100
AcDbSpline
210
0.0
220
0.0
230
1.0
 70
     8
 71
     3
 72
    15
 73
    11
 74
     0
 42
0.000000001
 43
0.00000001
 40
0.0
 40
0.0
 40
0.0
 40
0.0
 40
0.1265607130145274
 40
0.2508952618879497
 40
0.3747192653150376
 40
0.4998264235934758
 40
0.6249635314328795
 40
0.7490394747387523
 40
0.8731801199413541
 40
1.0
 40
1.0
 40
1.0
 40
1.0
 10
178.2330128205128
 20
5.444576322115383
 30
0.0
 10
178.2040920925834
 20
5.41015768730139
 30
0.0
 10
178.1467593434623
 20
5.341925830907764
 30
0.0
 10
178.0477471252776
 20
5.2525163461933
 30
0.0
 10
177.9396003518133
 20
5.175512499419885
 30
0.0
 10
177.8225031383484
 20
5.112358452397257
 30
0.0
 10
177.69932380439
 20
5.061847445787405
 30
0.0
 10
177.5713964953686
 20
5.026520616968443
 30
0.0
 10
177.4398679881504
 20
5.003696993496483
 30
0.0
 10
177.350739252238
 20
5.001241070911033
 30
0.0
 10
177.3056991185898
 20
4.999999999999997
 30
0.0
  0
SPLINE
  5
8F
330
1F
100
AcDbEntity
  8
0
  6
Continuous
 62
     7
370
    15
100
AcDbSpline
210
0.0
220
0.0
230
1.0
 70
     8
 71
     3
 72
    31
 73
    27
 74
     0
 42
0.000000001
 43
0.00000001
 40
0.0
 40
0.0
 40
0.0
 40
0.0
 40
0.0428647590311963
 40
0.0852222575672431
 40
0.127202284143743
 40
0.1690253126086035
 40
0.210882033099713
 40
0.2529626777271269
 40
0.2956282851000583
 40
0.3385532936306125
 40
0.3814632477171867
 40
0.4235815621432683
 40
0.4650661653954531
 40
0.5063122188418699
 40
0.5470395054616204
 40
0.5876758328931725
 40
0.6286747862975607
 40
0.669946464602765
 40
0.7110355744560748
 40
0.7519958286352201
 40
0.7926726074835051
 40
0.8334460178854428
 40
0.874190607042242
 40
0.9154935830294668
 40
0.9574778068391474
 40
1.0
 40
1.0
 40
1.0
 40
1.0
 10
177.3056991185898
 20
4.999999999999998
 30
0.0
 10
177.2791776456146
 20
5.000467202583916
 30
0.0
 10
177.2264485541174
 20
5.00139607888796
 30
0.0
 10
177.1481124619852
 20
5.009522969837881
 30
0.0
 10
177.070932350073
 20
5.021314686061912
 30
0.0
 10
176.9950882189258
 20
5.038624277140014
 30
0.0
 10
176.9204706270721
 20
5.060841771928764
 30
0.0
 10
176.8472028827907
 20
5.088615527794389
 30
0.0
 10
176.7746917551194
 20
5.12001638507919
 30
0.0
 10
176.7042552892019
 20
5.157003142484517
 30
0.0
 10
176.6365950134643
 20
5.198153235136079
 30
0.0
 10
176.5722212669486
 20
5.242729228851669
 30
0.0
 10
176.5114712350621
 20
5.290497818899245
 30
0.0
 10
176.4549231339186
 20
5.341930042857173
 30
0.0
 10
176.4026511391043
 20
5.396951461862991
 30
0.0
 10
176.3539522016547
 20
5.454975542114007
 30
0.0
 10
176.3096316082439
 20
5.516812514620285
 30
0.0
 10
176.2687798908614
 20
5.581334826096786
 30
0.0
 10
176.233349113023
 20
5.648972235554425
 30
0.0
 10
176.20224829001
 20
5.718258079263847
 30
0.0
 10
176.1752069011516
 20
5.78904420940417
 30
0.0
 10
176.1536482867192
 20
5.861567616240761
 30
0.0
 10
176.1371826339674
 20
5.935782577997966
 30
0.0
 10
176.1249269280559
 20
6.011567513760306
 30
0.0
 10
176.1179755543396
 20
6.089155793967572
 30
0.0
 10
176.1168915875279
 20
6.141426589308462
 30
0.0
 10
176.1163461538462
 20
6.167728365384614
 30
0.0
  0
SPLINE
  5
90
330
1F
100
AcDbEntity
  8
0
  6
Continuous
 62
     7
370
    15
100
AcDbSpline
210
0.0
220
0.0
230
1.0
 70
     8
 71
     3
 72
    31
 73
    27
 74
     0
 42
0.000000001
 43
0.00000001
 40
0.0
 40
0.0
 40
0.0
 40
0.0
 40
0.0420341186638456
 40
0.0839054330862327
 40
0.1250689344486245
 40
0.1661584697031391
 40
0.2072102728707283
 40
0.2484907320562538
 40
0.2898781122327919
 40
0.332169514204085
 40
0.3744758421539223
 40
0.4162249804562081
 40
0.4576095869585081
 40
0.4990731704672244
 40
0.5405533615534514
 40
0.5822488491953596
 40
0.6245497501260037
 40
0.6674328009210374
 40
0.7103225433055266
 40
0.752467118569865
 40
0.7940647568438068
 40
0.8352157072950149
 40
0.876228344224686
 40
0.9174461887061485
 40
0.9586431404713152
 40
1.0
 40
1.0
 40
1.0
 40
1.0
 10
176.1163461538462
 20
6.167728365384614
 30
0.0
 10
176.1168171118247
 20
6.194038316755242
 30
0.0
 10
176.1177572036932
 20
6.246556317236815
 30
0.0
 10
176.1258770206761
 20
6.32446118826687
 30
0.0
 10
176.137459592511
 20
6.401322890236296
 30
0.0
 10
176.1557909258143
 20
6.476349175914089
 30
0.0
 10
176.1778549283778
 20
6.550394486442286
 30
0.0
 10
176.2051813120547
 20
6.6229119004727
 30
0.0
 10
176.2380369008818
 20
6.693923505162819
 30
0.0
 10
176.2752386023739
 20
6.763481887259735
 30
0.0
 10
176.3170434578508
 20
6.830653652235985
 30
0.0
 10
176.3628836368685
 20
6.894449966735234
 30
0.0
 10
176.4128144799471
 20
6.954401379839421
 30
0.0
 10
176.4661471462597
 20
7.011112705391465
 30
0.0
 10
176.5235328374302
 20
7.064036774237832
 30
0.0
 10
176.5849418662005
 20
7.113045135239296
 30
0.0
 10
176.6497689075669
 20
7.158959287640925
 30
0.0
 10
176.7182148772059
 20
7.200788857779862
 30
0.0
 10
176.7892236510747
 20
7.237784181408696
 30
0.0
 10
176.8609911857868
 20
7.271541322904636
 30
0.0
 10
176.9344681561271
 20
7.298332988478402
 30
0.0
 10
177.0082846740331
 20
7.321939656889166
 30
0.0
 10
177.0837407395681
 20
7.338663012552886
 30
0.0
 10
177.1599111609256
 20
7.351564617721138
 30
0.0
 10
177.237056710175
 20
7.359424757508366
 30
0.0
 10
177.288721122111
 20
7.360405909599793
 30
0.0
 10
177.3146033653846
 20
7.360897435897433
 30
0.0
  0
LINE
  5
91
330
1F
100
AcDbEntity
  8
0
  6
Continuous
 62
     7
370
    15
100
AcDbLine
 10
187.7173076923
 20
5.0
 30
0.0
 11
187.4323717949
 21
5.0
 31
0.0
  0
LINE
  5
92
330
1F
100
AcDbEntity
  8
0
  6
Continuous
 62
     7
370
    15
100
AcDbLine
 10
187.4323717949
 20
5.0
 30
0.0
 11
187.4323717949
 21
8.2564102564
 31
0.0
  0
LINE
  5
93
330
1F
100
AcDbEntity
  8
0
  6
Continuous
 62
     7
370
    15
100
AcDbLine
 10
187.4323717949
 20
8.2564102564
 30
0.0
 11
187.7173076923
 21
8.2564102564
 31
0.0
  0
LINE
  5
94
330
1F
100
AcDbEntity
  8
0
  6
Continuous
 62
     7
370
    15
100
AcDbLine
 10
187.7173076923
 20
8.2564102564
 30
0.0
 11
187.7173076923
 21
5.0
 31
0.0
  0
LINE
  5
95
330
1F
100
AcDbEntity
  8
0
  6
Continuous
 62
     7
370
    15
100
AcDbLine
 10
188.6128205128
 20
5.0
 30
0.0
 11
188.3278846154
 21
5.0
 31
0.0
  0
LINE
  5
96
330
1F
100
AcDbEntity
  8
0
  6
Continuous
 62
     7
370
    15
100
AcDbLine
 10
188.3278846154
 20
5.0
 30
0.0
 11
188.3278846154
 21
8.2564102564
 31
0.0
  0
LINE
  5
97
330
1F
100
AcDbEntity
  8
0
  6
Continuous
 62
     7
370
    15
100
AcDbLine
 10
188.3278846154
 20
8.2564102564
 30
0.0
 11
188.6128205128
 21
8.2564102564
 31
0.0
  0
LINE
  5
98
330
1F
100
AcDbEntity
  8
0
  6
Continuous
 62
     7
370
    15
100
AcDbLine
 10
188.6128205128
 20
8.2564102564
 30
0.0
 11
188.6128205128
 21
5.0
 31
0.0
  0
LINE
  5
99
330
1F
100
AcDbEntity
  8
0
  6
Continuous
 62
     7
370
    15
100
AcDbLine
 10
190.3224358974
 20
5.0
 30
0.0
 11
191.828525641
 21
8.175
 31
0.0
  0
LINE
  5
9A
330
1F
100
AcDbEntity
  8
0
  6
Continuous
 62
     7
370
    15
100
AcDbLine
 10
191.828525641
 20
8.175
 30
0.0
 11
191.8692307692
 21
8.175
 31
0.0
  0
LINE
  5
9B
330
1F
100
AcDbEntity
  8
0
  6
Continuous
 62
     7
370
    15
100
AcDbLine
 10
191.8692307692
 20
8.175
 30
0.0
 11
193.3346153846
 21
5.0
 31
0.0
  0
LINE
  5
9C
330
1F
100
AcDbEntity
  8
0
  6
Continuous
 62
     7
370
    15
100
AcDbLine
 10
193.3346153846
 20
5.0
 30
0.0
 11
193.0248747997
 21
5.0
 31
0.0
  0
LINE
  5
9D
330
1F
100
AcDbEntity
  8
0
  6
Continuous
 62
     7
370
    15
100
AcDbLine
 10
193.0248747997
 20
5.0
 30
0.0
 11
192.5554937901
 21
6.0176282051
 31
0.0
  0
LINE
  5
9E
330
1F
100
AcDbEntity
  8
0
  6
Continuous
 62
     7
370
    15
100
AcDbLine
 10
192.5554937901
 20
6.0176282051
 30
0.0
 11
191.1161858974
 21
6.0176282051
 31
0.0
  0
LINE
  5
9F
330
1F
100
AcDbEntity
  8
0
  6
Continuous
 62
     7
370
    15
100
AcDbLine
 10
191.1161858974
 20
6.0176282051
 30
0.0
 11
190.6334485176
 21
5.0
 31
0.0
  0
LINE
  5
A0
330
1F
100
AcDbEntity
  8
0
  6
Continuous
 62
     7
370
    15
100
AcDbLine
 10
190.6334485176
 20
5.0
 30
0.0
 11
190.3224358974
 21
5.0
 31
0.0
  0
CIRCLE
  5
A1
330
1F
100
AcDbEntity
  8
0
  6
Continuous
 62
     7
370
    15
100
AcDbCircle
 10
169.4
 20
33.0
 30
0.0
 40
2.0
  0
CIRCLE
  5
A2
330
1F
100
AcDbEntity
  8
0
  6
Continuous
 62
     7
370
    15
100
AcDbCircle
 10
169.4
 20
105.0
 30
0.0
 40
2.0
  0
LINE
  5
A3
330
1F
100
AcDbEntity
  8
0
  6
Continuous
 62
     7
370
    15
100
AcDbLine
 10
0.0
 20
5.0
 30
0.0
 11
0.0
 21
125.0
 31
0.0
  0
ARC
  5
A4
330
1F
100
AcDbEntity
  8
0
  6
Continuous
 62
     7
370
    15
100
AcDbCircle
 10
5.0
 20
5.0
 30
0.0
 40
5.0
100
AcDbArc
 50
180.0
 51
270.0
  0
LINE
  5
A5
330
1F
100
AcDbEntity
  8
0
  6
Continuous
 62
     7
370
    15
100
AcDbLine
 10
5.0
 20
0.0
 30
0.0
 11
219.4
 21
0.0
 31
0.0
  0
LINE
  5
A6
330
1F
100
AcDbEntity
  8
0
  6
Continuous
 62
     7
370
    15
100
AcDbLine
 10
219.4
 20
0.0
 30
0.0
 11
219.4
 21
30.0
 31
0.0
  0
LINE
  5
A7
330
1F
100
AcDbEntity
  8
0
  6
Continuous
 62
     7
370
    15
100
AcDbLine
 10
222.8
 20
30.0
 30
0.0
 11
219.4
 21
30.0
 31
0.0
  0
LINE
  5
A8
330
1F
100
AcDbEntity
  8
0
  6
Continuous
 62
     7
370
    15
100
AcDbLine
 10
222.8
 20
0.0
 30
0.0
 11
222.8
 21
30.0
 31
0.0
  0
LINE
  5
A9
330
1F
100
AcDbEntity
  8
0
  6
Continuous
 62
     7
370
    15
100
AcDbLine
 10
222.8
 20
0.0
 30
0.0
 11
333.8
 21
0.0
 31
0.0
  0
ARC
  5
AA
330
1F
100
AcDbEntity
  8
0
  6
Continuous
 62
     7
370
    15
100
AcDbCircle
 10
333.8
 20
5.0
 30
0.0
 40
5.0
100
AcDbArc
 50
270.0
 51
0.0
  0
LINE
  5
AB
330
1F
100
AcDbEntity
  8
0
  6
Continuous
 62
     7
370
    15
100
AcDbLine
 10
338.8
 20
5.0
 30
0.0
 11
338.8
 21
125.0
 31
0.0
  0
ARC
  5
AC
330
1F
100
AcDbEntity
  8
0
  6
Continuous
 62
     7
370
    15
100
AcDbCircle
 10
333.8
 20
125.0
 30
0.0
 40
5.0
100
AcDbArc
 50
0.0
 51
90.0
  0
LINE
  5
AD
330
1F
100
AcDbEntity
  8
0
  6
Continuous
 62
     7
370
    15
100
AcDbLine
 10
328.8
 20
130.0
 30
0.0
 11
333.8
 21
130.0
 31
0.0
  0
LINE
  5
AE
330
1F
100
AcDbEntity
  8
0
  6
Continuous
 62
     7
370
    15
100
AcDbLine
 10
328.8
 20
65.0
 30
0.0
 11
328.8
 21
130.0
 31
0.0
  0
LINE
  5
AF
330
1F
100
AcDbEntity
  8
0
  6
Continuous
 62
     7
370
    15
100
AcDbLine
 10
328.8
 20
65.0
 30
0.0
 11
325.4
 21
65.0
 31
0.0
  0
LINE
  5
B0
330
1F
100
AcDbEntity
  8
0
  6
Continuous
 62
     7
370
    15
100
AcDbLine
 10
325.4
 20
65.0
 30
0.0
 11
325.4
 21
130.0
 31
0.0
  0
LINE
  5
B1
330
1F
100
AcDbEntity
  8
0
  6
Continuous
 62
     7
370
    15
100
AcDbLine
 10
13.4
 20
130.0
 30
0.0
 11
325.4
 21
130.0
 31
0.0
  0
LINE
  5
B2
330
1F
100
AcDbEntity
  8
0
  6
Continuous
 62
     7
370
    15
100
AcDbLine
 10
13.4
 20
65.0
 30
0.0
 11
13.4
 21
130.0
 31
0.0
  0
LINE
  5
B3
330
1F
100
AcDbEntity
  8
0
  6
Continuous
 62
     7
370
    15
100
AcDbLine
 10
10.0
 20
65.0
 30
0.0
 11
13.4
 21
65.0
 31
0.0
  0
LINE
  5
B4
330
1F
100
AcDbEntity
  8
0
  6
Continuous
 62
     7
370
    15
100
AcDbLine
 10
10.0
 20
65.0
 30
0.0
 11
10.0
 21
130.0
 31
0.0
  0
LINE
  5
B5
330
1F
100
AcDbEntity
  8
0
  6
Continuous
 62
     7
370
    15
100
AcDbLine
 10
5.0
 20
130.0
 30
0.0
 11
10.0
 21
130.0
 31
0.0
  0
ARC
  5
B6
330
1F
100
AcDbEntity
  8
0
  6
Continuous
 62
     7
370
    15
100
AcDbCircle
 10
5.0
 20
125.0
 30
0.0
 40
5.0
100
AcDbArc
 50
90.0
 51
180.0
  0
LINE
  5
B7
330
1F
100
AcDbEntity
  8
0
  6
Continuous
 62
     7
370
    15
100
AcDbLine
 10
146.1370192308
 20
7.2896634615
 30
0.0
 11
145.8336388221
 21
5.0
 31
0.0
  0
LINE
  5
B8
330
1F
100
AcDbEntity
  8
0
  6
Continuous
 62
     7
370
    15
100
AcDbLine
 10
145.8336388221
 20
5.0
 30
0.0
 11
145.5467948718
 21
5.0
 31
0.0
  0
LINE
  5
B9
330
1F
100
AcDbEntity
  8
0
  6
Continuous
 62
     7
370
    15
100
AcDbLine
 10
145.5467948718
 20
5.0
 30
0.0
 11
145.9659304888
 21
8.175
 31
0.0
  0
LINE
  5
BA
330
1F
100
AcDbEntity
  8
0
  6
Continuous
 62
     7
370
    15
100
AcDbLine
 10
145.9659304888
 20
8.175
 30
0.0
 11
146.006635617
 21
8.175
 31
0.0
  0
LINE
  5
BB
330
1F
100
AcDbEntity
  8
0
  6
Continuous
 62
     7
370
    15
100
AcDbLine
 10
146.006635617
 20
8.175
 30
0.0
 11
147.3174679487
 21
5.5698717949
 31
0.0
  0
LINE
  5
BC
330
1F
100
AcDbEntity
  8
0
  6
Continuous
 62
     7
370
    15
100
AcDbLine
 10
147.3174679487
 20
5.5698717949
 30
0.0
 11
148.6251201923
 21
8.175
 31
0.0
  0
LINE
  5
BD
330
1F
100
AcDbEntity
  8
0
  6
Continuous
 62
     7
370
    15
100
AcDbLine
 10
148.6251201923
 20
8.175
 30
0.0
 11
148.6664613381
 21
8.175
 31
0.0
  0
LINE
  5
BE
330
1F
100
AcDbEntity
  8
0
  6
Continuous
 62
     7
370
    15
100
AcDbLine
 10
148.6664613381
 20
8.175
 30
0.0
 11
149.0881410256
 21
5.0
 31
0.0
  0
LINE
  5
BF
330
1F
100
AcDbEntity
  8
0
  6
Continuous
 62
     7
370
    15
100
AcDbLine
 10
149.0881410256
 20
5.0
 30
0.0
 11
148.8019330929
 21
5.0
 31
0.0
  0
LINE
  5
C0
330
1F
100
AcDbEntity
  8
0
  6
Continuous
 62
     7
370
    15
100
AcDbLine
 10
148.8019330929
 20
5.0
 30
0.0
 11
148.4979166667
 21
7.2845753205
 31
0.0
  0
LINE
  5
C1
330
1F
100
AcDbEntity
  8
0
  6
Continuous
 62
     7
370
    15
100
AcDbLine
 10
148.4979166667
 20
7.2845753205
 30
0.0
 11
147.3518129006
 21
5.0
 31
0.0
  0
LINE
  5
C2
330
1F
100
AcDbEntity
  8
0
  6
Continuous
 62
     7
370
    15
100
AcDbLine
 10
147.3518129006
 20
5.0
 30
0.0
 11
147.2875751202
 21
5.0
 31
0.0
  0
LINE
  5
C3
330
1F
100
AcDbEntity
  8
0
  6
Continuous
 62
     7
370
    15
100
AcDbLine
 10
147.2875751202
 20
5.0
 30
0.0
 11
146.1370192308
 21
7.2896634615
 31
0.0
  0
LINE
  5
C4
330
1F
100
AcDbEntity
  8
0
  6
Continuous
 62
     7
370
    15
100
AcDbLine
 10
186.5368589744
 20
6.8908804087
 30
0.0
 11
186.5368589744
 21
7.3201923077
 31
0.0
  0
LINE
  5
C5
330
1F
100
AcDbEntity
  8
0
  6
Continuous
 62
     7
370
    15
100
AcDbLine
 10
186.5368589744
 20
7.3201923077
 30
0.0
 11
186.8217948718
 21
7.3201923077
 31
0.0
  0
LINE
  5
C6
330
1F
100
AcDbEntity
  8
0
  6
Continuous
 62
     7
370
    15
100
AcDbLine
 10
186.8217948718
 20
7.3201923077
 30
0.0
 11
186.8217948718
 21
5.0
 31
0.0
  0
LINE
  5
C7
330
1F
100
AcDbEntity
  8
0
  6
Continuous
 62
     7
370
    15
100
AcDbLine
 10
186.8217948718
 20
5.0
 30
0.0
 11
186.5368589744
 21
5.0
 31
0.0
  0
LINE
  5
C8
330
1F
100
AcDbEntity
  8
0
  6
Continuous
 62
     7
370
    15
100
AcDbLine
 10
186.5368589744
 20
5.0
 30
0.0
 11
186.5368589744
 21
5.4013271234
 31
0.0
  0
SPLINE
  5
C9
330
1F
100
AcDbEntity
  8
0
  6
Continuous
 62
     7
370
    15
100
AcDbSpline
210
0.0
220
0.0
230
1.0
 70
     8
 71
     3
 72
    15
 73
    11
 74
     0
 42
0.000000001
 43
0.00000001
 40
0.0
 40
0.0
 40
0.0
 40
0.0
 40
0.1342983790141795
 40
0.2620849753822926
 40
0.3862699121344926
 40
0.5071645966228006
 40
0.6273002357254971
 40
0.7481449416029825
 40
0.8723701771613424
 40
1.0
 40
1.0
 40
1.0
 40
1.0
 10
186.5368589743589
 20
5.401327123397434
 30
0.0
 10
186.5047290714338
 20
5.365005491735686
 30
0.0
 10
186.4420271618575
 20
5.294123370821117
 30
0.0
 10
186.3373055762692
 20
5.201520257204486
 30
0.0
 10
186.2263001577433
 20
5.124977065521726
 30
0.0
 10
186.1095496735748
 20
5.063155356279237
 30
0.0
 10
185.9871595528264
 20
5.016716848030341
 30
0.0
 10
185.8594011022258
 20
4.983709403680511
 30
0.0
 10
185.7262222067264
 20
4.962487853202827
 30
0.0
 10
185.6352789991669
 20
4.960368747650208
 30
0.0
 10
185.5891927083333
 20
4.959294871794869
 30
0.0
  0
SPLINE
  5
CA
330
1F
100
AcDbEntity
  8
0
  6
Continuous
 62
     7
370
    15
100
AcDbSpline
210
0.0
220
0.0
230
1.0
 70
     8
 71
     3
 72
    23
 73
    19
 74
     0
 42
0.000000001
 43
0.00000001
 40
0.0
 40
0.0
 40
0.0
 40
0.0
 40
0.064619991340761
 40
0.1274334841444646
 40
0.1890041265579311
 40
0.2499300706860425
 40
0.3106684537406677
 40
0.3723289611368265
 40
0.4349391099970016
 40
0.4995755441940359
 40
0.5641912077719244
 40
0.6267352169294734
 40
0.6881093335614032
 40
0.7492936065367489
 40
0.810330527810947
 40
0.8719011702244153
 40
0.935045914684531
 40
0.9999999999999999
 40
0.9999999999999999
 40
0.9999999999999999
 40
0.9999999999999999
 10
185.5891927083333
 20
4.959294871794869
 30
0.0
 10
185.5482189216423
 20
4.960407366639029
 30
0.0
 10
185.4674168000654
 20
4.962601255730354
 30
0.0
 10
185.3485547086608
 20
4.979621345441218
 30
0.0
 10
185.2341710252287
 20
5.006954123645106
 30
0.0
 10
185.1241576628856
 20
5.044964216255488
 30
0.0
 10
185.0192265023845
 20
5.095383961598708
 30
0.0
 10
184.9184791289748
 20
5.155746379464833
 30
0.0
 10
184.8224374726431
 20
5.227629132466592
 30
0.0
 10
184.7325654337259
 20
5.309805415329545
 30
0.0
 10
184.649804976242
 20
5.399063725131825
 30
0.0
 10
184.5771779646491
 20
5.494264328368568
 30
0.0
 10
184.5166233850666
 20
5.59499556118546
 30
0.0
 10
184.4659865975677
 20
5.699982065070246
 30
0.0
 10
184.4269827708251
 20
5.810032027790386
 30
0.0
 10
184.3997924026054
 20
5.924764887278626
 30
0.0
 10
184.3827921402413
 20
6.044044986846912
 30
0.0
 10
184.3805991580485
 20
6.125270125655072
 30
0.0
 10
184.3794871794871
 20
6.166456330128202
 30
0.0
  0
SPLINE
  5
CB
330
1F
100
AcDbEntity
  8
0
  6
Continuous
 62
     7
370
    15
100
AcDbSpline
210
0.0
220
0.0
230
1.0
 70
     8
 71
     3
 72
    23
 73
    19
 74
     0
 42
0.000000001
 43
0.00000001
 40
0.0
 40
0.0
 40
0.0
 40
0.0
 40
0.0637745323056322
 40
0.1260788099895052
 40
0.1869040927472074
 40
0.2475739349176179
 40
0.3080033561644465
 40
0.3691318984609757
 40
0.4320332277442043
 40
0.496790794437088
 40
0.5616108232295588
 40
0.6249138657484558
 40
0.6867263492419242
 40
0.7480788332577681
 40
0.8095822911398951
 40
0.8716307425688212
 40
0.9348858208285478
 40
0.9999999999999999
 40
0.9999999999999999
 40
0.9999999999999999
 40
0.9999999999999999
 10
184.3794871794871
 20
6.166456330128202
 30
0.0
 10
184.3806238035291
 20
6.206791261223327
 30
0.0
 10
184.3828708479439
 20
6.286531244091579
 30
0.0
 10
184.3996105545133
 20
6.403805491550184
 30
0.0
 10
184.4277601123684
 20
6.51676134235819
 30
0.0
 10
184.4672642313224
 20
6.625035140854036
 30
0.0
 10
184.5179208618961
 20
6.728757900631674
 30
0.0
 10
184.5795413408365
 20
6.828002980466665
 30
0.0
 10
184.6521301182419
 20
6.923043791021499
 30
0.0
 10
184.735816230321
 20
7.011645546778539
 30
0.0
 10
184.8264713432542
 20
7.09348853258005
 30
0.0
 10
184.9234528348703
 20
7.164616738088572
 30
0.0
 10
185.0243482400685
 20
7.226045593800241
 30
0.0
 10
185.1307225424709
 20
7.27471696159244
 30
0.0
 10
185.2410012732665
 20
7.314095220714905
 30
0.0
 10
185.3561661847658
 20
7.341339413206094
 30
0.0
 10
185.4757381168501
 20
7.357393411759525
 30
0.0
 10
185.5569187775087
 20
7.359718204953724
 30
0.0
 10
185.5980969551282
 20
7.360897435897433
 30
0.0
  0
SPLINE
  5
CC
330
1F
100
AcDbEntity
  8
0
  6
Continuous
 62
     7
370
    15
100
AcDbSpline
210
0.0
220
0.0
230
1.0
 70
     8
 71
     3
 72
    15
 73
    11
 74
     0
 42
0.000000001
 43
0.00000001
 40
0.0
 40
0.0
 40
0.0
 40
0.0
 40
0.1298621417207362
 40
0.2546535308972849
 40
0.3760145541937065
 40
0.4952552518175966
 40
0.6147977192994417
 40
0.7381055541683285
 40
0.8651963000723482
 40
1.0
 40
1.0
 40
1.0
 40
1.0
 10
185.5980969551282
 20
7.360897435897433
 30
0.0
 10
185.645449684421
 20
7.35959318985589
 30
0.0
 10
185.7383061516889
 20
7.357035624924054
 30
0.0
 10
185.8741308458095
 20
7.335751579427547
 30
0.0
 10
186.0026226221935
 20
7.29979382707994
 30
0.0
 10
186.1247733558207
 20
7.2508829538729
 30
0.0
 10
186.2401444067782
 20
7.185887321062872
 30
0.0
 10
186.3476435425505
 20
7.10389978499144
 30
0.0
 10
186.4483958024083
 20
7.005437422525668
 30
0.0
 10
186.5067979241278
 20
6.929808519328589
 30
0.0
 10
186.5368589743589
 20
6.890880408653843
 30
0.0
  0
LINE
  5
CD
330
1F
100
AcDbEntity
  8
0
  6
Continuous
 62
     7
370
    15
100
AcDbLine
 10
181.1536057692
 20
5.0
 30
0.0
 11
181.112900641
 21
5.0
 31
0.0
  0
LINE
  5
CE
330
1F
100
AcDbEntity
  8
0
  6
Continuous
 62
     7
370
    15
100
AcDbLine
 10
181.112900641
 20
5.0
 30
0.0
 11
180.2682692308
 21
8.175
 31
0.0
  0
LINE
  5
CF
330
1F
100
AcDbEntity
  8
0
  6
Continuous
 62
     7
370
    15
100
AcDbLine
 10
180.2682692308
 20
8.175
 30
0.0
 11
180.5627453926
 21
8.175
 31
0.0
  0
LINE
  5
D0
330
1F
100
AcDbEntity
  8
0
  6
Continuous
 62
     7
370
    15
100
AcDbLine
 10
180.5627453926
 20
8.175
 30
0.0
 11
181.1841346154
 21
5.8465394631
 31
0.0
  0
LINE
  5
D1
330
1F
100
AcDbEntity
  8
0
  6
Continuous
 62
     7
370
    15
100
AcDbLine
 10
181.1841346154
 20
5.8465394631
 30
0.0
 11
182.1082682292
 21
8.175
 31
0.0
  0
LINE
  5
D2
330
1F
100
AcDbEntity
  8
0
  6
Continuous
 62
     7
370
    15
100
AcDbLine
 10
182.1082682292
 20
8.175
 30
0.0
 11
182.149609375
 21
8.175
 31
0.0
  0
LINE
  5
D3
330
1F
100
AcDbEntity
  8
0
  6
Continuous
 62
     7
370
    15
100
AcDbLine
 10
182.149609375
 20
8.175
 30
0.0
 11
183.0565705128
 21
5.8624399038
 31
0.0
  0
LINE
  5
D4
330
1F
100
AcDbEntity
  8
0
  6
Continuous
 62
     7
370
    15
100
AcDbLine
 10
183.0565705128
 20
5.8624399038
 30
0.0
 11
183.6811398237
 21
8.175
 31
0.0
  0
LINE
  5
D5
330
1F
100
AcDbEntity
  8
0
  6
Continuous
 62
     7
370
    15
100
AcDbLine
 10
183.6811398237
 20
8.175
 30
0.0
 11
183.9724358974
 21
8.175
 31
0.0
  0
LINE
  5
D6
330
1F
100
AcDbEntity
  8
0
  6
Continuous
 62
     7
370
    15
100
AcDbLine
 10
183.9724358974
 20
8.175
 30
0.0
 11
183.1163561699
 21
5.0
 31
0.0
  0
LINE
  5
D7
330
1F
100
AcDbEntity
  8
0
  6
Continuous
 62
     7
370
    15
100
AcDbLine
 10
183.1163561699
 20
5.0
 30
0.0
 11
183.0756510417
 21
5.0
 31
0.0
  0
LINE
  5
D8
330
1F
100
AcDbEntity
  8
0
  6
Continuous
 62
     7
370
    15
100
AcDbLine
 10
183.0756510417
 20
5.0
 30
0.0
 11
182.1203525641
 21
7.4283153045
 31
0.0
  0
LINE
  5
D9
330
1F
100
AcDbEntity
  8
0
  6
Continuous
 62
     7
370
    15
100
AcDbLine
 10
182.1203525641
 20
7.4283153045
 30
0.0
 11
181.1536057692
 21
5.0
 31
0.0
  0
SPLINE
  5
DA
330
1F
100
AcDbEntity
  8
0
  6
Continuous
 62
     7
370
    15
100
AcDbSpline
210
0.0
220
0.0
230
1.0
 70
     8
 71
     3
 72
    23
 73
    19
 74
     0
 42
0.000000001
 43
0.00000001
 40
0.0
 40
0.0
 40
0.0
 40
0.0
 40
0.0679784896192536
 40
0.1330435352439053
 40
0.1965074380533934
 40
0.2586134167685691
 40
0.3197283376065517
 40
0.3808728540495581
 40
0.4426356023162026
 40
0.5050793035048707
 40
0.5678805200585726
 40
0.6288138541554796
 40
0.6889100905404435
 40
0.7487650058898279
 40
0.8093857829631181
 40
0.8708843357532083
 40
0.9340374630736851
 40
1.0
 40
1.0
 40
1.0
 40
1.0
 10
170.7839743589743
 20
6.752228565705126
 30
0.0
 10
170.7844589504453
 20
6.773660176701216
 30
0.0
 10
170.7854073646101
 20
6.815604875809159
 30
0.0
 10
170.7929766113968
 20
6.877235091369883
 30
0.0
 10
170.806757663696
 20
6.935789488075438
 30
0.0
 10
170.8240432006249
 20
6.99214742809026
 30
0.0
 10
170.8480670689422
 20
7.045217184824478
 30
0.0
 10
170.8767744257521
 20
7.095706462116145
 30
0.0
 10
170.9105087326474
 20
7.143545473446898
 30
0.0
 10
170.9493737179168
 20
7.187998314698192
 30
0.0
 10
170.9921061746735
 20
7.228374632133985
 30
0.0
 10
171.0382750015048
 20
7.263570530365168
 30
0.0
 10
171.086841848546
 20
7.29360272364477
 30
0.0
 10
171.1380123434317
 20
7.318789690752522
 30
0.0
 10
171.1922780581918
 20
7.33784094496349
 30
0.0
 10
171.249259680083
 20
7.350955858561332
 30
0.0
 10
171.3088418705806
 20
7.359714506816428
 30
0.0
 10
171.3495736062742
 20
7.360497447571123
 30
0.0
 10
171.3703826121794
 20
7.360897435897433
 30
0.0
  0
SPLINE
  5
DB
330
1F
100
AcDbEntity
  8
0
  6
Continuous
 62
     7
370
    15
100
AcDbSpline
210
0.0
220
0.0
230
1.0
 70
     8
 71
     3
 72
    15
 73
    11
 74
     0
 42
0.000000001
 43
0.00000001
 40
0.0
 40
0.0
 40
0.0
 40
0.0
 40
0.1057142614175236
 40
0.2134116126389716
 40
0.3261267300734497
 40
0.4444516715568521
 40
0.5690610798550754
 40
0.7027122044812105
 40
0.8463179465861916
 40
1.0
 40
1.0
 40
1.0
 40
1.0
 10
171.3703826121794
 20
7.360897435897433
 30
0.0
 10
171.3950496983232
 20
7.359895641121951
 30
0.0
 10
171.4448465995405
 20
7.357873258940944
 30
0.0
 10
171.5195540103126
 20
7.341811668178067
 30
0.0
 10
171.5941513992063
 20
7.315383780887839
 30
0.0
 10
171.6688304381055
 20
7.278883769216588
 30
0.0
 10
171.7430440577605
 20
7.231651674668131
 30
0.0
 10
171.8174450634592
 20
7.174565810241155
 30
0.0
 10
171.8929266337938
 20
7.108001740650688
 30
0.0
 10
171.9400584321072
 20
7.057111729019705
 30
0.0
 10
171.964423076923
 20
7.030804286858972
 30
0.0
  0
LINE
  5
DC
330
1F
100
AcDbEntity
  8
0
  6
Continuous
 62
     7
370
    15
100
AcDbLine
 10
171.9644230769
 20
7.0308042869
 30
0.0
 11
171.7710737179
 21
6.8317307692
 31
0.0
  0
SPLINE
  5
DD
330
1F
100
AcDbEntity
  8
0
  6
Continuous
 62
     7
370
    15
100
AcDbSpline
210
0.0
220
0.0
230
1.0
 70
     8
 71
     3
 72
    15
 73
    11
 74
     0
 42
0.000000001
 43
0.00000001
 40
0.0
 40
0.0
 40
0.0
 40
0.0
 40
0.1582230975562946
 40
0.3050355053581552
 40
0.4413089638879047
 40
0.5659632271047437
 40
0.683525114415045
 40
0.7933341296296075
 40
0.898517512161031
 40
1.0
 40
1.0
 40
1.0
 40
1.0
 10
171.7710737179486
 20
6.831730769230767
 30
0.0
 10
171.754390904034
 20
6.851064837691607
 30
0.0
 10
171.722228402782
 20
6.888338645591131
 30
0.0
 10
171.671218416444
 20
6.938174413062139
 30
0.0
 10
171.6203970046301
 20
6.98002720767413
 30
0.0
 10
171.570459866603
 20
7.015362471113272
 30
0.0
 10
171.5201512939429
 20
7.042077054105716
 30
0.0
 10
171.4700616610656
 20
7.061575964580126
 30
0.0
 10
171.4201391054129
 20
7.073642602572352
 30
0.0
 10
171.3867689163247
 20
7.075197843387706
 30
0.0
 10
171.3703826121794
 20
7.075961538461536
 30
0.0
  0
SPLINE
  5
DE
330
1F
100
AcDbEntity
  8
0
  6
Continuous
 62
     7
370
    15
100
AcDbSpline
210
0.0
220
0.0
230
1.0
 70
     8
 71
     3
 72
    15
 73
    11
 74
     0
 42
0.000000001
 43
0.00000001
 40
0.0
 40
0.0
 40
0.0
 40
0.0
 40
0.1249584925460573
 40
0.2459006286062905
 40
0.3691660295860963
 40
0.4985108411773664
 40
0.6285038663666076
 40
0.7510283288509991
 40
0.8737241742784349
 40
1.0
 40
1.0
 40
1.0
 40
1.0
 10
171.3703826121794
 20
7.075961538461536
 30
0.0
 10
171.350299022823
 20
7.074986475117474
 30
0.0
 10
171.3107773612952
 20
7.073067688451991
 30
0.0
 10
171.2541482260926
 20
7.053914790934023
 30
0.0
 10
171.2015787305406
 20
7.024515435331084
 30
0.0
 10
171.1560791843921
 20
6.982815363106012
 30
0.0
 10
171.1175367889442
 20
6.934950633526267
 30
0.0
 10
171.0894029497347
 20
6.881432538808296
 30
0.0
 10
171.0721980931566
 20
6.823876099160418
 30
0.0
 10
171.0700166576613
 20
6.783934728275546
 30
0.0
 10
171.0689102564102
 20
6.763676883012818
 30
0.0
  0
SPLINE
  5
DF
330
1F
100
AcDbEntity
  8
0
  6
Continuous
 62
     7
370
    15
100
AcDbSpline
210
0.0
220
0.0
230
1.0
 70
     8
 71
     3
 72
    11
 73
     7
 74
     0
 42
0.000000001
 43
0.00000001
 40
0.0
 40
0.0
 40
0.0
 40
0.0
 40
0.2400399314959816
 40
0.4794031936060911
 40
0.7317567388575391
 40
1.0
 40
1.0
 40
1.0
 40
1.0
 10
171.0689102564102
 20
6.763676883012818
 30
0.0
 10
171.0699179218223
 20
6.745341671532401
 30
0.0
 10
171.0719304120512
 20
6.708722935289754
 30
0.0
 10
171.0875756139071
 20
6.654704361734422
 30
0.0
 10
171.1124912650986
 20
6.602038334230977
 30
0.0
 10
171.1357777984836
 20
6.569777697753269
 30
0.0
 10
171.1477764423076
 20
6.553155048076921
 30
0.0
  0
SPLINE
  5
E0
330
1F
100
AcDbEntity
  8
0
  6
Continuous
 62
     7
370
    15
100
AcDbSpline
210
0.0
220
0.0
230
1.0
 70
     8
 71
     3
 72
    15
 73
    11
 74
     0
 42
0.000000001
 43
0.00000001
 40
0.0
 40
0.0
 40
0.0
 40
0.0
 40
0.0834251049856371
 40
0.1775598214659387
 40
0.2839823599504449
 40
0.4022167468072059
 40
0.5335684803800526
 40
0.6761209941988388
 40
0.8316493725539897
 40
1.0
 40
1.0
 40
1.0
 40
1.0
 10
171.1477764423076
 20
6.553155048076921
 30
0.0
 10
171.1550004688005
 20
6.544279032289095
 30
0.0
 10
171.1703758987093
 20
6.525387551374724
 30
0.0
 10
171.1992307658668
 20
6.499167627203063
 30
0.0
 10
171.231908322033
 20
6.470191442389894
 30
0.0
 10
171.2712056941187
 20
6.441220168845077
 30
0.0
 10
171.315429840842
 20
6.410711389550775
 30
0.0
 10
171.3655397629503
 20
6.379866597495238
 30
0.0
 10
171.4199452067454
 20
6.346334583489391
 30
0.0
 10
171.4588954777477
 20
6.325067131246114
 30
0.0
 10
171.4791416266025
 20
6.314012419871792
 30
0.0
  0
SPLINE
  5
E1
330
1F
100
AcDbEntity
  8
0
  6
Continuous
 62
     7
370
    15
100
AcDbSpline
210
0.0
220
0.0
230
1.0
 70
     8
 71
     3
 72
    15
 73
    11
 74
     0
 42
0.000000001
 43
0.00000001
 40
0.0
 40
0.0
 40
0.0
 40
0.0
 40
0.1589891012268005
 40
0.3071145916055753
 40
0.446213158596206
 40
0.5748760724117438
 40
0.6941521095829494
 40
0.8045811801532385
 40
0.906593319045767
 40
1.0
 40
1.0
 40
1.0
 40
1.0
 10
171.4791416266025
 20
6.314012419871792
 30
0.0
 10
171.5038282286835
 20
6.30018311517612
 30
0.0
 10
171.5515146150944
 20
6.273469452220431
 30
0.0
 10
171.6192716253903
 20
6.232004221179612
 30
0.0
 10
171.680764155414
 20
6.190791429160041
 30
0.0
 10
171.7365132253524
 20
6.150271830713937
 30
0.0
 10
171.7854461519447
 20
6.109311729375822
 30
0.0
 10
171.8290475675645
 20
6.069481121263993
 30
0.0
 10
171.8662299416976
 20
6.029576534463548
 30
0.0
 10
171.8870524323355
 20
6.001697209910905
 30
0.0
 10
171.8970052083333
 20
5.988371394230767
 30
0.0
  0
SPLINE
  5
E2
330
1F
100
AcDbEntity
  8
0
  6
Continuous
 62
     7
370
    15
100
AcDbSpline
210
0.0
220
0.0
230
1.0
 70
     8
 71
     3
 72
    11
 73
     7
 74
     0
 42
0.000000001
 43
0.00000001
 40
0.0
 40
0.0
 40
0.0
 40
0.0
 40
0.2488386141270928
 40
0.4952350254576713
 40
0.7433356038750085
 40
1.0
 40
1.0
 40
1.0
 40
1.0
 10
171.8970052083333
 20
5.988371394230767
 30
0.0
 10
171.9135247581999
 20
5.961460014356379
 30
0.0
 10
171.9464017283898
 20
5.907901373773421
 30
0.0
 10
171.9809260129606
 20
5.819710371735988
 30
0.0
 10
172.0009378337109
 20
5.726174415953673
 30
0.0
 10
172.0037157049137
 20
5.662191616276389
 30
0.0
 10
172.0051282051281
 20
5.629657451923074
 30
0.0
  0
SPLINE
  5
E3
330
1F
100
AcDbEntity
  8
0
  6
Continuous
 62
     7
370
    15
100
AcDbSpline
210
0.0
220
0.0
230
1.0
 70
     8
 71
     3
 72
    23
 73
    19
 74
     0
 42
0.000000001
 43
0.00000001
 40
0.0
 40
0.0
 40
0.0
 40
0.0
 40
0.0645481255642519
 40
0.1271991327555133
 40
0.1885973380874271
 40
0.2486395150940182
 40
0.3095246994640546
 40
0.3700369910533546
 40
0.4318892436070759
 40
0.4957042857252937
 40
0.5595193278435191
 40
0.6213715803972432
 40
0.682397107291657
 40
0.7435684819321835
 40
0.8054984835712246
 40
0.8686397008205408
 40
0.9330662250811784
 40
1.0
 40
1.0
 40
1.0
 40
1.0
 10
172.0051282051281
 20
5.629657451923074
 30
0.0
 10
172.004475485167
 20
5.606734726400991
 30
0.0
 10
172.0031892291795
 20
5.561562991647836
 30
0.0
 10
171.9942465541716
 20
5.495037824704762
 30
0.0
 10
171.978865968507
 20
5.43141576179675
 30
0.0
 10
171.9579166345603
 20
5.370006467817499
 30
0.0
 10
171.9296279534261
 20
5.311986572593088
 30
0.0
 10
171.896473880296
 20
5.255892261011449
 30
0.0
 10
171.8566730675071
 20
5.202936952366795
 30
0.0
 10
171.8112330339118
 20
5.153190181348273
 30
0.0
 10
171.7614803358023
 20
5.10775525333126
 30
0.0
 10
171.7084069102958
 20
5.067819238038356
 30
0.0
 10
171.6519473996713
 20
5.034641089293473
 30
0.0
 10
171.5925052298095
 20
5.007186097537396
 30
0.0
 10
171.5299453436152
 20
4.985352749257471
 30
0.0
 10
171.4642579597623
 20
4.970237453048684
 30
0.0
 10
171.3956518752581
 20
4.961190734056101
 30
0.0
 10
171.3489976921678
 20
4.959934816374389
 30
0.0
 10
171.3252253605769
 20
4.959294871794869
 30
0.0
  0
SPLINE
  5
E4
330
1F
100
AcDbEntity
  8
0
  6
Continuous
 62
     7
370
    15
100
AcDbSpline
210
0.0
220
0.0
230
1.0
 70
     8
 71
     3
 72
    15
 73
    11
 74
     0
 42
0.000000001
 43
0.00000001
 40
0.0
 40
0.0
 40
0.0
 40
0.0
 40
0.1267425189618462
 40
0.2517239612496193
 40
0.3772186880262417
 40
0.5046935492516225
 40
0.6314582385934971
 40
0.7554010672029496
 40
0.8777005336014617
 40
1.0
 40
1.0
 40
1.0
 40
1.0
 10
171.3252253605769
 20
4.959294871794869
 30
0.0
 10
171.293142280001
 20
4.960195392804478
 30
0.0
 10
171.2294219105638
 20
4.961983922159772
 30
0.0
 10
171.1351790939075
 20
4.978771563358304
 30
0.0
 10
171.0430852628331
 20
5.004893099314602
 30
0.0
 10
170.9538373369838
 20
5.040921125300899
 30
0.0
 10
170.8694312193844
 20
5.086414986249987
 30
0.0
 10
170.7922053092107
 20
5.140900157574671
 30
0.0
 10
170.7218913396927
 20
5.202576798076766
 30
0.0
 10
170.6818697628035
 20
5.249850652777724
 30
0.0
 10
170.6618589743589
 20
5.273487580128203
 30
0.0
  0
LINE
  5
E5
330
1F
100
AcDbEntity
  8
0
  6
Continuous
 62
     7
370
    15
100
AcDbLine
 10
170.6618589744
 20
5.2734875801
 30
0.0
 11
170.8507562099
 21
5.4884615385
 31
0.0
  0
SPLINE
  5
E6
330
1F
100
AcDbEntity
  8
0
  6
Continuous
 62
     7
370
    15
100
AcDbSpline
210
0.0
220
0.0
230
1.0
 70
     8
 71
     3
 72
    15
 73
    11
 74
     0
 42
0.000000001
 43
0.00000001
 40
0.0
 40
0.0
 40
0.0
 40
0.0
 40
0.1474758177483448
 40
0.2859041715443824
 40
0.4171716482444169
 40
0.5405007435864904
 40
0.6592377183802413
 40
0.7750060983159592
 40
0.8872285734285908
 40
1.0
 40
1.0
 40
1.0
 40
1.0
 10
170.8507562099358
 20
5.488461538461536
 30
0.0
 10
170.8686926131359
 20
5.469089716354169
 30
0.0
 10
170.9034650427836
 20
5.43153451011444
 30
0.0
 10
170.9590740037355
 20
5.381528858219646
 30
0.0
 10
171.0156610318789
 20
5.339617705121301
 30
0.0
 10
171.0726610689857
 20
5.304562607417152
 30
0.0
 10
171.1309178688363
 20
5.277552063124234
 30
0.0
 10
171.1901049617482
 20
5.258575910077654
 30
0.0
 10
171.2501019607183
 20
5.246380107130351
 30
0.0
 10
171.2903991839263
 20
5.24494837959762
 30
0.0
 10
171.3105969551281
 20
5.244230769230767
 30
0.0
  0
SPLINE
  5
E7
330
1F
100
AcDbEntity
  8
0
  6
Continuous
 62
     7
370
    15
100
AcDbSpline
210
0.0
220
0.0
230
1.0
 70
     8
 71
     3
 72
    15
 73
    11
 74
     0
 42
0.000000001
 43
0.00000001
 40
0.0
 40
0.0
 40
0.0
 40
0.0
 40
0.1340420464623707
 40
0.2618956736507242
 40
0.3878360446910996
 40
0.5176862058208266
 40
0.6445086536782142
 40
0.7647182630567263
 40
0.8802907821585007
 40
1.0
 40
1.0
 40
1.0
 40
1.0
 10
171.3105969551282
 20
5.244230769230768
 30
0.0
 10
171.3380996451044
 20
5.245474303211092
 30
0.0
 10
171.3918352878272
 20
5.247903960009686
 30
0.0
 10
171.468800697427
 20
5.269963036351022
 30
0.0
 10
171.5398650228499
 20
5.304552349792329
 30
0.0
 10
171.6015719148563
 20
5.353614897408998
 30
0.0
 10
171.6540974466819
 20
5.410724595410136
 30
0.0
 10
171.6921322906089
 20
5.475053832204025
 30
0.0
 10
171.7159685354913
 20
5.54471465362925
 30
0.0
 10
171.7187679771291
 20
5.59300395671942
 30
0.0
 10
171.7201923076923
 20
5.617573116987177
 30
0.0
  0
SPLINE
  5
E8
330
1F
100
AcDbEntity
  8
0
  6
Continuous
 62
     7
370
    15
100
AcDbSpline
210
0.0
220
0.0
230
1.0
 70
     8
 71
     3
 72
    11
 73
     7
 74
     0
 42
0.000000001
 43
0.00000001
 40
0.0
 40
0.0
 40
0.0
 40
0.0
 40
0.2534754346498636
 40
0.5004533151028979
 40
0.7455781350009623
 40
1.0
 40
1.0
 40
1.0
 40
1.0
 10
171.7201923076923
 20
5.617573116987177
 30
0.0
 10
171.719206883542
 20
5.637811128202067
 30
0.0
 10
171.7172612954678
 20
5.67776837225442
 30
0.0
 10
171.7019820415782
 20
5.735599038773024
 30
0.0
 10
171.6778403827424
 20
5.790453314820612
 30
0.0
 10
171.6540690231643
 20
5.82255678053277
 30
0.0
 10
171.641962139423
 20
5.838907251602562
 30
0.0
  0
SPLINE
  5
E9
330
1F
100
AcDbEntity
  8
0
  6
Continuous
 62
     7
370
    15
100
AcDbSpline
210
0.0
220
0.0
230
1.0
 70
     8
 71
     3
 72
    15
 73
    11
 74
     0
 42
0.000000001
 43
0.00000001
 40
0.0
 40
0.0
 40
0.0
 40
0.0
 40
0.0768750740350495
 40
0.1674616757257369
 40
0.2722700232466165
 40
0.3895508405125279
 40
0.520801368348045
 40
0.6662632933752073
 40
0.8255449152058482
 40
1.0
 40
1.0
 40
1.0
 40
1.0
 10
171.641962139423
 20
5.838907251602562
 30
0.0
 10
171.6346846816211
 20
5.847103615840233
 30
0.0
 10
171.6188317501756
 20
5.864958257378179
 30
0.0
 10
171.5897530670275
 20
5.890743864631215
 30
0.0
 10
171.5549352348883
 20
5.918536997434583
 30
0.0
 10
171.5139866585139
 20
5.947866367400417
 30
0.0
 10
171.4668247894706
 20
5.978345102201163
 30
0.0
 10
171.4132584796527
 20
6.009813300313234
 30
0.0
 10
171.354021549841
 20
6.043765594421322
 30
0.0
 10
171.3121381914312
 20
6.066280567482739
 30
0.0
 10
171.2902443910256
 20
6.07804987980769
 30
0.0
  0
SPLINE
  5
EA
330
1F
100
AcDbEntity
  8
0
  6
Continuous
 62
     7
370
    15
100
AcDbSpline
210
0.0
220
0.0
230
1.0
 70
     8
 71
     3
 72
    15
 73
    11
 74
     0
 42
0.000000001
 43
0.00000001
 40
0.0
 40
0.0
 40
0.0
 40
0.0
 40
0.1577616635135723
 40
0.3059502132085292
 40
0.4437754990007189
 40
0.5728243624015233
 40
0.6921541564432542
 40
0.8022957069908392
 40
0.9055643918329922
 40
1.0
 40
1.0
 40
1.0
 40
1.0
 10
171.2902443910256
 20
6.07804987980769
 30
0.0
 10
171.2666163675613
 20
6.091238949245997
 30
0.0
 10
171.2207940894767
 20
6.116816764012925
 30
0.0
 10
171.1558904755562
 20
6.156654922533
 30
0.0
 10
171.0973368042293
 20
6.197174521707149
 30
0.0
 10
171.0437241401616
 20
6.236102597312318
 30
0.0
 10
170.99640665644
 20
6.2754915964647
 30
0.0
 10
170.9555707604776
 20
6.315385246010191
 30
0.0
 10
170.9196087004018
 20
6.354174661953551
 30
0.0
 10
170.8996992626171
 20
6.381658638168358
 30
0.0
 10
170.8901893028846
 20
6.394786658653843
 30
0.0
  0
SPLINE
  5
EB
330
1F
100
AcDbEntity
  8
0
  6
Continuous
 62
     7
370
    15
100
AcDbSpline
210
0.0
220
0.0
230
1.0
 70
     8
 71
     3
 72
    11
 73
     7
 74
     0
 42
0.000000001
 43
0.00000001
 40
0.0
 40
0.0
 40
0.0
 40
0.0
 40
0.2462523706929746
 40
0.4925907964763823
 40
0.740569991118088
 40
1.0
 40
1.0
 40
1.0
 40
1.0
 10
170.8901893028846
 20
6.394786658653843
 30
0.0
 10
170.8737422589106
 20
6.421225895150503
 30
0.0
 10
170.8408424233963
 20
6.474113607571167
 30
0.0
 10
170.8088972142561
 20
6.562388111463838
 30
0.0
 10
170.7869388880605
 20
6.655320413469728
 30
0.0
 10
170.7849772912641
 20
6.719443488483666
 30
0.0
 10
170.7839743589743
 20
6.752228565705126
 30
0.0
  0
SPLINE
  5
EC
330
1F
100
AcDbEntity
  8
0
  6
Continuous
 62
     7
370
    15
100
AcDbSpline
210
0.0
220
0.0
230
1.0
 70
     8
 71
     3
 72
    15
 73
    11
 74
     0
 42
0.000000001
 43
0.00000001
 40
0.0
 40
0.0
 40
0.0
 40
0.0
 40
0.1318667517023365
 40
0.2566614034533454
 40
0.3842132129424829
 40
0.5133652331525987
 40
0.6404431518253852
 40
0.7610850047778731
 40
0.8791455246531562
 40
0.9999999999999999
 40
0.9999999999999999
 40
0.9999999999999999
 40
0.9999999999999999
 10
172.6754907852564
 20
7.808653846153844
 30
0.0
 10
172.6580117070694
 20
7.809442806640657
 30
0.0
 10
172.6239909650656
 20
7.810978415148491
 30
0.0
 10
172.5746724723695
 20
7.825102645523589
 30
0.0
 10
172.5294709141342
 20
7.848158654693337
 30
0.0
 10
172.4889536753655
 20
7.879206694029694
 30
0.0
 10
172.4551805715957
 20
7.91634956508805
 30
0.0
 10
172.4305985192716
 20
7.958375038801294
 30
0.0
 10
172.4151090895612
 20
8.003921914776178
 30
0.0
 10
172.4131636050321
 20
8.0355922370709
 30
0.0
 10
172.4121794871795
 20
8.051612580128202
 30
0.0
  0
SPLINE
  5
ED
330
1F
100
AcDbEntity
  8
0
  6
Continuous
 62
     7
370
    15
100
AcDbSpline
210
0.0
220
0.0
230
1.0
 70
     8
 71
     3
 72
    15
 73
    11
 74
     0
 42
0.000000001
 43
0.00000001
 40
0.0
 40
0.0
 40
0.0
 40
0.0
 40
0.1232898687278052
 40
0.2421490813339834
 40
0.363437476053736
 40
0.4897453933413616
 40
0.6181148445930248
 40
0.7448937812572674
 40
0.8689322665891803
 40
1.0
 40
1.0
 40
1.0
 40
1.0
 10
172.4121794871795
 20
8.051612580128202
 30
0.0
 10
172.4131420443247
 20
8.068059850839246
 30
0.0
 10
172.415032567292
 20
8.10036332828007
 30
0.0
 10
172.430610129789
 20
8.146713822425008
 30
0.0
 10
172.4549758125444
 20
8.189332756203584
 30
0.0
 10
172.4889760380356
 20
8.226548744968566
 30
0.0
 10
172.5294649627094
 20
8.257614246509082
 30
0.0
 10
172.5746740101106
 20
8.280665636871774
 30
0.0
 10
172.6239905588325
 20
8.294791066157666
 30
0.0
 10
172.6580115691936
 20
8.296326509160995
 30
0.0
 10
172.6754907852564
 20
8.297115384615381
 30
0.0
  0
SPLINE
  5
EE
330
1F
100
AcDbEntity
  8
0
  6
Continuous
 62
     7
370
    15
100
AcDbSpline
210
0.0
220
0.0
230
1.0
 70
     8
 71
     3
 72
    15
 73
    11
 74
     0
 42
0.000000001
 43
0.00000001
 40
0.0
 40
0.0
 40
0.0
 40
0.0
 40
0.1318992643310722
 40
0.258284092316994
 40
0.3843411247791204
 40
0.5119796151257059
 40
0.6386320084211534
 40
0.7592297631645828
 40
0.8774121680351996
 40
1.0
 40
1.0
 40
1.0
 40
1.0
 10
172.6754907852564
 20
8.297115384615381
 30
0.0
 10
172.6931721931499
 20
8.296295189227823
 30
0.0
 10
172.7277957857213
 20
8.294689089131113
 30
0.0
 10
172.7778639642562
 20
8.28093546349551
 30
0.0
 10
172.8234542537817
 20
8.257622177413719
 30
0.0
 10
172.8638926257603
 20
8.226344181168173
 30
0.0
 10
172.8985925515352
 20
8.189560043173019
 30
0.0
 10
172.9228864816615
 20
8.146687593362326
 30
0.0
 10
172.9385005838517
 20
8.100370113889577
 30
0.0
 10
172.940386130425
 20
8.06806214013245
 30
0.0
 10
172.9413461538462
 20
8.051612580128204
 30
0.0
  0
SPLINE
  5
EF
330
1F
100
AcDbEntity
  8
0
  6
Continuous
 62
     7
370
    15
100
AcDbSpline
210
0.0
220
0.0
230
1.0
 70
     8
 71
     3
 72
    15
 73
    11
 74
     0
 42
0.000000001
 43
0.00000001
 40
0.0
 40
0.0
 40
0.0
 40
0.0
 40
0.1201621349925913
 40
0.237546320276879
 40
0.3574970509273497
 40
0.484917122465278
 40
0.6133292680851088
 40
0.7401503701286692
 40
0.8673012545632689
 40
1.0
 40
1.0
 40
1.0
 40
1.0
 10
172.9413461538462
 20
8.051612580128204
 30
0.0
 10
172.9403644802908
 20
8.035590030473008
 30
0.0
 10
172.938423827848
 20
8.003915345995402
 30
0.0
 10
172.9228985420771
 20
7.958400839205003
 30
0.0
 10
172.8983855120343
 20
7.916124096330799
 30
0.0
 10
172.8639148766449
 20
7.879411380638267
 30
0.0
 10
172.823448357736
 20
7.848150675361143
 30
0.0
 10
172.777865530572
 20
7.824832805068729
 30
0.0
 10
172.7277953737052
 20
7.811080394744116
 30
0.0
 10
172.6931720538702
 20
7.809474127102447
 30
0.0
 10
172.6754907852564
 20
7.808653846153844
 30
0.0
  0
LINE
  5
F0
330
1F
100
AcDbEntity
  8
0
  6
Continuous
 62
     7
370
    15
100
AcDbLine
 10
172.8192307692
 20
5.0
 30
0.0
 11
172.5342948718
 21
5.0
 31
0.0
  0
LINE
  5
F1
330
1F
100
AcDbEntity
  8
0
  6
Continuous
 62
     7
370
    15
100
AcDbLine
 10
172.5342948718
 20
5.0
 30
0.0
 11
172.5342948718
 21
7.3201923077
 31
0.0
  0
LINE
  5
F2
330
1F
100
AcDbEntity
  8
0
  6
Continuous
 62
     7
370
    15
100
AcDbLine
 10
172.5342948718
 20
7.3201923077
 30
0.0
 11
172.8192307692
 21
7.3201923077
 31
0.0
  0
LINE
  5
F3
330
1F
100
AcDbEntity
  8
0
  6
Continuous
 62
     7
370
    15
100
AcDbLine
 10
172.8192307692
 20
7.3201923077
 30
0.0
 11
172.8192307692
 21
5.0
 31
0.0
  0
LINE
  5
F4
330
1F
100
AcDbEntity
  8
0
  6
Continuous
 62
     7
370
    15
100
AcDbLine
 10
173.7961538462
 20
5.0
 30
0.0
 11
173.5112179487
 21
5.0
 31
0.0
  0
LINE
  5
F5
330
1F
100
AcDbEntity
  8
0
  6
Continuous
 62
     7
370
    15
100
AcDbLine
 10
173.5112179487
 20
5.0
 30
0.0
 11
173.5112179487
 21
7.3201923077
 31
0.0
  0
LINE
  5
F6
330
1F
100
AcDbEntity
  8
0
  6
Continuous
 62
     7
370
    15
100
AcDbLine
 10
173.5112179487
 20
7.3201923077
 30
0.0
 11
173.7961538462
 21
7.3201923077
 31
0.0
  0
LINE
  5
F7
330
1F
100
AcDbEntity
  8
0
  6
Continuous
 62
     7
370
    15
100
AcDbLine
 10
173.7961538462
 20
7.3201923077
 30
0.0
 11
173.7961538462
 21
6.9016927083
 31
0.0
  0
SPLINE
  5
F8
330
1F
100
AcDbEntity
  8
0
  6
Continuous
 62
     7
370
    15
100
AcDbSpline
210
0.0
220
0.0
230
1.0
 70
     8
 71
     3
 72
    15
 73
    11
 74
     0
 42
0.000000001
 43
0.00000001
 40
0.0
 40
0.0
 40
0.0
 40
0.0
 40
0.1409759662687777
 40
0.2735687809631717
 40
0.3989883138042586
 40
0.519929781392423
 40
0.6381100215247323
 40
0.756588900740586
 40
0.8768597544106109
 40
1.0
 40
1.0
 40
1.0
 40
1.0
 10
173.7961538461538
 20
6.90169270833333
 30
0.0
 10
173.8265772723094
 20
6.93965003547889
 30
0.0
 10
173.8856149921874
 20
7.013307553073297
 30
0.0
 10
173.9839350659444
 20
7.110118359995667
 30
0.0
 10
174.0878427469512
 20
7.18989724271485
 30
0.0
 10
174.1967017072575
 20
7.253491398650065
 30
0.0
 10
174.3106597235624
 20
7.301430838084924
 30
0.0
 10
174.4290221541718
 20
7.336052789855494
 30
0.0
 10
174.5524976375515
 20
7.356812598602151
 30
0.0
 10
174.6364668052867
 20
7.359525164659575
 30
0.0
 10
174.6789463141026
 20
7.360897435897434
 30
0.0
  0
SPLINE
  5
F9
330
1F
100
AcDbEntity
  8
0
  6
Continuous
 62
     7
370
    15
100
AcDbSpline
210
0.0
220
0.0
230
1.0
 70
     8
 71
     3
 72
    23
 73
    19
 74
     0
 42
0.000000001
 43
0.00000001
 40
0.0
 40
0.0
 40
0.0
 40
0.0
 40
0.0772404236164749
 40
0.1511781404663758
 40
0.2234879838003895
 40
0.2955426441988721
 40
0.3669762546197815
 40
0.4371305254863775
 40
0.5070436156432686
 40
0.5785597335236745
 40
0.6166135446965495
 40
0.6587562369775272
 40
0.7044912261144022
 40
0.7548031149051482
 40
0.809331625318564
 40
0.8682744554728196
 40
0.9320728834092934
 40
1.0
 40
1.0
 40
1.0
 40
1.0
 10
174.6789463141025
 20
7.360897435897433
 30
0.0
 10
174.7218819607654
 20
7.359314294318636
 30
0.0
 10
174.8059173779512
 20
7.356215704373481
 30
0.0
 10
174.9282710479192
 20
7.331707706008459
 30
0.0
 10
175.0425469121922
 20
7.289847367431087
 30
0.0
 10
175.1483375092284
 20
7.232504989279769
 30
0.0
 10
175.2437029099218
 20
7.161197688406304
 30
0.0
 10
175.3274547394751
 20
7.078123557810495
 30
0.0
 10
175.396727113882
 20
6.982568682303928
 30
0.0
 10
175.4431704360316
 20
6.893919819146426
 30
0.0
 10
175.4737644164371
 20
6.81528069862753
 30
0.0
 10
175.4930251797532
 20
6.747928289609296
 30
0.0
 10
175.5093818557913
 20
6.672891109620201
 30
0.0
 10
175.5235620843502
 20
6.590395910978002
 30
0.0
 10
175.53315703583
 20
6.499864695534788
 30
0.0
 10
175.5407246860048
 20
6.401668574886783
 30
0.0
 10
175.5461482158235
 20
6.295839356508647
 30
0.0
 10
175.5463633964472
 20
6.222645058786825
 30
0.0
 10
175.5464743589743
 20
6.184900841346151
 30
0.0
  0
LINE
  5
FA
330
1F
100
AcDbEntity
  8
0
  6
Continuous
 62
     7
370
    15
100
AcDbLine
 10
175.546474359
 20
6.1849008413
 30
0.0
 11
175.546474359
 21
5.0
 31
0.0
  0
LINE
  5
FB
330
1F
100
AcDbEntity
  8
0
  6
Continuous
 62
     7
370
    15
100
AcDbLine
 10
175.546474359
 20
5.0
 30
0.0
 11
175.2615384615
 21
5.0
 31
0.0
  0
LINE
  5
FC
330
1F
100
AcDbEntity
  8
0
  6
Continuous
 62
     7
370
    15
100
AcDbLine
 10
175.2615384615
 20
5.0
 30
0.0
 11
175.2615384615
 21
6.09140625
 31
0.0
  0
SPLINE
  5
FD
330
1F
100
AcDbEntity
  8
0
  6
Continuous
 62
     7
370
    15
100
AcDbSpline
210
0.0
220
0.0
230
1.0
 70
     8
 71
     3
 72
    15
 73
    11
 74
     0
 42
0.000000001
 43
0.00000001
 40
0.0
 40
0.0
 40
0.0
 40
0.0
 40
0.1788500194111603
 40
0.3421096489422994
 40
0.4898256633683922
 40
0.6232544282245632
 40
0.7400796760857921
 40
0.8414826730699866
 40
0.9289076721840666
 40
0.9999999999999999
 40
0.9999999999999999
 40
0.9999999999999999
 40
0.9999999999999999
 10
175.2615384615384
 20
6.091406249999997
 30
0.0
 10
175.2613631942641
 20
6.122995182185369
 30
0.0
 10
175.2610279377968
 20
6.183419433387468
 30
0.0
 10
175.259970529733
 20
6.26993276156728
 30
0.0
 10
175.2574216337431
 20
6.348388443404086
 30
0.0
 10
175.2538399498836
 20
6.418598912407576
 30
0.0
 10
175.2485975436177
 20
6.480496749861473
 30
0.0
 10
175.2431341566074
 20
6.534208022331401
 30
0.0
 10
175.236453070513
 20
6.579664535824024
 30
0.0
 10
175.2304995707386
 20
6.607028574843008
 30
0.0
 10
175.2278295272436
 20
6.619300881410254
 30
0.0
  0
SPLINE
  5
FE
330
1F
100
AcDbEntity
  8
0
  6
Continuous
 62
     7
370
    15
100
AcDbSpline
210
0.0
220
0.0
230
1.0
 70
     8
 71
     3
 72
    15
 73
    11
 74
     0
 42
0.000000001
 43
0.00000001
 40
0.0
 40
0.0
 40
0.0
 40
0.0
 40
0.1355195283706031
 40
0.2608331631936759
 40
0.3784760291245067
 40
0.4931776464746733
 40
0.6092809649289375
 40
0.7299810378566298
 40
0.8592613089300506
 40
1.0
 40
1.0
 40
1.0
 40
1.0
 10
175.2278295272436
 20
6.619300881410254
 30
0.0
 10
175.2181906522342
 20
6.655324599184191
 30
0.0
 10
175.1996388000507
 20
6.724659110379338
 30
0.0
 10
175.1537972582159
 20
6.818706558828799
 30
0.0
 10
175.0959086799301
 20
6.898714914931079
 30
0.0
 10
175.0252442022917
 20
6.964189512404647
 30
0.0
 10
174.9424863979608
 20
7.015144485701327
 30
0.0
 10
174.8478649184501
 20
7.050499430346592
 30
0.0
 10
174.7422928658401
 20
7.072612188834175
 30
0.0
 10
174.668039247272
 20
7.074813944305218
 30
0.0
 10
174.6293369391025
 20
7.075961538461536
 30
0.0
  0
SPLINE
  5
FF
330
1F
100
AcDbEntity
  8
0
  6
Continuous
 62
     7
370
    15
100
AcDbSpline
210
0.0
220
0.0
230
1.0
 70
     8
 71
     3
 72
    23
 73
    19
 74
     0
 42
0.000000001
 43
0.00000001
 40
0.0
 40
0.0
 40
0.0
 40
0.0
 40
0.0639861098164609
 40
0.1266268580894718
 40
0.1889843719814867
 40
0.2502301939603864
 40
0.312351162962327
 40
0.3745736184579436
 40
0.4381475308782137
 40
0.5029204126073689
 40
0.5679740951402685
 40
0.6307713337491978
 40
0.6929346089254531
 40
0.7543975343123358
 40
0.8152183520172952
 40
0.8761169254810911
 40
0.9380146047939499
 40
1.0
 40
1.0
 40
1.0
 40
1.0
 10
174.6293369391025
 20
7.075961538461536
 30
0.0
 10
174.6064155404038
 20
7.07552973423104
 30
0.0
 10
174.5610546846094
 20
7.074675204815603
 30
0.0
 10
174.4937900672374
 20
7.066101527323319
 30
0.0
 10
174.4285445672831
 20
7.052078499744811
 30
0.0
 10
174.364663377695
 20
7.033147664299145
 30
0.0
 10
174.3034241648068
 20
7.007146891504292
 30
0.0
 10
174.2428594149504
 20
6.977638105657403
 30
0.0
 10
174.1852497074898
 20
6.940855084785005
 30
0.0
 10
174.129366625809
 20
6.899860735336073
 30
0.0
 10
174.0773757217236
 20
6.854431740235395
 30
0.0
 10
174.0289993004511
 20
6.806494220311014
 30
0.0
 10
173.9858755249376
 20
6.75544420829596
 30
0.0
 10
173.9468060837874
 20
6.702104255894619
 30
0.0
 10
173.9130800877234
 20
6.645741802854368
 30
0.0
 10
173.8836405006955
 20
6.586900610548611
 30
0.0
 10
173.8586616918487
 20
6.52550323268695
 30
0.0
 10
173.8462495351082
 20
6.482890141427625
 30
0.0
 10
173.8400390625
 20
6.461568509615382
 30
0.0
  0
SPLINE
  5
100
330
1F
100
AcDbEntity
  8
0
  6
Continuous
 62
     7
370
    15
100
AcDbSpline
210
0.0
220
0.0
230
1.0
 70
     8
 71
     3
 72
    15
 73
    11
 74
     0
 42
0.000000001
 43
0.00000001
 40
0.0
 40
0.0
 40
0.0
 40
0.0
 40
0.0769954547170535
 40
0.1676150771831752
 40
0.2710523936342355
 40
0.3894595025720755
 40
0.5208428024655765
 40
0.6663987586080743
 40
0.8260936125153153
 40
1.0
 40
1.0
 40
1.0
 40
1.0
 10
173.8400390625
 20
6.461568509615382
 30
0.0
 10
173.8364652384349
 20
6.445915575416493
 30
0.0
 10
173.8286852103968
 20
6.411839956491564
 30
0.0
 10
173.8202821829533
 20
6.355919661764129
 30
0.0
 10
173.8126553109818
 20
6.291231327306954
 30
0.0
 10
173.806271784235
 20
6.217850439692017
 30
0.0
 10
173.8023661564367
 20
6.135520081549671
 30
0.0
 10
173.7981076679348
 20
6.044591857256051
 30
0.0
 10
173.7965573053961
 20
5.94470319281875
 30
0.0
 10
173.7962920985373
 20
5.875160085846995
 30
0.0
 10
173.7961538461538
 20
5.838907251602562
 30
0.0
  0
LINE
  5
101
330
1F
100
AcDbEntity
  8
0
  6
Continuous
 62
     7
370
    15
100
AcDbLine
 10
173.7961538462
 20
5.8389072516
 30
0.0
 11
173.7961538462
 21
5.0
 31
0.0
  0
LINE
  5
102
330
1F
100
AcDbEntity
  8
0
  6
Continuous
 62
     7
370
    15
100
AcDbLine
 10
169.9291666667
 20
6.8908804087
 30
0.0
 11
169.9291666667
 21
7.3201923077
 31
0.0
  0
LINE
  5
103
330
1F
100
AcDbEntity
  8
0
  6
Continuous
 62
     7
370
    15
100
AcDbLine
 10
169.9291666667
 20
7.3201923077
 30
0.0
 11
170.2141025641
 21
7.3201923077
 31
0.0
  0
LINE
  5
104
330
1F
100
AcDbEntity
  8
0
  6
Continuous
 62
     7
370
    15
100
AcDbLine
 10
170.2141025641
 20
7.3201923077
 30
0.0
 11
170.2141025641
 21
5.0
 31
0.0
  0
LINE
  5
105
330
1F
100
AcDbEntity
  8
0
  6
Continuous
 62
     7
370
    15
100
AcDbLine
 10
170.2141025641
 20
5.0
 30
0.0
 11
169.9291666667
 21
5.0
 31
0.0
  0
LINE
  5
106
330
1F
100
AcDbEntity
  8
0
  6
Continuous
 62
     7
370
    15
100
AcDbLine
 10
169.9291666667
 20
5.0
 30
0.0
 11
169.9291666667
 21
5.4013271234
 31
0.0
  0
SPLINE
  5
107
330
1F
100
AcDbEntity
  8
0
  6
Continuous
 62
     7
370
    15
100
AcDbSpline
210
0.0
220
0.0
230
1.0
 70
     8
 71
     3
 72
    15
 73
    11
 74
     0
 42
0.000000001
 43
0.00000001
 40
0.0
 40
0.0
 40
0.0
 40
0.0
 40
0.1342983790141795
 40
0.2620849753822926
 40
0.3862699121344926
 40
0.5071645966228006
 40
0.6273002357254971
 40
0.7481449416029825
 40
0.8723701771613424
 40
1.0
 40
1.0
 40
1.0
 40
1.0
 10
169.9291666666666
 20
5.401327123397434
 30
0.0
 10
169.8970367637414
 20
5.365005491735686
 30
0.0
 10
169.8343348541652
 20
5.294123370821117
 30
0.0
 10
169.7296132685769
 20
5.201520257204486
 30
0.0
 10
169.618607850051
 20
5.124977065521726
 30
0.0
 10
169.5018573658825
 20
5.063155356279237
 30
0.0
 10
169.3794672451341
 20
5.016716848030341
 30
0.0
 10
169.2517087945335
 20
4.983709403680511
 30
0.0
 10
169.1185298990341
 20
4.962487853202827
 30
0.0
 10
169.0275866914745
 20
4.960368747650208
 30
0.0
 10
168.981500400641
 20
4.959294871794869
 30
0.0
  0
SPLINE
  5
108
330
1F
100
AcDbEntity
  8
0
  6
Continuous
 62
     7
370
    15
100
AcDbSpline
210
0.0
220
0.0
230
1.0
 70
     8
 71
     3
 72
    23
 73
    19
 74
     0
 42
0.000000001
 43
0.00000001
 40
0.0
 40
0.0
 40
0.0
 40
0.0
 40
0.064619991340761
 40
0.1274334841444646
 40
0.1890041265579311
 40
0.2499300706860425
 40
0.3106684537406677
 40
0.3723289611368265
 40
0.4349391099970016
 40
0.4995755441940359
 40
0.5641912077719244
 40
0.6267352169294734
 40
0.6881093335614032
 40
0.7492936065367489
 40
0.810330527810947
 40
0.8719011702244153
 40
0.935045914684531
 40
0.9999999999999999
 40
0.9999999999999999
 40
0.9999999999999999
 40
0.9999999999999999
 10
168.981500400641
 20
4.959294871794869
 30
0.0
 10
168.94052661395
 20
4.960407366639029
 30
0.0
 10
168.8597244923731
 20
4.962601255730354
 30
0.0
 10
168.7408624009684
 20
4.979621345441218
 30
0.0
 10
168.6264787175364
 20
5.006954123645106
 30
0.0
 10
168.5164653551932
 20
5.044964216255488
 30
0.0
 10
168.4115341946922
 20
5.095383961598708
 30
0.0
 10
168.3107868212824
 20
5.155746379464833
 30
0.0
 10
168.2147451649508
 20
5.227629132466592
 30
0.0
 10
168.1248731260335
 20
5.309805415329545
 30
0.0
 10
168.0421126685497
 20
5.399063725131825
 30
0.0
 10
167.9694856569567
 20
5.494264328368568
 30
0.0
 10
167.9089310773742
 20
5.59499556118546
 30
0.0
 10
167.8582942898755
 20
5.699982065070246
 30
0.0
 10
167.8192904631328
 20
5.810032027790386
 30
0.0
 10
167.7921000949131
 20
5.924764887278626
 30
0.0
 10
167.775099832549
 20
6.044044986846912
 30
0.0
 10
167.7729068503562
 20
6.125270125655072
 30
0.0
 10
167.7717948717948
 20
6.166456330128202
 30
0.0
  0
SPLINE
  5
109
330
1F
100
AcDbEntity
  8
0
  6
Continuous
 62
     7
370
    15
100
AcDbSpline
210
0.0
220
0.0
230
1.0
 70
     8
 71
     3
 72
    23
 73
    19
 74
     0
 42
0.000000001
 43
0.00000001
 40
0.0
 40
0.0
 40
0.0
 40
0.0
 40
0.0637745323056322
 40
0.1260788099895052
 40
0.1869040927472074
 40
0.2475739349176179
 40
0.3080033561644465
 40
0.3691318984609757
 40
0.4320332277442043
 40
0.496790794437088
 40
0.5616108232295588
 40
0.6249138657484558
 40
0.6867263492419242
 40
0.7480788332577681
 40
0.8095822911398951
 40
0.8716307425688212
 40
0.9348858208285478
 40
0.9999999999999999
 40
0.9999999999999999
 40
0.9999999999999999
 40
0.9999999999999999
 10
167.7717948717948
 20
6.166456330128202
 30
0.0
 10
167.7729314958369
 20
6.206791261223327
 30
0.0
 10
167.7751785402516
 20
6.286531244091579
 30
0.0
 10
167.7919182468209
 20
6.403805491550184
 30
0.0
 10
167.8200678046761
 20
6.51676134235819
 30
0.0
 10
167.8595719236301
 20
6.625035140854036
 30
0.0
 10
167.9102285542039
 20
6.728757900631674
 30
0.0
 10
167.9718490331441
 20
6.828002980466665
 30
0.0
 10
168.0444378105495
 20
6.923043791021499
 30
0.0
 10
168.1281239226286
 20
7.011645546778539
 30
0.0
 10
168.2187790355619
 20
7.09348853258005
 30
0.0
 10
168.315760527178
 20
7.164616738088572
 30
0.0
 10
168.4166559323762
 20
7.226045593800241
 30
0.0
 10
168.5230302347786
 20
7.27471696159244
 30
0.0
 10
168.6333089655743
 20
7.314095220714905
 30
0.0
 10
168.7484738770735
 20
7.341339413206094
 30
0.0
 10
168.8680458091577
 20
7.357393411759525
 30
0.0
 10
168.9492264698163
 20
7.359718204953724
 30
0.0
 10
168.9904046474358
 20
7.360897435897433
 30
0.0
  0
SPLINE
  5
10A
330
1F
100
AcDbEntity
  8
0
  6
Continuous
 62
     7
370
    15
100
AcDbSpline
210
0.0
220
0.0
230
1.0
 70
     8
 71
     3
 72
    15
 73
    11
 74
     0
 42
0.000000001
 43
0.00000001
 40
0.0
 40
0.0
 40
0.0
 40
0.0
 40
0.1298621417207362
 40
0.2546535308972849
 40
0.3760145541937065
 40
0.4952552518175966
 40
0.6147977192994417
 40
0.7381055541683285
 40
0.8651963000723482
 40
1.0
 40
1.0
 40
1.0
 40
1.0
 10
168.9904046474358
 20
7.360897435897433
 30
0.0
 10
169.0377573767287
 20
7.35959318985589
 30
0.0
 10
169.1306138439966
 20
7.357035624924054
 30
0.0
 10
169.2664385381172
 20
7.335751579427547
 30
0.0
 10
169.3949303145012
 20
7.29979382707994
 30
0.0
 10
169.5170810481284
 20
7.2508829538729
 30
0.0
 10
169.6324520990859
 20
7.185887321062872
 30
0.0
 10
169.7399512348582
 20
7.10389978499144
 30
0.0
 10
169.840703494716
 20
7.005437422525668
 30
0.0
 10
169.8991056164354
 20
6.929808519328589
 30
0.0
 10
169.9291666666666
 20
6.890880408653843
 30
0.0
  0
SPLINE
  5
10B
330
1F
100
AcDbEntity
  8
0
  6
Continuous
 62
     7
370
    15
100
AcDbSpline
210
0.0
220
0.0
230
1.0
 70
     8
 71
     3
 72
    23
 73
    19
 74
     0
 42
0.000000001
 43
0.00000001
 40
0.0
 40
0.0
 40
0.0
 40
0.0
 40
0.064557845929719
 40
0.1270135315497589
 40
0.1879548102020908
 40
0.2480139127896339
 40
0.3077476818488365
 40
0.3682345146974886
 40
0.4294698439426712
 40
0.4927434367465846
 40
0.5562577687060836
 40
0.6182167855431454
 40
0.6796554755875571
 40
0.7412455456206319
 40
0.8034152647056991
 40
0.8668154615439944
 40
0.9323283119492659
 40
1.0
 40
1.0
 40
1.0
 40
1.0
 10
164.1897435897436
 20
6.605944511217946
 30
0.0
 10
164.1911543724703
 20
6.663054101216106
 30
0.0
 10
164.1939299994107
 20
6.775413654211754
 30
0.0
 10
164.2175118995887
 20
6.940308597552597
 30
0.0
 10
164.255447521848
 20
7.098288795083763
 30
0.0
 10
164.3093289850735
 20
7.249059334817053
 30
0.0
 10
164.3776416966148
 20
7.393413231884718
 30
0.0
 10
164.4620301248836
 20
7.530247753424258
 30
0.0
 10
164.561513889613
 20
7.66043799311269
 30
0.0
 10
164.6753127545831
 20
7.782008517504029
 30
0.0
 10
164.8001059801765
 20
7.893169215954224
 30
0.0
 10
164.9337451899186
 20
7.990964843640203
 30
0.0
 10
165.0759688132439
 20
8.072351447439377
 30
0.0
 10
165.2252100072638
 20
8.140383680497354
 30
0.0
 10
165.3825863041135
 20
8.192675443484868
 30
0.0
 10
165.5477619318202
 20
8.229281548551793
 30
0.0
 10
165.7204265188003
 20
8.252066361186195
 30
0.0
 10
165.8382302906394
 20
8.254946728355183
 30
0.0
 10
165.8980869391025
 20
8.256410256410254
 30
0.0
  0
SPLINE
  5
10C
330
1F
100
AcDbEntity
  8
0
  6
Continuous
 62
     7
370
    15
100
AcDbSpline
210
0.0
220
0.0
230
1.0
 70
     8
 71
     3
 72
    23
 73
    19
 74
     0
 42
0.000000001
 43
0.00000001
 40
0.0
 40
0.0
 40
0.0
 40
0.0
 40
0.0685475367089083
 40
0.1356829456230472
 40
0.2012149895263287
 40
0.2656822347547037
 40
0.3292668348172622
 40
0.3923954278443331
 40
0.4550697616521555
 40
0.517126850064516
 40
0.5787900352866512
 40
0.6397398633435522
 40
0.7001915036663092
 40
0.7598062425966695
 40
0.819628319275013
 40
0.8793547910462807
 40
0.9395116077646719
 40
1.0
 40
1.0
 40
1.0
 40
1.0
 10
165.8980869391025
 20
8.256410256410254
 30
0.0
 10
165.9345672100825
 20
8.255972888194252
 30
0.0
 10
166.0067762326285
 20
8.2551071618572
 30
0.0
 10
166.113594710174
 20
8.246665161510357
 30
0.0
 10
166.2175916781867
 20
8.232592104432893
 30
0.0
 10
166.3188387833179
 20
8.213436812531006
 30
0.0
 10
166.4178285851591
 20
8.189663028055024
 30
0.0
 10
166.5138045179562
 20
8.15869290029641
 30
0.0
 10
166.6073297553262
 20
8.123281189745832
 30
0.0
 10
166.6978144506005
 20
8.082497438502172
 30
0.0
 10
166.7848244639421
 20
8.036716894511656
 30
0.0
 10
166.8683326957344
 20
7.98644700743754
 30
0.0
 10
166.9476758175621
 20
7.931750098158493
 30
0.0
 10
167.0234121300724
 20
7.873091360465467
 30
0.0
 10
167.0942746929771
 20
7.809229810247499
 30
0.0
 10
167.1622754627911
 20
7.741921991042798
 30
0.0
 10
167.2251051551236
 20
7.669229164842954
 30
0.0
 10
167.2638884105825
 20
7.618061831939833
 30
0.0
 10
167.2833333333333
 20
7.5924078525641
 30
0.0
  0
LINE
  5
10D
330
1F
100
AcDbEntity
  8
0
  6
Continuous
 62
     7
370
    15
100
AcDbLine
 10
167.2833333333
 20
7.5924078526
 30
0.0
 11
167.0340144231
 21
7.4016025641
 31
0.0
  0
SPLINE
  5
10E
330
1F
100
AcDbEntity
  8
0
  6
Continuous
 62
     7
370
    15
100
AcDbSpline
210
0.0
220
0.0
230
1.0
 70
     8
 71
     3
 72
    19
 73
    15
 74
     0
 42
0.000000001
 43
0.00000001
 40
0.0
 40
0.0
 40
0.0
 40
0.0
 40
0.0631632593634664
 40
0.1254749410306429
 40
0.187121219816036
 40
0.2482943461142971
 40
0.3092948562551239
 40
0.3698500660670965
 40
0.4309733755473781
 40
0.4924559896728182
 40
0.6161479662918499
 40
0.7408436984673723
 40
0.8681826486700481
 40
1.0
 40
1.0
 40
1.0
 40
1.0
 10
167.0340144230769
 20
7.401602564102562
 30
0.0
 10
167.0162290814966
 20
7.422798836735087
 30
0.0
 10
166.9808981833054
 20
7.464905610284111
 30
0.0
 10
166.9240573353016
 20
7.524032768486317
 30
0.0
 10
166.8648194163887
 20
7.579427684205498
 30
0.0
 10
166.8032070707141
 20
7.631354246440303
 30
0.0
 10
166.7381112980368
 20
7.677996598213967
 30
0.0
 10
166.671109002104
 20
7.721785384455045
 30
0.0
 10
166.6010793468096
 20
7.761035403874349
 30
0.0
 10
166.5042402732383
 20
7.808626826993797
 30
0.0
 10
166.3775597251554
 20
7.858289410469184
 30
0.0
 10
166.2180886925676
 20
7.899930198862922
 30
0.0
 10
166.0516179103708
 20
7.926437979662262
 30
0.0
 10
165.9380458021378
 20
7.929308942985937
 30
0.0
 10
165.8802784455128
 20
7.930769230769229
 30
0.0
  0
SPLINE
  5
10F
330
1F
100
AcDbEntity
  8
0
  6
Continuous
 62
     7
370
    15
100
AcDbSpline
210
0.0
220
0.0
230
1.0
 70
     8
 71
     3
 72
    31
 73
    27
 74
     0
 42
0.000000001
 43
0.00000001
 40
0.0
 40
0.0
 40
0.0
 40
0.0
 40
0.0439549089061966
 40
0.0875018747976114
 40
0.1304626267314922
 40
0.1727520205665185
 40
0.2154030673796049
 40
0.2576498297432459
 40
0.3001527489572958
 40
0.3431214895020865
 40
0.3859251632064358
 40
0.4276857274028032
 40
0.4688179504865863
 40
0.5094918001549932
 40
0.5498830310733527
 40
0.5899800229668852
 40
0.6304052300068387
 40
0.6708686260826415
 40
0.711383943838174
 40
0.7516272580635832
 40
0.7917755768651897
 40
0.8324589188037428
 40
0.8733190450172867
 40
0.9145429556263481
 40
0.9569235582098847
 40
1.0
 40
1.0
 40
1.0
 40
1.0
 10
165.8802784455128
 20
7.930769230769229
 30
0.0
 10
165.8484528811112
 20
7.930402779063874
 30
0.0
 10
165.7850971235646
 20
7.929673276670641
 30
0.0
 10
165.6910731511749
 20
7.920049284520458
 30
0.0
 10
165.5988048833629
 20
7.906522686837173
 30
0.0
 10
165.5083523390074
 20
7.886451857913044
 30
0.0
 10
165.4198306551897
 20
7.861076696321306
 30
0.0
 10
165.3326611190301
 20
7.83075507083339
 30
0.0
 10
165.2481057892142
 20
7.79324032324615
 30
0.0
 10
165.1649949588342
 20
7.751776401713816
 30
0.0
 10
165.0853666745741
 20
7.704942933982386
 30
0.0
 10
165.0100238812332
 20
7.653858679061289
 30
0.0
 10
164.9392413674762
 20
7.599095284433769
 30
0.0
 10
164.8729631407554
 20
7.540447495076764
 30
0.0
 10
164.8111214447653
 20
7.478179430931117
 30
0.0
 10
164.7541643842492
 20
7.411627492489575
 30
0.0
 10
164.7022890477942
 20
7.341004449370351
 30
0.0
 10
164.654467175058
 20
7.267241572513868
 30
0.0
 10
164.6116384812291
 20
7.190553718673628
 30
0.0
 10
164.5757792334959
 20
7.110657047632999
 30
0.0
 10
164.5440245869238
 20
7.028919754169095
 30
0.0
 10
164.5188974168091
 20
6.94441834398878
 30
0.0
 10
164.4990087479692
 20
6.8577474064024
 30
0.0
 10
164.4852857962854
 20
6.768674334476351
 30
0.0
 10
164.4757712545592
 20
6.67738521084171
 30
0.0
 10
164.4750453797993
 20
6.615509620112912
 30
0.0
 10
164.4746794871795
 20
6.584319911858973
 30
0.0
  0
SPLINE
  5
110
330
1F
100
AcDbEntity
  8
0
  6
Continuous
 62
     7
370
    15
100
AcDbSpline
210
0.0
220
0.0
230
1.0
 70
     8
 71
     3
 72
    23
 73
    19
 74
     0
 42
0.000000001
 43
0.00000001
 40
0.0
 40
0.0
 40
0.0
 40
0.0
 40
0.0643232165798418
 40
0.1262901037035565
 40
0.1867264692161324
 40
0.2461464323353439
 40
0.3055756426461343
 40
0.3654293856180515
 40
0.426326308948259
 40
0.4888399064006337
 40
0.5517249718140392
 40
0.6139185964661512
 40
0.6754837657683903
 40
0.7373338970992832
 40
0.8002290443945284
 40
0.8645022981233188
 40
0.931040739155688
 40
1.0
 40
1.0
 40
1.0
 40
1.0
 10
164.4746794871795
 20
6.584319911858972
 30
0.0
 10
164.475824137294
 20
6.537392214500507
 30
0.0
 10
164.4780715059636
 20
6.445255905387091
 30
0.0
 10
164.4980724947366
 20
6.310299708681822
 30
0.0
 10
164.528466398977
 20
6.18101309746686
 30
0.0
 10
164.5740191009116
 20
6.058204240513389
 30
0.0
 10
164.6301885253486
 20
5.9403588014179
 30
0.0
 10
164.7011639372141
 20
5.829470698684942
 30
0.0
 10
164.783366081823
 20
5.723864243735183
 30
0.0
 10
164.8779578766199
 20
5.626035283991946
 30
0.0
 10
164.9817402954101
 20
5.53666926175725
 30
0.0
 10
165.0930901866418
 20
5.457974091386268
 30
0.0
 10
165.2117302191315
 20
5.392374162291763
 30
0.0
 10
165.3363504479438
 20
5.337785982237681
 30
0.0
 10
165.4679098512842
 20
5.295824522150149
 30
0.0
 10
165.6061718506168
 20
5.266284210115046
 30
0.0
 10
165.7508357320222
 20
5.247014517766577
 30
0.0
 10
165.8496865447796
 20
5.245169672161003
 30
0.0
 10
165.8999949919871
 20
5.244230769230767
 30
0.0
  0
SPLINE
  5
111
330
1F
100
AcDbEntity
  8
0
  6
Continuous
 62
     7
370
    15
100
AcDbSpline
210
0.0
220
0.0
230
1.0
 70
     8
 71
     3
 72
    15
 73
    11
 74
     0
 42
0.000000001
 43
0.00000001
 40
0.0
 40
0.0
 40
0.0
 40
0.0
 40
0.128515189511656
 40
0.2529486363526459
 40
0.3747547340060057
 40
0.4959397538670409
 40
0.6171806414298932
 40
0.740909469278127
 40
0.8678111481861991
 40
1.0
 40
1.0
 40
1.0
 40
1.0
 10
165.8999949919871
 20
5.244230769230767
 30
0.0
 10
165.9554238598599
 20
5.245762733719087
 30
0.0
 10
166.0645211315229
 20
5.248778006308534
 30
0.0
 10
166.2245121268469
 20
5.274322468012854
 30
0.0
 10
166.3776702856673
 20
5.315740722048897
 30
0.0
 10
166.5240038463155
 20
5.373705265867028
 30
0.0
 10
166.6631002753728
 20
5.449057348464489
 30
0.0
 10
166.7951772457959
 20
5.540404708684088
 30
0.0
 10
166.9203462418959
 20
5.64861626768835
 30
0.0
 10
166.9956130479247
 20
5.731241676893087
 30
0.0
 10
167.0340144230769
 20
5.773397435897433
 30
0.0
  0
LINE
  5
112
330
1F
100
AcDbEntity
  8
0
  6
Continuous
 62
     7
370
    15
100
AcDbLine
 10
167.0340144231
 20
5.7733974359
 30
0.0
 11
167.2833333333
 21
5.5845002003
 31
0.0
  0
SPLINE
  5
113
330
1F
100
AcDbEntity
  8
0
  6
Continuous
 62
     7
370
    15
100
AcDbSpline
210
0.0
220
0.0
230
1.0
 70
     8
 71
     3
 72
    23
 73
    19
 74
     0
 42
0.000000001
 43
0.00000001
 40
0.0
 40
0.0
 40
0.0
 40
0.0
 40
0.0616742388774242
 40
0.1230530616347959
 40
0.1834750007317033
 40
0.2437265005106047
 40
0.3042789165122448
 40
0.3648629209606792
 40
0.4259462039686134
 40
0.4873912299654077
 40
0.549220384075476
 40
0.6111435886925968
 40
0.6735285303101505
 40
0.7369614566573004
 40
0.8007852828728471
 40
0.8660125956416248
 40
0.9321007477905874
 40
0.9999999999999999
 40
0.9999999999999999
 40
0.9999999999999999
 40
0.9999999999999999
 10
167.2833333333333
 20
5.584500200320512
 30
0.0
 10
167.2632690479412
 20
5.558611747504364
 30
0.0
 10
167.2232365839504
 20
5.506958846098541
 30
0.0
 10
167.1584139542556
 20
5.434140937991693
 30
0.0
 10
167.0901266916181
 20
5.365647991503226
 30
0.0
 10
167.0178675832546
 20
5.302032220818273
 30
0.0
 10
166.9424678723126
 20
5.242020669876739
 30
0.0
 10
166.8625737032571
 20
5.187318294362363
 30
0.0
 10
166.7792353666273
 20
5.137161563620491
 30
0.0
 10
166.6927352321915
 20
5.091235710670246
 30
0.0
 10
166.6031652048661
 20
5.050489350869463
 30
0.0
 10
166.5106326103116
 20
5.015606290086701
 30
0.0
 10
166.415536302533
 20
4.985557283153628
 30
0.0
 10
166.3178719341878
 20
4.960835883411245
 30
0.0
 10
166.2174369262089
 20
4.941539971611753
 30
0.0
 10
166.1145937104245
 20
4.928640695145439
 30
0.0
 10
166.0091203236186
 20
4.919803387050975
 30
0.0
 10
165.9379627487403
 20
4.918997920558282
 30
0.0
 10
165.9019030448718
 20
4.918589743589741
 30
0.0
  0
SPLINE
  5
114
330
1F
100
AcDbEntity
  8
0
  6
Continuous
 62
     7
370
    15
100
AcDbSpline
210
0.0
220
0.0
230
1.0
 70
     8
 71
     3
 72
    23
 73
    19
 74
     0
 42
0.000000001
 43
0.00000001
 40
0.0
 40
0.0
 40
0.0
 40
0.0
 40
0.0696628008990818
 40
0.1377495622582694
 40
0.2039167435177793
 40
0.2687798623293398
 40
0.3324137064772213
 40
0.394753540447139
 40
0.4561800316591765
 40
0.516995649196724
 40
0.5773959379659587
 40
0.6371983435092748
 40
0.6969991842614528
 40
0.7567561942255617
 40
0.8165539052726051
 40
0.876947996597868
 40
0.9381317879205976
 40
1.0
 40
1.0
 40
1.0
 40
1.0
 10
165.9019030448718
 20
4.918589743589741
 30
0.0
 10
165.8677548611838
 20
4.91882740826535
 30
0.0
 10
165.800231056596
 20
4.919297360730752
 30
0.0
 10
165.700537189062
 20
4.92691025545355
 30
0.0
 10
165.6034823550492
 20
4.937296802507616
 30
0.0
 10
165.5093439444415
 20
4.952936064258498
 30
0.0
 10
165.4176082385066
 20
4.971391287021672
 30
0.0
 10
165.3291068511469
 20
4.99613021267455
 30
0.0
 10
165.2429689103218
 20
5.023842670943904
 30
0.0
 10
165.159540486976
 20
5.056413623205199
 30
0.0
 10
165.0787506164463
 20
5.093167588792675
 30
0.0
 10
165.0008598732768
 20
5.13470707436726
 30
0.0
 10
164.9259040810292
 20
5.180682765881429
 30
0.0
 10
164.8531463063961
 20
5.230081239622869
 30
0.0
 10
164.783661355491
 20
5.284489220605353
 30
0.0
 10
164.7168470860686
 20
5.343151096190794
 30
0.0
 10
164.652328839772
 20
5.405869148800946
 30
0.0
 10
164.6124121183866
 20
5.45109462290438
 30
0.0
 10
164.5923427483974
 20
5.473833133012818
 30
0.0
  0
SPLINE
  5
115
330
1F
100
AcDbEntity
  8
0
  6
Continuous
 62
     7
370
    15
100
AcDbSpline
210
0.0
220
0.0
230
1.0
 70
     8
 71
     3
 72
    15
 73
    11
 74
     0
 42
0.000000001
 43
0.00000001
 40
0.0
 40
0.0
 40
0.0
 40
0.0
 40
0.1243285095938545
 40
0.2471560163611905
 40
0.3687797492913397
 40
0.4907338624016511
 40
0.6136137718478472
 40
0.7389575757222177
 40
0.8673105751912629
 40
1.0
 40
1.0
 40
1.0
 40
1.0
 10
164.5923427483974
 20
5.473833133012818
 30
0.0
 10
164.5601975575083
 20
5.513331211530495
 30
0.0
 10
164.4962952606717
 20
5.59185051311499
 30
0.0
 10
164.4145383905932
 20
5.719109938970869
 30
0.0
 10
164.344554536939
 20
5.851977528451084
 30
0.0
 10
164.2879706659473
 20
5.991151320985701
 30
0.0
 10
164.2437359008714
 20
6.136319022268126
 30
0.0
 10
164.213091531049
 20
6.287553810340684
 30
0.0
 10
164.1931782898442
 20
6.444714443624101
 30
0.0
 10
164.190901099307
 20
6.551609244765576
 30
0.0
 10
164.1897435897436
 20
6.605944511217946
 30
0.0
  0
LINE
  5
116
330
1F
100
AcDbEntity
  8
0
  6
Continuous
 62
     7
370
    15
100
AcDbLine
 10
160.7705128205
 20
6.5875
 30
0.0
 11
161.0961538462
 21
8.175
 31
0.0
  0
LINE
  5
117
330
1F
100
AcDbEntity
  8
0
  6
Continuous
 62
     7
370
    15
100
AcDbLine
 10
161.0961538462
 20
8.175
 30
0.0
 11
162.3987179487
 21
8.175
 31
0.0
  0
LINE
  5
118
330
1F
100
AcDbEntity
  8
0
  6
Continuous
 62
     7
370
    15
100
AcDbLine
 10
162.3987179487
 20
8.175
 30
0.0
 11
162.3987179487
 21
7.8493589744
 31
0.0
  0
LINE
  5
119
330
1F
100
AcDbEntity
  8
0
  6
Continuous
 62
     7
370
    15
100
AcDbLine
 10
162.3987179487
 20
7.8493589744
 30
0.0
 11
161.318760016
 21
7.8493589744
 31
0.0
  0
LINE
  5
11A
330
1F
100
AcDbEntity
  8
0
  6
Continuous
 62
     7
370
    15
100
AcDbLine
 10
161.318760016
 20
7.8493589744
 30
0.0
 11
161.147671274
 21
7.0142678285
 31
0.0
  0
SPLINE
  5
11B
330
1F
100
AcDbEntity
  8
0
  6
Continuous
 62
     7
370
    15
100
AcDbSpline
210
0.0
220
0.0
230
1.0
 70
     8
 71
     3
 72
    11
 73
     7
 74
     0
 42
0.000000001
 43
0.00000001
 40
0.0
 40
0.0
 40
0.0
 40
0.0
 40
0.2750683690187581
 40
0.5329014600899437
 40
0.7739734595924235
 40
1.0
 40
1.0
 40
1.0
 40
1.0
 10
161.1476712740384
 20
7.014267828525638
 30
0.0
 10
161.1812862457917
 20
7.023548146524944
 30
0.0
 10
161.246409937011
 20
7.041527294871121
 30
0.0
 10
161.3425306680282
 20
7.06148967233216
 30
0.0
 10
161.4337821668911
 20
7.073523325155733
 30
0.0
 10
161.4929962529064
 20
7.075166442548928
 30
0.0
 10
161.5216496394231
 20
7.075961538461536
 30
0.0
  0
SPLINE
  5
11C
330
1F
100
AcDbEntity
  8
0
  6
Continuous
 62
     7
370
    15
100
AcDbSpline
210
0.0
220
0.0
230
1.0
 70
     8
 71
     3
 72
    23
 73
    19
 74
     0
 42
0.000000001
 43
0.00000001
 40
0.0
 40
0.0
 40
0.0
 40
0.0
 40
0.0658076458106907
 40
0.1293942736680405
 40
0.1908940606321757
 40
0.2512810689298314
 40
0.3108149644652742
 40
0.3703709874482462
 40
0.4307682625897225
 40
0.4928812506175012
 40
0.5551039481552503
 40
0.6160670509938369
 40
0.6772560331746514
 40
0.7382598051991128
 40
0.800762134376297
 40
0.8647775815744825
 40
0.9310452949994027
 40
0.9999999999999999
 40
0.9999999999999999
 40
0.9999999999999999
 40
0.9999999999999999
 10
161.5216496394231
 20
7.075961538461536
 30
0.0
 10
161.5571041747335
 20
7.075194153938543
 30
0.0
 10
161.6268166494498
 20
7.073685284235732
 30
0.0
 10
161.7288148370797
 20
7.059196535096968
 30
0.0
 10
161.826181104499
 20
7.036391041110953
 30
0.0
 10
161.9187118260161
 20
7.004531710678388
 30
0.0
 10
162.0065781826657
 20
6.963792166994949
 30
0.0
 10
162.0889717562944
 20
6.91290150681322
 30
0.0
 10
162.1671292916468
 20
6.853453413556033
 30
0.0
 10
162.2396486447337
 20
6.785104724135524
 30
0.0
 10
162.3054385528552
 20
6.709882971796068
 30
0.0
 10
162.3632834149103
 20
6.629004045920893
 30
0.0
 10
162.4124166218292
 20
6.543253952413115
 30
0.0
 10
162.4519324494671
 20
6.451813400200575
 30
0.0
 10
162.4834868098459
 20
6.355693311035465
 30
0.0
 10
162.5044889765971
 20
6.253882325434489
 30
0.0
 10
162.518474134012
 20
6.147340102279499
 30
0.0
 10
162.520036584459
 20
6.07449238513806
 30
0.0
 10
162.5208333333333
 20
6.037344751602562
 30
0.0
  0
SPLINE
  5
11D
330
1F
100
AcDbEntity
  8
0
  6
Continuous
 62
     7
370
    15
100
AcDbSpline
210
0.0
220
0.0
230
1.0
 70
     8
 71
     3
 72
    31
 73
    27
 74
     0
 42
0.000000001
 43
0.00000001
 40
0.0
 40
0.0
 40
0.0
 40
0.0
 40
0.0440144705761405
 40
0.0874341236677049
 40
0.1301183986578985
 40
0.1725536945581821
 40
0.21455475596814
 40
0.2562980920971298
 40
0.298438225133249
 40
0.3408490025880979
 40
0.3827151889670291
 40
0.4239240454075288
 40
0.4642462432504153
 40
0.5040736714617905
 40
0.5438619058684875
 40
0.583566724979659
 40
0.6230943188523311
 40
0.6632290607685803
 40
0.7035512586114737
 40
0.7439378946861908
 40
0.7845412548000977
 40
0.8257501112405964
 40
0.8677573633885095
 40
0.9107451640323113
 40
0.9549144468914729
 40
1.0
 40
1.0
 40
1.0
 40
1.0
 10
162.5208333333333
 20
6.037344751602562
 30
0.0
 10
162.5202300150496
 20
6.011471023140428
 30
0.0
 10
162.5190315318067
 20
5.960073227268055
 30
0.0
 10
162.512936813012
 20
5.883742416646387
 30
0.0
 10
162.5012022705823
 20
5.809027560921695
 30
0.0
 10
162.4854472637165
 20
5.735918748325152
 30
0.0
 10
162.4649980702764
 20
5.664554389276953
 30
0.0
 10
162.4402429999507
 20
5.594730217514805
 30
0.0
 10
162.4099480321382
 20
5.526880824254935
 30
0.0
 10
162.3767181417248
 20
5.460364215911947
 30
0.0
 10
162.3393016937927
 20
5.396684141528166
 30
0.0
 10
162.2977740478495
 20
5.337131132307289
 30
0.0
 10
162.253899637955
 20
5.280811819821925
 30
0.0
 10
162.2066906668606
 20
5.22833021916358
 30
0.0
 10
162.15570833558
 20
5.180031195789216
 30
0.0
 10
162.1015700799268
 20
5.135628111851712
 30
0.0
 10
162.0447078990933
 20
5.094370047933888
 30
0.0
 10
161.9842420721307
 20
5.05793175659611
 30
0.0
 10
161.9215199625852
 20
5.024401074943229
 30
0.0
 10
161.8556357941791
 20
4.996893294646164
 30
0.0
 10
161.7880893016213
 20
4.972300172740534
 30
0.0
 10
161.7179083073317
 20
4.952697244121437
 30
0.0
 10
161.6452517773159
 20
4.937336998236051
 30
0.0
 10
161.5699999452715
 20
4.926904310546667
 30
0.0
 10
161.4925474803213
 20
4.919305685127237
 30
0.0
 10
161.4400465760525
 20
4.918830018464881
 30
0.0
 10
161.4135266426282
 20
4.918589743589742
 30
0.0
  0
SPLINE
  5
11E
330
1F
100
AcDbEntity
  8
0
  6
Continuous
 62
     7
370
    15
100
AcDbSpline
210
0.0
220
0.0
230
1.0
 70
     8
 71
     3
 72
    23
 73
    19
 74
     0
 42
0.000000001
 43
0.00000001
 40
0.0
 40
0.0
 40
0.0
 40
0.0
 40
0.0654211437588975
 40
0.1287083718818834
 40
0.1902361418635446
 40
0.2507244020335412
 40
0.3106371794134518
 40
0.3707664082897318
 40
0.4316147444123461
 40
0.4935229735663599
 40
0.555883455377533
 40
0.6173423673185152
 40
0.6786680390972732
 40
0.7407113595451476
 40
0.8029853625127457
 40
0.8668025802655188
 40
0.9323471713458886
 40
1.0
 40
1.0
 40
1.0
 40
1.0
 10
161.4135266426282
 20
4.918589743589741
 30
0.0
 10
161.3818907787055
 20
4.919216432332515
 30
0.0
 10
161.3196509537098
 20
4.920449368400653
 30
0.0
 10
161.2284644392948
 20
4.93334756573828
 30
0.0
 10
161.1407304755587
 20
4.951820547037227
 30
0.0
 10
161.0571553123659
 20
4.979612020399667
 30
0.0
 10
160.976989951719
 20
5.014434780582929
 30
0.0
 10
160.9013136291533
 20
5.05844587901092
 30
0.0
 10
160.8281926751671
 20
5.108319780267192
 30
0.0
 10
160.7605996132586
 20
5.167175529028076
 30
0.0
 10
160.6978651388969
 20
5.231506183443308
 30
0.0
 10
160.6417070915645
 20
5.301317757929351
 30
0.0
 10
160.5916930612392
 20
5.375458037536046
 30
0.0
 10
160.5486239621849
 20
5.454287077304723
 30
0.0
 10
160.5118864714193
 20
5.537597744655296
 30
0.0
 10
160.483025732054
 20
5.6257021811787
 30
0.0
 10
160.4597317957842
 20
5.718140041895156
 30
0.0
 10
160.4498771214949
 20
5.781779297767567
 30
0.0
 10
160.4448717948718
 20
5.814102564102561
 30
0.0
  0
LINE
  5
11F
330
1F
100
AcDbEntity
  8
0
  6
Continuous
 62
     7
370
    15
100
AcDbLine
 10
160.4448717949
 20
5.8141025641
 30
0.0
 11
160.7298076923
 21
5.8141025641
 31
0.0
  0
SPLINE
  5
120
330
1F
100
AcDbEntity
  8
0
  6
Continuous
 62
     7
370
    15
100
AcDbSpline
210
0.0
220
0.0
230
1.0
 70
     8
 71
     3
 72
    19
 73
    15
 74
     0
 42
0.000000001
 43
0.00000001
 40
0.0
 40
0.0
 40
0.0
 40
0.0
 40
0.0946872518675537
 40
0.1819941557072753
 40
0.2643769486105152
 40
0.3421798619477795
 40
0.4186176108621594
 40
0.4965090753719058
 40
0.5773690916117338
 40
0.6615105924542044
 40
0.7467325508291928
 40
0.8312579843277453
 40
0.9152056162136596
 40
1.0
 40
1.0
 40
1.0
 40
1.0
 10
160.7298076923076
 20
5.814102564102561
 30
0.0
 10
160.7368185979402
 20
5.783825353667
 30
0.0
 10
160.7502939478544
 20
5.725630874033148
 30
0.0
 10
160.7798720199365
 20
5.643868871538143
 30
0.0
 10
160.8160360641153
 20
5.571007861489193
 30
0.0
 10
160.8590385801796
 20
5.506084025233903
 30
0.0
 10
160.9103375364064
 20
5.449470149136892
 30
0.0
 10
160.9688749469454
 20
5.399017528664755
 30
0.0
 10
161.0345046672761
 20
5.353501518489074
 30
0.0
 10
161.1074328111978
 20
5.315562293960087
 30
0.0
 10
161.1843703902955
 20
5.283205639090055
 30
0.0
 10
161.2648949308042
 20
5.261659458669614
 30
0.0
 10
161.3468138736745
 20
5.246509363019351
 30
0.0
 10
161.4022206809241
 20
5.244992837149279
 30
0.0
 10
161.4300631009615
 20
5.244230769230767
 30
0.0
  0
SPLINE
  5
121
330
1F
100
AcDbEntity
  8
0
  6
Continuous
 62
     7
370
    15
100
AcDbSpline
210
0.0
220
0.0
230
1.0
 70
     8
 71
     3
 72
    23
 73
    19
 74
     0
 42
0.000000001
 43
0.00000001
 40
0.0
 40
0.0
 40
0.0
 40
0.0
 40
0.0642072952829865
 40
0.1264246897797534
 40
0.187680284264929
 40
0.2482164244552245
 40
0.3083050600086178
 40
0.369660991325148
 40
0.4316985517867751
 40
0.495946892208771
 40
0.5597580239721194
 40
0.6222954078261647
 40
0.6839106352841737
 40
0.7450924080566285
 40
0.8067402253892924
 40
0.869086618121204
 40
0.9332900029747992
 40
1.0
 40
1.0
 40
1.0
 40
1.0
 10
161.4300631009615
 20
5.244230769230767
 30
0.0
 10
161.4572396898257
 20
5.244975332044682
 30
0.0
 10
161.5107506156682
 20
5.246441382317566
 30
0.0
 10
161.5895009450255
 20
5.257725343284789
 30
0.0
 10
161.6655311951945
 20
5.275103997256702
 30
0.0
 10
161.7380911545402
 20
5.301111651420547
 30
0.0
 10
161.8084505511674
 20
5.332720788849683
 30
0.0
 10
161.874829614337
 20
5.373283750482649
 30
0.0
 10
161.9391486528859
 20
5.419965338643497
 30
0.0
 10
161.9994084597229
 20
5.473447424468542
 30
0.0
 10
162.0545985315512
 20
5.532384218873172
 30
0.0
 10
162.1033630128655
 20
5.595410140051465
 30
0.0
 10
162.143982070045
 20
5.662644707986807
 30
0.0
 10
162.1782122973768
 20
5.732923925215836
 30
0.0
 10
162.2042049327374
 20
5.807018044942014
 30
0.0
 10
162.2227478228466
 20
5.884579825276986
 30
0.0
 10
162.2336363119176
 20
5.96580084303568
 30
0.0
 10
162.2351341680351
 20
6.021199431189821
 30
0.0
 10
162.2358974358974
 20
6.049429086538459
 30
0.0
  0
SPLINE
  5
122
330
1F
100
AcDbEntity
  8
0
  6
Continuous
 62
     7
370
    15
100
AcDbSpline
210
0.0
220
0.0
230
1.0
 70
     8
 71
     3
 72
    23
 73
    19
 74
     0
 42
0.000000001
 43
0.00000001
 40
0.0
 40
0.0
 40
0.0
 40
0.0
 40
0.0653513820265944
 40
0.1279160318306131
 40
0.1883602055716992
 40
0.2472160772654514
 40
0.3056301291974121
 40
0.3637698398318226
 40
0.4226609139127879
 40
0.4826872940904074
 40
0.5433002212395699
 40
0.6041179553231153
 40
0.6649648912652875
 40
0.7274134941125674
 40
0.7914676251494339
 40
0.8580554427291047
 40
0.927036814614958
 40
1.0
 40
1.0
 40
1.0
 40
1.0
 10
162.2358974358974
 20
6.049429086538459
 30
0.0
 10
162.2353001009574
 20
6.074897804080545
 30
0.0
 10
162.2341309028037
 20
6.124749194866322
 30
0.0
 10
162.2245781711718
 20
6.197682760709449
 30
0.0
 10
162.2079620605366
 20
6.26669187765447
 30
0.0
 10
162.1848989694419
 20
6.332109789900464
 30
0.0
 10
162.1556168445693
 20
6.393998198316182
 30
0.0
 10
162.1198334041086
 20
6.452420974354933
 30
0.0
 10
162.0768771074028
 20
6.506608094493382
 30
0.0
 10
162.0278080370402
 20
6.556584910981995
 30
0.0
 10
161.9740525284704
 20
6.602708476045463
 30
0.0
 10
161.9146857048287
 20
6.642027754469724
 30
0.0
 10
161.850949914093
 20
6.675105736911032
 30
0.0
 10
161.7836130631464
 20
6.703651706836255
 30
0.0
 10
161.7110734765706
 20
6.724153811591363
 30
0.0
 10
161.6347676743407
 20
6.739546107670986
 30
0.0
 10
161.5538716607032
 20
6.748450043814837
 30
0.0
 10
161.4985625364673
 20
6.749685471127123
 30
0.0
 10
161.4701322115384
 20
6.750320512820511
 30
0.0
  0
SPLINE
  5
123
330
1F
100
AcDbEntity
  8
0
  6
Continuous
 62
     7
370
    15
100
AcDbSpline
210
0.0
220
0.0
230
1.0
 70
     8
 71
     3
 72
    15
 73
    11
 74
     0
 42
0.000000001
 43
0.00000001
 40
0.0
 40
0.0
 40
0.0
 40
0.0
 40
0.102203037035223
 40
0.2110233423738977
 40
0.3250996615652324
 40
0.4465020971348934
 40
0.5737877176488609
 40
0.7089007097660872
 40
0.850357871293422
 40
1.0
 40
1.0
 40
1.0
 40
1.0
 10
161.4701322115384
 20
6.750320512820511
 30
0.0
 10
161.4455223975498
 20
6.749793833698989
 30
0.0
 10
161.3947093752195
 20
6.748706374932539
 30
0.0
 10
161.3167650966865
 20
6.740699481382938
 30
0.0
 10
161.234857605129
 20
6.727782407151703
 30
0.0
 10
161.1493008841603
 20
6.710014882661797
 30
0.0
 10
161.0598379946667
 20
6.686763834459325
 30
0.0
 10
160.9666577311499
 20
6.658901394606139
 30
0.0
 10
160.8695641750205
 20
6.625589295773095
 30
0.0
 10
160.8041430964588
 20
6.600432216160036
 30
0.0
 10
160.7705128205128
 20
6.587499999999998
 30
0.0
  0
LINE
  5
124
330
1F
100
AcDbEntity
  8
0
  6
Continuous
 62
     7
370
    15
100
AcDbLine
 10
158.7759615385
 20
5.0
 30
0.0
 11
158.7352564103
 21
5.0
 31
0.0
  0
LINE
  5
125
330
1F
100
AcDbEntity
  8
0
  6
Continuous
 62
     7
370
    15
100
AcDbLine
 10
158.7352564103
 20
5.0
 30
0.0
 11
157.3919871795
 21
8.175
 31
0.0
  0
LINE
  5
126
330
1F
100
AcDbEntity
  8
0
  6
Continuous
 62
     7
370
    15
100
AcDbLine
 10
157.3919871795
 20
8.175
 30
0.0
 11
157.697275641
 21
8.175
 31
0.0
  0
LINE
  5
127
330
1F
100
AcDbEntity
  8
0
  6
Continuous
 62
     7
370
    15
100
AcDbLine
 10
157.697275641
 20
8.175
 30
0.0
 11
158.7556089744
 21
5.6729066506
 31
0.0
  0
LINE
  5
128
330
1F
100
AcDbEntity
  8
0
  6
Continuous
 62
     7
370
    15
100
AcDbLine
 10
158.7556089744
 20
5.6729066506
 30
0.0
 11
159.8139423077
 21
8.175
 31
0.0
  0
LINE
  5
129
330
1F
100
AcDbEntity
  8
0
  6
Continuous
 62
     7
370
    15
100
AcDbLine
 10
159.8139423077
 20
8.175
 30
0.0
 11
160.1192307692
 21
8.175
 31
0.0
  0
LINE
  5
12A
330
1F
100
AcDbEntity
  8
0
  6
Continuous
 62
     7
370
    15
100
AcDbLine
 10
160.1192307692
 20
8.175
 30
0.0
 11
158.7759615385
 21
5.0
 31
0.0
  0
LINE
  5
12B
330
1F
100
AcDbEntity
  8
0
  6
Continuous
 62
     7
370
    15
100
AcDbLine
 10
155.6009615385
 20
5.0
 30
0.0
 11
155.316025641
 21
5.0
 31
0.0
  0
LINE
  5
12C
330
1F
100
AcDbEntity
  8
0
  6
Continuous
 62
     7
370
    15
100
AcDbLine
 10
155.316025641
 20
5.0
 30
0.0
 11
155.316025641
 21
8.175
 31
0.0
  0
LINE
  5
12D
330
1F
100
AcDbEntity
  8
0
  6
Continuous
 62
     7
370
    15
100
AcDbLine
 10
155.316025641
 20
8.175
 30
0.0
 11
155.6009615385
 21
8.175
 31
0.0
  0
LINE
  5
12E
330
1F
100
AcDbEntity
  8
0
  6
Continuous
 62
     7
370
    15
100
AcDbLine
 10
155.6009615385
 20
8.175
 30
0.0
 11
155.6009615385
 21
5.0
 31
0.0
  0
LINE
  5
12F
330
1F
100
AcDbEntity
  8
0
  6
Continuous
 62
     7
370
    15
100
AcDbLine
 10
154.5019230769
 20
5.0
 30
0.0
 11
154.2169871795
 21
5.0
 31
0.0
  0
LINE
  5
130
330
1F
100
AcDbEntity
  8
0
  6
Continuous
 62
     7
370
    15
100
AcDbLine
 10
154.2169871795
 20
5.0
 30
0.0
 11
154.2169871795
 21
8.175
 31
0.0
  0
LINE
  5
131
330
1F
100
AcDbEntity
  8
0
  6
Continuous
 62
     7
370
    15
100
AcDbLine
 10
154.2169871795
 20
8.175
 30
0.0
 11
154.5019230769
 21
8.175
 31
0.0
  0
LINE
  5
132
330
1F
100
AcDbEntity
  8
0
  6
Continuous
 62
     7
370
    15
100
AcDbLine
 10
154.5019230769
 20
8.175
 30
0.0
 11
154.5019230769
 21
5.0
 31
0.0
  0
LINE
  5
133
330
1F
100
AcDbEntity
  8
0
  6
Continuous
 62
     7
370
    15
100
AcDbLine
 10
153.4028846154
 20
5.0
 30
0.0
 11
153.1179487179
 21
5.0
 31
0.0
  0
LINE
  5
134
330
1F
100
AcDbEntity
  8
0
  6
Continuous
 62
     7
370
    15
100
AcDbLine
 10
153.1179487179
 20
5.0
 30
0.0
 11
153.1179487179
 21
8.175
 31
0.0
  0
LINE
  5
135
330
1F
100
AcDbEntity
  8
0
  6
Continuous
 62
     7
370
    15
100
AcDbLine
 10
153.1179487179
 20
8.175
 30
0.0
 11
153.4028846154
 21
8.175
 31
0.0
  0
LINE
  5
136
330
1F
100
AcDbEntity
  8
0
  6
Continuous
 62
     7
370
    15
100
AcDbLine
 10
153.4028846154
 20
8.175
 30
0.0
 11
153.4028846154
 21
5.0
 31
0.0
  0
SPLINE
  5
137
330
1F
100
AcDbEntity
  8
0
  6
Continuous
 62
     7
370
    15
100
AcDbSpline
210
0.0
220
0.0
230
1.0
 70
     8
 71
     3
 72
    15
 73
    11
 74
     0
 42
0.000000001
 43
0.00000001
 40
0.0
 40
0.0
 40
0.0
 40
0.0
 40
0.1277566033101213
 40
0.249414355336553
 40
0.3727964764554144
 40
0.5001113325158477
 40
0.6286099407651168
 40
0.7506433738258063
 40
0.8737683791425136
 40
0.9999999999999999
 40
0.9999999999999999
 40
0.9999999999999999
 40
0.9999999999999999
 10
152.1613782051281
 20
4.959294871794869
 30
0.0
 10
152.1436654192867
 20
4.960241563518363
 30
0.0
 10
152.1090854214833
 20
4.962089753747285
 30
0.0
 10
152.0593866981461
 20
4.977658870871137
 30
0.0
 10
152.0136603766495
 20
5.001991581235167
 30
0.0
 10
151.9730315238596
 20
5.035797991980074
 30
0.0
 10
151.9398859103475
 20
5.076619550631863
 30
0.0
 10
151.9148257416166
 20
5.122159751680792
 30
0.0
 10
151.899776106495
 20
5.171854341335772
 30
0.0
 10
151.89779683629
 20
5.206393481626636
 30
0.0
 10
151.8967948717948
 20
5.223878205128203
 30
0.0
  0
SPLINE
  5
138
330
1F
100
AcDbEntity
  8
0
  6
Continuous
 62
     7
370
    15
100
AcDbSpline
210
0.0
220
0.0
230
1.0
 70
     8
 71
     3
 72
    15
 73
    11
 74
     0
 42
0.000000001
 43
0.00000001
 40
0.0
 40
0.0
 40
0.0
 40
0.0
 40
0.1290969581672236
 40
0.2520459672599783
 40
0.3739049644019861
 40
0.5010378352202106
 40
0.6281707060383911
 40
0.7513764634091692
 40
0.8724260133704629
 40
1.0
 40
1.0
 40
1.0
 40
1.0
 10
151.8967948717948
 20
5.223878205128203
 30
0.0
 10
151.8977583475479
 20
5.241793713808692
 30
0.0
 10
151.8996394157125
 20
5.276771545807484
 30
0.0
 10
151.9148573360838
 20
5.326845021876266
 30
0.0
 10
151.9396914711688
 20
5.372354963195956
 30
0.0
 10
151.9732606509117
 20
5.412629003736652
 30
0.0
 10
152.0136505478962
 20
5.446363199726282
 30
0.0
 10
152.0592763911649
 20
5.47091483350301
 30
0.0
 10
152.109205117012
 20
5.485465778842841
 30
0.0
 10
152.1436855611448
 20
5.487445633321415
 30
0.0
 10
152.1613782051281
 20
5.488461538461536
 30
0.0
  0
SPLINE
  5
139
330
1F
100
AcDbEntity
  8
0
  6
Continuous
 62
     7
370
    15
100
AcDbSpline
210
0.0
220
0.0
230
1.0
 70
     8
 71
     3
 72
    15
 73
    11
 74
     0
 42
0.000000001
 43
0.00000001
 40
0.0
 40
0.0
 40
0.0
 40
0.0
 40
0.1275189266999397
 40
0.2499859477487675
 40
0.3717923515057172
 40
0.4988703527764677
 40
0.6259483540471683
 40
0.7484917380160536
 40
0.8709587590649217
 40
1.0
 40
1.0
 40
1.0
 40
1.0
 10
152.1613782051281
 20
5.488461538461536
 30
0.0
 10
152.179058611885
 20
5.487410915824545
 30
0.0
 10
152.2137189823422
 20
5.48535129297144
 30
0.0
 10
152.2638287630288
 20
5.471221024632055
 30
0.0
 10
152.3091810614831
 20
5.446130668347079
 30
0.0
 10
152.3495781692539
 20
5.412690862261714
 30
0.0
 10
152.3828761872437
 20
5.372145510707599
 30
0.0
 10
152.408860706674
 20
5.327154936354113
 30
0.0
 10
152.4228678861163
 20
5.276625634514608
 30
0.0
 10
152.4249125061159
 20
5.241764429369588
 30
0.0
 10
152.4259615384615
 20
5.223878205128203
 30
0.0
  0
SPLINE
  5
13A
330
1F
100
AcDbEntity
  8
0
  6
Continuous
 62
     7
370
    15
100
AcDbSpline
210
0.0
220
0.0
230
1.0
 70
     8
 71
     3
 72
    15
 73
    11
 74
     0
 42
0.000000001
 43
0.00000001
 40
0.0
 40
0.0
 40
0.0
 40
0.0
 40
0.1261777183170028
 40
0.2488206074857968
 40
0.3715399692351805
 40
0.4999837069108904
 40
0.6272441978754072
 40
0.7492255210763055
 40
0.8722979504176559
 40
1.0
 40
1.0
 40
1.0
 40
1.0
 10
152.4259615384615
 20
5.223878205128203
 30
0.0
 10
152.4248769577852
 20
5.20642175598652
 30
0.0
 10
152.4227381806197
 20
5.171997894643063
 30
0.0
 10
152.4088928146741
 20
5.121849710691369
 30
0.0
 10
152.3826781548225
 20
5.076831018779249
 30
0.0
 10
152.3498078398145
 20
5.035735507762806
 30
0.0
 10
152.3091710750867
 20
5.002224860853969
 30
0.0
 10
152.2637215429747
 20
4.977347969561087
 30
0.0
 10
152.2138366159321
 20
4.962205959214691
 30
0.0
 10
152.1790782368948
 20
4.960277103986366
 30
0.0
 10
152.1613782051281
 20
4.959294871794869
 30
0.0
  0
LINE
  5
13B
330
1F
100
AcDbEntity
  8
0
  6
Continuous
 62
     7
370
    15
100
AcDbLine
 10
149.9429487179
 20
5.0
 30
0.0
 11
149.6580128205
 21
5.0
 31
0.0
  0
LINE
  5
13C
330
1F
100
AcDbEntity
  8
0
  6
Continuous
 62
     7
370
    15
100
AcDbLine
 10
149.6580128205
 20
5.0
 30
0.0
 11
149.6580128205
 21
8.2564102564
 31
0.0
  0
LINE
  5
13D
330
1F
100
AcDbEntity
  8
0
  6
Continuous
 62
     7
370
    15
100
AcDbLine
 10
149.6580128205
 20
8.2564102564
 30
0.0
 11
149.9429487179
 21
8.2564102564
 31
0.0
  0
LINE
  5
13E
330
1F
100
AcDbEntity
  8
0
  6
Continuous
 62
     7
370
    15
100
AcDbLine
 10
149.9429487179
 20
8.2564102564
 30
0.0
 11
149.9429487179
 21
6.3737980769
 31
0.0
  0
LINE
  5
13F
330
1F
100
AcDbEntity
  8
0
  6
Continuous
 62
     7
370
    15
100
AcDbLine
 10
149.9429487179
 20
6.3737980769
 30
0.0
 11
150.9987379808
 21
7.3201923077
 31
0.0
  0
LINE
  5
140
330
1F
100
AcDbEntity
  8
0
  6
Continuous
 62
     7
370
    15
100
AcDbLine
 10
150.9987379808
 20
7.3201923077
 30
0.0
 11
151.4083333333
 21
7.3201923077
 31
0.0
  0
LINE
  5
141
330
1F
100
AcDbEntity
  8
0
  6
Continuous
 62
     7
370
    15
100
AcDbLine
 10
151.4083333333
 20
7.3201923077
 30
0.0
 11
150.1833633814
 21
6.2211538462
 31
0.0
  0
LINE
  5
142
330
1F
100
AcDbEntity
  8
0
  6
Continuous
 62
     7
370
    15
100
AcDbLine
 10
150.1833633814
 20
6.2211538462
 30
0.0
 11
151.5304487179
 21
5.0
 31
0.0
  0
LINE
  5
143
330
1F
100
AcDbEntity
  8
0
  6
Continuous
 62
     7
370
    15
100
AcDbLine
 10
151.5304487179
 20
5.0
 30
0.0
 11
151.121489383
 21
5.0
 31
0.0
  0
LINE
  5
144
330
1F
100
AcDbEntity
  8
0
  6
Continuous
 62
     7
370
    15
100
AcDbLine
 10
151.121489383
 20
5.0
 30
0.0
 11
149.9429487179
 21
6.069145633
 31
0.0
  0
LINE
  5
145
330
1F
100
AcDbEntity
  8
0
  6
Continuous
 62
     7
370
    15
100
AcDbLine
 10
149.9429487179
 20
6.069145633
 30
0.0
 11
149.9429487179
 21
5.0
 31
0.0
  0
MTEXT
  5
147
330
1F
100
AcDbEntity
  8
0
  6
Continuous
 62
     7
100
AcDbMText
 10
0.0
 20
-1.0195663917
 30
0.0
 40
4.83362
 41
0.0
 71
     1
 72
     1
  1
SOLIDWORKS Educational Product.
  7
SLDTEXTSTYLE0
 73
     1
 44
1.0
  0
MTEXT
  5
148
330
1F
100
AcDbEntity
  8
0
  6
Continuous
 62
     7
100
AcDbMText
 10
0.0
 20
-8.2699963917
 30
0.0
 40
4.83362
 41
0.0
 71
     1
 72
     1
  1
For Instructional Use Only.
  7
SLDTEXTSTYLE0
 73
     1
 44
1.0
  0
ENDSEC
  0
SECTION
  2
OBJECTS
  0
DICTIONARY
  5
C
330
0
100
AcDbDictionary
281
     1
  3
ACAD_GROUP
350
D
  3
ACAD_LAYOUT
350
1A
  3
ACAD_MLINESTYLE
350
17
  3
ACAD_PLOTSETTINGS
350
19
  3
ACAD_PLOTSTYLENAME
350
E
  3
ACAD_SCALELIST
350
47
  0
DICTIONARY
  5
D
102
{ACAD_REACTORS
330
C
102
}
330
C
100
AcDbDictionary
281
     1
  0
DICTIONARY
  5
1A
102
{ACAD_REACTORS
330
C
102
}
330
C
100
AcDbDictionary
281
     1
  3
Layout1
350
1E
  3
Layout2
350
26
  3
Model
350
22
  0
DICTIONARY
  5
17
102
{ACAD_REACTORS
330
C
102
}
330
C
100
AcDbDictionary
281
     1
  3
Standard
350
18
  0
DICTIONARY
  5
19
102
{ACAD_REACTORS
330
C
102
}
330
C
100
AcDbDictionary
281
     1
  0
ACDBDICTIONARYWDFLT
  5
E
102
{ACAD_REACTORS
330
C
102
}
330
C
100
AcDbDictionary
281
     1
  3
Normal
350
F
100
AcDbDictionaryWithDefault
340
F
  0
DICTIONARY
  5
47
102
{ACAD_REACTORS
330
C
102
}
330
C
100
AcDbDictionary
281
     1
  3
A0
350
48
  3
A1
350
49
  3
A2
350
4A
  3
A3
350
4B
  3
A4
350
4C
  3
A5
350
4D
  3
A6
350
4E
  3
A7
350
4F
  3
A8
350
50
  3
A9
350
51
  3
B0
350
52
  3
B1
350
53
  3
B2
350
54
  3
B3
350
55
  3
B4
350
56
  3
B5
350
57
  3
B6
350
58
  3
B7
350
59
  3
B8
350
5A
  3
B9
350
5B
  3
C0
350
5C
  3
C1
350
5D
  3
C2
350
5E
  3
C3
350
5F
  3
C4
350
60
  3
C5
350
61
  3
C6
350
62
  3
C7
350
63
  3
C8
350
64
  3
C9
350
65
  3
D0
350
66
  3
D1
350
67
  3
D2
350
68
  0
LAYOUT
  5
1E
102
{ACAD_REACTORS
330
1A
102
}
330
1A
100
AcDbPlotSettings
  1

  2
none_device
  4

  6

 40
0.0
 41
0.0
 42
0.0
 43
0.0
 44
0.0
 45
0.0
 46
0.0
 47
0.0
 48
0.0
 49
0.0
140
0.0
141
0.0
142
1.0
143
1.0
 70
   688
 72
     1
 73
     0
 74
     5
  7

 75
    16
147
1.0
148
0.0
149
0.0
100
AcDbLayout
  1
Layout1
 70
     1
 71
     1
 10
0.0
 20
0.0
 11
420.0
 21
297.0
 12
0.0
 22
0.0
 32
0.0
 14
1.0000000000E+20
 24
1.0000000000E+20
 34
1.0000000000E+20
 15
-1.0000000000E+20
 25
-1.0000000000E+20
 35
-1.0000000000E+20
146
0.0
 13
0.0
 23
0.0
 33
0.0
 16
1.0
 26
0.0
 36
0.0
 17
0.0
 27
1.0
 37
0.0
 76
     0
330
1B
  0
LAYOUT
  5
26
102
{ACAD_REACTORS
330
1A
102
}
330
1A
100
AcDbPlotSettings
  1

  2
none_device
  4

  6

 40
0.0
 41
0.0
 42
0.0
 43
0.0
 44
0.0
 45
0.0
 46
0.0
 47
0.0
 48
0.0
 49
0.0
140
0.0
141
0.0
142
1.0
143
1.0
 70
   688
 72
     1
 73
     0
 74
     5
  7

 75
    16
147
1.0
148
0.0
149
0.0
100
AcDbLayout
  1
Layout2
 70
     1
 71
     2
 10
0.0
 20
0.0
 11
0.0
 21
0.0
 12
0.0
 22
0.0
 32
0.0
 14
0.0
 24
0.0
 34
0.0
 15
0.0
 25
0.0
 35
0.0
146
0.0
 13
0.0
 23
0.0
 33
0.0
 16
1.0
 26
0.0
 36
0.0
 17
0.0
 27
1.0
 37
0.0
 76
     0
330
23
  0
LAYOUT
  5
22
102
{ACAD_REACTORS
330
1A
102
}
330
1A
100
AcDbPlotSettings
  1

  2
none_device
  4
ANSI_A_(11.00_x_8.50_Inches)
  6

 40
6.35
 41
19.05
 42
6.35000508
 43
19.05000254
 44
279.4
 45
215.9
 46
-4.95300254
 47
35.8321415871
 48
0.0
 49
0.0
140
0.0
141
0.0
142
0.0321428571
143
1.0
 70
  1696
 72
     0
 73
     0
 74
     0
  7

 75
     0
147
0.0179189148
148
-1300.4909072572
149
0.0
100
AcDbLayout
  1
Model
 70
     1
 71
     0
 10
0.0
 20
0.0
 11
420.0
 21
297.0
 12
0.0
 22
0.0
 32
0.0
 14
0.0
 24
0.0
 34
0.0
 15
338.8
 25
130.0
 35
0.0
146
0.0
 13
0.0
 23
0.0
 33
0.0
 16
1.0
 26
0.0
 36
0.0
 17
0.0
 27
1.0
 37
0.0
 76
     0
330
1F
331
29
  0
MLINESTYLE
  5
18
102
{ACAD_REACTORS
330
17
102
}
330
17
100
AcDbMlineStyle
  2
Standard
 70
     0
  3

 62
   256
 51
90.0
 52
90.0
 71
     2
 49
0.5
 62
   256
  6
BYLAYER
 49
-0.5
 62
   256
  6
BYLAYER
  0
ACDBPLACEHOLDER
  5
F
102
{ACAD_REACTORS
330
E
102
}
330
E
  0
SCALE
  5
48
102
{ACAD_REACTORS
330
47
102
}
330
47
100
AcDbScale
 70
     0
300
1:1
140
1.0
141
1.0
290
     1
  0
SCALE
  5
49
102
{ACAD_REACTORS
330
47
102
}
330
47
100
AcDbScale
 70
     0
300
1:2
140
1.0
141
2.0
290
     0
  0
SCALE
  5
4A
102
{ACAD_REACTORS
330
47
102
}
330
47
100
AcDbScale
 70
     0
300
1:4
140
1.0
141
4.0
290
     0
  0
SCALE
  5
4B
102
{ACAD_REACTORS
330
47
102
}
330
47
100
AcDbScale
 70
     0
300
1:5
140
1.0
141
5.0
290
     0
  0
SCALE
  5
4C
102
{ACAD_REACTORS
330
47
102
}
330
47
100
AcDbScale
 70
     0
300
1:8
140
1.0
141
8.0
290
     0
  0
SCALE
  5
4D
102
{ACAD_REACTORS
330
47
102
}
330
47
100
AcDbScale
 70
     0
300
1:10
140
1.0
141
10.0
290
     0
  0
SCALE
  5
4E
102
{ACAD_REACTORS
330
47
102
}
330
47
100
AcDbScale
 70
     0
300
1:16
140
1.0
141
16.0
290
     0
  0
SCALE
  5
4F
102
{ACAD_REACTORS
330
47
102
}
330
47
100
AcDbScale
 70
     0
300
1:20
140
1.0
141
20.0
290
     0
  0
SCALE
  5
50
102
{ACAD_REACTORS
330
47
102
}
330
47
100
AcDbScale
 70
     0
300
1:30
140
1.0
141
30.0
290
     0
  0
SCALE
  5
51
102
{ACAD_REACTORS
330
47
102
}
330
47
100
AcDbScale
 70
     0
300
1:40
140
1.0
141
40.0
290
     0
  0
SCALE
  5
52
102
{ACAD_REACTORS
330
47
102
}
330
47
100
AcDbScale
 70
     0
300
1:50
140
1.0
141
50.0
290
     0
  0
SCALE
  5
53
102
{ACAD_REACTORS
330
47
102
}
330
47
100
AcDbScale
 70
     0
300
1:100
140
1.0
141
100.0
290
     0
  0
SCALE
  5
54
102
{ACAD_REACTORS
330
47
102
}
330
47
100
AcDbScale
 70
     0
300
2:1
140
2.0
141
1.0
290
     0
  0
SCALE
  5
55
102
{ACAD_REACTORS
330
47
102
}
330
47
100
AcDbScale
 70
     0
300
4:1
140
4.0
141
1.0
290
     0
  0
SCALE
  5
56
102
{ACAD_REACTORS
330
47
102
}
330
47
100
AcDbScale
 70
     0
300
8:1
140
8.0
141
1.0
290
     0
  0
SCALE
  5
57
102
{ACAD_REACTORS
330
47
102
}
330
47
100
AcDbScale
 70
     0
300
10:1
140
10.0
141
1.0
290
     0
  0
SCALE
  5
58
102
{ACAD_REACTORS
330
47
102
}
330
47
100
AcDbScale
 70
     0
300
100:1
140
100.0
141
1.0
290
     0
  0
SCALE
  5
59
102
{ACAD_REACTORS
330
47
102
}
330
47
100
AcDbScale
 70
     0
300
1/128" = 1'-0"
140
0.0078125
141
12.0
290
     0
  0
SCALE
  5
5A
102
{ACAD_REACTORS
330
47
102
}
330
47
100
AcDbScale
 70
     0
300
1/64" = 1'-0"
140
0.015625
141
12.0
290
     0
  0
SCALE
  5
5B
102
{ACAD_REACTORS
330
47
102
}
330
47
100
AcDbScale
 70
     0
300
1/32" = 1'-0"
140
0.03125
141
12.0
290
     0
  0
SCALE
  5
5C
102
{ACAD_REACTORS
330
47
102
}
330
47
100
AcDbScale
 70
     0
300
1/16" = 1'-0"
140
0.0625
141
12.0
290
     0
  0
SCALE
  5
5D
102
{ACAD_REACTORS
330
47
102
}
330
47
100
AcDbScale
 70
     0
300
3/32" = 1'-0"
140
0.09375
141
12.0
290
     0
  0
SCALE
  5
5E
102
{ACAD_REACTORS
330
47
102
}
330
47
100
AcDbScale
 70
     0
300
1/8" = 1'-0"
140
0.125
141
12.0
290
     0
  0
SCALE
  5
5F
102
{ACAD_REACTORS
330
47
102
}
330
47
100
AcDbScale
 70
     0
300
3/16" = 1'-0"
140
0.1875
141
12.0
290
     0
  0
SCALE
  5
60
102
{ACAD_REACTORS
330
47
102
}
330
47
100
AcDbScale
 70
     0
300
1/4" = 1'-0"
140
0.25
141
12.0
290
     0
  0
SCALE
  5
61
102
{ACAD_REACTORS
330
47
102
}
330
47
100
AcDbScale
 70
     0
300
3/8" = 1'-0"
140
0.375
141
12.0
290
     0
  0
SCALE
  5
62
102
{ACAD_REACTORS
330
47
102
}
330
47
100
AcDbScale
 70
     0
300
1/2" = 1'-0"
140
0.5
141
12.0
290
     0
  0
SCALE
  5
63
102
{ACAD_REACTORS
330
47
102
}
330
47
100
AcDbScale
 70
     0
300
3/4" = 1'-0"
140
0.75
141
12.0
290
     0
  0
SCALE
  5
64
102
{ACAD_REACTORS
330
47
102
}
330
47
100
AcDbScale
 70
     0
300
1" = 1'-0"
140
1.0
141
12.0
290
     0
  0
SCALE
  5
65
102
{ACAD_REACTORS
330
47
102
}
330
47
100
AcDbScale
 70
     0
300
1-1/2" = 1'-0"
140
1.5
141
12.0
290
     0
  0
SCALE
  5
66
102
{ACAD_REACTORS
330
47
102
}
330
47
100
AcDbScale
 70
     0
300
3" = 1'-0"
140
3.0
141
12.0
290
     0
  0
SCALE
  5
67
102
{ACAD_REACTORS
330
47
102
}
330
47
100
AcDbScale
 70
     0
300
6" = 1'-0"
140
6.0
141
12.0
290
     0
  0
SCALE
  5
68
102
{ACAD_REACTORS
330
47
102
}
330
47
100
AcDbScale
 70
     0
300
1'-0" = 1'-0"
140
12.0
141
12.0
290
     0
  0
ENDSEC
  0
EOF
