  0
SECTION
  2
HEADER
  9
$ACADVER
  1
AC1015
  9
$ACADMAINTVER
 70
     6
  9
$DWGCODEPAGE
  3
ANSI_1252
  9
$INSBASE
 10
0.0
 20
0.0
 30
0.0
  9
$EXTMIN
 10
0.0
 20
0.0
 30
0.0
  9
$EXTMAX
 10
339.0
 20
180.0
 30
0.0
  9
$LIMMIN
 10
0.0
 20
0.0
  9
$LIMMAX
 10
420.0
 20
297.0
  9
$ORTHOMODE
 70
     0
  9
$REGENMODE
 70
     1
  9
$FILLMODE
 70
     1
  9
$QTEXTMODE
 70
     0
  9
$MIRRTEXT
 70
     1
  9
$LTSCALE
 40
1.0
  9
$ATTMODE
 70
     1
  9
$TEXTSIZE
 40
6.35
  9
$TRACEWID
 40
1.0
  9
$TEXTSTYLE
  7
Standard
  9
$CLAYER
  8
0
  9
$CELTYPE
  6
ByLayer
  9
$CECOLOR
 62
   256
  9
$CELTSCALE
 40
1.0
  9
$DISPSILH
 70
     0
  9
$DIMSCALE
 40
1.0
  9
$DIMASZ
 40
5.9944
  9
$DIMEXO
 40
0.9906
  9
$DIMDLI
 40
3.75
  9
$DIMRND
 40
0.0
  9
$DIMDLE
 40
0.0
  9
$DIMEXE
 40
0.9906
  9
$DIMTP
 40
0.0
  9
$DIMTM
 40
0.0
  9
$DIMTXT
 40
6.35
  9
$DIMCEN
 40
2.5
  9
$DIMTSZ
 40
0.0
  9
$DIMTOL
 70
     0
  9
$DIMLIM
 70
     0
  9
$DIMTIH
 70
     1
  9
$DIMTOH
 70
     1
  9
$DIMSE1
 70
     0
  9
$DIMSE2
 70
     0
  9
$DIMTAD
 70
     1
  9
$DIMZIN
 70
     0
  9
$DIMBLK
  1

  9
$DIMASO
 70
     1
  9
$DIMSHO
 70
     1
  9
$DIMPOST
  1

  9
$DIMAPOST
  1

  9
$DIMALT
 70
     0
  9
$DIMALTD
 70
     3
  9
$DIMALTF
 40
0.0393700787
  9
$DIMLFAC
 40
1.0
  9
$DIMTOFL
 70
     1
  9
$DIMTVP
 40
0.0
  9
$DIMTIX
 70
     0
  9
$DIMSOXD
 70
     0
  9
$DIMSAH
 70
     0
  9
$DIMBLK1
  1

  9
$DIMBLK2
  1

  9
$DIMSTYLE
  2
ISO-25
  9
$DIMCLRD
 70
     0
  9
$DIMCLRE
 70
     0
  9
$DIMCLRT
 70
     0
  9
$DIMTFAC
 40
1.0
  9
$DIMGAP
 40
1.524
  9
$DIMJUST
 70
     0
  9
$DIMSD1
 70
     0
  9
$DIMSD2
 70
     0
  9
$DIMTOLJ
 70
     0
  9
$DIMTZIN
 70
     0
  9
$DIMALTZ
 70
     0
  9
$DIMALTTZ
 70
     0
  9
$DIMUPT
 70
     0
  9
$DIMDEC
 70
     2
  9
$DIMTDEC
 70
     2
  9
$DIMALTU
 70
     2
  9
$DIMALTTD
 70
     3
  9
$DIMTXSTY
  7
Standard
  9
$DIMAUNIT
 70
     0
  9
$DIMADEC
 70
     2
  9
$DIMALTRND
 40
0.0
  9
$DIMAZIN
 70
     0
  9
$DIMDSEP
 70
    44
  9
$DIMATFIT
 70
     3
  9
$DIMFRAC
 70
     0
  9
$DIMLDRBLK
  1

  9
$DIMLUNIT
 70
     2
  9
$DIMLWD
 70
    -2
  9
$DIMLWE
 70
    -2
  9
$DIMTMOVE
 70
     0
  9
$LUNITS
 70
     2
  9
$LUPREC
 70
     2
  9
$SKETCHINC
 40
1.0
  9
$FILLETRAD
 40
10.0
  9
$AUNITS
 70
     0
  9
$AUPREC
 70
     2
  9
$MENU
  1
.
  9
$ELEVATION
 40
0.0
  9
$PELEVATION
 40
0.0
  9
$THICKNESS
 40
0.0
  9
$LIMCHECK
 70
     0
  9
$CHAMFERA
 40
0.0
  9
$CHAMFERB
 40
0.0
  9
$CHAMFERC
 40
0.0
  9
$CHAMFERD
 40
0.0
  9
$SKPOLY
 70
     0
  9
$TDCREATE
 40
2458002.486461574
  9
$TDUCREATE
 40
2458002.444794907
  9
$TDUPDATE
 40
2458002.486488241
  9
$TDUUPDATE
 40
2458002.444821574
  9
$TDINDWG
 40
0.0000000116
  9
$TDUSRTIMER
 40
0.0000000116
  9
$USRTIMER
 70
     1
  9
$ANGBASE
 50
0.0
  9
$ANGDIR
 70
     0
  9
$PDMODE
 70
     0
  9
$PDSIZE
 40
-1.0
  9
$PLINEWID
 40
0.0
  9
$SPLFRAME
 70
     0
  9
$SPLINETYPE
 70
     6
  9
$SPLINESEGS
 70
     8
  9
$HANDSEED
  5
1E7
  9
$SURFTAB1
 70
     6
  9
$SURFTAB2
 70
     6
  9
$SURFTYPE
 70
     6
  9
$SURFU
 70
     6
  9
$SURFV
 70
     6
  9
$UCSBASE
  2

  9
$UCSNAME
  2

  9
$UCSORG
 10
0.0
 20
0.0
 30
0.0
  9
$UCSXDIR
 10
1.0
 20
0.0
 30
0.0
  9
$UCSYDIR
 10
0.0
 20
1.0
 30
0.0
  9
$UCSORTHOREF
  2

  9
$UCSORTHOVIEW
 70
     0
  9
$UCSORGTOP
 10
0.0
 20
0.0
 30
0.0
  9
$UCSORGBOTTOM
 10
0.0
 20
0.0
 30
0.0
  9
$UCSORGLEFT
 10
0.0
 20
0.0
 30
0.0
  9
$UCSORGRIGHT
 10
0.0
 20
0.0
 30
0.0
  9
$UCSORGFRONT
 10
0.0
 20
0.0
 30
0.0
  9
$UCSORGBACK
 10
0.0
 20
0.0
 30
0.0
  9
$PUCSBASE
  2

  9
$PUCSNAME
  2

  9
$PUCSORG
 10
0.0
 20
0.0
 30
0.0
  9
$PUCSXDIR
 10
1.0
 20
0.0
 30
0.0
  9
$PUCSYDIR
 10
0.0
 20
1.0
 30
0.0
  9
$PUCSORTHOREF
  2

  9
$PUCSORTHOVIEW
 70
     0
  9
$PUCSORGTOP
 10
0.0
 20
0.0
 30
0.0
  9
$PUCSORGBOTTOM
 10
0.0
 20
0.0
 30
0.0
  9
$PUCSORGLEFT
 10
0.0
 20
0.0
 30
0.0
  9
$PUCSORGRIGHT
 10
0.0
 20
0.0
 30
0.0
  9
$PUCSORGFRONT
 10
0.0
 20
0.0
 30
0.0
  9
$PUCSORGBACK
 10
0.0
 20
0.0
 30
0.0
  9
$USERI1
 70
     0
  9
$USERI2
 70
     0
  9
$USERI3
 70
     0
  9
$USERI4
 70
     0
  9
$USERI5
 70
     0
  9
$USERR1
 40
0.0
  9
$USERR2
 40
0.0
  9
$USERR3
 40
0.0
  9
$USERR4
 40
0.0
  9
$USERR5
 40
0.0
  9
$WORLDVIEW
 70
     1
  9
$SHADEDGE
 70
     3
  9
$SHADEDIF
 70
    70
  9
$TILEMODE
 70
     1
  9
$MAXACTVP
 70
    64
  9
$PINSBASE
 10
0.0
 20
0.0
 30
0.0
  9
$PLIMCHECK
 70
     0
  9
$PEXTMIN
 10
1.0000000000E+20
 20
1.0000000000E+20
 30
1.0000000000E+20
  9
$PEXTMAX
 10
-1.0000000000E+20
 20
-1.0000000000E+20
 30
-1.0000000000E+20
  9
$PLIMMIN
 10
0.0
 20
0.0
  9
$PLIMMAX
 10
420.0
 20
297.0
  9
$UNITMODE
 70
     0
  9
$VISRETAIN
 70
     1
  9
$PLINEGEN
 70
     0
  9
$PSLTSCALE
 70
     1
  9
$TREEDEPTH
 70
  3020
  9
$CMLSTYLE
  2
Standard
  9
$CMLJUST
 70
     0
  9
$CMLSCALE
 40
20.0
  9
$PROXYGRAPHICS
 70
     1
  9
$MEASUREMENT
 70
     1
  9
$CELWEIGHT
370
    -1
  9
$ENDCAPS
280
     0
  9
$JOINSTYLE
280
     0
  9
$LWDISPLAY
290
     1
  9
$INSUNITS
 70
     4
  9
$HYPERLINKBASE
  1

  9
$STYLESHEET
  1

  9
$XEDIT
290
     1
  9
$CEPSNTYPE
380
     0
  9
$PSTYLEMODE
290
     1
  9
$FINGERPRINTGUID
  2
{4F9E9812-A5FE-462D-9858-A357311900A9}
  9
$VERSIONGUID
  2
{FAEB1C32-E019-11D5-929B-00C0DF256EC4}
  9
$EXTNAMES
290
     1
  9
$PSVPSCALE
 40
0.0
  9
$OLESTARTUP
290
     0
  0
ENDSEC
  0
SECTION
  2
CLASSES
  0
CLASS
  1
ACDBDICTIONARYWDFLT
  2
AcDbDictionaryWithDefault
  3
ObjectDBX Classes
 90
        0
280
     0
281
     0
  0
CLASS
  1
VISUALSTYLE
  2
AcDbVisualStyle
  3
ObjectDBX Classes
 90
     4095
280
     0
281
     0
  0
CLASS
  1
MATERIAL
  2
AcDbMaterial
  3
ObjectDBX Classes
 90
     1153
280
     0
281
     0
  0
CLASS
  1
SCALE
  2
AcDbScale
  3
ObjectDBX Classes
 90
     1153
280
     0
281
     0
  0
CLASS
  1
TABLESTYLE
  2
AcDbTableStyle
  3
ObjectDBX Classes
 90
     4095
280
     0
281
     0
  0
CLASS
  1
MLEADERSTYLE
  2
AcDbMLeaderStyle
  3
ACDB_MLEADERSTYLE_CLASS
 90
     4095
280
     0
281
     0
  0
CLASS
  1
SUN
  2
AcDbSun
  3
SCENEOE
 90
     1153
280
     0
281
     0
  0
CLASS
  1
ACDBPLACEHOLDER
  2
AcDbPlaceHolder
  3
ObjectDBX Classes
 90
        0
280
     0
281
     0
  0
CLASS
  1
LAYOUT
  2
AcDbLayout
  3
ObjectDBX Classes
 90
        0
280
     0
281
     0
  0
ENDSEC
  0
SECTION
  2
TABLES
  0
TABLE
  2
VPORT
  5
8
330
0
100
AcDbSymbolTable
 70
     1
  0
VPORT
  5
29
330
8
100
AcDbSymbolTableRecord
100
AcDbViewportTableRecord
  2
*Active
 70
     0
 10
0.0
 20
0.0
 11
1.0
 21
1.0
 12
169.5
 22
90.0
 13
0.0
 23
0.0
 14
10.0
 24
10.0
 15
10.0
 25
10.0
 16
0.0
 26
0.0
 36
1.0
 17
0.0
 27
0.0
 37
0.0
 40
183.6
 41
1.8833333333
 42
50.0
 43
0.0
 44
0.0
 50
0.0
 51
0.0
 71
     0
 72
   100
 73
     1
 74
     3
 75
     0
 76
     0
 77
     0
 78
     0
281
     0
 65
     1
110
0.0
120
0.0
130
0.0
111
1.0
121
0.0
131
0.0
112
0.0
122
1.0
132
0.0
 79
     0
146
0.0
  0
ENDTAB
  0
TABLE
  2
LTYPE
  5
5
330
0
100
AcDbSymbolTable
 70
     6
  0
LTYPE
  5
14
330
5
100
AcDbSymbolTableRecord
100
AcDbLinetypeTableRecord
  2
ByBlock
 70
     0
  3

 72
    65
 73
     0
 40
0.0
  0
LTYPE
  5
15
330
5
100
AcDbSymbolTableRecord
100
AcDbLinetypeTableRecord
  2
ByLayer
 70
     0
  3

 72
    65
 73
     0
 40
0.0
  0
LTYPE
  5
16
330
5
100
AcDbSymbolTableRecord
100
AcDbLinetypeTableRecord
  2
Continuous
 70
     0
  3
Solid line
 72
    65
 73
     0
 40
0.0
  0
LTYPE
  5
6E
330
5
100
AcDbSymbolTableRecord
100
AcDbLinetypeTableRecord
  2
HIDDEN
 70
     0
  3
Hidden __ __ __ __ __ __ __ __ __ __ __ __ __ __
 72
    65
 73
     2
 40
1.905
 49
1.27
 74
     0
 49
-0.635
 74
     0
  0
LTYPE
  5
6F
330
5
100
AcDbSymbolTableRecord
100
AcDbLinetypeTableRecord
  2
PHANTOM
 70
     0
  3
Phantom ______  __  __  ______  __  __  ______
 72
    65
 73
     6
 40
12.7
 49
6.35
 74
     0
 49
-1.27
 74
     0
 49
1.27
 74
     0
 49
-1.27
 74
     0
 49
1.27
 74
     0
 49
-1.27
 74
     0
  0
LTYPE
  5
70
330
5
100
AcDbSymbolTableRecord
100
AcDbLinetypeTableRecord
  2
CENTER
 70
     0
  3
Center ____ _ ____ _ ____ _ ____ _ ____ _ ____
 72
    65
 73
     4
 40
10.16
 49
6.35
 74
     0
 49
-1.27
 74
     0
 49
1.27
 74
     0
 49
-1.27
 74
     0
  0
LTYPE
  5
71
330
5
100
AcDbSymbolTableRecord
100
AcDbLinetypeTableRecord
  2
CENTERX2
 70
     0
  3
Center (2x) ________  __  ________  __  _____
 72
    65
 73
     4
 40
20.32
 49
12.7
 74
     0
 49
-2.54
 74
     0
 49
2.54
 74
     0
 49
-2.54
 74
     0
  0
LTYPE
  5
72
330
5
100
AcDbSymbolTableRecord
100
AcDbLinetypeTableRecord
  2
DOT2
 70
     0
  3
Dot (.5x) ........................................
 72
    65
 73
     2
 40
0.635
 49
0.0
 74
     0
 49
-0.635
 74
     0
  0
ENDTAB
  0
TABLE
  2
LAYER
  5
2
330
0
100
AcDbSymbolTable
 70
     1
  0
LAYER
  5
10
330
2
100
AcDbSymbolTableRecord
100
AcDbLayerTableRecord
  2
0
 70
     0
 62
     7
  6
Continuous
370
    -3
390
F
  0
ENDTAB
  0
TABLE
  2
STYLE
  5
3
330
0
100
AcDbSymbolTable
 70
     2
  0
STYLE
  5
11
330
3
100
AcDbSymbolTableRecord
100
AcDbTextStyleTableRecord
  2
Standard
 70
     0
 40
0.0
 41
1.0
 50
0.0
 71
     0
 42
6.35
  3
txt
  4

  0
STYLE
  5
1E4
330
3
100
AcDbSymbolTableRecord
100
AcDbTextStyleTableRecord
  2
SLDTEXTSTYLE0
 70
     0
 40
0.0
 41
0.7
 50
0.0
 71
     0
 42
6.35
  3
TXT
  4

  0
ENDTAB
  0
TABLE
  2
VIEW
  5
6
330
0
100
AcDbSymbolTable
 70
     0
  0
ENDTAB
  0
TABLE
  2
UCS
  5
7
330
0
100
AcDbSymbolTable
 70
     0
  0
ENDTAB
  0
TABLE
  2
APPID
  5
9
330
0
100
AcDbSymbolTable
 70
     1
  0
APPID
  5
12
330
9
100
AcDbSymbolTableRecord
100
AcDbRegAppTableRecord
  2
ACAD
 70
     0
  0
ENDTAB
  0
TABLE
  2
DIMSTYLE
  5
A
330
0
100
AcDbSymbolTable
 70
     1
100
AcDbDimStyleTable
  0
DIMSTYLE
105
27
330
A
100
AcDbSymbolTableRecord
100
AcDbDimStyleTableRecord
  2
ISO-25
 70
     0
 41
2.5
 42
0.625
 43
3.75
 44
1.25
 73
     0
 74
     0
 77
     1
 78
     8
140
2.5
141
2.5
143
0.0393700787
147
0.625
171
     3
172
     1
178
     0
271
     2
272
     2
274
     3
278
    44
283
     0
284
     8
340
11
  0
ENDTAB
  0
TABLE
  2
BLOCK_RECORD
  5
1
330
0
100
AcDbSymbolTable
 70
     1
  0
BLOCK_RECORD
  5
1F
330
1
100
AcDbSymbolTableRecord
100
AcDbBlockTableRecord
  2
*Model_Space
340
22
  0
BLOCK_RECORD
  5
1B
330
1
100
AcDbSymbolTableRecord
100
AcDbBlockTableRecord
  2
*Paper_Space
340
1E
  0
BLOCK_RECORD
  5
23
330
1
100
AcDbSymbolTableRecord
100
AcDbBlockTableRecord
  2
*Paper_Space0
340
26
  0
ENDTAB
  0
ENDSEC
  0
SECTION
  2
BLOCKS
  0
BLOCK
  5
20
330
1F
100
AcDbEntity
  8
0
100
AcDbBlockBegin
  2
*Model_Space
 70
     0
 10
0.0
 20
0.0
 30
0.0
  3
*Model_Space
  1

  0
ENDBLK
  5
21
330
1F
100
AcDbEntity
  8
0
100
AcDbBlockEnd
  0
BLOCK
  5
1C
330
1B
100
AcDbEntity
 67
     1
  8
0
100
AcDbBlockBegin
  2
*Paper_Space
 70
     0
 10
0.0
 20
0.0
 30
0.0
  3
*Paper_Space
  1

  0
ENDBLK
  5
1D
330
1B
100
AcDbEntity
 67
     1
  8
0
100
AcDbBlockEnd
  0
BLOCK
  5
24
330
23
100
AcDbEntity
  8
0
100
AcDbBlockBegin
  2
*Paper_Space0
 70
     0
 10
0.0
 20
0.0
 30
0.0
  3
*Paper_Space0
  1

  0
ENDBLK
  5
25
330
23
100
AcDbEntity
  8
0
100
AcDbBlockEnd
  0
ENDSEC
  0
SECTION
  2
ENTITIES
  0
SPLINE
  5
7E
330
1F
100
AcDbEntity
  8
0
  6
Continuous
 62
     7
370
    15
100
AcDbSpline
210
0.0
220
0.0
230
1.0
 70
     8
 71
     3
 72
    15
 73
    11
 74
     0
 42
0.000000001
 43
0.00000001
 40
0.0
 40
0.0
 40
0.0
 40
0.0
 40
0.1261777183170028
 40
0.2488206074857968
 40
0.3715399692351805
 40
0.4999837069108904
 40
0.6272441978754072
 40
0.7492255210763055
 40
0.8722979504176559
 40
1.0
 40
1.0
 40
1.0
 40
1.0
 10
152.5259615384614
 20
5.223878205128207
 30
0.0
 10
152.5248769577852
 20
5.206421755986526
 30
0.0
 10
152.5227381806198
 20
5.171997894643066
 30
0.0
 10
152.5088928146741
 20
5.121849710691365
 30
0.0
 10
152.4826781548225
 20
5.076831018779246
 30
0.0
 10
152.4498078398145
 20
5.035735507762803
 30
0.0
 10
152.4091710750866
 20
5.002224860853971
 30
0.0
 10
152.3637215429747
 20
4.977347969561091
 30
0.0
 10
152.3138366159321
 20
4.962205959214691
 30
0.0
 10
152.2790782368948
 20
4.96027710398636
 30
0.0
 10
152.2613782051282
 20
4.959294871794875
 30
0.0
  0
SPLINE
  5
7F
330
1F
100
AcDbEntity
  8
0
  6
Continuous
 62
     7
370
    15
100
AcDbSpline
210
0.0
220
0.0
230
1.0
 70
     8
 71
     3
 72
    15
 73
    11
 74
     0
 42
0.000000001
 43
0.00000001
 40
0.0
 40
0.0
 40
0.0
 40
0.0
 40
0.1275189266999397
 40
0.2499859477487675
 40
0.3717923515057172
 40
0.4988703527764677
 40
0.6259483540471683
 40
0.7484917380160536
 40
0.8709587590649217
 40
1.0
 40
1.0
 40
1.0
 40
1.0
 10
152.2613782051282
 20
5.488461538461539
 30
0.0
 10
152.279058611885
 20
5.487410915824553
 30
0.0
 10
152.3137189823422
 20
5.485351292971438
 30
0.0
 10
152.3638287630287
 20
5.471221024632059
 30
0.0
 10
152.4091810614831
 20
5.446130668347079
 30
0.0
 10
152.449578169254
 20
5.412690862261718
 30
0.0
 10
152.4828761872437
 20
5.372145510707596
 30
0.0
 10
152.5088607066741
 20
5.32715493635412
 30
0.0
 10
152.5228678861163
 20
5.276625634514614
 30
0.0
 10
152.5249125061159
 20
5.241764429369591
 30
0.0
 10
152.5259615384614
 20
5.223878205128207
 30
0.0
  0
SPLINE
  5
80
330
1F
100
AcDbEntity
  8
0
  6
Continuous
 62
     7
370
    15
100
AcDbSpline
210
0.0
220
0.0
230
1.0
 70
     8
 71
     3
 72
    15
 73
    11
 74
     0
 42
0.000000001
 43
0.00000001
 40
0.0
 40
0.0
 40
0.0
 40
0.0
 40
0.1290969581672236
 40
0.2520459672599783
 40
0.3739049644019861
 40
0.5010378352202106
 40
0.6281707060383911
 40
0.7513764634091692
 40
0.8724260133704629
 40
1.0
 40
1.0
 40
1.0
 40
1.0
 10
151.9967948717948
 20
5.223878205128207
 30
0.0
 10
151.997758347548
 20
5.241793713808687
 30
0.0
 10
151.9996394157125
 20
5.276771545807482
 30
0.0
 10
152.0148573360838
 20
5.326845021876276
 30
0.0
 10
152.0396914711688
 20
5.372354963195964
 30
0.0
 10
152.0732606509117
 20
5.412629003736652
 30
0.0
 10
152.1136505478962
 20
5.446363199726287
 30
0.0
 10
152.1592763911649
 20
5.47091483350301
 30
0.0
 10
152.209205117012
 20
5.485465778842846
 30
0.0
 10
152.2436855611448
 20
5.487445633321417
 30
0.0
 10
152.2613782051282
 20
5.488461538461539
 30
0.0
  0
SPLINE
  5
81
330
1F
100
AcDbEntity
  8
0
  6
Continuous
 62
     7
370
    15
100
AcDbSpline
210
0.0
220
0.0
230
1.0
 70
     8
 71
     3
 72
    15
 73
    11
 74
     0
 42
0.000000001
 43
0.00000001
 40
0.0
 40
0.0
 40
0.0
 40
0.0
 40
0.1277566033101213
 40
0.249414355336553
 40
0.3727964764554144
 40
0.5001113325158477
 40
0.6286099407651168
 40
0.7506433738258063
 40
0.8737683791425136
 40
0.9999999999999999
 40
0.9999999999999999
 40
0.9999999999999999
 40
0.9999999999999999
 10
152.2613782051282
 20
4.959294871794875
 30
0.0
 10
152.2436654192868
 20
4.960241563518361
 30
0.0
 10
152.2090854214834
 20
4.962089753747289
 30
0.0
 10
152.1593866981461
 20
4.977658870871135
 30
0.0
 10
152.1136603766495
 20
5.001991581235169
 30
0.0
 10
152.0730315238596
 20
5.035797991980076
 30
0.0
 10
152.0398859103475
 20
5.076619550631864
 30
0.0
 10
152.0148257416166
 20
5.122159751680789
 30
0.0
 10
151.999776106495
 20
5.171854341335768
 30
0.0
 10
151.9977968362901
 20
5.206393481626631
 30
0.0
 10
151.9967948717948
 20
5.223878205128207
 30
0.0
  0
SPLINE
  5
95
330
1F
100
AcDbEntity
  8
0
  6
Continuous
 62
     7
370
    15
100
AcDbSpline
210
0.0
220
0.0
230
1.0
 70
     8
 71
     3
 72
    19
 73
    15
 74
     0
 42
0.000000001
 43
0.00000001
 40
0.0
 40
0.0
 40
0.0
 40
0.0
 40
0.0843347219926243
 40
0.1670523184160617
 40
0.2495660772409543
 40
0.3327404818018474
 40
0.4159148863627261
 40
0.4978280095399877
 40
0.5803725886080433
 40
0.6646001210565029
 40
0.7494666931126145
 40
0.8325102339401363
 40
0.9156392816681734
 40
1.0
 40
1.0
 40
1.0
 40
1.0
 10
161.6286458333333
 20
4.918589743589746
 30
0.0
 10
161.5859223977413
 20
4.919976044514413
 30
0.0
 10
161.5012947521202
 20
4.922722063923912
 30
0.0
 10
161.3768050030619
 20
4.947184021852818
 30
0.0
 10
161.2571864087593
 20
4.986832607935879
 30
0.0
 10
161.1432770417929
 20
5.041455560614069
 30
0.0
 10
161.0377576286369
 20
5.110450925863791
 30
0.0
 10
160.943355229873
 20
5.193510993362044
 30
0.0
 10
160.8605405486663
 20
5.288860293820613
 30
0.0
 10
160.7916207139649
 20
5.396484037417257
 30
0.0
 10
160.7369574356985
 20
5.512135641724841
 30
0.0
 10
160.6959637179145
 20
5.632728633592501
 30
0.0
 10
160.6720185544083
 20
5.757823617015212
 30
0.0
 10
160.6686725064126
 20
5.842624364705812
 30
0.0
 10
160.6669871794871
 20
5.885336538461544
 30
0.0
  0
SPLINE
  5
96
330
1F
100
AcDbEntity
  8
0
  6
Continuous
 62
     7
370
    15
100
AcDbSpline
210
0.0
220
0.0
230
1.0
 70
     8
 71
     3
 72
    19
 73
    15
 74
     0
 42
0.000000001
 43
0.00000001
 40
0.0
 40
0.0
 40
0.0
 40
0.0
 40
0.0859479431441268
 40
0.1691252118806877
 40
0.2503991071860505
 40
0.3322897361388314
 40
0.4133642879158819
 40
0.4941722833711857
 40
0.5760217353866337
 40
0.660756969254004
 40
0.7457831259137403
 40
0.8300435929752084
 40
0.9140275458206809
 40
1.0
 40
1.0
 40
1.0
 40
1.0
 10
162.6208333333333
 20
5.891060697115383
 30
0.0
 10
162.6195423739026
 20
5.846629108535048
 30
0.0
 10
162.6170020712583
 20
5.759198257278456
 30
0.0
 10
162.5916893420111
 20
5.631856530754376
 30
0.0
 10
162.5523559499829
 20
5.510542034520824
 30
0.0
 10
162.4961334777886
 20
5.397191657636635
 30
0.0
 10
162.4262994589391
 20
5.291960755233665
 30
0.0
 10
162.3411390713048
 20
5.198719654458242
 30
0.0
 10
162.243672478316
 20
5.115561834891674
 30
0.0
 10
162.1334665971099
 20
5.046023330324487
 30
0.0
 10
162.01486405109
 20
4.98923341976322
 30
0.0
 10
161.8902661677213
 20
4.94844352158802
 30
0.0
 10
161.7608829706851
 20
4.923330660069114
 30
0.0
 10
161.6730673619498
 20
4.920182327649528
 30
0.0
 10
161.6286458333333
 20
4.918589743589746
 30
0.0
  0
SPLINE
  5
97
330
1F
100
AcDbEntity
  8
0
  6
Continuous
 62
     7
370
    15
100
AcDbSpline
210
0.0
220
0.0
230
1.0
 70
     8
 71
     3
 72
    23
 73
    19
 74
     0
 42
0.000000001
 43
0.00000001
 40
0.0
 40
0.0
 40
0.0
 40
0.0
 40
0.0652308037420293
 40
0.1284048960032319
 40
0.1900670715964874
 40
0.2509433657682811
 40
0.3115458328521449
 40
0.372862802156838
 40
0.4350236738562333
 40
0.4990717247070448
 40
0.5630910750496684
 40
0.6255101063303746
 40
0.6866800359296457
 40
0.7472825030135153
 40
0.808563495215961
 40
0.8707421035159876
 40
0.9343409515059121
 40
0.9999999999999999
 40
0.9999999999999999
 40
0.9999999999999999
 40
0.9999999999999999
 10
161.6788912259615
 20
6.83173076923077
 30
0.0
 10
161.7111605619227
 20
6.83086343933531
 30
0.0
 10
161.7746817894792
 20
6.829156126246446
 30
0.0
 10
161.867942245737
 20
6.816017204547428
 30
0.0
 10
161.9575579233698
 20
6.795311567302425
 30
0.0
 10
162.0431573859157
 20
6.765128877977977
 30
0.0
 10
162.1250478766027
 20
6.726573170806479
 30
0.0
 10
162.2036993359297
 20
6.680364338480612
 30
0.0
 10
162.2776333022404
 20
6.624116328442675
 30
0.0
 10
162.3478018719539
 20
6.561283118553043
 30
0.0
 10
162.4115078817319
 20
6.491689854046731
 30
0.0
 10
162.4679104464162
 20
6.417847212891944
 30
0.0
 10
162.5152876074893
 20
6.339832127986444
 30
0.0
 10
162.5537268078111
 20
6.2576841138898
 30
0.0
 10
162.5835762333963
 20
6.171529799859868
 30
0.0
 10
162.6053364542574
 20
6.081479416181105
 30
0.0
 10
162.618199370601
 20
5.987470867070854
 30
0.0
 10
162.6199460657497
 20
5.923537093793674
 30
0.0
 10
162.6208333333333
 20
5.891060697115383
 30
0.0
  0
SPLINE
  5
98
330
1F
100
AcDbEntity
  8
0
  6
Continuous
 62
     7
370
    15
100
AcDbSpline
210
0.0
220
0.0
230
1.0
 70
     8
 71
     3
 72
     9
 73
     5
 74
     0
 42
0.000000001
 43
0.00000001
 40
0.0
 40
0.0
 40
0.0
 40
0.0
 40
0.512659336341826
 40
1.0
 40
1.0
 40
1.0
 40
1.0
 10
161.3500701121795
 20
6.801201923076928
 30
0.0
 10
161.4059231491572
 20
6.810104496669828
 30
0.0
 10
161.5148708128754
 20
6.827469973043343
 30
0.0
 10
161.6251484493938
 20
6.830334680700129
 30
0.0
 10
161.6788912259615
 20
6.83173076923077
 30
0.0
  0
SPLINE
  5
9C
330
1F
100
AcDbEntity
  8
0
  6
Continuous
 62
     7
370
    15
100
AcDbSpline
210
0.0
220
0.0
230
1.0
 70
     8
 71
     3
 72
    19
 73
    15
 74
     0
 42
0.000000001
 43
0.00000001
 40
0.0
 40
0.0
 40
0.0
 40
0.0
 40
0.0978181896147146
 40
0.1997260534018264
 40
0.30527635747794
 40
0.4158114905382955
 40
0.4744722311435641
 40
0.5372738797760982
 40
0.603657420559657
 40
0.674298863090122
 40
0.7498344853162265
 40
0.8285984767571072
 40
0.9123777781577869
 40
1.0
 40
1.0
 40
1.0
 40
1.0
 10
160.6669871794871
 20
5.885336538461544
 30
0.0
 10
160.6680589188859
 20
5.918034124659063
 30
0.0
 10
160.6702472059647
 20
5.984796348256937
 30
0.0
 10
160.6855265672002
 20
6.085910145034276
 30
0.0
 10
160.7100782024679
 20
6.189370769171989
 30
0.0
 10
160.7375739259447
 20
6.277140644791402
 30
0.0
 10
160.7666257293428
 20
6.349042168283317
 30
0.0
 10
160.7908033902544
 20
6.407011763349596
 30
0.0
 10
160.8208969438054
 20
6.466666451212507
 30
0.0
 10
160.8529856538895
 20
6.530051820994698
 30
0.0
 10
160.8899579564048
 20
6.59553432064787
 30
0.0
 10
160.930158581207
 20
6.664208363659233
 30
0.0
 10
160.9746989788142
 20
6.734981769466852
 30
0.0
 10
161.0059229835909
 20
6.78300971801224
 30
0.0
 10
161.0218850160256
 20
6.807562099358969
 30
0.0
  0
SPLINE
  5
9D
330
1F
100
AcDbEntity
  8
0
  6
Continuous
 62
     7
370
    15
100
AcDbSpline
210
0.0
220
0.0
230
1.0
 70
     8
 71
     3
 72
    31
 73
    27
 74
     0
 42
0.000000001
 43
0.00000001
 40
0.0
 40
0.0
 40
0.0
 40
0.0
 40
0.0420341186638456
 40
0.0839054330862327
 40
0.1250689344486245
 40
0.1661584697031391
 40
0.2072102728707283
 40
0.2484907320562538
 40
0.2898781122327919
 40
0.332169514204085
 40
0.3744758421539223
 40
0.4162249804562081
 40
0.4576095869585081
 40
0.4990731704672244
 40
0.5405533615534514
 40
0.5822488491953596
 40
0.6245497501260037
 40
0.6674328009210374
 40
0.7103225433055266
 40
0.752467118569865
 40
0.7940647568438068
 40
0.8352157072950149
 40
0.876228344224686
 40
0.9174461887061485
 40
0.9586431404713152
 40
1.0
 40
1.0
 40
1.0
 40
1.0
 10
176.2163461538461
 20
6.167728365384609
 30
0.0
 10
176.2168171118246
 20
6.194038316755246
 30
0.0
 10
176.2177572036931
 20
6.246556317236821
 30
0.0
 10
176.2258770206761
 20
6.324461188266878
 30
0.0
 10
176.2374595925109
 20
6.401322890236302
 30
0.0
 10
176.2557909258142
 20
6.476349175914081
 30
0.0
 10
176.2778549283777
 20
6.55039448644229
 30
0.0
 10
176.3051813120546
 20
6.622911900472706
 30
0.0
 10
176.3380369008817
 20
6.693923505162819
 30
0.0
 10
176.3752386023739
 20
6.76348188725974
 30
0.0
 10
176.4170434578507
 20
6.83065365223598
 30
0.0
 10
176.4628836368684
 20
6.89444996673523
 30
0.0
 10
176.5128144799471
 20
6.954401379839423
 30
0.0
 10
176.5661471462596
 20
7.011112705391468
 30
0.0
 10
176.6235328374301
 20
7.064036774237836
 30
0.0
 10
176.6849418662005
 20
7.113045135239304
 30
0.0
 10
176.7497689075667
 20
7.158959287640931
 30
0.0
 10
176.8182148772058
 20
7.200788857779861
 30
0.0
 10
176.8892236510747
 20
7.237784181408704
 30
0.0
 10
176.9609911857868
 20
7.27154132290464
 30
0.0
 10
177.034468156127
 20
7.298332988478401
 30
0.0
 10
177.1082846740331
 20
7.321939656889167
 30
0.0
 10
177.183740739568
 20
7.338663012552884
 30
0.0
 10
177.2599111609256
 20
7.351564617721143
 30
0.0
 10
177.3370567101749
 20
7.359424757508365
 30
0.0
 10
177.388721122111
 20
7.360405909599798
 30
0.0
 10
177.4146033653846
 20
7.360897435897434
 30
0.0
  0
SPLINE
  5
9E
330
1F
100
AcDbEntity
  8
0
  6
Continuous
 62
     7
370
    15
100
AcDbSpline
210
0.0
220
0.0
230
1.0
 70
     8
 71
     3
 72
    31
 73
    27
 74
     0
 42
0.000000001
 43
0.00000001
 40
0.0
 40
0.0
 40
0.0
 40
0.0
 40
0.0428647590311963
 40
0.0852222575672431
 40
0.127202284143743
 40
0.1690253126086035
 40
0.210882033099713
 40
0.2529626777271269
 40
0.2956282851000583
 40
0.3385532936306125
 40
0.3814632477171867
 40
0.4235815621432683
 40
0.4650661653954531
 40
0.5063122188418699
 40
0.5470395054616204
 40
0.5876758328931725
 40
0.6286747862975607
 40
0.669946464602765
 40
0.7110355744560748
 40
0.7519958286352201
 40
0.7926726074835051
 40
0.8334460178854428
 40
0.874190607042242
 40
0.9154935830294668
 40
0.9574778068391474
 40
1.0
 40
1.0
 40
1.0
 40
1.0
 10
177.4056991185897
 20
5.000000000000004
 30
0.0
 10
177.3791776456145
 20
5.000467202583916
 30
0.0
 10
177.3264485541173
 20
5.001396078887957
 30
0.0
 10
177.2481124619852
 20
5.009522969837879
 30
0.0
 10
177.170932350073
 20
5.021314686061914
 30
0.0
 10
177.0950882189257
 20
5.038624277140011
 30
0.0
 10
177.0204706270721
 20
5.060841771928767
 30
0.0
 10
176.9472028827906
 20
5.088615527794397
 30
0.0
 10
176.8746917551193
 20
5.120016385079196
 30
0.0
 10
176.8042552892019
 20
5.157003142484518
 30
0.0
 10
176.7365950134642
 20
5.198153235136075
 30
0.0
 10
176.6722212669486
 20
5.242729228851675
 30
0.0
 10
176.6114712350621
 20
5.290497818899246
 30
0.0
 10
176.5549231339185
 20
5.341930042857171
 30
0.0
 10
176.5026511391042
 20
5.396951461862989
 30
0.0
 10
176.4539522016546
 20
5.454975542114007
 30
0.0
 10
176.4096316082438
 20
5.516812514620287
 30
0.0
 10
176.3687798908613
 20
5.581334826096795
 30
0.0
 10
176.3333491130229
 20
5.648972235554425
 30
0.0
 10
176.3022482900099
 20
5.718258079263849
 30
0.0
 10
176.2752069011516
 20
5.789044209404167
 30
0.0
 10
176.2536482867191
 20
5.861567616240765
 30
0.0
 10
176.2371826339673
 20
5.935782577997969
 30
0.0
 10
176.2249269280558
 20
6.011567513760308
 30
0.0
 10
176.2179755543395
 20
6.089155793967571
 30
0.0
 10
176.2168915875279
 20
6.141426589308469
 30
0.0
 10
176.2163461538461
 20
6.167728365384609
 30
0.0
  0
SPLINE
  5
9F
330
1F
100
AcDbEntity
  8
0
  6
Continuous
 62
     7
370
    15
100
AcDbSpline
210
0.0
220
0.0
230
1.0
 70
     8
 71
     3
 72
    15
 73
    11
 74
     0
 42
0.000000001
 43
0.00000001
 40
0.0
 40
0.0
 40
0.0
 40
0.0
 40
0.1265607130145274
 40
0.2508952618879497
 40
0.3747192653150376
 40
0.4998264235934758
 40
0.6249635314328795
 40
0.7490394747387523
 40
0.8731801199413541
 40
1.0
 40
1.0
 40
1.0
 40
1.0
 10
178.3330128205127
 20
5.444576322115383
 30
0.0
 10
178.3040920925833
 20
5.410157687301395
 30
0.0
 10
178.2467593434623
 20
5.341925830907771
 30
0.0
 10
178.1477471252775
 20
5.252516346193309
 30
0.0
 10
178.0396003518132
 20
5.175512499419888
 30
0.0
 10
177.9225031383483
 20
5.112358452397256
 30
0.0
 10
177.79932380439
 20
5.061847445787401
 30
0.0
 10
177.6713964953685
 20
5.026520616968441
 30
0.0
 10
177.5398679881503
 20
5.003696993496481
 30
0.0
 10
177.4507392522379
 20
5.00124107091103
 30
0.0
 10
177.4056991185897
 20
5.000000000000004
 30
0.0
  0
SPLINE
  5
A1
330
1F
100
AcDbEntity
  8
0
  6
Continuous
 62
     7
370
    15
100
AcDbSpline
210
0.0
220
0.0
230
1.0
 70
     8
 71
     3
 72
    23
 73
    19
 74
     0
 42
0.000000001
 43
0.00000001
 40
0.0
 40
0.0
 40
0.0
 40
0.0
 40
0.0981712978276953
 40
0.1892644356875805
 40
0.2744630560180384
 40
0.3550231712817346
 40
0.4309204620429262
 40
0.5010860453857559
 40
0.5666076270375989
 40
0.6297208634282989
 40
0.6627106951128602
 40
0.6987655616316113
 40
0.7386105373889598
 40
0.7825812280784425
 40
0.8304087872491277
 40
0.8825778660702764
 40
0.9392286810451782
 40
1.0
 40
1.0
 40
1.0
 40
1.0
 10
177.4146033653846
 20
4.389423076923082
 30
0.0
 10
177.464284758768
 20
4.39072042618717
 30
0.0
 10
177.5600655123176
 20
4.393221585709261
 30
0.0
 10
177.6977980728087
 20
4.41357981649447
 30
0.0
 10
177.8235234809132
 20
4.447664288549744
 30
0.0
 10
177.9365173771962
 20
4.49538761035874
 30
0.0
 10
178.0354465386552
 20
4.553853336286606
 30
0.0
 10
178.1207288450346
 20
4.619167689501186
 30
0.0
 10
178.1898029441069
 20
4.692810456521562
 30
0.0
 10
178.2362604210146
 20
4.760648237761012
 30
0.0
 10
178.2651389669792
 20
4.821085841128919
 30
0.0
 10
178.2835287817595
 20
4.873112838890456
 30
0.0
 10
178.2984730254787
 20
4.931943663627078
 30
0.0
 10
178.3109733066718
 20
4.997381081486118
 30
0.0
 10
178.321288349516
 20
5.069518584682769
 30
0.0
 10
178.3278223927884
 20
5.148521114887103
 30
0.0
 10
178.3325448075718
 20
5.234209123707672
 30
0.0
 10
178.3328532087916
 20
5.293620756226441
 30
0.0
 10
178.3330128205128
 20
5.324368990384618
 30
0.0
  0
SPLINE
  5
A2
330
1F
100
AcDbEntity
  8
0
  6
Continuous
 62
     7
370
    15
100
AcDbSpline
210
0.0
220
0.0
230
1.0
 70
     8
 71
     3
 72
    15
 73
    11
 74
     0
 42
0.000000001
 43
0.00000001
 40
0.0
 40
0.0
 40
0.0
 40
0.0
 40
0.1247164867022969
 40
0.243805373915499
 40
0.3600615340644482
 40
0.4751119996583978
 40
0.5935250978118934
 40
0.7193501703843507
 40
0.8538547713042717
 40
1.0
 40
1.0
 40
1.0
 40
1.0
 10
176.5419871794871
 20
4.837179487179489
 30
0.0
 10
176.5649036122141
 20
4.800797728443093
 30
0.0
 10
176.6097024162662
 20
4.729675870163
 30
0.0
 10
176.6934756811433
 20
4.637588935850701
 30
0.0
 10
176.7852842771869
 20
4.558891240741395
 30
0.0
 10
176.8882265612185
 20
4.495472181411247
 30
0.0
 10
177.0027308637673
 20
4.447656870639694
 30
0.0
 10
177.1288660719354
 20
4.413570708872758
 30
0.0
 10
177.2676585859378
 20
4.393163381081644
 30
0.0
 10
177.3642858230895
 20
4.390703849968592
 30
0.0
 10
177.4146033653846
 20
4.389423076923082
 30
0.0
  0
SPLINE
  5
A4
330
1F
100
AcDbEntity
  8
0
  6
Continuous
 62
     7
370
    15
100
AcDbSpline
210
0.0
220
0.0
230
1.0
 70
     8
 71
     3
 72
    19
 73
    15
 74
     0
 42
0.000000001
 43
0.00000001
 40
0.0
 40
0.0
 40
0.0
 40
0.0
 40
0.0964914237691135
 40
0.1884736749922992
 40
0.2768399149587986
 40
0.3621365621714227
 40
0.4434367545654548
 40
0.5201655209986107
 40
0.5927096635689897
 40
0.6629173343528109
 40
0.7354188002027011
 40
0.8148809699994107
 40
0.903060555739981
 40
1.0
 40
1.0
 40
1.0
 40
1.0
 10
177.4419521233974
 20
4.104487179487179
 30
0.0
 10
177.3939781141515
 20
4.105264134472569
 30
0.0
 10
177.3002719849071
 20
4.106781736303675
 30
0.0
 10
177.1636517415431
 20
4.124462780708008
 30
0.0
 10
177.0338988170388
 20
4.149458533424563
 30
0.0
 10
176.9127277027466
 20
4.187291314205324
 30
0.0
 10
176.8009041148711
 20
4.233589154889889
 30
0.0
 10
176.6991917420688
 20
4.286743147927153
 30
0.0
 10
176.6085036659633
 20
4.3476934494827
 30
0.0
 10
176.5267486197391
 20
4.417090423171205
 30
0.0
 10
176.4529601772585
 20
4.499607477227968
 30
0.0
 10
176.3835389927762
 20
4.596852142969718
 30
0.0
 10
176.3167179955194
 20
4.710305678128288
 30
0.0
 10
176.277557874025
 20
4.793574782258586
 30
0.0
 10
176.2570512820512
 20
4.837179487179489
 30
0.0
  0
SPLINE
  5
A5
330
1F
100
AcDbEntity
  8
0
  6
Continuous
 62
     7
370
    15
100
AcDbSpline
210
0.0
220
0.0
230
1.0
 70
     8
 71
     3
 72
    23
 73
    19
 74
     0
 42
0.000000001
 43
0.00000001
 40
0.0
 40
0.0
 40
0.0
 40
0.0
 40
0.0613707062984567
 40
0.1209064680177752
 40
0.179423665000029
 40
0.237606687439777
 40
0.2959384682493643
 40
0.3542182268208507
 40
0.4135370665946777
 40
0.4740867825531828
 40
0.5351211890802668
 40
0.5969876649622163
 40
0.6600198335468003
 40
0.7242774964844803
 40
0.7900118502255273
 40
0.8577476843344293
 40
0.9278290322155331
 40
0.9999999999999999
 40
0.9999999999999999
 40
0.9999999999999999
 40
0.9999999999999999
 10
178.5333583733974
 20
4.767217548076921
 30
0.0
 10
178.5232081354007
 20
4.741155404919025
 30
0.0
 10
178.5032111449839
 20
4.689810359892633
 30
0.0
 10
178.465759177489
 20
4.617026368886945
 30
0.0
 10
178.4238184220634
 20
4.548495000955
 30
0.0
 10
178.3759151554156
 20
4.48459817012864
 30
0.0
 10
178.3222659974725
 20
4.425656642485565
 30
0.0
 10
178.2641349295896
 20
4.370389871710387
 30
0.0
 10
178.2003898273714
 20
4.319967091296631
 30
0.0
 10
178.1310671384417
 20
4.275258285746514
 30
0.0
 10
178.0577648854666
 20
4.234992886621616
 30
0.0
 10
177.9805252071632
 20
4.200116357819334
 30
0.0
 10
177.899783652362
 20
4.169739006818773
 30
0.0
 10
177.8147817435542
 20
4.146985327835361
 30
0.0
 10
177.7268521737155
 20
4.127268831321085
 30
0.0
 10
177.6349609326639
 20
4.114437580636232
 30
0.0
 10
177.539644895562
 20
4.105704463621032
 30
0.0
 10
177.4748337293462
 20
4.10489689513277
 30
0.0
 10
177.4419521233974
 20
4.104487179487179
 30
0.0
  0
SPLINE
  5
A6
330
1F
100
AcDbEntity
  8
0
  6
Continuous
 62
     7
370
    15
100
AcDbSpline
210
0.0
220
0.0
230
1.0
 70
     8
 71
     3
 72
    15
 73
    11
 74
     0
 42
0.000000001
 43
0.00000001
 40
0.0
 40
0.0
 40
0.0
 40
0.0
 40
0.1634452548497624
 40
0.315488712712919
 40
0.4562908239366651
 40
0.5858641495747716
 40
0.7054286858067529
 40
0.8133707129824367
 40
0.9117182381600958
 40
1.0
 40
1.0
 40
1.0
 40
1.0
 10
178.6179487179487
 20
5.478921274038457
 30
0.0
 10
178.6176974007594
 20
5.439698598930843
 30
0.0
 10
178.6172122980464
 20
5.363989387976789
 30
0.0
 10
178.6137189169798
 20
5.254516948613647
 30
0.0
 10
178.6063523026441
 20
5.153401285309722
 30
0.0
 10
178.5979987131306
 20
5.060181236446637
 30
0.0
 10
178.5859820490407
 20
4.975288893749374
 30
0.0
 10
178.5713077730458
 20
4.898470943795114
 30
0.0
 10
178.5547654069579
 20
4.829653669361639
 30
0.0
 10
178.5402327811244
 20
4.787267563572381
 30
0.0
 10
178.5333583733974
 20
4.767217548076921
 30
0.0
  0
SPLINE
  5
AA
330
1F
100
AcDbEntity
  8
0
  6
Continuous
 62
     7
370
    15
100
AcDbSpline
210
0.0
220
0.0
230
1.0
 70
     8
 71
     3
 72
    15
 73
    11
 74
     0
 42
0.000000001
 43
0.00000001
 40
0.0
 40
0.0
 40
0.0
 40
0.0
 40
0.1209110787487092
 40
0.2387622286387334
 40
0.3547548590848714
 40
0.470359399450219
 40
0.5891440987928731
 40
0.7163289048363523
 40
0.852445285857603
 40
1.0
 40
1.0
 40
1.0
 40
1.0
 10
177.4146033653846
 20
7.360897435897434
 30
0.0
 10
177.4572852886017
 20
7.359666739420067
 30
0.0
 10
177.5415689722422
 20
7.357236492028712
 30
0.0
 10
177.6656035244452
 20
7.338167310145388
 30
0.0
 10
177.7852939849958
 20
7.307765312319248
 30
0.0
 10
177.9013157563598
 20
7.264208276070717
 30
0.0
 10
178.0146139540539
 20
7.204745027009657
 30
0.0
 10
178.1248151699422
 20
7.126419638457477
 30
0.0
 10
178.2322382416581
 20
7.028529544557766
 30
0.0
 10
178.2985302736548
 20
6.953460874738942
 30
0.0
 10
178.3330128205127
 20
6.914413060897434
 30
0.0
  0
CIRCLE
  5
BB
330
1F
100
AcDbEntity
  8
0
  6
Continuous
 62
     7
370
    15
100
AcDbCircle
 10
169.5
 20
33.0
 30
0.0
 40
2.000000000000028
  0
CIRCLE
  5
BC
330
1F
100
AcDbEntity
  8
0
  6
Continuous
 62
     7
370
    15
100
AcDbCircle
 10
169.5
 20
155.0
 30
0.0
 40
2.000000000000028
  0
SPLINE
  5
DE
330
1F
100
AcDbEntity
  8
0
  6
Continuous
 62
     7
370
    15
100
AcDbSpline
210
0.0
220
0.0
230
1.0
 70
     8
 71
     3
 72
    15
 73
    11
 74
     0
 42
0.000000001
 43
0.00000001
 40
0.0
 40
0.0
 40
0.0
 40
0.0
 40
0.1298621417207362
 40
0.2546535308972849
 40
0.3760145541937065
 40
0.4952552518175966
 40
0.6147977192994417
 40
0.7381055541683285
 40
0.8651963000723482
 40
1.0
 40
1.0
 40
1.0
 40
1.0
 10
185.6980969551281
 20
7.360897435897434
 30
0.0
 10
185.745449684421
 20
7.359593189855892
 30
0.0
 10
185.8383061516889
 20
7.357035624924054
 30
0.0
 10
185.9741308458096
 20
7.335751579427549
 30
0.0
 10
186.1026226221935
 20
7.299793827079945
 30
0.0
 10
186.2247733558207
 20
7.250882953872898
 30
0.0
 10
186.3401444067782
 20
7.185887321062872
 30
0.0
 10
186.4476435425505
 20
7.103899784991444
 30
0.0
 10
186.5483958024083
 20
7.00543742252567
 30
0.0
 10
186.6067979241278
 20
6.929808519328589
 30
0.0
 10
186.6368589743589
 20
6.890880408653849
 30
0.0
  0
SPLINE
  5
DF
330
1F
100
AcDbEntity
  8
0
  6
Continuous
 62
     7
370
    15
100
AcDbSpline
210
0.0
220
0.0
230
1.0
 70
     8
 71
     3
 72
    23
 73
    19
 74
     0
 42
0.000000001
 43
0.00000001
 40
0.0
 40
0.0
 40
0.0
 40
0.0
 40
0.0637745323056322
 40
0.1260788099895052
 40
0.1869040927472074
 40
0.2475739349176179
 40
0.3080033561644465
 40
0.3691318984609757
 40
0.4320332277442043
 40
0.496790794437088
 40
0.5616108232295588
 40
0.6249138657484558
 40
0.6867263492419242
 40
0.7480788332577681
 40
0.8095822911398951
 40
0.8716307425688212
 40
0.9348858208285478
 40
0.9999999999999999
 40
0.9999999999999999
 40
0.9999999999999999
 40
0.9999999999999999
 10
184.4794871794871
 20
6.166456330128203
 30
0.0
 10
184.4806238035292
 20
6.206791261223324
 30
0.0
 10
184.4828708479439
 20
6.286531244091578
 30
0.0
 10
184.4996105545133
 20
6.403805491550188
 30
0.0
 10
184.5277601123684
 20
6.516761342358193
 30
0.0
 10
184.5672642313224
 20
6.625035140854038
 30
0.0
 10
184.6179208618961
 20
6.728757900631669
 30
0.0
 10
184.6795413408365
 20
6.828002980466666
 30
0.0
 10
184.7521301182418
 20
6.923043791021502
 30
0.0
 10
184.835816230321
 20
7.011645546778536
 30
0.0
 10
184.9264713432542
 20
7.093488532580045
 30
0.0
 10
185.0234528348703
 20
7.164616738088575
 30
0.0
 10
185.1243482400685
 20
7.226045593800245
 30
0.0
 10
185.2307225424709
 20
7.274716961592445
 30
0.0
 10
185.3410012732666
 20
7.314095220714911
 30
0.0
 10
185.4561661847658
 20
7.341339413206097
 30
0.0
 10
185.5757381168501
 20
7.357393411759533
 30
0.0
 10
185.6569187775087
 20
7.359718204953722
 30
0.0
 10
185.6980969551281
 20
7.360897435897434
 30
0.0
  0
SPLINE
  5
E0
330
1F
100
AcDbEntity
  8
0
  6
Continuous
 62
     7
370
    15
100
AcDbSpline
210
0.0
220
0.0
230
1.0
 70
     8
 71
     3
 72
    23
 73
    19
 74
     0
 42
0.000000001
 43
0.00000001
 40
0.0
 40
0.0
 40
0.0
 40
0.0
 40
0.064619991340761
 40
0.1274334841444646
 40
0.1890041265579311
 40
0.2499300706860425
 40
0.3106684537406677
 40
0.3723289611368265
 40
0.4349391099970016
 40
0.4995755441940359
 40
0.5641912077719244
 40
0.6267352169294734
 40
0.6881093335614032
 40
0.7492936065367489
 40
0.810330527810947
 40
0.8719011702244153
 40
0.935045914684531
 40
0.9999999999999999
 40
0.9999999999999999
 40
0.9999999999999999
 40
0.9999999999999999
 10
185.6891927083333
 20
4.959294871794875
 30
0.0
 10
185.6482189216423
 20
4.960407366639025
 30
0.0
 10
185.5674168000654
 20
4.962601255730351
 30
0.0
 10
185.4485547086607
 20
4.97962134544122
 30
0.0
 10
185.3341710252287
 20
5.006954123645102
 30
0.0
 10
185.2241576628855
 20
5.044964216255485
 30
0.0
 10
185.1192265023845
 20
5.095383961598713
 30
0.0
 10
185.0184791289747
 20
5.155746379464837
 30
0.0
 10
184.9224374726431
 20
5.227629132466591
 30
0.0
 10
184.8325654337259
 20
5.309805415329549
 30
0.0
 10
184.7498049762419
 20
5.399063725131825
 30
0.0
 10
184.6771779646491
 20
5.494264328368567
 30
0.0
 10
184.6166233850665
 20
5.594995561185464
 30
0.0
 10
184.5659865975678
 20
5.699982065070247
 30
0.0
 10
184.5269827708251
 20
5.810032027790387
 30
0.0
 10
184.4997924026054
 20
5.924764887278624
 30
0.0
 10
184.4827921402413
 20
6.044044986846908
 30
0.0
 10
184.4805991580485
 20
6.125270125655072
 30
0.0
 10
184.4794871794871
 20
6.166456330128203
 30
0.0
  0
SPLINE
  5
E1
330
1F
100
AcDbEntity
  8
0
  6
Continuous
 62
     7
370
    15
100
AcDbSpline
210
0.0
220
0.0
230
1.0
 70
     8
 71
     3
 72
    15
 73
    11
 74
     0
 42
0.000000001
 43
0.00000001
 40
0.0
 40
0.0
 40
0.0
 40
0.0
 40
0.1342983790141795
 40
0.2620849753822926
 40
0.3862699121344926
 40
0.5071645966228006
 40
0.6273002357254971
 40
0.7481449416029825
 40
0.8723701771613424
 40
1.0
 40
1.0
 40
1.0
 40
1.0
 10
186.6368589743589
 20
5.401327123397443
 30
0.0
 10
186.6047290714338
 20
5.365005491735686
 30
0.0
 10
186.5420271618575
 20
5.294123370821121
 30
0.0
 10
186.4373055762692
 20
5.201520257204481
 30
0.0
 10
186.3263001577433
 20
5.12497706552173
 30
0.0
 10
186.2095496735747
 20
5.063155356279242
 30
0.0
 10
186.0871595528264
 20
5.016716848030345
 30
0.0
 10
185.9594011022258
 20
4.983709403680509
 30
0.0
 10
185.8262222067264
 20
4.96248785320283
 30
0.0
 10
185.7352789991669
 20
4.960368747650213
 30
0.0
 10
185.6891927083333
 20
4.959294871794875
 30
0.0
  0
SPLINE
  5
F4
330
1F
100
AcDbEntity
  8
0
  6
Continuous
 62
     7
370
    15
100
AcDbSpline
210
0.0
220
0.0
230
1.0
 70
     8
 71
     3
 72
    11
 73
     7
 74
     0
 42
0.000000001
 43
0.00000001
 40
0.0
 40
0.0
 40
0.0
 40
0.0
 40
0.2462523706929746
 40
0.4925907964763823
 40
0.740569991118088
 40
1.0
 40
1.0
 40
1.0
 40
1.0
 10
170.9901893028846
 20
6.394786658653839
 30
0.0
 10
170.9737422589106
 20
6.421225895150498
 30
0.0
 10
170.9408424233963
 20
6.474113607571164
 30
0.0
 10
170.9088972142562
 20
6.56238811146384
 30
0.0
 10
170.8869388880606
 20
6.655320413469723
 30
0.0
 10
170.8849772912641
 20
6.719443488483662
 30
0.0
 10
170.8839743589743
 20
6.752228565705121
 30
0.0
  0
SPLINE
  5
F5
330
1F
100
AcDbEntity
  8
0
  6
Continuous
 62
     7
370
    15
100
AcDbSpline
210
0.0
220
0.0
230
1.0
 70
     8
 71
     3
 72
    15
 73
    11
 74
     0
 42
0.000000001
 43
0.00000001
 40
0.0
 40
0.0
 40
0.0
 40
0.0
 40
0.1577616635135723
 40
0.3059502132085292
 40
0.4437754990007189
 40
0.5728243624015233
 40
0.6921541564432542
 40
0.8022957069908392
 40
0.9055643918329922
 40
1.0
 40
1.0
 40
1.0
 40
1.0
 10
171.3902443910256
 20
6.078049879807687
 30
0.0
 10
171.3666163675613
 20
6.091238949246
 30
0.0
 10
171.3207940894767
 20
6.116816764012933
 30
0.0
 10
171.2558904755563
 20
6.156654922533006
 30
0.0
 10
171.1973368042293
 20
6.197174521707149
 30
0.0
 10
171.1437241401616
 20
6.236102597312318
 30
0.0
 10
171.09640665644
 20
6.275491596464705
 30
0.0
 10
171.0555707604776
 20
6.315385246010191
 30
0.0
 10
171.0196087004018
 20
6.354174661953552
 30
0.0
 10
170.9996992626171
 20
6.381658638168364
 30
0.0
 10
170.9901893028846
 20
6.394786658653839
 30
0.0
  0
SPLINE
  5
F6
330
1F
100
AcDbEntity
  8
0
  6
Continuous
 62
     7
370
    15
100
AcDbSpline
210
0.0
220
0.0
230
1.0
 70
     8
 71
     3
 72
    15
 73
    11
 74
     0
 42
0.000000001
 43
0.00000001
 40
0.0
 40
0.0
 40
0.0
 40
0.0
 40
0.0768750740350495
 40
0.1674616757257369
 40
0.2722700232466165
 40
0.3895508405125279
 40
0.520801368348045
 40
0.6662632933752073
 40
0.8255449152058482
 40
1.0
 40
1.0
 40
1.0
 40
1.0
 10
171.741962139423
 20
5.838907251602563
 30
0.0
 10
171.734684681621
 20
5.847103615840233
 30
0.0
 10
171.7188317501756
 20
5.864958257378178
 30
0.0
 10
171.6897530670275
 20
5.890743864631218
 30
0.0
 10
171.6549352348883
 20
5.918536997434582
 30
0.0
 10
171.613986658514
 20
5.947866367400412
 30
0.0
 10
171.5668247894706
 20
5.97834510220116
 30
0.0
 10
171.5132584796527
 20
6.009813300313235
 30
0.0
 10
171.454021549841
 20
6.043765594421324
 30
0.0
 10
171.4121381914312
 20
6.066280567482734
 30
0.0
 10
171.3902443910256
 20
6.078049879807687
 30
0.0
  0
SPLINE
  5
F7
330
1F
100
AcDbEntity
  8
0
  6
Continuous
 62
     7
370
    15
100
AcDbSpline
210
0.0
220
0.0
230
1.0
 70
     8
 71
     3
 72
    11
 73
     7
 74
     0
 42
0.000000001
 43
0.00000001
 40
0.0
 40
0.0
 40
0.0
 40
0.0
 40
0.2534754346498636
 40
0.5004533151028979
 40
0.7455781350009623
 40
1.0
 40
1.0
 40
1.0
 40
1.0
 10
171.8201923076923
 20
5.617573116987185
 30
0.0
 10
171.819206883542
 20
5.637811128202067
 30
0.0
 10
171.8172612954678
 20
5.677768372254421
 30
0.0
 10
171.8019820415782
 20
5.735599038773021
 30
0.0
 10
171.7778403827424
 20
5.790453314820615
 30
0.0
 10
171.7540690231643
 20
5.82255678053277
 30
0.0
 10
171.741962139423
 20
5.838907251602563
 30
0.0
  0
SPLINE
  5
F8
330
1F
100
AcDbEntity
  8
0
  6
Continuous
 62
     7
370
    15
100
AcDbSpline
210
0.0
220
0.0
230
1.0
 70
     8
 71
     3
 72
    15
 73
    11
 74
     0
 42
0.000000001
 43
0.00000001
 40
0.0
 40
0.0
 40
0.0
 40
0.0
 40
0.1340420464623707
 40
0.2618956736507242
 40
0.3878360446910996
 40
0.5176862058208266
 40
0.6445086536782142
 40
0.7647182630567263
 40
0.8802907821585007
 40
1.0
 40
1.0
 40
1.0
 40
1.0
 10
171.4105969551282
 20
5.244230769230765
 30
0.0
 10
171.4380996451044
 20
5.245474303211095
 30
0.0
 10
171.4918352878272
 20
5.247903960009682
 30
0.0
 10
171.5688006974271
 20
5.269963036351022
 30
0.0
 10
171.6398650228499
 20
5.304552349792338
 30
0.0
 10
171.7015719148563
 20
5.353614897409001
 30
0.0
 10
171.7540974466819
 20
5.410724595410144
 30
0.0
 10
171.7921322906088
 20
5.475053832204021
 30
0.0
 10
171.8159685354913
 20
5.544714653629254
 30
0.0
 10
171.8187679771292
 20
5.593003956719425
 30
0.0
 10
171.8201923076923
 20
5.617573116987185
 30
0.0
  0
SPLINE
  5
F9
330
1F
100
AcDbEntity
  8
0
  6
Continuous
 62
     7
370
    15
100
AcDbSpline
210
0.0
220
0.0
230
1.0
 70
     8
 71
     3
 72
    15
 73
    11
 74
     0
 42
0.000000001
 43
0.00000001
 40
0.0
 40
0.0
 40
0.0
 40
0.0
 40
0.1474758177483448
 40
0.2859041715443824
 40
0.4171716482444169
 40
0.5405007435864904
 40
0.6592377183802413
 40
0.7750060983159592
 40
0.8872285734285908
 40
1.0
 40
1.0
 40
1.0
 40
1.0
 10
170.9507562099359
 20
5.488461538461539
 30
0.0
 10
170.9686926131359
 20
5.469089716354167
 30
0.0
 10
171.0034650427837
 20
5.431534510114439
 30
0.0
 10
171.0590740037355
 20
5.381528858219645
 30
0.0
 10
171.115661031879
 20
5.3396177051213
 30
0.0
 10
171.1726610689856
 20
5.304562607417157
 30
0.0
 10
171.2309178688364
 20
5.277552063124233
 30
0.0
 10
171.2901049617482
 20
5.258575910077654
 30
0.0
 10
171.3501019607183
 20
5.246380107130355
 30
0.0
 10
171.3903991839263
 20
5.244948379597616
 30
0.0
 10
171.4105969551282
 20
5.244230769230765
 30
0.0
  0
SPLINE
  5
FB
330
1F
100
AcDbEntity
  8
0
  6
Continuous
 62
     7
370
    15
100
AcDbSpline
210
0.0
220
0.0
230
1.0
 70
     8
 71
     3
 72
    15
 73
    11
 74
     0
 42
0.000000001
 43
0.00000001
 40
0.0
 40
0.0
 40
0.0
 40
0.0
 40
0.1267425189618462
 40
0.2517239612496193
 40
0.3772186880262417
 40
0.5046935492516225
 40
0.6314582385934971
 40
0.7554010672029496
 40
0.8777005336014617
 40
1.0
 40
1.0
 40
1.0
 40
1.0
 10
171.4252253605769
 20
4.959294871794875
 30
0.0
 10
171.393142280001
 20
4.960195392804484
 30
0.0
 10
171.3294219105638
 20
4.961983922159768
 30
0.0
 10
171.2351790939075
 20
4.978771563358311
 30
0.0
 10
171.1430852628331
 20
5.004893099314608
 30
0.0
 10
171.0538373369837
 20
5.040921125300899
 30
0.0
 10
170.9694312193843
 20
5.086414986249982
 30
0.0
 10
170.8922053092108
 20
5.140900157574666
 30
0.0
 10
170.8218913396927
 20
5.202576798076771
 30
0.0
 10
170.7818697628036
 20
5.249850652777721
 30
0.0
 10
170.7618589743589
 20
5.273487580128203
 30
0.0
  0
SPLINE
  5
FC
330
1F
100
AcDbEntity
  8
0
  6
Continuous
 62
     7
370
    15
100
AcDbSpline
210
0.0
220
0.0
230
1.0
 70
     8
 71
     3
 72
    23
 73
    19
 74
     0
 42
0.000000001
 43
0.00000001
 40
0.0
 40
0.0
 40
0.0
 40
0.0
 40
0.0645481255642519
 40
0.1271991327555133
 40
0.1885973380874271
 40
0.2486395150940182
 40
0.3095246994640546
 40
0.3700369910533546
 40
0.4318892436070759
 40
0.4957042857252937
 40
0.5595193278435191
 40
0.6213715803972432
 40
0.682397107291657
 40
0.7435684819321835
 40
0.8054984835712246
 40
0.8686397008205408
 40
0.9330662250811784
 40
1.0
 40
1.0
 40
1.0
 40
1.0
 10
172.1051282051282
 20
5.629657451923078
 30
0.0
 10
172.104475485167
 20
5.606734726400997
 30
0.0
 10
172.1031892291795
 20
5.56156299164784
 30
0.0
 10
172.0942465541716
 20
5.495037824704771
 30
0.0
 10
172.078865968507
 20
5.431415761796746
 30
0.0
 10
172.0579166345603
 20
5.370006467817504
 30
0.0
 10
172.0296279534261
 20
5.311986572593089
 30
0.0
 10
171.996473880296
 20
5.255892261011446
 30
0.0
 10
171.9566730675071
 20
5.202936952366802
 30
0.0
 10
171.9112330339119
 20
5.153190181348272
 30
0.0
 10
171.8614803358024
 20
5.107755253331264
 30
0.0
 10
171.8084069102959
 20
5.067819238038354
 30
0.0
 10
171.7519473996713
 20
5.034641089293482
 30
0.0
 10
171.6925052298094
 20
5.007186097537391
 30
0.0
 10
171.6299453436152
 20
4.985352749257474
 30
0.0
 10
171.5642579597623
 20
4.970237453048684
 30
0.0
 10
171.4956518752581
 20
4.961190734056098
 30
0.0
 10
171.4489976921678
 20
4.959934816374398
 30
0.0
 10
171.4252253605769
 20
4.959294871794875
 30
0.0
  0
SPLINE
  5
FD
330
1F
100
AcDbEntity
  8
0
  6
Continuous
 62
     7
370
    15
100
AcDbSpline
210
0.0
220
0.0
230
1.0
 70
     8
 71
     3
 72
    11
 73
     7
 74
     0
 42
0.000000001
 43
0.00000001
 40
0.0
 40
0.0
 40
0.0
 40
0.0
 40
0.2488386141270928
 40
0.4952350254576713
 40
0.7433356038750085
 40
1.0
 40
1.0
 40
1.0
 40
1.0
 10
171.9970052083333
 20
5.988371394230765
 30
0.0
 10
172.0135247581999
 20
5.961460014356379
 30
0.0
 10
172.0464017283898
 20
5.907901373773422
 30
0.0
 10
172.0809260129606
 20
5.819710371735995
 30
0.0
 10
172.1009378337109
 20
5.726174415953674
 30
0.0
 10
172.1037157049137
 20
5.662191616276388
 30
0.0
 10
172.1051282051282
 20
5.629657451923078
 30
0.0
  0
SPLINE
  5
FE
330
1F
100
AcDbEntity
  8
0
  6
Continuous
 62
     7
370
    15
100
AcDbSpline
210
0.0
220
0.0
230
1.0
 70
     8
 71
     3
 72
    15
 73
    11
 74
     0
 42
0.000000001
 43
0.00000001
 40
0.0
 40
0.0
 40
0.0
 40
0.0
 40
0.1589891012268005
 40
0.3071145916055753
 40
0.446213158596206
 40
0.5748760724117438
 40
0.6941521095829494
 40
0.8045811801532385
 40
0.906593319045767
 40
1.0
 40
1.0
 40
1.0
 40
1.0
 10
171.5791416266025
 20
6.314012419871798
 30
0.0
 10
171.6038282286835
 20
6.30018311517612
 30
0.0
 10
171.6515146150943
 20
6.273469452220431
 30
0.0
 10
171.7192716253903
 20
6.232004221179616
 30
0.0
 10
171.7807641554139
 20
6.190791429160042
 30
0.0
 10
171.8365132253524
 20
6.150271830713941
 30
0.0
 10
171.8854461519446
 20
6.109311729375816
 30
0.0
 10
171.9290475675645
 20
6.069481121264
 30
0.0
 10
171.9662299416977
 20
6.029576534463551
 30
0.0
 10
171.9870524323355
 20
6.001697209910908
 30
0.0
 10
171.9970052083333
 20
5.988371394230765
 30
0.0
  0
SPLINE
  5
FF
330
1F
100
AcDbEntity
  8
0
  6
Continuous
 62
     7
370
    15
100
AcDbSpline
210
0.0
220
0.0
230
1.0
 70
     8
 71
     3
 72
    15
 73
    11
 74
     0
 42
0.000000001
 43
0.00000001
 40
0.0
 40
0.0
 40
0.0
 40
0.0
 40
0.0834251049856371
 40
0.1775598214659387
 40
0.2839823599504449
 40
0.4022167468072059
 40
0.5335684803800526
 40
0.6761209941988388
 40
0.8316493725539897
 40
1.0
 40
1.0
 40
1.0
 40
1.0
 10
171.2477764423076
 20
6.553155048076922
 30
0.0
 10
171.2550004688005
 20
6.544279032289102
 30
0.0
 10
171.2703758987093
 20
6.525387551374731
 30
0.0
 10
171.2992307658668
 20
6.499167627203067
 30
0.0
 10
171.331908322033
 20
6.470191442389889
 30
0.0
 10
171.3712056941187
 20
6.441220168845074
 30
0.0
 10
171.4154298408421
 20
6.41071138955078
 30
0.0
 10
171.4655397629503
 20
6.379866597495246
 30
0.0
 10
171.5199452067454
 20
6.346334583489391
 30
0.0
 10
171.5588954777476
 20
6.325067131246115
 30
0.0
 10
171.5791416266025
 20
6.314012419871798
 30
0.0
  0
SPLINE
  5
100
330
1F
100
AcDbEntity
  8
0
  6
Continuous
 62
     7
370
    15
100
AcDbSpline
210
0.0
220
0.0
230
1.0
 70
     8
 71
     3
 72
    11
 73
     7
 74
     0
 42
0.000000001
 43
0.00000001
 40
0.0
 40
0.0
 40
0.0
 40
0.0
 40
0.2400399314959816
 40
0.4794031936060911
 40
0.7317567388575391
 40
1.0
 40
1.0
 40
1.0
 40
1.0
 10
171.1689102564102
 20
6.763676883012826
 30
0.0
 10
171.1699179218223
 20
6.745341671532401
 30
0.0
 10
171.1719304120512
 20
6.708722935289763
 30
0.0
 10
171.1875756139071
 20
6.654704361734431
 30
0.0
 10
171.2124912650987
 20
6.602038334230981
 30
0.0
 10
171.2357777984836
 20
6.56977769775327
 30
0.0
 10
171.2477764423076
 20
6.553155048076922
 30
0.0
  0
SPLINE
  5
101
330
1F
100
AcDbEntity
  8
0
  6
Continuous
 62
     7
370
    15
100
AcDbSpline
210
0.0
220
0.0
230
1.0
 70
     8
 71
     3
 72
    15
 73
    11
 74
     0
 42
0.000000001
 43
0.00000001
 40
0.0
 40
0.0
 40
0.0
 40
0.0
 40
0.1249584925460573
 40
0.2459006286062905
 40
0.3691660295860963
 40
0.4985108411773664
 40
0.6285038663666076
 40
0.7510283288509991
 40
0.8737241742784349
 40
1.0
 40
1.0
 40
1.0
 40
1.0
 10
171.4703826121795
 20
7.075961538461545
 30
0.0
 10
171.450299022823
 20
7.074986475117479
 30
0.0
 10
171.4107773612952
 20
7.073067688451992
 30
0.0
 10
171.3541482260926
 20
7.053914790934021
 30
0.0
 10
171.3015787305406
 20
7.024515435331086
 30
0.0
 10
171.2560791843921
 20
6.98281536310602
 30
0.0
 10
171.2175367889443
 20
6.934950633526269
 30
0.0
 10
171.1894029497347
 20
6.881432538808296
 30
0.0
 10
171.1721980931566
 20
6.823876099160422
 30
0.0
 10
171.1700166576613
 20
6.783934728275542
 30
0.0
 10
171.1689102564102
 20
6.763676883012826
 30
0.0
  0
SPLINE
  5
102
330
1F
100
AcDbEntity
  8
0
  6
Continuous
 62
     7
370
    15
100
AcDbSpline
210
0.0
220
0.0
230
1.0
 70
     8
 71
     3
 72
    15
 73
    11
 74
     0
 42
0.000000001
 43
0.00000001
 40
0.0
 40
0.0
 40
0.0
 40
0.0
 40
0.1582230975562946
 40
0.3050355053581552
 40
0.4413089638879047
 40
0.5659632271047437
 40
0.683525114415045
 40
0.7933341296296075
 40
0.898517512161031
 40
1.0
 40
1.0
 40
1.0
 40
1.0
 10
171.8710737179487
 20
6.83173076923077
 30
0.0
 10
171.854390904034
 20
6.851064837691615
 30
0.0
 10
171.8222284027819
 20
6.88833864559113
 30
0.0
 10
171.771218416444
 20
6.938174413062145
 30
0.0
 10
171.7203970046301
 20
6.980027207674127
 30
0.0
 10
171.670459866603
 20
7.015362471113271
 30
0.0
 10
171.6201512939429
 20
7.042077054105714
 30
0.0
 10
171.5700616610656
 20
7.061575964580125
 30
0.0
 10
171.5201391054129
 20
7.073642602572358
 30
0.0
 10
171.4867689163247
 20
7.075197843387712
 30
0.0
 10
171.4703826121795
 20
7.075961538461545
 30
0.0
  0
SPLINE
  5
104
330
1F
100
AcDbEntity
  8
0
  6
Continuous
 62
     7
370
    15
100
AcDbSpline
210
0.0
220
0.0
230
1.0
 70
     8
 71
     3
 72
    15
 73
    11
 74
     0
 42
0.000000001
 43
0.00000001
 40
0.0
 40
0.0
 40
0.0
 40
0.0
 40
0.1057142614175236
 40
0.2134116126389716
 40
0.3261267300734497
 40
0.4444516715568521
 40
0.5690610798550754
 40
0.7027122044812105
 40
0.8463179465861916
 40
1.0
 40
1.0
 40
1.0
 40
1.0
 10
171.4703826121795
 20
7.360897435897434
 30
0.0
 10
171.4950496983233
 20
7.359895641121953
 30
0.0
 10
171.5448465995405
 20
7.357873258940953
 30
0.0
 10
171.6195540103127
 20
7.341811668178072
 30
0.0
 10
171.6941513992063
 20
7.315383780887835
 30
0.0
 10
171.7688304381055
 20
7.278883769216593
 30
0.0
 10
171.8430440577605
 20
7.231651674668132
 30
0.0
 10
171.9174450634592
 20
7.17456581024116
 30
0.0
 10
171.9929266337938
 20
7.108001740650696
 30
0.0
 10
172.0400584321072
 20
7.05711172901971
 30
0.0
 10
172.064423076923
 20
7.030804286858968
 30
0.0
  0
SPLINE
  5
105
330
1F
100
AcDbEntity
  8
0
  6
Continuous
 62
     7
370
    15
100
AcDbSpline
210
0.0
220
0.0
230
1.0
 70
     8
 71
     3
 72
    23
 73
    19
 74
     0
 42
0.000000001
 43
0.00000001
 40
0.0
 40
0.0
 40
0.0
 40
0.0
 40
0.0679784896192536
 40
0.1330435352439053
 40
0.1965074380533934
 40
0.2586134167685691
 40
0.3197283376065517
 40
0.3808728540495581
 40
0.4426356023162026
 40
0.5050793035048707
 40
0.5678805200585726
 40
0.6288138541554796
 40
0.6889100905404435
 40
0.7487650058898279
 40
0.8093857829631181
 40
0.8708843357532083
 40
0.9340374630736851
 40
1.0
 40
1.0
 40
1.0
 40
1.0
 10
170.8839743589743
 20
6.752228565705121
 30
0.0
 10
170.8844589504453
 20
6.77366017670121
 30
0.0
 10
170.8854073646101
 20
6.815604875809164
 30
0.0
 10
170.8929766113968
 20
6.877235091369894
 30
0.0
 10
170.9067576636959
 20
6.935789488075439
 30
0.0
 10
170.924043200625
 20
6.992147428090262
 30
0.0
 10
170.9480670689421
 20
7.045217184824482
 30
0.0
 10
170.9767744257521
 20
7.095706462116144
 30
0.0
 10
171.0105087326475
 20
7.143545473446894
 30
0.0
 10
171.0493737179168
 20
7.187998314698199
 30
0.0
 10
171.0921061746735
 20
7.228374632133994
 30
0.0
 10
171.1382750015048
 20
7.263570530365166
 30
0.0
 10
171.186841848546
 20
7.29360272364478
 30
0.0
 10
171.2380123434317
 20
7.318789690752517
 30
0.0
 10
171.2922780581918
 20
7.337840944963495
 30
0.0
 10
171.349259680083
 20
7.350955858561339
 30
0.0
 10
171.4088418705806
 20
7.359714506816426
 30
0.0
 10
171.4495736062743
 20
7.360497447571126
 30
0.0
 10
171.4703826121795
 20
7.360897435897434
 30
0.0
  0
SPLINE
  5
106
330
1F
100
AcDbEntity
  8
0
  6
Continuous
 62
     7
370
    15
100
AcDbSpline
210
0.0
220
0.0
230
1.0
 70
     8
 71
     3
 72
    15
 73
    11
 74
     0
 42
0.000000001
 43
0.00000001
 40
0.0
 40
0.0
 40
0.0
 40
0.0
 40
0.1201621349925912
 40
0.2375463202768788
 40
0.3574970509273493
 40
0.4849171224652744
 40
0.6133292680851103
 40
0.7401503701286687
 40
0.8673012545632695
 40
1.0
 40
1.0
 40
1.0
 40
1.0
 10
173.0413461538461
 20
8.051612580128209
 30
0.0
 10
173.0403644802907
 20
8.035590030473008
 30
0.0
 10
173.038423827848
 20
8.003915345995399
 30
0.0
 10
173.0228985420772
 20
7.958400839205002
 30
0.0
 10
172.9983855120342
 20
7.916124096330801
 30
0.0
 10
172.9639148766449
 20
7.879411380638274
 30
0.0
 10
172.923448357736
 20
7.84815067536114
 30
0.0
 10
172.877865530572
 20
7.824832805068723
 30
0.0
 10
172.8277953737052
 20
7.811080394744111
 30
0.0
 10
172.7931720538702
 20
7.80947412710245
 30
0.0
 10
172.7754907852564
 20
7.80865384615384
 30
0.0
  0
SPLINE
  5
107
330
1F
100
AcDbEntity
  8
0
  6
Continuous
 62
     7
370
    15
100
AcDbSpline
210
0.0
220
0.0
230
1.0
 70
     8
 71
     3
 72
    15
 73
    11
 74
     0
 42
0.000000001
 43
0.00000001
 40
0.0
 40
0.0
 40
0.0
 40
0.0
 40
0.1318992643310716
 40
0.2582840923169943
 40
0.3843411247791186
 40
0.5119796151257066
 40
0.6386320084211539
 40
0.759229763164583
 40
0.8774121680351996
 40
0.9999999999999999
 40
0.9999999999999999
 40
0.9999999999999999
 40
0.9999999999999999
 10
172.7754907852564
 20
8.297115384615388
 30
0.0
 10
172.7931721931499
 20
8.296295189227823
 30
0.0
 10
172.8277957857213
 20
8.294689089131113
 30
0.0
 10
172.8778639642561
 20
8.28093546349551
 30
0.0
 10
172.9234542537818
 20
8.25762217741373
 30
0.0
 10
172.9638926257603
 20
8.226344181168175
 30
0.0
 10
172.9985925515352
 20
8.189560043173019
 30
0.0
 10
173.0228864816615
 20
8.146687593362318
 30
0.0
 10
173.0385005838518
 20
8.100370113889573
 30
0.0
 10
173.040386130425
 20
8.068062140132447
 30
0.0
 10
173.0413461538462
 20
8.051612580128209
 30
0.0
  0
SPLINE
  5
108
330
1F
100
AcDbEntity
  8
0
  6
Continuous
 62
     7
370
    15
100
AcDbSpline
210
0.0
220
0.0
230
1.0
 70
     8
 71
     3
 72
    15
 73
    11
 74
     0
 42
0.000000001
 43
0.00000001
 40
0.0
 40
0.0
 40
0.0
 40
0.0
 40
0.123289868727805
 40
0.2421490813339831
 40
0.3634374760537356
 40
0.489745393341361
 40
0.6181148445930266
 40
0.7448937812572669
 40
0.868932266589181
 40
1.0
 40
1.0
 40
1.0
 40
1.0
 10
172.5121794871795
 20
8.051612580128209
 30
0.0
 10
172.5131420443248
 20
8.068059850839248
 30
0.0
 10
172.5150325672921
 20
8.10036332828007
 30
0.0
 10
172.5306101297891
 20
8.146713822425017
 30
0.0
 10
172.5549758125444
 20
8.18933275620358
 30
0.0
 10
172.5889760380356
 20
8.226548744968573
 30
0.0
 10
172.6294649627094
 20
8.257614246509087
 30
0.0
 10
172.6746740101105
 20
8.28066563687177
 30
0.0
 10
172.7239905588326
 20
8.294791066157673
 30
0.0
 10
172.7580115691936
 20
8.296326509160998
 30
0.0
 10
172.7754907852564
 20
8.297115384615388
 30
0.0
  0
SPLINE
  5
109
330
1F
100
AcDbEntity
  8
0
  6
Continuous
 62
     7
370
    15
100
AcDbSpline
210
0.0
220
0.0
230
1.0
 70
     8
 71
     3
 72
    15
 73
    11
 74
     0
 42
0.000000001
 43
0.00000001
 40
0.0
 40
0.0
 40
0.0
 40
0.0
 40
0.1318667517023361
 40
0.256661403453346
 40
0.3842132129424814
 40
0.5133652331526025
 40
0.6404431518253856
 40
0.7610850047778733
 40
0.8791455246531564
 40
1.0
 40
1.0
 40
1.0
 40
1.0
 10
172.7754907852564
 20
7.80865384615384
 30
0.0
 10
172.7580117070694
 20
7.809442806640657
 30
0.0
 10
172.7239909650656
 20
7.810978415148496
 30
0.0
 10
172.6746724723696
 20
7.825102645523593
 30
0.0
 10
172.629470914134
 20
7.848158654693335
 30
0.0
 10
172.5889536753656
 20
7.879206694029694
 30
0.0
 10
172.5551805715957
 20
7.916349565088049
 30
0.0
 10
172.5305985192716
 20
7.958375038801299
 30
0.0
 10
172.5151090895612
 20
8.003921914776182
 30
0.0
 10
172.5131636050321
 20
8.0355922370709
 30
0.0
 10
172.5121794871795
 20
8.051612580128209
 30
0.0
  0
SPLINE
  5
10F
330
1F
100
AcDbEntity
  8
0
  6
Continuous
 62
     7
370
    15
100
AcDbSpline
210
0.0
220
0.0
230
1.0
 70
     8
 71
     3
 72
    15
 73
    11
 74
     0
 42
0.000000001
 43
0.00000001
 40
0.0
 40
0.0
 40
0.0
 40
0.0
 40
0.0769954547170535
 40
0.1676150771831752
 40
0.2710523936342355
 40
0.3894595025720755
 40
0.5208428024655765
 40
0.6663987586080743
 40
0.8260936125153153
 40
1.0
 40
1.0
 40
1.0
 40
1.0
 10
173.9400390625
 20
6.461568509615379
 30
0.0
 10
173.9364652384349
 20
6.445915575416489
 30
0.0
 10
173.9286852103968
 20
6.411839956491569
 30
0.0
 10
173.9202821829533
 20
6.355919661764132
 30
0.0
 10
173.9126553109819
 20
6.291231327306954
 30
0.0
 10
173.906271784235
 20
6.217850439692016
 30
0.0
 10
173.9023661564367
 20
6.135520081549675
 30
0.0
 10
173.8981076679349
 20
6.04459185725606
 30
0.0
 10
173.8965573053961
 20
5.944703192818757
 30
0.0
 10
173.8962920985373
 20
5.875160085847001
 30
0.0
 10
173.8961538461539
 20
5.838907251602563
 30
0.0
  0
SPLINE
  5
110
330
1F
100
AcDbEntity
  8
0
  6
Continuous
 62
     7
370
    15
100
AcDbSpline
210
0.0
220
0.0
230
1.0
 70
     8
 71
     3
 72
    23
 73
    19
 74
     0
 42
0.000000001
 43
0.00000001
 40
0.0
 40
0.0
 40
0.0
 40
0.0
 40
0.0639861098164609
 40
0.1266268580894718
 40
0.1889843719814867
 40
0.2502301939603864
 40
0.312351162962327
 40
0.3745736184579436
 40
0.4381475308782137
 40
0.5029204126073689
 40
0.5679740951402685
 40
0.6307713337491978
 40
0.6929346089254531
 40
0.7543975343123358
 40
0.8152183520172952
 40
0.8761169254810911
 40
0.9380146047939499
 40
1.0
 40
1.0
 40
1.0
 40
1.0
 10
174.7293369391026
 20
7.075961538461545
 30
0.0
 10
174.7064155404039
 20
7.075529734231048
 30
0.0
 10
174.6610546846094
 20
7.074675204815612
 30
0.0
 10
174.5937900672375
 20
7.066101527323315
 30
0.0
 10
174.5285445672832
 20
7.052078499744818
 30
0.0
 10
174.464663377695
 20
7.033147664299147
 30
0.0
 10
174.4034241648068
 20
7.007146891504293
 30
0.0
 10
174.3428594149505
 20
6.977638105657408
 30
0.0
 10
174.2852497074898
 20
6.940855084785008
 30
0.0
 10
174.2293666258091
 20
6.899860735336078
 30
0.0
 10
174.1773757217236
 20
6.854431740235395
 30
0.0
 10
174.1289993004511
 20
6.806494220311015
 30
0.0
 10
174.0858755249377
 20
6.755444208295963
 30
0.0
 10
174.0468060837875
 20
6.702104255894625
 30
0.0
 10
174.0130800877234
 20
6.645741802854363
 30
0.0
 10
173.9836405006956
 20
6.586900610548618
 30
0.0
 10
173.9586616918487
 20
6.525503232686955
 30
0.0
 10
173.9462495351082
 20
6.482890141427625
 30
0.0
 10
173.9400390625
 20
6.461568509615379
 30
0.0
  0
SPLINE
  5
111
330
1F
100
AcDbEntity
  8
0
  6
Continuous
 62
     7
370
    15
100
AcDbSpline
210
0.0
220
0.0
230
1.0
 70
     8
 71
     3
 72
    15
 73
    11
 74
     0
 42
0.000000001
 43
0.00000001
 40
0.0
 40
0.0
 40
0.0
 40
0.0
 40
0.1355195283706031
 40
0.2608331631936759
 40
0.3784760291245067
 40
0.4931776464746733
 40
0.6092809649289375
 40
0.7299810378566298
 40
0.8592613089300506
 40
1.0
 40
1.0
 40
1.0
 40
1.0
 10
175.3278295272436
 20
6.619300881410259
 30
0.0
 10
175.3181906522343
 20
6.655324599184192
 30
0.0
 10
175.2996388000508
 20
6.724659110379339
 30
0.0
 10
175.2537972582159
 20
6.818706558828796
 30
0.0
 10
175.1959086799301
 20
6.898714914931076
 30
0.0
 10
175.1252442022918
 20
6.964189512404642
 30
0.0
 10
175.0424863979609
 20
7.015144485701327
 30
0.0
 10
174.9478649184501
 20
7.050499430346593
 30
0.0
 10
174.8422928658402
 20
7.072612188834176
 30
0.0
 10
174.7680392472721
 20
7.074813944305217
 30
0.0
 10
174.7293369391026
 20
7.075961538461545
 30
0.0
  0
SPLINE
  5
112
330
1F
100
AcDbEntity
  8
0
  6
Continuous
 62
     7
370
    15
100
AcDbSpline
210
0.0
220
0.0
230
1.0
 70
     8
 71
     3
 72
    15
 73
    11
 74
     0
 42
0.000000001
 43
0.00000001
 40
0.0
 40
0.0
 40
0.0
 40
0.0
 40
0.1788500194111603
 40
0.3421096489422994
 40
0.4898256633683922
 40
0.6232544282245632
 40
0.7400796760857921
 40
0.8414826730699866
 40
0.9289076721840666
 40
0.9999999999999999
 40
0.9999999999999999
 40
0.9999999999999999
 40
0.9999999999999999
 10
175.3615384615385
 20
6.09140625
 30
0.0
 10
175.3613631942641
 20
6.12299518218537
 30
0.0
 10
175.3610279377968
 20
6.183419433387474
 30
0.0
 10
175.359970529733
 20
6.269932761567287
 30
0.0
 10
175.3574216337431
 20
6.348388443404088
 30
0.0
 10
175.3538399498836
 20
6.418598912407577
 30
0.0
 10
175.3485975436178
 20
6.480496749861481
 30
0.0
 10
175.3431341566074
 20
6.5342080223314
 30
0.0
 10
175.336453070513
 20
6.579664535824023
 30
0.0
 10
175.3304995707386
 20
6.607028574843008
 30
0.0
 10
175.3278295272436
 20
6.619300881410259
 30
0.0
  0
SPLINE
  5
116
330
1F
100
AcDbEntity
  8
0
  6
Continuous
 62
     7
370
    15
100
AcDbSpline
210
0.0
220
0.0
230
1.0
 70
     8
 71
     3
 72
    23
 73
    19
 74
     0
 42
0.000000001
 43
0.00000001
 40
0.0
 40
0.0
 40
0.0
 40
0.0
 40
0.0772404236164749
 40
0.1511781404663758
 40
0.2234879838003895
 40
0.2955426441988721
 40
0.3669762546197815
 40
0.4371305254863775
 40
0.5070436156432686
 40
0.5785597335236745
 40
0.6166135446965495
 40
0.6587562369775272
 40
0.7044912261144022
 40
0.7548031149051482
 40
0.809331625318564
 40
0.8682744554728196
 40
0.9320728834092934
 40
1.0
 40
1.0
 40
1.0
 40
1.0
 10
174.7789463141026
 20
7.360897435897434
 30
0.0
 10
174.8218819607655
 20
7.359314294318631
 30
0.0
 10
174.9059173779513
 20
7.356215704373476
 30
0.0
 10
175.0282710479192
 20
7.331707706008453
 30
0.0
 10
175.1425469121922
 20
7.289847367431087
 30
0.0
 10
175.2483375092285
 20
7.23250498927977
 30
0.0
 10
175.3437029099218
 20
7.161197688406299
 30
0.0
 10
175.4274547394751
 20
7.078123557810498
 30
0.0
 10
175.4967271138821
 20
6.98256868230393
 30
0.0
 10
175.5431704360317
 20
6.893919819146429
 30
0.0
 10
175.5737644164371
 20
6.815280698627538
 30
0.0
 10
175.5930251797533
 20
6.747928289609295
 30
0.0
 10
175.6093818557914
 20
6.672891109620202
 30
0.0
 10
175.6235620843503
 20
6.590395910978001
 30
0.0
 10
175.63315703583
 20
6.49986469553479
 30
0.0
 10
175.6407246860049
 20
6.401668574886791
 30
0.0
 10
175.6461482158235
 20
6.295839356508654
 30
0.0
 10
175.6463633964472
 20
6.222645058786822
 30
0.0
 10
175.6464743589744
 20
6.184900841346153
 30
0.0
  0
SPLINE
  5
117
330
1F
100
AcDbEntity
  8
0
  6
Continuous
 62
     7
370
    15
100
AcDbSpline
210
0.0
220
0.0
230
1.0
 70
     8
 71
     3
 72
    15
 73
    11
 74
     0
 42
0.000000001
 43
0.00000001
 40
0.0
 40
0.0
 40
0.0
 40
0.0
 40
0.1409759662687777
 40
0.2735687809631717
 40
0.3989883138042586
 40
0.519929781392423
 40
0.6381100215247323
 40
0.756588900740586
 40
0.8768597544106109
 40
1.0
 40
1.0
 40
1.0
 40
1.0
 10
173.8961538461539
 20
6.901692708333337
 30
0.0
 10
173.9265772723095
 20
6.939650035478889
 30
0.0
 10
173.9856149921874
 20
7.013307553073292
 30
0.0
 10
174.0839350659444
 20
7.110118359995671
 30
0.0
 10
174.1878427469513
 20
7.189897242714849
 30
0.0
 10
174.2967017072575
 20
7.253491398650072
 30
0.0
 10
174.4106597235624
 20
7.301430838084919
 30
0.0
 10
174.5290221541718
 20
7.336052789855496
 30
0.0
 10
174.6524976375515
 20
7.356812598602158
 30
0.0
 10
174.7364668052868
 20
7.359525164659583
 30
0.0
 10
174.7789463141026
 20
7.360897435897434
 30
0.0
  0
SPLINE
  5
11C
330
1F
100
AcDbEntity
  8
0
  6
Continuous
 62
     7
370
    15
100
AcDbSpline
210
0.0
220
0.0
230
1.0
 70
     8
 71
     3
 72
    15
 73
    11
 74
     0
 42
0.000000001
 43
0.00000001
 40
0.0
 40
0.0
 40
0.0
 40
0.0
 40
0.1298621417207362
 40
0.2546535308972849
 40
0.3760145541937065
 40
0.4952552518175966
 40
0.6147977192994417
 40
0.7381055541683285
 40
0.8651963000723482
 40
1.0
 40
1.0
 40
1.0
 40
1.0
 10
169.0904046474359
 20
7.360897435897434
 30
0.0
 10
169.1377573767288
 20
7.359593189855892
 30
0.0
 10
169.2306138439967
 20
7.357035624924054
 30
0.0
 10
169.3664385381172
 20
7.335751579427549
 30
0.0
 10
169.4949303145012
 20
7.299793827079945
 30
0.0
 10
169.6170810481285
 20
7.250882953872898
 30
0.0
 10
169.732452099086
 20
7.185887321062872
 30
0.0
 10
169.8399512348582
 20
7.103899784991444
 30
0.0
 10
169.940703494716
 20
7.00543742252567
 30
0.0
 10
169.9991056164355
 20
6.929808519328589
 30
0.0
 10
170.0291666666666
 20
6.890880408653849
 30
0.0
  0
SPLINE
  5
11D
330
1F
100
AcDbEntity
  8
0
  6
Continuous
 62
     7
370
    15
100
AcDbSpline
210
0.0
220
0.0
230
1.0
 70
     8
 71
     3
 72
    23
 73
    19
 74
     0
 42
0.000000001
 43
0.00000001
 40
0.0
 40
0.0
 40
0.0
 40
0.0
 40
0.0637745323056322
 40
0.1260788099895052
 40
0.1869040927472074
 40
0.2475739349176179
 40
0.3080033561644465
 40
0.3691318984609757
 40
0.4320332277442043
 40
0.496790794437088
 40
0.5616108232295588
 40
0.6249138657484558
 40
0.6867263492419242
 40
0.7480788332577681
 40
0.8095822911398951
 40
0.8716307425688212
 40
0.9348858208285478
 40
0.9999999999999999
 40
0.9999999999999999
 40
0.9999999999999999
 40
0.9999999999999999
 10
167.8717948717949
 20
6.166456330128203
 30
0.0
 10
167.8729314958369
 20
6.206791261223338
 30
0.0
 10
167.8751785402516
 20
6.286531244091578
 30
0.0
 10
167.891918246821
 20
6.403805491550188
 30
0.0
 10
167.9200678046762
 20
6.516761342358193
 30
0.0
 10
167.9595719236302
 20
6.625035140854038
 30
0.0
 10
168.0102285542038
 20
6.728757900631682
 30
0.0
 10
168.0718490331442
 20
6.828002980466666
 30
0.0
 10
168.1444378105496
 20
6.923043791021502
 30
0.0
 10
168.2281239226287
 20
7.011645546778536
 30
0.0
 10
168.318779035562
 20
7.093488532580058
 30
0.0
 10
168.415760527178
 20
7.164616738088575
 30
0.0
 10
168.5166559323762
 20
7.226045593800245
 30
0.0
 10
168.6230302347787
 20
7.274716961592445
 30
0.0
 10
168.7333089655743
 20
7.314095220714911
 30
0.0
 10
168.8484738770735
 20
7.341339413206097
 30
0.0
 10
168.9680458091578
 20
7.357393411759533
 30
0.0
 10
169.0492264698164
 20
7.359718204953722
 30
0.0
 10
169.0904046474359
 20
7.360897435897434
 30
0.0
  0
SPLINE
  5
11E
330
1F
100
AcDbEntity
  8
0
  6
Continuous
 62
     7
370
    15
100
AcDbSpline
210
0.0
220
0.0
230
1.0
 70
     8
 71
     3
 72
    23
 73
    19
 74
     0
 42
0.000000001
 43
0.00000001
 40
0.0
 40
0.0
 40
0.0
 40
0.0
 40
0.064619991340761
 40
0.1274334841444646
 40
0.1890041265579311
 40
0.2499300706860425
 40
0.3106684537406677
 40
0.3723289611368265
 40
0.4349391099970016
 40
0.4995755441940359
 40
0.5641912077719244
 40
0.6267352169294734
 40
0.6881093335614032
 40
0.7492936065367489
 40
0.810330527810947
 40
0.8719011702244153
 40
0.935045914684531
 40
0.9999999999999999
 40
0.9999999999999999
 40
0.9999999999999999
 40
0.9999999999999999
 10
169.081500400641
 20
4.959294871794875
 30
0.0
 10
169.04052661395
 20
4.960407366639038
 30
0.0
 10
168.9597244923731
 20
4.962601255730364
 30
0.0
 10
168.8408624009685
 20
4.97962134544122
 30
0.0
 10
168.7264787175365
 20
5.006954123645102
 30
0.0
 10
168.6164653551933
 20
5.044964216255485
 30
0.0
 10
168.5115341946922
 20
5.095383961598713
 30
0.0
 10
168.4107868212824
 20
5.155746379464837
 30
0.0
 10
168.3147451649508
 20
5.227629132466591
 30
0.0
 10
168.2248731260336
 20
5.309805415329549
 30
0.0
 10
168.1421126685497
 20
5.399063725131825
 30
0.0
 10
168.0694856569568
 20
5.494264328368567
 30
0.0
 10
168.0089310773743
 20
5.594995561185464
 30
0.0
 10
167.9582942898755
 20
5.699982065070247
 30
0.0
 10
167.9192904631328
 20
5.810032027790387
 30
0.0
 10
167.8921000949132
 20
5.924764887278624
 30
0.0
 10
167.875099832549
 20
6.044044986846922
 30
0.0
 10
167.8729068503562
 20
6.125270125655072
 30
0.0
 10
167.8717948717949
 20
6.166456330128203
 30
0.0
  0
SPLINE
  5
11F
330
1F
100
AcDbEntity
  8
0
  6
Continuous
 62
     7
370
    15
100
AcDbSpline
210
0.0
220
0.0
230
1.0
 70
     8
 71
     3
 72
    15
 73
    11
 74
     0
 42
0.000000001
 43
0.00000001
 40
0.0
 40
0.0
 40
0.0
 40
0.0
 40
0.1342983790141795
 40
0.2620849753822926
 40
0.3862699121344926
 40
0.5071645966228006
 40
0.6273002357254971
 40
0.7481449416029825
 40
0.8723701771613424
 40
1.0
 40
1.0
 40
1.0
 40
1.0
 10
170.0291666666666
 20
5.401327123397443
 30
0.0
 10
169.9970367637415
 20
5.365005491735686
 30
0.0
 10
169.9343348541653
 20
5.294123370821121
 30
0.0
 10
169.8296132685769
 20
5.201520257204495
 30
0.0
 10
169.718607850051
 20
5.12497706552173
 30
0.0
 10
169.6018573658825
 20
5.063155356279242
 30
0.0
 10
169.4794672451341
 20
5.016716848030345
 30
0.0
 10
169.3517087945335
 20
4.983709403680509
 30
0.0
 10
169.2185298990341
 20
4.96248785320283
 30
0.0
 10
169.1275866914746
 20
4.960368747650213
 30
0.0
 10
169.081500400641
 20
4.959294871794875
 30
0.0
  0
SPLINE
  5
125
330
1F
100
AcDbEntity
  8
0
  6
Continuous
 62
     7
370
    15
100
AcDbSpline
210
0.0
220
0.0
230
1.0
 70
     8
 71
     3
 72
    15
 73
    11
 74
     0
 42
0.000000001
 43
0.00000001
 40
0.0
 40
0.0
 40
0.0
 40
0.0
 40
0.1243285095938545
 40
0.2471560163611905
 40
0.3687797492913397
 40
0.4907338624016511
 40
0.6136137718478472
 40
0.7389575757222177
 40
0.8673105751912629
 40
1.0
 40
1.0
 40
1.0
 40
1.0
 10
164.6923427483974
 20
5.47383313301282
 30
0.0
 10
164.6601975575083
 20
5.513331211530498
 30
0.0
 10
164.5962952606717
 20
5.59185051311499
 30
0.0
 10
164.5145383905932
 20
5.719109938970873
 30
0.0
 10
164.444554536939
 20
5.851977528451083
 30
0.0
 10
164.3879706659474
 20
5.991151320985696
 30
0.0
 10
164.3437359008714
 20
6.136319022268133
 30
0.0
 10
164.3130915310491
 20
6.287553810340684
 30
0.0
 10
164.2931782898442
 20
6.4447144436241
 30
0.0
 10
164.290901099307
 20
6.551609244765583
 30
0.0
 10
164.2897435897436
 20
6.605944511217945
 30
0.0
  0
SPLINE
  5
126
330
1F
100
AcDbEntity
  8
0
  6
Continuous
 62
     7
370
    15
100
AcDbSpline
210
0.0
220
0.0
230
1.0
 70
     8
 71
     3
 72
    23
 73
    19
 74
     0
 42
0.000000001
 43
0.00000001
 40
0.0
 40
0.0
 40
0.0
 40
0.0
 40
0.0696628008990818
 40
0.1377495622582694
 40
0.2039167435177793
 40
0.2687798623293398
 40
0.3324137064772213
 40
0.394753540447139
 40
0.4561800316591765
 40
0.516995649196724
 40
0.5773959379659587
 40
0.6371983435092748
 40
0.6969991842614528
 40
0.7567561942255617
 40
0.8165539052726051
 40
0.876947996597868
 40
0.9381317879205976
 40
1.0
 40
1.0
 40
1.0
 40
1.0
 10
166.0019030448718
 20
4.918589743589746
 30
0.0
 10
165.9677548611837
 20
4.918827408265352
 30
0.0
 10
165.900231056596
 20
4.919297360730754
 30
0.0
 10
165.8005371890621
 20
4.926910255453554
 30
0.0
 10
165.7034823550492
 20
4.93729680250761
 30
0.0
 10
165.6093439444415
 20
4.952936064258506
 30
0.0
 10
165.5176082385066
 20
4.971391287021676
 30
0.0
 10
165.429106851147
 20
4.996130212674546
 30
0.0
 10
165.3429689103218
 20
5.023842670943898
 30
0.0
 10
165.2595404869761
 20
5.056413623205206
 30
0.0
 10
165.1787506164463
 20
5.093167588792677
 30
0.0
 10
165.1008598732768
 20
5.134707074367265
 30
0.0
 10
165.0259040810292
 20
5.180682765881434
 30
0.0
 10
164.9531463063961
 20
5.230081239622875
 30
0.0
 10
164.883661355491
 20
5.284489220605357
 30
0.0
 10
164.8168470860686
 20
5.343151096190796
 30
0.0
 10
164.752328839772
 20
5.405869148800951
 30
0.0
 10
164.7124121183866
 20
5.451094622904384
 30
0.0
 10
164.6923427483974
 20
5.47383313301282
 30
0.0
  0
SPLINE
  5
127
330
1F
100
AcDbEntity
  8
0
  6
Continuous
 62
     7
370
    15
100
AcDbSpline
210
0.0
220
0.0
230
1.0
 70
     8
 71
     3
 72
    23
 73
    19
 74
     0
 42
0.000000001
 43
0.00000001
 40
0.0
 40
0.0
 40
0.0
 40
0.0
 40
0.0616742388774242
 40
0.1230530616347959
 40
0.1834750007317033
 40
0.2437265005106047
 40
0.3042789165122448
 40
0.3648629209606792
 40
0.4259462039686134
 40
0.4873912299654077
 40
0.549220384075476
 40
0.6111435886925968
 40
0.6735285303101505
 40
0.7369614566573004
 40
0.8007852828728471
 40
0.8660125956416076
 40
0.9321007477905875
 40
1.0
 40
1.0
 40
1.0
 40
1.0
 10
167.3833333333333
 20
5.584500200320516
 30
0.0
 10
167.3632690479412
 20
5.558611747504369
 30
0.0
 10
167.3232365839504
 20
5.506958846098545
 30
0.0
 10
167.2584139542556
 20
5.434140937991688
 30
0.0
 10
167.1901266916181
 20
5.365647991503228
 30
0.0
 10
167.1178675832547
 20
5.302032220818279
 30
0.0
 10
167.0424678723126
 20
5.242020669876737
 30
0.0
 10
166.9625737032571
 20
5.187318294362364
 30
0.0
 10
166.8792353666273
 20
5.137161563620499
 30
0.0
 10
166.7927352321915
 20
5.091235710670245
 30
0.0
 10
166.7031652048661
 20
5.050489350869464
 30
0.0
 10
166.6106326103116
 20
5.01560629008671
 30
0.0
 10
166.5155363025329
 20
4.985557283153627
 30
0.0
 10
166.4178719341878
 20
4.960835883411244
 30
0.0
 10
166.317436926209
 20
4.941539971611758
 30
0.0
 10
166.2145937104245
 20
4.92864069514544
 30
0.0
 10
166.1091203236187
 20
4.919803387050975
 30
0.0
 10
166.0379627487403
 20
4.918997920558277
 30
0.0
 10
166.0019030448718
 20
4.918589743589746
 30
0.0
  0
SPLINE
  5
129
330
1F
100
AcDbEntity
  8
0
  6
Continuous
 62
     7
370
    15
100
AcDbSpline
210
0.0
220
0.0
230
1.0
 70
     8
 71
     3
 72
    15
 73
    11
 74
     0
 42
0.000000001
 43
0.00000001
 40
0.0
 40
0.0
 40
0.0
 40
0.0
 40
0.1285151895116558
 40
0.2529486363526455
 40
0.3747547340060052
 40
0.4959397538670401
 40
0.6171806414298923
 40
0.7409094692781435
 40
0.8678111481861992
 40
0.9999999999999999
 40
0.9999999999999999
 40
0.9999999999999999
 40
0.9999999999999999
 10
165.9999949919872
 20
5.244230769230765
 30
0.0
 10
166.0554238598599
 20
5.245762733719086
 30
0.0
 10
166.164521131523
 20
5.248778006308533
 30
0.0
 10
166.3245121268469
 20
5.274322468012849
 30
0.0
 10
166.4776702856673
 20
5.315740722048906
 30
0.0
 10
166.6240038463155
 20
5.373705265867029
 30
0.0
 10
166.7631002753728
 20
5.449057348464501
 30
0.0
 10
166.895177245796
 20
5.540404708684068
 30
0.0
 10
167.020346241896
 20
5.648616267688366
 30
0.0
 10
167.0956130479247
 20
5.731241676893095
 30
0.0
 10
167.1340144230769
 20
5.773397435897428
 30
0.0
  0
SPLINE
  5
12A
330
1F
100
AcDbEntity
  8
0
  6
Continuous
 62
     7
370
    15
100
AcDbSpline
210
0.0
220
0.0
230
1.0
 70
     8
 71
     3
 72
    23
 73
    19
 74
     0
 42
0.000000001
 43
0.00000001
 40
0.0
 40
0.0
 40
0.0
 40
0.0
 40
0.0643232165798417
 40
0.1262901037035564
 40
0.1867264692161323
 40
0.2461464323353438
 40
0.3055756426461342
 40
0.3654293856180513
 40
0.4263263089482588
 40
0.4888399064006335
 40
0.551724971814039
 40
0.613918596466151
 40
0.6754837657683901
 40
0.737333897099283
 40
0.800229044394516
 40
0.8645022981233189
 40
0.9310407391556881
 40
1.0
 40
1.0
 40
1.0
 40
1.0
 10
164.5746794871795
 20
6.584319911858969
 30
0.0
 10
164.575824137294
 20
6.537392214500503
 30
0.0
 10
164.5780715059636
 20
6.445255905387095
 30
0.0
 10
164.5980724947366
 20
6.310299708681827
 30
0.0
 10
164.628466398977
 20
6.181013097466853
 30
0.0
 10
164.6740191009116
 20
6.058204240513384
 30
0.0
 10
164.7301885253486
 20
5.940358801417897
 30
0.0
 10
164.801163937214
 20
5.829470698684947
 30
0.0
 10
164.8833660818231
 20
5.723864243735194
 30
0.0
 10
164.9779578766199
 20
5.626035283991943
 30
0.0
 10
165.0817402954101
 20
5.536669261757249
 30
0.0
 10
165.1930901866418
 20
5.457974091386264
 30
0.0
 10
165.3117302191316
 20
5.392374162291769
 30
0.0
 10
165.4363504479438
 20
5.337785982237691
 30
0.0
 10
165.5679098512842
 20
5.295824522150147
 30
0.0
 10
165.7061718506168
 20
5.266284210115046
 30
0.0
 10
165.8508357320223
 20
5.247014517766574
 30
0.0
 10
165.9496865447796
 20
5.245169672161001
 30
0.0
 10
165.9999949919872
 20
5.244230769230765
 30
0.0
  0
SPLINE
  5
12B
330
1F
100
AcDbEntity
  8
0
  6
Continuous
 62
     7
370
    15
100
AcDbSpline
210
0.0
220
0.0
230
1.0
 70
     8
 71
     3
 72
    31
 73
    27
 74
     0
 42
0.000000001
 43
0.00000001
 40
0.0
 40
0.0
 40
0.0
 40
0.0
 40
0.0439549089061967
 40
0.0875018747976114
 40
0.1304626267314923
 40
0.1727520205665187
 40
0.215403067379605
 40
0.2576498297432459
 40
0.3001527489572958
 40
0.3431214895020865
 40
0.3859251632064358
 40
0.4276857274028032
 40
0.4688179504865863
 40
0.5094918001549932
 40
0.5498830310733527
 40
0.5899800229668852
 40
0.6304052300068388
 40
0.6708686260826416
 40
0.711383943838174
 40
0.7516272580635832
 40
0.7917755768651898
 40
0.8324589188037429
 40
0.8733190450172869
 40
0.9145429556263481
 40
0.9569235582098847
 40
1.0
 40
1.0
 40
1.0
 40
1.0
 10
165.9802784455128
 20
7.930769230769227
 30
0.0
 10
165.9484528811112
 20
7.930402779063872
 30
0.0
 10
165.8850971235647
 20
7.929673276670643
 30
0.0
 10
165.791073151175
 20
7.920049284520461
 30
0.0
 10
165.6988048833629
 20
7.906522686837169
 30
0.0
 10
165.6083523390074
 20
7.886451857913049
 30
0.0
 10
165.5198306551898
 20
7.861076696321315
 30
0.0
 10
165.4326611190301
 20
7.83075507083339
 30
0.0
 10
165.3481057892142
 20
7.793240323246159
 30
0.0
 10
165.2649949588342
 20
7.751776401713817
 30
0.0
 10
165.1853666745741
 20
7.704942933982384
 30
0.0
 10
165.1100238812333
 20
7.653858679061293
 30
0.0
 10
165.0392413674762
 20
7.599095284433768
 30
0.0
 10
164.9729631407554
 20
7.540447495076763
 30
0.0
 10
164.9111214447653
 20
7.478179430931112
 30
0.0
 10
164.8541643842492
 20
7.411627492489581
 30
0.0
 10
164.8022890477942
 20
7.341004449370359
 30
0.0
 10
164.7544671750581
 20
7.267241572513863
 30
0.0
 10
164.7116384812291
 20
7.190553718673623
 30
0.0
 10
164.675779233496
 20
7.110657047633001
 30
0.0
 10
164.6440245869237
 20
7.028919754169097
 30
0.0
 10
164.6188974168091
 20
6.944418343988776
 30
0.0
 10
164.5990087479693
 20
6.857747406402409
 30
0.0
 10
164.5852857962854
 20
6.768674334476351
 30
0.0
 10
164.5757712545592
 20
6.677385210841713
 30
0.0
 10
164.5750453797993
 20
6.615509620112911
 30
0.0
 10
164.5746794871795
 20
6.584319911858969
 30
0.0
  0
SPLINE
  5
12C
330
1F
100
AcDbEntity
  8
0
  6
Continuous
 62
     7
370
    15
100
AcDbSpline
210
0.0
220
0.0
230
1.0
 70
     8
 71
     3
 72
    19
 73
    15
 74
     0
 42
0.000000001
 43
0.00000001
 40
0.0
 40
0.0
 40
0.0
 40
0.0
 40
0.0631632593634664
 40
0.1254749410306429
 40
0.187121219816036
 40
0.2482943461142971
 40
0.3092948562551238
 40
0.3698500660670964
 40
0.430973375547378
 40
0.4924559896728182
 40
0.6161479662918498
 40
0.7408436984673722
 40
0.868182648670048
 40
1.0
 40
1.0
 40
1.0
 40
1.0
 10
167.1340144230769
 20
7.401602564102563
 30
0.0
 10
167.1162290814966
 20
7.422798836735092
 30
0.0
 10
167.0808981833054
 20
7.464905610284108
 30
0.0
 10
167.0240573353016
 20
7.524032768486316
 30
0.0
 10
166.9648194163887
 20
7.579427684205498
 30
0.0
 10
166.9032070707142
 20
7.631354246440305
 30
0.0
 10
166.8381112980368
 20
7.677996598213971
 30
0.0
 10
166.771109002104
 20
7.721785384455046
 30
0.0
 10
166.7010793468096
 20
7.761035403874351
 30
0.0
 10
166.6042402732383
 20
7.808626826993806
 30
0.0
 10
166.4775597251555
 20
7.858289410469177
 30
0.0
 10
166.3180886925676
 20
7.899930198862926
 30
0.0
 10
166.1516179103708
 20
7.926437979662262
 30
0.0
 10
166.0380458021378
 20
7.929308942985935
 30
0.0
 10
165.9802784455128
 20
7.930769230769227
 30
0.0
  0
SPLINE
  5
12E
330
1F
100
AcDbEntity
  8
0
  6
Continuous
 62
     7
370
    15
100
AcDbSpline
210
0.0
220
0.0
230
1.0
 70
     8
 71
     3
 72
    23
 73
    19
 74
     0
 42
0.000000001
 43
0.00000001
 40
0.0
 40
0.0
 40
0.0
 40
0.0
 40
0.0685475367089083
 40
0.1356829456230473
 40
0.2012149895263286
 40
0.2656822347547036
 40
0.329266834817262
 40
0.392395427844333
 40
0.4550697616521553
 40
0.5171268500645153
 40
0.578790035286651
 40
0.639739863343552
 40
0.7001915036663086
 40
0.7598062425966695
 40
0.819628319275013
 40
0.8793547910462807
 40
0.9395116077646719
 40
1.0
 40
1.0
 40
1.0
 40
1.0
 10
165.9980869391025
 20
8.256410256410259
 30
0.0
 10
166.0345672100825
 20
8.255972888194254
 30
0.0
 10
166.1067762326285
 20
8.255107161857206
 30
0.0
 10
166.2135947101741
 20
8.24666516151036
 30
0.0
 10
166.3175916781867
 20
8.23259210443289
 30
0.0
 10
166.418838783318
 20
8.213436812531006
 30
0.0
 10
166.5178285851592
 20
8.18966302805503
 30
0.0
 10
166.6138045179562
 20
8.158692900296415
 30
0.0
 10
166.7073297553262
 20
8.12328118974584
 30
0.0
 10
166.7978144506005
 20
8.082497438502173
 30
0.0
 10
166.8848244639421
 20
8.036716894511658
 30
0.0
 10
166.9683326957344
 20
7.986447007437544
 30
0.0
 10
167.0476758175621
 20
7.931750098158497
 30
0.0
 10
167.1234121300724
 20
7.873091360465462
 30
0.0
 10
167.1942746929771
 20
7.809229810247495
 30
0.0
 10
167.2622754627912
 20
7.741921991042802
 30
0.0
 10
167.3251051551236
 20
7.669229164842958
 30
0.0
 10
167.3638884105825
 20
7.618061831939832
 30
0.0
 10
167.3833333333333
 20
7.592407852564098
 30
0.0
  0
SPLINE
  5
12F
330
1F
100
AcDbEntity
  8
0
  6
Continuous
 62
     7
370
    15
100
AcDbSpline
210
0.0
220
0.0
230
1.0
 70
     8
 71
     3
 72
    23
 73
    19
 74
     0
 42
0.000000001
 43
0.00000001
 40
0.0
 40
0.0
 40
0.0
 40
0.0
 40
0.064557845929719
 40
0.1270135315497589
 40
0.1879548102020908
 40
0.2480139127896339
 40
0.3077476818488365
 40
0.3682345146974886
 40
0.4294698439426712
 40
0.4927434367465846
 40
0.5562577687060836
 40
0.6182167855431454
 40
0.6796554755875571
 40
0.7412455456206319
 40
0.8034152647056991
 40
0.8668154615439944
 40
0.9323283119492659
 40
1.0
 40
1.0
 40
1.0
 40
1.0
 10
164.2897435897436
 20
6.605944511217945
 30
0.0
 10
164.2911543724703
 20
6.663054101216106
 30
0.0
 10
164.2939299994108
 20
6.775413654211762
 30
0.0
 10
164.3175118995887
 20
6.940308597552597
 30
0.0
 10
164.355447521848
 20
7.098288795083757
 30
0.0
 10
164.4093289850736
 20
7.249059334817051
 30
0.0
 10
164.4776416966148
 20
7.393413231884721
 30
0.0
 10
164.5620301248836
 20
7.530247753424257
 30
0.0
 10
164.661513889613
 20
7.660437993112695
 30
0.0
 10
164.7753127545831
 20
7.782008517504033
 30
0.0
 10
164.9001059801765
 20
7.893169215954233
 30
0.0
 10
165.0337451899186
 20
7.990964843640203
 30
0.0
 10
165.1759688132439
 20
8.072351447439383
 30
0.0
 10
165.3252100072638
 20
8.140383680497354
 30
0.0
 10
165.4825863041136
 20
8.19267544348487
 30
0.0
 10
165.6477619318202
 20
8.229281548551793
 30
0.0
 10
165.8204265188003
 20
8.252066361186195
 30
0.0
 10
165.9382302906393
 20
8.254946728355181
 30
0.0
 10
165.9980869391025
 20
8.256410256410259
 30
0.0
  0
SPLINE
  5
140
330
1F
100
AcDbEntity
  8
0
  6
Continuous
 62
     7
370
    15
100
AcDbSpline
210
0.0
220
0.0
230
1.0
 70
     8
 71
     3
 72
    19
 73
    15
 74
     0
 42
0.000000001
 43
0.00000001
 40
0.0
 40
0.0
 40
0.0
 40
0.0
 40
0.0859205174117721
 40
0.1695934351247468
 40
0.2524755148685348
 40
0.3362444769570503
 40
0.4195045210415771
 40
0.5020359066440909
 40
0.5847746476768763
 40
0.6698464747058019
 40
0.7541848663887832
 40
0.8366582383293285
 40
0.9180097257088059
 40
0.9999999999999999
 40
0.9999999999999999
 40
0.9999999999999999
 40
0.9999999999999999
 10
185.7019130608974
 20
7.075961538461545
 30
0.0
 10
185.6602621972563
 20
7.074479595663111
 30
0.0
 10
185.5780500172836
 20
7.071554476292152
 30
0.0
 10
185.4573601011269
 20
7.048718519946151
 30
0.0
 10
185.3418686469186
 20
7.010723209344746
 30
0.0
 10
185.2321532795463
 20
6.958760341856301
 30
0.0
 10
185.1299471116102
 20
6.893419987925128
 30
0.0
 10
185.0386035673579
 20
6.814388447367523
 30
0.0
 10
184.9573755454134
 20
6.723822013098665
 30
0.0
 10
184.8890601914309
 20
6.622129384387568
 30
0.0
 10
184.8333702406537
 20
6.513110687489595
 30
0.0
 10
184.7942115759684
 20
6.399151375783646
 30
0.0
 10
184.7683859015328
 20
6.282306860428633
 30
0.0
 10
184.7657474578807
 20
6.203056424044534
 30
0.0
 10
184.764423076923
 20
6.163276241987176
 30
0.0
  0
SPLINE
  5
141
330
1F
100
AcDbEntity
  8
0
  6
Continuous
 62
     7
370
    15
100
AcDbSpline
210
0.0
220
0.0
230
1.0
 70
     8
 71
     3
 72
    19
 73
    15
 74
     0
 42
0.000000001
 43
0.00000001
 40
0.0
 40
0.0
 40
0.0
 40
0.0
 40
0.081589348932183
 40
0.1628588951679335
 40
0.2454836892755813
 40
0.3308071391580075
 40
0.416493373776287
 40
0.4998932031606244
 40
0.5830481559950226
 40
0.6671578520621629
 40
0.7513119292929052
 40
0.8337847893576184
 40
0.9162564885439674
 40
0.9999999999999999
 40
0.9999999999999999
 40
0.9999999999999999
 40
0.9999999999999999
 10
184.764423076923
 20
6.163276241987176
 30
0.0
 10
184.7661148015683
 20
6.12373378761312
 30
0.0
 10
184.7694916198695
 20
6.044803871933318
 30
0.0
 10
184.7937583212162
 20
5.927800063007721
 30
0.0
 10
184.834470777831
 20
5.813813896280676
 30
0.0
 10
184.8900260775915
 20
5.703812852159235
 30
0.0
 10
184.9595918014525
 20
5.601682989686482
 30
0.0
 10
185.0402265076962
 20
5.509390164219891
 30
0.0
 10
185.132709977173
 20
5.430024609143866
 30
0.0
 10
185.2351513585902
 20
5.36358766737316
 30
0.0
 10
185.3445600174533
 20
5.309918809132286
 30
0.0
 10
185.4596165124323
 20
5.272575693293841
 30
0.0
 10
185.5781579841886
 20
5.248465849445521
 30
0.0
 10
185.6587597441828
 20
5.245649645457623
 30
0.0
 10
185.6993689903846
 20
5.244230769230765
 30
0.0
  0
SPLINE
  5
142
330
1F
100
AcDbEntity
  8
0
  6
Continuous
 62
     7
370
    15
100
AcDbSpline
210
0.0
220
0.0
230
1.0
 70
     8
 71
     3
 72
    19
 73
    15
 74
     0
 42
0.000000001
 43
0.00000001
 40
0.0
 40
0.0
 40
0.0
 40
0.0
 40
0.0848023883688171
 40
0.1686635395998283
 40
0.2525519243727762
 40
0.3382396894642355
 40
0.4231026613931453
 40
0.5055560510576204
 40
0.5861756559890426
 40
0.667135720330352
 40
0.7484991803055331
 40
0.8304523987582779
 40
0.9134557062010126
 40
1.0
 40
1.0
 40
1.0
 40
1.0
 10
185.6993689903846
 20
5.244230769230765
 30
0.0
 10
185.7405954607474
 20
5.245736593649172
 30
0.0
 10
185.8225908213775
 20
5.248731529066797
 30
0.0
 10
185.9436387920973
 20
5.271665248297086
 30
0.0
 10
186.0611092226353
 20
5.30955551537178
 30
0.0
 10
186.1734019226643
 20
5.362078294623332
 30
0.0
 10
186.2780101273484
 20
5.427172467472818
 30
0.0
 10
186.3718974877576
 20
5.503378900050829
 30
0.0
 10
186.4512869733535
 20
5.592009645647225
 30
0.0
 10
186.5185902691852
 20
5.689415428052347
 30
0.0
 10
186.5713636829047
 20
5.796197024841826
 30
0.0
 10
186.6098048223191
 20
5.909893040732777
 30
0.0
 10
186.6325322939876
 20
6.030507433692906
 30
0.0
 10
186.6353968058777
 20
6.112933996005376
 30
0.0
 10
186.6368589743589
 20
6.155008012820512
 30
0.0
  0
SPLINE
  5
143
330
1F
100
AcDbEntity
  8
0
  6
Continuous
 62
     7
370
    15
100
AcDbSpline
210
0.0
220
0.0
230
1.0
 70
     8
 71
     3
 72
    23
 73
    19
 74
     0
 42
0.000000001
 43
0.00000001
 40
0.0
 40
0.0
 40
0.0
 40
0.0
 40
0.0656337996756903
 40
0.1291880880571302
 40
0.1912186831121864
 40
0.2519128178811548
 40
0.3125074743865554
 40
0.3734944337752004
 40
0.4351515996540483
 40
0.4987414744066537
 40
0.5620952169966307
 40
0.6241865668116582
 40
0.6854757184651907
 40
0.7460968148060511
 40
0.8076116364477929
 40
0.8699665806571797
 40
0.933951018914907
 40
1.0
 40
1.0
 40
1.0
 40
1.0
 10
186.6368589743589
 20
6.155008012820512
 30
0.0
 10
186.6359884289361
 20
6.187064473352544
 30
0.0
 10
186.6342749200536
 20
6.250161732180709
 30
0.0
 10
186.6211843319793
 20
6.342805980263905
 30
0.0
 10
186.6003609344486
 20
6.431464431725209
 30
0.0
 10
186.5710183373623
 20
6.516230299656936
 30
0.0
 10
186.5324726722137
 20
6.59663492076909
 30
0.0
 10
186.4859836274454
 20
6.67325561753132
 30
0.0
 10
186.4307336837585
 20
6.745693887863391
 30
0.0
 10
186.3676122380106
 20
6.812952245108125
 30
0.0
 10
186.2985195185587
 20
6.874299107300433
 30
0.0
 10
186.2254087566995
 20
6.92905809708895
 30
0.0
 10
186.1474137505311
 20
6.974042198074404
 30
0.0
 10
186.0658461527558
 20
7.011272494361551
 30
0.0
 10
185.980564442208
 20
7.0408990089115
 30
0.0
 10
185.8908746656583
 20
7.060663559686834
 30
0.0
 10
185.7977301560888
 20
7.074234708054655
 30
0.0
 10
185.734188377265
 20
7.075379867752529
 30
0.0
 10
185.7019130608974
 20
7.075961538461545
 30
0.0
  0
SPLINE
  5
144
330
1F
100
AcDbEntity
  8
0
  6
Continuous
 62
     7
370
    15
100
AcDbSpline
210
0.0
220
0.0
230
1.0
 70
     8
 71
     3
 72
    19
 73
    15
 74
     0
 42
0.000000001
 43
0.00000001
 40
0.0
 40
0.0
 40
0.0
 40
0.0
 40
0.0859205174117721
 40
0.1695934351247468
 40
0.2524755148685348
 40
0.3362444769570503
 40
0.4195045210415771
 40
0.5020359066440909
 40
0.5847746476768763
 40
0.6698464747058019
 40
0.7541848663887832
 40
0.8366582383293285
 40
0.9180097257088059
 40
0.9999999999999999
 40
0.9999999999999999
 40
0.9999999999999999
 40
0.9999999999999999
 10
169.0942207532051
 20
7.075961538461545
 30
0.0
 10
169.052569889564
 20
7.074479595663111
 30
0.0
 10
168.9703577095913
 20
7.071554476292152
 30
0.0
 10
168.8496677934347
 20
7.048718519946151
 30
0.0
 10
168.7341763392263
 20
7.010723209344746
 30
0.0
 10
168.624460971854
 20
6.958760341856301
 30
0.0
 10
168.5222548039179
 20
6.893419987925128
 30
0.0
 10
168.4309112596655
 20
6.814388447367523
 30
0.0
 10
168.3496832377212
 20
6.723822013098665
 30
0.0
 10
168.2813678837387
 20
6.622129384387581
 30
0.0
 10
168.2256779329614
 20
6.513110687489595
 30
0.0
 10
168.1865192682761
 20
6.399151375783646
 30
0.0
 10
168.1606935938406
 20
6.282306860428633
 30
0.0
 10
168.1580551501884
 20
6.203056424044534
 30
0.0
 10
168.1567307692307
 20
6.163276241987176
 30
0.0
  0
SPLINE
  5
145
330
1F
100
AcDbEntity
  8
0
  6
Continuous
 62
     7
370
    15
100
AcDbSpline
210
0.0
220
0.0
230
1.0
 70
     8
 71
     3
 72
    19
 73
    15
 74
     0
 42
0.000000001
 43
0.00000001
 40
0.0
 40
0.0
 40
0.0
 40
0.0
 40
0.081589348932183
 40
0.1628588951679335
 40
0.2454836892755813
 40
0.3308071391580075
 40
0.416493373776287
 40
0.4998932031606244
 40
0.5830481559950226
 40
0.6671578520621629
 40
0.7513119292929052
 40
0.8337847893576184
 40
0.9162564885439674
 40
0.9999999999999999
 40
0.9999999999999999
 40
0.9999999999999999
 40
0.9999999999999999
 10
168.1567307692307
 20
6.163276241987176
 30
0.0
 10
168.158422493876
 20
6.12373378761312
 30
0.0
 10
168.1617993121773
 20
6.044803871933318
 30
0.0
 10
168.186066013524
 20
5.927800063007721
 30
0.0
 10
168.2267784701388
 20
5.813813896280689
 30
0.0
 10
168.2823337698992
 20
5.703812852159235
 30
0.0
 10
168.3518994937602
 20
5.601682989686482
 30
0.0
 10
168.432534200004
 20
5.509390164219891
 30
0.0
 10
168.5250176694807
 20
5.430024609143866
 30
0.0
 10
168.6274590508979
 20
5.363587667373173
 30
0.0
 10
168.7368677097611
 20
5.309918809132286
 30
0.0
 10
168.85192420474
 20
5.272575693293841
 30
0.0
 10
168.9704656764963
 20
5.248465849445521
 30
0.0
 10
169.0510674364906
 20
5.245649645457637
 30
0.0
 10
169.0916766826923
 20
5.244230769230765
 30
0.0
  0
SPLINE
  5
146
330
1F
100
AcDbEntity
  8
0
  6
Continuous
 62
     7
370
    15
100
AcDbSpline
210
0.0
220
0.0
230
1.0
 70
     8
 71
     3
 72
    23
 73
    19
 74
     0
 42
0.000000001
 43
0.00000001
 40
0.0
 40
0.0
 40
0.0
 40
0.0
 40
0.0656337996756903
 40
0.1291880880571302
 40
0.1912186831121864
 40
0.2519128178811548
 40
0.3125074743865554
 40
0.3734944337752004
 40
0.4351515996540483
 40
0.4987414744066537
 40
0.5620952169966307
 40
0.6241865668116582
 40
0.6854757184651907
 40
0.7460968148060511
 40
0.8076116364477929
 40
0.8699665806571797
 40
0.933951018914907
 40
1.0
 40
1.0
 40
1.0
 40
1.0
 10
170.0291666666666
 20
6.155008012820512
 30
0.0
 10
170.0282961212438
 20
6.187064473352544
 30
0.0
 10
170.0265826123613
 20
6.250161732180709
 30
0.0
 10
170.013492024287
 20
6.342805980263905
 30
0.0
 10
169.9926686267563
 20
6.431464431725209
 30
0.0
 10
169.96332602967
 20
6.516230299656936
 30
0.0
 10
169.9247803645214
 20
6.59663492076909
 30
0.0
 10
169.8782913197532
 20
6.67325561753132
 30
0.0
 10
169.8230413760662
 20
6.745693887863391
 30
0.0
 10
169.7599199303183
 20
6.812952245108125
 30
0.0
 10
169.6908272108664
 20
6.874299107300446
 30
0.0
 10
169.6177164490073
 20
6.92905809708895
 30
0.0
 10
169.5397214428388
 20
6.974042198074404
 30
0.0
 10
169.4581538450635
 20
7.011272494361551
 30
0.0
 10
169.3728721345157
 20
7.040899008911514
 30
0.0
 10
169.283182357966
 20
7.060663559686834
 30
0.0
 10
169.1900378483965
 20
7.074234708054655
 30
0.0
 10
169.1264960695727
 20
7.075379867752529
 30
0.0
 10
169.0942207532051
 20
7.075961538461545
 30
0.0
  0
SPLINE
  5
147
330
1F
100
AcDbEntity
  8
0
  6
Continuous
 62
     7
370
    15
100
AcDbSpline
210
0.0
220
0.0
230
1.0
 70
     8
 71
     3
 72
    19
 73
    15
 74
     0
 42
0.000000001
 43
0.00000001
 40
0.0
 40
0.0
 40
0.0
 40
0.0
 40
0.0848023883688171
 40
0.1686635395998283
 40
0.2525519243727762
 40
0.3382396894642355
 40
0.4231026613931453
 40
0.5055560510576204
 40
0.5861756559890426
 40
0.667135720330352
 40
0.7484991803055331
 40
0.8304523987582779
 40
0.9134557062010126
 40
1.0
 40
1.0
 40
1.0
 40
1.0
 10
169.0916766826923
 20
5.244230769230765
 30
0.0
 10
169.1329031530551
 20
5.245736593649186
 30
0.0
 10
169.2148985136853
 20
5.248731529066797
 30
0.0
 10
169.335946484405
 20
5.271665248297086
 30
0.0
 10
169.4534169149431
 20
5.30955551537178
 30
0.0
 10
169.565709614972
 20
5.362078294623332
 30
0.0
 10
169.6703178196561
 20
5.427172467472818
 30
0.0
 10
169.7642051800653
 20
5.503378900050829
 30
0.0
 10
169.8435946656613
 20
5.592009645647225
 30
0.0
 10
169.9108979614929
 20
5.689415428052347
 30
0.0
 10
169.9636713752124
 20
5.796197024841826
 30
0.0
 10
170.0021125146268
 20
5.909893040732777
 30
0.0
 10
170.0248399862954
 20
6.030507433692906
 30
0.0
 10
170.0277044981854
 20
6.112933996005376
 30
0.0
 10
170.0291666666666
 20
6.155008012820512
 30
0.0
  0
SPLINE
  5
148
330
1F
100
AcDbEntity
  8
0
  6
Continuous
 62
     7
370
    15
100
AcDbSpline
210
0.0
220
0.0
230
1.0
 70
     8
 71
     3
 72
    19
 73
    15
 74
     0
 42
0.000000001
 43
0.00000001
 40
0.0
 40
0.0
 40
0.0
 40
0.0
 40
0.0855188992526867
 40
0.1693092867993408
 40
0.2522179032131757
 40
0.3367564541858484
 40
0.4205954942561977
 40
0.502741103513888
 40
0.5848035507161479
 40
0.6682684846239445
 40
0.7518231297771595
 40
0.8336286284455304
 40
0.916219799115292
 40
1.0
 40
1.0
 40
1.0
 40
1.0
 10
177.4374999999999
 20
7.075961538461545
 30
0.0
 10
177.3958342900476
 20
7.074545429041707
 30
0.0
 10
177.3133450192822
 20
7.071741832667164
 30
0.0
 10
177.1924334514559
 20
7.047807128592543
 30
0.0
 10
177.0757050903856
 20
7.010300490731217
 30
0.0
 10
176.9653915948179
 20
6.956649689586591
 30
0.0
 10
176.8620615736887
 20
6.891249916592845
 30
0.0
 10
176.7703722722732
 20
6.812019798563898
 30
0.0
 10
176.6901763841032
 20
6.721535748538662
 30
0.0
 10
176.6223375757935
 20
6.620615881612848
 30
0.0
 10
176.5683341219198
 20
6.511738531722627
 30
0.0
 10
176.5301040199763
 20
6.396975222900919
 30
0.0
 10
176.5053843560013
 20
6.278180336576761
 30
0.0
 10
176.5026559859334
 20
6.197106617979467
 30
0.0
 10
176.501282051282
 20
6.156280048076917
 30
0.0
  0
SPLINE
  5
149
330
1F
100
AcDbEntity
  8
0
  6
Continuous
 62
     7
370
    15
100
AcDbSpline
210
0.0
220
0.0
230
1.0
 70
     8
 71
     3
 72
    23
 73
    19
 74
     0
 42
0.000000001
 43
0.00000001
 40
0.0
 40
0.0
 40
0.0
 40
0.0
 40
0.0701214992195543
 40
0.137121848674017
 40
0.2014871210766276
 40
0.2637651191668606
 40
0.324560095036719
 40
0.3847388869594518
 40
0.444904604352265
 40
0.5052319196167158
 40
0.5654939949839819
 40
0.6250997441456773
 40
0.6843497139440896
 40
0.7438828254849621
 40
0.8046082057523066
 40
0.8672389137717513
 40
0.9320942880208506
 40
1.0
 40
1.0
 40
1.0
 40
1.0
 10
177.4203275240384
 20
5.284935897435894
 30
0.0
 10
177.4538589332587
 20
5.285632228493584
 30
0.0
 10
177.51942924867
 20
5.286993896498143
 30
0.0
 10
177.6151971695407
 20
5.298699213045211
 30
0.0
 10
177.705941155449
 20
5.317587720105196
 30
0.0
 10
177.791578001449
 20
5.344405607366556
 30
0.0
 10
177.8724310465568
 20
5.378624624005887
 30
0.0
 10
177.9475920183773
 20
5.421928555604652
 30
0.0
 10
178.0186725105531
 20
5.471244861815619
 30
0.0
 10
178.0834029678187
 20
5.528768617573246
 30
0.0
 10
178.1419356036853
 20
5.592164291600171
 30
0.0
 10
178.1929449422233
 20
5.661147874934977
 30
0.0
 10
178.2364101924099
 20
5.734681345785322
 30
0.0
 10
178.272403507198
 20
5.812756415218848
 30
0.0
 10
178.2998819566927
 20
5.895979835499013
 30
0.0
 10
178.3183141062341
 20
5.984143558235705
 30
0.0
 10
178.3312016536306
 20
6.07682519991673
 30
0.0
 10
178.3323999210309
 20
6.140333016019809
 30
0.0
 10
178.3330128205127
 20
6.172816506410259
 30
0.0
  0
SPLINE
  5
14A
330
1F
100
AcDbEntity
  8
0
  6
Continuous
 62
     7
370
    15
100
AcDbSpline
210
0.0
220
0.0
230
1.0
 70
     8
 71
     3
 72
    19
 73
    15
 74
     0
 42
0.000000001
 43
0.00000001
 40
0.0
 40
0.0
 40
0.0
 40
0.0
 40
0.0892427932208488
 40
0.1743490578004787
 40
0.2576131087527844
 40
0.3395273673229342
 40
0.4209973901479352
 40
0.5015790589405739
 40
0.5825417599975093
 40
0.6661326583338243
 40
0.7500491310216117
 40
0.8327429397442769
 40
0.9156474213323861
 40
1.0
 40
1.0
 40
1.0
 40
1.0
 10
178.3330128205127
 20
6.172816506410259
 30
0.0
 10
178.3317976408162
 20
6.21510555964469
 30
0.0
 10
178.3294236067065
 20
6.29772350917987
 30
0.0
 10
178.3070197565399
 20
6.418107505856169
 30
0.0
 10
178.2708971372996
 20
6.531290517060542
 30
0.0
 10
178.2202361548736
 20
6.636914580888012
 30
0.0
 10
178.1567524755699
 20
6.733860529546817
 30
0.0
 10
178.080288634137
 20
6.820332874172746
 30
0.0
 10
177.9921633063639
 20
6.896442936921016
 30
0.0
 10
177.8926296869171
 20
6.959850583897572
 30
0.0
 10
177.7855437902625
 20
7.011072799422161
 30
0.0
 10
177.6734924195234
 20
7.049500978425327
 30
0.0
 10
177.5566419294156
 20
7.07126724991805
 30
0.0
 10
177.477442543603
 20
7.074387769883561
 30
0.0
 10
177.4374999999999
 20
7.075961538461545
 30
0.0
  0
SPLINE
  5
14B
330
1F
100
AcDbEntity
  8
0
  6
Continuous
 62
     7
370
    15
100
AcDbSpline
210
0.0
220
0.0
230
1.0
 70
     8
 71
     3
 72
    23
 73
    19
 74
     0
 42
0.000000001
 43
0.00000001
 40
0.0
 40
0.0
 40
0.0
 40
0.0
 40
0.0649830441815927
 40
0.1278026449472835
 40
0.1890563364713592
 40
0.2483946473749341
 40
0.3076907059547591
 40
0.3669766194961039
 40
0.4273400442259964
 40
0.4887947153913341
 40
0.5506736934059968
 40
0.6120451114224859
 40
0.6733691390064599
 40
0.7349297539342466
 40
0.797809968299312
 40
0.8628916725659053
 40
0.9300953375428044
 40
1.0
 40
1.0
 40
1.0
 40
1.0
 10
176.501282051282
 20
6.156280048076917
 30
0.0
 10
176.5019404164085
 20
6.125497722270445
 30
0.0
 10
176.5032352280869
 20
6.064957889068662
 30
0.0
 10
176.515684473618
 20
5.976114227432508
 30
0.0
 10
176.5358057776983
 20
5.891495657207119
 30
0.0
 10
176.5643238148493
 20
5.811097060377842
 30
0.0
 10
176.5996594737819
 20
5.734457282165067
 30
0.0
 10
176.6441025531611
 20
5.662104262070949
 30
0.0
 10
176.6964002203415
 20
5.593973564418348
 30
0.0
 10
176.7561431411749
 20
5.530569103091951
 30
0.0
 10
176.8219802875849
 20
5.472819510311922
 30
0.0
 10
176.8933898469589
 20
5.42207571630321
 30
0.0
 10
176.9702749663501
 20
5.380573276609013
 30
0.0
 10
177.0507447156063
 20
5.344704088200467
 30
0.0
 10
177.1367516156755
 20
5.318506648002764
 30
0.0
 10
177.2270568580346
 20
5.298514327034182
 30
0.0
 10
177.3222993255616
 20
5.287076382690936
 30
0.0
 10
177.3872251176174
 20
5.285658701832507
 30
0.0
 10
177.4203275240384
 20
5.284935897435894
 30
0.0
  0
SPLINE
  5
14F
330
1F
100
AcDbEntity
  8
0
  6
Continuous
 62
     7
370
    15
100
AcDbSpline
210
0.0
220
0.0
230
1.0
 70
     8
 71
     3
 72
    23
 73
    19
 74
     0
 42
0.000000001
 43
0.00000001
 40
0.0
 40
0.0
 40
0.0
 40
0.0
 40
0.0705992894335993
 40
0.1379009210036216
 40
0.2031961978097394
 40
0.2667897246502597
 40
0.3291063872214248
 40
0.3906535452348544
 40
0.4526530569344775
 40
0.5157480403003794
 40
0.5779263408004458
 40
0.638930011618439
 40
0.6983507176418242
 40
0.7572960374442688
 40
0.816393767350153
 40
0.8762669096141286
 40
0.9368171089060847
 40
1.0
 40
1.0
 40
1.0
 40
1.0
 10
161.6191055689102
 20
6.506089743589738
 30
0.0
 10
161.5949191039556
 20
6.505383946820542
 30
0.0
 10
161.5476759118524
 20
6.504005320699849
 30
0.0
 10
161.4783634713554
 20
6.495999556453621
 30
0.0
 10
161.4127650218278
 20
6.480923689819617
 30
0.0
 10
161.350011479159
 20
6.461722802967848
 30
0.0
 10
161.2912760629513
 20
6.435322170225813
 30
0.0
 10
161.2361319010889
 20
6.403253038316501
 30
0.0
 10
161.1843657468763
 20
6.365496683854833
 30
0.0
 10
161.1365198106649
 20
6.322588000210905
 30
0.0
 10
161.0931405446255
 20
6.275608856001119
 30
0.0
 10
161.0557833759996
 20
6.225290075170046
 30
0.0
 10
161.0235594844867
 20
6.17284433378118
 30
0.0
 10
160.9973595487861
 20
6.117833429074016
 30
0.0
 10
160.9769578371985
 20
6.060278390160684
 30
0.0
 10
160.9622002096237
 20
6.00044392822148
 30
0.0
 10
160.9539871638731
 20
5.937928807664111
 30
0.0
 10
160.9526207967217
 20
5.895535751616651
 30
0.0
 10
160.951923076923
 20
5.873888221153839
 30
0.0
  0
SPLINE
  5
150
330
1F
100
AcDbEntity
  8
0
  6
Continuous
 62
     7
370
    15
100
AcDbSpline
210
0.0
220
0.0
230
1.0
 70
     8
 71
     3
 72
    23
 73
    19
 74
     0
 42
0.000000001
 43
0.00000001
 40
0.0
 40
0.0
 40
0.0
 40
0.0
 40
0.0618417029839075
 40
0.1212623730944424
 40
0.180745948865311
 40
0.2392309018220996
 40
0.298307558788461
 40
0.3581827976158471
 40
0.4203592307800589
 40
0.4847924155141858
 40
0.5499384837666873
 40
0.6137182775404193
 40
0.6766807072496308
 40
0.7391541704483136
 40
0.8021997032403384
 40
0.8667401776162902
 40
0.9320496524002335
 40
1.0
 40
1.0
 40
1.0
 40
1.0
 10
160.951923076923
 20
5.873888221153839
 30
0.0
 10
160.952491276266
 20
5.852434310831406
 30
0.0
 10
160.9536054305888
 20
5.810366386561419
 30
0.0
 10
160.9637221778981
 20
5.748372987952041
 30
0.0
 10
160.979175431149
 20
5.688714821044008
 30
0.0
 10
161.0021627902513
 20
5.631699442147073
 30
0.0
 10
161.0295828959438
 20
5.576457782217714
 30
0.0
 10
161.0657827257438
 20
5.524990773253996
 30
0.0
 10
161.105893667177
 20
5.474172566812236
 30
0.0
 10
161.1538397353761
 20
5.427906946303699
 30
0.0
 10
161.2052959289353
 20
5.384857008658497
 30
0.0
 10
161.2602698769228
 20
5.347228492967399
 30
0.0
 10
161.3175649833644
 20
5.31503746424189
 30
0.0
 10
161.3779547733898
 20
5.289808825688914
 30
0.0
 10
161.4405824502748
 20
5.269103936906147
 30
0.0
 10
161.5059698100165
 20
5.254533880721987
 30
0.0
 10
161.5741623289625
 20
5.246296546425749
 30
0.0
 10
161.6203558013107
 20
5.244928399367827
 30
0.0
 10
161.6439102564102
 20
5.244230769230765
 30
0.0
  0
SPLINE
  5
151
330
1F
100
AcDbEntity
  8
0
  6
Continuous
 62
     7
370
    15
100
AcDbSpline
210
0.0
220
0.0
230
1.0
 70
     8
 71
     3
 72
    23
 73
    19
 74
     0
 42
0.000000001
 43
0.00000001
 40
0.0
 40
0.0
 40
0.0
 40
0.0
 40
0.0679623714944433
 40
0.1332834028675092
 40
0.1978352977570482
 40
0.2608919865309716
 40
0.323376504483159
 40
0.3863500754690798
 40
0.4496377310516996
 40
0.5147953269783438
 40
0.5792399132410284
 40
0.6418141777582786
 40
0.7013585647860548
 40
0.7607267659857183
 40
0.8192220679243877
 40
0.8787161693846297
 40
0.9381473540533068
 40
1.0
 40
1.0
 40
1.0
 40
1.0
 10
161.6439102564102
 20
5.244230769230765
 30
0.0
 10
161.6674646729213
 20
5.244928454066572
 30
0.0
 10
161.7136580695924
 20
5.246296708396131
 30
0.0
 10
161.7818511370871
 20
5.254533265129632
 30
0.0
 10
161.8472364689916
 20
5.269106195753881
 30
0.0
 10
161.909871516074
 20
5.289800637351752
 30
0.0
 10
161.9702340999696
 20
5.31506784033528
 30
0.0
 10
162.0274790973396
 20
5.347028224670175
 30
0.0
 10
162.0819331536271
 20
5.385088417201783
 30
0.0
 10
162.1334231260735
 20
5.427833377091865
 30
0.0
 10
162.1811696272812
 20
5.474435892791493
 30
0.0
 10
162.2222425874008
 20
5.524537140993019
 30
0.0
 10
162.2573338061267
 20
5.576873746039823
 30
0.0
 10
162.2858491043955
 20
5.631481831860699
 30
0.0
 10
162.3085832758049
 20
5.688749295644266
 30
0.0
 10
162.3241148924709
 20
5.748363752342153
 30
0.0
 10
162.3342107474236
 20
5.810368804467406
 30
0.0
 10
162.3353277725133
 20
5.852435127456729
 30
0.0
 10
162.3358974358974
 20
5.873888221153839
 30
0.0
  0
SPLINE
  5
152
330
1F
100
AcDbEntity
  8
0
  6
Continuous
 62
     7
370
    15
100
AcDbSpline
210
0.0
220
0.0
230
1.0
 70
     8
 71
     3
 72
    23
 73
    19
 74
     0
 42
0.000000001
 43
0.00000001
 40
0.0
 40
0.0
 40
0.0
 40
0.0
 40
0.0611379149156211
 40
0.119993843851213
 40
0.1782253215076145
 40
0.2362564202618943
 40
0.2949293769549177
 40
0.3547157488097482
 40
0.4167296639241612
 40
0.4806644084708337
 40
0.5458317702108664
 40
0.6097581054261737
 40
0.6729712284742068
 40
0.7360168691676655
 40
0.7998393981920402
 40
0.8647753566655743
 40
0.9310876232725651
 40
1.0
 40
1.0
 40
1.0
 40
1.0
 10
162.3358974358974
 20
5.873888221153839
 30
0.0
 10
162.3353982415376
 20
5.895563992343075
 30
0.0
 10
162.3344184853562
 20
5.938106481844466
 30
0.0
 10
162.3233368748573
 20
6.000415964101446
 30
0.0
 10
162.3079677214269
 20
6.060582401173923
 30
0.0
 10
162.2847602578546
 20
6.118227654939842
 30
0.0
 10
162.2546099636971
 20
6.17312424607952
 30
0.0
 10
162.2178857301765
 20
6.225549484053808
 30
0.0
 10
162.1754018985376
 20
6.275905299107556
 30
0.0
 10
162.1263277019067
 20
6.322680132419239
 30
0.0
 10
162.0729058468225
 20
6.365449267405121
 30
0.0
 10
162.0161045658057
 20
6.403204150709024
 30
0.0
 10
161.9566794753792
 20
6.435067522402846
 30
0.0
 10
161.8946908275914
 20
6.461653250887614
 30
0.0
 10
161.8294283554734
 20
6.480838845278406
 30
0.0
 10
161.7619456906405
 20
6.495945715776094
 30
0.0
 10
161.6913797348134
 20
6.503984831855949
 30
0.0
 10
161.6435038115557
 20
6.50537916953349
 30
0.0
 10
161.6191055689102
 20
6.506089743589738
 30
0.0
  0
LINE
  5
153
330
1F
100
AcDbEntity
  8
0
  6
Continuous
 62
     7
370
    15
100
AcDbLine
 10
150.0429487179
 20
6.069145633
 30
0.0
 11
150.0429487179
 21
5.0
 31
0.0
  0
LINE
  5
154
330
1F
100
AcDbEntity
  8
0
  6
Continuous
 62
     7
370
    15
100
AcDbLine
 10
151.221489383
 20
5.0
 30
0.0
 11
150.0429487179
 21
6.069145633
 31
0.0
  0
LINE
  5
155
330
1F
100
AcDbEntity
  8
0
  6
Continuous
 62
     7
370
    15
100
AcDbLine
 10
151.6304487179
 20
5.0
 30
0.0
 11
151.221489383
 21
5.0
 31
0.0
  0
LINE
  5
156
330
1F
100
AcDbEntity
  8
0
  6
Continuous
 62
     7
370
    15
100
AcDbLine
 10
150.2833633814
 20
6.2211538462
 30
0.0
 11
151.6304487179
 21
5.0
 31
0.0
  0
LINE
  5
157
330
1F
100
AcDbEntity
  8
0
  6
Continuous
 62
     7
370
    15
100
AcDbLine
 10
151.5083333333
 20
7.3201923077
 30
0.0
 11
150.2833633814
 21
6.2211538462
 31
0.0
  0
LINE
  5
158
330
1F
100
AcDbEntity
  8
0
  6
Continuous
 62
     7
370
    15
100
AcDbLine
 10
151.0987379808
 20
7.3201923077
 30
0.0
 11
151.5083333333
 21
7.3201923077
 31
0.0
  0
LINE
  5
159
330
1F
100
AcDbEntity
  8
0
  6
Continuous
 62
     7
370
    15
100
AcDbLine
 10
150.0429487179
 20
6.3737980769
 30
0.0
 11
151.0987379808
 21
7.3201923077
 31
0.0
  0
LINE
  5
15A
330
1F
100
AcDbEntity
  8
0
  6
Continuous
 62
     7
370
    15
100
AcDbLine
 10
150.0429487179
 20
8.2564102564
 30
0.0
 11
150.0429487179
 21
6.3737980769
 31
0.0
  0
LINE
  5
15B
330
1F
100
AcDbEntity
  8
0
  6
Continuous
 62
     7
370
    15
100
AcDbLine
 10
149.7580128205
 20
8.2564102564
 30
0.0
 11
150.0429487179
 21
8.2564102564
 31
0.0
  0
LINE
  5
15C
330
1F
100
AcDbEntity
  8
0
  6
Continuous
 62
     7
370
    15
100
AcDbLine
 10
149.7580128205
 20
5.0
 30
0.0
 11
149.7580128205
 21
8.2564102564
 31
0.0
  0
LINE
  5
15D
330
1F
100
AcDbEntity
  8
0
  6
Continuous
 62
     7
370
    15
100
AcDbLine
 10
150.0429487179
 20
5.0
 30
0.0
 11
149.7580128205
 21
5.0
 31
0.0
  0
LINE
  5
15E
330
1F
100
AcDbEntity
  8
0
  6
Continuous
 62
     7
370
    15
100
AcDbLine
 10
153.5028846154
 20
8.175
 30
0.0
 11
153.5028846154
 21
5.0
 31
0.0
  0
LINE
  5
15F
330
1F
100
AcDbEntity
  8
0
  6
Continuous
 62
     7
370
    15
100
AcDbLine
 10
153.2179487179
 20
8.175
 30
0.0
 11
153.5028846154
 21
8.175
 31
0.0
  0
LINE
  5
160
330
1F
100
AcDbEntity
  8
0
  6
Continuous
 62
     7
370
    15
100
AcDbLine
 10
153.2179487179
 20
5.0
 30
0.0
 11
153.2179487179
 21
8.175
 31
0.0
  0
LINE
  5
161
330
1F
100
AcDbEntity
  8
0
  6
Continuous
 62
     7
370
    15
100
AcDbLine
 10
153.5028846154
 20
5.0
 30
0.0
 11
153.2179487179
 21
5.0
 31
0.0
  0
LINE
  5
162
330
1F
100
AcDbEntity
  8
0
  6
Continuous
 62
     7
370
    15
100
AcDbLine
 10
154.6019230769
 20
8.175
 30
0.0
 11
154.6019230769
 21
5.0
 31
0.0
  0
LINE
  5
163
330
1F
100
AcDbEntity
  8
0
  6
Continuous
 62
     7
370
    15
100
AcDbLine
 10
154.3169871795
 20
8.175
 30
0.0
 11
154.6019230769
 21
8.175
 31
0.0
  0
LINE
  5
164
330
1F
100
AcDbEntity
  8
0
  6
Continuous
 62
     7
370
    15
100
AcDbLine
 10
154.3169871795
 20
5.0
 30
0.0
 11
154.3169871795
 21
8.175
 31
0.0
  0
LINE
  5
165
330
1F
100
AcDbEntity
  8
0
  6
Continuous
 62
     7
370
    15
100
AcDbLine
 10
154.6019230769
 20
5.0
 30
0.0
 11
154.3169871795
 21
5.0
 31
0.0
  0
LINE
  5
166
330
1F
100
AcDbEntity
  8
0
  6
Continuous
 62
     7
370
    15
100
AcDbLine
 10
155.7009615385
 20
8.175
 30
0.0
 11
155.7009615385
 21
5.0
 31
0.0
  0
LINE
  5
167
330
1F
100
AcDbEntity
  8
0
  6
Continuous
 62
     7
370
    15
100
AcDbLine
 10
155.416025641
 20
8.175
 30
0.0
 11
155.7009615385
 21
8.175
 31
0.0
  0
LINE
  5
168
330
1F
100
AcDbEntity
  8
0
  6
Continuous
 62
     7
370
    15
100
AcDbLine
 10
155.416025641
 20
5.0
 30
0.0
 11
155.416025641
 21
8.175
 31
0.0
  0
LINE
  5
169
330
1F
100
AcDbEntity
  8
0
  6
Continuous
 62
     7
370
    15
100
AcDbLine
 10
155.7009615385
 20
5.0
 30
0.0
 11
155.416025641
 21
5.0
 31
0.0
  0
LINE
  5
16A
330
1F
100
AcDbEntity
  8
0
  6
Continuous
 62
     7
370
    15
100
AcDbLine
 10
160.2192307692
 20
8.175
 30
0.0
 11
158.8759615385
 21
5.0
 31
0.0
  0
LINE
  5
16B
330
1F
100
AcDbEntity
  8
0
  6
Continuous
 62
     7
370
    15
100
AcDbLine
 10
159.9139423077
 20
8.175
 30
0.0
 11
160.2192307692
 21
8.175
 31
0.0
  0
LINE
  5
16C
330
1F
100
AcDbEntity
  8
0
  6
Continuous
 62
     7
370
    15
100
AcDbLine
 10
158.8556089744
 20
5.6729066506
 30
0.0
 11
159.9139423077
 21
8.175
 31
0.0
  0
LINE
  5
16D
330
1F
100
AcDbEntity
  8
0
  6
Continuous
 62
     7
370
    15
100
AcDbLine
 10
157.797275641
 20
8.175
 30
0.0
 11
158.8556089744
 21
5.6729066506
 31
0.0
  0
LINE
  5
16E
330
1F
100
AcDbEntity
  8
0
  6
Continuous
 62
     7
370
    15
100
AcDbLine
 10
157.4919871795
 20
8.175
 30
0.0
 11
157.797275641
 21
8.175
 31
0.0
  0
LINE
  5
16F
330
1F
100
AcDbEntity
  8
0
  6
Continuous
 62
     7
370
    15
100
AcDbLine
 10
158.8352564103
 20
5.0
 30
0.0
 11
157.4919871795
 21
8.175
 31
0.0
  0
LINE
  5
170
330
1F
100
AcDbEntity
  8
0
  6
Continuous
 62
     7
370
    15
100
AcDbLine
 10
158.8759615385
 20
5.0
 30
0.0
 11
158.8352564103
 21
5.0
 31
0.0
  0
LINE
  5
171
330
1F
100
AcDbEntity
  8
0
  6
Continuous
 62
     7
370
    15
100
AcDbLine
 10
162.1889773638
 20
8.0840494792
 30
0.0
 11
161.3500701122
 21
6.8012019231
 31
0.0
  0
LINE
  5
172
330
1F
100
AcDbEntity
  8
0
  6
Continuous
 62
     7
370
    15
100
AcDbLine
 10
161.9695512821
 20
8.2564102564
 30
0.0
 11
162.1889773638
 21
8.0840494792
 31
0.0
  0
LINE
  5
173
330
1F
100
AcDbEntity
  8
0
  6
Continuous
 62
     7
370
    15
100
AcDbLine
 10
161.021885016
 20
6.8075620994
 30
0.0
 11
161.9695512821
 21
8.2564102564
 31
0.0
  0
LINE
  5
174
330
1F
100
AcDbEntity
  8
0
  6
Continuous
 62
     7
370
    15
100
AcDbLine
 10
178.3330128205
 20
5.3243689904
 30
0.0
 11
178.3330128205
 21
5.4445763221
 31
0.0
  0
LINE
  5
175
330
1F
100
AcDbEntity
  8
0
  6
Continuous
 62
     7
370
    15
100
AcDbLine
 10
176.2570512821
 20
4.8371794872
 30
0.0
 11
176.5419871795
 21
4.8371794872
 31
0.0
  0
LINE
  5
176
330
1F
100
AcDbEntity
  8
0
  6
Continuous
 62
     7
370
    15
100
AcDbLine
 10
178.6179487179
 20
7.3201923077
 30
0.0
 11
178.6179487179
 21
5.478921274
 31
0.0
  0
LINE
  5
177
330
1F
100
AcDbEntity
  8
0
  6
Continuous
 62
     7
370
    15
100
AcDbLine
 10
178.3330128205
 20
7.3201923077
 30
0.0
 11
178.6179487179
 21
7.3201923077
 31
0.0
  0
LINE
  5
178
330
1F
100
AcDbEntity
  8
0
  6
Continuous
 62
     7
370
    15
100
AcDbLine
 10
178.3330128205
 20
6.9144130609
 30
0.0
 11
178.3330128205
 21
7.3201923077
 31
0.0
  0
LINE
  5
179
330
1F
100
AcDbEntity
  8
0
  6
Continuous
 62
     7
370
    15
100
AcDbLine
 10
187.8173076923
 20
8.2564102564
 30
0.0
 11
187.8173076923
 21
5.0
 31
0.0
  0
LINE
  5
17A
330
1F
100
AcDbEntity
  8
0
  6
Continuous
 62
     7
370
    15
100
AcDbLine
 10
187.5323717949
 20
8.2564102564
 30
0.0
 11
187.8173076923
 21
8.2564102564
 31
0.0
  0
LINE
  5
17B
330
1F
100
AcDbEntity
  8
0
  6
Continuous
 62
     7
370
    15
100
AcDbLine
 10
187.5323717949
 20
5.0
 30
0.0
 11
187.5323717949
 21
8.2564102564
 31
0.0
  0
LINE
  5
17C
330
1F
100
AcDbEntity
  8
0
  6
Continuous
 62
     7
370
    15
100
AcDbLine
 10
187.8173076923
 20
5.0
 30
0.0
 11
187.5323717949
 21
5.0
 31
0.0
  0
LINE
  5
17D
330
1F
100
AcDbEntity
  8
0
  6
Continuous
 62
     7
370
    15
100
AcDbLine
 10
188.7128205128
 20
8.2564102564
 30
0.0
 11
188.7128205128
 21
5.0
 31
0.0
  0
LINE
  5
17E
330
1F
100
AcDbEntity
  8
0
  6
Continuous
 62
     7
370
    15
100
AcDbLine
 10
188.4278846154
 20
8.2564102564
 30
0.0
 11
188.7128205128
 21
8.2564102564
 31
0.0
  0
LINE
  5
17F
330
1F
100
AcDbEntity
  8
0
  6
Continuous
 62
     7
370
    15
100
AcDbLine
 10
188.4278846154
 20
5.0
 30
0.0
 11
188.4278846154
 21
8.2564102564
 31
0.0
  0
LINE
  5
180
330
1F
100
AcDbEntity
  8
0
  6
Continuous
 62
     7
370
    15
100
AcDbLine
 10
188.7128205128
 20
5.0
 30
0.0
 11
188.4278846154
 21
5.0
 31
0.0
  0
LINE
  5
181
330
1F
100
AcDbEntity
  8
0
  6
Continuous
 62
     7
370
    15
100
AcDbLine
 10
190.7334485176
 20
5.0
 30
0.0
 11
190.4224358974
 21
5.0
 31
0.0
  0
LINE
  5
182
330
1F
100
AcDbEntity
  8
0
  6
Continuous
 62
     7
370
    15
100
AcDbLine
 10
191.2161858974
 20
6.0176282051
 30
0.0
 11
190.7334485176
 21
5.0
 31
0.0
  0
LINE
  5
183
330
1F
100
AcDbEntity
  8
0
  6
Continuous
 62
     7
370
    15
100
AcDbLine
 10
192.6554937901
 20
6.0176282051
 30
0.0
 11
191.2161858974
 21
6.0176282051
 31
0.0
  0
LINE
  5
184
330
1F
100
AcDbEntity
  8
0
  6
Continuous
 62
     7
370
    15
100
AcDbLine
 10
193.1248747997
 20
5.0
 30
0.0
 11
192.6554937901
 21
6.0176282051
 31
0.0
  0
LINE
  5
185
330
1F
100
AcDbEntity
  8
0
  6
Continuous
 62
     7
370
    15
100
AcDbLine
 10
193.4346153846
 20
5.0
 30
0.0
 11
193.1248747997
 21
5.0
 31
0.0
  0
LINE
  5
186
330
1F
100
AcDbEntity
  8
0
  6
Continuous
 62
     7
370
    15
100
AcDbLine
 10
191.9692307692
 20
8.175
 30
0.0
 11
193.4346153846
 21
5.0
 31
0.0
  0
LINE
  5
187
330
1F
100
AcDbEntity
  8
0
  6
Continuous
 62
     7
370
    15
100
AcDbLine
 10
191.928525641
 20
8.175
 30
0.0
 11
191.9692307692
 21
8.175
 31
0.0
  0
LINE
  5
188
330
1F
100
AcDbEntity
  8
0
  6
Continuous
 62
     7
370
    15
100
AcDbLine
 10
190.4224358974
 20
5.0
 30
0.0
 11
191.928525641
 21
8.175
 31
0.0
  0
LINE
  5
189
330
1F
100
AcDbEntity
  8
0
  6
Continuous
 62
     7
370
    15
100
AcDbLine
 10
5.0
 20
180.0
 30
0.0
 11
10.0
 21
180.0
 31
0.0
  0
LINE
  5
18A
330
1F
100
AcDbEntity
  8
0
  6
Continuous
 62
     7
370
    15
100
AcDbLine
 10
10.0
 20
90.0
 30
0.0
 11
10.0
 21
180.0
 31
0.0
  0
LINE
  5
18B
330
1F
100
AcDbEntity
  8
0
  6
Continuous
 62
     7
370
    15
100
AcDbLine
 10
10.0
 20
90.0
 30
0.0
 11
13.5
 21
90.0
 31
0.0
  0
LINE
  5
18C
330
1F
100
AcDbEntity
  8
0
  6
Continuous
 62
     7
370
    15
100
AcDbLine
 10
13.5
 20
90.0
 30
0.0
 11
13.5
 21
180.0
 31
0.0
  0
LINE
  5
18D
330
1F
100
AcDbEntity
  8
0
  6
Continuous
 62
     7
370
    15
100
AcDbLine
 10
13.5
 20
180.0
 30
0.0
 11
325.5
 21
180.0
 31
0.0
  0
LINE
  5
18E
330
1F
100
AcDbEntity
  8
0
  6
Continuous
 62
     7
370
    15
100
AcDbLine
 10
325.5
 20
90.0
 30
0.0
 11
325.5
 21
180.0
 31
0.0
  0
LINE
  5
18F
330
1F
100
AcDbEntity
  8
0
  6
Continuous
 62
     7
370
    15
100
AcDbLine
 10
329.0
 20
90.0
 30
0.0
 11
325.5
 21
90.0
 31
0.0
  0
LINE
  5
190
330
1F
100
AcDbEntity
  8
0
  6
Continuous
 62
     7
370
    15
100
AcDbLine
 10
329.0
 20
90.0
 30
0.0
 11
329.0
 21
180.0
 31
0.0
  0
LINE
  5
191
330
1F
100
AcDbEntity
  8
0
  6
Continuous
 62
     7
370
    15
100
AcDbLine
 10
329.0
 20
180.0
 30
0.0
 11
334.0
 21
180.0
 31
0.0
  0
LINE
  5
192
330
1F
100
AcDbEntity
  8
0
  6
Continuous
 62
     7
370
    15
100
AcDbLine
 10
339.0
 20
5.0
 30
0.0
 11
339.0
 21
175.0
 31
0.0
  0
LINE
  5
193
330
1F
100
AcDbEntity
  8
0
  6
Continuous
 62
     7
370
    15
100
AcDbLine
 10
293.0
 20
0.0
 30
0.0
 11
334.0
 21
0.0
 31
0.0
  0
LINE
  5
194
330
1F
100
AcDbEntity
  8
0
  6
Continuous
 62
     7
370
    15
100
AcDbLine
 10
293.0
 20
0.0
 30
0.0
 11
293.0
 21
30.0
 31
0.0
  0
LINE
  5
195
330
1F
100
AcDbEntity
  8
0
  6
Continuous
 62
     7
370
    15
100
AcDbLine
 10
293.0
 20
30.0
 30
0.0
 11
289.5
 21
30.0
 31
0.0
  0
LINE
  5
196
330
1F
100
AcDbEntity
  8
0
  6
Continuous
 62
     7
370
    15
100
AcDbLine
 10
289.5
 20
0.0
 30
0.0
 11
289.5
 21
30.0
 31
0.0
  0
LINE
  5
197
330
1F
100
AcDbEntity
  8
0
  6
Continuous
 62
     7
370
    15
100
AcDbLine
 10
5.0
 20
0.0
 30
0.0
 11
289.5
 21
0.0
 31
0.0
  0
LINE
  5
198
330
1F
100
AcDbEntity
  8
0
  6
Continuous
 62
     7
370
    15
100
AcDbLine
 10
0.0
 20
5.0
 30
0.0
 11
0.0
 21
175.0
 31
0.0
  0
LINE
  5
199
330
1F
100
AcDbEntity
  8
0
  6
Continuous
 62
     7
370
    15
100
AcDbLine
 10
147.3875751202
 20
5.0
 30
0.0
 11
146.2370192308
 21
7.2896634615
 31
0.0
  0
LINE
  5
19A
330
1F
100
AcDbEntity
  8
0
  6
Continuous
 62
     7
370
    15
100
AcDbLine
 10
147.4518129006
 20
5.0
 30
0.0
 11
147.3875751202
 21
5.0
 31
0.0
  0
LINE
  5
19B
330
1F
100
AcDbEntity
  8
0
  6
Continuous
 62
     7
370
    15
100
AcDbLine
 10
148.5979166667
 20
7.2845753205
 30
0.0
 11
147.4518129006
 21
5.0
 31
0.0
  0
LINE
  5
19C
330
1F
100
AcDbEntity
  8
0
  6
Continuous
 62
     7
370
    15
100
AcDbLine
 10
148.9019330929
 20
5.0
 30
0.0
 11
148.5979166667
 21
7.2845753205
 31
0.0
  0
LINE
  5
19D
330
1F
100
AcDbEntity
  8
0
  6
Continuous
 62
     7
370
    15
100
AcDbLine
 10
149.1881410256
 20
5.0
 30
0.0
 11
148.9019330929
 21
5.0
 31
0.0
  0
LINE
  5
19E
330
1F
100
AcDbEntity
  8
0
  6
Continuous
 62
     7
370
    15
100
AcDbLine
 10
148.7664613381
 20
8.175
 30
0.0
 11
149.1881410256
 21
5.0
 31
0.0
  0
LINE
  5
19F
330
1F
100
AcDbEntity
  8
0
  6
Continuous
 62
     7
370
    15
100
AcDbLine
 10
148.7251201923
 20
8.175
 30
0.0
 11
148.7664613381
 21
8.175
 31
0.0
  0
LINE
  5
1A0
330
1F
100
AcDbEntity
  8
0
  6
Continuous
 62
     7
370
    15
100
AcDbLine
 10
147.4174679487
 20
5.5698717949
 30
0.0
 11
148.7251201923
 21
8.175
 31
0.0
  0
LINE
  5
1A1
330
1F
100
AcDbEntity
  8
0
  6
Continuous
 62
     7
370
    15
100
AcDbLine
 10
146.106635617
 20
8.175
 30
0.0
 11
147.4174679487
 21
5.5698717949
 31
0.0
  0
LINE
  5
1A2
330
1F
100
AcDbEntity
  8
0
  6
Continuous
 62
     7
370
    15
100
AcDbLine
 10
146.0659304888
 20
8.175
 30
0.0
 11
146.106635617
 21
8.175
 31
0.0
  0
LINE
  5
1A3
330
1F
100
AcDbEntity
  8
0
  6
Continuous
 62
     7
370
    15
100
AcDbLine
 10
145.6467948718
 20
5.0
 30
0.0
 11
146.0659304888
 21
8.175
 31
0.0
  0
LINE
  5
1A4
330
1F
100
AcDbEntity
  8
0
  6
Continuous
 62
     7
370
    15
100
AcDbLine
 10
145.9336388221
 20
5.0
 30
0.0
 11
145.6467948718
 21
5.0
 31
0.0
  0
LINE
  5
1A5
330
1F
100
AcDbEntity
  8
0
  6
Continuous
 62
     7
370
    15
100
AcDbLine
 10
146.2370192308
 20
7.2896634615
 30
0.0
 11
145.9336388221
 21
5.0
 31
0.0
  0
LINE
  5
1A6
330
1F
100
AcDbEntity
  8
0
  6
Continuous
 62
     7
370
    15
100
AcDbLine
 10
186.6368589744
 20
5.0
 30
0.0
 11
186.6368589744
 21
5.4013271234
 31
0.0
  0
LINE
  5
1A7
330
1F
100
AcDbEntity
  8
0
  6
Continuous
 62
     7
370
    15
100
AcDbLine
 10
186.9217948718
 20
5.0
 30
0.0
 11
186.6368589744
 21
5.0
 31
0.0
  0
LINE
  5
1A8
330
1F
100
AcDbEntity
  8
0
  6
Continuous
 62
     7
370
    15
100
AcDbLine
 10
186.9217948718
 20
7.3201923077
 30
0.0
 11
186.9217948718
 21
5.0
 31
0.0
  0
LINE
  5
1A9
330
1F
100
AcDbEntity
  8
0
  6
Continuous
 62
     7
370
    15
100
AcDbLine
 10
186.6368589744
 20
7.3201923077
 30
0.0
 11
186.9217948718
 21
7.3201923077
 31
0.0
  0
LINE
  5
1AA
330
1F
100
AcDbEntity
  8
0
  6
Continuous
 62
     7
370
    15
100
AcDbLine
 10
186.6368589744
 20
6.8908804087
 30
0.0
 11
186.6368589744
 21
7.3201923077
 31
0.0
  0
LINE
  5
1AB
330
1F
100
AcDbEntity
  8
0
  6
Continuous
 62
     7
370
    15
100
AcDbLine
 10
182.2203525641
 20
7.4283153045
 30
0.0
 11
181.2536057692
 21
5.0
 31
0.0
  0
LINE
  5
1AC
330
1F
100
AcDbEntity
  8
0
  6
Continuous
 62
     7
370
    15
100
AcDbLine
 10
183.1756510417
 20
5.0
 30
0.0
 11
182.2203525641
 21
7.4283153045
 31
0.0
  0
LINE
  5
1AD
330
1F
100
AcDbEntity
  8
0
  6
Continuous
 62
     7
370
    15
100
AcDbLine
 10
183.2163561699
 20
5.0
 30
0.0
 11
183.1756510417
 21
5.0
 31
0.0
  0
LINE
  5
1AE
330
1F
100
AcDbEntity
  8
0
  6
Continuous
 62
     7
370
    15
100
AcDbLine
 10
184.0724358974
 20
8.175
 30
0.0
 11
183.2163561699
 21
5.0
 31
0.0
  0
LINE
  5
1AF
330
1F
100
AcDbEntity
  8
0
  6
Continuous
 62
     7
370
    15
100
AcDbLine
 10
183.7811398237
 20
8.175
 30
0.0
 11
184.0724358974
 21
8.175
 31
0.0
  0
LINE
  5
1B0
330
1F
100
AcDbEntity
  8
0
  6
Continuous
 62
     7
370
    15
100
AcDbLine
 10
183.1565705128
 20
5.8624399038
 30
0.0
 11
183.7811398237
 21
8.175
 31
0.0
  0
LINE
  5
1B1
330
1F
100
AcDbEntity
  8
0
  6
Continuous
 62
     7
370
    15
100
AcDbLine
 10
182.249609375
 20
8.175
 30
0.0
 11
183.1565705128
 21
5.8624399038
 31
0.0
  0
LINE
  5
1B2
330
1F
100
AcDbEntity
  8
0
  6
Continuous
 62
     7
370
    15
100
AcDbLine
 10
182.2082682292
 20
8.175
 30
0.0
 11
182.249609375
 21
8.175
 31
0.0
  0
LINE
  5
1B3
330
1F
100
AcDbEntity
  8
0
  6
Continuous
 62
     7
370
    15
100
AcDbLine
 10
181.2841346154
 20
5.8465394631
 30
0.0
 11
182.2082682292
 21
8.175
 31
0.0
  0
LINE
  5
1B4
330
1F
100
AcDbEntity
  8
0
  6
Continuous
 62
     7
370
    15
100
AcDbLine
 10
180.6627453926
 20
8.175
 30
0.0
 11
181.2841346154
 21
5.8465394631
 31
0.0
  0
LINE
  5
1B5
330
1F
100
AcDbEntity
  8
0
  6
Continuous
 62
     7
370
    15
100
AcDbLine
 10
180.3682692308
 20
8.175
 30
0.0
 11
180.6627453926
 21
8.175
 31
0.0
  0
LINE
  5
1B6
330
1F
100
AcDbEntity
  8
0
  6
Continuous
 62
     7
370
    15
100
AcDbLine
 10
181.212900641
 20
5.0
 30
0.0
 11
180.3682692308
 21
8.175
 31
0.0
  0
LINE
  5
1B7
330
1F
100
AcDbEntity
  8
0
  6
Continuous
 62
     7
370
    15
100
AcDbLine
 10
181.2536057692
 20
5.0
 30
0.0
 11
181.212900641
 21
5.0
 31
0.0
  0
LINE
  5
1B8
330
1F
100
AcDbEntity
  8
0
  6
Continuous
 62
     7
370
    15
100
AcDbLine
 10
170.7618589744
 20
5.2734875801
 30
0.0
 11
170.9507562099
 21
5.4884615385
 31
0.0
  0
LINE
  5
1B9
330
1F
100
AcDbEntity
  8
0
  6
Continuous
 62
     7
370
    15
100
AcDbLine
 10
172.0644230769
 20
7.0308042869
 30
0.0
 11
171.8710737179
 21
6.8317307692
 31
0.0
  0
LINE
  5
1BA
330
1F
100
AcDbEntity
  8
0
  6
Continuous
 62
     7
370
    15
100
AcDbLine
 10
172.9192307692
 20
7.3201923077
 30
0.0
 11
172.9192307692
 21
5.0
 31
0.0
  0
LINE
  5
1BB
330
1F
100
AcDbEntity
  8
0
  6
Continuous
 62
     7
370
    15
100
AcDbLine
 10
172.6342948718
 20
7.3201923077
 30
0.0
 11
172.9192307692
 21
7.3201923077
 31
0.0
  0
LINE
  5
1BC
330
1F
100
AcDbEntity
  8
0
  6
Continuous
 62
     7
370
    15
100
AcDbLine
 10
172.6342948718
 20
5.0
 30
0.0
 11
172.6342948718
 21
7.3201923077
 31
0.0
  0
LINE
  5
1BD
330
1F
100
AcDbEntity
  8
0
  6
Continuous
 62
     7
370
    15
100
AcDbLine
 10
172.9192307692
 20
5.0
 30
0.0
 11
172.6342948718
 21
5.0
 31
0.0
  0
LINE
  5
1BE
330
1F
100
AcDbEntity
  8
0
  6
Continuous
 62
     7
370
    15
100
AcDbLine
 10
173.8961538462
 20
5.8389072516
 30
0.0
 11
173.8961538462
 21
5.0
 31
0.0
  0
LINE
  5
1BF
330
1F
100
AcDbEntity
  8
0
  6
Continuous
 62
     7
370
    15
100
AcDbLine
 10
175.3615384615
 20
5.0
 30
0.0
 11
175.3615384615
 21
6.09140625
 31
0.0
  0
LINE
  5
1C0
330
1F
100
AcDbEntity
  8
0
  6
Continuous
 62
     7
370
    15
100
AcDbLine
 10
175.646474359
 20
5.0
 30
0.0
 11
175.3615384615
 21
5.0
 31
0.0
  0
LINE
  5
1C1
330
1F
100
AcDbEntity
  8
0
  6
Continuous
 62
     7
370
    15
100
AcDbLine
 10
175.646474359
 20
6.1849008413
 30
0.0
 11
175.646474359
 21
5.0
 31
0.0
  0
LINE
  5
1C2
330
1F
100
AcDbEntity
  8
0
  6
Continuous
 62
     7
370
    15
100
AcDbLine
 10
173.8961538462
 20
7.3201923077
 30
0.0
 11
173.8961538462
 21
6.9016927083
 31
0.0
  0
LINE
  5
1C3
330
1F
100
AcDbEntity
  8
0
  6
Continuous
 62
     7
370
    15
100
AcDbLine
 10
173.6112179487
 20
7.3201923077
 30
0.0
 11
173.8961538462
 21
7.3201923077
 31
0.0
  0
LINE
  5
1C4
330
1F
100
AcDbEntity
  8
0
  6
Continuous
 62
     7
370
    15
100
AcDbLine
 10
173.6112179487
 20
5.0
 30
0.0
 11
173.6112179487
 21
7.3201923077
 31
0.0
  0
LINE
  5
1C5
330
1F
100
AcDbEntity
  8
0
  6
Continuous
 62
     7
370
    15
100
AcDbLine
 10
173.8961538462
 20
5.0
 30
0.0
 11
173.6112179487
 21
5.0
 31
0.0
  0
LINE
  5
1C6
330
1F
100
AcDbEntity
  8
0
  6
Continuous
 62
     7
370
    15
100
AcDbLine
 10
170.0291666667
 20
5.0
 30
0.0
 11
170.0291666667
 21
5.4013271234
 31
0.0
  0
LINE
  5
1C7
330
1F
100
AcDbEntity
  8
0
  6
Continuous
 62
     7
370
    15
100
AcDbLine
 10
170.3141025641
 20
5.0
 30
0.0
 11
170.0291666667
 21
5.0
 31
0.0
  0
LINE
  5
1C8
330
1F
100
AcDbEntity
  8
0
  6
Continuous
 62
     7
370
    15
100
AcDbLine
 10
170.3141025641
 20
7.3201923077
 30
0.0
 11
170.3141025641
 21
5.0
 31
0.0
  0
LINE
  5
1C9
330
1F
100
AcDbEntity
  8
0
  6
Continuous
 62
     7
370
    15
100
AcDbLine
 10
170.0291666667
 20
7.3201923077
 30
0.0
 11
170.3141025641
 21
7.3201923077
 31
0.0
  0
LINE
  5
1CA
330
1F
100
AcDbEntity
  8
0
  6
Continuous
 62
     7
370
    15
100
AcDbLine
 10
170.0291666667
 20
6.8908804087
 30
0.0
 11
170.0291666667
 21
7.3201923077
 31
0.0
  0
LINE
  5
1CB
330
1F
100
AcDbEntity
  8
0
  6
Continuous
 62
     7
370
    15
100
AcDbLine
 10
167.1340144231
 20
5.7733974359
 30
0.0
 11
167.3833333333
 21
5.5845002003
 31
0.0
  0
LINE
  5
1CC
330
1F
100
AcDbEntity
  8
0
  6
Continuous
 62
     7
370
    15
100
AcDbLine
 10
167.3833333333
 20
7.5924078526
 30
0.0
 11
167.1340144231
 21
7.4016025641
 31
0.0
  0
LINE
  5
1CD
330
1F
100
AcDbEntity
  8
0
  6
Continuous
 62
     7
370
    15
100
AcDbLine
 10
224.5
 20
5.0
 30
0.0
 11
234.5
 21
5.0
 31
0.0
  0
LINE
  5
1CE
330
1F
100
AcDbEntity
  8
0
  6
Continuous
 62
     7
370
    15
100
AcDbLine
 10
234.5
 20
5.0
 30
0.0
 11
234.5
 21
8.5
 31
0.0
  0
LINE
  5
1CF
330
1F
100
AcDbEntity
  8
0
  6
Continuous
 62
     7
370
    15
100
AcDbLine
 10
234.5
 20
8.5
 30
0.0
 11
224.5
 21
8.5
 31
0.0
  0
LINE
  5
1D0
330
1F
100
AcDbEntity
  8
0
  6
Continuous
 62
     7
370
    15
100
AcDbLine
 10
224.5
 20
8.5
 30
0.0
 11
224.5
 21
5.0
 31
0.0
  0
LINE
  5
1D1
330
1F
100
AcDbEntity
  8
0
  6
Continuous
 62
     7
370
    15
100
AcDbLine
 10
221.5
 20
11.5
 30
0.0
 11
277.5
 21
11.5
 31
0.0
  0
LINE
  5
1D2
330
1F
100
AcDbEntity
  8
0
  6
Continuous
 62
     7
370
    15
100
AcDbLine
 10
279.5
 20
13.5
 30
0.0
 11
279.5
 21
27.5
 31
0.0
  0
LINE
  5
1D3
330
1F
100
AcDbEntity
  8
0
  6
Continuous
 62
     7
370
    15
100
AcDbLine
 10
277.5
 20
29.5
 30
0.0
 11
221.5
 21
29.5
 31
0.0
  0
LINE
  5
1D4
330
1F
100
AcDbEntity
  8
0
  6
Continuous
 62
     7
370
    15
100
AcDbLine
 10
219.5
 20
27.5
 30
0.0
 11
219.5
 21
13.5
 31
0.0
  0
LINE
  5
1D5
330
1F
100
AcDbEntity
  8
0
  6
Continuous
 62
     7
370
    15
100
AcDbLine
 10
254.5
 20
5.0
 30
0.0
 11
264.5
 21
5.0
 31
0.0
  0
LINE
  5
1D6
330
1F
100
AcDbEntity
  8
0
  6
Continuous
 62
     7
370
    15
100
AcDbLine
 10
264.5
 20
5.0
 30
0.0
 11
264.5
 21
8.5
 31
0.0
  0
LINE
  5
1D7
330
1F
100
AcDbEntity
  8
0
  6
Continuous
 62
     7
370
    15
100
AcDbLine
 10
264.5
 20
8.5
 30
0.0
 11
254.5
 21
8.5
 31
0.0
  0
LINE
  5
1D8
330
1F
100
AcDbEntity
  8
0
  6
Continuous
 62
     7
370
    15
100
AcDbLine
 10
254.5
 20
8.5
 30
0.0
 11
254.5
 21
5.0
 31
0.0
  0
LINE
  5
1D9
330
1F
100
AcDbEntity
  8
0
  6
Continuous
 62
     7
370
    15
100
AcDbLine
 10
191.945698117
 20
7.5561548478
 30
0.0
 11
191.3707381811
 21
6.3432692308
 31
0.0
  0
LINE
  5
1DA
330
1F
100
AcDbEntity
  8
0
  6
Continuous
 62
     7
370
    15
100
AcDbLine
 10
191.3707381811
 20
6.3432692308
 30
0.0
 11
192.5053936298
 21
6.3432692308
 31
0.0
  0
LINE
  5
1DB
330
1F
100
AcDbEntity
  8
0
  6
Continuous
 62
     7
370
    15
100
AcDbLine
 10
192.5053936298
 20
6.3432692308
 30
0.0
 11
191.945698117
 21
7.5561548478
 31
0.0
  0
ARC
  5
1DC
330
1F
100
AcDbEntity
  8
0
  6
Continuous
 62
     7
370
    15
100
AcDbCircle
 10
5.0
 20
175.0
 30
0.0
 40
5.0
100
AcDbArc
 50
90.0
 51
180.0
  0
ARC
  5
1DD
330
1F
100
AcDbEntity
  8
0
  6
Continuous
 62
     7
370
    15
100
AcDbCircle
 10
334.0
 20
175.0
 30
0.0
 40
5.0
100
AcDbArc
 50
0.0
 51
90.0
  0
ARC
  5
1DE
330
1F
100
AcDbEntity
  8
0
  6
Continuous
 62
     7
370
    15
100
AcDbCircle
 10
334.0
 20
5.0
 30
0.0
 40
5.0
100
AcDbArc
 50
270.0
 51
0.0
  0
ARC
  5
1DF
330
1F
100
AcDbEntity
  8
0
  6
Continuous
 62
     7
370
    15
100
AcDbCircle
 10
5.0
 20
5.0
 30
0.0
 40
4.999999999999986
100
AcDbArc
 50
180.0
 51
270.0
  0
ARC
  5
1E0
330
1F
100
AcDbEntity
  8
0
  6
Continuous
 62
     7
370
    15
100
AcDbCircle
 10
221.5
 20
13.5
 30
0.0
 40
2.000000000000034
100
AcDbArc
 50
180.0
 51
270.0
  0
ARC
  5
1E1
330
1F
100
AcDbEntity
  8
0
  6
Continuous
 62
     7
370
    15
100
AcDbCircle
 10
277.5
 20
13.5
 30
0.0
 40
2.000000000000005
100
AcDbArc
 50
270.0
 51
0.0
  0
ARC
  5
1E2
330
1F
100
AcDbEntity
  8
0
  6
Continuous
 62
     7
370
    15
100
AcDbCircle
 10
277.5
 20
27.5
 30
0.0
 40
2.000000000000014
100
AcDbArc
 50
0.0
 51
90.0
  0
ARC
  5
1E3
330
1F
100
AcDbEntity
  8
0
  6
Continuous
 62
     7
370
    15
100
AcDbCircle
 10
221.5
 20
27.5
 30
0.0
 40
2.000000000000028
100
AcDbArc
 50
90.0
 51
180.0
  0
MTEXT
  5
1E5
330
1F
100
AcDbEntity
  8
0
  6
Continuous
 62
     7
100
AcDbMText
 10
0.0
 20
-1.0195663917
 30
0.0
 40
4.83362
 41
0.0
 71
     1
 72
     1
  1
SOLIDWORKS Educational Product.
  7
SLDTEXTSTYLE0
 73
     1
 44
1.0
  0
MTEXT
  5
1E6
330
1F
100
AcDbEntity
  8
0
  6
Continuous
 62
     7
100
AcDbMText
 10
0.0
 20
-8.2699963917
 30
0.0
 40
4.83362
 41
0.0
 71
     1
 72
     1
  1
For Instructional Use Only.
  7
SLDTEXTSTYLE0
 73
     1
 44
1.0
  0
ENDSEC
  0
SECTION
  2
OBJECTS
  0
DICTIONARY
  5
C
330
0
100
AcDbDictionary
281
     1
  3
ACAD_GROUP
350
D
  3
ACAD_LAYOUT
350
1A
  3
ACAD_MLINESTYLE
350
17
  3
ACAD_PLOTSETTINGS
350
19
  3
ACAD_PLOTSTYLENAME
350
E
  3
ACAD_SCALELIST
350
47
  0
DICTIONARY
  5
D
102
{ACAD_REACTORS
330
C
102
}
330
C
100
AcDbDictionary
281
     1
  0
DICTIONARY
  5
1A
102
{ACAD_REACTORS
330
C
102
}
330
C
100
AcDbDictionary
281
     1
  3
Layout1
350
1E
  3
Layout2
350
26
  3
Model
350
22
  0
DICTIONARY
  5
17
102
{ACAD_REACTORS
330
C
102
}
330
C
100
AcDbDictionary
281
     1
  3
Standard
350
18
  0
DICTIONARY
  5
19
102
{ACAD_REACTORS
330
C
102
}
330
C
100
AcDbDictionary
281
     1
  0
ACDBDICTIONARYWDFLT
  5
E
102
{ACAD_REACTORS
330
C
102
}
330
C
100
AcDbDictionary
281
     1
  3
Normal
350
F
100
AcDbDictionaryWithDefault
340
F
  0
DICTIONARY
  5
47
102
{ACAD_REACTORS
330
C
102
}
330
C
100
AcDbDictionary
281
     1
  3
A0
350
48
  3
A1
350
49
  3
A2
350
4A
  3
A3
350
4B
  3
A4
350
4C
  3
A5
350
4D
  3
A6
350
4E
  3
A7
350
4F
  3
A8
350
50
  3
A9
350
51
  3
B0
350
52
  3
B1
350
53
  3
B2
350
54
  3
B3
350
55
  3
B4
350
56
  3
B5
350
57
  3
B6
350
58
  3
B7
350
59
  3
B8
350
5A
  3
B9
350
5B
  3
C0
350
5C
  3
C1
350
5D
  3
C2
350
5E
  3
C3
350
5F
  3
C4
350
60
  3
C5
350
61
  3
C6
350
62
  3
C7
350
63
  3
C8
350
64
  3
C9
350
65
  3
D0
350
66
  3
D1
350
67
  3
D2
350
68
  0
LAYOUT
  5
1E
102
{ACAD_REACTORS
330
1A
102
}
330
1A
100
AcDbPlotSettings
  1

  2
none_device
  4

  6

 40
0.0
 41
0.0
 42
0.0
 43
0.0
 44
0.0
 45
0.0
 46
0.0
 47
0.0
 48
0.0
 49
0.0
140
0.0
141
0.0
142
1.0
143
1.0
 70
   688
 72
     1
 73
     0
 74
     5
  7

 75
    16
147
1.0
148
0.0
149
0.0
100
AcDbLayout
  1
Layout1
 70
     1
 71
     1
 10
0.0
 20
0.0
 11
420.0
 21
297.0
 12
0.0
 22
0.0
 32
0.0
 14
1.0000000000E+20
 24
1.0000000000E+20
 34
1.0000000000E+20
 15
-1.0000000000E+20
 25
-1.0000000000E+20
 35
-1.0000000000E+20
146
0.0
 13
0.0
 23
0.0
 33
0.0
 16
1.0
 26
0.0
 36
0.0
 17
0.0
 27
1.0
 37
0.0
 76
     0
330
1B
  0
LAYOUT
  5
26
102
{ACAD_REACTORS
330
1A
102
}
330
1A
100
AcDbPlotSettings
  1

  2
none_device
  4

  6

 40
0.0
 41
0.0
 42
0.0
 43
0.0
 44
0.0
 45
0.0
 46
0.0
 47
0.0
 48
0.0
 49
0.0
140
0.0
141
0.0
142
1.0
143
1.0
 70
   688
 72
     1
 73
     0
 74
     5
  7

 75
    16
147
1.0
148
0.0
149
0.0
100
AcDbLayout
  1
Layout2
 70
     1
 71
     2
 10
0.0
 20
0.0
 11
0.0
 21
0.0
 12
0.0
 22
0.0
 32
0.0
 14
0.0
 24
0.0
 34
0.0
 15
0.0
 25
0.0
 35
0.0
146
0.0
 13
0.0
 23
0.0
 33
0.0
 16
1.0
 26
0.0
 36
0.0
 17
0.0
 27
1.0
 37
0.0
 76
     0
330
23
  0
LAYOUT
  5
22
102
{ACAD_REACTORS
330
1A
102
}
330
1A
100
AcDbPlotSettings
  1

  2
none_device
  4
ANSI_A_(11.00_x_8.50_Inches)
  6

 40
6.35
 41
19.05
 42
6.35000508
 43
19.05000254
 44
279.4
 45
215.9
 46
-4.95300254
 47
15.4647774911
 48
0.0
 49
0.0
140
0.0
141
0.0
142
0.0321238938
143
1.0
 70
  1696
 72
     0
 73
     0
 74
     0
  7

 75
     0
147
0.0179189148
148
-1300.4909072572
149
0.0
100
AcDbLayout
  1
Model
 70
     1
 71
     0
 10
0.0
 20
0.0
 11
420.0
 21
297.0
 12
0.0
 22
0.0
 32
0.0
 14
0.0
 24
0.0
 34
0.0
 15
339.0
 25
180.0
 35
0.0
146
0.0
 13
0.0
 23
0.0
 33
0.0
 16
1.0
 26
0.0
 36
0.0
 17
0.0
 27
1.0
 37
0.0
 76
     0
330
1F
331
29
  0
MLINESTYLE
  5
18
102
{ACAD_REACTORS
330
17
102
}
330
17
100
AcDbMlineStyle
  2
Standard
 70
     0
  3

 62
   256
 51
90.0
 52
90.0
 71
     2
 49
0.5
 62
   256
  6
BYLAYER
 49
-0.5
 62
   256
  6
BYLAYER
  0
ACDBPLACEHOLDER
  5
F
102
{ACAD_REACTORS
330
E
102
}
330
E
  0
SCALE
  5
48
102
{ACAD_REACTORS
330
47
102
}
330
47
100
AcDbScale
 70
     0
300
1:1
140
1.0
141
1.0
290
     1
  0
SCALE
  5
49
102
{ACAD_REACTORS
330
47
102
}
330
47
100
AcDbScale
 70
     0
300
1:2
140
1.0
141
2.0
290
     0
  0
SCALE
  5
4A
102
{ACAD_REACTORS
330
47
102
}
330
47
100
AcDbScale
 70
     0
300
1:4
140
1.0
141
4.0
290
     0
  0
SCALE
  5
4B
102
{ACAD_REACTORS
330
47
102
}
330
47
100
AcDbScale
 70
     0
300
1:5
140
1.0
141
5.0
290
     0
  0
SCALE
  5
4C
102
{ACAD_REACTORS
330
47
102
}
330
47
100
AcDbScale
 70
     0
300
1:8
140
1.0
141
8.0
290
     0
  0
SCALE
  5
4D
102
{ACAD_REACTORS
330
47
102
}
330
47
100
AcDbScale
 70
     0
300
1:10
140
1.0
141
10.0
290
     0
  0
SCALE
  5
4E
102
{ACAD_REACTORS
330
47
102
}
330
47
100
AcDbScale
 70
     0
300
1:16
140
1.0
141
16.0
290
     0
  0
SCALE
  5
4F
102
{ACAD_REACTORS
330
47
102
}
330
47
100
AcDbScale
 70
     0
300
1:20
140
1.0
141
20.0
290
     0
  0
SCALE
  5
50
102
{ACAD_REACTORS
330
47
102
}
330
47
100
AcDbScale
 70
     0
300
1:30
140
1.0
141
30.0
290
     0
  0
SCALE
  5
51
102
{ACAD_REACTORS
330
47
102
}
330
47
100
AcDbScale
 70
     0
300
1:40
140
1.0
141
40.0
290
     0
  0
SCALE
  5
52
102
{ACAD_REACTORS
330
47
102
}
330
47
100
AcDbScale
 70
     0
300
1:50
140
1.0
141
50.0
290
     0
  0
SCALE
  5
53
102
{ACAD_REACTORS
330
47
102
}
330
47
100
AcDbScale
 70
     0
300
1:100
140
1.0
141
100.0
290
     0
  0
SCALE
  5
54
102
{ACAD_REACTORS
330
47
102
}
330
47
100
AcDbScale
 70
     0
300
2:1
140
2.0
141
1.0
290
     0
  0
SCALE
  5
55
102
{ACAD_REACTORS
330
47
102
}
330
47
100
AcDbScale
 70
     0
300
4:1
140
4.0
141
1.0
290
     0
  0
SCALE
  5
56
102
{ACAD_REACTORS
330
47
102
}
330
47
100
AcDbScale
 70
     0
300
8:1
140
8.0
141
1.0
290
     0
  0
SCALE
  5
57
102
{ACAD_REACTORS
330
47
102
}
330
47
100
AcDbScale
 70
     0
300
10:1
140
10.0
141
1.0
290
     0
  0
SCALE
  5
58
102
{ACAD_REACTORS
330
47
102
}
330
47
100
AcDbScale
 70
     0
300
100:1
140
100.0
141
1.0
290
     0
  0
SCALE
  5
59
102
{ACAD_REACTORS
330
47
102
}
330
47
100
AcDbScale
 70
     0
300
1/128" = 1'-0"
140
0.0078125
141
12.0
290
     0
  0
SCALE
  5
5A
102
{ACAD_REACTORS
330
47
102
}
330
47
100
AcDbScale
 70
     0
300
1/64" = 1'-0"
140
0.015625
141
12.0
290
     0
  0
SCALE
  5
5B
102
{ACAD_REACTORS
330
47
102
}
330
47
100
AcDbScale
 70
     0
300
1/32" = 1'-0"
140
0.03125
141
12.0
290
     0
  0
SCALE
  5
5C
102
{ACAD_REACTORS
330
47
102
}
330
47
100
AcDbScale
 70
     0
300
1/16" = 1'-0"
140
0.0625
141
12.0
290
     0
  0
SCALE
  5
5D
102
{ACAD_REACTORS
330
47
102
}
330
47
100
AcDbScale
 70
     0
300
3/32" = 1'-0"
140
0.09375
141
12.0
290
     0
  0
SCALE
  5
5E
102
{ACAD_REACTORS
330
47
102
}
330
47
100
AcDbScale
 70
     0
300
1/8" = 1'-0"
140
0.125
141
12.0
290
     0
  0
SCALE
  5
5F
102
{ACAD_REACTORS
330
47
102
}
330
47
100
AcDbScale
 70
     0
300
3/16" = 1'-0"
140
0.1875
141
12.0
290
     0
  0
SCALE
  5
60
102
{ACAD_REACTORS
330
47
102
}
330
47
100
AcDbScale
 70
     0
300
1/4" = 1'-0"
140
0.25
141
12.0
290
     0
  0
SCALE
  5
61
102
{ACAD_REACTORS
330
47
102
}
330
47
100
AcDbScale
 70
     0
300
3/8" = 1'-0"
140
0.375
141
12.0
290
     0
  0
SCALE
  5
62
102
{ACAD_REACTORS
330
47
102
}
330
47
100
AcDbScale
 70
     0
300
1/2" = 1'-0"
140
0.5
141
12.0
290
     0
  0
SCALE
  5
63
102
{ACAD_REACTORS
330
47
102
}
330
47
100
AcDbScale
 70
     0
300
3/4" = 1'-0"
140
0.75
141
12.0
290
     0
  0
SCALE
  5
64
102
{ACAD_REACTORS
330
47
102
}
330
47
100
AcDbScale
 70
     0
300
1" = 1'-0"
140
1.0
141
12.0
290
     0
  0
SCALE
  5
65
102
{ACAD_REACTORS
330
47
102
}
330
47
100
AcDbScale
 70
     0
300
1-1/2" = 1'-0"
140
1.5
141
12.0
290
     0
  0
SCALE
  5
66
102
{ACAD_REACTORS
330
47
102
}
330
47
100
AcDbScale
 70
     0
300
3" = 1'-0"
140
3.0
141
12.0
290
     0
  0
SCALE
  5
67
102
{ACAD_REACTORS
330
47
102
}
330
47
100
AcDbScale
 70
     0
300
6" = 1'-0"
140
6.0
141
12.0
290
     0
  0
SCALE
  5
68
102
{ACAD_REACTORS
330
47
102
}
330
47
100
AcDbScale
 70
     0
300
1'-0" = 1'-0"
140
12.0
141
12.0
290
     0
  0
ENDSEC
  0
EOF
