  0
SECTION
  2
HEADER
  9
$ACADVER
  1
AC1015
  9
$ACADMAINTVER
 70
     6
  9
$DWGCODEPAGE
  3
ANSI_1252
  9
$INSBASE
 10
0.0
 20
0.0
 30
0.0
  9
$EXTMIN
 10
-169.4
 20
-30.0
 30
0.0
  9
$EXTMAX
 10
169.4
 20
30.0
 30
0.0
  9
$LIMMIN
 10
0.0
 20
0.0
  9
$LIMMAX
 10
420.0
 20
297.0
  9
$ORTHOMODE
 70
     0
  9
$REGENMODE
 70
     1
  9
$FILLMODE
 70
     1
  9
$QTEXTMODE
 70
     0
  9
$MIRRTEXT
 70
     1
  9
$LTSCALE
 40
1.0
  9
$ATTMODE
 70
     1
  9
$TEXTSIZE
 40
6.35
  9
$TRACEWID
 40
1.0
  9
$TEXTSTYLE
  7
Standard
  9
$CLAYER
  8
0
  9
$CELTYPE
  6
ByLayer
  9
$CECOLOR
 62
   256
  9
$CELTSCALE
 40
1.0
  9
$DISPSILH
 70
     0
  9
$DIMSCALE
 40
1.0
  9
$DIMASZ
 40
5.9944
  9
$DIMEXO
 40
0.9906
  9
$DIMDLI
 40
3.75
  9
$DIMRND
 40
0.0
  9
$DIMDLE
 40
0.0
  9
$DIMEXE
 40
0.9906
  9
$DIMTP
 40
0.0
  9
$DIMTM
 40
0.0
  9
$DIMTXT
 40
6.35
  9
$DIMCEN
 40
2.5
  9
$DIMTSZ
 40
0.0
  9
$DIMTOL
 70
     0
  9
$DIMLIM
 70
     0
  9
$DIMTIH
 70
     1
  9
$DIMTOH
 70
     1
  9
$DIMSE1
 70
     0
  9
$DIMSE2
 70
     0
  9
$DIMTAD
 70
     1
  9
$DIMZIN
 70
     0
  9
$DIMBLK
  1

  9
$DIMASO
 70
     1
  9
$DIMSHO
 70
     1
  9
$DIMPOST
  1

  9
$DIMAPOST
  1

  9
$DIMALT
 70
     0
  9
$DIMALTD
 70
     3
  9
$DIMALTF
 40
0.0393700787
  9
$DIMLFAC
 40
1.0
  9
$DIMTOFL
 70
     1
  9
$DIMTVP
 40
0.0
  9
$DIMTIX
 70
     0
  9
$DIMSOXD
 70
     0
  9
$DIMSAH
 70
     0
  9
$DIMBLK1
  1

  9
$DIMBLK2
  1

  9
$DIMSTYLE
  2
ISO-25
  9
$DIMCLRD
 70
     0
  9
$DIMCLRE
 70
     0
  9
$DIMCLRT
 70
     0
  9
$DIMTFAC
 40
1.0
  9
$DIMGAP
 40
1.524
  9
$DIMJUST
 70
     0
  9
$DIMSD1
 70
     0
  9
$DIMSD2
 70
     0
  9
$DIMTOLJ
 70
     0
  9
$DIMTZIN
 70
     0
  9
$DIMALTZ
 70
     0
  9
$DIMALTTZ
 70
     0
  9
$DIMUPT
 70
     0
  9
$DIMDEC
 70
     2
  9
$DIMTDEC
 70
     2
  9
$DIMALTU
 70
     2
  9
$DIMALTTD
 70
     3
  9
$DIMTXSTY
  7
Standard
  9
$DIMAUNIT
 70
     0
  9
$DIMADEC
 70
     2
  9
$DIMALTRND
 40
0.0
  9
$DIMAZIN
 70
     0
  9
$DIMDSEP
 70
    44
  9
$DIMATFIT
 70
     3
  9
$DIMFRAC
 70
     0
  9
$DIMLDRBLK
  1

  9
$DIMLUNIT
 70
     2
  9
$DIMLWD
 70
    -2
  9
$DIMLWE
 70
    -2
  9
$DIMTMOVE
 70
     0
  9
$LUNITS
 70
     2
  9
$LUPREC
 70
     2
  9
$SKETCHINC
 40
1.0
  9
$FILLETRAD
 40
10.0
  9
$AUNITS
 70
     0
  9
$AUPREC
 70
     2
  9
$MENU
  1
.
  9
$ELEVATION
 40
0.0
  9
$PELEVATION
 40
0.0
  9
$THICKNESS
 40
0.0
  9
$LIMCHECK
 70
     0
  9
$CHAMFERA
 40
0.0
  9
$CHAMFERB
 40
0.0
  9
$CHAMFERC
 40
0.0
  9
$CHAMFERD
 40
0.0
  9
$SKPOLY
 70
     0
  9
$TDCREATE
 40
2458002.485028449
  9
$TDUCREATE
 40
2458002.443361782
  9
$TDUPDATE
 40
2458002.4851264
  9
$TDUUPDATE
 40
2458002.443459734
  9
$TDINDWG
 40
0.0000000116
  9
$TDUSRTIMER
 40
0.0000000116
  9
$USRTIMER
 70
     1
  9
$ANGBASE
 50
0.0
  9
$ANGDIR
 70
     0
  9
$PDMODE
 70
     0
  9
$PDSIZE
 40
-1.0
  9
$PLINEWID
 40
0.0
  9
$SPLFRAME
 70
     0
  9
$SPLINETYPE
 70
     6
  9
$SPLINESEGS
 70
     8
  9
$HANDSEED
  5
1EE
  9
$SURFTAB1
 70
     6
  9
$SURFTAB2
 70
     6
  9
$SURFTYPE
 70
     6
  9
$SURFU
 70
     6
  9
$SURFV
 70
     6
  9
$UCSBASE
  2

  9
$UCSNAME
  2

  9
$UCSORG
 10
0.0
 20
0.0
 30
0.0
  9
$UCSXDIR
 10
1.0
 20
0.0
 30
0.0
  9
$UCSYDIR
 10
0.0
 20
1.0
 30
0.0
  9
$UCSORTHOREF
  2

  9
$UCSORTHOVIEW
 70
     0
  9
$UCSORGTOP
 10
0.0
 20
0.0
 30
0.0
  9
$UCSORGBOTTOM
 10
0.0
 20
0.0
 30
0.0
  9
$UCSORGLEFT
 10
0.0
 20
0.0
 30
0.0
  9
$UCSORGRIGHT
 10
0.0
 20
0.0
 30
0.0
  9
$UCSORGFRONT
 10
0.0
 20
0.0
 30
0.0
  9
$UCSORGBACK
 10
0.0
 20
0.0
 30
0.0
  9
$PUCSBASE
  2

  9
$PUCSNAME
  2

  9
$PUCSORG
 10
0.0
 20
0.0
 30
0.0
  9
$PUCSXDIR
 10
1.0
 20
0.0
 30
0.0
  9
$PUCSYDIR
 10
0.0
 20
1.0
 30
0.0
  9
$PUCSORTHOREF
  2

  9
$PUCSORTHOVIEW
 70
     0
  9
$PUCSORGTOP
 10
0.0
 20
0.0
 30
0.0
  9
$PUCSORGBOTTOM
 10
0.0
 20
0.0
 30
0.0
  9
$PUCSORGLEFT
 10
0.0
 20
0.0
 30
0.0
  9
$PUCSORGRIGHT
 10
0.0
 20
0.0
 30
0.0
  9
$PUCSORGFRONT
 10
0.0
 20
0.0
 30
0.0
  9
$PUCSORGBACK
 10
0.0
 20
0.0
 30
0.0
  9
$USERI1
 70
     0
  9
$USERI2
 70
     0
  9
$USERI3
 70
     0
  9
$USERI4
 70
     0
  9
$USERI5
 70
     0
  9
$USERR1
 40
0.0
  9
$USERR2
 40
0.0
  9
$USERR3
 40
0.0
  9
$USERR4
 40
0.0
  9
$USERR5
 40
0.0
  9
$WORLDVIEW
 70
     1
  9
$SHADEDGE
 70
     3
  9
$SHADEDIF
 70
    70
  9
$TILEMODE
 70
     1
  9
$MAXACTVP
 70
    64
  9
$PINSBASE
 10
0.0
 20
0.0
 30
0.0
  9
$PLIMCHECK
 70
     0
  9
$PEXTMIN
 10
1.0000000000E+20
 20
1.0000000000E+20
 30
1.0000000000E+20
  9
$PEXTMAX
 10
-1.0000000000E+20
 20
-1.0000000000E+20
 30
-1.0000000000E+20
  9
$PLIMMIN
 10
0.0
 20
0.0
  9
$PLIMMAX
 10
420.0
 20
297.0
  9
$UNITMODE
 70
     0
  9
$VISRETAIN
 70
     1
  9
$PLINEGEN
 70
     0
  9
$PSLTSCALE
 70
     1
  9
$TREEDEPTH
 70
  3020
  9
$CMLSTYLE
  2
Standard
  9
$CMLJUST
 70
     0
  9
$CMLSCALE
 40
20.0
  9
$PROXYGRAPHICS
 70
     1
  9
$MEASUREMENT
 70
     1
  9
$CELWEIGHT
370
    -1
  9
$ENDCAPS
280
     0
  9
$JOINSTYLE
280
     0
  9
$LWDISPLAY
290
     1
  9
$INSUNITS
 70
     4
  9
$HYPERLINKBASE
  1

  9
$STYLESHEET
  1

  9
$XEDIT
290
     1
  9
$CEPSNTYPE
380
     0
  9
$PSTYLEMODE
290
     1
  9
$FINGERPRINTGUID
  2
{CD25929A-25DF-40E3-9A22-6187408AFC8D}
  9
$VERSIONGUID
  2
{FAEB1C32-E019-11D5-929B-00C0DF256EC4}
  9
$EXTNAMES
290
     1
  9
$PSVPSCALE
 40
0.0
  9
$OLESTARTUP
290
     0
  0
ENDSEC
  0
SECTION
  2
CLASSES
  0
CLASS
  1
ACDBDICTIONARYWDFLT
  2
AcDbDictionaryWithDefault
  3
ObjectDBX Classes
 90
        0
280
     0
281
     0
  0
CLASS
  1
VISUALSTYLE
  2
AcDbVisualStyle
  3
ObjectDBX Classes
 90
     4095
280
     0
281
     0
  0
CLASS
  1
MATERIAL
  2
AcDbMaterial
  3
ObjectDBX Classes
 90
     1153
280
     0
281
     0
  0
CLASS
  1
SCALE
  2
AcDbScale
  3
ObjectDBX Classes
 90
     1153
280
     0
281
     0
  0
CLASS
  1
TABLESTYLE
  2
AcDbTableStyle
  3
ObjectDBX Classes
 90
     4095
280
     0
281
     0
  0
CLASS
  1
MLEADERSTYLE
  2
AcDbMLeaderStyle
  3
ACDB_MLEADERSTYLE_CLASS
 90
     4095
280
     0
281
     0
  0
CLASS
  1
SUN
  2
AcDbSun
  3
SCENEOE
 90
     1153
280
     0
281
     0
  0
CLASS
  1
ACDBPLACEHOLDER
  2
AcDbPlaceHolder
  3
ObjectDBX Classes
 90
        0
280
     0
281
     0
  0
CLASS
  1
LAYOUT
  2
AcDbLayout
  3
ObjectDBX Classes
 90
        0
280
     0
281
     0
  0
ENDSEC
  0
SECTION
  2
TABLES
  0
TABLE
  2
VPORT
  5
8
330
0
100
AcDbSymbolTable
 70
     1
  0
VPORT
  5
29
330
8
100
AcDbSymbolTableRecord
100
AcDbViewportTableRecord
  2
*Active
 70
     0
 10
0.0
 20
0.0
 11
1.0
 21
1.0
 12
0.0
 22
0.0
 13
0.0
 23
0.0
 14
10.0
 24
10.0
 15
10.0
 25
10.0
 16
0.0
 26
0.0
 36
1.0
 17
0.0
 27
0.0
 37
0.0
 40
61.2
 41
5.6466666667
 42
50.0
 43
0.0
 44
0.0
 50
0.0
 51
0.0
 71
     0
 72
   100
 73
     1
 74
     3
 75
     0
 76
     0
 77
     0
 78
     0
281
     0
 65
     1
110
0.0
120
0.0
130
0.0
111
1.0
121
0.0
131
0.0
112
0.0
122
1.0
132
0.0
 79
     0
146
0.0
  0
ENDTAB
  0
TABLE
  2
LTYPE
  5
5
330
0
100
AcDbSymbolTable
 70
     6
  0
LTYPE
  5
14
330
5
100
AcDbSymbolTableRecord
100
AcDbLinetypeTableRecord
  2
ByBlock
 70
     0
  3

 72
    65
 73
     0
 40
0.0
  0
LTYPE
  5
15
330
5
100
AcDbSymbolTableRecord
100
AcDbLinetypeTableRecord
  2
ByLayer
 70
     0
  3

 72
    65
 73
     0
 40
0.0
  0
LTYPE
  5
16
330
5
100
AcDbSymbolTableRecord
100
AcDbLinetypeTableRecord
  2
Continuous
 70
     0
  3
Solid line
 72
    65
 73
     0
 40
0.0
  0
LTYPE
  5
6E
330
5
100
AcDbSymbolTableRecord
100
AcDbLinetypeTableRecord
  2
HIDDEN
 70
     0
  3
Hidden __ __ __ __ __ __ __ __ __ __ __ __ __ __
 72
    65
 73
     2
 40
1.905
 49
1.27
 74
     0
 49
-0.635
 74
     0
  0
LTYPE
  5
6F
330
5
100
AcDbSymbolTableRecord
100
AcDbLinetypeTableRecord
  2
PHANTOM
 70
     0
  3
Phantom ______  __  __  ______  __  __  ______
 72
    65
 73
     6
 40
12.7
 49
6.35
 74
     0
 49
-1.27
 74
     0
 49
1.27
 74
     0
 49
-1.27
 74
     0
 49
1.27
 74
     0
 49
-1.27
 74
     0
  0
LTYPE
  5
70
330
5
100
AcDbSymbolTableRecord
100
AcDbLinetypeTableRecord
  2
CENTER
 70
     0
  3
Center ____ _ ____ _ ____ _ ____ _ ____ _ ____
 72
    65
 73
     4
 40
10.16
 49
6.35
 74
     0
 49
-1.27
 74
     0
 49
1.27
 74
     0
 49
-1.27
 74
     0
  0
LTYPE
  5
71
330
5
100
AcDbSymbolTableRecord
100
AcDbLinetypeTableRecord
  2
CENTERX2
 70
     0
  3
Center (2x) ________  __  ________  __  _____
 72
    65
 73
     4
 40
20.32
 49
12.7
 74
     0
 49
-2.54
 74
     0
 49
2.54
 74
     0
 49
-2.54
 74
     0
  0
LTYPE
  5
72
330
5
100
AcDbSymbolTableRecord
100
AcDbLinetypeTableRecord
  2
DOT2
 70
     0
  3
Dot (.5x) ........................................
 72
    65
 73
     2
 40
0.635
 49
0.0
 74
     0
 49
-0.635
 74
     0
  0
ENDTAB
  0
TABLE
  2
LAYER
  5
2
330
0
100
AcDbSymbolTable
 70
     1
  0
LAYER
  5
10
330
2
100
AcDbSymbolTableRecord
100
AcDbLayerTableRecord
  2
0
 70
     0
 62
     7
  6
Continuous
370
    -3
390
F
  0
ENDTAB
  0
TABLE
  2
STYLE
  5
3
330
0
100
AcDbSymbolTable
 70
     2
  0
STYLE
  5
11
330
3
100
AcDbSymbolTableRecord
100
AcDbTextStyleTableRecord
  2
Standard
 70
     0
 40
0.0
 41
1.0
 50
0.0
 71
     0
 42
6.35
  3
txt
  4

  0
STYLE
  5
1EB
330
3
100
AcDbSymbolTableRecord
100
AcDbTextStyleTableRecord
  2
SLDTEXTSTYLE0
 70
     0
 40
0.0
 41
0.7
 50
0.0
 71
     0
 42
6.35
  3
TXT
  4

  0
ENDTAB
  0
TABLE
  2
VIEW
  5
6
330
0
100
AcDbSymbolTable
 70
     0
  0
ENDTAB
  0
TABLE
  2
UCS
  5
7
330
0
100
AcDbSymbolTable
 70
     0
  0
ENDTAB
  0
TABLE
  2
APPID
  5
9
330
0
100
AcDbSymbolTable
 70
     1
  0
APPID
  5
12
330
9
100
AcDbSymbolTableRecord
100
AcDbRegAppTableRecord
  2
ACAD
 70
     0
  0
ENDTAB
  0
TABLE
  2
DIMSTYLE
  5
A
330
0
100
AcDbSymbolTable
 70
     1
100
AcDbDimStyleTable
  0
DIMSTYLE
105
27
330
A
100
AcDbSymbolTableRecord
100
AcDbDimStyleTableRecord
  2
ISO-25
 70
     0
 41
2.5
 42
0.625
 43
3.75
 44
1.25
 73
     0
 74
     0
 77
     1
 78
     8
140
2.5
141
2.5
143
0.0393700787
147
0.625
171
     3
172
     1
178
     0
271
     2
272
     2
274
     3
278
    44
283
     0
284
     8
340
11
  0
ENDTAB
  0
TABLE
  2
BLOCK_RECORD
  5
1
330
0
100
AcDbSymbolTable
 70
     1
  0
BLOCK_RECORD
  5
1F
330
1
100
AcDbSymbolTableRecord
100
AcDbBlockTableRecord
  2
*Model_Space
340
22
  0
BLOCK_RECORD
  5
1B
330
1
100
AcDbSymbolTableRecord
100
AcDbBlockTableRecord
  2
*Paper_Space
340
1E
  0
BLOCK_RECORD
  5
23
330
1
100
AcDbSymbolTableRecord
100
AcDbBlockTableRecord
  2
*Paper_Space0
340
26
  0
ENDTAB
  0
ENDSEC
  0
SECTION
  2
BLOCKS
  0
BLOCK
  5
20
330
1F
100
AcDbEntity
  8
0
100
AcDbBlockBegin
  2
*Model_Space
 70
     0
 10
0.0
 20
0.0
 30
0.0
  3
*Model_Space
  1

  0
ENDBLK
  5
21
330
1F
100
AcDbEntity
  8
0
100
AcDbBlockEnd
  0
BLOCK
  5
1C
330
1B
100
AcDbEntity
 67
     1
  8
0
100
AcDbBlockBegin
  2
*Paper_Space
 70
     0
 10
0.0
 20
0.0
 30
0.0
  3
*Paper_Space
  1

  0
ENDBLK
  5
1D
330
1B
100
AcDbEntity
 67
     1
  8
0
100
AcDbBlockEnd
  0
BLOCK
  5
24
330
23
100
AcDbEntity
  8
0
100
AcDbBlockBegin
  2
*Paper_Space0
 70
     0
 10
0.0
 20
0.0
 30
0.0
  3
*Paper_Space0
  1

  0
ENDBLK
  5
25
330
23
100
AcDbEntity
  8
0
100
AcDbBlockEnd
  0
ENDSEC
  0
SECTION
  2
ENTITIES
  0
SPLINE
  5
7E
330
1F
100
AcDbEntity
  8
0
  6
Continuous
 62
     7
370
    15
100
AcDbSpline
210
0.0
220
0.0
230
1.0
 70
     8
 71
     3
 72
    15
 73
    11
 74
     0
 42
0.000000001
 43
0.00000001
 40
0.0
 40
0.0
 40
0.0
 40
0.0
 40
0.126177718317003
 40
0.2488206074857903
 40
0.3715399692351511
 40
0.4999837069108849
 40
0.6272441978753766
 40
0.7492255210762669
 40
0.8722979504176542
 40
1.0
 40
1.0
 40
1.0
 40
1.0
 10
-16.49236111111113
 20
-24.79477831196585
 30
0.0
 10
-16.49335531006437
 20
-24.81078005701239
 30
0.0
 10
-16.49531585579943
 20
-24.84233526324389
 30
0.0
 10
-16.50800744124954
 20
-24.88830443186628
 30
0.0
 10
-16.53203754611346
 20
-24.92957156611908
 30
0.0
 10
-16.56216866820422
 20
-24.96724245121746
 30
0.0
 10
-16.59941903587137
 20
-24.99796054421723
 30
0.0
 10
-16.64108110697407
 20
-25.02076436123572
 30
0.0
 10
-16.68680895676302
 20
-25.03464453738656
 30
0.0
 10
-16.71867080421389
 20
-25.0364126546792
 30
0.0
 10
-16.73489583333336
 20
-25.03731303418807
 30
0.0
  0
SPLINE
  5
7F
330
1F
100
AcDbEntity
  8
0
  6
Continuous
 62
     7
370
    15
100
AcDbSpline
210
0.0
220
0.0
230
1.0
 70
     8
 71
     3
 72
    15
 73
    11
 74
     0
 42
0.000000001
 43
0.00000001
 40
0.0
 40
0.0
 40
0.0
 40
0.0
 40
0.1275189266999399
 40
0.2499859477488076
 40
0.3717923515057489
 40
0.4988703527764679
 40
0.6259483540471927
 40
0.7484917380160565
 40
0.8709587590649154
 40
1.0
 40
1.0
 40
1.0
 40
1.0
 10
-16.73489583333336
 20
-24.55224358974363
 30
0.0
 10
-16.71868879380619
 20
-24.5532066604942
 30
0.0
 10
-16.68691678755385
 20
-24.55509464810955
 30
0.0
 10
-16.64098282192449
 20
-24.56804739408732
 30
0.0
 10
-16.59940988167463
 20
-24.59104688734855
 30
0.0
 10
-16.56237919955138
 20
-24.62170004292681
 30
0.0
 10
-16.53185601639402
 20
-24.65886661518472
 30
0.0
 10
-16.50803687358298
 20
-24.70010797500878
 30
0.0
 10
-16.49519695909422
 20
-24.74642650169498
 30
0.0
 10
-16.49332272409455
 20
-24.77838260641125
 30
0.0
 10
-16.49236111111113
 20
-24.79477831196585
 30
0.0
  0
SPLINE
  5
80
330
1F
100
AcDbEntity
  8
0
  6
Continuous
 62
     7
370
    15
100
AcDbSpline
210
0.0
220
0.0
230
1.0
 70
     8
 71
     3
 72
    15
 73
    11
 74
     0
 42
0.000000001
 43
0.00000001
 40
0.0
 40
0.0
 40
0.0
 40
0.0
 40
0.1290969581672274
 40
0.2520459672599774
 40
0.3739049644019982
 40
0.5010378352202083
 40
0.6281707060384126
 40
0.7513764634091886
 40
0.8724260133704588
 40
1.0
 40
1.0
 40
1.0
 40
1.0
 10
-16.97743055555558
 20
-24.79477831196585
 30
0.0
 10
-16.97654736944849
 20
-24.77835576234207
 30
0.0
 10
-16.97482305696438
 20
-24.74629274967652
 30
0.0
 10
-16.96087329662404
 20
-24.70039206328012
 30
0.0
 10
-16.93810867279609
 20
-24.65867461707042
 30
0.0
 10
-16.90733692469843
 20
-24.62175674657475
 30
0.0
 10
-16.87031285246259
 20
-24.59083373358429
 30
0.0
 10
-16.82848916279971
 20
-24.56832806928894
 30
0.0
 10
-16.78272116410645
 20
-24.55498970272744
 30
0.0
 10
-16.75111409031807
 20
-24.55317483612208
 30
0.0
 10
-16.73489583333336
 20
-24.55224358974363
 30
0.0
  0
SPLINE
  5
81
330
1F
100
AcDbEntity
  8
0
  6
Continuous
 62
     7
370
    15
100
AcDbSpline
210
0.0
220
0.0
230
1.0
 70
     8
 71
     3
 72
    15
 73
    11
 74
     0
 42
0.000000001
 43
0.00000001
 40
0.0
 40
0.0
 40
0.0
 40
0.0
 40
0.1277566033101267
 40
0.2494143553365321
 40
0.3727964764553918
 40
0.5001113325158555
 40
0.6286099407651099
 40
0.750643373825811
 40
0.8737683791425161
 40
1.0
 40
1.0
 40
1.0
 40
1.0
 10
-16.73489583333336
 20
-25.03731303418807
 30
0.0
 10
-16.75113255368793
 20
-25.03644523344154
 30
0.0
 10
-16.78283088500772
 20
-25.03475105906502
 30
0.0
 10
-16.82838804806697
 20
-25.02047936836816
 30
0.0
 10
-16.87030384277202
 20
-24.99817438386779
 30
0.0
 10
-16.9075469578295
 20
-24.96718517401832
 30
0.0
 10
-16.93793043688226
 20
-24.92976541192082
 30
0.0
 10
-16.96090225821894
 20
-24.88802022762598
 30
0.0
 10
-16.9746977570804
 20
-24.84246685377558
 30
0.0
 10
-16.97651208810159
 20
-24.81080597517563
 30
0.0
 10
-16.97743055555558
 20
-24.79477831196585
 30
0.0
  0
SPLINE
  5
95
330
1F
100
AcDbEntity
  8
0
  6
Continuous
 62
     7
370
    15
100
AcDbSpline
210
0.0
220
0.0
230
1.0
 70
     8
 71
     3
 72
    19
 73
    15
 74
     0
 42
0.000000001
 43
0.00000001
 40
0.0
 40
0.0
 40
0.0
 40
0.0
 40
0.084334721992627
 40
0.1670523184160745
 40
0.2495660772409662
 40
0.3327404818018468
 40
0.4159148863627272
 40
0.4978280095399959
 40
0.5803725886080522
 40
0.6646001210565031
 40
0.7494666931126178
 40
0.8325102339401409
 40
0.9156392816681741
 40
1.0
 40
1.0
 40
1.0
 40
1.0
 10
-8.148233840812015
 20
-25.07462606837611
 30
0.0
 10
-8.187396990104686
 20
-25.0733552925285
 30
0.0
 10
-8.264972331924007
 20
-25.07083810806979
 30
0.0
 10
-8.379087935227455
 20
-25.04841464663495
 30
0.0
 10
-8.488738313338116
 20
-25.01207010939216
 30
0.0
 10
-8.593155233057384
 20
-24.96199906943713
 30
0.0
 10
-8.689881361783755
 20
-24.89875331795823
 30
0.0
 10
-8.776416893983928
 20
-24.82261492275149
 30
0.0
 10
-8.85233035175675
 20
-24.73521139733115
 30
0.0
 10
-8.91550686689974
 20
-24.63655629903421
 30
0.0
 10
-8.96561487197727
 20
-24.53054232841894
 30
0.0
 10
-9.003192446612667
 20
-24.41999875254024
 30
0.0
 10
-9.025142179826622
 20
-24.30532835106943
 30
0.0
 10
-9.02820939048929
 20
-24.22759433235304
 30
0.0
 10
-9.029754273504322
 20
-24.1884415064103
 30
0.0
  0
SPLINE
  5
96
330
1F
100
AcDbEntity
  8
0
  6
Continuous
 62
     7
370
    15
100
AcDbSpline
210
0.0
220
0.0
230
1.0
 70
     8
 71
     3
 72
    19
 73
    15
 74
     0
 42
0.000000001
 43
0.00000001
 40
0.0
 40
0.0
 40
0.0
 40
0.0
 40
0.0859479431441272
 40
0.1691252118806913
 40
0.2503991071860502
 40
0.3322897361388352
 40
0.413364287915882
 40
0.4941722833711885
 40
0.5760217353866371
 40
0.660756969254007
 40
0.745783125913744
 40
0.8300435929752243
 40
0.9140275458206835
 40
1.0
 40
1.0
 40
1.0
 40
1.0
 10
-7.238728632478682
 20
-24.1831943609776
 30
0.0
 10
-7.239912011956799
 20
-24.22392331717624
 30
0.0
 10
-7.242240622714088
 20
-24.30406826416145
 30
0.0
 10
-7.265443957857467
 20
-24.42079818014186
 30
0.0
 10
-7.301499567216508
 20
-24.53200313502262
 30
0.0
 10
-7.353036833394605
 20
-24.63590764716646
 30
0.0
 10
-7.417051350673343
 20
-24.73236930770253
 30
0.0
 10
-7.49511503933816
 20
-24.81784031674664
 30
0.0
 10
-7.584459416244532
 20
-24.89406831801599
 30
0.0
 10
-7.685481474016822
 20
-24.95781194720259
 30
0.0
 10
-7.794200474535002
 20
-25.0098693652171
 30
0.0
 10
-7.908415200956331
 20
-25.04726010521101
 30
0.0
 10
-8.027016464906245
 20
-25.07028022827002
 30
0.0
 10
-8.107514106246848
 20
-25.07316619965464
 30
0.0
 10
-8.148233840812015
 20
-25.07462606837611
 30
0.0
  0
SPLINE
  5
97
330
1F
100
AcDbEntity
  8
0
  6
Continuous
 62
     7
370
    15
100
AcDbSpline
210
0.0
220
0.0
230
1.0
 70
     8
 71
     3
 72
    23
 73
    19
 74
     0
 42
0.000000001
 43
0.00000001
 40
0.0
 40
0.0
 40
0.0
 40
0.0
 40
0.0652308037420293
 40
0.1284048960032232
 40
0.1900670715964786
 40
0.2509433657682805
 40
0.3115458328521435
 40
0.37286280215683
 40
0.4350236738562384
 40
0.4990717247070424
 40
0.5630910750496628
 40
0.6255101063303757
 40
0.6866800359296502
 40
0.7472825030135123
 40
0.8085634952159596
 40
0.8707421035159855
 40
0.934340951505912
 40
0.9999999999999999
 40
0.9999999999999999
 40
0.9999999999999999
 40
0.9999999999999999
 10
-8.10217556423616
 20
-23.3209134615385
 30
0.0
 10
-8.072595339605074
 20
-23.32170851394267
 30
0.0
 10
-8.014367547678312
 20
-23.32327355094079
 30
0.0
 10
-7.928878796108629
 20
-23.33531756249823
 30
0.0
 10
-7.846731091611885
 20
-23.35429772997281
 30
0.0
 10
-7.768264917611406
 20
-23.38196519518689
 30
0.0
 10
-7.693198634481749
 20
-23.41730792676076
 30
0.0
 10
-7.621101463431978
 20
-23.45966602305949
 30
0.0
 10
-7.553328660980559
 20
-23.51122669892757
 30
0.0
 10
-7.489007472076375
 20
-23.56882380799308
 30
0.0
 10
-7.430610296446649
 20
-23.63261763379054
 30
0.0
 10
-7.378907945486009
 20
-23.70030672151574
 30
0.0
 10
-7.335478881169017
 20
-23.7718205493458
 30
0.0
 10
-7.30024294754069
 20
-23.84712289560106
 30
0.0
 10
-7.272880974087578
 20
-23.92609768346182
 30
0.0
 10
-7.252934104965007
 20
-24.00864386850069
 30
0.0
 10
-7.2411430983166
 20
-24.09481837185175
 30
0.0
 10
-7.239541961096966
 20
-24.15342433068917
 30
0.0
 10
-7.238728632478682
 20
-24.1831943609776
 30
0.0
  0
SPLINE
  5
98
330
1F
100
AcDbEntity
  8
0
  6
Continuous
 62
     7
370
    15
100
AcDbSpline
210
0.0
220
0.0
230
1.0
 70
     8
 71
     3
 72
     9
 73
     5
 74
     0
 42
0.000000001
 43
0.00000001
 40
0.0
 40
0.0
 40
0.0
 40
0.0
 40
0.5126593363417824
 40
1.0
 40
1.0
 40
1.0
 40
1.0
 10
-8.403594918536374
 20
-23.34889823717953
 30
0.0
 10
-8.352396301306783
 20
-23.34073754471936
 30
0.0
 10
-8.252527609565146
 20
-23.32481919137699
 30
0.0
 10
-8.151439776089802
 20
-23.32219320935826
 30
0.0
 10
-8.10217556423616
 20
-23.3209134615385
 30
0.0
  0
SPLINE
  5
9C
330
1F
100
AcDbEntity
  8
0
  6
Continuous
 62
     7
370
    15
100
AcDbSpline
210
0.0
220
0.0
230
1.0
 70
     8
 71
     3
 72
    19
 73
    15
 74
     0
 42
0.000000001
 43
0.00000001
 40
0.0
 40
0.0
 40
0.0
 40
0.0
 40
0.0978181896147134
 40
0.1997260534018267
 40
0.3052763574779424
 40
0.4158114905382911
 40
0.4744722311435615
 40
0.5372738797760968
 40
0.6036574205596569
 40
0.6742988630901259
 40
0.7498344853162275
 40
0.8285984767571017
 40
0.9123777781577816
 40
1.0
 40
1.0
 40
1.0
 40
1.0
 10
-9.029754273504324
 20
-24.1884415064103
 30
0.0
 10
-9.028771845722083
 20
-24.15846871906257
 30
0.0
 10
-9.026765915899912
 20
-24.09727001409785
 30
0.0
 10
-9.012759834767367
 20
-24.00458236705194
 30
0.0
 10
-8.990254169105304
 20
-23.90974346159238
 30
0.0
 10
-8.96504975591817
 20
-23.82928774227458
 30
0.0
 10
-8.938418936136634
 20
-23.763378012407
 30
0.0
 10
-8.916256080300995
 20
-23.71023921692958
 30
0.0
 10
-8.888670322879225
 20
-23.65555575305524
 30
0.0
 10
-8.859255671968834
 20
-23.59745249742156
 30
0.0
 10
-8.825364394663206
 20
-23.5374268727395
 30
0.0
 10
-8.788513821927783
 20
-23.47447566664574
 30
0.0
 10
-8.747685124121217
 20
-23.40960004465542
 30
0.0
 10
-8.719063119742502
 20
-23.36557442515548
 30
0.0
 10
-8.7044312566774
 20
-23.34306807558765
 30
0.0
  0
SPLINE
  5
9D
330
1F
100
AcDbEntity
  8
0
  6
Continuous
 62
     7
370
    15
100
AcDbSpline
210
0.0
220
0.0
230
1.0
 70
     8
 71
     3
 72
    31
 73
    27
 74
     0
 42
0.000000001
 43
0.00000001
 40
0.0
 40
0.0
 40
0.0
 40
0.0
 40
0.0622100326824412
 40
0.1206959731983287
 40
0.1755484638831974
 40
0.2261906127214142
 40
0.2737107306295708
 40
0.3173020717741418
 40
0.3578372980216196
 40
0.3954278376537091
 40
0.43108852684494
 40
0.4660974733410726
 40
0.5010152197637672
 40
0.5354236135188901
 40
0.5701735381629636
 40
0.6047650703833898
 40
0.640093034542571
 40
0.6759387007616808
 40
0.7122247901876547
 40
0.7494554524110939
 40
0.7876011171624473
 40
0.8267837743908834
 40
0.8678285699487368
 40
0.9101595124056449
 40
0.9539387393934007
 40
1.0
 40
1.0
 40
1.0
 40
1.0
 10
2.574599358974315
 20
-23.90859375000004
 30
0.0
 10
2.574232068699875
 20
-23.9437741776883
 30
0.0
 10
2.573519475325329
 20
-24.01202901978176
 30
0.0
 10
2.568939856962484
 20
-24.11121943869961
 30
0.0
 10
2.561082054063047
 20
-24.20365613876075
 30
0.0
 10
2.549155428521062
 20
-24.28938804956699
 30
0.0
 10
2.535130816939232
 20
-24.36834971741555
 30
0.0
 10
2.517039439972296
 20
-24.44064234361037
 30
0.0
 10
2.495437298224559
 20
-24.50604319294048
 30
0.0
 10
2.471068367015089
 20
-24.56569989672525
 30
0.0
 10
2.442278635507832
 20
-24.61978948672125
 30
0.0
 10
2.411655214274415
 20
-24.67112575803587
 30
0.0
 10
2.376293841506531
 20
-24.7184349428231
 30
0.0
 10
2.339065259802803
 20
-24.7640720533269
 30
0.0
 10
2.297652811437686
 20
-24.80576712105239
 30
0.0
 10
2.252832512050857
 20
-24.84447688996945
 30
0.0
 10
2.205235208769441
 20
-24.88079309555678
 30
0.0
 10
2.153804655434534
 20
-24.91329935584788
 30
0.0
 10
2.099291667398409
 20
-24.94258367343068
 30
0.0
 10
2.041628948195374
 20
-24.96854132886935
 30
0.0
 10
1.980110225283275
 20
-24.98908269801144
 30
0.0
 10
1.915529212864119
 20
-25.00680353136708
 30
0.0
 10
1.847569504106044
 20
-25.02070240838298
 30
0.0
 10
1.776296615479219
 20
-25.03050349990268
 30
0.0
 10
1.701734554204087
 20
-25.03651170662919
 30
0.0
 10
1.650919128513509
 20
-25.03704143976042
 30
0.0
 10
1.624866035657007
 20
-25.03731303418807
 30
0.0
  0
SPLINE
  5
A1
330
1F
100
AcDbEntity
  8
0
  6
Continuous
 62
     7
370
    15
100
AcDbSpline
210
0.0
220
0.0
230
1.0
 70
     8
 71
     3
 72
    15
 73
    11
 74
     0
 42
0.000000001
 43
0.00000001
 40
0.0
 40
0.0
 40
0.0
 40
0.0
 40
0.0696927557420308
 40
0.1540736621798061
 40
0.2545914510459105
 40
0.3714654144290032
 40
0.5047545659520488
 40
0.6534942950018612
 40
0.8189527408800004
 40
1.0
 40
1.0
 40
1.0
 40
1.0
 10
2.270264923878161
 20
-24.37792175814641
 30
0.0
 10
2.273752625904782
 20
-24.36630811574932
 30
0.0
 10
2.281463083298986
 20
-24.34063318875994
 30
0.0
 10
2.289747252979014
 20
-24.29707693370523
 30
0.0
 10
2.297209945150866
 20
-24.24513464050783
 30
0.0
 10
2.303582241028752
 20
-24.18446641579792
 30
0.0
 10
2.308126783990024
 20
-24.11523080271451
 30
0.0
 10
2.310576545389265
 20
-24.03744943820488
 30
0.0
 10
2.31334416472161
 20
-23.95136649763785
 30
0.0
 10
2.313386171405024
 20
-23.89110610492007
 30
0.0
 10
2.313408119658076
 20
-23.85962039262824
 30
0.0
  0
SPLINE
  5
A2
330
1F
100
AcDbEntity
  8
0
  6
Continuous
 62
     7
370
    15
100
AcDbSpline
210
0.0
220
0.0
230
1.0
 70
     8
 71
     3
 72
    15
 73
    11
 74
     0
 42
0.000000001
 43
0.00000001
 40
0.0
 40
0.0
 40
0.0
 40
0.0
 40
0.1446324159930499
 40
0.2798369641781399
 40
0.4083713118090898
 40
0.5330428696034676
 40
0.6535963008637277
 40
0.7700157379356768
 40
0.8843394719004989
 40
1.0
 40
1.0
 40
1.0
 40
1.0
 10
1.62719810029376
 20
-24.77612179487183
 30
0.0
 10
1.666159023080674
 20
-24.77482354231733
 30
0.0
 10
1.741541199886687
 20
-24.77231166383495
 30
0.0
 10
1.850020718973987
 20
-24.75170297131126
 30
0.0
 10
1.949183948708673
 20
-24.71727216919326
 30
0.0
 10
2.038035602860759
 20
-24.66920255356221
 30
0.0
 10
2.116172673514387
 20
-24.61037715965212
 30
0.0
 10
2.181286526499533
 20
-24.54135138240677
 30
0.0
 10
2.235010535189463
 20
-24.46430900534113
 30
0.0
 10
2.258468011760299
 20
-24.40682887584626
 30
0.0
 10
2.270264923878161
 20
-24.37792175814641
 30
0.0
  0
SPLINE
  5
A3
330
1F
100
AcDbEntity
  8
0
  6
Continuous
 62
     7
370
    15
100
AcDbSpline
210
0.0
220
0.0
230
1.0
 70
     8
 71
     3
 72
    19
 73
    15
 74
     0
 42
0.000000001
 43
0.00000001
 40
0.0
 40
0.0
 40
0.0
 40
0.0
 40
0.0604867187842483
 40
0.119715933405305
 40
0.1780861642555826
 40
0.2359713213676941
 40
0.2946097683616281
 40
0.3535360182612506
 40
0.4131613089451985
 40
0.4745453087944164
 40
0.5992335172031766
 40
0.7270292124547214
 40
0.8596954264724352
 40
1.0
 40
1.0
 40
1.0
 40
1.0
 10
0.9742200020031616
 20
-24.35693317641564
 30
0.0
 10
0.9798424738192092
 20
-24.37275159948116
 30
0.0
 10
0.9909705276305596
 20
-24.40405958444632
 30
0.0
 10
1.011155085251544
 20
-24.44928663221244
 30
0.0
 10
1.03612507703401
 20
-24.49117607837463
 30
0.0
 10
1.063449588664005
 20
-24.53134321503782
 30
0.0
 10
1.094964750826242
 20
-24.56859820056016
 30
0.0
 10
1.130271822940421
 20
-24.60287812221497
 30
0.0
 10
1.16818892836258
 20
-24.63547819094458
 30
0.0
 10
1.22453045672488
 20
-24.67404935426334
 30
0.0
 10
1.301581048737289
 20
-24.71539001868798
 30
0.0
 10
1.40274110777949
 20
-24.75105993431987
 30
0.0
 10
1.512425752767548
 20
-24.77237733942823
 30
0.0
 10
1.588233558031623
 20
-24.77485057409848
 30
0.0
 10
1.62719810029376
 20
-24.77612179487183
 30
0.0
  0
SPLINE
  5
A4
330
1F
100
AcDbEntity
  8
0
  6
Continuous
 62
     7
370
    15
100
AcDbSpline
210
0.0
220
0.0
230
1.0
 70
     8
 71
     3
 72
    15
 73
    11
 74
     0
 42
0.000000001
 43
0.00000001
 40
0.0
 40
0.0
 40
0.0
 40
0.0
 40
0.1736165757486511
 40
0.3321203769789056
 40
0.47793627672395
 40
0.6099318098113904
 40
0.7270315210379794
 40
0.8316714227513112
 40
0.9217154761224312
 40
1.0
 40
1.0
 40
1.0
 40
1.0
 10
0.9328258547008111
 20
-23.85962039262824
 30
0.0
 10
0.9329438553837209
 20
-23.88857716679908
 30
0.0
 10
0.9331695851628207
 20
-23.94397011941458
 30
0.0
 10
0.9347004152134528
 20
-24.02367827173526
 30
0.0
 10
0.9383010942614693
 20
-24.09636943100227
 30
0.0
 10
0.9428029471462629
 20
-24.16208558888825
 30
0.0
 10
0.9485922948517812
 20
-24.2208156282047
 30
0.0
 10
0.955480303554899
 20
-24.27235441497466
 30
0.0
 10
0.9631791220137254
 20
-24.31728641208056
 30
0.0
 10
0.9707152002338515
 20
-24.34434776203545
 30
0.0
 10
0.9742200020031616
 20
-24.35693317641564
 30
0.0
  0
SPLINE
  5
A8
330
1F
100
AcDbEntity
  8
0
  6
Continuous
 62
     7
370
    15
100
AcDbSpline
210
0.0
220
0.0
230
1.0
 70
     8
 71
     3
 72
    31
 73
    27
 74
     0
 42
0.000000001
 43
0.00000001
 40
0.0
 40
0.0
 40
0.0
 40
0.0
 40
0.0451516788047784
 40
0.0887272521645414
 40
0.1305341108247531
 40
0.1710707458966339
 40
0.2100958400813108
 40
0.2477692374166778
 40
0.2848493643644386
 40
0.3209855015160371
 40
0.3563873757532806
 40
0.391549278787461
 40
0.4261913606636692
 40
0.4605110592984607
 40
0.4949714404811195
 40
0.5295336250796111
 40
0.5645757480731524
 40
0.6000961892387714
 40
0.6375349450701505
 40
0.6782134162474361
 40
0.7225827429711676
 40
0.7701823039810383
 40
0.821879282290201
 40
0.8770670125167512
 40
0.9365240376354078
 40
1.0
 40
1.0
 40
1.0
 40
1.0
 10
1.624866035657007
 20
-25.03731303418807
 30
0.0
 10
1.599007803397863
 20
-25.03703055152091
 30
0.0
 10
1.548193969783695
 20
-25.03647544678271
 30
0.0
 10
1.473628060121952
 20
-25.0305366935995
 30
0.0
 10
1.402157701196131
 20
-25.02071763740013
 30
0.0
 10
1.334036988856461
 20
-25.0067017215165
 30
0.0
 10
1.269197564426575
 20
-24.98920673300544
 30
0.0
 10
1.207376788769296
 20
-24.96841510261889
 30
0.0
 10
1.149298540249366
 20
-24.94257020201597
 30
0.0
 10
1.094265052400292
 20
-24.9134846973828
 30
0.0
 10
1.042707114103379
 20
-24.88058428681531
 30
0.0
 10
0.9943870643594325
 20
-24.84452169672236
 30
0.0
 10
0.9493696935270967
 20
-24.80535076214041
 30
0.0
 10
0.9076450720934484
 20
-24.76323507289091
 30
0.0
 10
0.8697988647748756
 20
-24.71765217996917
 30
0.0
 10
0.8353594539210604
 20
-24.66896875871422
 30
0.0
 10
0.8037966461185677
 20
-24.6176671862313
 30
0.0
 10
0.7752306650914308
 20
-24.562732520782
 30
0.0
 10
0.7506902350357221
 20
-24.50238543884597
 30
0.0
 10
0.7290240573440399
 20
-24.43561457894216
 30
0.0
 10
0.7113032467370799
 20
-24.36168790276224
 30
0.0
 10
0.6968821584634645
 20
-24.28066861464117
 30
0.0
 10
0.6852808712421032
 20
-24.19294446396865
 30
0.0
 10
0.6772263827475997
 20
-24.09800799006075
 30
0.0
 10
0.6727228615749473
 20
-23.99609044367926
 30
0.0
 10
0.672005184900038
 20
-23.92570002916212
 30
0.0
 10
0.6716346153845719
 20
-23.88935421674683
 30
0.0
  0
SPLINE
  5
AA
330
1F
100
AcDbEntity
  8
0
  6
Continuous
 62
     7
370
    15
100
AcDbSpline
210
0.0
220
0.0
230
1.0
 70
     8
 71
     3
 72
    15
 73
    11
 74
     0
 42
0.000000001
 43
0.00000001
 40
0.0
 40
0.0
 40
0.0
 40
0.0
 40
0.0769954547170593
 40
0.1676150771831703
 40
0.2710523936342336
 40
0.3894595025720733
 40
0.5208428024655769
 40
0.6663987586080746
 40
0.8260936125153163
 40
1.0
 40
1.0
 40
1.0
 40
1.0
 10
3.473027260283093
 20
-23.66022886618594
 30
0.0
 10
3.469751254890094
 20
-23.67457738920158
 30
0.0
 10
3.462619562521784
 20
-23.7058133732161
 30
0.0
 10
3.454916787365341
 20
-23.75707364338293
 30
0.0
 10
3.447925488058112
 20
-23.81637128330199
 30
0.0
 10
3.442073921873502
 20
-23.88363709694903
 30
0.0
 10
3.438493763058385
 20
-23.95910659191284
 30
0.0
 10
3.434590148598387
 20
-24.04245746418199
 30
0.0
 10
3.433168982937828
 20
-24.13402207324952
 30
0.0
 10
3.432925876650618
 20
-24.19776992130696
 30
0.0
 10
3.432799145299119
 20
-24.23100168603102
 30
0.0
  0
SPLINE
  5
AB
330
1F
100
AcDbEntity
  8
0
  6
Continuous
 62
     7
370
    15
100
AcDbSpline
210
0.0
220
0.0
230
1.0
 70
     8
 71
     3
 72
    23
 73
    19
 74
     0
 42
0.000000001
 43
0.00000001
 40
0.0
 40
0.0
 40
0.0
 40
0.0
 40
0.063986109816467
 40
0.1266268580894772
 40
0.1889843719814868
 40
0.2502301939603979
 40
0.3123511629623217
 40
0.3745736184579379
 40
0.4381475308782033
 40
0.5029204126073696
 40
0.5679740951402704
 40
0.630771333749189
 40
0.6929346089254592
 40
0.7543975343123278
 40
0.8152183520172945
 40
0.8761169254810901
 40
0.938014604793954
 40
1.0
 40
1.0
 40
1.0
 40
1.0
 10
4.196550313835443
 20
-23.0970352564103
 30
0.0
 10
4.175539031694965
 20
-23.09743107695492
 30
0.0
 10
4.133958247216714
 20
-23.09821439558574
 30
0.0
 10
4.072299014625709
 20
-23.10607359995366
 30
0.0
 10
4.012490639667607
 20
-23.11892804190062
 30
0.0
 10
3.953932882545166
 20
-23.13628130772582
 30
0.0
 10
3.897796937397635
 20
-23.16011534945445
 30
0.0
 10
3.842279250029349
 20
-23.18716506981408
 30
0.0
 10
3.789470351523774
 20
-23.22088283894713
 30
0.0
 10
3.73824419331634
 20
-23.25846099260864
 30
0.0
 10
3.690585864571413
 20
-23.30010423811759
 30
0.0
 10
3.646240811738266
 20
-23.34404696471496
 30
0.0
 10
3.606710684184228
 20
-23.39084280906206
 30
0.0
 10
3.570897029796534
 20
-23.43973776542998
 30
0.0
 10
3.53998153340459
 20
-23.49140334738353
 30
0.0
 10
3.512995245295629
 20
-23.54534110699715
 30
0.0
 10
3.490098003852742
 20
-23.60162203670366
 30
0.0
 10
3.478720193507279
 20
-23.64068403702471
 30
0.0
 10
3.473027260283093
 20
-23.66022886618594
 30
0.0
  0
SPLINE
  5
AC
330
1F
100
AcDbEntity
  8
0
  6
Continuous
 62
     7
370
    15
100
AcDbSpline
210
0.0
220
0.0
230
1.0
 70
     8
 71
     3
 72
    15
 73
    11
 74
     0
 42
0.000000001
 43
0.00000001
 40
0.0
 40
0.0
 40
0.0
 40
0.0
 40
0.1355195283706043
 40
0.2608331631936786
 40
0.3784760291245031
 40
0.4931776464746777
 40
0.6092809649289391
 40
0.7299810378566455
 40
0.8592613089300656
 40
1.0
 40
1.0
 40
1.0
 40
1.0
 10
4.745168519631383
 20
-23.5156408587073
 30
0.0
 10
4.736332884206184
 20
-23.48261911741453
 30
0.0
 10
4.719327019704663
 20
-23.41906248215232
 30
0.0
 10
4.677305606355956
 20
-23.33285232107363
 30
0.0
 10
4.624241076260747
 20
-23.25951132797988
 30
0.0
 10
4.559465305092211
 20
-23.19949294696245
 30
0.0
 10
4.483603984455547
 20
-23.15278422144049
 30
0.0
 10
4.396867628237291
 20
-23.12037552218233
 30
0.0
 10
4.300093246678227
 20
-23.10010549356871
 30
0.0
 10
4.23202742965748
 20
-23.09808721772026
 30
0.0
 10
4.196550313835443
 20
-23.0970352564103
 30
0.0
  0
SPLINE
  5
AD
330
1F
100
AcDbEntity
  8
0
  6
Continuous
 62
     7
370
    15
100
AcDbSpline
210
0.0
220
0.0
230
1.0
 70
     8
 71
     3
 72
    15
 73
    11
 74
     0
 42
0.000000001
 43
0.00000001
 40
0.0
 40
0.0
 40
0.0
 40
0.0
 40
0.1788500194111614
 40
0.3421096489423011
 40
0.4898256633683926
 40
0.6232544282245673
 40
0.7400796760857916
 40
0.8414826730699869
 40
0.9289076721840656
 40
1.0
 40
1.0
 40
1.0
 40
1.0
 10
4.776068376068349
 20
-23.99954427083338
 30
0.0
 10
4.775907714400213
 20
-23.97058774966345
 30
0.0
 10
4.775600395971815
 20
-23.91519885272819
 30
0.0
 10
4.774631105246638
 20
-23.83589496856336
 30
0.0
 10
4.772294617255957
 20
-23.76397726021295
 30
0.0
 10
4.769011407051369
 20
-23.69961766362643
 30
0.0
 10
4.764205867974365
 20
-23.64287797929369
 30
0.0
 10
4.759197763214872
 20
-23.59364264619626
 30
0.0
 10
4.753073434295032
 20
-23.55197417549468
 30
0.0
 10
4.747616059501808
 20
-23.52689047306062
 30
0.0
 10
4.745168519631383
 20
-23.5156408587073
 30
0.0
  0
SPLINE
  5
B1
330
1F
100
AcDbEntity
  8
0
  6
Continuous
 62
     7
370
    15
100
AcDbSpline
210
0.0
220
0.0
230
1.0
 70
     8
 71
     3
 72
    23
 73
    19
 74
     0
 42
0.000000001
 43
0.00000001
 40
0.0
 40
0.0
 40
0.0
 40
0.0
 40
0.0772404236164787
 40
0.1511781404663823
 40
0.2234879838003994
 40
0.2955426441988699
 40
0.3669762546197899
 40
0.4371305254863862
 40
0.5070436156432687
 40
0.578559733523678
 40
0.6166135446965527
 40
0.6587562369775279
 40
0.7044912261144027
 40
0.7548031149051502
 40
0.8093316253185644
 40
0.8682744554728192
 40
0.9320728834092922
 40
0.9999999999999999
 40
0.9999999999999999
 40
0.9999999999999999
 40
0.9999999999999999
 10
4.24202557425211
 20
-22.83584401709406
 30
0.0
 10
4.281383250359742
 20
-22.83729523020796
 30
0.0
 10
4.358415716113339
 20
-22.84013560432435
 30
0.0
 10
4.470573246917345
 20
-22.86260126949228
 30
0.0
 10
4.575326122500936
 20
-22.90097324652153
 30
0.0
 10
4.672300836450911
 20
-22.95353709316026
 30
0.0
 10
4.759719120419725
 20
-23.01890211896092
 30
0.0
 10
4.836491630843659
 20
-23.09505340534042
 30
0.0
 10
4.899991307383235
 20
-23.18264537455478
 30
0.0
 10
4.942564352687159
 20
-23.26390683244915
 30
0.0
 10
4.97060883472544
 20
-23.33599269292479
 30
0.0
 10
4.988264534431874
 20
-23.39773240119152
 30
0.0
 10
5.003258154133508
 20
-23.46651648284819
 30
0.0
 10
5.016256696979175
 20
-23.54213708160354
 30
0.0
 10
5.025052069168941
 20
-23.62512402909315
 30
0.0
 10
5.03198908182918
 20
-23.71513713968715
 30
0.0
 10
5.036960650829628
 20
-23.81214725653378
 30
0.0
 10
5.037157899734682
 20
-23.87924202944545
 30
0.0
 10
5.037259615384588
 20
-23.91384089543273
 30
0.0
  0
SPLINE
  5
B2
330
1F
100
AcDbEntity
  8
0
  6
Continuous
 62
     7
370
    15
100
AcDbSpline
210
0.0
220
0.0
230
1.0
 70
     8
 71
     3
 72
    15
 73
    11
 74
     0
 42
0.000000001
 43
0.00000001
 40
0.0
 40
0.0
 40
0.0
 40
0.0
 40
0.1409759662687722
 40
0.2735687809631701
 40
0.3989883138042533
 40
0.5199297813924312
 40
0.6381100215247442
 40
0.7565889007405946
 40
0.8768597544106072
 40
0.9999999999999999
 40
0.9999999999999999
 40
0.9999999999999999
 40
0.9999999999999999
 10
3.432799145299119
 20
-23.25678168402782
 30
0.0
 10
3.460687285941716
 20
-23.22198746747772
 30
0.0
 10
3.514805195829842
 20
-23.15446807634951
 30
0.0
 10
3.604931930107075
 20
-23.06572483667068
 30
0.0
 10
3.700180637696772
 20
-22.99259419417809
 30
0.0
 10
3.799968017977464
 20
-22.93429955123748
 30
0.0
 10
3.904429532923654
 20
-22.89035506508886
 30
0.0
 10
4.012928427648919
 20
-22.85861827596585
 30
0.0
 10
4.126114287413595
 20
-22.83958845128139
 30
0.0
 10
4.203086024504271
 20
-22.83710193239542
 30
0.0
 10
4.242025574252111
 20
-22.83584401709406
 30
0.0
  0
SPLINE
  5
C3
330
1F
100
AcDbEntity
  8
0
  6
Continuous
 62
     7
370
    15
100
AcDbSpline
210
0.0
220
0.0
230
1.0
 70
     8
 71
     3
 72
    23
 73
    19
 74
     0
 42
0.000000001
 43
0.00000001
 40
0.0
 40
0.0
 40
0.0
 40
0.0
 40
0.0611602766365178
 40
0.1203345577262023
 40
0.1781802550631266
 40
0.2352351259863641
 40
0.2926829614441804
 40
0.3511862482150804
 40
0.4104566095096927
 40
0.4717198544629951
 40
0.5337612027725892
 40
0.5957390238870944
 40
0.6578875151248842
 40
0.7212951802914607
 40
0.7868225145418887
 40
0.8546861538286837
 40
0.9254779862699953
 40
1.0
 40
1.0
 40
1.0
 40
1.0
 10
9.887954059828987
 20
-24.17386610243059
 30
0.0
 10
9.88714176584411
 20
-24.20227748359386
 30
0.0
 10
9.885543554671928
 20
-24.25817767199538
 30
0.0
 10
9.873752232886185
 20
-24.34029726899957
 30
0.0
 10
9.853787517132444
 20
-24.41877453115319
 30
0.0
 10
9.82628728411371
 20
-24.49411705510429
 30
0.0
 10
9.790395764176893
 20
-24.56617908358972
 30
0.0
 10
9.746716260503671
 20
-24.63504225608327
 30
0.0
 10
9.694635132895867
 20
-24.70001467267044
 30
0.0
 10
9.63637452103525
 20
-24.76181830450074
 30
0.0
 10
9.570464272673535
 20
-24.81738879194935
 30
0.0
 10
9.499353850276623
 20
-24.86687893613611
 30
0.0
 10
9.422147714031736
 20
-24.90757991755002
 30
0.0
 10
9.340113883293053
 20
-24.94176984733541
 30
0.0
 10
9.252332127571872
 20
-24.96788642843998
 30
0.0
 10
9.159196626094694
 20
-24.98615766995029
 30
0.0
 10
9.060787703675961
 20
-24.99846876321639
 30
0.0
 10
8.993257928495737
 20
-24.99948092704867
 30
0.0
 10
8.95862630208326
 20
-25.00000000000004
 30
0.0
  0
SPLINE
  5
C4
330
1F
100
AcDbEntity
  8
0
  6
Continuous
 62
     7
370
    15
100
AcDbSpline
210
0.0
220
0.0
230
1.0
 70
     8
 71
     3
 72
    19
 73
    15
 74
     0
 42
0.000000001
 43
0.00000001
 40
0.0
 40
0.0
 40
0.0
 40
0.0
 40
0.1060574933033963
 40
0.2029142570846099
 40
0.2903001653958374
 40
0.3702225656250387
 40
0.4463837207709706
 40
0.5213968999648266
 40
0.5982910828464563
 40
0.6761424688569271
 40
0.755528699556023
 40
0.8348871724576593
 40
0.9166460487466409
 40
1.0
 40
1.0
 40
1.0
 40
1.0
 10
9.327675530849287
 20
-23.42993748330666
 30
0.0
 10
9.360738219748054
 20
-23.4426310568305
 30
0.0
 10
9.42399533384862
 20
-23.46691700741365
 30
0.0
 10
9.511046738234004
 20
-23.50985435455882
 30
0.0
 10
9.586048046840908
 20
-23.55655582373545
 30
0.0
 10
9.64957591168693
 20
-23.60755617769423
 30
0.0
 10
9.703907283067016
 20
-23.66252880190483
 30
0.0
 10
9.751349520791607
 20
-23.72227975107445
 30
0.0
 10
9.791830401567065
 20
-23.78758846819034
 30
0.0
 10
9.826516683841552
 20
-23.85777402706016
 30
0.0
 10
9.853582524418114
 20
-23.93211976294976
 30
0.0
 10
9.873852249658903
 20
-24.00992831902598
 30
0.0
 10
9.885466848731951
 20
-24.09092068724415
 30
0.0
 10
9.887119667104361
 20
-24.14604013661073
 30
0.0
 10
9.887954059828987
 20
-24.17386610243059
 30
0.0
  0
SPLINE
  5
C5
330
1F
100
AcDbEntity
  8
0
  6
Continuous
 62
     7
370
    15
100
AcDbSpline
210
0.0
220
0.0
230
1.0
 70
     8
 71
     3
 72
    15
 73
    11
 74
     0
 42
0.000000001
 43
0.00000001
 40
0.0
 40
0.0
 40
0.0
 40
0.0
 40
0.1305691070873086
 40
0.2565806086940814
 40
0.3805516168036836
 40
0.5036229172007095
 40
0.6257393231697875
 40
0.7475485819596277
 40
0.8717661185648728
 40
1.0
 40
1.0
 40
1.0
 40
1.0
 10
9.664075854700782
 20
-22.81077432224897
 30
0.0
 10
9.663166791507775
 20
-22.84291576289309
 30
0.0
 10
9.661380396604672
 20
-22.90607672484449
 30
0.0
 10
9.644298113992853
 20
-22.99845676690952
 30
0.0
 10
9.617554986724965
 20
-23.08639394113678
 30
0.0
 10
9.580380443223762
 20
-23.16956731758167
 30
0.0
 10
9.532065866623324
 20
-23.24609764946528
 30
0.0
 10
9.47480689568573
 20
-23.3166022986706
 30
0.0
 10
9.40572457837627
 20
-23.3780961240408
 30
0.0
 10
9.353966360362511
 20
-23.41247471622138
 30
0.0
 10
9.327675530849287
 20
-23.42993748330666
 30
0.0
  0
SPLINE
  5
C6
330
1F
100
AcDbEntity
  8
0
  6
Continuous
 62
     7
370
    15
100
AcDbSpline
210
0.0
220
0.0
230
1.0
 70
     8
 71
     3
 72
    23
 73
    19
 74
     0
 42
0.000000001
 43
0.00000001
 40
0.0
 40
0.0
 40
0.0
 40
0.0
 40
0.0625940971873318
 40
0.1213229386347487
 40
0.1766801421977651
 40
0.228365095709675
 40
0.276868445836807
 40
0.3218791276660447
 40
0.3640986251098912
 40
0.4033556962427013
 40
0.4779679481633697
 40
0.5505354613647744
 40
0.6235844567403234
 40
0.698174882264203
 40
0.7733536703408753
 40
0.8472811254977315
 40
0.9228183395566686
 40
1.0
 40
1.0
 40
1.0
 40
1.0
 10
8.739412226228561
 20
-22.08958333333337
 30
0.0
 10
8.767209597674
 20
-22.08972947816151
 30
0.0
 10
8.821087821685914
 20
-22.09001274321065
 30
0.0
 10
8.899435774206594
 20
-22.09440591833703
 30
0.0
 10
8.972818862578517
 20
-22.10039611287302
 30
0.0
 10
9.04125836851524
 20
-22.1099007791968
 30
0.0
 10
9.104722666872586
 20
-22.12136929864444
 30
0.0
 10
9.163403017599519
 20
-22.13525765404813
 30
0.0
 10
9.217112821563108
 20
-22.15191073695387
 30
0.0
 10
9.28123573391989
 20
-22.17839243628824
 30
0.0
 10
9.354345950138784
 20
-22.21774390425523
 30
0.0
 10
9.43350794692811
 20
-22.27589283610831
 30
0.0
 10
9.501199448347736
 20
-22.34701715216735
 30
0.0
 10
9.559562713339167
 20
-22.42724707456482
 30
0.0
 10
9.605964001492083
 20
-22.51550402286017
 30
0.0
 10
9.639532994557564
 20
-22.60968443162337
 30
0.0
 10
9.66078558495998
 20
-22.70857352296957
 30
0.0
 10
9.662971253174032
 20
-22.77646371314627
 30
0.0
 10
9.664075854700782
 20
-22.81077432224897
 30
0.0
  0
SPLINE
  5
CA
330
1F
100
AcDbEntity
  8
0
  6
Continuous
 62
     7
370
    15
100
AcDbSpline
210
0.0
220
0.0
230
1.0
 70
     8
 71
     3
 72
    15
 73
    11
 74
     0
 42
0.000000001
 43
0.00000001
 40
0.0
 40
0.0
 40
0.0
 40
0.0
 40
0.1298621417207369
 40
0.254653530897287
 40
0.3760145541937129
 40
0.4952552518176075
 40
0.6147977192994586
 40
0.7381055541683318
 40
0.8651963000723576
 40
1.0
 40
1.0
 40
1.0
 40
1.0
 10
14.1019948584401
 20
-22.83584401709406
 30
0.0
 10
14.14540152695851
 20
-22.83703957596547
 30
0.0
 10
14.23051995528746
 20
-22.83938401048631
 30
0.0
 10
14.35502592489804
 20
-22.8588943855248
 30
0.0
 10
14.47281005324997
 20
-22.89185565851009
 30
0.0
 10
14.58478155907499
 20
-22.93669062561655
 30
0.0
 10
14.69053835578598
 20
-22.99626995569239
 30
0.0
 10
14.78907923024395
 20
-23.07142519709123
 30
0.0
 10
14.88143546844693
 20
-23.16168236268484
 30
0.0
 10
14.93497074668975
 20
-23.23100885728216
 30
0.0
 10
14.96252670940163
 20
-23.26669295873402
 30
0.0
  0
SPLINE
  5
CB
330
1F
100
AcDbEntity
  8
0
  6
Continuous
 62
     7
370
    15
100
AcDbSpline
210
0.0
220
0.0
230
1.0
 70
     8
 71
     3
 72
    23
 73
    19
 74
     0
 42
0.000000001
 43
0.00000001
 40
0.0
 40
0.0
 40
0.0
 40
0.0
 40
0.0637745323056327
 40
0.1260788099895065
 40
0.1869040927472069
 40
0.2475739349176193
 40
0.3080033561644472
 40
0.3691318984609778
 40
0.4320332277442051
 40
0.4967907944370908
 40
0.5616108232295651
 40
0.6249138657484631
 40
0.686726349241925
 40
0.7480788332577716
 40
0.8095822911398957
 40
0.8716307425688279
 40
0.9348858208285535
 40
1.0
 40
1.0
 40
1.0
 40
1.0
 10
12.98493589743582
 20
-23.93074836404918
 30
0.0
 10
12.98597780280766
 20
-23.89377467721199
 30
0.0
 10
12.98803759352118
 20
-23.82067969291609
 30
0.0
 10
13.00338232454312
 20
-23.71317829941237
 30
0.0
 10
13.02918608591031
 20
-23.60963543617169
 30
0.0
 10
13.06539819495152
 20
-23.51038445421718
 30
0.0
 10
13.11183343964407
 20
-23.41530525775433
 30
0.0
 10
13.16831887867272
 20
-23.32433060123893
 30
0.0
 10
13.23485859129431
 20
-23.23720985823033
 30
0.0
 10
13.3115708607002
 20
-23.15599158211972
 30
0.0
 10
13.39467138088901
 20
-23.08096884513499
 30
0.0
 10
13.48357108153709
 20
-23.01576799008551
 30
0.0
 10
13.57605853630209
 20
-22.95945820568314
 30
0.0
 10
13.67356831350434
 20
-22.91484278520698
 30
0.0
 10
13.77465715006692
 20
-22.87874604767804
 30
0.0
 10
13.88022498560793
 20
-22.85377220456112
 30
0.0
 10
13.9898325900185
 20
-22.83905603922047
 30
0.0
 10
14.06424819562224
 20
-22.83692497879245
 30
0.0
 10
14.1019948584401
 20
-22.83584401709406
 30
0.0
  0
SPLINE
  5
CC
330
1F
100
AcDbEntity
  8
0
  6
Continuous
 62
     7
370
    15
100
AcDbSpline
210
0.0
220
0.0
230
1.0
 70
     8
 71
     3
 72
    23
 73
    19
 74
     0
 42
0.000000001
 43
0.00000001
 40
0.0
 40
0.0
 40
0.0
 40
0.0
 40
0.0646199913407677
 40
0.127433484144469
 40
0.1890041265579397
 40
0.249930070686047
 40
0.3106684537406717
 40
0.3723289611368234
 40
0.4349391099970077
 40
0.4995755441940334
 40
0.5641912077719239
 40
0.6267352169294788
 40
0.6881093335614018
 40
0.7492936065367507
 40
0.8103305278109458
 40
0.8719011702244152
 40
0.935045914684531
 40
0.9999999999999999
 40
0.9999999999999999
 40
0.9999999999999999
 40
0.9999999999999999
 10
14.09383263221146
 20
-25.03731303418807
 30
0.0
 10
14.05627332774477
 20
-25.0362932472476
 30
0.0
 10
13.98220471629921
 20
-25.03428218224721
 30
0.0
 10
13.87324779917834
 20
-25.01868043334559
 30
0.0
 10
13.76839608936562
 20
-24.99362538665869
 30
0.0
 10
13.66755050721769
 20
-24.95878280176583
 30
0.0
 10
13.57136361009184
 20
-24.9125647018679
 30
0.0
 10
13.47901185113277
 20
-24.85723248549059
 30
0.0
 10
13.39097366616212
 20
-24.79133996190568
 30
0.0
 10
13.30859096382134
 20
-24.71601170261462
 30
0.0
 10
13.23272721112781
 20
-24.63419158529585
 30
0.0
 10
13.16615245050092
 20
-24.5469243656622
 30
0.0
 10
13.1106440858836
 20
-24.45458740224668
 30
0.0
 10
13.06422703067643
 20
-24.35834977368566
 30
0.0
 10
13.02847352282898
 20
-24.25747064119217
 30
0.0
 10
13.0035490186276
 20
-24.15229885332797
 30
0.0
 10
12.98796544479378
 20
-24.04295876205703
 30
0.0
 10
12.98595521111707
 20
-23.96850238481622
 30
0.0
 10
12.98493589743582
 20
-23.93074836404918
 30
0.0
  0
SPLINE
  5
CD
330
1F
100
AcDbEntity
  8
0
  6
Continuous
 62
     7
370
    15
100
AcDbSpline
210
0.0
220
0.0
230
1.0
 70
     8
 71
     3
 72
    15
 73
    11
 74
     0
 42
0.000000001
 43
0.00000001
 40
0.0
 40
0.0
 40
0.0
 40
0.0
 40
0.1342983790141676
 40
0.2620849753823005
 40
0.3862699121345012
 40
0.5071645966227999
 40
0.6273002357255054
 40
0.7481449416029932
 40
0.8723701771613525
 40
1.0
 40
1.0
 40
1.0
 40
1.0
 10
14.96252670940163
 20
-24.63211680355239
 30
0.0
 10
14.9330742983869
 20
-24.66541163257566
 30
0.0
 10
14.87559754794205
 20
-24.73038691008069
 30
0.0
 10
14.77960276115269
 20
-24.81527309756259
 30
0.0
 10
14.67784779417068
 20
-24.88543768993845
 30
0.0
 10
14.57082651701616
 20
-24.94210759007741
 30
0.0
 10
14.45863557299686
 20
-24.98467622263889
 30
0.0
 10
14.34152365994631
 20
-25.01493304662624
 30
0.0
 10
14.21944300573847
 20
-25.0343861345641
 30
0.0
 10
14.13607839880893
 20
-25.03632864798735
 30
0.0
 10
14.09383263221146
 20
-25.03731303418807
 30
0.0
  0
CIRCLE
  5
101
330
1F
100
AcDbEntity
  8
0
  6
Continuous
 62
     7
370
    15
100
AcDbCircle
 10
16.7811540919
 20
0.0
 30
0.0
 40
2.099999999999998
  0
CIRCLE
  5
102
330
1F
100
AcDbEntity
  8
0
  6
Continuous
 62
     7
370
    15
100
AcDbCircle
 10
51.7811540919
 20
0.0
 30
0.0
 40
2.100000000000009
  0
CIRCLE
  5
103
330
1F
100
AcDbEntity
  8
0
  6
Continuous
 62
     7
370
    15
100
AcDbCircle
 10
34.2811540919
 20
8.0
 30
0.0
 40
5.000000000000007
  0
CIRCLE
  5
104
330
1F
100
AcDbEntity
  8
0
  6
Continuous
 62
     7
370
    15
100
AcDbCircle
 10
-43.2188459081
 20
15.5
 30
0.0
 40
1.499999999999993
  0
CIRCLE
  5
105
330
1F
100
AcDbEntity
  8
0
  6
Continuous
 62
     7
370
    15
100
AcDbCircle
 10
-18.2188459081
 20
15.5
 30
0.0
 40
1.499999999999996
  0
CIRCLE
  5
106
330
1F
100
AcDbEntity
  8
0
  6
Continuous
 62
     7
370
    15
100
AcDbCircle
 10
-18.2188459081
 20
-15.5
 30
0.0
 40
1.5
  0
CIRCLE
  5
107
330
1F
100
AcDbEntity
  8
0
  6
Continuous
 62
     7
370
    15
100
AcDbCircle
 10
-43.2188459081
 20
-15.5
 30
0.0
 40
1.5
  0
SPLINE
  5
108
330
1F
100
AcDbEntity
  8
0
  6
Continuous
 62
     7
370
    15
100
AcDbSpline
210
0.0
220
0.0
230
1.0
 70
     8
 71
     3
 72
    15
 73
    11
 74
     0
 42
0.000000001
 43
0.00000001
 40
0.0
 40
0.0
 40
0.0
 40
0.0
 40
0.1288840014739248
 40
0.2529849718578357
 40
0.3742104371825964
 40
0.4941015128996908
 40
0.6147527632399882
 40
0.738511070373329
 40
0.8662425140769318
 40
1.0
 40
1.0
 40
1.0
 40
1.0
 10
18.05717648237173
 20
-22.83584401709406
 30
0.0
 10
18.10059724451166
 20
-22.83714713207106
 30
0.0
 10
18.18582737519034
 20
-22.83970500195417
 30
0.0
 10
18.31047513386706
 20
-22.86108107023088
 30
0.0
 10
18.42837828381986
 20
-22.89697305850521
 30
0.0
 10
18.54021560732858
 20
-22.94611027278265
 30
0.0
 10
18.64532036603243
 20
-23.00997375465599
 30
0.0
 10
18.74446299514112
 20
-23.08710100027431
 30
0.0
 10
18.83591936544374
 20
-23.17967482353676
 30
0.0
 10
18.89002968454418
 20
-23.24920182837164
 30
0.0
 10
18.91770833333326
 20
-23.28476645966884
 30
0.0
  0
SPLINE
  5
109
330
1F
100
AcDbEntity
  8
0
  6
Continuous
 62
     7
370
    15
100
AcDbSpline
210
0.0
220
0.0
230
1.0
 70
     8
 71
     3
 72
    23
 73
    19
 74
     0
 42
0.000000001
 43
0.00000001
 40
0.0
 40
0.0
 40
0.0
 40
0.0
 40
0.0637745323056325
 40
0.1260788099895064
 40
0.1869040927472068
 40
0.2475739349176191
 40
0.308003356164447
 40
0.3691318984609769
 40
0.4320332277442047
 40
0.4967907944370897
 40
0.5616108232295655
 40
0.6249138657484617
 40
0.6867263492419252
 40
0.7480788332577699
 40
0.8095822911398949
 40
0.871630742568827
 40
0.9348858208285536
 40
1.0
 40
1.0
 40
1.0
 40
1.0
 10
16.94011752136745
 20
-23.93074836404918
 30
0.0
 10
16.94115942673929
 20
-23.89377467721198
 30
0.0
 10
16.9432192174528
 20
-23.82067969291609
 30
0.0
 10
16.95856394847475
 20
-23.71317829941237
 30
0.0
 10
16.98436770984194
 20
-23.6096354361717
 30
0.0
 10
17.02057981888316
 20
-23.51038445421718
 30
0.0
 10
17.0670150635757
 20
-23.41530525775433
 30
0.0
 10
17.12350050260436
 20
-23.32433060123894
 30
0.0
 10
17.19004021522594
 20
-23.23720985823032
 30
0.0
 10
17.26675248463183
 20
-23.15599158211971
 30
0.0
 10
17.34985300482065
 20
-23.080968845135
 30
0.0
 10
17.43875270546872
 20
-23.01576799008552
 30
0.0
 10
17.53124016023372
 20
-22.95945820568314
 30
0.0
 10
17.62874993743597
 20
-22.91484278520697
 30
0.0
 10
17.72983877399856
 20
-22.87874604767804
 30
0.0
 10
17.83540660953956
 20
-22.85377220456112
 30
0.0
 10
17.94501421395015
 20
-22.83905603922048
 30
0.0
 10
18.01942981955387
 20
-22.83692497879245
 30
0.0
 10
18.05717648237173
 20
-22.83584401709406
 30
0.0
  0
SPLINE
  5
10A
330
1F
100
AcDbEntity
  8
0
  6
Continuous
 62
     7
370
    15
100
AcDbSpline
210
0.0
220
0.0
230
1.0
 70
     8
 71
     3
 72
    23
 73
    19
 74
     0
 42
0.000000001
 43
0.00000001
 40
0.0
 40
0.0
 40
0.0
 40
0.0
 40
0.0646199913407686
 40
0.1274334841444709
 40
0.1890041265579404
 40
0.2499300706860486
 40
0.3106684537406733
 40
0.3723289611368242
 40
0.4349391099970084
 40
0.4995755441940339
 40
0.5641912077719236
 40
0.6267352169294796
 40
0.6881093335614016
 40
0.7492936065367513
 40
0.8103305278109463
 40
0.8719011702244154
 40
0.9350459146845314
 40
1.0
 40
1.0
 40
1.0
 40
1.0
 10
18.0490142561431
 20
-25.03731303418807
 30
0.0
 10
18.0114549516764
 20
-25.0362932472476
 30
0.0
 10
17.93738634023085
 20
-25.03428218224722
 30
0.0
 10
17.82842942310997
 20
-25.01868043334559
 30
0.0
 10
17.72357771329726
 20
-24.9936253866587
 30
0.0
 10
17.62273213114932
 20
-24.95878280176584
 30
0.0
 10
17.52654523402347
 20
-24.91256470186789
 30
0.0
 10
17.4341934750644
 20
-24.8572324854906
 30
0.0
 10
17.34615529009375
 20
-24.79133996190567
 30
0.0
 10
17.26377258775298
 20
-24.71601170261462
 30
0.0
 10
17.18790883505944
 20
-24.63419158529585
 30
0.0
 10
17.12133407443254
 20
-24.5469243656622
 30
0.0
 10
17.06582570981524
 20
-24.45458740224668
 30
0.0
 10
17.01940865460805
 20
-24.35834977368566
 30
0.0
 10
16.98365514676061
 20
-24.25747064119218
 30
0.0
 10
16.95873064255924
 20
-24.15229885332797
 30
0.0
 10
16.94314706872541
 20
-24.04295876205704
 30
0.0
 10
16.94113683504869
 20
-23.96850238481622
 30
0.0
 10
16.94011752136745
 20
-23.93074836404918
 30
0.0
  0
SPLINE
  5
10B
330
1F
100
AcDbEntity
  8
0
  6
Continuous
 62
     7
370
    15
100
AcDbSpline
210
0.0
220
0.0
230
1.0
 70
     8
 71
     3
 72
    15
 73
    11
 74
     0
 42
0.000000001
 43
0.00000001
 40
0.0
 40
0.0
 40
0.0
 40
0.0
 40
0.1342983790141668
 40
0.2620849753823001
 40
0.3862699121345012
 40
0.5071645966228002
 40
0.6273002357255061
 40
0.7481449416029959
 40
0.8723701771613538
 40
1.0
 40
1.0
 40
1.0
 40
1.0
 10
18.91770833333326
 20
-24.63211680355239
 30
0.0
 10
18.88825592231853
 20
-24.66541163257566
 30
0.0
 10
18.83077917187369
 20
-24.7303869100807
 30
0.0
 10
18.73478438508432
 20
-24.81527309756258
 30
0.0
 10
18.63302941810231
 20
-24.88543768993846
 30
0.0
 10
18.52600814094779
 20
-24.94210759007741
 30
0.0
 10
18.41381719692848
 20
-24.98467622263889
 30
0.0
 10
18.29670528387794
 20
-25.01493304662623
 30
0.0
 10
18.17462462967011
 20
-25.03438613456412
 30
0.0
 10
18.09126002274056
 20
-25.03632864798735
 30
0.0
 10
18.0490142561431
 20
-25.03731303418807
 30
0.0
  0
SPLINE
  5
112
330
1F
100
AcDbEntity
  8
0
  6
Continuous
 62
     7
370
    15
100
AcDbSpline
210
0.0
220
0.0
230
1.0
 70
     8
 71
     3
 72
    15
 73
    11
 74
     0
 42
0.000000001
 43
0.00000001
 40
0.0
 40
0.0
 40
0.0
 40
0.0
 40
0.0708548685015328
 40
0.1569381495573537
 40
0.2586003949600837
 40
0.3758909295892014
 40
0.5081661676989037
 40
0.6562378085782268
 40
0.8201767703979113
 40
1.0
 40
1.0
 40
1.0
 40
1.0
 10
16.05393295940165
 20
-23.55528595753209
 30
0.0
 10
16.04999774896652
 20
-23.57214739294258
 30
0.0
 10
16.04128155688448
 20
-23.60949419109725
 30
0.0
 10
16.03280680785616
 20
-23.67215007742838
 30
0.0
 10
16.02443352415782
 20
-23.74617748891249
 30
0.0
 10
16.01853234806497
 20
-23.83178248311388
 30
0.0
 10
16.01306239279603
 20
-23.92875128321366
 30
0.0
 10
16.00997728275359
 20
-24.03723161418758
 30
0.0
 10
16.00739687361204
 20
-24.15733482344082
 30
0.0
 10
16.00732779955333
 20
-24.24129980645595
 30
0.0
 10
16.00729166666661
 20
-24.28522218883551
 30
0.0
  0
SPLINE
  5
113
330
1F
100
AcDbEntity
  8
0
  6
Continuous
 62
     7
370
    15
100
AcDbSpline
210
0.0
220
0.0
230
1.0
 70
     8
 71
     3
 72
    19
 73
    15
 74
     0
 42
0.000000001
 43
0.00000001
 40
0.0
 40
0.0
 40
0.0
 40
0.0
 40
0.0938065293523304
 40
0.1913381281363372
 40
0.295190616625171
 40
0.4103123367232963
 40
0.4719302510512788
 40
0.5364251593464318
 40
0.6031187283036333
 40
0.6741176724905988
 40
0.749332023225885
 40
0.8282833841715622
 40
0.9120398092627625
 40
1.0
 40
1.0
 40
1.0
 40
1.0
 10
16.47661967481297
 20
-23.0970352564103
 30
0.0
 10
16.45565990712554
 20
-23.09843228748404
 30
0.0
 10
16.4129080566608
 20
-23.10128182591642
 30
0.0
 10
16.35013910090163
 20
-23.12368272737505
 30
0.0
 10
16.28923056156511
 20
-23.15987603715962
 30
0.0
 10
16.24085805425355
 20
-23.20001576528798
 30
0.0
 10
16.20340327611895
 20
-23.2387224754414
 30
0.0
 10
16.17667714810319
 20
-23.27252355781408
 30
0.0
 10
16.15216084007087
 20
-23.310424360341
 30
0.0
 10
16.1287359603688
 20
-23.35177696050365
 30
0.0
 10
16.1073932145294
 20
-23.3972874336626
 30
0.0
 10
16.08747376638796
 20
-23.44650109387117
 30
0.0
 10
16.06946339049359
 20
-23.49947494202081
 30
0.0
 10
16.05919357431426
 20
-23.53638112103732
 30
0.0
 10
16.05393295940165
 20
-23.55528595753209
 30
0.0
  0
SPLINE
  5
114
330
1F
100
AcDbEntity
  8
0
  6
Continuous
 62
     7
370
    15
100
AcDbSpline
210
0.0
220
0.0
230
1.0
 70
     8
 71
     3
 72
    11
 73
     7
 74
     0
 42
0.000000001
 43
0.00000001
 40
0.0
 40
0.0
 40
0.0
 40
0.0
 40
0.2951388013693739
 40
0.5602299448882276
 40
0.7949833567408866
 40
1.0
 40
1.0
 40
1.0
 40
1.0
 10
16.61013037526703
 20
-23.13493130675752
 30
0.0
 10
16.59756650470871
 20
-23.12932645451772
 30
0.0
 10
16.57371787322477
 20
-23.11868737200184
 30
0.0
 10
16.53883065353582
 20
-23.10609606952896
 30
0.0
 10
16.50666528007567
 20
-23.09868206093381
 30
0.0
 10
16.48617298779417
 20
-23.09755887505251
 30
0.0
 10
16.47661967481298
 20
-23.0970352564103
 30
0.0
  0
SPLINE
  5
116
330
1F
100
AcDbEntity
  8
0
  6
Continuous
 62
     7
370
    15
100
AcDbSpline
210
0.0
220
0.0
230
1.0
 70
     8
 71
     3
 72
    11
 73
     7
 74
     0
 42
0.000000001
 43
0.00000001
 40
0.0
 40
0.0
 40
0.0
 40
0.0
 40
0.2252775478670063
 40
0.4635231951764745
 40
0.7203235553269306
 40
1.0
 40
1.0
 40
1.0
 40
1.0
 10
16.52617604834396
 20
-22.83584401709406
 30
0.0
 10
16.54432567816652
 20
-22.83683399664947
 30
0.0
 10
16.58166972104287
 20
-22.83887094392199
 30
0.0
 10
16.63820048173128
 20
-22.85318256417477
 30
0.0
 10
16.69644494739659
 20
-22.87603184840485
 30
0.0
 10
16.73398299203291
 20
-22.89751922403758
 30
0.0
 10
16.75355235042729
 20
-22.90872103699256
 30
0.0
  0
SPLINE
  5
117
330
1F
100
AcDbEntity
  8
0
  6
Continuous
 62
     7
370
    15
100
AcDbSpline
210
0.0
220
0.0
230
1.0
 70
     8
 71
     3
 72
    15
 73
    11
 74
     0
 42
0.000000001
 43
0.00000001
 40
0.0
 40
0.0
 40
0.0
 40
0.0
 40
0.1600594124854964
 40
0.30611238274013
 40
0.4383665141302061
 40
0.5605414552552174
 40
0.6753172249527052
 40
0.7861136344281792
 40
0.892841788105089
 40
1.0
 40
1.0
 40
1.0
 40
1.0
 10
16.00729166666661
 20
-23.18623672876607
 30
0.0
 10
16.02657422379492
 20
-23.15708613818793
 30
0.0
 10
16.06345196448016
 20
-23.1013358602031
 30
0.0
 10
16.12474777537729
 20
-23.0276031140807
 30
0.0
 10
16.18753239073202
 20
-22.96655500686872
 30
0.0
 10
16.25210637684014
 20
-22.9179065451297
 30
0.0
 10
16.318944594444
 20
-22.8814738504887
 30
0.0
 10
16.38658014298568
 20
-22.85478696362021
 30
0.0
 10
16.45607712595645
 20
-22.83900642231869
 30
0.0
 10
16.50277844032928
 20
-22.83689956424527
 30
0.0
 10
16.52617604834396
 20
-22.83584401709406
 30
0.0
  0
SPLINE
  5
11C
330
1F
100
AcDbEntity
  8
0
  6
Continuous
 62
     7
370
    15
100
AcDbSpline
210
0.0
220
0.0
230
1.0
 70
     8
 71
     3
 72
    23
 73
    19
 74
     0
 42
0.000000001
 43
0.00000001
 40
0.0
 40
0.0
 40
0.0
 40
0.0
 40
0.0687422616054893
 40
0.1346351922242771
 40
0.1983241870671477
 40
0.2608250125604213
 40
0.3227135881590254
 40
0.3845545346076188
 40
0.4469128577247569
 40
0.5109576325148287
 40
0.5749307010013367
 40
0.6366845377960934
 40
0.6974831152940624
 40
0.7571338075238542
 40
0.8169656636752651
 40
0.8768183516571958
 40
0.9376625803840037
 40
1.0
 40
1.0
 40
1.0
 40
1.0
 10
11.43761101095075
 20
-25.03731303418807
 30
0.0
 10
11.39791731859717
 20
-25.03629755138086
 30
0.0
 10
11.32017521679109
 20
-25.03430867700058
 30
0.0
 10
11.20648105206086
 20
-25.01894393654036
 30
0.0
 10
11.09838849393466
 20
-24.99336720936799
 30
0.0
 10
10.99591804623728
 20
-24.95688930023478
 30
0.0
 10
10.89850652766807
 20
-24.91090925403362
 30
0.0
 10
10.80721382752623
 20
-24.85385536692604
 30
0.0
 10
10.7213981834931
 20
-24.78686576164742
 30
0.0
 10
10.64234130121393
 20
-24.7102503425649
 30
0.0
 10
10.5708293657136
 20
-24.62708730149953
 30
0.0
 10
10.50773734626917
 20
-24.53965003734747
 30
0.0
 10
10.45460949767892
 20
-24.44867033464998
 30
0.0
 10
10.41107115790314
 20
-24.35397145913673
 30
0.0
 10
10.37711756108969
 20
-24.25596631133372
 30
0.0
 10
10.35339259891252
 20
-24.15435550597277
 30
0.0
 10
10.33813900989551
 20
-24.04956440011222
 30
0.0
 10
10.33652649890043
 20
-23.97841474694154
 30
0.0
 10
10.33571047008537
 20
-23.94240868723295
 30
0.0
  0
SPLINE
  5
11D
330
1F
100
AcDbEntity
  8
0
  6
Continuous
 62
     7
370
    15
100
AcDbSpline
210
0.0
220
0.0
230
1.0
 70
     8
 71
     3
 72
    23
 73
    19
 74
     0
 42
0.000000001
 43
0.00000001
 40
0.0
 40
0.0
 40
0.0
 40
0.0
 40
0.0624160261588171
 40
0.1233369785373304
 40
0.1832651398530913
 40
0.2431724430697096
 40
0.302898353919745
 40
0.3637735975039109
 40
0.4256053049523819
 40
0.4896590425101852
 40
0.553784576792116
 40
0.6162215328110737
 40
0.6778544713083415
 40
0.7395168974879375
 40
0.8020965355763716
 40
0.8658658412779716
 40
0.9315077951965112
 40
1.0
 40
1.0
 40
1.0
 40
1.0
 10
12.53717948717938
 20
-23.94240868723294
 30
0.0
 10
12.53636345846919
 20
-23.97841474709946
 30
0.0
 10
12.53475094768138
 20
-24.04956440058222
 30
0.0
 10
12.51949735714667
 20
-24.15435550415753
 30
0.0
 10
12.49577240061659
 20
-24.2559663180215
 30
0.0
 10
12.46181878279747
 20
-24.35397143419553
 30
0.0
 10
12.41828052170153
 20
-24.44867042817986
 30
0.0
 10
12.36515237260367
 20
-24.53964967839213
 30
0.0
 10
12.30206151000787
 20
-24.62708868445317
 30
0.0
 10
12.23054509127484
 20
-24.71024497495233
 30
0.0
 10
12.15150492997515
 20
-24.78688557142048
 30
0.0
 10
12.06575894235506
 20
-24.85368235270975
 30
0.0
 10
11.97499216548004
 20
-24.91091072743753
 30
0.0
 10
11.87799766278675
 20
-24.95700874685052
 30
0.0
 10
11.77566118712964
 20
-24.99335544407387
 30
0.0
 10
11.66776200609227
 20
-25.01888396964128
 30
0.0
 10
11.55446774226633
 20
-25.03431889359103
 30
0.0
 10
11.47711117783266
 20
-25.03630094826097
 30
0.0
 10
11.43761101095075
 20
-25.03731303418807
 30
0.0
  0
SPLINE
  5
11E
330
1F
100
AcDbEntity
  8
0
  6
Continuous
 62
     7
370
    15
100
AcDbSpline
210
0.0
220
0.0
230
1.0
 70
     8
 71
     3
 72
    15
 73
    11
 74
     0
 42
0.000000001
 43
0.00000001
 40
0.0
 40
0.0
 40
0.0
 40
0.0
 40
0.1281572795931868
 40
0.2538343627967353
 40
0.376505622522207
 40
0.4985336856679092
 40
0.6213677287324643
 40
0.7445647449043583
 40
0.870633798255283
 40
1.0
 40
1.0
 40
1.0
 40
1.0
 10
12.24567140758536
 20
-23.18623672876607
 30
0.0
 10
12.26893973486437
 20
-23.2130241919493
 30
0.0
 10
12.31502608319325
 20
-23.26608070711288
 30
0.0
 10
12.37412061244845
 20
-23.35210897574885
 30
0.0
 10
12.42502925503175
 20
-23.44120107130038
 30
0.0
 10
12.46582744342366
 20
-23.53454006853832
 30
0.0
 10
12.49799588276191
 20
-23.63131114925354
 30
0.0
 10
12.52083491708848
 20
-23.73184692877069
 30
0.0
 10
12.53441985644072
 20
-23.83592538054896
 30
0.0
 10
12.53625172835588
 20
-23.90661011971183
 30
0.0
 10
12.53717948717938
 20
-23.94240868723294
 30
0.0
  0
SPLINE
  5
11F
330
1F
100
AcDbEntity
  8
0
  6
Continuous
 62
     7
370
    15
100
AcDbSpline
210
0.0
220
0.0
230
1.0
 70
     8
 71
     3
 72
    15
 73
    11
 74
     0
 42
0.000000001
 43
0.00000001
 40
0.0
 40
0.0
 40
0.0
 40
0.0
 40
0.131751427302404
 40
0.2583323505141586
 40
0.3821339760925433
 40
0.5038043916000845
 40
0.6246929865409308
 40
0.746870589727575
 40
0.871513504234815
 40
0.9999999999999999
 40
0.9999999999999999
 40
0.9999999999999999
 40
0.9999999999999999
 10
11.43761101095075
 20
-22.83584401709406
 30
0.0
 10
11.47751803961862
 20
-22.83669376823748
 30
0.0
 10
11.55576597005011
 20
-22.83835992256104
 30
0.0
 10
11.67035978943906
 20
-22.85616748626146
 30
0.0
 10
11.7797458340242
 20
-22.88339847914641
 30
0.0
 10
11.88434304262684
 20
-22.92104393879998
 30
0.0
 10
11.98281183116701
 20
-22.97150387029623
 30
0.0
 10
12.07658649070202
 20
-23.0317156439285
 30
0.0
 10
12.16540992011407
 20
-23.10304795536263
 30
0.0
 10
12.21864811765711
 20
-23.15822784912424
 30
0.0
 10
12.24567140758536
 20
-23.18623672876607
 30
0.0
  0
SPLINE
  5
120
330
1F
100
AcDbEntity
  8
0
  6
Continuous
 62
     7
370
    15
100
AcDbSpline
210
0.0
220
0.0
230
1.0
 70
     8
 71
     3
 72
    15
 73
    11
 74
     0
 42
0.000000001
 43
0.00000001
 40
0.0
 40
0.0
 40
0.0
 40
0.0
 40
0.1284975211375102
 40
0.2527129855154505
 40
0.3748191325670429
 40
0.4964364263727279
 40
0.6179105567458496
 40
0.741287617309289
 40
0.8687004007446076
 40
1.0
 40
1.0
 40
1.0
 40
1.0
 10
10.62721854967938
 20
-23.18798577724363
 30
0.0
 10
10.65420109828852
 20
-23.15973399740008
 30
0.0
 10
10.70726702793035
 20
-23.10417190120409
 30
0.0
 10
10.79653260688052
 20
-23.03304753444844
 30
0.0
 10
10.8900765759825
 20
-22.97158279922013
 30
0.0
 10
10.98963355325279
 20
-22.92212549387048
 30
0.0
 10
11.09414483454102
 20
-22.88317703597538
 30
0.0
 10
11.20409143085736
 20
-22.85609725941855
 30
0.0
 10
11.31907410651029
 20
-22.83842408269731
 30
0.0
 10
11.39770493429037
 20
-22.83671260984362
 30
0.0
 10
11.43761101095075
 20
-22.83584401709406
 30
0.0
  0
SPLINE
  5
121
330
1F
100
AcDbEntity
  8
0
  6
Continuous
 62
     7
370
    15
100
AcDbSpline
210
0.0
220
0.0
230
1.0
 70
     8
 71
     3
 72
    15
 73
    11
 74
     0
 42
0.000000001
 43
0.00000001
 40
0.0
 40
0.0
 40
0.0
 40
0.0
 40
0.1289191318119621
 40
0.2552377249249065
 40
0.3786785959785495
 40
0.50108788718513
 40
0.6227136794297771
 40
0.7462407949383822
 40
0.87158904723167
 40
0.9999999999999999
 40
0.9999999999999999
 40
0.9999999999999999
 40
0.9999999999999999
 10
10.33571047008536
 20
-23.94240868723294
 30
0.0
 10
10.33664455613538
 20
-23.90680469043985
 30
0.0
 10
10.33849388598225
 20
-23.83631489569814
 30
0.0
 10
10.35206516644463
 20
-23.73243209585906
 30
0.0
 10
10.37481510894988
 20
-23.63206646935716
 30
0.0
 10
10.40702210945406
 20
-23.53566891581596
 30
0.0
 10
10.44819634854649
 20
-23.44273894906154
 30
0.0
 10
10.49838963381912
 20
-23.35342671758064
 30
0.0
 10
10.5580869633781
 20
-23.26778745730157
 30
0.0
 10
10.60399001474159
 20
-23.21479951337347
 30
0.0
 10
10.62721854967938
 20
-23.18798577724363
 30
0.0
  0
SPLINE
  5
122
330
1F
100
AcDbEntity
  8
0
  6
Continuous
 62
     7
370
    15
100
AcDbSpline
210
0.0
220
0.0
230
1.0
 70
     8
 71
     3
 72
    23
 73
    19
 74
     0
 42
0.000000001
 43
0.00000001
 40
0.0
 40
0.0
 40
0.0
 40
0.0
 40
0.0687422616054891
 40
0.1346351922242766
 40
0.1983241870671472
 40
0.2608250125604215
 40
0.3227135881590249
 40
0.3845545346076187
 40
0.4469128577247566
 40
0.5109576325148286
 40
0.5749307010013365
 40
0.636684537796093
 40
0.697483115294062
 40
0.7571338075238542
 40
0.8169656636752651
 40
0.8768183516571958
 40
0.9376625803840037
 40
1.0
 40
1.0
 40
1.0
 40
1.0
 10
-0.9130033052885262
 20
-25.03731303418808
 30
0.0
 10
-0.9526969976420979
 20
-25.03629755138086
 30
0.0
 10
-1.030439099448182
 20
-25.03430867700058
 30
0.0
 10
-1.144133264178415
 20
-25.01894393654035
 30
0.0
 10
-1.252225822304611
 20
-24.99336720936799
 30
0.0
 10
-1.354696270001996
 20
-24.95688930023477
 30
0.0
 10
-1.452107788571208
 20
-24.9109092540336
 30
0.0
 10
-1.543400488713047
 20
-24.85385536692606
 30
0.0
 10
-1.629216132746175
 20
-24.78686576164742
 30
0.0
 10
-1.708273015025349
 20
-24.7102503425649
 30
0.0
 10
-1.779784950525664
 20
-24.62708730149952
 30
0.0
 10
-1.842876969970107
 20
-24.53965003734748
 30
0.0
 10
-1.896004818560348
 20
-24.44867033464996
 30
0.0
 10
-1.93954315833613
 20
-24.35397145913674
 30
0.0
 10
-1.973496755149579
 20
-24.25596631133371
 30
0.0
 10
-1.997221717326755
 20
-24.15435550597277
 30
0.0
 10
-2.012475306343764
 20
-24.04956440011222
 30
0.0
 10
-2.014087817338841
 20
-23.97841474694154
 30
0.0
 10
-2.014903846153911
 20
-23.94240868723295
 30
0.0
  0
SPLINE
  5
123
330
1F
100
AcDbEntity
  8
0
  6
Continuous
 62
     7
370
    15
100
AcDbSpline
210
0.0
220
0.0
230
1.0
 70
     8
 71
     3
 72
    23
 73
    19
 74
     0
 42
0.000000001
 43
0.00000001
 40
0.0
 40
0.0
 40
0.0
 40
0.0
 40
0.0624160261588172
 40
0.1233369785373303
 40
0.1832651398530913
 40
0.2431724430697097
 40
0.3028983539197452
 40
0.3637735975039108
 40
0.4256053049523817
 40
0.4896590425101848
 40
0.5537845767921159
 40
0.6162215328110733
 40
0.6778544713083419
 40
0.7395168974879377
 40
0.8020965355763715
 40
0.8658658412779714
 40
0.9315077951965113
 40
1.0
 40
1.0
 40
1.0
 40
1.0
 10
0.1865651709401059
 20
-23.94240868723294
 30
0.0
 10
0.1857491422299228
 20
-23.97841474709946
 30
0.0
 10
0.1841366314421067
 20
-24.04956440058222
 30
0.0
 10
0.1688830409073942
 20
-24.15435550415752
 30
0.0
 10
0.1451580843773127
 20
-24.2559663180215
 30
0.0
 10
0.1112044665581931
 20
-24.35397143419552
 30
0.0
 10
0.0676662054622578
 20
-24.44867042817985
 30
0.0
 10
0.0145380563643976
 20
-24.53964967839214
 30
0.0
 10
-0.0485528062314052
 20
-24.62708868445316
 30
0.0
 10
-0.1200692249644304
 20
-24.71024497495234
 30
0.0
 10
-0.1991093862641299
 20
-24.78688557142047
 30
0.0
 10
-0.2848553738842094
 20
-24.85368235270975
 30
0.0
 10
-0.3756221507592295
 20
-24.91091072743754
 30
0.0
 10
-0.4726166534525219
 20
-24.95700874685052
 30
0.0
 10
-0.5749531291096344
 20
-24.99335544407386
 30
0.0
 10
-0.6828523101470009
 20
-25.01888396964129
 30
0.0
 10
-0.7961465739729434
 20
-25.03431889359104
 30
0.0
 10
-0.873503138406613
 20
-25.03630094826098
 30
0.0
 10
-0.9130033052885261
 20
-25.03731303418807
 30
0.0
  0
SPLINE
  5
124
330
1F
100
AcDbEntity
  8
0
  6
Continuous
 62
     7
370
    15
100
AcDbSpline
210
0.0
220
0.0
230
1.0
 70
     8
 71
     3
 72
    15
 73
    11
 74
     0
 42
0.000000001
 43
0.00000001
 40
0.0
 40
0.0
 40
0.0
 40
0.0
 40
0.1281572795931862
 40
0.2538343627967347
 40
0.3765056225222069
 40
0.4985336856679091
 40
0.6213677287324644
 40
0.7445647449043583
 40
0.8706337982552829
 40
1.0
 40
1.0
 40
1.0
 40
1.0
 10
-0.104942908653911
 20
-23.18623672876607
 30
0.0
 10
-0.081674581374902
 20
-23.2130241919493
 30
0.0
 10
-0.0355882330460229
 20
-23.26608070711287
 30
0.0
 10
0.0235062962091797
 20
-23.35210897574886
 30
0.0
 10
0.0744149387924783
 20
-23.44120107130038
 30
0.0
 10
0.1152131271843893
 20
-23.53454006853832
 30
0.0
 10
0.1473815665226286
 20
-23.63131114925353
 30
0.0
 10
0.1702206008492084
 20
-23.73184692877068
 30
0.0
 10
0.183805540201448
 20
-23.83592538054896
 30
0.0
 10
0.1856374121166089
 20
-23.90661011971183
 30
0.0
 10
0.1865651709401059
 20
-23.94240868723295
 30
0.0
  0
SPLINE
  5
125
330
1F
100
AcDbEntity
  8
0
  6
Continuous
 62
     7
370
    15
100
AcDbSpline
210
0.0
220
0.0
230
1.0
 70
     8
 71
     3
 72
    15
 73
    11
 74
     0
 42
0.000000001
 43
0.00000001
 40
0.0
 40
0.0
 40
0.0
 40
0.0
 40
0.1317514273024045
 40
0.2583323505141579
 40
0.3821339760925439
 40
0.5038043916000843
 40
0.6246929865409313
 40
0.746870589727575
 40
0.8715135042348147
 40
1.0
 40
1.0
 40
1.0
 40
1.0
 10
-0.9130033052885261
 20
-22.83584401709406
 30
0.0
 10
-0.8730962766206511
 20
-22.83669376823748
 30
0.0
 10
-0.7948483461891612
 20
-22.83835992256104
 30
0.0
 10
-0.6802545268002124
 20
-22.85616748626147
 30
0.0
 10
-0.570868482215077
 20
-22.88339847914639
 30
0.0
 10
-0.4662712736124344
 20
-22.92104393879999
 30
0.0
 10
-0.3678024850722625
 20
-22.97150387029623
 30
0.0
 10
-0.2740278255372459
 20
-23.0317156439285
 30
0.0
 10
-0.1852043961252025
 20
-23.10304795536264
 30
0.0
 10
-0.1319661985821647
 20
-23.15822784912424
 30
0.0
 10
-0.104942908653911
 20
-23.18623672876607
 30
0.0
  0
SPLINE
  5
126
330
1F
100
AcDbEntity
  8
0
  6
Continuous
 62
     7
370
    15
100
AcDbSpline
210
0.0
220
0.0
230
1.0
 70
     8
 71
     3
 72
    15
 73
    11
 74
     0
 42
0.000000001
 43
0.00000001
 40
0.0
 40
0.0
 40
0.0
 40
0.0
 40
0.1284975211375106
 40
0.2527129855154518
 40
0.3748191325670437
 40
0.4964364263727283
 40
0.6179105567458505
 40
0.7412876173092895
 40
0.8687004007446073
 40
1.0
 40
1.0
 40
1.0
 40
1.0
 10
-1.723395766559894
 20
-23.18798577724363
 30
0.0
 10
-1.696413217950753
 20
-23.15973399740007
 30
0.0
 10
-1.64334728830893
 20
-23.10417190120408
 30
0.0
 10
-1.554081709358756
 20
-23.03304753444844
 30
0.0
 10
-1.460537740256774
 20
-22.97158279922012
 30
0.0
 10
-1.360980762986473
 20
-22.92212549387049
 30
0.0
 10
-1.256469481698251
 20
-22.88317703597536
 30
0.0
 10
-1.146522885381911
 20
-22.85609725941856
 30
0.0
 10
-1.031540209728978
 20
-22.8384240826973
 30
0.0
 10
-0.9529093819489015
 20
-22.83671260984362
 30
0.0
 10
-0.9130033052885261
 20
-22.83584401709406
 30
0.0
  0
SPLINE
  5
127
330
1F
100
AcDbEntity
  8
0
  6
Continuous
 62
     7
370
    15
100
AcDbSpline
210
0.0
220
0.0
230
1.0
 70
     8
 71
     3
 72
    15
 73
    11
 74
     0
 42
0.000000001
 43
0.00000001
 40
0.0
 40
0.0
 40
0.0
 40
0.0
 40
0.1289191318119622
 40
0.2552377249249069
 40
0.3786785959785499
 40
0.5010878871851301
 40
0.6227136794297773
 40
0.746240794938383
 40
0.8715890472316707
 40
0.9999999999999999
 40
0.9999999999999999
 40
0.9999999999999999
 40
0.9999999999999999
 10
-2.01490384615391
 20
-23.94240868723294
 30
0.0
 10
-2.01396976010389
 20
-23.90680469043985
 30
0.0
 10
-2.012120430257027
 20
-23.83631489569814
 30
0.0
 10
-1.998549149794639
 20
-23.73243209585907
 30
0.0
 10
-1.975799207289397
 20
-23.63206646935715
 30
0.0
 10
-1.94359220678521
 20
-23.53566891581595
 30
0.0
 10
-1.902417967692791
 20
-23.44273894906153
 30
0.0
 10
-1.852224682420155
 20
-23.35342671758065
 30
0.0
 10
-1.792527352861176
 20
-23.26778745730156
 30
0.0
 10
-1.746624301497684
 20
-23.21479951337348
 30
0.0
 10
-1.723395766559894
 20
-23.18798577724363
 30
0.0
  0
SPLINE
  5
13B
330
1F
100
AcDbEntity
  8
0
  6
Continuous
 62
     7
370
    15
100
AcDbSpline
210
0.0
220
0.0
230
1.0
 70
     8
 71
     3
 72
    23
 73
    19
 74
     0
 42
0.000000001
 43
0.00000001
 40
0.0
 40
0.0
 40
0.0
 40
0.0
 40
0.0723010339955044
 40
0.139700331739385
 40
0.202288511484772
 40
0.2605995332222013
 40
0.3131903291553317
 40
0.3617389329854273
 40
0.4057064756322221
 40
0.4455399848948701
 40
0.5188319558616062
 40
0.5897782395835763
 40
0.658867478656145
 40
0.7284304780610643
 40
0.7972827036080982
 40
0.8648153774014458
 40
0.9313637528792674
 40
1.0
 40
1.0
 40
1.0
 40
1.0
 10
8.608233590411253
 20
-23.3209134615385
 30
0.0
 10
8.63388583274871
 20
-23.32058090651466
 30
0.0
 10
8.68345119255566
 20
-23.31993834243795
 30
0.0
 10
8.755230297015556
 20
-23.31809769759535
 30
0.0
 10
8.821858065122711
 20
-23.31294372934919
 30
0.0
 10
8.883219488220542
 20
-23.30779124239068
 30
0.0
 10
8.93921793716183
 20
-23.29941374300595
 30
0.0
 10
8.989729350565694
 20
-23.28944172175087
 30
0.0
 10
9.035546457662768
 20
-23.2788952822153
 30
0.0
 10
9.088382615468959
 20
-23.26095922673922
 30
0.0
 10
9.148314704157043
 20
-23.23445142183927
 30
0.0
 10
9.212205088980685
 20
-23.19331323430377
 30
0.0
 10
9.268529525894756
 20
-23.14431482869715
 30
0.0
 10
9.316091711158936
 20
-23.087777106333
 30
0.0
 10
9.355017678021118
 20
-23.02552230773552
 30
0.0
 10
9.382054380444034
 20
-22.95854374108828
 30
0.0
 10
9.400387747112518
 20
-22.88851069081824
 30
0.0
 10
9.402043800270846
 20
-22.8404320603734
 30
0.0
 10
9.402884615384542
 20
-22.81602146768166
 30
0.0
  0
SPLINE
  5
13C
330
1F
100
AcDbEntity
  8
0
  6
Continuous
 62
     7
370
    15
100
AcDbSpline
210
0.0
220
0.0
230
1.0
 70
     8
 71
     3
 72
    23
 73
    19
 74
     0
 42
0.000000001
 43
0.00000001
 40
0.0
 40
0.0
 40
0.0
 40
0.0
 40
0.0570031325129228
 40
0.1118178691207221
 40
0.1644023722182105
 40
0.2158698048987966
 40
0.2668411100818686
 40
0.3174789632053567
 40
0.369902136272761
 40
0.423400449443636
 40
0.4797183982994504
 40
0.5392414966442965
 40
0.6024306889434223
 40
0.6710295461473356
 40
0.7444847975608487
 40
0.8234539713786837
 40
0.9087403127306659
 40
1.0
 40
1.0
 40
1.0
 40
1.0
 10
9.402884615384544
 20
-22.81602146768167
 30
0.0
 10
9.40244707150552
 20
-22.79986801363142
 30
0.0
 10
9.401588781407373
 20
-22.76818124956754
 30
0.0
 10
9.39455945775313
 20
-22.72198931637912
 30
0.0
 10
9.382612135439738
 20
-22.6785461483675
 30
0.0
 10
9.367266511834702
 20
-22.63725639115145
 30
0.0
 10
9.345821989134256
 20
-22.5994111204623
 30
0.0
 10
9.320573323519437
 20
-22.56370180832799
 30
0.0
 10
9.290067425105901
 20
-22.53134452883979
 30
0.0
 10
9.255344231189
 20
-22.50110155910973
 30
0.0
 10
9.215422775157384
 20
-22.47428869879196
 30
0.0
 10
9.170326873567138
 20
-22.45080515941487
 30
0.0
 10
9.119446406387205
 20
-22.43189512071145
 30
0.0
 10
9.063638871619924
 20
-22.41533389153809
 30
0.0
 10
9.002045235170172
 20
-22.40370195911901
 30
0.0
 10
8.935376276175043
 20
-22.39401161235892
 30
0.0
 10
8.8630859175556
 20
-22.38907825487058
 30
0.0
 10
8.813072400752969
 20
-22.38842518824206
 30
0.0
 10
8.787219551281979
 20
-22.38808760683765
 30
0.0
  0
SPLINE
  5
13E
330
1F
100
AcDbEntity
  8
0
  6
Continuous
 62
     7
370
    15
100
AcDbSpline
210
0.0
220
0.0
230
1.0
 70
     8
 71
     3
 72
    19
 73
    15
 74
     0
 42
0.000000001
 43
0.00000001
 40
0.0
 40
0.0
 40
0.0
 40
0.0
 40
0.0859205174117672
 40
0.1695934351247428
 40
0.2524755148685387
 40
0.3362444769570511
 40
0.4195045210415713
 40
0.5020359066440884
 40
0.5847746476768699
 40
0.6698464747058008
 40
0.7541848663887851
 40
0.8366582383293255
 40
0.9180097257088052
 40
0.9999999999999999
 40
0.9999999999999999
 40
0.9999999999999999
 40
0.9999999999999999
 10
14.10549295539522
 20
-23.0970352564103
 30
0.0
 10
14.06731299705757
 20
-23.09839370397553
 30
0.0
 10
13.9919518320826
 20
-23.10107506339889
 30
0.0
 10
13.88131940893902
 20
-23.12200802338273
 30
0.0
 10
13.77545224258129
 20
-23.15683705810069
 30
0.0
 10
13.67487982249011
 20
-23.20446968663176
 30
0.0
 10
13.58119083521524
 20
-23.26436501106868
 30
0.0
 10
13.49745925298395
 20
-23.33681058991314
 30
0.0
 10
13.42300023286833
 20
-23.41982982132626
 30
0.0
 10
13.36037782505097
 20
-23.51304806431143
 30
0.0
 10
13.30932870350525
 20
-23.61298186980123
 30
0.0
 10
13.27343326087691
 20
-23.71744457219839
 30
0.0
 10
13.24975972597774
 20
-23.82455204460712
 30
0.0
 10
13.2473411526299
 20
-23.89719827795922
 30
0.0
 10
13.24612713675206
 20
-23.93366344484513
 30
0.0
  0
SPLINE
  5
13F
330
1F
100
AcDbEntity
  8
0
  6
Continuous
 62
     7
370
    15
100
AcDbSpline
210
0.0
220
0.0
230
1.0
 70
     8
 71
     3
 72
    19
 73
    15
 74
     0
 42
0.000000001
 43
0.00000001
 40
0.0
 40
0.0
 40
0.0
 40
0.0
 40
0.0815893489321822
 40
0.1628588951679326
 40
0.245483689275579
 40
0.330807139158011
 40
0.4164933737762832
 40
0.4998932031606312
 40
0.5830481559950217
 40
0.6671578520621569
 40
0.7513119292929147
 40
0.8337847893576154
 40
0.9162564885439798
 40
1.0
 40
1.0
 40
1.0
 40
1.0
 10
13.24612713675206
 20
-23.93366344484513
 30
0.0
 10
13.24767788434358
 20
-23.96991069468801
 30
0.0
 10
13.25077330111972
 20
-24.0422631173945
 30
0.0
 10
13.27301777735423
 20
-24.14951660890962
 30
0.0
 10
13.31033752925105
 20
-24.25400392840942
 30
0.0
 10
13.36126322069813
 20
-24.35483821885407
 30
0.0
 10
13.42503180090408
 20
-24.44845725945411
 30
0.0
 10
13.49894694829423
 20
-24.5330590161318
 30
0.0
 10
13.58372346198118
 20
-24.6058107749515
 30
0.0
 10
13.67762806161362
 20
-24.66671130490798
 30
0.0
 10
13.7779193322382
 20
-24.71590775829543
 30
0.0
 10
13.8833877859689
 20
-24.75013894781403
 30
0.0
 10
13.99205080174546
 20
-24.77223963800831
 30
0.0
 10
14.06593574840686
 20
-24.77482115833055
 30
0.0
 10
14.10316089075847
 20
-24.77612179487183
 30
0.0
  0
SPLINE
  5
140
330
1F
100
AcDbEntity
  8
0
  6
Continuous
 62
     7
370
    15
100
AcDbSpline
210
0.0
220
0.0
230
1.0
 70
     8
 71
     3
 72
    19
 73
    15
 74
     0
 42
0.000000001
 43
0.00000001
 40
0.0
 40
0.0
 40
0.0
 40
0.0
 40
0.0848023883688277
 40
0.1686635395998412
 40
0.2525519243727821
 40
0.3382396894642448
 40
0.4231026613931554
 40
0.5055560510576212
 40
0.5861756559890526
 40
0.6671357203303615
 40
0.7484991803055342
 40
0.830452398758279
 40
0.9134557062010137
 40
0.9999999999999999
 40
0.9999999999999999
 40
0.9999999999999999
 40
0.9999999999999999
 10
14.10316089075847
 20
-24.77612179487183
 30
0.0
 10
14.14095182192439
 20
-24.77474145582163
 30
0.0
 10
14.21611423583539
 20
-24.77199609835547
 30
0.0
 10
14.3270748756618
 20
-24.75097352239439
 30
0.0
 10
14.43475610365503
 20
-24.71624077757589
 30
0.0
 10
14.53769107868155
 20
-24.66809489659533
 30
0.0
 10
14.63358193297532
 20
-24.60842523814995
 30
0.0
 10
14.71964534668376
 20
-24.53856934162012
 30
0.0
 10
14.79241904181336
 20
-24.45732449149008
 30
0.0
 10
14.85411372965907
 20
-24.36803585761873
 30
0.0
 10
14.9024893589019
 20
-24.27015272722835
 30
0.0
 10
14.93772707003185
 20
-24.16593137932832
 30
0.0
 10
14.95856058572798
 20
-24.05536818578153
 30
0.0
 10
14.96118638829385
 20
-23.97981050366178
 30
0.0
 10
14.96252670940163
 20
-23.94124265491457
 30
0.0
  0
SPLINE
  5
141
330
1F
100
AcDbEntity
  8
0
  6
Continuous
 62
     7
370
    15
100
AcDbSpline
210
0.0
220
0.0
230
1.0
 70
     8
 71
     3
 72
    23
 73
    19
 74
     0
 42
0.000000001
 43
0.00000001
 40
0.0
 40
0.0
 40
0.0
 40
0.0
 40
0.0656337996756892
 40
0.1291880880571269
 40
0.1912186831121873
 40
0.2519128178811566
 40
0.3125074743865499
 40
0.3734944337751972
 40
0.4351515996540494
 40
0.4987414744066494
 40
0.5620952169966305
 40
0.6241865668116559
 40
0.6854757184651952
 40
0.7460968148060535
 40
0.8076116364477844
 40
0.8699665806571896
 40
0.9339510189149074
 40
1.0
 40
1.0
 40
1.0
 40
1.0
 10
14.96252670940163
 20
-23.94124265491457
 30
0.0
 10
14.96172870943073
 20
-23.91185756609353
 30
0.0
 10
14.96015799295508
 20
-23.85401841216772
 30
0.0
 10
14.94815828722037
 20
-23.76909451809145
 30
0.0
 10
14.92907017281713
 20
-23.68782427091861
 30
0.0
 10
14.90217279215462
 20
-23.61012222531453
 30
0.0
 10
14.86683926576859
 20
-23.53641798929504
 30
0.0
 10
14.82422430806425
 20
-23.46618235059634
 30
0.0
 10
14.77357852635125
 20
-23.39978060279194
 30
0.0
 10
14.71571720108242
 20
-23.33812710865092
 30
0.0
 10
14.65238220825144
 20
-23.28189248497463
 30
0.0
 10
14.58536400988061
 20
-23.23169674433517
 30
0.0
 10
14.51386858755945
 20
-23.19046131843183
 30
0.0
 10
14.43909828959869
 20
-23.15633354683529
 30
0.0
 10
14.36092338826327
 20
-23.12917590849781
 30
0.0
 10
14.2787077597594
 20
-23.11105840362045
 30
0.0
 10
14.19332529265398
 20
-23.09861818428327
 30
0.0
 10
14.1350786620655
 20
-23.09756845456022
 30
0.0
 10
14.10549295539522
 20
-23.0970352564103
 30
0.0
  0
SPLINE
  5
142
330
1F
100
AcDbEntity
  8
0
  6
Continuous
 62
     7
370
    15
100
AcDbSpline
210
0.0
220
0.0
230
1.0
 70
     8
 71
     3
 72
    23
 73
    19
 74
     0
 42
0.000000001
 43
0.00000001
 40
0.0
 40
0.0
 40
0.0
 40
0.0
 40
0.063845899734787
 40
0.1260436278408439
 40
0.1871653577195671
 40
0.2473992895212632
 40
0.3083800306041629
 40
0.3697796166640495
 40
0.4325839246869344
 40
0.4976407859952557
 40
0.5624011369620606
 40
0.6255571033330405
 40
0.6873320046201721
 40
0.7483127457030732
 40
0.8097910391226153
 40
0.8717675719729279
 40
0.9348361909503133
 40
1.0
 40
1.0
 40
1.0
 40
1.0
 10
-0.9141693376069023
 20
-23.0970352564103
 30
0.0
 10
-0.942390077497664
 20
-23.09783736032039
 30
0.0
 10
-0.9981030434196765
 20
-23.0994208619572
 30
0.0
 10
-1.080109924275095
 20
-23.11146491843352
 30
0.0
 10
-1.159057183229539
 20
-23.13054686080474
 30
0.0
 10
-1.235094599450768
 20
-23.15765868615894
 30
0.0
 10
-1.307965755323217
 20
-23.1926659253131
 30
0.0
 10
-1.377740419107236
 20
-23.23566388912339
 30
0.0
 10
-1.444623823006909
 20
-23.2860830797193
 30
0.0
 10
-1.507307598313686
 20
-23.34384459890934
 30
0.0
 10
-1.564835985272474
 20
-23.40694159615441
 30
0.0
 10
-1.615126302715722
 20
-23.47417085648913
 30
0.0
 10
-1.657888727477773
 20
-23.54444190752977
 30
0.0
 10
-1.693512359642233
 20
-23.61782782357889
 30
0.0
 10
-1.720044705933601
 20
-23.69507228918726
 30
0.0
 10
-1.739314177607113
 20
-23.77530052836828
 30
0.0
 10
-1.751346871611086
 20
-23.85867599671676
 30
0.0
 10
-1.752915485234389
 20
-23.91535512920058
 30
0.0
 10
-1.753712606837671
 20
-23.94415773571051
 30
0.0
  0
SPLINE
  5
143
330
1F
100
AcDbEntity
  8
0
  6
Continuous
 62
     7
370
    15
100
AcDbSpline
210
0.0
220
0.0
230
1.0
 70
     8
 71
     3
 72
    19
 73
    15
 74
     0
 42
0.000000001
 43
0.00000001
 40
0.0
 40
0.0
 40
0.0
 40
0.0
 40
0.0847327446980154
 40
0.1681786536463123
 40
0.2514881976122786
 40
0.3358406713894893
 40
0.4198344941507965
 40
0.5023448759880099
 40
0.5836490197324394
 40
0.6659310052762731
 40
0.7487165252643914
 40
0.8310473361373634
 40
0.9144098067945612
 40
1.0
 40
1.0
 40
1.0
 40
1.0
 10
-1.753712606837671
 20
-23.94415773571051
 30
0.0
 10
-1.752376456469324
 20
-23.98137117734286
 30
0.0
 10
-1.749724447841272
 20
-24.05523290026449
 30
0.0
 10
-1.72815806373427
 20
-24.16400857783788
 30
0.0
 10
-1.692080305998748
 20
-24.26843586796279
 30
0.0
 10
-1.643362193050083
 20
-24.36790258897546
 30
0.0
 10
-1.582321426682965
 20
-24.45993185827313
 30
0.0
 10
-1.510403312309855
 20
-24.54198189615542
 30
0.0
 10
-1.428379704329499
 20
-24.6128179548412
 30
0.0
 10
-1.337228364584537
 20
-24.67159244367819
 30
0.0
 10
-1.238811113321037
 20
-24.71829195481273
 30
0.0
 10
-1.134654517732523
 20
-24.75138669831047
 30
0.0
 10
-1.026020559648084
 20
-24.77290024252414
 30
0.0
 10
-0.9517793802340613
 20
-24.77503854590136
 30
0.0
 10
-0.9141693376069023
 20
-24.77612179487183
 30
0.0
  0
SPLINE
  5
144
330
1F
100
AcDbEntity
  8
0
  6
Continuous
 62
     7
370
    15
100
AcDbSpline
210
0.0
220
0.0
230
1.0
 70
     8
 71
     3
 72
    19
 73
    15
 74
     0
 42
0.000000001
 43
0.00000001
 40
0.0
 40
0.0
 40
0.0
 40
0.0
 40
0.0856056949735271
 40
0.1689832639222346
 40
0.2509075823297907
 40
0.3337080961143223
 40
0.4160049842563389
 40
0.4976595675743796
 40
0.579893285641965
 40
0.6639023210428578
 40
0.7484662538082603
 40
0.8317908864798567
 40
0.9152519088316872
 40
1.0
 40
1.0
 40
1.0
 40
1.0
 10
-0.9141693376069023
 20
-24.77612179487183
 30
0.0
 10
-0.8765614582023025
 20
-24.7750322344354
 30
0.0
 10
-0.8023245489295215
 20
-24.77288147239969
 30
0.0
 10
-0.6938415310503652
 20
-24.75149504909065
 30
0.0
 10
-0.5899696151572291
 20
-24.71814694551681
 30
0.0
 10
-0.4916545863708926
 20
-24.67164496504212
 30
0.0
 10
-0.4005447381583276
 20
-24.61259476061753
 30
0.0
 10
-0.3179312128677095
 20
-24.54238189230105
 30
0.0
 10
-0.2466271594425563
 20
-24.45971454090857
 30
0.0
 10
-0.1856467748850089
 20
-24.36778069105007
 30
0.0
 10
-0.1361308227624779
 20
-24.26859007207745
 30
0.0
 10
-0.1002219341299437
 20
-24.16398930433139
 30
0.0
 10
-0.0786037034889262
 20
-24.0552378087623
 30
0.0
 10
-0.075958692934459
 20
-23.98137282183376
 30
0.0
 10
-0.0746260683761333
 20
-23.94415773571051
 30
0.0
  0
SPLINE
  5
145
330
1F
100
AcDbEntity
  8
0
  6
Continuous
 62
     7
370
    15
100
AcDbSpline
210
0.0
220
0.0
230
1.0
 70
     8
 71
     3
 72
    23
 73
    19
 74
     0
 42
0.000000001
 43
0.00000001
 40
0.0
 40
0.0
 40
0.0
 40
0.0
 40
0.0651847959860737
 40
0.1282737271139273
 40
0.1902702203927567
 40
0.2517683137756833
 40
0.3127686945781251
 40
0.3747932794097873
 40
0.4379695860627123
 40
0.503047399863372
 40
0.5681252136640311
 40
0.6309497487122624
 40
0.692369109386703
 40
0.7529731677502617
 40
0.8136410669177477
 40
0.8743552086918146
 40
0.936572968465483
 40
1.0
 40
1.0
 40
1.0
 40
1.0
 10
-0.0746260683761333
 20
-23.94415773571051
 30
0.0
 10
-0.0754229155346291
 20
-23.91535495706602
 30
0.0
 10
-0.0769909890924914
 20
-23.85867548584771
 30
0.0
 10
-0.0890276112585096
 20
-23.7753024812822
 30
0.0
 10
-0.1082825451333857
 20
-23.69506512384681
 30
0.0
 10
-0.1348684673380909
 20
-23.61785426159327
 30
0.0
 10
-0.1703373109966568
 20
-23.5442518993685
 30
0.0
 10
-0.2139243704785193
 20
-23.47437717990496
 30
0.0
 10
-0.2640093362484805
 20
-23.40670870678881
 30
0.0
 10
-0.3222319064238511
 20
-23.3440485662052
 30
0.0
 10
-0.3848502510078229
 20
-23.28606056257857
 30
0.0
 10
-0.4517607619248644
 20
-23.2356443381791
 30
0.0
 10
-0.5214319613776224
 20
-23.19285489716295
 30
0.0
 10
-0.5940914137451867
 20
-23.15735925544883
 30
0.0
 10
-0.6701385786281908
 20
-23.13079352066591
 30
0.0
 10
-0.748975221167258
 20
-23.11135473839809
 30
0.0
 10
-0.8306322077659011
 20
-23.09947175941234
 30
0.0
 10
-0.886145531155656
 20
-23.09785261856623
 30
0.0
 10
-0.9141693376069023
 20
-23.0970352564103
 30
0.0
  0
SPLINE
  5
148
330
1F
100
AcDbEntity
  8
0
  6
Continuous
 62
     7
370
    15
100
AcDbSpline
210
0.0
220
0.0
230
1.0
 70
     8
 71
     3
 72
    23
 73
    19
 74
     0
 42
0.000000001
 43
0.00000001
 40
0.0
 40
0.0
 40
0.0
 40
0.0
 40
0.0725024889330349
 40
0.1397389892678941
 40
0.2017951348259226
 40
0.2598219344148628
 40
0.3122059893845966
 40
0.3607734341243374
 40
0.4045403426007483
 40
0.4436980985527621
 40
0.5168407942439706
 40
0.5878743359442797
 40
0.6579654175616295
 40
0.7289693886473103
 40
0.7993077199548843
 40
0.8666357778344707
 40
0.933116329057274
 40
1.0
 40
1.0
 40
1.0
 40
1.0
 10
8.80471003605762
 20
-24.70149572649577
 30
0.0
 10
8.831335297665047
 20
-24.70117662226168
 30
0.0
 10
8.882651979350994
 20
-24.70056159091865
 30
0.0
 10
8.956743895112254
 20
-24.69855377382254
 30
0.0
 10
9.02541567845164
 20
-24.69398668504183
 30
0.0
 10
9.088353967507597
 20
-24.68679724933929
 30
0.0
 10
9.146238373653478
 20
-24.67899862225984
 30
0.0
 10
9.198374499326903
 20
-24.66851174163629
 30
0.0
 10
9.24518497031837
 20
-24.65649674291364
 30
0.0
 10
9.299463665504033
 20
-24.6379248151682
 30
0.0
 10
9.360585332806703
 20
-24.60907304738758
 30
0.0
 10
9.426452931836884
 20
-24.56557127696718
 30
0.0
 10
9.485015685853064
 20
-24.51374647877752
 30
0.0
 10
9.534746606752863
 20
-24.45376618883671
 30
0.0
 10
9.575503240680664
 20
-24.38854680567076
 30
0.0
 10
9.605152449461471
 20
-24.31940748788273
 30
0.0
 10
9.623438894007077
 20
-24.24749065347586
 30
0.0
 10
9.625652614541577
 20
-24.1984570240577
 30
0.0
 10
9.626762820512749
 20
-24.17386610243059
 30
0.0
  0
SPLINE
  5
149
330
1F
100
AcDbEntity
  8
0
  6
Continuous
 62
     7
370
    15
100
AcDbSpline
210
0.0
220
0.0
230
1.0
 70
     8
 71
     3
 72
    19
 73
    15
 74
     0
 42
0.000000001
 43
0.00000001
 40
0.0
 40
0.0
 40
0.0
 40
0.0
 40
0.0602873979279707
 40
0.1196023547075188
 40
0.1775033710185396
 40
0.2351426637323281
 40
0.2921325932269317
 40
0.350871208641565
 40
0.4100978625665943
 40
0.4707315215304472
 40
0.5948287040804147
 40
0.7225788240942898
 40
0.8566913895440152
 40
1.0
 40
1.0
 40
1.0
 40
1.0
 10
9.626762820512749
 20
-24.17386610243059
 30
0.0
 10
9.626533226608357
 20
-24.15848800915705
 30
0.0
 10
9.626077742169894
 20
-24.12797987263696
 30
0.0
 10
9.619208647498256
 20
-24.08314630156223
 30
0.0
 10
9.609218542675722
 20
-24.03971800095924
 30
0.0
 10
9.596303415810285
 20
-23.99757704652042
 30
0.0
 10
9.5774942518066
 20
-23.95748532821215
 30
0.0
 10
9.555535952170358
 20
-23.91864992602594
 30
0.0
 10
9.529790072350382
 20
-23.88101950295746
 30
0.0
 10
9.489672751090202
 20
-23.8334447898213
 30
0.0
 10
9.43132140443876
 20
-23.77863165468674
 30
0.0
 10
9.348410472716312
 20
-23.72496564833763
 30
0.0
 10
9.254136008273994
 20
-23.68168541827738
 30
0.0
 10
9.185759932336044
 20
-23.66330865134594
 30
0.0
 10
9.150438618456123
 20
-23.65381568843487
 30
0.0
  0
SPLINE
  5
14A
330
1F
100
AcDbEntity
  8
0
  6
Continuous
 62
     7
370
    15
100
AcDbSpline
210
0.0
220
0.0
230
1.0
 70
     8
 71
     3
 72
    15
 73
    11
 74
     0
 42
0.000000001
 43
0.00000001
 40
0.0
 40
0.0
 40
0.0
 40
0.0
 40
0.0793064855229965
 40
0.1719528189279312
 40
0.2770565073915878
 40
0.3947305758644749
 40
0.526177321276757
 40
0.6713447665976113
 40
0.829285257189251
 40
1.0
 40
1.0
 40
1.0
 40
1.0
 10
9.150438618456125
 20
-23.65381568843487
 30
0.0
 10
9.136278114345627
 20
-23.65094262159813
 30
0.0
 10
9.105575220588788
 20
-23.64471322007709
 30
0.0
 10
9.05550975043458
 20
-23.63813758815149
 30
0.0
 10
8.99835260230573
 20
-23.63227928537217
 30
0.0
 10
8.93397179308858
 20
-23.62794595962442
 30
0.0
 10
8.862285868067254
 20
-23.62346679216214
 30
0.0
 10
8.783141727945939
 20
-23.6217248486456
 30
0.0
 10
8.696862579982312
 20
-23.61964659486552
 30
0.0
 10
8.636997494123733
 20
-23.61949597311803
 30
0.0
 10
8.605901525774499
 20
-23.61941773504277
 30
0.0
  0
SPLINE
  5
14C
330
1F
100
AcDbEntity
  8
0
  6
Continuous
 62
     7
370
    15
100
AcDbSpline
210
0.0
220
0.0
230
1.0
 70
     8
 71
     3
 72
    23
 73
    19
 74
     0
 42
0.000000001
 43
0.00000001
 40
0.0
 40
0.0
 40
0.0
 40
0.0
 40
0.0705992894335923
 40
0.1379009210036197
 40
0.2031961978097334
 40
0.266789724650262
 40
0.329106387221423
 40
0.3906535452348603
 40
0.4526530569344818
 40
0.5157480403003739
 40
0.5779263408004532
 40
0.6389300116184456
 40
0.698350717641821
 40
0.7572960374442738
 40
0.8163937673501528
 40
0.8762669096141305
 40
0.936817108906084
 40
1.0
 40
1.0
 40
1.0
 40
1.0
 10
-8.156979083199836
 20
-23.61941773504277
 30
0.0
 10
-8.179150009408199
 20
-23.62006471541455
 30
0.0
 10
-8.222456268836096
 20
-23.62132845602518
 30
0.0
 10
-8.28599267262509
 20
-23.62866707325089
 30
0.0
 10
-8.346124584692046
 20
-23.64248661766539
 30
0.0
 10
-8.40364866547179
 20
-23.66008743061284
 30
0.0
 10
-8.457489463662192
 20
-23.68428801062638
 30
0.0
 10
-8.508038278702706
 20
-23.71368471487658
 30
0.0
 10
-8.555490586730906
 20
-23.74829470646645
 30
0.0
 10
-8.59934936159139
 20
-23.78762766647338
 30
0.0
 10
-8.63911368879408
 20
-23.830691881999
 30
0.0
 10
-8.67335776003459
 20
-23.87681743109416
 30
0.0
 10
-8.702896327254683
 20
-23.92489269403396
 30
0.0
 10
-8.72691293498035
 20
-23.97531935668218
 30
0.0
 10
-8.745614503935558
 20
-24.02807814235274
 30
0.0
 10
-8.759142329212537
 20
-24.08292639913035
 30
0.0
 10
-8.766670954483859
 20
-24.14023192630794
 30
0.0
 10
-8.767923457705932
 20
-24.17909222768478
 30
0.0
 10
-8.768563034188084
 20
-24.19893579727568
 30
0.0
  0
SPLINE
  5
14D
330
1F
100
AcDbEntity
  8
0
  6
Continuous
 62
     7
370
    15
100
AcDbSpline
210
0.0
220
0.0
230
1.0
 70
     8
 71
     3
 72
    23
 73
    19
 74
     0
 42
0.000000001
 43
0.00000001
 40
0.0
 40
0.0
 40
0.0
 40
0.0
 40
0.0618417029839104
 40
0.121262373094447
 40
0.1807459488653155
 40
0.2392309018221037
 40
0.2983075587884658
 40
0.358182797615847
 40
0.4203592307800693
 40
0.4847924155141838
 40
0.5499384837666863
 40
0.6137182775404293
 40
0.6766807072496335
 40
0.7391541704483183
 40
0.8021997032403521
 40
0.8667401776162992
 40
0.9320496524002466
 40
1.0
 40
1.0
 40
1.0
 40
1.0
 10
-8.768563034188084
 20
-24.19893579727568
 30
0.0
 10
-8.76804218479041
 20
-24.21860188173791
 30
0.0
 10
-8.767020876661125
 20
-24.25716414565208
 30
0.0
 10
-8.757747191627534
 20
-24.31399142771067
 30
0.0
 10
-8.743581709480999
 20
-24.3686780807097
 30
0.0
 10
-8.72250996363719
 20
-24.42094217803189
 30
0.0
 10
-8.69737486675248
 20
-24.47158036630047
 30
0.0
 10
-8.66419168943575
 20
-24.51875845785054
 30
0.0
 10
-8.627423326455292
 20
-24.56534181375549
 30
0.0
 10
-8.58347276393946
 20
-24.60775196588832
 30
0.0
 10
-8.53630458651019
 20
-24.64721440872976
 30
0.0
 10
-8.485911800854996
 20
-24.68170721477992
 30
0.0
 10
-8.433391286616741
 20
-24.7112156577783
 30
0.0
 10
-8.37803397909356
 20
-24.73434190978519
 30
0.0
 10
-8.320625275282335
 20
-24.75332139116941
 30
0.0
 10
-8.260686862185736
 20
-24.76667727600489
 30
0.0
 10
-8.198177053151952
 20
-24.77422816577644
 30
0.0
 10
-8.155833036832709
 20
-24.77548230057954
 30
0.0
 10
-8.134241452991501
 20
-24.77612179487183
 30
0.0
  0
SPLINE
  5
14E
330
1F
100
AcDbEntity
  8
0
  6
Continuous
 62
     7
370
    15
100
AcDbSpline
210
0.0
220
0.0
230
1.0
 70
     8
 71
     3
 72
    23
 73
    19
 74
     0
 42
0.000000001
 43
0.00000001
 40
0.0
 40
0.0
 40
0.0
 40
0.0
 40
0.0611379149156212
 40
0.1199938438512128
 40
0.1782253215076181
 40
0.2362564202618971
 40
0.2949293769549112
 40
0.3547157488097554
 40
0.416729663924164
 40
0.4806644084708274
 40
0.5458317702108663
 40
0.6097581054261664
 40
0.6729712284742208
 40
0.7360168691676628
 40
0.7998393981920311
 40
0.8647753566655672
 40
0.9310876232725699
 40
1.0
 40
1.0
 40
1.0
 40
1.0
 10
-7.499919871794922
 20
-24.19893579727568
 30
0.0
 10
-7.500377466624687
 20
-24.17906634035222
 30
0.0
 10
-7.501275576457609
 20
-24.14006905830928
 30
0.0
 10
-7.511433719415056
 20
-24.08295203290704
 30
0.0
 10
-7.525522110059518
 20
-24.02779946559061
 30
0.0
 10
-7.546795618334212
 20
-23.97495798297187
 30
0.0
 10
-7.574433387978467
 20
-23.92463610776045
 30
0.0
 10
-7.608097268705808
 20
-23.87657963961739
 30
0.0
 10
-7.647040781041342
 20
-23.83042014248479
 30
0.0
 10
-7.69202546128642
 20
-23.78754321194906
 30
0.0
 10
-7.740995495113544
 20
-23.74833817154536
 30
0.0
 10
-7.793063336045661
 20
-23.71372952851675
 30
0.0
 10
-7.847536335603245
 20
-23.68452143779744
 30
0.0
 10
-7.904359262742048
 20
-23.66015118668639
 30
0.0
 10
-7.964183195516917
 20
-23.64256439182817
 30
0.0
 10
-8.02604230494706
 20
-23.62871642720528
 30
0.0
 10
-8.090727764455286
 20
-23.62134723746542
 30
0.0
 10
-8.13461402744155
 20
-23.62006909459434
 30
0.0
 10
-8.156979083199836
 20
-23.61941773504277
 30
0.0
  0
SPLINE
  5
14F
330
1F
100
AcDbEntity
  8
0
  6
Continuous
 62
     7
370
    15
100
AcDbSpline
210
0.0
220
0.0
230
1.0
 70
     8
 71
     3
 72
    23
 73
    19
 74
     0
 42
0.000000001
 43
0.00000001
 40
0.0
 40
0.0
 40
0.0
 40
0.0
 40
0.0679623714944553
 40
0.1332834028675219
 40
0.1978352977570563
 40
0.2608919865309871
 40
0.323376504483175
 40
0.386350075469087
 40
0.4496377310517138
 40
0.5147953269783575
 40
0.5792399132410281
 40
0.6418141777582894
 40
0.7013585647860576
 40
0.7607267659857209
 40
0.8192220679243887
 40
0.8787161693846293
 40
0.9381473540533067
 40
1.0
 40
1.0
 40
1.0
 40
1.0
 10
-8.134241452991501
 20
-24.77612179487183
 30
0.0
 10
-8.11264990452303
 20
-24.77548225043902
 30
0.0
 10
-8.070305957574512
 20
-24.7742280173036
 30
0.0
 10
-8.007795645704311
 20
-24.76667784029787
 30
0.0
 10
-7.947859091458563
 20
-24.75331932055898
 30
0.0
 10
-7.890443631632976
 20
-24.73434941576093
 30
0.0
 10
-7.835111263062124
 20
-24.71118781302603
 30
0.0
 10
-7.782636682139629
 20
-24.68189079405238
 30
0.0
 10
-7.732720463876056
 20
-24.64700228423174
 30
0.0
 10
-7.685521322466807
 20
-24.6078194043325
 30
0.0
 10
-7.641753696359809
 20
-24.56510043160783
 30
0.0
 10
-7.604103482916774
 20
-24.51917428742311
 30
0.0
 10
-7.571936532418051
 20
-24.47119906613019
 30
0.0
 10
-7.545797509005064
 20
-24.42114165412773
 30
0.0
 10
-7.524957851879723
 20
-24.36864647899279
 30
0.0
 10
-7.510720536602499
 20
-24.3139998936864
 30
0.0
 10
-7.501466002895943
 20
-24.25716192923825
 30
0.0
 10
-7.50044206323037
 20
-24.21860113316472
 30
0.0
 10
-7.499919871794922
 20
-24.19893579727568
 30
0.0
  0
SPLINE
  5
150
330
1F
100
AcDbEntity
  8
0
  6
Continuous
 62
     7
370
    15
100
AcDbSpline
210
0.0
220
0.0
230
1.0
 70
     8
 71
     3
 72
    19
 73
    15
 74
     0
 42
0.000000001
 43
0.00000001
 40
0.0
 40
0.0
 40
0.0
 40
0.0
 40
0.0859205174117661
 40
0.1695934351247417
 40
0.2524755148685378
 40
0.3362444769570502
 40
0.4195045210415717
 40
0.5020359066440888
 40
0.5847746476768705
 40
0.6698464747058016
 40
0.7541848663887853
 40
0.8366582383293253
 40
0.9180097257088051
 40
1.0
 40
1.0
 40
1.0
 40
1.0
 10
18.06067457932685
 20
-23.0970352564103
 30
0.0
 10
18.02249462098919
 20
-23.09839370397552
 30
0.0
 10
17.94713345601423
 20
-23.10107506339889
 30
0.0
 10
17.83650103287065
 20
-23.12200802338274
 30
0.0
 10
17.73063386651292
 20
-23.15683705810069
 30
0.0
 10
17.63006144642174
 20
-23.20446968663177
 30
0.0
 10
17.53637245914687
 20
-23.26436501106868
 30
0.0
 10
17.45264087691558
 20
-23.33681058991315
 30
0.0
 10
17.37818185679996
 20
-23.41982982132626
 30
0.0
 10
17.31555944898259
 20
-23.51304806431143
 30
0.0
 10
17.26451032743688
 20
-23.61298186980123
 30
0.0
 10
17.22861488480854
 20
-23.71744457219837
 30
0.0
 10
17.20494134990938
 20
-23.82455204460713
 30
0.0
 10
17.20252277656154
 20
-23.89719827795921
 30
0.0
 10
17.20130876068369
 20
-23.93366344484513
 30
0.0
  0
SPLINE
  5
151
330
1F
100
AcDbEntity
  8
0
  6
Continuous
 62
     7
370
    15
100
AcDbSpline
210
0.0
220
0.0
230
1.0
 70
     8
 71
     3
 72
    19
 73
    15
 74
     0
 42
0.000000001
 43
0.00000001
 40
0.0
 40
0.0
 40
0.0
 40
0.0
 40
0.0815893489321822
 40
0.162858895167933
 40
0.2454836892755789
 40
0.3308071391580109
 40
0.4164933737762832
 40
0.4998932031606312
 40
0.5830481559950207
 40
0.6671578520621582
 40
0.7513119292929135
 40
0.8337847893576154
 40
0.9162564885439798
 40
1.0
 40
1.0
 40
1.0
 40
1.0
 10
17.20130876068369
 20
-23.93366344484513
 30
0.0
 10
17.20285950827521
 20
-23.96991069468801
 30
0.0
 10
17.20595492505135
 20
-24.0422631173945
 30
0.0
 10
17.22819940128587
 20
-24.14951660890963
 30
0.0
 10
17.26551915318268
 20
-24.25400392840942
 30
0.0
 10
17.31644484462976
 20
-24.35483821885407
 30
0.0
 10
17.38021342483571
 20
-24.44845725945411
 30
0.0
 10
17.45412857222587
 20
-24.5330590161318
 30
0.0
 10
17.53890508591281
 20
-24.6058107749515
 30
0.0
 10
17.63280968554525
 20
-24.66671130490797
 30
0.0
 10
17.73310095616982
 20
-24.71590775829544
 30
0.0
 10
17.83856940990053
 20
-24.75013894781402
 30
0.0
 10
17.94723242567709
 20
-24.7722396380083
 30
0.0
 10
18.02111737233849
 20
-24.77482115833054
 30
0.0
 10
18.0583425146901
 20
-24.77612179487183
 30
0.0
  0
SPLINE
  5
152
330
1F
100
AcDbEntity
  8
0
  6
Continuous
 62
     7
370
    15
100
AcDbSpline
210
0.0
220
0.0
230
1.0
 70
     8
 71
     3
 72
    19
 73
    15
 74
     0
 42
0.000000001
 43
0.00000001
 40
0.0
 40
0.0
 40
0.0
 40
0.0
 40
0.0848023883688277
 40
0.1686635395998425
 40
0.2525519243727821
 40
0.3382396894642437
 40
0.4231026613931553
 40
0.5055560510576222
 40
0.5861756559890529
 40
0.6671357203303616
 40
0.7484991803055344
 40
0.8304523987582793
 40
0.9134557062010138
 40
0.9999999999999999
 40
0.9999999999999999
 40
0.9999999999999999
 40
0.9999999999999999
 10
18.0583425146901
 20
-24.77612179487183
 30
0.0
 10
18.09613344585603
 20
-24.77474145582162
 30
0.0
 10
18.17129585976702
 20
-24.77199609835548
 30
0.0
 10
18.28225649959343
 20
-24.75097352239437
 30
0.0
 10
18.38993772758666
 20
-24.7162407775759
 30
0.0
 10
18.49287270261318
 20
-24.66809489659532
 30
0.0
 10
18.58876355690695
 20
-24.60842523814996
 30
0.0
 10
18.67482697061539
 20
-24.53856934162011
 30
0.0
 10
18.747600665745
 20
-24.45732449149009
 30
0.0
 10
18.8092953535907
 20
-24.36803585761873
 30
0.0
 10
18.85767098283354
 20
-24.27015272722835
 30
0.0
 10
18.89290869396348
 20
-24.16593137932832
 30
0.0
 10
18.91374220965962
 20
-24.05536818578154
 30
0.0
 10
18.91636801222548
 20
-23.97981050366178
 30
0.0
 10
18.91770833333326
 20
-23.94124265491457
 30
0.0
  0
SPLINE
  5
153
330
1F
100
AcDbEntity
  8
0
  6
Continuous
 62
     7
370
    15
100
AcDbSpline
210
0.0
220
0.0
230
1.0
 70
     8
 71
     3
 72
    23
 73
    19
 74
     0
 42
0.000000001
 43
0.00000001
 40
0.0
 40
0.0
 40
0.0
 40
0.0
 40
0.065633799675689
 40
0.1291880880571266
 40
0.1912186831121873
 40
0.2519128178811569
 40
0.3125074743865496
 40
0.3734944337751974
 40
0.4351515996540487
 40
0.4987414744066486
 40
0.5620952169966296
 40
0.6241865668116549
 40
0.6854757184651952
 40
0.7460968148060523
 40
0.8076116364477832
 40
0.8699665806571881
 40
0.9339510189149061
 40
1.0
 40
1.0
 40
1.0
 40
1.0
 10
18.91770833333326
 20
-23.94124265491457
 30
0.0
 10
18.91691033336237
 20
-23.91185756609353
 30
0.0
 10
18.91533961688672
 20
-23.85401841216773
 30
0.0
 10
18.90333991115201
 20
-23.76909451809146
 30
0.0
 10
18.88425179674876
 20
-23.68782427091861
 30
0.0
 10
18.85735441608624
 20
-23.61012222531452
 30
0.0
 10
18.82202088970023
 20
-23.53641798929504
 30
0.0
 10
18.77940593199587
 20
-23.46618235059633
 30
0.0
 10
18.72876015028289
 20
-23.39978060279195
 30
0.0
 10
18.67089882501404
 20
-23.33812710865091
 30
0.0
 10
18.60756383218307
 20
-23.28189248497464
 30
0.0
 10
18.54054563381224
 20
-23.23169674433516
 30
0.0
 10
18.46905021149108
 20
-23.19046131843184
 30
0.0
 10
18.39427991353031
 20
-23.15633354683529
 30
0.0
 10
18.3161050121949
 20
-23.12917590849782
 30
0.0
 10
18.23388938369103
 20
-23.11105840362045
 30
0.0
 10
18.14850691658561
 20
-23.09861818428326
 30
0.0
 10
18.09026028599712
 20
-23.09756845456021
 30
0.0
 10
18.06067457932685
 20
-23.0970352564103
 30
0.0
  0
SPLINE
  5
154
330
1F
100
AcDbEntity
  8
0
  6
Continuous
 62
     7
370
    15
100
AcDbSpline
210
0.0
220
0.0
230
1.0
 70
     8
 71
     3
 72
    23
 73
    19
 74
     0
 42
0.000000001
 43
0.00000001
 40
0.0
 40
0.0
 40
0.0
 40
0.0
 40
0.063845899734787
 40
0.1260436278408437
 40
0.1871653577195679
 40
0.2473992895212632
 40
0.3083800306041637
 40
0.3697796166640494
 40
0.4325839246869344
 40
0.4976407859952557
 40
0.5624011369620606
 40
0.6255571033330408
 40
0.6873320046201725
 40
0.7483127457030736
 40
0.8097910391226156
 40
0.8717675719729281
 40
0.9348361909503136
 40
1.0
 40
1.0
 40
1.0
 40
1.0
 10
11.43644497863237
 20
-23.0970352564103
 30
0.0
 10
11.40822423874161
 20
-23.09783736032039
 30
0.0
 10
11.3525112728196
 20
-23.0994208619572
 30
0.0
 10
11.27050439196417
 20
-23.11146491843352
 30
0.0
 10
11.19155713300974
 20
-23.13054686080475
 30
0.0
 10
11.11551971678851
 20
-23.15765868615894
 30
0.0
 10
11.04264856091605
 20
-23.1926659253131
 30
0.0
 10
10.97287389713204
 20
-23.23566388912338
 30
0.0
 10
10.90599049323236
 20
-23.28608307971931
 30
0.0
 10
10.84330671792559
 20
-23.34384459890932
 30
0.0
 10
10.7857783309668
 20
-23.40694159615441
 30
0.0
 10
10.73548801352355
 20
-23.47417085648913
 30
0.0
 10
10.6927255887615
 20
-23.54444190752977
 30
0.0
 10
10.65710195659704
 20
-23.6178278235789
 30
0.0
 10
10.63056961030567
 20
-23.69507228918725
 30
0.0
 10
10.61130013863216
 20
-23.77530052836828
 30
0.0
 10
10.59926744462819
 20
-23.85867599671676
 30
0.0
 10
10.59769883100489
 20
-23.91535512920058
 30
0.0
 10
10.5969017094016
 20
-23.94415773571051
 30
0.0
  0
SPLINE
  5
155
330
1F
100
AcDbEntity
  8
0
  6
Continuous
 62
     7
370
    15
100
AcDbSpline
210
0.0
220
0.0
230
1.0
 70
     8
 71
     3
 72
    19
 73
    15
 74
     0
 42
0.000000001
 43
0.00000001
 40
0.0
 40
0.0
 40
0.0
 40
0.0
 40
0.0847327446980154
 40
0.1681786536463122
 40
0.2514881976122786
 40
0.335840671389489
 40
0.4198344941507966
 40
0.50234487598801
 40
0.5836490197324399
 40
0.665931005276273
 40
0.7487165252643908
 40
0.8310473361373631
 40
0.9144098067945616
 40
1.0
 40
1.0
 40
1.0
 40
1.0
 10
10.5969017094016
 20
-23.94415773571051
 30
0.0
 10
10.59823785976995
 20
-23.98137117734286
 30
0.0
 10
10.600889868398
 20
-24.0552329002645
 30
0.0
 10
10.622456252505
 20
-24.16400857783787
 30
0.0
 10
10.65853401024053
 20
-24.2684358679628
 30
0.0
 10
10.70725212318919
 20
-24.36790258897546
 30
0.0
 10
10.76829288955631
 20
-24.45993185827312
 30
0.0
 10
10.84021100392942
 20
-24.54198189615542
 30
0.0
 10
10.92223461190978
 20
-24.6128179548412
 30
0.0
 10
11.01338595165473
 20
-24.67159244367819
 30
0.0
 10
11.11180320291824
 20
-24.71829195481273
 30
0.0
 10
11.21595979850675
 20
-24.75138669831047
 30
0.0
 10
11.32459375659119
 20
-24.77290024252414
 30
0.0
 10
11.39883493600522
 20
-24.77503854590136
 30
0.0
 10
11.43644497863237
 20
-24.77612179487183
 30
0.0
  0
SPLINE
  5
156
330
1F
100
AcDbEntity
  8
0
  6
Continuous
 62
     7
370
    15
100
AcDbSpline
210
0.0
220
0.0
230
1.0
 70
     8
 71
     3
 72
    19
 73
    15
 74
     0
 42
0.000000001
 43
0.00000001
 40
0.0
 40
0.0
 40
0.0
 40
0.0
 40
0.0856056949735268
 40
0.1689832639222337
 40
0.2509075823297908
 40
0.3337080961143222
 40
0.4160049842563383
 40
0.4976595675743788
 40
0.5798932856419646
 40
0.6639023210428577
 40
0.7484662538082603
 40
0.8317908864798564
 40
0.9152519088316869
 40
1.0
 40
1.0
 40
1.0
 40
1.0
 10
11.43644497863237
 20
-24.77612179487183
 30
0.0
 10
11.47405285803697
 20
-24.77503223443539
 30
0.0
 10
11.54828976730975
 20
-24.77288147239968
 30
0.0
 10
11.65677278518891
 20
-24.75149504909066
 30
0.0
 10
11.76064470108204
 20
-24.7181469455168
 30
0.0
 10
11.85895972986838
 20
-24.67164496504213
 30
0.0
 10
11.95006957808094
 20
-24.61259476061752
 30
0.0
 10
12.03268310337156
 20
-24.54238189230105
 30
0.0
 10
12.10398715679672
 20
-24.45971454090857
 30
0.0
 10
12.16496754135427
 20
-24.36778069105007
 30
0.0
 10
12.21448349347679
 20
-24.26859007207746
 30
0.0
 10
12.25039238210933
 20
-24.1639893043314
 30
0.0
 10
12.27201061275034
 20
-24.0552378087623
 30
0.0
 10
12.27465562330482
 20
-23.98137282183376
 30
0.0
 10
12.27598824786314
 20
-23.94415773571051
 30
0.0
  0
SPLINE
  5
157
330
1F
100
AcDbEntity
  8
0
  6
Continuous
 62
     7
370
    15
100
AcDbSpline
210
0.0
220
0.0
230
1.0
 70
     8
 71
     3
 72
    23
 73
    19
 74
     0
 42
0.000000001
 43
0.00000001
 40
0.0
 40
0.0
 40
0.0
 40
0.0
 40
0.0651847959860737
 40
0.1282737271139273
 40
0.190270220392757
 40
0.2517683137756835
 40
0.3127686945781253
 40
0.3747932794097873
 40
0.4379695860627127
 40
0.5030473998633719
 40
0.5681252136640311
 40
0.6309497487122624
 40
0.6923691093867033
 40
0.7529731677502622
 40
0.8136410669177481
 40
0.8743552086918153
 40
0.9365729684654835
 40
1.0
 40
1.0
 40
1.0
 40
1.0
 10
12.27598824786314
 20
-23.94415773571051
 30
0.0
 10
12.27519140070465
 20
-23.91535495706603
 30
0.0
 10
12.27362332714678
 20
-23.85867548584771
 30
0.0
 10
12.26158670498077
 20
-23.7753024812822
 30
0.0
 10
12.24233177110589
 20
-23.69506512384681
 30
0.0
 10
12.21574584890118
 20
-23.61785426159327
 30
0.0
 10
12.18027700524262
 20
-23.5442518993685
 30
0.0
 10
12.13668994576076
 20
-23.47437717990496
 30
0.0
 10
12.08660497999079
 20
-23.40670870678879
 30
0.0
 10
12.02838240981542
 20
-23.3440485662052
 30
0.0
 10
11.96576406523145
 20
-23.28606056257857
 30
0.0
 10
11.89885355431441
 20
-23.23564433817911
 30
0.0
 10
11.82918235486165
 20
-23.19285489716295
 30
0.0
 10
11.75652290249409
 20
-23.15735925544884
 30
0.0
 10
11.68047573761108
 20
-23.13079352066591
 30
0.0
 10
11.60163909507202
 20
-23.1113547383981
 30
0.0
 10
11.51998210847337
 20
-23.09947175941234
 30
0.0
 10
11.46446878508362
 20
-23.09785261856623
 30
0.0
 10
11.43644497863237
 20
-23.0970352564103
 30
0.0
  0
LINE
  5
158
330
1F
100
AcDbEntity
  8
0
  6
Continuous
 62
     7
370
    15
100
AcDbLine
 10
-18.7684561966
 20
-24.0199498364
 30
0.0
 11
-18.7684561966
 21
-25.0
 31
0.0
  0
LINE
  5
159
330
1F
100
AcDbEntity
  8
0
  6
Continuous
 62
     7
370
    15
100
AcDbLine
 10
-17.6881272536
 20
-25.0
 30
0.0
 11
-18.7684561966
 21
-24.0199498364
 31
0.0
  0
LINE
  5
15A
330
1F
100
AcDbEntity
  8
0
  6
Continuous
 62
     7
370
    15
100
AcDbLine
 10
-17.3132478632
 20
-25.0
 30
0.0
 11
-17.6881272536
 21
-25.0
 31
0.0
  0
LINE
  5
15B
330
1F
100
AcDbEntity
  8
0
  6
Continuous
 62
     7
370
    15
100
AcDbLine
 10
-18.5480760884
 20
-23.8806089744
 30
0.0
 11
-17.3132478632
 21
-25.0
 31
0.0
  0
LINE
  5
15C
330
1F
100
AcDbEntity
  8
0
  6
Continuous
 62
     7
370
    15
100
AcDbLine
 10
-17.4251869658
 20
-22.8731570513
 30
0.0
 11
-18.5480760884
 21
-23.8806089744
 31
0.0
  0
LINE
  5
15D
330
1F
100
AcDbEntity
  8
0
  6
Continuous
 62
     7
370
    15
100
AcDbLine
 10
-17.8006493723
 20
-22.8731570513
 30
0.0
 11
-17.4251869658
 21
-22.8731570513
 31
0.0
  0
LINE
  5
15E
330
1F
100
AcDbEntity
  8
0
  6
Continuous
 62
     7
370
    15
100
AcDbLine
 10
-18.7684561966
 20
-23.7406850962
 30
0.0
 11
-17.8006493723
 21
-22.8731570513
 31
0.0
  0
LINE
  5
15F
330
1F
100
AcDbEntity
  8
0
  6
Continuous
 62
     7
370
    15
100
AcDbLine
 10
-18.7684561966
 20
-22.014957265
 30
0.0
 11
-18.7684561966
 21
-23.7406850962
 31
0.0
  0
LINE
  5
160
330
1F
100
AcDbEntity
  8
0
  6
Continuous
 62
     7
370
    15
100
AcDbLine
 10
-19.0296474359
 20
-22.014957265
 30
0.0
 11
-18.7684561966
 21
-22.014957265
 31
0.0
  0
LINE
  5
161
330
1F
100
AcDbEntity
  8
0
  6
Continuous
 62
     7
370
    15
100
AcDbLine
 10
-19.0296474359
 20
-25.0
 30
0.0
 11
-19.0296474359
 21
-22.014957265
 31
0.0
  0
LINE
  5
162
330
1F
100
AcDbEntity
  8
0
  6
Continuous
 62
     7
370
    15
100
AcDbLine
 10
-18.7684561966
 20
-25.0
 30
0.0
 11
-19.0296474359
 21
-25.0
 31
0.0
  0
LINE
  5
163
330
1F
100
AcDbEntity
  8
0
  6
Continuous
 62
     7
370
    15
100
AcDbLine
 10
-15.5968482906
 20
-22.0895833333
 30
0.0
 11
-15.5968482906
 21
-25.0
 31
0.0
  0
LINE
  5
164
330
1F
100
AcDbEntity
  8
0
  6
Continuous
 62
     7
370
    15
100
AcDbLine
 10
-15.8580395299
 20
-22.0895833333
 30
0.0
 11
-15.5968482906
 21
-22.0895833333
 31
0.0
  0
LINE
  5
165
330
1F
100
AcDbEntity
  8
0
  6
Continuous
 62
     7
370
    15
100
AcDbLine
 10
-15.8580395299
 20
-25.0
 30
0.0
 11
-15.8580395299
 21
-22.0895833333
 31
0.0
  0
LINE
  5
166
330
1F
100
AcDbEntity
  8
0
  6
Continuous
 62
     7
370
    15
100
AcDbLine
 10
-15.5968482906
 20
-25.0
 30
0.0
 11
-15.8580395299
 21
-25.0
 31
0.0
  0
LINE
  5
167
330
1F
100
AcDbEntity
  8
0
  6
Continuous
 62
     7
370
    15
100
AcDbLine
 10
-14.5893963675
 20
-22.0895833333
 30
0.0
 11
-14.5893963675
 21
-25.0
 31
0.0
  0
LINE
  5
168
330
1F
100
AcDbEntity
  8
0
  6
Continuous
 62
     7
370
    15
100
AcDbLine
 10
-14.8505876068
 20
-22.0895833333
 30
0.0
 11
-14.5893963675
 21
-22.0895833333
 31
0.0
  0
LINE
  5
169
330
1F
100
AcDbEntity
  8
0
  6
Continuous
 62
     7
370
    15
100
AcDbLine
 10
-14.8505876068
 20
-25.0
 30
0.0
 11
-14.8505876068
 21
-22.0895833333
 31
0.0
  0
LINE
  5
16A
330
1F
100
AcDbEntity
  8
0
  6
Continuous
 62
     7
370
    15
100
AcDbLine
 10
-14.5893963675
 20
-25.0
 30
0.0
 11
-14.8505876068
 21
-25.0
 31
0.0
  0
LINE
  5
16B
330
1F
100
AcDbEntity
  8
0
  6
Continuous
 62
     7
370
    15
100
AcDbLine
 10
-13.5819444444
 20
-22.0895833333
 30
0.0
 11
-13.5819444444
 21
-25.0
 31
0.0
  0
LINE
  5
16C
330
1F
100
AcDbEntity
  8
0
  6
Continuous
 62
     7
370
    15
100
AcDbLine
 10
-13.8431356838
 20
-22.0895833333
 30
0.0
 11
-13.5819444444
 21
-22.0895833333
 31
0.0
  0
LINE
  5
16D
330
1F
100
AcDbEntity
  8
0
  6
Continuous
 62
     7
370
    15
100
AcDbLine
 10
-13.8431356838
 20
-25.0
 30
0.0
 11
-13.8431356838
 21
-22.0895833333
 31
0.0
  0
LINE
  5
16E
330
1F
100
AcDbEntity
  8
0
  6
Continuous
 62
     7
370
    15
100
AcDbLine
 10
-13.5819444444
 20
-25.0
 30
0.0
 11
-13.8431356838
 21
-25.0
 31
0.0
  0
LINE
  5
16F
330
1F
100
AcDbEntity
  8
0
  6
Continuous
 62
     7
370
    15
100
AcDbLine
 10
-9.4401976496
 20
-22.0895833333
 30
0.0
 11
-10.6715277778
 21
-25.0
 31
0.0
  0
LINE
  5
170
330
1F
100
AcDbEntity
  8
0
  6
Continuous
 62
     7
370
    15
100
AcDbLine
 10
-9.720045406
 20
-22.0895833333
 30
0.0
 11
-9.4401976496
 21
-22.0895833333
 31
0.0
  0
LINE
  5
171
330
1F
100
AcDbEntity
  8
0
  6
Continuous
 62
     7
370
    15
100
AcDbLine
 10
-10.6901842949
 20
-24.3831689036
 30
0.0
 11
-9.720045406
 21
-22.0895833333
 31
0.0
  0
LINE
  5
172
330
1F
100
AcDbEntity
  8
0
  6
Continuous
 62
     7
370
    15
100
AcDbLine
 10
-11.6603231838
 20
-22.0895833333
 30
0.0
 11
-10.6901842949
 21
-24.3831689036
 31
0.0
  0
LINE
  5
173
330
1F
100
AcDbEntity
  8
0
  6
Continuous
 62
     7
370
    15
100
AcDbLine
 10
-11.9401709402
 20
-22.0895833333
 30
0.0
 11
-11.6603231838
 21
-22.0895833333
 31
0.0
  0
LINE
  5
174
330
1F
100
AcDbEntity
  8
0
  6
Continuous
 62
     7
370
    15
100
AcDbLine
 10
-10.708840812
 20
-25.0
 30
0.0
 11
-11.9401709402
 21
-22.0895833333
 31
0.0
  0
LINE
  5
175
330
1F
100
AcDbEntity
  8
0
  6
Continuous
 62
     7
370
    15
100
AcDbLine
 10
-10.6715277778
 20
-25.0
 30
0.0
 11
-10.708840812
 21
-25.0
 31
0.0
  0
LINE
  5
176
330
1F
100
AcDbEntity
  8
0
  6
Continuous
 62
     7
370
    15
100
AcDbLine
 10
-7.6345966046
 20
-22.1729546441
 30
0.0
 11
-8.4035949185
 21
-23.3488982372
 31
0.0
  0
LINE
  5
177
330
1F
100
AcDbEntity
  8
0
  6
Continuous
 62
     7
370
    15
100
AcDbLine
 10
-7.8357371795
 20
-22.014957265
 30
0.0
 11
-7.6345966046
 21
-22.1729546441
 31
0.0
  0
LINE
  5
178
330
1F
100
AcDbEntity
  8
0
  6
Continuous
 62
     7
370
    15
100
AcDbLine
 10
-8.7044312567
 20
-23.3430680756
 30
0.0
 11
-7.8357371795
 21
-22.014957265
 31
0.0
  0
LINE
  5
179
330
1F
100
AcDbEntity
  8
0
  6
Continuous
 62
     7
370
    15
100
AcDbLine
 10
2.574599359
 20
-22.8731570513
 30
0.0
 11
2.574599359
 21
-23.90859375
 31
0.0
  0
LINE
  5
17A
330
1F
100
AcDbEntity
  8
0
  6
Continuous
 62
     7
370
    15
100
AcDbLine
 10
2.3134081197
 20
-22.8731570513
 30
0.0
 11
2.574599359
 21
-22.8731570513
 31
0.0
  0
LINE
  5
17B
330
1F
100
AcDbEntity
  8
0
  6
Continuous
 62
     7
370
    15
100
AcDbLine
 10
2.3134081197
 20
-23.8596203926
 30
0.0
 11
2.3134081197
 21
-22.8731570513
 31
0.0
  0
LINE
  5
17C
330
1F
100
AcDbEntity
  8
0
  6
Continuous
 62
     7
370
    15
100
AcDbLine
 10
0.9328258547
 20
-22.8731570513
 30
0.0
 11
0.9328258547
 21
-23.8596203926
 31
0.0
  0
LINE
  5
17D
330
1F
100
AcDbEntity
  8
0
  6
Continuous
 62
     7
370
    15
100
AcDbLine
 10
0.6716346154
 20
-22.8731570513
 30
0.0
 11
0.9328258547
 21
-22.8731570513
 31
0.0
  0
LINE
  5
17E
330
1F
100
AcDbEntity
  8
0
  6
Continuous
 62
     7
370
    15
100
AcDbLine
 10
0.6716346154
 20
-23.8893542167
 30
0.0
 11
0.6716346154
 21
-22.8731570513
 31
0.0
  0
LINE
  5
17F
330
1F
100
AcDbEntity
  8
0
  6
Continuous
 62
     7
370
    15
100
AcDbLine
 10
3.4327991453
 20
-24.231001686
 30
0.0
 11
3.4327991453
 21
-25.0
 31
0.0
  0
LINE
  5
180
330
1F
100
AcDbEntity
  8
0
  6
Continuous
 62
     7
370
    15
100
AcDbLine
 10
4.7760683761
 20
-25.0
 30
0.0
 11
4.7760683761
 21
-23.9995442708
 31
0.0
  0
LINE
  5
181
330
1F
100
AcDbEntity
  8
0
  6
Continuous
 62
     7
370
    15
100
AcDbLine
 10
5.0372596154
 20
-25.0
 30
0.0
 11
4.7760683761
 21
-25.0
 31
0.0
  0
LINE
  5
182
330
1F
100
AcDbEntity
  8
0
  6
Continuous
 62
     7
370
    15
100
AcDbLine
 10
5.0372596154
 20
-23.9138408954
 30
0.0
 11
5.0372596154
 21
-25.0
 31
0.0
  0
LINE
  5
183
330
1F
100
AcDbEntity
  8
0
  6
Continuous
 62
     7
370
    15
100
AcDbLine
 10
3.4327991453
 20
-22.8731570513
 30
0.0
 11
3.4327991453
 21
-23.256781684
 31
0.0
  0
LINE
  5
184
330
1F
100
AcDbEntity
  8
0
  6
Continuous
 62
     7
370
    15
100
AcDbLine
 10
3.171607906
 20
-22.8731570513
 30
0.0
 11
3.4327991453
 21
-22.8731570513
 31
0.0
  0
LINE
  5
185
330
1F
100
AcDbEntity
  8
0
  6
Continuous
 62
     7
370
    15
100
AcDbLine
 10
3.171607906
 20
-25.0
 30
0.0
 11
3.171607906
 21
-22.8731570513
 31
0.0
  0
LINE
  5
186
330
1F
100
AcDbEntity
  8
0
  6
Continuous
 62
     7
370
    15
100
AcDbLine
 10
3.4327991453
 20
-25.0
 30
0.0
 11
3.171607906
 21
-25.0
 31
0.0
  0
LINE
  5
187
330
1F
100
AcDbEntity
  8
0
  6
Continuous
 62
     7
370
    15
100
AcDbLine
 10
5.5223290598
 20
-23.1343482906
 30
0.0
 11
5.5223290598
 21
-22.8731570513
 31
0.0
  0
LINE
  5
188
330
1F
100
AcDbEntity
  8
0
  6
Continuous
 62
     7
370
    15
100
AcDbLine
 10
5.8954594017
 20
-23.1343482906
 30
0.0
 11
5.5223290598
 21
-23.1343482906
 31
0.0
  0
LINE
  5
189
330
1F
100
AcDbEntity
  8
0
  6
Continuous
 62
     7
370
    15
100
AcDbLine
 10
5.8954594017
 20
-25.0
 30
0.0
 11
5.8954594017
 21
-23.1343482906
 31
0.0
  0
LINE
  5
18A
330
1F
100
AcDbEntity
  8
0
  6
Continuous
 62
     7
370
    15
100
AcDbLine
 10
6.156650641
 20
-25.0
 30
0.0
 11
5.8954594017
 21
-25.0
 31
0.0
  0
LINE
  5
18B
330
1F
100
AcDbEntity
  8
0
  6
Continuous
 62
     7
370
    15
100
AcDbLine
 10
6.156650641
 20
-23.1343482906
 30
0.0
 11
6.156650641
 21
-25.0
 31
0.0
  0
LINE
  5
18C
330
1F
100
AcDbEntity
  8
0
  6
Continuous
 62
     7
370
    15
100
AcDbLine
 10
6.5297809829
 20
-23.1343482906
 30
0.0
 11
6.156650641
 21
-23.1343482906
 31
0.0
  0
LINE
  5
18D
330
1F
100
AcDbEntity
  8
0
  6
Continuous
 62
     7
370
    15
100
AcDbLine
 10
6.5297809829
 20
-22.8731570513
 30
0.0
 11
6.5297809829
 21
-23.1343482906
 31
0.0
  0
LINE
  5
18E
330
1F
100
AcDbEntity
  8
0
  6
Continuous
 62
     7
370
    15
100
AcDbLine
 10
6.156650641
 20
-22.8731570513
 30
0.0
 11
6.5297809829
 21
-22.8731570513
 31
0.0
  0
LINE
  5
18F
330
1F
100
AcDbEntity
  8
0
  6
Continuous
 62
     7
370
    15
100
AcDbLine
 10
6.156650641
 20
-22.014957265
 30
0.0
 11
6.156650641
 21
-22.8731570513
 31
0.0
  0
LINE
  5
190
330
1F
100
AcDbEntity
  8
0
  6
Continuous
 62
     7
370
    15
100
AcDbLine
 10
5.8954594017
 20
-22.014957265
 30
0.0
 11
6.156650641
 21
-22.014957265
 31
0.0
  0
LINE
  5
191
330
1F
100
AcDbEntity
  8
0
  6
Continuous
 62
     7
370
    15
100
AcDbLine
 10
5.8954594017
 20
-22.8731570513
 30
0.0
 11
5.8954594017
 21
-22.014957265
 31
0.0
  0
LINE
  5
192
330
1F
100
AcDbEntity
  8
0
  6
Continuous
 62
     7
370
    15
100
AcDbLine
 10
5.5223290598
 20
-22.8731570513
 30
0.0
 11
5.8954594017
 21
-22.8731570513
 31
0.0
  0
LINE
  5
193
330
1F
100
AcDbEntity
  8
0
  6
Continuous
 62
     7
370
    15
100
AcDbLine
 10
8.1715544872
 20
-22.0895833333
 30
0.0
 11
8.7394122262
 21
-22.0895833333
 31
0.0
  0
LINE
  5
194
330
1F
100
AcDbEntity
  8
0
  6
Continuous
 62
     7
370
    15
100
AcDbLine
 10
8.1715544872
 20
-25.0
 30
0.0
 11
8.1715544872
 21
-22.0895833333
 31
0.0
  0
LINE
  5
195
330
1F
100
AcDbEntity
  8
0
  6
Continuous
 62
     7
370
    15
100
AcDbLine
 10
8.9586263021
 20
-25.0
 30
0.0
 11
8.1715544872
 21
-25.0
 31
0.0
  0
LINE
  5
196
330
1F
100
AcDbEntity
  8
0
  6
Continuous
 62
     7
370
    15
100
AcDbLine
 10
14.9625267094
 20
-25.0
 30
0.0
 11
14.9625267094
 21
-24.6321168036
 31
0.0
  0
LINE
  5
197
330
1F
100
AcDbEntity
  8
0
  6
Continuous
 62
     7
370
    15
100
AcDbLine
 10
15.2237179487
 20
-25.0
 30
0.0
 11
14.9625267094
 21
-25.0
 31
0.0
  0
LINE
  5
198
330
1F
100
AcDbEntity
  8
0
  6
Continuous
 62
     7
370
    15
100
AcDbLine
 10
15.2237179487
 20
-22.8731570513
 30
0.0
 11
15.2237179487
 21
-25.0
 31
0.0
  0
LINE
  5
199
330
1F
100
AcDbEntity
  8
0
  6
Continuous
 62
     7
370
    15
100
AcDbLine
 10
14.9625267094
 20
-22.8731570513
 30
0.0
 11
15.2237179487
 21
-22.8731570513
 31
0.0
  0
LINE
  5
19A
330
1F
100
AcDbEntity
  8
0
  6
Continuous
 62
     7
370
    15
100
AcDbLine
 10
14.9625267094
 20
-23.2666929587
 30
0.0
 11
14.9625267094
 21
-22.8731570513
 31
0.0
  0
LINE
  5
19B
330
1F
100
AcDbEntity
  8
0
  6
Continuous
 62
     7
370
    15
100
AcDbLine
 10
21.9400641026
 20
-25.0
 30
0.0
 11
21.6788728632
 21
-25.0
 31
0.0
  0
LINE
  5
19C
330
1F
100
AcDbEntity
  8
0
  6
Continuous
 62
     7
370
    15
100
AcDbLine
 10
21.9400641026
 20
-23.6165026542
 30
0.0
 11
21.9400641026
 21
-25.0
 31
0.0
  0
LINE
  5
19D
330
1F
100
AcDbEntity
  8
0
  6
Continuous
 62
     7
370
    15
100
AcDbLine
 10
22.8728899573
 20
-22.0895833333
 30
0.0
 11
21.9400641026
 21
-23.6165026542
 31
0.0
  0
LINE
  5
19E
330
1F
100
AcDbEntity
  8
0
  6
Continuous
 62
     7
370
    15
100
AcDbLine
 10
22.5738026676
 20
-22.0895833333
 30
0.0
 11
22.8728899573
 21
-22.0895833333
 31
0.0
  0
LINE
  5
19F
330
1F
100
AcDbEntity
  8
0
  6
Continuous
 62
     7
370
    15
100
AcDbLine
 10
21.8100514991
 20
-23.3401529948
 30
0.0
 11
22.5738026676
 21
-22.0895833333
 31
0.0
  0
LINE
  5
1A0
330
1F
100
AcDbEntity
  8
0
  6
Continuous
 62
     7
370
    15
100
AcDbLine
 10
21.0451342982
 20
-22.0895833333
 30
0.0
 11
21.8100514991
 21
-23.3401529948
 31
0.0
  0
LINE
  5
1A1
330
1F
100
AcDbEntity
  8
0
  6
Continuous
 62
     7
370
    15
100
AcDbLine
 10
20.7460470085
 20
-22.0895833333
 30
0.0
 11
21.0451342982
 21
-22.0895833333
 31
0.0
  0
LINE
  5
1A2
330
1F
100
AcDbEntity
  8
0
  6
Continuous
 62
     7
370
    15
100
AcDbLine
 10
21.6788728632
 20
-23.6165026542
 30
0.0
 11
20.7460470085
 21
-22.0895833333
 31
0.0
  0
LINE
  5
1A3
330
1F
100
AcDbEntity
  8
0
  6
Continuous
 62
     7
370
    15
100
AcDbLine
 10
21.6788728632
 20
-25.0
 30
0.0
 11
21.6788728632
 21
-23.6165026542
 31
0.0
  0
LINE
  5
1A4
330
1F
100
AcDbEntity
  8
0
  6
Continuous
 62
     7
370
    15
100
AcDbLine
 10
-21.2025486612
 20
-25.0
 30
0.0
 11
-22.2572248932
 21
-22.9011418269
 31
0.0
  0
LINE
  5
1A5
330
1F
100
AcDbEntity
  8
0
  6
Continuous
 62
     7
370
    15
100
AcDbLine
 10
-21.1436640291
 20
-25.0
 30
0.0
 11
-21.2025486612
 21
-25.0
 31
0.0
  0
LINE
  5
1A6
330
1F
100
AcDbEntity
  8
0
  6
Continuous
 62
     7
370
    15
100
AcDbLine
 10
-20.0930689103
 20
-22.9058059562
 30
0.0
 11
-21.1436640291
 21
-25.0
 31
0.0
  0
LINE
  5
1A7
330
1F
100
AcDbEntity
  8
0
  6
Continuous
 62
     7
370
    15
100
AcDbLine
 10
-19.8143871862
 20
-25.0
 30
0.0
 11
-20.0930689103
 21
-22.9058059562
 31
0.0
  0
LINE
  5
1A8
330
1F
100
AcDbEntity
  8
0
  6
Continuous
 62
     7
370
    15
100
AcDbLine
 10
-19.5520299145
 20
-25.0
 30
0.0
 11
-19.8143871862
 21
-25.0
 31
0.0
  0
LINE
  5
1A9
330
1F
100
AcDbEntity
  8
0
  6
Continuous
 62
     7
370
    15
100
AcDbLine
 10
-19.9385696281
 20
-22.0895833333
 30
0.0
 11
-19.5520299145
 21
-25.0
 31
0.0
  0
LINE
  5
1AA
330
1F
100
AcDbEntity
  8
0
  6
Continuous
 62
     7
370
    15
100
AcDbLine
 10
-19.9764656784
 20
-22.0895833333
 30
0.0
 11
-19.9385696281
 21
-22.0895833333
 31
0.0
  0
LINE
  5
1AB
330
1F
100
AcDbEntity
  8
0
  6
Continuous
 62
     7
370
    15
100
AcDbLine
 10
-21.1751469017
 20
-24.4776175214
 30
0.0
 11
-19.9764656784
 21
-22.0895833333
 31
0.0
  0
LINE
  5
1AC
330
1F
100
AcDbEntity
  8
0
  6
Continuous
 62
     7
370
    15
100
AcDbLine
 10
-22.3767432058
 20
-22.0895833333
 30
0.0
 11
-21.1751469017
 21
-24.4776175214
 31
0.0
  0
LINE
  5
1AD
330
1F
100
AcDbEntity
  8
0
  6
Continuous
 62
     7
370
    15
100
AcDbLine
 10
-22.41405624
 20
-22.0895833333
 30
0.0
 11
-22.3767432058
 21
-22.0895833333
 31
0.0
  0
LINE
  5
1AE
330
1F
100
AcDbEntity
  8
0
  6
Continuous
 62
     7
370
    15
100
AcDbLine
 10
-22.7982638889
 20
-25.0
 30
0.0
 11
-22.41405624
 21
-22.0895833333
 31
0.0
  0
LINE
  5
1AF
330
1F
100
AcDbEntity
  8
0
  6
Continuous
 62
     7
370
    15
100
AcDbLine
 10
-22.5353236011
 20
-25.0
 30
0.0
 11
-22.7982638889
 21
-25.0
 31
0.0
  0
LINE
  5
1B0
330
1F
100
AcDbEntity
  8
0
  6
Continuous
 62
     7
370
    15
100
AcDbLine
 10
-22.2572248932
 20
-22.9011418269
 30
0.0
 11
-22.5353236011
 21
-25.0
 31
0.0
  0
LINE
  5
1B1
330
1F
100
AcDbEntity
  8
0
  6
Continuous
 62
     7
370
    15
100
AcDbLine
 10
-120.0
 20
-30.0
 30
0.0
 11
164.4
 21
-30.0
 31
0.0
  0
LINE
  5
1B2
330
1F
100
AcDbEntity
  8
0
  6
Continuous
 62
     7
370
    15
100
AcDbLine
 10
-120.0
 20
-30.0
 30
0.0
 11
-120.0
 21
0.0
 31
0.0
  0
LINE
  5
1B3
330
1F
100
AcDbEntity
  8
0
  6
Continuous
 62
     7
370
    15
100
AcDbLine
 10
-120.0
 20
0.0
 30
0.0
 11
-123.4
 21
0.0
 31
0.0
  0
LINE
  5
1B4
330
1F
100
AcDbEntity
  8
0
  6
Continuous
 62
     7
370
    15
100
AcDbLine
 10
-123.4
 20
-30.0
 30
0.0
 11
-123.4
 21
0.0
 31
0.0
  0
LINE
  5
1B5
330
1F
100
AcDbEntity
  8
0
  6
Continuous
 62
     7
370
    15
100
AcDbLine
 10
-164.4
 20
-30.0
 30
0.0
 11
-123.4
 21
-30.0
 31
0.0
  0
LINE
  5
1B6
330
1F
100
AcDbEntity
  8
0
  6
Continuous
 62
     7
370
    15
100
AcDbLine
 10
-169.4
 20
25.0
 30
0.0
 11
-169.4
 21
-25.0
 31
0.0
  0
LINE
  5
1B7
330
1F
100
AcDbEntity
  8
0
  6
Continuous
 62
     7
370
    15
100
AcDbLine
 10
-164.4
 20
30.0
 30
0.0
 11
-159.4
 21
30.0
 31
0.0
  0
LINE
  5
1B8
330
1F
100
AcDbEntity
  8
0
  6
Continuous
 62
     7
370
    15
100
AcDbLine
 10
-159.4
 20
30.0
 30
0.0
 11
-159.4
 21
0.0
 31
0.0
  0
LINE
  5
1B9
330
1F
100
AcDbEntity
  8
0
  6
Continuous
 62
     7
370
    15
100
AcDbLine
 10
-156.0
 20
0.0
 30
0.0
 11
-159.4
 21
0.0
 31
0.0
  0
LINE
  5
1BA
330
1F
100
AcDbEntity
  8
0
  6
Continuous
 62
     7
370
    15
100
AcDbLine
 10
-156.0
 20
30.0
 30
0.0
 11
-156.0
 21
0.0
 31
0.0
  0
LINE
  5
1BB
330
1F
100
AcDbEntity
  8
0
  6
Continuous
 62
     7
370
    15
100
AcDbLine
 10
-156.0
 20
30.0
 30
0.0
 11
-3.0
 21
30.0
 31
0.0
  0
LINE
  5
1BC
330
1F
100
AcDbEntity
  8
0
  6
Continuous
 62
     7
370
    15
100
AcDbLine
 10
-3.0
 20
30.0
 30
0.0
 11
-3.0
 21
28.0
 31
0.0
  0
LINE
  5
1BD
330
1F
100
AcDbEntity
  8
0
  6
Continuous
 62
     7
370
    15
100
AcDbLine
 10
3.0
 20
30.0
 30
0.0
 11
3.0
 21
28.0
 31
0.0
  0
LINE
  5
1BE
330
1F
100
AcDbEntity
  8
0
  6
Continuous
 62
     7
370
    15
100
AcDbLine
 10
3.0
 20
30.0
 30
0.0
 11
156.0
 21
30.0
 31
0.0
  0
LINE
  5
1BF
330
1F
100
AcDbEntity
  8
0
  6
Continuous
 62
     7
370
    15
100
AcDbLine
 10
156.0
 20
30.0
 30
0.0
 11
156.0
 21
0.0
 31
0.0
  0
LINE
  5
1C0
330
1F
100
AcDbEntity
  8
0
  6
Continuous
 62
     7
370
    15
100
AcDbLine
 10
156.0
 20
0.0
 30
0.0
 11
159.4
 21
0.0
 31
0.0
  0
LINE
  5
1C1
330
1F
100
AcDbEntity
  8
0
  6
Continuous
 62
     7
370
    15
100
AcDbLine
 10
159.4
 20
30.0
 30
0.0
 11
159.4
 21
0.0
 31
0.0
  0
LINE
  5
1C2
330
1F
100
AcDbEntity
  8
0
  6
Continuous
 62
     7
370
    15
100
AcDbLine
 10
159.4
 20
30.0
 30
0.0
 11
164.4
 21
30.0
 31
0.0
  0
LINE
  5
1C3
330
1F
100
AcDbEntity
  8
0
  6
Continuous
 62
     7
370
    15
100
AcDbLine
 10
169.4
 20
25.0
 30
0.0
 11
169.4
 21
-25.0
 31
0.0
  0
LINE
  5
1C4
330
1F
100
AcDbEntity
  8
0
  6
Continuous
 62
     7
370
    15
100
AcDbLine
 10
18.9177083333
 20
-25.0
 30
0.0
 11
18.9177083333
 21
-24.6321168036
 31
0.0
  0
LINE
  5
1C5
330
1F
100
AcDbEntity
  8
0
  6
Continuous
 62
     7
370
    15
100
AcDbLine
 10
19.1788995726
 20
-25.0
 30
0.0
 11
18.9177083333
 21
-25.0
 31
0.0
  0
LINE
  5
1C6
330
1F
100
AcDbEntity
  8
0
  6
Continuous
 62
     7
370
    15
100
AcDbLine
 10
19.1788995726
 20
-22.014957265
 30
0.0
 11
19.1788995726
 21
-25.0
 31
0.0
  0
LINE
  5
1C7
330
1F
100
AcDbEntity
  8
0
  6
Continuous
 62
     7
370
    15
100
AcDbLine
 10
18.9177083333
 20
-22.014957265
 30
0.0
 11
19.1788995726
 21
-22.014957265
 31
0.0
  0
LINE
  5
1C8
330
1F
100
AcDbEntity
  8
0
  6
Continuous
 62
     7
370
    15
100
AcDbLine
 10
18.9177083333
 20
-23.2847664597
 30
0.0
 11
18.9177083333
 21
-22.014957265
 31
0.0
  0
LINE
  5
1C9
330
1F
100
AcDbEntity
  8
0
  6
Continuous
 62
     7
370
    15
100
AcDbLine
 10
16.0072916667
 20
-24.2852221888
 30
0.0
 11
16.0072916667
 21
-25.0
 31
0.0
  0
LINE
  5
1CA
330
1F
100
AcDbEntity
  8
0
  6
Continuous
 62
     7
370
    15
100
AcDbLine
 10
16.7535523504
 20
-22.908721037
 30
0.0
 11
16.6101303753
 21
-23.1349313068
 31
0.0
  0
LINE
  5
1CB
330
1F
100
AcDbEntity
  8
0
  6
Continuous
 62
     7
370
    15
100
AcDbLine
 10
16.0072916667
 20
-22.8731570513
 30
0.0
 11
16.0072916667
 21
-23.1862367288
 31
0.0
  0
LINE
  5
1CC
330
1F
100
AcDbEntity
  8
0
  6
Continuous
 62
     7
370
    15
100
AcDbLine
 10
15.7461004274
 20
-22.8731570513
 30
0.0
 11
16.0072916667
 21
-22.8731570513
 31
0.0
  0
LINE
  5
1CD
330
1F
100
AcDbEntity
  8
0
  6
Continuous
 62
     7
370
    15
100
AcDbLine
 10
15.7461004274
 20
-25.0
 30
0.0
 11
15.7461004274
 21
-22.8731570513
 31
0.0
  0
LINE
  5
1CE
330
1F
100
AcDbEntity
  8
0
  6
Continuous
 62
     7
370
    15
100
AcDbLine
 10
16.0072916667
 20
-25.0
 30
0.0
 11
15.7461004274
 21
-25.0
 31
0.0
  0
LINE
  5
1CF
330
1F
100
AcDbEntity
  8
0
  6
Continuous
 62
     7
370
    15
100
AcDbLine
 10
-4.1131790031
 20
-25.0
 30
0.0
 11
-5.167855235
 21
-22.9011418269
 31
0.0
  0
LINE
  5
1D0
330
1F
100
AcDbEntity
  8
0
  6
Continuous
 62
     7
370
    15
100
AcDbLine
 10
-4.054294371
 20
-25.0
 30
0.0
 11
-4.1131790031
 21
-25.0
 31
0.0
  0
LINE
  5
1D1
330
1F
100
AcDbEntity
  8
0
  6
Continuous
 62
     7
370
    15
100
AcDbLine
 10
-3.0036992521
 20
-22.9058059562
 30
0.0
 11
-4.054294371
 21
-25.0
 31
0.0
  0
LINE
  5
1D2
330
1F
100
AcDbEntity
  8
0
  6
Continuous
 62
     7
370
    15
100
AcDbLine
 10
-2.725017528
 20
-25.0
 30
0.0
 11
-3.0036992521
 21
-22.9058059562
 31
0.0
  0
LINE
  5
1D3
330
1F
100
AcDbEntity
  8
0
  6
Continuous
 62
     7
370
    15
100
AcDbLine
 10
-2.4626602564
 20
-25.0
 30
0.0
 11
-2.725017528
 21
-25.0
 31
0.0
  0
LINE
  5
1D4
330
1F
100
AcDbEntity
  8
0
  6
Continuous
 62
     7
370
    15
100
AcDbLine
 10
-2.84919997
 20
-22.0895833333
 30
0.0
 11
-2.4626602564
 21
-25.0
 31
0.0
  0
LINE
  5
1D5
330
1F
100
AcDbEntity
  8
0
  6
Continuous
 62
     7
370
    15
100
AcDbLine
 10
-2.8870960203
 20
-22.0895833333
 30
0.0
 11
-2.84919997
 21
-22.0895833333
 31
0.0
  0
LINE
  5
1D6
330
1F
100
AcDbEntity
  8
0
  6
Continuous
 62
     7
370
    15
100
AcDbLine
 10
-4.0857772436
 20
-24.4776175214
 30
0.0
 11
-2.8870960203
 21
-22.0895833333
 31
0.0
  0
LINE
  5
1D7
330
1F
100
AcDbEntity
  8
0
  6
Continuous
 62
     7
370
    15
100
AcDbLine
 10
-5.2873735477
 20
-22.0895833333
 30
0.0
 11
-4.0857772436
 21
-24.4776175214
 31
0.0
  0
LINE
  5
1D8
330
1F
100
AcDbEntity
  8
0
  6
Continuous
 62
     7
370
    15
100
AcDbLine
 10
-5.3246865819
 20
-22.0895833333
 30
0.0
 11
-5.2873735477
 21
-22.0895833333
 31
0.0
  0
LINE
  5
1D9
330
1F
100
AcDbEntity
  8
0
  6
Continuous
 62
     7
370
    15
100
AcDbLine
 10
-5.7088942308
 20
-25.0
 30
0.0
 11
-5.3246865819
 21
-22.0895833333
 31
0.0
  0
LINE
  5
1DA
330
1F
100
AcDbEntity
  8
0
  6
Continuous
 62
     7
370
    15
100
AcDbLine
 10
-5.445953943
 20
-25.0
 30
0.0
 11
-5.7088942308
 21
-25.0
 31
0.0
  0
LINE
  5
1DB
330
1F
100
AcDbEntity
  8
0
  6
Continuous
 62
     7
370
    15
100
AcDbLine
 10
-5.167855235
 20
-22.9011418269
 30
0.0
 11
-5.445953943
 21
-25.0
 31
0.0
  0
LINE
  5
1DC
330
1F
100
AcDbEntity
  8
0
  6
Continuous
 62
     7
370
    15
100
AcDbLine
 10
-96.0
 20
-25.0
 30
0.0
 11
-81.0
 21
-25.0
 31
0.0
  0
LINE
  5
1DD
330
1F
100
AcDbEntity
  8
0
  6
Continuous
 62
     7
370
    15
100
AcDbLine
 10
-81.0
 20
-25.0
 30
0.0
 11
-81.0
 21
-21.6
 31
0.0
  0
LINE
  5
1DE
330
1F
100
AcDbEntity
  8
0
  6
Continuous
 62
     7
370
    15
100
AcDbLine
 10
-81.0
 20
-21.6
 30
0.0
 11
-96.0
 21
-21.6
 31
0.0
  0
LINE
  5
1DF
330
1F
100
AcDbEntity
  8
0
  6
Continuous
 62
     7
370
    15
100
AcDbLine
 10
-96.0
 20
-21.6
 30
0.0
 11
-96.0
 21
-25.0
 31
0.0
  0
LINE
  5
1E0
330
1F
100
AcDbEntity
  8
0
  6
Continuous
 62
     7
370
    15
100
AcDbLine
 10
8.4327457265
 20
-22.3880876068
 30
0.0
 11
8.4327457265
 21
-23.3209134615
 31
0.0
  0
LINE
  5
1E1
330
1F
100
AcDbEntity
  8
0
  6
Continuous
 62
     7
370
    15
100
AcDbLine
 10
8.4327457265
 20
-23.3209134615
 30
0.0
 11
8.6082335904
 21
-23.3209134615
 31
0.0
  0
LINE
  5
1E2
330
1F
100
AcDbEntity
  8
0
  6
Continuous
 62
     7
370
    15
100
AcDbLine
 10
8.7872195513
 20
-22.3880876068
 30
0.0
 11
8.4327457265
 21
-22.3880876068
 31
0.0
  0
LINE
  5
1E3
330
1F
100
AcDbEntity
  8
0
  6
Continuous
 62
     7
370
    15
100
AcDbLine
 10
8.4327457265
 20
-23.619417735
 30
0.0
 11
8.4327457265
 21
-24.7014957265
 31
0.0
  0
LINE
  5
1E4
330
1F
100
AcDbEntity
  8
0
  6
Continuous
 62
     7
370
    15
100
AcDbLine
 10
8.4327457265
 20
-24.7014957265
 30
0.0
 11
8.8047100361
 21
-24.7014957265
 31
0.0
  0
LINE
  5
1E5
330
1F
100
AcDbEntity
  8
0
  6
Continuous
 62
     7
370
    15
100
AcDbLine
 10
8.6059015258
 20
-23.619417735
 30
0.0
 11
8.4327457265
 21
-23.619417735
 31
0.0
  0
ARC
  5
1E6
330
1F
100
AcDbEntity
  8
0
  6
Continuous
 62
     7
370
    15
100
AcDbCircle
 10
164.4
 20
-25.0
 30
0.0
 40
5.000000000000085
100
AcDbArc
 50
270.0
 51
0.0
  0
ARC
  5
1E7
330
1F
100
AcDbEntity
  8
0
  6
Continuous
 62
     7
370
    15
100
AcDbCircle
 10
-164.4
 20
-25.0
 30
0.0
 40
5.000000000000057
100
AcDbArc
 50
180.0
 51
270.0
  0
ARC
  5
1E8
330
1F
100
AcDbEntity
  8
0
  6
Continuous
 62
     7
370
    15
100
AcDbCircle
 10
-164.4
 20
25.0
 30
0.0
 40
5.000000000000085
100
AcDbArc
 50
90.0
 51
180.0
  0
ARC
  5
1E9
330
1F
100
AcDbEntity
  8
0
  6
Continuous
 62
     7
370
    15
100
AcDbCircle
 10
0.0
 20
28.0
 30
0.0
 40
3.0
100
AcDbArc
 50
180.0
 51
0.0
  0
ARC
  5
1EA
330
1F
100
AcDbEntity
  8
0
  6
Continuous
 62
     7
370
    15
100
AcDbCircle
 10
164.4
 20
25.0
 30
0.0
 40
5.000000000000057
100
AcDbArc
 50
0.0
 51
90.0
  0
MTEXT
  5
1EC
330
1F
100
AcDbEntity
  8
0
  6
Continuous
 62
     7
100
AcDbMText
 10
-169.4
 20
-31.0195663917
 30
0.0
 40
4.83362
 41
0.0
 71
     1
 72
     1
  1
SOLIDWORKS Educational Product.
  7
SLDTEXTSTYLE0
 73
     1
 44
1.0
  0
MTEXT
  5
1ED
330
1F
100
AcDbEntity
  8
0
  6
Continuous
 62
     7
100
AcDbMText
 10
-169.4
 20
-38.2699963917
 30
0.0
 40
4.83362
 41
0.0
 71
     1
 72
     1
  1
For Instructional Use Only.
  7
SLDTEXTSTYLE0
 73
     1
 44
1.0
  0
ENDSEC
  0
SECTION
  2
OBJECTS
  0
DICTIONARY
  5
C
330
0
100
AcDbDictionary
281
     1
  3
ACAD_GROUP
350
D
  3
ACAD_LAYOUT
350
1A
  3
ACAD_MLINESTYLE
350
17
  3
ACAD_PLOTSETTINGS
350
19
  3
ACAD_PLOTSTYLENAME
350
E
  3
ACAD_SCALELIST
350
47
  0
DICTIONARY
  5
D
102
{ACAD_REACTORS
330
C
102
}
330
C
100
AcDbDictionary
281
     1
  0
DICTIONARY
  5
1A
102
{ACAD_REACTORS
330
C
102
}
330
C
100
AcDbDictionary
281
     1
  3
Layout1
350
1E
  3
Layout2
350
26
  3
Model
350
22
  0
DICTIONARY
  5
17
102
{ACAD_REACTORS
330
C
102
}
330
C
100
AcDbDictionary
281
     1
  3
Standard
350
18
  0
DICTIONARY
  5
19
102
{ACAD_REACTORS
330
C
102
}
330
C
100
AcDbDictionary
281
     1
  0
ACDBDICTIONARYWDFLT
  5
E
102
{ACAD_REACTORS
330
C
102
}
330
C
100
AcDbDictionary
281
     1
  3
Normal
350
F
100
AcDbDictionaryWithDefault
340
F
  0
DICTIONARY
  5
47
102
{ACAD_REACTORS
330
C
102
}
330
C
100
AcDbDictionary
281
     1
  3
A0
350
48
  3
A1
350
49
  3
A2
350
4A
  3
A3
350
4B
  3
A4
350
4C
  3
A5
350
4D
  3
A6
350
4E
  3
A7
350
4F
  3
A8
350
50
  3
A9
350
51
  3
B0
350
52
  3
B1
350
53
  3
B2
350
54
  3
B3
350
55
  3
B4
350
56
  3
B5
350
57
  3
B6
350
58
  3
B7
350
59
  3
B8
350
5A
  3
B9
350
5B
  3
C0
350
5C
  3
C1
350
5D
  3
C2
350
5E
  3
C3
350
5F
  3
C4
350
60
  3
C5
350
61
  3
C6
350
62
  3
C7
350
63
  3
C8
350
64
  3
C9
350
65
  3
D0
350
66
  3
D1
350
67
  3
D2
350
68
  0
LAYOUT
  5
1E
102
{ACAD_REACTORS
330
1A
102
}
330
1A
100
AcDbPlotSettings
  1

  2
none_device
  4

  6

 40
0.0
 41
0.0
 42
0.0
 43
0.0
 44
0.0
 45
0.0
 46
0.0
 47
0.0
 48
0.0
 49
0.0
140
0.0
141
0.0
142
1.0
143
1.0
 70
   688
 72
     1
 73
     0
 74
     5
  7

 75
    16
147
1.0
148
0.0
149
0.0
100
AcDbLayout
  1
Layout1
 70
     1
 71
     1
 10
0.0
 20
0.0
 11
420.0
 21
297.0
 12
0.0
 22
0.0
 32
0.0
 14
1.0000000000E+20
 24
1.0000000000E+20
 34
1.0000000000E+20
 15
-1.0000000000E+20
 25
-1.0000000000E+20
 35
-1.0000000000E+20
146
0.0
 13
0.0
 23
0.0
 33
0.0
 16
1.0
 26
0.0
 36
0.0
 17
0.0
 27
1.0
 37
0.0
 76
     0
330
1B
  0
LAYOUT
  5
26
102
{ACAD_REACTORS
330
1A
102
}
330
1A
100
AcDbPlotSettings
  1

  2
none_device
  4

  6

 40
0.0
 41
0.0
 42
0.0
 43
0.0
 44
0.0
 45
0.0
 46
0.0
 47
0.0
 48
0.0
 49
0.0
140
0.0
141
0.0
142
1.0
143
1.0
 70
   688
 72
     1
 73
     0
 74
     5
  7

 75
    16
147
1.0
148
0.0
149
0.0
100
AcDbLayout
  1
Layout2
 70
     1
 71
     2
 10
0.0
 20
0.0
 11
0.0
 21
0.0
 12
0.0
 22
0.0
 32
0.0
 14
0.0
 24
0.0
 34
0.0
 15
0.0
 25
0.0
 35
0.0
146
0.0
 13
0.0
 23
0.0
 33
0.0
 16
1.0
 26
0.0
 36
0.0
 17
0.0
 27
1.0
 37
0.0
 76
     0
330
23
  0
LAYOUT
  5
22
102
{ACAD_REACTORS
330
1A
102
}
330
1A
100
AcDbPlotSettings
  1

  2
none_device
  4
ANSI_A_(11.00_x_8.50_Inches)
  6

 40
6.35
 41
19.05
 42
6.35000508
 43
19.05000254
 44
279.4
 45
215.9
 46
133.34999746
 47
88.89999873
 48
0.0
 49
0.0
140
0.0
141
0.0
142
0.0321428571
143
1.0
 70
  1696
 72
     0
 73
     0
 74
     0
  7

 75
     0
147
0.0179189148
148
-1300.4909072572
149
0.0
100
AcDbLayout
  1
Model
 70
     1
 71
     0
 10
0.0
 20
0.0
 11
420.0
 21
297.0
 12
0.0
 22
0.0
 32
0.0
 14
-169.4
 24
-30.0
 34
0.0
 15
169.4
 25
30.0
 35
0.0
146
0.0
 13
0.0
 23
0.0
 33
0.0
 16
1.0
 26
0.0
 36
0.0
 17
0.0
 27
1.0
 37
0.0
 76
     0
330
1F
331
29
  0
MLINESTYLE
  5
18
102
{ACAD_REACTORS
330
17
102
}
330
17
100
AcDbMlineStyle
  2
Standard
 70
     0
  3

 62
   256
 51
90.0
 52
90.0
 71
     2
 49
0.5
 62
   256
  6
BYLAYER
 49
-0.5
 62
   256
  6
BYLAYER
  0
ACDBPLACEHOLDER
  5
F
102
{ACAD_REACTORS
330
E
102
}
330
E
  0
SCALE
  5
48
102
{ACAD_REACTORS
330
47
102
}
330
47
100
AcDbScale
 70
     0
300
1:1
140
1.0
141
1.0
290
     1
  0
SCALE
  5
49
102
{ACAD_REACTORS
330
47
102
}
330
47
100
AcDbScale
 70
     0
300
1:2
140
1.0
141
2.0
290
     0
  0
SCALE
  5
4A
102
{ACAD_REACTORS
330
47
102
}
330
47
100
AcDbScale
 70
     0
300
1:4
140
1.0
141
4.0
290
     0
  0
SCALE
  5
4B
102
{ACAD_REACTORS
330
47
102
}
330
47
100
AcDbScale
 70
     0
300
1:5
140
1.0
141
5.0
290
     0
  0
SCALE
  5
4C
102
{ACAD_REACTORS
330
47
102
}
330
47
100
AcDbScale
 70
     0
300
1:8
140
1.0
141
8.0
290
     0
  0
SCALE
  5
4D
102
{ACAD_REACTORS
330
47
102
}
330
47
100
AcDbScale
 70
     0
300
1:10
140
1.0
141
10.0
290
     0
  0
SCALE
  5
4E
102
{ACAD_REACTORS
330
47
102
}
330
47
100
AcDbScale
 70
     0
300
1:16
140
1.0
141
16.0
290
     0
  0
SCALE
  5
4F
102
{ACAD_REACTORS
330
47
102
}
330
47
100
AcDbScale
 70
     0
300
1:20
140
1.0
141
20.0
290
     0
  0
SCALE
  5
50
102
{ACAD_REACTORS
330
47
102
}
330
47
100
AcDbScale
 70
     0
300
1:30
140
1.0
141
30.0
290
     0
  0
SCALE
  5
51
102
{ACAD_REACTORS
330
47
102
}
330
47
100
AcDbScale
 70
     0
300
1:40
140
1.0
141
40.0
290
     0
  0
SCALE
  5
52
102
{ACAD_REACTORS
330
47
102
}
330
47
100
AcDbScale
 70
     0
300
1:50
140
1.0
141
50.0
290
     0
  0
SCALE
  5
53
102
{ACAD_REACTORS
330
47
102
}
330
47
100
AcDbScale
 70
     0
300
1:100
140
1.0
141
100.0
290
     0
  0
SCALE
  5
54
102
{ACAD_REACTORS
330
47
102
}
330
47
100
AcDbScale
 70
     0
300
2:1
140
2.0
141
1.0
290
     0
  0
SCALE
  5
55
102
{ACAD_REACTORS
330
47
102
}
330
47
100
AcDbScale
 70
     0
300
4:1
140
4.0
141
1.0
290
     0
  0
SCALE
  5
56
102
{ACAD_REACTORS
330
47
102
}
330
47
100
AcDbScale
 70
     0
300
8:1
140
8.0
141
1.0
290
     0
  0
SCALE
  5
57
102
{ACAD_REACTORS
330
47
102
}
330
47
100
AcDbScale
 70
     0
300
10:1
140
10.0
141
1.0
290
     0
  0
SCALE
  5
58
102
{ACAD_REACTORS
330
47
102
}
330
47
100
AcDbScale
 70
     0
300
100:1
140
100.0
141
1.0
290
     0
  0
SCALE
  5
59
102
{ACAD_REACTORS
330
47
102
}
330
47
100
AcDbScale
 70
     0
300
1/128" = 1'-0"
140
0.0078125
141
12.0
290
     0
  0
SCALE
  5
5A
102
{ACAD_REACTORS
330
47
102
}
330
47
100
AcDbScale
 70
     0
300
1/64" = 1'-0"
140
0.015625
141
12.0
290
     0
  0
SCALE
  5
5B
102
{ACAD_REACTORS
330
47
102
}
330
47
100
AcDbScale
 70
     0
300
1/32" = 1'-0"
140
0.03125
141
12.0
290
     0
  0
SCALE
  5
5C
102
{ACAD_REACTORS
330
47
102
}
330
47
100
AcDbScale
 70
     0
300
1/16" = 1'-0"
140
0.0625
141
12.0
290
     0
  0
SCALE
  5
5D
102
{ACAD_REACTORS
330
47
102
}
330
47
100
AcDbScale
 70
     0
300
3/32" = 1'-0"
140
0.09375
141
12.0
290
     0
  0
SCALE
  5
5E
102
{ACAD_REACTORS
330
47
102
}
330
47
100
AcDbScale
 70
     0
300
1/8" = 1'-0"
140
0.125
141
12.0
290
     0
  0
SCALE
  5
5F
102
{ACAD_REACTORS
330
47
102
}
330
47
100
AcDbScale
 70
     0
300
3/16" = 1'-0"
140
0.1875
141
12.0
290
     0
  0
SCALE
  5
60
102
{ACAD_REACTORS
330
47
102
}
330
47
100
AcDbScale
 70
     0
300
1/4" = 1'-0"
140
0.25
141
12.0
290
     0
  0
SCALE
  5
61
102
{ACAD_REACTORS
330
47
102
}
330
47
100
AcDbScale
 70
     0
300
3/8" = 1'-0"
140
0.375
141
12.0
290
     0
  0
SCALE
  5
62
102
{ACAD_REACTORS
330
47
102
}
330
47
100
AcDbScale
 70
     0
300
1/2" = 1'-0"
140
0.5
141
12.0
290
     0
  0
SCALE
  5
63
102
{ACAD_REACTORS
330
47
102
}
330
47
100
AcDbScale
 70
     0
300
3/4" = 1'-0"
140
0.75
141
12.0
290
     0
  0
SCALE
  5
64
102
{ACAD_REACTORS
330
47
102
}
330
47
100
AcDbScale
 70
     0
300
1" = 1'-0"
140
1.0
141
12.0
290
     0
  0
SCALE
  5
65
102
{ACAD_REACTORS
330
47
102
}
330
47
100
AcDbScale
 70
     0
300
1-1/2" = 1'-0"
140
1.5
141
12.0
290
     0
  0
SCALE
  5
66
102
{ACAD_REACTORS
330
47
102
}
330
47
100
AcDbScale
 70
     0
300
3" = 1'-0"
140
3.0
141
12.0
290
     0
  0
SCALE
  5
67
102
{ACAD_REACTORS
330
47
102
}
330
47
100
AcDbScale
 70
     0
300
6" = 1'-0"
140
6.0
141
12.0
290
     0
  0
SCALE
  5
68
102
{ACAD_REACTORS
330
47
102
}
330
47
100
AcDbScale
 70
     0
300
1'-0" = 1'-0"
140
12.0
141
12.0
290
     0
  0
ENDSEC
  0
EOF
