  0
SECTION
  2
HEADER
  9
$ACADVER
  1
AC1015
  9
$ACADMAINTVER
 70
     6
  9
$DWGCODEPAGE
  3
ANSI_1252
  9
$INSBASE
 10
0.0
 20
0.0
 30
0.0
  9
$EXTMIN
 10
-169.4
 20
-30.0
 30
0.0
  9
$EXTMAX
 10
169.4
 20
30.0
 30
0.0
  9
$LIMMIN
 10
0.0
 20
0.0
  9
$LIMMAX
 10
420.0
 20
297.0
  9
$ORTHOMODE
 70
     0
  9
$REGENMODE
 70
     1
  9
$FILLMODE
 70
     1
  9
$QTEXTMODE
 70
     0
  9
$MIRRTEXT
 70
     1
  9
$LTSCALE
 40
1.0
  9
$ATTMODE
 70
     1
  9
$TEXTSIZE
 40
6.35
  9
$TRACEWID
 40
1.0
  9
$TEXTSTYLE
  7
Standard
  9
$CLAYER
  8
0
  9
$CELTYPE
  6
ByLayer
  9
$CECOLOR
 62
   256
  9
$CELTSCALE
 40
1.0
  9
$DISPSILH
 70
     0
  9
$DIMSCALE
 40
1.0
  9
$DIMASZ
 40
5.9944
  9
$DIMEXO
 40
0.9906
  9
$DIMDLI
 40
3.75
  9
$DIMRND
 40
0.0
  9
$DIMDLE
 40
0.0
  9
$DIMEXE
 40
0.9906
  9
$DIMTP
 40
0.0
  9
$DIMTM
 40
0.0
  9
$DIMTXT
 40
6.35
  9
$DIMCEN
 40
2.5
  9
$DIMTSZ
 40
0.0
  9
$DIMTOL
 70
     0
  9
$DIMLIM
 70
     0
  9
$DIMTIH
 70
     1
  9
$DIMTOH
 70
     1
  9
$DIMSE1
 70
     0
  9
$DIMSE2
 70
     0
  9
$DIMTAD
 70
     1
  9
$DIMZIN
 70
     0
  9
$DIMBLK
  1

  9
$DIMASO
 70
     1
  9
$DIMSHO
 70
     1
  9
$DIMPOST
  1

  9
$DIMAPOST
  1

  9
$DIMALT
 70
     0
  9
$DIMALTD
 70
     3
  9
$DIMALTF
 40
0.0393700787
  9
$DIMLFAC
 40
1.0
  9
$DIMTOFL
 70
     1
  9
$DIMTVP
 40
0.0
  9
$DIMTIX
 70
     0
  9
$DIMSOXD
 70
     0
  9
$DIMSAH
 70
     0
  9
$DIMBLK1
  1

  9
$DIMBLK2
  1

  9
$DIMSTYLE
  2
ISO-25
  9
$DIMCLRD
 70
     0
  9
$DIMCLRE
 70
     0
  9
$DIMCLRT
 70
     0
  9
$DIMTFAC
 40
1.0
  9
$DIMGAP
 40
1.524
  9
$DIMJUST
 70
     0
  9
$DIMSD1
 70
     0
  9
$DIMSD2
 70
     0
  9
$DIMTOLJ
 70
     0
  9
$DIMTZIN
 70
     0
  9
$DIMALTZ
 70
     0
  9
$DIMALTTZ
 70
     0
  9
$DIMUPT
 70
     0
  9
$DIMDEC
 70
     2
  9
$DIMTDEC
 70
     2
  9
$DIMALTU
 70
     2
  9
$DIMALTTD
 70
     3
  9
$DIMTXSTY
  7
Standard
  9
$DIMAUNIT
 70
     0
  9
$DIMADEC
 70
     2
  9
$DIMALTRND
 40
0.0
  9
$DIMAZIN
 70
     0
  9
$DIMDSEP
 70
    44
  9
$DIMATFIT
 70
     3
  9
$DIMFRAC
 70
     0
  9
$DIMLDRBLK
  1

  9
$DIMLUNIT
 70
     2
  9
$DIMLWD
 70
    -2
  9
$DIMLWE
 70
    -2
  9
$DIMTMOVE
 70
     0
  9
$LUNITS
 70
     2
  9
$LUPREC
 70
     2
  9
$SKETCHINC
 40
1.0
  9
$FILLETRAD
 40
10.0
  9
$AUNITS
 70
     0
  9
$AUPREC
 70
     2
  9
$MENU
  1
.
  9
$ELEVATION
 40
0.0
  9
$PELEVATION
 40
0.0
  9
$THICKNESS
 40
0.0
  9
$LIMCHECK
 70
     0
  9
$CHAMFERA
 40
0.0
  9
$CHAMFERB
 40
0.0
  9
$CHAMFERC
 40
0.0
  9
$CHAMFERD
 40
0.0
  9
$SKPOLY
 70
     0
  9
$TDCREATE
 40
2458002.48536846
  9
$TDUCREATE
 40
2458002.443701794
  9
$TDUPDATE
 40
2458002.48540684
  9
$TDUUPDATE
 40
2458002.443740174
  9
$TDINDWG
 40
0.0000000116
  9
$TDUSRTIMER
 40
0.0000000116
  9
$USRTIMER
 70
     1
  9
$ANGBASE
 50
0.0
  9
$ANGDIR
 70
     0
  9
$PDMODE
 70
     0
  9
$PDSIZE
 40
-1.0
  9
$PLINEWID
 40
0.0
  9
$SPLFRAME
 70
     0
  9
$SPLINETYPE
 70
     6
  9
$SPLINESEGS
 70
     8
  9
$HANDSEED
  5
1F8
  9
$SURFTAB1
 70
     6
  9
$SURFTAB2
 70
     6
  9
$SURFTYPE
 70
     6
  9
$SURFU
 70
     6
  9
$SURFV
 70
     6
  9
$UCSBASE
  2

  9
$UCSNAME
  2

  9
$UCSORG
 10
0.0
 20
0.0
 30
0.0
  9
$UCSXDIR
 10
1.0
 20
0.0
 30
0.0
  9
$UCSYDIR
 10
0.0
 20
1.0
 30
0.0
  9
$UCSORTHOREF
  2

  9
$UCSORTHOVIEW
 70
     0
  9
$UCSORGTOP
 10
0.0
 20
0.0
 30
0.0
  9
$UCSORGBOTTOM
 10
0.0
 20
0.0
 30
0.0
  9
$UCSORGLEFT
 10
0.0
 20
0.0
 30
0.0
  9
$UCSORGRIGHT
 10
0.0
 20
0.0
 30
0.0
  9
$UCSORGFRONT
 10
0.0
 20
0.0
 30
0.0
  9
$UCSORGBACK
 10
0.0
 20
0.0
 30
0.0
  9
$PUCSBASE
  2

  9
$PUCSNAME
  2

  9
$PUCSORG
 10
0.0
 20
0.0
 30
0.0
  9
$PUCSXDIR
 10
1.0
 20
0.0
 30
0.0
  9
$PUCSYDIR
 10
0.0
 20
1.0
 30
0.0
  9
$PUCSORTHOREF
  2

  9
$PUCSORTHOVIEW
 70
     0
  9
$PUCSORGTOP
 10
0.0
 20
0.0
 30
0.0
  9
$PUCSORGBOTTOM
 10
0.0
 20
0.0
 30
0.0
  9
$PUCSORGLEFT
 10
0.0
 20
0.0
 30
0.0
  9
$PUCSORGRIGHT
 10
0.0
 20
0.0
 30
0.0
  9
$PUCSORGFRONT
 10
0.0
 20
0.0
 30
0.0
  9
$PUCSORGBACK
 10
0.0
 20
0.0
 30
0.0
  9
$USERI1
 70
     0
  9
$USERI2
 70
     0
  9
$USERI3
 70
     0
  9
$USERI4
 70
     0
  9
$USERI5
 70
     0
  9
$USERR1
 40
0.0
  9
$USERR2
 40
0.0
  9
$USERR3
 40
0.0
  9
$USERR4
 40
0.0
  9
$USERR5
 40
0.0
  9
$WORLDVIEW
 70
     1
  9
$SHADEDGE
 70
     3
  9
$SHADEDIF
 70
    70
  9
$TILEMODE
 70
     1
  9
$MAXACTVP
 70
    64
  9
$PINSBASE
 10
0.0
 20
0.0
 30
0.0
  9
$PLIMCHECK
 70
     0
  9
$PEXTMIN
 10
1.0000000000E+20
 20
1.0000000000E+20
 30
1.0000000000E+20
  9
$PEXTMAX
 10
-1.0000000000E+20
 20
-1.0000000000E+20
 30
-1.0000000000E+20
  9
$PLIMMIN
 10
0.0
 20
0.0
  9
$PLIMMAX
 10
420.0
 20
297.0
  9
$UNITMODE
 70
     0
  9
$VISRETAIN
 70
     1
  9
$PLINEGEN
 70
     0
  9
$PSLTSCALE
 70
     1
  9
$TREEDEPTH
 70
  3020
  9
$CMLSTYLE
  2
Standard
  9
$CMLJUST
 70
     0
  9
$CMLSCALE
 40
20.0
  9
$PROXYGRAPHICS
 70
     1
  9
$MEASUREMENT
 70
     1
  9
$CELWEIGHT
370
    -1
  9
$ENDCAPS
280
     0
  9
$JOINSTYLE
280
     0
  9
$LWDISPLAY
290
     1
  9
$INSUNITS
 70
     4
  9
$HYPERLINKBASE
  1

  9
$STYLESHEET
  1

  9
$XEDIT
290
     1
  9
$CEPSNTYPE
380
     0
  9
$PSTYLEMODE
290
     1
  9
$FINGERPRINTGUID
  2
{80AE0304-5E6F-4435-86AD-3DBFD99DFC61}
  9
$VERSIONGUID
  2
{FAEB1C32-E019-11D5-929B-00C0DF256EC4}
  9
$EXTNAMES
290
     1
  9
$PSVPSCALE
 40
0.0
  9
$OLESTARTUP
290
     0
  0
ENDSEC
  0
SECTION
  2
CLASSES
  0
CLASS
  1
ACDBDICTIONARYWDFLT
  2
AcDbDictionaryWithDefault
  3
ObjectDBX Classes
 90
        0
280
     0
281
     0
  0
CLASS
  1
VISUALSTYLE
  2
AcDbVisualStyle
  3
ObjectDBX Classes
 90
     4095
280
     0
281
     0
  0
CLASS
  1
MATERIAL
  2
AcDbMaterial
  3
ObjectDBX Classes
 90
     1153
280
     0
281
     0
  0
CLASS
  1
SCALE
  2
AcDbScale
  3
ObjectDBX Classes
 90
     1153
280
     0
281
     0
  0
CLASS
  1
TABLESTYLE
  2
AcDbTableStyle
  3
ObjectDBX Classes
 90
     4095
280
     0
281
     0
  0
CLASS
  1
MLEADERSTYLE
  2
AcDbMLeaderStyle
  3
ACDB_MLEADERSTYLE_CLASS
 90
     4095
280
     0
281
     0
  0
CLASS
  1
SUN
  2
AcDbSun
  3
SCENEOE
 90
     1153
280
     0
281
     0
  0
CLASS
  1
ACDBPLACEHOLDER
  2
AcDbPlaceHolder
  3
ObjectDBX Classes
 90
        0
280
     0
281
     0
  0
CLASS
  1
LAYOUT
  2
AcDbLayout
  3
ObjectDBX Classes
 90
        0
280
     0
281
     0
  0
ENDSEC
  0
SECTION
  2
TABLES
  0
TABLE
  2
VPORT
  5
8
330
0
100
AcDbSymbolTable
 70
     1
  0
VPORT
  5
29
330
8
100
AcDbSymbolTableRecord
100
AcDbViewportTableRecord
  2
*Active
 70
     0
 10
0.0
 20
0.0
 11
1.0
 21
1.0
 12
0.0
 22
0.0
 13
0.0
 23
0.0
 14
10.0
 24
10.0
 15
10.0
 25
10.0
 16
0.0
 26
0.0
 36
1.0
 17
0.0
 27
0.0
 37
0.0
 40
61.2
 41
5.6466666667
 42
50.0
 43
0.0
 44
0.0
 50
0.0
 51
0.0
 71
     0
 72
   100
 73
     1
 74
     3
 75
     0
 76
     0
 77
     0
 78
     0
281
     0
 65
     1
110
0.0
120
0.0
130
0.0
111
1.0
121
0.0
131
0.0
112
0.0
122
1.0
132
0.0
 79
     0
146
0.0
  0
ENDTAB
  0
TABLE
  2
LTYPE
  5
5
330
0
100
AcDbSymbolTable
 70
     6
  0
LTYPE
  5
14
330
5
100
AcDbSymbolTableRecord
100
AcDbLinetypeTableRecord
  2
ByBlock
 70
     0
  3

 72
    65
 73
     0
 40
0.0
  0
LTYPE
  5
15
330
5
100
AcDbSymbolTableRecord
100
AcDbLinetypeTableRecord
  2
ByLayer
 70
     0
  3

 72
    65
 73
     0
 40
0.0
  0
LTYPE
  5
16
330
5
100
AcDbSymbolTableRecord
100
AcDbLinetypeTableRecord
  2
Continuous
 70
     0
  3
Solid line
 72
    65
 73
     0
 40
0.0
  0
LTYPE
  5
6E
330
5
100
AcDbSymbolTableRecord
100
AcDbLinetypeTableRecord
  2
HIDDEN
 70
     0
  3
Hidden __ __ __ __ __ __ __ __ __ __ __ __ __ __
 72
    65
 73
     2
 40
1.905
 49
1.27
 74
     0
 49
-0.635
 74
     0
  0
LTYPE
  5
6F
330
5
100
AcDbSymbolTableRecord
100
AcDbLinetypeTableRecord
  2
PHANTOM
 70
     0
  3
Phantom ______  __  __  ______  __  __  ______
 72
    65
 73
     6
 40
12.7
 49
6.35
 74
     0
 49
-1.27
 74
     0
 49
1.27
 74
     0
 49
-1.27
 74
     0
 49
1.27
 74
     0
 49
-1.27
 74
     0
  0
LTYPE
  5
70
330
5
100
AcDbSymbolTableRecord
100
AcDbLinetypeTableRecord
  2
CENTER
 70
     0
  3
Center ____ _ ____ _ ____ _ ____ _ ____ _ ____
 72
    65
 73
     4
 40
10.16
 49
6.35
 74
     0
 49
-1.27
 74
     0
 49
1.27
 74
     0
 49
-1.27
 74
     0
  0
LTYPE
  5
71
330
5
100
AcDbSymbolTableRecord
100
AcDbLinetypeTableRecord
  2
CENTERX2
 70
     0
  3
Center (2x) ________  __  ________  __  _____
 72
    65
 73
     4
 40
20.32
 49
12.7
 74
     0
 49
-2.54
 74
     0
 49
2.54
 74
     0
 49
-2.54
 74
     0
  0
LTYPE
  5
72
330
5
100
AcDbSymbolTableRecord
100
AcDbLinetypeTableRecord
  2
DOT2
 70
     0
  3
Dot (.5x) ........................................
 72
    65
 73
     2
 40
0.635
 49
0.0
 74
     0
 49
-0.635
 74
     0
  0
ENDTAB
  0
TABLE
  2
LAYER
  5
2
330
0
100
AcDbSymbolTable
 70
     1
  0
LAYER
  5
10
330
2
100
AcDbSymbolTableRecord
100
AcDbLayerTableRecord
  2
0
 70
     0
 62
     7
  6
Continuous
370
    -3
390
F
  0
ENDTAB
  0
TABLE
  2
STYLE
  5
3
330
0
100
AcDbSymbolTable
 70
     2
  0
STYLE
  5
11
330
3
100
AcDbSymbolTableRecord
100
AcDbTextStyleTableRecord
  2
Standard
 70
     0
 40
0.0
 41
1.0
 50
0.0
 71
     0
 42
6.35
  3
txt
  4

  0
STYLE
  5
1F5
330
3
100
AcDbSymbolTableRecord
100
AcDbTextStyleTableRecord
  2
SLDTEXTSTYLE0
 70
     0
 40
0.0
 41
0.7
 50
0.0
 71
     0
 42
6.35
  3
TXT
  4

  0
ENDTAB
  0
TABLE
  2
VIEW
  5
6
330
0
100
AcDbSymbolTable
 70
     0
  0
ENDTAB
  0
TABLE
  2
UCS
  5
7
330
0
100
AcDbSymbolTable
 70
     0
  0
ENDTAB
  0
TABLE
  2
APPID
  5
9
330
0
100
AcDbSymbolTable
 70
     1
  0
APPID
  5
12
330
9
100
AcDbSymbolTableRecord
100
AcDbRegAppTableRecord
  2
ACAD
 70
     0
  0
ENDTAB
  0
TABLE
  2
DIMSTYLE
  5
A
330
0
100
AcDbSymbolTable
 70
     1
100
AcDbDimStyleTable
  0
DIMSTYLE
105
27
330
A
100
AcDbSymbolTableRecord
100
AcDbDimStyleTableRecord
  2
ISO-25
 70
     0
 41
2.5
 42
0.625
 43
3.75
 44
1.25
 73
     0
 74
     0
 77
     1
 78
     8
140
2.5
141
2.5
143
0.0393700787
147
0.625
171
     3
172
     1
178
     0
271
     2
272
     2
274
     3
278
    44
283
     0
284
     8
340
11
  0
ENDTAB
  0
TABLE
  2
BLOCK_RECORD
  5
1
330
0
100
AcDbSymbolTable
 70
     1
  0
BLOCK_RECORD
  5
1F
330
1
100
AcDbSymbolTableRecord
100
AcDbBlockTableRecord
  2
*Model_Space
340
22
  0
BLOCK_RECORD
  5
1B
330
1
100
AcDbSymbolTableRecord
100
AcDbBlockTableRecord
  2
*Paper_Space
340
1E
  0
BLOCK_RECORD
  5
23
330
1
100
AcDbSymbolTableRecord
100
AcDbBlockTableRecord
  2
*Paper_Space0
340
26
  0
ENDTAB
  0
ENDSEC
  0
SECTION
  2
BLOCKS
  0
BLOCK
  5
20
330
1F
100
AcDbEntity
  8
0
100
AcDbBlockBegin
  2
*Model_Space
 70
     0
 10
0.0
 20
0.0
 30
0.0
  3
*Model_Space
  1

  0
ENDBLK
  5
21
330
1F
100
AcDbEntity
  8
0
100
AcDbBlockEnd
  0
BLOCK
  5
1C
330
1B
100
AcDbEntity
 67
     1
  8
0
100
AcDbBlockBegin
  2
*Paper_Space
 70
     0
 10
0.0
 20
0.0
 30
0.0
  3
*Paper_Space
  1

  0
ENDBLK
  5
1D
330
1B
100
AcDbEntity
 67
     1
  8
0
100
AcDbBlockEnd
  0
BLOCK
  5
24
330
23
100
AcDbEntity
  8
0
100
AcDbBlockBegin
  2
*Paper_Space0
 70
     0
 10
0.0
 20
0.0
 30
0.0
  3
*Paper_Space0
  1

  0
ENDBLK
  5
25
330
23
100
AcDbEntity
  8
0
100
AcDbBlockEnd
  0
ENDSEC
  0
SECTION
  2
ENTITIES
  0
SPLINE
  5
7E
330
1F
100
AcDbEntity
  8
0
  6
Continuous
 62
     7
370
    15
100
AcDbSpline
210
0.0
220
0.0
230
1.0
 70
     8
 71
     3
 72
    15
 73
    11
 74
     0
 42
0.000000001
 43
0.00000001
 40
0.0
 40
0.0
 40
0.0
 40
0.0
 40
0.126177718317003
 40
0.2488206074857903
 40
0.3715399692351511
 40
0.4999837069108849
 40
0.6272441978753766
 40
0.7492255210762669
 40
0.8722979504176542
 40
1.0
 40
1.0
 40
1.0
 40
1.0
 10
-16.51101762820513
 20
-24.79477831196585
 30
0.0
 10
-16.51201182715836
 20
-24.81078005701239
 30
0.0
 10
-16.51397237289342
 20
-24.84233526324389
 30
0.0
 10
-16.52666395834353
 20
-24.88830443186628
 30
0.0
 10
-16.55069406320744
 20
-24.92957156611908
 30
0.0
 10
-16.58082518529821
 20
-24.96724245121746
 30
0.0
 10
-16.61807555296536
 20
-24.99796054421723
 30
0.0
 10
-16.65973762406806
 20
-25.02076436123572
 30
0.0
 10
-16.70546547385701
 20
-25.03464453738656
 30
0.0
 10
-16.73732732130788
 20
-25.0364126546792
 30
0.0
 10
-16.75355235042735
 20
-25.03731303418807
 30
0.0
  0
SPLINE
  5
7F
330
1F
100
AcDbEntity
  8
0
  6
Continuous
 62
     7
370
    15
100
AcDbSpline
210
0.0
220
0.0
230
1.0
 70
     8
 71
     3
 72
    15
 73
    11
 74
     0
 42
0.000000001
 43
0.00000001
 40
0.0
 40
0.0
 40
0.0
 40
0.0
 40
0.1275189266999399
 40
0.2499859477488076
 40
0.3717923515057489
 40
0.4988703527764679
 40
0.6259483540471927
 40
0.7484917380160565
 40
0.8709587590649154
 40
1.0
 40
1.0
 40
1.0
 40
1.0
 10
-16.75355235042735
 20
-24.55224358974363
 30
0.0
 10
-16.73734531090018
 20
-24.5532066604942
 30
0.0
 10
-16.70557330464784
 20
-24.55509464810955
 30
0.0
 10
-16.65963933901848
 20
-24.56804739408732
 30
0.0
 10
-16.61806639876862
 20
-24.59104688734855
 30
0.0
 10
-16.58103571664537
 20
-24.62170004292681
 30
0.0
 10
-16.55051253348801
 20
-24.65886661518472
 30
0.0
 10
-16.52669339067698
 20
-24.70010797500878
 30
0.0
 10
-16.51385347618821
 20
-24.74642650169498
 30
0.0
 10
-16.51197924118854
 20
-24.77838260641125
 30
0.0
 10
-16.51101762820513
 20
-24.79477831196585
 30
0.0
  0
SPLINE
  5
80
330
1F
100
AcDbEntity
  8
0
  6
Continuous
 62
     7
370
    15
100
AcDbSpline
210
0.0
220
0.0
230
1.0
 70
     8
 71
     3
 72
    15
 73
    11
 74
     0
 42
0.000000001
 43
0.00000001
 40
0.0
 40
0.0
 40
0.0
 40
0.0
 40
0.1290969581672274
 40
0.2520459672599774
 40
0.3739049644019982
 40
0.5010378352202083
 40
0.6281707060384126
 40
0.7513764634091886
 40
0.8724260133704588
 40
1.0
 40
1.0
 40
1.0
 40
1.0
 10
-16.99608707264957
 20
-24.79477831196585
 30
0.0
 10
-16.99520388654249
 20
-24.77835576234207
 30
0.0
 10
-16.99347957405837
 20
-24.74629274967652
 30
0.0
 10
-16.97952981371803
 20
-24.70039206328012
 30
0.0
 10
-16.95676518989009
 20
-24.65867461707042
 30
0.0
 10
-16.92599344179241
 20
-24.62175674657475
 30
0.0
 10
-16.88896936955659
 20
-24.59083373358429
 30
0.0
 10
-16.8471456798937
 20
-24.56832806928894
 30
0.0
 10
-16.80137768120044
 20
-24.55498970272744
 30
0.0
 10
-16.76977060741206
 20
-24.55317483612208
 30
0.0
 10
-16.75355235042735
 20
-24.55224358974363
 30
0.0
  0
SPLINE
  5
81
330
1F
100
AcDbEntity
  8
0
  6
Continuous
 62
     7
370
    15
100
AcDbSpline
210
0.0
220
0.0
230
1.0
 70
     8
 71
     3
 72
    15
 73
    11
 74
     0
 42
0.000000001
 43
0.00000001
 40
0.0
 40
0.0
 40
0.0
 40
0.0
 40
0.1277566033101267
 40
0.2494143553365321
 40
0.3727964764553918
 40
0.5001113325158555
 40
0.6286099407651099
 40
0.750643373825811
 40
0.8737683791425161
 40
1.0
 40
1.0
 40
1.0
 40
1.0
 10
-16.75355235042735
 20
-25.03731303418807
 30
0.0
 10
-16.76978907078192
 20
-25.03644523344154
 30
0.0
 10
-16.80148740210171
 20
-25.03475105906502
 30
0.0
 10
-16.84704456516096
 20
-25.02047936836816
 30
0.0
 10
-16.88896035986601
 20
-24.99817438386779
 30
0.0
 10
-16.92620347492349
 20
-24.96718517401832
 30
0.0
 10
-16.95658695397625
 20
-24.92976541192082
 30
0.0
 10
-16.97955877531293
 20
-24.88802022762598
 30
0.0
 10
-16.99335427417439
 20
-24.84246685377558
 30
0.0
 10
-16.99516860519559
 20
-24.81080597517563
 30
0.0
 10
-16.99608707264957
 20
-24.79477831196585
 30
0.0
  0
SPLINE
  5
95
330
1F
100
AcDbEntity
  8
0
  6
Continuous
 62
     7
370
    15
100
AcDbSpline
210
0.0
220
0.0
230
1.0
 70
     8
 71
     3
 72
    19
 73
    15
 74
     0
 42
0.000000001
 43
0.00000001
 40
0.0
 40
0.0
 40
0.0
 40
0.0
 40
0.084334721992627
 40
0.1670523184160745
 40
0.2495660772409662
 40
0.3327404818018468
 40
0.4159148863627272
 40
0.4978280095399959
 40
0.5803725886080522
 40
0.6646001210565031
 40
0.7494666931126178
 40
0.8325102339401409
 40
0.9156392816681741
 40
1.0
 40
1.0
 40
1.0
 40
1.0
 10
-8.16689035790602
 20
-25.07462606837611
 30
0.0
 10
-8.20605350719869
 20
-25.0733552925285
 30
0.0
 10
-8.283628849018012
 20
-25.07083810806979
 30
0.0
 10
-8.39774445232146
 20
-25.04841464663495
 30
0.0
 10
-8.507394830432123
 20
-25.01207010939216
 30
0.0
 10
-8.61181175015139
 20
-24.96199906943713
 30
0.0
 10
-8.708537878877758
 20
-24.89875331795823
 30
0.0
 10
-8.795073411077935
 20
-24.82261492275149
 30
0.0
 10
-8.870986868850757
 20
-24.73521139733115
 30
0.0
 10
-8.934163383993745
 20
-24.63655629903421
 30
0.0
 10
-8.984271389071276
 20
-24.53054232841894
 30
0.0
 10
-9.021848963706672
 20
-24.41999875254024
 30
0.0
 10
-9.043798696920629
 20
-24.30532835106943
 30
0.0
 10
-9.046865907583292
 20
-24.22759433235304
 30
0.0
 10
-9.048410790598329
 20
-24.1884415064103
 30
0.0
  0
SPLINE
  5
96
330
1F
100
AcDbEntity
  8
0
  6
Continuous
 62
     7
370
    15
100
AcDbSpline
210
0.0
220
0.0
230
1.0
 70
     8
 71
     3
 72
    19
 73
    15
 74
     0
 42
0.000000001
 43
0.00000001
 40
0.0
 40
0.0
 40
0.0
 40
0.0
 40
0.0859479431441272
 40
0.1691252118806913
 40
0.2503991071860502
 40
0.3322897361388352
 40
0.413364287915882
 40
0.4941722833711885
 40
0.5760217353866371
 40
0.660756969254007
 40
0.7457831259137434
 40
0.8300435929752243
 40
0.9140275458206835
 40
1.0
 40
1.0
 40
1.0
 40
1.0
 10
-7.257385149572688
 20
-24.1831943609776
 30
0.0
 10
-7.258568529050805
 20
-24.22392331717624
 30
0.0
 10
-7.260897139808096
 20
-24.30406826416145
 30
0.0
 10
-7.284100474951474
 20
-24.42079818014186
 30
0.0
 10
-7.320156084310512
 20
-24.53200313502262
 30
0.0
 10
-7.371693350488612
 20
-24.63590764716646
 30
0.0
 10
-7.435707867767348
 20
-24.73236930770253
 30
0.0
 10
-7.513771556432165
 20
-24.81784031674664
 30
0.0
 10
-7.603115933338538
 20
-24.894068318016
 30
0.0
 10
-7.704137991110827
 20
-24.9578119472026
 30
0.0
 10
-7.812856991629006
 20
-25.0098693652171
 30
0.0
 10
-7.927071718050339
 20
-25.04726010521101
 30
0.0
 10
-8.045672982000248
 20
-25.07028022827002
 30
0.0
 10
-8.126170623340853
 20
-25.07316619965465
 30
0.0
 10
-8.16689035790602
 20
-25.07462606837611
 30
0.0
  0
SPLINE
  5
97
330
1F
100
AcDbEntity
  8
0
  6
Continuous
 62
     7
370
    15
100
AcDbSpline
210
0.0
220
0.0
230
1.0
 70
     8
 71
     3
 72
    23
 73
    19
 74
     0
 42
0.000000001
 43
0.00000001
 40
0.0
 40
0.0
 40
0.0
 40
0.0
 40
0.0652308037420293
 40
0.1284048960032232
 40
0.1900670715964786
 40
0.2509433657682805
 40
0.3115458328521435
 40
0.37286280215683
 40
0.4350236738562384
 40
0.4990717247070424
 40
0.5630910750496628
 40
0.6255101063303757
 40
0.6866800359296502
 40
0.7472825030135123
 40
0.8085634952159596
 40
0.8707421035159855
 40
0.934340951505912
 40
0.9999999999999999
 40
0.9999999999999999
 40
0.9999999999999999
 40
0.9999999999999999
 10
-8.120832081330166
 20
-23.3209134615385
 30
0.0
 10
-8.091251856699085
 20
-23.32170851394267
 30
0.0
 10
-8.033024064772318
 20
-23.32327355094079
 30
0.0
 10
-7.947535313202635
 20
-23.33531756249823
 30
0.0
 10
-7.865387608705891
 20
-23.35429772997281
 30
0.0
 10
-7.786921434705411
 20
-23.38196519518689
 30
0.0
 10
-7.711855151575755
 20
-23.41730792676076
 30
0.0
 10
-7.639757980525983
 20
-23.45966602305949
 30
0.0
 10
-7.571985178074565
 20
-23.51122669892757
 30
0.0
 10
-7.507663989170378
 20
-23.56882380799308
 30
0.0
 10
-7.449266813540654
 20
-23.63261763379054
 30
0.0
 10
-7.397564462580014
 20
-23.70030672151574
 30
0.0
 10
-7.354135398263022
 20
-23.7718205493458
 30
0.0
 10
-7.318899464634696
 20
-23.84712289560106
 30
0.0
 10
-7.291537491181583
 20
-23.92609768346182
 30
0.0
 10
-7.271590622059013
 20
-24.00864386850069
 30
0.0
 10
-7.259799615410604
 20
-24.09481837185175
 30
0.0
 10
-7.258198478190971
 20
-24.15342433068917
 30
0.0
 10
-7.257385149572688
 20
-24.1831943609776
 30
0.0
  0
SPLINE
  5
98
330
1F
100
AcDbEntity
  8
0
  6
Continuous
 62
     7
370
    15
100
AcDbSpline
210
0.0
220
0.0
230
1.0
 70
     8
 71
     3
 72
     9
 73
     5
 74
     0
 42
0.000000001
 43
0.00000001
 40
0.0
 40
0.0
 40
0.0
 40
0.0
 40
0.5126593363417824
 40
1.0
 40
1.0
 40
1.0
 40
1.0
 10
-8.422251435630379
 20
-23.34889823717953
 30
0.0
 10
-8.371052818400788
 20
-23.34073754471936
 30
0.0
 10
-8.271184126659149
 20
-23.32481919137699
 30
0.0
 10
-8.170096293183807
 20
-23.32219320935826
 30
0.0
 10
-8.120832081330166
 20
-23.3209134615385
 30
0.0
  0
SPLINE
  5
9C
330
1F
100
AcDbEntity
  8
0
  6
Continuous
 62
     7
370
    15
100
AcDbSpline
210
0.0
220
0.0
230
1.0
 70
     8
 71
     3
 72
    19
 73
    15
 74
     0
 42
0.000000001
 43
0.00000001
 40
0.0
 40
0.0
 40
0.0
 40
0.0
 40
0.0978181896147134
 40
0.1997260534018267
 40
0.3052763574779424
 40
0.4158114905382911
 40
0.4744722311435615
 40
0.5372738797760968
 40
0.6036574205596569
 40
0.6742988630901259
 40
0.7498344853162275
 40
0.8285984767571017
 40
0.9123777781577816
 40
1.0
 40
1.0
 40
1.0
 40
1.0
 10
-9.04841079059833
 20
-24.1884415064103
 30
0.0
 10
-9.047428362816088
 20
-24.15846871906257
 30
0.0
 10
-9.045422432993917
 20
-24.09727001409785
 30
0.0
 10
-9.031416351861372
 20
-24.00458236705194
 30
0.0
 10
-9.008910686199311
 20
-23.90974346159238
 30
0.0
 10
-8.983706273012174
 20
-23.82928774227458
 30
0.0
 10
-8.957075453230638
 20
-23.763378012407
 30
0.0
 10
-8.934912597395002
 20
-23.71023921692958
 30
0.0
 10
-8.907326839973228
 20
-23.65555575305524
 30
0.0
 10
-8.87791218906284
 20
-23.59745249742156
 30
0.0
 10
-8.844020911757209
 20
-23.5374268727395
 30
0.0
 10
-8.807170339021788
 20
-23.47447566664574
 30
0.0
 10
-8.766341641215222
 20
-23.40960004465542
 30
0.0
 10
-8.73771963683651
 20
-23.36557442515548
 30
0.0
 10
-8.723087773771406
 20
-23.34306807558765
 30
0.0
  0
SPLINE
  5
9D
330
1F
100
AcDbEntity
  8
0
  6
Continuous
 62
     7
370
    15
100
AcDbSpline
210
0.0
220
0.0
230
1.0
 70
     8
 71
     3
 72
    31
 73
    27
 74
     0
 42
0.000000001
 43
0.00000001
 40
0.0
 40
0.0
 40
0.0
 40
0.0
 40
0.0622100326824412
 40
0.1206959731983287
 40
0.1755484638831974
 40
0.2261906127214142
 40
0.2737107306295708
 40
0.3173020717741418
 40
0.3578372980216196
 40
0.3954278376537091
 40
0.43108852684494
 40
0.4660974733410726
 40
0.5010152197637672
 40
0.5354236135188901
 40
0.5701735381629636
 40
0.6047650703833898
 40
0.640093034542571
 40
0.6759387007616808
 40
0.7122247901876547
 40
0.7494554524110939
 40
0.7876011171624473
 40
0.8267837743908834
 40
0.8678285699487368
 40
0.9101595124056449
 40
0.9539387393934007
 40
1.0
 40
1.0
 40
1.0
 40
1.0
 10
2.555942841880289
 20
-23.90859375000004
 30
0.0
 10
2.555575551605849
 20
-23.9437741776883
 30
0.0
 10
2.554862958231303
 20
-24.01202901978176
 30
0.0
 10
2.550283339868459
 20
-24.11121943869961
 30
0.0
 10
2.542425536969021
 20
-24.20365613876075
 30
0.0
 10
2.530498911427037
 20
-24.28938804956699
 30
0.0
 10
2.516474299845207
 20
-24.36834971741555
 30
0.0
 10
2.498382922878269
 20
-24.44064234361037
 30
0.0
 10
2.476780781130533
 20
-24.50604319294048
 30
0.0
 10
2.452411849921063
 20
-24.56569989672525
 30
0.0
 10
2.423622118413805
 20
-24.61978948672125
 30
0.0
 10
2.392998697180389
 20
-24.67112575803587
 30
0.0
 10
2.357637324412504
 20
-24.7184349428231
 30
0.0
 10
2.320408742708777
 20
-24.7640720533269
 30
0.0
 10
2.27899629434366
 20
-24.80576712105239
 30
0.0
 10
2.234175994956831
 20
-24.84447688996945
 30
0.0
 10
2.186578691675415
 20
-24.88079309555678
 30
0.0
 10
2.135148138340508
 20
-24.91329935584788
 30
0.0
 10
2.080635150304384
 20
-24.94258367343068
 30
0.0
 10
2.022972431101348
 20
-24.96854132886935
 30
0.0
 10
1.961453708189248
 20
-24.98908269801144
 30
0.0
 10
1.896872695770092
 20
-25.00680353136708
 30
0.0
 10
1.828912987012018
 20
-25.02070240838298
 30
0.0
 10
1.757640098385192
 20
-25.03050349990268
 30
0.0
 10
1.683078037110061
 20
-25.03651170662919
 30
0.0
 10
1.632262611419482
 20
-25.03704143976042
 30
0.0
 10
1.606209518562981
 20
-25.03731303418807
 30
0.0
  0
SPLINE
  5
A1
330
1F
100
AcDbEntity
  8
0
  6
Continuous
 62
     7
370
    15
100
AcDbSpline
210
0.0
220
0.0
230
1.0
 70
     8
 71
     3
 72
    15
 73
    11
 74
     0
 42
0.000000001
 43
0.00000001
 40
0.0
 40
0.0
 40
0.0
 40
0.0
 40
0.0696927557420308
 40
0.1540736621798061
 40
0.2545914510459105
 40
0.3714654144290032
 40
0.5047545659520488
 40
0.6534942950018612
 40
0.8189527408800004
 40
1.0
 40
1.0
 40
1.0
 40
1.0
 10
2.251608406784135
 20
-24.37792175814641
 30
0.0
 10
2.255096108810756
 20
-24.36630811574932
 30
0.0
 10
2.26280656620496
 20
-24.34063318875994
 30
0.0
 10
2.271090735884988
 20
-24.29707693370523
 30
0.0
 10
2.27855342805684
 20
-24.24513464050783
 30
0.0
 10
2.284925723934726
 20
-24.18446641579792
 30
0.0
 10
2.289470266895997
 20
-24.11523080271451
 30
0.0
 10
2.291920028295239
 20
-24.03744943820488
 30
0.0
 10
2.294687647627584
 20
-23.95136649763785
 30
0.0
 10
2.294729654310999
 20
-23.89110610492007
 30
0.0
 10
2.29475160256405
 20
-23.85962039262824
 30
0.0
  0
SPLINE
  5
A2
330
1F
100
AcDbEntity
  8
0
  6
Continuous
 62
     7
370
    15
100
AcDbSpline
210
0.0
220
0.0
230
1.0
 70
     8
 71
     3
 72
    15
 73
    11
 74
     0
 42
0.000000001
 43
0.00000001
 40
0.0
 40
0.0
 40
0.0
 40
0.0
 40
0.1446324159930499
 40
0.2798369641781399
 40
0.4083713118090898
 40
0.5330428696034676
 40
0.6535963008637277
 40
0.7700157379356768
 40
0.8843394719004989
 40
1.0
 40
1.0
 40
1.0
 40
1.0
 10
1.608541583199734
 20
-24.77612179487183
 30
0.0
 10
1.647502505986647
 20
-24.77482354231733
 30
0.0
 10
1.72288468279266
 20
-24.77231166383495
 30
0.0
 10
1.831364201879961
 20
-24.75170297131126
 30
0.0
 10
1.930527431614647
 20
-24.71727216919326
 30
0.0
 10
2.019379085766732
 20
-24.66920255356221
 30
0.0
 10
2.097516156420361
 20
-24.61037715965212
 30
0.0
 10
2.162630009405507
 20
-24.54135138240677
 30
0.0
 10
2.216354018095437
 20
-24.46430900534113
 30
0.0
 10
2.239811494666272
 20
-24.40682887584626
 30
0.0
 10
2.251608406784135
 20
-24.37792175814641
 30
0.0
  0
SPLINE
  5
A3
330
1F
100
AcDbEntity
  8
0
  6
Continuous
 62
     7
370
    15
100
AcDbSpline
210
0.0
220
0.0
230
1.0
 70
     8
 71
     3
 72
    19
 73
    15
 74
     0
 42
0.000000001
 43
0.00000001
 40
0.0
 40
0.0
 40
0.0
 40
0.0
 40
0.0604867187842483
 40
0.119715933405305
 40
0.1780861642555826
 40
0.2359713213676941
 40
0.2946097683616281
 40
0.3535360182612506
 40
0.4131613089451985
 40
0.4745453087944164
 40
0.5992335172031766
 40
0.7270292124547214
 40
0.8596954264724352
 40
1.0
 40
1.0
 40
1.0
 40
1.0
 10
0.9555634849091355
 20
-24.35693317641564
 30
0.0
 10
0.9611859567251829
 20
-24.37275159948116
 30
0.0
 10
0.9723140105365333
 20
-24.40405958444632
 30
0.0
 10
0.9924985681575175
 20
-24.44928663221244
 30
0.0
 10
1.017468559939983
 20
-24.49117607837463
 30
0.0
 10
1.044793071569978
 20
-24.53134321503782
 30
0.0
 10
1.076308233732216
 20
-24.56859820056016
 30
0.0
 10
1.111615305846394
 20
-24.60287812221497
 30
0.0
 10
1.149532411268554
 20
-24.63547819094458
 30
0.0
 10
1.205873939630854
 20
-24.67404935426334
 30
0.0
 10
1.282924531643263
 20
-24.71539001868798
 30
0.0
 10
1.384084590685463
 20
-24.75105993431987
 30
0.0
 10
1.493769235673522
 20
-24.77237733942823
 30
0.0
 10
1.569577040937597
 20
-24.77485057409848
 30
0.0
 10
1.608541583199734
 20
-24.77612179487183
 30
0.0
  0
SPLINE
  5
A4
330
1F
100
AcDbEntity
  8
0
  6
Continuous
 62
     7
370
    15
100
AcDbSpline
210
0.0
220
0.0
230
1.0
 70
     8
 71
     3
 72
    15
 73
    11
 74
     0
 42
0.000000001
 43
0.00000001
 40
0.0
 40
0.0
 40
0.0
 40
0.0
 40
0.1736165757486511
 40
0.3321203769789056
 40
0.47793627672395
 40
0.6099318098113904
 40
0.7270315210379794
 40
0.8316714227513112
 40
0.9217154761224312
 40
1.0
 40
1.0
 40
1.0
 40
1.0
 10
0.914169337606785
 20
-23.85962039262824
 30
0.0
 10
0.9142873382896948
 20
-23.88857716679908
 30
0.0
 10
0.9145130680687944
 20
-23.94397011941458
 30
0.0
 10
0.9160438981194267
 20
-24.02367827173526
 30
0.0
 10
0.9196445771674432
 20
-24.09636943100227
 30
0.0
 10
0.9241464300522366
 20
-24.16208558888825
 30
0.0
 10
0.9299357777577549
 20
-24.2208156282047
 30
0.0
 10
0.936823786460873
 20
-24.27235441497466
 30
0.0
 10
0.9445226049196992
 20
-24.31728641208056
 30
0.0
 10
0.9520586831398253
 20
-24.34434776203545
 30
0.0
 10
0.9555634849091355
 20
-24.35693317641564
 30
0.0
  0
SPLINE
  5
A8
330
1F
100
AcDbEntity
  8
0
  6
Continuous
 62
     7
370
    15
100
AcDbSpline
210
0.0
220
0.0
230
1.0
 70
     8
 71
     3
 72
    31
 73
    27
 74
     0
 42
0.000000001
 43
0.00000001
 40
0.0
 40
0.0
 40
0.0
 40
0.0
 40
0.0451516788047784
 40
0.0887272521645414
 40
0.1305341108247531
 40
0.1710707458966339
 40
0.2100958400813108
 40
0.2477692374166778
 40
0.2848493643644386
 40
0.3209855015160371
 40
0.3563873757532806
 40
0.3915492787874609
 40
0.4261913606636691
 40
0.4605110592984606
 40
0.4949714404811195
 40
0.5295336250796111
 40
0.5645757480731523
 40
0.6000961892387713
 40
0.6375349450701504
 40
0.6782134162474361
 40
0.7225827429711676
 40
0.7701823039810383
 40
0.821879282290201
 40
0.8770670125167512
 40
0.9365240376354078
 40
1.0
 40
1.0
 40
1.0
 40
1.0
 10
1.606209518562981
 20
-25.03731303418807
 30
0.0
 10
1.580351286303837
 20
-25.03703055152091
 30
0.0
 10
1.529537452689669
 20
-25.03647544678271
 30
0.0
 10
1.454971543027926
 20
-25.0305366935995
 30
0.0
 10
1.383501184102105
 20
-25.02071763740013
 30
0.0
 10
1.315380471762435
 20
-25.0067017215165
 30
0.0
 10
1.250541047332549
 20
-24.98920673300544
 30
0.0
 10
1.18872027167527
 20
-24.96841510261889
 30
0.0
 10
1.13064202315534
 20
-24.94257020201597
 30
0.0
 10
1.075608535306266
 20
-24.91348469738281
 30
0.0
 10
1.024050597009353
 20
-24.88058428681531
 30
0.0
 10
0.9757305472654063
 20
-24.84452169672236
 30
0.0
 10
0.9307131764330706
 20
-24.80535076214042
 30
0.0
 10
0.8889885549994223
 20
-24.76323507289091
 30
0.0
 10
0.8511423476808494
 20
-24.71765217996917
 30
0.0
 10
0.8167029368270342
 20
-24.66896875871421
 30
0.0
 10
0.7851401290245418
 20
-24.61766718623131
 30
0.0
 10
0.7565741479974044
 20
-24.562732520782
 30
0.0
 10
0.7320337179416959
 20
-24.50238543884597
 30
0.0
 10
0.7103675402500137
 20
-24.43561457894216
 30
0.0
 10
0.6926467296430537
 20
-24.36168790276224
 30
0.0
 10
0.6782256413694381
 20
-24.28066861464117
 30
0.0
 10
0.6666243541480771
 20
-24.19294446396865
 30
0.0
 10
0.6585698656535737
 20
-24.09800799006075
 30
0.0
 10
0.654066344480921
 20
-23.99609044367926
 30
0.0
 10
0.6533486678060118
 20
-23.92570002916212
 30
0.0
 10
0.6529780982905458
 20
-23.88935421674683
 30
0.0
  0
SPLINE
  5
AA
330
1F
100
AcDbEntity
  8
0
  6
Continuous
 62
     7
370
    15
100
AcDbSpline
210
0.0
220
0.0
230
1.0
 70
     8
 71
     3
 72
    15
 73
    11
 74
     0
 42
0.000000001
 43
0.00000001
 40
0.0
 40
0.0
 40
0.0
 40
0.0
 40
0.0769954547170593
 40
0.1676150771831703
 40
0.2710523936342336
 40
0.3894595025720733
 40
0.5208428024655769
 40
0.6663987586080746
 40
0.8260936125153163
 40
1.0
 40
1.0
 40
1.0
 40
1.0
 10
3.454370743189056
 20
-23.66022886618594
 30
0.0
 10
3.451094737796057
 20
-23.67457738920158
 30
0.0
 10
3.443963045427748
 20
-23.7058133732161
 30
0.0
 10
3.436260270271304
 20
-23.75707364338293
 30
0.0
 10
3.429268970964077
 20
-23.81637128330199
 30
0.0
 10
3.423417404779465
 20
-23.88363709694903
 30
0.0
 10
3.419837245964348
 20
-23.95910659191284
 30
0.0
 10
3.41593363150435
 20
-24.04245746418199
 30
0.0
 10
3.414512465843791
 20
-24.13402207324952
 30
0.0
 10
3.414269359556581
 20
-24.19776992130696
 30
0.0
 10
3.414142628205082
 20
-24.23100168603102
 30
0.0
  0
SPLINE
  5
AB
330
1F
100
AcDbEntity
  8
0
  6
Continuous
 62
     7
370
    15
100
AcDbSpline
210
0.0
220
0.0
230
1.0
 70
     8
 71
     3
 72
    23
 73
    19
 74
     0
 42
0.000000001
 43
0.00000001
 40
0.0
 40
0.0
 40
0.0
 40
0.0
 40
0.063986109816467
 40
0.1266268580894772
 40
0.1889843719814868
 40
0.2502301939603979
 40
0.3123511629623217
 40
0.3745736184579379
 40
0.4381475308782033
 40
0.5029204126073696
 40
0.5679740951402704
 40
0.630771333749189
 40
0.6929346089254592
 40
0.7543975343123278
 40
0.8152183520172945
 40
0.8761169254810901
 40
0.938014604793954
 40
1.0
 40
1.0
 40
1.0
 40
1.0
 10
4.177893796741406
 20
-23.0970352564103
 30
0.0
 10
4.156882514600929
 20
-23.09743107695492
 30
0.0
 10
4.115301730122678
 20
-23.09821439558574
 30
0.0
 10
4.053642497531672
 20
-23.10607359995366
 30
0.0
 10
3.993834122573571
 20
-23.11892804190062
 30
0.0
 10
3.935276365451129
 20
-23.13628130772582
 30
0.0
 10
3.879140420303599
 20
-23.16011534945445
 30
0.0
 10
3.823622732935312
 20
-23.18716506981408
 30
0.0
 10
3.770813834429737
 20
-23.22088283894713
 30
0.0
 10
3.719587676222304
 20
-23.25846099260864
 30
0.0
 10
3.671929347477377
 20
-23.30010423811759
 30
0.0
 10
3.627584294644228
 20
-23.34404696471496
 30
0.0
 10
3.588054167090191
 20
-23.39084280906206
 30
0.0
 10
3.552240512702498
 20
-23.43973776542998
 30
0.0
 10
3.521325016310554
 20
-23.49140334738353
 30
0.0
 10
3.494338728201592
 20
-23.54534110699715
 30
0.0
 10
3.471441486758706
 20
-23.60162203670366
 30
0.0
 10
3.460063676413242
 20
-23.64068403702471
 30
0.0
 10
3.454370743189056
 20
-23.66022886618594
 30
0.0
  0
SPLINE
  5
AC
330
1F
100
AcDbEntity
  8
0
  6
Continuous
 62
     7
370
    15
100
AcDbSpline
210
0.0
220
0.0
230
1.0
 70
     8
 71
     3
 72
    15
 73
    11
 74
     0
 42
0.000000001
 43
0.00000001
 40
0.0
 40
0.0
 40
0.0
 40
0.0
 40
0.1355195283706043
 40
0.2608331631936786
 40
0.3784760291245031
 40
0.4931776464746777
 40
0.6092809649289391
 40
0.7299810378566455
 40
0.8592613089300656
 40
1.0
 40
1.0
 40
1.0
 40
1.0
 10
4.726512002537347
 20
-23.5156408587073
 30
0.0
 10
4.717676367112148
 20
-23.48261911741453
 30
0.0
 10
4.700670502610627
 20
-23.41906248215232
 30
0.0
 10
4.658649089261919
 20
-23.33285232107363
 30
0.0
 10
4.605584559166711
 20
-23.25951132797988
 30
0.0
 10
4.540808787998174
 20
-23.19949294696245
 30
0.0
 10
4.464947467361511
 20
-23.15278422144049
 30
0.0
 10
4.378211111143254
 20
-23.12037552218233
 30
0.0
 10
4.281436729584191
 20
-23.10010549356871
 30
0.0
 10
4.213370912563443
 20
-23.09808721772026
 30
0.0
 10
4.177893796741406
 20
-23.0970352564103
 30
0.0
  0
SPLINE
  5
AD
330
1F
100
AcDbEntity
  8
0
  6
Continuous
 62
     7
370
    15
100
AcDbSpline
210
0.0
220
0.0
230
1.0
 70
     8
 71
     3
 72
    15
 73
    11
 74
     0
 42
0.000000001
 43
0.00000001
 40
0.0
 40
0.0
 40
0.0
 40
0.0
 40
0.1788500194111614
 40
0.3421096489423011
 40
0.4898256633683926
 40
0.6232544282245673
 40
0.7400796760857916
 40
0.8414826730699869
 40
0.9289076721840656
 40
1.0
 40
1.0
 40
1.0
 40
1.0
 10
4.757411858974313
 20
-23.99954427083338
 30
0.0
 10
4.757251197306177
 20
-23.97058774966345
 30
0.0
 10
4.756943878877778
 20
-23.91519885272819
 30
0.0
 10
4.755974588152601
 20
-23.83589496856336
 30
0.0
 10
4.753638100161921
 20
-23.76397726021295
 30
0.0
 10
4.750354889957332
 20
-23.69961766362643
 30
0.0
 10
4.745549350880328
 20
-23.64287797929369
 30
0.0
 10
4.740541246120834
 20
-23.59364264619626
 30
0.0
 10
4.734416917200994
 20
-23.55197417549468
 30
0.0
 10
4.728959542407771
 20
-23.52689047306062
 30
0.0
 10
4.726512002537347
 20
-23.5156408587073
 30
0.0
  0
SPLINE
  5
B1
330
1F
100
AcDbEntity
  8
0
  6
Continuous
 62
     7
370
    15
100
AcDbSpline
210
0.0
220
0.0
230
1.0
 70
     8
 71
     3
 72
    23
 73
    19
 74
     0
 42
0.000000001
 43
0.00000001
 40
0.0
 40
0.0
 40
0.0
 40
0.0
 40
0.0772404236164787
 40
0.1511781404663823
 40
0.2234879838003994
 40
0.2955426441988699
 40
0.3669762546197899
 40
0.4371305254863862
 40
0.5070436156432687
 40
0.578559733523678
 40
0.6166135446965527
 40
0.6587562369775279
 40
0.7044912261144027
 40
0.7548031149051502
 40
0.8093316253185644
 40
0.8682744554728192
 40
0.9320728834092922
 40
0.9999999999999999
 40
0.9999999999999999
 40
0.9999999999999999
 40
0.9999999999999999
 10
4.223369057158074
 20
-22.83584401709406
 30
0.0
 10
4.262726733265704
 20
-22.83729523020796
 30
0.0
 10
4.339759199019302
 20
-22.84013560432435
 30
0.0
 10
4.451916729823309
 20
-22.86260126949228
 30
0.0
 10
4.556669605406899
 20
-22.90097324652153
 30
0.0
 10
4.653644319356874
 20
-22.95353709316026
 30
0.0
 10
4.741062603325689
 20
-23.01890211896092
 30
0.0
 10
4.817835113749623
 20
-23.09505340534042
 30
0.0
 10
4.881334790289199
 20
-23.18264537455478
 30
0.0
 10
4.923907835593123
 20
-23.26390683244915
 30
0.0
 10
4.951952317631403
 20
-23.33599269292479
 30
0.0
 10
4.969608017337836
 20
-23.39773240119152
 30
0.0
 10
4.984601637039471
 20
-23.46651648284819
 30
0.0
 10
4.997600179885137
 20
-23.54213708160354
 30
0.0
 10
5.006395552074905
 20
-23.62512402909315
 30
0.0
 10
5.013332564735144
 20
-23.71513713968715
 30
0.0
 10
5.018304133735591
 20
-23.81214725653378
 30
0.0
 10
5.018501382640645
 20
-23.87924202944545
 30
0.0
 10
5.018603098290552
 20
-23.91384089543273
 30
0.0
  0
SPLINE
  5
B2
330
1F
100
AcDbEntity
  8
0
  6
Continuous
 62
     7
370
    15
100
AcDbSpline
210
0.0
220
0.0
230
1.0
 70
     8
 71
     3
 72
    15
 73
    11
 74
     0
 42
0.000000001
 43
0.00000001
 40
0.0
 40
0.0
 40
0.0
 40
0.0
 40
0.1409759662687722
 40
0.2735687809631701
 40
0.3989883138042533
 40
0.5199297813924312
 40
0.6381100215247442
 40
0.7565889007405946
 40
0.8768597544106072
 40
0.9999999999999999
 40
0.9999999999999999
 40
0.9999999999999999
 40
0.9999999999999999
 10
3.414142628205082
 20
-23.25678168402782
 30
0.0
 10
3.442030768847679
 20
-23.22198746747772
 30
0.0
 10
3.496148678735805
 20
-23.15446807634951
 30
0.0
 10
3.586275413013039
 20
-23.06572483667068
 30
0.0
 10
3.681524120602734
 20
-22.99259419417809
 30
0.0
 10
3.781311500883427
 20
-22.93429955123748
 30
0.0
 10
3.885773015829617
 20
-22.89035506508886
 30
0.0
 10
3.994271910554882
 20
-22.85861827596585
 30
0.0
 10
4.107457770319558
 20
-22.83958845128139
 30
0.0
 10
4.184429507410235
 20
-22.83710193239542
 30
0.0
 10
4.223369057158075
 20
-22.83584401709406
 30
0.0
  0
SPLINE
  5
C3
330
1F
100
AcDbEntity
  8
0
  6
Continuous
 62
     7
370
    15
100
AcDbSpline
210
0.0
220
0.0
230
1.0
 70
     8
 71
     3
 72
    23
 73
    19
 74
     0
 42
0.000000001
 43
0.00000001
 40
0.0
 40
0.0
 40
0.0
 40
0.0
 40
0.0611602766365178
 40
0.1203345577262023
 40
0.1781802550631266
 40
0.2352351259863641
 40
0.2926829614441804
 40
0.3511862482150804
 40
0.4104566095096927
 40
0.4717198544629951
 40
0.5337612027725892
 40
0.5957390238870944
 40
0.6578875151248842
 40
0.7212951802914607
 40
0.7868225145418887
 40
0.8546861538286837
 40
0.9254779862699953
 40
1.0
 40
1.0
 40
1.0
 40
1.0
 10
9.869297542734985
 20
-24.17386610243059
 30
0.0
 10
9.868485248750105
 20
-24.20227748359386
 30
0.0
 10
9.866887037577923
 20
-24.25817767199538
 30
0.0
 10
9.855095715792183
 20
-24.34029726899957
 30
0.0
 10
9.835131000038444
 20
-24.41877453115319
 30
0.0
 10
9.807630767019706
 20
-24.49411705510429
 30
0.0
 10
9.771739247082893
 20
-24.56617908358972
 30
0.0
 10
9.72805974340967
 20
-24.63504225608327
 30
0.0
 10
9.675978615801865
 20
-24.70001467267044
 30
0.0
 10
9.61771800394125
 20
-24.76181830450074
 30
0.0
 10
9.551807755579533
 20
-24.81738879194935
 30
0.0
 10
9.480697333182622
 20
-24.86687893613611
 30
0.0
 10
9.40349119693773
 20
-24.90757991755002
 30
0.0
 10
9.321457366199052
 20
-24.94176984733541
 30
0.0
 10
9.233675610477869
 20
-24.96788642843998
 30
0.0
 10
9.14054010900069
 20
-24.98615766995029
 30
0.0
 10
9.04213118658196
 20
-24.99846876321639
 30
0.0
 10
8.974601411401734
 20
-24.99948092704867
 30
0.0
 10
8.939969784989259
 20
-25.00000000000004
 30
0.0
  0
SPLINE
  5
C4
330
1F
100
AcDbEntity
  8
0
  6
Continuous
 62
     7
370
    15
100
AcDbSpline
210
0.0
220
0.0
230
1.0
 70
     8
 71
     3
 72
    19
 73
    15
 74
     0
 42
0.000000001
 43
0.00000001
 40
0.0
 40
0.0
 40
0.0
 40
0.0
 40
0.1060574933033963
 40
0.2029142570846099
 40
0.2903001653958374
 40
0.3702225656250387
 40
0.4463837207709706
 40
0.5213968999648266
 40
0.5982910828464563
 40
0.6761424688569271
 40
0.755528699556023
 40
0.8348871724576593
 40
0.9166460487466409
 40
1.0
 40
1.0
 40
1.0
 40
1.0
 10
9.309019013755286
 20
-23.42993748330666
 30
0.0
 10
9.34208170265405
 20
-23.4426310568305
 30
0.0
 10
9.405338816754618
 20
-23.46691700741365
 30
0.0
 10
9.492390221140003
 20
-23.50985435455882
 30
0.0
 10
9.567391529746905
 20
-23.55655582373545
 30
0.0
 10
9.630919394592931
 20
-23.60755617769423
 30
0.0
 10
9.685250765973011
 20
-23.66252880190483
 30
0.0
 10
9.732693003697607
 20
-23.72227975107445
 30
0.0
 10
9.773173884473062
 20
-23.78758846819034
 30
0.0
 10
9.80786016674755
 20
-23.85777402706016
 30
0.0
 10
9.834926007324114
 20
-23.93211976294976
 30
0.0
 10
9.855195732564903
 20
-24.00992831902598
 30
0.0
 10
9.866810331637952
 20
-24.09092068724415
 30
0.0
 10
9.868463150010358
 20
-24.14604013661073
 30
0.0
 10
9.869297542734985
 20
-24.17386610243059
 30
0.0
  0
SPLINE
  5
C5
330
1F
100
AcDbEntity
  8
0
  6
Continuous
 62
     7
370
    15
100
AcDbSpline
210
0.0
220
0.0
230
1.0
 70
     8
 71
     3
 72
    15
 73
    11
 74
     0
 42
0.000000001
 43
0.00000001
 40
0.0
 40
0.0
 40
0.0
 40
0.0
 40
0.1305691070873086
 40
0.2565806086940814
 40
0.3805516168036836
 40
0.5036229172007095
 40
0.6257393231697875
 40
0.7475485819596277
 40
0.8717661185648728
 40
1.0
 40
1.0
 40
1.0
 40
1.0
 10
9.64541933760678
 20
-22.81077432224897
 30
0.0
 10
9.644510274413774
 20
-22.84291576289309
 30
0.0
 10
9.642723879510669
 20
-22.90607672484449
 30
0.0
 10
9.62564159689885
 20
-22.99845676690952
 30
0.0
 10
9.598898469630964
 20
-23.08639394113678
 30
0.0
 10
9.561723926129758
 20
-23.16956731758167
 30
0.0
 10
9.51340934952932
 20
-23.24609764946528
 30
0.0
 10
9.456150378591726
 20
-23.3166022986706
 30
0.0
 10
9.387068061282273
 20
-23.3780961240408
 30
0.0
 10
9.335309843268506
 20
-23.41247471622138
 30
0.0
 10
9.309019013755286
 20
-23.42993748330666
 30
0.0
  0
SPLINE
  5
C6
330
1F
100
AcDbEntity
  8
0
  6
Continuous
 62
     7
370
    15
100
AcDbSpline
210
0.0
220
0.0
230
1.0
 70
     8
 71
     3
 72
    23
 73
    19
 74
     0
 42
0.000000001
 43
0.00000001
 40
0.0
 40
0.0
 40
0.0
 40
0.0
 40
0.0625940971873318
 40
0.1213229386347487
 40
0.1766801421977651
 40
0.228365095709675
 40
0.276868445836807
 40
0.3218791276660447
 40
0.3640986251098912
 40
0.4033556962427013
 40
0.4779679481633697
 40
0.5505354613647744
 40
0.6235844567403234
 40
0.698174882264203
 40
0.7733536703408753
 40
0.8472811254977315
 40
0.9228183395566686
 40
1.0
 40
1.0
 40
1.0
 40
1.0
 10
8.720755709134558
 20
-22.08958333333337
 30
0.0
 10
8.748553080579999
 20
-22.08972947816151
 30
0.0
 10
8.802431304591911
 20
-22.09001274321065
 30
0.0
 10
8.880779257112591
 20
-22.09440591833703
 30
0.0
 10
8.954162345484514
 20
-22.10039611287302
 30
0.0
 10
9.02260185142124
 20
-22.1099007791968
 30
0.0
 10
9.086066149778583
 20
-22.12136929864444
 30
0.0
 10
9.144746500505518
 20
-22.13525765404813
 30
0.0
 10
9.198456304469103
 20
-22.15191073695387
 30
0.0
 10
9.262579216825891
 20
-22.17839243628824
 30
0.0
 10
9.335689433044783
 20
-22.21774390425523
 30
0.0
 10
9.414851429834108
 20
-22.27589283610831
 30
0.0
 10
9.482542931253732
 20
-22.34701715216735
 30
0.0
 10
9.540906196245166
 20
-22.42724707456482
 30
0.0
 10
9.587307484398076
 20
-22.51550402286017
 30
0.0
 10
9.620876477463565
 20
-22.60968443162337
 30
0.0
 10
9.642129067865978
 20
-22.70857352296957
 30
0.0
 10
9.644314736080029
 20
-22.77646371314627
 30
0.0
 10
9.64541933760678
 20
-22.81077432224897
 30
0.0
  0
SPLINE
  5
CA
330
1F
100
AcDbEntity
  8
0
  6
Continuous
 62
     7
370
    15
100
AcDbSpline
210
0.0
220
0.0
230
1.0
 70
     8
 71
     3
 72
    15
 73
    11
 74
     0
 42
0.000000001
 43
0.00000001
 40
0.0
 40
0.0
 40
0.0
 40
0.0
 40
0.1298621417207369
 40
0.254653530897287
 40
0.3760145541937129
 40
0.4952552518176075
 40
0.6147977192994586
 40
0.7381055541683318
 40
0.8651963000723576
 40
1.0
 40
1.0
 40
1.0
 40
1.0
 10
14.08333834134608
 20
-22.83584401709406
 30
0.0
 10
14.12674500986449
 20
-22.83703957596547
 30
0.0
 10
14.21186343819345
 20
-22.83938401048631
 30
0.0
 10
14.33636940780402
 20
-22.8588943855248
 30
0.0
 10
14.45415353615596
 20
-22.89185565851009
 30
0.0
 10
14.56612504198097
 20
-22.93669062561655
 30
0.0
 10
14.67188183869197
 20
-22.99626995569239
 30
0.0
 10
14.77042271314993
 20
-23.07142519709123
 30
0.0
 10
14.86277895135291
 20
-23.16168236268484
 30
0.0
 10
14.91631422959573
 20
-23.23100885728216
 30
0.0
 10
14.94387019230762
 20
-23.26669295873402
 30
0.0
  0
SPLINE
  5
CB
330
1F
100
AcDbEntity
  8
0
  6
Continuous
 62
     7
370
    15
100
AcDbSpline
210
0.0
220
0.0
230
1.0
 70
     8
 71
     3
 72
    23
 73
    19
 74
     0
 42
0.000000001
 43
0.00000001
 40
0.0
 40
0.0
 40
0.0
 40
0.0
 40
0.0637745323056327
 40
0.1260788099895065
 40
0.1869040927472069
 40
0.2475739349176193
 40
0.3080033561644472
 40
0.3691318984609778
 40
0.4320332277442051
 40
0.4967907944370908
 40
0.5616108232295651
 40
0.6249138657484631
 40
0.686726349241925
 40
0.7480788332577716
 40
0.8095822911398957
 40
0.8716307425688279
 40
0.9348858208285535
 40
1.0
 40
1.0
 40
1.0
 40
1.0
 10
12.96627938034181
 20
-23.93074836404918
 30
0.0
 10
12.96732128571364
 20
-23.89377467721199
 30
0.0
 10
12.96938107642717
 20
-23.82067969291609
 30
0.0
 10
12.9847258074491
 20
-23.71317829941237
 30
0.0
 10
13.01052956881629
 20
-23.60963543617169
 30
0.0
 10
13.04674167785751
 20
-23.51038445421718
 30
0.0
 10
13.09317692255005
 20
-23.41530525775433
 30
0.0
 10
13.14966236157871
 20
-23.32433060123893
 30
0.0
 10
13.21620207420029
 20
-23.23720985823033
 30
0.0
 10
13.29291434360618
 20
-23.15599158211972
 30
0.0
 10
13.37601486379499
 20
-23.08096884513499
 30
0.0
 10
13.46491456444308
 20
-23.01576799008551
 30
0.0
 10
13.55740201920807
 20
-22.95945820568314
 30
0.0
 10
13.65491179641032
 20
-22.91484278520698
 30
0.0
 10
13.75600063297291
 20
-22.87874604767804
 30
0.0
 10
13.86156846851391
 20
-22.85377220456112
 30
0.0
 10
13.97117607292449
 20
-22.83905603922047
 30
0.0
 10
14.04559167852822
 20
-22.83692497879245
 30
0.0
 10
14.08333834134608
 20
-22.83584401709406
 30
0.0
  0
SPLINE
  5
CC
330
1F
100
AcDbEntity
  8
0
  6
Continuous
 62
     7
370
    15
100
AcDbSpline
210
0.0
220
0.0
230
1.0
 70
     8
 71
     3
 72
    23
 73
    19
 74
     0
 42
0.000000001
 43
0.00000001
 40
0.0
 40
0.0
 40
0.0
 40
0.0
 40
0.0646199913407677
 40
0.127433484144469
 40
0.1890041265579397
 40
0.249930070686047
 40
0.3106684537406717
 40
0.3723289611368234
 40
0.4349391099970077
 40
0.4995755441940334
 40
0.5641912077719239
 40
0.6267352169294788
 40
0.6881093335614018
 40
0.7492936065367507
 40
0.8103305278109458
 40
0.8719011702244152
 40
0.935045914684531
 40
0.9999999999999999
 40
0.9999999999999999
 40
0.9999999999999999
 40
0.9999999999999999
 10
14.07517611511745
 20
-25.03731303418807
 30
0.0
 10
14.03761681065075
 20
-25.0362932472476
 30
0.0
 10
13.9635481992052
 20
-25.03428218224721
 30
0.0
 10
13.85459128208432
 20
-25.01868043334559
 30
0.0
 10
13.74973957227161
 20
-24.99362538665869
 30
0.0
 10
13.64889399012368
 20
-24.95878280176583
 30
0.0
 10
13.55270709299783
 20
-24.9125647018679
 30
0.0
 10
13.46035533403876
 20
-24.85723248549059
 30
0.0
 10
13.37231714906811
 20
-24.79133996190568
 30
0.0
 10
13.28993444672733
 20
-24.71601170261462
 30
0.0
 10
13.21407069403379
 20
-24.63419158529585
 30
0.0
 10
13.1474959334069
 20
-24.5469243656622
 30
0.0
 10
13.09198756878959
 20
-24.45458740224668
 30
0.0
 10
13.04557051358241
 20
-24.35834977368566
 30
0.0
 10
13.00981700573497
 20
-24.25747064119217
 30
0.0
 10
12.98489250153359
 20
-24.15229885332797
 30
0.0
 10
12.96930892769977
 20
-24.04295876205703
 30
0.0
 10
12.96729869402305
 20
-23.96850238481622
 30
0.0
 10
12.96627938034181
 20
-23.93074836404918
 30
0.0
  0
SPLINE
  5
CD
330
1F
100
AcDbEntity
  8
0
  6
Continuous
 62
     7
370
    15
100
AcDbSpline
210
0.0
220
0.0
230
1.0
 70
     8
 71
     3
 72
    15
 73
    11
 74
     0
 42
0.000000001
 43
0.00000001
 40
0.0
 40
0.0
 40
0.0
 40
0.0
 40
0.1342983790141676
 40
0.2620849753823005
 40
0.3862699121345012
 40
0.5071645966227999
 40
0.6273002357255054
 40
0.7481449416029932
 40
0.8723701771613525
 40
1.0
 40
1.0
 40
1.0
 40
1.0
 10
14.94387019230762
 20
-24.63211680355239
 30
0.0
 10
14.91441778129289
 20
-24.66541163257566
 30
0.0
 10
14.85694103084804
 20
-24.73038691008069
 30
0.0
 10
14.76094624405867
 20
-24.81527309756259
 30
0.0
 10
14.65919127707666
 20
-24.88543768993845
 30
0.0
 10
14.55216999992214
 20
-24.94210759007741
 30
0.0
 10
14.43997905590284
 20
-24.98467622263889
 30
0.0
 10
14.3228671428523
 20
-25.01493304662624
 30
0.0
 10
14.20078648864445
 20
-25.0343861345641
 30
0.0
 10
14.11742188171491
 20
-25.03632864798735
 30
0.0
 10
14.07517611511745
 20
-25.03731303418807
 30
0.0
  0
CIRCLE
  5
104
330
1F
100
AcDbEntity
  8
0
  6
Continuous
 62
     7
370
    15
100
AcDbCircle
 10
21.8725478712
 20
0.0
 30
0.0
 40
2.099999999999998
  0
CIRCLE
  5
105
330
1F
100
AcDbEntity
  8
0
  6
Continuous
 62
     7
370
    15
100
AcDbCircle
 10
56.8725478712
 20
0.0
 30
0.0
 40
2.099999999999994
  0
CIRCLE
  5
106
330
1F
100
AcDbEntity
  8
0
  6
Continuous
 62
     7
370
    15
100
AcDbCircle
 10
39.3725478712
 20
8.0
 30
0.0
 40
5.000000000000007
  0
CIRCLE
  5
107
330
1F
100
AcDbEntity
  8
0
  6
Continuous
 62
     7
370
    15
100
AcDbCircle
 10
-38.1274521288
 20
15.5
 30
0.0
 40
1.499999999999993
  0
CIRCLE
  5
108
330
1F
100
AcDbEntity
  8
0
  6
Continuous
 62
     7
370
    15
100
AcDbCircle
 10
-13.1274521288
 20
15.5
 30
0.0
 40
1.499999999999996
  0
CIRCLE
  5
109
330
1F
100
AcDbEntity
  8
0
  6
Continuous
 62
     7
370
    15
100
AcDbCircle
 10
-13.1274521288
 20
-15.5
 30
0.0
 40
1.499999999999996
  0
CIRCLE
  5
10A
330
1F
100
AcDbEntity
  8
0
  6
Continuous
 62
     7
370
    15
100
AcDbCircle
 10
-38.1274521288
 20
-15.5
 30
0.0
 40
1.499999999999993
  0
SPLINE
  5
10B
330
1F
100
AcDbEntity
  8
0
  6
Continuous
 62
     7
370
    15
100
AcDbSpline
210
0.0
220
0.0
230
1.0
 70
     8
 71
     3
 72
    15
 73
    11
 74
     0
 42
0.000000001
 43
0.00000001
 40
0.0
 40
0.0
 40
0.0
 40
0.0
 40
0.1288840014739248
 40
0.2529849718578357
 40
0.3742104371825964
 40
0.4941015128996908
 40
0.6147527632399882
 40
0.738511070373329
 40
0.8662425140769318
 40
1.0
 40
1.0
 40
1.0
 40
1.0
 10
18.03851996527774
 20
-22.83584401709406
 30
0.0
 10
18.08194072741766
 20
-22.83714713207106
 30
0.0
 10
18.16717085809635
 20
-22.83970500195417
 30
0.0
 10
18.29181861677307
 20
-22.86108107023088
 30
0.0
 10
18.40972176672587
 20
-22.89697305850521
 30
0.0
 10
18.5215590902346
 20
-22.94611027278265
 30
0.0
 10
18.62666384893843
 20
-23.00997375465599
 30
0.0
 10
18.72580647804712
 20
-23.08710100027431
 30
0.0
 10
18.81726284834976
 20
-23.17967482353676
 30
0.0
 10
18.87137316745019
 20
-23.24920182837164
 30
0.0
 10
18.89905181623927
 20
-23.28476645966884
 30
0.0
  0
SPLINE
  5
10C
330
1F
100
AcDbEntity
  8
0
  6
Continuous
 62
     7
370
    15
100
AcDbSpline
210
0.0
220
0.0
230
1.0
 70
     8
 71
     3
 72
    23
 73
    19
 74
     0
 42
0.000000001
 43
0.00000001
 40
0.0
 40
0.0
 40
0.0
 40
0.0
 40
0.0637745323056325
 40
0.1260788099895064
 40
0.1869040927472068
 40
0.2475739349176191
 40
0.308003356164447
 40
0.3691318984609769
 40
0.4320332277442047
 40
0.4967907944370897
 40
0.5616108232295655
 40
0.6249138657484617
 40
0.6867263492419252
 40
0.7480788332577699
 40
0.8095822911398949
 40
0.871630742568827
 40
0.9348858208285536
 40
1.0
 40
1.0
 40
1.0
 40
1.0
 10
16.92146100427346
 20
-23.93074836404918
 30
0.0
 10
16.9225029096453
 20
-23.89377467721198
 30
0.0
 10
16.92456270035882
 20
-23.82067969291609
 30
0.0
 10
16.93990743138075
 20
-23.71317829941237
 30
0.0
 10
16.96571119274795
 20
-23.6096354361717
 30
0.0
 10
17.00192330178916
 20
-23.51038445421718
 30
0.0
 10
17.04835854648171
 20
-23.41530525775433
 30
0.0
 10
17.10484398551036
 20
-23.32433060123894
 30
0.0
 10
17.17138369813195
 20
-23.23720985823032
 30
0.0
 10
17.24809596753784
 20
-23.15599158211971
 30
0.0
 10
17.33119648772666
 20
-23.080968845135
 30
0.0
 10
17.42009618837472
 20
-23.01576799008552
 30
0.0
 10
17.51258364313973
 20
-22.95945820568314
 30
0.0
 10
17.61009342034197
 20
-22.91484278520697
 30
0.0
 10
17.71118225690456
 20
-22.87874604767804
 30
0.0
 10
17.81675009244556
 20
-22.85377220456112
 30
0.0
 10
17.92635769685615
 20
-22.83905603922048
 30
0.0
 10
18.00077330245988
 20
-22.83692497879245
 30
0.0
 10
18.03851996527774
 20
-22.83584401709406
 30
0.0
  0
SPLINE
  5
10D
330
1F
100
AcDbEntity
  8
0
  6
Continuous
 62
     7
370
    15
100
AcDbSpline
210
0.0
220
0.0
230
1.0
 70
     8
 71
     3
 72
    23
 73
    19
 74
     0
 42
0.000000001
 43
0.00000001
 40
0.0
 40
0.0
 40
0.0
 40
0.0
 40
0.0646199913407686
 40
0.1274334841444709
 40
0.1890041265579404
 40
0.2499300706860486
 40
0.3106684537406733
 40
0.3723289611368242
 40
0.4349391099970084
 40
0.4995755441940339
 40
0.5641912077719236
 40
0.6267352169294796
 40
0.6881093335614016
 40
0.7492936065367513
 40
0.8103305278109463
 40
0.8719011702244154
 40
0.9350459146845314
 40
1.0
 40
1.0
 40
1.0
 40
1.0
 10
18.0303577390491
 20
-25.03731303418807
 30
0.0
 10
17.9927984345824
 20
-25.0362932472476
 30
0.0
 10
17.91872982313686
 20
-25.03428218224722
 30
0.0
 10
17.80977290601598
 20
-25.01868043334559
 30
0.0
 10
17.70492119620327
 20
-24.9936253866587
 30
0.0
 10
17.60407561405533
 20
-24.95878280176584
 30
0.0
 10
17.50788871692947
 20
-24.91256470186789
 30
0.0
 10
17.41553695797041
 20
-24.8572324854906
 30
0.0
 10
17.32749877299975
 20
-24.79133996190567
 30
0.0
 10
17.24511607065899
 20
-24.71601170261462
 30
0.0
 10
17.16925231796545
 20
-24.63419158529585
 30
0.0
 10
17.10267755733855
 20
-24.5469243656622
 30
0.0
 10
17.04716919272125
 20
-24.45458740224668
 30
0.0
 10
17.00075213751406
 20
-24.35834977368566
 30
0.0
 10
16.96499862966662
 20
-24.25747064119218
 30
0.0
 10
16.94007412546525
 20
-24.15229885332797
 30
0.0
 10
16.92449055163141
 20
-24.04295876205704
 30
0.0
 10
16.9224803179547
 20
-23.96850238481622
 30
0.0
 10
16.92146100427346
 20
-23.93074836404918
 30
0.0
  0
SPLINE
  5
10E
330
1F
100
AcDbEntity
  8
0
  6
Continuous
 62
     7
370
    15
100
AcDbSpline
210
0.0
220
0.0
230
1.0
 70
     8
 71
     3
 72
    15
 73
    11
 74
     0
 42
0.000000001
 43
0.00000001
 40
0.0
 40
0.0
 40
0.0
 40
0.0
 40
0.1342983790141668
 40
0.2620849753823001
 40
0.3862699121345012
 40
0.5071645966228002
 40
0.6273002357255061
 40
0.7481449416029959
 40
0.8723701771613538
 40
1.0
 40
1.0
 40
1.0
 40
1.0
 10
18.89905181623927
 20
-24.63211680355239
 30
0.0
 10
18.86959940522454
 20
-24.66541163257566
 30
0.0
 10
18.8121226547797
 20
-24.7303869100807
 30
0.0
 10
18.71612786799032
 20
-24.81527309756258
 30
0.0
 10
18.61437290100831
 20
-24.88543768993846
 30
0.0
 10
18.5073516238538
 20
-24.94210759007741
 30
0.0
 10
18.39516067983449
 20
-24.98467622263889
 30
0.0
 10
18.27804876678394
 20
-25.01493304662623
 30
0.0
 10
18.15596811257612
 20
-25.03438613456412
 30
0.0
 10
18.07260350564657
 20
-25.03632864798735
 30
0.0
 10
18.0303577390491
 20
-25.03731303418807
 30
0.0
  0
SPLINE
  5
115
330
1F
100
AcDbEntity
  8
0
  6
Continuous
 62
     7
370
    15
100
AcDbSpline
210
0.0
220
0.0
230
1.0
 70
     8
 71
     3
 72
    15
 73
    11
 74
     0
 42
0.000000001
 43
0.00000001
 40
0.0
 40
0.0
 40
0.0
 40
0.0
 40
0.0708548685015328
 40
0.1569381495573537
 40
0.2586003949600837
 40
0.3758909295892014
 40
0.5081661676989037
 40
0.6562378085782268
 40
0.8201767703979113
 40
1.0
 40
1.0
 40
1.0
 40
1.0
 10
16.03527644230765
 20
-23.55528595753209
 30
0.0
 10
16.03134123187252
 20
-23.57214739294258
 30
0.0
 10
16.02262503979048
 20
-23.60949419109725
 30
0.0
 10
16.01415029076217
 20
-23.67215007742838
 30
0.0
 10
16.00577700706382
 20
-23.74617748891249
 30
0.0
 10
15.99987583097097
 20
-23.83178248311388
 30
0.0
 10
15.99440587570203
 20
-23.92875128321366
 30
0.0
 10
15.99132076565959
 20
-24.03723161418758
 30
0.0
 10
15.98874035651804
 20
-24.15733482344082
 30
0.0
 10
15.98867128245933
 20
-24.24129980645595
 30
0.0
 10
15.98863514957261
 20
-24.28522218883551
 30
0.0
  0
SPLINE
  5
116
330
1F
100
AcDbEntity
  8
0
  6
Continuous
 62
     7
370
    15
100
AcDbSpline
210
0.0
220
0.0
230
1.0
 70
     8
 71
     3
 72
    19
 73
    15
 74
     0
 42
0.000000001
 43
0.00000001
 40
0.0
 40
0.0
 40
0.0
 40
0.0
 40
0.0938065293523304
 40
0.1913381281363372
 40
0.295190616625171
 40
0.4103123367232963
 40
0.4719302510512788
 40
0.5364251593464318
 40
0.6031187283036333
 40
0.6741176724905988
 40
0.749332023225885
 40
0.8282833841715622
 40
0.9120398092627625
 40
1.0
 40
1.0
 40
1.0
 40
1.0
 10
16.45796315771898
 20
-23.0970352564103
 30
0.0
 10
16.43700339003154
 20
-23.09843228748404
 30
0.0
 10
16.39425153956681
 20
-23.10128182591642
 30
0.0
 10
16.33148258380763
 20
-23.12368272737505
 30
0.0
 10
16.2705740444711
 20
-23.15987603715962
 30
0.0
 10
16.22220153715955
 20
-23.20001576528798
 30
0.0
 10
16.18474675902495
 20
-23.2387224754414
 30
0.0
 10
16.15802063100919
 20
-23.27252355781408
 30
0.0
 10
16.13350432297688
 20
-23.310424360341
 30
0.0
 10
16.1100794432748
 20
-23.35177696050365
 30
0.0
 10
16.0887366974354
 20
-23.3972874336626
 30
0.0
 10
16.06881724929397
 20
-23.44650109387117
 30
0.0
 10
16.05080687339958
 20
-23.49947494202081
 30
0.0
 10
16.04053705722026
 20
-23.53638112103732
 30
0.0
 10
16.03527644230765
 20
-23.55528595753209
 30
0.0
  0
SPLINE
  5
117
330
1F
100
AcDbEntity
  8
0
  6
Continuous
 62
     7
370
    15
100
AcDbSpline
210
0.0
220
0.0
230
1.0
 70
     8
 71
     3
 72
    11
 73
     7
 74
     0
 42
0.000000001
 43
0.00000001
 40
0.0
 40
0.0
 40
0.0
 40
0.0
 40
0.2951388013693739
 40
0.5602299448882276
 40
0.7949833567408866
 40
1.0
 40
1.0
 40
1.0
 40
1.0
 10
16.59147385817304
 20
-23.13493130675752
 30
0.0
 10
16.57890998761471
 20
-23.12932645451772
 30
0.0
 10
16.55506135613076
 20
-23.11868737200184
 30
0.0
 10
16.52017413644182
 20
-23.10609606952896
 30
0.0
 10
16.48800876298167
 20
-23.09868206093381
 30
0.0
 10
16.46751647070017
 20
-23.09755887505251
 30
0.0
 10
16.45796315771898
 20
-23.0970352564103
 30
0.0
  0
SPLINE
  5
119
330
1F
100
AcDbEntity
  8
0
  6
Continuous
 62
     7
370
    15
100
AcDbSpline
210
0.0
220
0.0
230
1.0
 70
     8
 71
     3
 72
    11
 73
     7
 74
     0
 42
0.000000001
 43
0.00000001
 40
0.0
 40
0.0
 40
0.0
 40
0.0
 40
0.2252775478670063
 40
0.4635231951764745
 40
0.7203235553269306
 40
1.0
 40
1.0
 40
1.0
 40
1.0
 10
16.50751953124996
 20
-22.83584401709406
 30
0.0
 10
16.52566916107252
 20
-22.83683399664947
 30
0.0
 10
16.56301320394887
 20
-22.83887094392199
 30
0.0
 10
16.61954396463728
 20
-22.85318256417477
 30
0.0
 10
16.67778843030259
 20
-22.87603184840485
 30
0.0
 10
16.71532647493891
 20
-22.89751922403758
 30
0.0
 10
16.73489583333329
 20
-22.90872103699256
 30
0.0
  0
SPLINE
  5
11A
330
1F
100
AcDbEntity
  8
0
  6
Continuous
 62
     7
370
    15
100
AcDbSpline
210
0.0
220
0.0
230
1.0
 70
     8
 71
     3
 72
    15
 73
    11
 74
     0
 42
0.000000001
 43
0.00000001
 40
0.0
 40
0.0
 40
0.0
 40
0.0
 40
0.1600594124854964
 40
0.30611238274013
 40
0.4383665141302061
 40
0.5605414552552174
 40
0.6753172249527052
 40
0.7861136344281792
 40
0.892841788105089
 40
1.0
 40
1.0
 40
1.0
 40
1.0
 10
15.98863514957261
 20
-23.18623672876607
 30
0.0
 10
16.00791770670092
 20
-23.15708613818793
 30
0.0
 10
16.04479544738616
 20
-23.1013358602031
 30
0.0
 10
16.1060912582833
 20
-23.0276031140807
 30
0.0
 10
16.16887587363802
 20
-22.96655500686872
 30
0.0
 10
16.23344985974614
 20
-22.9179065451297
 30
0.0
 10
16.30028807735
 20
-22.8814738504887
 30
0.0
 10
16.36792362589168
 20
-22.85478696362021
 30
0.0
 10
16.43742060886244
 20
-22.83900642231869
 30
0.0
 10
16.48412192323528
 20
-22.83689956424527
 30
0.0
 10
16.50751953124996
 20
-22.83584401709406
 30
0.0
  0
SPLINE
  5
11F
330
1F
100
AcDbEntity
  8
0
  6
Continuous
 62
     7
370
    15
100
AcDbSpline
210
0.0
220
0.0
230
1.0
 70
     8
 71
     3
 72
    23
 73
    19
 74
     0
 42
0.000000001
 43
0.00000001
 40
0.0
 40
0.0
 40
0.0
 40
0.0
 40
0.0687422616054893
 40
0.1346351922242771
 40
0.1983241870671477
 40
0.2608250125604213
 40
0.3227135881590254
 40
0.3845545346076188
 40
0.4469128577247569
 40
0.5109576325148287
 40
0.5749307010013367
 40
0.6366845377960934
 40
0.6974831152940624
 40
0.7571338075238542
 40
0.8169656636752651
 40
0.8768183516571958
 40
0.9376625803840037
 40
1.0
 40
1.0
 40
1.0
 40
1.0
 10
11.41895449385676
 20
-25.03731303418807
 30
0.0
 10
11.37926080150319
 20
-25.03629755138086
 30
0.0
 10
11.3015186996971
 20
-25.03430867700058
 30
0.0
 10
11.18782453496687
 20
-25.01894393654036
 30
0.0
 10
11.07973197684067
 20
-24.99336720936799
 30
0.0
 10
10.97726152914329
 20
-24.95688930023478
 30
0.0
 10
10.87985001057408
 20
-24.91090925403362
 30
0.0
 10
10.78855731043224
 20
-24.85385536692604
 30
0.0
 10
10.70274166639911
 20
-24.78686576164742
 30
0.0
 10
10.62368478411994
 20
-24.7102503425649
 30
0.0
 10
10.55217284861962
 20
-24.62708730149953
 30
0.0
 10
10.48908082917518
 20
-24.53965003734747
 30
0.0
 10
10.43595298058494
 20
-24.44867033464998
 30
0.0
 10
10.39241464080915
 20
-24.35397145913673
 30
0.0
 10
10.35846104399571
 20
-24.25596631133372
 30
0.0
 10
10.33473608181853
 20
-24.15435550597277
 30
0.0
 10
10.31948249280152
 20
-24.04956440011222
 30
0.0
 10
10.31786998180645
 20
-23.97841474694154
 30
0.0
 10
10.31705395299138
 20
-23.94240868723295
 30
0.0
  0
SPLINE
  5
120
330
1F
100
AcDbEntity
  8
0
  6
Continuous
 62
     7
370
    15
100
AcDbSpline
210
0.0
220
0.0
230
1.0
 70
     8
 71
     3
 72
    23
 73
    19
 74
     0
 42
0.000000001
 43
0.00000001
 40
0.0
 40
0.0
 40
0.0
 40
0.0
 40
0.0624160261588171
 40
0.1233369785373304
 40
0.1832651398530913
 40
0.2431724430697096
 40
0.302898353919745
 40
0.3637735975039109
 40
0.4256053049523819
 40
0.4896590425101852
 40
0.553784576792116
 40
0.6162215328110737
 40
0.6778544713083415
 40
0.7395168974879375
 40
0.8020965355763716
 40
0.8658658412779716
 40
0.9315077951965112
 40
1.0
 40
1.0
 40
1.0
 40
1.0
 10
12.51852297008539
 20
-23.94240868723294
 30
0.0
 10
12.51770694137521
 20
-23.97841474709946
 30
0.0
 10
12.51609443058739
 20
-24.04956440058222
 30
0.0
 10
12.50084084005268
 20
-24.15435550415753
 30
0.0
 10
12.4771158835226
 20
-24.2559663180215
 30
0.0
 10
12.44316226570348
 20
-24.35397143419553
 30
0.0
 10
12.39962400460754
 20
-24.44867042817986
 30
0.0
 10
12.34649585550969
 20
-24.53964967839213
 30
0.0
 10
12.28340499291388
 20
-24.62708868445317
 30
0.0
 10
12.21188857418085
 20
-24.71024497495233
 30
0.0
 10
12.13284841288116
 20
-24.78688557142048
 30
0.0
 10
12.04710242526107
 20
-24.85368235270975
 30
0.0
 10
11.95633564838606
 20
-24.91091072743753
 30
0.0
 10
11.85934114569276
 20
-24.95700874685052
 30
0.0
 10
11.75700467003565
 20
-24.99335544407387
 30
0.0
 10
11.64910548899828
 20
-25.01888396964128
 30
0.0
 10
11.53581122517234
 20
-25.03431889359103
 30
0.0
 10
11.45845466073867
 20
-25.03630094826097
 30
0.0
 10
11.41895449385676
 20
-25.03731303418807
 30
0.0
  0
SPLINE
  5
121
330
1F
100
AcDbEntity
  8
0
  6
Continuous
 62
     7
370
    15
100
AcDbSpline
210
0.0
220
0.0
230
1.0
 70
     8
 71
     3
 72
    15
 73
    11
 74
     0
 42
0.000000001
 43
0.00000001
 40
0.0
 40
0.0
 40
0.0
 40
0.0
 40
0.1281572795931868
 40
0.2538343627967353
 40
0.376505622522207
 40
0.4985336856679092
 40
0.6213677287324643
 40
0.7445647449043583
 40
0.870633798255283
 40
1.0
 40
1.0
 40
1.0
 40
1.0
 10
12.22701489049138
 20
-23.18623672876607
 30
0.0
 10
12.25028321777038
 20
-23.2130241919493
 30
0.0
 10
12.29636956609926
 20
-23.26608070711288
 30
0.0
 10
12.35546409535446
 20
-23.35210897574885
 30
0.0
 10
12.40637273793777
 20
-23.44120107130038
 30
0.0
 10
12.44717092632967
 20
-23.53454006853832
 30
0.0
 10
12.47933936566792
 20
-23.63131114925354
 30
0.0
 10
12.5021783999945
 20
-23.73184692877069
 30
0.0
 10
12.51576333934673
 20
-23.83592538054896
 30
0.0
 10
12.5175952112619
 20
-23.90661011971183
 30
0.0
 10
12.51852297008539
 20
-23.94240868723294
 30
0.0
  0
SPLINE
  5
122
330
1F
100
AcDbEntity
  8
0
  6
Continuous
 62
     7
370
    15
100
AcDbSpline
210
0.0
220
0.0
230
1.0
 70
     8
 71
     3
 72
    15
 73
    11
 74
     0
 42
0.000000001
 43
0.00000001
 40
0.0
 40
0.0
 40
0.0
 40
0.0
 40
0.131751427302404
 40
0.2583323505141586
 40
0.3821339760925433
 40
0.5038043916000845
 40
0.6246929865409308
 40
0.746870589727575
 40
0.871513504234815
 40
0.9999999999999999
 40
0.9999999999999999
 40
0.9999999999999999
 40
0.9999999999999999
 10
11.41895449385676
 20
-22.83584401709406
 30
0.0
 10
11.45886152252463
 20
-22.83669376823748
 30
0.0
 10
11.53710945295612
 20
-22.83835992256104
 30
0.0
 10
11.65170327234507
 20
-22.85616748626146
 30
0.0
 10
11.76108931693021
 20
-22.88339847914641
 30
0.0
 10
11.86568652553285
 20
-22.92104393879998
 30
0.0
 10
11.96415531407302
 20
-22.97150387029623
 30
0.0
 10
12.05792997360804
 20
-23.0317156439285
 30
0.0
 10
12.14675340302008
 20
-23.10304795536263
 30
0.0
 10
12.19999160056312
 20
-23.15822784912424
 30
0.0
 10
12.22701489049138
 20
-23.18623672876607
 30
0.0
  0
SPLINE
  5
123
330
1F
100
AcDbEntity
  8
0
  6
Continuous
 62
     7
370
    15
100
AcDbSpline
210
0.0
220
0.0
230
1.0
 70
     8
 71
     3
 72
    15
 73
    11
 74
     0
 42
0.000000001
 43
0.00000001
 40
0.0
 40
0.0
 40
0.0
 40
0.0
 40
0.1284975211375102
 40
0.2527129855154505
 40
0.3748191325670429
 40
0.4964364263727279
 40
0.6179105567458496
 40
0.741287617309289
 40
0.8687004007446076
 40
1.0
 40
1.0
 40
1.0
 40
1.0
 10
10.60856203258539
 20
-23.18798577724363
 30
0.0
 10
10.63554458119454
 20
-23.15973399740008
 30
0.0
 10
10.68861051083636
 20
-23.10417190120409
 30
0.0
 10
10.77787608978653
 20
-23.03304753444844
 30
0.0
 10
10.87142005888852
 20
-22.97158279922013
 30
0.0
 10
10.97097703615881
 20
-22.92212549387048
 30
0.0
 10
11.07548831744704
 20
-22.88317703597538
 30
0.0
 10
11.18543491376338
 20
-22.85609725941855
 30
0.0
 10
11.30041758941631
 20
-22.83842408269731
 30
0.0
 10
11.37904841719638
 20
-22.83671260984362
 30
0.0
 10
11.41895449385676
 20
-22.83584401709406
 30
0.0
  0
SPLINE
  5
124
330
1F
100
AcDbEntity
  8
0
  6
Continuous
 62
     7
370
    15
100
AcDbSpline
210
0.0
220
0.0
230
1.0
 70
     8
 71
     3
 72
    15
 73
    11
 74
     0
 42
0.000000001
 43
0.00000001
 40
0.0
 40
0.0
 40
0.0
 40
0.0
 40
0.1289191318119621
 40
0.2552377249249065
 40
0.3786785959785495
 40
0.50108788718513
 40
0.6227136794297771
 40
0.7462407949383822
 40
0.87158904723167
 40
0.9999999999999999
 40
0.9999999999999999
 40
0.9999999999999999
 40
0.9999999999999999
 10
10.31705395299137
 20
-23.94240868723294
 30
0.0
 10
10.3179880390414
 20
-23.90680469043985
 30
0.0
 10
10.31983736888826
 20
-23.83631489569814
 30
0.0
 10
10.33340864935064
 20
-23.73243209585906
 30
0.0
 10
10.35615859185589
 20
-23.63206646935716
 30
0.0
 10
10.38836559236008
 20
-23.53566891581596
 30
0.0
 10
10.42953983145249
 20
-23.44273894906154
 30
0.0
 10
10.47973311672513
 20
-23.35342671758064
 30
0.0
 10
10.53943044628411
 20
-23.26778745730157
 30
0.0
 10
10.5853334976476
 20
-23.21479951337347
 30
0.0
 10
10.60856203258539
 20
-23.18798577724363
 30
0.0
  0
SPLINE
  5
125
330
1F
100
AcDbEntity
  8
0
  6
Continuous
 62
     7
370
    15
100
AcDbSpline
210
0.0
220
0.0
230
1.0
 70
     8
 71
     3
 72
    23
 73
    19
 74
     0
 42
0.000000001
 43
0.00000001
 40
0.0
 40
0.0
 40
0.0
 40
0.0
 40
0.0687422616054891
 40
0.1346351922242766
 40
0.1983241870671472
 40
0.2608250125604215
 40
0.3227135881590249
 40
0.3845545346076187
 40
0.4469128577247566
 40
0.5109576325148286
 40
0.5749307010013365
 40
0.636684537796093
 40
0.697483115294062
 40
0.7571338075238542
 40
0.8169656636752651
 40
0.8768183516571958
 40
0.9376625803840037
 40
1.0
 40
1.0
 40
1.0
 40
1.0
 10
-0.9316598223825315
 20
-25.03731303418808
 30
0.0
 10
-0.9713535147361032
 20
-25.03629755138086
 30
0.0
 10
-1.049095616542187
 20
-25.03430867700058
 30
0.0
 10
-1.16278978127242
 20
-25.01894393654035
 30
0.0
 10
-1.270882339398617
 20
-24.99336720936799
 30
0.0
 10
-1.373352787096002
 20
-24.95688930023477
 30
0.0
 10
-1.470764305665214
 20
-24.9109092540336
 30
0.0
 10
-1.562057005807052
 20
-24.85385536692606
 30
0.0
 10
-1.647872649840181
 20
-24.78686576164742
 30
0.0
 10
-1.726929532119354
 20
-24.7102503425649
 30
0.0
 10
-1.798441467619669
 20
-24.62708730149952
 30
0.0
 10
-1.861533487064113
 20
-24.53965003734748
 30
0.0
 10
-1.914661335654353
 20
-24.44867033464996
 30
0.0
 10
-1.958199675430136
 20
-24.35397145913674
 30
0.0
 10
-1.992153272243584
 20
-24.25596631133371
 30
0.0
 10
-2.01587823442076
 20
-24.15435550597277
 30
0.0
 10
-2.03113182343777
 20
-24.04956440011222
 30
0.0
 10
-2.032744334432846
 20
-23.97841474694154
 30
0.0
 10
-2.033560363247916
 20
-23.94240868723295
 30
0.0
  0
SPLINE
  5
126
330
1F
100
AcDbEntity
  8
0
  6
Continuous
 62
     7
370
    15
100
AcDbSpline
210
0.0
220
0.0
230
1.0
 70
     8
 71
     3
 72
    23
 73
    19
 74
     0
 42
0.000000001
 43
0.00000001
 40
0.0
 40
0.0
 40
0.0
 40
0.0
 40
0.0624160261588172
 40
0.1233369785373303
 40
0.1832651398530913
 40
0.2431724430697097
 40
0.3028983539197452
 40
0.3637735975039108
 40
0.4256053049523817
 40
0.4896590425101848
 40
0.5537845767921159
 40
0.6162215328110733
 40
0.6778544713083419
 40
0.7395168974879377
 40
0.8020965355763715
 40
0.8658658412779714
 40
0.9315077951965113
 40
1.0
 40
1.0
 40
1.0
 40
1.0
 10
0.1679086538461006
 20
-23.94240868723294
 30
0.0
 10
0.1670926251359174
 20
-23.97841474709946
 30
0.0
 10
0.1654801143481013
 20
-24.04956440058222
 30
0.0
 10
0.1502265238133889
 20
-24.15435550415752
 30
0.0
 10
0.1265015672833074
 20
-24.2559663180215
 30
0.0
 10
0.0925479494641877
 20
-24.35397143419552
 30
0.0
 10
0.0490096883682525
 20
-24.44867042817985
 30
0.0
 10
-0.0041184607296078
 20
-24.53964967839214
 30
0.0
 10
-0.0672093233254106
 20
-24.62708868445316
 30
0.0
 10
-0.1387257420584357
 20
-24.71024497495234
 30
0.0
 10
-0.2177659033581353
 20
-24.78688557142047
 30
0.0
 10
-0.3035118909782147
 20
-24.85368235270975
 30
0.0
 10
-0.3942786678532348
 20
-24.91091072743754
 30
0.0
 10
-0.4912731705465272
 20
-24.95700874685052
 30
0.0
 10
-0.5936096462036395
 20
-24.99335544407386
 30
0.0
 10
-0.7015088272410064
 20
-25.01888396964129
 30
0.0
 10
-0.8148030910669489
 20
-25.03431889359104
 30
0.0
 10
-0.8921596555006183
 20
-25.03630094826098
 30
0.0
 10
-0.9316598223825314
 20
-25.03731303418807
 30
0.0
  0
SPLINE
  5
127
330
1F
100
AcDbEntity
  8
0
  6
Continuous
 62
     7
370
    15
100
AcDbSpline
210
0.0
220
0.0
230
1.0
 70
     8
 71
     3
 72
    15
 73
    11
 74
     0
 42
0.000000001
 43
0.00000001
 40
0.0
 40
0.0
 40
0.0
 40
0.0
 40
0.1281572795931862
 40
0.2538343627967347
 40
0.3765056225222069
 40
0.4985336856679091
 40
0.6213677287324644
 40
0.7445647449043583
 40
0.8706337982552829
 40
1.0
 40
1.0
 40
1.0
 40
1.0
 10
-0.1235994257479164
 20
-23.18623672876607
 30
0.0
 10
-0.1003310984689074
 20
-23.2130241919493
 30
0.0
 10
-0.0542447501400282
 20
-23.26608070711287
 30
0.0
 10
0.0048497791151744
 20
-23.35210897574886
 30
0.0
 10
0.0557584216984729
 20
-23.44120107130038
 30
0.0
 10
0.0965566100903839
 20
-23.53454006853832
 30
0.0
 10
0.1287250494286233
 20
-23.63131114925353
 30
0.0
 10
0.151564083755203
 20
-23.73184692877068
 30
0.0
 10
0.1651490231074426
 20
-23.83592538054896
 30
0.0
 10
0.1669808950226036
 20
-23.90661011971183
 30
0.0
 10
0.1679086538461006
 20
-23.94240868723295
 30
0.0
  0
SPLINE
  5
128
330
1F
100
AcDbEntity
  8
0
  6
Continuous
 62
     7
370
    15
100
AcDbSpline
210
0.0
220
0.0
230
1.0
 70
     8
 71
     3
 72
    15
 73
    11
 74
     0
 42
0.000000001
 43
0.00000001
 40
0.0
 40
0.0
 40
0.0
 40
0.0
 40
0.1317514273024045
 40
0.2583323505141579
 40
0.3821339760925439
 40
0.5038043916000843
 40
0.6246929865409313
 40
0.746870589727575
 40
0.8715135042348147
 40
1.0
 40
1.0
 40
1.0
 40
1.0
 10
-0.9316598223825314
 20
-22.83584401709406
 30
0.0
 10
-0.8917527937146565
 20
-22.83669376823748
 30
0.0
 10
-0.8135048632831665
 20
-22.83835992256104
 30
0.0
 10
-0.6989110438942177
 20
-22.85616748626147
 30
0.0
 10
-0.5895249993090824
 20
-22.88339847914639
 30
0.0
 10
-0.4849277907064398
 20
-22.92104393879999
 30
0.0
 10
-0.3864590021662679
 20
-22.97150387029623
 30
0.0
 10
-0.2926843426312513
 20
-23.0317156439285
 30
0.0
 10
-0.2038609132192078
 20
-23.10304795536264
 30
0.0
 10
-0.1506227156761701
 20
-23.15822784912424
 30
0.0
 10
-0.1235994257479164
 20
-23.18623672876607
 30
0.0
  0
SPLINE
  5
129
330
1F
100
AcDbEntity
  8
0
  6
Continuous
 62
     7
370
    15
100
AcDbSpline
210
0.0
220
0.0
230
1.0
 70
     8
 71
     3
 72
    15
 73
    11
 74
     0
 42
0.000000001
 43
0.00000001
 40
0.0
 40
0.0
 40
0.0
 40
0.0
 40
0.1284975211375106
 40
0.2527129855154518
 40
0.3748191325670437
 40
0.4964364263727283
 40
0.6179105567458505
 40
0.7412876173092895
 40
0.8687004007446073
 40
1.0
 40
1.0
 40
1.0
 40
1.0
 10
-1.742052283653899
 20
-23.18798577724363
 30
0.0
 10
-1.715069735044758
 20
-23.15973399740007
 30
0.0
 10
-1.662003805402936
 20
-23.10417190120408
 30
0.0
 10
-1.572738226452762
 20
-23.03304753444844
 30
0.0
 10
-1.479194257350779
 20
-22.97158279922012
 30
0.0
 10
-1.379637280080478
 20
-22.92212549387049
 30
0.0
 10
-1.275125998792257
 20
-22.88317703597536
 30
0.0
 10
-1.165179402475917
 20
-22.85609725941856
 30
0.0
 10
-1.050196726822983
 20
-22.8384240826973
 30
0.0
 10
-0.9715658990429068
 20
-22.83671260984362
 30
0.0
 10
-0.9316598223825314
 20
-22.83584401709406
 30
0.0
  0
SPLINE
  5
12A
330
1F
100
AcDbEntity
  8
0
  6
Continuous
 62
     7
370
    15
100
AcDbSpline
210
0.0
220
0.0
230
1.0
 70
     8
 71
     3
 72
    15
 73
    11
 74
     0
 42
0.000000001
 43
0.00000001
 40
0.0
 40
0.0
 40
0.0
 40
0.0
 40
0.1289191318119622
 40
0.2552377249249069
 40
0.3786785959785499
 40
0.50108788718513
 40
0.6227136794297773
 40
0.746240794938383
 40
0.8715890472316707
 40
0.9999999999999999
 40
0.9999999999999999
 40
0.9999999999999999
 40
0.9999999999999999
 10
-2.033560363247916
 20
-23.94240868723294
 30
0.0
 10
-2.032626277197894
 20
-23.90680469043985
 30
0.0
 10
-2.030776947351032
 20
-23.83631489569814
 30
0.0
 10
-2.017205666888644
 20
-23.73243209585907
 30
0.0
 10
-1.994455724383403
 20
-23.63206646935716
 30
0.0
 10
-1.962248723879215
 20
-23.53566891581595
 30
0.0
 10
-1.921074484786795
 20
-23.44273894906153
 30
0.0
 10
-1.870881199514161
 20
-23.35342671758065
 30
0.0
 10
-1.811183869955181
 20
-23.26778745730156
 30
0.0
 10
-1.765280818591689
 20
-23.21479951337348
 30
0.0
 10
-1.742052283653899
 20
-23.18798577724363
 30
0.0
  0
SPLINE
  5
140
330
1F
100
AcDbEntity
  8
0
  6
Continuous
 62
     7
370
    15
100
AcDbSpline
210
0.0
220
0.0
230
1.0
 70
     8
 71
     3
 72
    23
 73
    19
 74
     0
 42
0.000000001
 43
0.00000001
 40
0.0
 40
0.0
 40
0.0
 40
0.0
 40
0.0723010339955044
 40
0.139700331739385
 40
0.202288511484772
 40
0.2605995332222013
 40
0.3131903291553317
 40
0.3617389329854273
 40
0.4057064756322221
 40
0.4455399848948701
 40
0.5188319558616062
 40
0.5897782395835763
 40
0.658867478656145
 40
0.7284304780610643
 40
0.7972827036080982
 40
0.8648153774014458
 40
0.9313637528792674
 40
1.0
 40
1.0
 40
1.0
 40
1.0
 10
8.589577073317251
 20
-23.3209134615385
 30
0.0
 10
8.615229315654707
 20
-23.32058090651466
 30
0.0
 10
8.664794675461659
 20
-23.31993834243795
 30
0.0
 10
8.736573779921553
 20
-23.31809769759535
 30
0.0
 10
8.803201548028708
 20
-23.31294372934919
 30
0.0
 10
8.86456297112654
 20
-23.30779124239068
 30
0.0
 10
8.920561420067829
 20
-23.29941374300595
 30
0.0
 10
8.971072833471691
 20
-23.28944172175087
 30
0.0
 10
9.016889940568767
 20
-23.2788952822153
 30
0.0
 10
9.069726098374959
 20
-23.26095922673922
 30
0.0
 10
9.129658187063042
 20
-23.23445142183927
 30
0.0
 10
9.193548571886684
 20
-23.19331323430377
 30
0.0
 10
9.249873008800755
 20
-23.14431482869715
 30
0.0
 10
9.297435194064933
 20
-23.087777106333
 30
0.0
 10
9.336361160927117
 20
-23.02552230773552
 30
0.0
 10
9.36339786335003
 20
-22.95854374108828
 30
0.0
 10
9.381731230018515
 20
-22.88851069081824
 30
0.0
 10
9.383387283176845
 20
-22.8404320603734
 30
0.0
 10
9.38422809829054
 20
-22.81602146768166
 30
0.0
  0
SPLINE
  5
141
330
1F
100
AcDbEntity
  8
0
  6
Continuous
 62
     7
370
    15
100
AcDbSpline
210
0.0
220
0.0
230
1.0
 70
     8
 71
     3
 72
    23
 73
    19
 74
     0
 42
0.000000001
 43
0.00000001
 40
0.0
 40
0.0
 40
0.0
 40
0.0
 40
0.0570031325129228
 40
0.1118178691207221
 40
0.1644023722182105
 40
0.2158698048987966
 40
0.2668411100818686
 40
0.3174789632053567
 40
0.369902136272761
 40
0.423400449443636
 40
0.4797183982994504
 40
0.5392414966442965
 40
0.6024306889434223
 40
0.6710295461473356
 40
0.7444847975608487
 40
0.8234539713786837
 40
0.9087403127306659
 40
1.0
 40
1.0
 40
1.0
 40
1.0
 10
9.384228098290542
 20
-22.81602146768167
 30
0.0
 10
9.383790554411519
 20
-22.79986801363142
 30
0.0
 10
9.38293226431337
 20
-22.76818124956754
 30
0.0
 10
9.375902940659127
 20
-22.72198931637912
 30
0.0
 10
9.363955618345738
 20
-22.6785461483675
 30
0.0
 10
9.3486099947407
 20
-22.63725639115145
 30
0.0
 10
9.327165472040253
 20
-22.5994111204623
 30
0.0
 10
9.301916806425433
 20
-22.56370180832799
 30
0.0
 10
9.271410908011902
 20
-22.53134452883979
 30
0.0
 10
9.236687714094996
 20
-22.50110155910973
 30
0.0
 10
9.196766258063382
 20
-22.47428869879196
 30
0.0
 10
9.151670356473137
 20
-22.45080515941487
 30
0.0
 10
9.100789889293203
 20
-22.43189512071145
 30
0.0
 10
9.044982354525924
 20
-22.41533389153809
 30
0.0
 10
8.98338871807617
 20
-22.40370195911901
 30
0.0
 10
8.91671975908104
 20
-22.39401161235892
 30
0.0
 10
8.844429400461596
 20
-22.38907825487058
 30
0.0
 10
8.794415883658965
 20
-22.38842518824206
 30
0.0
 10
8.768563034187977
 20
-22.38808760683765
 30
0.0
  0
SPLINE
  5
143
330
1F
100
AcDbEntity
  8
0
  6
Continuous
 62
     7
370
    15
100
AcDbSpline
210
0.0
220
0.0
230
1.0
 70
     8
 71
     3
 72
    23
 73
    19
 74
     0
 42
0.000000001
 43
0.00000001
 40
0.0
 40
0.0
 40
0.0
 40
0.0
 40
0.0705992894335923
 40
0.1379009210036197
 40
0.2031961978097334
 40
0.266789724650262
 40
0.329106387221423
 40
0.3906535452348603
 40
0.4526530569344818
 40
0.5157480403003739
 40
0.5779263408004532
 40
0.6389300116184456
 40
0.698350717641821
 40
0.7572960374442738
 40
0.8163937673501528
 40
0.8762669096141305
 40
0.936817108906084
 40
1.0
 40
1.0
 40
1.0
 40
1.0
 10
-8.175635600293841
 20
-23.61941773504277
 30
0.0
 10
-8.197806526502204
 20
-23.62006471541455
 30
0.0
 10
-8.241112785930099
 20
-23.62132845602518
 30
0.0
 10
-8.304649189719097
 20
-23.62866707325089
 30
0.0
 10
-8.364781101786052
 20
-23.64248661766539
 30
0.0
 10
-8.422305182565793
 20
-23.66008743061284
 30
0.0
 10
-8.476145980756197
 20
-23.68428801062638
 30
0.0
 10
-8.52669479579671
 20
-23.71368471487658
 30
0.0
 10
-8.574147103824911
 20
-23.74829470646645
 30
0.0
 10
-8.618005878685395
 20
-23.78762766647338
 30
0.0
 10
-8.657770205888085
 20
-23.830691881999
 30
0.0
 10
-8.692014277128592
 20
-23.87681743109416
 30
0.0
 10
-8.721552844348688
 20
-23.92489269403396
 30
0.0
 10
-8.745569452074353
 20
-23.97531935668218
 30
0.0
 10
-8.764271021029565
 20
-24.02807814235274
 30
0.0
 10
-8.777798846306544
 20
-24.08292639913035
 30
0.0
 10
-8.785327471577865
 20
-24.14023192630794
 30
0.0
 10
-8.786579974799936
 20
-24.17909222768478
 30
0.0
 10
-8.787219551282089
 20
-24.19893579727568
 30
0.0
  0
SPLINE
  5
144
330
1F
100
AcDbEntity
  8
0
  6
Continuous
 62
     7
370
    15
100
AcDbSpline
210
0.0
220
0.0
230
1.0
 70
     8
 71
     3
 72
    23
 73
    19
 74
     0
 42
0.000000001
 43
0.00000001
 40
0.0
 40
0.0
 40
0.0
 40
0.0
 40
0.0611379149156212
 40
0.1199938438512128
 40
0.1782253215076181
 40
0.2362564202618971
 40
0.2949293769549112
 40
0.3547157488097554
 40
0.416729663924164
 40
0.4806644084708274
 40
0.5458317702108663
 40
0.6097581054261664
 40
0.6729712284742208
 40
0.7360168691676628
 40
0.7998393981920311
 40
0.8647753566655672
 40
0.9310876232725699
 40
1.0
 40
1.0
 40
1.0
 40
1.0
 10
-7.518576388888927
 20
-24.19893579727568
 30
0.0
 10
-7.519033983718693
 20
-24.17906634035222
 30
0.0
 10
-7.519932093551617
 20
-24.14006905830928
 30
0.0
 10
-7.530090236509061
 20
-24.08295203290704
 30
0.0
 10
-7.544178627153523
 20
-24.02779946559061
 30
0.0
 10
-7.565452135428218
 20
-23.97495798297187
 30
0.0
 10
-7.593089905072474
 20
-23.92463610776045
 30
0.0
 10
-7.626753785799814
 20
-23.87657963961739
 30
0.0
 10
-7.665697298135349
 20
-23.83042014248479
 30
0.0
 10
-7.710681978380423
 20
-23.78754321194906
 30
0.0
 10
-7.759652012207548
 20
-23.74833817154536
 30
0.0
 10
-7.811719853139665
 20
-23.71372952851675
 30
0.0
 10
-7.866192852697249
 20
-23.68452143779744
 30
0.0
 10
-7.923015779836054
 20
-23.66015118668639
 30
0.0
 10
-7.982839712610923
 20
-23.64256439182817
 30
0.0
 10
-8.044698822041065
 20
-23.62871642720528
 30
0.0
 10
-8.10938428154929
 20
-23.62134723746542
 30
0.0
 10
-8.153270544535557
 20
-23.62006909459434
 30
0.0
 10
-8.175635600293841
 20
-23.61941773504277
 30
0.0
  0
SPLINE
  5
145
330
1F
100
AcDbEntity
  8
0
  6
Continuous
 62
     7
370
    15
100
AcDbSpline
210
0.0
220
0.0
230
1.0
 70
     8
 71
     3
 72
    23
 73
    19
 74
     0
 42
0.000000001
 43
0.00000001
 40
0.0
 40
0.0
 40
0.0
 40
0.0
 40
0.0679623714944553
 40
0.1332834028675219
 40
0.1978352977570563
 40
0.2608919865309871
 40
0.323376504483175
 40
0.386350075469087
 40
0.4496377310517138
 40
0.5147953269783575
 40
0.5792399132410281
 40
0.6418141777582894
 40
0.7013585647860576
 40
0.7607267659857209
 40
0.8192220679243887
 40
0.8787161693846293
 40
0.9381473540533067
 40
1.0
 40
1.0
 40
1.0
 40
1.0
 10
-8.152897970085508
 20
-24.77612179487183
 30
0.0
 10
-8.131306421617037
 20
-24.77548225043902
 30
0.0
 10
-8.088962474668516
 20
-24.7742280173036
 30
0.0
 10
-8.026452162798314
 20
-24.76667784029787
 30
0.0
 10
-7.966515608552568
 20
-24.75331932055898
 30
0.0
 10
-7.909100148726981
 20
-24.73434941576093
 30
0.0
 10
-7.85376778015613
 20
-24.71118781302603
 30
0.0
 10
-7.801293199233634
 20
-24.68189079405238
 30
0.0
 10
-7.751376980970063
 20
-24.64700228423174
 30
0.0
 10
-7.704177839560813
 20
-24.6078194043325
 30
0.0
 10
-7.660410213453815
 20
-24.56510043160783
 30
0.0
 10
-7.622760000010779
 20
-24.51917428742311
 30
0.0
 10
-7.590593049512057
 20
-24.47119906613019
 30
0.0
 10
-7.56445402609907
 20
-24.42114165412773
 30
0.0
 10
-7.543614368973727
 20
-24.36864647899279
 30
0.0
 10
-7.529377053696505
 20
-24.3139998936864
 30
0.0
 10
-7.520122519989949
 20
-24.25716192923825
 30
0.0
 10
-7.519098580324375
 20
-24.21860113316472
 30
0.0
 10
-7.518576388888927
 20
-24.19893579727568
 30
0.0
  0
SPLINE
  5
146
330
1F
100
AcDbEntity
  8
0
  6
Continuous
 62
     7
370
    15
100
AcDbSpline
210
0.0
220
0.0
230
1.0
 70
     8
 71
     3
 72
    23
 73
    19
 74
     0
 42
0.000000001
 43
0.00000001
 40
0.0
 40
0.0
 40
0.0
 40
0.0
 40
0.0618417029839104
 40
0.121262373094447
 40
0.1807459488653155
 40
0.2392309018221037
 40
0.2983075587884658
 40
0.358182797615847
 40
0.4203592307800693
 40
0.4847924155141838
 40
0.5499384837666863
 40
0.6137182775404293
 40
0.6766807072496335
 40
0.7391541704483183
 40
0.8021997032403521
 40
0.8667401776162992
 40
0.9320496524002466
 40
1.0
 40
1.0
 40
1.0
 40
1.0
 10
-8.787219551282089
 20
-24.19893579727568
 30
0.0
 10
-8.786698701884418
 20
-24.21860188173791
 30
0.0
 10
-8.785677393755131
 20
-24.25716414565208
 30
0.0
 10
-8.77640370872154
 20
-24.31399142771067
 30
0.0
 10
-8.762238226575006
 20
-24.3686780807097
 30
0.0
 10
-8.741166480731197
 20
-24.42094217803189
 30
0.0
 10
-8.716031383846484
 20
-24.47158036630047
 30
0.0
 10
-8.682848206529753
 20
-24.51875845785054
 30
0.0
 10
-8.646079843549298
 20
-24.56534181375549
 30
0.0
 10
-8.602129281033466
 20
-24.60775196588832
 30
0.0
 10
-8.554961103604194
 20
-24.64721440872976
 30
0.0
 10
-8.504568317949001
 20
-24.68170721477992
 30
0.0
 10
-8.452047803710744
 20
-24.7112156577783
 30
0.0
 10
-8.396690496187565
 20
-24.73434190978519
 30
0.0
 10
-8.33928179237634
 20
-24.75332139116941
 30
0.0
 10
-8.279343379279739
 20
-24.76667727600489
 30
0.0
 10
-8.216833570245957
 20
-24.77422816577644
 30
0.0
 10
-8.174489553926716
 20
-24.77548230057954
 30
0.0
 10
-8.152897970085508
 20
-24.77612179487183
 30
0.0
  0
SPLINE
  5
149
330
1F
100
AcDbEntity
  8
0
  6
Continuous
 62
     7
370
    15
100
AcDbSpline
210
0.0
220
0.0
230
1.0
 70
     8
 71
     3
 72
    23
 73
    19
 74
     0
 42
0.000000001
 43
0.00000001
 40
0.0
 40
0.0
 40
0.0
 40
0.0
 40
0.0725024889330349
 40
0.1397389892678941
 40
0.2017951348259226
 40
0.2598219344148628
 40
0.3122059893845966
 40
0.3607734341243374
 40
0.4045403426007483
 40
0.4436980985527621
 40
0.5168407942439706
 40
0.5878743359442797
 40
0.6579654175616295
 40
0.7289693886473103
 40
0.7993077199548843
 40
0.8666357778344707
 40
0.933116329057274
 40
1.0
 40
1.0
 40
1.0
 40
1.0
 10
8.786053518963618
 20
-24.70149572649577
 30
0.0
 10
8.812678780571048
 20
-24.70117662226168
 30
0.0
 10
8.863995462256995
 20
-24.70056159091865
 30
0.0
 10
8.938087378018253
 20
-24.69855377382254
 30
0.0
 10
9.006759161357637
 20
-24.69398668504183
 30
0.0
 10
9.069697450413598
 20
-24.68679724933929
 30
0.0
 10
9.127581856559475
 20
-24.67899862225984
 30
0.0
 10
9.179717982232901
 20
-24.66851174163629
 30
0.0
 10
9.226528453224367
 20
-24.65649674291364
 30
0.0
 10
9.280807148410027
 20
-24.6379248151682
 30
0.0
 10
9.341928815712704
 20
-24.60907304738758
 30
0.0
 10
9.407796414742878
 20
-24.56557127696718
 30
0.0
 10
9.466359168759062
 20
-24.51374647877752
 30
0.0
 10
9.516090089658862
 20
-24.45376618883671
 30
0.0
 10
9.556846723586663
 20
-24.38854680567076
 30
0.0
 10
9.586495932367468
 20
-24.31940748788273
 30
0.0
 10
9.604782376913075
 20
-24.24749065347586
 30
0.0
 10
9.606996097447576
 20
-24.1984570240577
 30
0.0
 10
9.608106303418747
 20
-24.17386610243059
 30
0.0
  0
SPLINE
  5
14A
330
1F
100
AcDbEntity
  8
0
  6
Continuous
 62
     7
370
    15
100
AcDbSpline
210
0.0
220
0.0
230
1.0
 70
     8
 71
     3
 72
    19
 73
    15
 74
     0
 42
0.000000001
 43
0.00000001
 40
0.0
 40
0.0
 40
0.0
 40
0.0
 40
0.0602873979279707
 40
0.1196023547075188
 40
0.1775033710185396
 40
0.2351426637323281
 40
0.2921325932269317
 40
0.350871208641565
 40
0.4100978625665943
 40
0.4707315215304472
 40
0.5948287040804147
 40
0.7225788240942898
 40
0.8566913895440152
 40
1.0
 40
1.0
 40
1.0
 40
1.0
 10
9.608106303418747
 20
-24.17386610243059
 30
0.0
 10
9.607876709514354
 20
-24.15848800915705
 30
0.0
 10
9.607421225075893
 20
-24.12797987263696
 30
0.0
 10
9.600552130404253
 20
-24.08314630156223
 30
0.0
 10
9.59056202558172
 20
-24.03971800095924
 30
0.0
 10
9.577646898716283
 20
-23.99757704652042
 30
0.0
 10
9.558837734712597
 20
-23.95748532821215
 30
0.0
 10
9.536879435076356
 20
-23.91864992602594
 30
0.0
 10
9.51113355525638
 20
-23.88101950295746
 30
0.0
 10
9.471016233996199
 20
-23.8334447898213
 30
0.0
 10
9.412664887344755
 20
-23.77863165468674
 30
0.0
 10
9.32975395562231
 20
-23.72496564833763
 30
0.0
 10
9.235479491179992
 20
-23.68168541827738
 30
0.0
 10
9.16710341524204
 20
-23.66330865134594
 30
0.0
 10
9.131782101362122
 20
-23.65381568843487
 30
0.0
  0
SPLINE
  5
14B
330
1F
100
AcDbEntity
  8
0
  6
Continuous
 62
     7
370
    15
100
AcDbSpline
210
0.0
220
0.0
230
1.0
 70
     8
 71
     3
 72
    15
 73
    11
 74
     0
 42
0.000000001
 43
0.00000001
 40
0.0
 40
0.0
 40
0.0
 40
0.0
 40
0.0793064855229965
 40
0.1719528189279312
 40
0.2770565073915878
 40
0.3947305758644749
 40
0.526177321276757
 40
0.6713447665976113
 40
0.829285257189251
 40
1.0
 40
1.0
 40
1.0
 40
1.0
 10
9.131782101362123
 20
-23.65381568843487
 30
0.0
 10
9.117621597251624
 20
-23.65094262159813
 30
0.0
 10
9.086918703494788
 20
-23.64471322007709
 30
0.0
 10
9.036853233340578
 20
-23.63813758815149
 30
0.0
 10
8.979696085211726
 20
-23.63227928537217
 30
0.0
 10
8.915315275994576
 20
-23.62794595962442
 30
0.0
 10
8.84362935097325
 20
-23.62346679216214
 30
0.0
 10
8.764485210851937
 20
-23.6217248486456
 30
0.0
 10
8.67820606288831
 20
-23.61964659486552
 30
0.0
 10
8.618340977029732
 20
-23.61949597311803
 30
0.0
 10
8.587245008680497
 20
-23.61941773504277
 30
0.0
  0
SPLINE
  5
14D
330
1F
100
AcDbEntity
  8
0
  6
Continuous
 62
     7
370
    15
100
AcDbSpline
210
0.0
220
0.0
230
1.0
 70
     8
 71
     3
 72
    23
 73
    19
 74
     0
 42
0.000000001
 43
0.00000001
 40
0.0
 40
0.0
 40
0.0
 40
0.0
 40
0.063845899734787
 40
0.1260436278408439
 40
0.1871653577195671
 40
0.2473992895212632
 40
0.3083800306041629
 40
0.3697796166640495
 40
0.4325839246869344
 40
0.4976407859952557
 40
0.5624011369620606
 40
0.6255571033330405
 40
0.6873320046201721
 40
0.7483127457030732
 40
0.8097910391226153
 40
0.8717675719729279
 40
0.9348361909503133
 40
1.0
 40
1.0
 40
1.0
 40
1.0
 10
-0.9328258547009077
 20
-23.0970352564103
 30
0.0
 10
-0.9610465945916695
 20
-23.09783736032039
 30
0.0
 10
-1.016759560513682
 20
-23.0994208619572
 30
0.0
 10
-1.098766441369101
 20
-23.11146491843352
 30
0.0
 10
-1.177713700323544
 20
-23.13054686080474
 30
0.0
 10
-1.253751116544773
 20
-23.15765868615894
 30
0.0
 10
-1.326622272417223
 20
-23.1926659253131
 30
0.0
 10
-1.396396936201242
 20
-23.23566388912339
 30
0.0
 10
-1.463280340100915
 20
-23.2860830797193
 30
0.0
 10
-1.525964115407691
 20
-23.34384459890934
 30
0.0
 10
-1.583492502366479
 20
-23.40694159615441
 30
0.0
 10
-1.633782819809727
 20
-23.47417085648913
 30
0.0
 10
-1.676545244571779
 20
-23.54444190752977
 30
0.0
 10
-1.712168876736238
 20
-23.61782782357889
 30
0.0
 10
-1.738701223027607
 20
-23.69507228918726
 30
0.0
 10
-1.757970694701118
 20
-23.77530052836828
 30
0.0
 10
-1.770003388705091
 20
-23.85867599671676
 30
0.0
 10
-1.771572002328395
 20
-23.91535512920058
 30
0.0
 10
-1.772369123931677
 20
-23.94415773571051
 30
0.0
  0
SPLINE
  5
14E
330
1F
100
AcDbEntity
  8
0
  6
Continuous
 62
     7
370
    15
100
AcDbSpline
210
0.0
220
0.0
230
1.0
 70
     8
 71
     3
 72
    19
 73
    15
 74
     0
 42
0.000000001
 43
0.00000001
 40
0.0
 40
0.0
 40
0.0
 40
0.0
 40
0.0847327446980154
 40
0.1681786536463123
 40
0.2514881976122786
 40
0.3358406713894893
 40
0.4198344941507965
 40
0.5023448759880099
 40
0.5836490197324394
 40
0.6659310052762731
 40
0.7487165252643914
 40
0.8310473361373634
 40
0.9144098067945612
 40
1.0
 40
1.0
 40
1.0
 40
1.0
 10
-1.772369123931677
 20
-23.94415773571051
 30
0.0
 10
-1.771032973563329
 20
-23.98137117734286
 30
0.0
 10
-1.768380964935277
 20
-24.05523290026449
 30
0.0
 10
-1.746814580828275
 20
-24.16400857783788
 30
0.0
 10
-1.710736823092754
 20
-24.26843586796279
 30
0.0
 10
-1.662018710144088
 20
-24.36790258897546
 30
0.0
 10
-1.60097794377697
 20
-24.45993185827313
 30
0.0
 10
-1.529059829403861
 20
-24.54198189615542
 30
0.0
 10
-1.447036221423505
 20
-24.6128179548412
 30
0.0
 10
-1.355884881678542
 20
-24.67159244367819
 30
0.0
 10
-1.257467630415043
 20
-24.71829195481273
 30
0.0
 10
-1.153311034826528
 20
-24.75138669831047
 30
0.0
 10
-1.044677076742089
 20
-24.77290024252414
 30
0.0
 10
-0.9704358973280667
 20
-24.77503854590136
 30
0.0
 10
-0.9328258547009077
 20
-24.77612179487183
 30
0.0
  0
SPLINE
  5
14F
330
1F
100
AcDbEntity
  8
0
  6
Continuous
 62
     7
370
    15
100
AcDbSpline
210
0.0
220
0.0
230
1.0
 70
     8
 71
     3
 72
    19
 73
    15
 74
     0
 42
0.000000001
 43
0.00000001
 40
0.0
 40
0.0
 40
0.0
 40
0.0
 40
0.0856056949735271
 40
0.1689832639222346
 40
0.2509075823297907
 40
0.3337080961143223
 40
0.4160049842563389
 40
0.4976595675743796
 40
0.579893285641965
 40
0.6639023210428578
 40
0.7484662538082603
 40
0.8317908864798567
 40
0.9152519088316872
 40
1.0
 40
1.0
 40
1.0
 40
1.0
 10
-0.9328258547009077
 20
-24.77612179487183
 30
0.0
 10
-0.8952179752963079
 20
-24.7750322344354
 30
0.0
 10
-0.8209810660235268
 20
-24.77288147239969
 30
0.0
 10
-0.7124980481443706
 20
-24.75149504909065
 30
0.0
 10
-0.6086261322512346
 20
-24.71814694551681
 30
0.0
 10
-0.5103111034648978
 20
-24.67164496504212
 30
0.0
 10
-0.419201255252333
 20
-24.61259476061753
 30
0.0
 10
-0.3365877299617149
 20
-24.54238189230105
 30
0.0
 10
-0.2652836765365617
 20
-24.45971454090857
 30
0.0
 10
-0.2043032919790143
 20
-24.36778069105007
 30
0.0
 10
-0.1547873398564833
 20
-24.26859007207745
 30
0.0
 10
-0.1188784512239491
 20
-24.16398930433139
 30
0.0
 10
-0.0972602205829315
 20
-24.0552378087623
 30
0.0
 10
-0.0946152100284643
 20
-23.98137282183376
 30
0.0
 10
-0.0932825854701386
 20
-23.94415773571051
 30
0.0
  0
SPLINE
  5
150
330
1F
100
AcDbEntity
  8
0
  6
Continuous
 62
     7
370
    15
100
AcDbSpline
210
0.0
220
0.0
230
1.0
 70
     8
 71
     3
 72
    23
 73
    19
 74
     0
 42
0.000000001
 43
0.00000001
 40
0.0
 40
0.0
 40
0.0
 40
0.0
 40
0.0651847959860737
 40
0.1282737271139273
 40
0.1902702203927567
 40
0.2517683137756833
 40
0.3127686945781251
 40
0.3747932794097873
 40
0.4379695860627123
 40
0.503047399863372
 40
0.5681252136640311
 40
0.6309497487122624
 40
0.692369109386703
 40
0.7529731677502617
 40
0.8136410669177477
 40
0.8743552086918146
 40
0.936572968465483
 40
1.0
 40
1.0
 40
1.0
 40
1.0
 10
-0.0932825854701386
 20
-23.94415773571051
 30
0.0
 10
-0.0940794326286345
 20
-23.91535495706602
 30
0.0
 10
-0.0956475061864967
 20
-23.85867548584771
 30
0.0
 10
-0.1076841283525149
 20
-23.7753024812822
 30
0.0
 10
-0.126939062227391
 20
-23.69506512384681
 30
0.0
 10
-0.1535249844320962
 20
-23.61785426159327
 30
0.0
 10
-0.1889938280906622
 20
-23.5442518993685
 30
0.0
 10
-0.2325808875725247
 20
-23.47437717990496
 30
0.0
 10
-0.2826658533424858
 20
-23.40670870678881
 30
0.0
 10
-0.3408884235178564
 20
-23.3440485662052
 30
0.0
 10
-0.4035067681018283
 20
-23.28606056257857
 30
0.0
 10
-0.4704172790188697
 20
-23.2356443381791
 30
0.0
 10
-0.5400884784716278
 20
-23.19285489716295
 30
0.0
 10
-0.612747930839192
 20
-23.15735925544883
 30
0.0
 10
-0.6887950957221962
 20
-23.13079352066591
 30
0.0
 10
-0.7676317382612634
 20
-23.11135473839809
 30
0.0
 10
-0.8492887248599064
 20
-23.09947175941234
 30
0.0
 10
-0.9048020482496614
 20
-23.09785261856623
 30
0.0
 10
-0.9328258547009077
 20
-23.0970352564103
 30
0.0
  0
SPLINE
  5
151
330
1F
100
AcDbEntity
  8
0
  6
Continuous
 62
     7
370
    15
100
AcDbSpline
210
0.0
220
0.0
230
1.0
 70
     8
 71
     3
 72
    23
 73
    19
 74
     0
 42
0.000000001
 43
0.00000001
 40
0.0
 40
0.0
 40
0.0
 40
0.0
 40
0.063845899734787
 40
0.1260436278408437
 40
0.1871653577195679
 40
0.2473992895212632
 40
0.3083800306041637
 40
0.3697796166640494
 40
0.4325839246869344
 40
0.4976407859952557
 40
0.5624011369620606
 40
0.6255571033330408
 40
0.6873320046201725
 40
0.7483127457030736
 40
0.8097910391226156
 40
0.8717675719729281
 40
0.9348361909503136
 40
1.0
 40
1.0
 40
1.0
 40
1.0
 10
11.41778846153838
 20
-23.0970352564103
 30
0.0
 10
11.38956772164762
 20
-23.09783736032039
 30
0.0
 10
11.33385475572561
 20
-23.0994208619572
 30
0.0
 10
11.25184787487019
 20
-23.11146491843352
 30
0.0
 10
11.17290061591575
 20
-23.13054686080475
 30
0.0
 10
11.09686319969452
 20
-23.15765868615894
 30
0.0
 10
11.02399204382207
 20
-23.1926659253131
 30
0.0
 10
10.95421738003805
 20
-23.23566388912338
 30
0.0
 10
10.88733397613838
 20
-23.28608307971931
 30
0.0
 10
10.8246502008316
 20
-23.34384459890932
 30
0.0
 10
10.76712181387281
 20
-23.40694159615441
 30
0.0
 10
10.71683149642956
 20
-23.47417085648913
 30
0.0
 10
10.67406907166751
 20
-23.54444190752977
 30
0.0
 10
10.63844543950305
 20
-23.6178278235789
 30
0.0
 10
10.61191309321168
 20
-23.69507228918725
 30
0.0
 10
10.59264362153817
 20
-23.77530052836828
 30
0.0
 10
10.5806109275342
 20
-23.85867599671676
 30
0.0
 10
10.57904231391089
 20
-23.91535512920058
 30
0.0
 10
10.57824519230761
 20
-23.94415773571051
 30
0.0
  0
SPLINE
  5
152
330
1F
100
AcDbEntity
  8
0
  6
Continuous
 62
     7
370
    15
100
AcDbSpline
210
0.0
220
0.0
230
1.0
 70
     8
 71
     3
 72
    19
 73
    15
 74
     0
 42
0.000000001
 43
0.00000001
 40
0.0
 40
0.0
 40
0.0
 40
0.0
 40
0.0847327446980154
 40
0.1681786536463122
 40
0.2514881976122786
 40
0.335840671389489
 40
0.4198344941507966
 40
0.50234487598801
 40
0.5836490197324399
 40
0.665931005276273
 40
0.7487165252643908
 40
0.8310473361373631
 40
0.9144098067945616
 40
1.0
 40
1.0
 40
1.0
 40
1.0
 10
10.57824519230761
 20
-23.94415773571051
 30
0.0
 10
10.57958134267596
 20
-23.98137117734286
 30
0.0
 10
10.58223335130402
 20
-24.0552329002645
 30
0.0
 10
10.60379973541101
 20
-24.16400857783787
 30
0.0
 10
10.63987749314654
 20
-24.2684358679628
 30
0.0
 10
10.6885956060952
 20
-24.36790258897546
 30
0.0
 10
10.74963637246232
 20
-24.45993185827312
 30
0.0
 10
10.82155448683543
 20
-24.54198189615542
 30
0.0
 10
10.90357809481579
 20
-24.6128179548412
 30
0.0
 10
10.99472943456074
 20
-24.67159244367819
 30
0.0
 10
11.09314668582425
 20
-24.71829195481273
 30
0.0
 10
11.19730328141276
 20
-24.75138669831047
 30
0.0
 10
11.30593723949721
 20
-24.77290024252414
 30
0.0
 10
11.38017841891123
 20
-24.77503854590136
 30
0.0
 10
11.41778846153838
 20
-24.77612179487183
 30
0.0
  0
SPLINE
  5
153
330
1F
100
AcDbEntity
  8
0
  6
Continuous
 62
     7
370
    15
100
AcDbSpline
210
0.0
220
0.0
230
1.0
 70
     8
 71
     3
 72
    19
 73
    15
 74
     0
 42
0.000000001
 43
0.00000001
 40
0.0
 40
0.0
 40
0.0
 40
0.0
 40
0.0856056949735268
 40
0.1689832639222337
 40
0.2509075823297908
 40
0.3337080961143222
 40
0.4160049842563383
 40
0.4976595675743788
 40
0.5798932856419646
 40
0.6639023210428577
 40
0.7484662538082603
 40
0.8317908864798564
 40
0.9152519088316869
 40
1.0
 40
1.0
 40
1.0
 40
1.0
 10
11.41778846153838
 20
-24.77612179487183
 30
0.0
 10
11.45539634094298
 20
-24.77503223443539
 30
0.0
 10
11.52963325021576
 20
-24.77288147239968
 30
0.0
 10
11.63811626809492
 20
-24.75149504909066
 30
0.0
 10
11.74198818398806
 20
-24.7181469455168
 30
0.0
 10
11.8403032127744
 20
-24.67164496504213
 30
0.0
 10
11.93141306098696
 20
-24.61259476061752
 30
0.0
 10
12.01402658627757
 20
-24.54238189230105
 30
0.0
 10
12.08533063970273
 20
-24.45971454090857
 30
0.0
 10
12.14631102426028
 20
-24.36778069105007
 30
0.0
 10
12.19582697638281
 20
-24.26859007207746
 30
0.0
 10
12.23173586501535
 20
-24.1639893043314
 30
0.0
 10
12.25335409565636
 20
-24.0552378087623
 30
0.0
 10
12.25599910621083
 20
-23.98137282183376
 30
0.0
 10
12.25733173076915
 20
-23.94415773571051
 30
0.0
  0
SPLINE
  5
154
330
1F
100
AcDbEntity
  8
0
  6
Continuous
 62
     7
370
    15
100
AcDbSpline
210
0.0
220
0.0
230
1.0
 70
     8
 71
     3
 72
    23
 73
    19
 74
     0
 42
0.000000001
 43
0.00000001
 40
0.0
 40
0.0
 40
0.0
 40
0.0
 40
0.0651847959860737
 40
0.1282737271139273
 40
0.190270220392757
 40
0.2517683137756835
 40
0.3127686945781253
 40
0.3747932794097873
 40
0.4379695860627127
 40
0.5030473998633719
 40
0.5681252136640311
 40
0.6309497487122624
 40
0.6923691093867033
 40
0.7529731677502622
 40
0.8136410669177481
 40
0.8743552086918153
 40
0.9365729684654835
 40
1.0
 40
1.0
 40
1.0
 40
1.0
 10
12.25733173076915
 20
-23.94415773571051
 30
0.0
 10
12.25653488361066
 20
-23.91535495706603
 30
0.0
 10
12.25496681005279
 20
-23.85867548584771
 30
0.0
 10
12.24293018788678
 20
-23.7753024812822
 30
0.0
 10
12.2236752540119
 20
-23.69506512384681
 30
0.0
 10
12.1970893318072
 20
-23.61785426159327
 30
0.0
 10
12.16162048814862
 20
-23.5442518993685
 30
0.0
 10
12.11803342866677
 20
-23.47437717990496
 30
0.0
 10
12.0679484628968
 20
-23.40670870678879
 30
0.0
 10
12.00972589272144
 20
-23.3440485662052
 30
0.0
 10
11.94710754813746
 20
-23.28606056257857
 30
0.0
 10
11.88019703722042
 20
-23.23564433817911
 30
0.0
 10
11.81052583776766
 20
-23.19285489716295
 30
0.0
 10
11.7378663854001
 20
-23.15735925544884
 30
0.0
 10
11.6618192205171
 20
-23.13079352066591
 30
0.0
 10
11.58298257797803
 20
-23.1113547383981
 30
0.0
 10
11.50132559137938
 20
-23.09947175941234
 30
0.0
 10
11.44581226798963
 20
-23.09785261856623
 30
0.0
 10
11.41778846153838
 20
-23.0970352564103
 30
0.0
  0
SPLINE
  5
155
330
1F
100
AcDbEntity
  8
0
  6
Continuous
 62
     7
370
    15
100
AcDbSpline
210
0.0
220
0.0
230
1.0
 70
     8
 71
     3
 72
    19
 73
    15
 74
     0
 42
0.000000001
 43
0.00000001
 40
0.0
 40
0.0
 40
0.0
 40
0.0
 40
0.0859205174117672
 40
0.1695934351247428
 40
0.2524755148685387
 40
0.3362444769570511
 40
0.4195045210415713
 40
0.5020359066440884
 40
0.5847746476768699
 40
0.6698464747058008
 40
0.7541848663887851
 40
0.8366582383293255
 40
0.9180097257088052
 40
0.9999999999999999
 40
0.9999999999999999
 40
0.9999999999999999
 40
0.9999999999999999
 10
14.08683643830121
 20
-23.0970352564103
 30
0.0
 10
14.04865647996355
 20
-23.09839370397553
 30
0.0
 10
13.97329531498858
 20
-23.10107506339889
 30
0.0
 10
13.862662891845
 20
-23.12200802338273
 30
0.0
 10
13.75679572548727
 20
-23.15683705810069
 30
0.0
 10
13.65622330539609
 20
-23.20446968663176
 30
0.0
 10
13.56253431812123
 20
-23.26436501106868
 30
0.0
 10
13.47880273588993
 20
-23.33681058991314
 30
0.0
 10
13.40434371577431
 20
-23.41982982132626
 30
0.0
 10
13.34172130795695
 20
-23.51304806431143
 30
0.0
 10
13.29067218641124
 20
-23.61298186980123
 30
0.0
 10
13.25477674378289
 20
-23.71744457219839
 30
0.0
 10
13.23110320888373
 20
-23.82455204460712
 30
0.0
 10
13.22868463553589
 20
-23.89719827795922
 30
0.0
 10
13.22747061965805
 20
-23.93366344484513
 30
0.0
  0
SPLINE
  5
156
330
1F
100
AcDbEntity
  8
0
  6
Continuous
 62
     7
370
    15
100
AcDbSpline
210
0.0
220
0.0
230
1.0
 70
     8
 71
     3
 72
    19
 73
    15
 74
     0
 42
0.000000001
 43
0.00000001
 40
0.0
 40
0.0
 40
0.0
 40
0.0
 40
0.0815893489321822
 40
0.1628588951679326
 40
0.245483689275579
 40
0.330807139158011
 40
0.4164933737762832
 40
0.4998932031606312
 40
0.5830481559950217
 40
0.6671578520621569
 40
0.7513119292929147
 40
0.8337847893576154
 40
0.9162564885439798
 40
1.0
 40
1.0
 40
1.0
 40
1.0
 10
13.22747061965805
 20
-23.93366344484513
 30
0.0
 10
13.22902136724957
 20
-23.96991069468801
 30
0.0
 10
13.2321167840257
 20
-24.0422631173945
 30
0.0
 10
13.25436126026021
 20
-24.14951660890962
 30
0.0
 10
13.29168101215704
 20
-24.25400392840942
 30
0.0
 10
13.34260670360411
 20
-24.35483821885407
 30
0.0
 10
13.40637528381006
 20
-24.44845725945411
 30
0.0
 10
13.48029043120022
 20
-24.5330590161318
 30
0.0
 10
13.56506694488717
 20
-24.6058107749515
 30
0.0
 10
13.65897154451961
 20
-24.66671130490798
 30
0.0
 10
13.75926281514418
 20
-24.71590775829543
 30
0.0
 10
13.86473126887489
 20
-24.75013894781403
 30
0.0
 10
13.97339428465144
 20
-24.77223963800831
 30
0.0
 10
14.04727923131284
 20
-24.77482115833055
 30
0.0
 10
14.08450437366445
 20
-24.77612179487183
 30
0.0
  0
SPLINE
  5
157
330
1F
100
AcDbEntity
  8
0
  6
Continuous
 62
     7
370
    15
100
AcDbSpline
210
0.0
220
0.0
230
1.0
 70
     8
 71
     3
 72
    19
 73
    15
 74
     0
 42
0.000000001
 43
0.00000001
 40
0.0
 40
0.0
 40
0.0
 40
0.0
 40
0.0848023883688277
 40
0.1686635395998412
 40
0.2525519243727821
 40
0.3382396894642448
 40
0.4231026613931554
 40
0.5055560510576212
 40
0.5861756559890526
 40
0.6671357203303615
 40
0.7484991803055342
 40
0.830452398758279
 40
0.9134557062010137
 40
0.9999999999999999
 40
0.9999999999999999
 40
0.9999999999999999
 40
0.9999999999999999
 10
14.08450437366445
 20
-24.77612179487183
 30
0.0
 10
14.12229530483038
 20
-24.77474145582163
 30
0.0
 10
14.19745771874137
 20
-24.77199609835547
 30
0.0
 10
14.30841835856779
 20
-24.75097352239439
 30
0.0
 10
14.41609958656101
 20
-24.71624077757589
 30
0.0
 10
14.51903456158754
 20
-24.66809489659533
 30
0.0
 10
14.6149254158813
 20
-24.60842523814995
 30
0.0
 10
14.70098882958975
 20
-24.53856934162012
 30
0.0
 10
14.77376252471935
 20
-24.45732449149008
 30
0.0
 10
14.83545721256505
 20
-24.36803585761873
 30
0.0
 10
14.88383284180789
 20
-24.27015272722835
 30
0.0
 10
14.91907055293783
 20
-24.16593137932832
 30
0.0
 10
14.93990406863397
 20
-24.05536818578153
 30
0.0
 10
14.94252987119984
 20
-23.97981050366178
 30
0.0
 10
14.94387019230762
 20
-23.94124265491457
 30
0.0
  0
SPLINE
  5
158
330
1F
100
AcDbEntity
  8
0
  6
Continuous
 62
     7
370
    15
100
AcDbSpline
210
0.0
220
0.0
230
1.0
 70
     8
 71
     3
 72
    23
 73
    19
 74
     0
 42
0.000000001
 43
0.00000001
 40
0.0
 40
0.0
 40
0.0
 40
0.0
 40
0.0656337996756892
 40
0.1291880880571269
 40
0.1912186831121873
 40
0.2519128178811566
 40
0.3125074743865499
 40
0.3734944337751972
 40
0.4351515996540494
 40
0.4987414744066494
 40
0.5620952169966305
 40
0.6241865668116559
 40
0.6854757184651952
 40
0.7460968148060535
 40
0.8076116364477844
 40
0.8699665806571896
 40
0.9339510189149074
 40
1.0
 40
1.0
 40
1.0
 40
1.0
 10
14.94387019230762
 20
-23.94124265491457
 30
0.0
 10
14.94307219233672
 20
-23.91185756609353
 30
0.0
 10
14.94150147586107
 20
-23.85401841216772
 30
0.0
 10
14.92950177012635
 20
-23.76909451809145
 30
0.0
 10
14.91041365572311
 20
-23.68782427091861
 30
0.0
 10
14.88351627506061
 20
-23.61012222531453
 30
0.0
 10
14.84818274867457
 20
-23.53641798929504
 30
0.0
 10
14.80556779097024
 20
-23.46618235059634
 30
0.0
 10
14.75492200925723
 20
-23.39978060279194
 30
0.0
 10
14.6970606839884
 20
-23.33812710865092
 30
0.0
 10
14.63372569115742
 20
-23.28189248497463
 30
0.0
 10
14.56670749278659
 20
-23.23169674433517
 30
0.0
 10
14.49521207046543
 20
-23.19046131843183
 30
0.0
 10
14.42044177250467
 20
-23.15633354683529
 30
0.0
 10
14.34226687116925
 20
-23.12917590849781
 30
0.0
 10
14.26005124266539
 20
-23.11105840362045
 30
0.0
 10
14.17466877555997
 20
-23.09861818428327
 30
0.0
 10
14.11642214497148
 20
-23.09756845456022
 30
0.0
 10
14.08683643830121
 20
-23.0970352564103
 30
0.0
  0
SPLINE
  5
159
330
1F
100
AcDbEntity
  8
0
  6
Continuous
 62
     7
370
    15
100
AcDbSpline
210
0.0
220
0.0
230
1.0
 70
     8
 71
     3
 72
    19
 73
    15
 74
     0
 42
0.000000001
 43
0.00000001
 40
0.0
 40
0.0
 40
0.0
 40
0.0
 40
0.0859205174117661
 40
0.1695934351247417
 40
0.2524755148685378
 40
0.3362444769570502
 40
0.4195045210415717
 40
0.5020359066440888
 40
0.5847746476768705
 40
0.6698464747058016
 40
0.7541848663887853
 40
0.8366582383293253
 40
0.9180097257088051
 40
1.0
 40
1.0
 40
1.0
 40
1.0
 10
18.04201806223286
 20
-23.0970352564103
 30
0.0
 10
18.0038381038952
 20
-23.09839370397552
 30
0.0
 10
17.92847693892023
 20
-23.10107506339889
 30
0.0
 10
17.81784451577666
 20
-23.12200802338274
 30
0.0
 10
17.71197734941893
 20
-23.15683705810069
 30
0.0
 10
17.61140492932775
 20
-23.20446968663177
 30
0.0
 10
17.51771594205288
 20
-23.26436501106868
 30
0.0
 10
17.43398435982159
 20
-23.33681058991315
 30
0.0
 10
17.35952533970596
 20
-23.41982982132626
 30
0.0
 10
17.2969029318886
 20
-23.51304806431143
 30
0.0
 10
17.24585381034289
 20
-23.61298186980123
 30
0.0
 10
17.20995836771455
 20
-23.71744457219837
 30
0.0
 10
17.18628483281539
 20
-23.82455204460713
 30
0.0
 10
17.18386625946754
 20
-23.89719827795921
 30
0.0
 10
17.1826522435897
 20
-23.93366344484513
 30
0.0
  0
SPLINE
  5
15A
330
1F
100
AcDbEntity
  8
0
  6
Continuous
 62
     7
370
    15
100
AcDbSpline
210
0.0
220
0.0
230
1.0
 70
     8
 71
     3
 72
    19
 73
    15
 74
     0
 42
0.000000001
 43
0.00000001
 40
0.0
 40
0.0
 40
0.0
 40
0.0
 40
0.0815893489321822
 40
0.162858895167933
 40
0.2454836892755789
 40
0.3308071391580109
 40
0.4164933737762832
 40
0.4998932031606312
 40
0.5830481559950207
 40
0.6671578520621582
 40
0.7513119292929135
 40
0.8337847893576154
 40
0.9162564885439798
 40
1.0
 40
1.0
 40
1.0
 40
1.0
 10
17.1826522435897
 20
-23.93366344484513
 30
0.0
 10
17.18420299118122
 20
-23.96991069468801
 30
0.0
 10
17.18729840795736
 20
-24.0422631173945
 30
0.0
 10
17.20954288419187
 20
-24.14951660890963
 30
0.0
 10
17.24686263608869
 20
-24.25400392840942
 30
0.0
 10
17.29778832753577
 20
-24.35483821885407
 30
0.0
 10
17.36155690774171
 20
-24.44845725945411
 30
0.0
 10
17.43547205513187
 20
-24.5330590161318
 30
0.0
 10
17.52024856881882
 20
-24.6058107749515
 30
0.0
 10
17.61415316845126
 20
-24.66671130490797
 30
0.0
 10
17.71444443907584
 20
-24.71590775829544
 30
0.0
 10
17.81991289280654
 20
-24.75013894781402
 30
0.0
 10
17.9285759085831
 20
-24.7722396380083
 30
0.0
 10
18.00246085524449
 20
-24.77482115833054
 30
0.0
 10
18.03968599759611
 20
-24.77612179487183
 30
0.0
  0
SPLINE
  5
15B
330
1F
100
AcDbEntity
  8
0
  6
Continuous
 62
     7
370
    15
100
AcDbSpline
210
0.0
220
0.0
230
1.0
 70
     8
 71
     3
 72
    19
 73
    15
 74
     0
 42
0.000000001
 43
0.00000001
 40
0.0
 40
0.0
 40
0.0
 40
0.0
 40
0.0848023883688277
 40
0.1686635395998425
 40
0.2525519243727821
 40
0.3382396894642437
 40
0.4231026613931553
 40
0.5055560510576222
 40
0.5861756559890529
 40
0.6671357203303616
 40
0.7484991803055344
 40
0.8304523987582793
 40
0.9134557062010138
 40
0.9999999999999999
 40
0.9999999999999999
 40
0.9999999999999999
 40
0.9999999999999999
 10
18.03968599759611
 20
-24.77612179487183
 30
0.0
 10
18.07747692876203
 20
-24.77474145582162
 30
0.0
 10
18.15263934267303
 20
-24.77199609835548
 30
0.0
 10
18.26359998249944
 20
-24.75097352239437
 30
0.0
 10
18.37128121049266
 20
-24.7162407775759
 30
0.0
 10
18.47421618551919
 20
-24.66809489659532
 30
0.0
 10
18.57010703981296
 20
-24.60842523814996
 30
0.0
 10
18.6561704535214
 20
-24.53856934162011
 30
0.0
 10
18.72894414865101
 20
-24.45732449149009
 30
0.0
 10
18.79063883649671
 20
-24.36803585761873
 30
0.0
 10
18.83901446573955
 20
-24.27015272722835
 30
0.0
 10
18.87425217686949
 20
-24.16593137932832
 30
0.0
 10
18.89508569256562
 20
-24.05536818578154
 30
0.0
 10
18.89771149513149
 20
-23.97981050366178
 30
0.0
 10
18.89905181623927
 20
-23.94124265491457
 30
0.0
  0
SPLINE
  5
15C
330
1F
100
AcDbEntity
  8
0
  6
Continuous
 62
     7
370
    15
100
AcDbSpline
210
0.0
220
0.0
230
1.0
 70
     8
 71
     3
 72
    23
 73
    19
 74
     0
 42
0.000000001
 43
0.00000001
 40
0.0
 40
0.0
 40
0.0
 40
0.0
 40
0.065633799675689
 40
0.1291880880571266
 40
0.1912186831121873
 40
0.2519128178811569
 40
0.3125074743865496
 40
0.3734944337751974
 40
0.4351515996540487
 40
0.4987414744066486
 40
0.5620952169966296
 40
0.6241865668116549
 40
0.6854757184651952
 40
0.7460968148060523
 40
0.8076116364477832
 40
0.8699665806571881
 40
0.9339510189149061
 40
1.0
 40
1.0
 40
1.0
 40
1.0
 10
18.89905181623927
 20
-23.94124265491457
 30
0.0
 10
18.89825381626837
 20
-23.91185756609353
 30
0.0
 10
18.89668309979272
 20
-23.85401841216773
 30
0.0
 10
18.88468339405802
 20
-23.76909451809146
 30
0.0
 10
18.86559527965477
 20
-23.68782427091861
 30
0.0
 10
18.83869789899225
 20
-23.61012222531452
 30
0.0
 10
18.80336437260624
 20
-23.53641798929504
 30
0.0
 10
18.76074941490188
 20
-23.46618235059633
 30
0.0
 10
18.7101036331889
 20
-23.39978060279195
 30
0.0
 10
18.65224230792005
 20
-23.33812710865091
 30
0.0
 10
18.58890731508908
 20
-23.28189248497464
 30
0.0
 10
18.52188911671825
 20
-23.23169674433516
 30
0.0
 10
18.45039369439709
 20
-23.19046131843184
 30
0.0
 10
18.37562339643632
 20
-23.15633354683529
 30
0.0
 10
18.29744849510091
 20
-23.12917590849782
 30
0.0
 10
18.21523286659704
 20
-23.11105840362045
 30
0.0
 10
18.12985039949162
 20
-23.09861818428326
 30
0.0
 10
18.07160376890313
 20
-23.09756845456021
 30
0.0
 10
18.04201806223286
 20
-23.0970352564103
 30
0.0
  0
LINE
  5
15D
330
1F
100
AcDbEntity
  8
0
  6
Continuous
 62
     7
370
    15
100
AcDbLine
 10
-18.7871127137
 20
-24.0199498364
 30
0.0
 11
-18.7871127137
 21
-25.0
 31
0.0
  0
LINE
  5
15E
330
1F
100
AcDbEntity
  8
0
  6
Continuous
 62
     7
370
    15
100
AcDbLine
 10
-17.7067837707
 20
-25.0
 30
0.0
 11
-18.7871127137
 21
-24.0199498364
 31
0.0
  0
LINE
  5
15F
330
1F
100
AcDbEntity
  8
0
  6
Continuous
 62
     7
370
    15
100
AcDbLine
 10
-17.3319043803
 20
-25.0
 30
0.0
 11
-17.7067837707
 21
-25.0
 31
0.0
  0
LINE
  5
160
330
1F
100
AcDbEntity
  8
0
  6
Continuous
 62
     7
370
    15
100
AcDbLine
 10
-18.5667326055
 20
-23.8806089744
 30
0.0
 11
-17.3319043803
 21
-25.0
 31
0.0
  0
LINE
  5
161
330
1F
100
AcDbEntity
  8
0
  6
Continuous
 62
     7
370
    15
100
AcDbLine
 10
-17.4438434829
 20
-22.8731570513
 30
0.0
 11
-18.5667326055
 21
-23.8806089744
 31
0.0
  0
LINE
  5
162
330
1F
100
AcDbEntity
  8
0
  6
Continuous
 62
     7
370
    15
100
AcDbLine
 10
-17.8193058894
 20
-22.8731570513
 30
0.0
 11
-17.4438434829
 21
-22.8731570513
 31
0.0
  0
LINE
  5
163
330
1F
100
AcDbEntity
  8
0
  6
Continuous
 62
     7
370
    15
100
AcDbLine
 10
-18.7871127137
 20
-23.7406850962
 30
0.0
 11
-17.8193058894
 21
-22.8731570513
 31
0.0
  0
LINE
  5
164
330
1F
100
AcDbEntity
  8
0
  6
Continuous
 62
     7
370
    15
100
AcDbLine
 10
-18.7871127137
 20
-22.014957265
 30
0.0
 11
-18.7871127137
 21
-23.7406850962
 31
0.0
  0
LINE
  5
165
330
1F
100
AcDbEntity
  8
0
  6
Continuous
 62
     7
370
    15
100
AcDbLine
 10
-19.048303953
 20
-22.014957265
 30
0.0
 11
-18.7871127137
 21
-22.014957265
 31
0.0
  0
LINE
  5
166
330
1F
100
AcDbEntity
  8
0
  6
Continuous
 62
     7
370
    15
100
AcDbLine
 10
-19.048303953
 20
-25.0
 30
0.0
 11
-19.048303953
 21
-22.014957265
 31
0.0
  0
LINE
  5
167
330
1F
100
AcDbEntity
  8
0
  6
Continuous
 62
     7
370
    15
100
AcDbLine
 10
-18.7871127137
 20
-25.0
 30
0.0
 11
-19.048303953
 21
-25.0
 31
0.0
  0
LINE
  5
168
330
1F
100
AcDbEntity
  8
0
  6
Continuous
 62
     7
370
    15
100
AcDbLine
 10
-15.6155048077
 20
-22.0895833333
 30
0.0
 11
-15.6155048077
 21
-25.0
 31
0.0
  0
LINE
  5
169
330
1F
100
AcDbEntity
  8
0
  6
Continuous
 62
     7
370
    15
100
AcDbLine
 10
-15.876696047
 20
-22.0895833333
 30
0.0
 11
-15.6155048077
 21
-22.0895833333
 31
0.0
  0
LINE
  5
16A
330
1F
100
AcDbEntity
  8
0
  6
Continuous
 62
     7
370
    15
100
AcDbLine
 10
-15.876696047
 20
-25.0
 30
0.0
 11
-15.876696047
 21
-22.0895833333
 31
0.0
  0
LINE
  5
16B
330
1F
100
AcDbEntity
  8
0
  6
Continuous
 62
     7
370
    15
100
AcDbLine
 10
-15.6155048077
 20
-25.0
 30
0.0
 11
-15.876696047
 21
-25.0
 31
0.0
  0
LINE
  5
16C
330
1F
100
AcDbEntity
  8
0
  6
Continuous
 62
     7
370
    15
100
AcDbLine
 10
-14.6080528846
 20
-22.0895833333
 30
0.0
 11
-14.6080528846
 21
-25.0
 31
0.0
  0
LINE
  5
16D
330
1F
100
AcDbEntity
  8
0
  6
Continuous
 62
     7
370
    15
100
AcDbLine
 10
-14.8692441239
 20
-22.0895833333
 30
0.0
 11
-14.6080528846
 21
-22.0895833333
 31
0.0
  0
LINE
  5
16E
330
1F
100
AcDbEntity
  8
0
  6
Continuous
 62
     7
370
    15
100
AcDbLine
 10
-14.8692441239
 20
-25.0
 30
0.0
 11
-14.8692441239
 21
-22.0895833333
 31
0.0
  0
LINE
  5
16F
330
1F
100
AcDbEntity
  8
0
  6
Continuous
 62
     7
370
    15
100
AcDbLine
 10
-14.6080528846
 20
-25.0
 30
0.0
 11
-14.8692441239
 21
-25.0
 31
0.0
  0
LINE
  5
170
330
1F
100
AcDbEntity
  8
0
  6
Continuous
 62
     7
370
    15
100
AcDbLine
 10
-13.6006009615
 20
-22.0895833333
 30
0.0
 11
-13.6006009615
 21
-25.0
 31
0.0
  0
LINE
  5
171
330
1F
100
AcDbEntity
  8
0
  6
Continuous
 62
     7
370
    15
100
AcDbLine
 10
-13.8617922009
 20
-22.0895833333
 30
0.0
 11
-13.6006009615
 21
-22.0895833333
 31
0.0
  0
LINE
  5
172
330
1F
100
AcDbEntity
  8
0
  6
Continuous
 62
     7
370
    15
100
AcDbLine
 10
-13.8617922009
 20
-25.0
 30
0.0
 11
-13.8617922009
 21
-22.0895833333
 31
0.0
  0
LINE
  5
173
330
1F
100
AcDbEntity
  8
0
  6
Continuous
 62
     7
370
    15
100
AcDbLine
 10
-13.6006009615
 20
-25.0
 30
0.0
 11
-13.8617922009
 21
-25.0
 31
0.0
  0
LINE
  5
174
330
1F
100
AcDbEntity
  8
0
  6
Continuous
 62
     7
370
    15
100
AcDbLine
 10
-9.4588541667
 20
-22.0895833333
 30
0.0
 11
-10.6901842949
 21
-25.0
 31
0.0
  0
LINE
  5
175
330
1F
100
AcDbEntity
  8
0
  6
Continuous
 62
     7
370
    15
100
AcDbLine
 10
-9.7387019231
 20
-22.0895833333
 30
0.0
 11
-9.4588541667
 21
-22.0895833333
 31
0.0
  0
LINE
  5
176
330
1F
100
AcDbEntity
  8
0
  6
Continuous
 62
     7
370
    15
100
AcDbLine
 10
-10.708840812
 20
-24.3831689036
 30
0.0
 11
-9.7387019231
 21
-22.0895833333
 31
0.0
  0
LINE
  5
177
330
1F
100
AcDbEntity
  8
0
  6
Continuous
 62
     7
370
    15
100
AcDbLine
 10
-11.6789797009
 20
-22.0895833333
 30
0.0
 11
-10.708840812
 21
-24.3831689036
 31
0.0
  0
LINE
  5
178
330
1F
100
AcDbEntity
  8
0
  6
Continuous
 62
     7
370
    15
100
AcDbLine
 10
-11.9588274573
 20
-22.0895833333
 30
0.0
 11
-11.6789797009
 21
-22.0895833333
 31
0.0
  0
LINE
  5
179
330
1F
100
AcDbEntity
  8
0
  6
Continuous
 62
     7
370
    15
100
AcDbLine
 10
-10.7274973291
 20
-25.0
 30
0.0
 11
-11.9588274573
 21
-22.0895833333
 31
0.0
  0
LINE
  5
17A
330
1F
100
AcDbEntity
  8
0
  6
Continuous
 62
     7
370
    15
100
AcDbLine
 10
-10.6901842949
 20
-25.0
 30
0.0
 11
-10.7274973291
 21
-25.0
 31
0.0
  0
LINE
  5
17B
330
1F
100
AcDbEntity
  8
0
  6
Continuous
 62
     7
370
    15
100
AcDbLine
 10
-7.6532531217
 20
-22.1729546441
 30
0.0
 11
-8.4222514356
 21
-23.3488982372
 31
0.0
  0
LINE
  5
17C
330
1F
100
AcDbEntity
  8
0
  6
Continuous
 62
     7
370
    15
100
AcDbLine
 10
-7.8543936966
 20
-22.014957265
 30
0.0
 11
-7.6532531217
 21
-22.1729546441
 31
0.0
  0
LINE
  5
17D
330
1F
100
AcDbEntity
  8
0
  6
Continuous
 62
     7
370
    15
100
AcDbLine
 10
-8.7230877738
 20
-23.3430680756
 30
0.0
 11
-7.8543936966
 21
-22.014957265
 31
0.0
  0
LINE
  5
17E
330
1F
100
AcDbEntity
  8
0
  6
Continuous
 62
     7
370
    15
100
AcDbLine
 10
2.5559428419
 20
-22.8731570513
 30
0.0
 11
2.5559428419
 21
-23.90859375
 31
0.0
  0
LINE
  5
17F
330
1F
100
AcDbEntity
  8
0
  6
Continuous
 62
     7
370
    15
100
AcDbLine
 10
2.2947516026
 20
-22.8731570513
 30
0.0
 11
2.5559428419
 21
-22.8731570513
 31
0.0
  0
LINE
  5
180
330
1F
100
AcDbEntity
  8
0
  6
Continuous
 62
     7
370
    15
100
AcDbLine
 10
2.2947516026
 20
-23.8596203926
 30
0.0
 11
2.2947516026
 21
-22.8731570513
 31
0.0
  0
LINE
  5
181
330
1F
100
AcDbEntity
  8
0
  6
Continuous
 62
     7
370
    15
100
AcDbLine
 10
0.9141693376
 20
-22.8731570513
 30
0.0
 11
0.9141693376
 21
-23.8596203926
 31
0.0
  0
LINE
  5
182
330
1F
100
AcDbEntity
  8
0
  6
Continuous
 62
     7
370
    15
100
AcDbLine
 10
0.6529780983
 20
-22.8731570513
 30
0.0
 11
0.9141693376
 21
-22.8731570513
 31
0.0
  0
LINE
  5
183
330
1F
100
AcDbEntity
  8
0
  6
Continuous
 62
     7
370
    15
100
AcDbLine
 10
0.6529780983
 20
-23.8893542167
 30
0.0
 11
0.6529780983
 21
-22.8731570513
 31
0.0
  0
LINE
  5
184
330
1F
100
AcDbEntity
  8
0
  6
Continuous
 62
     7
370
    15
100
AcDbLine
 10
3.4141426282
 20
-24.231001686
 30
0.0
 11
3.4141426282
 21
-25.0
 31
0.0
  0
LINE
  5
185
330
1F
100
AcDbEntity
  8
0
  6
Continuous
 62
     7
370
    15
100
AcDbLine
 10
4.757411859
 20
-25.0
 30
0.0
 11
4.757411859
 21
-23.9995442708
 31
0.0
  0
LINE
  5
186
330
1F
100
AcDbEntity
  8
0
  6
Continuous
 62
     7
370
    15
100
AcDbLine
 10
5.0186030983
 20
-25.0
 30
0.0
 11
4.757411859
 21
-25.0
 31
0.0
  0
LINE
  5
187
330
1F
100
AcDbEntity
  8
0
  6
Continuous
 62
     7
370
    15
100
AcDbLine
 10
5.0186030983
 20
-23.9138408954
 30
0.0
 11
5.0186030983
 21
-25.0
 31
0.0
  0
LINE
  5
188
330
1F
100
AcDbEntity
  8
0
  6
Continuous
 62
     7
370
    15
100
AcDbLine
 10
3.4141426282
 20
-22.8731570513
 30
0.0
 11
3.4141426282
 21
-23.256781684
 31
0.0
  0
LINE
  5
189
330
1F
100
AcDbEntity
  8
0
  6
Continuous
 62
     7
370
    15
100
AcDbLine
 10
3.1529513889
 20
-22.8731570513
 30
0.0
 11
3.4141426282
 21
-22.8731570513
 31
0.0
  0
LINE
  5
18A
330
1F
100
AcDbEntity
  8
0
  6
Continuous
 62
     7
370
    15
100
AcDbLine
 10
3.1529513889
 20
-25.0
 30
0.0
 11
3.1529513889
 21
-22.8731570513
 31
0.0
  0
LINE
  5
18B
330
1F
100
AcDbEntity
  8
0
  6
Continuous
 62
     7
370
    15
100
AcDbLine
 10
3.4141426282
 20
-25.0
 30
0.0
 11
3.1529513889
 21
-25.0
 31
0.0
  0
LINE
  5
18C
330
1F
100
AcDbEntity
  8
0
  6
Continuous
 62
     7
370
    15
100
AcDbLine
 10
5.5036725427
 20
-23.1343482906
 30
0.0
 11
5.5036725427
 21
-22.8731570513
 31
0.0
  0
LINE
  5
18D
330
1F
100
AcDbEntity
  8
0
  6
Continuous
 62
     7
370
    15
100
AcDbLine
 10
5.8768028846
 20
-23.1343482906
 30
0.0
 11
5.5036725427
 21
-23.1343482906
 31
0.0
  0
LINE
  5
18E
330
1F
100
AcDbEntity
  8
0
  6
Continuous
 62
     7
370
    15
100
AcDbLine
 10
5.8768028846
 20
-25.0
 30
0.0
 11
5.8768028846
 21
-23.1343482906
 31
0.0
  0
LINE
  5
18F
330
1F
100
AcDbEntity
  8
0
  6
Continuous
 62
     7
370
    15
100
AcDbLine
 10
6.1379941239
 20
-25.0
 30
0.0
 11
5.8768028846
 21
-25.0
 31
0.0
  0
LINE
  5
190
330
1F
100
AcDbEntity
  8
0
  6
Continuous
 62
     7
370
    15
100
AcDbLine
 10
6.1379941239
 20
-23.1343482906
 30
0.0
 11
6.1379941239
 21
-25.0
 31
0.0
  0
LINE
  5
191
330
1F
100
AcDbEntity
  8
0
  6
Continuous
 62
     7
370
    15
100
AcDbLine
 10
6.5111244658
 20
-23.1343482906
 30
0.0
 11
6.1379941239
 21
-23.1343482906
 31
0.0
  0
LINE
  5
192
330
1F
100
AcDbEntity
  8
0
  6
Continuous
 62
     7
370
    15
100
AcDbLine
 10
6.5111244658
 20
-22.8731570513
 30
0.0
 11
6.5111244658
 21
-23.1343482906
 31
0.0
  0
LINE
  5
193
330
1F
100
AcDbEntity
  8
0
  6
Continuous
 62
     7
370
    15
100
AcDbLine
 10
6.1379941239
 20
-22.8731570513
 30
0.0
 11
6.5111244658
 21
-22.8731570513
 31
0.0
  0
LINE
  5
194
330
1F
100
AcDbEntity
  8
0
  6
Continuous
 62
     7
370
    15
100
AcDbLine
 10
6.1379941239
 20
-22.014957265
 30
0.0
 11
6.1379941239
 21
-22.8731570513
 31
0.0
  0
LINE
  5
195
330
1F
100
AcDbEntity
  8
0
  6
Continuous
 62
     7
370
    15
100
AcDbLine
 10
5.8768028846
 20
-22.014957265
 30
0.0
 11
6.1379941239
 21
-22.014957265
 31
0.0
  0
LINE
  5
196
330
1F
100
AcDbEntity
  8
0
  6
Continuous
 62
     7
370
    15
100
AcDbLine
 10
5.8768028846
 20
-22.8731570513
 30
0.0
 11
5.8768028846
 21
-22.014957265
 31
0.0
  0
LINE
  5
197
330
1F
100
AcDbEntity
  8
0
  6
Continuous
 62
     7
370
    15
100
AcDbLine
 10
5.5036725427
 20
-22.8731570513
 30
0.0
 11
5.8768028846
 21
-22.8731570513
 31
0.0
  0
LINE
  5
198
330
1F
100
AcDbEntity
  8
0
  6
Continuous
 62
     7
370
    15
100
AcDbLine
 10
8.1528979701
 20
-22.0895833333
 30
0.0
 11
8.7207557091
 21
-22.0895833333
 31
0.0
  0
LINE
  5
199
330
1F
100
AcDbEntity
  8
0
  6
Continuous
 62
     7
370
    15
100
AcDbLine
 10
8.1528979701
 20
-25.0
 30
0.0
 11
8.1528979701
 21
-22.0895833333
 31
0.0
  0
LINE
  5
19A
330
1F
100
AcDbEntity
  8
0
  6
Continuous
 62
     7
370
    15
100
AcDbLine
 10
8.939969785
 20
-25.0
 30
0.0
 11
8.1528979701
 21
-25.0
 31
0.0
  0
LINE
  5
19B
330
1F
100
AcDbEntity
  8
0
  6
Continuous
 62
     7
370
    15
100
AcDbLine
 10
14.9438701923
 20
-25.0
 30
0.0
 11
14.9438701923
 21
-24.6321168036
 31
0.0
  0
LINE
  5
19C
330
1F
100
AcDbEntity
  8
0
  6
Continuous
 62
     7
370
    15
100
AcDbLine
 10
15.2050614316
 20
-25.0
 30
0.0
 11
14.9438701923
 21
-25.0
 31
0.0
  0
LINE
  5
19D
330
1F
100
AcDbEntity
  8
0
  6
Continuous
 62
     7
370
    15
100
AcDbLine
 10
15.2050614316
 20
-22.8731570513
 30
0.0
 11
15.2050614316
 21
-25.0
 31
0.0
  0
LINE
  5
19E
330
1F
100
AcDbEntity
  8
0
  6
Continuous
 62
     7
370
    15
100
AcDbLine
 10
14.9438701923
 20
-22.8731570513
 30
0.0
 11
15.2050614316
 21
-22.8731570513
 31
0.0
  0
LINE
  5
19F
330
1F
100
AcDbEntity
  8
0
  6
Continuous
 62
     7
370
    15
100
AcDbLine
 10
14.9438701923
 20
-23.2666929587
 30
0.0
 11
14.9438701923
 21
-22.8731570513
 31
0.0
  0
LINE
  5
1A0
330
1F
100
AcDbEntity
  8
0
  6
Continuous
 62
     7
370
    15
100
AcDbLine
 10
21.0101533287
 20
-25.0
 30
0.0
 11
20.7087339744
 21
-25.0
 31
0.0
  0
LINE
  5
1A1
330
1F
100
AcDbEntity
  8
0
  6
Continuous
 62
     7
370
    15
100
AcDbLine
 10
21.8094684829
 20
-23.751179387
 30
0.0
 11
21.0101533287
 21
-25.0
 31
0.0
  0
LINE
  5
1A2
330
1F
100
AcDbEntity
  8
0
  6
Continuous
 62
     7
370
    15
100
AcDbLine
 10
22.6087836372
 20
-25.0
 30
0.0
 11
21.8094684829
 21
-23.751179387
 31
0.0
  0
LINE
  5
1A3
330
1F
100
AcDbEntity
  8
0
  6
Continuous
 62
     7
370
    15
100
AcDbLine
 10
22.9102029915
 20
-25.0
 30
0.0
 11
22.6087836372
 21
-25.0
 31
0.0
  0
LINE
  5
1A4
330
1F
100
AcDbEntity
  8
0
  6
Continuous
 62
     7
370
    15
100
AcDbLine
 10
21.9604696681
 20
-23.5156408587
 30
0.0
 11
22.9102029915
 21
-25.0
 31
0.0
  0
LINE
  5
1A5
330
1F
100
AcDbEntity
  8
0
  6
Continuous
 62
     7
370
    15
100
AcDbLine
 10
22.8728899573
 20
-22.0895833333
 30
0.0
 11
21.9604696681
 21
-23.5156408587
 31
0.0
  0
LINE
  5
1A6
330
1F
100
AcDbEntity
  8
0
  6
Continuous
 62
     7
370
    15
100
AcDbLine
 10
22.571470603
 20
-22.0895833333
 30
0.0
 11
22.8728899573
 21
-22.0895833333
 31
0.0
  0
LINE
  5
1A7
330
1F
100
AcDbEntity
  8
0
  6
Continuous
 62
     7
370
    15
100
AcDbLine
 10
21.8094684829
 20
-23.2801023304
 30
0.0
 11
22.571470603
 21
-22.0895833333
 31
0.0
  0
LINE
  5
1A8
330
1F
100
AcDbEntity
  8
0
  6
Continuous
 62
     7
370
    15
100
AcDbLine
 10
21.0474663628
 20
-22.0895833333
 30
0.0
 11
21.8094684829
 21
-23.2801023304
 31
0.0
  0
LINE
  5
1A9
330
1F
100
AcDbEntity
  8
0
  6
Continuous
 62
     7
370
    15
100
AcDbLine
 10
20.7460470085
 20
-22.0895833333
 30
0.0
 11
21.0474663628
 21
-22.0895833333
 31
0.0
  0
LINE
  5
1AA
330
1F
100
AcDbEntity
  8
0
  6
Continuous
 62
     7
370
    15
100
AcDbLine
 10
21.6590503138
 20
-23.5156408587
 30
0.0
 11
20.7460470085
 21
-22.0895833333
 31
0.0
  0
LINE
  5
1AB
330
1F
100
AcDbEntity
  8
0
  6
Continuous
 62
     7
370
    15
100
AcDbLine
 10
20.7087339744
 20
-25.0
 30
0.0
 11
21.6590503138
 21
-23.5156408587
 31
0.0
  0
LINE
  5
1AC
330
1F
100
AcDbEntity
  8
0
  6
Continuous
 62
     7
370
    15
100
AcDbLine
 10
-21.2212051783
 20
-25.0
 30
0.0
 11
-22.2758814103
 21
-22.9011418269
 31
0.0
  0
LINE
  5
1AD
330
1F
100
AcDbEntity
  8
0
  6
Continuous
 62
     7
370
    15
100
AcDbLine
 10
-21.1623205462
 20
-25.0
 30
0.0
 11
-21.2212051783
 21
-25.0
 31
0.0
  0
LINE
  5
1AE
330
1F
100
AcDbEntity
  8
0
  6
Continuous
 62
     7
370
    15
100
AcDbLine
 10
-20.1117254274
 20
-22.9058059562
 30
0.0
 11
-21.1623205462
 21
-25.0
 31
0.0
  0
LINE
  5
1AF
330
1F
100
AcDbEntity
  8
0
  6
Continuous
 62
     7
370
    15
100
AcDbLine
 10
-19.8330437033
 20
-25.0
 30
0.0
 11
-20.1117254274
 21
-22.9058059562
 31
0.0
  0
LINE
  5
1B0
330
1F
100
AcDbEntity
  8
0
  6
Continuous
 62
     7
370
    15
100
AcDbLine
 10
-19.5706864316
 20
-25.0
 30
0.0
 11
-19.8330437033
 21
-25.0
 31
0.0
  0
LINE
  5
1B1
330
1F
100
AcDbEntity
  8
0
  6
Continuous
 62
     7
370
    15
100
AcDbLine
 10
-19.9572261452
 20
-22.0895833333
 30
0.0
 11
-19.5706864316
 21
-25.0
 31
0.0
  0
LINE
  5
1B2
330
1F
100
AcDbEntity
  8
0
  6
Continuous
 62
     7
370
    15
100
AcDbLine
 10
-19.9951221955
 20
-22.0895833333
 30
0.0
 11
-19.9572261452
 21
-22.0895833333
 31
0.0
  0
LINE
  5
1B3
330
1F
100
AcDbEntity
  8
0
  6
Continuous
 62
     7
370
    15
100
AcDbLine
 10
-21.1938034188
 20
-24.4776175214
 30
0.0
 11
-19.9951221955
 21
-22.0895833333
 31
0.0
  0
LINE
  5
1B4
330
1F
100
AcDbEntity
  8
0
  6
Continuous
 62
     7
370
    15
100
AcDbLine
 10
-22.3953997229
 20
-22.0895833333
 30
0.0
 11
-21.1938034188
 21
-24.4776175214
 31
0.0
  0
LINE
  5
1B5
330
1F
100
AcDbEntity
  8
0
  6
Continuous
 62
     7
370
    15
100
AcDbLine
 10
-22.4327127571
 20
-22.0895833333
 30
0.0
 11
-22.3953997229
 21
-22.0895833333
 31
0.0
  0
LINE
  5
1B6
330
1F
100
AcDbEntity
  8
0
  6
Continuous
 62
     7
370
    15
100
AcDbLine
 10
-22.816920406
 20
-25.0
 30
0.0
 11
-22.4327127571
 21
-22.0895833333
 31
0.0
  0
LINE
  5
1B7
330
1F
100
AcDbEntity
  8
0
  6
Continuous
 62
     7
370
    15
100
AcDbLine
 10
-22.5539801182
 20
-25.0
 30
0.0
 11
-22.816920406
 21
-25.0
 31
0.0
  0
LINE
  5
1B8
330
1F
100
AcDbEntity
  8
0
  6
Continuous
 62
     7
370
    15
100
AcDbLine
 10
-22.2758814103
 20
-22.9011418269
 30
0.0
 11
-22.5539801182
 21
-25.0
 31
0.0
  0
LINE
  5
1B9
330
1F
100
AcDbEntity
  8
0
  6
Continuous
 62
     7
370
    15
100
AcDbLine
 10
-164.4
 20
-30.0
 30
0.0
 11
164.4
 21
-30.0
 31
0.0
  0
LINE
  5
1BA
330
1F
100
AcDbEntity
  8
0
  6
Continuous
 62
     7
370
    15
100
AcDbLine
 10
-169.4
 20
25.0
 30
0.0
 11
-169.4
 21
-25.0
 31
0.0
  0
LINE
  5
1BB
330
1F
100
AcDbEntity
  8
0
  6
Continuous
 62
     7
370
    15
100
AcDbLine
 10
-164.4
 20
30.0
 30
0.0
 11
-159.4
 21
30.0
 31
0.0
  0
LINE
  5
1BC
330
1F
100
AcDbEntity
  8
0
  6
Continuous
 62
     7
370
    15
100
AcDbLine
 10
-159.4
 20
30.0
 30
0.0
 11
-159.4
 21
0.0
 31
0.0
  0
LINE
  5
1BD
330
1F
100
AcDbEntity
  8
0
  6
Continuous
 62
     7
370
    15
100
AcDbLine
 10
-156.0
 20
0.0
 30
0.0
 11
-159.4
 21
0.0
 31
0.0
  0
LINE
  5
1BE
330
1F
100
AcDbEntity
  8
0
  6
Continuous
 62
     7
370
    15
100
AcDbLine
 10
-156.0
 20
30.0
 30
0.0
 11
-156.0
 21
0.0
 31
0.0
  0
LINE
  5
1BF
330
1F
100
AcDbEntity
  8
0
  6
Continuous
 62
     7
370
    15
100
AcDbLine
 10
-156.0
 20
30.0
 30
0.0
 11
-123.4
 21
30.0
 31
0.0
  0
LINE
  5
1C0
330
1F
100
AcDbEntity
  8
0
  6
Continuous
 62
     7
370
    15
100
AcDbLine
 10
-123.4
 20
0.0
 30
0.0
 11
-123.4
 21
30.0
 31
0.0
  0
LINE
  5
1C1
330
1F
100
AcDbEntity
  8
0
  6
Continuous
 62
     7
370
    15
100
AcDbLine
 10
-120.0
 20
0.0
 30
0.0
 11
-123.4
 21
0.0
 31
0.0
  0
LINE
  5
1C2
330
1F
100
AcDbEntity
  8
0
  6
Continuous
 62
     7
370
    15
100
AcDbLine
 10
-120.0
 20
0.0
 30
0.0
 11
-120.0
 21
30.0
 31
0.0
  0
LINE
  5
1C3
330
1F
100
AcDbEntity
  8
0
  6
Continuous
 62
     7
370
    15
100
AcDbLine
 10
-120.0
 20
30.0
 30
0.0
 11
-3.0
 21
30.0
 31
0.0
  0
LINE
  5
1C4
330
1F
100
AcDbEntity
  8
0
  6
Continuous
 62
     7
370
    15
100
AcDbLine
 10
-3.0
 20
30.0
 30
0.0
 11
-3.0
 21
3.0
 31
0.0
  0
LINE
  5
1C5
330
1F
100
AcDbEntity
  8
0
  6
Continuous
 62
     7
370
    15
100
AcDbLine
 10
3.0
 20
30.0
 30
0.0
 11
3.0
 21
3.0
 31
0.0
  0
LINE
  5
1C6
330
1F
100
AcDbEntity
  8
0
  6
Continuous
 62
     7
370
    15
100
AcDbLine
 10
3.0
 20
30.0
 30
0.0
 11
156.0
 21
30.0
 31
0.0
  0
LINE
  5
1C7
330
1F
100
AcDbEntity
  8
0
  6
Continuous
 62
     7
370
    15
100
AcDbLine
 10
156.0
 20
30.0
 30
0.0
 11
156.0
 21
0.0
 31
0.0
  0
LINE
  5
1C8
330
1F
100
AcDbEntity
  8
0
  6
Continuous
 62
     7
370
    15
100
AcDbLine
 10
156.0
 20
0.0
 30
0.0
 11
159.4
 21
0.0
 31
0.0
  0
LINE
  5
1C9
330
1F
100
AcDbEntity
  8
0
  6
Continuous
 62
     7
370
    15
100
AcDbLine
 10
159.4
 20
30.0
 30
0.0
 11
159.4
 21
0.0
 31
0.0
  0
LINE
  5
1CA
330
1F
100
AcDbEntity
  8
0
  6
Continuous
 62
     7
370
    15
100
AcDbLine
 10
159.4
 20
30.0
 30
0.0
 11
164.4
 21
30.0
 31
0.0
  0
LINE
  5
1CB
330
1F
100
AcDbEntity
  8
0
  6
Continuous
 62
     7
370
    15
100
AcDbLine
 10
169.4
 20
25.0
 30
0.0
 11
169.4
 21
-25.0
 31
0.0
  0
LINE
  5
1CC
330
1F
100
AcDbEntity
  8
0
  6
Continuous
 62
     7
370
    15
100
AcDbLine
 10
18.8990518162
 20
-25.0
 30
0.0
 11
18.8990518162
 21
-24.6321168036
 31
0.0
  0
LINE
  5
1CD
330
1F
100
AcDbEntity
  8
0
  6
Continuous
 62
     7
370
    15
100
AcDbLine
 10
19.1602430556
 20
-25.0
 30
0.0
 11
18.8990518162
 21
-25.0
 31
0.0
  0
LINE
  5
1CE
330
1F
100
AcDbEntity
  8
0
  6
Continuous
 62
     7
370
    15
100
AcDbLine
 10
19.1602430556
 20
-22.014957265
 30
0.0
 11
19.1602430556
 21
-25.0
 31
0.0
  0
LINE
  5
1CF
330
1F
100
AcDbEntity
  8
0
  6
Continuous
 62
     7
370
    15
100
AcDbLine
 10
18.8990518162
 20
-22.014957265
 30
0.0
 11
19.1602430556
 21
-22.014957265
 31
0.0
  0
LINE
  5
1D0
330
1F
100
AcDbEntity
  8
0
  6
Continuous
 62
     7
370
    15
100
AcDbLine
 10
18.8990518162
 20
-23.2847664597
 30
0.0
 11
18.8990518162
 21
-22.014957265
 31
0.0
  0
LINE
  5
1D1
330
1F
100
AcDbEntity
  8
0
  6
Continuous
 62
     7
370
    15
100
AcDbLine
 10
15.9886351496
 20
-24.2852221888
 30
0.0
 11
15.9886351496
 21
-25.0
 31
0.0
  0
LINE
  5
1D2
330
1F
100
AcDbEntity
  8
0
  6
Continuous
 62
     7
370
    15
100
AcDbLine
 10
16.7348958333
 20
-22.908721037
 30
0.0
 11
16.5914738582
 21
-23.1349313068
 31
0.0
  0
LINE
  5
1D3
330
1F
100
AcDbEntity
  8
0
  6
Continuous
 62
     7
370
    15
100
AcDbLine
 10
15.9886351496
 20
-22.8731570513
 30
0.0
 11
15.9886351496
 21
-23.1862367288
 31
0.0
  0
LINE
  5
1D4
330
1F
100
AcDbEntity
  8
0
  6
Continuous
 62
     7
370
    15
100
AcDbLine
 10
15.7274439103
 20
-22.8731570513
 30
0.0
 11
15.9886351496
 21
-22.8731570513
 31
0.0
  0
LINE
  5
1D5
330
1F
100
AcDbEntity
  8
0
  6
Continuous
 62
     7
370
    15
100
AcDbLine
 10
15.7274439103
 20
-25.0
 30
0.0
 11
15.7274439103
 21
-22.8731570513
 31
0.0
  0
LINE
  5
1D6
330
1F
100
AcDbEntity
  8
0
  6
Continuous
 62
     7
370
    15
100
AcDbLine
 10
15.9886351496
 20
-25.0
 30
0.0
 11
15.7274439103
 21
-25.0
 31
0.0
  0
LINE
  5
1D7
330
1F
100
AcDbEntity
  8
0
  6
Continuous
 62
     7
370
    15
100
AcDbLine
 10
-4.1318355202
 20
-25.0
 30
0.0
 11
-5.1865117521
 21
-22.9011418269
 31
0.0
  0
LINE
  5
1D8
330
1F
100
AcDbEntity
  8
0
  6
Continuous
 62
     7
370
    15
100
AcDbLine
 10
-4.0729508881
 20
-25.0
 30
0.0
 11
-4.1318355202
 21
-25.0
 31
0.0
  0
LINE
  5
1D9
330
1F
100
AcDbEntity
  8
0
  6
Continuous
 62
     7
370
    15
100
AcDbLine
 10
-3.0223557692
 20
-22.9058059562
 30
0.0
 11
-4.0729508881
 21
-25.0
 31
0.0
  0
LINE
  5
1DA
330
1F
100
AcDbEntity
  8
0
  6
Continuous
 62
     7
370
    15
100
AcDbLine
 10
-2.7436740451
 20
-25.0
 30
0.0
 11
-3.0223557692
 21
-22.9058059562
 31
0.0
  0
LINE
  5
1DB
330
1F
100
AcDbEntity
  8
0
  6
Continuous
 62
     7
370
    15
100
AcDbLine
 10
-2.4813167735
 20
-25.0
 30
0.0
 11
-2.7436740451
 21
-25.0
 31
0.0
  0
LINE
  5
1DC
330
1F
100
AcDbEntity
  8
0
  6
Continuous
 62
     7
370
    15
100
AcDbLine
 10
-2.867856487
 20
-22.0895833333
 30
0.0
 11
-2.4813167735
 21
-25.0
 31
0.0
  0
LINE
  5
1DD
330
1F
100
AcDbEntity
  8
0
  6
Continuous
 62
     7
370
    15
100
AcDbLine
 10
-2.9057525374
 20
-22.0895833333
 30
0.0
 11
-2.867856487
 21
-22.0895833333
 31
0.0
  0
LINE
  5
1DE
330
1F
100
AcDbEntity
  8
0
  6
Continuous
 62
     7
370
    15
100
AcDbLine
 10
-4.1044337607
 20
-24.4776175214
 30
0.0
 11
-2.9057525374
 21
-22.0895833333
 31
0.0
  0
LINE
  5
1DF
330
1F
100
AcDbEntity
  8
0
  6
Continuous
 62
     7
370
    15
100
AcDbLine
 10
-5.3060300648
 20
-22.0895833333
 30
0.0
 11
-4.1044337607
 21
-24.4776175214
 31
0.0
  0
LINE
  5
1E0
330
1F
100
AcDbEntity
  8
0
  6
Continuous
 62
     7
370
    15
100
AcDbLine
 10
-5.343343099
 20
-22.0895833333
 30
0.0
 11
-5.3060300648
 21
-22.0895833333
 31
0.0
  0
LINE
  5
1E1
330
1F
100
AcDbEntity
  8
0
  6
Continuous
 62
     7
370
    15
100
AcDbLine
 10
-5.7275507479
 20
-25.0
 30
0.0
 11
-5.343343099
 21
-22.0895833333
 31
0.0
  0
LINE
  5
1E2
330
1F
100
AcDbEntity
  8
0
  6
Continuous
 62
     7
370
    15
100
AcDbLine
 10
-5.4646104601
 20
-25.0
 30
0.0
 11
-5.7275507479
 21
-25.0
 31
0.0
  0
LINE
  5
1E3
330
1F
100
AcDbEntity
  8
0
  6
Continuous
 62
     7
370
    15
100
AcDbLine
 10
-5.1865117521
 20
-22.9011418269
 30
0.0
 11
-5.4646104601
 21
-25.0
 31
0.0
  0
LINE
  5
1E4
330
1F
100
AcDbEntity
  8
0
  6
Continuous
 62
     7
370
    15
100
AcDbLine
 10
-110.0
 20
-25.0
 30
0.0
 11
-45.0
 21
-25.0
 31
0.0
  0
LINE
  5
1E5
330
1F
100
AcDbEntity
  8
0
  6
Continuous
 62
     7
370
    15
100
AcDbLine
 10
-45.0
 20
-25.0
 30
0.0
 11
-45.0
 21
-2.0
 31
0.0
  0
LINE
  5
1E6
330
1F
100
AcDbEntity
  8
0
  6
Continuous
 62
     7
370
    15
100
AcDbLine
 10
-47.0
 20
0.0
 30
0.0
 11
-108.0
 21
0.0
 31
0.0
  0
LINE
  5
1E7
330
1F
100
AcDbEntity
  8
0
  6
Continuous
 62
     7
370
    15
100
AcDbLine
 10
-110.0
 20
-2.0
 30
0.0
 11
-110.0
 21
-25.0
 31
0.0
  0
LINE
  5
1E8
330
1F
100
AcDbEntity
  8
0
  6
Continuous
 62
     7
370
    15
100
AcDbLine
 10
8.4140892094
 20
-22.3880876068
 30
0.0
 11
8.4140892094
 21
-23.3209134615
 31
0.0
  0
LINE
  5
1E9
330
1F
100
AcDbEntity
  8
0
  6
Continuous
 62
     7
370
    15
100
AcDbLine
 10
8.4140892094
 20
-23.3209134615
 30
0.0
 11
8.5895770733
 21
-23.3209134615
 31
0.0
  0
LINE
  5
1EA
330
1F
100
AcDbEntity
  8
0
  6
Continuous
 62
     7
370
    15
100
AcDbLine
 10
8.7685630342
 20
-22.3880876068
 30
0.0
 11
8.4140892094
 21
-22.3880876068
 31
0.0
  0
LINE
  5
1EB
330
1F
100
AcDbEntity
  8
0
  6
Continuous
 62
     7
370
    15
100
AcDbLine
 10
8.4140892094
 20
-23.619417735
 30
0.0
 11
8.4140892094
 21
-24.7014957265
 31
0.0
  0
LINE
  5
1EC
330
1F
100
AcDbEntity
  8
0
  6
Continuous
 62
     7
370
    15
100
AcDbLine
 10
8.4140892094
 20
-24.7014957265
 30
0.0
 11
8.786053519
 21
-24.7014957265
 31
0.0
  0
LINE
  5
1ED
330
1F
100
AcDbEntity
  8
0
  6
Continuous
 62
     7
370
    15
100
AcDbLine
 10
8.5872450087
 20
-23.619417735
 30
0.0
 11
8.4140892094
 21
-23.619417735
 31
0.0
  0
ARC
  5
1EE
330
1F
100
AcDbEntity
  8
0
  6
Continuous
 62
     7
370
    15
100
AcDbCircle
 10
164.4
 20
-25.0
 30
0.0
 40
5.000000000000085
100
AcDbArc
 50
270.0
 51
0.0
  0
ARC
  5
1EF
330
1F
100
AcDbEntity
  8
0
  6
Continuous
 62
     7
370
    15
100
AcDbCircle
 10
-164.4
 20
-25.0
 30
0.0
 40
5.000000000000057
100
AcDbArc
 50
180.0
 51
270.0
  0
ARC
  5
1F0
330
1F
100
AcDbEntity
  8
0
  6
Continuous
 62
     7
370
    15
100
AcDbCircle
 10
-164.4
 20
25.0
 30
0.0
 40
5.000000000000085
100
AcDbArc
 50
90.0
 51
180.0
  0
ARC
  5
1F1
330
1F
100
AcDbEntity
  8
0
  6
Continuous
 62
     7
370
    15
100
AcDbCircle
 10
0.0
 20
3.0
 30
0.0
 40
3.0
100
AcDbArc
 50
180.0
 51
0.0
  0
ARC
  5
1F2
330
1F
100
AcDbEntity
  8
0
  6
Continuous
 62
     7
370
    15
100
AcDbCircle
 10
164.4
 20
25.0
 30
0.0
 40
5.000000000000057
100
AcDbArc
 50
0.0
 51
90.0
  0
ARC
  5
1F3
330
1F
100
AcDbEntity
  8
0
  6
Continuous
 62
     7
370
    15
100
AcDbCircle
 10
-47.0
 20
-2.0
 30
0.0
 40
2.0
100
AcDbArc
 50
0.0
 51
90.0
  0
ARC
  5
1F4
330
1F
100
AcDbEntity
  8
0
  6
Continuous
 62
     7
370
    15
100
AcDbCircle
 10
-108.0
 20
-2.0
 30
0.0
 40
2.0
100
AcDbArc
 50
90.0
 51
180.0
  0
MTEXT
  5
1F6
330
1F
100
AcDbEntity
  8
0
  6
Continuous
 62
     7
100
AcDbMText
 10
-169.4
 20
-31.0195663917
 30
0.0
 40
4.83362
 41
0.0
 71
     1
 72
     1
  1
SOLIDWORKS Educational Product.
  7
SLDTEXTSTYLE0
 73
     1
 44
1.0
  0
MTEXT
  5
1F7
330
1F
100
AcDbEntity
  8
0
  6
Continuous
 62
     7
100
AcDbMText
 10
-169.4
 20
-38.2699963917
 30
0.0
 40
4.83362
 41
0.0
 71
     1
 72
     1
  1
For Instructional Use Only.
  7
SLDTEXTSTYLE0
 73
     1
 44
1.0
  0
ENDSEC
  0
SECTION
  2
OBJECTS
  0
DICTIONARY
  5
C
330
0
100
AcDbDictionary
281
     1
  3
ACAD_GROUP
350
D
  3
ACAD_LAYOUT
350
1A
  3
ACAD_MLINESTYLE
350
17
  3
ACAD_PLOTSETTINGS
350
19
  3
ACAD_PLOTSTYLENAME
350
E
  3
ACAD_SCALELIST
350
47
  0
DICTIONARY
  5
D
102
{ACAD_REACTORS
330
C
102
}
330
C
100
AcDbDictionary
281
     1
  0
DICTIONARY
  5
1A
102
{ACAD_REACTORS
330
C
102
}
330
C
100
AcDbDictionary
281
     1
  3
Layout1
350
1E
  3
Layout2
350
26
  3
Model
350
22
  0
DICTIONARY
  5
17
102
{ACAD_REACTORS
330
C
102
}
330
C
100
AcDbDictionary
281
     1
  3
Standard
350
18
  0
DICTIONARY
  5
19
102
{ACAD_REACTORS
330
C
102
}
330
C
100
AcDbDictionary
281
     1
  0
ACDBDICTIONARYWDFLT
  5
E
102
{ACAD_REACTORS
330
C
102
}
330
C
100
AcDbDictionary
281
     1
  3
Normal
350
F
100
AcDbDictionaryWithDefault
340
F
  0
DICTIONARY
  5
47
102
{ACAD_REACTORS
330
C
102
}
330
C
100
AcDbDictionary
281
     1
  3
A0
350
48
  3
A1
350
49
  3
A2
350
4A
  3
A3
350
4B
  3
A4
350
4C
  3
A5
350
4D
  3
A6
350
4E
  3
A7
350
4F
  3
A8
350
50
  3
A9
350
51
  3
B0
350
52
  3
B1
350
53
  3
B2
350
54
  3
B3
350
55
  3
B4
350
56
  3
B5
350
57
  3
B6
350
58
  3
B7
350
59
  3
B8
350
5A
  3
B9
350
5B
  3
C0
350
5C
  3
C1
350
5D
  3
C2
350
5E
  3
C3
350
5F
  3
C4
350
60
  3
C5
350
61
  3
C6
350
62
  3
C7
350
63
  3
C8
350
64
  3
C9
350
65
  3
D0
350
66
  3
D1
350
67
  3
D2
350
68
  0
LAYOUT
  5
1E
102
{ACAD_REACTORS
330
1A
102
}
330
1A
100
AcDbPlotSettings
  1

  2
none_device
  4

  6

 40
0.0
 41
0.0
 42
0.0
 43
0.0
 44
0.0
 45
0.0
 46
0.0
 47
0.0
 48
0.0
 49
0.0
140
0.0
141
0.0
142
1.0
143
1.0
 70
   688
 72
     1
 73
     0
 74
     5
  7

 75
    16
147
1.0
148
0.0
149
0.0
100
AcDbLayout
  1
Layout1
 70
     1
 71
     1
 10
0.0
 20
0.0
 11
420.0
 21
297.0
 12
0.0
 22
0.0
 32
0.0
 14
1.0000000000E+20
 24
1.0000000000E+20
 34
1.0000000000E+20
 15
-1.0000000000E+20
 25
-1.0000000000E+20
 35
-1.0000000000E+20
146
0.0
 13
0.0
 23
0.0
 33
0.0
 16
1.0
 26
0.0
 36
0.0
 17
0.0
 27
1.0
 37
0.0
 76
     0
330
1B
  0
LAYOUT
  5
26
102
{ACAD_REACTORS
330
1A
102
}
330
1A
100
AcDbPlotSettings
  1

  2
none_device
  4

  6

 40
0.0
 41
0.0
 42
0.0
 43
0.0
 44
0.0
 45
0.0
 46
0.0
 47
0.0
 48
0.0
 49
0.0
140
0.0
141
0.0
142
1.0
143
1.0
 70
   688
 72
     1
 73
     0
 74
     5
  7

 75
    16
147
1.0
148
0.0
149
0.0
100
AcDbLayout
  1
Layout2
 70
     1
 71
     2
 10
0.0
 20
0.0
 11
0.0
 21
0.0
 12
0.0
 22
0.0
 32
0.0
 14
0.0
 24
0.0
 34
0.0
 15
0.0
 25
0.0
 35
0.0
146
0.0
 13
0.0
 23
0.0
 33
0.0
 16
1.0
 26
0.0
 36
0.0
 17
0.0
 27
1.0
 37
0.0
 76
     0
330
23
  0
LAYOUT
  5
22
102
{ACAD_REACTORS
330
1A
102
}
330
1A
100
AcDbPlotSettings
  1

  2
none_device
  4
ANSI_A_(11.00_x_8.50_Inches)
  6

 40
6.35
 41
19.05
 42
6.35000508
 43
19.05000254
 44
279.4
 45
215.9
 46
133.34999746
 47
88.89999873
 48
0.0
 49
0.0
140
0.0
141
0.0
142
0.0321428571
143
1.0
 70
  1696
 72
     0
 73
     0
 74
     0
  7

 75
     0
147
0.0179189148
148
-1300.4909072572
149
0.0
100
AcDbLayout
  1
Model
 70
     1
 71
     0
 10
0.0
 20
0.0
 11
420.0
 21
297.0
 12
0.0
 22
0.0
 32
0.0
 14
-169.4
 24
-30.0
 34
0.0
 15
169.4
 25
30.0
 35
0.0
146
0.0
 13
0.0
 23
0.0
 33
0.0
 16
1.0
 26
0.0
 36
0.0
 17
0.0
 27
1.0
 37
0.0
 76
     0
330
1F
331
29
  0
MLINESTYLE
  5
18
102
{ACAD_REACTORS
330
17
102
}
330
17
100
AcDbMlineStyle
  2
Standard
 70
     0
  3

 62
   256
 51
90.0
 52
90.0
 71
     2
 49
0.5
 62
   256
  6
BYLAYER
 49
-0.5
 62
   256
  6
BYLAYER
  0
ACDBPLACEHOLDER
  5
F
102
{ACAD_REACTORS
330
E
102
}
330
E
  0
SCALE
  5
48
102
{ACAD_REACTORS
330
47
102
}
330
47
100
AcDbScale
 70
     0
300
1:1
140
1.0
141
1.0
290
     1
  0
SCALE
  5
49
102
{ACAD_REACTORS
330
47
102
}
330
47
100
AcDbScale
 70
     0
300
1:2
140
1.0
141
2.0
290
     0
  0
SCALE
  5
4A
102
{ACAD_REACTORS
330
47
102
}
330
47
100
AcDbScale
 70
     0
300
1:4
140
1.0
141
4.0
290
     0
  0
SCALE
  5
4B
102
{ACAD_REACTORS
330
47
102
}
330
47
100
AcDbScale
 70
     0
300
1:5
140
1.0
141
5.0
290
     0
  0
SCALE
  5
4C
102
{ACAD_REACTORS
330
47
102
}
330
47
100
AcDbScale
 70
     0
300
1:8
140
1.0
141
8.0
290
     0
  0
SCALE
  5
4D
102
{ACAD_REACTORS
330
47
102
}
330
47
100
AcDbScale
 70
     0
300
1:10
140
1.0
141
10.0
290
     0
  0
SCALE
  5
4E
102
{ACAD_REACTORS
330
47
102
}
330
47
100
AcDbScale
 70
     0
300
1:16
140
1.0
141
16.0
290
     0
  0
SCALE
  5
4F
102
{ACAD_REACTORS
330
47
102
}
330
47
100
AcDbScale
 70
     0
300
1:20
140
1.0
141
20.0
290
     0
  0
SCALE
  5
50
102
{ACAD_REACTORS
330
47
102
}
330
47
100
AcDbScale
 70
     0
300
1:30
140
1.0
141
30.0
290
     0
  0
SCALE
  5
51
102
{ACAD_REACTORS
330
47
102
}
330
47
100
AcDbScale
 70
     0
300
1:40
140
1.0
141
40.0
290
     0
  0
SCALE
  5
52
102
{ACAD_REACTORS
330
47
102
}
330
47
100
AcDbScale
 70
     0
300
1:50
140
1.0
141
50.0
290
     0
  0
SCALE
  5
53
102
{ACAD_REACTORS
330
47
102
}
330
47
100
AcDbScale
 70
     0
300
1:100
140
1.0
141
100.0
290
     0
  0
SCALE
  5
54
102
{ACAD_REACTORS
330
47
102
}
330
47
100
AcDbScale
 70
     0
300
2:1
140
2.0
141
1.0
290
     0
  0
SCALE
  5
55
102
{ACAD_REACTORS
330
47
102
}
330
47
100
AcDbScale
 70
     0
300
4:1
140
4.0
141
1.0
290
     0
  0
SCALE
  5
56
102
{ACAD_REACTORS
330
47
102
}
330
47
100
AcDbScale
 70
     0
300
8:1
140
8.0
141
1.0
290
     0
  0
SCALE
  5
57
102
{ACAD_REACTORS
330
47
102
}
330
47
100
AcDbScale
 70
     0
300
10:1
140
10.0
141
1.0
290
     0
  0
SCALE
  5
58
102
{ACAD_REACTORS
330
47
102
}
330
47
100
AcDbScale
 70
     0
300
100:1
140
100.0
141
1.0
290
     0
  0
SCALE
  5
59
102
{ACAD_REACTORS
330
47
102
}
330
47
100
AcDbScale
 70
     0
300
1/128" = 1'-0"
140
0.0078125
141
12.0
290
     0
  0
SCALE
  5
5A
102
{ACAD_REACTORS
330
47
102
}
330
47
100
AcDbScale
 70
     0
300
1/64" = 1'-0"
140
0.015625
141
12.0
290
     0
  0
SCALE
  5
5B
102
{ACAD_REACTORS
330
47
102
}
330
47
100
AcDbScale
 70
     0
300
1/32" = 1'-0"
140
0.03125
141
12.0
290
     0
  0
SCALE
  5
5C
102
{ACAD_REACTORS
330
47
102
}
330
47
100
AcDbScale
 70
     0
300
1/16" = 1'-0"
140
0.0625
141
12.0
290
     0
  0
SCALE
  5
5D
102
{ACAD_REACTORS
330
47
102
}
330
47
100
AcDbScale
 70
     0
300
3/32" = 1'-0"
140
0.09375
141
12.0
290
     0
  0
SCALE
  5
5E
102
{ACAD_REACTORS
330
47
102
}
330
47
100
AcDbScale
 70
     0
300
1/8" = 1'-0"
140
0.125
141
12.0
290
     0
  0
SCALE
  5
5F
102
{ACAD_REACTORS
330
47
102
}
330
47
100
AcDbScale
 70
     0
300
3/16" = 1'-0"
140
0.1875
141
12.0
290
     0
  0
SCALE
  5
60
102
{ACAD_REACTORS
330
47
102
}
330
47
100
AcDbScale
 70
     0
300
1/4" = 1'-0"
140
0.25
141
12.0
290
     0
  0
SCALE
  5
61
102
{ACAD_REACTORS
330
47
102
}
330
47
100
AcDbScale
 70
     0
300
3/8" = 1'-0"
140
0.375
141
12.0
290
     0
  0
SCALE
  5
62
102
{ACAD_REACTORS
330
47
102
}
330
47
100
AcDbScale
 70
     0
300
1/2" = 1'-0"
140
0.5
141
12.0
290
     0
  0
SCALE
  5
63
102
{ACAD_REACTORS
330
47
102
}
330
47
100
AcDbScale
 70
     0
300
3/4" = 1'-0"
140
0.75
141
12.0
290
     0
  0
SCALE
  5
64
102
{ACAD_REACTORS
330
47
102
}
330
47
100
AcDbScale
 70
     0
300
1" = 1'-0"
140
1.0
141
12.0
290
     0
  0
SCALE
  5
65
102
{ACAD_REACTORS
330
47
102
}
330
47
100
AcDbScale
 70
     0
300
1-1/2" = 1'-0"
140
1.5
141
12.0
290
     0
  0
SCALE
  5
66
102
{ACAD_REACTORS
330
47
102
}
330
47
100
AcDbScale
 70
     0
300
3" = 1'-0"
140
3.0
141
12.0
290
     0
  0
SCALE
  5
67
102
{ACAD_REACTORS
330
47
102
}
330
47
100
AcDbScale
 70
     0
300
6" = 1'-0"
140
6.0
141
12.0
290
     0
  0
SCALE
  5
68
102
{ACAD_REACTORS
330
47
102
}
330
47
100
AcDbScale
 70
     0
300
1'-0" = 1'-0"
140
12.0
141
12.0
290
     0
  0
ENDSEC
  0
EOF
