  0
SECTION
  2
HEADER
  9
$ACADVER
  1
AC1015
  9
$ACADMAINTVER
 70
     6
  9
$DWGCODEPAGE
  3
ANSI_1252
  9
$INSBASE
 10
0.0
 20
0.0
 30
0.0
  9
$EXTMIN
 10
0.0
 20
0.0
 30
0.0
  9
$EXTMAX
 10
339.0
 20
180.0
 30
0.0
  9
$LIMMIN
 10
0.0
 20
0.0
  9
$LIMMAX
 10
420.0
 20
297.0
  9
$ORTHOMODE
 70
     0
  9
$REGENMODE
 70
     1
  9
$FILLMODE
 70
     1
  9
$QTEXTMODE
 70
     0
  9
$MIRRTEXT
 70
     1
  9
$LTSCALE
 40
1.0
  9
$ATTMODE
 70
     1
  9
$TEXTSIZE
 40
6.35
  9
$TRACEWID
 40
1.0
  9
$TEXTSTYLE
  7
Standard
  9
$CLAYER
  8
0
  9
$CELTYPE
  6
ByLayer
  9
$CECOLOR
 62
   256
  9
$CELTSCALE
 40
1.0
  9
$DISPSILH
 70
     0
  9
$DIMSCALE
 40
1.0
  9
$DIMASZ
 40
5.9944
  9
$DIMEXO
 40
0.9906
  9
$DIMDLI
 40
3.75
  9
$DIMRND
 40
0.0
  9
$DIMDLE
 40
0.0
  9
$DIMEXE
 40
0.9906
  9
$DIMTP
 40
0.0
  9
$DIMTM
 40
0.0
  9
$DIMTXT
 40
6.35
  9
$DIMCEN
 40
2.5
  9
$DIMTSZ
 40
0.0
  9
$DIMTOL
 70
     0
  9
$DIMLIM
 70
     0
  9
$DIMTIH
 70
     1
  9
$DIMTOH
 70
     1
  9
$DIMSE1
 70
     0
  9
$DIMSE2
 70
     0
  9
$DIMTAD
 70
     1
  9
$DIMZIN
 70
     0
  9
$DIMBLK
  1

  9
$DIMASO
 70
     1
  9
$DIMSHO
 70
     1
  9
$DIMPOST
  1

  9
$DIMAPOST
  1

  9
$DIMALT
 70
     0
  9
$DIMALTD
 70
     3
  9
$DIMALTF
 40
0.0393700787
  9
$DIMLFAC
 40
1.0
  9
$DIMTOFL
 70
     1
  9
$DIMTVP
 40
0.0
  9
$DIMTIX
 70
     0
  9
$DIMSOXD
 70
     0
  9
$DIMSAH
 70
     0
  9
$DIMBLK1
  1

  9
$DIMBLK2
  1

  9
$DIMSTYLE
  2
ISO-25
  9
$DIMCLRD
 70
     0
  9
$DIMCLRE
 70
     0
  9
$DIMCLRT
 70
     0
  9
$DIMTFAC
 40
1.0
  9
$DIMGAP
 40
1.524
  9
$DIMJUST
 70
     0
  9
$DIMSD1
 70
     0
  9
$DIMSD2
 70
     0
  9
$DIMTOLJ
 70
     0
  9
$DIMTZIN
 70
     0
  9
$DIMALTZ
 70
     0
  9
$DIMALTTZ
 70
     0
  9
$DIMUPT
 70
     0
  9
$DIMDEC
 70
     2
  9
$DIMTDEC
 70
     2
  9
$DIMALTU
 70
     2
  9
$DIMALTTD
 70
     3
  9
$DIMTXSTY
  7
Standard
  9
$DIMAUNIT
 70
     0
  9
$DIMADEC
 70
     2
  9
$DIMALTRND
 40
0.0
  9
$DIMAZIN
 70
     0
  9
$DIMDSEP
 70
    44
  9
$DIMATFIT
 70
     3
  9
$DIMFRAC
 70
     0
  9
$DIMLDRBLK
  1

  9
$DIMLUNIT
 70
     2
  9
$DIMLWD
 70
    -2
  9
$DIMLWE
 70
    -2
  9
$DIMTMOVE
 70
     0
  9
$LUNITS
 70
     2
  9
$LUPREC
 70
     2
  9
$SKETCHINC
 40
1.0
  9
$FILLETRAD
 40
10.0
  9
$AUNITS
 70
     0
  9
$AUPREC
 70
     2
  9
$MENU
  1
.
  9
$ELEVATION
 40
0.0
  9
$PELEVATION
 40
0.0
  9
$THICKNESS
 40
0.0
  9
$LIMCHECK
 70
     0
  9
$CHAMFERA
 40
0.0
  9
$CHAMFERB
 40
0.0
  9
$CHAMFERC
 40
0.0
  9
$CHAMFERD
 40
0.0
  9
$SKPOLY
 70
     0
  9
$TDCREATE
 40
2458002.485991261
  9
$TDUCREATE
 40
2458002.444324595
  9
$TDUPDATE
 40
2458002.486064167
  9
$TDUUPDATE
 40
2458002.4443975
  9
$TDINDWG
 40
0.0000000116
  9
$TDUSRTIMER
 40
0.0000000116
  9
$USRTIMER
 70
     1
  9
$ANGBASE
 50
0.0
  9
$ANGDIR
 70
     0
  9
$PDMODE
 70
     0
  9
$PDSIZE
 40
-1.0
  9
$PLINEWID
 40
0.0
  9
$SPLFRAME
 70
     0
  9
$SPLINETYPE
 70
     6
  9
$SPLINESEGS
 70
     8
  9
$HANDSEED
  5
1BE
  9
$SURFTAB1
 70
     6
  9
$SURFTAB2
 70
     6
  9
$SURFTYPE
 70
     6
  9
$SURFU
 70
     6
  9
$SURFV
 70
     6
  9
$UCSBASE
  2

  9
$UCSNAME
  2

  9
$UCSORG
 10
0.0
 20
0.0
 30
0.0
  9
$UCSXDIR
 10
1.0
 20
0.0
 30
0.0
  9
$UCSYDIR
 10
0.0
 20
1.0
 30
0.0
  9
$UCSORTHOREF
  2

  9
$UCSORTHOVIEW
 70
     0
  9
$UCSORGTOP
 10
0.0
 20
0.0
 30
0.0
  9
$UCSORGBOTTOM
 10
0.0
 20
0.0
 30
0.0
  9
$UCSORGLEFT
 10
0.0
 20
0.0
 30
0.0
  9
$UCSORGRIGHT
 10
0.0
 20
0.0
 30
0.0
  9
$UCSORGFRONT
 10
0.0
 20
0.0
 30
0.0
  9
$UCSORGBACK
 10
0.0
 20
0.0
 30
0.0
  9
$PUCSBASE
  2

  9
$PUCSNAME
  2

  9
$PUCSORG
 10
0.0
 20
0.0
 30
0.0
  9
$PUCSXDIR
 10
1.0
 20
0.0
 30
0.0
  9
$PUCSYDIR
 10
0.0
 20
1.0
 30
0.0
  9
$PUCSORTHOREF
  2

  9
$PUCSORTHOVIEW
 70
     0
  9
$PUCSORGTOP
 10
0.0
 20
0.0
 30
0.0
  9
$PUCSORGBOTTOM
 10
0.0
 20
0.0
 30
0.0
  9
$PUCSORGLEFT
 10
0.0
 20
0.0
 30
0.0
  9
$PUCSORGRIGHT
 10
0.0
 20
0.0
 30
0.0
  9
$PUCSORGFRONT
 10
0.0
 20
0.0
 30
0.0
  9
$PUCSORGBACK
 10
0.0
 20
0.0
 30
0.0
  9
$USERI1
 70
     0
  9
$USERI2
 70
     0
  9
$USERI3
 70
     0
  9
$USERI4
 70
     0
  9
$USERI5
 70
     0
  9
$USERR1
 40
0.0
  9
$USERR2
 40
0.0
  9
$USERR3
 40
0.0
  9
$USERR4
 40
0.0
  9
$USERR5
 40
0.0
  9
$WORLDVIEW
 70
     1
  9
$SHADEDGE
 70
     3
  9
$SHADEDIF
 70
    70
  9
$TILEMODE
 70
     1
  9
$MAXACTVP
 70
    64
  9
$PINSBASE
 10
0.0
 20
0.0
 30
0.0
  9
$PLIMCHECK
 70
     0
  9
$PEXTMIN
 10
1.0000000000E+20
 20
1.0000000000E+20
 30
1.0000000000E+20
  9
$PEXTMAX
 10
-1.0000000000E+20
 20
-1.0000000000E+20
 30
-1.0000000000E+20
  9
$PLIMMIN
 10
0.0
 20
0.0
  9
$PLIMMAX
 10
420.0
 20
297.0
  9
$UNITMODE
 70
     0
  9
$VISRETAIN
 70
     1
  9
$PLINEGEN
 70
     0
  9
$PSLTSCALE
 70
     1
  9
$TREEDEPTH
 70
  3020
  9
$CMLSTYLE
  2
Standard
  9
$CMLJUST
 70
     0
  9
$CMLSCALE
 40
20.0
  9
$PROXYGRAPHICS
 70
     1
  9
$MEASUREMENT
 70
     1
  9
$CELWEIGHT
370
    -1
  9
$ENDCAPS
280
     0
  9
$JOINSTYLE
280
     0
  9
$LWDISPLAY
290
     1
  9
$INSUNITS
 70
     4
  9
$HYPERLINKBASE
  1

  9
$STYLESHEET
  1

  9
$XEDIT
290
     1
  9
$CEPSNTYPE
380
     0
  9
$PSTYLEMODE
290
     1
  9
$FINGERPRINTGUID
  2
{816D71F3-268E-4FC6-B12B-5CE5D9411F5A}
  9
$VERSIONGUID
  2
{FAEB1C32-E019-11D5-929B-00C0DF256EC4}
  9
$EXTNAMES
290
     1
  9
$PSVPSCALE
 40
0.0
  9
$OLESTARTUP
290
     0
  0
ENDSEC
  0
SECTION
  2
CLASSES
  0
CLASS
  1
ACDBDICTIONARYWDFLT
  2
AcDbDictionaryWithDefault
  3
ObjectDBX Classes
 90
        0
280
     0
281
     0
  0
CLASS
  1
VISUALSTYLE
  2
AcDbVisualStyle
  3
ObjectDBX Classes
 90
     4095
280
     0
281
     0
  0
CLASS
  1
MATERIAL
  2
AcDbMaterial
  3
ObjectDBX Classes
 90
     1153
280
     0
281
     0
  0
CLASS
  1
SCALE
  2
AcDbScale
  3
ObjectDBX Classes
 90
     1153
280
     0
281
     0
  0
CLASS
  1
TABLESTYLE
  2
AcDbTableStyle
  3
ObjectDBX Classes
 90
     4095
280
     0
281
     0
  0
CLASS
  1
MLEADERSTYLE
  2
AcDbMLeaderStyle
  3
ACDB_MLEADERSTYLE_CLASS
 90
     4095
280
     0
281
     0
  0
CLASS
  1
SUN
  2
AcDbSun
  3
SCENEOE
 90
     1153
280
     0
281
     0
  0
CLASS
  1
ACDBPLACEHOLDER
  2
AcDbPlaceHolder
  3
ObjectDBX Classes
 90
        0
280
     0
281
     0
  0
CLASS
  1
LAYOUT
  2
AcDbLayout
  3
ObjectDBX Classes
 90
        0
280
     0
281
     0
  0
ENDSEC
  0
SECTION
  2
TABLES
  0
TABLE
  2
VPORT
  5
8
330
0
100
AcDbSymbolTable
 70
     1
  0
VPORT
  5
29
330
8
100
AcDbSymbolTableRecord
100
AcDbViewportTableRecord
  2
*Active
 70
     0
 10
0.0
 20
0.0
 11
1.0
 21
1.0
 12
169.5
 22
90.0
 13
0.0
 23
0.0
 14
10.0
 24
10.0
 15
10.0
 25
10.0
 16
0.0
 26
0.0
 36
1.0
 17
0.0
 27
0.0
 37
0.0
 40
183.6
 41
1.8833333333
 42
50.0
 43
0.0
 44
0.0
 50
0.0
 51
0.0
 71
     0
 72
   100
 73
     1
 74
     3
 75
     0
 76
     0
 77
     0
 78
     0
281
     0
 65
     1
110
0.0
120
0.0
130
0.0
111
1.0
121
0.0
131
0.0
112
0.0
122
1.0
132
0.0
 79
     0
146
0.0
  0
ENDTAB
  0
TABLE
  2
LTYPE
  5
5
330
0
100
AcDbSymbolTable
 70
     6
  0
LTYPE
  5
14
330
5
100
AcDbSymbolTableRecord
100
AcDbLinetypeTableRecord
  2
ByBlock
 70
     0
  3

 72
    65
 73
     0
 40
0.0
  0
LTYPE
  5
15
330
5
100
AcDbSymbolTableRecord
100
AcDbLinetypeTableRecord
  2
ByLayer
 70
     0
  3

 72
    65
 73
     0
 40
0.0
  0
LTYPE
  5
16
330
5
100
AcDbSymbolTableRecord
100
AcDbLinetypeTableRecord
  2
Continuous
 70
     0
  3
Solid line
 72
    65
 73
     0
 40
0.0
  0
LTYPE
  5
6E
330
5
100
AcDbSymbolTableRecord
100
AcDbLinetypeTableRecord
  2
HIDDEN
 70
     0
  3
Hidden __ __ __ __ __ __ __ __ __ __ __ __ __ __
 72
    65
 73
     2
 40
1.905
 49
1.27
 74
     0
 49
-0.635
 74
     0
  0
LTYPE
  5
6F
330
5
100
AcDbSymbolTableRecord
100
AcDbLinetypeTableRecord
  2
PHANTOM
 70
     0
  3
Phantom ______  __  __  ______  __  __  ______
 72
    65
 73
     6
 40
12.7
 49
6.35
 74
     0
 49
-1.27
 74
     0
 49
1.27
 74
     0
 49
-1.27
 74
     0
 49
1.27
 74
     0
 49
-1.27
 74
     0
  0
LTYPE
  5
70
330
5
100
AcDbSymbolTableRecord
100
AcDbLinetypeTableRecord
  2
CENTER
 70
     0
  3
Center ____ _ ____ _ ____ _ ____ _ ____ _ ____
 72
    65
 73
     4
 40
10.16
 49
6.35
 74
     0
 49
-1.27
 74
     0
 49
1.27
 74
     0
 49
-1.27
 74
     0
  0
LTYPE
  5
71
330
5
100
AcDbSymbolTableRecord
100
AcDbLinetypeTableRecord
  2
CENTERX2
 70
     0
  3
Center (2x) ________  __  ________  __  _____
 72
    65
 73
     4
 40
20.32
 49
12.7
 74
     0
 49
-2.54
 74
     0
 49
2.54
 74
     0
 49
-2.54
 74
     0
  0
LTYPE
  5
72
330
5
100
AcDbSymbolTableRecord
100
AcDbLinetypeTableRecord
  2
DOT2
 70
     0
  3
Dot (.5x) ........................................
 72
    65
 73
     2
 40
0.635
 49
0.0
 74
     0
 49
-0.635
 74
     0
  0
ENDTAB
  0
TABLE
  2
LAYER
  5
2
330
0
100
AcDbSymbolTable
 70
     1
  0
LAYER
  5
10
330
2
100
AcDbSymbolTableRecord
100
AcDbLayerTableRecord
  2
0
 70
     0
 62
     7
  6
Continuous
370
    -3
390
F
  0
ENDTAB
  0
TABLE
  2
STYLE
  5
3
330
0
100
AcDbSymbolTable
 70
     2
  0
STYLE
  5
11
330
3
100
AcDbSymbolTableRecord
100
AcDbTextStyleTableRecord
  2
Standard
 70
     0
 40
0.0
 41
1.0
 50
0.0
 71
     0
 42
6.35
  3
txt
  4

  0
STYLE
  5
1BB
330
3
100
AcDbSymbolTableRecord
100
AcDbTextStyleTableRecord
  2
SLDTEXTSTYLE0
 70
     0
 40
0.0
 41
0.7
 50
0.0
 71
     0
 42
6.35
  3
TXT
  4

  0
ENDTAB
  0
TABLE
  2
VIEW
  5
6
330
0
100
AcDbSymbolTable
 70
     0
  0
ENDTAB
  0
TABLE
  2
UCS
  5
7
330
0
100
AcDbSymbolTable
 70
     0
  0
ENDTAB
  0
TABLE
  2
APPID
  5
9
330
0
100
AcDbSymbolTable
 70
     1
  0
APPID
  5
12
330
9
100
AcDbSymbolTableRecord
100
AcDbRegAppTableRecord
  2
ACAD
 70
     0
  0
ENDTAB
  0
TABLE
  2
DIMSTYLE
  5
A
330
0
100
AcDbSymbolTable
 70
     1
100
AcDbDimStyleTable
  0
DIMSTYLE
105
27
330
A
100
AcDbSymbolTableRecord
100
AcDbDimStyleTableRecord
  2
ISO-25
 70
     0
 41
2.5
 42
0.625
 43
3.75
 44
1.25
 73
     0
 74
     0
 77
     1
 78
     8
140
2.5
141
2.5
143
0.0393700787
147
0.625
171
     3
172
     1
178
     0
271
     2
272
     2
274
     3
278
    44
283
     0
284
     8
340
11
  0
ENDTAB
  0
TABLE
  2
BLOCK_RECORD
  5
1
330
0
100
AcDbSymbolTable
 70
     1
  0
BLOCK_RECORD
  5
1F
330
1
100
AcDbSymbolTableRecord
100
AcDbBlockTableRecord
  2
*Model_Space
340
22
  0
BLOCK_RECORD
  5
1B
330
1
100
AcDbSymbolTableRecord
100
AcDbBlockTableRecord
  2
*Paper_Space
340
1E
  0
BLOCK_RECORD
  5
23
330
1
100
AcDbSymbolTableRecord
100
AcDbBlockTableRecord
  2
*Paper_Space0
340
26
  0
ENDTAB
  0
ENDSEC
  0
SECTION
  2
BLOCKS
  0
BLOCK
  5
20
330
1F
100
AcDbEntity
  8
0
100
AcDbBlockBegin
  2
*Model_Space
 70
     0
 10
0.0
 20
0.0
 30
0.0
  3
*Model_Space
  1

  0
ENDBLK
  5
21
330
1F
100
AcDbEntity
  8
0
100
AcDbBlockEnd
  0
BLOCK
  5
1C
330
1B
100
AcDbEntity
 67
     1
  8
0
100
AcDbBlockBegin
  2
*Paper_Space
 70
     0
 10
0.0
 20
0.0
 30
0.0
  3
*Paper_Space
  1

  0
ENDBLK
  5
1D
330
1B
100
AcDbEntity
 67
     1
  8
0
100
AcDbBlockEnd
  0
BLOCK
  5
24
330
23
100
AcDbEntity
  8
0
100
AcDbBlockBegin
  2
*Paper_Space0
 70
     0
 10
0.0
 20
0.0
 30
0.0
  3
*Paper_Space0
  1

  0
ENDBLK
  5
25
330
23
100
AcDbEntity
  8
0
100
AcDbBlockEnd
  0
ENDSEC
  0
SECTION
  2
ENTITIES
  0
SPLINE
  5
7E
330
1F
100
AcDbEntity
  8
0
  6
Continuous
 62
     7
370
    15
100
AcDbSpline
210
0.0
220
0.0
230
1.0
 70
     8
 71
     3
 72
    15
 73
    11
 74
     0
 42
0.000000001
 43
0.00000001
 40
0.0
 40
0.0
 40
0.0
 40
0.0
 40
0.1261777183170028
 40
0.2488206074857968
 40
0.3715399692351805
 40
0.4999837069108904
 40
0.6272441978754072
 40
0.7492255210763055
 40
0.8722979504176559
 40
1.0
 40
1.0
 40
1.0
 40
1.0
 10
152.4038461538461
 20
5.223878205128207
 30
0.0
 10
152.4027615731699
 20
5.206421755986526
 30
0.0
 10
152.4006227960044
 20
5.171997894643066
 30
0.0
 10
152.3867774300588
 20
5.121849710691365
 30
0.0
 10
152.3605627702072
 20
5.076831018779246
 30
0.0
 10
152.3276924551991
 20
5.035735507762803
 30
0.0
 10
152.2870556904713
 20
5.002224860853971
 30
0.0
 10
152.2416061583593
 20
4.977347969561091
 30
0.0
 10
152.1917212313168
 20
4.962205959214691
 30
0.0
 10
152.1569628522795
 20
4.96027710398636
 30
0.0
 10
152.1392628205128
 20
4.959294871794875
 30
0.0
  0
SPLINE
  5
7F
330
1F
100
AcDbEntity
  8
0
  6
Continuous
 62
     7
370
    15
100
AcDbSpline
210
0.0
220
0.0
230
1.0
 70
     8
 71
     3
 72
    15
 73
    11
 74
     0
 42
0.000000001
 43
0.00000001
 40
0.0
 40
0.0
 40
0.0
 40
0.0
 40
0.1275189266999397
 40
0.2499859477487675
 40
0.3717923515057172
 40
0.4988703527764677
 40
0.6259483540471683
 40
0.7484917380160536
 40
0.8709587590649217
 40
1.0
 40
1.0
 40
1.0
 40
1.0
 10
152.1392628205128
 20
5.488461538461539
 30
0.0
 10
152.1569432272697
 20
5.487410915824553
 30
0.0
 10
152.1916035977268
 20
5.485351292971438
 30
0.0
 10
152.2417133784134
 20
5.471221024632059
 30
0.0
 10
152.2870656768678
 20
5.446130668347079
 30
0.0
 10
152.3274627846386
 20
5.412690862261718
 30
0.0
 10
152.3607608026283
 20
5.372145510707596
 30
0.0
 10
152.3867453220587
 20
5.32715493635412
 30
0.0
 10
152.400752501501
 20
5.276625634514614
 30
0.0
 10
152.4027971215006
 20
5.241764429369591
 30
0.0
 10
152.4038461538461
 20
5.223878205128207
 30
0.0
  0
SPLINE
  5
80
330
1F
100
AcDbEntity
  8
0
  6
Continuous
 62
     7
370
    15
100
AcDbSpline
210
0.0
220
0.0
230
1.0
 70
     8
 71
     3
 72
    15
 73
    11
 74
     0
 42
0.000000001
 43
0.00000001
 40
0.0
 40
0.0
 40
0.0
 40
0.0
 40
0.1290969581672236
 40
0.2520459672599783
 40
0.3739049644019861
 40
0.5010378352202106
 40
0.6281707060383911
 40
0.7513764634091692
 40
0.8724260133704629
 40
1.0
 40
1.0
 40
1.0
 40
1.0
 10
151.8746794871794
 20
5.223878205128207
 30
0.0
 10
151.8756429629327
 20
5.241793713808687
 30
0.0
 10
151.8775240310972
 20
5.276771545807482
 30
0.0
 10
151.8927419514684
 20
5.326845021876276
 30
0.0
 10
151.9175760865534
 20
5.372354963195964
 30
0.0
 10
151.9511452662964
 20
5.412629003736652
 30
0.0
 10
151.9915351632809
 20
5.446363199726287
 30
0.0
 10
152.0371610065496
 20
5.47091483350301
 30
0.0
 10
152.0870897323967
 20
5.485465778842846
 30
0.0
 10
152.1215701765295
 20
5.487445633321417
 30
0.0
 10
152.1392628205128
 20
5.488461538461539
 30
0.0
  0
SPLINE
  5
81
330
1F
100
AcDbEntity
  8
0
  6
Continuous
 62
     7
370
    15
100
AcDbSpline
210
0.0
220
0.0
230
1.0
 70
     8
 71
     3
 72
    15
 73
    11
 74
     0
 42
0.000000001
 43
0.00000001
 40
0.0
 40
0.0
 40
0.0
 40
0.0
 40
0.1277566033101213
 40
0.249414355336553
 40
0.3727964764554144
 40
0.5001113325158477
 40
0.6286099407651168
 40
0.7506433738258063
 40
0.8737683791425136
 40
0.9999999999999999
 40
0.9999999999999999
 40
0.9999999999999999
 40
0.9999999999999999
 10
152.1392628205128
 20
4.959294871794875
 30
0.0
 10
152.1215500346714
 20
4.960241563518361
 30
0.0
 10
152.086970036868
 20
4.962089753747289
 30
0.0
 10
152.0372713135307
 20
4.977658870871135
 30
0.0
 10
151.9915449920342
 20
5.001991581235169
 30
0.0
 10
151.9509161392443
 20
5.035797991980076
 30
0.0
 10
151.9177705257322
 20
5.076619550631864
 30
0.0
 10
151.8927103570013
 20
5.122159751680789
 30
0.0
 10
151.8776607218796
 20
5.171854341335768
 30
0.0
 10
151.8756814516748
 20
5.206393481626631
 30
0.0
 10
151.8746794871794
 20
5.223878205128207
 30
0.0
  0
SPLINE
  5
95
330
1F
100
AcDbEntity
  8
0
  6
Continuous
 62
     7
370
    15
100
AcDbSpline
210
0.0
220
0.0
230
1.0
 70
     8
 71
     3
 72
    19
 73
    15
 74
     0
 42
0.000000001
 43
0.00000001
 40
0.0
 40
0.0
 40
0.0
 40
0.0
 40
0.0843347219926243
 40
0.1670523184160617
 40
0.2495660772409543
 40
0.3327404818018474
 40
0.4159148863627261
 40
0.4978280095399877
 40
0.5803725886080433
 40
0.6646001210565029
 40
0.7494666931126145
 40
0.8325102339401363
 40
0.9156392816681734
 40
1.0
 40
1.0
 40
1.0
 40
1.0
 10
161.5065304487179
 20
4.918589743589746
 30
0.0
 10
161.4638070131259
 20
4.919976044514413
 30
0.0
 10
161.3791793675048
 20
4.922722063923912
 30
0.0
 10
161.2546896184466
 20
4.947184021852818
 30
0.0
 10
161.135071024144
 20
4.986832607935879
 30
0.0
 10
161.0211616571775
 20
5.041455560614069
 30
0.0
 10
160.9156422440215
 20
5.110450925863791
 30
0.0
 10
160.8212398452576
 20
5.193510993362044
 30
0.0
 10
160.738425164051
 20
5.288860293820613
 30
0.0
 10
160.6695053293494
 20
5.396484037417257
 30
0.0
 10
160.6148420510831
 20
5.512135641724841
 30
0.0
 10
160.5738483332991
 20
5.632728633592501
 30
0.0
 10
160.5499031697928
 20
5.757823617015212
 30
0.0
 10
160.5465571217972
 20
5.842624364705812
 30
0.0
 10
160.5448717948717
 20
5.885336538461544
 30
0.0
  0
SPLINE
  5
96
330
1F
100
AcDbEntity
  8
0
  6
Continuous
 62
     7
370
    15
100
AcDbSpline
210
0.0
220
0.0
230
1.0
 70
     8
 71
     3
 72
    19
 73
    15
 74
     0
 42
0.000000001
 43
0.00000001
 40
0.0
 40
0.0
 40
0.0
 40
0.0
 40
0.0859479431441268
 40
0.1691252118806877
 40
0.2503991071860505
 40
0.3322897361388314
 40
0.4133642879158819
 40
0.4941722833711857
 40
0.5760217353866337
 40
0.660756969254004
 40
0.7457831259137403
 40
0.8300435929752084
 40
0.9140275458206809
 40
1.0
 40
1.0
 40
1.0
 40
1.0
 10
162.4987179487179
 20
5.891060697115383
 30
0.0
 10
162.4974269892872
 20
5.846629108535048
 30
0.0
 10
162.4948866866429
 20
5.759198257278456
 30
0.0
 10
162.4695739573957
 20
5.631856530754376
 30
0.0
 10
162.4302405653675
 20
5.510542034520824
 30
0.0
 10
162.3740180931732
 20
5.397191657636635
 30
0.0
 10
162.3041840743237
 20
5.291960755233665
 30
0.0
 10
162.2190236866894
 20
5.198719654458242
 30
0.0
 10
162.1215570937006
 20
5.115561834891674
 30
0.0
 10
162.0113512124945
 20
5.046023330324487
 30
0.0
 10
161.8927486664746
 20
4.98923341976322
 30
0.0
 10
161.7681507831059
 20
4.94844352158802
 30
0.0
 10
161.6387675860697
 20
4.923330660069114
 30
0.0
 10
161.5509519773344
 20
4.920182327649528
 30
0.0
 10
161.5065304487179
 20
4.918589743589746
 30
0.0
  0
SPLINE
  5
97
330
1F
100
AcDbEntity
  8
0
  6
Continuous
 62
     7
370
    15
100
AcDbSpline
210
0.0
220
0.0
230
1.0
 70
     8
 71
     3
 72
    23
 73
    19
 74
     0
 42
0.000000001
 43
0.00000001
 40
0.0
 40
0.0
 40
0.0
 40
0.0
 40
0.0652308037420294
 40
0.1284048960032322
 40
0.1900670715964878
 40
0.2509433657682816
 40
0.3115458328521455
 40
0.3728628021568388
 40
0.4350236738562341
 40
0.4990717247070459
 40
0.5630910750496695
 40
0.6255101063303758
 40
0.686680035929647
 40
0.7472825030135168
 40
0.8085634952159627
 40
0.870742103515985
 40
0.9343409515059121
 40
1.0
 40
1.0
 40
1.0
 40
1.0
 10
161.5567758413461
 20
6.83173076923077
 30
0.0
 10
161.5890451773073
 20
6.830863439335324
 30
0.0
 10
161.6525664048638
 20
6.829156126246446
 30
0.0
 10
161.7458268611216
 20
6.816017204547414
 30
0.0
 10
161.8354425387544
 20
6.795311567302425
 30
0.0
 10
161.9210420013004
 20
6.765128877977977
 30
0.0
 10
162.0029324919873
 20
6.726573170806479
 30
0.0
 10
162.0815839513143
 20
6.680364338480612
 30
0.0
 10
162.155517917625
 20
6.624116328442675
 30
0.0
 10
162.2256864873385
 20
6.561283118553043
 30
0.0
 10
162.2893924971165
 20
6.491689854046731
 30
0.0
 10
162.3457950618008
 20
6.417847212891958
 30
0.0
 10
162.3931722228739
 20
6.339832127986444
 30
0.0
 10
162.4316114231958
 20
6.2576841138898
 30
0.0
 10
162.4614608487809
 20
6.171529799859868
 30
0.0
 10
162.4832210696419
 20
6.081479416181105
 30
0.0
 10
162.4960839859856
 20
5.987470867070854
 30
0.0
 10
162.4978306811343
 20
5.923537093793674
 30
0.0
 10
162.4987179487179
 20
5.891060697115383
 30
0.0
  0
SPLINE
  5
98
330
1F
100
AcDbEntity
  8
0
  6
Continuous
 62
     7
370
    15
100
AcDbSpline
210
0.0
220
0.0
230
1.0
 70
     8
 71
     3
 72
     9
 73
     5
 74
     0
 42
0.000000001
 43
0.00000001
 40
0.0
 40
0.0
 40
0.0
 40
0.0
 40
0.512659336341826
 40
1.0
 40
1.0
 40
1.0
 40
1.0
 10
161.2279547275641
 20
6.801201923076928
 30
0.0
 10
161.2838077645418
 20
6.810104496669828
 30
0.0
 10
161.39275542826
 20
6.827469973043343
 30
0.0
 10
161.5030330647785
 20
6.830334680700129
 30
0.0
 10
161.5567758413461
 20
6.83173076923077
 30
0.0
  0
SPLINE
  5
9C
330
1F
100
AcDbEntity
  8
0
  6
Continuous
 62
     7
370
    15
100
AcDbSpline
210
0.0
220
0.0
230
1.0
 70
     8
 71
     3
 72
    19
 73
    15
 74
     0
 42
0.000000001
 43
0.00000001
 40
0.0
 40
0.0
 40
0.0
 40
0.0
 40
0.0978181896147146
 40
0.1997260534018264
 40
0.30527635747794
 40
0.4158114905382955
 40
0.4744722311435641
 40
0.5372738797760982
 40
0.603657420559657
 40
0.674298863090122
 40
0.7498344853162265
 40
0.8285984767571072
 40
0.9123777781577869
 40
1.0
 40
1.0
 40
1.0
 40
1.0
 10
160.5448717948717
 20
5.885336538461544
 30
0.0
 10
160.5459435342705
 20
5.918034124659063
 30
0.0
 10
160.5481318213492
 20
5.984796348256937
 30
0.0
 10
160.5634111825848
 20
6.085910145034276
 30
0.0
 10
160.5879628178524
 20
6.189370769171989
 30
0.0
 10
160.6154585413293
 20
6.277140644791402
 30
0.0
 10
160.6445103447275
 20
6.349042168283317
 30
0.0
 10
160.668688005639
 20
6.407011763349596
 30
0.0
 10
160.69878155919
 20
6.466666451212507
 30
0.0
 10
160.7308702692741
 20
6.530051820994698
 30
0.0
 10
160.7678425717894
 20
6.59553432064787
 30
0.0
 10
160.8080431965916
 20
6.664208363659233
 30
0.0
 10
160.8525835941988
 20
6.734981769466852
 30
0.0
 10
160.8838075989755
 20
6.78300971801224
 30
0.0
 10
160.8997696314102
 20
6.807562099358969
 30
0.0
  0
SPLINE
  5
9D
330
1F
100
AcDbEntity
  8
0
  6
Continuous
 62
     7
370
    15
100
AcDbSpline
210
0.0
220
0.0
230
1.0
 70
     8
 71
     3
 72
    31
 73
    27
 74
     0
 42
0.000000001
 43
0.00000001
 40
0.0
 40
0.0
 40
0.0
 40
0.0
 40
0.0420341186638456
 40
0.0839054330862327
 40
0.1250689344486245
 40
0.1661584697031391
 40
0.2072102728707283
 40
0.2484907320562538
 40
0.2898781122327919
 40
0.332169514204085
 40
0.3744758421539223
 40
0.4162249804562081
 40
0.4576095869585081
 40
0.4990731704672244
 40
0.5405533615534514
 40
0.5822488491953596
 40
0.6245497501260037
 40
0.6674328009210374
 40
0.7103225433055266
 40
0.752467118569865
 40
0.7940647568438068
 40
0.8352157072950149
 40
0.876228344224686
 40
0.9174461887061485
 40
0.9586431404713152
 40
1.0
 40
1.0
 40
1.0
 40
1.0
 10
176.0942307692308
 20
6.167728365384609
 30
0.0
 10
176.0947017272093
 20
6.194038316755246
 30
0.0
 10
176.0956418190778
 20
6.246556317236821
 30
0.0
 10
176.1037616360608
 20
6.324461188266878
 30
0.0
 10
176.1153442078955
 20
6.401322890236302
 30
0.0
 10
176.1336755411988
 20
6.476349175914081
 30
0.0
 10
176.1557395437623
 20
6.55039448644229
 30
0.0
 10
176.1830659274393
 20
6.622911900472706
 30
0.0
 10
176.2159215162664
 20
6.693923505162819
 30
0.0
 10
176.2531232177585
 20
6.76348188725974
 30
0.0
 10
176.2949280732354
 20
6.83065365223598
 30
0.0
 10
176.3407682522531
 20
6.89444996673523
 30
0.0
 10
176.3906990953317
 20
6.954401379839423
 30
0.0
 10
176.4440317616443
 20
7.011112705391468
 30
0.0
 10
176.5014174528148
 20
7.064036774237836
 30
0.0
 10
176.5628264815851
 20
7.113045135239304
 30
0.0
 10
176.6276535229514
 20
7.158959287640931
 30
0.0
 10
176.6960994925905
 20
7.200788857779861
 30
0.0
 10
176.7671082664593
 20
7.237784181408704
 30
0.0
 10
176.8388758011714
 20
7.27154132290464
 30
0.0
 10
176.9123527715117
 20
7.298332988478401
 30
0.0
 10
176.9861692894177
 20
7.321939656889167
 30
0.0
 10
177.0616253549527
 20
7.338663012552884
 30
0.0
 10
177.1377957763102
 20
7.351564617721143
 30
0.0
 10
177.2149413255596
 20
7.359424757508365
 30
0.0
 10
177.2666057374956
 20
7.360405909599798
 30
0.0
 10
177.2924879807692
 20
7.360897435897434
 30
0.0
  0
SPLINE
  5
9E
330
1F
100
AcDbEntity
  8
0
  6
Continuous
 62
     7
370
    15
100
AcDbSpline
210
0.0
220
0.0
230
1.0
 70
     8
 71
     3
 72
    31
 73
    27
 74
     0
 42
0.000000001
 43
0.00000001
 40
0.0
 40
0.0
 40
0.0
 40
0.0
 40
0.0428647590311963
 40
0.0852222575672431
 40
0.127202284143743
 40
0.1690253126086035
 40
0.210882033099713
 40
0.2529626777271269
 40
0.2956282851000583
 40
0.3385532936306125
 40
0.3814632477171867
 40
0.4235815621432683
 40
0.4650661653954531
 40
0.5063122188418699
 40
0.5470395054616204
 40
0.5876758328931725
 40
0.6286747862975607
 40
0.669946464602765
 40
0.7110355744560748
 40
0.7519958286352201
 40
0.7926726074835051
 40
0.8334460178854428
 40
0.874190607042242
 40
0.9154935830294668
 40
0.9574778068391474
 40
1.0
 40
1.0
 40
1.0
 40
1.0
 10
177.2835837339744
 20
5.000000000000004
 30
0.0
 10
177.2570622609992
 20
5.000467202583916
 30
0.0
 10
177.204333169502
 20
5.001396078887957
 30
0.0
 10
177.1259970773698
 20
5.009522969837879
 30
0.0
 10
177.0488169654576
 20
5.021314686061914
 30
0.0
 10
176.9729728343104
 20
5.038624277140011
 30
0.0
 10
176.8983552424567
 20
5.060841771928767
 30
0.0
 10
176.8250874981752
 20
5.088615527794397
 30
0.0
 10
176.752576370504
 20
5.120016385079196
 30
0.0
 10
176.6821399045865
 20
5.157003142484518
 30
0.0
 10
176.6144796288488
 20
5.198153235136075
 30
0.0
 10
176.5501058823333
 20
5.242729228851675
 30
0.0
 10
176.4893558504467
 20
5.290497818899246
 30
0.0
 10
176.4328077493032
 20
5.341930042857171
 30
0.0
 10
176.3805357544889
 20
5.396951461862989
 30
0.0
 10
176.3318368170392
 20
5.454975542114007
 30
0.0
 10
176.2875162236285
 20
5.516812514620287
 30
0.0
 10
176.246664506246
 20
5.581334826096795
 30
0.0
 10
176.2112337284076
 20
5.648972235554425
 30
0.0
 10
176.1801329053946
 20
5.718258079263849
 30
0.0
 10
176.1530915165362
 20
5.789044209404167
 30
0.0
 10
176.1315329021038
 20
5.861567616240765
 30
0.0
 10
176.115067249352
 20
5.935782577997969
 30
0.0
 10
176.1028115434404
 20
6.011567513760308
 30
0.0
 10
176.0958601697243
 20
6.089155793967571
 30
0.0
 10
176.0947762029125
 20
6.141426589308469
 30
0.0
 10
176.0942307692308
 20
6.167728365384609
 30
0.0
  0
SPLINE
  5
9F
330
1F
100
AcDbEntity
  8
0
  6
Continuous
 62
     7
370
    15
100
AcDbSpline
210
0.0
220
0.0
230
1.0
 70
     8
 71
     3
 72
    15
 73
    11
 74
     0
 42
0.000000001
 43
0.00000001
 40
0.0
 40
0.0
 40
0.0
 40
0.0
 40
0.1265607130145274
 40
0.2508952618879497
 40
0.3747192653150376
 40
0.4998264235934758
 40
0.6249635314328795
 40
0.7490394747387523
 40
0.8731801199413541
 40
1.0
 40
1.0
 40
1.0
 40
1.0
 10
178.2108974358974
 20
5.444576322115383
 30
0.0
 10
178.1819767079679
 20
5.410157687301395
 30
0.0
 10
178.1246439588469
 20
5.341925830907771
 30
0.0
 10
178.0256317406622
 20
5.252516346193309
 30
0.0
 10
177.9174849671979
 20
5.175512499419888
 30
0.0
 10
177.8003877537329
 20
5.112358452397256
 30
0.0
 10
177.6772084197746
 20
5.061847445787401
 30
0.0
 10
177.5492811107531
 20
5.026520616968441
 30
0.0
 10
177.4177526035349
 20
5.003696993496481
 30
0.0
 10
177.3286238676226
 20
5.00124107091103
 30
0.0
 10
177.2835837339744
 20
5.000000000000004
 30
0.0
  0
SPLINE
  5
A1
330
1F
100
AcDbEntity
  8
0
  6
Continuous
 62
     7
370
    15
100
AcDbSpline
210
0.0
220
0.0
230
1.0
 70
     8
 71
     3
 72
    23
 73
    19
 74
     0
 42
0.000000001
 43
0.00000001
 40
0.0
 40
0.0
 40
0.0
 40
0.0
 40
0.0981712978276954
 40
0.1892644356875807
 40
0.2744630560180387
 40
0.3550231712817349
 40
0.4309204620429266
 40
0.5010860453857563
 40
0.5666076270375995
 40
0.6297208634282995
 40
0.6627106951128607
 40
0.698765561631612
 40
0.7386105373889604
 40
0.7825812280784433
 40
0.8304087872491258
 40
0.8825778660702763
 40
0.9392286810451781
 40
1.0
 40
1.0
 40
1.0
 40
1.0
 10
177.2924879807692
 20
4.389423076923082
 30
0.0
 10
177.3421693741526
 20
4.39072042618717
 30
0.0
 10
177.4379501277022
 20
4.393221585709261
 30
0.0
 10
177.5756826881934
 20
4.41357981649447
 30
0.0
 10
177.7014080962978
 20
4.447664288549744
 30
0.0
 10
177.8144019925809
 20
4.49538761035874
 30
0.0
 10
177.9133311540398
 20
4.553853336286606
 30
0.0
 10
177.9986134604194
 20
4.619167689501186
 30
0.0
 10
178.0676875594916
 20
4.692810456521562
 30
0.0
 10
178.1141450363992
 20
4.760648237761012
 30
0.0
 10
178.1430235823639
 20
4.821085841128933
 30
0.0
 10
178.1614133971441
 20
4.873112838890456
 30
0.0
 10
178.1763576408634
 20
4.931943663627078
 30
0.0
 10
178.1888579220564
 20
4.997381081486118
 30
0.0
 10
178.1991729649006
 20
5.069518584682783
 30
0.0
 10
178.2057070081731
 20
5.148521114887103
 30
0.0
 10
178.2104294229564
 20
5.234209123707672
 30
0.0
 10
178.2107378241762
 20
5.293620756226441
 30
0.0
 10
178.2108974358974
 20
5.324368990384618
 30
0.0
  0
SPLINE
  5
A2
330
1F
100
AcDbEntity
  8
0
  6
Continuous
 62
     7
370
    15
100
AcDbSpline
210
0.0
220
0.0
230
1.0
 70
     8
 71
     3
 72
    15
 73
    11
 74
     0
 42
0.000000001
 43
0.00000001
 40
0.0
 40
0.0
 40
0.0
 40
0.0
 40
0.1247164867022969
 40
0.243805373915499
 40
0.3600615340644482
 40
0.4751119996583978
 40
0.5935250978118934
 40
0.7193501703843507
 40
0.8538547713042717
 40
1.0
 40
1.0
 40
1.0
 40
1.0
 10
176.4198717948718
 20
4.837179487179489
 30
0.0
 10
176.4427882275988
 20
4.800797728443093
 30
0.0
 10
176.4875870316508
 20
4.729675870163
 30
0.0
 10
176.5713602965279
 20
4.637588935850701
 30
0.0
 10
176.6631688925716
 20
4.558891240741395
 30
0.0
 10
176.7661111766032
 20
4.495472181411247
 30
0.0
 10
176.8806154791519
 20
4.447656870639694
 30
0.0
 10
177.0067506873201
 20
4.413570708872758
 30
0.0
 10
177.1455432013224
 20
4.393163381081644
 30
0.0
 10
177.2421704384742
 20
4.390703849968592
 30
0.0
 10
177.2924879807692
 20
4.389423076923082
 30
0.0
  0
SPLINE
  5
A4
330
1F
100
AcDbEntity
  8
0
  6
Continuous
 62
     7
370
    15
100
AcDbSpline
210
0.0
220
0.0
230
1.0
 70
     8
 71
     3
 72
    19
 73
    15
 74
     0
 42
0.000000001
 43
0.00000001
 40
0.0
 40
0.0
 40
0.0
 40
0.0
 40
0.0964914237691135
 40
0.1884736749922992
 40
0.2768399149587986
 40
0.3621365621714227
 40
0.4434367545654548
 40
0.5201655209986107
 40
0.5927096635689897
 40
0.6629173343528109
 40
0.7354188002027011
 40
0.8148809699994107
 40
0.903060555739981
 40
1.0
 40
1.0
 40
1.0
 40
1.0
 10
177.319836738782
 20
4.104487179487179
 30
0.0
 10
177.2718627295362
 20
4.105264134472569
 30
0.0
 10
177.1781566002917
 20
4.106781736303675
 30
0.0
 10
177.0415363569278
 20
4.124462780708008
 30
0.0
 10
176.9117834324235
 20
4.149458533424563
 30
0.0
 10
176.7906123181313
 20
4.187291314205324
 30
0.0
 10
176.6787887302558
 20
4.233589154889889
 30
0.0
 10
176.5770763574534
 20
4.286743147927153
 30
0.0
 10
176.486388281348
 20
4.3476934494827
 30
0.0
 10
176.4046332351238
 20
4.417090423171205
 30
0.0
 10
176.3308447926432
 20
4.499607477227968
 30
0.0
 10
176.2614236081609
 20
4.596852142969718
 30
0.0
 10
176.194602610904
 20
4.710305678128288
 30
0.0
 10
176.1554424894097
 20
4.793574782258586
 30
0.0
 10
176.1349358974359
 20
4.837179487179489
 30
0.0
  0
SPLINE
  5
A5
330
1F
100
AcDbEntity
  8
0
  6
Continuous
 62
     7
370
    15
100
AcDbSpline
210
0.0
220
0.0
230
1.0
 70
     8
 71
     3
 72
    23
 73
    19
 74
     0
 42
0.000000001
 43
0.00000001
 40
0.0
 40
0.0
 40
0.0
 40
0.0
 40
0.0613707062984567
 40
0.1209064680177752
 40
0.179423665000029
 40
0.237606687439777
 40
0.2959384682493643
 40
0.3542182268208507
 40
0.4135370665946777
 40
0.4740867825531828
 40
0.5351211890802668
 40
0.5969876649622163
 40
0.6600198335468003
 40
0.7242774964844803
 40
0.7900118502255273
 40
0.8577476843344293
 40
0.9278290322155331
 40
0.9999999999999999
 40
0.9999999999999999
 40
0.9999999999999999
 40
0.9999999999999999
 10
178.411242988782
 20
4.767217548076921
 30
0.0
 10
178.4010927507853
 20
4.741155404919025
 30
0.0
 10
178.3810957603685
 20
4.689810359892633
 30
0.0
 10
178.3436437928736
 20
4.617026368886945
 30
0.0
 10
178.301703037448
 20
4.548495000955
 30
0.0
 10
178.2537997708003
 20
4.48459817012864
 30
0.0
 10
178.2001506128572
 20
4.425656642485565
 30
0.0
 10
178.1420195449742
 20
4.370389871710387
 30
0.0
 10
178.078274442756
 20
4.319967091296631
 30
0.0
 10
178.0089517538264
 20
4.275258285746514
 30
0.0
 10
177.9356495008513
 20
4.234992886621616
 30
0.0
 10
177.8584098225479
 20
4.200116357819334
 30
0.0
 10
177.7776682677466
 20
4.169739006818773
 30
0.0
 10
177.6926663589389
 20
4.146985327835361
 30
0.0
 10
177.6047367891001
 20
4.127268831321085
 30
0.0
 10
177.5128455480486
 20
4.114437580636232
 30
0.0
 10
177.4175295109467
 20
4.105704463621032
 30
0.0
 10
177.3527183447309
 20
4.10489689513277
 30
0.0
 10
177.319836738782
 20
4.104487179487179
 30
0.0
  0
SPLINE
  5
A6
330
1F
100
AcDbEntity
  8
0
  6
Continuous
 62
     7
370
    15
100
AcDbSpline
210
0.0
220
0.0
230
1.0
 70
     8
 71
     3
 72
    15
 73
    11
 74
     0
 42
0.000000001
 43
0.00000001
 40
0.0
 40
0.0
 40
0.0
 40
0.0
 40
0.1634452548497621
 40
0.3154887127129187
 40
0.4562908239366649
 40
0.5858641495747714
 40
0.7054286858067527
 40
0.8133707129824366
 40
0.9117182381600957
 40
0.9999999999999999
 40
0.9999999999999999
 40
0.9999999999999999
 40
0.9999999999999999
 10
178.4958333333333
 20
5.478921274038457
 30
0.0
 10
178.495582016144
 20
5.439698598930843
 30
0.0
 10
178.495096913431
 20
5.363989387976789
 30
0.0
 10
178.4916035323645
 20
5.254516948613647
 30
0.0
 10
178.4842369180287
 20
5.153401285309722
 30
0.0
 10
178.4758833285152
 20
5.060181236446637
 30
0.0
 10
178.4638666644253
 20
4.975288893749374
 30
0.0
 10
178.4491923884305
 20
4.898470943795114
 30
0.0
 10
178.4326500223426
 20
4.829653669361639
 30
0.0
 10
178.418117396509
 20
4.787267563572381
 30
0.0
 10
178.411242988782
 20
4.767217548076921
 30
0.0
  0
SPLINE
  5
AA
330
1F
100
AcDbEntity
  8
0
  6
Continuous
 62
     7
370
    15
100
AcDbSpline
210
0.0
220
0.0
230
1.0
 70
     8
 71
     3
 72
    15
 73
    11
 74
     0
 42
0.000000001
 43
0.00000001
 40
0.0
 40
0.0
 40
0.0
 40
0.0
 40
0.1209110787487092
 40
0.2387622286387334
 40
0.3547548590848714
 40
0.470359399450219
 40
0.5891440987928731
 40
0.7163289048363523
 40
0.852445285857603
 40
1.0
 40
1.0
 40
1.0
 40
1.0
 10
177.2924879807692
 20
7.360897435897434
 30
0.0
 10
177.3351699039863
 20
7.359666739420067
 30
0.0
 10
177.4194535876269
 20
7.357236492028712
 30
0.0
 10
177.5434881398299
 20
7.338167310145388
 30
0.0
 10
177.6631786003804
 20
7.307765312319248
 30
0.0
 10
177.7792003717445
 20
7.264208276070717
 30
0.0
 10
177.8924985694385
 20
7.204745027009657
 30
0.0
 10
178.0026997853269
 20
7.126419638457477
 30
0.0
 10
178.1101228570427
 20
7.028529544557766
 30
0.0
 10
178.1764148890395
 20
6.953460874738942
 30
0.0
 10
178.2108974358974
 20
6.914413060897434
 30
0.0
  0
SPLINE
  5
B3
330
1F
100
AcDbEntity
  8
0
  6
Continuous
 62
     7
370
    15
100
AcDbSpline
210
0.0
220
0.0
230
1.0
 70
     8
 71
     3
 72
    15
 73
    11
 74
     0
 42
0.000000001
 43
0.00000001
 40
0.0
 40
0.0
 40
0.0
 40
0.0
 40
0.1243285095938545
 40
0.2471560163611905
 40
0.3687797492913397
 40
0.4907338624016511
 40
0.6136137718478472
 40
0.7389575757222177
 40
0.8673105751912629
 40
1.0
 40
1.0
 40
1.0
 40
1.0
 10
190.7843299278846
 20
5.47383313301282
 30
0.0
 10
190.7521847369955
 20
5.513331211530498
 30
0.0
 10
190.6882824401589
 20
5.59185051311499
 30
0.0
 10
190.6065255700803
 20
5.719109938970873
 30
0.0
 10
190.5365417164262
 20
5.851977528451083
 30
0.0
 10
190.4799578454345
 20
5.991151320985696
 30
0.0
 10
190.4357230803585
 20
6.136319022268133
 30
0.0
 10
190.4050787105363
 20
6.287553810340684
 30
0.0
 10
190.3851654693314
 20
6.4447144436241
 30
0.0
 10
190.3828882787942
 20
6.551609244765583
 30
0.0
 10
190.3817307692307
 20
6.605944511217945
 30
0.0
  0
SPLINE
  5
B4
330
1F
100
AcDbEntity
  8
0
  6
Continuous
 62
     7
370
    15
100
AcDbSpline
210
0.0
220
0.0
230
1.0
 70
     8
 71
     3
 72
    23
 73
    19
 74
     0
 42
0.000000001
 43
0.00000001
 40
0.0
 40
0.0
 40
0.0
 40
0.0
 40
0.0696628008990818
 40
0.1377495622582694
 40
0.2039167435177793
 40
0.2687798623293398
 40
0.3324137064772213
 40
0.394753540447139
 40
0.4561800316591765
 40
0.516995649196724
 40
0.5773959379659587
 40
0.6371983435092748
 40
0.6969991842614528
 40
0.7567561942255617
 40
0.8165539052726051
 40
0.876947996597868
 40
0.9381317879205976
 40
1.0
 40
1.0
 40
1.0
 40
1.0
 10
192.0938902243589
 20
4.918589743589746
 30
0.0
 10
192.0597420406709
 20
4.918827408265352
 30
0.0
 10
191.9922182360831
 20
4.919297360730754
 30
0.0
 10
191.8925243685492
 20
4.926910255453554
 30
0.0
 10
191.7954695345364
 20
4.93729680250761
 30
0.0
 10
191.7013311239286
 20
4.952936064258506
 30
0.0
 10
191.6095954179937
 20
4.971391287021676
 30
0.0
 10
191.5210940306341
 20
4.996130212674546
 30
0.0
 10
191.4349560898089
 20
5.023842670943898
 30
0.0
 10
191.3515276664633
 20
5.056413623205206
 30
0.0
 10
191.2707377959334
 20
5.093167588792677
 30
0.0
 10
191.192847052764
 20
5.134707074367265
 30
0.0
 10
191.1178912605164
 20
5.180682765881434
 30
0.0
 10
191.0451334858833
 20
5.230081239622875
 30
0.0
 10
190.9756485349782
 20
5.284489220605357
 30
0.0
 10
190.9088342655558
 20
5.343151096190796
 30
0.0
 10
190.8443160192591
 20
5.405869148800951
 30
0.0
 10
190.8043992978737
 20
5.451094622904384
 30
0.0
 10
190.7843299278846
 20
5.47383313301282
 30
0.0
  0
SPLINE
  5
B5
330
1F
100
AcDbEntity
  8
0
  6
Continuous
 62
     7
370
    15
100
AcDbSpline
210
0.0
220
0.0
230
1.0
 70
     8
 71
     3
 72
    23
 73
    19
 74
     0
 42
0.000000001
 43
0.00000001
 40
0.0
 40
0.0
 40
0.0
 40
0.0
 40
0.0616742388774242
 40
0.1230530616347959
 40
0.1834750007317033
 40
0.2437265005106047
 40
0.3042789165122448
 40
0.3648629209606792
 40
0.4259462039686134
 40
0.4873912299654077
 40
0.549220384075476
 40
0.6111435886925968
 40
0.6735285303101505
 40
0.7369614566573004
 40
0.8007852828728471
 40
0.8660125956416248
 40
0.9321007477905874
 40
0.9999999999999999
 40
0.9999999999999999
 40
0.9999999999999999
 40
0.9999999999999999
 10
193.4753205128205
 20
5.584500200320516
 30
0.0
 10
193.4552562274284
 20
5.558611747504369
 30
0.0
 10
193.4152237634376
 20
5.506958846098545
 30
0.0
 10
193.3504011337428
 20
5.434140937991688
 30
0.0
 10
193.2821138711052
 20
5.365647991503228
 30
0.0
 10
193.2098547627419
 20
5.302032220818279
 30
0.0
 10
193.1344550517998
 20
5.242020669876737
 30
0.0
 10
193.0545608827443
 20
5.187318294362364
 30
0.0
 10
192.9712225461145
 20
5.137161563620499
 30
0.0
 10
192.8847224116787
 20
5.091235710670245
 30
0.0
 10
192.7951523843532
 20
5.050489350869464
 30
0.0
 10
192.7026197897987
 20
5.01560629008671
 30
0.0
 10
192.6075234820202
 20
4.985557283153627
 30
0.0
 10
192.5098591136749
 20
4.960835883411244
 30
0.0
 10
192.4094241056961
 20
4.941539971611758
 30
0.0
 10
192.3065808899117
 20
4.92864069514544
 30
0.0
 10
192.2011075031058
 20
4.919803387050975
 30
0.0
 10
192.1299499282275
 20
4.918997920558277
 30
0.0
 10
192.0938902243589
 20
4.918589743589746
 30
0.0
  0
SPLINE
  5
B7
330
1F
100
AcDbEntity
  8
0
  6
Continuous
 62
     7
370
    15
100
AcDbSpline
210
0.0
220
0.0
230
1.0
 70
     8
 71
     3
 72
    15
 73
    11
 74
     0
 42
0.000000001
 43
0.00000001
 40
0.0
 40
0.0
 40
0.0
 40
0.0
 40
0.128515189511656
 40
0.2529486363526459
 40
0.3747547340060057
 40
0.4959397538670409
 40
0.6171806414298932
 40
0.740909469278127
 40
0.8678111481861991
 40
1.0
 40
1.0
 40
1.0
 40
1.0
 10
192.0919821714743
 20
5.244230769230765
 30
0.0
 10
192.1474110393471
 20
5.245762733719086
 30
0.0
 10
192.2565083110102
 20
5.248778006308533
 30
0.0
 10
192.416499306334
 20
5.274322468012849
 30
0.0
 10
192.5696574651544
 20
5.315740722048906
 30
0.0
 10
192.7159910258027
 20
5.373705265867029
 30
0.0
 10
192.85508745486
 20
5.449057348464486
 30
0.0
 10
192.9871644252831
 20
5.540404708684096
 30
0.0
 10
193.1123334213832
 20
5.648616267688353
 30
0.0
 10
193.1876002274119
 20
5.731241676893095
 30
0.0
 10
193.2260016025641
 20
5.773397435897428
 30
0.0
  0
SPLINE
  5
B8
330
1F
100
AcDbEntity
  8
0
  6
Continuous
 62
     7
370
    15
100
AcDbSpline
210
0.0
220
0.0
230
1.0
 70
     8
 71
     3
 72
    23
 73
    19
 74
     0
 42
0.000000001
 43
0.00000001
 40
0.0
 40
0.0
 40
0.0
 40
0.0
 40
0.0643232165798418
 40
0.1262901037035565
 40
0.1867264692161324
 40
0.2461464323353439
 40
0.3055756426461343
 40
0.3654293856180515
 40
0.426326308948259
 40
0.4888399064006337
 40
0.5517249718140392
 40
0.6139185964661512
 40
0.6754837657683903
 40
0.7373338970992832
 40
0.8002290443945284
 40
0.8645022981233188
 40
0.931040739155688
 40
1.0
 40
1.0
 40
1.0
 40
1.0
 10
190.6666666666666
 20
6.584319911858969
 30
0.0
 10
190.6678113167812
 20
6.537392214500503
 30
0.0
 10
190.6700586854508
 20
6.445255905387095
 30
0.0
 10
190.6900596742238
 20
6.310299708681827
 30
0.0
 10
190.7204535784642
 20
6.181013097466867
 30
0.0
 10
190.7660062803988
 20
6.058204240513384
 30
0.0
 10
190.8221757048357
 20
5.940358801417897
 30
0.0
 10
190.8931511167013
 20
5.829470698684947
 30
0.0
 10
190.9753532613101
 20
5.72386424373518
 30
0.0
 10
191.0699450561071
 20
5.626035283991943
 30
0.0
 10
191.1737274748973
 20
5.536669261757249
 30
0.0
 10
191.2850773661289
 20
5.457974091386264
 30
0.0
 10
191.4037173986187
 20
5.392374162291769
 30
0.0
 10
191.5283376274309
 20
5.337785982237678
 30
0.0
 10
191.6598970307714
 20
5.295824522150147
 30
0.0
 10
191.7981590301039
 20
5.266284210115046
 30
0.0
 10
191.9428229115094
 20
5.247014517766574
 30
0.0
 10
192.0416737242668
 20
5.245169672161001
 30
0.0
 10
192.0919821714743
 20
5.244230769230765
 30
0.0
  0
SPLINE
  5
B9
330
1F
100
AcDbEntity
  8
0
  6
Continuous
 62
     7
370
    15
100
AcDbSpline
210
0.0
220
0.0
230
1.0
 70
     8
 71
     3
 72
    31
 73
    27
 74
     0
 42
0.000000001
 43
0.00000001
 40
0.0
 40
0.0
 40
0.0
 40
0.0
 40
0.0439549089061967
 40
0.0875018747976114
 40
0.1304626267314923
 40
0.1727520205665187
 40
0.215403067379605
 40
0.2576498297432459
 40
0.3001527489572958
 40
0.3431214895020865
 40
0.3859251632064358
 40
0.4276857274028032
 40
0.4688179504865863
 40
0.5094918001549932
 40
0.5498830310733527
 40
0.5899800229668852
 40
0.6304052300068388
 40
0.6708686260826416
 40
0.711383943838174
 40
0.7516272580635832
 40
0.7917755768651898
 40
0.8324589188037429
 40
0.8733190450172869
 40
0.9145429556263481
 40
0.9569235582098847
 40
1.0
 40
1.0
 40
1.0
 40
1.0
 10
192.072265625
 20
7.930769230769227
 30
0.0
 10
192.0404400605983
 20
7.930402779063872
 30
0.0
 10
191.9770843030519
 20
7.929673276670643
 30
0.0
 10
191.8830603306621
 20
7.920049284520461
 30
0.0
 10
191.7907920628501
 20
7.906522686837169
 30
0.0
 10
191.7003395184946
 20
7.886451857913049
 30
0.0
 10
191.6118178346769
 20
7.861076696321315
 30
0.0
 10
191.5246482985173
 20
7.83075507083339
 30
0.0
 10
191.4400929687014
 20
7.793240323246159
 30
0.0
 10
191.3569821383214
 20
7.751776401713817
 30
0.0
 10
191.2773538540612
 20
7.704942933982384
 30
0.0
 10
191.2020110607204
 20
7.653858679061293
 30
0.0
 10
191.1312285469634
 20
7.599095284433768
 30
0.0
 10
191.0649503202426
 20
7.540447495076763
 30
0.0
 10
191.0031086242525
 20
7.478179430931112
 30
0.0
 10
190.9461515637364
 20
7.411627492489581
 30
0.0
 10
190.8942762272813
 20
7.341004449370359
 30
0.0
 10
190.8464543545452
 20
7.267241572513863
 30
0.0
 10
190.8036256607163
 20
7.190553718673623
 30
0.0
 10
190.7677664129831
 20
7.110657047633001
 30
0.0
 10
190.7360117664109
 20
7.028919754169097
 30
0.0
 10
190.7108845962962
 20
6.944418343988776
 30
0.0
 10
190.6909959274564
 20
6.857747406402409
 30
0.0
 10
190.6772729757726
 20
6.768674334476351
 30
0.0
 10
190.6677584340463
 20
6.677385210841713
 30
0.0
 10
190.6670325592864
 20
6.615509620112911
 30
0.0
 10
190.6666666666667
 20
6.584319911858969
 30
0.0
  0
SPLINE
  5
BA
330
1F
100
AcDbEntity
  8
0
  6
Continuous
 62
     7
370
    15
100
AcDbSpline
210
0.0
220
0.0
230
1.0
 70
     8
 71
     3
 72
    19
 73
    15
 74
     0
 42
0.000000001
 43
0.00000001
 40
0.0
 40
0.0
 40
0.0
 40
0.0
 40
0.0631632593634664
 40
0.1254749410306429
 40
0.187121219816036
 40
0.2482943461142971
 40
0.3092948562551238
 40
0.3698500660670964
 40
0.430973375547378
 40
0.4924559896728182
 40
0.6161479662918498
 40
0.7408436984673722
 40
0.868182648670048
 40
1.0
 40
1.0
 40
1.0
 40
1.0
 10
193.2260016025641
 20
7.401602564102563
 30
0.0
 10
193.2082162609838
 20
7.422798836735092
 30
0.0
 10
193.1728853627926
 20
7.464905610284108
 30
0.0
 10
193.1160445147887
 20
7.524032768486316
 30
0.0
 10
193.0568065958758
 20
7.579427684205498
 30
0.0
 10
192.9951942502013
 20
7.631354246440305
 30
0.0
 10
192.9300984775239
 20
7.677996598213971
 30
0.0
 10
192.8630961815912
 20
7.721785384455046
 30
0.0
 10
192.7930665262968
 20
7.761035403874351
 30
0.0
 10
192.6962274527255
 20
7.808626826993806
 30
0.0
 10
192.5695469046426
 20
7.858289410469177
 30
0.0
 10
192.4100758720548
 20
7.899930198862926
 30
0.0
 10
192.243605089858
 20
7.926437979662262
 30
0.0
 10
192.1300329816249
 20
7.929308942985935
 30
0.0
 10
192.072265625
 20
7.930769230769227
 30
0.0
  0
SPLINE
  5
BC
330
1F
100
AcDbEntity
  8
0
  6
Continuous
 62
     7
370
    15
100
AcDbSpline
210
0.0
220
0.0
230
1.0
 70
     8
 71
     3
 72
    23
 73
    19
 74
     0
 42
0.000000001
 43
0.00000001
 40
0.0
 40
0.0
 40
0.0
 40
0.0
 40
0.0685475367089083
 40
0.1356829456230473
 40
0.2012149895263286
 40
0.2656822347547036
 40
0.329266834817262
 40
0.392395427844333
 40
0.4550697616521553
 40
0.5171268500645153
 40
0.578790035286651
 40
0.639739863343552
 40
0.7001915036663086
 40
0.7598062425966695
 40
0.819628319275013
 40
0.8793547910462807
 40
0.9395116077646719
 40
1.0
 40
1.0
 40
1.0
 40
1.0
 10
192.0900741185897
 20
8.256410256410259
 30
0.0
 10
192.1265543895696
 20
8.255972888194254
 30
0.0
 10
192.1987634121157
 20
8.255107161857206
 30
0.0
 10
192.3055818896612
 20
8.24666516151036
 30
0.0
 10
192.4095788576739
 20
8.23259210443289
 30
0.0
 10
192.5108259628051
 20
8.213436812531006
 30
0.0
 10
192.6098157646463
 20
8.18966302805503
 30
0.0
 10
192.7057916974433
 20
8.158692900296415
 30
0.0
 10
192.7993169348134
 20
8.12328118974584
 30
0.0
 10
192.8898016300876
 20
8.082497438502173
 30
0.0
 10
192.9768116434293
 20
8.036716894511658
 30
0.0
 10
193.0603198752216
 20
7.986447007437544
 30
0.0
 10
193.1396629970493
 20
7.931750098158497
 30
0.0
 10
193.2153993095596
 20
7.873091360465462
 30
0.0
 10
193.2862618724643
 20
7.809229810247495
 30
0.0
 10
193.3542626422783
 20
7.741921991042802
 30
0.0
 10
193.4170923346108
 20
7.669229164842958
 30
0.0
 10
193.4558755900697
 20
7.618061831939832
 30
0.0
 10
193.4753205128204
 20
7.592407852564098
 30
0.0
  0
SPLINE
  5
BD
330
1F
100
AcDbEntity
  8
0
  6
Continuous
 62
     7
370
    15
100
AcDbSpline
210
0.0
220
0.0
230
1.0
 70
     8
 71
     3
 72
    23
 73
    19
 74
     0
 42
0.000000001
 43
0.00000001
 40
0.0
 40
0.0
 40
0.0
 40
0.0
 40
0.064557845929719
 40
0.1270135315497589
 40
0.1879548102020908
 40
0.2480139127896339
 40
0.3077476818488365
 40
0.3682345146974886
 40
0.4294698439426712
 40
0.4927434367465846
 40
0.5562577687060836
 40
0.6182167855431454
 40
0.6796554755875571
 40
0.7412455456206319
 40
0.8034152647056991
 40
0.8668154615439944
 40
0.9323283119492659
 40
1.0
 40
1.0
 40
1.0
 40
1.0
 10
190.3817307692307
 20
6.605944511217945
 30
0.0
 10
190.3831415519575
 20
6.663054101216106
 30
0.0
 10
190.3859171788979
 20
6.775413654211762
 30
0.0
 10
190.4094990790759
 20
6.940308597552597
 30
0.0
 10
190.4474347013352
 20
7.098288795083757
 30
0.0
 10
190.5013161645607
 20
7.249059334817051
 30
0.0
 10
190.569628876102
 20
7.393413231884721
 30
0.0
 10
190.6540173043707
 20
7.530247753424257
 30
0.0
 10
190.7535010691002
 20
7.660437993112695
 30
0.0
 10
190.8672999340703
 20
7.782008517504033
 30
0.0
 10
190.9920931596637
 20
7.893169215954233
 30
0.0
 10
191.1257323694057
 20
7.990964843640203
 30
0.0
 10
191.2679559927311
 20
8.072351447439383
 30
0.0
 10
191.417197186751
 20
8.140383680497354
 30
0.0
 10
191.5745734836008
 20
8.19267544348487
 30
0.0
 10
191.7397491113074
 20
8.229281548551793
 30
0.0
 10
191.9124136982875
 20
8.252066361186195
 30
0.0
 10
192.0302174701265
 20
8.254946728355181
 30
0.0
 10
192.0900741185897
 20
8.256410256410259
 30
0.0
  0
CIRCLE
  5
DF
330
1F
100
AcDbEntity
  8
0
  6
Continuous
 62
     7
370
    15
100
AcDbCircle
 10
169.5
 20
155.0
 30
0.0
 40
2.000000000000028
  0
CIRCLE
  5
E0
330
1F
100
AcDbEntity
  8
0
  6
Continuous
 62
     7
370
    15
100
AcDbCircle
 10
169.5
 20
33.0
 30
0.0
 40
2.000000000000028
  0
SPLINE
  5
E1
330
1F
100
AcDbEntity
  8
0
  6
Continuous
 62
     7
370
    15
100
AcDbSpline
210
0.0
220
0.0
230
1.0
 70
     8
 71
     3
 72
    15
 73
    11
 74
     0
 42
0.000000001
 43
0.00000001
 40
0.0
 40
0.0
 40
0.0
 40
0.0
 40
0.1298621417207361
 40
0.2546535308972847
 40
0.3760145541937068
 40
0.4952552518175964
 40
0.6147977192994412
 40
0.7381055541683279
 40
0.8651963000723476
 40
1.0
 40
1.0
 40
1.0
 40
1.0
 10
185.5759815705128
 20
7.360897435897434
 30
0.0
 10
185.6233342998056
 20
7.359593189855892
 30
0.0
 10
185.7161907670736
 20
7.357035624924054
 30
0.0
 10
185.8520154611942
 20
7.335751579427549
 30
0.0
 10
185.9805072375782
 20
7.299793827079945
 30
0.0
 10
186.1026579712054
 20
7.250882953872898
 30
0.0
 10
186.2180290221629
 20
7.185887321062872
 30
0.0
 10
186.3255281579352
 20
7.103899784991444
 30
0.0
 10
186.426280417793
 20
7.00543742252567
 30
0.0
 10
186.4846825395124
 20
6.929808519328589
 30
0.0
 10
186.5147435897436
 20
6.890880408653849
 30
0.0
  0
SPLINE
  5
E2
330
1F
100
AcDbEntity
  8
0
  6
Continuous
 62
     7
370
    15
100
AcDbSpline
210
0.0
220
0.0
230
1.0
 70
     8
 71
     3
 72
    23
 73
    19
 74
     0
 42
0.000000001
 43
0.00000001
 40
0.0
 40
0.0
 40
0.0
 40
0.0
 40
0.0637745323056322
 40
0.1260788099895052
 40
0.1869040927472074
 40
0.2475739349176179
 40
0.3080033561644465
 40
0.3691318984609757
 40
0.4320332277442047
 40
0.496790794437088
 40
0.5616108232295588
 40
0.6249138657484558
 40
0.6867263492419242
 40
0.7480788332577679
 40
0.8095822911398952
 40
0.8716307425688212
 40
0.9348858208285478
 40
0.9999999999999999
 40
0.9999999999999999
 40
0.9999999999999999
 40
0.9999999999999999
 10
184.3573717948718
 20
6.166456330128203
 30
0.0
 10
184.3585084189139
 20
6.206791261223338
 30
0.0
 10
184.3607554633285
 20
6.286531244091578
 30
0.0
 10
184.377495169898
 20
6.403805491550188
 30
0.0
 10
184.4056447277532
 20
6.516761342358193
 30
0.0
 10
184.4451488467072
 20
6.625035140854038
 30
0.0
 10
184.4958054772808
 20
6.728757900631682
 30
0.0
 10
184.5574259562211
 20
6.828002980466666
 30
0.0
 10
184.6300147336266
 20
6.923043791021502
 30
0.0
 10
184.7137008457057
 20
7.011645546778536
 30
0.0
 10
184.8043559586389
 20
7.093488532580058
 30
0.0
 10
184.901337450255
 20
7.164616738088575
 30
0.0
 10
185.0022328554533
 20
7.226045593800245
 30
0.0
 10
185.1086071578556
 20
7.274716961592445
 30
0.0
 10
185.2188858886513
 20
7.314095220714911
 30
0.0
 10
185.3340508001504
 20
7.341339413206097
 30
0.0
 10
185.4536227322347
 20
7.357393411759533
 30
0.0
 10
185.5348033928933
 20
7.359718204953722
 30
0.0
 10
185.5759815705128
 20
7.360897435897434
 30
0.0
  0
SPLINE
  5
E3
330
1F
100
AcDbEntity
  8
0
  6
Continuous
 62
     7
370
    15
100
AcDbSpline
210
0.0
220
0.0
230
1.0
 70
     8
 71
     3
 72
    23
 73
    19
 74
     0
 42
0.000000001
 43
0.00000001
 40
0.0
 40
0.0
 40
0.0
 40
0.0
 40
0.064619991340761
 40
0.1274334841444646
 40
0.1890041265579311
 40
0.2499300706860425
 40
0.3106684537406677
 40
0.3723289611368265
 40
0.4349391099970016
 40
0.4995755441940359
 40
0.5641912077719244
 40
0.6267352169294734
 40
0.6881093335614032
 40
0.7492936065367485
 40
0.810330527810947
 40
0.8719011702244153
 40
0.935045914684531
 40
0.9999999999999999
 40
0.9999999999999999
 40
0.9999999999999999
 40
0.9999999999999999
 10
185.5670773237179
 20
4.959294871794875
 30
0.0
 10
185.526103537027
 20
4.960407366639025
 30
0.0
 10
185.4453014154501
 20
4.962601255730364
 30
0.0
 10
185.3264393240454
 20
4.97962134544122
 30
0.0
 10
185.2120556406134
 20
5.006954123645116
 30
0.0
 10
185.1020422782703
 20
5.044964216255485
 30
0.0
 10
184.9971111177692
 20
5.095383961598713
 30
0.0
 10
184.8963637443594
 20
5.155746379464837
 30
0.0
 10
184.8003220880278
 20
5.227629132466591
 30
0.0
 10
184.7104500491105
 20
5.309805415329549
 30
0.0
 10
184.6276895916267
 20
5.399063725131825
 30
0.0
 10
184.5550625800337
 20
5.494264328368567
 30
0.0
 10
184.4945080004512
 20
5.594995561185464
 30
0.0
 10
184.4438712129524
 20
5.699982065070247
 30
0.0
 10
184.4048673862098
 20
5.810032027790387
 30
0.0
 10
184.3776770179901
 20
5.924764887278624
 30
0.0
 10
184.3606767556259
 20
6.044044986846908
 30
0.0
 10
184.3584837734331
 20
6.125270125655072
 30
0.0
 10
184.3573717948718
 20
6.166456330128203
 30
0.0
  0
SPLINE
  5
E4
330
1F
100
AcDbEntity
  8
0
  6
Continuous
 62
     7
370
    15
100
AcDbSpline
210
0.0
220
0.0
230
1.0
 70
     8
 71
     3
 72
    15
 73
    11
 74
     0
 42
0.000000001
 43
0.00000001
 40
0.0
 40
0.0
 40
0.0
 40
0.0
 40
0.1342983790141795
 40
0.2620849753822926
 40
0.3862699121344926
 40
0.5071645966228006
 40
0.6273002357254971
 40
0.7481449416029825
 40
0.8723701771613424
 40
1.0
 40
1.0
 40
1.0
 40
1.0
 10
186.5147435897436
 20
5.401327123397443
 30
0.0
 10
186.4826136868184
 20
5.365005491735686
 30
0.0
 10
186.4199117772422
 20
5.294123370821121
 30
0.0
 10
186.3151901916539
 20
5.201520257204481
 30
0.0
 10
186.2041847731279
 20
5.12497706552173
 30
0.0
 10
186.0874342889595
 20
5.063155356279242
 30
0.0
 10
185.9650441682111
 20
5.016716848030345
 30
0.0
 10
185.8372857176105
 20
4.983709403680509
 30
0.0
 10
185.7041068221111
 20
4.96248785320283
 30
0.0
 10
185.6131636145516
 20
4.960368747650213
 30
0.0
 10
185.5670773237179
 20
4.959294871794875
 30
0.0
  0
SPLINE
  5
F7
330
1F
100
AcDbEntity
  8
0
  6
Continuous
 62
     7
370
    15
100
AcDbSpline
210
0.0
220
0.0
230
1.0
 70
     8
 71
     3
 72
    11
 73
     7
 74
     0
 42
0.000000001
 43
0.00000001
 40
0.0
 40
0.0
 40
0.0
 40
0.0
 40
0.2462523706929746
 40
0.4925907964763823
 40
0.740569991118088
 40
1.0
 40
1.0
 40
1.0
 40
1.0
 10
170.8680739182692
 20
6.394786658653839
 30
0.0
 10
170.8516268742952
 20
6.421225895150498
 30
0.0
 10
170.818727038781
 20
6.474113607571164
 30
0.0
 10
170.7867818296408
 20
6.56238811146384
 30
0.0
 10
170.7648235034452
 20
6.655320413469723
 30
0.0
 10
170.7628619066487
 20
6.719443488483662
 30
0.0
 10
170.7618589743589
 20
6.752228565705121
 30
0.0
  0
SPLINE
  5
F8
330
1F
100
AcDbEntity
  8
0
  6
Continuous
 62
     7
370
    15
100
AcDbSpline
210
0.0
220
0.0
230
1.0
 70
     8
 71
     3
 72
    15
 73
    11
 74
     0
 42
0.000000001
 43
0.00000001
 40
0.0
 40
0.0
 40
0.0
 40
0.0
 40
0.1577616635135723
 40
0.3059502132085292
 40
0.4437754990007189
 40
0.5728243624015233
 40
0.6921541564432542
 40
0.8022957069908392
 40
0.9055643918329922
 40
1.0
 40
1.0
 40
1.0
 40
1.0
 10
171.2681290064102
 20
6.078049879807687
 30
0.0
 10
171.2445009829459
 20
6.091238949246
 30
0.0
 10
171.1986787048613
 20
6.116816764012933
 30
0.0
 10
171.1337750909408
 20
6.156654922533006
 30
0.0
 10
171.0752214196139
 20
6.197174521707149
 30
0.0
 10
171.0216087555462
 20
6.236102597312318
 30
0.0
 10
170.9742912718245
 20
6.275491596464705
 30
0.0
 10
170.9334553758623
 20
6.315385246010191
 30
0.0
 10
170.8974933157864
 20
6.354174661953552
 30
0.0
 10
170.8775838780017
 20
6.381658638168364
 30
0.0
 10
170.8680739182692
 20
6.394786658653839
 30
0.0
  0
SPLINE
  5
F9
330
1F
100
AcDbEntity
  8
0
  6
Continuous
 62
     7
370
    15
100
AcDbSpline
210
0.0
220
0.0
230
1.0
 70
     8
 71
     3
 72
    15
 73
    11
 74
     0
 42
0.000000001
 43
0.00000001
 40
0.0
 40
0.0
 40
0.0
 40
0.0
 40
0.0768750740350495
 40
0.1674616757257369
 40
0.2722700232466165
 40
0.3895508405125279
 40
0.520801368348045
 40
0.6662632933752073
 40
0.8255449152058482
 40
1.0
 40
1.0
 40
1.0
 40
1.0
 10
171.6198467548076
 20
5.838907251602563
 30
0.0
 10
171.6125692970056
 20
5.847103615840233
 30
0.0
 10
171.5967163655602
 20
5.864958257378178
 30
0.0
 10
171.5676376824121
 20
5.890743864631218
 30
0.0
 10
171.5328198502729
 20
5.918536997434582
 30
0.0
 10
171.4918712738986
 20
5.947866367400412
 30
0.0
 10
171.4447094048553
 20
5.97834510220116
 30
0.0
 10
171.3911430950373
 20
6.009813300313235
 30
0.0
 10
171.3319061652256
 20
6.043765594421324
 30
0.0
 10
171.2900228068157
 20
6.066280567482734
 30
0.0
 10
171.2681290064102
 20
6.078049879807687
 30
0.0
  0
SPLINE
  5
FA
330
1F
100
AcDbEntity
  8
0
  6
Continuous
 62
     7
370
    15
100
AcDbSpline
210
0.0
220
0.0
230
1.0
 70
     8
 71
     3
 72
    11
 73
     7
 74
     0
 42
0.000000001
 43
0.00000001
 40
0.0
 40
0.0
 40
0.0
 40
0.0
 40
0.2534754346498636
 40
0.5004533151028979
 40
0.7455781350009623
 40
1.0
 40
1.0
 40
1.0
 40
1.0
 10
171.6980769230769
 20
5.617573116987185
 30
0.0
 10
171.6970914989267
 20
5.637811128202067
 30
0.0
 10
171.6951459108524
 20
5.677768372254421
 30
0.0
 10
171.6798666569628
 20
5.735599038773021
 30
0.0
 10
171.655724998127
 20
5.790453314820615
 30
0.0
 10
171.631953638549
 20
5.82255678053277
 30
0.0
 10
171.6198467548076
 20
5.838907251602563
 30
0.0
  0
SPLINE
  5
FB
330
1F
100
AcDbEntity
  8
0
  6
Continuous
 62
     7
370
    15
100
AcDbSpline
210
0.0
220
0.0
230
1.0
 70
     8
 71
     3
 72
    15
 73
    11
 74
     0
 42
0.000000001
 43
0.00000001
 40
0.0
 40
0.0
 40
0.0
 40
0.0
 40
0.1340420464623707
 40
0.2618956736507242
 40
0.3878360446910996
 40
0.5176862058208266
 40
0.6445086536782142
 40
0.7647182630567263
 40
0.8802907821585007
 40
1.0
 40
1.0
 40
1.0
 40
1.0
 10
171.2884815705128
 20
5.244230769230765
 30
0.0
 10
171.315984260489
 20
5.245474303211095
 30
0.0
 10
171.3697199032118
 20
5.247903960009682
 30
0.0
 10
171.4466853128116
 20
5.269963036351022
 30
0.0
 10
171.5177496382345
 20
5.304552349792338
 30
0.0
 10
171.5794565302409
 20
5.353614897409001
 30
0.0
 10
171.6319820620665
 20
5.410724595410144
 30
0.0
 10
171.6700169059935
 20
5.475053832204021
 30
0.0
 10
171.6938531508759
 20
5.544714653629254
 30
0.0
 10
171.6966525925138
 20
5.593003956719425
 30
0.0
 10
171.6980769230769
 20
5.617573116987185
 30
0.0
  0
SPLINE
  5
FC
330
1F
100
AcDbEntity
  8
0
  6
Continuous
 62
     7
370
    15
100
AcDbSpline
210
0.0
220
0.0
230
1.0
 70
     8
 71
     3
 72
    15
 73
    11
 74
     0
 42
0.000000001
 43
0.00000001
 40
0.0
 40
0.0
 40
0.0
 40
0.0
 40
0.1474758177483448
 40
0.2859041715443824
 40
0.4171716482444169
 40
0.5405007435864904
 40
0.6592377183802413
 40
0.7750060983159592
 40
0.8872285734285908
 40
1.0
 40
1.0
 40
1.0
 40
1.0
 10
170.8286408253205
 20
5.488461538461539
 30
0.0
 10
170.8465772285205
 20
5.469089716354167
 30
0.0
 10
170.8813496581682
 20
5.431534510114439
 30
0.0
 10
170.9369586191201
 20
5.381528858219645
 30
0.0
 10
170.9935456472636
 20
5.3396177051213
 30
0.0
 10
171.0505456843702
 20
5.304562607417157
 30
0.0
 10
171.1088024842209
 20
5.277552063124233
 30
0.0
 10
171.1679895771328
 20
5.258575910077654
 30
0.0
 10
171.2279865761029
 20
5.246380107130355
 30
0.0
 10
171.2682837993109
 20
5.244948379597616
 30
0.0
 10
171.2884815705128
 20
5.244230769230765
 30
0.0
  0
SPLINE
  5
FE
330
1F
100
AcDbEntity
  8
0
  6
Continuous
 62
     7
370
    15
100
AcDbSpline
210
0.0
220
0.0
230
1.0
 70
     8
 71
     3
 72
    15
 73
    11
 74
     0
 42
0.000000001
 43
0.00000001
 40
0.0
 40
0.0
 40
0.0
 40
0.0
 40
0.1267425189618462
 40
0.2517239612496193
 40
0.3772186880262417
 40
0.5046935492516225
 40
0.6314582385934971
 40
0.7554010672029496
 40
0.8777005336014617
 40
1.0
 40
1.0
 40
1.0
 40
1.0
 10
171.3031099759615
 20
4.959294871794875
 30
0.0
 10
171.2710268953856
 20
4.960195392804484
 30
0.0
 10
171.2073065259484
 20
4.961983922159768
 30
0.0
 10
171.1130637092921
 20
4.978771563358311
 30
0.0
 10
171.0209698782176
 20
5.004893099314608
 30
0.0
 10
170.9317219523683
 20
5.040921125300899
 30
0.0
 10
170.8473158347689
 20
5.086414986249982
 30
0.0
 10
170.7700899245953
 20
5.140900157574666
 30
0.0
 10
170.6997759550773
 20
5.202576798076771
 30
0.0
 10
170.6597543781882
 20
5.249850652777721
 30
0.0
 10
170.6397435897435
 20
5.273487580128203
 30
0.0
  0
SPLINE
  5
FF
330
1F
100
AcDbEntity
  8
0
  6
Continuous
 62
     7
370
    15
100
AcDbSpline
210
0.0
220
0.0
230
1.0
 70
     8
 71
     3
 72
    23
 73
    19
 74
     0
 42
0.000000001
 43
0.00000001
 40
0.0
 40
0.0
 40
0.0
 40
0.0
 40
0.0645481255642519
 40
0.1271991327555133
 40
0.1885973380874271
 40
0.2486395150940182
 40
0.3095246994640546
 40
0.3700369910533546
 40
0.4318892436070759
 40
0.4957042857252937
 40
0.5595193278435191
 40
0.6213715803972432
 40
0.682397107291657
 40
0.7435684819321835
 40
0.8054984835712246
 40
0.8686397008205408
 40
0.9330662250811784
 40
1.0
 40
1.0
 40
1.0
 40
1.0
 10
171.9830128205128
 20
5.629657451923078
 30
0.0
 10
171.9823601005516
 20
5.606734726400997
 30
0.0
 10
171.9810738445641
 20
5.56156299164784
 30
0.0
 10
171.9721311695563
 20
5.495037824704771
 30
0.0
 10
171.9567505838916
 20
5.431415761796746
 30
0.0
 10
171.9358012499449
 20
5.370006467817504
 30
0.0
 10
171.9075125688107
 20
5.311986572593089
 30
0.0
 10
171.8743584956806
 20
5.255892261011446
 30
0.0
 10
171.8345576828916
 20
5.202936952366802
 30
0.0
 10
171.7891176492964
 20
5.153190181348272
 30
0.0
 10
171.739364951187
 20
5.107755253331264
 30
0.0
 10
171.6862915256804
 20
5.067819238038354
 30
0.0
 10
171.6298320150559
 20
5.034641089293482
 30
0.0
 10
171.5703898451941
 20
5.007186097537391
 30
0.0
 10
171.5078299589998
 20
4.985352749257474
 30
0.0
 10
171.4421425751469
 20
4.970237453048684
 30
0.0
 10
171.3735364906427
 20
4.961190734056098
 30
0.0
 10
171.3268823075524
 20
4.959934816374398
 30
0.0
 10
171.3031099759615
 20
4.959294871794875
 30
0.0
  0
SPLINE
  5
100
330
1F
100
AcDbEntity
  8
0
  6
Continuous
 62
     7
370
    15
100
AcDbSpline
210
0.0
220
0.0
230
1.0
 70
     8
 71
     3
 72
    11
 73
     7
 74
     0
 42
0.000000001
 43
0.00000001
 40
0.0
 40
0.0
 40
0.0
 40
0.0
 40
0.2488386141270928
 40
0.4952350254576713
 40
0.7433356038750085
 40
1.0
 40
1.0
 40
1.0
 40
1.0
 10
171.8748898237179
 20
5.988371394230765
 30
0.0
 10
171.8914093735845
 20
5.961460014356379
 30
0.0
 10
171.9242863437744
 20
5.907901373773422
 30
0.0
 10
171.9588106283452
 20
5.819710371735995
 30
0.0
 10
171.9788224490954
 20
5.726174415953674
 30
0.0
 10
171.9816003202983
 20
5.662191616276388
 30
0.0
 10
171.9830128205128
 20
5.629657451923078
 30
0.0
  0
SPLINE
  5
101
330
1F
100
AcDbEntity
  8
0
  6
Continuous
 62
     7
370
    15
100
AcDbSpline
210
0.0
220
0.0
230
1.0
 70
     8
 71
     3
 72
    15
 73
    11
 74
     0
 42
0.000000001
 43
0.00000001
 40
0.0
 40
0.0
 40
0.0
 40
0.0
 40
0.1589891012268005
 40
0.3071145916055753
 40
0.446213158596206
 40
0.5748760724117438
 40
0.6941521095829494
 40
0.8045811801532385
 40
0.906593319045767
 40
1.0
 40
1.0
 40
1.0
 40
1.0
 10
171.4570262419871
 20
6.314012419871798
 30
0.0
 10
171.4817128440681
 20
6.30018311517612
 30
0.0
 10
171.5293992304789
 20
6.273469452220431
 30
0.0
 10
171.5971562407749
 20
6.232004221179616
 30
0.0
 10
171.6586487707985
 20
6.190791429160042
 30
0.0
 10
171.714397840737
 20
6.150271830713941
 30
0.0
 10
171.7633307673293
 20
6.109311729375816
 30
0.0
 10
171.8069321829491
 20
6.069481121264
 30
0.0
 10
171.8441145570823
 20
6.029576534463551
 30
0.0
 10
171.8649370477201
 20
6.001697209910908
 30
0.0
 10
171.8748898237179
 20
5.988371394230765
 30
0.0
  0
SPLINE
  5
102
330
1F
100
AcDbEntity
  8
0
  6
Continuous
 62
     7
370
    15
100
AcDbSpline
210
0.0
220
0.0
230
1.0
 70
     8
 71
     3
 72
    15
 73
    11
 74
     0
 42
0.000000001
 43
0.00000001
 40
0.0
 40
0.0
 40
0.0
 40
0.0
 40
0.0834251049856371
 40
0.1775598214659387
 40
0.2839823599504449
 40
0.4022167468072059
 40
0.5335684803800526
 40
0.6761209941988388
 40
0.8316493725539897
 40
1.0
 40
1.0
 40
1.0
 40
1.0
 10
171.1256610576922
 20
6.553155048076922
 30
0.0
 10
171.1328850841851
 20
6.544279032289102
 30
0.0
 10
171.1482605140939
 20
6.525387551374731
 30
0.0
 10
171.1771153812514
 20
6.499167627203067
 30
0.0
 10
171.2097929374176
 20
6.470191442389889
 30
0.0
 10
171.2490903095033
 20
6.441220168845074
 30
0.0
 10
171.2933144562267
 20
6.41071138955078
 30
0.0
 10
171.3434243783349
 20
6.379866597495246
 30
0.0
 10
171.39782982213
 20
6.346334583489391
 30
0.0
 10
171.4367800931322
 20
6.325067131246115
 30
0.0
 10
171.4570262419871
 20
6.314012419871798
 30
0.0
  0
SPLINE
  5
103
330
1F
100
AcDbEntity
  8
0
  6
Continuous
 62
     7
370
    15
100
AcDbSpline
210
0.0
220
0.0
230
1.0
 70
     8
 71
     3
 72
    11
 73
     7
 74
     0
 42
0.000000001
 43
0.00000001
 40
0.0
 40
0.0
 40
0.0
 40
0.0
 40
0.2400399314959816
 40
0.4794031936060911
 40
0.7317567388575391
 40
1.0
 40
1.0
 40
1.0
 40
1.0
 10
171.0467948717948
 20
6.763676883012826
 30
0.0
 10
171.0478025372069
 20
6.745341671532401
 30
0.0
 10
171.0498150274358
 20
6.708722935289763
 30
0.0
 10
171.0654602292917
 20
6.654704361734431
 30
0.0
 10
171.0903758804833
 20
6.602038334230981
 30
0.0
 10
171.1136624138682
 20
6.56977769775327
 30
0.0
 10
171.1256610576922
 20
6.553155048076922
 30
0.0
  0
SPLINE
  5
104
330
1F
100
AcDbEntity
  8
0
  6
Continuous
 62
     7
370
    15
100
AcDbSpline
210
0.0
220
0.0
230
1.0
 70
     8
 71
     3
 72
    15
 73
    11
 74
     0
 42
0.000000001
 43
0.00000001
 40
0.0
 40
0.0
 40
0.0
 40
0.0
 40
0.1249584925460573
 40
0.2459006286062905
 40
0.3691660295860963
 40
0.4985108411773664
 40
0.6285038663666076
 40
0.7510283288509991
 40
0.8737241742784349
 40
1.0
 40
1.0
 40
1.0
 40
1.0
 10
171.348267227564
 20
7.075961538461545
 30
0.0
 10
171.3281836382076
 20
7.074986475117479
 30
0.0
 10
171.2886619766798
 20
7.073067688451992
 30
0.0
 10
171.2320328414772
 20
7.053914790934021
 30
0.0
 10
171.1794633459253
 20
7.024515435331086
 30
0.0
 10
171.1339637997767
 20
6.98281536310602
 30
0.0
 10
171.0954214043288
 20
6.934950633526269
 30
0.0
 10
171.0672875651194
 20
6.881432538808296
 30
0.0
 10
171.0500827085412
 20
6.823876099160422
 30
0.0
 10
171.0479012730459
 20
6.783934728275542
 30
0.0
 10
171.0467948717948
 20
6.763676883012826
 30
0.0
  0
SPLINE
  5
105
330
1F
100
AcDbEntity
  8
0
  6
Continuous
 62
     7
370
    15
100
AcDbSpline
210
0.0
220
0.0
230
1.0
 70
     8
 71
     3
 72
    15
 73
    11
 74
     0
 42
0.000000001
 43
0.00000001
 40
0.0
 40
0.0
 40
0.0
 40
0.0
 40
0.1582230975562946
 40
0.3050355053581552
 40
0.4413089638879047
 40
0.5659632271047437
 40
0.683525114415045
 40
0.7933341296296075
 40
0.898517512161031
 40
1.0
 40
1.0
 40
1.0
 40
1.0
 10
171.7489583333333
 20
6.83173076923077
 30
0.0
 10
171.7322755194186
 20
6.851064837691615
 30
0.0
 10
171.7001130181665
 20
6.88833864559113
 30
0.0
 10
171.6491030318286
 20
6.938174413062145
 30
0.0
 10
171.5982816200148
 20
6.980027207674127
 30
0.0
 10
171.5483444819876
 20
7.015362471113271
 30
0.0
 10
171.4980359093275
 20
7.042077054105714
 30
0.0
 10
171.4479462764502
 20
7.061575964580125
 30
0.0
 10
171.3980237207974
 20
7.073642602572358
 30
0.0
 10
171.3646535317093
 20
7.075197843387712
 30
0.0
 10
171.348267227564
 20
7.075961538461545
 30
0.0
  0
SPLINE
  5
107
330
1F
100
AcDbEntity
  8
0
  6
Continuous
 62
     7
370
    15
100
AcDbSpline
210
0.0
220
0.0
230
1.0
 70
     8
 71
     3
 72
    15
 73
    11
 74
     0
 42
0.000000001
 43
0.00000001
 40
0.0
 40
0.0
 40
0.0
 40
0.0
 40
0.1057142614175236
 40
0.2134116126389716
 40
0.3261267300734497
 40
0.4444516715568521
 40
0.5690610798550754
 40
0.7027122044812105
 40
0.8463179465861916
 40
1.0
 40
1.0
 40
1.0
 40
1.0
 10
171.348267227564
 20
7.360897435897434
 30
0.0
 10
171.3729343137079
 20
7.359895641121953
 30
0.0
 10
171.4227312149251
 20
7.357873258940953
 30
0.0
 10
171.4974386256972
 20
7.341811668178072
 30
0.0
 10
171.5720360145909
 20
7.315383780887835
 30
0.0
 10
171.6467150534901
 20
7.278883769216593
 30
0.0
 10
171.7209286731451
 20
7.231651674668132
 30
0.0
 10
171.7953296788438
 20
7.17456581024116
 30
0.0
 10
171.8708112491784
 20
7.108001740650696
 30
0.0
 10
171.9179430474919
 20
7.05711172901971
 30
0.0
 10
171.9423076923076
 20
7.030804286858968
 30
0.0
  0
SPLINE
  5
108
330
1F
100
AcDbEntity
  8
0
  6
Continuous
 62
     7
370
    15
100
AcDbSpline
210
0.0
220
0.0
230
1.0
 70
     8
 71
     3
 72
    23
 73
    19
 74
     0
 42
0.000000001
 43
0.00000001
 40
0.0
 40
0.0
 40
0.0
 40
0.0
 40
0.0679784896192536
 40
0.1330435352439053
 40
0.1965074380533934
 40
0.2586134167685691
 40
0.3197283376065517
 40
0.3808728540495581
 40
0.4426356023162026
 40
0.5050793035048707
 40
0.5678805200585726
 40
0.6288138541554796
 40
0.6889100905404435
 40
0.7487650058898279
 40
0.8093857829631181
 40
0.8708843357532083
 40
0.9340374630736851
 40
1.0
 40
1.0
 40
1.0
 40
1.0
 10
170.7618589743589
 20
6.752228565705121
 30
0.0
 10
170.76234356583
 20
6.77366017670121
 30
0.0
 10
170.7632919799947
 20
6.815604875809164
 30
0.0
 10
170.7708612267814
 20
6.877235091369894
 30
0.0
 10
170.7846422790806
 20
6.935789488075439
 30
0.0
 10
170.8019278160095
 20
6.992147428090262
 30
0.0
 10
170.8259516843268
 20
7.045217184824482
 30
0.0
 10
170.8546590411367
 20
7.095706462116144
 30
0.0
 10
170.8883933480321
 20
7.143545473446894
 30
0.0
 10
170.9272583333014
 20
7.187998314698199
 30
0.0
 10
170.9699907900581
 20
7.228374632133994
 30
0.0
 10
171.0161596168894
 20
7.263570530365166
 30
0.0
 10
171.0647264639306
 20
7.29360272364478
 30
0.0
 10
171.1158969588163
 20
7.318789690752517
 30
0.0
 10
171.1701626735764
 20
7.337840944963495
 30
0.0
 10
171.2271442954676
 20
7.350955858561339
 30
0.0
 10
171.2867264859652
 20
7.359714506816426
 30
0.0
 10
171.3274582216589
 20
7.360497447571126
 30
0.0
 10
171.348267227564
 20
7.360897435897434
 30
0.0
  0
SPLINE
  5
109
330
1F
100
AcDbEntity
  8
0
  6
Continuous
 62
     7
370
    15
100
AcDbSpline
210
0.0
220
0.0
230
1.0
 70
     8
 71
     3
 72
    15
 73
    11
 74
     0
 42
0.000000001
 43
0.00000001
 40
0.0
 40
0.0
 40
0.0
 40
0.0
 40
0.1201621349925912
 40
0.2375463202768788
 40
0.3574970509273493
 40
0.4849171224652744
 40
0.6133292680851103
 40
0.7401503701286687
 40
0.8673012545632695
 40
1.0
 40
1.0
 40
1.0
 40
1.0
 10
172.9192307692308
 20
8.051612580128209
 30
0.0
 10
172.9182490956754
 20
8.035590030473008
 30
0.0
 10
172.9163084432327
 20
8.003915345995399
 30
0.0
 10
172.9007831574618
 20
7.958400839205002
 30
0.0
 10
172.8762701274189
 20
7.916124096330801
 30
0.0
 10
172.8417994920295
 20
7.879411380638274
 30
0.0
 10
172.8013329731207
 20
7.84815067536114
 30
0.0
 10
172.7557501459566
 20
7.824832805068723
 30
0.0
 10
172.7056799890898
 20
7.811080394744111
 30
0.0
 10
172.6710566692549
 20
7.80947412710245
 30
0.0
 10
172.653375400641
 20
7.80865384615384
 30
0.0
  0
SPLINE
  5
10A
330
1F
100
AcDbEntity
  8
0
  6
Continuous
 62
     7
370
    15
100
AcDbSpline
210
0.0
220
0.0
230
1.0
 70
     8
 71
     3
 72
    15
 73
    11
 74
     0
 42
0.000000001
 43
0.00000001
 40
0.0
 40
0.0
 40
0.0
 40
0.0
 40
0.1318992643310716
 40
0.2582840923169943
 40
0.3843411247791186
 40
0.5119796151257066
 40
0.6386320084211539
 40
0.759229763164583
 40
0.8774121680351996
 40
0.9999999999999999
 40
0.9999999999999999
 40
0.9999999999999999
 40
0.9999999999999999
 10
172.653375400641
 20
8.297115384615388
 30
0.0
 10
172.6710568085346
 20
8.296295189227823
 30
0.0
 10
172.705680401106
 20
8.294689089131113
 30
0.0
 10
172.7557485796408
 20
8.28093546349551
 30
0.0
 10
172.8013388691664
 20
8.25762217741373
 30
0.0
 10
172.841777241145
 20
8.226344181168175
 30
0.0
 10
172.8764771669199
 20
8.189560043173019
 30
0.0
 10
172.9007710970461
 20
8.146687593362318
 30
0.0
 10
172.9163851992364
 20
8.100370113889573
 30
0.0
 10
172.9182707458097
 20
8.068062140132447
 30
0.0
 10
172.9192307692308
 20
8.051612580128209
 30
0.0
  0
SPLINE
  5
10B
330
1F
100
AcDbEntity
  8
0
  6
Continuous
 62
     7
370
    15
100
AcDbSpline
210
0.0
220
0.0
230
1.0
 70
     8
 71
     3
 72
    15
 73
    11
 74
     0
 42
0.000000001
 43
0.00000001
 40
0.0
 40
0.0
 40
0.0
 40
0.0
 40
0.123289868727805
 40
0.2421490813339831
 40
0.3634374760537356
 40
0.489745393341361
 40
0.6181148445930266
 40
0.7448937812572669
 40
0.868932266589181
 40
1.0
 40
1.0
 40
1.0
 40
1.0
 10
172.3900641025641
 20
8.051612580128209
 30
0.0
 10
172.3910266597095
 20
8.068059850839248
 30
0.0
 10
172.3929171826767
 20
8.10036332828007
 30
0.0
 10
172.4084947451737
 20
8.146713822425017
 30
0.0
 10
172.4328604279291
 20
8.18933275620358
 30
0.0
 10
172.4668606534202
 20
8.226548744968573
 30
0.0
 10
172.5073495780941
 20
8.257614246509087
 30
0.0
 10
172.5525586254952
 20
8.28066563687177
 30
0.0
 10
172.6018751742172
 20
8.294791066157673
 30
0.0
 10
172.6358961845782
 20
8.296326509160998
 30
0.0
 10
172.653375400641
 20
8.297115384615388
 30
0.0
  0
SPLINE
  5
10C
330
1F
100
AcDbEntity
  8
0
  6
Continuous
 62
     7
370
    15
100
AcDbSpline
210
0.0
220
0.0
230
1.0
 70
     8
 71
     3
 72
    15
 73
    11
 74
     0
 42
0.000000001
 43
0.00000001
 40
0.0
 40
0.0
 40
0.0
 40
0.0
 40
0.1318667517023361
 40
0.256661403453346
 40
0.3842132129424814
 40
0.5133652331526025
 40
0.6404431518253856
 40
0.7610850047778733
 40
0.8791455246531564
 40
1.0
 40
1.0
 40
1.0
 40
1.0
 10
172.653375400641
 20
7.80865384615384
 30
0.0
 10
172.635896322454
 20
7.809442806640657
 30
0.0
 10
172.6018755804503
 20
7.810978415148496
 30
0.0
 10
172.5525570877543
 20
7.825102645523593
 30
0.0
 10
172.5073555295187
 20
7.848158654693335
 30
0.0
 10
172.4668382907502
 20
7.879206694029694
 30
0.0
 10
172.4330651869803
 20
7.916349565088049
 30
0.0
 10
172.4084831346564
 20
7.958375038801299
 30
0.0
 10
172.3929937049458
 20
8.003921914776182
 30
0.0
 10
172.3910482204167
 20
8.0355922370709
 30
0.0
 10
172.3900641025641
 20
8.051612580128209
 30
0.0
  0
SPLINE
  5
112
330
1F
100
AcDbEntity
  8
0
  6
Continuous
 62
     7
370
    15
100
AcDbSpline
210
0.0
220
0.0
230
1.0
 70
     8
 71
     3
 72
    15
 73
    11
 74
     0
 42
0.000000001
 43
0.00000001
 40
0.0
 40
0.0
 40
0.0
 40
0.0
 40
0.0769954547170535
 40
0.1676150771831752
 40
0.2710523936342355
 40
0.3894595025720755
 40
0.5208428024655765
 40
0.6663987586080743
 40
0.8260936125153153
 40
1.0
 40
1.0
 40
1.0
 40
1.0
 10
173.8179236778846
 20
6.461568509615379
 30
0.0
 10
173.8143498538195
 20
6.445915575416489
 30
0.0
 10
173.8065698257814
 20
6.411839956491569
 30
0.0
 10
173.7981667983379
 20
6.355919661764132
 30
0.0
 10
173.7905399263664
 20
6.291231327306954
 30
0.0
 10
173.7841563996196
 20
6.217850439692016
 30
0.0
 10
173.7802507718212
 20
6.135520081549675
 30
0.0
 10
173.7759922833194
 20
6.04459185725606
 30
0.0
 10
173.7744419207807
 20
5.944703192818757
 30
0.0
 10
173.7741767139219
 20
5.875160085847001
 30
0.0
 10
173.7740384615384
 20
5.838907251602563
 30
0.0
  0
SPLINE
  5
113
330
1F
100
AcDbEntity
  8
0
  6
Continuous
 62
     7
370
    15
100
AcDbSpline
210
0.0
220
0.0
230
1.0
 70
     8
 71
     3
 72
    23
 73
    19
 74
     0
 42
0.000000001
 43
0.00000001
 40
0.0
 40
0.0
 40
0.0
 40
0.0
 40
0.0639861098164609
 40
0.1266268580894718
 40
0.1889843719814867
 40
0.2502301939603864
 40
0.312351162962327
 40
0.3745736184579436
 40
0.4381475308782137
 40
0.5029204126073689
 40
0.5679740951402685
 40
0.6307713337491978
 40
0.6929346089254531
 40
0.7543975343123358
 40
0.8152183520172952
 40
0.8761169254810911
 40
0.9380146047939499
 40
1.0
 40
1.0
 40
1.0
 40
1.0
 10
174.6072215544872
 20
7.075961538461545
 30
0.0
 10
174.5843001557885
 20
7.075529734231048
 30
0.0
 10
174.538939299994
 20
7.074675204815612
 30
0.0
 10
174.471674682622
 20
7.066101527323315
 30
0.0
 10
174.4064291826677
 20
7.052078499744818
 30
0.0
 10
174.3425479930796
 20
7.033147664299147
 30
0.0
 10
174.2813087801914
 20
7.007146891504293
 30
0.0
 10
174.2207440303351
 20
6.977638105657408
 30
0.0
 10
174.1631343228744
 20
6.940855084785008
 30
0.0
 10
174.1072512411936
 20
6.899860735336078
 30
0.0
 10
174.0552603371083
 20
6.854431740235395
 30
0.0
 10
174.0068839158357
 20
6.806494220311015
 30
0.0
 10
173.9637601403222
 20
6.755444208295963
 30
0.0
 10
173.924690699172
 20
6.702104255894625
 30
0.0
 10
173.890964703108
 20
6.645741802854363
 30
0.0
 10
173.8615251160801
 20
6.586900610548618
 30
0.0
 10
173.8365463072332
 20
6.525503232686955
 30
0.0
 10
173.8241341504928
 20
6.482890141427625
 30
0.0
 10
173.8179236778846
 20
6.461568509615379
 30
0.0
  0
SPLINE
  5
114
330
1F
100
AcDbEntity
  8
0
  6
Continuous
 62
     7
370
    15
100
AcDbSpline
210
0.0
220
0.0
230
1.0
 70
     8
 71
     3
 72
    15
 73
    11
 74
     0
 42
0.000000001
 43
0.00000001
 40
0.0
 40
0.0
 40
0.0
 40
0.0
 40
0.1355195283706031
 40
0.2608331631936759
 40
0.3784760291245067
 40
0.4931776464746733
 40
0.6092809649289375
 40
0.7299810378566298
 40
0.8592613089300506
 40
1.0
 40
1.0
 40
1.0
 40
1.0
 10
175.2057141426282
 20
6.619300881410259
 30
0.0
 10
175.1960752676189
 20
6.655324599184192
 30
0.0
 10
175.1775234154354
 20
6.724659110379339
 30
0.0
 10
175.1316818736005
 20
6.818706558828796
 30
0.0
 10
175.0737932953147
 20
6.898714914931076
 30
0.0
 10
175.0031288176764
 20
6.964189512404642
 30
0.0
 10
174.9203710133455
 20
7.015144485701327
 30
0.0
 10
174.8257495338347
 20
7.050499430346593
 30
0.0
 10
174.7201774812248
 20
7.072612188834176
 30
0.0
 10
174.6459238626566
 20
7.074813944305217
 30
0.0
 10
174.6072215544872
 20
7.075961538461545
 30
0.0
  0
SPLINE
  5
115
330
1F
100
AcDbEntity
  8
0
  6
Continuous
 62
     7
370
    15
100
AcDbSpline
210
0.0
220
0.0
230
1.0
 70
     8
 71
     3
 72
    15
 73
    11
 74
     0
 42
0.000000001
 43
0.00000001
 40
0.0
 40
0.0
 40
0.0
 40
0.0
 40
0.1788500194111603
 40
0.3421096489422994
 40
0.4898256633683922
 40
0.6232544282245632
 40
0.7400796760857921
 40
0.8414826730699866
 40
0.9289076721840666
 40
0.9999999999999999
 40
0.9999999999999999
 40
0.9999999999999999
 40
0.9999999999999999
 10
175.2394230769231
 20
6.09140625
 30
0.0
 10
175.2392478096487
 20
6.12299518218537
 30
0.0
 10
175.2389125531813
 20
6.183419433387474
 30
0.0
 10
175.2378551451176
 20
6.269932761567287
 30
0.0
 10
175.2353062491277
 20
6.348388443404088
 30
0.0
 10
175.2317245652682
 20
6.418598912407577
 30
0.0
 10
175.2264821590023
 20
6.480496749861481
 30
0.0
 10
175.221018771992
 20
6.5342080223314
 30
0.0
 10
175.2143376858976
 20
6.579664535824023
 30
0.0
 10
175.2083841861232
 20
6.607028574843008
 30
0.0
 10
175.2057141426282
 20
6.619300881410259
 30
0.0
  0
SPLINE
  5
119
330
1F
100
AcDbEntity
  8
0
  6
Continuous
 62
     7
370
    15
100
AcDbSpline
210
0.0
220
0.0
230
1.0
 70
     8
 71
     3
 72
    23
 73
    19
 74
     0
 42
0.000000001
 43
0.00000001
 40
0.0
 40
0.0
 40
0.0
 40
0.0
 40
0.0772404236164749
 40
0.1511781404663758
 40
0.2234879838003895
 40
0.2955426441988721
 40
0.3669762546197815
 40
0.4371305254863775
 40
0.5070436156432686
 40
0.5785597335236745
 40
0.6166135446965495
 40
0.6587562369775272
 40
0.7044912261144022
 40
0.7548031149051482
 40
0.809331625318564
 40
0.8682744554728196
 40
0.9320728834092934
 40
1.0
 40
1.0
 40
1.0
 40
1.0
 10
174.6568309294872
 20
7.360897435897434
 30
0.0
 10
174.69976657615
 20
7.359314294318631
 30
0.0
 10
174.7838019933358
 20
7.356215704373476
 30
0.0
 10
174.9061556633038
 20
7.331707706008453
 30
0.0
 10
175.0204315275768
 20
7.289847367431087
 30
0.0
 10
175.1262221246131
 20
7.23250498927977
 30
0.0
 10
175.2215875253064
 20
7.161197688406299
 30
0.0
 10
175.3053393548597
 20
7.078123557810498
 30
0.0
 10
175.3746117292666
 20
6.98256868230393
 30
0.0
 10
175.4210550514163
 20
6.893919819146429
 30
0.0
 10
175.4516490318217
 20
6.815280698627538
 30
0.0
 10
175.4709097951379
 20
6.747928289609295
 30
0.0
 10
175.4872664711759
 20
6.672891109620202
 30
0.0
 10
175.5014466997349
 20
6.590395910978001
 30
0.0
 10
175.5110416512146
 20
6.49986469553479
 30
0.0
 10
175.5186093013895
 20
6.401668574886791
 30
0.0
 10
175.5240328312081
 20
6.295839356508654
 30
0.0
 10
175.5242480118318
 20
6.222645058786822
 30
0.0
 10
175.5243589743589
 20
6.184900841346153
 30
0.0
  0
SPLINE
  5
11A
330
1F
100
AcDbEntity
  8
0
  6
Continuous
 62
     7
370
    15
100
AcDbSpline
210
0.0
220
0.0
230
1.0
 70
     8
 71
     3
 72
    15
 73
    11
 74
     0
 42
0.000000001
 43
0.00000001
 40
0.0
 40
0.0
 40
0.0
 40
0.0
 40
0.1409759662687777
 40
0.2735687809631717
 40
0.3989883138042586
 40
0.519929781392423
 40
0.6381100215247323
 40
0.756588900740586
 40
0.8768597544106109
 40
1.0
 40
1.0
 40
1.0
 40
1.0
 10
173.7740384615384
 20
6.901692708333337
 30
0.0
 10
173.804461887694
 20
6.939650035478889
 30
0.0
 10
173.863499607572
 20
7.013307553073292
 30
0.0
 10
173.961819681329
 20
7.110118359995671
 30
0.0
 10
174.0657273623358
 20
7.189897242714849
 30
0.0
 10
174.1745863226421
 20
7.253491398650072
 30
0.0
 10
174.288544338947
 20
7.301430838084919
 30
0.0
 10
174.4069067695564
 20
7.336052789855496
 30
0.0
 10
174.5303822529361
 20
7.356812598602158
 30
0.0
 10
174.6143514206713
 20
7.359525164659583
 30
0.0
 10
174.6568309294872
 20
7.360897435897434
 30
0.0
  0
SPLINE
  5
11F
330
1F
100
AcDbEntity
  8
0
  6
Continuous
 62
     7
370
    15
100
AcDbSpline
210
0.0
220
0.0
230
1.0
 70
     8
 71
     3
 72
    15
 73
    11
 74
     0
 42
0.000000001
 43
0.00000001
 40
0.0
 40
0.0
 40
0.0
 40
0.0
 40
0.1298621417207362
 40
0.2546535308972849
 40
0.3760145541937065
 40
0.4952552518175966
 40
0.6147977192994417
 40
0.7381055541683285
 40
0.8651963000723482
 40
1.0
 40
1.0
 40
1.0
 40
1.0
 10
168.9682892628205
 20
7.360897435897434
 30
0.0
 10
169.0156419921133
 20
7.359593189855892
 30
0.0
 10
169.1084984593813
 20
7.357035624924054
 30
0.0
 10
169.2443231535018
 20
7.335751579427549
 30
0.0
 10
169.3728149298858
 20
7.299793827079945
 30
0.0
 10
169.4949656635131
 20
7.250882953872898
 30
0.0
 10
169.6103367144706
 20
7.185887321062872
 30
0.0
 10
169.7178358502428
 20
7.103899784991444
 30
0.0
 10
169.8185881101006
 20
7.00543742252567
 30
0.0
 10
169.8769902318201
 20
6.929808519328589
 30
0.0
 10
169.9070512820512
 20
6.890880408653849
 30
0.0
  0
SPLINE
  5
120
330
1F
100
AcDbEntity
  8
0
  6
Continuous
 62
     7
370
    15
100
AcDbSpline
210
0.0
220
0.0
230
1.0
 70
     8
 71
     3
 72
    23
 73
    19
 74
     0
 42
0.000000001
 43
0.00000001
 40
0.0
 40
0.0
 40
0.0
 40
0.0
 40
0.0637745323056322
 40
0.1260788099895052
 40
0.1869040927472074
 40
0.2475739349176179
 40
0.3080033561644465
 40
0.3691318984609757
 40
0.4320332277442043
 40
0.496790794437088
 40
0.5616108232295588
 40
0.6249138657484558
 40
0.6867263492419242
 40
0.7480788332577681
 40
0.8095822911398951
 40
0.8716307425688212
 40
0.9348858208285478
 40
0.9999999999999999
 40
0.9999999999999999
 40
0.9999999999999999
 40
0.9999999999999999
 10
167.7496794871794
 20
6.166456330128203
 30
0.0
 10
167.7508161112215
 20
6.206791261223324
 30
0.0
 10
167.7530631556362
 20
6.286531244091578
 30
0.0
 10
167.7698028622056
 20
6.403805491550188
 30
0.0
 10
167.7979524200608
 20
6.516761342358193
 30
0.0
 10
167.8374565390147
 20
6.625035140854038
 30
0.0
 10
167.8881131695885
 20
6.728757900631669
 30
0.0
 10
167.9497336485288
 20
6.828002980466666
 30
0.0
 10
168.0223224259342
 20
6.923043791021502
 30
0.0
 10
168.1060085380133
 20
7.011645546778536
 30
0.0
 10
168.1966636509466
 20
7.093488532580045
 30
0.0
 10
168.2936451425626
 20
7.164616738088575
 30
0.0
 10
168.3945405477608
 20
7.226045593800245
 30
0.0
 10
168.5009148501633
 20
7.274716961592445
 30
0.0
 10
168.6111935809589
 20
7.314095220714911
 30
0.0
 10
168.7263584924581
 20
7.341339413206097
 30
0.0
 10
168.8459304245424
 20
7.357393411759533
 30
0.0
 10
168.927111085201
 20
7.359718204953722
 30
0.0
 10
168.9682892628205
 20
7.360897435897434
 30
0.0
  0
SPLINE
  5
121
330
1F
100
AcDbEntity
  8
0
  6
Continuous
 62
     7
370
    15
100
AcDbSpline
210
0.0
220
0.0
230
1.0
 70
     8
 71
     3
 72
    23
 73
    19
 74
     0
 42
0.000000001
 43
0.00000001
 40
0.0
 40
0.0
 40
0.0
 40
0.0
 40
0.064619991340761
 40
0.1274334841444646
 40
0.1890041265579311
 40
0.2499300706860425
 40
0.3106684537406677
 40
0.3723289611368265
 40
0.4349391099970016
 40
0.4995755441940359
 40
0.5641912077719244
 40
0.6267352169294734
 40
0.6881093335614032
 40
0.7492936065367489
 40
0.810330527810947
 40
0.8719011702244153
 40
0.935045914684531
 40
0.9999999999999999
 40
0.9999999999999999
 40
0.9999999999999999
 40
0.9999999999999999
 10
168.9593850160256
 20
4.959294871794875
 30
0.0
 10
168.9184112293347
 20
4.960407366639025
 30
0.0
 10
168.8376091077577
 20
4.962601255730351
 30
0.0
 10
168.7187470163531
 20
4.97962134544122
 30
0.0
 10
168.6043633329211
 20
5.006954123645102
 30
0.0
 10
168.4943499705778
 20
5.044964216255485
 30
0.0
 10
168.3894188100769
 20
5.095383961598713
 30
0.0
 10
168.288671436667
 20
5.155746379464837
 30
0.0
 10
168.1926297803354
 20
5.227629132466591
 30
0.0
 10
168.1027577414182
 20
5.309805415329549
 30
0.0
 10
168.0199972839343
 20
5.399063725131825
 30
0.0
 10
167.9473702723413
 20
5.494264328368567
 30
0.0
 10
167.8868156927589
 20
5.594995561185464
 30
0.0
 10
167.8361789052601
 20
5.699982065070247
 30
0.0
 10
167.7971750785174
 20
5.810032027790387
 30
0.0
 10
167.7699847102977
 20
5.924764887278624
 30
0.0
 10
167.7529844479336
 20
6.044044986846908
 30
0.0
 10
167.7507914657408
 20
6.125270125655072
 30
0.0
 10
167.7496794871794
 20
6.166456330128203
 30
0.0
  0
SPLINE
  5
122
330
1F
100
AcDbEntity
  8
0
  6
Continuous
 62
     7
370
    15
100
AcDbSpline
210
0.0
220
0.0
230
1.0
 70
     8
 71
     3
 72
    15
 73
    11
 74
     0
 42
0.000000001
 43
0.00000001
 40
0.0
 40
0.0
 40
0.0
 40
0.0
 40
0.1342983790141795
 40
0.2620849753822926
 40
0.3862699121344926
 40
0.5071645966228006
 40
0.6273002357254971
 40
0.7481449416029825
 40
0.8723701771613424
 40
1.0
 40
1.0
 40
1.0
 40
1.0
 10
169.9070512820512
 20
5.401327123397443
 30
0.0
 10
169.8749213791261
 20
5.365005491735686
 30
0.0
 10
169.8122194695498
 20
5.294123370821121
 30
0.0
 10
169.7074978839615
 20
5.201520257204481
 30
0.0
 10
169.5964924654356
 20
5.12497706552173
 30
0.0
 10
169.4797419812671
 20
5.063155356279242
 30
0.0
 10
169.3573518605187
 20
5.016716848030345
 30
0.0
 10
169.2295934099181
 20
4.983709403680509
 30
0.0
 10
169.0964145144187
 20
4.96248785320283
 30
0.0
 10
169.0054713068592
 20
4.960368747650213
 30
0.0
 10
168.9593850160256
 20
4.959294871794875
 30
0.0
  0
SPLINE
  5
128
330
1F
100
AcDbEntity
  8
0
  6
Continuous
 62
     7
370
    15
100
AcDbSpline
210
0.0
220
0.0
230
1.0
 70
     8
 71
     3
 72
    15
 73
    11
 74
     0
 42
0.000000001
 43
0.00000001
 40
0.0
 40
0.0
 40
0.0
 40
0.0
 40
0.1243285095938545
 40
0.2471560163611905
 40
0.3687797492913397
 40
0.4907338624016511
 40
0.6136137718478472
 40
0.7389575757222177
 40
0.8673105751912629
 40
1.0
 40
1.0
 40
1.0
 40
1.0
 10
164.570227363782
 20
5.47383313301282
 30
0.0
 10
164.5380821728929
 20
5.513331211530498
 30
0.0
 10
164.4741798760563
 20
5.59185051311499
 30
0.0
 10
164.3924230059777
 20
5.719109938970873
 30
0.0
 10
164.3224391523236
 20
5.851977528451083
 30
0.0
 10
164.2658552813319
 20
5.991151320985696
 30
0.0
 10
164.221620516256
 20
6.136319022268133
 30
0.0
 10
164.1909761464336
 20
6.287553810340684
 30
0.0
 10
164.1710629052288
 20
6.4447144436241
 30
0.0
 10
164.1687857146916
 20
6.551609244765583
 30
0.0
 10
164.1676282051282
 20
6.605944511217945
 30
0.0
  0
SPLINE
  5
129
330
1F
100
AcDbEntity
  8
0
  6
Continuous
 62
     7
370
    15
100
AcDbSpline
210
0.0
220
0.0
230
1.0
 70
     8
 71
     3
 72
    23
 73
    19
 74
     0
 42
0.000000001
 43
0.00000001
 40
0.0
 40
0.0
 40
0.0
 40
0.0
 40
0.0696628008990818
 40
0.1377495622582694
 40
0.2039167435177793
 40
0.2687798623293398
 40
0.3324137064772213
 40
0.394753540447139
 40
0.4561800316591765
 40
0.516995649196724
 40
0.5773959379659587
 40
0.6371983435092748
 40
0.6969991842614528
 40
0.7567561942255617
 40
0.8165539052726051
 40
0.876947996597868
 40
0.9381317879205976
 40
1.0
 40
1.0
 40
1.0
 40
1.0
 10
165.8797876602563
 20
4.918589743589746
 30
0.0
 10
165.8456394765683
 20
4.918827408265352
 30
0.0
 10
165.7781156719805
 20
4.919297360730754
 30
0.0
 10
165.6784218044466
 20
4.926910255453554
 30
0.0
 10
165.5813669704338
 20
4.93729680250761
 30
0.0
 10
165.4872285598261
 20
4.952936064258492
 30
0.0
 10
165.3954928538911
 20
4.971391287021676
 30
0.0
 10
165.3069914665315
 20
4.996130212674546
 30
0.0
 10
165.2208535257063
 20
5.023842670943898
 30
0.0
 10
165.1374251023606
 20
5.056413623205206
 30
0.0
 10
165.0566352318309
 20
5.093167588792677
 30
0.0
 10
164.9787444886614
 20
5.134707074367265
 30
0.0
 10
164.9037886964137
 20
5.180682765881434
 30
0.0
 10
164.8310309217807
 20
5.230081239622875
 30
0.0
 10
164.7615459708756
 20
5.284489220605357
 30
0.0
 10
164.6947317014532
 20
5.343151096190796
 30
0.0
 10
164.6302134551566
 20
5.405869148800951
 30
0.0
 10
164.5902967337711
 20
5.451094622904384
 30
0.0
 10
164.570227363782
 20
5.47383313301282
 30
0.0
  0
SPLINE
  5
12A
330
1F
100
AcDbEntity
  8
0
  6
Continuous
 62
     7
370
    15
100
AcDbSpline
210
0.0
220
0.0
230
1.0
 70
     8
 71
     3
 72
    23
 73
    19
 74
     0
 42
0.000000001
 43
0.00000001
 40
0.0
 40
0.0
 40
0.0
 40
0.0
 40
0.0616742388774242
 40
0.1230530616347959
 40
0.1834750007317033
 40
0.2437265005106047
 40
0.3042789165122448
 40
0.3648629209606792
 40
0.4259462039686134
 40
0.4873912299654077
 40
0.549220384075476
 40
0.6111435886925968
 40
0.6735285303101505
 40
0.7369614566573004
 40
0.8007852828728471
 40
0.8660125956416076
 40
0.9321007477905875
 40
1.0
 40
1.0
 40
1.0
 40
1.0
 10
167.2612179487179
 20
5.584500200320516
 30
0.0
 10
167.2411536633257
 20
5.558611747504369
 30
0.0
 10
167.2011211993349
 20
5.506958846098545
 30
0.0
 10
167.1362985696402
 20
5.434140937991688
 30
0.0
 10
167.0680113070026
 20
5.365647991503228
 30
0.0
 10
166.9957521986393
 20
5.302032220818279
 30
0.0
 10
166.9203524876972
 20
5.242020669876737
 30
0.0
 10
166.8404583186417
 20
5.187318294362364
 30
0.0
 10
166.7571199820119
 20
5.137161563620484
 30
0.0
 10
166.6706198475761
 20
5.091235710670245
 30
0.0
 10
166.5810498202507
 20
5.050489350869464
 30
0.0
 10
166.4885172256962
 20
5.015606290086697
 30
0.0
 10
166.3934209179175
 20
4.985557283153627
 30
0.0
 10
166.2957565495723
 20
4.960835883411244
 30
0.0
 10
166.1953215415936
 20
4.941539971611758
 30
0.0
 10
166.0924783258091
 20
4.92864069514544
 30
0.0
 10
165.9870049390032
 20
4.919803387050975
 30
0.0
 10
165.9158473641249
 20
4.918997920558277
 30
0.0
 10
165.8797876602563
 20
4.918589743589746
 30
0.0
  0
SPLINE
  5
12C
330
1F
100
AcDbEntity
  8
0
  6
Continuous
 62
     7
370
    15
100
AcDbSpline
210
0.0
220
0.0
230
1.0
 70
     8
 71
     3
 72
    15
 73
    11
 74
     0
 42
0.000000001
 43
0.00000001
 40
0.0
 40
0.0
 40
0.0
 40
0.0
 40
0.1285151895116558
 40
0.2529486363526455
 40
0.3747547340060052
 40
0.4959397538670401
 40
0.6171806414298923
 40
0.7409094692781435
 40
0.8678111481861992
 40
0.9999999999999999
 40
0.9999999999999999
 40
0.9999999999999999
 40
0.9999999999999999
 10
165.8778796073717
 20
5.244230769230765
 30
0.0
 10
165.9333084752445
 20
5.245762733719086
 30
0.0
 10
166.0424057469075
 20
5.248778006308533
 30
0.0
 10
166.2023967422315
 20
5.274322468012849
 30
0.0
 10
166.3555549010519
 20
5.315740722048893
 30
0.0
 10
166.5018884617001
 20
5.373705265867029
 30
0.0
 10
166.6409848907574
 20
5.449057348464501
 30
0.0
 10
166.7730618611806
 20
5.540404708684068
 30
0.0
 10
166.8982308572806
 20
5.648616267688366
 30
0.0
 10
166.9734976633093
 20
5.731241676893095
 30
0.0
 10
167.0118990384615
 20
5.773397435897428
 30
0.0
  0
SPLINE
  5
12D
330
1F
100
AcDbEntity
  8
0
  6
Continuous
 62
     7
370
    15
100
AcDbSpline
210
0.0
220
0.0
230
1.0
 70
     8
 71
     3
 72
    23
 73
    19
 74
     0
 42
0.000000001
 43
0.00000001
 40
0.0
 40
0.0
 40
0.0
 40
0.0
 40
0.0643232165798417
 40
0.1262901037035564
 40
0.1867264692161323
 40
0.2461464323353438
 40
0.3055756426461342
 40
0.3654293856180513
 40
0.4263263089482588
 40
0.4888399064006335
 40
0.551724971814039
 40
0.613918596466151
 40
0.6754837657683901
 40
0.737333897099283
 40
0.800229044394516
 40
0.8645022981233189
 40
0.9310407391556881
 40
1.0
 40
1.0
 40
1.0
 40
1.0
 10
164.452564102564
 20
6.584319911858969
 30
0.0
 10
164.4537087526785
 20
6.537392214500503
 30
0.0
 10
164.4559561213482
 20
6.445255905387095
 30
0.0
 10
164.4759571101212
 20
6.310299708681827
 30
0.0
 10
164.5063510143615
 20
6.181013097466853
 30
0.0
 10
164.5519037162962
 20
6.058204240513384
 30
0.0
 10
164.6080731407332
 20
5.940358801417897
 30
0.0
 10
164.6790485525986
 20
5.829470698684947
 30
0.0
 10
164.7612506972077
 20
5.72386424373518
 30
0.0
 10
164.8558424920044
 20
5.626035283991943
 30
0.0
 10
164.9596249107947
 20
5.536669261757249
 30
0.0
 10
165.0709748020264
 20
5.457974091386264
 30
0.0
 10
165.1896148345161
 20
5.392374162291769
 30
0.0
 10
165.3142350633284
 20
5.337785982237691
 30
0.0
 10
165.4457944666688
 20
5.295824522150133
 30
0.0
 10
165.5840564660014
 20
5.266284210115046
 30
0.0
 10
165.7287203474068
 20
5.247014517766574
 30
0.0
 10
165.8275711601642
 20
5.245169672161001
 30
0.0
 10
165.8778796073717
 20
5.244230769230765
 30
0.0
  0
SPLINE
  5
12E
330
1F
100
AcDbEntity
  8
0
  6
Continuous
 62
     7
370
    15
100
AcDbSpline
210
0.0
220
0.0
230
1.0
 70
     8
 71
     3
 72
    31
 73
    27
 74
     0
 42
0.000000001
 43
0.00000001
 40
0.0
 40
0.0
 40
0.0
 40
0.0
 40
0.0439549089061966
 40
0.0875018747976114
 40
0.1304626267314922
 40
0.1727520205665185
 40
0.2154030673796049
 40
0.2576498297432459
 40
0.3001527489572958
 40
0.3431214895020865
 40
0.3859251632064358
 40
0.4276857274028032
 40
0.4688179504865863
 40
0.5094918001549932
 40
0.5498830310733527
 40
0.5899800229668852
 40
0.6304052300068387
 40
0.6708686260826415
 40
0.711383943838174
 40
0.7516272580635832
 40
0.7917755768651897
 40
0.8324589188037428
 40
0.8733190450172867
 40
0.9145429556263481
 40
0.9569235582098847
 40
1.0
 40
1.0
 40
1.0
 40
1.0
 10
165.8581630608974
 20
7.930769230769227
 30
0.0
 10
165.8263374964957
 20
7.930402779063872
 30
0.0
 10
165.7629817389493
 20
7.929673276670643
 30
0.0
 10
165.6689577665595
 20
7.920049284520461
 30
0.0
 10
165.5766894987475
 20
7.906522686837169
 30
0.0
 10
165.486236954392
 20
7.886451857913049
 30
0.0
 10
165.3977152705742
 20
7.861076696321301
 30
0.0
 10
165.3105457344148
 20
7.83075507083339
 30
0.0
 10
165.2259904045987
 20
7.793240323246145
 30
0.0
 10
165.1428795742187
 20
7.751776401713817
 30
0.0
 10
165.0632512899587
 20
7.704942933982384
 30
0.0
 10
164.9879084966178
 20
7.653858679061293
 30
0.0
 10
164.9171259828608
 20
7.599095284433768
 30
0.0
 10
164.85084775614
 20
7.540447495076763
 30
0.0
 10
164.7890060601499
 20
7.478179430931112
 30
0.0
 10
164.7320489996337
 20
7.411627492489581
 30
0.0
 10
164.6801736631788
 20
7.341004449370344
 30
0.0
 10
164.6323517904427
 20
7.267241572513863
 30
0.0
 10
164.5895230966137
 20
7.190553718673623
 30
0.0
 10
164.5536638488805
 20
7.110657047633001
 30
0.0
 10
164.5219092023084
 20
7.028919754169097
 30
0.0
 10
164.4967820321936
 20
6.944418343988776
 30
0.0
 10
164.4768933633538
 20
6.857747406402395
 30
0.0
 10
164.46317041167
 20
6.768674334476351
 30
0.0
 10
164.4536558699437
 20
6.677385210841713
 30
0.0
 10
164.4529299951838
 20
6.615509620112911
 30
0.0
 10
164.4525641025641
 20
6.584319911858969
 30
0.0
  0
SPLINE
  5
12F
330
1F
100
AcDbEntity
  8
0
  6
Continuous
 62
     7
370
    15
100
AcDbSpline
210
0.0
220
0.0
230
1.0
 70
     8
 71
     3
 72
    19
 73
    15
 74
     0
 42
0.000000001
 43
0.00000001
 40
0.0
 40
0.0
 40
0.0
 40
0.0
 40
0.0631632593634664
 40
0.1254749410306429
 40
0.187121219816036
 40
0.2482943461142971
 40
0.3092948562551239
 40
0.3698500660670965
 40
0.4309733755473781
 40
0.4924559896728182
 40
0.6161479662918499
 40
0.7408436984673723
 40
0.8681826486700481
 40
1.0
 40
1.0
 40
1.0
 40
1.0
 10
167.0118990384615
 20
7.401602564102563
 30
0.0
 10
166.9941136968812
 20
7.422798836735092
 30
0.0
 10
166.95878279869
 20
7.464905610284108
 30
0.0
 10
166.9019419506862
 20
7.524032768486316
 30
0.0
 10
166.8427040317733
 20
7.579427684205498
 30
0.0
 10
166.7810916860987
 20
7.631354246440305
 30
0.0
 10
166.7159959134213
 20
7.677996598213971
 30
0.0
 10
166.6489936174886
 20
7.721785384455046
 30
0.0
 10
166.5789639621941
 20
7.761035403874351
 30
0.0
 10
166.4821248886228
 20
7.808626826993792
 30
0.0
 10
166.35544434054
 20
7.858289410469177
 30
0.0
 10
166.1959733079522
 20
7.899930198862926
 30
0.0
 10
166.0295025257554
 20
7.926437979662262
 30
0.0
 10
165.9159304175224
 20
7.929308942985935
 30
0.0
 10
165.8581630608974
 20
7.930769230769227
 30
0.0
  0
SPLINE
  5
131
330
1F
100
AcDbEntity
  8
0
  6
Continuous
 62
     7
370
    15
100
AcDbSpline
210
0.0
220
0.0
230
1.0
 70
     8
 71
     3
 72
    23
 73
    19
 74
     0
 42
0.000000001
 43
0.00000001
 40
0.0
 40
0.0
 40
0.0
 40
0.0
 40
0.0685475367089083
 40
0.1356829456230472
 40
0.2012149895263287
 40
0.2656822347547037
 40
0.3292668348172622
 40
0.3923954278443331
 40
0.4550697616521555
 40
0.517126850064516
 40
0.5787900352866512
 40
0.6397398633435522
 40
0.7001915036663092
 40
0.7598062425966695
 40
0.819628319275013
 40
0.8793547910462807
 40
0.9395116077646719
 40
1.0
 40
1.0
 40
1.0
 40
1.0
 10
165.8759715544871
 20
8.256410256410247
 30
0.0
 10
165.9124518254671
 20
8.255972888194254
 30
0.0
 10
165.9846608480131
 20
8.255107161857206
 30
0.0
 10
166.0914793255586
 20
8.24666516151036
 30
0.0
 10
166.1954762935714
 20
8.23259210443289
 30
0.0
 10
166.2967233987025
 20
8.213436812531006
 30
0.0
 10
166.3957132005438
 20
8.18966302805503
 30
0.0
 10
166.4916891333407
 20
8.158692900296415
 30
0.0
 10
166.5852143707108
 20
8.123281189745827
 30
0.0
 10
166.6756990659851
 20
8.082497438502173
 30
0.0
 10
166.7627090793267
 20
8.036716894511658
 30
0.0
 10
166.846217311119
 20
7.986447007437544
 30
0.0
 10
166.9255604329467
 20
7.931750098158497
 30
0.0
 10
167.001296745457
 20
7.873091360465462
 30
0.0
 10
167.0721593083617
 20
7.809229810247495
 30
0.0
 10
167.1401600781757
 20
7.741921991042802
 30
0.0
 10
167.2029897705082
 20
7.669229164842958
 30
0.0
 10
167.2417730259671
 20
7.618061831939832
 30
0.0
 10
167.2612179487179
 20
7.592407852564098
 30
0.0
  0
SPLINE
  5
132
330
1F
100
AcDbEntity
  8
0
  6
Continuous
 62
     7
370
    15
100
AcDbSpline
210
0.0
220
0.0
230
1.0
 70
     8
 71
     3
 72
    23
 73
    19
 74
     0
 42
0.000000001
 43
0.00000001
 40
0.0
 40
0.0
 40
0.0
 40
0.0
 40
0.064557845929719
 40
0.1270135315497589
 40
0.1879548102020908
 40
0.2480139127896339
 40
0.3077476818488365
 40
0.3682345146974886
 40
0.4294698439426712
 40
0.4927434367465846
 40
0.5562577687060836
 40
0.6182167855431454
 40
0.6796554755875571
 40
0.7412455456206319
 40
0.8034152647056991
 40
0.8668154615439944
 40
0.9323283119492659
 40
1.0
 40
1.0
 40
1.0
 40
1.0
 10
164.1676282051282
 20
6.605944511217945
 30
0.0
 10
164.1690389878549
 20
6.663054101216106
 30
0.0
 10
164.1718146147953
 20
6.775413654211748
 30
0.0
 10
164.1953965149733
 20
6.940308597552597
 30
0.0
 10
164.2333321372326
 20
7.098288795083757
 30
0.0
 10
164.2872136004581
 20
7.249059334817051
 30
0.0
 10
164.3555263119994
 20
7.393413231884721
 30
0.0
 10
164.4399147402682
 20
7.530247753424257
 30
0.0
 10
164.5393985049976
 20
7.660437993112695
 30
0.0
 10
164.6531973699677
 20
7.782008517504033
 30
0.0
 10
164.7779905955611
 20
7.893169215954218
 30
0.0
 10
164.9116298053032
 20
7.990964843640203
 30
0.0
 10
165.0538534286285
 20
8.072351447439383
 30
0.0
 10
165.2030946226484
 20
8.140383680497354
 30
0.0
 10
165.3604709194981
 20
8.19267544348487
 30
0.0
 10
165.5256465472048
 20
8.229281548551793
 30
0.0
 10
165.6983111341849
 20
8.252066361186195
 30
0.0
 10
165.8161149060239
 20
8.254946728355181
 30
0.0
 10
165.8759715544871
 20
8.256410256410247
 30
0.0
  0
SPLINE
  5
133
330
1F
100
AcDbEntity
  8
0
  6
Continuous
 62
     7
370
    15
100
AcDbSpline
210
0.0
220
0.0
230
1.0
 70
     8
 71
     3
 72
    23
 73
    19
 74
     0
 42
0.000000001
 43
0.00000001
 40
0.0
 40
0.0
 40
0.0
 40
0.0
 40
0.0618417029839075
 40
0.1212623730944424
 40
0.180745948865311
 40
0.2392309018220996
 40
0.298307558788461
 40
0.3581827976158471
 40
0.4203592307800589
 40
0.4847924155141858
 40
0.5499384837666873
 40
0.6137182775404193
 40
0.6766807072496308
 40
0.7391541704483136
 40
0.8021997032403384
 40
0.8667401776162902
 40
0.9320496524002335
 40
1.0
 40
1.0
 40
1.0
 40
1.0
 10
160.8298076923076
 20
5.873888221153839
 30
0.0
 10
160.8303758916506
 20
5.852434310831406
 30
0.0
 10
160.8314900459734
 20
5.810366386561419
 30
0.0
 10
160.8416067932828
 20
5.748372987952041
 30
0.0
 10
160.8570600465335
 20
5.688714821044008
 30
0.0
 10
160.8800474056359
 20
5.631699442147073
 30
0.0
 10
160.9074675113283
 20
5.576457782217714
 30
0.0
 10
160.9436673411284
 20
5.524990773253996
 30
0.0
 10
160.9837782825616
 20
5.474172566812236
 30
0.0
 10
161.0317243507608
 20
5.427906946303699
 30
0.0
 10
161.0831805443199
 20
5.384857008658497
 30
0.0
 10
161.1381544923074
 20
5.347228492967399
 30
0.0
 10
161.1954495987491
 20
5.31503746424189
 30
0.0
 10
161.2558393887744
 20
5.289808825688914
 30
0.0
 10
161.3184670656593
 20
5.269103936906147
 30
0.0
 10
161.3838544254011
 20
5.254533880721987
 30
0.0
 10
161.4520469443471
 20
5.246296546425749
 30
0.0
 10
161.4982404166954
 20
5.244928399367827
 30
0.0
 10
161.5217948717948
 20
5.244230769230765
 30
0.0
  0
SPLINE
  5
134
330
1F
100
AcDbEntity
  8
0
  6
Continuous
 62
     7
370
    15
100
AcDbSpline
210
0.0
220
0.0
230
1.0
 70
     8
 71
     3
 72
    23
 73
    19
 74
     0
 42
0.000000001
 43
0.00000001
 40
0.0
 40
0.0
 40
0.0
 40
0.0
 40
0.0705992894335993
 40
0.1379009210036216
 40
0.2031961978097394
 40
0.2667897246502597
 40
0.3291063872214248
 40
0.3906535452348544
 40
0.4526530569344775
 40
0.5157480403003794
 40
0.5779263408004458
 40
0.638930011618439
 40
0.6983507176418242
 40
0.7572960374442688
 40
0.816393767350153
 40
0.8762669096141286
 40
0.9368171089060847
 40
1.0
 40
1.0
 40
1.0
 40
1.0
 10
161.4969901842948
 20
6.506089743589738
 30
0.0
 10
161.4728037193402
 20
6.505383946820542
 30
0.0
 10
161.425560527237
 20
6.504005320699849
 30
0.0
 10
161.35624808674
 20
6.495999556453621
 30
0.0
 10
161.2906496372124
 20
6.480923689819617
 30
0.0
 10
161.2278960945436
 20
6.461722802967848
 30
0.0
 10
161.1691606783359
 20
6.435322170225813
 30
0.0
 10
161.1140165164735
 20
6.403253038316501
 30
0.0
 10
161.0622503622609
 20
6.365496683854833
 30
0.0
 10
161.0144044260495
 20
6.322588000210905
 30
0.0
 10
160.9710251600102
 20
6.275608856001119
 30
0.0
 10
160.9336679913842
 20
6.225290075170046
 30
0.0
 10
160.9014440998713
 20
6.17284433378118
 30
0.0
 10
160.8752441641707
 20
6.117833429074016
 30
0.0
 10
160.8548424525831
 20
6.060278390160684
 30
0.0
 10
160.8400848250083
 20
6.00044392822148
 30
0.0
 10
160.8318717792577
 20
5.937928807664111
 30
0.0
 10
160.8305054121064
 20
5.895535751616651
 30
0.0
 10
160.8298076923076
 20
5.873888221153839
 30
0.0
  0
SPLINE
  5
135
330
1F
100
AcDbEntity
  8
0
  6
Continuous
 62
     7
370
    15
100
AcDbSpline
210
0.0
220
0.0
230
1.0
 70
     8
 71
     3
 72
    23
 73
    19
 74
     0
 42
0.000000001
 43
0.00000001
 40
0.0
 40
0.0
 40
0.0
 40
0.0
 40
0.0679623714944433
 40
0.1332834028675092
 40
0.1978352977570482
 40
0.2608919865309716
 40
0.323376504483159
 40
0.3863500754690798
 40
0.4496377310516996
 40
0.5147953269783438
 40
0.5792399132410284
 40
0.6418141777582786
 40
0.7013585647860548
 40
0.7607267659857183
 40
0.8192220679243877
 40
0.8787161693846297
 40
0.9381473540533068
 40
1.0
 40
1.0
 40
1.0
 40
1.0
 10
161.5217948717948
 20
5.244230769230765
 30
0.0
 10
161.5453492883059
 20
5.244928454066572
 30
0.0
 10
161.591542684977
 20
5.246296708396131
 30
0.0
 10
161.6597357524718
 20
5.254533265129632
 30
0.0
 10
161.7251210843762
 20
5.269106195753881
 30
0.0
 10
161.7877561314587
 20
5.289800637351752
 30
0.0
 10
161.8481187153541
 20
5.31506784033528
 30
0.0
 10
161.9053637127241
 20
5.347028224670175
 30
0.0
 10
161.9598177690117
 20
5.385088417201783
 30
0.0
 10
162.0113077414581
 20
5.427833377091865
 30
0.0
 10
162.0590542426658
 20
5.474435892791493
 30
0.0
 10
162.1001272027854
 20
5.524537140993019
 30
0.0
 10
162.1352184215113
 20
5.576873746039823
 30
0.0
 10
162.1637337197801
 20
5.631481831860699
 30
0.0
 10
162.1864678911895
 20
5.688749295644266
 30
0.0
 10
162.2019995078556
 20
5.748363752342153
 30
0.0
 10
162.2120953628082
 20
5.810368804467406
 30
0.0
 10
162.2132123878979
 20
5.852435127456729
 30
0.0
 10
162.213782051282
 20
5.873888221153839
 30
0.0
  0
SPLINE
  5
136
330
1F
100
AcDbEntity
  8
0
  6
Continuous
 62
     7
370
    15
100
AcDbSpline
210
0.0
220
0.0
230
1.0
 70
     8
 71
     3
 72
    23
 73
    19
 74
     0
 42
0.000000001
 43
0.00000001
 40
0.0
 40
0.0
 40
0.0
 40
0.0
 40
0.061137914915621
 40
0.1199938438512126
 40
0.1782253215076139
 40
0.2362564202618936
 40
0.2949293769549043
 40
0.3547157488097496
 40
0.4167296639241624
 40
0.4806644084708347
 40
0.5458317702108672
 40
0.6097581054261744
 40
0.6729712284742072
 40
0.7360168691676657
 40
0.7998393981920152
 40
0.8647753566655747
 40
0.9310876232725652
 40
1.0
 40
1.0
 40
1.0
 40
1.0
 10
162.213782051282
 20
5.873888221153839
 30
0.0
 10
162.2132828569223
 20
5.895563992343075
 30
0.0
 10
162.2123031007409
 20
5.938106481844466
 30
0.0
 10
162.2012214902419
 20
6.000415964101446
 30
0.0
 10
162.1858523368115
 20
6.060582401173923
 30
0.0
 10
162.1626448732392
 20
6.118227654939829
 30
0.0
 10
162.1324945790818
 20
6.173124246079547
 30
0.0
 10
162.095770345561
 20
6.225549484053793
 30
0.0
 10
162.0532865139223
 20
6.275905299107556
 30
0.0
 10
162.0042123172912
 20
6.322680132419239
 30
0.0
 10
161.9507904622071
 20
6.365449267405121
 30
0.0
 10
161.8939891811903
 20
6.403204150709024
 30
0.0
 10
161.8345640907638
 20
6.435067522402846
 30
0.0
 10
161.772575442976
 20
6.461653250887601
 30
0.0
 10
161.707312970858
 20
6.480838845278419
 30
0.0
 10
161.6398303060251
 20
6.495945715776094
 30
0.0
 10
161.569264350198
 20
6.503984831855964
 30
0.0
 10
161.5213884269402
 20
6.50537916953349
 30
0.0
 10
161.4969901842948
 20
6.506089743589738
 30
0.0
  0
SPLINE
  5
137
330
1F
100
AcDbEntity
  8
0
  6
Continuous
 62
     7
370
    15
100
AcDbSpline
210
0.0
220
0.0
230
1.0
 70
     8
 71
     3
 72
    19
 73
    15
 74
     0
 42
0.000000001
 43
0.00000001
 40
0.0
 40
0.0
 40
0.0
 40
0.0
 40
0.0855188992526867
 40
0.1693092867993408
 40
0.2522179032131757
 40
0.3367564541858484
 40
0.4205954942561977
 40
0.502741103513888
 40
0.5848035507161479
 40
0.6682684846239445
 40
0.7518231297771595
 40
0.8336286284455304
 40
0.916219799115292
 40
1.0
 40
1.0
 40
1.0
 40
1.0
 10
177.3153846153846
 20
7.075961538461545
 30
0.0
 10
177.2737189054323
 20
7.074545429041707
 30
0.0
 10
177.1912296346668
 20
7.071741832667164
 30
0.0
 10
177.0703180668406
 20
7.047807128592543
 30
0.0
 10
176.9535897057702
 20
7.010300490731217
 30
0.0
 10
176.8432762102025
 20
6.956649689586591
 30
0.0
 10
176.7399461890734
 20
6.891249916592845
 30
0.0
 10
176.6482568876579
 20
6.812019798563898
 30
0.0
 10
176.5680609994878
 20
6.721535748538662
 30
0.0
 10
176.5002221911782
 20
6.620615881612848
 30
0.0
 10
176.4462187373044
 20
6.511738531722627
 30
0.0
 10
176.407988635361
 20
6.396975222900919
 30
0.0
 10
176.383268971386
 20
6.278180336576761
 30
0.0
 10
176.380540601318
 20
6.197106617979467
 30
0.0
 10
176.3791666666666
 20
6.156280048076917
 30
0.0
  0
SPLINE
  5
138
330
1F
100
AcDbEntity
  8
0
  6
Continuous
 62
     7
370
    15
100
AcDbSpline
210
0.0
220
0.0
230
1.0
 70
     8
 71
     3
 72
    23
 73
    19
 74
     0
 42
0.000000001
 43
0.00000001
 40
0.0
 40
0.0
 40
0.0
 40
0.0
 40
0.0649830441815927
 40
0.1278026449472835
 40
0.1890563364713592
 40
0.2483946473749341
 40
0.3076907059547591
 40
0.3669766194961039
 40
0.4273400442259964
 40
0.4887947153913341
 40
0.5506736934059968
 40
0.6120451114224859
 40
0.6733691390064599
 40
0.7349297539342466
 40
0.797809968299312
 40
0.8628916725659053
 40
0.9300953375428044
 40
1.0
 40
1.0
 40
1.0
 40
1.0
 10
176.3791666666666
 20
6.156280048076917
 30
0.0
 10
176.3798250317931
 20
6.125497722270445
 30
0.0
 10
176.3811198434716
 20
6.064957889068662
 30
0.0
 10
176.3935690890027
 20
5.976114227432508
 30
0.0
 10
176.413690393083
 20
5.891495657207119
 30
0.0
 10
176.4422084302339
 20
5.811097060377842
 30
0.0
 10
176.4775440891665
 20
5.734457282165067
 30
0.0
 10
176.5219871685458
 20
5.662104262070949
 30
0.0
 10
176.5742848357262
 20
5.593973564418348
 30
0.0
 10
176.6340277565596
 20
5.530569103091951
 30
0.0
 10
176.6998649029696
 20
5.472819510311922
 30
0.0
 10
176.7712744623435
 20
5.42207571630321
 30
0.0
 10
176.8481595817348
 20
5.380573276609013
 30
0.0
 10
176.928629330991
 20
5.344704088200467
 30
0.0
 10
177.0146362310601
 20
5.318506648002764
 30
0.0
 10
177.1049414734193
 20
5.298514327034182
 30
0.0
 10
177.2001839409463
 20
5.287076382690936
 30
0.0
 10
177.2651097330021
 20
5.285658701832507
 30
0.0
 10
177.2982121394231
 20
5.284935897435894
 30
0.0
  0
SPLINE
  5
139
330
1F
100
AcDbEntity
  8
0
  6
Continuous
 62
     7
370
    15
100
AcDbSpline
210
0.0
220
0.0
230
1.0
 70
     8
 71
     3
 72
    23
 73
    19
 74
     0
 42
0.000000001
 43
0.00000001
 40
0.0
 40
0.0
 40
0.0
 40
0.0
 40
0.0701214992195543
 40
0.137121848674017
 40
0.2014871210766276
 40
0.2637651191668606
 40
0.324560095036719
 40
0.3847388869594518
 40
0.444904604352265
 40
0.5052319196167158
 40
0.5654939949839819
 40
0.6250997441456773
 40
0.6843497139440896
 40
0.7438828254849621
 40
0.8046082057523066
 40
0.8672389137717513
 40
0.9320942880208506
 40
1.0
 40
1.0
 40
1.0
 40
1.0
 10
177.2982121394231
 20
5.284935897435894
 30
0.0
 10
177.3317435486434
 20
5.285632228493584
 30
0.0
 10
177.3973138640547
 20
5.286993896498143
 30
0.0
 10
177.4930817849254
 20
5.298699213045211
 30
0.0
 10
177.5838257708337
 20
5.317587720105196
 30
0.0
 10
177.6694626168337
 20
5.344405607366556
 30
0.0
 10
177.7503156619415
 20
5.378624624005887
 30
0.0
 10
177.825476633762
 20
5.421928555604652
 30
0.0
 10
177.8965571259378
 20
5.471244861815619
 30
0.0
 10
177.9612875832033
 20
5.528768617573246
 30
0.0
 10
178.0198202190699
 20
5.592164291600171
 30
0.0
 10
178.0708295576079
 20
5.661147874934977
 30
0.0
 10
178.1142948077946
 20
5.734681345785322
 30
0.0
 10
178.1502881225826
 20
5.812756415218848
 30
0.0
 10
178.1777665720773
 20
5.895979835499013
 30
0.0
 10
178.1961987216188
 20
5.984143558235705
 30
0.0
 10
178.2090862690153
 20
6.07682519991673
 30
0.0
 10
178.2102845364155
 20
6.140333016019809
 30
0.0
 10
178.2108974358974
 20
6.172816506410259
 30
0.0
  0
SPLINE
  5
13A
330
1F
100
AcDbEntity
  8
0
  6
Continuous
 62
     7
370
    15
100
AcDbSpline
210
0.0
220
0.0
230
1.0
 70
     8
 71
     3
 72
    19
 73
    15
 74
     0
 42
0.000000001
 43
0.00000001
 40
0.0
 40
0.0
 40
0.0
 40
0.0
 40
0.0892427932208486
 40
0.1743490578004782
 40
0.2576131087527778
 40
0.3395273673229359
 40
0.4209973901479367
 40
0.5015790589405751
 40
0.5825417599975105
 40
0.6661326583338252
 40
0.7500491310216124
 40
0.8327429397442774
 40
0.9156474213323863
 40
1.0
 40
1.0
 40
1.0
 40
1.0
 10
178.2108974358974
 20
6.172816506410259
 30
0.0
 10
178.2096822562008
 20
6.21510555964469
 30
0.0
 10
178.2073082220911
 20
6.297723509179884
 30
0.0
 10
178.1849043719246
 20
6.418107505856155
 30
0.0
 10
178.1487817526844
 20
6.531290517060556
 30
0.0
 10
178.0981207702582
 20
6.636914580887998
 30
0.0
 10
178.0346370909544
 20
6.733860529546817
 30
0.0
 10
177.9581732495218
 20
6.820332874172746
 30
0.0
 10
177.8700479217485
 20
6.896442936921016
 30
0.0
 10
177.7705143023018
 20
6.959850583897572
 30
0.0
 10
177.6634284056472
 20
7.011072799422161
 30
0.0
 10
177.5513770349081
 20
7.049500978425327
 30
0.0
 10
177.4345265448002
 20
7.07126724991805
 30
0.0
 10
177.3553271589877
 20
7.074387769883561
 30
0.0
 10
177.3153846153846
 20
7.075961538461545
 30
0.0
  0
SPLINE
  5
13B
330
1F
100
AcDbEntity
  8
0
  6
Continuous
 62
     7
370
    15
100
AcDbSpline
210
0.0
220
0.0
230
1.0
 70
     8
 71
     3
 72
    19
 73
    15
 74
     0
 42
0.000000001
 43
0.00000001
 40
0.0
 40
0.0
 40
0.0
 40
0.0
 40
0.0859205174117721
 40
0.1695934351247468
 40
0.2524755148685348
 40
0.3362444769570503
 40
0.4195045210415771
 40
0.5020359066440909
 40
0.5847746476768763
 40
0.6698464747058019
 40
0.7541848663887832
 40
0.8366582383293285
 40
0.9180097257088059
 40
0.9999999999999999
 40
0.9999999999999999
 40
0.9999999999999999
 40
0.9999999999999999
 10
168.9721053685897
 20
7.075961538461545
 30
0.0
 10
168.9304545049486
 20
7.074479595663111
 30
0.0
 10
168.8482423249759
 20
7.071554476292152
 30
0.0
 10
168.7275524088193
 20
7.048718519946151
 30
0.0
 10
168.6120609546109
 20
7.010723209344746
 30
0.0
 10
168.5023455872386
 20
6.958760341856301
 30
0.0
 10
168.4001394193025
 20
6.893419987925128
 30
0.0
 10
168.3087958750502
 20
6.814388447367523
 30
0.0
 10
168.2275678531057
 20
6.723822013098665
 30
0.0
 10
168.1592524991233
 20
6.622129384387568
 30
0.0
 10
168.103562548346
 20
6.513110687489595
 30
0.0
 10
168.0644038836607
 20
6.399151375783646
 30
0.0
 10
168.0385782092252
 20
6.282306860428633
 30
0.0
 10
168.035939765573
 20
6.203056424044534
 30
0.0
 10
168.0346153846153
 20
6.163276241987176
 30
0.0
  0
SPLINE
  5
13C
330
1F
100
AcDbEntity
  8
0
  6
Continuous
 62
     7
370
    15
100
AcDbSpline
210
0.0
220
0.0
230
1.0
 70
     8
 71
     3
 72
    19
 73
    15
 74
     0
 42
0.000000001
 43
0.00000001
 40
0.0
 40
0.0
 40
0.0
 40
0.0
 40
0.081589348932183
 40
0.1628588951679335
 40
0.2454836892755813
 40
0.3308071391580075
 40
0.416493373776287
 40
0.4998932031606244
 40
0.5830481559950226
 40
0.6671578520621629
 40
0.7513119292929052
 40
0.8337847893576184
 40
0.9162564885439674
 40
0.9999999999999999
 40
0.9999999999999999
 40
0.9999999999999999
 40
0.9999999999999999
 10
168.0346153846153
 20
6.163276241987176
 30
0.0
 10
168.0363071092607
 20
6.12373378761312
 30
0.0
 10
168.0396839275619
 20
6.044803871933318
 30
0.0
 10
168.0639506289086
 20
5.927800063007721
 30
0.0
 10
168.1046630855234
 20
5.813813896280676
 30
0.0
 10
168.1602183852838
 20
5.703812852159235
 30
0.0
 10
168.2297841091448
 20
5.601682989686482
 30
0.0
 10
168.3104188153886
 20
5.509390164219891
 30
0.0
 10
168.4029022848653
 20
5.430024609143866
 30
0.0
 10
168.5053436662825
 20
5.36358766737316
 30
0.0
 10
168.6147523251457
 20
5.309918809132286
 30
0.0
 10
168.7298088201246
 20
5.272575693293841
 30
0.0
 10
168.8483502918809
 20
5.248465849445521
 30
0.0
 10
168.9289520518752
 20
5.245649645457623
 30
0.0
 10
168.9695612980769
 20
5.244230769230765
 30
0.0
  0
SPLINE
  5
13D
330
1F
100
AcDbEntity
  8
0
  6
Continuous
 62
     7
370
    15
100
AcDbSpline
210
0.0
220
0.0
230
1.0
 70
     8
 71
     3
 72
    19
 73
    15
 74
     0
 42
0.000000001
 43
0.00000001
 40
0.0
 40
0.0
 40
0.0
 40
0.0
 40
0.0848023883688171
 40
0.1686635395998283
 40
0.2525519243727762
 40
0.3382396894642355
 40
0.4231026613931453
 40
0.5055560510576204
 40
0.5861756559890426
 40
0.667135720330352
 40
0.7484991803055331
 40
0.8304523987582779
 40
0.9134557062010126
 40
1.0
 40
1.0
 40
1.0
 40
1.0
 10
168.9695612980769
 20
5.244230769230765
 30
0.0
 10
169.0107877684397
 20
5.245736593649172
 30
0.0
 10
169.0927831290699
 20
5.248731529066797
 30
0.0
 10
169.2138310997896
 20
5.271665248297086
 30
0.0
 10
169.3313015303276
 20
5.30955551537178
 30
0.0
 10
169.4435942303566
 20
5.362078294623332
 30
0.0
 10
169.5482024350407
 20
5.427172467472818
 30
0.0
 10
169.6420897954499
 20
5.503378900050829
 30
0.0
 10
169.7214792810459
 20
5.592009645647225
 30
0.0
 10
169.7887825768775
 20
5.689415428052347
 30
0.0
 10
169.841555990597
 20
5.796197024841826
 30
0.0
 10
169.8799971300114
 20
5.909893040732777
 30
0.0
 10
169.90272460168
 20
6.030507433692906
 30
0.0
 10
169.9055891135701
 20
6.112933996005376
 30
0.0
 10
169.9070512820512
 20
6.155008012820512
 30
0.0
  0
SPLINE
  5
13E
330
1F
100
AcDbEntity
  8
0
  6
Continuous
 62
     7
370
    15
100
AcDbSpline
210
0.0
220
0.0
230
1.0
 70
     8
 71
     3
 72
    23
 73
    19
 74
     0
 42
0.000000001
 43
0.00000001
 40
0.0
 40
0.0
 40
0.0
 40
0.0
 40
0.0656337996756902
 40
0.12918808805713
 40
0.1912186831121861
 40
0.2519128178811544
 40
0.3125074743865467
 40
0.3734944337752015
 40
0.4351515996540493
 40
0.4987414744066545
 40
0.5620952169966315
 40
0.6241865668116587
 40
0.6854757184651913
 40
0.7460968148060515
 40
0.8076116364477931
 40
0.8699665806571799
 40
0.9339510189149071
 40
1.0
 40
1.0
 40
1.0
 40
1.0
 10
169.9070512820513
 20
6.155008012820512
 30
0.0
 10
169.9061807366285
 20
6.187064473352544
 30
0.0
 10
169.9044672277459
 20
6.250161732180709
 30
0.0
 10
169.8913766396717
 20
6.342805980263905
 30
0.0
 10
169.8705532421409
 20
6.431464431725209
 30
0.0
 10
169.8412106450544
 20
6.516230299656922
 30
0.0
 10
169.8026649799062
 20
6.596634920769104
 30
0.0
 10
169.7561759351377
 20
6.673255617531307
 30
0.0
 10
169.7009259914508
 20
6.745693887863391
 30
0.0
 10
169.637804545703
 20
6.812952245108125
 30
0.0
 10
169.568711826251
 20
6.874299107300433
 30
0.0
 10
169.4956010643919
 20
6.92905809708895
 30
0.0
 10
169.4176060582234
 20
6.974042198074404
 30
0.0
 10
169.336038460448
 20
7.011272494361551
 30
0.0
 10
169.2507567499003
 20
7.0408990089115
 30
0.0
 10
169.1610669733506
 20
7.060663559686834
 30
0.0
 10
169.0679224637811
 20
7.074234708054655
 30
0.0
 10
169.0043806849573
 20
7.075379867752529
 30
0.0
 10
168.9721053685897
 20
7.075961538461545
 30
0.0
  0
SPLINE
  5
13F
330
1F
100
AcDbEntity
  8
0
  6
Continuous
 62
     7
370
    15
100
AcDbSpline
210
0.0
220
0.0
230
1.0
 70
     8
 71
     3
 72
    19
 73
    15
 74
     0
 42
0.000000001
 43
0.00000001
 40
0.0
 40
0.0
 40
0.0
 40
0.0
 40
0.0859205174117721
 40
0.1695934351247469
 40
0.2524755148685347
 40
0.3362444769570504
 40
0.4195045210415769
 40
0.5020359066440906
 40
0.5847746476768759
 40
0.6698464747058016
 40
0.7541848663887835
 40
0.8366582383293281
 40
0.9180097257088055
 40
1.0
 40
1.0
 40
1.0
 40
1.0
 10
185.5797976762821
 20
7.075961538461545
 30
0.0
 10
185.538146812641
 20
7.074479595663111
 30
0.0
 10
185.4559346326682
 20
7.071554476292152
 30
0.0
 10
185.3352447165117
 20
7.048718519946151
 30
0.0
 10
185.2197532623032
 20
7.010723209344746
 30
0.0
 10
185.110037894931
 20
6.958760341856301
 30
0.0
 10
185.0078317269948
 20
6.893419987925128
 30
0.0
 10
184.9164881827425
 20
6.814388447367523
 30
0.0
 10
184.8352601607982
 20
6.723822013098665
 30
0.0
 10
184.7669448068156
 20
6.622129384387581
 30
0.0
 10
184.7112548560384
 20
6.513110687489595
 30
0.0
 10
184.672096191353
 20
6.399151375783632
 30
0.0
 10
184.6462705169176
 20
6.282306860428633
 30
0.0
 10
184.6436320732653
 20
6.203056424044534
 30
0.0
 10
184.6423076923077
 20
6.163276241987176
 30
0.0
  0
SPLINE
  5
140
330
1F
100
AcDbEntity
  8
0
  6
Continuous
 62
     7
370
    15
100
AcDbSpline
210
0.0
220
0.0
230
1.0
 70
     8
 71
     3
 72
    19
 73
    15
 74
     0
 42
0.000000001
 43
0.00000001
 40
0.0
 40
0.0
 40
0.0
 40
0.0
 40
0.0815893489321824
 40
0.162858895167933
 40
0.2454836892755803
 40
0.3308071391580071
 40
0.4164933737762866
 40
0.4998932031606241
 40
0.5830481559950224
 40
0.6671578520621627
 40
0.7513119292929051
 40
0.8337847893576184
 40
0.9162564885439674
 40
1.0
 40
1.0
 40
1.0
 40
1.0
 10
184.6423076923077
 20
6.163276241987176
 30
0.0
 10
184.643999416953
 20
6.12373378761312
 30
0.0
 10
184.6473762352542
 20
6.044803871933318
 30
0.0
 10
184.671642936601
 20
5.927800063007721
 30
0.0
 10
184.7123553932157
 20
5.813813896280689
 30
0.0
 10
184.7679106929761
 20
5.703812852159235
 30
0.0
 10
184.8374764168372
 20
5.601682989686482
 30
0.0
 10
184.918111123081
 20
5.509390164219891
 30
0.0
 10
185.0105945925577
 20
5.430024609143866
 30
0.0
 10
185.1130359739749
 20
5.36358766737316
 30
0.0
 10
185.222444632838
 20
5.309918809132286
 30
0.0
 10
185.337501127817
 20
5.272575693293841
 30
0.0
 10
185.4560425995732
 20
5.248465849445521
 30
0.0
 10
185.5366443595674
 20
5.245649645457623
 30
0.0
 10
185.5772536057693
 20
5.244230769230765
 30
0.0
  0
SPLINE
  5
141
330
1F
100
AcDbEntity
  8
0
  6
Continuous
 62
     7
370
    15
100
AcDbSpline
210
0.0
220
0.0
230
1.0
 70
     8
 71
     3
 72
    19
 73
    15
 74
     0
 42
0.000000001
 43
0.00000001
 40
0.0
 40
0.0
 40
0.0
 40
0.0
 40
0.0848023883688171
 40
0.1686635395998283
 40
0.2525519243727762
 40
0.3382396894642355
 40
0.4231026613931453
 40
0.5055560510576204
 40
0.5861756559890426
 40
0.667135720330352
 40
0.7484991803055335
 40
0.8304523987582779
 40
0.9134557062010132
 40
1.0
 40
1.0
 40
1.0
 40
1.0
 10
185.5772536057692
 20
5.244230769230765
 30
0.0
 10
185.6184800761321
 20
5.245736593649172
 30
0.0
 10
185.7004754367623
 20
5.248731529066797
 30
0.0
 10
185.8215234074819
 20
5.271665248297086
 30
0.0
 10
185.93899383802
 20
5.30955551537178
 30
0.0
 10
186.0512865380489
 20
5.362078294623332
 30
0.0
 10
186.1558947427331
 20
5.427172467472818
 30
0.0
 10
186.2497821031423
 20
5.503378900050829
 30
0.0
 10
186.3291715887382
 20
5.592009645647225
 30
0.0
 10
186.3964748845698
 20
5.689415428052347
 30
0.0
 10
186.4492482982894
 20
5.796197024841826
 30
0.0
 10
186.4876894377038
 20
5.909893040732777
 30
0.0
 10
186.5104169093723
 20
6.030507433692919
 30
0.0
 10
186.5132814212623
 20
6.112933996005376
 30
0.0
 10
186.5147435897436
 20
6.155008012820512
 30
0.0
  0
SPLINE
  5
142
330
1F
100
AcDbEntity
  8
0
  6
Continuous
 62
     7
370
    15
100
AcDbSpline
210
0.0
220
0.0
230
1.0
 70
     8
 71
     3
 72
    23
 73
    19
 74
     0
 42
0.000000001
 43
0.00000001
 40
0.0
 40
0.0
 40
0.0
 40
0.0
 40
0.0656337996756903
 40
0.1291880880571296
 40
0.1912186831121864
 40
0.2519128178811553
 40
0.3125074743865554
 40
0.3734944337752005
 40
0.4351515996540484
 40
0.4987414744066537
 40
0.5620952169966308
 40
0.6241865668116583
 40
0.6854757184651908
 40
0.746096814806051
 40
0.8076116364477929
 40
0.8699665806571798
 40
0.9339510189149068
 40
1.0
 40
1.0
 40
1.0
 40
1.0
 10
186.5147435897436
 20
6.155008012820512
 30
0.0
 10
186.5138730443208
 20
6.187064473352544
 30
0.0
 10
186.5121595354382
 20
6.250161732180709
 30
0.0
 10
186.499068947364
 20
6.342805980263905
 30
0.0
 10
186.4782455498332
 20
6.431464431725209
 30
0.0
 10
186.4489029527469
 20
6.516230299656936
 30
0.0
 10
186.4103572875984
 20
6.59663492076909
 30
0.0
 10
186.3638682428301
 20
6.67325561753132
 30
0.0
 10
186.3086182991432
 20
6.745693887863391
 30
0.0
 10
186.2454968533953
 20
6.812952245108125
 30
0.0
 10
186.1764041339434
 20
6.874299107300433
 30
0.0
 10
186.1032933720843
 20
6.92905809708895
 30
0.0
 10
186.0252983659157
 20
6.974042198074404
 30
0.0
 10
185.9437307681405
 20
7.011272494361551
 30
0.0
 10
185.8584490575925
 20
7.0408990089115
 30
0.0
 10
185.768759281043
 20
7.060663559686847
 30
0.0
 10
185.6756147714734
 20
7.074234708054655
 30
0.0
 10
185.6120729926496
 20
7.075379867752529
 30
0.0
 10
185.5797976762821
 20
7.075961538461545
 30
0.0
  0
LINE
  5
143
330
1F
100
AcDbEntity
  8
0
  6
Continuous
 62
     7
370
    15
100
AcDbLine
 10
149.9208333333
 20
6.069145633
 30
0.0
 11
149.9208333333
 21
5.0
 31
0.0
  0
LINE
  5
144
330
1F
100
AcDbEntity
  8
0
  6
Continuous
 62
     7
370
    15
100
AcDbLine
 10
151.0993739984
 20
5.0
 30
0.0
 11
149.9208333333
 21
6.069145633
 31
0.0
  0
LINE
  5
145
330
1F
100
AcDbEntity
  8
0
  6
Continuous
 62
     7
370
    15
100
AcDbLine
 10
151.5083333333
 20
5.0
 30
0.0
 11
151.0993739984
 21
5.0
 31
0.0
  0
LINE
  5
146
330
1F
100
AcDbEntity
  8
0
  6
Continuous
 62
     7
370
    15
100
AcDbLine
 10
150.1612479968
 20
6.2211538462
 30
0.0
 11
151.5083333333
 21
5.0
 31
0.0
  0
LINE
  5
147
330
1F
100
AcDbEntity
  8
0
  6
Continuous
 62
     7
370
    15
100
AcDbLine
 10
151.3862179487
 20
7.3201923077
 30
0.0
 11
150.1612479968
 21
6.2211538462
 31
0.0
  0
LINE
  5
148
330
1F
100
AcDbEntity
  8
0
  6
Continuous
 62
     7
370
    15
100
AcDbLine
 10
150.9766225962
 20
7.3201923077
 30
0.0
 11
151.3862179487
 21
7.3201923077
 31
0.0
  0
LINE
  5
149
330
1F
100
AcDbEntity
  8
0
  6
Continuous
 62
     7
370
    15
100
AcDbLine
 10
149.9208333333
 20
6.3737980769
 30
0.0
 11
150.9766225962
 21
7.3201923077
 31
0.0
  0
LINE
  5
14A
330
1F
100
AcDbEntity
  8
0
  6
Continuous
 62
     7
370
    15
100
AcDbLine
 10
149.9208333333
 20
8.2564102564
 30
0.0
 11
149.9208333333
 21
6.3737980769
 31
0.0
  0
LINE
  5
14B
330
1F
100
AcDbEntity
  8
0
  6
Continuous
 62
     7
370
    15
100
AcDbLine
 10
149.6358974359
 20
8.2564102564
 30
0.0
 11
149.9208333333
 21
8.2564102564
 31
0.0
  0
LINE
  5
14C
330
1F
100
AcDbEntity
  8
0
  6
Continuous
 62
     7
370
    15
100
AcDbLine
 10
149.6358974359
 20
5.0
 30
0.0
 11
149.6358974359
 21
8.2564102564
 31
0.0
  0
LINE
  5
14D
330
1F
100
AcDbEntity
  8
0
  6
Continuous
 62
     7
370
    15
100
AcDbLine
 10
149.9208333333
 20
5.0
 30
0.0
 11
149.6358974359
 21
5.0
 31
0.0
  0
LINE
  5
14E
330
1F
100
AcDbEntity
  8
0
  6
Continuous
 62
     7
370
    15
100
AcDbLine
 10
153.3807692308
 20
8.175
 30
0.0
 11
153.3807692308
 21
5.0
 31
0.0
  0
LINE
  5
14F
330
1F
100
AcDbEntity
  8
0
  6
Continuous
 62
     7
370
    15
100
AcDbLine
 10
153.0958333333
 20
8.175
 30
0.0
 11
153.3807692308
 21
8.175
 31
0.0
  0
LINE
  5
150
330
1F
100
AcDbEntity
  8
0
  6
Continuous
 62
     7
370
    15
100
AcDbLine
 10
153.0958333333
 20
5.0
 30
0.0
 11
153.0958333333
 21
8.175
 31
0.0
  0
LINE
  5
151
330
1F
100
AcDbEntity
  8
0
  6
Continuous
 62
     7
370
    15
100
AcDbLine
 10
153.3807692308
 20
5.0
 30
0.0
 11
153.0958333333
 21
5.0
 31
0.0
  0
LINE
  5
152
330
1F
100
AcDbEntity
  8
0
  6
Continuous
 62
     7
370
    15
100
AcDbLine
 10
154.4798076923
 20
8.175
 30
0.0
 11
154.4798076923
 21
5.0
 31
0.0
  0
LINE
  5
153
330
1F
100
AcDbEntity
  8
0
  6
Continuous
 62
     7
370
    15
100
AcDbLine
 10
154.1948717949
 20
8.175
 30
0.0
 11
154.4798076923
 21
8.175
 31
0.0
  0
LINE
  5
154
330
1F
100
AcDbEntity
  8
0
  6
Continuous
 62
     7
370
    15
100
AcDbLine
 10
154.1948717949
 20
5.0
 30
0.0
 11
154.1948717949
 21
8.175
 31
0.0
  0
LINE
  5
155
330
1F
100
AcDbEntity
  8
0
  6
Continuous
 62
     7
370
    15
100
AcDbLine
 10
154.4798076923
 20
5.0
 30
0.0
 11
154.1948717949
 21
5.0
 31
0.0
  0
LINE
  5
156
330
1F
100
AcDbEntity
  8
0
  6
Continuous
 62
     7
370
    15
100
AcDbLine
 10
155.5788461538
 20
8.175
 30
0.0
 11
155.5788461538
 21
5.0
 31
0.0
  0
LINE
  5
157
330
1F
100
AcDbEntity
  8
0
  6
Continuous
 62
     7
370
    15
100
AcDbLine
 10
155.2939102564
 20
8.175
 30
0.0
 11
155.5788461538
 21
8.175
 31
0.0
  0
LINE
  5
158
330
1F
100
AcDbEntity
  8
0
  6
Continuous
 62
     7
370
    15
100
AcDbLine
 10
155.2939102564
 20
5.0
 30
0.0
 11
155.2939102564
 21
8.175
 31
0.0
  0
LINE
  5
159
330
1F
100
AcDbEntity
  8
0
  6
Continuous
 62
     7
370
    15
100
AcDbLine
 10
155.5788461538
 20
5.0
 30
0.0
 11
155.2939102564
 21
5.0
 31
0.0
  0
LINE
  5
15A
330
1F
100
AcDbEntity
  8
0
  6
Continuous
 62
     7
370
    15
100
AcDbLine
 10
160.0971153846
 20
8.175
 30
0.0
 11
158.7538461538
 21
5.0
 31
0.0
  0
LINE
  5
15B
330
1F
100
AcDbEntity
  8
0
  6
Continuous
 62
     7
370
    15
100
AcDbLine
 10
159.7918269231
 20
8.175
 30
0.0
 11
160.0971153846
 21
8.175
 31
0.0
  0
LINE
  5
15C
330
1F
100
AcDbEntity
  8
0
  6
Continuous
 62
     7
370
    15
100
AcDbLine
 10
158.7334935897
 20
5.6729066506
 30
0.0
 11
159.7918269231
 21
8.175
 31
0.0
  0
LINE
  5
15D
330
1F
100
AcDbEntity
  8
0
  6
Continuous
 62
     7
370
    15
100
AcDbLine
 10
157.6751602564
 20
8.175
 30
0.0
 11
158.7334935897
 21
5.6729066506
 31
0.0
  0
LINE
  5
15E
330
1F
100
AcDbEntity
  8
0
  6
Continuous
 62
     7
370
    15
100
AcDbLine
 10
157.3698717949
 20
8.175
 30
0.0
 11
157.6751602564
 21
8.175
 31
0.0
  0
LINE
  5
15F
330
1F
100
AcDbEntity
  8
0
  6
Continuous
 62
     7
370
    15
100
AcDbLine
 10
158.7131410256
 20
5.0
 30
0.0
 11
157.3698717949
 21
8.175
 31
0.0
  0
LINE
  5
160
330
1F
100
AcDbEntity
  8
0
  6
Continuous
 62
     7
370
    15
100
AcDbLine
 10
158.7538461538
 20
5.0
 30
0.0
 11
158.7131410256
 21
5.0
 31
0.0
  0
LINE
  5
161
330
1F
100
AcDbEntity
  8
0
  6
Continuous
 62
     7
370
    15
100
AcDbLine
 10
162.0668619792
 20
8.0840494792
 30
0.0
 11
161.2279547276
 21
6.8012019231
 31
0.0
  0
LINE
  5
162
330
1F
100
AcDbEntity
  8
0
  6
Continuous
 62
     7
370
    15
100
AcDbLine
 10
161.8474358974
 20
8.2564102564
 30
0.0
 11
162.0668619792
 21
8.0840494792
 31
0.0
  0
LINE
  5
163
330
1F
100
AcDbEntity
  8
0
  6
Continuous
 62
     7
370
    15
100
AcDbLine
 10
160.8997696314
 20
6.8075620994
 30
0.0
 11
161.8474358974
 21
8.2564102564
 31
0.0
  0
LINE
  5
164
330
1F
100
AcDbEntity
  8
0
  6
Continuous
 62
     7
370
    15
100
AcDbLine
 10
178.2108974359
 20
5.3243689904
 30
0.0
 11
178.2108974359
 21
5.4445763221
 31
0.0
  0
LINE
  5
165
330
1F
100
AcDbEntity
  8
0
  6
Continuous
 62
     7
370
    15
100
AcDbLine
 10
176.1349358974
 20
4.8371794872
 30
0.0
 11
176.4198717949
 21
4.8371794872
 31
0.0
  0
LINE
  5
166
330
1F
100
AcDbEntity
  8
0
  6
Continuous
 62
     7
370
    15
100
AcDbLine
 10
178.4958333333
 20
7.3201923077
 30
0.0
 11
178.4958333333
 21
5.478921274
 31
0.0
  0
LINE
  5
167
330
1F
100
AcDbEntity
  8
0
  6
Continuous
 62
     7
370
    15
100
AcDbLine
 10
178.2108974359
 20
7.3201923077
 30
0.0
 11
178.4958333333
 21
7.3201923077
 31
0.0
  0
LINE
  5
168
330
1F
100
AcDbEntity
  8
0
  6
Continuous
 62
     7
370
    15
100
AcDbLine
 10
178.2108974359
 20
6.9144130609
 30
0.0
 11
178.2108974359
 21
7.3201923077
 31
0.0
  0
LINE
  5
169
330
1F
100
AcDbEntity
  8
0
  6
Continuous
 62
     7
370
    15
100
AcDbLine
 10
187.6951923077
 20
8.2564102564
 30
0.0
 11
187.6951923077
 21
5.0
 31
0.0
  0
LINE
  5
16A
330
1F
100
AcDbEntity
  8
0
  6
Continuous
 62
     7
370
    15
100
AcDbLine
 10
187.4102564103
 20
8.2564102564
 30
0.0
 11
187.6951923077
 21
8.2564102564
 31
0.0
  0
LINE
  5
16B
330
1F
100
AcDbEntity
  8
0
  6
Continuous
 62
     7
370
    15
100
AcDbLine
 10
187.4102564103
 20
5.0
 30
0.0
 11
187.4102564103
 21
8.2564102564
 31
0.0
  0
LINE
  5
16C
330
1F
100
AcDbEntity
  8
0
  6
Continuous
 62
     7
370
    15
100
AcDbLine
 10
187.6951923077
 20
5.0
 30
0.0
 11
187.4102564103
 21
5.0
 31
0.0
  0
LINE
  5
16D
330
1F
100
AcDbEntity
  8
0
  6
Continuous
 62
     7
370
    15
100
AcDbLine
 10
188.5907051282
 20
8.2564102564
 30
0.0
 11
188.5907051282
 21
5.0
 31
0.0
  0
LINE
  5
16E
330
1F
100
AcDbEntity
  8
0
  6
Continuous
 62
     7
370
    15
100
AcDbLine
 10
188.3057692308
 20
8.2564102564
 30
0.0
 11
188.5907051282
 21
8.2564102564
 31
0.0
  0
LINE
  5
16F
330
1F
100
AcDbEntity
  8
0
  6
Continuous
 62
     7
370
    15
100
AcDbLine
 10
188.3057692308
 20
5.0
 30
0.0
 11
188.3057692308
 21
8.2564102564
 31
0.0
  0
LINE
  5
170
330
1F
100
AcDbEntity
  8
0
  6
Continuous
 62
     7
370
    15
100
AcDbLine
 10
188.5907051282
 20
5.0
 30
0.0
 11
188.3057692308
 21
5.0
 31
0.0
  0
LINE
  5
171
330
1F
100
AcDbEntity
  8
0
  6
Continuous
 62
     7
370
    15
100
AcDbLine
 10
193.2260016026
 20
5.7733974359
 30
0.0
 11
193.4753205128
 21
5.5845002003
 31
0.0
  0
LINE
  5
172
330
1F
100
AcDbEntity
  8
0
  6
Continuous
 62
     7
370
    15
100
AcDbLine
 10
193.4753205128
 20
7.5924078526
 30
0.0
 11
193.2260016026
 21
7.4016025641
 31
0.0
  0
LINE
  5
173
330
1F
100
AcDbEntity
  8
0
  6
Continuous
 62
     7
370
    15
100
AcDbLine
 10
147.2654597356
 20
5.0
 30
0.0
 11
146.1149038462
 21
7.2896634615
 31
0.0
  0
LINE
  5
174
330
1F
100
AcDbEntity
  8
0
  6
Continuous
 62
     7
370
    15
100
AcDbLine
 10
147.329697516
 20
5.0
 30
0.0
 11
147.2654597356
 21
5.0
 31
0.0
  0
LINE
  5
175
330
1F
100
AcDbEntity
  8
0
  6
Continuous
 62
     7
370
    15
100
AcDbLine
 10
148.4758012821
 20
7.2845753205
 30
0.0
 11
147.329697516
 21
5.0
 31
0.0
  0
LINE
  5
176
330
1F
100
AcDbEntity
  8
0
  6
Continuous
 62
     7
370
    15
100
AcDbLine
 10
148.7798177083
 20
5.0
 30
0.0
 11
148.4758012821
 21
7.2845753205
 31
0.0
  0
LINE
  5
177
330
1F
100
AcDbEntity
  8
0
  6
Continuous
 62
     7
370
    15
100
AcDbLine
 10
149.066025641
 20
5.0
 30
0.0
 11
148.7798177083
 21
5.0
 31
0.0
  0
LINE
  5
178
330
1F
100
AcDbEntity
  8
0
  6
Continuous
 62
     7
370
    15
100
AcDbLine
 10
148.6443459535
 20
8.175
 30
0.0
 11
149.066025641
 21
5.0
 31
0.0
  0
LINE
  5
179
330
1F
100
AcDbEntity
  8
0
  6
Continuous
 62
     7
370
    15
100
AcDbLine
 10
148.6030048077
 20
8.175
 30
0.0
 11
148.6443459535
 21
8.175
 31
0.0
  0
LINE
  5
17A
330
1F
100
AcDbEntity
  8
0
  6
Continuous
 62
     7
370
    15
100
AcDbLine
 10
147.2953525641
 20
5.5698717949
 30
0.0
 11
148.6030048077
 21
8.175
 31
0.0
  0
LINE
  5
17B
330
1F
100
AcDbEntity
  8
0
  6
Continuous
 62
     7
370
    15
100
AcDbLine
 10
145.9845202324
 20
8.175
 30
0.0
 11
147.2953525641
 21
5.5698717949
 31
0.0
  0
LINE
  5
17C
330
1F
100
AcDbEntity
  8
0
  6
Continuous
 62
     7
370
    15
100
AcDbLine
 10
145.9438151042
 20
8.175
 30
0.0
 11
145.9845202324
 21
8.175
 31
0.0
  0
LINE
  5
17D
330
1F
100
AcDbEntity
  8
0
  6
Continuous
 62
     7
370
    15
100
AcDbLine
 10
145.5246794872
 20
5.0
 30
0.0
 11
145.9438151042
 21
8.175
 31
0.0
  0
LINE
  5
17E
330
1F
100
AcDbEntity
  8
0
  6
Continuous
 62
     7
370
    15
100
AcDbLine
 10
145.8115234375
 20
5.0
 30
0.0
 11
145.5246794872
 21
5.0
 31
0.0
  0
LINE
  5
17F
330
1F
100
AcDbEntity
  8
0
  6
Continuous
 62
     7
370
    15
100
AcDbLine
 10
146.1149038462
 20
7.2896634615
 30
0.0
 11
145.8115234375
 21
5.0
 31
0.0
  0
LINE
  5
180
330
1F
100
AcDbEntity
  8
0
  6
Continuous
 62
     7
370
    15
100
AcDbLine
 10
5.0
 20
180.0
 30
0.0
 11
10.0
 21
180.0
 31
0.0
  0
LINE
  5
181
330
1F
100
AcDbEntity
  8
0
  6
Continuous
 62
     7
370
    15
100
AcDbLine
 10
10.0
 20
90.0
 30
0.0
 11
10.0
 21
180.0
 31
0.0
  0
LINE
  5
182
330
1F
100
AcDbEntity
  8
0
  6
Continuous
 62
     7
370
    15
100
AcDbLine
 10
10.0
 20
90.0
 30
0.0
 11
13.5
 21
90.0
 31
0.0
  0
LINE
  5
183
330
1F
100
AcDbEntity
  8
0
  6
Continuous
 62
     7
370
    15
100
AcDbLine
 10
13.5
 20
90.0
 30
0.0
 11
13.5
 21
180.0
 31
0.0
  0
LINE
  5
184
330
1F
100
AcDbEntity
  8
0
  6
Continuous
 62
     7
370
    15
100
AcDbLine
 10
13.5
 20
180.0
 30
0.0
 11
325.5
 21
180.0
 31
0.0
  0
LINE
  5
185
330
1F
100
AcDbEntity
  8
0
  6
Continuous
 62
     7
370
    15
100
AcDbLine
 10
325.5
 20
90.0
 30
0.0
 11
325.5
 21
180.0
 31
0.0
  0
LINE
  5
186
330
1F
100
AcDbEntity
  8
0
  6
Continuous
 62
     7
370
    15
100
AcDbLine
 10
329.0
 20
90.0
 30
0.0
 11
325.5
 21
90.0
 31
0.0
  0
LINE
  5
187
330
1F
100
AcDbEntity
  8
0
  6
Continuous
 62
     7
370
    15
100
AcDbLine
 10
329.0
 20
90.0
 30
0.0
 11
329.0
 21
180.0
 31
0.0
  0
LINE
  5
188
330
1F
100
AcDbEntity
  8
0
  6
Continuous
 62
     7
370
    15
100
AcDbLine
 10
329.0
 20
180.0
 30
0.0
 11
334.0
 21
180.0
 31
0.0
  0
LINE
  5
189
330
1F
100
AcDbEntity
  8
0
  6
Continuous
 62
     7
370
    15
100
AcDbLine
 10
339.0
 20
5.0
 30
0.0
 11
339.0
 21
175.0
 31
0.0
  0
LINE
  5
18A
330
1F
100
AcDbEntity
  8
0
  6
Continuous
 62
     7
370
    15
100
AcDbLine
 10
293.0
 20
0.0
 30
0.0
 11
334.0
 21
0.0
 31
0.0
  0
LINE
  5
18B
330
1F
100
AcDbEntity
  8
0
  6
Continuous
 62
     7
370
    15
100
AcDbLine
 10
293.0
 20
0.0
 30
0.0
 11
293.0
 21
30.0
 31
0.0
  0
LINE
  5
18C
330
1F
100
AcDbEntity
  8
0
  6
Continuous
 62
     7
370
    15
100
AcDbLine
 10
293.0
 20
30.0
 30
0.0
 11
289.5
 21
30.0
 31
0.0
  0
LINE
  5
18D
330
1F
100
AcDbEntity
  8
0
  6
Continuous
 62
     7
370
    15
100
AcDbLine
 10
289.5
 20
0.0
 30
0.0
 11
289.5
 21
30.0
 31
0.0
  0
LINE
  5
18E
330
1F
100
AcDbEntity
  8
0
  6
Continuous
 62
     7
370
    15
100
AcDbLine
 10
5.0
 20
0.0
 30
0.0
 11
289.5
 21
0.0
 31
0.0
  0
LINE
  5
18F
330
1F
100
AcDbEntity
  8
0
  6
Continuous
 62
     7
370
    15
100
AcDbLine
 10
0.0
 20
5.0
 30
0.0
 11
0.0
 21
175.0
 31
0.0
  0
LINE
  5
190
330
1F
100
AcDbEntity
  8
0
  6
Continuous
 62
     7
370
    15
100
AcDbLine
 10
186.5147435897
 20
5.0
 30
0.0
 11
186.5147435897
 21
5.4013271234
 31
0.0
  0
LINE
  5
191
330
1F
100
AcDbEntity
  8
0
  6
Continuous
 62
     7
370
    15
100
AcDbLine
 10
186.7996794872
 20
5.0
 30
0.0
 11
186.5147435897
 21
5.0
 31
0.0
  0
LINE
  5
192
330
1F
100
AcDbEntity
  8
0
  6
Continuous
 62
     7
370
    15
100
AcDbLine
 10
186.7996794872
 20
7.3201923077
 30
0.0
 11
186.7996794872
 21
5.0
 31
0.0
  0
LINE
  5
193
330
1F
100
AcDbEntity
  8
0
  6
Continuous
 62
     7
370
    15
100
AcDbLine
 10
186.5147435897
 20
7.3201923077
 30
0.0
 11
186.7996794872
 21
7.3201923077
 31
0.0
  0
LINE
  5
194
330
1F
100
AcDbEntity
  8
0
  6
Continuous
 62
     7
370
    15
100
AcDbLine
 10
186.5147435897
 20
6.8908804087
 30
0.0
 11
186.5147435897
 21
7.3201923077
 31
0.0
  0
LINE
  5
195
330
1F
100
AcDbEntity
  8
0
  6
Continuous
 62
     7
370
    15
100
AcDbLine
 10
182.0982371795
 20
7.4283153045
 30
0.0
 11
181.1314903846
 21
5.0
 31
0.0
  0
LINE
  5
196
330
1F
100
AcDbEntity
  8
0
  6
Continuous
 62
     7
370
    15
100
AcDbLine
 10
183.0535356571
 20
5.0
 30
0.0
 11
182.0982371795
 21
7.4283153045
 31
0.0
  0
LINE
  5
197
330
1F
100
AcDbEntity
  8
0
  6
Continuous
 62
     7
370
    15
100
AcDbLine
 10
183.0942407853
 20
5.0
 30
0.0
 11
183.0535356571
 21
5.0
 31
0.0
  0
LINE
  5
198
330
1F
100
AcDbEntity
  8
0
  6
Continuous
 62
     7
370
    15
100
AcDbLine
 10
183.9503205128
 20
8.175
 30
0.0
 11
183.0942407853
 21
5.0
 31
0.0
  0
LINE
  5
199
330
1F
100
AcDbEntity
  8
0
  6
Continuous
 62
     7
370
    15
100
AcDbLine
 10
183.6590244391
 20
8.175
 30
0.0
 11
183.9503205128
 21
8.175
 31
0.0
  0
LINE
  5
19A
330
1F
100
AcDbEntity
  8
0
  6
Continuous
 62
     7
370
    15
100
AcDbLine
 10
183.0344551282
 20
5.8624399038
 30
0.0
 11
183.6590244391
 21
8.175
 31
0.0
  0
LINE
  5
19B
330
1F
100
AcDbEntity
  8
0
  6
Continuous
 62
     7
370
    15
100
AcDbLine
 10
182.1274939904
 20
8.175
 30
0.0
 11
183.0344551282
 21
5.8624399038
 31
0.0
  0
LINE
  5
19C
330
1F
100
AcDbEntity
  8
0
  6
Continuous
 62
     7
370
    15
100
AcDbLine
 10
182.0861528446
 20
8.175
 30
0.0
 11
182.1274939904
 21
8.175
 31
0.0
  0
LINE
  5
19D
330
1F
100
AcDbEntity
  8
0
  6
Continuous
 62
     7
370
    15
100
AcDbLine
 10
181.1620192308
 20
5.8465394631
 30
0.0
 11
182.0861528446
 21
8.175
 31
0.0
  0
LINE
  5
19E
330
1F
100
AcDbEntity
  8
0
  6
Continuous
 62
     7
370
    15
100
AcDbLine
 10
180.540630008
 20
8.175
 30
0.0
 11
181.1620192308
 21
5.8465394631
 31
0.0
  0
LINE
  5
19F
330
1F
100
AcDbEntity
  8
0
  6
Continuous
 62
     7
370
    15
100
AcDbLine
 10
180.2461538462
 20
8.175
 30
0.0
 11
180.540630008
 21
8.175
 31
0.0
  0
LINE
  5
1A0
330
1F
100
AcDbEntity
  8
0
  6
Continuous
 62
     7
370
    15
100
AcDbLine
 10
181.0907852564
 20
5.0
 30
0.0
 11
180.2461538462
 21
8.175
 31
0.0
  0
LINE
  5
1A1
330
1F
100
AcDbEntity
  8
0
  6
Continuous
 62
     7
370
    15
100
AcDbLine
 10
181.1314903846
 20
5.0
 30
0.0
 11
181.0907852564
 21
5.0
 31
0.0
  0
LINE
  5
1A2
330
1F
100
AcDbEntity
  8
0
  6
Continuous
 62
     7
370
    15
100
AcDbLine
 10
170.6397435897
 20
5.2734875801
 30
0.0
 11
170.8286408253
 21
5.4884615385
 31
0.0
  0
LINE
  5
1A3
330
1F
100
AcDbEntity
  8
0
  6
Continuous
 62
     7
370
    15
100
AcDbLine
 10
171.9423076923
 20
7.0308042869
 30
0.0
 11
171.7489583333
 21
6.8317307692
 31
0.0
  0
LINE
  5
1A4
330
1F
100
AcDbEntity
  8
0
  6
Continuous
 62
     7
370
    15
100
AcDbLine
 10
172.7971153846
 20
7.3201923077
 30
0.0
 11
172.7971153846
 21
5.0
 31
0.0
  0
LINE
  5
1A5
330
1F
100
AcDbEntity
  8
0
  6
Continuous
 62
     7
370
    15
100
AcDbLine
 10
172.5121794872
 20
7.3201923077
 30
0.0
 11
172.7971153846
 21
7.3201923077
 31
0.0
  0
LINE
  5
1A6
330
1F
100
AcDbEntity
  8
0
  6
Continuous
 62
     7
370
    15
100
AcDbLine
 10
172.5121794872
 20
5.0
 30
0.0
 11
172.5121794872
 21
7.3201923077
 31
0.0
  0
LINE
  5
1A7
330
1F
100
AcDbEntity
  8
0
  6
Continuous
 62
     7
370
    15
100
AcDbLine
 10
172.7971153846
 20
5.0
 30
0.0
 11
172.5121794872
 21
5.0
 31
0.0
  0
LINE
  5
1A8
330
1F
100
AcDbEntity
  8
0
  6
Continuous
 62
     7
370
    15
100
AcDbLine
 10
173.7740384615
 20
5.8389072516
 30
0.0
 11
173.7740384615
 21
5.0
 31
0.0
  0
LINE
  5
1A9
330
1F
100
AcDbEntity
  8
0
  6
Continuous
 62
     7
370
    15
100
AcDbLine
 10
175.2394230769
 20
5.0
 30
0.0
 11
175.2394230769
 21
6.09140625
 31
0.0
  0
LINE
  5
1AA
330
1F
100
AcDbEntity
  8
0
  6
Continuous
 62
     7
370
    15
100
AcDbLine
 10
175.5243589744
 20
5.0
 30
0.0
 11
175.2394230769
 21
5.0
 31
0.0
  0
LINE
  5
1AB
330
1F
100
AcDbEntity
  8
0
  6
Continuous
 62
     7
370
    15
100
AcDbLine
 10
175.5243589744
 20
6.1849008413
 30
0.0
 11
175.5243589744
 21
5.0
 31
0.0
  0
LINE
  5
1AC
330
1F
100
AcDbEntity
  8
0
  6
Continuous
 62
     7
370
    15
100
AcDbLine
 10
173.7740384615
 20
7.3201923077
 30
0.0
 11
173.7740384615
 21
6.9016927083
 31
0.0
  0
LINE
  5
1AD
330
1F
100
AcDbEntity
  8
0
  6
Continuous
 62
     7
370
    15
100
AcDbLine
 10
173.4891025641
 20
7.3201923077
 30
0.0
 11
173.7740384615
 21
7.3201923077
 31
0.0
  0
LINE
  5
1AE
330
1F
100
AcDbEntity
  8
0
  6
Continuous
 62
     7
370
    15
100
AcDbLine
 10
173.4891025641
 20
5.0
 30
0.0
 11
173.4891025641
 21
7.3201923077
 31
0.0
  0
LINE
  5
1AF
330
1F
100
AcDbEntity
  8
0
  6
Continuous
 62
     7
370
    15
100
AcDbLine
 10
173.7740384615
 20
5.0
 30
0.0
 11
173.4891025641
 21
5.0
 31
0.0
  0
LINE
  5
1B0
330
1F
100
AcDbEntity
  8
0
  6
Continuous
 62
     7
370
    15
100
AcDbLine
 10
169.9070512821
 20
5.0
 30
0.0
 11
169.9070512821
 21
5.4013271234
 31
0.0
  0
LINE
  5
1B1
330
1F
100
AcDbEntity
  8
0
  6
Continuous
 62
     7
370
    15
100
AcDbLine
 10
170.1919871795
 20
5.0
 30
0.0
 11
169.9070512821
 21
5.0
 31
0.0
  0
LINE
  5
1B2
330
1F
100
AcDbEntity
  8
0
  6
Continuous
 62
     7
370
    15
100
AcDbLine
 10
170.1919871795
 20
7.3201923077
 30
0.0
 11
170.1919871795
 21
5.0
 31
0.0
  0
LINE
  5
1B3
330
1F
100
AcDbEntity
  8
0
  6
Continuous
 62
     7
370
    15
100
AcDbLine
 10
169.9070512821
 20
7.3201923077
 30
0.0
 11
170.1919871795
 21
7.3201923077
 31
0.0
  0
LINE
  5
1B4
330
1F
100
AcDbEntity
  8
0
  6
Continuous
 62
     7
370
    15
100
AcDbLine
 10
169.9070512821
 20
6.8908804087
 30
0.0
 11
169.9070512821
 21
7.3201923077
 31
0.0
  0
LINE
  5
1B5
330
1F
100
AcDbEntity
  8
0
  6
Continuous
 62
     7
370
    15
100
AcDbLine
 10
167.0118990385
 20
5.7733974359
 30
0.0
 11
167.2612179487
 21
5.5845002003
 31
0.0
  0
LINE
  5
1B6
330
1F
100
AcDbEntity
  8
0
  6
Continuous
 62
     7
370
    15
100
AcDbLine
 10
167.2612179487
 20
7.5924078526
 30
0.0
 11
167.0118990385
 21
7.4016025641
 31
0.0
  0
ARC
  5
1B7
330
1F
100
AcDbEntity
  8
0
  6
Continuous
 62
     7
370
    15
100
AcDbCircle
 10
5.0
 20
175.0
 30
0.0
 40
5.0
100
AcDbArc
 50
90.0
 51
180.0
  0
ARC
  5
1B8
330
1F
100
AcDbEntity
  8
0
  6
Continuous
 62
     7
370
    15
100
AcDbCircle
 10
334.0
 20
175.0
 30
0.0
 40
5.0
100
AcDbArc
 50
0.0
 51
90.0
  0
ARC
  5
1B9
330
1F
100
AcDbEntity
  8
0
  6
Continuous
 62
     7
370
    15
100
AcDbCircle
 10
334.0
 20
5.0
 30
0.0
 40
5.0
100
AcDbArc
 50
270.0
 51
0.0
  0
ARC
  5
1BA
330
1F
100
AcDbEntity
  8
0
  6
Continuous
 62
     7
370
    15
100
AcDbCircle
 10
5.0
 20
5.0
 30
0.0
 40
4.999999999999986
100
AcDbArc
 50
180.0
 51
270.0
  0
MTEXT
  5
1BC
330
1F
100
AcDbEntity
  8
0
  6
Continuous
 62
     7
100
AcDbMText
 10
0.0
 20
-1.0195663917
 30
0.0
 40
4.83362
 41
0.0
 71
     1
 72
     1
  1
SOLIDWORKS Educational Product.
  7
SLDTEXTSTYLE0
 73
     1
 44
1.0
  0
MTEXT
  5
1BD
330
1F
100
AcDbEntity
  8
0
  6
Continuous
 62
     7
100
AcDbMText
 10
0.0
 20
-8.2699963917
 30
0.0
 40
4.83362
 41
0.0
 71
     1
 72
     1
  1
For Instructional Use Only.
  7
SLDTEXTSTYLE0
 73
     1
 44
1.0
  0
ENDSEC
  0
SECTION
  2
OBJECTS
  0
DICTIONARY
  5
C
330
0
100
AcDbDictionary
281
     1
  3
ACAD_GROUP
350
D
  3
ACAD_LAYOUT
350
1A
  3
ACAD_MLINESTYLE
350
17
  3
ACAD_PLOTSETTINGS
350
19
  3
ACAD_PLOTSTYLENAME
350
E
  3
ACAD_SCALELIST
350
47
  0
DICTIONARY
  5
D
102
{ACAD_REACTORS
330
C
102
}
330
C
100
AcDbDictionary
281
     1
  0
DICTIONARY
  5
1A
102
{ACAD_REACTORS
330
C
102
}
330
C
100
AcDbDictionary
281
     1
  3
Layout1
350
1E
  3
Layout2
350
26
  3
Model
350
22
  0
DICTIONARY
  5
17
102
{ACAD_REACTORS
330
C
102
}
330
C
100
AcDbDictionary
281
     1
  3
Standard
350
18
  0
DICTIONARY
  5
19
102
{ACAD_REACTORS
330
C
102
}
330
C
100
AcDbDictionary
281
     1
  0
ACDBDICTIONARYWDFLT
  5
E
102
{ACAD_REACTORS
330
C
102
}
330
C
100
AcDbDictionary
281
     1
  3
Normal
350
F
100
AcDbDictionaryWithDefault
340
F
  0
DICTIONARY
  5
47
102
{ACAD_REACTORS
330
C
102
}
330
C
100
AcDbDictionary
281
     1
  3
A0
350
48
  3
A1
350
49
  3
A2
350
4A
  3
A3
350
4B
  3
A4
350
4C
  3
A5
350
4D
  3
A6
350
4E
  3
A7
350
4F
  3
A8
350
50
  3
A9
350
51
  3
B0
350
52
  3
B1
350
53
  3
B2
350
54
  3
B3
350
55
  3
B4
350
56
  3
B5
350
57
  3
B6
350
58
  3
B7
350
59
  3
B8
350
5A
  3
B9
350
5B
  3
C0
350
5C
  3
C1
350
5D
  3
C2
350
5E
  3
C3
350
5F
  3
C4
350
60
  3
C5
350
61
  3
C6
350
62
  3
C7
350
63
  3
C8
350
64
  3
C9
350
65
  3
D0
350
66
  3
D1
350
67
  3
D2
350
68
  0
LAYOUT
  5
1E
102
{ACAD_REACTORS
330
1A
102
}
330
1A
100
AcDbPlotSettings
  1

  2
none_device
  4

  6

 40
0.0
 41
0.0
 42
0.0
 43
0.0
 44
0.0
 45
0.0
 46
0.0
 47
0.0
 48
0.0
 49
0.0
140
0.0
141
0.0
142
1.0
143
1.0
 70
   688
 72
     1
 73
     0
 74
     5
  7

 75
    16
147
1.0
148
0.0
149
0.0
100
AcDbLayout
  1
Layout1
 70
     1
 71
     1
 10
0.0
 20
0.0
 11
420.0
 21
297.0
 12
0.0
 22
0.0
 32
0.0
 14
1.0000000000E+20
 24
1.0000000000E+20
 34
1.0000000000E+20
 15
-1.0000000000E+20
 25
-1.0000000000E+20
 35
-1.0000000000E+20
146
0.0
 13
0.0
 23
0.0
 33
0.0
 16
1.0
 26
0.0
 36
0.0
 17
0.0
 27
1.0
 37
0.0
 76
     0
330
1B
  0
LAYOUT
  5
26
102
{ACAD_REACTORS
330
1A
102
}
330
1A
100
AcDbPlotSettings
  1

  2
none_device
  4

  6

 40
0.0
 41
0.0
 42
0.0
 43
0.0
 44
0.0
 45
0.0
 46
0.0
 47
0.0
 48
0.0
 49
0.0
140
0.0
141
0.0
142
1.0
143
1.0
 70
   688
 72
     1
 73
     0
 74
     5
  7

 75
    16
147
1.0
148
0.0
149
0.0
100
AcDbLayout
  1
Layout2
 70
     1
 71
     2
 10
0.0
 20
0.0
 11
0.0
 21
0.0
 12
0.0
 22
0.0
 32
0.0
 14
0.0
 24
0.0
 34
0.0
 15
0.0
 25
0.0
 35
0.0
146
0.0
 13
0.0
 23
0.0
 33
0.0
 16
1.0
 26
0.0
 36
0.0
 17
0.0
 27
1.0
 37
0.0
 76
     0
330
23
  0
LAYOUT
  5
22
102
{ACAD_REACTORS
330
1A
102
}
330
1A
100
AcDbPlotSettings
  1

  2
none_device
  4
ANSI_A_(11.00_x_8.50_Inches)
  6

 40
6.35
 41
19.05
 42
6.35000508
 43
19.05000254
 44
279.4
 45
215.9
 46
-4.95300254
 47
15.4647774911
 48
0.0
 49
0.0
140
0.0
141
0.0
142
0.0321238938
143
1.0
 70
  1696
 72
     0
 73
     0
 74
     0
  7

 75
     0
147
0.0179189148
148
-1300.4909072572
149
0.0
100
AcDbLayout
  1
Model
 70
     1
 71
     0
 10
0.0
 20
0.0
 11
420.0
 21
297.0
 12
0.0
 22
0.0
 32
0.0
 14
0.0
 24
0.0
 34
0.0
 15
339.0
 25
180.0
 35
0.0
146
0.0
 13
0.0
 23
0.0
 33
0.0
 16
1.0
 26
0.0
 36
0.0
 17
0.0
 27
1.0
 37
0.0
 76
     0
330
1F
331
29
  0
MLINESTYLE
  5
18
102
{ACAD_REACTORS
330
17
102
}
330
17
100
AcDbMlineStyle
  2
Standard
 70
     0
  3

 62
   256
 51
90.0
 52
90.0
 71
     2
 49
0.5
 62
   256
  6
BYLAYER
 49
-0.5
 62
   256
  6
BYLAYER
  0
ACDBPLACEHOLDER
  5
F
102
{ACAD_REACTORS
330
E
102
}
330
E
  0
SCALE
  5
48
102
{ACAD_REACTORS
330
47
102
}
330
47
100
AcDbScale
 70
     0
300
1:1
140
1.0
141
1.0
290
     1
  0
SCALE
  5
49
102
{ACAD_REACTORS
330
47
102
}
330
47
100
AcDbScale
 70
     0
300
1:2
140
1.0
141
2.0
290
     0
  0
SCALE
  5
4A
102
{ACAD_REACTORS
330
47
102
}
330
47
100
AcDbScale
 70
     0
300
1:4
140
1.0
141
4.0
290
     0
  0
SCALE
  5
4B
102
{ACAD_REACTORS
330
47
102
}
330
47
100
AcDbScale
 70
     0
300
1:5
140
1.0
141
5.0
290
     0
  0
SCALE
  5
4C
102
{ACAD_REACTORS
330
47
102
}
330
47
100
AcDbScale
 70
     0
300
1:8
140
1.0
141
8.0
290
     0
  0
SCALE
  5
4D
102
{ACAD_REACTORS
330
47
102
}
330
47
100
AcDbScale
 70
     0
300
1:10
140
1.0
141
10.0
290
     0
  0
SCALE
  5
4E
102
{ACAD_REACTORS
330
47
102
}
330
47
100
AcDbScale
 70
     0
300
1:16
140
1.0
141
16.0
290
     0
  0
SCALE
  5
4F
102
{ACAD_REACTORS
330
47
102
}
330
47
100
AcDbScale
 70
     0
300
1:20
140
1.0
141
20.0
290
     0
  0
SCALE
  5
50
102
{ACAD_REACTORS
330
47
102
}
330
47
100
AcDbScale
 70
     0
300
1:30
140
1.0
141
30.0
290
     0
  0
SCALE
  5
51
102
{ACAD_REACTORS
330
47
102
}
330
47
100
AcDbScale
 70
     0
300
1:40
140
1.0
141
40.0
290
     0
  0
SCALE
  5
52
102
{ACAD_REACTORS
330
47
102
}
330
47
100
AcDbScale
 70
     0
300
1:50
140
1.0
141
50.0
290
     0
  0
SCALE
  5
53
102
{ACAD_REACTORS
330
47
102
}
330
47
100
AcDbScale
 70
     0
300
1:100
140
1.0
141
100.0
290
     0
  0
SCALE
  5
54
102
{ACAD_REACTORS
330
47
102
}
330
47
100
AcDbScale
 70
     0
300
2:1
140
2.0
141
1.0
290
     0
  0
SCALE
  5
55
102
{ACAD_REACTORS
330
47
102
}
330
47
100
AcDbScale
 70
     0
300
4:1
140
4.0
141
1.0
290
     0
  0
SCALE
  5
56
102
{ACAD_REACTORS
330
47
102
}
330
47
100
AcDbScale
 70
     0
300
8:1
140
8.0
141
1.0
290
     0
  0
SCALE
  5
57
102
{ACAD_REACTORS
330
47
102
}
330
47
100
AcDbScale
 70
     0
300
10:1
140
10.0
141
1.0
290
     0
  0
SCALE
  5
58
102
{ACAD_REACTORS
330
47
102
}
330
47
100
AcDbScale
 70
     0
300
100:1
140
100.0
141
1.0
290
     0
  0
SCALE
  5
59
102
{ACAD_REACTORS
330
47
102
}
330
47
100
AcDbScale
 70
     0
300
1/128" = 1'-0"
140
0.0078125
141
12.0
290
     0
  0
SCALE
  5
5A
102
{ACAD_REACTORS
330
47
102
}
330
47
100
AcDbScale
 70
     0
300
1/64" = 1'-0"
140
0.015625
141
12.0
290
     0
  0
SCALE
  5
5B
102
{ACAD_REACTORS
330
47
102
}
330
47
100
AcDbScale
 70
     0
300
1/32" = 1'-0"
140
0.03125
141
12.0
290
     0
  0
SCALE
  5
5C
102
{ACAD_REACTORS
330
47
102
}
330
47
100
AcDbScale
 70
     0
300
1/16" = 1'-0"
140
0.0625
141
12.0
290
     0
  0
SCALE
  5
5D
102
{ACAD_REACTORS
330
47
102
}
330
47
100
AcDbScale
 70
     0
300
3/32" = 1'-0"
140
0.09375
141
12.0
290
     0
  0
SCALE
  5
5E
102
{ACAD_REACTORS
330
47
102
}
330
47
100
AcDbScale
 70
     0
300
1/8" = 1'-0"
140
0.125
141
12.0
290
     0
  0
SCALE
  5
5F
102
{ACAD_REACTORS
330
47
102
}
330
47
100
AcDbScale
 70
     0
300
3/16" = 1'-0"
140
0.1875
141
12.0
290
     0
  0
SCALE
  5
60
102
{ACAD_REACTORS
330
47
102
}
330
47
100
AcDbScale
 70
     0
300
1/4" = 1'-0"
140
0.25
141
12.0
290
     0
  0
SCALE
  5
61
102
{ACAD_REACTORS
330
47
102
}
330
47
100
AcDbScale
 70
     0
300
3/8" = 1'-0"
140
0.375
141
12.0
290
     0
  0
SCALE
  5
62
102
{ACAD_REACTORS
330
47
102
}
330
47
100
AcDbScale
 70
     0
300
1/2" = 1'-0"
140
0.5
141
12.0
290
     0
  0
SCALE
  5
63
102
{ACAD_REACTORS
330
47
102
}
330
47
100
AcDbScale
 70
     0
300
3/4" = 1'-0"
140
0.75
141
12.0
290
     0
  0
SCALE
  5
64
102
{ACAD_REACTORS
330
47
102
}
330
47
100
AcDbScale
 70
     0
300
1" = 1'-0"
140
1.0
141
12.0
290
     0
  0
SCALE
  5
65
102
{ACAD_REACTORS
330
47
102
}
330
47
100
AcDbScale
 70
     0
300
1-1/2" = 1'-0"
140
1.5
141
12.0
290
     0
  0
SCALE
  5
66
102
{ACAD_REACTORS
330
47
102
}
330
47
100
AcDbScale
 70
     0
300
3" = 1'-0"
140
3.0
141
12.0
290
     0
  0
SCALE
  5
67
102
{ACAD_REACTORS
330
47
102
}
330
47
100
AcDbScale
 70
     0
300
6" = 1'-0"
140
6.0
141
12.0
290
     0
  0
SCALE
  5
68
102
{ACAD_REACTORS
330
47
102
}
330
47
100
AcDbScale
 70
     0
300
1'-0" = 1'-0"
140
12.0
141
12.0
290
     0
  0
ENDSEC
  0
EOF
