  0
SECTION
  2
HEADER
  9
$ACADVER
  1
AC1015
  9
$ACADMAINTVER
 70
     6
  9
$DWGCODEPAGE
  3
ANSI_1252
  9
$INSBASE
 10
0.0
 20
0.0
 30
0.0
  9
$EXTMIN
 10
0.0
 20
0.0
 30
0.0
  9
$EXTMAX
 10
339.0
 20
180.0
 30
0.0
  9
$LIMMIN
 10
0.0
 20
0.0
  9
$LIMMAX
 10
420.0
 20
297.0
  9
$ORTHOMODE
 70
     0
  9
$REGENMODE
 70
     1
  9
$FILLMODE
 70
     1
  9
$QTEXTMODE
 70
     0
  9
$MIRRTEXT
 70
     1
  9
$LTSCALE
 40
1.0
  9
$ATTMODE
 70
     1
  9
$TEXTSIZE
 40
6.35
  9
$TRACEWID
 40
1.0
  9
$TEXTSTYLE
  7
Standard
  9
$CLAYER
  8
0
  9
$CELTYPE
  6
ByLayer
  9
$CECOLOR
 62
   256
  9
$CELTSCALE
 40
1.0
  9
$DISPSILH
 70
     0
  9
$DIMSCALE
 40
1.0
  9
$DIMASZ
 40
5.9944
  9
$DIMEXO
 40
0.9906
  9
$DIMDLI
 40
3.75
  9
$DIMRND
 40
0.0
  9
$DIMDLE
 40
0.0
  9
$DIMEXE
 40
0.9906
  9
$DIMTP
 40
0.0
  9
$DIMTM
 40
0.0
  9
$DIMTXT
 40
6.35
  9
$DIMCEN
 40
2.5
  9
$DIMTSZ
 40
0.0
  9
$DIMTOL
 70
     0
  9
$DIMLIM
 70
     0
  9
$DIMTIH
 70
     1
  9
$DIMTOH
 70
     1
  9
$DIMSE1
 70
     0
  9
$DIMSE2
 70
     0
  9
$DIMTAD
 70
     1
  9
$DIMZIN
 70
     0
  9
$DIMBLK
  1

  9
$DIMASO
 70
     1
  9
$DIMSHO
 70
     1
  9
$DIMPOST
  1

  9
$DIMAPOST
  1

  9
$DIMALT
 70
     0
  9
$DIMALTD
 70
     3
  9
$DIMALTF
 40
0.0393700787
  9
$DIMLFAC
 40
1.0
  9
$DIMTOFL
 70
     1
  9
$DIMTVP
 40
0.0
  9
$DIMTIX
 70
     0
  9
$DIMSOXD
 70
     0
  9
$DIMSAH
 70
     0
  9
$DIMBLK1
  1

  9
$DIMBLK2
  1

  9
$DIMSTYLE
  2
ISO-25
  9
$DIMCLRD
 70
     0
  9
$DIMCLRE
 70
     0
  9
$DIMCLRT
 70
     0
  9
$DIMTFAC
 40
1.0
  9
$DIMGAP
 40
1.524
  9
$DIMJUST
 70
     0
  9
$DIMSD1
 70
     0
  9
$DIMSD2
 70
     0
  9
$DIMTOLJ
 70
     0
  9
$DIMTZIN
 70
     0
  9
$DIMALTZ
 70
     0
  9
$DIMALTTZ
 70
     0
  9
$DIMUPT
 70
     0
  9
$DIMDEC
 70
     2
  9
$DIMTDEC
 70
     2
  9
$DIMALTU
 70
     2
  9
$DIMALTTD
 70
     3
  9
$DIMTXSTY
  7
Standard
  9
$DIMAUNIT
 70
     0
  9
$DIMADEC
 70
     2
  9
$DIMALTRND
 40
0.0
  9
$DIMAZIN
 70
     0
  9
$DIMDSEP
 70
    44
  9
$DIMATFIT
 70
     3
  9
$DIMFRAC
 70
     0
  9
$DIMLDRBLK
  1

  9
$DIMLUNIT
 70
     2
  9
$DIMLWD
 70
    -2
  9
$DIMLWE
 70
    -2
  9
$DIMTMOVE
 70
     0
  9
$LUNITS
 70
     2
  9
$LUPREC
 70
     2
  9
$SKETCHINC
 40
1.0
  9
$FILLETRAD
 40
10.0
  9
$AUNITS
 70
     0
  9
$AUPREC
 70
     2
  9
$MENU
  1
.
  9
$ELEVATION
 40
0.0
  9
$PELEVATION
 40
0.0
  9
$THICKNESS
 40
0.0
  9
$LIMCHECK
 70
     0
  9
$CHAMFERA
 40
0.0
  9
$CHAMFERB
 40
0.0
  9
$CHAMFERC
 40
0.0
  9
$CHAMFERD
 40
0.0
  9
$SKPOLY
 70
     0
  9
$TDCREATE
 40
2458002.486250405
  9
$TDUCREATE
 40
2458002.444583738
  9
$TDUPDATE
 40
2458002.486277234
  9
$TDUUPDATE
 40
2458002.444610567
  9
$TDINDWG
 40
0.0000000116
  9
$TDUSRTIMER
 40
0.0000000116
  9
$USRTIMER
 70
     1
  9
$ANGBASE
 50
0.0
  9
$ANGDIR
 70
     0
  9
$PDMODE
 70
     0
  9
$PDSIZE
 40
-1.0
  9
$PLINEWID
 40
0.0
  9
$SPLFRAME
 70
     0
  9
$SPLINETYPE
 70
     6
  9
$SPLINESEGS
 70
     8
  9
$HANDSEED
  5
1CB
  9
$SURFTAB1
 70
     6
  9
$SURFTAB2
 70
     6
  9
$SURFTYPE
 70
     6
  9
$SURFU
 70
     6
  9
$SURFV
 70
     6
  9
$UCSBASE
  2

  9
$UCSNAME
  2

  9
$UCSORG
 10
0.0
 20
0.0
 30
0.0
  9
$UCSXDIR
 10
1.0
 20
0.0
 30
0.0
  9
$UCSYDIR
 10
0.0
 20
1.0
 30
0.0
  9
$UCSORTHOREF
  2

  9
$UCSORTHOVIEW
 70
     0
  9
$UCSORGTOP
 10
0.0
 20
0.0
 30
0.0
  9
$UCSORGBOTTOM
 10
0.0
 20
0.0
 30
0.0
  9
$UCSORGLEFT
 10
0.0
 20
0.0
 30
0.0
  9
$UCSORGRIGHT
 10
0.0
 20
0.0
 30
0.0
  9
$UCSORGFRONT
 10
0.0
 20
0.0
 30
0.0
  9
$UCSORGBACK
 10
0.0
 20
0.0
 30
0.0
  9
$PUCSBASE
  2

  9
$PUCSNAME
  2

  9
$PUCSORG
 10
0.0
 20
0.0
 30
0.0
  9
$PUCSXDIR
 10
1.0
 20
0.0
 30
0.0
  9
$PUCSYDIR
 10
0.0
 20
1.0
 30
0.0
  9
$PUCSORTHOREF
  2

  9
$PUCSORTHOVIEW
 70
     0
  9
$PUCSORGTOP
 10
0.0
 20
0.0
 30
0.0
  9
$PUCSORGBOTTOM
 10
0.0
 20
0.0
 30
0.0
  9
$PUCSORGLEFT
 10
0.0
 20
0.0
 30
0.0
  9
$PUCSORGRIGHT
 10
0.0
 20
0.0
 30
0.0
  9
$PUCSORGFRONT
 10
0.0
 20
0.0
 30
0.0
  9
$PUCSORGBACK
 10
0.0
 20
0.0
 30
0.0
  9
$USERI1
 70
     0
  9
$USERI2
 70
     0
  9
$USERI3
 70
     0
  9
$USERI4
 70
     0
  9
$USERI5
 70
     0
  9
$USERR1
 40
0.0
  9
$USERR2
 40
0.0
  9
$USERR3
 40
0.0
  9
$USERR4
 40
0.0
  9
$USERR5
 40
0.0
  9
$WORLDVIEW
 70
     1
  9
$SHADEDGE
 70
     3
  9
$SHADEDIF
 70
    70
  9
$TILEMODE
 70
     1
  9
$MAXACTVP
 70
    64
  9
$PINSBASE
 10
0.0
 20
0.0
 30
0.0
  9
$PLIMCHECK
 70
     0
  9
$PEXTMIN
 10
1.0000000000E+20
 20
1.0000000000E+20
 30
1.0000000000E+20
  9
$PEXTMAX
 10
-1.0000000000E+20
 20
-1.0000000000E+20
 30
-1.0000000000E+20
  9
$PLIMMIN
 10
0.0
 20
0.0
  9
$PLIMMAX
 10
420.0
 20
297.0
  9
$UNITMODE
 70
     0
  9
$VISRETAIN
 70
     1
  9
$PLINEGEN
 70
     0
  9
$PSLTSCALE
 70
     1
  9
$TREEDEPTH
 70
  3020
  9
$CMLSTYLE
  2
Standard
  9
$CMLJUST
 70
     0
  9
$CMLSCALE
 40
20.0
  9
$PROXYGRAPHICS
 70
     1
  9
$MEASUREMENT
 70
     1
  9
$CELWEIGHT
370
    -1
  9
$ENDCAPS
280
     0
  9
$JOINSTYLE
280
     0
  9
$LWDISPLAY
290
     1
  9
$INSUNITS
 70
     4
  9
$HYPERLINKBASE
  1

  9
$STYLESHEET
  1

  9
$XEDIT
290
     1
  9
$CEPSNTYPE
380
     0
  9
$PSTYLEMODE
290
     1
  9
$FINGERPRINTGUID
  2
{7B15A0A7-205D-4FF1-821D-39D15F19CB97}
  9
$VERSIONGUID
  2
{FAEB1C32-E019-11D5-929B-00C0DF256EC4}
  9
$EXTNAMES
290
     1
  9
$PSVPSCALE
 40
0.0
  9
$OLESTARTUP
290
     0
  0
ENDSEC
  0
SECTION
  2
CLASSES
  0
CLASS
  1
ACDBDICTIONARYWDFLT
  2
AcDbDictionaryWithDefault
  3
ObjectDBX Classes
 90
        0
280
     0
281
     0
  0
CLASS
  1
VISUALSTYLE
  2
AcDbVisualStyle
  3
ObjectDBX Classes
 90
     4095
280
     0
281
     0
  0
CLASS
  1
MATERIAL
  2
AcDbMaterial
  3
ObjectDBX Classes
 90
     1153
280
     0
281
     0
  0
CLASS
  1
SCALE
  2
AcDbScale
  3
ObjectDBX Classes
 90
     1153
280
     0
281
     0
  0
CLASS
  1
TABLESTYLE
  2
AcDbTableStyle
  3
ObjectDBX Classes
 90
     4095
280
     0
281
     0
  0
CLASS
  1
MLEADERSTYLE
  2
AcDbMLeaderStyle
  3
ACDB_MLEADERSTYLE_CLASS
 90
     4095
280
     0
281
     0
  0
CLASS
  1
SUN
  2
AcDbSun
  3
SCENEOE
 90
     1153
280
     0
281
     0
  0
CLASS
  1
ACDBPLACEHOLDER
  2
AcDbPlaceHolder
  3
ObjectDBX Classes
 90
        0
280
     0
281
     0
  0
CLASS
  1
LAYOUT
  2
AcDbLayout
  3
ObjectDBX Classes
 90
        0
280
     0
281
     0
  0
ENDSEC
  0
SECTION
  2
TABLES
  0
TABLE
  2
VPORT
  5
8
330
0
100
AcDbSymbolTable
 70
     1
  0
VPORT
  5
29
330
8
100
AcDbSymbolTableRecord
100
AcDbViewportTableRecord
  2
*Active
 70
     0
 10
0.0
 20
0.0
 11
1.0
 21
1.0
 12
169.5
 22
90.0
 13
0.0
 23
0.0
 14
10.0
 24
10.0
 15
10.0
 25
10.0
 16
0.0
 26
0.0
 36
1.0
 17
0.0
 27
0.0
 37
0.0
 40
183.6
 41
1.8833333333
 42
50.0
 43
0.0
 44
0.0
 50
0.0
 51
0.0
 71
     0
 72
   100
 73
     1
 74
     3
 75
     0
 76
     0
 77
     0
 78
     0
281
     0
 65
     1
110
0.0
120
0.0
130
0.0
111
1.0
121
0.0
131
0.0
112
0.0
122
1.0
132
0.0
 79
     0
146
0.0
  0
ENDTAB
  0
TABLE
  2
LTYPE
  5
5
330
0
100
AcDbSymbolTable
 70
     6
  0
LTYPE
  5
14
330
5
100
AcDbSymbolTableRecord
100
AcDbLinetypeTableRecord
  2
ByBlock
 70
     0
  3

 72
    65
 73
     0
 40
0.0
  0
LTYPE
  5
15
330
5
100
AcDbSymbolTableRecord
100
AcDbLinetypeTableRecord
  2
ByLayer
 70
     0
  3

 72
    65
 73
     0
 40
0.0
  0
LTYPE
  5
16
330
5
100
AcDbSymbolTableRecord
100
AcDbLinetypeTableRecord
  2
Continuous
 70
     0
  3
Solid line
 72
    65
 73
     0
 40
0.0
  0
LTYPE
  5
6E
330
5
100
AcDbSymbolTableRecord
100
AcDbLinetypeTableRecord
  2
HIDDEN
 70
     0
  3
Hidden __ __ __ __ __ __ __ __ __ __ __ __ __ __
 72
    65
 73
     2
 40
1.905
 49
1.27
 74
     0
 49
-0.635
 74
     0
  0
LTYPE
  5
6F
330
5
100
AcDbSymbolTableRecord
100
AcDbLinetypeTableRecord
  2
PHANTOM
 70
     0
  3
Phantom ______  __  __  ______  __  __  ______
 72
    65
 73
     6
 40
12.7
 49
6.35
 74
     0
 49
-1.27
 74
     0
 49
1.27
 74
     0
 49
-1.27
 74
     0
 49
1.27
 74
     0
 49
-1.27
 74
     0
  0
LTYPE
  5
70
330
5
100
AcDbSymbolTableRecord
100
AcDbLinetypeTableRecord
  2
CENTER
 70
     0
  3
Center ____ _ ____ _ ____ _ ____ _ ____ _ ____
 72
    65
 73
     4
 40
10.16
 49
6.35
 74
     0
 49
-1.27
 74
     0
 49
1.27
 74
     0
 49
-1.27
 74
     0
  0
LTYPE
  5
71
330
5
100
AcDbSymbolTableRecord
100
AcDbLinetypeTableRecord
  2
CENTERX2
 70
     0
  3
Center (2x) ________  __  ________  __  _____
 72
    65
 73
     4
 40
20.32
 49
12.7
 74
     0
 49
-2.54
 74
     0
 49
2.54
 74
     0
 49
-2.54
 74
     0
  0
LTYPE
  5
72
330
5
100
AcDbSymbolTableRecord
100
AcDbLinetypeTableRecord
  2
DOT2
 70
     0
  3
Dot (.5x) ........................................
 72
    65
 73
     2
 40
0.635
 49
0.0
 74
     0
 49
-0.635
 74
     0
  0
ENDTAB
  0
TABLE
  2
LAYER
  5
2
330
0
100
AcDbSymbolTable
 70
     1
  0
LAYER
  5
10
330
2
100
AcDbSymbolTableRecord
100
AcDbLayerTableRecord
  2
0
 70
     0
 62
     7
  6
Continuous
370
    -3
390
F
  0
ENDTAB
  0
TABLE
  2
STYLE
  5
3
330
0
100
AcDbSymbolTable
 70
     2
  0
STYLE
  5
11
330
3
100
AcDbSymbolTableRecord
100
AcDbTextStyleTableRecord
  2
Standard
 70
     0
 40
0.0
 41
1.0
 50
0.0
 71
     0
 42
6.35
  3
txt
  4

  0
STYLE
  5
1C8
330
3
100
AcDbSymbolTableRecord
100
AcDbTextStyleTableRecord
  2
SLDTEXTSTYLE0
 70
     0
 40
0.0
 41
0.7
 50
0.0
 71
     0
 42
6.35
  3
TXT
  4

  0
ENDTAB
  0
TABLE
  2
VIEW
  5
6
330
0
100
AcDbSymbolTable
 70
     0
  0
ENDTAB
  0
TABLE
  2
UCS
  5
7
330
0
100
AcDbSymbolTable
 70
     0
  0
ENDTAB
  0
TABLE
  2
APPID
  5
9
330
0
100
AcDbSymbolTable
 70
     1
  0
APPID
  5
12
330
9
100
AcDbSymbolTableRecord
100
AcDbRegAppTableRecord
  2
ACAD
 70
     0
  0
ENDTAB
  0
TABLE
  2
DIMSTYLE
  5
A
330
0
100
AcDbSymbolTable
 70
     1
100
AcDbDimStyleTable
  0
DIMSTYLE
105
27
330
A
100
AcDbSymbolTableRecord
100
AcDbDimStyleTableRecord
  2
ISO-25
 70
     0
 41
2.5
 42
0.625
 43
3.75
 44
1.25
 73
     0
 74
     0
 77
     1
 78
     8
140
2.5
141
2.5
143
0.0393700787
147
0.625
171
     3
172
     1
178
     0
271
     2
272
     2
274
     3
278
    44
283
     0
284
     8
340
11
  0
ENDTAB
  0
TABLE
  2
BLOCK_RECORD
  5
1
330
0
100
AcDbSymbolTable
 70
     1
  0
BLOCK_RECORD
  5
1F
330
1
100
AcDbSymbolTableRecord
100
AcDbBlockTableRecord
  2
*Model_Space
340
22
  0
BLOCK_RECORD
  5
1B
330
1
100
AcDbSymbolTableRecord
100
AcDbBlockTableRecord
  2
*Paper_Space
340
1E
  0
BLOCK_RECORD
  5
23
330
1
100
AcDbSymbolTableRecord
100
AcDbBlockTableRecord
  2
*Paper_Space0
340
26
  0
ENDTAB
  0
ENDSEC
  0
SECTION
  2
BLOCKS
  0
BLOCK
  5
20
330
1F
100
AcDbEntity
  8
0
100
AcDbBlockBegin
  2
*Model_Space
 70
     0
 10
0.0
 20
0.0
 30
0.0
  3
*Model_Space
  1

  0
ENDBLK
  5
21
330
1F
100
AcDbEntity
  8
0
100
AcDbBlockEnd
  0
BLOCK
  5
1C
330
1B
100
AcDbEntity
 67
     1
  8
0
100
AcDbBlockBegin
  2
*Paper_Space
 70
     0
 10
0.0
 20
0.0
 30
0.0
  3
*Paper_Space
  1

  0
ENDBLK
  5
1D
330
1B
100
AcDbEntity
 67
     1
  8
0
100
AcDbBlockEnd
  0
BLOCK
  5
24
330
23
100
AcDbEntity
  8
0
100
AcDbBlockBegin
  2
*Paper_Space0
 70
     0
 10
0.0
 20
0.0
 30
0.0
  3
*Paper_Space0
  1

  0
ENDBLK
  5
25
330
23
100
AcDbEntity
  8
0
100
AcDbBlockEnd
  0
ENDSEC
  0
SECTION
  2
ENTITIES
  0
SPLINE
  5
7E
330
1F
100
AcDbEntity
  8
0
  6
Continuous
 62
     7
370
    15
100
AcDbSpline
210
0.0
220
0.0
230
1.0
 70
     8
 71
     3
 72
    15
 73
    11
 74
     0
 42
0.000000001
 43
0.00000001
 40
0.0
 40
0.0
 40
0.0
 40
0.0
 40
0.1261777183170028
 40
0.2488206074857968
 40
0.3715399692351805
 40
0.4999837069108904
 40
0.6272441978754072
 40
0.7492255210763055
 40
0.8722979504176559
 40
1.0
 40
1.0
 40
1.0
 40
1.0
 10
152.9330128205127
 20
5.223878205128207
 30
0.0
 10
152.9319282398365
 20
5.206421755986526
 30
0.0
 10
152.929789462671
 20
5.171997894643066
 30
0.0
 10
152.9159440967254
 20
5.121849710691365
 30
0.0
 10
152.8897294368738
 20
5.076831018779259
 30
0.0
 10
152.8568591218658
 20
5.035735507762803
 30
0.0
 10
152.8162223571379
 20
5.002224860853971
 30
0.0
 10
152.7707728250259
 20
4.977347969561091
 30
0.0
 10
152.7208878979834
 20
4.962205959214691
 30
0.0
 10
152.6861295189461
 20
4.960277103986374
 30
0.0
 10
152.6684294871794
 20
4.959294871794875
 30
0.0
  0
SPLINE
  5
7F
330
1F
100
AcDbEntity
  8
0
  6
Continuous
 62
     7
370
    15
100
AcDbSpline
210
0.0
220
0.0
230
1.0
 70
     8
 71
     3
 72
    15
 73
    11
 74
     0
 42
0.000000001
 43
0.00000001
 40
0.0
 40
0.0
 40
0.0
 40
0.0
 40
0.1275189266999397
 40
0.2499859477487675
 40
0.3717923515057172
 40
0.4988703527764677
 40
0.6259483540471683
 40
0.7484917380160536
 40
0.8709587590649217
 40
1.0
 40
1.0
 40
1.0
 40
1.0
 10
152.6684294871794
 20
5.488461538461539
 30
0.0
 10
152.6861098939364
 20
5.487410915824553
 30
0.0
 10
152.7207702643935
 20
5.485351292971438
 30
0.0
 10
152.77088004508
 20
5.471221024632059
 30
0.0
 10
152.8162323435344
 20
5.446130668347079
 30
0.0
 10
152.8566294513053
 20
5.412690862261718
 30
0.0
 10
152.889927469295
 20
5.372145510707596
 30
0.0
 10
152.9159119887253
 20
5.32715493635412
 30
0.0
 10
152.9299191681676
 20
5.276625634514614
 30
0.0
 10
152.9319637881672
 20
5.241764429369591
 30
0.0
 10
152.9330128205127
 20
5.223878205128207
 30
0.0
  0
SPLINE
  5
80
330
1F
100
AcDbEntity
  8
0
  6
Continuous
 62
     7
370
    15
100
AcDbSpline
210
0.0
220
0.0
230
1.0
 70
     8
 71
     3
 72
    15
 73
    11
 74
     0
 42
0.000000001
 43
0.00000001
 40
0.0
 40
0.0
 40
0.0
 40
0.0
 40
0.1290969581672236
 40
0.2520459672599783
 40
0.3739049644019861
 40
0.5010378352202106
 40
0.6281707060383911
 40
0.7513764634091692
 40
0.8724260133704629
 40
1.0
 40
1.0
 40
1.0
 40
1.0
 10
152.4038461538461
 20
5.223878205128207
 30
0.0
 10
152.4048096295993
 20
5.241793713808701
 30
0.0
 10
152.4066906977638
 20
5.276771545807482
 30
0.0
 10
152.4219086181351
 20
5.326845021876276
 30
0.0
 10
152.4467427532201
 20
5.372354963195964
 30
0.0
 10
152.480311932963
 20
5.412629003736652
 30
0.0
 10
152.5207018299475
 20
5.446363199726287
 30
0.0
 10
152.5663276732162
 20
5.47091483350301
 30
0.0
 10
152.6162563990633
 20
5.485465778842846
 30
0.0
 10
152.6507368431961
 20
5.487445633321417
 30
0.0
 10
152.6684294871794
 20
5.488461538461539
 30
0.0
  0
SPLINE
  5
81
330
1F
100
AcDbEntity
  8
0
  6
Continuous
 62
     7
370
    15
100
AcDbSpline
210
0.0
220
0.0
230
1.0
 70
     8
 71
     3
 72
    15
 73
    11
 74
     0
 42
0.000000001
 43
0.00000001
 40
0.0
 40
0.0
 40
0.0
 40
0.0
 40
0.1277566033101213
 40
0.249414355336553
 40
0.3727964764554144
 40
0.5001113325158477
 40
0.6286099407651168
 40
0.7506433738258063
 40
0.8737683791425136
 40
0.9999999999999999
 40
0.9999999999999999
 40
0.9999999999999999
 40
0.9999999999999999
 10
152.6684294871794
 20
4.959294871794875
 30
0.0
 10
152.6507167013381
 20
4.960241563518361
 30
0.0
 10
152.6161367035346
 20
4.962089753747289
 30
0.0
 10
152.5664379801974
 20
4.977658870871135
 30
0.0
 10
152.5207116587008
 20
5.001991581235169
 30
0.0
 10
152.4800828059109
 20
5.035797991980076
 30
0.0
 10
152.4469371923988
 20
5.076619550631864
 30
0.0
 10
152.4218770236679
 20
5.122159751680789
 30
0.0
 10
152.4068273885463
 20
5.171854341335768
 30
0.0
 10
152.4048481183413
 20
5.206393481626631
 30
0.0
 10
152.4038461538461
 20
5.223878205128207
 30
0.0
  0
SPLINE
  5
95
330
1F
100
AcDbEntity
  8
0
  6
Continuous
 62
     7
370
    15
100
AcDbSpline
210
0.0
220
0.0
230
1.0
 70
     8
 71
     3
 72
    19
 73
    15
 74
     0
 42
0.000000001
 43
0.00000001
 40
0.0
 40
0.0
 40
0.0
 40
0.0
 40
0.0843347219926243
 40
0.1670523184160617
 40
0.2495660772409543
 40
0.3327404818018474
 40
0.4159148863627261
 40
0.4978280095399877
 40
0.5803725886080433
 40
0.6646001210565029
 40
0.7494666931126145
 40
0.8325102339401363
 40
0.9156392816681734
 40
1.0
 40
1.0
 40
1.0
 40
1.0
 10
162.0356971153846
 20
4.918589743589746
 30
0.0
 10
161.9929736797926
 20
4.919976044514413
 30
0.0
 10
161.9083460341715
 20
4.922722063923912
 30
0.0
 10
161.7838562851132
 20
4.947184021852818
 30
0.0
 10
161.6642376908106
 20
4.986832607935892
 30
0.0
 10
161.5503283238442
 20
5.041455560614069
 30
0.0
 10
161.4448089106882
 20
5.110450925863791
 30
0.0
 10
161.3504065119243
 20
5.193510993362057
 30
0.0
 10
161.2675918307177
 20
5.288860293820613
 30
0.0
 10
161.1986719960161
 20
5.396484037417257
 30
0.0
 10
161.1440087177498
 20
5.512135641724841
 30
0.0
 10
161.1030149999658
 20
5.632728633592501
 30
0.0
 10
161.0790698364595
 20
5.757823617015212
 30
0.0
 10
161.0757237884639
 20
5.842624364705812
 30
0.0
 10
161.0740384615384
 20
5.885336538461544
 30
0.0
  0
SPLINE
  5
96
330
1F
100
AcDbEntity
  8
0
  6
Continuous
 62
     7
370
    15
100
AcDbSpline
210
0.0
220
0.0
230
1.0
 70
     8
 71
     3
 72
    19
 73
    15
 74
     0
 42
0.000000001
 43
0.00000001
 40
0.0
 40
0.0
 40
0.0
 40
0.0
 40
0.0859479431441268
 40
0.1691252118806877
 40
0.2503991071860505
 40
0.3322897361388314
 40
0.4133642879158819
 40
0.4941722833711857
 40
0.5760217353866337
 40
0.660756969254004
 40
0.7457831259137403
 40
0.8300435929752084
 40
0.9140275458206809
 40
1.0
 40
1.0
 40
1.0
 40
1.0
 10
163.0278846153846
 20
5.891060697115383
 30
0.0
 10
163.0265936559539
 20
5.846629108535048
 30
0.0
 10
163.0240533533095
 20
5.759198257278456
 30
0.0
 10
162.9987406240623
 20
5.631856530754376
 30
0.0
 10
162.9594072320342
 20
5.510542034520824
 30
0.0
 10
162.9031847598399
 20
5.397191657636635
 30
0.0
 10
162.8333507409904
 20
5.291960755233665
 30
0.0
 10
162.7481903533561
 20
5.198719654458242
 30
0.0
 10
162.6507237603673
 20
5.115561834891674
 30
0.0
 10
162.5405178791612
 20
5.046023330324487
 30
0.0
 10
162.4219153331413
 20
4.98923341976322
 30
0.0
 10
162.2973174497726
 20
4.94844352158802
 30
0.0
 10
162.1679342527363
 20
4.923330660069114
 30
0.0
 10
162.0801186440011
 20
4.920182327649528
 30
0.0
 10
162.0356971153846
 20
4.918589743589746
 30
0.0
  0
SPLINE
  5
97
330
1F
100
AcDbEntity
  8
0
  6
Continuous
 62
     7
370
    15
100
AcDbSpline
210
0.0
220
0.0
230
1.0
 70
     8
 71
     3
 72
    23
 73
    19
 74
     0
 42
0.000000001
 43
0.00000001
 40
0.0
 40
0.0
 40
0.0
 40
0.0
 40
0.0652308037420294
 40
0.1284048960032322
 40
0.1900670715964878
 40
0.2509433657682816
 40
0.3115458328521455
 40
0.3728628021568388
 40
0.4350236738562341
 40
0.4990717247070459
 40
0.5630910750496695
 40
0.6255101063303758
 40
0.686680035929647
 40
0.7472825030135168
 40
0.8085634952159627
 40
0.870742103515985
 40
0.9343409515059121
 40
1.0
 40
1.0
 40
1.0
 40
1.0
 10
162.0859425080128
 20
6.83173076923077
 30
0.0
 10
162.118211843974
 20
6.830863439335324
 30
0.0
 10
162.1817330715304
 20
6.829156126246446
 30
0.0
 10
162.2749935277882
 20
6.816017204547428
 30
0.0
 10
162.3646092054211
 20
6.795311567302425
 30
0.0
 10
162.4502086679671
 20
6.765128877977977
 30
0.0
 10
162.532099158654
 20
6.726573170806479
 30
0.0
 10
162.610750617981
 20
6.680364338480627
 30
0.0
 10
162.6846845842917
 20
6.624116328442675
 30
0.0
 10
162.7548531540052
 20
6.561283118553043
 30
0.0
 10
162.8185591637832
 20
6.491689854046745
 30
0.0
 10
162.8749617284675
 20
6.417847212891958
 30
0.0
 10
162.9223388895406
 20
6.339832127986444
 30
0.0
 10
162.9607780898625
 20
6.2576841138898
 30
0.0
 10
162.9906275154476
 20
6.171529799859882
 30
0.0
 10
163.0123877363086
 20
6.081479416181105
 30
0.0
 10
163.0252506526523
 20
5.987470867070854
 30
0.0
 10
163.026997347801
 20
5.923537093793674
 30
0.0
 10
163.0278846153846
 20
5.891060697115383
 30
0.0
  0
SPLINE
  5
98
330
1F
100
AcDbEntity
  8
0
  6
Continuous
 62
     7
370
    15
100
AcDbSpline
210
0.0
220
0.0
230
1.0
 70
     8
 71
     3
 72
     9
 73
     5
 74
     0
 42
0.000000001
 43
0.00000001
 40
0.0
 40
0.0
 40
0.0
 40
0.0
 40
0.512659336341826
 40
1.0
 40
1.0
 40
1.0
 40
1.0
 10
161.7571213942307
 20
6.801201923076928
 30
0.0
 10
161.8129744312085
 20
6.810104496669828
 30
0.0
 10
161.9219220949267
 20
6.827469973043343
 30
0.0
 10
162.0321997314451
 20
6.830334680700129
 30
0.0
 10
162.0859425080128
 20
6.83173076923077
 30
0.0
  0
SPLINE
  5
9C
330
1F
100
AcDbEntity
  8
0
  6
Continuous
 62
     7
370
    15
100
AcDbSpline
210
0.0
220
0.0
230
1.0
 70
     8
 71
     3
 72
    19
 73
    15
 74
     0
 42
0.000000001
 43
0.00000001
 40
0.0
 40
0.0
 40
0.0
 40
0.0
 40
0.0978181896147146
 40
0.1997260534018264
 40
0.30527635747794
 40
0.4158114905382955
 40
0.4744722311435641
 40
0.5372738797760982
 40
0.603657420559657
 40
0.674298863090122
 40
0.7498344853162265
 40
0.8285984767571072
 40
0.9123777781577869
 40
1.0
 40
1.0
 40
1.0
 40
1.0
 10
161.0740384615384
 20
5.885336538461544
 30
0.0
 10
161.0751102009372
 20
5.918034124659063
 30
0.0
 10
161.077298488016
 20
5.984796348256937
 30
0.0
 10
161.0925778492515
 20
6.085910145034276
 30
0.0
 10
161.1171294845192
 20
6.189370769171989
 30
0.0
 10
161.144625207996
 20
6.277140644791402
 30
0.0
 10
161.1736770113941
 20
6.349042168283317
 30
0.0
 10
161.1978546723057
 20
6.407011763349596
 30
0.0
 10
161.2279482258567
 20
6.466666451212507
 30
0.0
 10
161.2600369359408
 20
6.530051820994698
 30
0.0
 10
161.297009238456
 20
6.59553432064787
 30
0.0
 10
161.3372098632583
 20
6.664208363659233
 30
0.0
 10
161.3817502608655
 20
6.734981769466852
 30
0.0
 10
161.4129742656422
 20
6.78300971801224
 30
0.0
 10
161.4289362980769
 20
6.807562099358982
 30
0.0
  0
SPLINE
  5
9D
330
1F
100
AcDbEntity
  8
0
  6
Continuous
 62
     7
370
    15
100
AcDbSpline
210
0.0
220
0.0
230
1.0
 70
     8
 71
     3
 72
    31
 73
    27
 74
     0
 42
0.000000001
 43
0.00000001
 40
0.0
 40
0.0
 40
0.0
 40
0.0
 40
0.0420341186638456
 40
0.0839054330862327
 40
0.1250689344486244
 40
0.1661584697031391
 40
0.2072102728707282
 40
0.2484907320562537
 40
0.2898781122327914
 40
0.3321695142040849
 40
0.3744758421539223
 40
0.4162249804562081
 40
0.457609586958508
 40
0.4990731704672243
 40
0.5405533615534512
 40
0.5822488491953591
 40
0.6245497501260037
 40
0.6674328009210371
 40
0.7103225433055266
 40
0.752467118569865
 40
0.7940647568438066
 40
0.8352157072950149
 40
0.876228344224686
 40
0.9174461887061485
 40
0.958643140471315
 40
1.0
 40
1.0
 40
1.0
 40
1.0
 10
176.6233974358974
 20
6.167728365384622
 30
0.0
 10
176.6238683938759
 20
6.194038316755246
 30
0.0
 10
176.6248084857444
 20
6.246556317236821
 30
0.0
 10
176.6329283027275
 20
6.324461188266878
 30
0.0
 10
176.6445108745621
 20
6.401322890236302
 30
0.0
 10
176.6628422078657
 20
6.476349175914095
 30
0.0
 10
176.6849062104289
 20
6.55039448644229
 30
0.0
 10
176.712232594106
 20
6.622911900472706
 30
0.0
 10
176.745088182933
 20
6.693923505162819
 30
0.0
 10
176.7822898844252
 20
6.76348188725974
 30
0.0
 10
176.8240947399019
 20
6.83065365223598
 30
0.0
 10
176.8699349189198
 20
6.894449966735245
 30
0.0
 10
176.9198657619983
 20
6.954401379839423
 30
0.0
 10
176.973198428311
 20
7.011112705391468
 30
0.0
 10
177.0305841194814
 20
7.064036774237836
 30
0.0
 10
177.0919931482518
 20
7.113045135239304
 30
0.0
 10
177.1568201896181
 20
7.158959287640931
 30
0.0
 10
177.2252661592572
 20
7.200788857779861
 30
0.0
 10
177.2962749331259
 20
7.237784181408704
 30
0.0
 10
177.3680424678381
 20
7.27154132290464
 30
0.0
 10
177.4415194381783
 20
7.298332988478401
 30
0.0
 10
177.5153359560844
 20
7.321939656889167
 30
0.0
 10
177.5907920216193
 20
7.338663012552884
 30
0.0
 10
177.6669624429769
 20
7.351564617721143
 30
0.0
 10
177.7441079922263
 20
7.359424757508378
 30
0.0
 10
177.7957724041623
 20
7.360405909599798
 30
0.0
 10
177.8216546474359
 20
7.360897435897434
 30
0.0
  0
SPLINE
  5
9E
330
1F
100
AcDbEntity
  8
0
  6
Continuous
 62
     7
370
    15
100
AcDbSpline
210
0.0
220
0.0
230
1.0
 70
     8
 71
     3
 72
    31
 73
    27
 74
     0
 42
0.000000001
 43
0.00000001
 40
0.0
 40
0.0
 40
0.0
 40
0.0
 40
0.0428647590311963
 40
0.0852222575672431
 40
0.127202284143743
 40
0.1690253126086035
 40
0.210882033099713
 40
0.2529626777271269
 40
0.2956282851000583
 40
0.3385532936306125
 40
0.3814632477171867
 40
0.4235815621432683
 40
0.4650661653954531
 40
0.5063122188418699
 40
0.5470395054616204
 40
0.5876758328931725
 40
0.6286747862975607
 40
0.669946464602765
 40
0.7110355744560748
 40
0.7519958286352201
 40
0.7926726074835051
 40
0.8334460178854428
 40
0.874190607042242
 40
0.9154935830294668
 40
0.9574778068391474
 40
1.0
 40
1.0
 40
1.0
 40
1.0
 10
177.8127504006411
 20
5.000000000000004
 30
0.0
 10
177.7862289276659
 20
5.000467202583916
 30
0.0
 10
177.7334998361687
 20
5.001396078887957
 30
0.0
 10
177.6551637440365
 20
5.009522969837879
 30
0.0
 10
177.5779836321243
 20
5.021314686061914
 30
0.0
 10
177.502139500977
 20
5.038624277140011
 30
0.0
 10
177.4275219091234
 20
5.060841771928767
 30
0.0
 10
177.3542541648419
 20
5.088615527794397
 30
0.0
 10
177.2817430371706
 20
5.120016385079196
 30
0.0
 10
177.2113065712532
 20
5.157003142484518
 30
0.0
 10
177.1436462955155
 20
5.198153235136088
 30
0.0
 10
177.0792725489999
 20
5.242729228851675
 30
0.0
 10
177.0185225171134
 20
5.290497818899246
 30
0.0
 10
176.9619744159699
 20
5.341930042857171
 30
0.0
 10
176.9097024211555
 20
5.396951461862989
 30
0.0
 10
176.8610034837059
 20
5.454975542114007
 30
0.0
 10
176.8166828902951
 20
5.516812514620287
 30
0.0
 10
176.7758311729127
 20
5.581334826096781
 30
0.0
 10
176.7404003950742
 20
5.648972235554425
 30
0.0
 10
176.7092995720612
 20
5.718258079263849
 30
0.0
 10
176.6822581832029
 20
5.789044209404167
 30
0.0
 10
176.6606995687704
 20
5.861567616240765
 30
0.0
 10
176.6442339160187
 20
5.935782577997969
 30
0.0
 10
176.6319782101071
 20
6.011567513760308
 30
0.0
 10
176.6250268363909
 20
6.089155793967571
 30
0.0
 10
176.6239428695792
 20
6.141426589308469
 30
0.0
 10
176.6233974358974
 20
6.167728365384622
 30
0.0
  0
SPLINE
  5
9F
330
1F
100
AcDbEntity
  8
0
  6
Continuous
 62
     7
370
    15
100
AcDbSpline
210
0.0
220
0.0
230
1.0
 70
     8
 71
     3
 72
    15
 73
    11
 74
     0
 42
0.000000001
 43
0.00000001
 40
0.0
 40
0.0
 40
0.0
 40
0.0
 40
0.1265607130145269
 40
0.2508952618879493
 40
0.3747192653150372
 40
0.4998264235934755
 40
0.6249635314328793
 40
0.7490394747387521
 40
0.8731801199413541
 40
1.0
 40
1.0
 40
1.0
 40
1.0
 10
178.7400641025641
 20
5.444576322115383
 30
0.0
 10
178.7111433746346
 20
5.410157687301395
 30
0.0
 10
178.6538106255136
 20
5.341925830907771
 30
0.0
 10
178.5547984073288
 20
5.252516346193295
 30
0.0
 10
178.4466516338645
 20
5.175512499419888
 30
0.0
 10
178.3295544203996
 20
5.112358452397256
 30
0.0
 10
178.2063750864413
 20
5.061847445787415
 30
0.0
 10
178.0784477774198
 20
5.026520616968441
 30
0.0
 10
177.9469192702016
 20
5.003696993496481
 30
0.0
 10
177.8577905342892
 20
5.00124107091103
 30
0.0
 10
177.812750400641
 20
5.000000000000004
 30
0.0
  0
SPLINE
  5
A1
330
1F
100
AcDbEntity
  8
0
  6
Continuous
 62
     7
370
    15
100
AcDbSpline
210
0.0
220
0.0
230
1.0
 70
     8
 71
     3
 72
    23
 73
    19
 74
     0
 42
0.000000001
 43
0.00000001
 40
0.0
 40
0.0
 40
0.0
 40
0.0
 40
0.0981712978276953
 40
0.1892644356875805
 40
0.2744630560180384
 40
0.3550231712817346
 40
0.4309204620429262
 40
0.5010860453857559
 40
0.5666076270375989
 40
0.6297208634282989
 40
0.6627106951128602
 40
0.6987655616316113
 40
0.7386105373889598
 40
0.7825812280784425
 40
0.8304087872491277
 40
0.8825778660702764
 40
0.9392286810451782
 40
1.0
 40
1.0
 40
1.0
 40
1.0
 10
177.8216546474359
 20
4.389423076923082
 30
0.0
 10
177.8713360408193
 20
4.39072042618717
 30
0.0
 10
177.9671167943689
 20
4.393221585709261
 30
0.0
 10
178.1048493548601
 20
4.41357981649447
 30
0.0
 10
178.2305747629645
 20
4.447664288549744
 30
0.0
 10
178.3435686592475
 20
4.49538761035874
 30
0.0
 10
178.4424978207065
 20
4.553853336286606
 30
0.0
 10
178.5277801270859
 20
4.619167689501186
 30
0.0
 10
178.5968542261582
 20
4.692810456521562
 30
0.0
 10
178.6433117030659
 20
4.760648237761012
 30
0.0
 10
178.6721902490305
 20
4.821085841128919
 30
0.0
 10
178.6905800638108
 20
4.873112838890456
 30
0.0
 10
178.70552430753
 20
4.931943663627078
 30
0.0
 10
178.7180245887231
 20
4.997381081486118
 30
0.0
 10
178.7283396315674
 20
5.069518584682769
 30
0.0
 10
178.7348736748397
 20
5.148521114887103
 30
0.0
 10
178.7395960896231
 20
5.234209123707672
 30
0.0
 10
178.739904490843
 20
5.293620756226441
 30
0.0
 10
178.7400641025641
 20
5.324368990384618
 30
0.0
  0
SPLINE
  5
A2
330
1F
100
AcDbEntity
  8
0
  6
Continuous
 62
     7
370
    15
100
AcDbSpline
210
0.0
220
0.0
230
1.0
 70
     8
 71
     3
 72
    15
 73
    11
 74
     0
 42
0.000000001
 43
0.00000001
 40
0.0
 40
0.0
 40
0.0
 40
0.0
 40
0.1247164867022962
 40
0.2438053739154991
 40
0.3600615340644481
 40
0.4751119996583978
 40
0.5935250978118936
 40
0.7193501703843508
 40
0.8538547713042718
 40
1.0
 40
1.0
 40
1.0
 40
1.0
 10
176.9490384615385
 20
4.837179487179489
 30
0.0
 10
176.9719548942655
 20
4.800797728443093
 30
0.0
 10
177.0167536983175
 20
4.729675870163
 30
0.0
 10
177.1005269631945
 20
4.637588935850701
 30
0.0
 10
177.1923355592384
 20
4.558891240741395
 30
0.0
 10
177.2952778432698
 20
4.495472181411247
 30
0.0
 10
177.4097821458187
 20
4.447656870639694
 30
0.0
 10
177.5359173539867
 20
4.413570708872758
 30
0.0
 10
177.6747098679891
 20
4.393163381081644
 30
0.0
 10
177.7713371051409
 20
4.390703849968592
 30
0.0
 10
177.8216546474359
 20
4.389423076923082
 30
0.0
  0
SPLINE
  5
A4
330
1F
100
AcDbEntity
  8
0
  6
Continuous
 62
     7
370
    15
100
AcDbSpline
210
0.0
220
0.0
230
1.0
 70
     8
 71
     3
 72
    19
 73
    15
 74
     0
 42
0.000000001
 43
0.00000001
 40
0.0
 40
0.0
 40
0.0
 40
0.0
 40
0.0964914237691135
 40
0.1884736749922993
 40
0.2768399149587987
 40
0.3621365621714228
 40
0.4434367545654548
 40
0.5201655209986108
 40
0.5927096635689897
 40
0.662917334352811
 40
0.7354188002027012
 40
0.8148809699994107
 40
0.903060555739981
 40
0.9999999999999999
 40
0.9999999999999999
 40
0.9999999999999999
 40
0.9999999999999999
 10
177.8490034054487
 20
4.104487179487179
 30
0.0
 10
177.8010293962028
 20
4.105264134472569
 30
0.0
 10
177.7073232669584
 20
4.106781736303675
 30
0.0
 10
177.5707030235946
 20
4.124462780708008
 30
0.0
 10
177.4409500990901
 20
4.149458533424563
 30
0.0
 10
177.319778984798
 20
4.187291314205324
 30
0.0
 10
177.2079553969224
 20
4.233589154889889
 30
0.0
 10
177.1062430241201
 20
4.286743147927153
 30
0.0
 10
177.0155549480147
 20
4.3476934494827
 30
0.0
 10
176.9337999017904
 20
4.417090423171219
 30
0.0
 10
176.8600114593098
 20
4.499607477227968
 30
0.0
 10
176.7905902748275
 20
4.596852142969718
 30
0.0
 10
176.7237692775707
 20
4.710305678128288
 30
0.0
 10
176.6846091560764
 20
4.793574782258586
 30
0.0
 10
176.6641025641025
 20
4.837179487179489
 30
0.0
  0
SPLINE
  5
A5
330
1F
100
AcDbEntity
  8
0
  6
Continuous
 62
     7
370
    15
100
AcDbSpline
210
0.0
220
0.0
230
1.0
 70
     8
 71
     3
 72
    23
 73
    19
 74
     0
 42
0.000000001
 43
0.00000001
 40
0.0
 40
0.0
 40
0.0
 40
0.0
 40
0.0613707062984573
 40
0.1209064680177752
 40
0.179423665000029
 40
0.237606687439777
 40
0.2959384682493643
 40
0.3542182268208507
 40
0.4135370665946777
 40
0.4740867825531828
 40
0.5351211890802668
 40
0.5969876649622163
 40
0.6600198335468003
 40
0.7242774964844803
 40
0.7900118502255273
 40
0.8577476843344293
 40
0.9278290322155331
 40
0.9999999999999999
 40
0.9999999999999999
 40
0.9999999999999999
 40
0.9999999999999999
 10
178.9404096554487
 20
4.767217548076921
 30
0.0
 10
178.930259417452
 20
4.741155404919025
 30
0.0
 10
178.9102624270352
 20
4.689810359892633
 30
0.0
 10
178.8728104595403
 20
4.617026368886945
 30
0.0
 10
178.8308697041147
 20
4.548495000955
 30
0.0
 10
178.7829664374669
 20
4.48459817012864
 30
0.0
 10
178.7293172795238
 20
4.425656642485565
 30
0.0
 10
178.6711862116409
 20
4.370389871710387
 30
0.0
 10
178.6074411094227
 20
4.319967091296645
 30
0.0
 10
178.538118420493
 20
4.275258285746514
 30
0.0
 10
178.464816167518
 20
4.234992886621616
 30
0.0
 10
178.3875764892145
 20
4.200116357819334
 30
0.0
 10
178.3068349344133
 20
4.169739006818773
 30
0.0
 10
178.2218330256056
 20
4.146985327835361
 30
0.0
 10
178.1339034557668
 20
4.127268831321085
 30
0.0
 10
178.0420122147152
 20
4.114437580636232
 30
0.0
 10
177.9466961776133
 20
4.105704463621032
 30
0.0
 10
177.8818850113976
 20
4.10489689513277
 30
0.0
 10
177.8490034054487
 20
4.104487179487179
 30
0.0
  0
SPLINE
  5
A6
330
1F
100
AcDbEntity
  8
0
  6
Continuous
 62
     7
370
    15
100
AcDbSpline
210
0.0
220
0.0
230
1.0
 70
     8
 71
     3
 72
    15
 73
    11
 74
     0
 42
0.000000001
 43
0.00000001
 40
0.0
 40
0.0
 40
0.0
 40
0.0
 40
0.1634452548497624
 40
0.315488712712919
 40
0.4562908239366651
 40
0.5858641495747716
 40
0.7054286858067529
 40
0.8133707129824367
 40
0.9117182381600958
 40
1.0
 40
1.0
 40
1.0
 40
1.0
 10
179.025
 20
5.478921274038457
 30
0.0
 10
179.0247486828107
 20
5.439698598930843
 30
0.0
 10
179.0242635800978
 20
5.363989387976789
 30
0.0
 10
179.0207701990311
 20
5.254516948613647
 30
0.0
 10
179.0134035846954
 20
5.153401285309722
 30
0.0
 10
179.0050499951819
 20
5.060181236446637
 30
0.0
 10
178.993033331092
 20
4.975288893749374
 30
0.0
 10
178.9783590550971
 20
4.898470943795114
 30
0.0
 10
178.9618166890092
 20
4.829653669361639
 30
0.0
 10
178.9472840631756
 20
4.787267563572381
 30
0.0
 10
178.9404096554487
 20
4.767217548076921
 30
0.0
  0
SPLINE
  5
AA
330
1F
100
AcDbEntity
  8
0
  6
Continuous
 62
     7
370
    15
100
AcDbSpline
210
0.0
220
0.0
230
1.0
 70
     8
 71
     3
 72
    15
 73
    11
 74
     0
 42
0.000000001
 43
0.00000001
 40
0.0
 40
0.0
 40
0.0
 40
0.0
 40
0.1209110787487092
 40
0.2387622286387333
 40
0.3547548590848715
 40
0.4703593994502192
 40
0.5891440987928737
 40
0.7163289048363524
 40
0.8524452858576032
 40
1.0
 40
1.0
 40
1.0
 40
1.0
 10
177.8216546474359
 20
7.360897435897434
 30
0.0
 10
177.864336570653
 20
7.359666739420067
 30
0.0
 10
177.9486202542936
 20
7.357236492028712
 30
0.0
 10
178.0726548064964
 20
7.338167310145388
 30
0.0
 10
178.1923452670471
 20
7.307765312319248
 30
0.0
 10
178.3083670384111
 20
7.264208276070717
 30
0.0
 10
178.4216652361052
 20
7.204745027009657
 30
0.0
 10
178.5318664519935
 20
7.12641963845749
 30
0.0
 10
178.6392895237094
 20
7.028529544557766
 30
0.0
 10
178.7055815557062
 20
6.953460874738942
 30
0.0
 10
178.7400641025641
 20
6.914413060897434
 30
0.0
  0
SPLINE
  5
B3
330
1F
100
AcDbEntity
  8
0
  6
Continuous
 62
     7
370
    15
100
AcDbSpline
210
0.0
220
0.0
230
1.0
 70
     8
 71
     3
 72
    23
 73
    19
 74
     0
 42
0.000000001
 43
0.00000001
 40
0.0
 40
0.0
 40
0.0
 40
0.0
 40
0.0611602766365167
 40
0.1203345577262022
 40
0.1781802550631255
 40
0.2352351259863645
 40
0.292682961444179
 40
0.351186248215084
 40
0.4104566095096918
 40
0.4717198544629984
 40
0.5337612027725825
 40
0.5957390238870967
 40
0.6578875151248837
 40
0.7212951802914609
 40
0.7868225145418922
 40
0.8546861538286763
 40
0.9254779862700001
 40
1.0
 40
1.0
 40
1.0
 40
1.0
 10
192.9461538461538
 20
5.901236979166669
 30
0.0
 10
192.9452677072612
 20
5.870242745170382
 30
0.0
 10
192.9435242041643
 20
5.809260721459625
 30
0.0
 10
192.9306609440343
 20
5.719675706545954
 30
0.0
 10
192.9088812541212
 20
5.634064147832921
 30
0.0
 10
192.8788809999188
 20
5.551872303522637
 30
0.0
 10
192.8397266145333
 20
5.473259181538529
 30
0.0
 10
192.7920762468898
 20
5.398135720636493
 30
0.0
 10
192.7352604713176
 20
5.327256720723178
 30
0.0
 10
192.6717034401969
 20
5.259834576908331
 30
0.0
 10
192.5998013510751
 20
5.1992122269644
 30
0.0
 10
192.5222263448239
 20
5.145222978760633
 30
0.0
 10
192.4380014689204
 20
5.100821908127301
 30
0.0
 10
192.3485100172054
 20
5.063523802906866
 30
0.0
 10
192.2527481018733
 20
5.035032987156448
 30
0.0
 10
192.1511457366255
 20
5.01510072369063
 30
0.0
 10
192.0437905485322
 20
5.001670440127615
 30
0.0
 10
191.9701217028811
 20
5.000566261401495
 30
0.0
 10
191.9323417467948
 20
5.000000000000004
 30
0.0
  0
SPLINE
  5
B4
330
1F
100
AcDbEntity
  8
0
  6
Continuous
 62
     7
370
    15
100
AcDbSpline
210
0.0
220
0.0
230
1.0
 70
     8
 71
     3
 72
    19
 73
    15
 74
     0
 42
0.000000001
 43
0.00000001
 40
0.0
 40
0.0
 40
0.0
 40
0.0
 40
0.1060574933034089
 40
0.2029142570846058
 40
0.2903001653958362
 40
0.3702225656250357
 40
0.4463837207709678
 40
0.5213968999648282
 40
0.5982910828464573
 40
0.6761424688569274
 40
0.7555286995560216
 40
0.8348871724576574
 40
0.9166460487466421
 40
1.0
 40
1.0
 40
1.0
 40
1.0
 10
192.3349409054486
 20
6.712795472756411
 30
0.0
 10
192.3710092933382
 20
6.69894793800313
 30
0.0
 10
192.4400170541752
 20
6.672454173730608
 30
0.0
 10
192.5349822225956
 20
6.625613431390412
 30
0.0
 10
192.616801831985
 20
6.574666374106822
 30
0.0
 10
192.6861049572715
 20
6.519029624333609
 30
0.0
 10
192.7453755442316
 20
6.459059488831145
 30
0.0
 10
192.7971307126584
 20
6.393876635191559
 30
0.0
 10
192.8412916735045
 20
6.322630761974215
 30
0.0
 10
192.8791312541675
 20
6.246064697752601
 30
0.0
 10
192.9086576257055
 20
6.164960258600304
 30
0.0
 10
192.930770053241
 20
6.080078197426245
 30
0.0
 10
192.943440524957
 20
5.991722886642806
 30
0.0
 10
192.9452435995451
 20
5.931592578242883
 30
0.0
 10
192.9461538461538
 20
5.901236979166669
 30
0.0
  0
SPLINE
  5
B5
330
1F
100
AcDbEntity
  8
0
  6
Continuous
 62
     7
370
    15
100
AcDbSpline
210
0.0
220
0.0
230
1.0
 70
     8
 71
     3
 72
    15
 73
    11
 74
     0
 42
0.000000001
 43
0.00000001
 40
0.0
 40
0.0
 40
0.0
 40
0.0
 40
0.1305691070873087
 40
0.2565806086940841
 40
0.3805516168036849
 40
0.5036229172007027
 40
0.625739323169781
 40
0.7475485819596104
 40
0.8717661185648548
 40
1.0
 40
1.0
 40
1.0
 40
1.0
 10
192.701923076923
 20
7.388246193910264
 30
0.0
 10
192.7009313716215
 20
7.353182804116676
 30
0.0
 10
192.6989825771818
 20
7.284279936533328
 30
0.0
 10
192.6803473597871
 20
7.183501708826021
 30
0.0
 10
192.6511730391312
 20
7.08757024603264
 30
0.0
 10
192.6106189916754
 20
6.996835653547306
 30
0.0
 10
192.5579121808385
 20
6.913348018765197
 30
0.0
 10
192.4954478489066
 20
6.836433855995749
 30
0.0
 10
192.4200853209327
 20
6.76934968286462
 30
0.0
 10
192.3636218103722
 20
6.731845764122182
 30
0.0
 10
192.3349409054486
 20
6.712795472756411
 30
0.0
  0
SPLINE
  5
B6
330
1F
100
AcDbEntity
  8
0
  6
Continuous
 62
     7
370
    15
100
AcDbSpline
210
0.0
220
0.0
230
1.0
 70
     8
 71
     3
 72
    23
 73
    19
 74
     0
 42
0.000000001
 43
0.00000001
 40
0.0
 40
0.0
 40
0.0
 40
0.0
 40
0.0625940971873276
 40
0.1213229386347557
 40
0.1766801421977573
 40
0.228365095709667
 40
0.276868445836812
 40
0.3218791276660402
 40
0.364098625109889
 40
0.403355696242697
 40
0.4779679481633695
 40
0.5505354613647684
 40
0.6235844567403172
 40
0.6981748822642029
 40
0.773353670340876
 40
0.847281125497735
 40
0.9228183395566709
 40
1.0
 40
1.0
 40
1.0
 40
1.0
 10
191.6931991185897
 20
8.175000000000002
 30
0.0
 10
191.7235235238029
 20
8.174840569278405
 30
0.0
 10
191.7822997681795
 20
8.174531552861158
 30
0.0
 10
191.8677702618385
 20
8.169738998177827
 30
0.0
 10
191.9478245400624
 20
8.163204240502209
 30
0.0
 10
192.0224858192661
 20
8.152835513603533
 30
0.0
 10
192.0917195992922
 20
8.140324401478827
 30
0.0
 10
192.155734527358
 20
8.12517346831118
 30
0.0
 10
192.2143270407727
 20
8.10700646877764
 30
0.0
 10
192.2842793087984
 20
8.078117342231058
 30
0.0
 10
192.36403590831
 20
8.03518846808525
 30
0.0
 10
192.4503944502619
 20
7.971753269700066
 30
0.0
 10
192.5242397245379
 20
7.894163106726582
 30
0.0
 10
192.5879087408921
 20
7.806639555020229
 30
0.0
 10
192.6385283279681
 20
7.710359247788956
 30
0.0
 10
192.6751490476759
 20
7.607616983683632
 30
0.0
 10
192.6983336917512
 20
7.499737974942327
 30
0.0
 10
192.7007180570756
 20
7.425675949295024
 30
0.0
 10
192.701923076923
 20
7.388246193910264
 30
0.0
  0
CIRCLE
  5
CE
330
1F
100
AcDbEntity
  8
0
  6
Continuous
 62
     7
370
    15
100
AcDbCircle
 10
169.5
 20
58.0
 30
0.0
 40
2.000000000000028
  0
SPLINE
  5
DC
330
1F
100
AcDbEntity
  8
0
  6
Continuous
 62
     7
370
    15
100
AcDbSpline
210
0.0
220
0.0
230
1.0
 70
     8
 71
     3
 72
    15
 73
    11
 74
     0
 42
0.000000001
 43
0.00000001
 40
0.0
 40
0.0
 40
0.0
 40
0.0
 40
0.1298621417207362
 40
0.2546535308972849
 40
0.3760145541937065
 40
0.4952552518175966
 40
0.6147977192994417
 40
0.7381055541683285
 40
0.8651963000723482
 40
1.0
 40
1.0
 40
1.0
 40
1.0
 10
186.1051482371794
 20
7.360897435897434
 30
0.0
 10
186.1525009664723
 20
7.359593189855892
 30
0.0
 10
186.2453574337402
 20
7.357035624924054
 30
0.0
 10
186.3811821278609
 20
7.335751579427549
 30
0.0
 10
186.5096739042447
 20
7.299793827079945
 30
0.0
 10
186.631824637872
 20
7.250882953872898
 30
0.0
 10
186.7471956888295
 20
7.185887321062872
 30
0.0
 10
186.8546948246018
 20
7.103899784991444
 30
0.0
 10
186.9554470844596
 20
7.00543742252567
 30
0.0
 10
187.013849206179
 20
6.929808519328589
 30
0.0
 10
187.0439102564102
 20
6.890880408653849
 30
0.0
  0
SPLINE
  5
DD
330
1F
100
AcDbEntity
  8
0
  6
Continuous
 62
     7
370
    15
100
AcDbSpline
210
0.0
220
0.0
230
1.0
 70
     8
 71
     3
 72
    23
 73
    19
 74
     0
 42
0.000000001
 43
0.00000001
 40
0.0
 40
0.0
 40
0.0
 40
0.0
 40
0.0637745323056322
 40
0.1260788099895052
 40
0.1869040927472074
 40
0.2475739349176179
 40
0.3080033561644465
 40
0.3691318984609757
 40
0.4320332277442043
 40
0.496790794437088
 40
0.5616108232295588
 40
0.6249138657484558
 40
0.6867263492419242
 40
0.7480788332577681
 40
0.8095822911398951
 40
0.8716307425688212
 40
0.9348858208285478
 40
0.9999999999999999
 40
0.9999999999999999
 40
0.9999999999999999
 40
0.9999999999999999
 10
184.8865384615384
 20
6.166456330128203
 30
0.0
 10
184.8876750855804
 20
6.206791261223338
 30
0.0
 10
184.8899221299952
 20
6.286531244091578
 30
0.0
 10
184.9066618365646
 20
6.403805491550188
 30
0.0
 10
184.9348113944197
 20
6.516761342358193
 30
0.0
 10
184.9743155133738
 20
6.625035140854038
 30
0.0
 10
185.0249721439474
 20
6.728757900631682
 30
0.0
 10
185.0865926228878
 20
6.828002980466666
 30
0.0
 10
185.1591814002931
 20
6.923043791021502
 30
0.0
 10
185.2428675123723
 20
7.011645546778536
 30
0.0
 10
185.3335226253055
 20
7.093488532580058
 30
0.0
 10
185.4305041169216
 20
7.164616738088575
 30
0.0
 10
185.5313995221198
 20
7.226045593800245
 30
0.0
 10
185.6377738245222
 20
7.274716961592445
 30
0.0
 10
185.7480525553179
 20
7.314095220714911
 30
0.0
 10
185.863217466817
 20
7.341339413206097
 30
0.0
 10
185.9827893989014
 20
7.357393411759533
 30
0.0
 10
186.0639700595599
 20
7.359718204953722
 30
0.0
 10
186.1051482371794
 20
7.360897435897434
 30
0.0
  0
SPLINE
  5
DE
330
1F
100
AcDbEntity
  8
0
  6
Continuous
 62
     7
370
    15
100
AcDbSpline
210
0.0
220
0.0
230
1.0
 70
     8
 71
     3
 72
    23
 73
    19
 74
     0
 42
0.000000001
 43
0.00000001
 40
0.0
 40
0.0
 40
0.0
 40
0.0
 40
0.064619991340761
 40
0.1274334841444646
 40
0.1890041265579311
 40
0.2499300706860425
 40
0.3106684537406677
 40
0.3723289611368265
 40
0.4349391099970016
 40
0.4995755441940359
 40
0.5641912077719244
 40
0.6267352169294734
 40
0.6881093335614032
 40
0.7492936065367489
 40
0.810330527810947
 40
0.8719011702244153
 40
0.935045914684531
 40
0.9999999999999999
 40
0.9999999999999999
 40
0.9999999999999999
 40
0.9999999999999999
 10
186.0962439903846
 20
4.959294871794875
 30
0.0
 10
186.0552702036936
 20
4.960407366639038
 30
0.0
 10
185.9744680821167
 20
4.962601255730364
 30
0.0
 10
185.855605990712
 20
4.97962134544122
 30
0.0
 10
185.74122230728
 20
5.006954123645102
 30
0.0
 10
185.6312089449368
 20
5.044964216255485
 30
0.0
 10
185.5262777844358
 20
5.095383961598713
 30
0.0
 10
185.425530411026
 20
5.155746379464837
 30
0.0
 10
185.3294887546944
 20
5.227629132466591
 30
0.0
 10
185.2396167157771
 20
5.309805415329549
 30
0.0
 10
185.1568562582933
 20
5.399063725131825
 30
0.0
 10
185.0842292467003
 20
5.494264328368567
 30
0.0
 10
185.0236746671178
 20
5.594995561185464
 30
0.0
 10
184.9730378796191
 20
5.699982065070247
 30
0.0
 10
184.9340340528764
 20
5.810032027790387
 30
0.0
 10
184.9068436846567
 20
5.924764887278624
 30
0.0
 10
184.8898434222926
 20
6.044044986846922
 30
0.0
 10
184.8876504400997
 20
6.125270125655072
 30
0.0
 10
184.8865384615384
 20
6.166456330128203
 30
0.0
  0
SPLINE
  5
DF
330
1F
100
AcDbEntity
  8
0
  6
Continuous
 62
     7
370
    15
100
AcDbSpline
210
0.0
220
0.0
230
1.0
 70
     8
 71
     3
 72
    15
 73
    11
 74
     0
 42
0.000000001
 43
0.00000001
 40
0.0
 40
0.0
 40
0.0
 40
0.0
 40
0.1342983790141795
 40
0.2620849753822926
 40
0.3862699121344926
 40
0.5071645966228006
 40
0.6273002357254971
 40
0.7481449416029825
 40
0.8723701771613424
 40
1.0
 40
1.0
 40
1.0
 40
1.0
 10
187.0439102564102
 20
5.401327123397443
 30
0.0
 10
187.011780353485
 20
5.365005491735686
 30
0.0
 10
186.9490784439088
 20
5.294123370821121
 30
0.0
 10
186.8443568583205
 20
5.201520257204495
 30
0.0
 10
186.7333514397945
 20
5.12497706552173
 30
0.0
 10
186.6166009556261
 20
5.063155356279242
 30
0.0
 10
186.4942108348777
 20
5.016716848030345
 30
0.0
 10
186.3664523842771
 20
4.983709403680509
 30
0.0
 10
186.2332734887776
 20
4.96248785320283
 30
0.0
 10
186.1423302812182
 20
4.960368747650213
 30
0.0
 10
186.0962439903846
 20
4.959294871794875
 30
0.0
  0
SPLINE
  5
F2
330
1F
100
AcDbEntity
  8
0
  6
Continuous
 62
     7
370
    15
100
AcDbSpline
210
0.0
220
0.0
230
1.0
 70
     8
 71
     3
 72
    11
 73
     7
 74
     0
 42
0.000000001
 43
0.00000001
 40
0.0
 40
0.0
 40
0.0
 40
0.0
 40
0.2462523706929746
 40
0.4925907964763823
 40
0.740569991118088
 40
1.0
 40
1.0
 40
1.0
 40
1.0
 10
171.3972405849359
 20
6.394786658653839
 30
0.0
 10
171.3807935409619
 20
6.421225895150512
 30
0.0
 10
171.3478937054476
 20
6.474113607571164
 30
0.0
 10
171.3159484963075
 20
6.56238811146384
 30
0.0
 10
171.2939901701119
 20
6.655320413469723
 30
0.0
 10
171.2920285733154
 20
6.719443488483676
 30
0.0
 10
171.2910256410256
 20
6.752228565705135
 30
0.0
  0
SPLINE
  5
F3
330
1F
100
AcDbEntity
  8
0
  6
Continuous
 62
     7
370
    15
100
AcDbSpline
210
0.0
220
0.0
230
1.0
 70
     8
 71
     3
 72
    15
 73
    11
 74
     0
 42
0.000000001
 43
0.00000001
 40
0.0
 40
0.0
 40
0.0
 40
0.0
 40
0.1577616635135714
 40
0.3059502132085292
 40
0.4437754990007189
 40
0.5728243624015222
 40
0.6921541564432541
 40
0.8022957069908391
 40
0.9055643918329922
 40
1.0
 40
1.0
 40
1.0
 40
1.0
 10
171.7972956730769
 20
6.078049879807687
 30
0.0
 10
171.7736676496126
 20
6.091238949246
 30
0.0
 10
171.7278453715279
 20
6.11681676401292
 30
0.0
 10
171.6629417576077
 20
6.156654922533006
 30
0.0
 10
171.6043880862806
 20
6.197174521707149
 30
0.0
 10
171.550775422213
 20
6.236102597312318
 30
0.0
 10
171.5034579384913
 20
6.275491596464705
 30
0.0
 10
171.4626220425289
 20
6.315385246010191
 30
0.0
 10
171.4266599824532
 20
6.354174661953552
 30
0.0
 10
171.4067505446684
 20
6.381658638168364
 30
0.0
 10
171.3972405849359
 20
6.394786658653839
 30
0.0
  0
SPLINE
  5
F4
330
1F
100
AcDbEntity
  8
0
  6
Continuous
 62
     7
370
    15
100
AcDbSpline
210
0.0
220
0.0
230
1.0
 70
     8
 71
     3
 72
    15
 73
    11
 74
     0
 42
0.000000001
 43
0.00000001
 40
0.0
 40
0.0
 40
0.0
 40
0.0
 40
0.0768750740350495
 40
0.1674616757257369
 40
0.2722700232466165
 40
0.3895508405125279
 40
0.5208013683480461
 40
0.6662632933752073
 40
0.8255449152058482
 40
1.0
 40
1.0
 40
1.0
 40
1.0
 10
172.1490134214743
 20
5.838907251602563
 30
0.0
 10
172.1417359636723
 20
5.847103615840233
 30
0.0
 10
172.1258830322269
 20
5.864958257378178
 30
0.0
 10
172.0968043490788
 20
5.890743864631218
 30
0.0
 10
172.0619865169396
 20
5.918536997434582
 30
0.0
 10
172.0210379405653
 20
5.947866367400426
 30
0.0
 10
171.9738760715219
 20
5.97834510220116
 30
0.0
 10
171.920309761704
 20
6.009813300313235
 30
0.0
 10
171.8610728318923
 20
6.043765594421324
 30
0.0
 10
171.8191894734825
 20
6.066280567482734
 30
0.0
 10
171.7972956730769
 20
6.078049879807687
 30
0.0
  0
SPLINE
  5
F5
330
1F
100
AcDbEntity
  8
0
  6
Continuous
 62
     7
370
    15
100
AcDbSpline
210
0.0
220
0.0
230
1.0
 70
     8
 71
     3
 72
    11
 73
     7
 74
     0
 42
0.000000001
 43
0.00000001
 40
0.0
 40
0.0
 40
0.0
 40
0.0
 40
0.2534754346498636
 40
0.5004533151028979
 40
0.7455781350009623
 40
1.0
 40
1.0
 40
1.0
 40
1.0
 10
172.2272435897436
 20
5.617573116987185
 30
0.0
 10
172.2262581655934
 20
5.637811128202067
 30
0.0
 10
172.2243125775191
 20
5.677768372254421
 30
0.0
 10
172.2090333236295
 20
5.735599038773021
 30
0.0
 10
172.1848916647937
 20
5.790453314820615
 30
0.0
 10
172.1611203052157
 20
5.82255678053277
 30
0.0
 10
172.1490134214743
 20
5.838907251602563
 30
0.0
  0
SPLINE
  5
F6
330
1F
100
AcDbEntity
  8
0
  6
Continuous
 62
     7
370
    15
100
AcDbSpline
210
0.0
220
0.0
230
1.0
 70
     8
 71
     3
 72
    15
 73
    11
 74
     0
 42
0.000000001
 43
0.00000001
 40
0.0
 40
0.0
 40
0.0
 40
0.0
 40
0.1340420464623706
 40
0.2618956736507241
 40
0.3878360446910996
 40
0.5176862058208265
 40
0.644508653678213
 40
0.7647182630567263
 40
0.8802907821585008
 40
1.0
 40
1.0
 40
1.0
 40
1.0
 10
171.8176482371795
 20
5.244230769230765
 30
0.0
 10
171.8451509271557
 20
5.245474303211095
 30
0.0
 10
171.8988865698784
 20
5.247903960009682
 30
0.0
 10
171.9758519794784
 20
5.269963036351022
 30
0.0
 10
172.0469163049012
 20
5.304552349792324
 30
0.0
 10
172.1086231969076
 20
5.353614897409001
 30
0.0
 10
172.1611487287333
 20
5.410724595410144
 30
0.0
 10
172.1991835726602
 20
5.475053832204035
 30
0.0
 10
172.2230198175426
 20
5.544714653629254
 30
0.0
 10
172.2258192591805
 20
5.593003956719425
 30
0.0
 10
172.2272435897436
 20
5.617573116987185
 30
0.0
  0
SPLINE
  5
F7
330
1F
100
AcDbEntity
  8
0
  6
Continuous
 62
     7
370
    15
100
AcDbSpline
210
0.0
220
0.0
230
1.0
 70
     8
 71
     3
 72
    15
 73
    11
 74
     0
 42
0.000000001
 43
0.00000001
 40
0.0
 40
0.0
 40
0.0
 40
0.0
 40
0.1474758177483448
 40
0.2859041715443825
 40
0.417171648244417
 40
0.5405007435864905
 40
0.6592377183802414
 40
0.7750060983159595
 40
0.8872285734285907
 40
1.0
 40
1.0
 40
1.0
 40
1.0
 10
171.3578074919872
 20
5.488461538461539
 30
0.0
 10
171.3757438951873
 20
5.469089716354167
 30
0.0
 10
171.4105163248351
 20
5.431534510114439
 30
0.0
 10
171.4661252857867
 20
5.381528858219645
 30
0.0
 10
171.5227123139304
 20
5.3396177051213
 30
0.0
 10
171.5797123510369
 20
5.304562607417157
 30
0.0
 10
171.6379691508877
 20
5.277552063124233
 30
0.0
 10
171.6971562437995
 20
5.258575910077654
 30
0.0
 10
171.7571532427697
 20
5.246380107130355
 30
0.0
 10
171.7974504659776
 20
5.244948379597631
 30
0.0
 10
171.8176482371795
 20
5.244230769230765
 30
0.0
  0
SPLINE
  5
F9
330
1F
100
AcDbEntity
  8
0
  6
Continuous
 62
     7
370
    15
100
AcDbSpline
210
0.0
220
0.0
230
1.0
 70
     8
 71
     3
 72
    15
 73
    11
 74
     0
 42
0.000000001
 43
0.00000001
 40
0.0
 40
0.0
 40
0.0
 40
0.0
 40
0.1267425189618462
 40
0.2517239612496193
 40
0.3772186880262417
 40
0.5046935492516225
 40
0.6314582385934971
 40
0.7554010672029496
 40
0.8777005336014617
 40
1.0
 40
1.0
 40
1.0
 40
1.0
 10
171.8322766426282
 20
4.959294871794875
 30
0.0
 10
171.8001935620523
 20
4.960195392804484
 30
0.0
 10
171.7364731926151
 20
4.961983922159768
 30
0.0
 10
171.6422303759588
 20
4.978771563358311
 30
0.0
 10
171.5501365448844
 20
5.004893099314608
 30
0.0
 10
171.460888619035
 20
5.040921125300899
 30
0.0
 10
171.3764825014357
 20
5.086414986249982
 30
0.0
 10
171.299256591262
 20
5.140900157574679
 30
0.0
 10
171.2289426217441
 20
5.202576798076771
 30
0.0
 10
171.1889210448549
 20
5.249850652777721
 30
0.0
 10
171.1689102564102
 20
5.273487580128203
 30
0.0
  0
SPLINE
  5
FA
330
1F
100
AcDbEntity
  8
0
  6
Continuous
 62
     7
370
    15
100
AcDbSpline
210
0.0
220
0.0
230
1.0
 70
     8
 71
     3
 72
    23
 73
    19
 74
     0
 42
0.000000001
 43
0.00000001
 40
0.0
 40
0.0
 40
0.0
 40
0.0
 40
0.0645481255642519
 40
0.1271991327555141
 40
0.1885973380874271
 40
0.2486395150940183
 40
0.3095246994640547
 40
0.3700369910533547
 40
0.4318892436070759
 40
0.4957042857252937
 40
0.5595193278435191
 40
0.6213715803972432
 40
0.682397107291657
 40
0.7435684819321835
 40
0.8054984835712246
 40
0.8686397008205408
 40
0.9330662250811784
 40
1.0
 40
1.0
 40
1.0
 40
1.0
 10
172.5121794871795
 20
5.629657451923078
 30
0.0
 10
172.5115267672184
 20
5.606734726400997
 30
0.0
 10
172.5102405112308
 20
5.56156299164784
 30
0.0
 10
172.5012978362229
 20
5.495037824704757
 30
0.0
 10
172.4859172505584
 20
5.431415761796759
 30
0.0
 10
172.4649679166116
 20
5.370006467817504
 30
0.0
 10
172.4366792354774
 20
5.311986572593089
 30
0.0
 10
172.4035251623473
 20
5.255892261011446
 30
0.0
 10
172.3637243495584
 20
5.202936952366802
 30
0.0
 10
172.3182843159632
 20
5.153190181348272
 30
0.0
 10
172.2685316178537
 20
5.107755253331264
 30
0.0
 10
172.2154581923472
 20
5.067819238038354
 30
0.0
 10
172.1589986817227
 20
5.034641089293482
 30
0.0
 10
172.0995565118608
 20
5.007186097537391
 30
0.0
 10
172.0369966256665
 20
4.985352749257474
 30
0.0
 10
171.9713092418137
 20
4.970237453048684
 30
0.0
 10
171.9027031573094
 20
4.961190734056098
 30
0.0
 10
171.8560489742191
 20
4.959934816374398
 30
0.0
 10
171.8322766426282
 20
4.959294871794875
 30
0.0
  0
SPLINE
  5
FB
330
1F
100
AcDbEntity
  8
0
  6
Continuous
 62
     7
370
    15
100
AcDbSpline
210
0.0
220
0.0
230
1.0
 70
     8
 71
     3
 72
    11
 73
     7
 74
     0
 42
0.000000001
 43
0.00000001
 40
0.0
 40
0.0
 40
0.0
 40
0.0
 40
0.2488386141270913
 40
0.4952350254576703
 40
0.7433356038750081
 40
1.0
 40
1.0
 40
1.0
 40
1.0
 10
172.4040564903846
 20
5.988371394230765
 30
0.0
 10
172.4205760402513
 20
5.961460014356379
 30
0.0
 10
172.4534530104412
 20
5.907901373773422
 30
0.0
 10
172.4879772950119
 20
5.819710371735995
 30
0.0
 10
172.5079891157622
 20
5.726174415953674
 30
0.0
 10
172.5107669869651
 20
5.662191616276388
 30
0.0
 10
172.5121794871795
 20
5.629657451923078
 30
0.0
  0
SPLINE
  5
FC
330
1F
100
AcDbEntity
  8
0
  6
Continuous
 62
     7
370
    15
100
AcDbSpline
210
0.0
220
0.0
230
1.0
 70
     8
 71
     3
 72
    15
 73
    11
 74
     0
 42
0.000000001
 43
0.00000001
 40
0.0
 40
0.0
 40
0.0
 40
0.0
 40
0.1589891012268003
 40
0.3071145916055757
 40
0.4462131585962054
 40
0.5748760724117431
 40
0.6941521095829485
 40
0.8045811801532387
 40
0.9065933190457658
 40
1.0
 40
1.0
 40
1.0
 40
1.0
 10
171.9861929086538
 20
6.314012419871798
 30
0.0
 10
172.0108795107348
 20
6.30018311517612
 30
0.0
 10
172.0585658971456
 20
6.273469452220431
 30
0.0
 10
172.1263229074417
 20
6.232004221179616
 30
0.0
 10
172.1878154374653
 20
6.190791429160042
 30
0.0
 10
172.2435645074037
 20
6.150271830713941
 30
0.0
 10
172.292497433996
 20
6.10931172937583
 30
0.0
 10
172.3360988496158
 20
6.069481121264
 30
0.0
 10
172.373281223749
 20
6.029576534463551
 30
0.0
 10
172.3941037143868
 20
6.001697209910908
 30
0.0
 10
172.4040564903846
 20
5.988371394230765
 30
0.0
  0
SPLINE
  5
FD
330
1F
100
AcDbEntity
  8
0
  6
Continuous
 62
     7
370
    15
100
AcDbSpline
210
0.0
220
0.0
230
1.0
 70
     8
 71
     3
 72
    15
 73
    11
 74
     0
 42
0.000000001
 43
0.00000001
 40
0.0
 40
0.0
 40
0.0
 40
0.0
 40
0.0834251049856371
 40
0.1775598214659387
 40
0.2839823599504449
 40
0.4022167468072059
 40
0.5335684803800526
 40
0.6761209941988388
 40
0.8316493725539897
 40
1.0
 40
1.0
 40
1.0
 40
1.0
 10
171.654827724359
 20
6.553155048076922
 30
0.0
 10
171.6620517508519
 20
6.544279032289102
 30
0.0
 10
171.6774271807606
 20
6.525387551374731
 30
0.0
 10
171.7062820479181
 20
6.499167627203067
 30
0.0
 10
171.7389596040843
 20
6.470191442389902
 30
0.0
 10
171.77825697617
 20
6.441220168845074
 30
0.0
 10
171.8224811228934
 20
6.41071138955078
 30
0.0
 10
171.8725910450016
 20
6.379866597495246
 30
0.0
 10
171.9269964887968
 20
6.346334583489391
 30
0.0
 10
171.965946759799
 20
6.325067131246115
 30
0.0
 10
171.9861929086538
 20
6.314012419871798
 30
0.0
  0
SPLINE
  5
FE
330
1F
100
AcDbEntity
  8
0
  6
Continuous
 62
     7
370
    15
100
AcDbSpline
210
0.0
220
0.0
230
1.0
 70
     8
 71
     3
 72
    11
 73
     7
 74
     0
 42
0.000000001
 43
0.00000001
 40
0.0
 40
0.0
 40
0.0
 40
0.0
 40
0.2400399314959816
 40
0.4794031936060911
 40
0.7317567388575391
 40
1.0
 40
1.0
 40
1.0
 40
1.0
 10
171.5759615384615
 20
6.763676883012826
 30
0.0
 10
171.5769692038737
 20
6.745341671532401
 30
0.0
 10
171.5789816941025
 20
6.708722935289763
 30
0.0
 10
171.5946268959584
 20
6.654704361734431
 30
0.0
 10
171.61954254715
 20
6.602038334230981
 30
0.0
 10
171.6428290805349
 20
6.56977769775327
 30
0.0
 10
171.654827724359
 20
6.553155048076922
 30
0.0
  0
SPLINE
  5
FF
330
1F
100
AcDbEntity
  8
0
  6
Continuous
 62
     7
370
    15
100
AcDbSpline
210
0.0
220
0.0
230
1.0
 70
     8
 71
     3
 72
    15
 73
    11
 74
     0
 42
0.000000001
 43
0.00000001
 40
0.0
 40
0.0
 40
0.0
 40
0.0
 40
0.1249584925460573
 40
0.2459006286062898
 40
0.3691660295860965
 40
0.4985108411773665
 40
0.6285038663666063
 40
0.7510283288509992
 40
0.8737241742784349
 40
1.0
 40
1.0
 40
1.0
 40
1.0
 10
171.8774338942308
 20
7.075961538461545
 30
0.0
 10
171.8573503048743
 20
7.074986475117479
 30
0.0
 10
171.8178286433466
 20
7.073067688451992
 30
0.0
 10
171.7611995081439
 20
7.053914790934021
 30
0.0
 10
171.708630012592
 20
7.024515435331086
 30
0.0
 10
171.6631304664434
 20
6.98281536310602
 30
0.0
 10
171.6245880709956
 20
6.934950633526269
 30
0.0
 10
171.5964542317861
 20
6.881432538808296
 30
0.0
 10
171.5792493752079
 20
6.823876099160422
 30
0.0
 10
171.5770679397126
 20
6.783934728275542
 30
0.0
 10
171.5759615384615
 20
6.763676883012826
 30
0.0
  0
SPLINE
  5
100
330
1F
100
AcDbEntity
  8
0
  6
Continuous
 62
     7
370
    15
100
AcDbSpline
210
0.0
220
0.0
230
1.0
 70
     8
 71
     3
 72
    15
 73
    11
 74
     0
 42
0.000000001
 43
0.00000001
 40
0.0
 40
0.0
 40
0.0
 40
0.0
 40
0.1582230975562947
 40
0.3050355053581553
 40
0.4413089638879037
 40
0.5659632271047427
 40
0.683525114415045
 40
0.7933341296296075
 40
0.8985175121610308
 40
1.0
 40
1.0
 40
1.0
 40
1.0
 10
172.278125
 20
6.83173076923077
 30
0.0
 10
172.2614421860853
 20
6.851064837691601
 30
0.0
 10
172.2292796848332
 20
6.88833864559113
 30
0.0
 10
172.1782696984954
 20
6.938174413062145
 30
0.0
 10
172.1274482866814
 20
6.980027207674127
 30
0.0
 10
172.0775111486544
 20
7.015362471113271
 30
0.0
 10
172.0272025759942
 20
7.042077054105714
 30
0.0
 10
171.977112943117
 20
7.061575964580139
 30
0.0
 10
171.9271903874642
 20
7.073642602572358
 30
0.0
 10
171.893820198376
 20
7.075197843387712
 30
0.0
 10
171.8774338942308
 20
7.075961538461545
 30
0.0
  0
SPLINE
  5
102
330
1F
100
AcDbEntity
  8
0
  6
Continuous
 62
     7
370
    15
100
AcDbSpline
210
0.0
220
0.0
230
1.0
 70
     8
 71
     3
 72
    15
 73
    11
 74
     0
 42
0.000000001
 43
0.00000001
 40
0.0
 40
0.0
 40
0.0
 40
0.0
 40
0.1057142614175236
 40
0.2134116126389717
 40
0.3261267300734498
 40
0.444451671556852
 40
0.5690610798550746
 40
0.702712204481209
 40
0.8463179465861917
 40
1.0
 40
1.0
 40
1.0
 40
1.0
 10
171.8774338942308
 20
7.360897435897434
 30
0.0
 10
171.9021009803747
 20
7.359895641121953
 30
0.0
 10
171.9518978815919
 20
7.357873258940953
 30
0.0
 10
172.0266052923639
 20
7.341811668178072
 30
0.0
 10
172.1012026812576
 20
7.315383780887835
 30
0.0
 10
172.1758817201568
 20
7.278883769216593
 30
0.0
 10
172.2500953398118
 20
7.231651674668132
 30
0.0
 10
172.3244963455105
 20
7.17456581024116
 30
0.0
 10
172.3999779158451
 20
7.108001740650696
 30
0.0
 10
172.4471097141586
 20
7.05711172901971
 30
0.0
 10
172.4714743589743
 20
7.030804286858968
 30
0.0
  0
SPLINE
  5
103
330
1F
100
AcDbEntity
  8
0
  6
Continuous
 62
     7
370
    15
100
AcDbSpline
210
0.0
220
0.0
230
1.0
 70
     8
 71
     3
 72
    23
 73
    19
 74
     0
 42
0.000000001
 43
0.00000001
 40
0.0
 40
0.0
 40
0.0
 40
0.0
 40
0.0679784896192536
 40
0.1330435352439062
 40
0.1965074380533934
 40
0.2586134167685691
 40
0.3197283376065517
 40
0.3808728540495581
 40
0.4426356023162026
 40
0.5050793035048714
 40
0.567880520058572
 40
0.6288138541554796
 40
0.6889100905404439
 40
0.7487650058898279
 40
0.8093857829631181
 40
0.8708843357532084
 40
0.9340374630736851
 40
1.0
 40
1.0
 40
1.0
 40
1.0
 10
171.2910256410256
 20
6.752228565705135
 30
0.0
 10
171.2915102324966
 20
6.773660176701224
 30
0.0
 10
171.2924586466614
 20
6.815604875809164
 30
0.0
 10
171.3000278934481
 20
6.877235091369894
 30
0.0
 10
171.3138089457473
 20
6.935789488075439
 30
0.0
 10
171.3310944826763
 20
6.992147428090262
 30
0.0
 10
171.3551183509935
 20
7.045217184824482
 30
0.0
 10
171.3838257078034
 20
7.095706462116144
 30
0.0
 10
171.4175600146988
 20
7.143545473446894
 30
0.0
 10
171.4564249999681
 20
7.187998314698199
 30
0.0
 10
171.4991574567247
 20
7.228374632133979
 30
0.0
 10
171.5453262835561
 20
7.263570530365166
 30
0.0
 10
171.5938931305973
 20
7.29360272364478
 30
0.0
 10
171.645063625483
 20
7.31878969075253
 30
0.0
 10
171.6993293402431
 20
7.337840944963495
 30
0.0
 10
171.7563109621343
 20
7.350955858561339
 30
0.0
 10
171.8158931526319
 20
7.359714506816426
 30
0.0
 10
171.8566248883256
 20
7.360497447571126
 30
0.0
 10
171.8774338942308
 20
7.360897435897434
 30
0.0
  0
SPLINE
  5
104
330
1F
100
AcDbEntity
  8
0
  6
Continuous
 62
     7
370
    15
100
AcDbSpline
210
0.0
220
0.0
230
1.0
 70
     8
 71
     3
 72
    15
 73
    11
 74
     0
 42
0.000000001
 43
0.00000001
 40
0.0
 40
0.0
 40
0.0
 40
0.0
 40
0.1201621349925954
 40
0.2375463202768788
 40
0.3574970509273492
 40
0.4849171224652772
 40
0.6133292680851106
 40
0.7401503701286687
 40
0.8673012545632693
 40
1.0
 40
1.0
 40
1.0
 40
1.0
 10
173.4483974358974
 20
8.051612580128209
 30
0.0
 10
173.447415762342
 20
8.035590030473008
 30
0.0
 10
173.4454751098992
 20
8.003915345995399
 30
0.0
 10
173.4299498241285
 20
7.958400839205016
 30
0.0
 10
173.4054367940855
 20
7.916124096330801
 30
0.0
 10
173.3709661586961
 20
7.879411380638274
 30
0.0
 10
173.3304996397873
 20
7.848150675361154
 30
0.0
 10
173.2849168126232
 20
7.824832805068723
 30
0.0
 10
173.2348466557565
 20
7.811080394744124
 30
0.0
 10
173.2002233359215
 20
7.80947412710245
 30
0.0
 10
173.1825420673077
 20
7.80865384615384
 30
0.0
  0
SPLINE
  5
105
330
1F
100
AcDbEntity
  8
0
  6
Continuous
 62
     7
370
    15
100
AcDbSpline
210
0.0
220
0.0
230
1.0
 70
     8
 71
     3
 72
    15
 73
    11
 74
     0
 42
0.000000001
 43
0.00000001
 40
0.0
 40
0.0
 40
0.0
 40
0.0
 40
0.1318992643310725
 40
0.2582840923169958
 40
0.3843411247791206
 40
0.5119796151257091
 40
0.638632008421157
 40
0.7592297631645865
 40
0.8774121680352036
 40
1.0
 40
1.0
 40
1.0
 40
1.0
 10
173.1825420673077
 20
8.297115384615388
 30
0.0
 10
173.2002234752012
 20
8.296295189227823
 30
0.0
 10
173.2348470677726
 20
8.294689089131113
 30
0.0
 10
173.2849152463074
 20
8.28093546349551
 30
0.0
 10
173.330505535833
 20
8.25762217741373
 30
0.0
 10
173.3709439078116
 20
8.226344181168175
 30
0.0
 10
173.4056438335865
 20
8.189560043173019
 30
0.0
 10
173.4299377637127
 20
8.146687593362332
 30
0.0
 10
173.445551865903
 20
8.100370113889573
 30
0.0
 10
173.4474374124763
 20
8.068062140132447
 30
0.0
 10
173.4483974358974
 20
8.051612580128209
 30
0.0
  0
SPLINE
  5
106
330
1F
100
AcDbEntity
  8
0
  6
Continuous
 62
     7
370
    15
100
AcDbSpline
210
0.0
220
0.0
230
1.0
 70
     8
 71
     3
 72
    15
 73
    11
 74
     0
 42
0.000000001
 43
0.00000001
 40
0.0
 40
0.0
 40
0.0
 40
0.0
 40
0.1232898687278012
 40
0.2421490813339797
 40
0.3634374760537327
 40
0.4897453933413586
 40
0.6181148445930247
 40
0.7448937812572656
 40
0.8689322665891801
 40
1.0
 40
1.0
 40
1.0
 40
1.0
 10
172.9192307692308
 20
8.051612580128209
 30
0.0
 10
172.9201933263761
 20
8.068059850839248
 30
0.0
 10
172.9220838493433
 20
8.10036332828007
 30
0.0
 10
172.9376614118404
 20
8.146713822425017
 30
0.0
 10
172.9620270945957
 20
8.18933275620358
 30
0.0
 10
172.9960273200869
 20
8.226548744968573
 30
0.0
 10
173.0365162447607
 20
8.257614246509087
 30
0.0
 10
173.0817252921618
 20
8.28066563687177
 30
0.0
 10
173.1310418408838
 20
8.294791066157673
 30
0.0
 10
173.1650628512449
 20
8.296326509160998
 30
0.0
 10
173.1825420673077
 20
8.297115384615388
 30
0.0
  0
SPLINE
  5
107
330
1F
100
AcDbEntity
  8
0
  6
Continuous
 62
     7
370
    15
100
AcDbSpline
210
0.0
220
0.0
230
1.0
 70
     8
 71
     3
 72
    15
 73
    11
 74
     0
 42
0.000000001
 43
0.00000001
 40
0.0
 40
0.0
 40
0.0
 40
0.0
 40
0.1318667517023361
 40
0.2566614034533459
 40
0.3842132129424812
 40
0.5133652331525995
 40
0.6404431518253858
 40
0.7610850047778733
 40
0.8791455246531521
 40
1.0
 40
1.0
 40
1.0
 40
1.0
 10
173.1825420673077
 20
7.80865384615384
 30
0.0
 10
173.1650629891207
 20
7.809442806640657
 30
0.0
 10
173.1310422471169
 20
7.810978415148496
 30
0.0
 10
173.0817237544208
 20
7.825102645523593
 30
0.0
 10
173.0365221961855
 20
7.848158654693349
 30
0.0
 10
172.9960049574167
 20
7.879206694029694
 30
0.0
 10
172.962231853647
 20
7.916349565088049
 30
0.0
 10
172.9376498013229
 20
7.958375038801299
 30
0.0
 10
172.9221603716123
 20
8.003921914776182
 30
0.0
 10
172.9202148870834
 20
8.0355922370709
 30
0.0
 10
172.9192307692308
 20
8.051612580128209
 30
0.0
  0
SPLINE
  5
10D
330
1F
100
AcDbEntity
  8
0
  6
Continuous
 62
     7
370
    15
100
AcDbSpline
210
0.0
220
0.0
230
1.0
 70
     8
 71
     3
 72
    15
 73
    11
 74
     0
 42
0.000000001
 43
0.00000001
 40
0.0
 40
0.0
 40
0.0
 40
0.0
 40
0.0769954547170535
 40
0.1676150771831752
 40
0.2710523936342355
 40
0.3894595025720755
 40
0.5208428024655765
 40
0.6663987586080743
 40
0.8260936125153153
 40
1.0
 40
1.0
 40
1.0
 40
1.0
 10
174.3470903445512
 20
6.461568509615379
 30
0.0
 10
174.3435165204862
 20
6.445915575416489
 30
0.0
 10
174.335736492448
 20
6.411839956491569
 30
0.0
 10
174.3273334650046
 20
6.355919661764132
 30
0.0
 10
174.3197065930331
 20
6.291231327306954
 30
0.0
 10
174.3133230662862
 20
6.217850439692016
 30
0.0
 10
174.3094174384879
 20
6.135520081549675
 30
0.0
 10
174.305158949986
 20
6.04459185725606
 30
0.0
 10
174.3036085874473
 20
5.944703192818757
 30
0.0
 10
174.3033433805886
 20
5.875160085847001
 30
0.0
 10
174.3032051282051
 20
5.838907251602563
 30
0.0
  0
SPLINE
  5
10E
330
1F
100
AcDbEntity
  8
0
  6
Continuous
 62
     7
370
    15
100
AcDbSpline
210
0.0
220
0.0
230
1.0
 70
     8
 71
     3
 72
    23
 73
    19
 74
     0
 42
0.000000001
 43
0.00000001
 40
0.0
 40
0.0
 40
0.0
 40
0.0
 40
0.0639861098164609
 40
0.1266268580894719
 40
0.1889843719814867
 40
0.2502301939603864
 40
0.3123511629623273
 40
0.3745736184579436
 40
0.4381475308782138
 40
0.5029204126073694
 40
0.5679740951402684
 40
0.6307713337491984
 40
0.6929346089254531
 40
0.7543975343123358
 40
0.8152183520172945
 40
0.8761169254810912
 40
0.9380146047939507
 40
1.0
 40
1.0
 40
1.0
 40
1.0
 10
175.1363882211538
 20
7.075961538461545
 30
0.0
 10
175.1134668224551
 20
7.075529734231048
 30
0.0
 10
175.0681059666607
 20
7.074675204815612
 30
0.0
 10
175.0008413492886
 20
7.066101527323315
 30
0.0
 10
174.9355958493344
 20
7.052078499744818
 30
0.0
 10
174.8717146597461
 20
7.033147664299147
 30
0.0
 10
174.810475446858
 20
7.007146891504293
 30
0.0
 10
174.7499106970017
 20
6.977638105657408
 30
0.0
 10
174.6923009895411
 20
6.940855084785008
 30
0.0
 10
174.6364179078601
 20
6.899860735336078
 30
0.0
 10
174.5844270037749
 20
6.854431740235395
 30
0.0
 10
174.5360505825023
 20
6.806494220311015
 30
0.0
 10
174.4929268069888
 20
6.755444208295963
 30
0.0
 10
174.4538573658386
 20
6.702104255894625
 30
0.0
 10
174.4201313697747
 20
6.645741802854377
 30
0.0
 10
174.3906917827467
 20
6.586900610548618
 30
0.0
 10
174.3657129739
 20
6.525503232686955
 30
0.0
 10
174.3533008171594
 20
6.482890141427625
 30
0.0
 10
174.3470903445512
 20
6.461568509615379
 30
0.0
  0
SPLINE
  5
10F
330
1F
100
AcDbEntity
  8
0
  6
Continuous
 62
     7
370
    15
100
AcDbSpline
210
0.0
220
0.0
230
1.0
 70
     8
 71
     3
 72
    15
 73
    11
 74
     0
 42
0.000000001
 43
0.00000001
 40
0.0
 40
0.0
 40
0.0
 40
0.0
 40
0.1355195283706031
 40
0.2608331631936761
 40
0.3784760291245068
 40
0.4931776464746727
 40
0.609280964928937
 40
0.7299810378566302
 40
0.8592613089300505
 40
1.0
 40
1.0
 40
1.0
 40
1.0
 10
175.7348808092948
 20
6.619300881410259
 30
0.0
 10
175.7252419342855
 20
6.655324599184192
 30
0.0
 10
175.7066900821021
 20
6.724659110379339
 30
0.0
 10
175.660848540267
 20
6.818706558828796
 30
0.0
 10
175.6029599619815
 20
6.898714914931089
 30
0.0
 10
175.532295484343
 20
6.964189512404642
 30
0.0
 10
175.4495376800121
 20
7.015144485701327
 30
0.0
 10
175.3549162005012
 20
7.050499430346593
 30
0.0
 10
175.2493441478914
 20
7.072612188834176
 30
0.0
 10
175.1750905293233
 20
7.074813944305217
 30
0.0
 10
175.1363882211538
 20
7.075961538461545
 30
0.0
  0
SPLINE
  5
110
330
1F
100
AcDbEntity
  8
0
  6
Continuous
 62
     7
370
    15
100
AcDbSpline
210
0.0
220
0.0
230
1.0
 70
     8
 71
     3
 72
    15
 73
    11
 74
     0
 42
0.000000001
 43
0.00000001
 40
0.0
 40
0.0
 40
0.0
 40
0.0
 40
0.1788500194111589
 40
0.3421096489422984
 40
0.4898256633683914
 40
0.6232544282245627
 40
0.7400796760857916
 40
0.8414826730699864
 40
0.9289076721840666
 40
1.0
 40
1.0
 40
1.0
 40
1.0
 10
175.7685897435897
 20
6.09140625
 30
0.0
 10
175.7684144763154
 20
6.12299518218537
 30
0.0
 10
175.7680792198481
 20
6.183419433387474
 30
0.0
 10
175.7670218117841
 20
6.269932761567273
 30
0.0
 10
175.7644729157944
 20
6.348388443404088
 30
0.0
 10
175.7608912319348
 20
6.418598912407577
 30
0.0
 10
175.7556488256691
 20
6.480496749861481
 30
0.0
 10
175.7501854386585
 20
6.5342080223314
 30
0.0
 10
175.7435043525643
 20
6.579664535824037
 30
0.0
 10
175.7375508527899
 20
6.607028574843008
 30
0.0
 10
175.7348808092948
 20
6.619300881410259
 30
0.0
  0
SPLINE
  5
114
330
1F
100
AcDbEntity
  8
0
  6
Continuous
 62
     7
370
    15
100
AcDbSpline
210
0.0
220
0.0
230
1.0
 70
     8
 71
     3
 72
    23
 73
    19
 74
     0
 42
0.000000001
 43
0.00000001
 40
0.0
 40
0.0
 40
0.0
 40
0.0
 40
0.077240423616475
 40
0.1511781404663759
 40
0.2234879838003897
 40
0.2955426441988724
 40
0.3669762546197818
 40
0.4371305254863775
 40
0.5070436156432686
 40
0.5785597335236745
 40
0.6166135446965496
 40
0.6587562369775273
 40
0.7044912261144024
 40
0.7548031149051488
 40
0.8093316253185642
 40
0.8682744554728199
 40
0.9320728834092937
 40
0.9999999999999999
 40
0.9999999999999999
 40
0.9999999999999999
 40
0.9999999999999999
 10
175.1859975961538
 20
7.360897435897434
 30
0.0
 10
175.2289332428167
 20
7.359314294318644
 30
0.0
 10
175.3129686600024
 20
7.356215704373476
 30
0.0
 10
175.4353223299704
 20
7.331707706008467
 30
0.0
 10
175.5495981942434
 20
7.289847367431087
 30
0.0
 10
175.6553887912798
 20
7.23250498927977
 30
0.0
 10
175.750754191973
 20
7.161197688406299
 30
0.0
 10
175.8345060215264
 20
7.078123557810498
 30
0.0
 10
175.9037783959332
 20
6.98256868230393
 30
0.0
 10
175.9502217180829
 20
6.893919819146429
 30
0.0
 10
175.9808156984883
 20
6.815280698627538
 30
0.0
 10
176.0000764618044
 20
6.747928289609295
 30
0.0
 10
176.0164331378427
 20
6.672891109620202
 30
0.0
 10
176.0306133664015
 20
6.590395910978001
 30
0.0
 10
176.0402083178812
 20
6.49986469553479
 30
0.0
 10
176.0477759680561
 20
6.401668574886791
 30
0.0
 10
176.0531994978747
 20
6.295839356508654
 30
0.0
 10
176.0534146784984
 20
6.222645058786835
 30
0.0
 10
176.0535256410256
 20
6.184900841346153
 30
0.0
  0
SPLINE
  5
115
330
1F
100
AcDbEntity
  8
0
  6
Continuous
 62
     7
370
    15
100
AcDbSpline
210
0.0
220
0.0
230
1.0
 70
     8
 71
     3
 72
    15
 73
    11
 74
     0
 42
0.000000001
 43
0.00000001
 40
0.0
 40
0.0
 40
0.0
 40
0.0
 40
0.1409759662687771
 40
0.2735687809631718
 40
0.3989883138042582
 40
0.5199297813924231
 40
0.6381100215247318
 40
0.7565889007405857
 40
0.8768597544106108
 40
1.0
 40
1.0
 40
1.0
 40
1.0
 10
174.3032051282051
 20
6.901692708333337
 30
0.0
 10
174.3336285543606
 20
6.939650035478889
 30
0.0
 10
174.3926662742386
 20
7.013307553073292
 30
0.0
 10
174.4909863479956
 20
7.110118359995671
 30
0.0
 10
174.5948940290025
 20
7.189897242714849
 30
0.0
 10
174.7037529893088
 20
7.253491398650072
 30
0.0
 10
174.8177110056136
 20
7.301430838084919
 30
0.0
 10
174.9360734362231
 20
7.336052789855496
 30
0.0
 10
175.0595489196027
 20
7.356812598602158
 30
0.0
 10
175.143518087338
 20
7.359525164659583
 30
0.0
 10
175.1859975961538
 20
7.360897435897434
 30
0.0
  0
SPLINE
  5
11A
330
1F
100
AcDbEntity
  8
0
  6
Continuous
 62
     7
370
    15
100
AcDbSpline
210
0.0
220
0.0
230
1.0
 70
     8
 71
     3
 72
    15
 73
    11
 74
     0
 42
0.000000001
 43
0.00000001
 40
0.0
 40
0.0
 40
0.0
 40
0.0
 40
0.1298621417207361
 40
0.2546535308972847
 40
0.3760145541937068
 40
0.4952552518175964
 40
0.6147977192994412
 40
0.7381055541683279
 40
0.8651963000723476
 40
1.0
 40
1.0
 40
1.0
 40
1.0
 10
169.4974559294871
 20
7.360897435897434
 30
0.0
 10
169.5448086587799
 20
7.359593189855892
 30
0.0
 10
169.6376651260479
 20
7.357035624924054
 30
0.0
 10
169.7734898201685
 20
7.335751579427549
 30
0.0
 10
169.9019815965525
 20
7.299793827079945
 30
0.0
 10
170.0241323301797
 20
7.250882953872898
 30
0.0
 10
170.1395033811372
 20
7.185887321062872
 30
0.0
 10
170.2470025169094
 20
7.103899784991444
 30
0.0
 10
170.3477547767673
 20
7.00543742252567
 30
0.0
 10
170.4061568984867
 20
6.929808519328589
 30
0.0
 10
170.4362179487179
 20
6.890880408653849
 30
0.0
  0
SPLINE
  5
11B
330
1F
100
AcDbEntity
  8
0
  6
Continuous
 62
     7
370
    15
100
AcDbSpline
210
0.0
220
0.0
230
1.0
 70
     8
 71
     3
 72
    23
 73
    19
 74
     0
 42
0.000000001
 43
0.00000001
 40
0.0
 40
0.0
 40
0.0
 40
0.0
 40
0.0637745323056322
 40
0.1260788099895052
 40
0.1869040927472074
 40
0.2475739349176179
 40
0.3080033561644465
 40
0.3691318984609757
 40
0.4320332277442047
 40
0.496790794437088
 40
0.5616108232295588
 40
0.6249138657484558
 40
0.6867263492419242
 40
0.7480788332577679
 40
0.8095822911398952
 40
0.8716307425688212
 40
0.9348858208285478
 40
0.9999999999999999
 40
0.9999999999999999
 40
0.9999999999999999
 40
0.9999999999999999
 10
168.2788461538461
 20
6.166456330128203
 30
0.0
 10
168.2799827778881
 20
6.206791261223338
 30
0.0
 10
168.2822298223028
 20
6.286531244091578
 30
0.0
 10
168.2989695288723
 20
6.403805491550188
 30
0.0
 10
168.3271190867274
 20
6.516761342358193
 30
0.0
 10
168.3666232056814
 20
6.625035140854038
 30
0.0
 10
168.4172798362551
 20
6.728757900631682
 30
0.0
 10
168.4789003151954
 20
6.828002980466666
 30
0.0
 10
168.5514890926008
 20
6.923043791021502
 30
0.0
 10
168.6351752046799
 20
7.011645546778536
 30
0.0
 10
168.7258303176132
 20
7.093488532580058
 30
0.0
 10
168.8228118092293
 20
7.164616738088575
 30
0.0
 10
168.9237072144275
 20
7.226045593800245
 30
0.0
 10
169.0300815168299
 20
7.274716961592445
 30
0.0
 10
169.1403602476255
 20
7.314095220714911
 30
0.0
 10
169.2555251591247
 20
7.341339413206097
 30
0.0
 10
169.375097091209
 20
7.357393411759533
 30
0.0
 10
169.4562777518676
 20
7.359718204953722
 30
0.0
 10
169.4974559294871
 20
7.360897435897434
 30
0.0
  0
SPLINE
  5
11C
330
1F
100
AcDbEntity
  8
0
  6
Continuous
 62
     7
370
    15
100
AcDbSpline
210
0.0
220
0.0
230
1.0
 70
     8
 71
     3
 72
    23
 73
    19
 74
     0
 42
0.000000001
 43
0.00000001
 40
0.0
 40
0.0
 40
0.0
 40
0.0
 40
0.064619991340761
 40
0.1274334841444646
 40
0.1890041265579311
 40
0.2499300706860425
 40
0.3106684537406677
 40
0.3723289611368265
 40
0.4349391099970016
 40
0.4995755441940359
 40
0.5641912077719244
 40
0.6267352169294734
 40
0.6881093335614032
 40
0.7492936065367485
 40
0.810330527810947
 40
0.8719011702244153
 40
0.935045914684531
 40
0.9999999999999999
 40
0.9999999999999999
 40
0.9999999999999999
 40
0.9999999999999999
 10
169.4885516826922
 20
4.959294871794875
 30
0.0
 10
169.4475778960013
 20
4.960407366639025
 30
0.0
 10
169.3667757744243
 20
4.962601255730364
 30
0.0
 10
169.2479136830197
 20
4.97962134544122
 30
0.0
 10
169.1335299995877
 20
5.006954123645116
 30
0.0
 10
169.0235166372445
 20
5.044964216255485
 30
0.0
 10
168.9185854767435
 20
5.095383961598713
 30
0.0
 10
168.8178381033337
 20
5.155746379464837
 30
0.0
 10
168.721796447002
 20
5.227629132466591
 30
0.0
 10
168.6319244080848
 20
5.309805415329549
 30
0.0
 10
168.549163950601
 20
5.399063725131825
 30
0.0
 10
168.476536939008
 20
5.494264328368567
 30
0.0
 10
168.4159823594254
 20
5.594995561185464
 30
0.0
 10
168.3653455719268
 20
5.699982065070247
 30
0.0
 10
168.326341745184
 20
5.810032027790387
 30
0.0
 10
168.2991513769644
 20
5.924764887278624
 30
0.0
 10
168.2821511146002
 20
6.044044986846908
 30
0.0
 10
168.2799581324074
 20
6.125270125655072
 30
0.0
 10
168.2788461538461
 20
6.166456330128203
 30
0.0
  0
SPLINE
  5
11D
330
1F
100
AcDbEntity
  8
0
  6
Continuous
 62
     7
370
    15
100
AcDbSpline
210
0.0
220
0.0
230
1.0
 70
     8
 71
     3
 72
    15
 73
    11
 74
     0
 42
0.000000001
 43
0.00000001
 40
0.0
 40
0.0
 40
0.0
 40
0.0
 40
0.1342983790141795
 40
0.2620849753822926
 40
0.3862699121344926
 40
0.5071645966228006
 40
0.6273002357254971
 40
0.7481449416029825
 40
0.8723701771613424
 40
1.0
 40
1.0
 40
1.0
 40
1.0
 10
170.4362179487179
 20
5.401327123397443
 30
0.0
 10
170.4040880457927
 20
5.365005491735686
 30
0.0
 10
170.3413861362165
 20
5.294123370821121
 30
0.0
 10
170.2366645506282
 20
5.201520257204481
 30
0.0
 10
170.1256591321022
 20
5.12497706552173
 30
0.0
 10
170.0089086479337
 20
5.063155356279242
 30
0.0
 10
169.8865185271853
 20
5.016716848030345
 30
0.0
 10
169.7587600765847
 20
4.983709403680509
 30
0.0
 10
169.6255811810854
 20
4.96248785320283
 30
0.0
 10
169.5346379735259
 20
4.960368747650213
 30
0.0
 10
169.4885516826922
 20
4.959294871794875
 30
0.0
  0
SPLINE
  5
123
330
1F
100
AcDbEntity
  8
0
  6
Continuous
 62
     7
370
    15
100
AcDbSpline
210
0.0
220
0.0
230
1.0
 70
     8
 71
     3
 72
    15
 73
    11
 74
     0
 42
0.000000001
 43
0.00000001
 40
0.0
 40
0.0
 40
0.0
 40
0.0
 40
0.1243285095938545
 40
0.2471560163611905
 40
0.3687797492913397
 40
0.4907338624016511
 40
0.6136137718478472
 40
0.7389575757222177
 40
0.8673105751912629
 40
1.0
 40
1.0
 40
1.0
 40
1.0
 10
165.0993940304487
 20
5.47383313301282
 30
0.0
 10
165.0672488395596
 20
5.513331211530498
 30
0.0
 10
165.003346542723
 20
5.59185051311499
 30
0.0
 10
164.9215896726444
 20
5.719109938970873
 30
0.0
 10
164.8516058189903
 20
5.851977528451083
 30
0.0
 10
164.7950219479986
 20
5.99115132098571
 30
0.0
 10
164.7507871829227
 20
6.136319022268133
 30
0.0
 10
164.7201428131004
 20
6.287553810340684
 30
0.0
 10
164.7002295718955
 20
6.4447144436241
 30
0.0
 10
164.6979523813583
 20
6.551609244765583
 30
0.0
 10
164.6967948717949
 20
6.605944511217945
 30
0.0
  0
SPLINE
  5
124
330
1F
100
AcDbEntity
  8
0
  6
Continuous
 62
     7
370
    15
100
AcDbSpline
210
0.0
220
0.0
230
1.0
 70
     8
 71
     3
 72
    23
 73
    19
 74
     0
 42
0.000000001
 43
0.00000001
 40
0.0
 40
0.0
 40
0.0
 40
0.0
 40
0.0696628008990818
 40
0.1377495622582694
 40
0.2039167435177793
 40
0.2687798623293398
 40
0.3324137064772213
 40
0.394753540447139
 40
0.4561800316591765
 40
0.516995649196724
 40
0.5773959379659587
 40
0.6371983435092748
 40
0.6969991842614528
 40
0.7567561942255617
 40
0.8165539052726051
 40
0.876947996597868
 40
0.9381317879205976
 40
1.0
 40
1.0
 40
1.0
 40
1.0
 10
166.4089543269231
 20
4.918589743589746
 30
0.0
 10
166.374806143235
 20
4.918827408265352
 30
0.0
 10
166.3072823386473
 20
4.919297360730754
 30
0.0
 10
166.2075884711133
 20
4.926910255453554
 30
0.0
 10
166.1105336371005
 20
4.937296802507624
 30
0.0
 10
166.0163952264928
 20
4.952936064258506
 30
0.0
 10
165.9246595205578
 20
4.971391287021676
 30
0.0
 10
165.8361581331982
 20
4.99613021267456
 30
0.0
 10
165.7500201923731
 20
5.023842670943912
 30
0.0
 10
165.6665917690274
 20
5.056413623205206
 30
0.0
 10
165.5858018984976
 20
5.093167588792677
 30
0.0
 10
165.5079111553281
 20
5.134707074367265
 30
0.0
 10
165.4329553630805
 20
5.180682765881434
 30
0.0
 10
165.3601975884474
 20
5.230081239622875
 30
0.0
 10
165.2907126375423
 20
5.284489220605357
 30
0.0
 10
165.2238983681199
 20
5.343151096190796
 30
0.0
 10
165.1593801218233
 20
5.405869148800951
 30
0.0
 10
165.1194634004379
 20
5.451094622904384
 30
0.0
 10
165.0993940304487
 20
5.47383313301282
 30
0.0
  0
SPLINE
  5
125
330
1F
100
AcDbEntity
  8
0
  6
Continuous
 62
     7
370
    15
100
AcDbSpline
210
0.0
220
0.0
230
1.0
 70
     8
 71
     3
 72
    23
 73
    19
 74
     0
 42
0.000000001
 43
0.00000001
 40
0.0
 40
0.0
 40
0.0
 40
0.0
 40
0.0616742388774242
 40
0.1230530616347959
 40
0.1834750007317033
 40
0.2437265005106047
 40
0.3042789165122448
 40
0.3648629209606792
 40
0.4259462039686134
 40
0.4873912299654077
 40
0.549220384075476
 40
0.6111435886925968
 40
0.6735285303101505
 40
0.7369614566573004
 40
0.8007852828728471
 40
0.8660125956416248
 40
0.9321007477905874
 40
0.9999999999999999
 40
0.9999999999999999
 40
0.9999999999999999
 40
0.9999999999999999
 10
167.7903846153846
 20
5.584500200320516
 30
0.0
 10
167.7703203299925
 20
5.558611747504369
 30
0.0
 10
167.7302878660017
 20
5.506958846098545
 30
0.0
 10
167.6654652363069
 20
5.434140937991702
 30
0.0
 10
167.5971779736693
 20
5.365647991503228
 30
0.0
 10
167.5249188653059
 20
5.302032220818279
 30
0.0
 10
167.4495191543639
 20
5.242020669876737
 30
0.0
 10
167.3696249853083
 20
5.187318294362364
 30
0.0
 10
167.2862866486787
 20
5.137161563620499
 30
0.0
 10
167.1997865142428
 20
5.091235710670245
 30
0.0
 10
167.1102164869174
 20
5.050489350869464
 30
0.0
 10
167.0176838923629
 20
5.01560629008671
 30
0.0
 10
166.9225875845842
 20
4.985557283153627
 30
0.0
 10
166.8249232162391
 20
4.960835883411244
 30
0.0
 10
166.7244882082603
 20
4.941539971611758
 30
0.0
 10
166.6216449924758
 20
4.92864069514544
 30
0.0
 10
166.51617160567
 20
4.919803387050975
 30
0.0
 10
166.4450140307916
 20
4.918997920558291
 30
0.0
 10
166.4089543269231
 20
4.918589743589746
 30
0.0
  0
SPLINE
  5
127
330
1F
100
AcDbEntity
  8
0
  6
Continuous
 62
     7
370
    15
100
AcDbSpline
210
0.0
220
0.0
230
1.0
 70
     8
 71
     3
 72
    15
 73
    11
 74
     0
 42
0.000000001
 43
0.00000001
 40
0.0
 40
0.0
 40
0.0
 40
0.0
 40
0.128515189511656
 40
0.2529486363526459
 40
0.3747547340060057
 40
0.4959397538670409
 40
0.6171806414298932
 40
0.740909469278127
 40
0.8678111481861991
 40
1.0
 40
1.0
 40
1.0
 40
1.0
 10
166.4070462740385
 20
5.244230769230765
 30
0.0
 10
166.4624751419112
 20
5.245762733719086
 30
0.0
 10
166.5715724135743
 20
5.248778006308533
 30
0.0
 10
166.7315634088982
 20
5.274322468012863
 30
0.0
 10
166.8847215677185
 20
5.315740722048906
 30
0.0
 10
167.0310551283669
 20
5.373705265867029
 30
0.0
 10
167.1701515574242
 20
5.449057348464501
 30
0.0
 10
167.3022285278472
 20
5.540404708684096
 30
0.0
 10
167.4273975239473
 20
5.648616267688353
 30
0.0
 10
167.502664329976
 20
5.731241676893095
 30
0.0
 10
167.5410657051282
 20
5.773397435897443
 30
0.0
  0
SPLINE
  5
128
330
1F
100
AcDbEntity
  8
0
  6
Continuous
 62
     7
370
    15
100
AcDbSpline
210
0.0
220
0.0
230
1.0
 70
     8
 71
     3
 72
    23
 73
    19
 74
     0
 42
0.000000001
 43
0.00000001
 40
0.0
 40
0.0
 40
0.0
 40
0.0
 40
0.0643232165798418
 40
0.1262901037035565
 40
0.1867264692161324
 40
0.2461464323353439
 40
0.3055756426461343
 40
0.3654293856180515
 40
0.426326308948259
 40
0.4888399064006337
 40
0.5517249718140392
 40
0.6139185964661512
 40
0.6754837657683903
 40
0.7373338970992832
 40
0.8002290443945284
 40
0.8645022981233188
 40
0.931040739155688
 40
1.0
 40
1.0
 40
1.0
 40
1.0
 10
164.9817307692308
 20
6.584319911858982
 30
0.0
 10
164.9828754193453
 20
6.537392214500503
 30
0.0
 10
164.9851227880149
 20
6.445255905387095
 30
0.0
 10
165.0051237767879
 20
6.310299708681827
 30
0.0
 10
165.0355176810283
 20
6.181013097466867
 30
0.0
 10
165.0810703829629
 20
6.058204240513398
 30
0.0
 10
165.1372398073999
 20
5.940358801417897
 30
0.0
 10
165.2082152192654
 20
5.829470698684947
 30
0.0
 10
165.2904173638744
 20
5.723864243735194
 30
0.0
 10
165.3850091586712
 20
5.626035283991943
 30
0.0
 10
165.4887915774615
 20
5.536669261757249
 30
0.0
 10
165.6001414686931
 20
5.457974091386264
 30
0.0
 10
165.7187815011829
 20
5.392374162291769
 30
0.0
 10
165.843401729995
 20
5.337785982237691
 30
0.0
 10
165.9749611333355
 20
5.295824522150147
 30
0.0
 10
166.1132231326681
 20
5.266284210115046
 30
0.0
 10
166.2578870140735
 20
5.247014517766588
 30
0.0
 10
166.3567378268309
 20
5.245169672161001
 30
0.0
 10
166.4070462740385
 20
5.244230769230765
 30
0.0
  0
SPLINE
  5
129
330
1F
100
AcDbEntity
  8
0
  6
Continuous
 62
     7
370
    15
100
AcDbSpline
210
0.0
220
0.0
230
1.0
 70
     8
 71
     3
 72
    31
 73
    27
 74
     0
 42
0.000000001
 43
0.00000001
 40
0.0
 40
0.0
 40
0.0
 40
0.0
 40
0.0439549089061966
 40
0.0875018747976114
 40
0.1304626267314922
 40
0.1727520205665185
 40
0.2154030673796049
 40
0.2576498297432459
 40
0.3001527489572958
 40
0.3431214895020865
 40
0.3859251632064358
 40
0.4276857274028032
 40
0.4688179504865863
 40
0.5094918001549932
 40
0.5498830310733527
 40
0.5899800229668852
 40
0.6304052300068387
 40
0.6708686260826415
 40
0.711383943838174
 40
0.7516272580635832
 40
0.7917755768651897
 40
0.8324589188037428
 40
0.8733190450172867
 40
0.9145429556263481
 40
0.9569235582098847
 40
1.0
 40
1.0
 40
1.0
 40
1.0
 10
166.3873297275641
 20
7.930769230769227
 30
0.0
 10
166.3555041631624
 20
7.930402779063872
 30
0.0
 10
166.292148405616
 20
7.929673276670643
 30
0.0
 10
166.1981244332263
 20
7.920049284520461
 30
0.0
 10
166.1058561654142
 20
7.906522686837169
 30
0.0
 10
166.0154036210587
 20
7.886451857913049
 30
0.0
 10
165.9268819372409
 20
7.861076696321315
 30
0.0
 10
165.8397124010815
 20
7.83075507083339
 30
0.0
 10
165.7551570712655
 20
7.793240323246159
 30
0.0
 10
165.6720462408855
 20
7.751776401713817
 30
0.0
 10
165.5924179566254
 20
7.704942933982384
 30
0.0
 10
165.5170751632846
 20
7.653858679061293
 30
0.0
 10
165.4462926495275
 20
7.599095284433768
 30
0.0
 10
165.3800144228067
 20
7.540447495076763
 30
0.0
 10
165.3181727268166
 20
7.478179430931125
 30
0.0
 10
165.2612156663005
 20
7.411627492489581
 30
0.0
 10
165.2093403298455
 20
7.341004449370359
 30
0.0
 10
165.1615184571094
 20
7.267241572513877
 30
0.0
 10
165.1186897632805
 20
7.190553718673637
 30
0.0
 10
165.0828305155472
 20
7.110657047633001
 30
0.0
 10
165.0510758689751
 20
7.028919754169097
 30
0.0
 10
165.0259486988604
 20
6.944418343988776
 30
0.0
 10
165.0060600300206
 20
6.857747406402409
 30
0.0
 10
164.9923370783367
 20
6.768674334476351
 30
0.0
 10
164.9828225366105
 20
6.677385210841713
 30
0.0
 10
164.9820966618506
 20
6.615509620112911
 30
0.0
 10
164.9817307692308
 20
6.584319911858982
 30
0.0
  0
SPLINE
  5
12A
330
1F
100
AcDbEntity
  8
0
  6
Continuous
 62
     7
370
    15
100
AcDbSpline
210
0.0
220
0.0
230
1.0
 70
     8
 71
     3
 72
    19
 73
    15
 74
     0
 42
0.000000001
 43
0.00000001
 40
0.0
 40
0.0
 40
0.0
 40
0.0
 40
0.0631632593634664
 40
0.1254749410306429
 40
0.187121219816036
 40
0.2482943461142971
 40
0.3092948562551239
 40
0.3698500660670965
 40
0.4309733755473781
 40
0.4924559896728182
 40
0.6161479662918499
 40
0.7408436984673723
 40
0.8681826486700481
 40
1.0
 40
1.0
 40
1.0
 40
1.0
 10
167.5410657051282
 20
7.401602564102563
 30
0.0
 10
167.5232803635479
 20
7.422798836735092
 30
0.0
 10
167.4879494653568
 20
7.464905610284108
 30
0.0
 10
167.4311086173529
 20
7.524032768486316
 30
0.0
 10
167.37187069844
 20
7.579427684205498
 30
0.0
 10
167.3102583527654
 20
7.631354246440305
 30
0.0
 10
167.2451625800881
 20
7.677996598213971
 30
0.0
 10
167.1781602841553
 20
7.721785384455046
 30
0.0
 10
167.1081306288608
 20
7.761035403874351
 30
0.0
 10
167.0112915552896
 20
7.808626826993806
 30
0.0
 10
166.8846110072068
 20
7.858289410469191
 30
0.0
 10
166.7251399746189
 20
7.899930198862926
 30
0.0
 10
166.5586691924221
 20
7.926437979662262
 30
0.0
 10
166.4450970841891
 20
7.929308942985935
 30
0.0
 10
166.3873297275641
 20
7.930769230769227
 30
0.0
  0
SPLINE
  5
12C
330
1F
100
AcDbEntity
  8
0
  6
Continuous
 62
     7
370
    15
100
AcDbSpline
210
0.0
220
0.0
230
1.0
 70
     8
 71
     3
 72
    23
 73
    19
 74
     0
 42
0.000000001
 43
0.00000001
 40
0.0
 40
0.0
 40
0.0
 40
0.0
 40
0.0685475367089083
 40
0.1356829456230472
 40
0.2012149895263287
 40
0.2656822347547037
 40
0.3292668348172622
 40
0.3923954278443331
 40
0.4550697616521555
 40
0.517126850064516
 40
0.5787900352866512
 40
0.6397398633435522
 40
0.7001915036663092
 40
0.7598062425966695
 40
0.819628319275013
 40
0.8793547910462807
 40
0.9395116077646719
 40
1.0
 40
1.0
 40
1.0
 40
1.0
 10
166.4051382211538
 20
8.256410256410259
 30
0.0
 10
166.4416184921338
 20
8.255972888194254
 30
0.0
 10
166.5138275146798
 20
8.255107161857206
 30
0.0
 10
166.6206459922253
 20
8.24666516151036
 30
0.0
 10
166.7246429602381
 20
8.23259210443289
 30
0.0
 10
166.8258900653692
 20
8.213436812531006
 30
0.0
 10
166.9248798672104
 20
8.18966302805503
 30
0.0
 10
167.0208558000074
 20
8.158692900296415
 30
0.0
 10
167.1143810373775
 20
8.12328118974584
 30
0.0
 10
167.2048657326518
 20
8.082497438502173
 30
0.0
 10
167.2918757459934
 20
8.036716894511658
 30
0.0
 10
167.3753839777858
 20
7.986447007437544
 30
0.0
 10
167.4547270996134
 20
7.931750098158497
 30
0.0
 10
167.5304634121237
 20
7.873091360465462
 30
0.0
 10
167.6013259750284
 20
7.809229810247508
 30
0.0
 10
167.6693267448424
 20
7.741921991042802
 30
0.0
 10
167.7321564371749
 20
7.669229164842958
 30
0.0
 10
167.7709396926338
 20
7.618061831939832
 30
0.0
 10
167.7903846153846
 20
7.592407852564098
 30
0.0
  0
SPLINE
  5
12D
330
1F
100
AcDbEntity
  8
0
  6
Continuous
 62
     7
370
    15
100
AcDbSpline
210
0.0
220
0.0
230
1.0
 70
     8
 71
     3
 72
    23
 73
    19
 74
     0
 42
0.000000001
 43
0.00000001
 40
0.0
 40
0.0
 40
0.0
 40
0.0
 40
0.064557845929719
 40
0.1270135315497589
 40
0.1879548102020908
 40
0.2480139127896339
 40
0.3077476818488365
 40
0.3682345146974886
 40
0.4294698439426712
 40
0.4927434367465846
 40
0.5562577687060836
 40
0.6182167855431454
 40
0.6796554755875571
 40
0.7412455456206319
 40
0.8034152647056991
 40
0.8668154615439944
 40
0.9323283119492659
 40
1.0
 40
1.0
 40
1.0
 40
1.0
 10
164.6967948717949
 20
6.605944511217945
 30
0.0
 10
164.6982056545216
 20
6.663054101216106
 30
0.0
 10
164.700981281462
 20
6.775413654211762
 30
0.0
 10
164.72456318164
 20
6.940308597552597
 30
0.0
 10
164.7624988038994
 20
7.098288795083771
 30
0.0
 10
164.8163802671248
 20
7.249059334817051
 30
0.0
 10
164.8846929786662
 20
7.393413231884721
 30
0.0
 10
164.9690814069349
 20
7.530247753424257
 30
0.0
 10
165.0685651716643
 20
7.660437993112695
 30
0.0
 10
165.1823640366344
 20
7.782008517504033
 30
0.0
 10
165.3071572622278
 20
7.893169215954233
 30
0.0
 10
165.4407964719699
 20
7.990964843640203
 30
0.0
 10
165.5830200952952
 20
8.072351447439383
 30
0.0
 10
165.7322612893151
 20
8.140383680497354
 30
0.0
 10
165.8896375861649
 20
8.19267544348487
 30
0.0
 10
166.0548132138715
 20
8.229281548551793
 30
0.0
 10
166.2274778008516
 20
8.252066361186195
 30
0.0
 10
166.3452815726907
 20
8.254946728355195
 30
0.0
 10
166.4051382211538
 20
8.256410256410259
 30
0.0
  0
SPLINE
  5
130
330
1F
100
AcDbEntity
  8
0
  6
Continuous
 62
     7
370
    15
100
AcDbSpline
210
0.0
220
0.0
230
1.0
 70
     8
 71
     3
 72
    23
 73
    19
 74
     0
 42
0.000000001
 43
0.00000001
 40
0.0
 40
0.0
 40
0.0
 40
0.0
 40
0.0723010339954992
 40
0.1397003317393685
 40
0.2022885114847622
 40
0.2605995332221894
 40
0.3131903291553187
 40
0.3617389329854281
 40
0.4057064756322313
 40
0.4455399848948599
 40
0.5188319558616087
 40
0.5897782395835726
 40
0.6588674786561403
 40
0.7284304780610588
 40
0.7972827036080992
 40
0.8648153774014455
 40
0.9313637528792673
 40
1.0
 40
1.0
 40
1.0
 40
1.0
 10
191.5500951522435
 20
6.83173076923077
 30
0.0
 10
191.5780794166117
 20
6.832093556529514
 30
0.0
 10
191.6321507182193
 20
6.832794535522282
 30
0.0
 10
191.7104551958118
 20
6.8348025117142
 30
0.0
 10
191.783140033747
 20
6.840425022528199
 30
0.0
 10
191.8500797680355
 20
6.846045917392033
 30
0.0
 10
191.9111689850623
 20
6.855185007629911
 30
0.0
 10
191.9662723451393
 20
6.866063576271827
 30
0.0
 10
192.0162546437906
 20
6.877568783037885
 30
0.0
 10
192.0738940886701
 20
6.897135389011821
 30
0.0
 10
192.1392745490572
 20
6.926052994357196
 30
0.0
 10
192.2089731506828
 20
6.970931017123191
 30
0.0
 10
192.2704179909528
 20
7.024383823239527
 30
0.0
 10
192.322304011241
 20
7.086061338545862
 30
0.0
 10
192.3647687023634
 20
7.153975664288562
 30
0.0
 10
192.3942632868248
 20
7.227043191540091
 30
0.0
 10
192.4142633231904
 20
7.303442882743788
 30
0.0
 10
192.4160699266358
 20
7.355892297774516
 30
0.0
 10
192.4169871794871
 20
7.382522035256411
 30
0.0
  0
SPLINE
  5
131
330
1F
100
AcDbEntity
  8
0
  6
Continuous
 62
     7
370
    15
100
AcDbSpline
210
0.0
220
0.0
230
1.0
 70
     8
 71
     3
 72
    23
 73
    19
 74
     0
 42
0.000000001
 43
0.00000001
 40
0.0
 40
0.0
 40
0.0
 40
0.0
 40
0.0570031325129235
 40
0.1118178691207232
 40
0.1644023722182121
 40
0.2158698048987933
 40
0.2668411100818645
 40
0.3174789632053602
 40
0.3699021362727521
 40
0.4234004494436271
 40
0.4797183982994471
 40
0.5392414966443042
 40
0.6024306889434199
 40
0.6710295461473265
 40
0.7444847975608396
 40
0.8234539713786836
 40
0.9087403127306771
 40
1.0
 40
1.0
 40
1.0
 40
1.0
 10
192.4169871794871
 20
7.382522035256411
 30
0.0
 10
192.4165098588918
 20
7.400143985129421
 30
0.0
 10
192.4155735424211
 20
7.434711364108199
 30
0.0
 10
192.4079051893438
 20
7.485102563950089
 30
0.0
 10
192.39487174682
 20
7.532495110871854
 30
0.0
 10
192.3781310665237
 20
7.577538482380283
 30
0.0
 10
192.3547370417595
 20
7.618824232222988
 30
0.0
 10
192.327193042907
 20
7.657779845460413
 30
0.0
 10
192.2939138810013
 20
7.693078695811193
 30
0.0
 10
192.256034033092
 20
7.726071026425793
 30
0.0
 10
192.2124833537847
 20
7.755321419499736
 30
0.0
 10
192.1632878247772
 20
7.780939826092903
 30
0.0
 10
192.107781860581
 20
7.801568959223931
 30
0.0
 10
192.0469009135621
 20
7.819635754685764
 30
0.0
 10
191.9797078556169
 20
7.832325135506579
 30
0.0
 10
191.9069780821676
 20
7.842896422881218
 30
0.0
 10
191.8281158727647
 20
7.848278267413966
 30
0.0
 10
191.7735556726163
 20
7.848990703735987
 30
0.0
 10
191.7453525641025
 20
7.849358974358969
 30
0.0
  0
SPLINE
  5
133
330
1F
100
AcDbEntity
  8
0
  6
Continuous
 62
     7
370
    15
100
AcDbSpline
210
0.0
220
0.0
230
1.0
 70
     8
 71
     3
 72
    23
 73
    19
 74
     0
 42
0.000000001
 43
0.00000001
 40
0.0
 40
0.0
 40
0.0
 40
0.0
 40
0.0649830441815921
 40
0.127802644947283
 40
0.1890563364713587
 40
0.2483946473749336
 40
0.3076907059547586
 40
0.3669766194961034
 40
0.427340044225996
 40
0.4887947153913337
 40
0.5506736934059965
 40
0.6120451114224855
 40
0.6733691390064596
 40
0.7349297539342464
 40
0.797809968299312
 40
0.8628916725659052
 40
0.9300953375428043
 40
1.0
 40
1.0
 40
1.0
 40
1.0
 10
176.9083333333333
 20
6.156280048076917
 30
0.0
 10
176.9089916984598
 20
6.125497722270445
 30
0.0
 10
176.9102865101383
 20
6.064957889068662
 30
0.0
 10
176.9227357556694
 20
5.976114227432508
 30
0.0
 10
176.9428570597495
 20
5.891495657207119
 30
0.0
 10
176.9713750969007
 20
5.811097060377842
 30
0.0
 10
177.0067107558332
 20
5.734457282165067
 30
0.0
 10
177.0511538352125
 20
5.662104262070949
 30
0.0
 10
177.1034515023929
 20
5.593973564418348
 30
0.0
 10
177.1631944232263
 20
5.530569103091951
 30
0.0
 10
177.2290315696363
 20
5.472819510311922
 30
0.0
 10
177.3004411290102
 20
5.42207571630321
 30
0.0
 10
177.3773262484014
 20
5.380573276609013
 30
0.0
 10
177.4577959976577
 20
5.344704088200467
 30
0.0
 10
177.5438028977267
 20
5.318506648002764
 30
0.0
 10
177.634108140086
 20
5.298514327034195
 30
0.0
 10
177.7293506076129
 20
5.287076382690936
 30
0.0
 10
177.7942763996687
 20
5.285658701832507
 30
0.0
 10
177.8273788060897
 20
5.284935897435894
 30
0.0
  0
SPLINE
  5
134
330
1F
100
AcDbEntity
  8
0
  6
Continuous
 62
     7
370
    15
100
AcDbSpline
210
0.0
220
0.0
230
1.0
 70
     8
 71
     3
 72
    19
 73
    15
 74
     0
 42
0.000000001
 43
0.00000001
 40
0.0
 40
0.0
 40
0.0
 40
0.0
 40
0.0892427932208489
 40
0.1743490578004787
 40
0.2576131087527845
 40
0.3395273673229337
 40
0.4209973901479352
 40
0.5015790589405739
 40
0.5825417599975093
 40
0.6661326583338244
 40
0.7500491310216121
 40
0.8327429397442769
 40
0.9156474213323861
 40
1.0
 40
1.0
 40
1.0
 40
1.0
 10
178.7400641025641
 20
6.172816506410259
 30
0.0
 10
178.7388489228675
 20
6.21510555964469
 30
0.0
 10
178.7364748887578
 20
6.297723509179884
 30
0.0
 10
178.7140710385912
 20
6.418107505856169
 30
0.0
 10
178.677948419351
 20
6.531290517060542
 30
0.0
 10
178.627287436925
 20
6.636914580888012
 30
0.0
 10
178.563803757621
 20
6.733860529546817
 30
0.0
 10
178.4873399161885
 20
6.820332874172746
 30
0.0
 10
178.3992145884151
 20
6.896442936921016
 30
0.0
 10
178.2996809689685
 20
6.959850583897572
 30
0.0
 10
178.1925950723138
 20
7.011072799422161
 30
0.0
 10
178.0805437015747
 20
7.049500978425327
 30
0.0
 10
177.9636932114669
 20
7.07126724991805
 30
0.0
 10
177.8844938256543
 20
7.074387769883561
 30
0.0
 10
177.8445512820513
 20
7.075961538461545
 30
0.0
  0
SPLINE
  5
135
330
1F
100
AcDbEntity
  8
0
  6
Continuous
 62
     7
370
    15
100
AcDbSpline
210
0.0
220
0.0
230
1.0
 70
     8
 71
     3
 72
    23
 73
    19
 74
     0
 42
0.000000001
 43
0.00000001
 40
0.0
 40
0.0
 40
0.0
 40
0.0
 40
0.0701214992195543
 40
0.1371218486740171
 40
0.2014871210766276
 40
0.2637651191668606
 40
0.324560095036719
 40
0.3847388869594521
 40
0.444904604352265
 40
0.5052319196167158
 40
0.5654939949839819
 40
0.6250997441456773
 40
0.6843497139440896
 40
0.7438828254849621
 40
0.8046082057523066
 40
0.8672389137717513
 40
0.9320942880208506
 40
1.0
 40
1.0
 40
1.0
 40
1.0
 10
177.8273788060897
 20
5.284935897435894
 30
0.0
 10
177.8609102153101
 20
5.285632228493584
 30
0.0
 10
177.9264805307213
 20
5.286993896498143
 30
0.0
 10
178.0222484515921
 20
5.298699213045211
 30
0.0
 10
178.1129924375003
 20
5.317587720105196
 30
0.0
 10
178.1986292835003
 20
5.34440560736657
 30
0.0
 10
178.2794823286081
 20
5.378624624005887
 30
0.0
 10
178.3546433004286
 20
5.421928555604652
 30
0.0
 10
178.4257237926044
 20
5.471244861815619
 30
0.0
 10
178.49045424987
 20
5.528768617573246
 30
0.0
 10
178.5489868857366
 20
5.592164291600171
 30
0.0
 10
178.5999962242746
 20
5.661147874934977
 30
0.0
 10
178.6434614744612
 20
5.734681345785322
 30
0.0
 10
178.6794547892493
 20
5.812756415218848
 30
0.0
 10
178.706933238744
 20
5.895979835499013
 30
0.0
 10
178.7253653882854
 20
5.984143558235705
 30
0.0
 10
178.738252935682
 20
6.07682519991673
 30
0.0
 10
178.7394512030822
 20
6.140333016019809
 30
0.0
 10
178.7400641025641
 20
6.172816506410259
 30
0.0
  0
SPLINE
  5
136
330
1F
100
AcDbEntity
  8
0
  6
Continuous
 62
     7
370
    15
100
AcDbSpline
210
0.0
220
0.0
230
1.0
 70
     8
 71
     3
 72
    19
 73
    15
 74
     0
 42
0.000000001
 43
0.00000001
 40
0.0
 40
0.0
 40
0.0
 40
0.0
 40
0.0855188992526866
 40
0.1693092867993406
 40
0.2522179032131756
 40
0.3367564541858485
 40
0.4205954942561975
 40
0.5027411035138878
 40
0.5848035507161474
 40
0.6682684846239441
 40
0.7518231297771589
 40
0.8336286284455299
 40
0.916219799115291
 40
1.0
 40
1.0
 40
1.0
 40
1.0
 10
177.8445512820513
 20
7.075961538461545
 30
0.0
 10
177.802885572099
 20
7.07454542904172
 30
0.0
 10
177.7203963013336
 20
7.071741832667164
 30
0.0
 10
177.5994847335072
 20
7.047807128592543
 30
0.0
 10
177.4827563724369
 20
7.010300490731231
 30
0.0
 10
177.3724428768691
 20
6.956649689586591
 30
0.0
 10
177.2691128557401
 20
6.891249916592845
 30
0.0
 10
177.1774235543245
 20
6.812019798563898
 30
0.0
 10
177.0972276661545
 20
6.721535748538662
 30
0.0
 10
177.0293888578447
 20
6.620615881612848
 30
0.0
 10
176.9753854039712
 20
6.511738531722627
 30
0.0
 10
176.9371553020276
 20
6.396975222900919
 30
0.0
 10
176.9124356380526
 20
6.278180336576761
 30
0.0
 10
176.9097072679847
 20
6.197106617979467
 30
0.0
 10
176.9083333333333
 20
6.156280048076917
 30
0.0
  0
SPLINE
  5
137
330
1F
100
AcDbEntity
  8
0
  6
Continuous
 62
     7
370
    15
100
AcDbSpline
210
0.0
220
0.0
230
1.0
 70
     8
 71
     3
 72
    19
 73
    15
 74
     0
 42
0.000000001
 43
0.00000001
 40
0.0
 40
0.0
 40
0.0
 40
0.0
 40
0.0859205174117721
 40
0.1695934351247469
 40
0.2524755148685347
 40
0.3362444769570504
 40
0.4195045210415769
 40
0.5020359066440906
 40
0.5847746476768759
 40
0.6698464747058016
 40
0.7541848663887835
 40
0.8366582383293281
 40
0.9180097257088055
 40
1.0
 40
1.0
 40
1.0
 40
1.0
 10
169.5012720352563
 20
7.075961538461545
 30
0.0
 10
169.4596211716152
 20
7.074479595663111
 30
0.0
 10
169.3774089916425
 20
7.071554476292152
 30
0.0
 10
169.256719075486
 20
7.048718519946151
 30
0.0
 10
169.1412276212775
 20
7.010723209344746
 30
0.0
 10
169.0315122539053
 20
6.958760341856301
 30
0.0
 10
168.9293060859691
 20
6.893419987925128
 30
0.0
 10
168.8379625417168
 20
6.814388447367523
 30
0.0
 10
168.7567345197724
 20
6.723822013098665
 30
0.0
 10
168.6884191657899
 20
6.622129384387581
 30
0.0
 10
168.6327292150127
 20
6.513110687489595
 30
0.0
 10
168.5935705503272
 20
6.399151375783632
 30
0.0
 10
168.5677448758919
 20
6.282306860428633
 30
0.0
 10
168.5651064322396
 20
6.203056424044534
 30
0.0
 10
168.563782051282
 20
6.163276241987176
 30
0.0
  0
SPLINE
  5
138
330
1F
100
AcDbEntity
  8
0
  6
Continuous
 62
     7
370
    15
100
AcDbSpline
210
0.0
220
0.0
230
1.0
 70
     8
 71
     3
 72
    19
 73
    15
 74
     0
 42
0.000000001
 43
0.00000001
 40
0.0
 40
0.0
 40
0.0
 40
0.0
 40
0.0815893489321824
 40
0.162858895167933
 40
0.2454836892755803
 40
0.3308071391580071
 40
0.4164933737762866
 40
0.4998932031606241
 40
0.5830481559950224
 40
0.6671578520621627
 40
0.7513119292929051
 40
0.8337847893576184
 40
0.9162564885439674
 40
1.0
 40
1.0
 40
1.0
 40
1.0
 10
168.563782051282
 20
6.163276241987176
 30
0.0
 10
168.5654737759273
 20
6.12373378761312
 30
0.0
 10
168.5688505942285
 20
6.044803871933318
 30
0.0
 10
168.5931172955753
 20
5.927800063007721
 30
0.0
 10
168.63382975219
 20
5.813813896280689
 30
0.0
 10
168.6893850519504
 20
5.703812852159235
 30
0.0
 10
168.7589507758115
 20
5.601682989686482
 30
0.0
 10
168.8395854820552
 20
5.509390164219891
 30
0.0
 10
168.9320689515319
 20
5.430024609143866
 30
0.0
 10
169.0345103329492
 20
5.36358766737316
 30
0.0
 10
169.1439189918123
 20
5.309918809132286
 30
0.0
 10
169.2589754867913
 20
5.272575693293841
 30
0.0
 10
169.3775169585475
 20
5.248465849445521
 30
0.0
 10
169.4581187185418
 20
5.245649645457623
 30
0.0
 10
169.4987279647436
 20
5.244230769230765
 30
0.0
  0
SPLINE
  5
139
330
1F
100
AcDbEntity
  8
0
  6
Continuous
 62
     7
370
    15
100
AcDbSpline
210
0.0
220
0.0
230
1.0
 70
     8
 71
     3
 72
    19
 73
    15
 74
     0
 42
0.000000001
 43
0.00000001
 40
0.0
 40
0.0
 40
0.0
 40
0.0
 40
0.0848023883688171
 40
0.1686635395998283
 40
0.2525519243727762
 40
0.3382396894642355
 40
0.4231026613931453
 40
0.5055560510576204
 40
0.5861756559890426
 40
0.667135720330352
 40
0.7484991803055335
 40
0.8304523987582779
 40
0.9134557062010132
 40
1.0
 40
1.0
 40
1.0
 40
1.0
 10
169.4987279647435
 20
5.244230769230765
 30
0.0
 10
169.5399544351063
 20
5.245736593649172
 30
0.0
 10
169.6219497957365
 20
5.248731529066797
 30
0.0
 10
169.7429977664562
 20
5.271665248297086
 30
0.0
 10
169.8604681969943
 20
5.30955551537178
 30
0.0
 10
169.9727608970232
 20
5.362078294623332
 30
0.0
 10
170.0773691017074
 20
5.427172467472818
 30
0.0
 10
170.1712564621166
 20
5.503378900050829
 30
0.0
 10
170.2506459477125
 20
5.592009645647225
 30
0.0
 10
170.3179492435441
 20
5.689415428052347
 30
0.0
 10
170.3707226572637
 20
5.796197024841826
 30
0.0
 10
170.4091637966781
 20
5.909893040732777
 30
0.0
 10
170.4318912683466
 20
6.030507433692919
 30
0.0
 10
170.4347557802366
 20
6.112933996005376
 30
0.0
 10
170.4362179487179
 20
6.155008012820512
 30
0.0
  0
SPLINE
  5
13A
330
1F
100
AcDbEntity
  8
0
  6
Continuous
 62
     7
370
    15
100
AcDbSpline
210
0.0
220
0.0
230
1.0
 70
     8
 71
     3
 72
    23
 73
    19
 74
     0
 42
0.000000001
 43
0.00000001
 40
0.0
 40
0.0
 40
0.0
 40
0.0
 40
0.0656337996756902
 40
0.1291880880571294
 40
0.191218683112186
 40
0.2519128178811549
 40
0.3125074743865466
 40
0.3734944337752014
 40
0.4351515996540492
 40
0.4987414744066545
 40
0.5620952169966313
 40
0.6241865668116587
 40
0.6854757184651913
 40
0.7460968148060512
 40
0.807611636447793
 40
0.8699665806571799
 40
0.933951018914907
 40
1.0
 40
1.0
 40
1.0
 40
1.0
 10
170.4362179487179
 20
6.155008012820512
 30
0.0
 10
170.4353474032951
 20
6.187064473352544
 30
0.0
 10
170.4336338944125
 20
6.250161732180709
 30
0.0
 10
170.4205433063382
 20
6.342805980263905
 30
0.0
 10
170.3997199088075
 20
6.431464431725209
 30
0.0
 10
170.3703773117212
 20
6.516230299656922
 30
0.0
 10
170.3318316465727
 20
6.596634920769104
 30
0.0
 10
170.2853426018043
 20
6.673255617531307
 30
0.0
 10
170.2300926581175
 20
6.745693887863391
 30
0.0
 10
170.1669712123696
 20
6.812952245108125
 30
0.0
 10
170.0978784929177
 20
6.874299107300433
 30
0.0
 10
170.0247677310585
 20
6.92905809708895
 30
0.0
 10
169.9467727248901
 20
6.974042198074404
 30
0.0
 10
169.8652051271146
 20
7.011272494361551
 30
0.0
 10
169.779923416567
 20
7.040899008911514
 30
0.0
 10
169.6902336400173
 20
7.060663559686847
 30
0.0
 10
169.5970891304477
 20
7.074234708054655
 30
0.0
 10
169.5335473516239
 20
7.075379867752529
 30
0.0
 10
169.5012720352563
 20
7.075961538461545
 30
0.0
  0
SPLINE
  5
13B
330
1F
100
AcDbEntity
  8
0
  6
Continuous
 62
     7
370
    15
100
AcDbSpline
210
0.0
220
0.0
230
1.0
 70
     8
 71
     3
 72
    19
 73
    15
 74
     0
 42
0.000000001
 43
0.00000001
 40
0.0
 40
0.0
 40
0.0
 40
0.0
 40
0.0859205174117721
 40
0.1695934351247468
 40
0.2524755148685348
 40
0.3362444769570503
 40
0.4195045210415771
 40
0.5020359066440909
 40
0.5847746476768763
 40
0.6698464747058019
 40
0.7541848663887832
 40
0.8366582383293285
 40
0.9180097257088059
 40
0.9999999999999999
 40
0.9999999999999999
 40
0.9999999999999999
 40
0.9999999999999999
 10
186.1089643429487
 20
7.075961538461545
 30
0.0
 10
186.0673134793076
 20
7.074479595663111
 30
0.0
 10
185.9851012993349
 20
7.071554476292152
 30
0.0
 10
185.8644113831782
 20
7.048718519946151
 30
0.0
 10
185.7489199289699
 20
7.010723209344746
 30
0.0
 10
185.6392045615976
 20
6.958760341856301
 30
0.0
 10
185.5369983936614
 20
6.893419987925128
 30
0.0
 10
185.4456548494091
 20
6.814388447367523
 30
0.0
 10
185.3644268274647
 20
6.723822013098665
 30
0.0
 10
185.2961114734822
 20
6.622129384387581
 30
0.0
 10
185.240421522705
 20
6.513110687489595
 30
0.0
 10
185.2012628580197
 20
6.399151375783646
 30
0.0
 10
185.1754371835841
 20
6.282306860428633
 30
0.0
 10
185.1727987399319
 20
6.203056424044534
 30
0.0
 10
185.1714743589743
 20
6.163276241987176
 30
0.0
  0
SPLINE
  5
13C
330
1F
100
AcDbEntity
  8
0
  6
Continuous
 62
     7
370
    15
100
AcDbSpline
210
0.0
220
0.0
230
1.0
 70
     8
 71
     3
 72
    19
 73
    15
 74
     0
 42
0.000000001
 43
0.00000001
 40
0.0
 40
0.0
 40
0.0
 40
0.0
 40
0.081589348932183
 40
0.1628588951679335
 40
0.2454836892755813
 40
0.3308071391580075
 40
0.416493373776287
 40
0.4998932031606244
 40
0.5830481559950226
 40
0.6671578520621629
 40
0.7513119292929052
 40
0.8337847893576184
 40
0.9162564885439674
 40
0.9999999999999999
 40
0.9999999999999999
 40
0.9999999999999999
 40
0.9999999999999999
 10
185.1714743589743
 20
6.163276241987176
 30
0.0
 10
185.1731660836196
 20
6.12373378761312
 30
0.0
 10
185.1765429019208
 20
6.044803871933318
 30
0.0
 10
185.2008096032675
 20
5.927800063007721
 30
0.0
 10
185.2415220598823
 20
5.813813896280689
 30
0.0
 10
185.2970773596427
 20
5.703812852159235
 30
0.0
 10
185.3666430835038
 20
5.601682989686482
 30
0.0
 10
185.4472777897475
 20
5.509390164219891
 30
0.0
 10
185.5397612592243
 20
5.430024609143866
 30
0.0
 10
185.6422026406415
 20
5.363587667373173
 30
0.0
 10
185.7516112995046
 20
5.309918809132286
 30
0.0
 10
185.8666677944836
 20
5.272575693293841
 30
0.0
 10
185.9852092662398
 20
5.248465849445521
 30
0.0
 10
186.0658110262341
 20
5.245649645457637
 30
0.0
 10
186.1064202724359
 20
5.244230769230765
 30
0.0
  0
SPLINE
  5
13D
330
1F
100
AcDbEntity
  8
0
  6
Continuous
 62
     7
370
    15
100
AcDbSpline
210
0.0
220
0.0
230
1.0
 70
     8
 71
     3
 72
    19
 73
    15
 74
     0
 42
0.000000001
 43
0.00000001
 40
0.0
 40
0.0
 40
0.0
 40
0.0
 40
0.0848023883688171
 40
0.1686635395998283
 40
0.2525519243727762
 40
0.3382396894642355
 40
0.4231026613931453
 40
0.5055560510576204
 40
0.5861756559890426
 40
0.667135720330352
 40
0.7484991803055331
 40
0.8304523987582779
 40
0.9134557062010126
 40
1.0
 40
1.0
 40
1.0
 40
1.0
 10
186.1064202724359
 20
5.244230769230765
 30
0.0
 10
186.1476467427987
 20
5.245736593649186
 30
0.0
 10
186.2296421034289
 20
5.248731529066797
 30
0.0
 10
186.3506900741486
 20
5.271665248297086
 30
0.0
 10
186.4681605046866
 20
5.30955551537178
 30
0.0
 10
186.5804532047156
 20
5.362078294623332
 30
0.0
 10
186.6850614093997
 20
5.427172467472818
 30
0.0
 10
186.7789487698089
 20
5.503378900050829
 30
0.0
 10
186.8583382554048
 20
5.592009645647225
 30
0.0
 10
186.9256415512365
 20
5.689415428052347
 30
0.0
 10
186.978414964956
 20
5.796197024841826
 30
0.0
 10
187.0168561043704
 20
5.909893040732777
 30
0.0
 10
187.039583576039
 20
6.030507433692906
 30
0.0
 10
187.042448087929
 20
6.112933996005376
 30
0.0
 10
187.0439102564102
 20
6.155008012820512
 30
0.0
  0
SPLINE
  5
13E
330
1F
100
AcDbEntity
  8
0
  6
Continuous
 62
     7
370
    15
100
AcDbSpline
210
0.0
220
0.0
230
1.0
 70
     8
 71
     3
 72
    23
 73
    19
 74
     0
 42
0.000000001
 43
0.00000001
 40
0.0
 40
0.0
 40
0.0
 40
0.0
 40
0.0656337996756902
 40
0.12918808805713
 40
0.1912186831121861
 40
0.2519128178811544
 40
0.3125074743865467
 40
0.3734944337752015
 40
0.4351515996540493
 40
0.4987414744066545
 40
0.5620952169966315
 40
0.6241865668116587
 40
0.6854757184651913
 40
0.7460968148060515
 40
0.8076116364477931
 40
0.8699665806571799
 40
0.9339510189149071
 40
1.0
 40
1.0
 40
1.0
 40
1.0
 10
187.0439102564102
 20
6.155008012820512
 30
0.0
 10
187.0430397109874
 20
6.187064473352557
 30
0.0
 10
187.0413262021049
 20
6.250161732180709
 30
0.0
 10
187.0282356140306
 20
6.342805980263905
 30
0.0
 10
187.0074122164999
 20
6.431464431725209
 30
0.0
 10
186.9780696194134
 20
6.516230299656922
 30
0.0
 10
186.9395239542651
 20
6.596634920769104
 30
0.0
 10
186.8930349094967
 20
6.673255617531307
 30
0.0
 10
186.8377849658098
 20
6.745693887863391
 30
0.0
 10
186.774663520062
 20
6.812952245108125
 30
0.0
 10
186.70557080061
 20
6.874299107300433
 30
0.0
 10
186.6324600387508
 20
6.92905809708895
 30
0.0
 10
186.5544650325823
 20
6.974042198074404
 30
0.0
 10
186.472897434807
 20
7.011272494361551
 30
0.0
 10
186.3876157242593
 20
7.040899008911514
 30
0.0
 10
186.2979259477096
 20
7.060663559686847
 30
0.0
 10
186.20478143814
 20
7.074234708054655
 30
0.0
 10
186.1412396593163
 20
7.075379867752529
 30
0.0
 10
186.1089643429487
 20
7.075961538461545
 30
0.0
  0
SPLINE
  5
13F
330
1F
100
AcDbEntity
  8
0
  6
Continuous
 62
     7
370
    15
100
AcDbSpline
210
0.0
220
0.0
230
1.0
 70
     8
 71
     3
 72
    23
 73
    19
 74
     0
 42
0.000000001
 43
0.00000001
 40
0.0
 40
0.0
 40
0.0
 40
0.0
 40
0.0618417029839075
 40
0.1212623730944424
 40
0.180745948865311
 40
0.2392309018220996
 40
0.298307558788461
 40
0.3581827976158471
 40
0.4203592307800589
 40
0.4847924155141858
 40
0.5499384837666873
 40
0.6137182775404193
 40
0.6766807072496308
 40
0.7391541704483136
 40
0.8021997032403384
 40
0.8667401776162902
 40
0.9320496524002335
 40
1.0
 40
1.0
 40
1.0
 40
1.0
 10
161.3589743589743
 20
5.873888221153853
 30
0.0
 10
161.3595425583173
 20
5.852434310831406
 30
0.0
 10
161.3606567126401
 20
5.810366386561419
 30
0.0
 10
161.3707734599494
 20
5.748372987952041
 30
0.0
 10
161.3862267132002
 20
5.688714821044008
 30
0.0
 10
161.4092140723026
 20
5.631699442147073
 30
0.0
 10
161.436634177995
 20
5.576457782217714
 30
0.0
 10
161.4728340077951
 20
5.52499077325401
 30
0.0
 10
161.5129449492283
 20
5.474172566812236
 30
0.0
 10
161.5608910174274
 20
5.427906946303699
 30
0.0
 10
161.6123472109866
 20
5.384857008658497
 30
0.0
 10
161.667321158974
 20
5.347228492967399
 30
0.0
 10
161.7246162654158
 20
5.31503746424189
 30
0.0
 10
161.7850060554411
 20
5.289808825688927
 30
0.0
 10
161.8476337323261
 20
5.269103936906147
 30
0.0
 10
161.9130210920678
 20
5.254533880721987
 30
0.0
 10
161.9812136110138
 20
5.246296546425749
 30
0.0
 10
162.027407083362
 20
5.244928399367827
 30
0.0
 10
162.0509615384615
 20
5.244230769230765
 30
0.0
  0
SPLINE
  5
140
330
1F
100
AcDbEntity
  8
0
  6
Continuous
 62
     7
370
    15
100
AcDbSpline
210
0.0
220
0.0
230
1.0
 70
     8
 71
     3
 72
    23
 73
    19
 74
     0
 42
0.000000001
 43
0.00000001
 40
0.0
 40
0.0
 40
0.0
 40
0.0
 40
0.0679623714944433
 40
0.1332834028675092
 40
0.1978352977570482
 40
0.2608919865309716
 40
0.323376504483159
 40
0.3863500754690798
 40
0.4496377310516996
 40
0.5147953269783438
 40
0.5792399132410284
 40
0.6418141777582786
 40
0.7013585647860548
 40
0.7607267659857183
 40
0.8192220679243877
 40
0.8787161693846297
 40
0.9381473540533068
 40
1.0
 40
1.0
 40
1.0
 40
1.0
 10
162.0509615384615
 20
5.244230769230765
 30
0.0
 10
162.0745159549726
 20
5.244928454066572
 30
0.0
 10
162.1207093516437
 20
5.246296708396131
 30
0.0
 10
162.1889024191384
 20
5.254533265129632
 30
0.0
 10
162.2542877510429
 20
5.269106195753881
 30
0.0
 10
162.3169227981254
 20
5.289800637351752
 30
0.0
 10
162.3772853820208
 20
5.31506784033528
 30
0.0
 10
162.4345303793908
 20
5.347028224670175
 30
0.0
 10
162.4889844356784
 20
5.385088417201783
 30
0.0
 10
162.5404744081249
 20
5.427833377091865
 30
0.0
 10
162.5882209093324
 20
5.474435892791493
 30
0.0
 10
162.6292938694521
 20
5.524537140993019
 30
0.0
 10
162.664385088178
 20
5.576873746039823
 30
0.0
 10
162.6929003864467
 20
5.631481831860699
 30
0.0
 10
162.7156345578562
 20
5.688749295644266
 30
0.0
 10
162.7311661745222
 20
5.748363752342153
 30
0.0
 10
162.7412620294749
 20
5.810368804467419
 30
0.0
 10
162.7423790545646
 20
5.852435127456729
 30
0.0
 10
162.7429487179487
 20
5.873888221153853
 30
0.0
  0
SPLINE
  5
141
330
1F
100
AcDbEntity
  8
0
  6
Continuous
 62
     7
370
    15
100
AcDbSpline
210
0.0
220
0.0
230
1.0
 70
     8
 71
     3
 72
    23
 73
    19
 74
     0
 42
0.000000001
 43
0.00000001
 40
0.0
 40
0.0
 40
0.0
 40
0.0
 40
0.061137914915621
 40
0.1199938438512126
 40
0.1782253215076139
 40
0.2362564202618936
 40
0.2949293769549043
 40
0.3547157488097496
 40
0.4167296639241624
 40
0.4806644084708347
 40
0.5458317702108672
 40
0.6097581054261744
 40
0.6729712284742072
 40
0.7360168691676657
 40
0.7998393981920152
 40
0.8647753566655747
 40
0.9310876232725652
 40
1.0
 40
1.0
 40
1.0
 40
1.0
 10
162.7429487179487
 20
5.873888221153853
 30
0.0
 10
162.742449523589
 20
5.895563992343075
 30
0.0
 10
162.7414697674076
 20
5.938106481844466
 30
0.0
 10
162.7303881569086
 20
6.000415964101446
 30
0.0
 10
162.7150190034782
 20
6.060582401173923
 30
0.0
 10
162.6918115399059
 20
6.118227654939829
 30
0.0
 10
162.6616612457485
 20
6.173124246079547
 30
0.0
 10
162.6249370122277
 20
6.225549484053793
 30
0.0
 10
162.582453180589
 20
6.275905299107556
 30
0.0
 10
162.533378983958
 20
6.322680132419239
 30
0.0
 10
162.4799571288738
 20
6.365449267405121
 30
0.0
 10
162.423155847857
 20
6.403204150709024
 30
0.0
 10
162.3637307574305
 20
6.43506752240286
 30
0.0
 10
162.3017421096427
 20
6.461653250887601
 30
0.0
 10
162.2364796375247
 20
6.480838845278419
 30
0.0
 10
162.1689969726918
 20
6.495945715776094
 30
0.0
 10
162.0984310168646
 20
6.503984831855964
 30
0.0
 10
162.0505550936069
 20
6.50537916953349
 30
0.0
 10
162.0261568509615
 20
6.506089743589738
 30
0.0
  0
SPLINE
  5
142
330
1F
100
AcDbEntity
  8
0
  6
Continuous
 62
     7
370
    15
100
AcDbSpline
210
0.0
220
0.0
230
1.0
 70
     8
 71
     3
 72
    23
 73
    19
 74
     0
 42
0.000000001
 43
0.00000001
 40
0.0
 40
0.0
 40
0.0
 40
0.0
 40
0.0705992894335993
 40
0.1379009210036216
 40
0.2031961978097394
 40
0.2667897246502597
 40
0.3291063872214248
 40
0.3906535452348544
 40
0.4526530569344775
 40
0.5157480403003794
 40
0.5779263408004458
 40
0.638930011618439
 40
0.6983507176418242
 40
0.7572960374442688
 40
0.816393767350153
 40
0.8762669096141286
 40
0.9368171089060847
 40
1.0
 40
1.0
 40
1.0
 40
1.0
 10
162.0261568509615
 20
6.506089743589738
 30
0.0
 10
162.0019703860069
 20
6.505383946820542
 30
0.0
 10
161.9547271939037
 20
6.504005320699849
 30
0.0
 10
161.8854147534067
 20
6.495999556453621
 30
0.0
 10
161.819816303879
 20
6.480923689819617
 30
0.0
 10
161.7570627612103
 20
6.461722802967862
 30
0.0
 10
161.6983273450026
 20
6.435322170225813
 30
0.0
 10
161.6431831831402
 20
6.403253038316501
 30
0.0
 10
161.5914170289276
 20
6.365496683854833
 30
0.0
 10
161.5435710927161
 20
6.322588000210919
 30
0.0
 10
161.5001918266769
 20
6.275608856001119
 30
0.0
 10
161.4628346580509
 20
6.225290075170046
 30
0.0
 10
161.430610766538
 20
6.172844333781194
 30
0.0
 10
161.4044108308374
 20
6.117833429074016
 30
0.0
 10
161.3840091192498
 20
6.060278390160684
 30
0.0
 10
161.3692514916749
 20
6.00044392822148
 30
0.0
 10
161.3610384459244
 20
5.937928807664111
 30
0.0
 10
161.359672078773
 20
5.895535751616651
 30
0.0
 10
161.3589743589743
 20
5.873888221153853
 30
0.0
  0
SPLINE
  5
145
330
1F
100
AcDbEntity
  8
0
  6
Continuous
 62
     7
370
    15
100
AcDbSpline
210
0.0
220
0.0
230
1.0
 70
     8
 71
     3
 72
    23
 73
    19
 74
     0
 42
0.000000001
 43
0.00000001
 40
0.0
 40
0.0
 40
0.0
 40
0.0
 40
0.0725024889330186
 40
0.1397389892678829
 40
0.2017951348259118
 40
0.2598219344148453
 40
0.312205989384595
 40
0.3607734341243208
 40
0.4045403426007359
 40
0.4436980985527508
 40
0.5168407942439649
 40
0.5878743359442853
 40
0.657965417561628
 40
0.7289693886473048
 40
0.7993077199548776
 40
0.8666357778344727
 40
0.9331163290572727
 40
1.0
 40
1.0
 40
1.0
 40
1.0
 10
191.7644330929487
 20
5.325641025641023
 30
0.0
 10
191.793478832884
 20
5.325989139350937
 30
0.0
 10
191.8494606674505
 20
5.326660082634244
 30
0.0
 10
191.9302882119173
 20
5.328850428557283
 30
0.0
 10
192.0052028846513
 20
5.333832707227135
 30
0.0
 10
192.0738628363486
 20
5.341675727993531
 30
0.0
 10
192.1370094612351
 20
5.350183321171126
 30
0.0
 10
192.193885234697
 20
5.361623554578642
 30
0.0
 10
192.2449512030513
 20
5.374730825912444
 30
0.0
 10
192.304164325072
 20
5.394991110725653
 30
0.0
 10
192.3708425075841
 20
5.426465766486325
 30
0.0
 10
192.4426980701624
 20
5.47392224330856
 30
0.0
 10
192.5065847109073
 20
5.530458386788201
 30
0.0
 10
192.5608366246161
 20
5.595891430360004
 30
0.0
 10
192.6052984070829
 20
5.667039848359229
 30
0.0
 10
192.6376429984801
 20
5.742464558673416
 30
0.0
 10
192.6575918470753
 20
5.820919287117296
 30
0.0
 10
192.6600068149312
 20
5.874410519209825
 30
0.0
 10
192.6612179487179
 20
5.901236979166669
 30
0.0
  0
SPLINE
  5
146
330
1F
100
AcDbEntity
  8
0
  6
Continuous
 62
     7
370
    15
100
AcDbSpline
210
0.0
220
0.0
230
1.0
 70
     8
 71
     3
 72
    19
 73
    15
 74
     0
 42
0.000000001
 43
0.00000001
 40
0.0
 40
0.0
 40
0.0
 40
0.0
 40
0.0602873979279708
 40
0.1196023547075208
 40
0.1775033710185447
 40
0.2351426637323342
 40
0.2921325932269286
 40
0.3508712086415727
 40
0.4100978625665862
 40
0.4707315215304558
 40
0.5948287040804164
 40
0.7225788240942924
 40
0.8566913895439976
 40
1.0
 40
1.0
 40
1.0
 40
1.0
 10
192.6612179487179
 20
5.901236979166669
 30
0.0
 10
192.6609674826404
 20
5.918013080919632
 30
0.0
 10
192.6604705905257
 20
5.951294684396091
 30
0.0
 10
192.6529770327021
 20
6.000204034659423
 30
0.0
 10
192.642078736532
 20
6.047580362589954
 30
0.0
 10
192.6279895072242
 20
6.093552312886843
 30
0.0
 10
192.6074704192203
 20
6.137288732859542
 30
0.0
 10
192.5835159105262
 20
6.179654626153552
 30
0.0
 10
192.5554294961771
 20
6.22070599677374
 30
0.0
 10
192.5116651457115
 20
6.27260568383134
 30
0.0
 10
192.4480091311825
 20
6.332401831250875
 30
0.0
 10
192.3575608420309
 20
6.390946565449903
 30
0.0
 10
192.2547159717301
 20
6.438161361879274
 30
0.0
 10
192.1801238888888
 20
6.458208743986297
 30
0.0
 10
192.1415915464743
 20
6.468564703525637
 30
0.0
  0
SPLINE
  5
147
330
1F
100
AcDbEntity
  8
0
  6
Continuous
 62
     7
370
    15
100
AcDbSpline
210
0.0
220
0.0
230
1.0
 70
     8
 71
     3
 72
    15
 73
    11
 74
     0
 42
0.000000001
 43
0.00000001
 40
0.0
 40
0.0
 40
0.0
 40
0.0
 40
0.0793064855229878
 40
0.1719528189279033
 40
0.2770565073915895
 40
0.3947305758644558
 40
0.52617732127676
 40
0.6713447665975835
 40
0.8292852571892376
 40
1.0
 40
1.0
 40
1.0
 40
1.0
 10
192.1415915464743
 20
6.468564703525637
 30
0.0
 10
192.1261437238083
 20
6.471698958256625
 30
0.0
 10
192.0926496578917
 20
6.478494669006865
 30
0.0
 10
192.03803278136
 20
6.485668085652957
 30
0.0
 10
191.9756795288556
 20
6.492058961412223
 30
0.0
 10
191.9054459188007
 20
6.496786225864318
 30
0.0
 10
191.8272430915046
 20
6.501672590368615
 30
0.0
 10
191.7409040295541
 20
6.503572892386663
 30
0.0
 10
191.6467813226846
 20
6.505840078328565
 30
0.0
 10
191.5814739562935
 20
6.506004392962186
 30
0.0
 10
191.5475510817307
 20
6.506089743589738
 30
0.0
  0
LINE
  5
149
330
1F
100
AcDbEntity
  8
0
  6
Continuous
 62
     7
370
    15
100
AcDbLine
 10
150.45
 20
6.069145633
 30
0.0
 11
150.45
 21
5.0
 31
0.0
  0
LINE
  5
14A
330
1F
100
AcDbEntity
  8
0
  6
Continuous
 62
     7
370
    15
100
AcDbLine
 10
151.6285406651
 20
5.0
 30
0.0
 11
150.45
 21
6.069145633
 31
0.0
  0
LINE
  5
14B
330
1F
100
AcDbEntity
  8
0
  6
Continuous
 62
     7
370
    15
100
AcDbLine
 10
152.0375
 20
5.0
 30
0.0
 11
151.6285406651
 21
5.0
 31
0.0
  0
LINE
  5
14C
330
1F
100
AcDbEntity
  8
0
  6
Continuous
 62
     7
370
    15
100
AcDbLine
 10
150.6904146635
 20
6.2211538462
 30
0.0
 11
152.0375
 21
5.0
 31
0.0
  0
LINE
  5
14D
330
1F
100
AcDbEntity
  8
0
  6
Continuous
 62
     7
370
    15
100
AcDbLine
 10
151.9153846154
 20
7.3201923077
 30
0.0
 11
150.6904146635
 21
6.2211538462
 31
0.0
  0
LINE
  5
14E
330
1F
100
AcDbEntity
  8
0
  6
Continuous
 62
     7
370
    15
100
AcDbLine
 10
151.5057892628
 20
7.3201923077
 30
0.0
 11
151.9153846154
 21
7.3201923077
 31
0.0
  0
LINE
  5
14F
330
1F
100
AcDbEntity
  8
0
  6
Continuous
 62
     7
370
    15
100
AcDbLine
 10
150.45
 20
6.3737980769
 30
0.0
 11
151.5057892628
 21
7.3201923077
 31
0.0
  0
LINE
  5
150
330
1F
100
AcDbEntity
  8
0
  6
Continuous
 62
     7
370
    15
100
AcDbLine
 10
150.45
 20
8.2564102564
 30
0.0
 11
150.45
 21
6.3737980769
 31
0.0
  0
LINE
  5
151
330
1F
100
AcDbEntity
  8
0
  6
Continuous
 62
     7
370
    15
100
AcDbLine
 10
150.1650641026
 20
8.2564102564
 30
0.0
 11
150.45
 21
8.2564102564
 31
0.0
  0
LINE
  5
152
330
1F
100
AcDbEntity
  8
0
  6
Continuous
 62
     7
370
    15
100
AcDbLine
 10
150.1650641026
 20
5.0
 30
0.0
 11
150.1650641026
 21
8.2564102564
 31
0.0
  0
LINE
  5
153
330
1F
100
AcDbEntity
  8
0
  6
Continuous
 62
     7
370
    15
100
AcDbLine
 10
150.45
 20
5.0
 30
0.0
 11
150.1650641026
 21
5.0
 31
0.0
  0
LINE
  5
154
330
1F
100
AcDbEntity
  8
0
  6
Continuous
 62
     7
370
    15
100
AcDbLine
 10
153.9099358974
 20
8.175
 30
0.0
 11
153.9099358974
 21
5.0
 31
0.0
  0
LINE
  5
155
330
1F
100
AcDbEntity
  8
0
  6
Continuous
 62
     7
370
    15
100
AcDbLine
 10
153.625
 20
8.175
 30
0.0
 11
153.9099358974
 21
8.175
 31
0.0
  0
LINE
  5
156
330
1F
100
AcDbEntity
  8
0
  6
Continuous
 62
     7
370
    15
100
AcDbLine
 10
153.625
 20
5.0
 30
0.0
 11
153.625
 21
8.175
 31
0.0
  0
LINE
  5
157
330
1F
100
AcDbEntity
  8
0
  6
Continuous
 62
     7
370
    15
100
AcDbLine
 10
153.9099358974
 20
5.0
 30
0.0
 11
153.625
 21
5.0
 31
0.0
  0
LINE
  5
158
330
1F
100
AcDbEntity
  8
0
  6
Continuous
 62
     7
370
    15
100
AcDbLine
 10
155.008974359
 20
8.175
 30
0.0
 11
155.008974359
 21
5.0
 31
0.0
  0
LINE
  5
159
330
1F
100
AcDbEntity
  8
0
  6
Continuous
 62
     7
370
    15
100
AcDbLine
 10
154.7240384615
 20
8.175
 30
0.0
 11
155.008974359
 21
8.175
 31
0.0
  0
LINE
  5
15A
330
1F
100
AcDbEntity
  8
0
  6
Continuous
 62
     7
370
    15
100
AcDbLine
 10
154.7240384615
 20
5.0
 30
0.0
 11
154.7240384615
 21
8.175
 31
0.0
  0
LINE
  5
15B
330
1F
100
AcDbEntity
  8
0
  6
Continuous
 62
     7
370
    15
100
AcDbLine
 10
155.008974359
 20
5.0
 30
0.0
 11
154.7240384615
 21
5.0
 31
0.0
  0
LINE
  5
15C
330
1F
100
AcDbEntity
  8
0
  6
Continuous
 62
     7
370
    15
100
AcDbLine
 10
156.1080128205
 20
8.175
 30
0.0
 11
156.1080128205
 21
5.0
 31
0.0
  0
LINE
  5
15D
330
1F
100
AcDbEntity
  8
0
  6
Continuous
 62
     7
370
    15
100
AcDbLine
 10
155.8230769231
 20
8.175
 30
0.0
 11
156.1080128205
 21
8.175
 31
0.0
  0
LINE
  5
15E
330
1F
100
AcDbEntity
  8
0
  6
Continuous
 62
     7
370
    15
100
AcDbLine
 10
155.8230769231
 20
5.0
 30
0.0
 11
155.8230769231
 21
8.175
 31
0.0
  0
LINE
  5
15F
330
1F
100
AcDbEntity
  8
0
  6
Continuous
 62
     7
370
    15
100
AcDbLine
 10
156.1080128205
 20
5.0
 30
0.0
 11
155.8230769231
 21
5.0
 31
0.0
  0
LINE
  5
160
330
1F
100
AcDbEntity
  8
0
  6
Continuous
 62
     7
370
    15
100
AcDbLine
 10
160.6262820513
 20
8.175
 30
0.0
 11
159.2830128205
 21
5.0
 31
0.0
  0
LINE
  5
161
330
1F
100
AcDbEntity
  8
0
  6
Continuous
 62
     7
370
    15
100
AcDbLine
 10
160.3209935897
 20
8.175
 30
0.0
 11
160.6262820513
 21
8.175
 31
0.0
  0
LINE
  5
162
330
1F
100
AcDbEntity
  8
0
  6
Continuous
 62
     7
370
    15
100
AcDbLine
 10
159.2626602564
 20
5.6729066506
 30
0.0
 11
160.3209935897
 21
8.175
 31
0.0
  0
LINE
  5
163
330
1F
100
AcDbEntity
  8
0
  6
Continuous
 62
     7
370
    15
100
AcDbLine
 10
158.2043269231
 20
8.175
 30
0.0
 11
159.2626602564
 21
5.6729066506
 31
0.0
  0
LINE
  5
164
330
1F
100
AcDbEntity
  8
0
  6
Continuous
 62
     7
370
    15
100
AcDbLine
 10
157.8990384615
 20
8.175
 30
0.0
 11
158.2043269231
 21
8.175
 31
0.0
  0
LINE
  5
165
330
1F
100
AcDbEntity
  8
0
  6
Continuous
 62
     7
370
    15
100
AcDbLine
 10
159.2423076923
 20
5.0
 30
0.0
 11
157.8990384615
 21
8.175
 31
0.0
  0
LINE
  5
166
330
1F
100
AcDbEntity
  8
0
  6
Continuous
 62
     7
370
    15
100
AcDbLine
 10
159.2830128205
 20
5.0
 30
0.0
 11
159.2423076923
 21
5.0
 31
0.0
  0
LINE
  5
167
330
1F
100
AcDbEntity
  8
0
  6
Continuous
 62
     7
370
    15
100
AcDbLine
 10
162.5960286458
 20
8.0840494792
 30
0.0
 11
161.7571213942
 21
6.8012019231
 31
0.0
  0
LINE
  5
168
330
1F
100
AcDbEntity
  8
0
  6
Continuous
 62
     7
370
    15
100
AcDbLine
 10
162.3766025641
 20
8.2564102564
 30
0.0
 11
162.5960286458
 21
8.0840494792
 31
0.0
  0
LINE
  5
169
330
1F
100
AcDbEntity
  8
0
  6
Continuous
 62
     7
370
    15
100
AcDbLine
 10
161.4289362981
 20
6.8075620994
 30
0.0
 11
162.3766025641
 21
8.2564102564
 31
0.0
  0
LINE
  5
16A
330
1F
100
AcDbEntity
  8
0
  6
Continuous
 62
     7
370
    15
100
AcDbLine
 10
178.7400641026
 20
5.3243689904
 30
0.0
 11
178.7400641026
 21
5.4445763221
 31
0.0
  0
LINE
  5
16B
330
1F
100
AcDbEntity
  8
0
  6
Continuous
 62
     7
370
    15
100
AcDbLine
 10
176.6641025641
 20
4.8371794872
 30
0.0
 11
176.9490384615
 21
4.8371794872
 31
0.0
  0
LINE
  5
16C
330
1F
100
AcDbEntity
  8
0
  6
Continuous
 62
     7
370
    15
100
AcDbLine
 10
179.025
 20
7.3201923077
 30
0.0
 11
179.025
 21
5.478921274
 31
0.0
  0
LINE
  5
16D
330
1F
100
AcDbEntity
  8
0
  6
Continuous
 62
     7
370
    15
100
AcDbLine
 10
178.7400641026
 20
7.3201923077
 30
0.0
 11
179.025
 21
7.3201923077
 31
0.0
  0
LINE
  5
16E
330
1F
100
AcDbEntity
  8
0
  6
Continuous
 62
     7
370
    15
100
AcDbLine
 10
178.7400641026
 20
6.9144130609
 30
0.0
 11
178.7400641026
 21
7.3201923077
 31
0.0
  0
LINE
  5
16F
330
1F
100
AcDbEntity
  8
0
  6
Continuous
 62
     7
370
    15
100
AcDbLine
 10
188.2243589744
 20
8.2564102564
 30
0.0
 11
188.2243589744
 21
5.0
 31
0.0
  0
LINE
  5
170
330
1F
100
AcDbEntity
  8
0
  6
Continuous
 62
     7
370
    15
100
AcDbLine
 10
187.9394230769
 20
8.2564102564
 30
0.0
 11
188.2243589744
 21
8.2564102564
 31
0.0
  0
LINE
  5
171
330
1F
100
AcDbEntity
  8
0
  6
Continuous
 62
     7
370
    15
100
AcDbLine
 10
187.9394230769
 20
5.0
 30
0.0
 11
187.9394230769
 21
8.2564102564
 31
0.0
  0
LINE
  5
172
330
1F
100
AcDbEntity
  8
0
  6
Continuous
 62
     7
370
    15
100
AcDbLine
 10
188.2243589744
 20
5.0
 30
0.0
 11
187.9394230769
 21
5.0
 31
0.0
  0
LINE
  5
173
330
1F
100
AcDbEntity
  8
0
  6
Continuous
 62
     7
370
    15
100
AcDbLine
 10
189.1198717949
 20
8.2564102564
 30
0.0
 11
189.1198717949
 21
5.0
 31
0.0
  0
LINE
  5
174
330
1F
100
AcDbEntity
  8
0
  6
Continuous
 62
     7
370
    15
100
AcDbLine
 10
188.8349358974
 20
8.2564102564
 30
0.0
 11
189.1198717949
 21
8.2564102564
 31
0.0
  0
LINE
  5
175
330
1F
100
AcDbEntity
  8
0
  6
Continuous
 62
     7
370
    15
100
AcDbLine
 10
188.8349358974
 20
5.0
 30
0.0
 11
188.8349358974
 21
8.2564102564
 31
0.0
  0
LINE
  5
176
330
1F
100
AcDbEntity
  8
0
  6
Continuous
 62
     7
370
    15
100
AcDbLine
 10
189.1198717949
 20
5.0
 30
0.0
 11
188.8349358974
 21
5.0
 31
0.0
  0
LINE
  5
177
330
1F
100
AcDbEntity
  8
0
  6
Continuous
 62
     7
370
    15
100
AcDbLine
 10
191.0737179487
 20
8.175
 30
0.0
 11
191.6931991186
 21
8.175
 31
0.0
  0
LINE
  5
178
330
1F
100
AcDbEntity
  8
0
  6
Continuous
 62
     7
370
    15
100
AcDbLine
 10
191.0737179487
 20
5.0
 30
0.0
 11
191.0737179487
 21
8.175
 31
0.0
  0
LINE
  5
179
330
1F
100
AcDbEntity
  8
0
  6
Continuous
 62
     7
370
    15
100
AcDbLine
 10
191.9323417468
 20
5.0
 30
0.0
 11
191.0737179487
 21
5.0
 31
0.0
  0
LINE
  5
17A
330
1F
100
AcDbEntity
  8
0
  6
Continuous
 62
     7
370
    15
100
AcDbLine
 10
5.0
 20
180.0
 30
0.0
 11
334.0
 21
180.0
 31
0.0
  0
LINE
  5
17B
330
1F
100
AcDbEntity
  8
0
  6
Continuous
 62
     7
370
    15
100
AcDbLine
 10
339.0
 20
5.0
 30
0.0
 11
339.0
 21
175.0
 31
0.0
  0
LINE
  5
17C
330
1F
100
AcDbEntity
  8
0
  6
Continuous
 62
     7
370
    15
100
AcDbLine
 10
329.0
 20
0.0
 30
0.0
 11
334.0
 21
0.0
 31
0.0
  0
LINE
  5
17D
330
1F
100
AcDbEntity
  8
0
  6
Continuous
 62
     7
370
    15
100
AcDbLine
 10
329.0
 20
90.0
 30
0.0
 11
329.0
 21
0.0
 31
0.0
  0
LINE
  5
17E
330
1F
100
AcDbEntity
  8
0
  6
Continuous
 62
     7
370
    15
100
AcDbLine
 10
329.0
 20
90.0
 30
0.0
 11
325.5
 21
90.0
 31
0.0
  0
LINE
  5
17F
330
1F
100
AcDbEntity
  8
0
  6
Continuous
 62
     7
370
    15
100
AcDbLine
 10
325.5
 20
90.0
 30
0.0
 11
325.5
 21
0.0
 31
0.0
  0
LINE
  5
180
330
1F
100
AcDbEntity
  8
0
  6
Continuous
 62
     7
370
    15
100
AcDbLine
 10
49.5
 20
0.0
 30
0.0
 11
325.5
 21
0.0
 31
0.0
  0
LINE
  5
181
330
1F
100
AcDbEntity
  8
0
  6
Continuous
 62
     7
370
    15
100
AcDbLine
 10
49.5
 20
0.0
 30
0.0
 11
49.5
 21
30.0
 31
0.0
  0
LINE
  5
182
330
1F
100
AcDbEntity
  8
0
  6
Continuous
 62
     7
370
    15
100
AcDbLine
 10
46.0
 20
30.0
 30
0.0
 11
49.5
 21
30.0
 31
0.0
  0
LINE
  5
183
330
1F
100
AcDbEntity
  8
0
  6
Continuous
 62
     7
370
    15
100
AcDbLine
 10
46.0
 20
0.0
 30
0.0
 11
46.0
 21
30.0
 31
0.0
  0
LINE
  5
184
330
1F
100
AcDbEntity
  8
0
  6
Continuous
 62
     7
370
    15
100
AcDbLine
 10
13.5
 20
0.0
 30
0.0
 11
46.0
 21
0.0
 31
0.0
  0
LINE
  5
185
330
1F
100
AcDbEntity
  8
0
  6
Continuous
 62
     7
370
    15
100
AcDbLine
 10
13.5
 20
90.0
 30
0.0
 11
13.5
 21
0.0
 31
0.0
  0
LINE
  5
186
330
1F
100
AcDbEntity
  8
0
  6
Continuous
 62
     7
370
    15
100
AcDbLine
 10
10.0
 20
90.0
 30
0.0
 11
13.5
 21
90.0
 31
0.0
  0
LINE
  5
187
330
1F
100
AcDbEntity
  8
0
  6
Continuous
 62
     7
370
    15
100
AcDbLine
 10
10.0
 20
90.0
 30
0.0
 11
10.0
 21
0.0
 31
0.0
  0
LINE
  5
188
330
1F
100
AcDbEntity
  8
0
  6
Continuous
 62
     7
370
    15
100
AcDbLine
 10
5.0
 20
0.0
 30
0.0
 11
10.0
 21
0.0
 31
0.0
  0
LINE
  5
189
330
1F
100
AcDbEntity
  8
0
  6
Continuous
 62
     7
370
    15
100
AcDbLine
 10
0.0
 20
5.0
 30
0.0
 11
0.0
 21
175.0
 31
0.0
  0
LINE
  5
18A
330
1F
100
AcDbEntity
  8
0
  6
Continuous
 62
     7
370
    15
100
AcDbLine
 10
147.7946264022
 20
5.0
 30
0.0
 11
146.6440705128
 21
7.2896634615
 31
0.0
  0
LINE
  5
18B
330
1F
100
AcDbEntity
  8
0
  6
Continuous
 62
     7
370
    15
100
AcDbLine
 10
147.8588641827
 20
5.0
 30
0.0
 11
147.7946264022
 21
5.0
 31
0.0
  0
LINE
  5
18C
330
1F
100
AcDbEntity
  8
0
  6
Continuous
 62
     7
370
    15
100
AcDbLine
 10
149.0049679487
 20
7.2845753205
 30
0.0
 11
147.8588641827
 21
5.0
 31
0.0
  0
LINE
  5
18D
330
1F
100
AcDbEntity
  8
0
  6
Continuous
 62
     7
370
    15
100
AcDbLine
 10
149.308984375
 20
5.0
 30
0.0
 11
149.0049679487
 21
7.2845753205
 31
0.0
  0
LINE
  5
18E
330
1F
100
AcDbEntity
  8
0
  6
Continuous
 62
     7
370
    15
100
AcDbLine
 10
149.5951923077
 20
5.0
 30
0.0
 11
149.308984375
 21
5.0
 31
0.0
  0
LINE
  5
18F
330
1F
100
AcDbEntity
  8
0
  6
Continuous
 62
     7
370
    15
100
AcDbLine
 10
149.1735126202
 20
8.175
 30
0.0
 11
149.5951923077
 21
5.0
 31
0.0
  0
LINE
  5
190
330
1F
100
AcDbEntity
  8
0
  6
Continuous
 62
     7
370
    15
100
AcDbLine
 10
149.1321714744
 20
8.175
 30
0.0
 11
149.1735126202
 21
8.175
 31
0.0
  0
LINE
  5
191
330
1F
100
AcDbEntity
  8
0
  6
Continuous
 62
     7
370
    15
100
AcDbLine
 10
147.8245192308
 20
5.5698717949
 30
0.0
 11
149.1321714744
 21
8.175
 31
0.0
  0
LINE
  5
192
330
1F
100
AcDbEntity
  8
0
  6
Continuous
 62
     7
370
    15
100
AcDbLine
 10
146.513686899
 20
8.175
 30
0.0
 11
147.8245192308
 21
5.5698717949
 31
0.0
  0
LINE
  5
193
330
1F
100
AcDbEntity
  8
0
  6
Continuous
 62
     7
370
    15
100
AcDbLine
 10
146.4729817708
 20
8.175
 30
0.0
 11
146.513686899
 21
8.175
 31
0.0
  0
LINE
  5
194
330
1F
100
AcDbEntity
  8
0
  6
Continuous
 62
     7
370
    15
100
AcDbLine
 10
146.0538461538
 20
5.0
 30
0.0
 11
146.4729817708
 21
8.175
 31
0.0
  0
LINE
  5
195
330
1F
100
AcDbEntity
  8
0
  6
Continuous
 62
     7
370
    15
100
AcDbLine
 10
146.3406901042
 20
5.0
 30
0.0
 11
146.0538461538
 21
5.0
 31
0.0
  0
LINE
  5
196
330
1F
100
AcDbEntity
  8
0
  6
Continuous
 62
     7
370
    15
100
AcDbLine
 10
146.6440705128
 20
7.2896634615
 30
0.0
 11
146.3406901042
 21
5.0
 31
0.0
  0
LINE
  5
197
330
1F
100
AcDbEntity
  8
0
  6
Continuous
 62
     7
370
    15
100
AcDbLine
 10
187.0439102564
 20
5.0
 30
0.0
 11
187.0439102564
 21
5.4013271234
 31
0.0
  0
LINE
  5
198
330
1F
100
AcDbEntity
  8
0
  6
Continuous
 62
     7
370
    15
100
AcDbLine
 10
187.3288461538
 20
5.0
 30
0.0
 11
187.0439102564
 21
5.0
 31
0.0
  0
LINE
  5
199
330
1F
100
AcDbEntity
  8
0
  6
Continuous
 62
     7
370
    15
100
AcDbLine
 10
187.3288461538
 20
7.3201923077
 30
0.0
 11
187.3288461538
 21
5.0
 31
0.0
  0
LINE
  5
19A
330
1F
100
AcDbEntity
  8
0
  6
Continuous
 62
     7
370
    15
100
AcDbLine
 10
187.0439102564
 20
7.3201923077
 30
0.0
 11
187.3288461538
 21
7.3201923077
 31
0.0
  0
LINE
  5
19B
330
1F
100
AcDbEntity
  8
0
  6
Continuous
 62
     7
370
    15
100
AcDbLine
 10
187.0439102564
 20
6.8908804087
 30
0.0
 11
187.0439102564
 21
7.3201923077
 31
0.0
  0
LINE
  5
19C
330
1F
100
AcDbEntity
  8
0
  6
Continuous
 62
     7
370
    15
100
AcDbLine
 10
182.6274038462
 20
7.4283153045
 30
0.0
 11
181.6606570513
 21
5.0
 31
0.0
  0
LINE
  5
19D
330
1F
100
AcDbEntity
  8
0
  6
Continuous
 62
     7
370
    15
100
AcDbLine
 10
183.5827023237
 20
5.0
 30
0.0
 11
182.6274038462
 21
7.4283153045
 31
0.0
  0
LINE
  5
19E
330
1F
100
AcDbEntity
  8
0
  6
Continuous
 62
     7
370
    15
100
AcDbLine
 10
183.6234074519
 20
5.0
 30
0.0
 11
183.5827023237
 21
5.0
 31
0.0
  0
LINE
  5
19F
330
1F
100
AcDbEntity
  8
0
  6
Continuous
 62
     7
370
    15
100
AcDbLine
 10
184.4794871795
 20
8.175
 30
0.0
 11
183.6234074519
 21
5.0
 31
0.0
  0
LINE
  5
1A0
330
1F
100
AcDbEntity
  8
0
  6
Continuous
 62
     7
370
    15
100
AcDbLine
 10
184.1881911058
 20
8.175
 30
0.0
 11
184.4794871795
 21
8.175
 31
0.0
  0
LINE
  5
1A1
330
1F
100
AcDbEntity
  8
0
  6
Continuous
 62
     7
370
    15
100
AcDbLine
 10
183.5636217949
 20
5.8624399038
 30
0.0
 11
184.1881911058
 21
8.175
 31
0.0
  0
LINE
  5
1A2
330
1F
100
AcDbEntity
  8
0
  6
Continuous
 62
     7
370
    15
100
AcDbLine
 10
182.6566606571
 20
8.175
 30
0.0
 11
183.5636217949
 21
5.8624399038
 31
0.0
  0
LINE
  5
1A3
330
1F
100
AcDbEntity
  8
0
  6
Continuous
 62
     7
370
    15
100
AcDbLine
 10
182.6153195112
 20
8.175
 30
0.0
 11
182.6566606571
 21
8.175
 31
0.0
  0
LINE
  5
1A4
330
1F
100
AcDbEntity
  8
0
  6
Continuous
 62
     7
370
    15
100
AcDbLine
 10
181.6911858974
 20
5.8465394631
 30
0.0
 11
182.6153195112
 21
8.175
 31
0.0
  0
LINE
  5
1A5
330
1F
100
AcDbEntity
  8
0
  6
Continuous
 62
     7
370
    15
100
AcDbLine
 10
181.0697966747
 20
8.175
 30
0.0
 11
181.6911858974
 21
5.8465394631
 31
0.0
  0
LINE
  5
1A6
330
1F
100
AcDbEntity
  8
0
  6
Continuous
 62
     7
370
    15
100
AcDbLine
 10
180.7753205128
 20
8.175
 30
0.0
 11
181.0697966747
 21
8.175
 31
0.0
  0
LINE
  5
1A7
330
1F
100
AcDbEntity
  8
0
  6
Continuous
 62
     7
370
    15
100
AcDbLine
 10
181.6199519231
 20
5.0
 30
0.0
 11
180.7753205128
 21
8.175
 31
0.0
  0
LINE
  5
1A8
330
1F
100
AcDbEntity
  8
0
  6
Continuous
 62
     7
370
    15
100
AcDbLine
 10
181.6606570513
 20
5.0
 30
0.0
 11
181.6199519231
 21
5.0
 31
0.0
  0
LINE
  5
1A9
330
1F
100
AcDbEntity
  8
0
  6
Continuous
 62
     7
370
    15
100
AcDbLine
 10
171.1689102564
 20
5.2734875801
 30
0.0
 11
171.357807492
 21
5.4884615385
 31
0.0
  0
LINE
  5
1AA
330
1F
100
AcDbEntity
  8
0
  6
Continuous
 62
     7
370
    15
100
AcDbLine
 10
172.471474359
 20
7.0308042869
 30
0.0
 11
172.278125
 21
6.8317307692
 31
0.0
  0
LINE
  5
1AB
330
1F
100
AcDbEntity
  8
0
  6
Continuous
 62
     7
370
    15
100
AcDbLine
 10
173.3262820513
 20
7.3201923077
 30
0.0
 11
173.3262820513
 21
5.0
 31
0.0
  0
LINE
  5
1AC
330
1F
100
AcDbEntity
  8
0
  6
Continuous
 62
     7
370
    15
100
AcDbLine
 10
173.0413461538
 20
7.3201923077
 30
0.0
 11
173.3262820513
 21
7.3201923077
 31
0.0
  0
LINE
  5
1AD
330
1F
100
AcDbEntity
  8
0
  6
Continuous
 62
     7
370
    15
100
AcDbLine
 10
173.0413461538
 20
5.0
 30
0.0
 11
173.0413461538
 21
7.3201923077
 31
0.0
  0
LINE
  5
1AE
330
1F
100
AcDbEntity
  8
0
  6
Continuous
 62
     7
370
    15
100
AcDbLine
 10
173.3262820513
 20
5.0
 30
0.0
 11
173.0413461538
 21
5.0
 31
0.0
  0
LINE
  5
1AF
330
1F
100
AcDbEntity
  8
0
  6
Continuous
 62
     7
370
    15
100
AcDbLine
 10
174.3032051282
 20
5.8389072516
 30
0.0
 11
174.3032051282
 21
5.0
 31
0.0
  0
LINE
  5
1B0
330
1F
100
AcDbEntity
  8
0
  6
Continuous
 62
     7
370
    15
100
AcDbLine
 10
175.7685897436
 20
5.0
 30
0.0
 11
175.7685897436
 21
6.09140625
 31
0.0
  0
LINE
  5
1B1
330
1F
100
AcDbEntity
  8
0
  6
Continuous
 62
     7
370
    15
100
AcDbLine
 10
176.053525641
 20
5.0
 30
0.0
 11
175.7685897436
 21
5.0
 31
0.0
  0
LINE
  5
1B2
330
1F
100
AcDbEntity
  8
0
  6
Continuous
 62
     7
370
    15
100
AcDbLine
 10
176.053525641
 20
6.1849008413
 30
0.0
 11
176.053525641
 21
5.0
 31
0.0
  0
LINE
  5
1B3
330
1F
100
AcDbEntity
  8
0
  6
Continuous
 62
     7
370
    15
100
AcDbLine
 10
174.3032051282
 20
7.3201923077
 30
0.0
 11
174.3032051282
 21
6.9016927083
 31
0.0
  0
LINE
  5
1B4
330
1F
100
AcDbEntity
  8
0
  6
Continuous
 62
     7
370
    15
100
AcDbLine
 10
174.0182692308
 20
7.3201923077
 30
0.0
 11
174.3032051282
 21
7.3201923077
 31
0.0
  0
LINE
  5
1B5
330
1F
100
AcDbEntity
  8
0
  6
Continuous
 62
     7
370
    15
100
AcDbLine
 10
174.0182692308
 20
5.0
 30
0.0
 11
174.0182692308
 21
7.3201923077
 31
0.0
  0
LINE
  5
1B6
330
1F
100
AcDbEntity
  8
0
  6
Continuous
 62
     7
370
    15
100
AcDbLine
 10
174.3032051282
 20
5.0
 30
0.0
 11
174.0182692308
 21
5.0
 31
0.0
  0
LINE
  5
1B7
330
1F
100
AcDbEntity
  8
0
  6
Continuous
 62
     7
370
    15
100
AcDbLine
 10
170.4362179487
 20
5.0
 30
0.0
 11
170.4362179487
 21
5.4013271234
 31
0.0
  0
LINE
  5
1B8
330
1F
100
AcDbEntity
  8
0
  6
Continuous
 62
     7
370
    15
100
AcDbLine
 10
170.7211538462
 20
5.0
 30
0.0
 11
170.4362179487
 21
5.0
 31
0.0
  0
LINE
  5
1B9
330
1F
100
AcDbEntity
  8
0
  6
Continuous
 62
     7
370
    15
100
AcDbLine
 10
170.7211538462
 20
7.3201923077
 30
0.0
 11
170.7211538462
 21
5.0
 31
0.0
  0
LINE
  5
1BA
330
1F
100
AcDbEntity
  8
0
  6
Continuous
 62
     7
370
    15
100
AcDbLine
 10
170.4362179487
 20
7.3201923077
 30
0.0
 11
170.7211538462
 21
7.3201923077
 31
0.0
  0
LINE
  5
1BB
330
1F
100
AcDbEntity
  8
0
  6
Continuous
 62
     7
370
    15
100
AcDbLine
 10
170.4362179487
 20
6.8908804087
 30
0.0
 11
170.4362179487
 21
7.3201923077
 31
0.0
  0
LINE
  5
1BC
330
1F
100
AcDbEntity
  8
0
  6
Continuous
 62
     7
370
    15
100
AcDbLine
 10
167.5410657051
 20
5.7733974359
 30
0.0
 11
167.7903846154
 21
5.5845002003
 31
0.0
  0
LINE
  5
1BD
330
1F
100
AcDbEntity
  8
0
  6
Continuous
 62
     7
370
    15
100
AcDbLine
 10
167.7903846154
 20
7.5924078526
 30
0.0
 11
167.5410657051
 21
7.4016025641
 31
0.0
  0
LINE
  5
1BE
330
1F
100
AcDbEntity
  8
0
  6
Continuous
 62
     7
370
    15
100
AcDbLine
 10
191.3586538462
 20
7.8493589744
 30
0.0
 11
191.3586538462
 21
6.8317307692
 31
0.0
  0
LINE
  5
1BF
330
1F
100
AcDbEntity
  8
0
  6
Continuous
 62
     7
370
    15
100
AcDbLine
 10
191.3586538462
 20
6.8317307692
 30
0.0
 11
191.5500951522
 21
6.8317307692
 31
0.0
  0
LINE
  5
1C0
330
1F
100
AcDbEntity
  8
0
  6
Continuous
 62
     7
370
    15
100
AcDbLine
 10
191.7453525641
 20
7.8493589744
 30
0.0
 11
191.3586538462
 21
7.8493589744
 31
0.0
  0
LINE
  5
1C1
330
1F
100
AcDbEntity
  8
0
  6
Continuous
 62
     7
370
    15
100
AcDbLine
 10
191.3586538462
 20
6.5060897436
 30
0.0
 11
191.3586538462
 21
5.3256410256
 31
0.0
  0
LINE
  5
1C2
330
1F
100
AcDbEntity
  8
0
  6
Continuous
 62
     7
370
    15
100
AcDbLine
 10
191.3586538462
 20
5.3256410256
 30
0.0
 11
191.7644330929
 21
5.3256410256
 31
0.0
  0
LINE
  5
1C3
330
1F
100
AcDbEntity
  8
0
  6
Continuous
 62
     7
370
    15
100
AcDbLine
 10
191.5475510817
 20
6.5060897436
 30
0.0
 11
191.3586538462
 21
6.5060897436
 31
0.0
  0
ARC
  5
1C4
330
1F
100
AcDbEntity
  8
0
  6
Continuous
 62
     7
370
    15
100
AcDbCircle
 10
5.0
 20
175.0
 30
0.0
 40
5.0
100
AcDbArc
 50
90.0
 51
180.0
  0
ARC
  5
1C5
330
1F
100
AcDbEntity
  8
0
  6
Continuous
 62
     7
370
    15
100
AcDbCircle
 10
334.0
 20
175.0
 30
0.0
 40
5.0
100
AcDbArc
 50
0.0
 51
90.0
  0
ARC
  5
1C6
330
1F
100
AcDbEntity
  8
0
  6
Continuous
 62
     7
370
    15
100
AcDbCircle
 10
334.0
 20
5.0
 30
0.0
 40
5.0
100
AcDbArc
 50
270.0
 51
0.0
  0
ARC
  5
1C7
330
1F
100
AcDbEntity
  8
0
  6
Continuous
 62
     7
370
    15
100
AcDbCircle
 10
5.0
 20
5.0
 30
0.0
 40
4.999999999999986
100
AcDbArc
 50
180.0
 51
270.0
  0
MTEXT
  5
1C9
330
1F
100
AcDbEntity
  8
0
  6
Continuous
 62
     7
100
AcDbMText
 10
0.0
 20
-1.0195663917
 30
0.0
 40
4.83362
 41
0.0
 71
     1
 72
     1
  1
SOLIDWORKS Educational Product.
  7
SLDTEXTSTYLE0
 73
     1
 44
1.0
  0
MTEXT
  5
1CA
330
1F
100
AcDbEntity
  8
0
  6
Continuous
 62
     7
100
AcDbMText
 10
0.0
 20
-8.2699963917
 30
0.0
 40
4.83362
 41
0.0
 71
     1
 72
     1
  1
For Instructional Use Only.
  7
SLDTEXTSTYLE0
 73
     1
 44
1.0
  0
ENDSEC
  0
SECTION
  2
OBJECTS
  0
DICTIONARY
  5
C
330
0
100
AcDbDictionary
281
     1
  3
ACAD_GROUP
350
D
  3
ACAD_LAYOUT
350
1A
  3
ACAD_MLINESTYLE
350
17
  3
ACAD_PLOTSETTINGS
350
19
  3
ACAD_PLOTSTYLENAME
350
E
  3
ACAD_SCALELIST
350
47
  0
DICTIONARY
  5
D
102
{ACAD_REACTORS
330
C
102
}
330
C
100
AcDbDictionary
281
     1
  0
DICTIONARY
  5
1A
102
{ACAD_REACTORS
330
C
102
}
330
C
100
AcDbDictionary
281
     1
  3
Layout1
350
1E
  3
Layout2
350
26
  3
Model
350
22
  0
DICTIONARY
  5
17
102
{ACAD_REACTORS
330
C
102
}
330
C
100
AcDbDictionary
281
     1
  3
Standard
350
18
  0
DICTIONARY
  5
19
102
{ACAD_REACTORS
330
C
102
}
330
C
100
AcDbDictionary
281
     1
  0
ACDBDICTIONARYWDFLT
  5
E
102
{ACAD_REACTORS
330
C
102
}
330
C
100
AcDbDictionary
281
     1
  3
Normal
350
F
100
AcDbDictionaryWithDefault
340
F
  0
DICTIONARY
  5
47
102
{ACAD_REACTORS
330
C
102
}
330
C
100
AcDbDictionary
281
     1
  3
A0
350
48
  3
A1
350
49
  3
A2
350
4A
  3
A3
350
4B
  3
A4
350
4C
  3
A5
350
4D
  3
A6
350
4E
  3
A7
350
4F
  3
A8
350
50
  3
A9
350
51
  3
B0
350
52
  3
B1
350
53
  3
B2
350
54
  3
B3
350
55
  3
B4
350
56
  3
B5
350
57
  3
B6
350
58
  3
B7
350
59
  3
B8
350
5A
  3
B9
350
5B
  3
C0
350
5C
  3
C1
350
5D
  3
C2
350
5E
  3
C3
350
5F
  3
C4
350
60
  3
C5
350
61
  3
C6
350
62
  3
C7
350
63
  3
C8
350
64
  3
C9
350
65
  3
D0
350
66
  3
D1
350
67
  3
D2
350
68
  0
LAYOUT
  5
1E
102
{ACAD_REACTORS
330
1A
102
}
330
1A
100
AcDbPlotSettings
  1

  2
none_device
  4

  6

 40
0.0
 41
0.0
 42
0.0
 43
0.0
 44
0.0
 45
0.0
 46
0.0
 47
0.0
 48
0.0
 49
0.0
140
0.0
141
0.0
142
1.0
143
1.0
 70
   688
 72
     1
 73
     0
 74
     5
  7

 75
    16
147
1.0
148
0.0
149
0.0
100
AcDbLayout
  1
Layout1
 70
     1
 71
     1
 10
0.0
 20
0.0
 11
420.0
 21
297.0
 12
0.0
 22
0.0
 32
0.0
 14
1.0000000000E+20
 24
1.0000000000E+20
 34
1.0000000000E+20
 15
-1.0000000000E+20
 25
-1.0000000000E+20
 35
-1.0000000000E+20
146
0.0
 13
0.0
 23
0.0
 33
0.0
 16
1.0
 26
0.0
 36
0.0
 17
0.0
 27
1.0
 37
0.0
 76
     0
330
1B
  0
LAYOUT
  5
26
102
{ACAD_REACTORS
330
1A
102
}
330
1A
100
AcDbPlotSettings
  1

  2
none_device
  4

  6

 40
0.0
 41
0.0
 42
0.0
 43
0.0
 44
0.0
 45
0.0
 46
0.0
 47
0.0
 48
0.0
 49
0.0
140
0.0
141
0.0
142
1.0
143
1.0
 70
   688
 72
     1
 73
     0
 74
     5
  7

 75
    16
147
1.0
148
0.0
149
0.0
100
AcDbLayout
  1
Layout2
 70
     1
 71
     2
 10
0.0
 20
0.0
 11
0.0
 21
0.0
 12
0.0
 22
0.0
 32
0.0
 14
0.0
 24
0.0
 34
0.0
 15
0.0
 25
0.0
 35
0.0
146
0.0
 13
0.0
 23
0.0
 33
0.0
 16
1.0
 26
0.0
 36
0.0
 17
0.0
 27
1.0
 37
0.0
 76
     0
330
23
  0
LAYOUT
  5
22
102
{ACAD_REACTORS
330
1A
102
}
330
1A
100
AcDbPlotSettings
  1

  2
none_device
  4
ANSI_A_(11.00_x_8.50_Inches)
  6

 40
6.35
 41
19.05
 42
6.35000508
 43
19.05000254
 44
279.4
 45
215.9
 46
-4.95300254
 47
15.4647774911
 48
0.0
 49
0.0
140
0.0
141
0.0
142
0.0321238938
143
1.0
 70
  1696
 72
     0
 73
     0
 74
     0
  7

 75
     0
147
0.0179189148
148
-1300.4909072572
149
0.0
100
AcDbLayout
  1
Model
 70
     1
 71
     0
 10
0.0
 20
0.0
 11
420.0
 21
297.0
 12
0.0
 22
0.0
 32
0.0
 14
0.0
 24
0.0
 34
0.0
 15
339.0
 25
180.0
 35
0.0
146
0.0
 13
0.0
 23
0.0
 33
0.0
 16
1.0
 26
0.0
 36
0.0
 17
0.0
 27
1.0
 37
0.0
 76
     0
330
1F
331
29
  0
MLINESTYLE
  5
18
102
{ACAD_REACTORS
330
17
102
}
330
17
100
AcDbMlineStyle
  2
Standard
 70
     0
  3

 62
   256
 51
90.0
 52
90.0
 71
     2
 49
0.5
 62
   256
  6
BYLAYER
 49
-0.5
 62
   256
  6
BYLAYER
  0
ACDBPLACEHOLDER
  5
F
102
{ACAD_REACTORS
330
E
102
}
330
E
  0
SCALE
  5
48
102
{ACAD_REACTORS
330
47
102
}
330
47
100
AcDbScale
 70
     0
300
1:1
140
1.0
141
1.0
290
     1
  0
SCALE
  5
49
102
{ACAD_REACTORS
330
47
102
}
330
47
100
AcDbScale
 70
     0
300
1:2
140
1.0
141
2.0
290
     0
  0
SCALE
  5
4A
102
{ACAD_REACTORS
330
47
102
}
330
47
100
AcDbScale
 70
     0
300
1:4
140
1.0
141
4.0
290
     0
  0
SCALE
  5
4B
102
{ACAD_REACTORS
330
47
102
}
330
47
100
AcDbScale
 70
     0
300
1:5
140
1.0
141
5.0
290
     0
  0
SCALE
  5
4C
102
{ACAD_REACTORS
330
47
102
}
330
47
100
AcDbScale
 70
     0
300
1:8
140
1.0
141
8.0
290
     0
  0
SCALE
  5
4D
102
{ACAD_REACTORS
330
47
102
}
330
47
100
AcDbScale
 70
     0
300
1:10
140
1.0
141
10.0
290
     0
  0
SCALE
  5
4E
102
{ACAD_REACTORS
330
47
102
}
330
47
100
AcDbScale
 70
     0
300
1:16
140
1.0
141
16.0
290
     0
  0
SCALE
  5
4F
102
{ACAD_REACTORS
330
47
102
}
330
47
100
AcDbScale
 70
     0
300
1:20
140
1.0
141
20.0
290
     0
  0
SCALE
  5
50
102
{ACAD_REACTORS
330
47
102
}
330
47
100
AcDbScale
 70
     0
300
1:30
140
1.0
141
30.0
290
     0
  0
SCALE
  5
51
102
{ACAD_REACTORS
330
47
102
}
330
47
100
AcDbScale
 70
     0
300
1:40
140
1.0
141
40.0
290
     0
  0
SCALE
  5
52
102
{ACAD_REACTORS
330
47
102
}
330
47
100
AcDbScale
 70
     0
300
1:50
140
1.0
141
50.0
290
     0
  0
SCALE
  5
53
102
{ACAD_REACTORS
330
47
102
}
330
47
100
AcDbScale
 70
     0
300
1:100
140
1.0
141
100.0
290
     0
  0
SCALE
  5
54
102
{ACAD_REACTORS
330
47
102
}
330
47
100
AcDbScale
 70
     0
300
2:1
140
2.0
141
1.0
290
     0
  0
SCALE
  5
55
102
{ACAD_REACTORS
330
47
102
}
330
47
100
AcDbScale
 70
     0
300
4:1
140
4.0
141
1.0
290
     0
  0
SCALE
  5
56
102
{ACAD_REACTORS
330
47
102
}
330
47
100
AcDbScale
 70
     0
300
8:1
140
8.0
141
1.0
290
     0
  0
SCALE
  5
57
102
{ACAD_REACTORS
330
47
102
}
330
47
100
AcDbScale
 70
     0
300
10:1
140
10.0
141
1.0
290
     0
  0
SCALE
  5
58
102
{ACAD_REACTORS
330
47
102
}
330
47
100
AcDbScale
 70
     0
300
100:1
140
100.0
141
1.0
290
     0
  0
SCALE
  5
59
102
{ACAD_REACTORS
330
47
102
}
330
47
100
AcDbScale
 70
     0
300
1/128" = 1'-0"
140
0.0078125
141
12.0
290
     0
  0
SCALE
  5
5A
102
{ACAD_REACTORS
330
47
102
}
330
47
100
AcDbScale
 70
     0
300
1/64" = 1'-0"
140
0.015625
141
12.0
290
     0
  0
SCALE
  5
5B
102
{ACAD_REACTORS
330
47
102
}
330
47
100
AcDbScale
 70
     0
300
1/32" = 1'-0"
140
0.03125
141
12.0
290
     0
  0
SCALE
  5
5C
102
{ACAD_REACTORS
330
47
102
}
330
47
100
AcDbScale
 70
     0
300
1/16" = 1'-0"
140
0.0625
141
12.0
290
     0
  0
SCALE
  5
5D
102
{ACAD_REACTORS
330
47
102
}
330
47
100
AcDbScale
 70
     0
300
3/32" = 1'-0"
140
0.09375
141
12.0
290
     0
  0
SCALE
  5
5E
102
{ACAD_REACTORS
330
47
102
}
330
47
100
AcDbScale
 70
     0
300
1/8" = 1'-0"
140
0.125
141
12.0
290
     0
  0
SCALE
  5
5F
102
{ACAD_REACTORS
330
47
102
}
330
47
100
AcDbScale
 70
     0
300
3/16" = 1'-0"
140
0.1875
141
12.0
290
     0
  0
SCALE
  5
60
102
{ACAD_REACTORS
330
47
102
}
330
47
100
AcDbScale
 70
     0
300
1/4" = 1'-0"
140
0.25
141
12.0
290
     0
  0
SCALE
  5
61
102
{ACAD_REACTORS
330
47
102
}
330
47
100
AcDbScale
 70
     0
300
3/8" = 1'-0"
140
0.375
141
12.0
290
     0
  0
SCALE
  5
62
102
{ACAD_REACTORS
330
47
102
}
330
47
100
AcDbScale
 70
     0
300
1/2" = 1'-0"
140
0.5
141
12.0
290
     0
  0
SCALE
  5
63
102
{ACAD_REACTORS
330
47
102
}
330
47
100
AcDbScale
 70
     0
300
3/4" = 1'-0"
140
0.75
141
12.0
290
     0
  0
SCALE
  5
64
102
{ACAD_REACTORS
330
47
102
}
330
47
100
AcDbScale
 70
     0
300
1" = 1'-0"
140
1.0
141
12.0
290
     0
  0
SCALE
  5
65
102
{ACAD_REACTORS
330
47
102
}
330
47
100
AcDbScale
 70
     0
300
1-1/2" = 1'-0"
140
1.5
141
12.0
290
     0
  0
SCALE
  5
66
102
{ACAD_REACTORS
330
47
102
}
330
47
100
AcDbScale
 70
     0
300
3" = 1'-0"
140
3.0
141
12.0
290
     0
  0
SCALE
  5
67
102
{ACAD_REACTORS
330
47
102
}
330
47
100
AcDbScale
 70
     0
300
6" = 1'-0"
140
6.0
141
12.0
290
     0
  0
SCALE
  5
68
102
{ACAD_REACTORS
330
47
102
}
330
47
100
AcDbScale
 70
     0
300
1'-0" = 1'-0"
140
12.0
141
12.0
290
     0
  0
ENDSEC
  0
EOF
