  0
SECTION
  2
HEADER
  9
$ACADVER
  1
AC1015
  9
$ACADMAINTVER
 70
     6
  9
$DWGCODEPAGE
  3
ANSI_1252
  9
$INSBASE
 10
0.0
 20
0.0
 30
0.0
  9
$EXTMIN
 10
-53.5
 20
-43.5
 30
0.0
  9
$EXTMAX
 10
45.0
 20
30.0
 30
0.0
  9
$LIMMIN
 10
0.0
 20
0.0
  9
$LIMMAX
 10
420.0
 20
297.0
  9
$ORTHOMODE
 70
     0
  9
$REGENMODE
 70
     1
  9
$FILLMODE
 70
     1
  9
$QTEXTMODE
 70
     0
  9
$MIRRTEXT
 70
     1
  9
$LTSCALE
 40
1.0
  9
$ATTMODE
 70
     1
  9
$TEXTSIZE
 40
6.35
  9
$TRACEWID
 40
1.0
  9
$TEXTSTYLE
  7
Standard
  9
$CLAYER
  8
0
  9
$CELTYPE
  6
ByLayer
  9
$CECOLOR
 62
   256
  9
$CELTSCALE
 40
1.0
  9
$DISPSILH
 70
     0
  9
$DIMSCALE
 40
1.0
  9
$DIMASZ
 40
5.9944
  9
$DIMEXO
 40
0.9906
  9
$DIMDLI
 40
3.75
  9
$DIMRND
 40
0.0
  9
$DIMDLE
 40
0.0
  9
$DIMEXE
 40
0.9906
  9
$DIMTP
 40
0.0
  9
$DIMTM
 40
0.0
  9
$DIMTXT
 40
6.35
  9
$DIMCEN
 40
2.5
  9
$DIMTSZ
 40
0.0
  9
$DIMTOL
 70
     0
  9
$DIMLIM
 70
     0
  9
$DIMTIH
 70
     1
  9
$DIMTOH
 70
     1
  9
$DIMSE1
 70
     0
  9
$DIMSE2
 70
     0
  9
$DIMTAD
 70
     1
  9
$DIMZIN
 70
     0
  9
$DIMBLK
  1

  9
$DIMASO
 70
     1
  9
$DIMSHO
 70
     1
  9
$DIMPOST
  1

  9
$DIMAPOST
  1

  9
$DIMALT
 70
     0
  9
$DIMALTD
 70
     3
  9
$DIMALTF
 40
0.0393700787
  9
$DIMLFAC
 40
1.0
  9
$DIMTOFL
 70
     1
  9
$DIMTVP
 40
0.0
  9
$DIMTIX
 70
     0
  9
$DIMSOXD
 70
     0
  9
$DIMSAH
 70
     0
  9
$DIMBLK1
  1

  9
$DIMBLK2
  1

  9
$DIMSTYLE
  2
ISO-25
  9
$DIMCLRD
 70
     0
  9
$DIMCLRE
 70
     0
  9
$DIMCLRT
 70
     0
  9
$DIMTFAC
 40
1.0
  9
$DIMGAP
 40
1.524
  9
$DIMJUST
 70
     0
  9
$DIMSD1
 70
     0
  9
$DIMSD2
 70
     0
  9
$DIMTOLJ
 70
     0
  9
$DIMTZIN
 70
     0
  9
$DIMALTZ
 70
     0
  9
$DIMALTTZ
 70
     0
  9
$DIMUPT
 70
     0
  9
$DIMDEC
 70
     2
  9
$DIMTDEC
 70
     2
  9
$DIMALTU
 70
     2
  9
$DIMALTTD
 70
     3
  9
$DIMTXSTY
  7
Standard
  9
$DIMAUNIT
 70
     0
  9
$DIMADEC
 70
     2
  9
$DIMALTRND
 40
0.0
  9
$DIMAZIN
 70
     0
  9
$DIMDSEP
 70
    44
  9
$DIMATFIT
 70
     3
  9
$DIMFRAC
 70
     0
  9
$DIMLDRBLK
  1

  9
$DIMLUNIT
 70
     2
  9
$DIMLWD
 70
    -2
  9
$DIMLWE
 70
    -2
  9
$DIMTMOVE
 70
     0
  9
$LUNITS
 70
     2
  9
$LUPREC
 70
     2
  9
$SKETCHINC
 40
1.0
  9
$FILLETRAD
 40
10.0
  9
$AUNITS
 70
     0
  9
$AUPREC
 70
     2
  9
$MENU
  1
.
  9
$ELEVATION
 40
0.0
  9
$PELEVATION
 40
0.0
  9
$THICKNESS
 40
0.0
  9
$LIMCHECK
 70
     0
  9
$CHAMFERA
 40
0.0
  9
$CHAMFERB
 40
0.0
  9
$CHAMFERC
 40
0.0
  9
$CHAMFERD
 40
0.0
  9
$SKPOLY
 70
     0
  9
$TDCREATE
 40
2458002.485638727
  9
$TDUCREATE
 40
2458002.44397206
  9
$TDUPDATE
 40
2458002.485665197
  9
$TDUUPDATE
 40
2458002.44399853
  9
$TDINDWG
 40
0.0000000116
  9
$TDUSRTIMER
 40
0.0000000116
  9
$USRTIMER
 70
     1
  9
$ANGBASE
 50
0.0
  9
$ANGDIR
 70
     0
  9
$PDMODE
 70
     0
  9
$PDSIZE
 40
-1.0
  9
$PLINEWID
 40
0.0
  9
$SPLFRAME
 70
     0
  9
$SPLINETYPE
 70
     6
  9
$SPLINESEGS
 70
     8
  9
$HANDSEED
  5
1CA
  9
$SURFTAB1
 70
     6
  9
$SURFTAB2
 70
     6
  9
$SURFTYPE
 70
     6
  9
$SURFU
 70
     6
  9
$SURFV
 70
     6
  9
$UCSBASE
  2

  9
$UCSNAME
  2

  9
$UCSORG
 10
0.0
 20
0.0
 30
0.0
  9
$UCSXDIR
 10
1.0
 20
0.0
 30
0.0
  9
$UCSYDIR
 10
0.0
 20
1.0
 30
0.0
  9
$UCSORTHOREF
  2

  9
$UCSORTHOVIEW
 70
     0
  9
$UCSORGTOP
 10
0.0
 20
0.0
 30
0.0
  9
$UCSORGBOTTOM
 10
0.0
 20
0.0
 30
0.0
  9
$UCSORGLEFT
 10
0.0
 20
0.0
 30
0.0
  9
$UCSORGRIGHT
 10
0.0
 20
0.0
 30
0.0
  9
$UCSORGFRONT
 10
0.0
 20
0.0
 30
0.0
  9
$UCSORGBACK
 10
0.0
 20
0.0
 30
0.0
  9
$PUCSBASE
  2

  9
$PUCSNAME
  2

  9
$PUCSORG
 10
0.0
 20
0.0
 30
0.0
  9
$PUCSXDIR
 10
1.0
 20
0.0
 30
0.0
  9
$PUCSYDIR
 10
0.0
 20
1.0
 30
0.0
  9
$PUCSORTHOREF
  2

  9
$PUCSORTHOVIEW
 70
     0
  9
$PUCSORGTOP
 10
0.0
 20
0.0
 30
0.0
  9
$PUCSORGBOTTOM
 10
0.0
 20
0.0
 30
0.0
  9
$PUCSORGLEFT
 10
0.0
 20
0.0
 30
0.0
  9
$PUCSORGRIGHT
 10
0.0
 20
0.0
 30
0.0
  9
$PUCSORGFRONT
 10
0.0
 20
0.0
 30
0.0
  9
$PUCSORGBACK
 10
0.0
 20
0.0
 30
0.0
  9
$USERI1
 70
     0
  9
$USERI2
 70
     0
  9
$USERI3
 70
     0
  9
$USERI4
 70
     0
  9
$USERI5
 70
     0
  9
$USERR1
 40
0.0
  9
$USERR2
 40
0.0
  9
$USERR3
 40
0.0
  9
$USERR4
 40
0.0
  9
$USERR5
 40
0.0
  9
$WORLDVIEW
 70
     1
  9
$SHADEDGE
 70
     3
  9
$SHADEDIF
 70
    70
  9
$TILEMODE
 70
     1
  9
$MAXACTVP
 70
    64
  9
$PINSBASE
 10
0.0
 20
0.0
 30
0.0
  9
$PLIMCHECK
 70
     0
  9
$PEXTMIN
 10
1.0000000000E+20
 20
1.0000000000E+20
 30
1.0000000000E+20
  9
$PEXTMAX
 10
-1.0000000000E+20
 20
-1.0000000000E+20
 30
-1.0000000000E+20
  9
$PLIMMIN
 10
0.0
 20
0.0
  9
$PLIMMAX
 10
420.0
 20
297.0
  9
$UNITMODE
 70
     0
  9
$VISRETAIN
 70
     1
  9
$PLINEGEN
 70
     0
  9
$PSLTSCALE
 70
     1
  9
$TREEDEPTH
 70
  3020
  9
$CMLSTYLE
  2
Standard
  9
$CMLJUST
 70
     0
  9
$CMLSCALE
 40
20.0
  9
$PROXYGRAPHICS
 70
     1
  9
$MEASUREMENT
 70
     1
  9
$CELWEIGHT
370
    -1
  9
$ENDCAPS
280
     0
  9
$JOINSTYLE
280
     0
  9
$LWDISPLAY
290
     1
  9
$INSUNITS
 70
     4
  9
$HYPERLINKBASE
  1

  9
$STYLESHEET
  1

  9
$XEDIT
290
     1
  9
$CEPSNTYPE
380
     0
  9
$PSTYLEMODE
290
     1
  9
$FINGERPRINTGUID
  2
{1696D6A7-6D8B-4D30-92F3-D3A63B1A10E6}
  9
$VERSIONGUID
  2
{FAEB1C32-E019-11D5-929B-00C0DF256EC4}
  9
$EXTNAMES
290
     1
  9
$PSVPSCALE
 40
0.0
  9
$OLESTARTUP
290
     0
  0
ENDSEC
  0
SECTION
  2
CLASSES
  0
CLASS
  1
ACDBDICTIONARYWDFLT
  2
AcDbDictionaryWithDefault
  3
ObjectDBX Classes
 90
        0
280
     0
281
     0
  0
CLASS
  1
VISUALSTYLE
  2
AcDbVisualStyle
  3
ObjectDBX Classes
 90
     4095
280
     0
281
     0
  0
CLASS
  1
MATERIAL
  2
AcDbMaterial
  3
ObjectDBX Classes
 90
     1153
280
     0
281
     0
  0
CLASS
  1
SCALE
  2
AcDbScale
  3
ObjectDBX Classes
 90
     1153
280
     0
281
     0
  0
CLASS
  1
TABLESTYLE
  2
AcDbTableStyle
  3
ObjectDBX Classes
 90
     4095
280
     0
281
     0
  0
CLASS
  1
MLEADERSTYLE
  2
AcDbMLeaderStyle
  3
ACDB_MLEADERSTYLE_CLASS
 90
     4095
280
     0
281
     0
  0
CLASS
  1
SUN
  2
AcDbSun
  3
SCENEOE
 90
     1153
280
     0
281
     0
  0
CLASS
  1
ACDBPLACEHOLDER
  2
AcDbPlaceHolder
  3
ObjectDBX Classes
 90
        0
280
     0
281
     0
  0
CLASS
  1
LAYOUT
  2
AcDbLayout
  3
ObjectDBX Classes
 90
        0
280
     0
281
     0
  0
ENDSEC
  0
SECTION
  2
TABLES
  0
TABLE
  2
VPORT
  5
8
330
0
100
AcDbSymbolTable
 70
     1
  0
VPORT
  5
29
330
8
100
AcDbSymbolTableRecord
100
AcDbViewportTableRecord
  2
*Active
 70
     0
 10
0.0
 20
0.0
 11
1.0
 21
1.0
 12
-4.25
 22
-6.75
 13
0.0
 23
0.0
 14
10.0
 24
10.0
 15
10.0
 25
10.0
 16
0.0
 26
0.0
 36
1.0
 17
0.0
 27
0.0
 37
0.0
 40
74.97
 41
1.3401360544
 42
50.0
 43
0.0
 44
0.0
 50
0.0
 51
0.0
 71
     0
 72
   100
 73
     1
 74
     3
 75
     0
 76
     0
 77
     0
 78
     0
281
     0
 65
     1
110
0.0
120
0.0
130
0.0
111
1.0
121
0.0
131
0.0
112
0.0
122
1.0
132
0.0
 79
     0
146
0.0
  0
ENDTAB
  0
TABLE
  2
LTYPE
  5
5
330
0
100
AcDbSymbolTable
 70
     6
  0
LTYPE
  5
14
330
5
100
AcDbSymbolTableRecord
100
AcDbLinetypeTableRecord
  2
ByBlock
 70
     0
  3

 72
    65
 73
     0
 40
0.0
  0
LTYPE
  5
15
330
5
100
AcDbSymbolTableRecord
100
AcDbLinetypeTableRecord
  2
ByLayer
 70
     0
  3

 72
    65
 73
     0
 40
0.0
  0
LTYPE
  5
16
330
5
100
AcDbSymbolTableRecord
100
AcDbLinetypeTableRecord
  2
Continuous
 70
     0
  3
Solid line
 72
    65
 73
     0
 40
0.0
  0
LTYPE
  5
6E
330
5
100
AcDbSymbolTableRecord
100
AcDbLinetypeTableRecord
  2
HIDDEN
 70
     0
  3
Hidden __ __ __ __ __ __ __ __ __ __ __ __ __ __
 72
    65
 73
     2
 40
1.905
 49
1.27
 74
     0
 49
-0.635
 74
     0
  0
LTYPE
  5
6F
330
5
100
AcDbSymbolTableRecord
100
AcDbLinetypeTableRecord
  2
PHANTOM
 70
     0
  3
Phantom ______  __  __  ______  __  __  ______
 72
    65
 73
     6
 40
12.7
 49
6.35
 74
     0
 49
-1.27
 74
     0
 49
1.27
 74
     0
 49
-1.27
 74
     0
 49
1.27
 74
     0
 49
-1.27
 74
     0
  0
LTYPE
  5
70
330
5
100
AcDbSymbolTableRecord
100
AcDbLinetypeTableRecord
  2
CENTER
 70
     0
  3
Center ____ _ ____ _ ____ _ ____ _ ____ _ ____
 72
    65
 73
     4
 40
10.16
 49
6.35
 74
     0
 49
-1.27
 74
     0
 49
1.27
 74
     0
 49
-1.27
 74
     0
  0
LTYPE
  5
71
330
5
100
AcDbSymbolTableRecord
100
AcDbLinetypeTableRecord
  2
CENTERX2
 70
     0
  3
Center (2x) ________  __  ________  __  _____
 72
    65
 73
     4
 40
20.32
 49
12.7
 74
     0
 49
-2.54
 74
     0
 49
2.54
 74
     0
 49
-2.54
 74
     0
  0
LTYPE
  5
72
330
5
100
AcDbSymbolTableRecord
100
AcDbLinetypeTableRecord
  2
DOT2
 70
     0
  3
Dot (.5x) ........................................
 72
    65
 73
     2
 40
0.635
 49
0.0
 74
     0
 49
-0.635
 74
     0
  0
ENDTAB
  0
TABLE
  2
LAYER
  5
2
330
0
100
AcDbSymbolTable
 70
     1
  0
LAYER
  5
10
330
2
100
AcDbSymbolTableRecord
100
AcDbLayerTableRecord
  2
0
 70
     0
 62
     7
  6
Continuous
370
    -3
390
F
  0
ENDTAB
  0
TABLE
  2
STYLE
  5
3
330
0
100
AcDbSymbolTable
 70
     2
  0
STYLE
  5
11
330
3
100
AcDbSymbolTableRecord
100
AcDbTextStyleTableRecord
  2
Standard
 70
     0
 40
0.0
 41
1.0
 50
0.0
 71
     0
 42
6.35
  3
txt
  4

  0
STYLE
  5
1C7
330
3
100
AcDbSymbolTableRecord
100
AcDbTextStyleTableRecord
  2
SLDTEXTSTYLE0
 70
     0
 40
0.0
 41
0.7
 50
0.0
 71
     0
 42
6.35
  3
TXT
  4

  0
ENDTAB
  0
TABLE
  2
VIEW
  5
6
330
0
100
AcDbSymbolTable
 70
     0
  0
ENDTAB
  0
TABLE
  2
UCS
  5
7
330
0
100
AcDbSymbolTable
 70
     0
  0
ENDTAB
  0
TABLE
  2
APPID
  5
9
330
0
100
AcDbSymbolTable
 70
     1
  0
APPID
  5
12
330
9
100
AcDbSymbolTableRecord
100
AcDbRegAppTableRecord
  2
ACAD
 70
     0
  0
ENDTAB
  0
TABLE
  2
DIMSTYLE
  5
A
330
0
100
AcDbSymbolTable
 70
     1
100
AcDbDimStyleTable
  0
DIMSTYLE
105
27
330
A
100
AcDbSymbolTableRecord
100
AcDbDimStyleTableRecord
  2
ISO-25
 70
     0
 41
2.5
 42
0.625
 43
3.75
 44
1.25
 73
     0
 74
     0
 77
     1
 78
     8
140
2.5
141
2.5
143
0.0393700787
147
0.625
171
     3
172
     1
178
     0
271
     2
272
     2
274
     3
278
    44
283
     0
284
     8
340
11
  0
ENDTAB
  0
TABLE
  2
BLOCK_RECORD
  5
1
330
0
100
AcDbSymbolTable
 70
     1
  0
BLOCK_RECORD
  5
1F
330
1
100
AcDbSymbolTableRecord
100
AcDbBlockTableRecord
  2
*Model_Space
340
22
  0
BLOCK_RECORD
  5
1B
330
1
100
AcDbSymbolTableRecord
100
AcDbBlockTableRecord
  2
*Paper_Space
340
1E
  0
BLOCK_RECORD
  5
23
330
1
100
AcDbSymbolTableRecord
100
AcDbBlockTableRecord
  2
*Paper_Space0
340
26
  0
ENDTAB
  0
ENDSEC
  0
SECTION
  2
BLOCKS
  0
BLOCK
  5
20
330
1F
100
AcDbEntity
  8
0
100
AcDbBlockBegin
  2
*Model_Space
 70
     0
 10
0.0
 20
0.0
 30
0.0
  3
*Model_Space
  1

  0
ENDBLK
  5
21
330
1F
100
AcDbEntity
  8
0
100
AcDbBlockEnd
  0
BLOCK
  5
1C
330
1B
100
AcDbEntity
 67
     1
  8
0
100
AcDbBlockBegin
  2
*Paper_Space
 70
     0
 10
0.0
 20
0.0
 30
0.0
  3
*Paper_Space
  1

  0
ENDBLK
  5
1D
330
1B
100
AcDbEntity
 67
     1
  8
0
100
AcDbBlockEnd
  0
BLOCK
  5
24
330
23
100
AcDbEntity
  8
0
100
AcDbBlockBegin
  2
*Paper_Space0
 70
     0
 10
0.0
 20
0.0
 30
0.0
  3
*Paper_Space0
  1

  0
ENDBLK
  5
25
330
23
100
AcDbEntity
  8
0
100
AcDbBlockEnd
  0
ENDSEC
  0
SECTION
  2
ENTITIES
  0
SPLINE
  5
7E
330
1F
100
AcDbEntity
  8
0
  6
Continuous
 62
     7
370
    15
100
AcDbSpline
210
0.0
220
0.0
230
1.0
 70
     8
 71
     3
 72
    15
 73
    11
 74
     0
 42
0.000000001
 43
0.00000001
 40
0.0
 40
0.0
 40
0.0
 40
0.0
 40
0.1262316208574839
 40
0.2493566261741961
 40
0.3713900592348912
 40
0.4998886674841423
 40
0.627203523544608
 40
0.750585644663471
 40
0.8722433966898699
 40
1.0
 40
1.0
 40
1.0
 40
1.0
 10
-39.59189342040332
 20
13.35806623931618
 30
0.0
 10
-39.6079210836131
 20
13.35898470677017
 30
0.0
 10
-39.63958196221304
 20
13.36079903779137
 30
0.0
 10
-39.68513533606347
 20
13.37459453665282
 30
0.0
 10
-39.7268805203583
 20
13.3975663579895
 30
0.0
 10
-39.76430028245579
 20
13.42794983704227
 30
0.0
 10
-39.79528949230527
 20
13.46519295209973
 30
0.0
 10
-39.81759447680564
 20
13.50710874680479
 30
0.0
 10
-39.8318661675025
 20
13.55266590986404
 30
0.0
 10
-39.83356034187901
 20
13.58436424118383
 30
0.0
 10
-39.83442814262555
 20
13.6006009615384
 30
0.0
  0
SPLINE
  5
7F
330
1F
100
AcDbEntity
  8
0
  6
Continuous
 62
     7
370
    15
100
AcDbSpline
210
0.0
220
0.0
230
1.0
 70
     8
 71
     3
 72
    15
 73
    11
 74
     0
 42
0.000000001
 43
0.00000001
 40
0.0
 40
0.0
 40
0.0
 40
0.0
 40
0.1275739866295488
 40
0.2486235365908089
 40
0.3718292939615899
 40
0.4989621647798037
 40
0.6260950355980052
 40
0.7479540327400214
 40
0.87090304183278
 40
1.0
 40
1.0
 40
1.0
 40
1.0
 10
-39.34935869818111
 20
13.6006009615384
 30
0.0
 10
-39.35028994455954
 20
13.58438270455369
 30
0.0
 10
-39.35210481116491
 20
13.55277563076532
 30
0.0
 10
-39.36544317772645
 20
13.50700763207206
 30
0.0
 10
-39.38794884202175
 20
13.46518394240917
 30
0.0
 10
-39.41887185501226
 20
13.42815987017333
 30
0.0
 10
-39.45578972550788
 20
13.39738812207567
 30
0.0
 10
-39.49750717171761
 20
13.37462349824772
 30
0.0
 10
-39.54340785811399
 20
13.36067373790739
 30
0.0
 10
-39.57547087077956
 20
13.35894942542327
 30
0.0
 10
-39.59189342040333
 20
13.35806623931618
 30
0.0
  0
SPLINE
  5
80
330
1F
100
AcDbEntity
  8
0
  6
Continuous
 62
     7
370
    15
100
AcDbSpline
210
0.0
220
0.0
230
1.0
 70
     8
 71
     3
 72
    15
 73
    11
 74
     0
 42
0.000000001
 43
0.00000001
 40
0.0
 40
0.0
 40
0.0
 40
0.0
 40
0.1290412409350769
 40
0.2515082619839429
 40
0.3740516459528018
 40
0.5011296472235177
 40
0.6282076484942494
 40
0.7500140522511912
 40
0.8724810733000529
 40
1.0
 40
1.0
 40
1.0
 40
1.0
 10
-39.59189342040332
 20
13.84313568376062
 30
0.0
 10
-39.57549771484872
 20
13.84217407077721
 30
0.0
 10
-39.54354161013245
 20
13.84029983577754
 30
0.0
 10
-39.49722308344626
 20
13.82745992128879
 30
0.0
 10
-39.45598172362219
 20
13.80364077847774
 30
0.0
 10
-39.4188151513643
 20
13.77311759532038
 30
0.0
 10
-39.38816199578601
 20
13.73608691319713
 30
0.0
 10
-39.36516250252481
 20
13.69451397294728
 30
0.0
 10
-39.35220975654704
 20
13.64858000731791
 30
0.0
 10
-39.35032176893169
 20
13.61680800106558
 30
0.0
 10
-39.34935869818111
 20
13.6006009615384
 30
0.0
  0
SPLINE
  5
81
330
1F
100
AcDbEntity
  8
0
  6
Continuous
 62
     7
370
    15
100
AcDbSpline
210
0.0
220
0.0
230
1.0
 70
     8
 71
     3
 72
    15
 73
    11
 74
     0
 42
0.000000001
 43
0.00000001
 40
0.0
 40
0.0
 40
0.0
 40
0.0
 40
0.1277020495823487
 40
0.2507744789237336
 40
0.3727558021246229
 40
0.5000162930891198
 40
0.6284600307648499
 40
0.7511793925142043
 40
0.8738222816829972
 40
1.0
 40
1.0
 40
1.0
 40
1.0
 10
-39.83442814262555
 20
13.6006009615384
 30
0.0
 10
-39.83352776311668
 20
13.61682599065787
 30
0.0
 10
-39.83175964582405
 20
13.64868783810874
 30
0.0
 10
-39.81787946967317
 20
13.69441568789769
 30
0.0
 10
-39.79507565265474
 20
13.7360777590004
 30
0.0
 10
-39.76435755965492
 20
13.77332812666754
 30
0.0
 10
-39.72668667455654
 20
13.80345924875831
 30
0.0
 10
-39.68541954030376
 20
13.82748935362223
 30
0.0
 10
-39.63945037168136
 20
13.84018093907232
 30
0.0
 10
-39.60789516544988
 20
13.84214148480739
 30
0.0
 10
-39.59189342040332
 20
13.84313568376062
 30
0.0
  0
SPLINE
  5
95
330
1F
100
AcDbEntity
  8
0
  6
Continuous
 62
     7
370
    15
100
AcDbSpline
210
0.0
220
0.0
230
1.0
 70
     8
 71
     3
 72
    19
 73
    15
 74
     0
 42
0.000000001
 43
0.00000001
 40
0.0
 40
0.0
 40
0.0
 40
0.0
 40
0.0843261511037435
 40
0.1670353409858412
 40
0.2495407139852795
 40
0.3327066655796653
 40
0.4158726171740491
 40
0.4977774155681191
 40
0.5803136056784771
 40
0.6645325781316559
 40
0.7495711764063195
 40
0.8324741628544076
 40
0.9156738488962565
 40
0.9999999999999999
 40
0.9999999999999999
 40
0.9999999999999999
 40
0.9999999999999999
 10
-39.87174117681359
 20
5.275130208333284
 30
0.0
 10
-39.8704704041744
 20
5.314293365177612
 30
0.0
 10
-39.86795322607099
 20
5.391868721955444
 30
0.0
 10
-39.84552971771006
 20
5.505984214808841
 30
0.0
 10
-39.80918535811551
 20
5.61563501105053
 30
0.0
 10
-39.75911364940106
 20
5.720050356709531
 30
0.0
 10
-39.69587038559021
 20
5.816782340664588
 30
0.0
 10
-39.61972281943292
 20
5.903296287182223
 30
0.0
 10
-39.53235389955184
 20
5.979291196074099
 30
0.0
 10
-39.43349561007942
 20
6.042201535204475
 30
0.0
 10
-39.32795004576105
 20
6.09347363234378
 30
0.0
 10
-39.21689318546068
 20
6.129636583887824
 30
0.0
 10
-39.10256009256144
 20
6.153023259045421
 30
0.0
 10
-39.02473221560412
 20
6.155436105603032
 30
0.0
 10
-38.98555661484777
 20
6.156650641025592
 30
0.0
  0
SPLINE
  5
96
330
1F
100
AcDbEntity
  8
0
  6
Continuous
 62
     7
370
    15
100
AcDbSpline
210
0.0
220
0.0
230
1.0
 70
     8
 71
     3
 72
    19
 73
    15
 74
     0
 42
0.000000001
 43
0.00000001
 40
0.0
 40
0.0
 40
0.0
 40
0.0
 40
0.085990120563719
 40
0.1691084375726424
 40
0.250528578958186
 40
0.3322556961768443
 40
0.4135763652356392
 40
0.494126145620123
 40
0.5763059341204166
 40
0.6607126719045476
 40
0.7461272722239098
 40
0.8300149859609749
 40
0.9144197259288507
 40
0.9999999999999999
 40
0.9999999999999999
 40
0.9999999999999999
 40
0.9999999999999999
 10
-38.98030946941508
 20
4.365624999999951
 30
0.0
 10
-39.02101421404106
 20
4.367143845569924
 30
0.0
 10
-39.10106429096114
 20
4.370130811974533
 30
0.0
 10
-39.21814404589313
 20
4.391874658745479
 30
0.0
 10
-39.32878818287022
 20
4.429399680049302
 30
0.0
 10
-39.43343151508275
 20
4.479603658727696
 30
0.0
 10
-39.52902943865997
 20
4.544739373480311
 30
0.0
 10
-39.61542432702986
 20
4.621928776577706
 30
0.0
 10
-39.69073016384757
 20
4.711901523673588
 30
0.0
 10
-39.75533190427021
 20
4.812527040255421
 30
0.0
 10
-39.80665790569022
 20
4.921435099286584
 30
0.0
 10
-39.84460426616172
 20
5.03562876161939
 30
0.0
 10
-39.86727818090726
 20
5.154131961450842
 30
0.0
 10
-39.87024666863658
 20
5.234611939178265
 30
0.0
 10
-39.87174117681359
 20
5.275130208333284
 30
0.0
  0
SPLINE
  5
97
330
1F
100
AcDbEntity
  8
0
  6
Continuous
 62
     7
370
    15
100
AcDbSpline
210
0.0
220
0.0
230
1.0
 70
     8
 71
     3
 72
    23
 73
    19
 74
     0
 42
0.000000001
 43
0.00000001
 40
0.0
 40
0.0
 40
0.0
 40
0.0
 40
0.0652308037420292
 40
0.1284048960032231
 40
0.1900670715964779
 40
0.2509433657682807
 40
0.3115458328521449
 40
0.37286280215683
 40
0.4350236738562384
 40
0.4990717247070442
 40
0.5630910750496627
 40
0.6255101063303756
 40
0.6866800359296502
 40
0.7472825030135146
 40
0.8085634952159595
 40
0.8707421035159855
 40
0.9343409515059119
 40
0.9999999999999999
 40
0.9999999999999999
 40
0.9999999999999999
 40
0.9999999999999999
 10
-38.11802856997598
 20
5.22907193175743
 30
0.0
 10
-38.11882362238015
 20
5.199491707126346
 30
0.0
 10
-38.12038865937828
 20
5.141263915199583
 30
0.0
 10
-38.13243267093571
 20
5.0557751636299
 30
0.0
 10
-38.15141283841029
 20
4.973627459133155
 30
0.0
 10
-38.17908030362437
 20
4.895161285132675
 30
0.0
 10
-38.21442303519824
 20
4.820095002003019
 30
0.0
 10
-38.25678113149697
 20
4.747997830953247
 30
0.0
 10
-38.30834180736504
 20
4.680225028501826
 30
0.0
 10
-38.36593891643057
 20
4.615903839597646
 30
0.0
 10
-38.42973274222802
 20
4.557506663967914
 30
0.0
 10
-38.49742182995322
 20
4.50580431300728
 30
0.0
 10
-38.56893565778328
 20
4.462375248690285
 30
0.0
 10
-38.64423800403854
 20
4.427139315061964
 30
0.0
 10
-38.7232127918993
 20
4.399777341608846
 30
0.0
 10
-38.80575897693817
 20
4.379830472486275
 30
0.0
 10
-38.89193348028923
 20
4.368039465837871
 30
0.0
 10
-38.95053943912665
 20
4.366438328618234
 30
0.0
 10
-38.98030946941508
 20
4.365624999999951
 30
0.0
  0
SPLINE
  5
98
330
1F
100
AcDbEntity
  8
0
  6
Continuous
 62
     7
370
    15
100
AcDbSpline
210
0.0
220
0.0
230
1.0
 70
     8
 71
     3
 72
     9
 73
     5
 74
     0
 42
0.000000001
 43
0.00000001
 40
0.0
 40
0.0
 40
0.0
 40
0.0
 40
0.5126593363417816
 40
1.0
 40
1.0
 40
1.0
 40
1.0
 10
-38.14601334561701
 20
5.530491286057645
 30
0.0
 10
-38.13785265315685
 20
5.479292668828053
 30
0.0
 10
-38.12193429981446
 20
5.379423977086413
 30
0.0
 10
-38.11930831779575
 20
5.278336143611075
 30
0.0
 10
-38.11802856997598
 20
5.22907193175743
 30
0.0
  0
SPLINE
  5
9C
330
1F
100
AcDbEntity
  8
0
  6
Continuous
 62
     7
370
    15
100
AcDbSpline
210
0.0
220
0.0
230
1.0
 70
     8
 71
     3
 72
    19
 73
    15
 74
     0
 42
0.000000001
 43
0.00000001
 40
0.0
 40
0.0
 40
0.0
 40
0.0
 40
0.0978059775289554
 40
0.1996122522919008
 40
0.3052960258330025
 40
0.415817359164188
 40
0.474240566618491
 40
0.5372869128296524
 40
0.6033858352934858
 40
0.6743111580696056
 40
0.7495304673574802
 40
0.8286083142695084
 40
0.9120427387714451
 40
0.9999999999999999
 40
0.9999999999999999
 40
0.9999999999999999
 40
0.9999999999999999
 10
-38.98555661484777
 20
6.156650641025592
 30
0.0
 10
-38.95559474069948
 20
6.155595865860873
 30
0.0
 10
-38.89444554171667
 20
6.153443174873978
 30
0.0
 10
-38.80156546495949
 20
6.140596163077765
 30
0.0
 10
-38.70690161493771
 20
6.117033173823651
 30
0.0
 10
-38.62665256881622
 20
6.091532869459137
 30
0.0
 10
-38.5601918192525
 20
6.066228869835931
 30
0.0
 10
-38.50770952095312
 20
6.042766419145005
 30
0.0
 10
-38.45228652878623
 20
6.016532540437447
 30
0.0
 10
-38.39497150030107
 20
5.985782781270014
 30
0.0
 10
-38.33412682099266
 20
5.953185555027824
 30
0.0
 10
-38.27200575508679
 20
5.915108295642209
 30
0.0
 10
-38.20633944943722
 20
5.875374090389669
 30
0.0
 10
-38.16261984315555
 20
5.84626582455916
 30
0.0
 10
-38.14018318402512
 20
5.83132762419867
 30
0.0
  0
SPLINE
  5
9E
330
1F
100
AcDbEntity
  8
0
  6
Continuous
 62
     7
370
    15
100
AcDbSpline
210
0.0
220
0.0
230
1.0
 70
     8
 71
     3
 72
    15
 73
    11
 74
     0
 42
0.000000001
 43
0.00000001
 40
0.0
 40
0.0
 40
0.0
 40
0.0
 40
0.0708548685015291
 40
0.1569381495573501
 40
0.2586003949600806
 40
0.3758909295891988
 40
0.5081661676989062
 40
0.6562378085782254
 40
0.8201767703979105
 40
1.0
 40
1.0
 40
1.0
 40
1.0
 10
-38.35240106596957
 20
-0.4570846688034692
 30
0.0
 10
-38.36926250138006
 20
-0.4531494583683406
 30
0.0
 10
-38.40660929953472
 20
-0.4444332662862883
 30
0.0
 10
-38.46926518586586
 20
-0.4359585172579883
 30
0.0
 10
-38.54329259734997
 20
-0.4275852335596363
 30
0.0
 10
-38.62889759155136
 20
-0.4216840574667877
 30
0.0
 10
-38.72586639165115
 20
-0.4162141021978507
 30
0.0
 10
-38.83434672262506
 20
-0.4131289921554017
 30
0.0
 10
-38.9544499318783
 20
-0.4105485830138639
 30
0.0
 10
-39.03841491489342
 20
-0.4104795089551446
 30
0.0
 10
-39.08233729727299
 20
-0.4104433760684263
 30
0.0
  0
SPLINE
  5
9F
330
1F
100
AcDbEntity
  8
0
  6
Continuous
 62
     7
370
    15
100
AcDbSpline
210
0.0
220
0.0
230
1.0
 70
     8
 71
     3
 72
    19
 73
    15
 74
     0
 42
0.000000001
 43
0.00000001
 40
0.0
 40
0.0
 40
0.0
 40
0.0
 40
0.0946606620281273
 40
0.191355734673074
 40
0.2959490073389728
 40
0.4103853619363343
 40
0.4719956456801845
 40
0.5364825671126165
 40
0.6031678769313142
 40
0.6741580288145798
 40
0.7493630652224301
 40
0.828304649060132
 40
0.9120507019981292
 40
1.0
 40
1.0
 40
1.0
 40
1.0
 10
-37.89415036484777
 20
-0.8797713842147934
 30
0.0
 10
-37.8954960288614
 20
-0.8586009968802356
 30
0.0
 10
-37.89821627738316
 20
-0.8158052363718806
 30
0.0
 10
-37.9211256398172
 20
-0.7530647612871872
 30
0.0
 10
-37.9565831169518
 20
-0.6919078695950108
 30
0.0
 10
-37.9973063802461
 20
-0.6439567094113996
 30
0.0
 10
-38.03582355153974
 20
-0.6065443995917812
 30
0.0
 10
-38.06964263520643
 20
-0.5798318516654442
 30
0.0
 10
-38.10753831487474
 20
-0.5553116789732884
 30
0.0
 10
-38.14889240666655
 20
-0.5318879245490432
 30
0.0
 10
-38.19440244451285
 20
-0.5105448503118729
 30
0.0
 10
-38.24361623062536
 20
-0.4906254971517743
 30
0.0
 10
-38.29659004278052
 20
-0.4726150941033206
 30
0.0
 10
-38.33349622687409
 20
-0.462345281754129
 30
0.0
 10
-38.35240106596957
 20
-0.4570846688034692
 30
0.0
  0
SPLINE
  5
A0
330
1F
100
AcDbEntity
  8
0
  6
Continuous
 62
     7
370
    15
100
AcDbSpline
210
0.0
220
0.0
230
1.0
 70
     8
 71
     3
 72
    11
 73
     7
 74
     0
 42
0.000000001
 43
0.00000001
 40
0.0
 40
0.0
 40
0.0
 40
0.0
 40
0.295138801369377
 40
0.5602299448882303
 40
0.7949833567408989
 40
1.0
 40
1.0
 40
1.0
 40
1.0
 10
-37.932046415195
 20
-1.013282084668853
 30
0.0
 10
-37.9264415629552
 20
-1.000718214110532
 30
0.0
 10
-37.91580248043932
 20
-0.9768695826265876
 30
0.0
 10
-37.90321117796642
 20
-0.9419823629376288
 30
0.0
 10
-37.89579716937131
 20
-0.9098169894774938
 30
0.0
 10
-37.89467398348999
 20
-0.8893246971959862
 30
0.0
 10
-37.89415036484777
 20
-0.8797713842147934
 30
0.0
  0
SPLINE
  5
A2
330
1F
100
AcDbEntity
  8
0
  6
Continuous
 62
     7
370
    15
100
AcDbSpline
210
0.0
220
0.0
230
1.0
 70
     8
 71
     3
 72
    11
 73
     7
 74
     0
 42
0.000000001
 43
0.00000001
 40
0.0
 40
0.0
 40
0.0
 40
0.0
 40
0.2252999323751135
 40
0.4612226828964575
 40
0.720295765519635
 40
1.0
 40
1.0
 40
1.0
 40
1.0
 10
-37.63295912553153
 20
-0.9293277577457765
 30
0.0
 10
-37.63392695794521
 20
-0.9474832681527663
 30
0.0
 10
-37.63590825575443
 20
-0.9846503153462154
 30
0.0
 10
-37.65052553159667
 20
-1.041084221624366
 30
0.0
 10
-37.67297729399287
 20
-1.099468188777567
 30
0.0
 10
-37.69460710811166
 20
-1.137144528565017
 30
0.0
 10
-37.70583614543003
 20
-1.15670405982911
 30
0.0
  0
SPLINE
  5
A3
330
1F
100
AcDbEntity
  8
0
  6
Continuous
 62
     7
370
    15
100
AcDbSpline
210
0.0
220
0.0
230
1.0
 70
     8
 71
     3
 72
    15
 73
    11
 74
     0
 42
0.000000001
 43
0.00000001
 40
0.0
 40
0.0
 40
0.0
 40
0.0
 40
0.16007776342701
 40
0.3061474787732023
 40
0.4384167732067656
 40
0.5613208981915229
 40
0.6761098270241378
 40
0.7860891121828053
 40
0.8928295023291409
 40
1.0
 40
1.0
 40
1.0
 40
1.0
 10
-37.98335183720354
 20
-0.4104433760684263
 30
0.0
 10
-37.95419819675708
 20
-0.429723616590879
 30
0.0
 10
-37.89844208592276
 20
-0.4665969267854015
 30
0.0
 10
-37.82474891146591
 20
-0.5279227953579845
 30
0.0
 10
-37.76346085786321
 20
-0.590720059200734
 30
0.0
 10
-37.71517637989982
 20
-0.6557696821334361
 30
0.0
 10
-37.67871940392497
 20
-0.7225278739102157
 30
0.0
 10
-37.65179148585755
 20
-0.7898845458632515
 30
0.0
 10
-37.63613895780037
 20
-0.8592350133581287
 30
0.0
 10
-37.63402048947901
 20
-0.9059322118229809
 30
0.0
 10
-37.63295912553153
 20
-0.9293277577457765
 30
0.0
  0
SPLINE
  5
A8
330
1F
100
AcDbEntity
  8
0
  6
Continuous
 62
     7
370
    15
100
AcDbSpline
210
0.0
220
0.0
230
1.0
 70
     8
 71
     3
 72
    15
 73
    11
 74
     0
 42
0.000000001
 43
0.00000001
 40
0.0
 40
0.0
 40
0.0
 40
0.0
 40
0.1288713656056972
 40
0.2529601690527453
 40
0.37472605926344
 40
0.4946053807843775
 40
0.6152448024005254
 40
0.738536706911767
 40
0.8662556277446237
 40
1.0
 40
1.0
 40
1.0
 40
1.0
 10
-37.63295912553153
 20
-2.497641225961585
 30
0.0
 10
-37.63425606822508
 20
-2.541063924754285
 30
0.0
 10
-37.63680182260172
 20
-2.62629785686715
 30
0.0
 10
-37.65829718285343
 20
-2.751102075863134
 30
0.0
 10
-37.69395423946766
 20
-2.869276471315294
 30
0.0
 10
-37.74326679283237
 20
-2.981237667582854
 30
0.0
 10
-37.80690050025636
 20
-3.086320150106337
 30
0.0
 10
-37.88442855313176
 20
-3.184955468200129
 30
0.0
 10
-37.97676229033622
 20
-3.276405554227622
 30
0.0
 10
-38.04630758245227
 20
-3.330501685518608
 30
0.0
 10
-38.08188156810633
 20
-3.358173076923122
 30
0.0
  0
SPLINE
  5
A9
330
1F
100
AcDbEntity
  8
0
  6
Continuous
 62
     7
370
    15
100
AcDbSpline
210
0.0
220
0.0
230
1.0
 70
     8
 71
     3
 72
    23
 73
    19
 74
     0
 42
0.000000001
 43
0.00000001
 40
0.0
 40
0.0
 40
0.0
 40
0.0
 40
0.0637814724965012
 40
0.1260925303724584
 40
0.1869244323723051
 40
0.2476008768692171
 40
0.3080368742790077
 40
0.3693492899539829
 40
0.4322574644027523
 40
0.4970220782641049
 40
0.5618491610224143
 40
0.6248894581378521
 40
0.6869962791359577
 40
0.748051418223621
 40
0.8095615691495263
 40
0.8716167729305397
 40
0.9348787348521403
 40
1.0
 40
1.0
 40
1.0
 40
1.0
 10
-38.72786347248666
 20
-1.380582264957311
 30
0.0
 10
-38.69088962804654
 20
-1.381623916528902
 30
0.0
 10
-38.61779433217816
 20
-1.383683205493036
 30
0.0
 10
-38.51029521616478
 20
-1.399031604134813
 30
0.0
 10
-38.40674394498561
 20
-1.424821825544607
 30
0.0
 10
-38.30752411100266
 20
-1.461084094587354
 30
0.0
 10
-38.21223612323711
 20
-1.507377151399402
 30
0.0
 10
-38.12162551644164
 20
-1.564645304936524
 30
0.0
 10
-38.03430620349796
 20
-1.631049402159943
 30
0.0
 10
-37.95307835992318
 20
-1.707787382695449
 30
0.0
 10
-37.87831950697154
 20
-1.790874071921251
 30
0.0
 10
-37.81248712097673
 20
-1.879345622196519
 30
0.0
 10
-37.75693614876531
 20
-1.972098881791937
 30
0.0
 10
-37.71177860896443
 20
-2.069319834163726
 30
0.0
 10
-37.67589367884329
 20
-2.170320069014647
 30
0.0
 10
-37.65087842728395
 20
-2.275866831022553
 30
0.0
 10
-37.63617346377018
 20
-2.385480136252959
 30
0.0
 10
-37.63404086668553
 20
-2.459894959823302
 30
0.0
 10
-37.63295912553153
 20
-2.497641225961585
 30
0.0
  0
SPLINE
  5
AA
330
1F
100
AcDbEntity
  8
0
  6
Continuous
 62
     7
370
    15
100
AcDbSpline
210
0.0
220
0.0
230
1.0
 70
     8
 71
     3
 72
    23
 73
    19
 74
     0
 42
0.000000001
 43
0.00000001
 40
0.0
 40
0.0
 40
0.0
 40
0.0
 40
0.0646272670080849
 40
0.1274478320825685
 40
0.1890254068323242
 40
0.2499582107091138
 40
0.3107034323946217
 40
0.3720844592356812
 40
0.4347016574718289
 40
0.499345369187499
 40
0.5639683079454368
 40
0.6265193590321809
 40
0.6880742172965855
 40
0.7492653791062734
 40
0.8103091726242422
 40
0.8718867473739985
 40
0.9350386014010454
 40
1.0
 40
1.0
 40
1.0
 40
1.0
 10
-39.83442814262555
 20
-2.489478999732952
 30
0.0
 10
-39.83340852491927
 20
-2.451919593195569
 30
0.0
 10
-39.83139779365626
 20
-2.377850780462111
 30
0.0
 10
-39.81579361133976
 20
-2.268895331013286
 30
0.0
 10
-39.79074754984056
 20
-2.164038201940151
 30
0.0
 10
-39.7558718942629
 20
-2.06321256580331
 30
0.0
 10
-39.70984924192487
 20
-1.967101598850031
 30
0.0
 10
-39.65415547587729
 20
-1.875163741311984
 30
0.0
 10
-39.58848268763921
 20
-1.787184426559312
 30
0.0
 10
-39.51311234576899
 20
-1.70483683708704
 30
0.0
 10
-39.43133601947255
 20
-1.628910319022368
 30
0.0
 10
-39.34386017082847
 20
-1.562482284345051
 30
0.0
 10
-39.25188627847272
 20
-1.506182362177221
 30
0.0
 10
-39.1554401923693
 20
-1.459913909348074
 30
0.0
 10
-39.05459241455578
 20
-1.424108954485128
 30
0.0
 10
-38.94941212863834
 20
-1.399198393959042
 30
0.0
 10
-38.84007434908433
 20
-1.383611027041164
 30
0.0
 10
-38.76561765427879
 20
-1.381601314427257
 30
0.0
 10
-38.72786347248666
 20
-1.380582264957311
 30
0.0
  0
SPLINE
  5
AB
330
1F
100
AcDbEntity
  8
0
  6
Continuous
 62
     7
370
    15
100
AcDbSpline
210
0.0
220
0.0
230
1.0
 70
     8
 71
     3
 72
    15
 73
    11
 74
     0
 42
0.000000001
 43
0.00000001
 40
0.0
 40
0.0
 40
0.0
 40
0.0
 40
0.1342869213617827
 40
0.262062615629594
 40
0.3857537843696252
 40
0.5066381547403569
 40
0.6267635444833758
 40
0.7481664285913868
 40
0.8723810658865557
 40
1.0
 40
1.0
 40
1.0
 40
1.0
 10
-39.42923191198987
 20
-3.358173076923123
 30
0.0
 10
-39.46253572761673
 20
-3.32872682458229
 30
0.0
 10
-39.52752854259167
 20
-3.271262092866996
 30
0.0
 10
-39.61218321961321
 20
-3.175301509395409
 30
0.0
 10
-39.68273267941669
 20
-3.074006438480866
 30
0.0
 10
-39.73918380237978
 20
-2.967034346334349
 30
0.0
 10
-39.78191069725549
 20
-2.854705290571424
 30
0.0
 10
-39.81195748835804
 20
-2.737339605291151
 30
0.0
 10
-39.83151712888938
 20
-2.615093710078444
 30
0.0
 10
-39.83344909922804
 20
-2.531726224905982
 30
0.0
 10
-39.83442814262555
 20
-2.489478999732952
 30
0.0
  0
SPLINE
  5
CA
330
1F
100
AcDbEntity
  8
0
  6
Continuous
 62
     7
370
    15
100
AcDbSpline
210
0.0
220
0.0
230
1.0
 70
     8
 71
     3
 72
    15
 73
    11
 74
     0
 42
0.000000001
 43
0.00000001
 40
0.0
 40
0.0
 40
0.0
 40
0.0
 40
0.1262316208574833
 40
0.2493566261741966
 40
0.3713900592348894
 40
0.4998886674841433
 40
0.6272035235446122
 40
0.7505856446634671
 40
0.8722433966898746
 40
1.0
 40
1.0
 40
1.0
 40
1.0
 10
-39.59189342040332
 20
-19.32815170940174
 30
0.0
 10
-39.6079210836131
 20
-19.32723324194775
 30
0.0
 10
-39.63958196221304
 20
-19.32541891092655
 30
0.0
 10
-39.68513533606347
 20
-19.3116234120651
 30
0.0
 10
-39.72688052035829
 20
-19.28865159072842
 30
0.0
 10
-39.76430028245579
 20
-19.25826811167565
 30
0.0
 10
-39.79528949230527
 20
-19.22102499661819
 30
0.0
 10
-39.81759447680562
 20
-19.17910920191312
 30
0.0
 10
-39.83186616750251
 20
-19.13355203885388
 30
0.0
 10
-39.83356034187901
 20
-19.10185370753409
 30
0.0
 10
-39.83442814262555
 20
-19.08561698717952
 30
0.0
  0
SPLINE
  5
CB
330
1F
100
AcDbEntity
  8
0
  6
Continuous
 62
     7
370
    15
100
AcDbSpline
210
0.0
220
0.0
230
1.0
 70
     8
 71
     3
 72
    15
 73
    11
 74
     0
 42
0.000000001
 43
0.00000001
 40
0.0
 40
0.0
 40
0.0
 40
0.0
 40
0.1275739866295441
 40
0.2486235365908128
 40
0.3718292939615855
 40
0.4989621647798026
 40
0.6260950355980068
 40
0.7479540327400206
 40
0.8709030418327806
 40
1.0
 40
1.0
 40
1.0
 40
1.0
 10
-39.34935869818111
 20
-19.08561698717952
 30
0.0
 10
-39.35028994455955
 20
-19.10183524416422
 30
0.0
 10
-39.35210481116492
 20
-19.1334423179526
 30
0.0
 10
-39.36544317772643
 20
-19.17921031664588
 30
0.0
 10
-39.38794884202174
 20
-19.22103400630875
 30
0.0
 10
-39.41887185501226
 20
-19.2580580785446
 30
0.0
 10
-39.45578972550789
 20
-19.28882982664225
 30
0.0
 10
-39.4975071717176
 20
-19.31159445047021
 30
0.0
 10
-39.54340785811399
 20
-19.32554421081053
 30
0.0
 10
-39.57547087077955
 20
-19.32726852329466
 30
0.0
 10
-39.59189342040332
 20
-19.32815170940174
 30
0.0
  0
SPLINE
  5
CC
330
1F
100
AcDbEntity
  8
0
  6
Continuous
 62
     7
370
    15
100
AcDbSpline
210
0.0
220
0.0
230
1.0
 70
     8
 71
     3
 72
    15
 73
    11
 74
     0
 42
0.000000001
 43
0.00000001
 40
0.0
 40
0.0
 40
0.0
 40
0.0
 40
0.1290412409350765
 40
0.2515082619839451
 40
0.3740516459528019
 40
0.5011296472235207
 40
0.6282076484942454
 40
0.7500140522511912
 40
0.8724810733000573
 40
0.9999999999999999
 40
0.9999999999999999
 40
0.9999999999999999
 40
0.9999999999999999
 10
-39.59189342040332
 20
-18.8430822649573
 30
0.0
 10
-39.57549771484872
 20
-18.84404387794071
 30
0.0
 10
-39.54354161013246
 20
-18.84591811294037
 30
0.0
 10
-39.49722308344625
 20
-18.85875802742915
 30
0.0
 10
-39.45598172362219
 20
-18.88257717024018
 30
0.0
 10
-39.4188151513643
 20
-18.91310035339755
 30
0.0
 10
-39.38816199578601
 20
-18.95013103552078
 30
0.0
 10
-39.3651625025248
 20
-18.99170397577064
 30
0.0
 10
-39.35220975654703
 20
-19.03763794140001
 30
0.0
 10
-39.35032176893169
 20
-19.06940994765235
 30
0.0
 10
-39.34935869818111
 20
-19.08561698717952
 30
0.0
  0
SPLINE
  5
CD
330
1F
100
AcDbEntity
  8
0
  6
Continuous
 62
     7
370
    15
100
AcDbSpline
210
0.0
220
0.0
230
1.0
 70
     8
 71
     3
 72
    15
 73
    11
 74
     0
 42
0.000000001
 43
0.00000001
 40
0.0
 40
0.0
 40
0.0
 40
0.0
 40
0.1277020495823442
 40
0.2507744789237335
 40
0.3727558021246269
 40
0.5000162930891168
 40
0.6284600307648499
 40
0.7511793925142022
 40
0.8738222816829977
 40
1.0
 40
1.0
 40
1.0
 40
1.0
 10
-39.83442814262555
 20
-19.08561698717952
 30
0.0
 10
-39.83352776311667
 20
-19.06939195806005
 30
0.0
 10
-39.83175964582404
 20
-19.03753011060918
 30
0.0
 10
-39.81787946967319
 20
-18.99180226082024
 30
0.0
 10
-39.79507565265472
 20
-18.95014018971752
 30
0.0
 10
-39.76435755965493
 20
-18.91288982205038
 30
0.0
 10
-39.72668667455655
 20
-18.88275869995961
 30
0.0
 10
-39.68541954030376
 20
-18.8587285950957
 30
0.0
 10
-39.63945037168136
 20
-18.84603700964559
 30
0.0
 10
-39.60789516544987
 20
-18.84407646391053
 30
0.0
 10
-39.59189342040332
 20
-18.8430822649573
 30
0.0
  0
CIRCLE
  5
F8
330
1F
100
AcDbEntity
  8
0
  6
Continuous
 62
     7
370
    15
100
AcDbCircle
 10
38.5896690489
 20
8.85
 30
0.0
 40
1.599999999999994
  0
CIRCLE
  5
F9
330
1F
100
AcDbEntity
  8
0
  6
Continuous
 62
     7
370
    15
100
AcDbCircle
 10
-13.5103309511
 20
-24.15
 30
0.0
 40
1.600000000000021
  0
CIRCLE
  5
FA
330
1F
100
AcDbEntity
  8
0
  6
Continuous
 62
     7
370
    15
100
AcDbCircle
 10
38.5896690489
 20
-19.05
 30
0.0
 40
1.599999999999994
  0
CIRCLE
  5
FB
330
1F
100
AcDbEntity
  8
0
  6
Continuous
 62
     7
370
    15
100
AcDbCircle
 10
-12.2103309511
 20
24.05
 30
0.0
 40
1.600000000000023
  0
SPLINE
  5
FC
330
1F
100
AcDbEntity
  8
0
  6
Continuous
 62
     7
370
    15
100
AcDbSpline
210
0.0
220
0.0
230
1.0
 70
     8
 71
     3
 72
    23
 73
    19
 74
     0
 42
0.000000001
 43
0.00000001
 40
0.0
 40
0.0
 40
0.0
 40
0.0
 40
0.0687413258975121
 40
0.134633359592931
 40
0.198321487512033
 40
0.2611388768297409
 40
0.322722807266507
 40
0.3845629119466537
 40
0.4469203862528975
 40
0.5109642892763869
 40
0.5749364869723621
 40
0.6366894831843921
 40
0.6974872331024614
 40
0.7571371133771727
 40
0.8169681551075307
 40
0.876820028384851
 40
0.9376634289103587
 40
1.0
 40
1.0
 40
1.0
 40
1.0
 10
-39.83442814262555
 20
-10.98985460069449
 30
0.0
 10
-39.83341018406121
 20
-10.95016185257811
 30
0.0
 10
-39.83141646078555
 20
-10.87242160010829
 30
0.0
 10
-39.81608654544072
 20
-10.75871415331206
 30
0.0
 10
-39.79034120414492
 20
-10.65049115941831
 30
0.0
 10
-39.75429158723411
 20
-10.54784644461349
 30
0.0
 10
-39.70783791168284
 20
-10.45064334420434
 30
0.0
 10
-39.65099573132111
 20
-10.3594459751897
 30
0.0
 10
-39.5839738734051
 20
-10.27364494304624
 30
0.0
 10
-39.50736734680735
 20
-10.19458403207308
 30
0.0
 10
-39.424201921487
 20
-10.12307317674708
 30
0.0
 10
-39.33676527256558
 20
-10.0599808785756
 30
0.0
 10
-39.24578541005332
 20
-10.0068531023886
 30
0.0
 10
-39.15108657638329
 20
-9.963314743655978
 30
0.0
 10
-39.05308141740912
 20
-9.929361151903565
 30
0.0
 10
-38.95147061505137
 20
-9.905636188365795
 30
0.0
 10
-38.84667950838368
 20
-9.890382599714455
 30
0.0
 10
-38.77552985532324
 20
-9.888770088669444
 30
0.0
 10
-38.73952379567043
 20
-9.887954059829102
 30
0.0
  0
SPLINE
  5
FD
330
1F
100
AcDbEntity
  8
0
  6
Continuous
 62
     7
370
    15
100
AcDbSpline
210
0.0
220
0.0
230
1.0
 70
     8
 71
     3
 72
    23
 73
    19
 74
     0
 42
0.000000001
 43
0.00000001
 40
0.0
 40
0.0
 40
0.0
 40
0.0
 40
0.0624168642116737
 40
0.1233386345688524
 40
0.1832676005331926
 40
0.243175708118329
 40
0.3029024209013483
 40
0.3637784818504565
 40
0.4256110195062014
 40
0.4896656171062209
 40
0.55379201239438
 40
0.6162298067472118
 40
0.6778635727829074
 40
0.7398310209574962
 40
0.8020938783491576
 40
0.8658640402739424
 40
0.9315068755595003
 40
1.0
 40
1.0
 40
1.0
 40
1.0
 10
-38.73952379567042
 20
-12.08942307692312
 30
0.0
 10
-38.77552985559276
 20
-12.08860704823821
 30
0.0
 10
-38.84667950918582
 20
-12.08699453750034
 30
0.0
 10
-38.9514706119534
 20
-12.07174094659988
 30
0.0
 10
-39.05308142882277
 20
-12.04801599143068
 30
0.0
 10
-39.15108653381756
 20
-12.01406236854945
 30
0.0
 10
-39.2457855696753
 20
-11.9705241264144
 30
0.0
 10
-39.33676465995756
 20
-11.91739590489787
 30
0.0
 10
-39.42420428169283
 20
-11.85430532108847
 30
0.0
 10
-39.50735818621789
 20
-11.78278782195106
 30
0.0
 10
-39.5840076815826
 20
-11.7037516902034
 30
0.0
 10
-39.65077223595242
 20
-11.61799110975735
 30
0.0
 10
-39.70821265012602
 20
-11.52712924946155
 30
0.0
 10
-39.75383631024869
 20
-11.42992575510052
 30
0.0
 10
-39.7906121577734
 20
-11.32776428750307
 30
0.0
 10
-39.81597147162245
 20
-11.2199950359015
 30
0.0
 10
-39.83144134119429
 20
-11.10671413936459
 30
0.0
 10
-39.83341853749926
 20
-11.02935571652449
 30
0.0
 10
-39.83442814262555
 20
-10.98985460069449
 30
0.0
  0
SPLINE
  5
FE
330
1F
100
AcDbEntity
  8
0
  6
Continuous
 62
     7
370
    15
100
AcDbSpline
210
0.0
220
0.0
230
1.0
 70
     8
 71
     3
 72
    15
 73
    11
 74
     0
 42
0.000000001
 43
0.00000001
 40
0.0
 40
0.0
 40
0.0
 40
0.0
 40
0.1281572795931883
 40
0.2538343627967365
 40
0.3765056225222088
 40
0.4985336856679106
 40
0.6213677287324614
 40
0.7445647449043592
 40
0.8706337982552833
 40
1.0
 40
1.0
 40
1.0
 40
1.0
 10
-37.98335183720354
 20
-11.7979149973291
 30
0.0
 10
-38.01013930038678
 20
-11.82118332460811
 30
0.0
 10
-38.06319581555035
 20
-11.86726967293699
 30
0.0
 10
-38.14922408418634
 20
-11.92636420219219
 30
0.0
 10
-38.23831617973785
 20
-11.97727284477549
 30
0.0
 10
-38.33165517697581
 20
-12.0180710331674
 30
0.0
 10
-38.42842625769099
 20
-12.05023947250564
 30
0.0
 10
-38.52896203720815
 20
-12.07307850683222
 30
0.0
 10
-38.63304048898645
 20
-12.08666344618446
 30
0.0
 10
-38.7037252281493
 20
-12.08849531809962
 30
0.0
 10
-38.73952379567042
 20
-12.08942307692312
 30
0.0
  0
SPLINE
  5
FF
330
1F
100
AcDbEntity
  8
0
  6
Continuous
 62
     7
370
    15
100
AcDbSpline
210
0.0
220
0.0
230
1.0
 70
     8
 71
     3
 72
    15
 73
    11
 74
     0
 42
0.000000001
 43
0.00000001
 40
0.0
 40
0.0
 40
0.0
 40
0.0
 40
0.1317553345569383
 40
0.2583400116854163
 40
0.3821453087569527
 40
0.5032163978414589
 40
0.6246818563387039
 40
0.7468630828560668
 40
0.8715096938059405
 40
1.0
 40
1.0
 40
1.0
 40
1.0
 10
-37.63295912553153
 20
-10.98985460069449
 30
0.0
 10
-37.63380638295472
 20
-11.02976262000509
 30
0.0
 10
-37.63546764770226
 20
-11.10801249284487
 30
0.0
 10
-37.65331052399242
 20
-11.22259228413252
 30
0.0
 10
-37.68036810643845
 20
-11.33185242517548
 30
0.0
 10
-37.71845517374542
 20
-11.43626160937511
 30
0.0
 10
-37.7684268935235
 20
-11.5349561619215
 30
0.0
 10
-37.82885757320724
 20
-11.62881726284442
 30
0.0
 10
-37.90015605928794
 20
-11.71765685729362
 30
0.0
 10
-37.95534059920819
 20
-11.77089283445108
 30
0.0
 10
-37.98335183720354
 20
-11.7979149973291
 30
0.0
  0
SPLINE
  5
100
330
1F
100
AcDbEntity
  8
0
  6
Continuous
 62
     7
370
    15
100
AcDbSpline
210
0.0
220
0.0
230
1.0
 70
     8
 71
     3
 72
    15
 73
    11
 74
     0
 42
0.000000001
 43
0.00000001
 40
0.0
 40
0.0
 40
0.0
 40
0.0
 40
0.1284939002136897
 40
0.2527058643316187
 40
0.3748085705615333
 40
0.4958504750100685
 40
0.6179213236210022
 40
0.7412949075497661
 40
0.8687041006280197
 40
1.0
 40
1.0
 40
1.0
 40
1.0
 10
-37.98510088568111
 20
-10.17946213942312
 30
0.0
 10
-37.95685144570969
 20
-10.20644579963522
 30
0.0
 10
-37.90129395128395
 20
-10.25951391543984
 30
0.0
 10
-37.83013614056971
 20
-10.34876360617003
 30
0.0
 10
-37.76889071003401
 20
-10.44222094896186
 30
0.0
 10
-37.71894413916007
 20
-10.54155211525057
 30
0.0
 10
-37.68043721238715
 20
-10.64625161681234
 30
0.0
 10
-37.65318423794587
 20
-10.75632380121357
 30
0.0
 10
-37.63554657154675
 20
-10.87132063987176
 30
0.0
 10
-37.63383020293588
 20
-10.94994951501861
 30
0.0
 10
-37.63295912553153
 20
-10.98985460069449
 30
0.0
  0
SPLINE
  5
101
330
1F
100
AcDbEntity
  8
0
  6
Continuous
 62
     7
370
    15
100
AcDbSpline
210
0.0
220
0.0
230
1.0
 70
     8
 71
     3
 72
    15
 73
    11
 74
     0
 42
0.000000001
 43
0.00000001
 40
0.0
 40
0.0
 40
0.0
 40
0.0
 40
0.128919131811958
 40
0.2552377249249024
 40
0.3786785959785495
 40
0.501087887185134
 40
0.6227136794297773
 40
0.7462407949383825
 40
0.8715890472316669
 40
1.0
 40
1.0
 40
1.0
 40
1.0
 10
-38.73952379567042
 20
-9.8879540598291
 30
0.0
 10
-38.70391979887732
 20
-9.888888145879122
 30
0.0
 10
-38.63343000413563
 20
-9.890737475725986
 30
0.0
 10
-38.52954720429655
 20
-9.904308756188371
 30
0.0
 10
-38.42918157779463
 20
-9.927058698693614
 30
0.0
 10
-38.33278402425344
 20
-9.959265699197802
 30
0.0
 10
-38.23985405749901
 20
-10.00043993829022
 30
0.0
 10
-38.15054182601813
 20
-10.05063322356285
 30
0.0
 10
-38.06490256573905
 20
-10.11033055312184
 30
0.0
 10
-38.01191462181096
 20
-10.15623360448533
 30
0.0
 10
-37.98510088568111
 20
-10.17946213942312
 30
0.0
  0
SPLINE
  5
103
330
1F
100
AcDbEntity
  8
0
  6
Continuous
 62
     7
370
    15
100
AcDbSpline
210
0.0
220
0.0
230
1.0
 70
     8
 71
     3
 72
    15
 73
    11
 74
     0
 42
0.000000001
 43
0.00000001
 40
0.0
 40
0.0
 40
0.0
 40
0.0
 40
0.0769954547170595
 40
0.1676150771831763
 40
0.2710523936342336
 40
0.3894595025720733
 40
0.5208428024655708
 40
0.6663987586080745
 40
0.8260936125153103
 40
1.0
 40
1.0
 40
1.0
 40
1.0
 10
-38.45734397462341
 20
-7.801339226095131
 30
0.0
 10
-38.47169249763906
 20
-7.798063220702133
 30
0.0
 10
-38.50292848165358
 20
-7.790931528333822
 30
0.0
 10
-38.5541887518204
 20
-7.783228753177378
 30
0.0
 10
-38.61348639173946
 20
-7.77623745387015
 30
0.0
 10
-38.6807522053865
 20
-7.770385887685538
 30
0.0
 10
-38.75622170035031
 20
-7.766805728870424
 30
0.0
 10
-38.83957257261946
 20
-7.762902114410422
 30
0.0
 10
-38.931137181687
 20
-7.761480948749867
 30
0.0
 10
-38.99488502974444
 20
-7.761237842462656
 30
0.0
 10
-39.0281167944685
 20
-7.761111111111156
 30
0.0
  0
SPLINE
  5
104
330
1F
100
AcDbEntity
  8
0
  6
Continuous
 62
     7
370
    15
100
AcDbSpline
210
0.0
220
0.0
230
1.0
 70
     8
 71
     3
 72
    23
 73
    19
 74
     0
 42
0.000000001
 43
0.00000001
 40
0.0
 40
0.0
 40
0.0
 40
0.0
 40
0.0639930818711165
 40
0.1266406556054861
 40
0.1890049640970735
 40
0.2502574595433822
 40
0.3123851973704771
 40
0.3740853904845784
 40
0.4376662300456398
 40
0.5024461695576965
 40
0.5675069404701096
 40
0.6307311018543885
 40
0.6929011504655938
 40
0.7543707729758833
 40
0.815198217838932
 40
0.8761034269332358
 40
0.9380078507411723
 40
1.0
 40
1.0
 40
1.0
 40
1.0
 10
-37.89415036484777
 20
-8.524862279647481
 30
0.0
 10
-37.89454603800434
 20
-8.503850923931356
 30
0.0
 10
-37.89532906495801
 20
-8.462269993848796
 30
0.0
 10
-37.90319041843666
 20
-8.400611834087014
 30
0.0
 10
-37.91603681356355
 20
-8.340799442182007
 30
0.0
 10
-37.93341974875133
 20
-8.282256495910685
 30
0.0
 10
-37.95707425973121
 20
-8.226224846243278
 30
0.0
 10
-37.98445467755185
 20
-8.17106710121911
 30
0.0
 10
-38.01798295971325
 20
-8.118361775408447
 30
0.0
 10
-38.05555185841287
 20
-8.067112027458814
 30
0.0
 10
-38.09742140757893
 20
-8.01948819348783
 30
0.0
 10
-38.14095476255046
 20
-7.974540586265222
 30
0.0
 10
-38.18798468960135
 20
-7.935049260086806
 30
0.0
 10
-38.23684581845934
 20
-7.89920198289624
 30
0.0
 10
-38.28852033892104
 20
-7.868295370921072
 30
0.0
 10
-38.34245570381512
 20
-7.841306702584245
 30
0.0
 10
-38.39873727412486
 20
-7.818410097867953
 30
0.0
 10
-38.43779918847706
 20
-7.807032202073875
 30
0.0
 10
-38.45734397462341
 20
-7.801339226095131
 30
0.0
  0
SPLINE
  5
105
330
1F
100
AcDbEntity
  8
0
  6
Continuous
 62
     7
370
    15
100
AcDbSpline
210
0.0
220
0.0
230
1.0
 70
     8
 71
     3
 72
    15
 73
    11
 74
     0
 42
0.000000001
 43
0.00000001
 40
0.0
 40
0.0
 40
0.0
 40
0.0
 40
0.1355195283706083
 40
0.2608331631936784
 40
0.3784760291245062
 40
0.4931776464746773
 40
0.6092809649289384
 40
0.7299810378566465
 40
0.8592613089300684
 40
1.0
 40
1.0
 40
1.0
 40
1.0
 10
-38.31275596714478
 20
-9.073480485443422
 30
0.0
 10
-38.279734225852
 20
-9.064644850018224
 30
0.0
 10
-38.21617759058979
 20
-9.047638985516706
 30
0.0
 10
-38.12996742951112
 20
-9.005617572167992
 30
0.0
 10
-38.05662643641735
 20
-8.952553042072786
 30
0.0
 10
-37.99660805539994
 20
-8.88777727090425
 30
0.0
 10
-37.94989932987797
 20
-8.811915950267581
 30
0.0
 10
-37.9174906306198
 20
-8.72517959404933
 30
0.0
 10
-37.89722060200619
 20
-8.628405212490264
 30
0.0
 10
-37.89520232615773
 20
-8.560339395469516
 30
0.0
 10
-37.89415036484777
 20
-8.524862279647481
 30
0.0
  0
SPLINE
  5
106
330
1F
100
AcDbEntity
  8
0
  6
Continuous
 62
     7
370
    15
100
AcDbSpline
210
0.0
220
0.0
230
1.0
 70
     8
 71
     3
 72
    15
 73
    11
 74
     0
 42
0.000000001
 43
0.00000001
 40
0.0
 40
0.0
 40
0.0
 40
0.0
 40
0.1788500194111567
 40
0.3421096489422988
 40
0.4898256633683995
 40
0.6232544282245619
 40
0.7400796760857952
 40
0.8414826730699848
 40
0.9289076721840714
 40
0.9999999999999999
 40
0.9999999999999999
 40
0.9999999999999999
 40
0.9999999999999999
 10
-38.79665937927085
 20
-9.104380341880388
 30
0.0
 10
-38.76770285810093
 20
-9.104219680212251
 30
0.0
 10
-38.71231396116568
 20
-9.103912361783856
 30
0.0
 10
-38.63301007700084
 20
-9.102943071058675
 30
0.0
 10
-38.56109236865043
 20
-9.100606583067997
 30
0.0
 10
-38.49673277206391
 20
-9.097323372863404
 30
0.0
 10
-38.43999308773116
 20
-9.092517833786403
 30
0.0
 10
-38.39075775463373
 20
-9.087509729026907
 30
0.0
 10
-38.34908928393215
 20
-9.08138540010707
 30
0.0
 10
-38.32400558149808
 20
-9.075928025313843
 30
0.0
 10
-38.31275596714478
 20
-9.073480485443422
 30
0.0
  0
SPLINE
  5
10A
330
1F
100
AcDbEntity
  8
0
  6
Continuous
 62
     7
370
    15
100
AcDbSpline
210
0.0
220
0.0
230
1.0
 70
     8
 71
     3
 72
    23
 73
    19
 74
     0
 42
0.000000001
 43
0.00000001
 40
0.0
 40
0.0
 40
0.0
 40
0.0
 40
0.0772352965230865
 40
0.1511681055078887
 40
0.2234731490323938
 40
0.2958586902784229
 40
0.3672875590527419
 40
0.4371678878444442
 40
0.5070763372843851
 40
0.578587708041482
 40
0.6166389932644112
 40
0.6587788881821813
 40
0.7045108415050423
 40
0.7548193906746343
 40
0.8093442815744288
 40
0.8682831991997118
 40
0.9320773923005504
 40
1.0
 40
1.0
 40
1.0
 40
1.0
 10
-37.63295912553153
 20
-8.570337540064147
 30
0.0
 10
-37.63441249770312
 20
-8.609694152705686
 30
0.0
 10
-37.63725709761619
 20
-8.686724536999616
 30
0.0
 10
-37.65969232896743
 20
-8.798897058293385
 30
0.0
 10
-37.69823549681219
 20
-8.903755755408744
 30
0.0
 10
-37.75049915942136
 20
-9.00107092093633
 30
0.0
 10
-37.81584235952518
 20
-9.088606276602029
 30
0.0
 10
-37.89237605199497
 20
-9.164785799171076
 30
0.0
 10
-37.97973356198843
 20
-9.228330914106392
 30
0.0
 10
-38.06102553629801
 20
-9.270872626941195
 30
0.0
 10
-38.13310701441799
 20
-9.298921608525834
 30
0.0
 10
-38.19484774960723
 20
-9.316576253848295
 30
0.0
 10
-38.26363151755169
 20
-9.33157019565127
 30
0.0
 10
-38.33925221244608
 20
-9.344568639786996
 30
0.0
 10
-38.42223913078459
 20
-9.353364041907428
 30
0.0
 10
-38.51225225014941
 20
-9.360301045562279
 30
0.0
 10
-38.60926236440896
 20
-9.365272617219008
 30
0.0
 10
-38.6763571376916
 20
-9.365469865743146
 30
0.0
 10
-38.71095600387021
 20
-9.365571581196626
 30
0.0
  0
SPLINE
  5
10B
330
1F
100
AcDbEntity
  8
0
  6
Continuous
 62
     7
370
    15
100
AcDbSpline
210
0.0
220
0.0
230
1.0
 70
     8
 71
     3
 72
    15
 73
    11
 74
     0
 42
0.000000001
 43
0.00000001
 40
0.0
 40
0.0
 40
0.0
 40
0.0
 40
0.1409759662687666
 40
0.2735687809631686
 40
0.3989883138042523
 40
0.5199297813924294
 40
0.6381100215247447
 40
0.7565889007405959
 40
0.8768597544106077
 40
1.0
 40
1.0
 40
1.0
 40
1.0
 10
-38.0538967924653
 20
-7.761111111111156
 30
0.0
 10
-38.0191025759152
 20
-7.788999251753753
 30
0.0
 10
-37.951583184787
 20
-7.843117161641882
 30
0.0
 10
-37.86283994510816
 20
-7.933243895919113
 30
0.0
 10
-37.78970930261557
 20
-8.028492603508813
 30
0.0
 10
-37.73141465967497
 20
-8.128279983789502
 30
0.0
 10
-37.68747017352632
 20
-8.232741498735688
 30
0.0
 10
-37.65573338440332
 20
-8.341240393460957
 30
0.0
 10
-37.63670355971887
 20
-8.454426253225634
 30
0.0
 10
-37.63421704083291
 20
-8.531397990316307
 30
0.0
 10
-37.63295912553153
 20
-8.570337540064147
 30
0.0
  0
SPLINE
  5
114
330
1F
100
AcDbEntity
  8
0
  6
Continuous
 62
     7
370
    15
100
AcDbSpline
210
0.0
220
0.0
230
1.0
 70
     8
 71
     3
 72
    15
 73
    11
 74
     0
 42
0.000000001
 43
0.00000001
 40
0.0
 40
0.0
 40
0.0
 40
0.0
 40
0.1201382970963202
 40
0.2374991955770342
 40
0.357426130269857
 40
0.483750990843533
 40
0.6134059762494983
 40
0.7402019193835828
 40
0.8673275794860902
 40
1.0
 40
1.0
 40
1.0
 40
1.0
 10
-36.99980357665333
 20
-7.014850427350474
 30
0.0
 10
-37.01448834513996
 20
-7.013947923976231
 30
0.0
 10
-37.04351839456717
 20
-7.012163781612231
 30
0.0
 10
-37.08527770671097
 20
-6.997970937100393
 30
0.0
 10
-37.12376957575277
 20
-6.975414593309884
 30
0.0
 10
-37.15805789670232
 20
-6.944441924351145
 30
0.0
 10
-37.18610072094203
 20
-6.906800972779958
 30
0.0
 10
-37.20772172700546
 20
-6.865023637048752
 30
0.0
 10
-37.22028176205917
 20
-6.819087536351126
 30
0.0
 10
-37.22176056272828
 20
-6.787354794906864
 30
0.0
 10
-37.22251574946316
 20
-6.771149672809877
 30
0.0
  0
SPLINE
  5
115
330
1F
100
AcDbEntity
  8
0
  6
Continuous
 62
     7
370
    15
100
AcDbSpline
210
0.0
220
0.0
230
1.0
 70
     8
 71
     3
 72
    15
 73
    11
 74
     0
 42
0.000000001
 43
0.00000001
 40
0.0
 40
0.0
 40
0.0
 40
0.0
 40
0.1318732556255041
 40
0.2582331622761955
 40
0.3842653380398459
 40
0.5131393343635149
 40
0.6387032651771686
 40
0.7592772397159856
 40
0.8774363406554729
 40
0.9999999999999999
 40
0.9999999999999999
 40
0.9999999999999999
 40
0.9999999999999999
 10
-36.77475933920675
 20
-6.771149672809877
 30
0.0
 10
-36.77551444627381
 20
-6.787354923847961
 30
0.0
 10
-36.77699309093805
 20
-6.819087917783657
 30
0.0
 10
-36.7895542575951
 20
-6.865022186999059
 30
0.0
 10
-36.8111709810365
 20
-6.906806454086844
 30
0.0
 10
-36.83923001493642
 20
-6.944421170577143
 30
0.0
 10
-36.87358550337554
 20
-6.975602041692033
 30
0.0
 10
-36.91262093233173
 20
-6.997960385636329
 30
0.0
 10
-36.95511707387057
 20
-7.012233884372114
 30
0.0
 10
-36.98472747964434
 20
-7.013967671858021
 30
0.0
 10
-36.99980357665333
 20
-7.014850427350474
 30
0.0
  0
SPLINE
  5
116
330
1F
100
AcDbEntity
  8
0
  6
Continuous
 62
     7
370
    15
100
AcDbSpline
210
0.0
220
0.0
230
1.0
 70
     8
 71
     3
 72
    15
 73
    11
 74
     0
 42
0.000000001
 43
0.00000001
 40
0.0
 40
0.0
 40
0.0
 40
0.0
 40
0.1233328597998562
 40
0.2422335185120961
 40
0.3635642063916545
 40
0.4909863299031377
 40
0.6194005434729424
 40
0.744804825936343
 40
0.8688865633823291
 40
1.0
 40
1.0
 40
1.0
 40
1.0
 10
-36.99980357665333
 20
-6.52978098290603
 30
0.0
 10
-36.98472489850823
 20
-6.530661055364932
 30
0.0
 10
-36.95510942322024
 20
-6.532389573203658
 30
0.0
 10
-36.91265050511907
 20
-6.546701764874415
 30
0.0
 10
-36.87335556365861
 20
-6.568974076250918
 30
0.0
 10
-36.83961780871221
 20
-6.600770992466312
 30
0.0
 10
-36.81112406771904
 20
-6.637744815205796
 30
0.0
 10
-36.7897044865174
 20
-6.678863492933194
 30
0.0
 10
-36.77691271016546
 20
-6.723951405400234
 30
0.0
 10
-36.77549019494981
 20
-6.755130544912198
 30
0.0
 10
-36.77475933920675
 20
-6.771149672809877
 30
0.0
  0
SPLINE
  5
117
330
1F
100
AcDbEntity
  8
0
  6
Continuous
 62
     7
370
    15
100
AcDbSpline
210
0.0
220
0.0
230
1.0
 70
     8
 71
     3
 72
    15
 73
    11
 74
     0
 42
0.000000001
 43
0.00000001
 40
0.0
 40
0.0
 40
0.0
 40
0.0
 40
0.1319130139400331
 40
0.2567514468547712
 40
0.38292049014644
 40
0.5121178201968141
 40
0.6403170100636251
 40
0.7610011872715179
 40
0.8791031258043609
 40
1.0
 40
1.0
 40
1.0
 40
1.0
 10
-37.22251574946316
 20
-6.771149672809877
 30
0.0
 10
-37.22178481670073
 20
-6.755130670247487
 30
0.0
 10
-37.22036215157691
 20
-6.723951774684283
 30
0.0
 10
-37.20757145712289
 20
-6.678862101621531
 30
0.0
 10
-37.18614773766136
 20
-6.637750158173355
 30
0.0
 10
-37.1576698215982
 20
-6.600750583185238
 30
0.0
 10
-37.12399757047879
 20
-6.569163836840867
 30
0.0
 10
-37.08524863118841
 20
-6.546690719541818
 30
0.0
 10
-37.04352579719297
 20
-6.532459927916825
 30
0.0
 10
-37.01449083184472
 20
-6.530680899436608
 30
0.0
 10
-36.99980357665333
 20
-6.52978098290603
 30
0.0
  0
SPLINE
  5
118
330
1F
100
AcDbEntity
  8
0
  6
Continuous
 62
     7
370
    15
100
AcDbSpline
210
0.0
220
0.0
230
1.0
 70
     8
 71
     3
 72
    31
 73
    27
 74
     0
 42
0.000000001
 43
0.00000001
 40
0.0
 40
0.0
 40
0.0
 40
0.0
 40
0.0622066588759464
 40
0.1206894275522211
 40
0.1755389434485975
 40
0.2261783458357509
 40
0.2736958866084275
 40
0.3172848636849591
 40
0.3578178916051966
 40
0.3954063926078014
 40
0.4310651478301895
 40
0.4660721957031296
 40
0.500786235724066
 40
0.5354134245190667
 40
0.5701614645873522
 40
0.6047511208220094
 40
0.6400771690568635
 40
0.6756314574743354
 40
0.71191557901444
 40
0.7494585000822753
 40
0.7872771992350805
 40
0.826789362521474
 40
0.8674953639310138
 40
0.9101643846811845
 40
0.9539412374113809
 40
1.0
 40
1.0
 40
1.0
 40
1.0
 10
-38.70570885843752
 20
-6.082024572649624
 30
0.0
 10
-38.74088928679242
 20
-6.081657283266471
 30
0.0
 10
-38.80914413017926
 20
-6.080944691621143
 30
0.0
 10
-38.90833454002906
 20
-6.076365061134523
 30
0.0
 10
-39.00077127125969
 20
-6.06850729990809
 30
0.0
 10
-39.08650307776723
 20
-6.056580534920678
 30
0.0
 10
-39.16546509588097
 20
-6.042556391636873
 30
0.0
 10
-39.23775656151435
 20
-6.024463463020854
 30
0.0
 10
-39.30316128182275
 20
-6.002866496699178
 30
0.0
 10
-39.36280497265608
 20
-5.978480167415392
 30
0.0
 10
-39.41693972389008
 20
-5.949750815644443
 30
0.0
 10
-39.46801450929502
 20
-5.918967520090029
 30
0.0
 10
-39.51594430238747
 20
-5.884419606500729
 30
0.0
 10
-39.5609646895924
 20
-5.846413049069675
 30
0.0
 10
-39.60291237533191
 20
-5.805118547998442
 30
0.0
 10
-39.64160448965651
 20
-5.760260217782811
 30
0.0
 10
-39.67772576491246
 20
-5.712737842777369
 30
0.0
 10
-39.71056946041382
 20
-5.661722950213164
 30
0.0
 10
-39.73984640220503
 20
-5.607163441317086
 30
0.0
 10
-39.76537209665749
 20
-5.549333822490321
 30
0.0
 10
-39.78645902623657
 20
-5.487812246326615
 30
0.0
 10
-39.80370144345848
 20
-5.423287885779151
 30
0.0
 10
-39.81797889834406
 20
-5.355220783857225
 30
0.0
 10
-39.82754920537901
 20
-5.283904434521217
 30
0.0
 10
-39.83364127199495
 20
-5.209162293302682
 30
0.0
 10
-39.83416144809321
 20
-5.158345198132038
 30
0.0
 10
-39.83442814262555
 20
-5.132291249332316
 30
0.0
  0
SPLINE
  5
11C
330
1F
100
AcDbEntity
  8
0
  6
Continuous
 62
     7
370
    15
100
AcDbSpline
210
0.0
220
0.0
230
1.0
 70
     8
 71
     3
 72
    15
 73
    11
 74
     0
 42
0.000000001
 43
0.00000001
 40
0.0
 40
0.0
 40
0.0
 40
0.0
 40
0.0696950303291944
 40
0.1540786907365189
 40
0.2545997602373088
 40
0.3713652763671479
 40
0.5047384024513287
 40
0.6534829859723816
 40
0.8189468319764532
 40
1.0
 40
1.0
 40
1.0
 40
1.0
 10
-39.17503686658389
 20
-5.777690137553469
 30
0.0
 10
-39.1634234709266
 20
-5.781180419467489
 30
0.0
 10
-39.13774908941863
 20
-5.788896580362653
 30
0.0
 10
-39.09418775769742
 20
-5.797127668909035
 30
0.0
 10
-39.04228981368483
 20
-5.804849263730651
 30
0.0
 10
-38.98151023716274
 20
-5.809997174097328
 30
0.0
 10
-38.91238500474908
 20
-5.815872521975024
 30
0.0
 10
-38.83455664187255
 20
-5.817901294722187
 30
0.0
 10
-38.74848389644551
 20
-5.820798487471885
 30
0.0
 10
-38.68822199937389
 20
-5.820821374822781
 30
0.0
 10
-38.65673550106572
 20
-5.820833333333384
 30
0.0
  0
SPLINE
  5
11D
330
1F
100
AcDbEntity
  8
0
  6
Continuous
 62
     7
370
    15
100
AcDbSpline
210
0.0
220
0.0
230
1.0
 70
     8
 71
     3
 72
    15
 73
    11
 74
     0
 42
0.000000001
 43
0.00000001
 40
0.0
 40
0.0
 40
0.0
 40
0.0
 40
0.1446364333215677
 40
0.2791356364626191
 40
0.4083548786548463
 40
0.5330298993423862
 40
0.6535866791101985
 40
0.770009349863348
 40
0.8843362592988558
 40
0.9999999999999999
 40
0.9999999999999999
 40
0.9999999999999999
 40
0.9999999999999999
 10
-39.57323690330931
 20
-5.134623313969067
 30
0.0
 10
-39.57196260911221
 20
-5.173589752319536
 30
0.0
 10
-39.56950333302542
 20
-5.248791562263623
 30
0.0
 10
-39.54861498355
 20
-5.357192985651706
 30
0.0
 10
-39.51453736339798
 20
-5.456467396611465
 30
0.0
 10
-39.46630176588457
 20
-5.545455676561614
 30
0.0
 10
-39.40749630760673
 20
-5.623599193358825
 30
0.0
 10
-39.33846545129773
 20
-5.688711404039724
 30
0.0
 10
-39.26142437521896
 20
-5.742435833400941
 30
0.0
 10
-39.20394407176755
 20
-5.765893253723313
 30
0.0
 10
-39.17503686658389
 20
-5.777690137553469
 30
0.0
  0
SPLINE
  5
11E
330
1F
100
AcDbEntity
  8
0
  6
Continuous
 62
     7
370
    15
100
AcDbSpline
210
0.0
220
0.0
230
1.0
 70
     8
 71
     3
 72
    19
 73
    15
 74
     0
 42
0.000000001
 43
0.00000001
 40
0.0
 40
0.0
 40
0.0
 40
0.0
 40
0.0604941897729081
 40
0.1197307200625922
 40
0.1781081604845164
 40
0.2360004672546232
 40
0.2946461569488014
 40
0.3535796850965063
 40
0.413748678643176
 40
0.4751402603083047
 40
0.5998438695225672
 40
0.7269954965960979
 40
0.8596780968189295
 40
1.0
 40
1.0
 40
1.0
 40
1.0
 10
-39.15404828485313
 20
-4.48164521567847
 30
0.0
 10
-39.16986666386406
 20
-4.487267724375647
 30
0.0
 10
-39.20117456163594
 20
-4.498395851182506
 30
0.0
 10
-39.24640224984414
 20
-4.518579872645273
 30
0.0
 10
-39.28828931351362
 20
-4.543551858976622
 30
0.0
 10
-39.32846529423229
 20
-4.570868966638103
 30
0.0
 10
-39.36568685267641
 20
-4.60241211291181
 30
0.0
 10
-39.40019709537325
 20
-4.637720081375771
 30
0.0
 10
-39.43239859616858
 20
-4.676166162806276
 30
0.0
 10
-39.47123618105548
 20
-4.732482059859057
 30
0.0
 10
-39.51233711703598
 20
-4.809466589972144
 30
0.0
 10
-39.54829529615962
 20
-4.910313905242742
 30
0.0
 10
-39.5694693228865
 20
-5.019859924112966
 30
0.0
 10
-39.57195783174046
 20
-5.095661812783663
 30
0.0
 10
-39.57323690330931
 20
-5.134623313969067
 30
0.0
  0
SPLINE
  5
11F
330
1F
100
AcDbEntity
  8
0
  6
Continuous
 62
     7
370
    15
100
AcDbSpline
210
0.0
220
0.0
230
1.0
 70
     8
 71
     3
 72
    15
 73
    11
 74
     0
 42
0.000000001
 43
0.00000001
 40
0.0
 40
0.0
 40
0.0
 40
0.0
 40
0.1736165757486569
 40
0.3321203769788964
 40
0.4779362767239398
 40
0.6099318098113794
 40
0.7270315210379745
 40
0.8316714227513125
 40
0.9217154761224317
 40
1.0
 40
1.0
 40
1.0
 40
1.0
 10
-38.65673550106573
 20
-4.44025106837612
 30
0.0
 10
-38.68569227523657
 20
-4.44036906905903
 30
0.0
 10
-38.74108522785207
 20
-4.440594798838128
 30
0.0
 10
-38.82079338017273
 20
-4.442125628888762
 30
0.0
 10
-38.89348453943975
 20
-4.445726307936777
 30
0.0
 10
-38.95920069732573
 20
-4.450228160821571
 30
0.0
 10
-39.01793073664218
 20
-4.45601750852709
 30
0.0
 10
-39.06946952341215
 20
-4.462905517230208
 30
0.0
 10
-39.11440152051804
 20
-4.470604335689034
 30
0.0
 10
-39.14146287047293
 20
-4.478140413909159
 30
0.0
 10
-39.15404828485312
 20
-4.481645215678469
 30
0.0
  0
SPLINE
  5
123
330
1F
100
AcDbEntity
  8
0
  6
Continuous
 62
     7
370
    15
100
AcDbSpline
210
0.0
220
0.0
230
1.0
 70
     8
 71
     3
 72
    31
 73
    27
 74
     0
 42
0.000000001
 43
0.00000001
 40
0.0
 40
0.0
 40
0.0
 40
0.0
 40
0.0451516788047784
 40
0.0887272521645411
 40
0.1305341108247533
 40
0.1710707458966345
 40
0.2100958400813107
 40
0.2477692374166775
 40
0.2848493643644396
 40
0.3209855015160368
 40
0.3563873757532804
 40
0.3915492787874593
 40
0.4261913606636705
 40
0.4605110592984604
 40
0.4949714404811207
 40
0.5295336250796093
 40
0.5645757480731521
 40
0.6000961892387693
 40
0.6375349450701482
 40
0.678213416247436
 40
0.7225827429711675
 40
0.7701823039810363
 40
0.821879282290201
 40
0.8770670125167512
 40
0.9365240376354078
 40
1.0
 40
1.0
 40
1.0
 40
1.0
 10
-39.83442814262555
 20
-5.132291249332316
 30
0.0
 10
-39.83414565995837
 20
-5.10643301707317
 30
0.0
 10
-39.83359055522017
 20
-5.055619183459001
 30
0.0
 10
-39.82765180203699
 20
-4.981053273797261
 30
0.0
 10
-39.8178327458376
 20
-4.909582914871438
 30
0.0
 10
-39.80381682995399
 20
-4.84146220253177
 30
0.0
 10
-39.78632184144289
 20
-4.776622778101881
 30
0.0
 10
-39.76553021105637
 20
-4.714802002444604
 30
0.0
 10
-39.73968531045346
 20
-4.656723753924678
 30
0.0
 10
-39.71059980582027
 20
-4.601690266075598
 30
0.0
 10
-39.6776993952528
 20
-4.550132327778689
 30
0.0
 10
-39.64163680515982
 20
-4.501812278034737
 30
0.0
 10
-39.60246587057789
 20
-4.456794907202408
 30
0.0
 10
-39.56035018132839
 20
-4.415070285768754
 30
0.0
 10
-39.51476728840663
 20
-4.377224078450187
 30
0.0
 10
-39.4660838671517
 20
-4.342784667596364
 30
0.0
 10
-39.41478229466878
 20
-4.311221859793879
 30
0.0
 10
-39.35984762921948
 20
-4.282655878766738
 30
0.0
 10
-39.29950054728345
 20
-4.258115448711031
 30
0.0
 10
-39.23272968737965
 20
-4.236449271019349
 30
0.0
 10
-39.15880301119972
 20
-4.218728460412389
 30
0.0
 10
-39.07778372307867
 20
-4.204307372138773
 30
0.0
 10
-38.99005957240612
 20
-4.192706084917412
 30
0.0
 10
-38.89512309849822
 20
-4.184651596422908
 30
0.0
 10
-38.79320555211674
 20
-4.180148075250257
 30
0.0
 10
-38.7228151375996
 20
-4.179430398575346
 30
0.0
 10
-38.68646932518431
 20
-4.17905982905988
 30
0.0
  0
SPLINE
  5
12F
330
1F
100
AcDbEntity
  8
0
  6
Continuous
 62
     7
370
    15
100
AcDbSpline
210
0.0
220
0.0
230
1.0
 70
     8
 71
     3
 72
    23
 73
    19
 74
     0
 42
0.000000001
 43
0.00000001
 40
0.0
 40
0.0
 40
0.0
 40
0.0
 40
0.0638493495752818
 40
0.1260504384647561
 40
0.1871754709865587
 40
0.2474126574601743
 40
0.3083966935679852
 40
0.3697995972845904
 40
0.4322567386422733
 40
0.4973171152240174
 40
0.5623774918057652
 40
0.6255368707374743
 40
0.68731510996106
 40
0.7482991460688656
 40
0.8097807613979936
 40
0.8717606430796873
 40
0.9348326698980894
 40
0.9999999999999999
 40
0.9999999999999999
 40
0.9999999999999999
 40
0.9999999999999999
 10
-37.89415036484777
 20
-10.98868856837611
 30
0.0
 10
-37.89495251211883
 20
-10.96046786017092
 30
0.0
 10
-37.89653609935822
 20
-10.90475495680211
 30
0.0
 10
-37.90857953011161
 20
-10.82274761870617
 30
0.0
 10
-37.92766378652212
 20
-10.74380205071181
 30
0.0
 10
-37.95476708052139
 20
-10.66775840029194
 30
0.0
 10
-37.9898065253105
 20
-10.59491077835137
 30
0.0
 10
-38.03260108173295
 20
-10.52517903160205
 30
0.0
 10
-38.08337867760262
 20
-10.45875050437644
 30
0.0
 10
-38.14113006037784
 20
-10.39613551072831
 30
0.0
 10
-38.20385818970589
 20
-10.33799586443446
 30
0.0
 10
-38.27131009258554
 20
-10.2877586333289
 30
0.0
 10
-38.3415507050418
 20
-10.24496210841594
 30
0.0
 10
-38.41494462848217
 20
-10.20934744688054
 30
0.0
 10
-38.49218693784152
 20
-10.18281268495723
 30
0.0
 10
-38.57241576211968
 20
-10.16354386876429
 30
0.0
 10
-38.65579107237296
 20
-10.15151099764727
 30
0.0
 10
-38.71247022659259
 20
-10.14994240837445
 30
0.0
 10
-38.74127284414799
 20
-10.14914529914534
 30
0.0
  0
SPLINE
  5
130
330
1F
100
AcDbEntity
  8
0
  6
Continuous
 62
     7
370
    15
100
AcDbSpline
210
0.0
220
0.0
230
1.0
 70
     8
 71
     3
 72
    19
 73
    15
 74
     0
 42
0.000000001
 43
0.00000001
 40
0.0
 40
0.0
 40
0.0
 40
0.0
 40
0.0847480911683103
 40
0.1682091135201432
 40
0.2515337461917397
 40
0.3360976789571445
 40
0.4201067143580347
 40
0.5023404324256184
 40
0.5839950157436606
 40
0.6662919038856764
 40
0.7490924176702088
 40
0.8310167360777647
 40
0.914394305026472
 40
1.0
 40
1.0
 40
1.0
 40
1.0
 10
-38.74127284414799
 20
-10.14914529914534
 30
0.0
 10
-38.77848793027123
 20
-10.15047792370367
 30
0.0
 10
-38.85235291719977
 20
-10.15312293425813
 30
0.0
 10
-38.96110441276886
 20
-10.17474116489915
 30
0.0
 10
-39.06570518051495
 20
-10.21065005353169
 30
0.0
 10
-39.16489579948754
 20
-10.26016600565421
 30
0.0
 10
-39.25682964934606
 20
-10.32114639021176
 30
0.0
 10
-39.33949700073851
 20
-10.39245044363692
 30
0.0
 10
-39.40970986905502
 20
-10.47506396892753
 30
0.0
 10
-39.46876007347958
 20
-10.5661738171401
 30
0.0
 10
-39.51526205395431
 20
-10.66448884592644
 30
0.0
 10
-39.54861015752812
 20
-10.76836076181957
 30
0.0
 10
-39.56999658083716
 20
-10.87684377969873
 30
0.0
 10
-39.57214734287287
 20
-10.95108068897151
 30
0.0
 10
-39.57323690330931
 20
-10.98868856837611
 30
0.0
  0
SPLINE
  5
131
330
1F
100
AcDbEntity
  8
0
  6
Continuous
 62
     7
370
    15
100
AcDbSpline
210
0.0
220
0.0
230
1.0
 70
     8
 71
     3
 72
    19
 73
    15
 74
     0
 42
0.000000001
 43
0.00000001
 40
0.0
 40
0.0
 40
0.0
 40
0.0
 40
0.0855901932054386
 40
0.1689526638626375
 40
0.2512834747356086
 40
0.3340689947237277
 40
0.4163509802675605
 40
0.4976551240119922
 40
0.5801655058492036
 40
0.6641593286105082
 40
0.7485118023877211
 40
0.8318213463536875
 40
0.9152672553019873
 40
1.0
 40
1.0
 40
1.0
 40
1.0
 10
-39.57323690330931
 20
-10.98868856837611
 30
0.0
 10
-39.57215365433883
 20
-11.02629861100327
 30
0.0
 10
-39.57001535096161
 20
-11.10053979041729
 30
0.0
 10
-39.54850180674793
 20
-11.20917374850173
 30
0.0
 10
-39.51540706325023
 20
-11.31333034409025
 30
0.0
 10
-39.46870755211567
 20
-11.41174759535374
 30
0.0
 10
-39.40993306327867
 20
-11.50289893509871
 30
0.0
 10
-39.3390970045929
 20
-11.58492254307906
 30
0.0
 10
-39.2570469667106
 20
-11.65684065745217
 30
0.0
 10
-39.16501769741296
 20
-11.71788142381929
 30
0.0
 10
-39.06555097640026
 20
-11.76659953676795
 30
0.0
 10
-38.96112368627535
 20
-11.80267729450348
 30
0.0
 10
-38.85234800870197
 20
-11.82424367861048
 30
0.0
 10
-38.77848628578035
 20
-11.82689568723853
 30
0.0
 10
-38.74127284414799
 20
-11.82823183760688
 30
0.0
  0
SPLINE
  5
132
330
1F
100
AcDbEntity
  8
0
  6
Continuous
 62
     7
370
    15
100
AcDbSpline
210
0.0
220
0.0
230
1.0
 70
     8
 71
     3
 72
    23
 73
    19
 74
     0
 42
0.000000001
 43
0.00000001
 40
0.0
 40
0.0
 40
0.0
 40
0.0
 40
0.0651887826208368
 40
0.1282815722025271
 40
0.1902818571228184
 40
0.2519298959790717
 40
0.312744911065505
 40
0.3747732892566839
 40
0.4379534597072381
 40
0.5030352535997425
 40
0.5681170474922432
 40
0.6309454248241193
 40
0.6923685418431894
 40
0.7533726533658851
 40
0.8136296693979764
 40
0.8743475243862151
 40
0.9365690893337778
 40
1.0
 40
1.0
 40
1.0
 40
1.0
 10
-38.74127284414799
 20
-11.82823183760688
 30
0.0
 10
-38.71246792678883
 20
-11.82744065932557
 30
0.0
 10
-38.65578424690654
 20
-11.82588374125258
 30
0.0
 10
-38.57244185402769
 20
-11.81376597974873
 30
0.0
 10
-38.49202825608904
 20
-11.79479648610355
 30
0.0
 10
-38.41525591012433
 20
-11.7670997597247
 30
0.0
 10
-38.34119224501634
 20
-11.73270741423563
 30
0.0
 10
-38.27152101367668
 20
-11.68886981430385
 30
0.0
 10
-38.20381531000765
 20
-11.63886657789027
 30
0.0
 10
-38.14116786875124
 20
-11.58062024684768
 30
0.0
 10
-38.08316766713051
 20
-11.51801230253067
 30
0.0
 10
-38.03278605325635
 20
-11.45108472757781
 30
0.0
 10
-37.98978208705139
 20
-11.38132059544873
 30
0.0
 10
-37.9547627652254
 20
-11.30844995183357
 30
0.0
 10
-37.92776810781417
 20
-11.23257838445782
 30
0.0
 10
-37.90849639619731
 20
-11.15387249953105
 30
0.0
 10
-37.89658001088367
 20
-11.07222832879456
 30
0.0
 10
-37.89496542672966
 20
-11.01671325729475
 30
0.0
 10
-37.89415036484777
 20
-10.98868856837611
 30
0.0
  0
SPLINE
  5
133
330
1F
100
AcDbEntity
  8
0
  6
Continuous
 62
     7
370
    15
100
AcDbSpline
210
0.0
220
0.0
230
1.0
 70
     8
 71
     3
 72
    19
 73
    15
 74
     0
 42
0.000000001
 43
0.00000001
 40
0.0
 40
0.0
 40
0.0
 40
0.0
 40
0.0859244812764061
 40
0.1696012591630607
 40
0.2524871625959457
 40
0.3362599892890554
 40
0.4195238744997084
 40
0.5020590676123601
 40
0.5848016257214316
 40
0.6696328400212771
 40
0.7541735259319923
 40
0.8366507027062616
 40
0.9180059431623453
 40
1.0
 40
1.0
 40
1.0
 40
1.0
 10
-37.89415036484777
 20
-2.501139322916713
 30
0.0
 10
-37.89550879779269
 20
-2.462959341598493
 30
0.0
 10
-37.8981901283579
 20
-2.387598131263548
 30
0.0
 10
-37.91912329977754
 20
-2.276966040459926
 30
0.0
 10
-37.95395153998001
 20
-2.171097625263446
 30
0.0
 10
-38.00158715692812
 20
-2.070529902438742
 30
0.0
 10
-38.0614713995176
 20
-1.976823496446935
 30
0.0
 10
-38.13395796489748
 20
-1.893156337847474
 30
0.0
 10
-38.21674175593909
 20
-1.818527436210841
 30
0.0
 10
-38.31051877584896
 20
-1.756825547282409
 30
0.0
 10
-38.40990580442111
 20
-1.704804716565618
 30
0.0
 10
-38.51458765119435
 20
-1.66913134226208
 30
0.0
 10
-38.62166013659596
 20
-1.645393121013592
 30
0.0
 10
-38.69431104149075
 20
-1.642983184730411
 30
0.0
 10
-38.7307785532826
 20
-1.64177350427355
 30
0.0
  0
SPLINE
  5
134
330
1F
100
AcDbEntity
  8
0
  6
Continuous
 62
     7
370
    15
100
AcDbSpline
210
0.0
220
0.0
230
1.0
 70
     8
 71
     3
 72
    19
 73
    15
 74
     0
 42
0.000000001
 43
0.00000001
 40
0.0
 40
0.0
 40
0.0
 40
0.0
 40
0.081596196921085
 40
0.1628725643039267
 40
0.2456513342410777
 40
0.3309819455244195
 40
0.4164303045285856
 40
0.4998371338597772
 40
0.5829990660879375
 40
0.6671158216827259
 40
0.7512769621661504
 40
0.833341232319827
 40
0.9162494597510771
 40
1.0
 40
1.0
 40
1.0
 40
1.0
 10
-38.7307785532826
 20
-1.64177350427355
 30
0.0
 10
-38.76702094989849
 20
-1.643338547056394
 30
0.0
 10
-38.83936368517399
 20
-1.646462498182864
 30
0.0
 10
-38.94675429764844
 20
-1.668505619855875
 30
0.0
 10
-39.05101472336289
 20
-1.706698876853142
 30
0.0
 10
-39.1517784800026
 20
-1.757532326712614
 30
0.0
 10
-39.24574798865636
 20
-1.820618236752719
 30
0.0
 10
-39.33015060745122
 20
-1.894627767217193
 30
0.0
 10
-39.40292787470938
 20
-1.979361835006724
 30
0.0
 10
-39.46384247011584
 20
-2.073271497979874
 30
0.0
 10
-39.51287582332035
 20
-2.173419081479434
 30
0.0
 10
-39.54745136709739
 20
-2.278785845186532
 30
0.0
 10
-39.56928396141515
 20
-2.387520462390788
 30
0.0
 10
-39.57191482378302
 20
-2.461586879551352
 30
0.0
 10
-39.57323690330931
 20
-2.49880725827996
 30
0.0
  0
SPLINE
  5
135
330
1F
100
AcDbEntity
  8
0
  6
Continuous
 62
     7
370
    15
100
AcDbSpline
210
0.0
220
0.0
230
1.0
 70
     8
 71
     3
 72
    19
 73
    15
 74
     0
 42
0.000000001
 43
0.00000001
 40
0.0
 40
0.0
 40
0.0
 40
0.0
 40
0.0847903907909733
 40
0.1682107781870181
 40
0.2525025863307434
 40
0.3381782285840106
 40
0.4230291943638922
 40
0.5054709187795291
 40
0.5863724988053512
 40
0.6673211091688455
 40
0.7486730580950458
 40
0.8304763858249755
 40
0.9134679502182239
 40
0.9999999999999999
 40
0.9999999999999999
 40
0.9999999999999999
 40
0.9999999999999999
 10
-39.57323690330931
 20
-2.49880725827996
 30
0.0
 10
-39.57187723643954
 20
-2.536602679795799
 30
0.0
 10
-39.56917987156003
 20
-2.611582842120541
 30
0.0
 10
-39.54789661679593
 20
-2.722475322028442
 30
0.0
 10
-39.51350141958149
 20
-2.8302563112772
 30
0.0
 10
-39.46518400380116
 20
-2.933322533274223
 30
0.0
 10
-39.40557665208159
 20
-3.029265209433202
 30
0.0
 10
-39.3354864162461
 20
-3.115265616976058
 30
0.0
 10
-39.25465492035805
 20
-3.188700254040516
 30
0.0
 10
-39.16510611230067
 20
-3.250261597923163
 30
0.0
 10
-39.06739517128633
 20
-3.298891974026362
 30
0.0
 10
-38.96291969754114
 20
-3.333191607484538
 30
0.0
 10
-38.85250071738196
 20
-3.35425799057649
 30
0.0
 10
-38.77693150012368
 20
-3.356850003488965
 30
0.0
 10
-38.73835776335205
 20
-3.358173076923122
 30
0.0
  0
SPLINE
  5
136
330
1F
100
AcDbEntity
  8
0
  6
Continuous
 62
     7
370
    15
100
AcDbSpline
210
0.0
220
0.0
230
1.0
 70
     8
 71
     3
 72
    23
 73
    19
 74
     0
 42
0.000000001
 43
0.00000001
 40
0.0
 40
0.0
 40
0.0
 40
0.0
 40
0.0656289188354537
 40
0.1291784810189659
 40
0.1912044631851516
 40
0.2518940844507609
 40
0.3124842348504694
 40
0.3734666589599356
 40
0.4351192397198747
 40
0.4984087324490516
 40
0.561757763754641
 40
0.6241941724705085
 40
0.6851039146656187
 40
0.7461156962495915
 40
0.8076259433578035
 40
0.8699762505581943
 40
0.9339559306300013
 40
1.0
 40
1.0
 40
1.0
 40
1.0
 10
-38.73835776335205
 20
-3.358173076923122
 30
0.0
 10
-38.70897268587023
 20
-3.357375064340869
 30
0.0
 10
-38.65113355426358
 20
-3.355804323042084
 30
0.0
 10
-38.56620949814803
 20
-3.343804797525727
 30
0.0
 10
-38.48493984415312
 20
-3.324716023396296
 30
0.0
 10
-38.40723563977932
 20
-3.297821043694612
 30
0.0
 10
-38.33353943060091
 20
-3.262478589940758
 30
0.0
 10
-38.26327354068795
 20
-3.21989727731727
 30
0.0
 10
-38.1970924875026
 20
-3.16920369971397
 30
0.0
 10
-38.13508008315485
 20
-3.111940591987719
 30
0.0
 10
-38.0788014858714
 20
-3.048554186370454
 30
0.0
 10
-38.02919800244143
 20
-2.981150959052202
 30
0.0
 10
-37.9872198062229
 20
-2.909900495851678
 30
0.0
 10
-37.95362626931711
 20
-2.834852810605494
 30
0.0
 10
-37.92625845702584
 20
-2.756585926008572
 30
0.0
 10
-37.90818249009379
 20
-2.674349668520042
 30
0.0
 10
-37.89573093862714
 20
-2.588972829288683
 30
0.0
 10
-37.89468277003778
 20
-2.530725423394572
 30
0.0
 10
-37.89415036484777
 20
-2.501139322916712
 30
0.0
  0
SPLINE
  5
137
330
1F
100
AcDbEntity
  8
0
  6
Continuous
 62
     7
370
    15
100
AcDbSpline
210
0.0
220
0.0
230
1.0
 70
     8
 71
     3
 72
    23
 73
    19
 74
     0
 42
0.000000001
 43
0.00000001
 40
0.0
 40
0.0
 40
0.0
 40
0.0
 40
0.070592186535807
 40
0.1385012886049294
 40
0.2037899961426998
 40
0.2667875726695994
 40
0.3290979656467179
 40
0.3911745246039638
 40
0.4531677986176544
 40
0.5157967602265814
 40
0.5779688050530377
 40
0.6389663383752878
 40
0.6983810661628393
 40
0.757320455557425
 40
0.8164122397216657
 40
0.8762793582308294
 40
0.936823465650193
 40
1.0
 40
1.0
 40
1.0
 40
1.0
 10
-38.41653284348025
 20
5.283875450721105
 30
0.0
 10
-38.4171883943734
 20
5.306045681303643
 30
0.0
 10
-38.41847457982683
 20
5.349543491118502
 30
0.0
 10
-38.42573896453543
 20
5.413280561024993
 30
0.0
 10
-38.43950298196972
 20
5.473440685134609
 30
0.0
 10
-38.45730705536988
 20
5.530710990175372
 30
0.0
 10
-38.48154854714677
 20
5.584494569217672
 30
0.0
 10
-38.51064520987512
 20
5.635404933084058
 30
0.0
 10
-38.54523923976134
 20
5.682936903364396
 30
0.0
 10
-38.58494492187451
 20
5.726255736210869
 30
0.0
 10
-38.627781897887
 20
5.766033123420298
 30
0.0
 10
-38.67393901797436
 20
5.800248172046305
 30
0.0
 10
-38.72200610140931
 20
5.829794258530103
 30
0.0
 10
-38.77243492045353
 20
5.853808883921833
 30
0.0
 10
-38.82519312696623
 20
5.872510985285892
 30
0.0
 10
-38.88004154114114
 20
5.886038665870511
 30
0.0
 10
-38.93734702588392
 20
5.893567330151328
 30
0.0
 10
-38.97620733312682
 20
5.894819827980847
 30
0.0
 10
-38.99605090571316
 20
5.895459401709352
 30
0.0
  0
SPLINE
  5
138
330
1F
100
AcDbEntity
  8
0
  6
Continuous
 62
     7
370
    15
100
AcDbSpline
210
0.0
220
0.0
230
1.0
 70
     8
 71
     3
 72
    23
 73
    19
 74
     0
 42
0.000000001
 43
0.00000001
 40
0.0
 40
0.0
 40
0.0
 40
0.0
 40
0.0618526459466899
 40
0.1212838306153678
 40
0.1807779320756119
 40
0.2392732340142764
 40
0.2986414352139403
 40
0.3581858222417083
 40
0.4207600867589675
 40
0.4852046730216409
 40
0.5503622689482848
 40
0.613649924530909
 40
0.6766234955168249
 40
0.7391080134690101
 40
0.8021647022429431
 40
0.8667165971324768
 40
0.9320376285055442
 40
1.0
 40
1.0
 40
1.0
 40
1.0
 10
-38.99605090571316
 20
5.895459401709352
 30
0.0
 10
-39.0157162416022
 20
5.894937210273907
 30
0.0
 10
-39.05427703767572
 20
5.893913270608332
 30
0.0
 10
-39.1111150021239
 20
5.884658736901773
 30
0.0
 10
-39.16576158743027
 20
5.870421421624555
 30
0.0
 10
-39.21825676256522
 20
5.84958176449921
 30
0.0
 10
-39.26831417456766
 20
5.82344274108622
 30
0.0
 10
-39.3162893958606
 20
5.7912757905875
 30
0.0
 10
-39.3622155400453
 20
5.753625577144462
 30
0.0
 10
-39.40493451276997
 20
5.709857951037468
 30
0.0
 10
-39.44411739266923
 20
5.662658809628218
 30
0.0
 10
-39.47900590248985
 20
5.612742591364642
 30
0.0
 10
-39.50830292146352
 20
5.560268010442154
 30
0.0
 10
-39.53146452419841
 20
5.504935641871293
 30
0.0
 10
-39.55043442899645
 20
5.447520182045716
 30
0.0
 10
-39.56379294873535
 20
5.387583627799962
 30
0.0
 10
-39.57134312574106
 20
5.325073315929761
 30
0.0
 10
-39.5725973588765
 20
5.282729368981241
 30
0.0
 10
-39.57323690330931
 20
5.261137820512771
 30
0.0
  0
SPLINE
  5
139
330
1F
100
AcDbEntity
  8
0
  6
Continuous
 62
     7
370
    15
100
AcDbSpline
210
0.0
220
0.0
230
1.0
 70
     8
 71
     3
 72
    23
 73
    19
 74
     0
 42
0.000000001
 43
0.00000001
 40
0.0
 40
0.0
 40
0.0
 40
0.0
 40
0.0611415679303346
 40
0.1200010135310739
 40
0.1782359705414114
 40
0.2364955434070184
 40
0.2948872487049764
 40
0.3546771928192989
 40
0.416694813289781
 40
0.4806333779628423
 40
0.5458046334786436
 40
0.6097347883178762
 40
0.6729516883751547
 40
0.736001096070685
 40
0.7998274385165265
 40
0.864767276939388
 40
0.9310835057306727
 40
1.0
 40
1.0
 40
1.0
 40
1.0
 10
-38.99605090571316
 20
4.626816239316191
 30
0.0
 10
-38.97617914252032
 20
4.6272685006872
 30
0.0
 10
-38.93717733402057
 20
4.628156142675121
 30
0.0
 10
-38.88009317123798
 20
4.638390283443872
 30
0.0
 10
-38.82474711873697
 20
4.652213193783047
 30
0.0
 10
-38.77238593564651
 20
4.674552283829257
 30
0.0
 10
-38.72156162464787
 20
4.701159963500534
 30
0.0
 10
-38.67372678250877
 20
4.735056399540316
 30
0.0
 10
-38.62752623957645
 20
4.773919493136918
 30
0.0
 10
-38.58466082015838
 20
4.818926726470815
 30
0.0
 10
-38.54545261880929
 20
4.867890567234464
 30
0.0
 10
-38.51084481050038
 20
4.919960043586215
 30
0.0
 10
-38.48163650011164
 20
4.974432612757742
 30
0.0
 10
-38.45726630763002
 20
5.031255654765931
 30
0.0
 10
-38.43967949683571
 20
5.091079556318091
 30
0.0
 10
-38.4258315365847
 20
5.152938674313833
 30
0.0
 10
-38.41846234565446
 20
5.217624131489822
 30
0.0
 10
-38.41718420294796
 20
5.261510394798511
 30
0.0
 10
-38.41653284348025
 20
5.283875450721105
 30
0.0
  0
SPLINE
  5
13A
330
1F
100
AcDbEntity
  8
0
  6
Continuous
 62
     7
370
    15
100
AcDbSpline
210
0.0
220
0.0
230
1.0
 70
     8
 71
     3
 72
    23
 73
    19
 74
     0
 42
0.000000001
 43
0.00000001
 40
0.0
 40
0.0
 40
0.0
 40
0.0
 40
0.067950347599754
 40
0.1332598223836996
 40
0.1978002967596478
 40
0.2608458295516839
 40
0.3233192927503662
 40
0.3862817224595743
 40
0.4500615162333147
 40
0.5152075844858175
 40
0.5796407692199349
 40
0.6418172023841552
 40
0.7016924412115361
 40
0.7607690981778982
 40
0.8192540511346835
 40
0.8787376269055558
 40
0.9381582970160929
 40
1.0
 40
1.0
 40
1.0
 40
1.0
 10
-39.57323690330932
 20
5.261137820512771
 30
0.0
 10
-39.57259740901701
 20
5.239546236671566
 30
0.0
 10
-39.57134327421392
 20
5.197202220352328
 30
0.0
 10
-39.56379238444234
 20
5.134692411318536
 30
0.0
 10
-39.55043649960687
 20
5.07475399822194
 30
0.0
 10
-39.53145701822267
 20
5.017345294410716
 30
0.0
 10
-39.50833076621578
 20
4.961987986887531
 30
0.0
 10
-39.47882232321741
 20
4.909467472649282
 30
0.0
 10
-39.44432951716723
 20
4.859074686994084
 30
0.0
 10
-39.40486707432581
 20
4.811906509564815
 30
0.0
 10
-39.36245692219295
 20
4.767955947048986
 30
0.0
 10
-39.31587356628803
 20
4.731187584068524
 30
0.0
 10
-39.26869547473795
 20
4.698004406751794
 30
0.0
 10
-39.21805728646936
 20
4.672869309867083
 30
0.0
 10
-39.16579318914717
 20
4.651797564023274
 30
0.0
 10
-39.11110653614816
 20
4.637632081876743
 30
0.0
 10
-39.05427925408956
 20
4.628358396843148
 30
0.0
 10
-39.0157169901754
 20
4.627337088713861
 30
0.0
 10
-38.99605090571317
 20
4.626816239316191
 30
0.0
  0
LINE
  5
13B
330
1F
100
AcDbEntity
  8
0
  6
Continuous
 62
     7
370
    15
100
AcDbLine
 10
-38.8170649448
 20
15.6341613248
 30
0.0
 11
-39.7971151084
 21
15.6341613248
 31
0.0
  0
LINE
  5
13C
330
1F
100
AcDbEntity
  8
0
  6
Continuous
 62
     7
370
    15
100
AcDbLine
 10
-39.7971151084
 20
14.5538323818
 30
0.0
 11
-38.8170649448
 21
15.6341613248
 31
0.0
  0
LINE
  5
13D
330
1F
100
AcDbEntity
  8
0
  6
Continuous
 62
     7
370
    15
100
AcDbLine
 10
-39.7971151084
 20
14.1789529915
 30
0.0
 11
-39.7971151084
 21
14.5538323818
 31
0.0
  0
LINE
  5
13E
330
1F
100
AcDbEntity
  8
0
  6
Continuous
 62
     7
370
    15
100
AcDbLine
 10
-38.6777240828
 20
15.4137812166
 30
0.0
 11
-39.7971151084
 21
14.1789529915
 31
0.0
  0
LINE
  5
13F
330
1F
100
AcDbEntity
  8
0
  6
Continuous
 62
     7
370
    15
100
AcDbLine
 10
-37.6702721597
 20
14.290892094
 30
0.0
 11
-38.6777240828
 21
15.4137812166
 31
0.0
  0
LINE
  5
140
330
1F
100
AcDbEntity
  8
0
  6
Continuous
 62
     7
370
    15
100
AcDbLine
 10
-37.6702721597
 20
14.6663545005
 30
0.0
 11
-37.6702721597
 21
14.290892094
 31
0.0
  0
LINE
  5
141
330
1F
100
AcDbEntity
  8
0
  6
Continuous
 62
     7
370
    15
100
AcDbLine
 10
-38.5378002046
 20
15.6341613248
 30
0.0
 11
-37.6702721597
 21
14.6663545005
 31
0.0
  0
LINE
  5
142
330
1F
100
AcDbEntity
  8
0
  6
Continuous
 62
     7
370
    15
100
AcDbLine
 10
-36.8120723734
 20
15.6341613248
 30
0.0
 11
-38.5378002046
 21
15.6341613248
 31
0.0
  0
LINE
  5
143
330
1F
100
AcDbEntity
  8
0
  6
Continuous
 62
     7
370
    15
100
AcDbLine
 10
-36.8120723734
 20
15.8953525641
 30
0.0
 11
-36.8120723734
 21
15.6341613248
 31
0.0
  0
LINE
  5
144
330
1F
100
AcDbEntity
  8
0
  6
Continuous
 62
     7
370
    15
100
AcDbLine
 10
-39.7971151084
 20
15.8953525641
 30
0.0
 11
-36.8120723734
 21
15.8953525641
 31
0.0
  0
LINE
  5
145
330
1F
100
AcDbEntity
  8
0
  6
Continuous
 62
     7
370
    15
100
AcDbLine
 10
-39.7971151084
 20
15.6341613248
 30
0.0
 11
-39.7971151084
 21
15.8953525641
 31
0.0
  0
LINE
  5
146
330
1F
100
AcDbEntity
  8
0
  6
Continuous
 62
     7
370
    15
100
AcDbLine
 10
-36.8866984418
 20
12.4252403846
 30
0.0
 11
-39.7971151084
 21
12.4252403846
 31
0.0
  0
LINE
  5
147
330
1F
100
AcDbEntity
  8
0
  6
Continuous
 62
     7
370
    15
100
AcDbLine
 10
-36.8866984418
 20
12.6864316239
 30
0.0
 11
-36.8866984418
 21
12.4252403846
 31
0.0
  0
LINE
  5
148
330
1F
100
AcDbEntity
  8
0
  6
Continuous
 62
     7
370
    15
100
AcDbLine
 10
-39.7971151084
 20
12.6864316239
 30
0.0
 11
-36.8866984418
 21
12.6864316239
 31
0.0
  0
LINE
  5
149
330
1F
100
AcDbEntity
  8
0
  6
Continuous
 62
     7
370
    15
100
AcDbLine
 10
-39.7971151084
 20
12.4252403846
 30
0.0
 11
-39.7971151084
 21
12.6864316239
 31
0.0
  0
LINE
  5
14A
330
1F
100
AcDbEntity
  8
0
  6
Continuous
 62
     7
370
    15
100
AcDbLine
 10
-36.8866984418
 20
11.5297275641
 30
0.0
 11
-39.7971151084
 21
11.5297275641
 31
0.0
  0
LINE
  5
14B
330
1F
100
AcDbEntity
  8
0
  6
Continuous
 62
     7
370
    15
100
AcDbLine
 10
-36.8866984418
 20
11.7909188034
 30
0.0
 11
-36.8866984418
 21
11.5297275641
 31
0.0
  0
LINE
  5
14C
330
1F
100
AcDbEntity
  8
0
  6
Continuous
 62
     7
370
    15
100
AcDbLine
 10
-39.7971151084
 20
11.7909188034
 30
0.0
 11
-36.8866984418
 21
11.7909188034
 31
0.0
  0
LINE
  5
14D
330
1F
100
AcDbEntity
  8
0
  6
Continuous
 62
     7
370
    15
100
AcDbLine
 10
-39.7971151084
 20
11.5297275641
 30
0.0
 11
-39.7971151084
 21
11.7909188034
 31
0.0
  0
LINE
  5
14E
330
1F
100
AcDbEntity
  8
0
  6
Continuous
 62
     7
370
    15
100
AcDbLine
 10
-36.8866984418
 20
10.6342147436
 30
0.0
 11
-39.7971151084
 21
10.6342147436
 31
0.0
  0
LINE
  5
14F
330
1F
100
AcDbEntity
  8
0
  6
Continuous
 62
     7
370
    15
100
AcDbLine
 10
-36.8866984418
 20
10.8954059829
 30
0.0
 11
-36.8866984418
 21
10.6342147436
 31
0.0
  0
LINE
  5
150
330
1F
100
AcDbEntity
  8
0
  6
Continuous
 62
     7
370
    15
100
AcDbLine
 10
-39.7971151084
 20
10.8954059829
 30
0.0
 11
-36.8866984418
 21
10.8954059829
 31
0.0
  0
LINE
  5
151
330
1F
100
AcDbEntity
  8
0
  6
Continuous
 62
     7
370
    15
100
AcDbLine
 10
-39.7971151084
 20
10.6342147436
 30
0.0
 11
-39.7971151084
 21
10.8954059829
 31
0.0
  0
LINE
  5
152
330
1F
100
AcDbEntity
  8
0
  6
Continuous
 62
     7
370
    15
100
AcDbLine
 10
-36.8866984418
 20
6.6044070513
 30
0.0
 11
-39.7971151084
 21
7.8357371795
 31
0.0
  0
LINE
  5
153
330
1F
100
AcDbEntity
  8
0
  6
Continuous
 62
     7
370
    15
100
AcDbLine
 10
-36.8866984418
 20
6.8842548077
 30
0.0
 11
-36.8866984418
 21
6.6044070513
 31
0.0
  0
LINE
  5
154
330
1F
100
AcDbEntity
  8
0
  6
Continuous
 62
     7
370
    15
100
AcDbLine
 10
-39.180284012
 20
7.8543936966
 30
0.0
 11
-36.8866984418
 21
6.8842548077
 31
0.0
  0
LINE
  5
155
330
1F
100
AcDbEntity
  8
0
  6
Continuous
 62
     7
370
    15
100
AcDbLine
 10
-36.8866984418
 20
8.8245325855
 30
0.0
 11
-39.180284012
 21
7.8543936966
 31
0.0
  0
LINE
  5
156
330
1F
100
AcDbEntity
  8
0
  6
Continuous
 62
     7
370
    15
100
AcDbLine
 10
-36.8866984418
 20
9.1043803419
 30
0.0
 11
-36.8866984418
 21
8.8245325855
 31
0.0
  0
LINE
  5
157
330
1F
100
AcDbEntity
  8
0
  6
Continuous
 62
     7
370
    15
100
AcDbLine
 10
-39.7971151084
 20
7.8730502137
 30
0.0
 11
-36.8866984418
 21
9.1043803419
 31
0.0
  0
LINE
  5
158
330
1F
100
AcDbEntity
  8
0
  6
Continuous
 62
     7
370
    15
100
AcDbLine
 10
-39.7971151084
 20
7.8357371795
 30
0.0
 11
-39.7971151084
 21
7.8730502137
 31
0.0
  0
LINE
  5
159
330
1F
100
AcDbEntity
  8
0
  6
Continuous
 62
     7
370
    15
100
AcDbLine
 10
-36.9700697525
 20
4.7614929721
 30
0.0
 11
-38.1460133456
 21
5.5304912861
 31
0.0
  0
LINE
  5
15A
330
1F
100
AcDbEntity
  8
0
  6
Continuous
 62
     7
370
    15
100
AcDbLine
 10
-36.8120723734
 20
4.962633547
 30
0.0
 11
-36.9700697525
 21
4.7614929721
 31
0.0
  0
LINE
  5
15B
330
1F
100
AcDbEntity
  8
0
  6
Continuous
 62
     7
370
    15
100
AcDbLine
 10
-38.140183184
 20
5.8313276242
 30
0.0
 11
-36.8120723734
 21
4.962633547
 31
0.0
  0
LINE
  5
15C
330
1F
100
AcDbEntity
  8
0
  6
Continuous
 62
     7
370
    15
100
AcDbLine
 10
-39.0823372973
 20
-0.4104433761
 30
0.0
 11
-39.7971151084
 21
-0.4104433761
 31
0.0
  0
LINE
  5
15D
330
1F
100
AcDbEntity
  8
0
  6
Continuous
 62
     7
370
    15
100
AcDbLine
 10
-37.7058361454
 20
-1.1567040598
 30
0.0
 11
-37.9320464152
 21
-1.0132820847
 31
0.0
  0
LINE
  5
15E
330
1F
100
AcDbEntity
  8
0
  6
Continuous
 62
     7
370
    15
100
AcDbLine
 10
-37.6702721597
 20
-0.4104433761
 30
0.0
 11
-37.9833518372
 21
-0.4104433761
 31
0.0
  0
LINE
  5
15F
330
1F
100
AcDbEntity
  8
0
  6
Continuous
 62
     7
370
    15
100
AcDbLine
 10
-37.6702721597
 20
-0.1492521368
 30
0.0
 11
-37.6702721597
 21
-0.4104433761
 31
0.0
  0
LINE
  5
160
330
1F
100
AcDbEntity
  8
0
  6
Continuous
 62
     7
370
    15
100
AcDbLine
 10
-39.7971151084
 20
-0.1492521368
 30
0.0
 11
-37.6702721597
 21
-0.1492521368
 31
0.0
  0
LINE
  5
161
330
1F
100
AcDbEntity
  8
0
  6
Continuous
 62
     7
370
    15
100
AcDbLine
 10
-39.7971151084
 20
-0.4104433761
 30
0.0
 11
-39.7971151084
 21
-0.1492521368
 31
0.0
  0
LINE
  5
162
330
1F
100
AcDbEntity
  8
0
  6
Continuous
 62
     7
370
    15
100
AcDbLine
 10
-39.7971151084
 20
-3.3581730769
 30
0.0
 11
-39.429231912
 21
-3.3581730769
 31
0.0
  0
LINE
  5
163
330
1F
100
AcDbEntity
  8
0
  6
Continuous
 62
     7
370
    15
100
AcDbLine
 10
-39.7971151084
 20
-3.6193643162
 30
0.0
 11
-39.7971151084
 21
-3.3581730769
 31
0.0
  0
LINE
  5
164
330
1F
100
AcDbEntity
  8
0
  6
Continuous
 62
     7
370
    15
100
AcDbLine
 10
-36.8120723734
 20
-3.6193643162
 30
0.0
 11
-39.7971151084
 21
-3.6193643162
 31
0.0
  0
LINE
  5
165
330
1F
100
AcDbEntity
  8
0
  6
Continuous
 62
     7
370
    15
100
AcDbLine
 10
-36.8120723734
 20
-3.3581730769
 30
0.0
 11
-36.8120723734
 21
-3.6193643162
 31
0.0
  0
LINE
  5
166
330
1F
100
AcDbEntity
  8
0
  6
Continuous
 62
     7
370
    15
100
AcDbLine
 10
-38.0818815681
 20
-3.3581730769
 30
0.0
 11
-36.8120723734
 21
-3.3581730769
 31
0.0
  0
LINE
  5
167
330
1F
100
AcDbEntity
  8
0
  6
Continuous
 62
     7
370
    15
100
AcDbLine
 10
-39.7971151084
 20
-15.2522857405
 30
0.0
 11
-37.6982569354
 21
-14.1976095085
 31
0.0
  0
LINE
  5
168
330
1F
100
AcDbEntity
  8
0
  6
Continuous
 62
     7
370
    15
100
AcDbLine
 10
-39.7971151084
 20
-15.3111703726
 30
0.0
 11
-39.7971151084
 21
-15.2522857405
 31
0.0
  0
LINE
  5
169
330
1F
100
AcDbEntity
  8
0
  6
Continuous
 62
     7
370
    15
100
AcDbLine
 10
-37.7029210646
 20
-16.3617654915
 30
0.0
 11
-39.7971151084
 21
-15.3111703726
 31
0.0
  0
LINE
  5
16A
330
1F
100
AcDbEntity
  8
0
  6
Continuous
 62
     7
370
    15
100
AcDbLine
 10
-39.7971151084
 20
-16.6404472155
 30
0.0
 11
-37.7029210646
 21
-16.3617654915
 31
0.0
  0
LINE
  5
16B
330
1F
100
AcDbEntity
  8
0
  6
Continuous
 62
     7
370
    15
100
AcDbLine
 10
-39.7971151084
 20
-16.9028044872
 30
0.0
 11
-39.7971151084
 21
-16.6404472155
 31
0.0
  0
LINE
  5
16C
330
1F
100
AcDbEntity
  8
0
  6
Continuous
 62
     7
370
    15
100
AcDbLine
 10
-36.8866984418
 20
-16.5162647736
 30
0.0
 11
-39.7971151084
 21
-16.9028044872
 31
0.0
  0
LINE
  5
16D
330
1F
100
AcDbEntity
  8
0
  6
Continuous
 62
     7
370
    15
100
AcDbLine
 10
-36.8866984418
 20
-16.4783687233
 30
0.0
 11
-36.8866984418
 21
-16.5162647736
 31
0.0
  0
LINE
  5
16E
330
1F
100
AcDbEntity
  8
0
  6
Continuous
 62
     7
370
    15
100
AcDbLine
 10
-39.2747326298
 20
-15.2796875
 30
0.0
 11
-36.8866984418
 21
-16.4783687233
 31
0.0
  0
LINE
  5
16F
330
1F
100
AcDbEntity
  8
0
  6
Continuous
 62
     7
370
    15
100
AcDbLine
 10
-36.8866984418
 20
-14.0780911959
 30
0.0
 11
-39.2747326298
 21
-15.2796875
 31
0.0
  0
LINE
  5
170
330
1F
100
AcDbEntity
  8
0
  6
Continuous
 62
     7
370
    15
100
AcDbLine
 10
-36.8866984418
 20
-14.0407781617
 30
0.0
 11
-36.8866984418
 21
-14.0780911959
 31
0.0
  0
LINE
  5
171
330
1F
100
AcDbEntity
  8
0
  6
Continuous
 62
     7
370
    15
100
AcDbLine
 10
-39.7971151084
 20
-13.6565705128
 30
0.0
 11
-36.8866984418
 21
-14.0407781617
 31
0.0
  0
LINE
  5
172
330
1F
100
AcDbEntity
  8
0
  6
Continuous
 62
     7
370
    15
100
AcDbLine
 10
-39.7971151084
 20
-13.9195108006
 30
0.0
 11
-39.7971151084
 21
-13.6565705128
 31
0.0
  0
LINE
  5
173
330
1F
100
AcDbEntity
  8
0
  6
Continuous
 62
     7
370
    15
100
AcDbLine
 10
-37.6982569354
 20
-14.1976095085
 30
0.0
 11
-39.7971151084
 21
-13.9195108006
 31
0.0
  0
LINE
  5
174
330
1F
100
AcDbEntity
  8
0
  6
Continuous
 62
     7
370
    15
100
AcDbLine
 10
-37.931463399
 20
-17.3132478632
 30
0.0
 11
-37.6702721597
 21
-17.3132478632
 31
0.0
  0
LINE
  5
175
330
1F
100
AcDbEntity
  8
0
  6
Continuous
 62
     7
370
    15
100
AcDbLine
 10
-37.931463399
 20
-17.6863782051
 30
0.0
 11
-37.931463399
 21
-17.3132478632
 31
0.0
  0
LINE
  5
176
330
1F
100
AcDbEntity
  8
0
  6
Continuous
 62
     7
370
    15
100
AcDbLine
 10
-39.7971151084
 20
-17.6863782051
 30
0.0
 11
-37.931463399
 21
-17.6863782051
 31
0.0
  0
LINE
  5
177
330
1F
100
AcDbEntity
  8
0
  6
Continuous
 62
     7
370
    15
100
AcDbLine
 10
-39.7971151084
 20
-17.9475694444
 30
0.0
 11
-39.7971151084
 21
-17.6863782051
 31
0.0
  0
LINE
  5
178
330
1F
100
AcDbEntity
  8
0
  6
Continuous
 62
     7
370
    15
100
AcDbLine
 10
-37.931463399
 20
-17.9475694444
 30
0.0
 11
-39.7971151084
 21
-17.9475694444
 31
0.0
  0
LINE
  5
179
330
1F
100
AcDbEntity
  8
0
  6
Continuous
 62
     7
370
    15
100
AcDbLine
 10
-37.931463399
 20
-18.3206997863
 30
0.0
 11
-37.931463399
 21
-17.9475694444
 31
0.0
  0
LINE
  5
17A
330
1F
100
AcDbEntity
  8
0
  6
Continuous
 62
     7
370
    15
100
AcDbLine
 10
-37.6702721597
 20
-18.3206997863
 30
0.0
 11
-37.931463399
 21
-18.3206997863
 31
0.0
  0
LINE
  5
17B
330
1F
100
AcDbEntity
  8
0
  6
Continuous
 62
     7
370
    15
100
AcDbLine
 10
-37.6702721597
 20
-17.9475694444
 30
0.0
 11
-37.6702721597
 21
-18.3206997863
 31
0.0
  0
LINE
  5
17C
330
1F
100
AcDbEntity
  8
0
  6
Continuous
 62
     7
370
    15
100
AcDbLine
 10
-36.8120723734
 20
-17.9475694444
 30
0.0
 11
-37.6702721597
 21
-17.9475694444
 31
0.0
  0
LINE
  5
17D
330
1F
100
AcDbEntity
  8
0
  6
Continuous
 62
     7
370
    15
100
AcDbLine
 10
-36.8120723734
 20
-17.6863782051
 30
0.0
 11
-36.8120723734
 21
-17.9475694444
 31
0.0
  0
LINE
  5
17E
330
1F
100
AcDbEntity
  8
0
  6
Continuous
 62
     7
370
    15
100
AcDbLine
 10
-37.6702721597
 20
-17.6863782051
 30
0.0
 11
-36.8120723734
 21
-17.6863782051
 31
0.0
  0
LINE
  5
17F
330
1F
100
AcDbEntity
  8
0
  6
Continuous
 62
     7
370
    15
100
AcDbLine
 10
-37.6702721597
 20
-17.3132478632
 30
0.0
 11
-37.6702721597
 21
-17.6863782051
 31
0.0
  0
LINE
  5
180
330
1F
100
AcDbEntity
  8
0
  6
Continuous
 62
     7
370
    15
100
AcDbLine
 10
-39.7971151084
 20
18.0682537894
 30
0.0
 11
-37.6982569354
 21
19.1229300214
 31
0.0
  0
LINE
  5
181
330
1F
100
AcDbEntity
  8
0
  6
Continuous
 62
     7
370
    15
100
AcDbLine
 10
-39.7971151084
 20
18.0093691573
 30
0.0
 11
-39.7971151084
 21
18.0682537894
 31
0.0
  0
LINE
  5
182
330
1F
100
AcDbEntity
  8
0
  6
Continuous
 62
     7
370
    15
100
AcDbLine
 10
-37.7029210646
 20
16.9587740385
 30
0.0
 11
-39.7971151084
 21
18.0093691573
 31
0.0
  0
LINE
  5
183
330
1F
100
AcDbEntity
  8
0
  6
Continuous
 62
     7
370
    15
100
AcDbLine
 10
-39.7971151084
 20
16.6800923144
 30
0.0
 11
-37.7029210646
 21
16.9587740385
 31
0.0
  0
LINE
  5
184
330
1F
100
AcDbEntity
  8
0
  6
Continuous
 62
     7
370
    15
100
AcDbLine
 10
-39.7971151084
 20
16.4177350427
 30
0.0
 11
-39.7971151084
 21
16.6800923144
 31
0.0
  0
LINE
  5
185
330
1F
100
AcDbEntity
  8
0
  6
Continuous
 62
     7
370
    15
100
AcDbLine
 10
-36.8866984418
 20
16.8042747563
 30
0.0
 11
-39.7971151084
 21
16.4177350427
 31
0.0
  0
LINE
  5
186
330
1F
100
AcDbEntity
  8
0
  6
Continuous
 62
     7
370
    15
100
AcDbLine
 10
-36.8866984418
 20
16.8421708066
 30
0.0
 11
-36.8866984418
 21
16.8042747563
 31
0.0
  0
LINE
  5
187
330
1F
100
AcDbEntity
  8
0
  6
Continuous
 62
     7
370
    15
100
AcDbLine
 10
-39.2747326298
 20
18.0408520299
 30
0.0
 11
-36.8866984418
 21
16.8421708066
 31
0.0
  0
LINE
  5
188
330
1F
100
AcDbEntity
  8
0
  6
Continuous
 62
     7
370
    15
100
AcDbLine
 10
-36.8866984418
 20
19.242448334
 30
0.0
 11
-39.2747326298
 21
18.0408520299
 31
0.0
  0
LINE
  5
189
330
1F
100
AcDbEntity
  8
0
  6
Continuous
 62
     7
370
    15
100
AcDbLine
 10
-36.8866984418
 20
19.2797613682
 30
0.0
 11
-36.8866984418
 21
19.242448334
 31
0.0
  0
LINE
  5
18A
330
1F
100
AcDbEntity
  8
0
  6
Continuous
 62
     7
370
    15
100
AcDbLine
 10
-39.7971151084
 20
19.6639690171
 30
0.0
 11
-36.8866984418
 21
19.2797613682
 31
0.0
  0
LINE
  5
18B
330
1F
100
AcDbEntity
  8
0
  6
Continuous
 62
     7
370
    15
100
AcDbLine
 10
-39.7971151084
 20
19.4010287293
 30
0.0
 11
-39.7971151084
 21
19.6639690171
 31
0.0
  0
LINE
  5
18C
330
1F
100
AcDbEntity
  8
0
  6
Continuous
 62
     7
370
    15
100
AcDbLine
 10
-37.6982569354
 20
19.1229300214
 30
0.0
 11
-39.7971151084
 21
19.4010287293
 31
0.0
  0
LINE
  5
18D
330
1F
100
AcDbEntity
  8
0
  6
Continuous
 62
     7
370
    15
100
AcDbLine
 10
-53.5
 20
12.0
 30
0.0
 11
-53.5
 21
18.0
 31
0.0
  0
LINE
  5
18E
330
1F
100
AcDbEntity
  8
0
  6
Continuous
 62
     7
370
    15
100
AcDbLine
 10
-51.5
 20
20.0
 30
0.0
 11
-45.0
 21
20.0
 31
0.0
  0
LINE
  5
18F
330
1F
100
AcDbEntity
  8
0
  6
Continuous
 62
     7
370
    15
100
AcDbLine
 10
-45.0
 20
20.0
 30
0.0
 11
-45.0
 21
30.0
 31
0.0
  0
LINE
  5
190
330
1F
100
AcDbEntity
  8
0
  6
Continuous
 62
     7
370
    15
100
AcDbLine
 10
-45.0
 20
30.0
 30
0.0
 11
40.0
 21
30.0
 31
0.0
  0
LINE
  5
191
330
1F
100
AcDbEntity
  8
0
  6
Continuous
 62
     7
370
    15
100
AcDbLine
 10
45.0
 20
-25.0
 30
0.0
 11
45.0
 21
25.0
 31
0.0
  0
LINE
  5
192
330
1F
100
AcDbEntity
  8
0
  6
Continuous
 62
     7
370
    15
100
AcDbLine
 10
30.0
 20
-43.5
 30
0.0
 11
30.0
 21
-40.0
 31
0.0
  0
LINE
  5
193
330
1F
100
AcDbEntity
  8
0
  6
Continuous
 62
     7
370
    15
100
AcDbLine
 10
15.0
 20
-43.5
 30
0.0
 11
30.0
 21
-43.5
 31
0.0
  0
LINE
  5
194
330
1F
100
AcDbEntity
  8
0
  6
Continuous
 62
     7
370
    15
100
AcDbLine
 10
15.0
 20
-40.0
 30
0.0
 11
15.0
 21
-43.5
 31
0.0
  0
LINE
  5
195
330
1F
100
AcDbEntity
  8
0
  6
Continuous
 62
     7
370
    15
100
AcDbLine
 10
-45.0
 20
-30.0
 30
0.0
 11
5.0
 21
-30.0
 31
0.0
  0
LINE
  5
196
330
1F
100
AcDbEntity
  8
0
  6
Continuous
 62
     7
370
    15
100
AcDbLine
 10
-45.0
 20
-30.0
 30
0.0
 11
-45.0
 21
-15.0
 31
0.0
  0
LINE
  5
197
330
1F
100
AcDbEntity
  8
0
  6
Continuous
 62
     7
370
    15
100
AcDbLine
 10
-45.0
 20
-15.0
 30
0.0
 11
-48.5
 21
-15.0
 31
0.0
  0
LINE
  5
198
330
1F
100
AcDbEntity
  8
0
  6
Continuous
 62
     7
370
    15
100
AcDbLine
 10
-48.5
 20
-15.0
 30
0.0
 11
-48.5
 21
-18.0
 31
0.0
  0
LINE
  5
199
330
1F
100
AcDbEntity
  8
0
  6
Continuous
 62
     7
370
    15
100
AcDbLine
 10
-50.5
 20
-20.0
 30
0.0
 11
-51.5
 21
-20.0
 31
0.0
  0
LINE
  5
19A
330
1F
100
AcDbEntity
  8
0
  6
Continuous
 62
     7
370
    15
100
AcDbLine
 10
-53.5
 20
-18.0
 30
0.0
 11
-53.5
 21
-12.0
 31
0.0
  0
LINE
  5
19B
330
1F
100
AcDbEntity
  8
0
  6
Continuous
 62
     7
370
    15
100
AcDbLine
 10
-51.5
 20
-10.0
 30
0.0
 11
-45.0
 21
-10.0
 31
0.0
  0
LINE
  5
19C
330
1F
100
AcDbEntity
  8
0
  6
Continuous
 62
     7
370
    15
100
AcDbLine
 10
-45.0
 20
-10.0
 30
0.0
 11
-45.0
 21
15.0
 31
0.0
  0
LINE
  5
19D
330
1F
100
AcDbEntity
  8
0
  6
Continuous
 62
     7
370
    15
100
AcDbLine
 10
-45.0
 20
15.0
 30
0.0
 11
-48.5
 21
15.0
 31
0.0
  0
LINE
  5
19E
330
1F
100
AcDbEntity
  8
0
  6
Continuous
 62
     7
370
    15
100
AcDbLine
 10
-48.5
 20
15.0
 30
0.0
 11
-48.5
 21
12.0
 31
0.0
  0
LINE
  5
19F
330
1F
100
AcDbEntity
  8
0
  6
Continuous
 62
     7
370
    15
100
AcDbLine
 10
-50.5
 20
10.0
 30
0.0
 11
-51.5
 21
10.0
 31
0.0
  0
LINE
  5
1A0
330
1F
100
AcDbEntity
  8
0
  6
Continuous
 62
     7
370
    15
100
AcDbLine
 10
-39.0281167945
 20
-7.7611111111
 30
0.0
 11
-39.7971151084
 21
-7.7611111111
 31
0.0
  0
LINE
  5
1A1
330
1F
100
AcDbEntity
  8
0
  6
Continuous
 62
     7
370
    15
100
AcDbLine
 10
-39.7971151084
 20
-9.1043803419
 30
0.0
 11
-38.7966593793
 21
-9.1043803419
 31
0.0
  0
LINE
  5
1A2
330
1F
100
AcDbEntity
  8
0
  6
Continuous
 62
     7
370
    15
100
AcDbLine
 10
-39.7971151084
 20
-9.3655715812
 30
0.0
 11
-39.7971151084
 21
-9.1043803419
 31
0.0
  0
LINE
  5
1A3
330
1F
100
AcDbEntity
  8
0
  6
Continuous
 62
     7
370
    15
100
AcDbLine
 10
-38.7109560039
 20
-9.3655715812
 30
0.0
 11
-39.7971151084
 21
-9.3655715812
 31
0.0
  0
LINE
  5
1A4
330
1F
100
AcDbEntity
  8
0
  6
Continuous
 62
     7
370
    15
100
AcDbLine
 10
-37.6702721597
 20
-7.7611111111
 30
0.0
 11
-38.0538967925
 21
-7.7611111111
 31
0.0
  0
LINE
  5
1A5
330
1F
100
AcDbEntity
  8
0
  6
Continuous
 62
     7
370
    15
100
AcDbLine
 10
-37.6702721597
 20
-7.4999198718
 30
0.0
 11
-37.6702721597
 21
-7.7611111111
 31
0.0
  0
LINE
  5
1A6
330
1F
100
AcDbEntity
  8
0
  6
Continuous
 62
     7
370
    15
100
AcDbLine
 10
-39.7971151084
 20
-7.4999198718
 30
0.0
 11
-37.6702721597
 21
-7.4999198718
 31
0.0
  0
LINE
  5
1A7
330
1F
100
AcDbEntity
  8
0
  6
Continuous
 62
     7
370
    15
100
AcDbLine
 10
-39.7971151084
 20
-7.7611111111
 30
0.0
 11
-39.7971151084
 21
-7.4999198718
 31
0.0
  0
LINE
  5
1A8
330
1F
100
AcDbEntity
  8
0
  6
Continuous
 62
     7
370
    15
100
AcDbLine
 10
-37.6702721597
 20
-6.9029113248
 30
0.0
 11
-39.7971151084
 21
-6.9029113248
 31
0.0
  0
LINE
  5
1A9
330
1F
100
AcDbEntity
  8
0
  6
Continuous
 62
     7
370
    15
100
AcDbLine
 10
-37.6702721597
 20
-6.6417200855
 30
0.0
 11
-37.6702721597
 21
-6.9029113248
 31
0.0
  0
LINE
  5
1AA
330
1F
100
AcDbEntity
  8
0
  6
Continuous
 62
     7
370
    15
100
AcDbLine
 10
-39.7971151084
 20
-6.6417200855
 30
0.0
 11
-37.6702721597
 21
-6.6417200855
 31
0.0
  0
LINE
  5
1AB
330
1F
100
AcDbEntity
  8
0
  6
Continuous
 62
     7
370
    15
100
AcDbLine
 10
-39.7971151084
 20
-6.9029113248
 30
0.0
 11
-39.7971151084
 21
-6.6417200855
 31
0.0
  0
LINE
  5
1AC
330
1F
100
AcDbEntity
  8
0
  6
Continuous
 62
     7
370
    15
100
AcDbLine
 10
-37.6702721597
 20
-6.0820245726
 30
0.0
 11
-38.7057088584
 21
-6.0820245726
 31
0.0
  0
LINE
  5
1AD
330
1F
100
AcDbEntity
  8
0
  6
Continuous
 62
     7
370
    15
100
AcDbLine
 10
-37.6702721597
 20
-5.8208333333
 30
0.0
 11
-37.6702721597
 21
-6.0820245726
 31
0.0
  0
LINE
  5
1AE
330
1F
100
AcDbEntity
  8
0
  6
Continuous
 62
     7
370
    15
100
AcDbLine
 10
-38.6567355011
 20
-5.8208333333
 30
0.0
 11
-37.6702721597
 21
-5.8208333333
 31
0.0
  0
LINE
  5
1AF
330
1F
100
AcDbEntity
  8
0
  6
Continuous
 62
     7
370
    15
100
AcDbLine
 10
-37.6702721597
 20
-4.4402510684
 30
0.0
 11
-38.6567355011
 21
-4.4402510684
 31
0.0
  0
LINE
  5
1B0
330
1F
100
AcDbEntity
  8
0
  6
Continuous
 62
     7
370
    15
100
AcDbLine
 10
-37.6702721597
 20
-4.1790598291
 30
0.0
 11
-37.6702721597
 21
-4.4402510684
 31
0.0
  0
LINE
  5
1B1
330
1F
100
AcDbEntity
  8
0
  6
Continuous
 62
     7
370
    15
100
AcDbLine
 10
-38.6864693252
 20
-4.1790598291
 30
0.0
 11
-37.6702721597
 21
-4.1790598291
 31
0.0
  0
LINE
  5
1B2
330
1F
100
AcDbEntity
  8
0
  6
Continuous
 62
     7
370
    15
100
AcDbLine
 10
-39.7971151084
 20
2.6253217648
 30
0.0
 11
-39.7971151084
 21
2.9104166667
 31
0.0
  0
LINE
  5
1B3
330
1F
100
AcDbEntity
  8
0
  6
Continuous
 62
     7
370
    15
100
AcDbLine
 10
-38.8642892537
 20
2.1828125
 30
0.0
 11
-39.7971151084
 21
2.6253217648
 31
0.0
  0
LINE
  5
1B4
330
1F
100
AcDbEntity
  8
0
  6
Continuous
 62
     7
370
    15
100
AcDbLine
 10
-38.8642892537
 20
0.8634469318
 30
0.0
 11
-38.8642892537
 21
2.1828125
 31
0.0
  0
LINE
  5
1B5
330
1F
100
AcDbEntity
  8
0
  6
Continuous
 62
     7
370
    15
100
AcDbLine
 10
-39.7971151084
 20
0.4331810063
 30
0.0
 11
-38.8642892537
 21
0.8634469318
 31
0.0
  0
LINE
  5
1B6
330
1F
100
AcDbEntity
  8
0
  6
Continuous
 62
     7
370
    15
100
AcDbLine
 10
-39.7971151084
 20
0.1492521368
 30
0.0
 11
-39.7971151084
 21
0.4331810063
 31
0.0
  0
LINE
  5
1B7
330
1F
100
AcDbEntity
  8
0
  6
Continuous
 62
     7
370
    15
100
AcDbLine
 10
-36.8866984418
 20
1.4925213675
 30
0.0
 11
-39.7971151084
 21
0.1492521368
 31
0.0
  0
LINE
  5
1B8
330
1F
100
AcDbEntity
  8
0
  6
Continuous
 62
     7
370
    15
100
AcDbLine
 10
-36.8866984418
 20
1.5298344017
 30
0.0
 11
-36.8866984418
 21
1.4925213675
 31
0.0
  0
LINE
  5
1B9
330
1F
100
AcDbEntity
  8
0
  6
Continuous
 62
     7
370
    15
100
AcDbLine
 10
-39.7971151084
 20
2.9104166667
 30
0.0
 11
-36.8866984418
 21
1.5298344017
 31
0.0
  0
LINE
  5
1BA
330
1F
100
AcDbEntity
  8
0
  6
Continuous
 62
     7
370
    15
100
AcDbLine
 10
-37.4539731647
 20
1.5140929654
 30
0.0
 11
-38.5657849802
 21
2.0411395733
 31
0.0
  0
LINE
  5
1BB
330
1F
100
AcDbEntity
  8
0
  6
Continuous
 62
     7
370
    15
100
AcDbLine
 10
-38.5657849802
 20
2.0411395733
 30
0.0
 11
-38.5657849802
 21
1.0010387453
 31
0.0
  0
LINE
  5
1BC
330
1F
100
AcDbEntity
  8
0
  6
Continuous
 62
     7
370
    15
100
AcDbLine
 10
-38.5657849802
 20
1.0010387453
 30
0.0
 11
-37.4539731647
 21
1.5140929654
 31
0.0
  0
ARC
  5
1BD
330
1F
100
AcDbEntity
  8
0
  6
Continuous
 62
     7
370
    15
100
AcDbCircle
 10
-51.5
 20
12.0
 30
0.0
 40
2.000000000000021
100
AcDbArc
 50
180.0
 51
270.0
  0
ARC
  5
1BE
330
1F
100
AcDbEntity
  8
0
  6
Continuous
 62
     7
370
    15
100
AcDbCircle
 10
-51.5
 20
18.0
 30
0.0
 40
2.000000000000014
100
AcDbArc
 50
90.0
 51
180.0
  0
ARC
  5
1BF
330
1F
100
AcDbEntity
  8
0
  6
Continuous
 62
     7
370
    15
100
AcDbCircle
 10
40.0
 20
25.0
 30
0.0
 40
5.000000000000021
100
AcDbArc
 50
0.0
 51
90.0
  0
ARC
  5
1C0
330
1F
100
AcDbEntity
  8
0
  6
Continuous
 62
     7
370
    15
100
AcDbCircle
 10
40.0
 20
-25.0
 30
0.0
 40
5.000000000000011
100
AcDbArc
 50
270.0
 51
0.0
  0
ARC
  5
1C1
330
1F
100
AcDbEntity
  8
0
  6
Continuous
 62
     7
370
    15
100
AcDbCircle
 10
40.0
 20
-40.0
 30
0.0
 40
10.0
100
AcDbArc
 50
90.0
 51
180.0
  0
ARC
  5
1C2
330
1F
100
AcDbEntity
  8
0
  6
Continuous
 62
     7
370
    15
100
AcDbCircle
 10
5.0
 20
-40.0
 30
0.0
 40
10.00000000000001
100
AcDbArc
 50
0.0
 51
90.0
  0
ARC
  5
1C3
330
1F
100
AcDbEntity
  8
0
  6
Continuous
 62
     7
370
    15
100
AcDbCircle
 10
-50.5
 20
-18.0
 30
0.0
 40
2.000000000000014
100
AcDbArc
 50
270.0
 51
0.0
  0
ARC
  5
1C4
330
1F
100
AcDbEntity
  8
0
  6
Continuous
 62
     7
370
    15
100
AcDbCircle
 10
-51.5
 20
-18.0
 30
0.0
 40
2.000000000000007
100
AcDbArc
 50
180.0
 51
270.0
  0
ARC
  5
1C5
330
1F
100
AcDbEntity
  8
0
  6
Continuous
 62
     7
370
    15
100
AcDbCircle
 10
-51.5
 20
-12.0
 30
0.0
 40
2.000000000000014
100
AcDbArc
 50
90.0
 51
180.0
  0
ARC
  5
1C6
330
1F
100
AcDbEntity
  8
0
  6
Continuous
 62
     7
370
    15
100
AcDbCircle
 10
-50.5
 20
12.0
 30
0.0
 40
2.000000000000007
100
AcDbArc
 50
270.0
 51
0.0
  0
MTEXT
  5
1C8
330
1F
100
AcDbEntity
  8
0
  6
Continuous
 62
     7
100
AcDbMText
 10
-53.5
 20
-44.5195663917
 30
0.0
 40
4.83362
 41
0.0
 71
     1
 72
     1
  1
SOLIDWORKS Educational Product.
  7
SLDTEXTSTYLE0
 73
     1
 44
1.0
  0
MTEXT
  5
1C9
330
1F
100
AcDbEntity
  8
0
  6
Continuous
 62
     7
100
AcDbMText
 10
-53.5
 20
-51.7699963917
 30
0.0
 40
4.83362
 41
0.0
 71
     1
 72
     1
  1
For Instructional Use Only.
  7
SLDTEXTSTYLE0
 73
     1
 44
1.0
  0
ENDSEC
  0
SECTION
  2
OBJECTS
  0
DICTIONARY
  5
C
330
0
100
AcDbDictionary
281
     1
  3
ACAD_GROUP
350
D
  3
ACAD_LAYOUT
350
1A
  3
ACAD_MLINESTYLE
350
17
  3
ACAD_PLOTSETTINGS
350
19
  3
ACAD_PLOTSTYLENAME
350
E
  3
ACAD_SCALELIST
350
47
  0
DICTIONARY
  5
D
102
{ACAD_REACTORS
330
C
102
}
330
C
100
AcDbDictionary
281
     1
  0
DICTIONARY
  5
1A
102
{ACAD_REACTORS
330
C
102
}
330
C
100
AcDbDictionary
281
     1
  3
Layout1
350
1E
  3
Layout2
350
26
  3
Model
350
22
  0
DICTIONARY
  5
17
102
{ACAD_REACTORS
330
C
102
}
330
C
100
AcDbDictionary
281
     1
  3
Standard
350
18
  0
DICTIONARY
  5
19
102
{ACAD_REACTORS
330
C
102
}
330
C
100
AcDbDictionary
281
     1
  0
ACDBDICTIONARYWDFLT
  5
E
102
{ACAD_REACTORS
330
C
102
}
330
C
100
AcDbDictionary
281
     1
  3
Normal
350
F
100
AcDbDictionaryWithDefault
340
F
  0
DICTIONARY
  5
47
102
{ACAD_REACTORS
330
C
102
}
330
C
100
AcDbDictionary
281
     1
  3
A0
350
48
  3
A1
350
49
  3
A2
350
4A
  3
A3
350
4B
  3
A4
350
4C
  3
A5
350
4D
  3
A6
350
4E
  3
A7
350
4F
  3
A8
350
50
  3
A9
350
51
  3
B0
350
52
  3
B1
350
53
  3
B2
350
54
  3
B3
350
55
  3
B4
350
56
  3
B5
350
57
  3
B6
350
58
  3
B7
350
59
  3
B8
350
5A
  3
B9
350
5B
  3
C0
350
5C
  3
C1
350
5D
  3
C2
350
5E
  3
C3
350
5F
  3
C4
350
60
  3
C5
350
61
  3
C6
350
62
  3
C7
350
63
  3
C8
350
64
  3
C9
350
65
  3
D0
350
66
  3
D1
350
67
  3
D2
350
68
  0
LAYOUT
  5
1E
102
{ACAD_REACTORS
330
1A
102
}
330
1A
100
AcDbPlotSettings
  1

  2
none_device
  4

  6

 40
0.0
 41
0.0
 42
0.0
 43
0.0
 44
0.0
 45
0.0
 46
0.0
 47
0.0
 48
0.0
 49
0.0
140
0.0
141
0.0
142
1.0
143
1.0
 70
   688
 72
     1
 73
     0
 74
     5
  7

 75
    16
147
1.0
148
0.0
149
0.0
100
AcDbLayout
  1
Layout1
 70
     1
 71
     1
 10
0.0
 20
0.0
 11
420.0
 21
297.0
 12
0.0
 22
0.0
 32
0.0
 14
1.0000000000E+20
 24
1.0000000000E+20
 34
1.0000000000E+20
 15
-1.0000000000E+20
 25
-1.0000000000E+20
 35
-1.0000000000E+20
146
0.0
 13
0.0
 23
0.0
 33
0.0
 16
1.0
 26
0.0
 36
0.0
 17
0.0
 27
1.0
 37
0.0
 76
     0
330
1B
  0
LAYOUT
  5
26
102
{ACAD_REACTORS
330
1A
102
}
330
1A
100
AcDbPlotSettings
  1

  2
none_device
  4

  6

 40
0.0
 41
0.0
 42
0.0
 43
0.0
 44
0.0
 45
0.0
 46
0.0
 47
0.0
 48
0.0
 49
0.0
140
0.0
141
0.0
142
1.0
143
1.0
 70
   688
 72
     1
 73
     0
 74
     5
  7

 75
    16
147
1.0
148
0.0
149
0.0
100
AcDbLayout
  1
Layout2
 70
     1
 71
     2
 10
0.0
 20
0.0
 11
0.0
 21
0.0
 12
0.0
 22
0.0
 32
0.0
 14
0.0
 24
0.0
 34
0.0
 15
0.0
 25
0.0
 35
0.0
146
0.0
 13
0.0
 23
0.0
 33
0.0
 16
1.0
 26
0.0
 36
0.0
 17
0.0
 27
1.0
 37
0.0
 76
     0
330
23
  0
LAYOUT
  5
22
102
{ACAD_REACTORS
330
1A
102
}
330
1A
100
AcDbPlotSettings
  1

  2
none_device
  4
ANSI_A_(11.00_x_8.50_Inches)
  6

 40
6.35
 41
19.05
 42
6.35000508
 43
19.05000254
 44
279.4
 45
215.9
 46
145.2847741097
 47
107.8552322325
 48
0.0
 49
0.0
140
0.0
141
0.0
142
0.1105583756
143
1.0
 70
  1696
 72
     0
 73
     0
 74
     0
  7

 75
     0
147
0.0179189148
148
-1300.4909072572
149
0.0
100
AcDbLayout
  1
Model
 70
     1
 71
     0
 10
0.0
 20
0.0
 11
420.0
 21
297.0
 12
0.0
 22
0.0
 32
0.0
 14
-53.5
 24
-43.5
 34
0.0
 15
45.0
 25
30.0
 35
0.0
146
0.0
 13
0.0
 23
0.0
 33
0.0
 16
1.0
 26
0.0
 36
0.0
 17
0.0
 27
1.0
 37
0.0
 76
     0
330
1F
331
29
  0
MLINESTYLE
  5
18
102
{ACAD_REACTORS
330
17
102
}
330
17
100
AcDbMlineStyle
  2
Standard
 70
     0
  3

 62
   256
 51
90.0
 52
90.0
 71
     2
 49
0.5
 62
   256
  6
BYLAYER
 49
-0.5
 62
   256
  6
BYLAYER
  0
ACDBPLACEHOLDER
  5
F
102
{ACAD_REACTORS
330
E
102
}
330
E
  0
SCALE
  5
48
102
{ACAD_REACTORS
330
47
102
}
330
47
100
AcDbScale
 70
     0
300
1:1
140
1.0
141
1.0
290
     1
  0
SCALE
  5
49
102
{ACAD_REACTORS
330
47
102
}
330
47
100
AcDbScale
 70
     0
300
1:2
140
1.0
141
2.0
290
     0
  0
SCALE
  5
4A
102
{ACAD_REACTORS
330
47
102
}
330
47
100
AcDbScale
 70
     0
300
1:4
140
1.0
141
4.0
290
     0
  0
SCALE
  5
4B
102
{ACAD_REACTORS
330
47
102
}
330
47
100
AcDbScale
 70
     0
300
1:5
140
1.0
141
5.0
290
     0
  0
SCALE
  5
4C
102
{ACAD_REACTORS
330
47
102
}
330
47
100
AcDbScale
 70
     0
300
1:8
140
1.0
141
8.0
290
     0
  0
SCALE
  5
4D
102
{ACAD_REACTORS
330
47
102
}
330
47
100
AcDbScale
 70
     0
300
1:10
140
1.0
141
10.0
290
     0
  0
SCALE
  5
4E
102
{ACAD_REACTORS
330
47
102
}
330
47
100
AcDbScale
 70
     0
300
1:16
140
1.0
141
16.0
290
     0
  0
SCALE
  5
4F
102
{ACAD_REACTORS
330
47
102
}
330
47
100
AcDbScale
 70
     0
300
1:20
140
1.0
141
20.0
290
     0
  0
SCALE
  5
50
102
{ACAD_REACTORS
330
47
102
}
330
47
100
AcDbScale
 70
     0
300
1:30
140
1.0
141
30.0
290
     0
  0
SCALE
  5
51
102
{ACAD_REACTORS
330
47
102
}
330
47
100
AcDbScale
 70
     0
300
1:40
140
1.0
141
40.0
290
     0
  0
SCALE
  5
52
102
{ACAD_REACTORS
330
47
102
}
330
47
100
AcDbScale
 70
     0
300
1:50
140
1.0
141
50.0
290
     0
  0
SCALE
  5
53
102
{ACAD_REACTORS
330
47
102
}
330
47
100
AcDbScale
 70
     0
300
1:100
140
1.0
141
100.0
290
     0
  0
SCALE
  5
54
102
{ACAD_REACTORS
330
47
102
}
330
47
100
AcDbScale
 70
     0
300
2:1
140
2.0
141
1.0
290
     0
  0
SCALE
  5
55
102
{ACAD_REACTORS
330
47
102
}
330
47
100
AcDbScale
 70
     0
300
4:1
140
4.0
141
1.0
290
     0
  0
SCALE
  5
56
102
{ACAD_REACTORS
330
47
102
}
330
47
100
AcDbScale
 70
     0
300
8:1
140
8.0
141
1.0
290
     0
  0
SCALE
  5
57
102
{ACAD_REACTORS
330
47
102
}
330
47
100
AcDbScale
 70
     0
300
10:1
140
10.0
141
1.0
290
     0
  0
SCALE
  5
58
102
{ACAD_REACTORS
330
47
102
}
330
47
100
AcDbScale
 70
     0
300
100:1
140
100.0
141
1.0
290
     0
  0
SCALE
  5
59
102
{ACAD_REACTORS
330
47
102
}
330
47
100
AcDbScale
 70
     0
300
1/128" = 1'-0"
140
0.0078125
141
12.0
290
     0
  0
SCALE
  5
5A
102
{ACAD_REACTORS
330
47
102
}
330
47
100
AcDbScale
 70
     0
300
1/64" = 1'-0"
140
0.015625
141
12.0
290
     0
  0
SCALE
  5
5B
102
{ACAD_REACTORS
330
47
102
}
330
47
100
AcDbScale
 70
     0
300
1/32" = 1'-0"
140
0.03125
141
12.0
290
     0
  0
SCALE
  5
5C
102
{ACAD_REACTORS
330
47
102
}
330
47
100
AcDbScale
 70
     0
300
1/16" = 1'-0"
140
0.0625
141
12.0
290
     0
  0
SCALE
  5
5D
102
{ACAD_REACTORS
330
47
102
}
330
47
100
AcDbScale
 70
     0
300
3/32" = 1'-0"
140
0.09375
141
12.0
290
     0
  0
SCALE
  5
5E
102
{ACAD_REACTORS
330
47
102
}
330
47
100
AcDbScale
 70
     0
300
1/8" = 1'-0"
140
0.125
141
12.0
290
     0
  0
SCALE
  5
5F
102
{ACAD_REACTORS
330
47
102
}
330
47
100
AcDbScale
 70
     0
300
3/16" = 1'-0"
140
0.1875
141
12.0
290
     0
  0
SCALE
  5
60
102
{ACAD_REACTORS
330
47
102
}
330
47
100
AcDbScale
 70
     0
300
1/4" = 1'-0"
140
0.25
141
12.0
290
     0
  0
SCALE
  5
61
102
{ACAD_REACTORS
330
47
102
}
330
47
100
AcDbScale
 70
     0
300
3/8" = 1'-0"
140
0.375
141
12.0
290
     0
  0
SCALE
  5
62
102
{ACAD_REACTORS
330
47
102
}
330
47
100
AcDbScale
 70
     0
300
1/2" = 1'-0"
140
0.5
141
12.0
290
     0
  0
SCALE
  5
63
102
{ACAD_REACTORS
330
47
102
}
330
47
100
AcDbScale
 70
     0
300
3/4" = 1'-0"
140
0.75
141
12.0
290
     0
  0
SCALE
  5
64
102
{ACAD_REACTORS
330
47
102
}
330
47
100
AcDbScale
 70
     0
300
1" = 1'-0"
140
1.0
141
12.0
290
     0
  0
SCALE
  5
65
102
{ACAD_REACTORS
330
47
102
}
330
47
100
AcDbScale
 70
     0
300
1-1/2" = 1'-0"
140
1.5
141
12.0
290
     0
  0
SCALE
  5
66
102
{ACAD_REACTORS
330
47
102
}
330
47
100
AcDbScale
 70
     0
300
3" = 1'-0"
140
3.0
141
12.0
290
     0
  0
SCALE
  5
67
102
{ACAD_REACTORS
330
47
102
}
330
47
100
AcDbScale
 70
     0
300
6" = 1'-0"
140
6.0
141
12.0
290
     0
  0
SCALE
  5
68
102
{ACAD_REACTORS
330
47
102
}
330
47
100
AcDbScale
 70
     0
300
1'-0" = 1'-0"
140
12.0
141
12.0
290
     0
  0
ENDSEC
  0
EOF
