  0
SECTION
  2
HEADER
  9
$ACADVER
  1
AC1015
  9
$ACADMAINTVER
 70
     6
  9
$DWGCODEPAGE
  3
ANSI_1252
  9
$INSBASE
 10
0.0
 20
0.0
 30
0.0
  9
$EXTMIN
 10
-3.4
 20
-3.4
 30
0.0
  9
$EXTMAX
 10
243.4
 20
30.0
 30
0.0
  9
$LIMMIN
 10
0.0
 20
0.0
  9
$LIMMAX
 10
420.0
 20
297.0
  9
$ORTHOMODE
 70
     0
  9
$REGENMODE
 70
     1
  9
$FILLMODE
 70
     1
  9
$QTEXTMODE
 70
     0
  9
$MIRRTEXT
 70
     1
  9
$LTSCALE
 40
1.0
  9
$ATTMODE
 70
     1
  9
$TEXTSIZE
 40
6.35
  9
$TRACEWID
 40
1.0
  9
$TEXTSTYLE
  7
Standard
  9
$CLAYER
  8
0
  9
$CELTYPE
  6
ByLayer
  9
$CECOLOR
 62
   256
  9
$CELTSCALE
 40
1.0
  9
$DISPSILH
 70
     0
  9
$DIMSCALE
 40
1.0
  9
$DIMASZ
 40
5.9944
  9
$DIMEXO
 40
0.9906
  9
$DIMDLI
 40
3.75
  9
$DIMRND
 40
0.0
  9
$DIMDLE
 40
0.0
  9
$DIMEXE
 40
0.9906
  9
$DIMTP
 40
0.0
  9
$DIMTM
 40
0.0
  9
$DIMTXT
 40
6.35
  9
$DIMCEN
 40
2.5
  9
$DIMTSZ
 40
0.0
  9
$DIMTOL
 70
     0
  9
$DIMLIM
 70
     0
  9
$DIMTIH
 70
     1
  9
$DIMTOH
 70
     1
  9
$DIMSE1
 70
     0
  9
$DIMSE2
 70
     0
  9
$DIMTAD
 70
     1
  9
$DIMZIN
 70
     0
  9
$DIMBLK
  1

  9
$DIMASO
 70
     1
  9
$DIMSHO
 70
     1
  9
$DIMPOST
  1

  9
$DIMAPOST
  1

  9
$DIMALT
 70
     0
  9
$DIMALTD
 70
     3
  9
$DIMALTF
 40
0.0393700787
  9
$DIMLFAC
 40
1.0
  9
$DIMTOFL
 70
     1
  9
$DIMTVP
 40
0.0
  9
$DIMTIX
 70
     0
  9
$DIMSOXD
 70
     0
  9
$DIMSAH
 70
     0
  9
$DIMBLK1
  1

  9
$DIMBLK2
  1

  9
$DIMSTYLE
  2
ISO-25
  9
$DIMCLRD
 70
     0
  9
$DIMCLRE
 70
     0
  9
$DIMCLRT
 70
     0
  9
$DIMTFAC
 40
1.0
  9
$DIMGAP
 40
1.524
  9
$DIMJUST
 70
     0
  9
$DIMSD1
 70
     0
  9
$DIMSD2
 70
     0
  9
$DIMTOLJ
 70
     0
  9
$DIMTZIN
 70
     0
  9
$DIMALTZ
 70
     0
  9
$DIMALTTZ
 70
     0
  9
$DIMUPT
 70
     0
  9
$DIMDEC
 70
     2
  9
$DIMTDEC
 70
     2
  9
$DIMALTU
 70
     2
  9
$DIMALTTD
 70
     3
  9
$DIMTXSTY
  7
Standard
  9
$DIMAUNIT
 70
     0
  9
$DIMADEC
 70
     2
  9
$DIMALTRND
 40
0.0
  9
$DIMAZIN
 70
     0
  9
$DIMDSEP
 70
    44
  9
$DIMATFIT
 70
     3
  9
$DIMFRAC
 70
     0
  9
$DIMLDRBLK
  1

  9
$DIMLUNIT
 70
     2
  9
$DIMLWD
 70
    -2
  9
$DIMLWE
 70
    -2
  9
$DIMTMOVE
 70
     0
  9
$LUNITS
 70
     2
  9
$LUPREC
 70
     2
  9
$SKETCHINC
 40
1.0
  9
$FILLETRAD
 40
10.0
  9
$AUNITS
 70
     0
  9
$AUPREC
 70
     2
  9
$MENU
  1
.
  9
$ELEVATION
 40
0.0
  9
$PELEVATION
 40
0.0
  9
$THICKNESS
 40
0.0
  9
$LIMCHECK
 70
     0
  9
$CHAMFERA
 40
0.0
  9
$CHAMFERB
 40
0.0
  9
$CHAMFERC
 40
0.0
  9
$CHAMFERD
 40
0.0
  9
$SKPOLY
 70
     0
  9
$TDCREATE
 40
2457988.454241991
  9
$TDUCREATE
 40
2457988.412575324
  9
$TDUPDATE
 40
2457988.454267037
  9
$TDUUPDATE
 40
2457988.412600371
  9
$TDINDWG
 40
0.0000000116
  9
$TDUSRTIMER
 40
0.0000000116
  9
$USRTIMER
 70
     1
  9
$ANGBASE
 50
0.0
  9
$ANGDIR
 70
     0
  9
$PDMODE
 70
     0
  9
$PDSIZE
 40
-1.0
  9
$PLINEWID
 40
0.0
  9
$SPLFRAME
 70
     0
  9
$SPLINETYPE
 70
     6
  9
$SPLINESEGS
 70
     8
  9
$HANDSEED
  5
172
  9
$SURFTAB1
 70
     6
  9
$SURFTAB2
 70
     6
  9
$SURFTYPE
 70
     6
  9
$SURFU
 70
     6
  9
$SURFV
 70
     6
  9
$UCSBASE
  2

  9
$UCSNAME
  2

  9
$UCSORG
 10
0.0
 20
0.0
 30
0.0
  9
$UCSXDIR
 10
1.0
 20
0.0
 30
0.0
  9
$UCSYDIR
 10
0.0
 20
1.0
 30
0.0
  9
$UCSORTHOREF
  2

  9
$UCSORTHOVIEW
 70
     0
  9
$UCSORGTOP
 10
0.0
 20
0.0
 30
0.0
  9
$UCSORGBOTTOM
 10
0.0
 20
0.0
 30
0.0
  9
$UCSORGLEFT
 10
0.0
 20
0.0
 30
0.0
  9
$UCSORGRIGHT
 10
0.0
 20
0.0
 30
0.0
  9
$UCSORGFRONT
 10
0.0
 20
0.0
 30
0.0
  9
$UCSORGBACK
 10
0.0
 20
0.0
 30
0.0
  9
$PUCSBASE
  2

  9
$PUCSNAME
  2

  9
$PUCSORG
 10
0.0
 20
0.0
 30
0.0
  9
$PUCSXDIR
 10
1.0
 20
0.0
 30
0.0
  9
$PUCSYDIR
 10
0.0
 20
1.0
 30
0.0
  9
$PUCSORTHOREF
  2

  9
$PUCSORTHOVIEW
 70
     0
  9
$PUCSORGTOP
 10
0.0
 20
0.0
 30
0.0
  9
$PUCSORGBOTTOM
 10
0.0
 20
0.0
 30
0.0
  9
$PUCSORGLEFT
 10
0.0
 20
0.0
 30
0.0
  9
$PUCSORGRIGHT
 10
0.0
 20
0.0
 30
0.0
  9
$PUCSORGFRONT
 10
0.0
 20
0.0
 30
0.0
  9
$PUCSORGBACK
 10
0.0
 20
0.0
 30
0.0
  9
$USERI1
 70
     0
  9
$USERI2
 70
     0
  9
$USERI3
 70
     0
  9
$USERI4
 70
     0
  9
$USERI5
 70
     0
  9
$USERR1
 40
0.0
  9
$USERR2
 40
0.0
  9
$USERR3
 40
0.0
  9
$USERR4
 40
0.0
  9
$USERR5
 40
0.0
  9
$WORLDVIEW
 70
     1
  9
$SHADEDGE
 70
     3
  9
$SHADEDIF
 70
    70
  9
$TILEMODE
 70
     1
  9
$MAXACTVP
 70
    64
  9
$PINSBASE
 10
0.0
 20
0.0
 30
0.0
  9
$PLIMCHECK
 70
     0
  9
$PEXTMIN
 10
1.0000000000E+20
 20
1.0000000000E+20
 30
1.0000000000E+20
  9
$PEXTMAX
 10
-1.0000000000E+20
 20
-1.0000000000E+20
 30
-1.0000000000E+20
  9
$PLIMMIN
 10
0.0
 20
0.0
  9
$PLIMMAX
 10
420.0
 20
297.0
  9
$UNITMODE
 70
     0
  9
$VISRETAIN
 70
     1
  9
$PLINEGEN
 70
     0
  9
$PSLTSCALE
 70
     1
  9
$TREEDEPTH
 70
  3020
  9
$CMLSTYLE
  2
Standard
  9
$CMLJUST
 70
     0
  9
$CMLSCALE
 40
20.0
  9
$PROXYGRAPHICS
 70
     1
  9
$MEASUREMENT
 70
     1
  9
$CELWEIGHT
370
    -1
  9
$ENDCAPS
280
     0
  9
$JOINSTYLE
280
     0
  9
$LWDISPLAY
290
     1
  9
$INSUNITS
 70
     4
  9
$HYPERLINKBASE
  1

  9
$STYLESHEET
  1

  9
$XEDIT
290
     1
  9
$CEPSNTYPE
380
     0
  9
$PSTYLEMODE
290
     1
  9
$FINGERPRINTGUID
  2
{913A5126-49C5-4BCD-8843-7A27026F81A2}
  9
$VERSIONGUID
  2
{FAEB1C32-E019-11D5-929B-00C0DF256EC4}
  9
$EXTNAMES
290
     1
  9
$PSVPSCALE
 40
0.0
  9
$OLESTARTUP
290
     0
  0
ENDSEC
  0
SECTION
  2
CLASSES
  0
CLASS
  1
ACDBDICTIONARYWDFLT
  2
AcDbDictionaryWithDefault
  3
ObjectDBX Classes
 90
        0
280
     0
281
     0
  0
CLASS
  1
VISUALSTYLE
  2
AcDbVisualStyle
  3
ObjectDBX Classes
 90
     4095
280
     0
281
     0
  0
CLASS
  1
MATERIAL
  2
AcDbMaterial
  3
ObjectDBX Classes
 90
     1153
280
     0
281
     0
  0
CLASS
  1
SCALE
  2
AcDbScale
  3
ObjectDBX Classes
 90
     1153
280
     0
281
     0
  0
CLASS
  1
TABLESTYLE
  2
AcDbTableStyle
  3
ObjectDBX Classes
 90
     4095
280
     0
281
     0
  0
CLASS
  1
MLEADERSTYLE
  2
AcDbMLeaderStyle
  3
ACDB_MLEADERSTYLE_CLASS
 90
     4095
280
     0
281
     0
  0
CLASS
  1
SUN
  2
AcDbSun
  3
SCENEOE
 90
     1153
280
     0
281
     0
  0
CLASS
  1
ACDBPLACEHOLDER
  2
AcDbPlaceHolder
  3
ObjectDBX Classes
 90
        0
280
     0
281
     0
  0
CLASS
  1
LAYOUT
  2
AcDbLayout
  3
ObjectDBX Classes
 90
        0
280
     0
281
     0
  0
ENDSEC
  0
SECTION
  2
TABLES
  0
TABLE
  2
VPORT
  5
8
330
0
100
AcDbSymbolTable
 70
     1
  0
VPORT
  5
29
330
8
100
AcDbSymbolTableRecord
100
AcDbViewportTableRecord
  2
*Active
 70
     0
 10
0.0
 20
0.0
 11
1.0
 21
1.0
 12
120.0
 22
13.3
 13
0.0
 23
0.0
 14
10.0
 24
10.0
 15
10.0
 25
10.0
 16
0.0
 26
0.0
 36
1.0
 17
0.0
 27
0.0
 37
0.0
 40
34.068
 41
7.3892215569
 42
50.0
 43
0.0
 44
0.0
 50
0.0
 51
0.0
 71
     0
 72
   100
 73
     1
 74
     3
 75
     0
 76
     0
 77
     0
 78
     0
281
     0
 65
     1
110
0.0
120
0.0
130
0.0
111
1.0
121
0.0
131
0.0
112
0.0
122
1.0
132
0.0
 79
     0
146
0.0
  0
ENDTAB
  0
TABLE
  2
LTYPE
  5
5
330
0
100
AcDbSymbolTable
 70
     6
  0
LTYPE
  5
14
330
5
100
AcDbSymbolTableRecord
100
AcDbLinetypeTableRecord
  2
ByBlock
 70
     0
  3

 72
    65
 73
     0
 40
0.0
  0
LTYPE
  5
15
330
5
100
AcDbSymbolTableRecord
100
AcDbLinetypeTableRecord
  2
ByLayer
 70
     0
  3

 72
    65
 73
     0
 40
0.0
  0
LTYPE
  5
16
330
5
100
AcDbSymbolTableRecord
100
AcDbLinetypeTableRecord
  2
Continuous
 70
     0
  3
Solid line
 72
    65
 73
     0
 40
0.0
  0
LTYPE
  5
6E
330
5
100
AcDbSymbolTableRecord
100
AcDbLinetypeTableRecord
  2
HIDDEN
 70
     0
  3
Hidden __ __ __ __ __ __ __ __ __ __ __ __ __ __
 72
    65
 73
     2
 40
1.905
 49
1.27
 74
     0
 49
-0.635
 74
     0
  0
LTYPE
  5
6F
330
5
100
AcDbSymbolTableRecord
100
AcDbLinetypeTableRecord
  2
PHANTOM
 70
     0
  3
Phantom ______  __  __  ______  __  __  ______
 72
    65
 73
     6
 40
12.7
 49
6.35
 74
     0
 49
-1.27
 74
     0
 49
1.27
 74
     0
 49
-1.27
 74
     0
 49
1.27
 74
     0
 49
-1.27
 74
     0
  0
LTYPE
  5
70
330
5
100
AcDbSymbolTableRecord
100
AcDbLinetypeTableRecord
  2
CENTER
 70
     0
  3
Center ____ _ ____ _ ____ _ ____ _ ____ _ ____
 72
    65
 73
     4
 40
10.16
 49
6.35
 74
     0
 49
-1.27
 74
     0
 49
1.27
 74
     0
 49
-1.27
 74
     0
  0
LTYPE
  5
71
330
5
100
AcDbSymbolTableRecord
100
AcDbLinetypeTableRecord
  2
CENTERX2
 70
     0
  3
Center (2x) ________  __  ________  __  _____
 72
    65
 73
     4
 40
20.32
 49
12.7
 74
     0
 49
-2.54
 74
     0
 49
2.54
 74
     0
 49
-2.54
 74
     0
  0
LTYPE
  5
72
330
5
100
AcDbSymbolTableRecord
100
AcDbLinetypeTableRecord
  2
DOT2
 70
     0
  3
Dot (.5x) ........................................
 72
    65
 73
     2
 40
0.635
 49
0.0
 74
     0
 49
-0.635
 74
     0
  0
ENDTAB
  0
TABLE
  2
LAYER
  5
2
330
0
100
AcDbSymbolTable
 70
     1
  0
LAYER
  5
10
330
2
100
AcDbSymbolTableRecord
100
AcDbLayerTableRecord
  2
0
 70
     0
 62
     7
  6
Continuous
370
    -3
390
F
  0
ENDTAB
  0
TABLE
  2
STYLE
  5
3
330
0
100
AcDbSymbolTable
 70
     2
  0
STYLE
  5
11
330
3
100
AcDbSymbolTableRecord
100
AcDbTextStyleTableRecord
  2
Standard
 70
     0
 40
0.0
 41
1.0
 50
0.0
 71
     0
 42
6.35
  3
txt
  4

  0
STYLE
  5
16F
330
3
100
AcDbSymbolTableRecord
100
AcDbTextStyleTableRecord
  2
SLDTEXTSTYLE0
 70
     0
 40
0.0
 41
0.7
 50
0.0
 71
     0
 42
6.35
  3
TXT
  4

  0
ENDTAB
  0
TABLE
  2
VIEW
  5
6
330
0
100
AcDbSymbolTable
 70
     0
  0
ENDTAB
  0
TABLE
  2
UCS
  5
7
330
0
100
AcDbSymbolTable
 70
     0
  0
ENDTAB
  0
TABLE
  2
APPID
  5
9
330
0
100
AcDbSymbolTable
 70
     1
  0
APPID
  5
12
330
9
100
AcDbSymbolTableRecord
100
AcDbRegAppTableRecord
  2
ACAD
 70
     0
  0
ENDTAB
  0
TABLE
  2
DIMSTYLE
  5
A
330
0
100
AcDbSymbolTable
 70
     1
100
AcDbDimStyleTable
  0
DIMSTYLE
105
27
330
A
100
AcDbSymbolTableRecord
100
AcDbDimStyleTableRecord
  2
ISO-25
 70
     0
 41
2.5
 42
0.625
 43
3.75
 44
1.25
 73
     0
 74
     0
 77
     1
 78
     8
140
2.5
141
2.5
143
0.0393700787
147
0.625
171
     3
172
     1
178
     0
271
     2
272
     2
274
     3
278
    44
283
     0
284
     8
340
11
  0
ENDTAB
  0
TABLE
  2
BLOCK_RECORD
  5
1
330
0
100
AcDbSymbolTable
 70
     1
  0
BLOCK_RECORD
  5
1F
330
1
100
AcDbSymbolTableRecord
100
AcDbBlockTableRecord
  2
*Model_Space
340
22
  0
BLOCK_RECORD
  5
1B
330
1
100
AcDbSymbolTableRecord
100
AcDbBlockTableRecord
  2
*Paper_Space
340
1E
  0
BLOCK_RECORD
  5
23
330
1
100
AcDbSymbolTableRecord
100
AcDbBlockTableRecord
  2
*Paper_Space0
340
26
  0
ENDTAB
  0
ENDSEC
  0
SECTION
  2
BLOCKS
  0
BLOCK
  5
20
330
1F
100
AcDbEntity
  8
0
100
AcDbBlockBegin
  2
*Model_Space
 70
     0
 10
0.0
 20
0.0
 30
0.0
  3
*Model_Space
  1

  0
ENDBLK
  5
21
330
1F
100
AcDbEntity
  8
0
100
AcDbBlockEnd
  0
BLOCK
  5
1C
330
1B
100
AcDbEntity
 67
     1
  8
0
100
AcDbBlockBegin
  2
*Paper_Space
 70
     0
 10
0.0
 20
0.0
 30
0.0
  3
*Paper_Space
  1

  0
ENDBLK
  5
1D
330
1B
100
AcDbEntity
 67
     1
  8
0
100
AcDbBlockEnd
  0
BLOCK
  5
24
330
23
100
AcDbEntity
  8
0
100
AcDbBlockBegin
  2
*Paper_Space0
 70
     0
 10
0.0
 20
0.0
 30
0.0
  3
*Paper_Space0
  1

  0
ENDBLK
  5
25
330
23
100
AcDbEntity
  8
0
100
AcDbBlockEnd
  0
ENDSEC
  0
SECTION
  2
ENTITIES
  0
CIRCLE
  5
73
330
1F
100
AcDbEntity
  8
0
  6
Continuous
 62
     7
370
    15
100
AcDbCircle
 10
120.0
 20
19.6
 30
0.0
 40
2.0
  0
LINE
  5
74
330
1F
100
AcDbEntity
  8
0
  6
Continuous
 62
     7
370
    15
100
AcDbLine
 10
145.9291666667
 20
10.0
 30
0.0
 11
145.6442307692
 21
10.0
 31
0.0
  0
LINE
  5
75
330
1F
100
AcDbEntity
  8
0
  6
Continuous
 62
     7
370
    15
100
AcDbLine
 10
145.6442307692
 20
10.0
 30
0.0
 11
145.6442307692
 21
13.2564102564
 31
0.0
  0
LINE
  5
76
330
1F
100
AcDbEntity
  8
0
  6
Continuous
 62
     7
370
    15
100
AcDbLine
 10
145.6442307692
 20
13.2564102564
 30
0.0
 11
145.9291666667
 21
13.2564102564
 31
0.0
  0
LINE
  5
77
330
1F
100
AcDbEntity
  8
0
  6
Continuous
 62
     7
370
    15
100
AcDbLine
 10
145.9291666667
 20
13.2564102564
 30
0.0
 11
145.9291666667
 21
10.0
 31
0.0
  0
LINE
  5
78
330
1F
100
AcDbEntity
  8
0
  6
Continuous
 62
     7
370
    15
100
AcDbLine
 10
145.0336538462
 20
10.0
 30
0.0
 11
144.7487179487
 21
10.0
 31
0.0
  0
LINE
  5
79
330
1F
100
AcDbEntity
  8
0
  6
Continuous
 62
     7
370
    15
100
AcDbLine
 10
144.7487179487
 20
10.0
 30
0.0
 11
144.7487179487
 21
13.2564102564
 31
0.0
  0
LINE
  5
7A
330
1F
100
AcDbEntity
  8
0
  6
Continuous
 62
     7
370
    15
100
AcDbLine
 10
144.7487179487
 20
13.2564102564
 30
0.0
 11
145.0336538462
 21
13.2564102564
 31
0.0
  0
LINE
  5
7B
330
1F
100
AcDbEntity
  8
0
  6
Continuous
 62
     7
370
    15
100
AcDbLine
 10
145.0336538462
 20
13.2564102564
 30
0.0
 11
145.0336538462
 21
10.0
 31
0.0
  0
LINE
  5
7C
330
1F
100
AcDbEntity
  8
0
  6
Continuous
 62
     7
370
    15
100
AcDbLine
 10
143.8532051282
 20
11.8908804087
 30
0.0
 11
143.8532051282
 21
12.3201923077
 31
0.0
  0
LINE
  5
7D
330
1F
100
AcDbEntity
  8
0
  6
Continuous
 62
     7
370
    15
100
AcDbLine
 10
143.8532051282
 20
12.3201923077
 30
0.0
 11
144.1381410256
 21
12.3201923077
 31
0.0
  0
LINE
  5
7E
330
1F
100
AcDbEntity
  8
0
  6
Continuous
 62
     7
370
    15
100
AcDbLine
 10
144.1381410256
 20
12.3201923077
 30
0.0
 11
144.1381410256
 21
10.0
 31
0.0
  0
LINE
  5
7F
330
1F
100
AcDbEntity
  8
0
  6
Continuous
 62
     7
370
    15
100
AcDbLine
 10
144.1381410256
 20
10.0
 30
0.0
 11
143.8532051282
 21
10.0
 31
0.0
  0
LINE
  5
80
330
1F
100
AcDbEntity
  8
0
  6
Continuous
 62
     7
370
    15
100
AcDbLine
 10
143.8532051282
 20
10.0
 30
0.0
 11
143.8532051282
 21
10.4013271234
 31
0.0
  0
SPLINE
  5
81
330
1F
100
AcDbEntity
  8
0
  6
Continuous
 62
     7
370
    15
100
AcDbSpline
210
0.0
220
0.0
230
1.0
 70
     8
 71
     3
 72
    15
 73
    11
 74
     0
 42
0.000000001
 43
0.00000001
 40
0.0
 40
0.0
 40
0.0
 40
0.0
 40
0.1342983790141795
 40
0.2620849753822926
 40
0.3862699121344926
 40
0.5071645966228006
 40
0.6273002357254971
 40
0.7481449416029825
 40
0.8723701771613424
 40
1.0
 40
1.0
 40
1.0
 40
1.0
 10
143.8532051282051
 20
10.40132712339743
 30
0.0
 10
143.8210752252799
 20
10.36500549173569
 30
0.0
 10
143.7583733157037
 20
10.29412337082112
 30
0.0
 10
143.6536517301153
 20
10.20152025720449
 30
0.0
 10
143.5426463115894
 20
10.12497706552173
 30
0.0
 10
143.4258958274209
 20
10.06315535627924
 30
0.0
 10
143.3035057066726
 20
10.01671684803034
 30
0.0
 10
143.175747256072
 20
9.98370940368051
 30
0.0
 10
143.0425683605726
 20
9.962487853202827
 30
0.0
 10
142.9516251530131
 20
9.96036874765021
 30
0.0
 10
142.9055388621794
 20
9.959294871794869
 30
0.0
  0
SPLINE
  5
82
330
1F
100
AcDbEntity
  8
0
  6
Continuous
 62
     7
370
    15
100
AcDbSpline
210
0.0
220
0.0
230
1.0
 70
     8
 71
     3
 72
    23
 73
    19
 74
     0
 42
0.000000001
 43
0.00000001
 40
0.0
 40
0.0
 40
0.0
 40
0.0
 40
0.064619991340761
 40
0.1274334841444645
 40
0.1890041265579311
 40
0.2499300706860424
 40
0.3106684537406675
 40
0.3723289611368265
 40
0.4349391099970013
 40
0.4995755441940359
 40
0.564191207771924
 40
0.6267352169294726
 40
0.6881093335614029
 40
0.7492936065367486
 40
0.8103305278109466
 40
0.8719011702244153
 40
0.9350459146845301
 40
0.9999999999999999
 40
0.9999999999999999
 40
0.9999999999999999
 40
0.9999999999999999
 10
142.9055388621794
 20
9.959294871794869
 30
0.0
 10
142.8645650754885
 20
9.960407366639028
 30
0.0
 10
142.7837629539116
 20
9.962601255730357
 30
0.0
 10
142.664900862507
 20
9.97962134544122
 30
0.0
 10
142.5505171790749
 20
10.00695412364511
 30
0.0
 10
142.4405038167317
 20
10.04496421625549
 30
0.0
 10
142.3355726562307
 20
10.09538396159871
 30
0.0
 10
142.2348252828209
 20
10.15574637946483
 30
0.0
 10
142.1387836264892
 20
10.22762913246659
 30
0.0
 10
142.048911587572
 20
10.30980541532955
 30
0.0
 10
141.9661511300882
 20
10.39906372513183
 30
0.0
 10
141.8935241184952
 20
10.49426432836857
 30
0.0
 10
141.8329695389126
 20
10.59499556118546
 30
0.0
 10
141.782332751414
 20
10.69998206507025
 30
0.0
 10
141.7433289246713
 20
10.81003202779039
 30
0.0
 10
141.7161385564516
 20
10.92476488727863
 30
0.0
 10
141.6991382940874
 20
11.04404498684691
 30
0.0
 10
141.6969453118947
 20
11.12527012565507
 30
0.0
 10
141.6958333333333
 20
11.1664563301282
 30
0.0
  0
SPLINE
  5
83
330
1F
100
AcDbEntity
  8
0
  6
Continuous
 62
     7
370
    15
100
AcDbSpline
210
0.0
220
0.0
230
1.0
 70
     8
 71
     3
 72
    23
 73
    19
 74
     0
 42
0.000000001
 43
0.00000001
 40
0.0
 40
0.0
 40
0.0
 40
0.0
 40
0.0637745323056313
 40
0.1260788099895048
 40
0.1869040927472074
 40
0.2475739349176176
 40
0.3080033561644466
 40
0.3691318984609758
 40
0.4320332277442041
 40
0.4967907944370878
 40
0.5616108232295584
 40
0.6249138657484559
 40
0.6867263492419243
 40
0.748078833257768
 40
0.8095822911398951
 40
0.8716307425688212
 40
0.9348858208285479
 40
1.0
 40
1.0
 40
1.0
 40
1.0
 10
141.6958333333333
 20
11.1664563301282
 30
0.0
 10
141.6969699573753
 20
11.20679126122333
 30
0.0
 10
141.6992170017901
 20
11.28653124409158
 30
0.0
 10
141.7159567083594
 20
11.40380549155018
 30
0.0
 10
141.7441062662146
 20
11.51676134235819
 30
0.0
 10
141.7836103851686
 20
11.62503514085403
 30
0.0
 10
141.8342670157423
 20
11.72875790063168
 30
0.0
 10
141.8958874946826
 20
11.82800298046667
 30
0.0
 10
141.9684762720881
 20
11.9230437910215
 30
0.0
 10
142.0521623841671
 20
12.01164554677854
 30
0.0
 10
142.1428174971005
 20
12.09348853258005
 30
0.0
 10
142.2397989887164
 20
12.16461673808857
 30
0.0
 10
142.3406943939147
 20
12.22604559380025
 30
0.0
 10
142.4470686963171
 20
12.27471696159244
 30
0.0
 10
142.5573474271127
 20
12.31409522071491
 30
0.0
 10
142.672512338612
 20
12.3413394132061
 30
0.0
 10
142.7920842706962
 20
12.35739341175953
 30
0.0
 10
142.8732649313549
 20
12.35971820495373
 30
0.0
 10
142.9144431089743
 20
12.36089743589744
 30
0.0
  0
SPLINE
  5
84
330
1F
100
AcDbEntity
  8
0
  6
Continuous
 62
     7
370
    15
100
AcDbSpline
210
0.0
220
0.0
230
1.0
 70
     8
 71
     3
 72
    15
 73
    11
 74
     0
 42
0.000000001
 43
0.00000001
 40
0.0
 40
0.0
 40
0.0
 40
0.0
 40
0.1298621417207363
 40
0.2546535308972849
 40
0.3760145541937065
 40
0.4952552518175962
 40
0.6147977192994417
 40
0.7381055541683285
 40
0.8651963000723482
 40
1.0
 40
1.0
 40
1.0
 40
1.0
 10
142.9144431089743
 20
12.36089743589744
 30
0.0
 10
142.9617958382672
 20
12.35959318985589
 30
0.0
 10
143.0546523055351
 20
12.35703562492405
 30
0.0
 10
143.1904769996557
 20
12.33575157942755
 30
0.0
 10
143.3189687760397
 20
12.29979382707994
 30
0.0
 10
143.4411195096669
 20
12.2508829538729
 30
0.0
 10
143.5564905606244
 20
12.18588732106287
 30
0.0
 10
143.6639896963967
 20
12.10389978499144
 30
0.0
 10
143.7647419562545
 20
12.00543742252567
 30
0.0
 10
143.8231440779739
 20
11.92980851932859
 30
0.0
 10
143.8532051282051
 20
11.89088040865384
 30
0.0
  0
LINE
  5
85
330
1F
100
AcDbEntity
  8
0
  6
Continuous
 62
     7
370
    15
100
AcDbLine
 10
129.9320512821
 20
10.0
 30
0.0
 11
129.6471153846
 21
10.0
 31
0.0
  0
LINE
  5
86
330
1F
100
AcDbEntity
  8
0
  6
Continuous
 62
     7
370
    15
100
AcDbLine
 10
129.6471153846
 20
10.0
 30
0.0
 11
129.6471153846
 21
12.3201923077
 31
0.0
  0
LINE
  5
87
330
1F
100
AcDbEntity
  8
0
  6
Continuous
 62
     7
370
    15
100
AcDbLine
 10
129.6471153846
 20
12.3201923077
 30
0.0
 11
129.9320512821
 21
12.3201923077
 31
0.0
  0
LINE
  5
88
330
1F
100
AcDbEntity
  8
0
  6
Continuous
 62
     7
370
    15
100
AcDbLine
 10
129.9320512821
 20
12.3201923077
 30
0.0
 11
129.9320512821
 21
11.9016927083
 31
0.0
  0
SPLINE
  5
89
330
1F
100
AcDbEntity
  8
0
  6
Continuous
 62
     7
370
    15
100
AcDbSpline
210
0.0
220
0.0
230
1.0
 70
     8
 71
     3
 72
    15
 73
    11
 74
     0
 42
0.000000001
 43
0.00000001
 40
0.0
 40
0.0
 40
0.0
 40
0.0
 40
0.1409759662687777
 40
0.2735687809631717
 40
0.3989883138042586
 40
0.519929781392423
 40
0.6381100215247323
 40
0.756588900740586
 40
0.8768597544106108
 40
1.0
 40
1.0
 40
1.0
 40
1.0
 10
129.9320512820513
 20
11.90169270833333
 30
0.0
 10
129.9624747082069
 20
11.93965003547889
 30
0.0
 10
130.0215124280848
 20
12.0133075530733
 30
0.0
 10
130.1198325018418
 20
12.11011835999567
 30
0.0
 10
130.2237401828487
 20
12.18989724271485
 30
0.0
 10
130.3325991431549
 20
12.25349139865007
 30
0.0
 10
130.4465571594598
 20
12.30143083808493
 30
0.0
 10
130.5649195900692
 20
12.3360527898555
 30
0.0
 10
130.6883950734489
 20
12.35681259860215
 30
0.0
 10
130.7723642411842
 20
12.35952516465958
 30
0.0
 10
130.81484375
 20
12.36089743589744
 30
0.0
  0
SPLINE
  5
8A
330
1F
100
AcDbEntity
  8
0
  6
Continuous
 62
     7
370
    15
100
AcDbSpline
210
0.0
220
0.0
230
1.0
 70
     8
 71
     3
 72
    23
 73
    19
 74
     0
 42
0.000000001
 43
0.00000001
 40
0.0
 40
0.0
 40
0.0
 40
0.0
 40
0.0772404236164749
 40
0.1511781404663758
 40
0.2234879838003895
 40
0.2955426441988722
 40
0.3669762546197815
 40
0.4371305254863776
 40
0.507043615643269
 40
0.578559733523674
 40
0.6166135446965499
 40
0.6587562369775265
 40
0.7044912261144016
 40
0.7548031149051481
 40
0.8093316253185634
 40
0.8682744554728195
 40
0.9320728834092927
 40
0.9999999999999999
 40
0.9999999999999999
 40
0.9999999999999999
 40
0.9999999999999999
 10
130.81484375
 20
12.36089743589744
 30
0.0
 10
130.8577793966629
 20
12.35931429431864
 30
0.0
 10
130.9418148138487
 20
12.35621570437348
 30
0.0
 10
131.0641684838166
 20
12.33170770600846
 30
0.0
 10
131.1784443480896
 20
12.28984736743109
 30
0.0
 10
131.2842349451259
 20
12.23250498927977
 30
0.0
 10
131.3796003458192
 20
12.1611976884063
 30
0.0
 10
131.4633521753726
 20
12.0781235578105
 30
0.0
 10
131.5326245497794
 20
11.98256868230393
 30
0.0
 10
131.5790678719291
 20
11.89391981914642
 30
0.0
 10
131.6096618523345
 20
11.81528069862753
 30
0.0
 10
131.6289226156506
 20
11.7479282896093
 30
0.0
 10
131.6452792916888
 20
11.6728911096202
 30
0.0
 10
131.6594595202477
 20
11.59039591097801
 30
0.0
 10
131.6690544717274
 20
11.49986469553479
 30
0.0
 10
131.6766221219022
 20
11.40166857488678
 30
0.0
 10
131.6820456517209
 20
11.29583935650865
 30
0.0
 10
131.6822608323446
 20
11.22264505878683
 30
0.0
 10
131.6823717948718
 20
11.18490084134615
 30
0.0
  0
LINE
  5
8B
330
1F
100
AcDbEntity
  8
0
  6
Continuous
 62
     7
370
    15
100
AcDbLine
 10
131.6823717949
 20
11.1849008413
 30
0.0
 11
131.6823717949
 21
10.0
 31
0.0
  0
LINE
  5
8C
330
1F
100
AcDbEntity
  8
0
  6
Continuous
 62
     7
370
    15
100
AcDbLine
 10
131.6823717949
 20
10.0
 30
0.0
 11
131.3974358974
 21
10.0
 31
0.0
  0
LINE
  5
8D
330
1F
100
AcDbEntity
  8
0
  6
Continuous
 62
     7
370
    15
100
AcDbLine
 10
131.3974358974
 20
10.0
 30
0.0
 11
131.3974358974
 21
11.09140625
 31
0.0
  0
SPLINE
  5
8E
330
1F
100
AcDbEntity
  8
0
  6
Continuous
 62
     7
370
    15
100
AcDbSpline
210
0.0
220
0.0
230
1.0
 70
     8
 71
     3
 72
    15
 73
    11
 74
     0
 42
0.000000001
 43
0.00000001
 40
0.0
 40
0.0
 40
0.0
 40
0.0
 40
0.1788500194111603
 40
0.3421096489422994
 40
0.4898256633683922
 40
0.6232544282245632
 40
0.7400796760857936
 40
0.8414826730699849
 40
0.9289076721840666
 40
0.9999999999999999
 40
0.9999999999999999
 40
0.9999999999999999
 40
0.9999999999999999
 10
131.3974358974359
 20
11.09140625
 30
0.0
 10
131.3972606301615
 20
11.12299518218537
 30
0.0
 10
131.3969253736942
 20
11.18341943338747
 30
0.0
 10
131.3958679656304
 20
11.26993276156728
 30
0.0
 10
131.3933190696405
 20
11.34838844340409
 30
0.0
 10
131.389737385781
 20
11.41859891240758
 30
0.0
 10
131.3844949795152
 20
11.48049674986147
 30
0.0
 10
131.3790315925048
 20
11.5342080223314
 30
0.0
 10
131.3723505064104
 20
11.57966453582402
 30
0.0
 10
131.366397006636
 20
11.607028574843
 30
0.0
 10
131.363726963141
 20
11.61930088141025
 30
0.0
  0
SPLINE
  5
8F
330
1F
100
AcDbEntity
  8
0
  6
Continuous
 62
     7
370
    15
100
AcDbSpline
210
0.0
220
0.0
230
1.0
 70
     8
 71
     3
 72
    15
 73
    11
 74
     0
 42
0.000000001
 43
0.00000001
 40
0.0
 40
0.0
 40
0.0
 40
0.0
 40
0.135519528370603
 40
0.2608331631936749
 40
0.3784760291245074
 40
0.4931776464746732
 40
0.6092809649289375
 40
0.7299810378566298
 40
0.8592613089300505
 40
0.9999999999999999
 40
0.9999999999999999
 40
0.9999999999999999
 40
0.9999999999999999
 10
131.363726963141
 20
11.61930088141025
 30
0.0
 10
131.3540880881317
 20
11.65532459918419
 30
0.0
 10
131.3355362359482
 20
11.72465911037934
 30
0.0
 10
131.2896946941132
 20
11.8187065588288
 30
0.0
 10
131.2318061158276
 20
11.89871491493108
 30
0.0
 10
131.1611416381892
 20
11.96418951240465
 30
0.0
 10
131.0783838338583
 20
12.01514448570133
 30
0.0
 10
130.9837623543474
 20
12.05049943034659
 30
0.0
 10
130.8781903017376
 20
12.07261218883418
 30
0.0
 10
130.8039366831695
 20
12.07481394430522
 30
0.0
 10
130.765234375
 20
12.07596153846154
 30
0.0
  0
SPLINE
  5
90
330
1F
100
AcDbEntity
  8
0
  6
Continuous
 62
     7
370
    15
100
AcDbSpline
210
0.0
220
0.0
230
1.0
 70
     8
 71
     3
 72
    23
 73
    19
 74
     0
 42
0.000000001
 43
0.00000001
 40
0.0
 40
0.0
 40
0.0
 40
0.0
 40
0.0639861098164609
 40
0.1266268580894719
 40
0.1889843719814866
 40
0.2502301939603868
 40
0.3123511629623271
 40
0.3745736184579433
 40
0.4381475308782134
 40
0.5029204126073691
 40
0.5679740951402692
 40
0.630771333749198
 40
0.692934608925454
 40
0.7543975343123352
 40
0.8152183520172954
 40
0.876116925481092
 40
0.9380146047939499
 40
1.0
 40
1.0
 40
1.0
 40
1.0
 10
130.765234375
 20
12.07596153846154
 30
0.0
 10
130.7423129763013
 20
12.07552973423104
 30
0.0
 10
130.6969521205068
 20
12.0746752048156
 30
0.0
 10
130.6296875031349
 20
12.06610152732332
 30
0.0
 10
130.5644420031805
 20
12.05207849974481
 30
0.0
 10
130.5005608135925
 20
12.03314766429915
 30
0.0
 10
130.4393216007042
 20
12.00714689150429
 30
0.0
 10
130.3787568508479
 20
11.97763810565741
 30
0.0
 10
130.3211471433872
 20
11.94085508478501
 30
0.0
 10
130.2652640617064
 20
11.89986073533607
 30
0.0
 10
130.213273157621
 20
11.85443174023539
 30
0.0
 10
130.1648967363485
 20
11.80649422031101
 30
0.0
 10
130.121772960835
 20
11.75544420829596
 30
0.0
 10
130.0827035196848
 20
11.70210425589461
 30
0.0
 10
130.0489775236209
 20
11.64574180285437
 30
0.0
 10
130.0195379365929
 20
11.58690061054861
 30
0.0
 10
129.9945591277461
 20
11.52550323268695
 30
0.0
 10
129.9821469710056
 20
11.48289014142763
 30
0.0
 10
129.9759364983974
 20
11.46156850961538
 30
0.0
  0
SPLINE
  5
91
330
1F
100
AcDbEntity
  8
0
  6
Continuous
 62
     7
370
    15
100
AcDbSpline
210
0.0
220
0.0
230
1.0
 70
     8
 71
     3
 72
    15
 73
    11
 74
     0
 42
0.000000001
 43
0.00000001
 40
0.0
 40
0.0
 40
0.0
 40
0.0
 40
0.0769954547170536
 40
0.1676150771831741
 40
0.2710523936342373
 40
0.389459502572076
 40
0.5208428024655759
 40
0.6663987586080753
 40
0.8260936125153179
 40
1.0
 40
1.0
 40
1.0
 40
1.0
 10
129.9759364983975
 20
11.46156850961538
 30
0.0
 10
129.9723626743323
 20
11.44591557541649
 30
0.0
 10
129.9645826462942
 20
11.41183995649157
 30
0.0
 10
129.9561796188508
 20
11.35591966176413
 30
0.0
 10
129.9485527468792
 20
11.29123132730695
 30
0.0
 10
129.9421692201324
 20
11.21785043969202
 30
0.0
 10
129.9382635923341
 20
11.13552008154967
 30
0.0
 10
129.9340051038323
 20
11.04459185725606
 30
0.0
 10
129.9324547412935
 20
10.94470319281875
 30
0.0
 10
129.9321895344347
 20
10.875160085847
 30
0.0
 10
129.9320512820513
 20
10.83890725160256
 30
0.0
  0
LINE
  5
92
330
1F
100
AcDbEntity
  8
0
  6
Continuous
 62
     7
370
    15
100
AcDbLine
 10
129.9320512821
 20
10.8389072516
 30
0.0
 11
129.9320512821
 21
10.0
 31
0.0
  0
LINE
  5
93
330
1F
100
AcDbEntity
  8
0
  6
Continuous
 62
     7
370
    15
100
AcDbLine
 10
127.2455128205
 20
10.0
 30
0.0
 11
126.9605769231
 21
10.0
 31
0.0
  0
LINE
  5
94
330
1F
100
AcDbEntity
  8
0
  6
Continuous
 62
     7
370
    15
100
AcDbLine
 10
126.9605769231
 20
10.0
 30
0.0
 11
126.9605769231
 21
12.3201923077
 31
0.0
  0
LINE
  5
95
330
1F
100
AcDbEntity
  8
0
  6
Continuous
 62
     7
370
    15
100
AcDbLine
 10
126.9605769231
 20
12.3201923077
 30
0.0
 11
127.2455128205
 21
12.3201923077
 31
0.0
  0
LINE
  5
96
330
1F
100
AcDbEntity
  8
0
  6
Continuous
 62
     7
370
    15
100
AcDbLine
 10
127.2455128205
 20
12.3201923077
 30
0.0
 11
127.2455128205
 21
11.9016927083
 31
0.0
  0
SPLINE
  5
97
330
1F
100
AcDbEntity
  8
0
  6
Continuous
 62
     7
370
    15
100
AcDbSpline
210
0.0
220
0.0
230
1.0
 70
     8
 71
     3
 72
    15
 73
    11
 74
     0
 42
0.000000001
 43
0.00000001
 40
0.0
 40
0.0
 40
0.0
 40
0.0
 40
0.1409759662687777
 40
0.2735687809631717
 40
0.3989883138042586
 40
0.519929781392423
 40
0.6381100215247323
 40
0.756588900740586
 40
0.8768597544106108
 40
1.0
 40
1.0
 40
1.0
 40
1.0
 10
127.2455128205128
 20
11.90169270833333
 30
0.0
 10
127.2759362466684
 20
11.93965003547889
 30
0.0
 10
127.3349739665464
 20
12.0133075530733
 30
0.0
 10
127.4332940403033
 20
12.11011835999567
 30
0.0
 10
127.5372017213102
 20
12.18989724271485
 30
0.0
 10
127.6460606816165
 20
12.25349139865007
 30
0.0
 10
127.7600186979214
 20
12.30143083808493
 30
0.0
 10
127.8783811285308
 20
12.3360527898555
 30
0.0
 10
128.0018566119104
 20
12.35681259860215
 30
0.0
 10
128.0858257796457
 20
12.35952516465958
 30
0.0
 10
128.1283052884615
 20
12.36089743589744
 30
0.0
  0
SPLINE
  5
98
330
1F
100
AcDbEntity
  8
0
  6
Continuous
 62
     7
370
    15
100
AcDbSpline
210
0.0
220
0.0
230
1.0
 70
     8
 71
     3
 72
    23
 73
    19
 74
     0
 42
0.000000001
 43
0.00000001
 40
0.0
 40
0.0
 40
0.0
 40
0.0
 40
0.0772404236164749
 40
0.1511781404663758
 40
0.2234879838003895
 40
0.2955426441988722
 40
0.3669762546197815
 40
0.4371305254863776
 40
0.507043615643269
 40
0.578559733523674
 40
0.6166135446965499
 40
0.6587562369775265
 40
0.7044912261144016
 40
0.7548031149051481
 40
0.8093316253185634
 40
0.8682744554728195
 40
0.9320728834092927
 40
0.9999999999999999
 40
0.9999999999999999
 40
0.9999999999999999
 40
0.9999999999999999
 10
128.1283052884615
 20
12.36089743589744
 30
0.0
 10
128.1712409351244
 20
12.35931429431864
 30
0.0
 10
128.2552763523102
 20
12.35621570437348
 30
0.0
 10
128.3776300222781
 20
12.33170770600846
 30
0.0
 10
128.4919058865511
 20
12.28984736743109
 30
0.0
 10
128.5976964835875
 20
12.23250498927977
 30
0.0
 10
128.6930618842807
 20
12.1611976884063
 30
0.0
 10
128.7768137138341
 20
12.0781235578105
 30
0.0
 10
128.846086088241
 20
11.98256868230393
 30
0.0
 10
128.8925294103906
 20
11.89391981914642
 30
0.0
 10
128.923123390796
 20
11.81528069862753
 30
0.0
 10
128.9423841541122
 20
11.7479282896093
 30
0.0
 10
128.9587408301503
 20
11.6728911096202
 30
0.0
 10
128.9729210587092
 20
11.59039591097801
 30
0.0
 10
128.982516010189
 20
11.49986469553479
 30
0.0
 10
128.9900836603638
 20
11.40166857488678
 30
0.0
 10
128.9955071901825
 20
11.29583935650865
 30
0.0
 10
128.9957223708062
 20
11.22264505878683
 30
0.0
 10
128.9958333333333
 20
11.18490084134615
 30
0.0
  0
LINE
  5
99
330
1F
100
AcDbEntity
  8
0
  6
Continuous
 62
     7
370
    15
100
AcDbLine
 10
128.9958333333
 20
11.1849008413
 30
0.0
 11
128.9958333333
 21
10.0
 31
0.0
  0
LINE
  5
9A
330
1F
100
AcDbEntity
  8
0
  6
Continuous
 62
     7
370
    15
100
AcDbLine
 10
128.9958333333
 20
10.0
 30
0.0
 11
128.7108974359
 21
10.0
 31
0.0
  0
LINE
  5
9B
330
1F
100
AcDbEntity
  8
0
  6
Continuous
 62
     7
370
    15
100
AcDbLine
 10
128.7108974359
 20
10.0
 30
0.0
 11
128.7108974359
 21
11.09140625
 31
0.0
  0
SPLINE
  5
9C
330
1F
100
AcDbEntity
  8
0
  6
Continuous
 62
     7
370
    15
100
AcDbSpline
210
0.0
220
0.0
230
1.0
 70
     8
 71
     3
 72
    15
 73
    11
 74
     0
 42
0.000000001
 43
0.00000001
 40
0.0
 40
0.0
 40
0.0
 40
0.0
 40
0.1788500194111603
 40
0.3421096489422994
 40
0.4898256633683922
 40
0.6232544282245632
 40
0.7400796760857936
 40
0.8414826730699849
 40
0.9289076721840666
 40
0.9999999999999999
 40
0.9999999999999999
 40
0.9999999999999999
 40
0.9999999999999999
 10
128.7108974358974
 20
11.09140625
 30
0.0
 10
128.7107221686231
 20
11.12299518218537
 30
0.0
 10
128.7103869121557
 20
11.18341943338747
 30
0.0
 10
128.709329504092
 20
11.26993276156728
 30
0.0
 10
128.7067806081021
 20
11.34838844340409
 30
0.0
 10
128.7031989242426
 20
11.41859891240758
 30
0.0
 10
128.6979565179767
 20
11.48049674986147
 30
0.0
 10
128.6924931309664
 20
11.5342080223314
 30
0.0
 10
128.6858120448719
 20
11.57966453582402
 30
0.0
 10
128.6798585450975
 20
11.607028574843
 30
0.0
 10
128.6771885016025
 20
11.61930088141025
 30
0.0
  0
SPLINE
  5
9D
330
1F
100
AcDbEntity
  8
0
  6
Continuous
 62
     7
370
    15
100
AcDbSpline
210
0.0
220
0.0
230
1.0
 70
     8
 71
     3
 72
    15
 73
    11
 74
     0
 42
0.000000001
 43
0.00000001
 40
0.0
 40
0.0
 40
0.0
 40
0.0
 40
0.135519528370603
 40
0.2608331631936749
 40
0.3784760291245074
 40
0.4931776464746732
 40
0.6092809649289375
 40
0.7299810378566298
 40
0.8592613089300505
 40
0.9999999999999999
 40
0.9999999999999999
 40
0.9999999999999999
 40
0.9999999999999999
 10
128.6771885016025
 20
11.61930088141025
 30
0.0
 10
128.6675496265932
 20
11.65532459918419
 30
0.0
 10
128.6489977744097
 20
11.72465911037934
 30
0.0
 10
128.6031562325748
 20
11.8187065588288
 30
0.0
 10
128.5452676542891
 20
11.89871491493108
 30
0.0
 10
128.4746031766507
 20
11.96418951240465
 30
0.0
 10
128.3918453723199
 20
12.01514448570133
 30
0.0
 10
128.2972238928089
 20
12.05049943034659
 30
0.0
 10
128.1916518401991
 20
12.07261218883418
 30
0.0
 10
128.117398221631
 20
12.07481394430522
 30
0.0
 10
128.0786959134615
 20
12.07596153846154
 30
0.0
  0
SPLINE
  5
9E
330
1F
100
AcDbEntity
  8
0
  6
Continuous
 62
     7
370
    15
100
AcDbSpline
210
0.0
220
0.0
230
1.0
 70
     8
 71
     3
 72
    23
 73
    19
 74
     0
 42
0.000000001
 43
0.00000001
 40
0.0
 40
0.0
 40
0.0
 40
0.0
 40
0.0639861098164609
 40
0.1266268580894719
 40
0.1889843719814866
 40
0.2502301939603868
 40
0.3123511629623271
 40
0.3745736184579433
 40
0.4381475308782134
 40
0.5029204126073691
 40
0.5679740951402692
 40
0.630771333749198
 40
0.692934608925454
 40
0.7543975343123352
 40
0.8152183520172954
 40
0.876116925481092
 40
0.9380146047939499
 40
1.0
 40
1.0
 40
1.0
 40
1.0
 10
128.0786959134615
 20
12.07596153846154
 30
0.0
 10
128.0557745147628
 20
12.07552973423104
 30
0.0
 10
128.0104136589684
 20
12.0746752048156
 30
0.0
 10
127.9431490415964
 20
12.06610152732332
 30
0.0
 10
127.877903541642
 20
12.05207849974481
 30
0.0
 10
127.814022352054
 20
12.03314766429915
 30
0.0
 10
127.7527831391657
 20
12.00714689150429
 30
0.0
 10
127.6922183893094
 20
11.97763810565741
 30
0.0
 10
127.6346086818488
 20
11.94085508478501
 30
0.0
 10
127.5787256001679
 20
11.89986073533607
 30
0.0
 10
127.5267346960826
 20
11.85443174023539
 30
0.0
 10
127.47835827481
 20
11.80649422031101
 30
0.0
 10
127.4352344992966
 20
11.75544420829596
 30
0.0
 10
127.3961650581463
 20
11.70210425589461
 30
0.0
 10
127.3624390620824
 20
11.64574180285437
 30
0.0
 10
127.3329994750545
 20
11.58690061054861
 30
0.0
 10
127.3080206662077
 20
11.52550323268695
 30
0.0
 10
127.2956085094672
 20
11.48289014142763
 30
0.0
 10
127.289398036859
 20
11.46156850961538
 30
0.0
  0
SPLINE
  5
9F
330
1F
100
AcDbEntity
  8
0
  6
Continuous
 62
     7
370
    15
100
AcDbSpline
210
0.0
220
0.0
230
1.0
 70
     8
 71
     3
 72
    15
 73
    11
 74
     0
 42
0.000000001
 43
0.00000001
 40
0.0
 40
0.0
 40
0.0
 40
0.0
 40
0.0769954547170536
 40
0.1676150771831741
 40
0.2710523936342373
 40
0.389459502572076
 40
0.5208428024655759
 40
0.6663987586080753
 40
0.8260936125153179
 40
1.0
 40
1.0
 40
1.0
 40
1.0
 10
127.289398036859
 20
11.46156850961538
 30
0.0
 10
127.2858242127939
 20
11.44591557541649
 30
0.0
 10
127.2780441847557
 20
11.41183995649157
 30
0.0
 10
127.2696411573123
 20
11.35591966176413
 30
0.0
 10
127.2620142853407
 20
11.29123132730695
 30
0.0
 10
127.255630758594
 20
11.21785043969202
 30
0.0
 10
127.2517251307956
 20
11.13552008154967
 30
0.0
 10
127.2474666422938
 20
11.04459185725606
 30
0.0
 10
127.245916279755
 20
10.94470319281875
 30
0.0
 10
127.2456510728963
 20
10.875160085847
 30
0.0
 10
127.2455128205128
 20
10.83890725160256
 30
0.0
  0
LINE
  5
A0
330
1F
100
AcDbEntity
  8
0
  6
Continuous
 62
     7
370
    15
100
AcDbLine
 10
127.2455128205
 20
10.8389072516
 30
0.0
 11
127.2455128205
 21
10.0
 31
0.0
  0
LINE
  5
A1
330
1F
100
AcDbEntity
  8
0
  6
Continuous
 62
     7
370
    15
100
AcDbLine
 10
126.2278846154
 20
10.0
 30
0.0
 11
125.9429487179
 21
10.0
 31
0.0
  0
LINE
  5
A2
330
1F
100
AcDbEntity
  8
0
  6
Continuous
 62
     7
370
    15
100
AcDbLine
 10
125.9429487179
 20
10.0
 30
0.0
 11
125.9429487179
 21
13.175
 31
0.0
  0
LINE
  5
A3
330
1F
100
AcDbEntity
  8
0
  6
Continuous
 62
     7
370
    15
100
AcDbLine
 10
125.9429487179
 20
13.175
 30
0.0
 11
126.2278846154
 21
13.175
 31
0.0
  0
LINE
  5
A4
330
1F
100
AcDbEntity
  8
0
  6
Continuous
 62
     7
370
    15
100
AcDbLine
 10
126.2278846154
 20
13.175
 30
0.0
 11
126.2278846154
 21
10.0
 31
0.0
  0
SPLINE
  5
A5
330
1F
100
AcDbEntity
  8
0
  6
Continuous
 62
     7
370
    15
100
AcDbSpline
210
0.0
220
0.0
230
1.0
 70
     8
 71
     3
 72
    15
 73
    11
 74
     0
 42
0.000000001
 43
0.00000001
 40
0.0
 40
0.0
 40
0.0
 40
0.0
 40
0.1209110787487095
 40
0.238762228638721
 40
0.3547548590848595
 40
0.4703593994502191
 40
0.5891440987928738
 40
0.7163289048363425
 40
0.8524452858576034
 40
1.0
 40
1.0
 40
1.0
 40
1.0
 10
122.7857572115385
 20
12.36089743589744
 30
0.0
 10
122.8284391347556
 20
12.35966673942007
 30
0.0
 10
122.9127228183962
 20
12.35723649202872
 30
0.0
 10
123.0367573705991
 20
12.33816731014538
 30
0.0
 10
123.1564478311496
 20
12.30776531231924
 30
0.0
 10
123.2724696025138
 20
12.26420827607073
 30
0.0
 10
123.3857678002078
 20
12.20474502700966
 30
0.0
 10
123.4959690160961
 20
12.12641963845747
 30
0.0
 10
123.603392087812
 20
12.02852954455777
 30
0.0
 10
123.6696841198088
 20
11.95346087473894
 30
0.0
 10
123.7041666666667
 20
11.91441306089743
 30
0.0
  0
LINE
  5
A6
330
1F
100
AcDbEntity
  8
0
  6
Continuous
 62
     7
370
    15
100
AcDbLine
 10
123.7041666667
 20
11.9144130609
 30
0.0
 11
123.7041666667
 21
12.3201923077
 31
0.0
  0
LINE
  5
A7
330
1F
100
AcDbEntity
  8
0
  6
Continuous
 62
     7
370
    15
100
AcDbLine
 10
123.7041666667
 20
12.3201923077
 30
0.0
 11
123.9891025641
 21
12.3201923077
 31
0.0
  0
LINE
  5
A8
330
1F
100
AcDbEntity
  8
0
  6
Continuous
 62
     7
370
    15
100
AcDbLine
 10
123.9891025641
 20
12.3201923077
 30
0.0
 11
123.9891025641
 21
10.478921274
 31
0.0
  0
SPLINE
  5
A9
330
1F
100
AcDbEntity
  8
0
  6
Continuous
 62
     7
370
    15
100
AcDbSpline
210
0.0
220
0.0
230
1.0
 70
     8
 71
     3
 72
    15
 73
    11
 74
     0
 42
0.000000001
 43
0.00000001
 40
0.0
 40
0.0
 40
0.0
 40
0.0
 40
0.1634452548497621
 40
0.3154887127129218
 40
0.4562908239366668
 40
0.5858641495747764
 40
0.7054286858067537
 40
0.8133707129824376
 40
0.9117182381600979
 40
0.9999999999999999
 40
0.9999999999999999
 40
0.9999999999999999
 40
0.9999999999999999
 10
123.9891025641026
 20
10.47892127403846
 30
0.0
 10
123.9888512469133
 20
10.43969859893084
 30
0.0
 10
123.9883661442004
 20
10.36398938797679
 30
0.0
 10
123.9848727631337
 20
10.25451694861365
 30
0.0
 10
123.977506148798
 20
10.15340128530972
 30
0.0
 10
123.9691525592845
 20
10.06018123644664
 30
0.0
 10
123.9571358951946
 20
9.97528889374937
 30
0.0
 10
123.9424616191998
 20
9.898470943795118
 30
0.0
 10
123.9259192531118
 20
9.829653669361633
 30
0.0
 10
123.9113866272782
 20
9.787267563572378
 30
0.0
 10
123.9045122195513
 20
9.767217548076923
 30
0.0
  0
SPLINE
  5
AA
330
1F
100
AcDbEntity
  8
0
  6
Continuous
 62
     7
370
    15
100
AcDbSpline
210
0.0
220
0.0
230
1.0
 70
     8
 71
     3
 72
    23
 73
    19
 74
     0
 42
0.000000001
 43
0.00000001
 40
0.0
 40
0.0
 40
0.0
 40
0.0
 40
0.0613707062984579
 40
0.1209064680177769
 40
0.1794236650000254
 40
0.2376066874397806
 40
0.2959384682493747
 40
0.3542182268208548
 40
0.4135370665946743
 40
0.4740867825531884
 40
0.5351211890802731
 40
0.5969876649622229
 40
0.6600198335468078
 40
0.7242774964844981
 40
0.7900118502255359
 40
0.8577476843344485
 40
0.9278290322155529
 40
1.0
 40
1.0
 40
1.0
 40
1.0
 10
123.9045122195513
 20
9.767217548076923
 30
0.0
 10
123.8943619815546
 20
9.74115540491902
 30
0.0
 10
123.8743649911378
 20
9.689810359892629
 30
0.0
 10
123.8369130236429
 20
9.617026368886952
 30
0.0
 10
123.7949722682173
 20
9.548495000954993
 30
0.0
 10
123.7470690015696
 20
9.484598170128644
 30
0.0
 10
123.6934198436264
 20
9.425656642485574
 30
0.0
 10
123.6352887757434
 20
9.370389871710385
 30
0.0
 10
123.5715436735253
 20
9.31996709129663
 30
0.0
 10
123.5022209845956
 20
9.275258285746519
 30
0.0
 10
123.4289187316205
 20
9.234992886621612
 30
0.0
 10
123.3516790533172
 20
9.200116357819338
 30
0.0
 10
123.2709374985158
 20
9.169739006818768
 30
0.0
 10
123.1859355897082
 20
9.146985327835365
 30
0.0
 10
123.0980060198694
 20
9.127268831321077
 30
0.0
 10
123.0061147788178
 20
9.114437580636228
 30
0.0
 10
122.9107987417159
 20
9.10570446362103
 30
0.0
 10
122.8459875755002
 20
9.104896895132773
 30
0.0
 10
122.8131059695513
 20
9.10448717948718
 30
0.0
  0
SPLINE
  5
AB
330
1F
100
AcDbEntity
  8
0
  6
Continuous
 62
     7
370
    15
100
AcDbSpline
210
0.0
220
0.0
230
1.0
 70
     8
 71
     3
 72
    19
 73
    15
 74
     0
 42
0.000000001
 43
0.00000001
 40
0.0
 40
0.0
 40
0.0
 40
0.0
 40
0.0964914237691222
 40
0.1884736749923072
 40
0.2768399149588152
 40
0.36213656217143
 40
0.4434367545654616
 40
0.5201655209986256
 40
0.592709663569004
 40
0.6629173343528173
 40
0.7354188002027071
 40
0.8148809699994166
 40
0.9030605557399859
 40
1.0
 40
1.0
 40
1.0
 40
1.0
 10
122.8131059695513
 20
9.104487179487178
 30
0.0
 10
122.7651319603054
 20
9.105264134472561
 30
0.0
 10
122.671425831061
 20
9.106781736303677
 30
0.0
 10
122.5348055876971
 20
9.12446278070801
 30
0.0
 10
122.4050526631927
 20
9.14945853342456
 30
0.0
 10
122.2838815489006
 20
9.18729131420533
 30
0.0
 10
122.172057961025
 20
9.23358915488989
 30
0.0
 10
122.0703455882227
 20
9.286743147927153
 30
0.0
 10
121.9796575121173
 20
9.347693449482694
 30
0.0
 10
121.897902465893
 20
9.417090423171219
 30
0.0
 10
121.8241140234124
 20
9.49960747722797
 30
0.0
 10
121.7546928389301
 20
9.59685214296972
 30
0.0
 10
121.6878718416733
 20
9.71030567812829
 30
0.0
 10
121.648711720179
 20
9.793574782258581
 30
0.0
 10
121.6282051282051
 20
9.837179487179485
 30
0.0
  0
LINE
  5
AC
330
1F
100
AcDbEntity
  8
0
  6
Continuous
 62
     7
370
    15
100
AcDbLine
 10
121.6282051282
 20
9.8371794872
 30
0.0
 11
121.9131410256
 21
9.8371794872
 31
0.0
  0
SPLINE
  5
AD
330
1F
100
AcDbEntity
  8
0
  6
Continuous
 62
     7
370
    15
100
AcDbSpline
210
0.0
220
0.0
230
1.0
 70
     8
 71
     3
 72
    15
 73
    11
 74
     0
 42
0.000000001
 43
0.00000001
 40
0.0
 40
0.0
 40
0.0
 40
0.0
 40
0.1247164867023033
 40
0.2438053739155052
 40
0.360061534064442
 40
0.4751119996584022
 40
0.5935250978119095
 40
0.7193501703843527
 40
0.8538547713042595
 40
0.9999999999999999
 40
0.9999999999999999
 40
0.9999999999999999
 40
0.9999999999999999
 10
121.913141025641
 20
9.837179487179485
 30
0.0
 10
121.9360574583681
 20
9.800797728443088
 30
0.0
 10
121.9808562624201
 20
9.729675870163003
 30
0.0
 10
122.0646295272971
 20
9.637588935850701
 30
0.0
 10
122.1564381233409
 20
9.558891240741385
 30
0.0
 10
122.2593804073725
 20
9.495472181411243
 30
0.0
 10
122.3738847099212
 20
9.44765687063969
 30
0.0
 10
122.5000199180893
 20
9.413570708872763
 30
0.0
 10
122.6388124320917
 20
9.393163381081646
 30
0.0
 10
122.7354396692434
 20
9.39070384996859
 30
0.0
 10
122.7857572115385
 20
9.389423076923075
 30
0.0
  0
SPLINE
  5
AE
330
1F
100
AcDbEntity
  8
0
  6
Continuous
 62
     7
370
    15
100
AcDbSpline
210
0.0
220
0.0
230
1.0
 70
     8
 71
     3
 72
    23
 73
    19
 74
     0
 42
0.000000001
 43
0.00000001
 40
0.0
 40
0.0
 40
0.0
 40
0.0
 40
0.0981712978276953
 40
0.1892644356875805
 40
0.2744630560180384
 40
0.3550231712817347
 40
0.4309204620429336
 40
0.5010860453857492
 40
0.5666076270375985
 40
0.6297208634282984
 40
0.6627106951128596
 40
0.6987655616316139
 40
0.7386105373889628
 40
0.7825812280784427
 40
0.8304087872491269
 40
0.8825778660702768
 40
0.9392286810451788
 40
0.9999999999999999
 40
0.9999999999999999
 40
0.9999999999999999
 40
0.9999999999999999
 10
122.7857572115385
 20
9.389423076923077
 30
0.0
 10
122.8354386049219
 20
9.390720426187167
 30
0.0
 10
122.9312193584715
 20
9.393221585709254
 30
0.0
 10
123.0689519189627
 20
9.413579816494474
 30
0.0
 10
123.1946773270671
 20
9.447664288549742
 30
0.0
 10
123.3076712233502
 20
9.49538761035875
 30
0.0
 10
123.406600384809
 20
9.553853336286588
 30
0.0
 10
123.4918826911886
 20
9.619167689501198
 30
0.0
 10
123.5609567902609
 20
9.69281045652156
 30
0.0
 10
123.6074142671684
 20
9.760648237761002
 30
0.0
 10
123.6362928131331
 20
9.82108584112893
 30
0.0
 10
123.6546826279134
 20
9.873112838890451
 30
0.0
 10
123.6696268716326
 20
9.93194366362708
 30
0.0
 10
123.6821271528257
 20
9.997381081486127
 30
0.0
 10
123.6924421956699
 20
10.06951858468277
 30
0.0
 10
123.6989762389423
 20
10.1485211148871
 30
0.0
 10
123.7036986537257
 20
10.23420912370767
 30
0.0
 10
123.7040070549455
 20
10.29362075622643
 30
0.0
 10
123.7041666666667
 20
10.32436899038461
 30
0.0
  0
LINE
  5
AF
330
1F
100
AcDbEntity
  8
0
  6
Continuous
 62
     7
370
    15
100
AcDbLine
 10
123.7041666667
 20
10.3243689904
 30
0.0
 11
123.7041666667
 21
10.4445763221
 31
0.0
  0
SPLINE
  5
B0
330
1F
100
AcDbEntity
  8
0
  6
Continuous
 62
     7
370
    15
100
AcDbSpline
210
0.0
220
0.0
230
1.0
 70
     8
 71
     3
 72
    15
 73
    11
 74
     0
 42
0.000000001
 43
0.00000001
 40
0.0
 40
0.0
 40
0.0
 40
0.0
 40
0.1265607130145264
 40
0.2508952618879465
 40
0.3747192653150433
 40
0.4998264235934686
 40
0.6249635314328588
 40
0.7490394747387297
 40
0.8731801199413558
 40
1.0
 40
1.0
 40
1.0
 40
1.0
 10
123.7041666666667
 20
10.44457632211538
 30
0.0
 10
123.6752459387372
 20
10.41015768730139
 30
0.0
 10
123.6179131896162
 20
10.34192583090776
 30
0.0
 10
123.5189009714314
 20
10.2525163461933
 30
0.0
 10
123.4107541979671
 20
10.17551249941989
 30
0.0
 10
123.2936569845022
 20
10.11235845239726
 30
0.0
 10
123.1704776505439
 20
10.0618474457874
 30
0.0
 10
123.0425503415224
 20
10.02652061696844
 30
0.0
 10
122.9110218343042
 20
10.00369699349648
 30
0.0
 10
122.8218930983918
 20
10.00124107091103
 30
0.0
 10
122.7768529647436
 20
9.999999999999998
 30
0.0
  0
SPLINE
  5
B1
330
1F
100
AcDbEntity
  8
0
  6
Continuous
 62
     7
370
    15
100
AcDbSpline
210
0.0
220
0.0
230
1.0
 70
     8
 71
     3
 72
    31
 73
    27
 74
     0
 42
0.000000001
 43
0.00000001
 40
0.0
 40
0.0
 40
0.0
 40
0.0
 40
0.0428647590311891
 40
0.0852222575672289
 40
0.1272022841437366
 40
0.1690253126085974
 40
0.2108820330997074
 40
0.2529626777271214
 40
0.2956282851000465
 40
0.3385532936306077
 40
0.3814632477171886
 40
0.4235815621432648
 40
0.4650661653954496
 40
0.5063122188418614
 40
0.5470395054616125
 40
0.5876758328931694
 40
0.6286747862975582
 40
0.6699464646027584
 40
0.7110355744560757
 40
0.7519958286352152
 40
0.7926726074835032
 40
0.8334460178854418
 40
0.8741906070422422
 40
0.9154935830294665
 40
0.9574778068391475
 40
1.0
 40
1.0
 40
1.0
 40
1.0
 10
122.7768529647436
 20
9.999999999999998
 30
0.0
 10
122.7503314917684
 20
10.00046720258391
 30
0.0
 10
122.6976024002712
 20
10.00139607888795
 30
0.0
 10
122.6192663081391
 20
10.00952296983789
 30
0.0
 10
122.5420861962269
 20
10.02131468606191
 30
0.0
 10
122.4662420650796
 20
10.03862427714002
 30
0.0
 10
122.391624473226
 20
10.06084177192877
 30
0.0
 10
122.3183567289445
 20
10.08861552779438
 30
0.0
 10
122.2458456012732
 20
10.12001638507919
 30
0.0
 10
122.1754091353558
 20
10.15700314248452
 30
0.0
 10
122.1077488596181
 20
10.19815323513607
 30
0.0
 10
122.0433751131025
 20
10.24272922885168
 30
0.0
 10
121.982625081216
 20
10.29049781889924
 30
0.0
 10
121.9260769800725
 20
10.34193004285718
 30
0.0
 10
121.8738049852582
 20
10.396951461863
 30
0.0
 10
121.8251060478085
 20
10.454975542114
 30
0.0
 10
121.7807854543977
 20
10.51681251462028
 30
0.0
 10
121.7399337370153
 20
10.5813348260968
 30
0.0
 10
121.7045029591768
 20
10.64897223555441
 30
0.0
 10
121.6734021361639
 20
10.71825807926386
 30
0.0
 10
121.6463607473055
 20
10.78904420940417
 30
0.0
 10
121.624802132873
 20
10.86156761624077
 30
0.0
 10
121.6083364801212
 20
10.93578257799796
 30
0.0
 10
121.5960807742097
 20
11.01156751376031
 30
0.0
 10
121.5891294004934
 20
11.08915579396757
 30
0.0
 10
121.5880454336818
 20
11.14142658930846
 30
0.0
 10
121.5875
 20
11.16772836538461
 30
0.0
  0
SPLINE
  5
B2
330
1F
100
AcDbEntity
  8
0
  6
Continuous
 62
     7
370
    15
100
AcDbSpline
210
0.0
220
0.0
230
1.0
 70
     8
 71
     3
 72
    31
 73
    27
 74
     0
 42
0.000000001
 43
0.00000001
 40
0.0
 40
0.0
 40
0.0
 40
0.0
 40
0.042034118663846
 40
0.0839054330862331
 40
0.1250689344486248
 40
0.1661584697031398
 40
0.2072102728707285
 40
0.248490732056254
 40
0.289878112232792
 40
0.3321695142040886
 40
0.374475842153922
 40
0.4162249804562078
 40
0.4576095869585026
 40
0.4990731704672243
 40
0.540553361553446
 40
0.5822488491953597
 40
0.6245497501259976
 40
0.6674328009210315
 40
0.7103225433055336
 40
0.7524671185698653
 40
0.7940647568438071
 40
0.835215707295008
 40
0.8762283442246862
 40
0.9174461887061487
 40
0.9586431404713226
 40
1.0
 40
1.0
 40
1.0
 40
1.0
 10
121.5875
 20
11.16772836538461
 30
0.0
 10
121.5879709579785
 20
11.19403831675524
 30
0.0
 10
121.588911049847
 20
11.24655631723682
 30
0.0
 10
121.59703086683
 20
11.32446118826687
 30
0.0
 10
121.6086134386648
 20
11.4013228902363
 30
0.0
 10
121.6269447719681
 20
11.47634917591409
 30
0.0
 10
121.6490087745317
 20
11.55039448644229
 30
0.0
 10
121.6763351582086
 20
11.6229119004727
 30
0.0
 10
121.7091907470356
 20
11.69392350516282
 30
0.0
 10
121.7463924485279
 20
11.76348188725973
 30
0.0
 10
121.7881973040045
 20
11.83065365223599
 30
0.0
 10
121.8340374830224
 20
11.89444996673523
 30
0.0
 10
121.8839683261009
 20
11.95440137983943
 30
0.0
 10
121.9373009924136
 20
12.01111270539146
 30
0.0
 10
121.994686683584
 20
12.06403677423784
 30
0.0
 10
122.0560957123544
 20
12.11304513523929
 30
0.0
 10
122.1209227537207
 20
12.15895928764093
 30
0.0
 10
122.1893687233598
 20
12.20078885777987
 30
0.0
 10
122.2603774972286
 20
12.23778418140868
 30
0.0
 10
122.3321450319406
 20
12.27154132290464
 30
0.0
 10
122.405622002281
 20
12.2983329884784
 30
0.0
 10
122.4794385201869
 20
12.32193965688917
 30
0.0
 10
122.554894585722
 20
12.33866301255289
 30
0.0
 10
122.6310650070795
 20
12.35156461772114
 30
0.0
 10
122.7082105563289
 20
12.35942475750837
 30
0.0
 10
122.7598749682649
 20
12.36040590959979
 30
0.0
 10
122.7857572115385
 20
12.36089743589744
 30
0.0
  0
LINE
  5
B3
330
1F
100
AcDbEntity
  8
0
  6
Continuous
 62
     7
370
    15
100
AcDbLine
 10
108.1141025641
 20
10.0
 30
0.0
 11
107.8291666667
 21
10.0
 31
0.0
  0
LINE
  5
B4
330
1F
100
AcDbEntity
  8
0
  6
Continuous
 62
     7
370
    15
100
AcDbLine
 10
107.8291666667
 20
10.0
 30
0.0
 11
107.8291666667
 21
13.175
 31
0.0
  0
LINE
  5
B5
330
1F
100
AcDbEntity
  8
0
  6
Continuous
 62
     7
370
    15
100
AcDbLine
 10
107.8291666667
 20
13.175
 30
0.0
 11
108.1141025641
 21
13.175
 31
0.0
  0
LINE
  5
B6
330
1F
100
AcDbEntity
  8
0
  6
Continuous
 62
     7
370
    15
100
AcDbLine
 10
108.1141025641
 20
13.175
 30
0.0
 11
108.1141025641
 21
11.8724358974
 31
0.0
  0
LINE
  5
B7
330
1F
100
AcDbEntity
  8
0
  6
Continuous
 62
     7
370
    15
100
AcDbLine
 10
108.1141025641
 20
11.8724358974
 30
0.0
 11
109.7423076923
 21
11.8724358974
 31
0.0
  0
LINE
  5
B8
330
1F
100
AcDbEntity
  8
0
  6
Continuous
 62
     7
370
    15
100
AcDbLine
 10
109.7423076923
 20
11.8724358974
 30
0.0
 11
109.7423076923
 21
13.175
 31
0.0
  0
LINE
  5
B9
330
1F
100
AcDbEntity
  8
0
  6
Continuous
 62
     7
370
    15
100
AcDbLine
 10
109.7423076923
 20
13.175
 30
0.0
 11
110.0272435897
 21
13.175
 31
0.0
  0
LINE
  5
BA
330
1F
100
AcDbEntity
  8
0
  6
Continuous
 62
     7
370
    15
100
AcDbLine
 10
110.0272435897
 20
13.175
 30
0.0
 11
110.0272435897
 21
10.0
 31
0.0
  0
LINE
  5
BB
330
1F
100
AcDbEntity
  8
0
  6
Continuous
 62
     7
370
    15
100
AcDbLine
 10
110.0272435897
 20
10.0
 30
0.0
 11
109.7423076923
 21
10.0
 31
0.0
  0
LINE
  5
BC
330
1F
100
AcDbEntity
  8
0
  6
Continuous
 62
     7
370
    15
100
AcDbLine
 10
109.7423076923
 20
10.0
 30
0.0
 11
109.7423076923
 21
11.5467948718
 31
0.0
  0
LINE
  5
BD
330
1F
100
AcDbEntity
  8
0
  6
Continuous
 62
     7
370
    15
100
AcDbLine
 10
109.7423076923
 20
11.5467948718
 30
0.0
 11
108.1141025641
 21
11.5467948718
 31
0.0
  0
LINE
  5
BE
330
1F
100
AcDbEntity
  8
0
  6
Continuous
 62
     7
370
    15
100
AcDbLine
 10
108.1141025641
 20
11.5467948718
 30
0.0
 11
108.1141025641
 21
10.0
 31
0.0
  0
LINE
  5
BF
330
1F
100
AcDbEntity
  8
0
  6
Continuous
 62
     7
370
    15
100
AcDbLine
 10
107.3
 20
11.0583333333
 30
0.0
 11
106.0788461538
 21
11.0583333333
 31
0.0
  0
LINE
  5
C0
330
1F
100
AcDbEntity
  8
0
  6
Continuous
 62
     7
370
    15
100
AcDbLine
 10
106.0788461538
 20
11.0583333333
 30
0.0
 11
106.0788461538
 21
11.383974359
 31
0.0
  0
LINE
  5
C1
330
1F
100
AcDbEntity
  8
0
  6
Continuous
 62
     7
370
    15
100
AcDbLine
 10
106.0788461538
 20
11.383974359
 30
0.0
 11
107.3
 21
11.383974359
 31
0.0
  0
LINE
  5
C2
330
1F
100
AcDbEntity
  8
0
  6
Continuous
 62
     7
370
    15
100
AcDbLine
 10
107.3
 20
11.383974359
 30
0.0
 11
107.3
 21
11.0583333333
 31
0.0
  0
LINE
  5
C3
330
1F
100
AcDbEntity
  8
0
  6
Continuous
 62
     7
370
    15
100
AcDbLine
 10
102.7613782051
 20
12.2896634615
 30
0.0
 11
102.4579977965
 21
10.0
 31
0.0
  0
LINE
  5
C4
330
1F
100
AcDbEntity
  8
0
  6
Continuous
 62
     7
370
    15
100
AcDbLine
 10
102.4579977965
 20
10.0
 30
0.0
 11
102.1711538462
 21
10.0
 31
0.0
  0
LINE
  5
C5
330
1F
100
AcDbEntity
  8
0
  6
Continuous
 62
     7
370
    15
100
AcDbLine
 10
102.1711538462
 20
10.0
 30
0.0
 11
102.5902894631
 21
13.175
 31
0.0
  0
LINE
  5
C6
330
1F
100
AcDbEntity
  8
0
  6
Continuous
 62
     7
370
    15
100
AcDbLine
 10
102.5902894631
 20
13.175
 30
0.0
 11
102.6309945913
 21
13.175
 31
0.0
  0
LINE
  5
C7
330
1F
100
AcDbEntity
  8
0
  6
Continuous
 62
     7
370
    15
100
AcDbLine
 10
102.6309945913
 20
13.175
 30
0.0
 11
103.9418269231
 21
10.5698717949
 31
0.0
  0
LINE
  5
C8
330
1F
100
AcDbEntity
  8
0
  6
Continuous
 62
     7
370
    15
100
AcDbLine
 10
103.9418269231
 20
10.5698717949
 30
0.0
 11
105.2494791667
 21
13.175
 31
0.0
  0
LINE
  5
C9
330
1F
100
AcDbEntity
  8
0
  6
Continuous
 62
     7
370
    15
100
AcDbLine
 10
105.2494791667
 20
13.175
 30
0.0
 11
105.2908203125
 21
13.175
 31
0.0
  0
LINE
  5
CA
330
1F
100
AcDbEntity
  8
0
  6
Continuous
 62
     7
370
    15
100
AcDbLine
 10
105.2908203125
 20
13.175
 30
0.0
 11
105.7125
 21
10.0
 31
0.0
  0
LINE
  5
CB
330
1F
100
AcDbEntity
  8
0
  6
Continuous
 62
     7
370
    15
100
AcDbLine
 10
105.7125
 20
10.0
 30
0.0
 11
105.4262920673
 21
10.0
 31
0.0
  0
LINE
  5
CC
330
1F
100
AcDbEntity
  8
0
  6
Continuous
 62
     7
370
    15
100
AcDbLine
 10
105.4262920673
 20
10.0
 30
0.0
 11
105.122275641
 21
12.2845753205
 31
0.0
  0
LINE
  5
CD
330
1F
100
AcDbEntity
  8
0
  6
Continuous
 62
     7
370
    15
100
AcDbLine
 10
105.122275641
 20
12.2845753205
 30
0.0
 11
103.976171875
 21
10.0
 31
0.0
  0
LINE
  5
CE
330
1F
100
AcDbEntity
  8
0
  6
Continuous
 62
     7
370
    15
100
AcDbLine
 10
103.976171875
 20
10.0
 30
0.0
 11
103.9119340946
 21
10.0
 31
0.0
  0
LINE
  5
CF
330
1F
100
AcDbEntity
  8
0
  6
Continuous
 62
     7
370
    15
100
AcDbLine
 10
103.9119340946
 20
10.0
 30
0.0
 11
102.7613782051
 21
12.2896634615
 31
0.0
  0
LINE
  5
D0
330
1F
100
AcDbEntity
  8
0
  6
Continuous
 62
     7
370
    15
100
AcDbLine
 10
100.2987179487
 20
10.0
 30
0.0
 11
100.0137820513
 21
10.0
 31
0.0
  0
LINE
  5
D1
330
1F
100
AcDbEntity
  8
0
  6
Continuous
 62
     7
370
    15
100
AcDbLine
 10
100.0137820513
 20
10.0
 30
0.0
 11
100.0137820513
 21
13.175
 31
0.0
  0
LINE
  5
D2
330
1F
100
AcDbEntity
  8
0
  6
Continuous
 62
     7
370
    15
100
AcDbLine
 10
100.0137820513
 20
13.175
 30
0.0
 11
100.2987179487
 21
13.175
 31
0.0
  0
LINE
  5
D3
330
1F
100
AcDbEntity
  8
0
  6
Continuous
 62
     7
370
    15
100
AcDbLine
 10
100.2987179487
 20
13.175
 30
0.0
 11
100.2987179487
 21
10.0
 31
0.0
  0
LINE
  5
D4
330
1F
100
AcDbEntity
  8
0
  6
Continuous
 62
     7
370
    15
100
AcDbLine
 10
99.1996794872
 20
10.0
 30
0.0
 11
98.9147435897
 21
10.0
 31
0.0
  0
LINE
  5
D5
330
1F
100
AcDbEntity
  8
0
  6
Continuous
 62
     7
370
    15
100
AcDbLine
 10
98.9147435897
 20
10.0
 30
0.0
 11
98.9147435897
 21
13.175
 31
0.0
  0
LINE
  5
D6
330
1F
100
AcDbEntity
  8
0
  6
Continuous
 62
     7
370
    15
100
AcDbLine
 10
98.9147435897
 20
13.175
 30
0.0
 11
99.1996794872
 21
13.175
 31
0.0
  0
LINE
  5
D7
330
1F
100
AcDbEntity
  8
0
  6
Continuous
 62
     7
370
    15
100
AcDbLine
 10
99.1996794872
 20
13.175
 30
0.0
 11
99.1996794872
 21
10.0
 31
0.0
  0
LINE
  5
D8
330
1F
100
AcDbEntity
  8
0
  6
Continuous
 62
     7
370
    15
100
AcDbLine
 10
98.1006410256
 20
10.0
 30
0.0
 11
97.8157051282
 21
10.0
 31
0.0
  0
LINE
  5
D9
330
1F
100
AcDbEntity
  8
0
  6
Continuous
 62
     7
370
    15
100
AcDbLine
 10
97.8157051282
 20
10.0
 30
0.0
 11
97.8157051282
 21
13.175
 31
0.0
  0
LINE
  5
DA
330
1F
100
AcDbEntity
  8
0
  6
Continuous
 62
     7
370
    15
100
AcDbLine
 10
97.8157051282
 20
13.175
 30
0.0
 11
98.1006410256
 21
13.175
 31
0.0
  0
LINE
  5
DB
330
1F
100
AcDbEntity
  8
0
  6
Continuous
 62
     7
370
    15
100
AcDbLine
 10
98.1006410256
 20
13.175
 30
0.0
 11
98.1006410256
 21
10.0
 31
0.0
  0
SPLINE
  5
DC
330
1F
100
AcDbEntity
  8
0
  6
Continuous
 62
     7
370
    15
100
AcDbSpline
210
0.0
220
0.0
230
1.0
 70
     8
 71
     3
 72
    15
 73
    11
 74
     0
 42
0.000000001
 43
0.00000001
 40
0.0
 40
0.0
 40
0.0
 40
0.0
 40
0.127756603310154
 40
0.2494143553365538
 40
0.3727964764554145
 40
0.5001113325158717
 40
0.6286099407651207
 40
0.7506433738258096
 40
0.8737683791425163
 40
1.0
 40
1.0
 40
1.0
 40
1.0
 10
96.85913461538468
 20
9.959294871794869
 30
0.0
 10
96.84142182954332
 20
9.960241563518363
 30
0.0
 10
96.8068418317399
 20
9.962089753747282
 30
0.0
 10
96.75714310840257
 20
9.977658870871137
 30
0.0
 10
96.7114167869061
 20
10.00199158123517
 30
0.0
 10
96.67078793411615
 20
10.03579799198006
 30
0.0
 10
96.63764232060402
 20
10.07661955063187
 30
0.0
 10
96.61258215187314
 20
10.12215975168079
 30
0.0
 10
96.59753251675154
 20
10.17185434133577
 30
0.0
 10
96.5955532465466
 20
10.20639348162664
 30
0.0
 10
96.59455128205133
 20
10.2238782051282
 30
0.0
  0
SPLINE
  5
DD
330
1F
100
AcDbEntity
  8
0
  6
Continuous
 62
     7
370
    15
100
AcDbSpline
210
0.0
220
0.0
230
1.0
 70
     8
 71
     3
 72
    15
 73
    11
 74
     0
 42
0.000000001
 43
0.00000001
 40
0.0
 40
0.0
 40
0.0
 40
0.0
 40
0.1290969581672247
 40
0.2520459672599765
 40
0.3739049644019851
 40
0.501037835220189
 40
0.6281707060383929
 40
0.75137646340917
 40
0.8724260133704307
 40
1.0
 40
1.0
 40
1.0
 40
1.0
 10
96.59455128205133
 20
10.2238782051282
 30
0.0
 10
96.5955147578045
 20
10.24179371380869
 30
0.0
 10
96.59739582596903
 20
10.27677154580748
 30
0.0
 10
96.61261374634029
 20
10.32684502187626
 30
0.0
 10
96.63744788142529
 20
10.37235496319595
 30
0.0
 10
96.67101706116823
 20
10.41262900373667
 30
0.0
 10
96.71140695815272
 20
10.44636319972627
 30
0.0
 10
96.75703280142142
 20
10.47091483350301
 30
0.0
 10
96.80696152726856
 20
10.48546577884285
 30
0.0
 10
96.84144197140135
 20
10.48744563332142
 30
0.0
 10
96.85913461538468
 20
10.48846153846154
 30
0.0
  0
SPLINE
  5
DE
330
1F
100
AcDbEntity
  8
0
  6
Continuous
 62
     7
370
    15
100
AcDbSpline
210
0.0
220
0.0
230
1.0
 70
     8
 71
     3
 72
    15
 73
    11
 74
     0
 42
0.000000001
 43
0.00000001
 40
0.0
 40
0.0
 40
0.0
 40
0.0
 40
0.1275189266999384
 40
0.2499859477487969
 40
0.3717923515057452
 40
0.4988703527764674
 40
0.6259483540471894
 40
0.748491738016059
 40
0.8709587590649146
 40
1.0
 40
1.0
 40
1.0
 40
1.0
 10
96.85913461538468
 20
10.48846153846154
 30
0.0
 10
96.87681502214157
 20
10.48741091582455
 30
0.0
 10
96.91147539259867
 20
10.48535129297144
 30
0.0
 10
96.96158517328529
 20
10.47122102463206
 30
0.0
 10
97.00693747173959
 20
10.44613066834708
 30
0.0
 10
97.04733457951046
 20
10.41269086226171
 30
0.0
 10
97.08063259750031
 20
10.37214551070761
 30
0.0
 10
97.10661711693055
 20
10.32715493635411
 30
0.0
 10
97.12062429637282
 20
10.27662563451461
 30
0.0
 10
97.12266891637248
 20
10.24176442936959
 30
0.0
 10
97.12371794871801
 20
10.2238782051282
 30
0.0
  0
SPLINE
  5
DF
330
1F
100
AcDbEntity
  8
0
  6
Continuous
 62
     7
370
    15
100
AcDbSpline
210
0.0
220
0.0
230
1.0
 70
     8
 71
     3
 72
    15
 73
    11
 74
     0
 42
0.000000001
 43
0.00000001
 40
0.0
 40
0.0
 40
0.0
 40
0.0
 40
0.1261777183170063
 40
0.2488206074857902
 40
0.3715399692351568
 40
0.4999837069108886
 40
0.6272441978753773
 40
0.7492255210762747
 40
0.8722979504176569
 40
0.9999999999999999
 40
0.9999999999999999
 40
0.9999999999999999
 40
0.9999999999999999
 10
97.12371794871801
 20
10.2238782051282
 30
0.0
 10
97.12263336804173
 20
10.20642175598652
 30
0.0
 10
97.1204945908762
 20
10.17199789464306
 30
0.0
 10
97.10664922493068
 20
10.12184971069137
 30
0.0
 10
97.08043456507914
 20
10.07683101877924
 30
0.0
 10
97.04756425007096
 20
10.03573550776281
 30
0.0
 10
97.00692748534321
 20
10.00222486085397
 30
0.0
 10
96.96147795323115
 20
9.977347969561084
 30
0.0
 10
96.91159302618867
 20
9.962205959214694
 30
0.0
 10
96.87683464715137
 20
9.960277103986366
 30
0.0
 10
96.85913461538468
 20
9.959294871794869
 30
0.0
  0
LINE
  5
E0
330
1F
100
AcDbEntity
  8
0
  6
Continuous
 62
     7
370
    15
100
AcDbLine
 10
94.6407051282
 20
10.0
 30
0.0
 11
94.3557692308
 21
10.0
 31
0.0
  0
LINE
  5
E1
330
1F
100
AcDbEntity
  8
0
  6
Continuous
 62
     7
370
    15
100
AcDbLine
 10
94.3557692308
 20
10.0
 30
0.0
 11
94.3557692308
 21
13.2564102564
 31
0.0
  0
LINE
  5
E2
330
1F
100
AcDbEntity
  8
0
  6
Continuous
 62
     7
370
    15
100
AcDbLine
 10
94.3557692308
 20
13.2564102564
 30
0.0
 11
94.6407051282
 21
13.2564102564
 31
0.0
  0
LINE
  5
E3
330
1F
100
AcDbEntity
  8
0
  6
Continuous
 62
     7
370
    15
100
AcDbLine
 10
94.6407051282
 20
13.2564102564
 30
0.0
 11
94.6407051282
 21
11.3737980769
 31
0.0
  0
LINE
  5
E4
330
1F
100
AcDbEntity
  8
0
  6
Continuous
 62
     7
370
    15
100
AcDbLine
 10
94.6407051282
 20
11.3737980769
 30
0.0
 11
95.696494391
 21
12.3201923077
 31
0.0
  0
LINE
  5
E5
330
1F
100
AcDbEntity
  8
0
  6
Continuous
 62
     7
370
    15
100
AcDbLine
 10
95.696494391
 20
12.3201923077
 30
0.0
 11
96.1060897436
 21
12.3201923077
 31
0.0
  0
LINE
  5
E6
330
1F
100
AcDbEntity
  8
0
  6
Continuous
 62
     7
370
    15
100
AcDbLine
 10
96.1060897436
 20
12.3201923077
 30
0.0
 11
94.8811197917
 21
11.2211538462
 31
0.0
  0
LINE
  5
E7
330
1F
100
AcDbEntity
  8
0
  6
Continuous
 62
     7
370
    15
100
AcDbLine
 10
94.8811197917
 20
11.2211538462
 30
0.0
 11
96.2282051282
 21
10.0
 31
0.0
  0
LINE
  5
E8
330
1F
100
AcDbEntity
  8
0
  6
Continuous
 62
     7
370
    15
100
AcDbLine
 10
96.2282051282
 20
10.0
 30
0.0
 11
95.8192457933
 21
10.0
 31
0.0
  0
LINE
  5
E9
330
1F
100
AcDbEntity
  8
0
  6
Continuous
 62
     7
370
    15
100
AcDbLine
 10
95.8192457933
 20
10.0
 30
0.0
 11
94.6407051282
 21
11.069145633
 31
0.0
  0
LINE
  5
EA
330
1F
100
AcDbEntity
  8
0
  6
Continuous
 62
     7
370
    15
100
AcDbLine
 10
94.6407051282
 20
11.069145633
 30
0.0
 11
94.6407051282
 21
10.0
 31
0.0
  0
LINE
  5
EB
330
1F
100
AcDbEntity
  8
0
  6
Continuous
 62
     7
370
    15
100
AcDbLine
 10
90.834775641
 20
12.2896634615
 30
0.0
 11
90.5313952324
 21
10.0
 31
0.0
  0
LINE
  5
EC
330
1F
100
AcDbEntity
  8
0
  6
Continuous
 62
     7
370
    15
100
AcDbLine
 10
90.5313952324
 20
10.0
 30
0.0
 11
90.2445512821
 21
10.0
 31
0.0
  0
LINE
  5
ED
330
1F
100
AcDbEntity
  8
0
  6
Continuous
 62
     7
370
    15
100
AcDbLine
 10
90.2445512821
 20
10.0
 30
0.0
 11
90.663686899
 21
13.175
 31
0.0
  0
LINE
  5
EE
330
1F
100
AcDbEntity
  8
0
  6
Continuous
 62
     7
370
    15
100
AcDbLine
 10
90.663686899
 20
13.175
 30
0.0
 11
90.7043920272
 21
13.175
 31
0.0
  0
LINE
  5
EF
330
1F
100
AcDbEntity
  8
0
  6
Continuous
 62
     7
370
    15
100
AcDbLine
 10
90.7043920272
 20
13.175
 30
0.0
 11
92.015224359
 21
10.5698717949
 31
0.0
  0
LINE
  5
F0
330
1F
100
AcDbEntity
  8
0
  6
Continuous
 62
     7
370
    15
100
AcDbLine
 10
92.015224359
 20
10.5698717949
 30
0.0
 11
93.3228766026
 21
13.175
 31
0.0
  0
LINE
  5
F1
330
1F
100
AcDbEntity
  8
0
  6
Continuous
 62
     7
370
    15
100
AcDbLine
 10
93.3228766026
 20
13.175
 30
0.0
 11
93.3642177484
 21
13.175
 31
0.0
  0
LINE
  5
F2
330
1F
100
AcDbEntity
  8
0
  6
Continuous
 62
     7
370
    15
100
AcDbLine
 10
93.3642177484
 20
13.175
 30
0.0
 11
93.7858974359
 21
10.0
 31
0.0
  0
LINE
  5
F3
330
1F
100
AcDbEntity
  8
0
  6
Continuous
 62
     7
370
    15
100
AcDbLine
 10
93.7858974359
 20
10.0
 30
0.0
 11
93.4996895032
 21
10.0
 31
0.0
  0
LINE
  5
F4
330
1F
100
AcDbEntity
  8
0
  6
Continuous
 62
     7
370
    15
100
AcDbLine
 10
93.4996895032
 20
10.0
 30
0.0
 11
93.1956730769
 21
12.2845753205
 31
0.0
  0
LINE
  5
F5
330
1F
100
AcDbEntity
  8
0
  6
Continuous
 62
     7
370
    15
100
AcDbLine
 10
93.1956730769
 20
12.2845753205
 30
0.0
 11
92.0495693109
 21
10.0
 31
0.0
  0
LINE
  5
F6
330
1F
100
AcDbEntity
  8
0
  6
Continuous
 62
     7
370
    15
100
AcDbLine
 10
92.0495693109
 20
10.0
 30
0.0
 11
91.9853315304
 21
10.0
 31
0.0
  0
LINE
  5
F7
330
1F
100
AcDbEntity
  8
0
  6
Continuous
 62
     7
370
    15
100
AcDbLine
 10
91.9853315304
 20
10.0
 30
0.0
 11
90.834775641
 21
12.2896634615
 31
0.0
  0
LINE
  5
F8
330
1F
100
AcDbEntity
  8
0
  6
Continuous
 62
     7
370
    15
100
AcDbLine
 10
-3.4
 20
30.0
 30
0.0
 11
236.6
 21
30.0
 31
0.0
  0
LINE
  5
F9
330
1F
100
AcDbEntity
  8
0
  6
Continuous
 62
     7
370
    15
100
AcDbLine
 10
-3.4
 20
20.0
 30
0.0
 11
-3.4
 21
30.0
 31
0.0
  0
LINE
  5
FA
330
1F
100
AcDbEntity
  8
0
  6
Continuous
 62
     7
370
    15
100
AcDbLine
 10
3.4
 20
20.0
 30
0.0
 11
-3.4
 21
20.0
 31
0.0
  0
LINE
  5
FB
330
1F
100
AcDbEntity
  8
0
  6
Continuous
 62
     7
370
    15
100
AcDbLine
 10
3.4
 20
10.0
 30
0.0
 11
3.4
 21
20.0
 31
0.0
  0
LINE
  5
FC
330
1F
100
AcDbEntity
  8
0
  6
Continuous
 62
     7
370
    15
100
AcDbLine
 10
-3.4
 20
10.0
 30
0.0
 11
3.4
 21
10.0
 31
0.0
  0
LINE
  5
FD
330
1F
100
AcDbEntity
  8
0
  6
Continuous
 62
     7
370
    15
100
AcDbLine
 10
-3.4
 20
0.0
 30
0.0
 11
-3.4
 21
10.0
 31
0.0
  0
LINE
  5
FE
330
1F
100
AcDbEntity
  8
0
  6
Continuous
 62
     7
370
    15
100
AcDbLine
 10
25.0
 20
0.0
 30
0.0
 11
-3.4
 21
0.0
 31
0.0
  0
LINE
  5
FF
330
1F
100
AcDbEntity
  8
0
  6
Continuous
 62
     7
370
    15
100
AcDbLine
 10
25.0
 20
0.0
 30
0.0
 11
25.0
 21
-3.4
 31
0.0
  0
LINE
  5
100
330
1F
100
AcDbEntity
  8
0
  6
Continuous
 62
     7
370
    15
100
AcDbLine
 10
25.0
 20
-3.4
 30
0.0
 11
60.0
 21
-3.4
 31
0.0
  0
LINE
  5
101
330
1F
100
AcDbEntity
  8
0
  6
Continuous
 62
     7
370
    15
100
AcDbLine
 10
60.0
 20
0.0
 30
0.0
 11
60.0
 21
-3.4
 31
0.0
  0
LINE
  5
102
330
1F
100
AcDbEntity
  8
0
  6
Continuous
 62
     7
370
    15
100
AcDbLine
 10
180.0
 20
0.0
 30
0.0
 11
60.0
 21
0.0
 31
0.0
  0
LINE
  5
103
330
1F
100
AcDbEntity
  8
0
  6
Continuous
 62
     7
370
    15
100
AcDbLine
 10
180.0
 20
0.0
 30
0.0
 11
180.0
 21
-3.4
 31
0.0
  0
LINE
  5
104
330
1F
100
AcDbEntity
  8
0
  6
Continuous
 62
     7
370
    15
100
AcDbLine
 10
215.0
 20
-3.4
 30
0.0
 11
180.0
 21
-3.4
 31
0.0
  0
LINE
  5
105
330
1F
100
AcDbEntity
  8
0
  6
Continuous
 62
     7
370
    15
100
AcDbLine
 10
215.0
 20
0.0
 30
0.0
 11
215.0
 21
-3.4
 31
0.0
  0
LINE
  5
106
330
1F
100
AcDbEntity
  8
0
  6
Continuous
 62
     7
370
    15
100
AcDbLine
 10
236.6
 20
0.0
 30
0.0
 11
215.0
 21
0.0
 31
0.0
  0
LINE
  5
107
330
1F
100
AcDbEntity
  8
0
  6
Continuous
 62
     7
370
    15
100
AcDbLine
 10
236.6
 20
10.0
 30
0.0
 11
236.6
 21
0.0
 31
0.0
  0
LINE
  5
108
330
1F
100
AcDbEntity
  8
0
  6
Continuous
 62
     7
370
    15
100
AcDbLine
 10
243.4
 20
10.0
 30
0.0
 11
236.6
 21
10.0
 31
0.0
  0
LINE
  5
109
330
1F
100
AcDbEntity
  8
0
  6
Continuous
 62
     7
370
    15
100
AcDbLine
 10
243.4
 20
20.0
 30
0.0
 11
243.4
 21
10.0
 31
0.0
  0
LINE
  5
10A
330
1F
100
AcDbEntity
  8
0
  6
Continuous
 62
     7
370
    15
100
AcDbLine
 10
236.6
 20
20.0
 30
0.0
 11
243.4
 21
20.0
 31
0.0
  0
LINE
  5
10B
330
1F
100
AcDbEntity
  8
0
  6
Continuous
 62
     7
370
    15
100
AcDbLine
 10
236.6
 20
30.0
 30
0.0
 11
236.6
 21
20.0
 31
0.0
  0
SPLINE
  5
10C
330
1F
100
AcDbEntity
  8
0
  6
Continuous
 62
     7
370
    15
100
AcDbSpline
210
0.0
220
0.0
230
1.0
 70
     8
 71
     3
 72
    15
 73
    11
 74
     0
 42
0.000000001
 43
0.00000001
 40
0.0
 40
0.0
 40
0.0
 40
0.0
 40
0.1289191318119605
 40
0.2552377249249076
 40
0.3786785959785531
 40
0.5010878871851322
 40
0.6227136794297774
 40
0.7462407949383849
 40
0.8715890472316691
 40
0.9999999999999999
 40
0.9999999999999999
 40
0.9999999999999999
 40
0.9999999999999999
 10
110.6785256410257
 20
11.1537359775641
 30
0.0
 10
110.6795446439893
 20
11.19257670133839
 30
0.0
 10
110.6815620947314
 20
11.26947465923843
 30
0.0
 10
110.696367127963
 20
11.38280134997196
 30
0.0
 10
110.7211852470597
 20
11.49229112433769
 30
0.0
 10
110.7563201567006
 20
11.59745209183718
 30
0.0
 10
110.8012375084378
 20
11.69883023738746
 30
0.0
 10
110.8559938196443
 20
11.79626176263933
 30
0.0
 10
110.9211181791632
 20
11.88968641021651
 30
0.0
 10
110.9711942351961
 20
11.94749143995625
 30
0.0
 10
110.9965344551282
 20
11.97674278846154
 30
0.0
  0
SPLINE
  5
10D
330
1F
100
AcDbEntity
  8
0
  6
Continuous
 62
     7
370
    15
100
AcDbSpline
210
0.0
220
0.0
230
1.0
 70
     8
 71
     3
 72
    15
 73
    11
 74
     0
 42
0.000000001
 43
0.00000001
 40
0.0
 40
0.0
 40
0.0
 40
0.0
 40
0.1284975211375086
 40
0.2527129855154496
 40
0.3748191325670504
 40
0.4964364263727332
 40
0.6179105567458482
 40
0.741287617309287
 40
0.8687004007446085
 40
1.0
 40
1.0
 40
1.0
 40
1.0
 10
110.9965344551282
 20
11.97674278846154
 30
0.0
 10
111.0259699627018
 20
12.00756291192723
 30
0.0
 10
111.0838600677656
 20
12.06817610777741
 30
0.0
 10
111.1812406993476
 20
12.14576632605629
 30
0.0
 10
111.2832886656407
 20
12.21281876448718
 30
0.0
 10
111.3918962772084
 20
12.26677218850497
 30
0.0
 10
111.5059085840682
 20
12.30926141529964
 30
0.0
 10
111.6258503255042
 20
12.33880298972527
 30
0.0
 10
111.751285971671
 20
12.3580828188757
 30
0.0
 10
111.837065056522
 20
12.35994988017064
 30
0.0
 10
111.8805989583334
 20
12.36089743589744
 30
0.0
  0
SPLINE
  5
10E
330
1F
100
AcDbEntity
  8
0
  6
Continuous
 62
     7
370
    15
100
AcDbSpline
210
0.0
220
0.0
230
1.0
 70
     8
 71
     3
 72
    15
 73
    11
 74
     0
 42
0.000000001
 43
0.00000001
 40
0.0
 40
0.0
 40
0.0
 40
0.0
 40
0.1317514273024045
 40
0.2583323505141539
 40
0.3821339760925411
 40
0.5038043916000763
 40
0.6246929865409272
 40
0.746870589727568
 40
0.8715135042348097
 40
1.0
 40
1.0
 40
1.0
 40
1.0
 10
111.8805989583334
 20
12.36089743589744
 30
0.0
 10
111.9241338986983
 20
12.35997043465006
 30
0.0
 10
112.0094952773509
 20
12.35815281175164
 30
0.0
 10
112.1345067166842
 20
12.33872637862391
 30
0.0
 10
112.2538369471408
 20
12.30901984093124
 30
0.0
 10
112.3679429928891
 20
12.2679520667637
 30
0.0
 10
112.4753634894784
 20
12.2129048687678
 30
0.0
 10
112.577663118062
 20
12.14721929753258
 30
0.0
 10
112.6745614046934
 20
12.06940223051353
 30
0.0
 10
112.7326394383767
 20
12.00920598277359
 30
0.0
 10
112.7621193910257
 20
11.97865084134615
 30
0.0
  0
SPLINE
  5
10F
330
1F
100
AcDbEntity
  8
0
  6
Continuous
 62
     7
370
    15
100
AcDbSpline
210
0.0
220
0.0
230
1.0
 70
     8
 71
     3
 72
    15
 73
    11
 74
     0
 42
0.000000001
 43
0.00000001
 40
0.0
 40
0.0
 40
0.0
 40
0.0
 40
0.1281572795931874
 40
0.2538343627967323
 40
0.3765056225222075
 40
0.4985336856679096
 40
0.6213677287324617
 40
0.7445647449043578
 40
0.8706337982552826
 40
1.0
 40
1.0
 40
1.0
 40
1.0
 10
112.7621193910257
 20
11.97865084134615
 30
0.0
 10
112.7875030207846
 20
11.94942815423717
 30
0.0
 10
112.8377790371434
 20
11.89154831951327
 30
0.0
 10
112.9022457963308
 20
11.7976992991831
 30
0.0
 10
112.9577824973308
 20
11.70050792221781
 30
0.0
 10
113.0022896119402
 20
11.59868356159459
 30
0.0
 10
113.0373824548546
 20
11.49311510990528
 30
0.0
 10
113.062297765029
 20
11.38343971406839
 30
0.0
 10
113.0771176988679
 20
11.26989958485572
 30
0.0
 10
113.0791161045935
 20
11.19278896031441
 30
0.0
 10
113.0801282051282
 20
11.1537359775641
 30
0.0
  0
SPLINE
  5
110
330
1F
100
AcDbEntity
  8
0
  6
Continuous
 62
     7
370
    15
100
AcDbSpline
210
0.0
220
0.0
230
1.0
 70
     8
 71
     3
 72
    23
 73
    19
 74
     0
 42
0.000000001
 43
0.00000001
 40
0.0
 40
0.0
 40
0.0
 40
0.0
 40
0.0624160261588178
 40
0.1233369785373303
 40
0.1832651398530933
 40
0.2431724430697109
 40
0.302898353919745
 40
0.3637735975039117
 40
0.4256053049523829
 40
0.4896590425101843
 40
0.5537845767921195
 40
0.6162215328110765
 40
0.6778544713083431
 40
0.7395168974879379
 40
0.8020965355763717
 40
0.865865841277976
 40
0.931507795196516
 40
1.0
 40
1.0
 40
1.0
 40
1.0
 10
113.0801282051282
 20
11.1537359775641
 30
0.0
 10
113.0792379919899
 20
11.1144566395279
 30
0.0
 10
113.0774788893122
 20
11.03683883572852
 30
0.0
 10
113.0608386087289
 20
10.92252126819184
 30
0.0
 10
113.0349568379688
 20
10.81167310761295
 30
0.0
 10
112.9979165276207
 20
10.70475843542312
 30
0.0
 10
112.9504202427887
 20
10.60145044198565
 30
0.0
 10
112.8924622619547
 20
10.502200350845
 30
0.0
 10
112.8236358663956
 20
10.40681234423295
 30
0.0
 10
112.7456179550506
 20
10.31609639096112
 30
0.0
 10
112.6593923245417
 20
10.23248846754135
 30
0.0
 10
112.5658512471381
 20
10.15961925158941
 30
0.0
 10
112.4668329450926
 20
10.09718829734091
 30
0.0
 10
112.3610207603363
 20
10.04689954889038
 30
0.0
 10
112.2493809687103
 20
10.00724860646492
 30
0.0
 10
112.131672771215
 20
9.979399305845911
 30
0.0
 10
112.0080790288594
 20
9.962561206991637
 30
0.0
 10
111.9236900494773
 20
9.96039896553352
 30
0.0
 10
111.8805989583334
 20
9.959294871794869
 30
0.0
  0
SPLINE
  5
111
330
1F
100
AcDbEntity
  8
0
  6
Continuous
 62
     7
370
    15
100
AcDbSpline
210
0.0
220
0.0
230
1.0
 70
     8
 71
     3
 72
    23
 73
    19
 74
     0
 42
0.000000001
 43
0.00000001
 40
0.0
 40
0.0
 40
0.0
 40
0.0
 40
0.0687422616054898
 40
0.1346351922242761
 40
0.1983241870671505
 40
0.2608250125604245
 40
0.3227135881590255
 40
0.3845545346076218
 40
0.4469128577247591
 40
0.5109576325148295
 40
0.5749307010013351
 40
0.6366845377960958
 40
0.6974831152940622
 40
0.7571338075238554
 40
0.8169656636752655
 40
0.8768183516571977
 40
0.9376625803840035
 40
1.0
 40
1.0
 40
1.0
 40
1.0
 10
111.8805989583334
 20
9.959294871794869
 30
0.0
 10
111.8372967484931
 20
9.960402671220919
 30
0.0
 10
111.7524871828864
 20
9.96257235236304
 30
0.0
 10
111.6284571849989
 20
9.979333887410572
 30
0.0
 10
111.5105380306794
 20
10.0072357715986
 30
0.0
 10
111.3987520877368
 20
10.04702985428938
 30
0.0
 10
111.2924849765704
 20
10.09718990469066
 30
0.0
 10
111.1928929400521
 20
10.15943050880799
 30
0.0
 10
111.0992758738341
 20
10.23251007820286
 30
0.0
 10
111.0130320022568
 20
10.3160905353838
 30
0.0
 10
110.9350189817111
 20
10.40681385290966
 30
0.0
 10
110.8661913241352
 20
10.50219995925734
 30
0.0
 10
110.8082336711277
 20
10.60145054401826
 30
0.0
 10
110.7607373004632
 20
10.70475840821451
 30
0.0
 10
110.7236970130304
 20
10.81167311490872
 30
0.0
 10
110.6978152361098
 20
10.92252126621157
 30
0.0
 10
110.6811749571822
 20
11.03683883624126
 30
0.0
 10
110.6794158542785
 20
11.11445663970018
 30
0.0
 10
110.6785256410257
 20
11.1537359775641
 30
0.0
  0
SPLINE
  5
112
330
1F
100
AcDbEntity
  8
0
  6
Continuous
 62
     7
370
    15
100
AcDbSpline
210
0.0
220
0.0
230
1.0
 70
     8
 71
     3
 72
    31
 73
    27
 74
     0
 42
0.000000001
 43
0.00000001
 40
0.0
 40
0.0
 40
0.0
 40
0.0
 40
0.0451516788047804
 40
0.0887272521645443
 40
0.1305341108247499
 40
0.1710707458966307
 40
0.2100958400813077
 40
0.2477692374166756
 40
0.2848493643644358
 40
0.3209855015160398
 40
0.3563873757532839
 40
0.3915492787874617
 40
0.4261913606636702
 40
0.4605110592984609
 40
0.4949714404811194
 40
0.5295336250796099
 40
0.5645757480731514
 40
0.6000961892387717
 40
0.6375349450701505
 40
0.6782134162474357
 40
0.7225827429711674
 40
0.7701823039810383
 40
0.8218792822902008
 40
0.877067012516751
 40
0.9365240376354078
 40
0.9999999999999999
 40
0.9999999999999999
 40
0.9999999999999999
 40
0.9999999999999999
 10
114.6491836939103
 20
9.959294871794869
 30
0.0
 10
114.6209747132639
 20
9.959603034704509
 30
0.0
 10
114.5655414402303
 20
9.960208603509813
 30
0.0
 10
114.4841968115084
 20
9.966687243346039
 30
0.0
 10
114.4062291472257
 20
9.977398941018093
 30
0.0
 10
114.3319156428551
 20
9.992689031072942
 30
0.0
 10
114.2611817252953
 20
10.01177447308503
 30
0.0
 10
114.1937408791237
 20
10.03445625168852
 30
0.0
 10
114.1303827898292
 20
10.0626506887099
 30
0.0
 10
114.0703462576302
 20
10.09438033012789
 30
0.0
 10
114.0141012340336
 20
10.13027168711061
 30
0.0
 10
113.9613884524947
 20
10.16961269448474
 30
0.0
 10
113.9122785934049
 20
10.21234462311959
 30
0.0
 10
113.8667608245682
 20
10.25828901139178
 30
0.0
 10
113.825474052948
 20
10.30801580367004
 30
0.0
 10
113.7879037865619
 20
10.36112499049362
 30
0.0
 10
113.7534716325956
 20
10.41709034229317
 30
0.0
 10
113.7223087442024
 20
10.47701906823786
 30
0.0
 10
113.6955373659598
 20
10.54285224853171
 30
0.0
 10
113.6719015357507
 20
10.61569318660859
 30
0.0
 10
113.6525697423613
 20
10.69634046971396
 30
0.0
 10
113.6368376460628
 20
10.78472514766421
 30
0.0
 10
113.6241816963667
 20
10.88042422112517
 30
0.0
 10
113.6153949816454
 20
10.98399128357013
 30
0.0
 10
113.6104820494571
 20
11.09517406144086
 30
0.0
 10
113.6096991294481
 20
11.17196360455045
 30
0.0
 10
113.6092948717949
 20
11.21161358173077
 30
0.0
  0
LINE
  5
113
330
1F
100
AcDbEntity
  8
0
  6
Continuous
 62
     7
370
    15
100
AcDbLine
 10
113.6092948718
 20
11.2116135817
 30
0.0
 11
113.6092948718
 21
12.3201923077
 31
0.0
  0
LINE
  5
114
330
1F
100
AcDbEntity
  8
0
  6
Continuous
 62
     7
370
    15
100
AcDbLine
 10
113.6092948718
 20
12.3201923077
 30
0.0
 11
113.8942307692
 21
12.3201923077
 31
0.0
  0
LINE
  5
115
330
1F
100
AcDbEntity
  8
0
  6
Continuous
 62
     7
370
    15
100
AcDbLine
 10
113.8942307692
 20
12.3201923077
 30
0.0
 11
113.8942307692
 21
11.2440504808
 31
0.0
  0
SPLINE
  5
116
330
1F
100
AcDbEntity
  8
0
  6
Continuous
 62
     7
370
    15
100
AcDbSpline
210
0.0
220
0.0
230
1.0
 70
     8
 71
     3
 72
    15
 73
    11
 74
     0
 42
0.000000001
 43
0.00000001
 40
0.0
 40
0.0
 40
0.0
 40
0.0
 40
0.1736165757486469
 40
0.3321203769789012
 40
0.4779362767239436
 40
0.6099318098113861
 40
0.727031521037976
 40
0.8316714227513095
 40
0.9217154761224298
 40
1.0
 40
1.0
 40
1.0
 40
1.0
 10
113.8942307692308
 20
11.24405048076923
 30
0.0
 10
113.8943594972485
 20
11.21246127258286
 30
0.0
 10
113.8946057479166
 20
11.15203259700232
 30
0.0
 10
113.8962757443355
 20
11.06507824901612
 30
0.0
 10
113.9002037578424
 20
10.98577880254302
 30
0.0
 10
113.9051148700804
 20
10.91408844848559
 30
0.0
 10
113.9114305221227
 20
10.85001931468583
 30
0.0
 10
113.9189447134353
 20
10.79379518366405
 30
0.0
 10
113.9273434244812
 20
10.74477845954852
 30
0.0
 10
113.9355646007214
 20
10.71525698687046
 30
0.0
 10
113.9393880208333
 20
10.70152744391026
 30
0.0
  0
SPLINE
  5
117
330
1F
100
AcDbEntity
  8
0
  6
Continuous
 62
     7
370
    15
100
AcDbSpline
210
0.0
220
0.0
230
1.0
 70
     8
 71
     3
 72
    19
 73
    15
 74
     0
 42
0.000000001
 43
0.00000001
 40
0.0
 40
0.0
 40
0.0
 40
0.0
 40
0.0604867187842468
 40
0.1197159334053013
 40
0.1780861642555846
 40
0.2359713213676955
 40
0.2946097683616268
 40
0.3535360182612475
 40
0.4131613089451942
 40
0.4745453087944067
 40
0.5992335172031698
 40
0.7270292124547222
 40
0.8596954264724386
 40
1.0
 40
1.0
 40
1.0
 40
1.0
 10
113.9393880208333
 20
10.70152744391025
 30
0.0
 10
113.9455216264508
 20
10.68427098238423
 30
0.0
 10
113.9576613215178
 20
10.6501168169677
 30
0.0
 10
113.9796808389224
 20
10.60077821940464
 30
0.0
 10
114.0069208299579
 20
10.55508064177317
 30
0.0
 10
114.0367293880997
 20
10.51126194723151
 30
0.0
 10
114.071109565004
 20
10.4706201448435
 30
0.0
 10
114.1096263709467
 20
10.43322386667463
 30
0.0
 10
114.1509904859527
 20
10.39766015533323
 30
0.0
 10
114.2124539714389
 20
10.35558252262184
 30
0.0
 10
114.2965091627251
 20
10.31048361597679
 30
0.0
 10
114.4068655907711
 20
10.27157098074201
 30
0.0
 10
114.5265215671217
 20
10.2483156297147
 30
0.0
 10
114.6092209910462
 20
10.24561755552896
 30
0.0
 10
114.6517277644231
 20
10.24423076923077
 30
0.0
  0
SPLINE
  5
118
330
1F
100
AcDbEntity
  8
0
  6
Continuous
 62
     7
370
    15
100
AcDbSpline
210
0.0
220
0.0
230
1.0
 70
     8
 71
     3
 72
    15
 73
    11
 74
     0
 42
0.000000001
 43
0.00000001
 40
0.0
 40
0.0
 40
0.0
 40
0.0
 40
0.1446324159930477
 40
0.2798369641781319
 40
0.4083713118090859
 40
0.5330428696034645
 40
0.6535963008637301
 40
0.7700157379356778
 40
0.8843394719005003
 40
1.0
 40
1.0
 40
1.0
 40
1.0
 10
114.6517277644231
 20
10.24423076923077
 30
0.0
 10
114.6942305892815
 20
10.24564704474477
 30
0.0
 10
114.7764656912517
 20
10.24838727581646
 30
0.0
 10
114.8948069848015
 20
10.2708694858423
 30
0.0
 10
115.002985053603
 20
10.30843036088012
 30
0.0
 10
115.0999141308598
 20
10.36086994156854
 30
0.0
 10
115.1851545715729
 20
10.42504309856137
 30
0.0
 10
115.2561878657385
 20
10.50034394646538
 30
0.0
 10
115.3147958752184
 20
10.58439017599154
 30
0.0
 10
115.3403858496593
 20
10.64709577180413
 30
0.0
 10
115.3532552083333
 20
10.67863080929487
 30
0.0
  0
SPLINE
  5
119
330
1F
100
AcDbEntity
  8
0
  6
Continuous
 62
     7
370
    15
100
AcDbSpline
210
0.0
220
0.0
230
1.0
 70
     8
 71
     3
 72
    15
 73
    11
 74
     0
 42
0.000000001
 43
0.00000001
 40
0.0
 40
0.0
 40
0.0
 40
0.0
 40
0.0696927557420288
 40
0.1540736621798104
 40
0.2545914510459158
 40
0.371465414429005
 40
0.5047545659520504
 40
0.6534942950018636
 40
0.8189527408800048
 40
1.0
 40
1.0
 40
1.0
 40
1.0
 10
115.3532552083333
 20
10.67863080929487
 30
0.0
 10
115.3570599741806
 20
10.69130023736442
 30
0.0
 10
115.365471382247
 20
10.71930924862557
 30
0.0
 10
115.3745086582615
 20
10.76682516323069
 30
0.0
 10
115.3826497769945
 20
10.82348948308243
 30
0.0
 10
115.3896013724976
 20
10.88967300094776
 30
0.0
 10
115.3945590557281
 20
10.96520276067511
 30
0.0
 10
115.3972315227091
 20
11.05005515832199
 30
0.0
 10
115.4002507437989
 20
11.14396382075877
 30
0.0
 10
115.4002965692717
 20
11.20970243099633
 30
0.0
 10
115.4003205128205
 20
11.24405048076923
 30
0.0
  0
LINE
  5
11A
330
1F
100
AcDbEntity
  8
0
  6
Continuous
 62
     7
370
    15
100
AcDbLine
 10
115.4003205128
 20
11.2440504808
 30
0.0
 11
115.4003205128
 21
12.3201923077
 31
0.0
  0
LINE
  5
11B
330
1F
100
AcDbEntity
  8
0
  6
Continuous
 62
     7
370
    15
100
AcDbLine
 10
115.4003205128
 20
12.3201923077
 30
0.0
 11
115.6852564103
 21
12.3201923077
 31
0.0
  0
LINE
  5
11C
330
1F
100
AcDbEntity
  8
0
  6
Continuous
 62
     7
370
    15
100
AcDbLine
 10
115.6852564103
 20
12.3201923077
 30
0.0
 11
115.6852564103
 21
11.190625
 31
0.0
  0
SPLINE
  5
11D
330
1F
100
AcDbEntity
  8
0
  6
Continuous
 62
     7
370
    15
100
AcDbSpline
210
0.0
220
0.0
230
1.0
 70
     8
 71
     3
 72
    31
 73
    27
 74
     0
 42
0.000000001
 43
0.00000001
 40
0.0
 40
0.0
 40
0.0
 40
0.0
 40
0.0622100326824419
 40
0.1206959731983285
 40
0.1755484638831975
 40
0.2261906127214149
 40
0.2737107306295724
 40
0.3173020717741437
 40
0.3578372980216204
 40
0.3954278376537086
 40
0.4310885268449416
 40
0.466097473341075
 40
0.5010152197637693
 40
0.5354236135188917
 40
0.5701735381629641
 40
0.6047650703833912
 40
0.640093034542571
 40
0.6759387007616814
 40
0.7122247901876555
 40
0.7494554524110951
 40
0.7876011171624494
 40
0.8267837743908867
 40
0.86782856994874
 40
0.9101595124056417
 40
0.9539387393933997
 40
0.9999999999999999
 40
0.9999999999999999
 40
0.9999999999999999
 40
0.9999999999999999
 10
115.6852564102564
 20
11.190625
 30
0.0
 10
115.684855729957
 20
11.1522463516128
 30
0.0
 10
115.6840783553666
 20
11.07778652387449
 30
0.0
 10
115.6790824080617
 20
10.96957879414592
 30
0.0
 10
115.6705102594441
 20
10.8687387577156
 30
0.0
 10
115.6574993952165
 20
10.77521303683605
 30
0.0
 10
115.6421998189454
 20
10.68907303554671
 30
0.0
 10
115.6224637713452
 20
10.6102083524251
 30
0.0
 10
115.5988977985295
 20
10.5388619713377
 30
0.0
 10
115.5723135099373
 20
10.47378193084523
 30
0.0
 10
115.5409065301112
 20
10.41477510539505
 30
0.0
 10
115.5074991614929
 20
10.35877190032455
 30
0.0
 10
115.4689231184734
 20
10.30716188055666
 30
0.0
 10
115.4283101202511
 20
10.25737594182523
 30
0.0
 10
115.3831329038529
 20
10.21189041339744
 30
0.0
 10
115.3342380317944
 20
10.16966157457882
 30
0.0
 10
115.282313700942
 20
10.13004389575629
 30
0.0
 10
115.2262076427585
 20
10.09458252089325
 30
0.0
 10
115.1667389285373
 20
10.06263599262112
 30
0.0
 10
115.1038341439521
 20
10.03431855032438
 30
0.0
 10
115.0367228098662
 20
10.01190978398756
 30
0.0
 10
114.966270796318
 20
9.992577965781416
 30
0.0
 10
114.8921329322183
 20
9.977415554491344
 30
0.0
 10
114.8143806900799
 20
9.96672345465167
 30
0.0
 10
114.733040259598
 20
9.960169047313656
 30
0.0
 10
114.6776052497537
 20
9.95959115662505
 30
0.0
 10
114.6491836939103
 20
9.959294871794869
 30
0.0
  0
SPLINE
  5
11E
330
1F
100
AcDbEntity
  8
0
  6
Continuous
 62
     7
370
    15
100
AcDbSpline
210
0.0
220
0.0
230
1.0
 70
     8
 71
     3
 72
    23
 73
    19
 74
     0
 42
0.000000001
 43
0.00000001
 40
0.0
 40
0.0
 40
0.0
 40
0.0
 40
0.0679784896192547
 40
0.1330435352439075
 40
0.1965074380533966
 40
0.2586134167685769
 40
0.3197283376065493
 40
0.3808728540495712
 40
0.4426356023162076
 40
0.5050793035048774
 40
0.5678805200585803
 40
0.6288138541554883
 40
0.6889100905404406
 40
0.7487650058898518
 40
0.809385782963116
 40
0.8708843357532354
 40
0.9340374630736988
 40
1.0
 40
1.0
 40
1.0
 40
1.0
 10
116.2551282051282
 20
11.75222856570513
 30
0.0
 10
116.2556127965993
 20
11.77366017670122
 30
0.0
 10
116.2565612107641
 20
11.81560487580916
 30
0.0
 10
116.2641304575506
 20
11.87723509136988
 30
0.0
 10
116.2779115098499
 20
11.93578948807544
 30
0.0
 10
116.2951970467789
 20
11.99214742809026
 30
0.0
 10
116.319220915096
 20
12.04521718482449
 30
0.0
 10
116.3479282719061
 20
12.09570646211614
 30
0.0
 10
116.3816625788013
 20
12.1435454734469
 30
0.0
 10
116.4205275640707
 20
12.18799831469819
 30
0.0
 10
116.4632600208274
 20
12.22837463213398
 30
0.0
 10
116.5094288476587
 20
12.26357053036516
 30
0.0
 10
116.5579956946999
 20
12.29360272364478
 30
0.0
 10
116.6091661895856
 20
12.3187896907525
 30
0.0
 10
116.6634319043457
 20
12.3378409449635
 30
0.0
 10
116.720413526237
 20
12.35095585856133
 30
0.0
 10
116.7799957167345
 20
12.35971450681643
 30
0.0
 10
116.8207274524281
 20
12.36049744757112
 30
0.0
 10
116.8415364583334
 20
12.36089743589744
 30
0.0
  0
SPLINE
  5
11F
330
1F
100
AcDbEntity
  8
0
  6
Continuous
 62
     7
370
    15
100
AcDbSpline
210
0.0
220
0.0
230
1.0
 70
     8
 71
     3
 72
    15
 73
    11
 74
     0
 42
0.000000001
 43
0.00000001
 40
0.0
 40
0.0
 40
0.0
 40
0.0
 40
0.1057142614175197
 40
0.213411612639002
 40
0.3261267300734758
 40
0.4444516715568735
 40
0.5690610798550921
 40
0.7027122044812221
 40
0.8463179465861975
 40
1.0
 40
1.0
 40
1.0
 40
1.0
 10
116.8415364583334
 20
12.36089743589744
 30
0.0
 10
116.8662035444772
 20
12.35989564112196
 30
0.0
 10
116.9160004456944
 20
12.35787325894094
 30
0.0
 10
116.9907078564666
 20
12.34181166817807
 30
0.0
 10
117.0653052453602
 20
12.31538378088784
 30
0.0
 10
117.1399842842594
 20
12.27888376921659
 30
0.0
 10
117.2141979039144
 20
12.23165167466813
 30
0.0
 10
117.2885989096131
 20
12.17456581024116
 30
0.0
 10
117.3640804799477
 20
12.10800174065069
 30
0.0
 10
117.4112122782611
 20
12.0571117290197
 30
0.0
 10
117.435576923077
 20
12.03080428685898
 30
0.0
  0
LINE
  5
120
330
1F
100
AcDbEntity
  8
0
  6
Continuous
 62
     7
370
    15
100
AcDbLine
 10
117.4355769231
 20
12.0308042869
 30
0.0
 11
117.2422275641
 21
11.8317307692
 31
0.0
  0
SPLINE
  5
121
330
1F
100
AcDbEntity
  8
0
  6
Continuous
 62
     7
370
    15
100
AcDbSpline
210
0.0
220
0.0
230
1.0
 70
     8
 71
     3
 72
    15
 73
    11
 74
     0
 42
0.000000001
 43
0.00000001
 40
0.0
 40
0.0
 40
0.0
 40
0.0
 40
0.1582230975563253
 40
0.3050355053581599
 40
0.4413089638879018
 40
0.5659632271047114
 40
0.683525114415058
 40
0.7933341296295885
 40
0.8985175121610073
 40
1.0
 40
1.0
 40
1.0
 40
1.0
 10
117.2422275641026
 20
11.83173076923077
 30
0.0
 10
117.2255447501879
 20
11.85106483769161
 30
0.0
 10
117.1933822489358
 20
11.88833864559112
 30
0.0
 10
117.1423722625979
 20
11.93817441306215
 30
0.0
 10
117.0915508507841
 20
11.98002720767412
 30
0.0
 10
117.041613712757
 20
12.01536247111329
 30
0.0
 10
116.9913051400968
 20
12.0420770541057
 30
0.0
 10
116.9412155072196
 20
12.06157596458013
 30
0.0
 10
116.8912929515668
 20
12.07364260257235
 30
0.0
 10
116.8579227624786
 20
12.07519784338771
 30
0.0
 10
116.8415364583334
 20
12.07596153846154
 30
0.0
  0
SPLINE
  5
122
330
1F
100
AcDbEntity
  8
0
  6
Continuous
 62
     7
370
    15
100
AcDbSpline
210
0.0
220
0.0
230
1.0
 70
     8
 71
     3
 72
    15
 73
    11
 74
     0
 42
0.000000001
 43
0.00000001
 40
0.0
 40
0.0
 40
0.0
 40
0.0
 40
0.1249584925460612
 40
0.2459006286062698
 40
0.3691660295860785
 40
0.4985108411773548
 40
0.6285038663665984
 40
0.7510283288509935
 40
0.873724174278431
 40
0.9999999999999999
 40
0.9999999999999999
 40
0.9999999999999999
 40
0.9999999999999999
 10
116.8415364583334
 20
12.07596153846154
 30
0.0
 10
116.8214528689769
 20
12.07498647511748
 30
0.0
 10
116.7819312074492
 20
12.073067688452
 30
0.0
 10
116.7253020722465
 20
12.05391479093402
 30
0.0
 10
116.6727325766945
 20
12.02451543533109
 30
0.0
 10
116.6272330305461
 20
11.98281536310601
 30
0.0
 10
116.5886906350982
 20
11.93495063352627
 30
0.0
 10
116.5605567958887
 20
11.8814325388083
 30
0.0
 10
116.5433519393106
 20
11.82387609916042
 30
0.0
 10
116.5411705038152
 20
11.78393472827555
 30
0.0
 10
116.5400641025641
 20
11.76367688301282
 30
0.0
  0
SPLINE
  5
123
330
1F
100
AcDbEntity
  8
0
  6
Continuous
 62
     7
370
    15
100
AcDbSpline
210
0.0
220
0.0
230
1.0
 70
     8
 71
     3
 72
    11
 73
     7
 74
     0
 42
0.000000001
 43
0.00000001
 40
0.0
 40
0.0
 40
0.0
 40
0.0
 40
0.2400399314959925
 40
0.4794031936061127
 40
0.7317567388575682
 40
0.9999999999999999
 40
0.9999999999999999
 40
0.9999999999999999
 40
0.9999999999999999
 10
116.5400641025641
 20
11.76367688301282
 30
0.0
 10
116.5410717679762
 20
11.7453416715324
 30
0.0
 10
116.5430842582051
 20
11.70872293528975
 30
0.0
 10
116.5587294600611
 20
11.65470436173443
 30
0.0
 10
116.5836451112526
 20
11.60203833423098
 30
0.0
 10
116.6069316446375
 20
11.56977769775327
 30
0.0
 10
116.6189302884616
 20
11.55315504807692
 30
0.0
  0
SPLINE
  5
124
330
1F
100
AcDbEntity
  8
0
  6
Continuous
 62
     7
370
    15
100
AcDbSpline
210
0.0
220
0.0
230
1.0
 70
     8
 71
     3
 72
    15
 73
    11
 74
     0
 42
0.000000001
 43
0.00000001
 40
0.0
 40
0.0
 40
0.0
 40
0.0
 40
0.0834251049856352
 40
0.177559821465982
 40
0.2839823599504616
 40
0.4022167468072198
 40
0.5335684803800647
 40
0.6761209941988475
 40
0.8316493725539947
 40
1.0
 40
1.0
 40
1.0
 40
1.0
 10
116.6189302884616
 20
11.55315504807692
 30
0.0
 10
116.6261543149544
 20
11.54427903228909
 30
0.0
 10
116.6415297448632
 20
11.52538755137472
 30
0.0
 10
116.6703846120208
 20
11.49916762720308
 30
0.0
 10
116.7030621681869
 20
11.47019144238989
 30
0.0
 10
116.7423595402726
 20
11.44122016884508
 30
0.0
 10
116.786583686996
 20
11.41071138955078
 30
0.0
 10
116.8366936091041
 20
11.37986659749524
 30
0.0
 10
116.8910990528993
 20
11.34633458348939
 30
0.0
 10
116.9300493239016
 20
11.32506713124611
 30
0.0
 10
116.9502954727564
 20
11.31401241987179
 30
0.0
  0
SPLINE
  5
125
330
1F
100
AcDbEntity
  8
0
  6
Continuous
 62
     7
370
    15
100
AcDbSpline
210
0.0
220
0.0
230
1.0
 70
     8
 71
     3
 72
    15
 73
    11
 74
     0
 42
0.000000001
 43
0.00000001
 40
0.0
 40
0.0
 40
0.0
 40
0.0
 40
0.1589891012267964
 40
0.307114591605569
 40
0.4462131585962184
 40
0.5748760724117336
 40
0.6941521095829556
 40
0.8045811801532424
 40
0.9065933190457676
 40
1.0
 40
1.0
 40
1.0
 40
1.0
 10
116.9502954727564
 20
11.31401241987179
 30
0.0
 10
116.9749820748374
 20
11.30018311517612
 30
0.0
 10
117.0226684612482
 20
11.27346945222044
 30
0.0
 10
117.0904254715443
 20
11.23200422117961
 30
0.0
 10
117.1519180015679
 20
11.19079142916005
 30
0.0
 10
117.2076670715064
 20
11.15027183071393
 30
0.0
 10
117.2565999980986
 20
11.10931172937583
 30
0.0
 10
117.3002014137184
 20
11.06948112126399
 30
0.0
 10
117.3373837878515
 20
11.02957653446355
 30
0.0
 10
117.3582062784894
 20
11.00169720991091
 30
0.0
 10
117.3681590544872
 20
10.98837139423077
 30
0.0
  0
SPLINE
  5
126
330
1F
100
AcDbEntity
  8
0
  6
Continuous
 62
     7
370
    15
100
AcDbSpline
210
0.0
220
0.0
230
1.0
 70
     8
 71
     3
 72
    11
 73
     7
 74
     0
 42
0.000000001
 43
0.00000001
 40
0.0
 40
0.0
 40
0.0
 40
0.0
 40
0.2488386141270633
 40
0.4952350254576713
 40
0.743335603875006
 40
1.0
 40
1.0
 40
1.0
 40
1.0
 10
117.3681590544872
 20
10.98837139423077
 30
0.0
 10
117.3846786043538
 20
10.96146001435637
 30
0.0
 10
117.4175555745437
 20
10.90790137377341
 30
0.0
 10
117.4520798591146
 20
10.81971037173601
 30
0.0
 10
117.4720916798647
 20
10.72617441595367
 30
0.0
 10
117.4748695510676
 20
10.66219161627639
 30
0.0
 10
117.4762820512821
 20
10.62965745192308
 30
0.0
  0
SPLINE
  5
127
330
1F
100
AcDbEntity
  8
0
  6
Continuous
 62
     7
370
    15
100
AcDbSpline
210
0.0
220
0.0
230
1.0
 70
     8
 71
     3
 72
    23
 73
    19
 74
     0
 42
0.000000001
 43
0.00000001
 40
0.0
 40
0.0
 40
0.0
 40
0.0
 40
0.064548125564251
 40
0.1271991327555113
 40
0.188597338087427
 40
0.2486395150940129
 40
0.3095246994640602
 40
0.3700369910533524
 40
0.431889243607072
 40
0.4957042857252975
 40
0.5595193278435127
 40
0.6213715803972348
 40
0.6823971072916365
 40
0.7435684819321623
 40
0.8054984835712148
 40
0.8686397008205172
 40
0.9330662250811667
 40
1.0
 40
1.0
 40
1.0
 40
1.0
 10
117.4762820512821
 20
10.62965745192308
 30
0.0
 10
117.4756293313209
 20
10.60673472640099
 30
0.0
 10
117.4743430753334
 20
10.56156299164783
 30
0.0
 10
117.4654004003256
 20
10.49503782470476
 30
0.0
 10
117.4500198146609
 20
10.43141576179676
 30
0.0
 10
117.4290704807143
 20
10.37000646781749
 30
0.0
 10
117.40078179958
 20
10.3119865725931
 30
0.0
 10
117.3676277264499
 20
10.25589226101145
 30
0.0
 10
117.327826913661
 20
10.20293695236679
 30
0.0
 10
117.2823868800658
 20
10.15319018134829
 30
0.0
 10
117.2326341819562
 20
10.10775525333125
 30
0.0
 10
117.1795607564499
 20
10.06781923803837
 30
0.0
 10
117.1231012458252
 20
10.03464108929347
 30
0.0
 10
117.0636590759635
 20
10.0071860975374
 30
0.0
 10
117.001099189769
 20
9.985352749257473
 30
0.0
 10
116.9354118059163
 20
9.97023745304868
 30
0.0
 10
116.866805721412
 20
9.961190734056103
 30
0.0
 10
116.8201515383218
 20
9.959934816374389
 30
0.0
 10
116.7963792067308
 20
9.959294871794869
 30
0.0
  0
SPLINE
  5
128
330
1F
100
AcDbEntity
  8
0
  6
Continuous
 62
     7
370
    15
100
AcDbSpline
210
0.0
220
0.0
230
1.0
 70
     8
 71
     3
 72
    15
 73
    11
 74
     0
 42
0.000000001
 43
0.00000001
 40
0.0
 40
0.0
 40
0.0
 40
0.0
 40
0.1267425189618499
 40
0.251723961249609
 40
0.3772186880262351
 40
0.5046935492516365
 40
0.6314582385934822
 40
0.7554010672029525
 40
0.8777005336014826
 40
1.0
 40
1.0
 40
1.0
 40
1.0
 10
116.7963792067308
 20
9.959294871794869
 30
0.0
 10
116.7642961261549
 20
9.960195392804478
 30
0.0
 10
116.7005757567177
 20
9.961983922159769
 30
0.0
 10
116.6063329400614
 20
9.978771563358308
 30
0.0
 10
116.514239108987
 20
10.00489309931461
 30
0.0
 10
116.4249911831377
 20
10.04092112530089
 30
0.0
 10
116.3405850655383
 20
10.08641498625
 30
0.0
 10
116.2633591553646
 20
10.14090015757467
 30
0.0
 10
116.1930451858467
 20
10.20257679807676
 30
0.0
 10
116.1530236089575
 20
10.24985065277772
 30
0.0
 10
116.1330128205128
 20
10.2734875801282
 30
0.0
  0
LINE
  5
129
330
1F
100
AcDbEntity
  8
0
  6
Continuous
 62
     7
370
    15
100
AcDbLine
 10
116.1330128205
 20
10.2734875801
 30
0.0
 11
116.3219100561
 21
10.4884615385
 31
0.0
  0
SPLINE
  5
12A
330
1F
100
AcDbEntity
  8
0
  6
Continuous
 62
     7
370
    15
100
AcDbSpline
210
0.0
220
0.0
230
1.0
 70
     8
 71
     3
 72
    15
 73
    11
 74
     0
 42
0.000000001
 43
0.00000001
 40
0.0
 40
0.0
 40
0.0
 40
0.0
 40
0.1474758177483481
 40
0.2859041715443706
 40
0.4171716482444279
 40
0.540500743586505
 40
0.6592377183802344
 40
0.7750060983159549
 40
0.8872285734286398
 40
1.0
 40
1.0
 40
1.0
 40
1.0
 10
116.3219100560898
 20
10.48846153846154
 30
0.0
 10
116.3398464592898
 20
10.46908971635417
 30
0.0
 10
116.3746188889376
 20
10.43153451011444
 30
0.0
 10
116.4302278498894
 20
10.38152885821964
 30
0.0
 10
116.4868148780329
 20
10.33961770512131
 30
0.0
 10
116.5438149151396
 20
10.30456260741716
 30
0.0
 10
116.6020717149902
 20
10.27755206312423
 30
0.0
 10
116.6612588079022
 20
10.25857591007765
 30
0.0
 10
116.7212558068722
 20
10.24638010713036
 30
0.0
 10
116.7615530300802
 20
10.24494837959762
 30
0.0
 10
116.7817508012821
 20
10.24423076923077
 30
0.0
  0
SPLINE
  5
12B
330
1F
100
AcDbEntity
  8
0
  6
Continuous
 62
     7
370
    15
100
AcDbSpline
210
0.0
220
0.0
230
1.0
 70
     8
 71
     3
 72
    15
 73
    11
 74
     0
 42
0.000000001
 43
0.00000001
 40
0.0
 40
0.0
 40
0.0
 40
0.0
 40
0.1340420464623699
 40
0.2618956736507445
 40
0.3878360446911191
 40
0.5176862058208266
 40
0.6445086536782145
 40
0.7647182630567247
 40
0.8802907821584985
 40
1.0
 40
1.0
 40
1.0
 40
1.0
 10
116.7817508012821
 20
10.24423076923077
 30
0.0
 10
116.8092534912583
 20
10.2454743032111
 30
0.0
 10
116.8629891339811
 20
10.24790396000969
 30
0.0
 10
116.9399545435809
 20
10.26996303635102
 30
0.0
 10
117.0110188690038
 20
10.30455234979233
 30
0.0
 10
117.0727257610103
 20
10.35361489740901
 30
0.0
 10
117.1252512928358
 20
10.41072459541013
 30
0.0
 10
117.1632861367628
 20
10.47505383220403
 30
0.0
 10
117.1871223816451
 20
10.54471465362925
 30
0.0
 10
117.1899218232831
 20
10.59300395671942
 30
0.0
 10
117.1913461538462
 20
10.61757311698718
 30
0.0
  0
SPLINE
  5
12C
330
1F
100
AcDbEntity
  8
0
  6
Continuous
 62
     7
370
    15
100
AcDbSpline
210
0.0
220
0.0
230
1.0
 70
     8
 71
     3
 72
    11
 73
     7
 74
     0
 42
0.000000001
 43
0.00000001
 40
0.0
 40
0.0
 40
0.0
 40
0.0
 40
0.2534754346498623
 40
0.5004533151029001
 40
0.7455781350009854
 40
0.9999999999999999
 40
0.9999999999999999
 40
0.9999999999999999
 40
0.9999999999999999
 10
117.1913461538462
 20
10.61757311698718
 30
0.0
 10
117.190360729696
 20
10.63781112820207
 30
0.0
 10
117.1884151416218
 20
10.67776837225442
 30
0.0
 10
117.173135887732
 20
10.73559903877302
 30
0.0
 10
117.1489942288963
 20
10.79045331482061
 30
0.0
 10
117.1252228693183
 20
10.82255678053277
 30
0.0
 10
117.1131159855769
 20
10.83890725160256
 30
0.0
  0
SPLINE
  5
12D
330
1F
100
AcDbEntity
  8
0
  6
Continuous
 62
     7
370
    15
100
AcDbSpline
210
0.0
220
0.0
230
1.0
 70
     8
 71
     3
 72
    15
 73
    11
 74
     0
 42
0.000000001
 43
0.00000001
 40
0.0
 40
0.0
 40
0.0
 40
0.0
 40
0.0768750740350466
 40
0.1674616757257128
 40
0.2722700232466432
 40
0.3895508405125283
 40
0.5208013683480445
 40
0.6662632933752336
 40
0.8255449152058757
 40
1.0
 40
1.0
 40
1.0
 40
1.0
 10
117.1131159855769
 20
10.83890725160256
 30
0.0
 10
117.1058385277749
 20
10.84710361584023
 30
0.0
 10
117.0899855963295
 20
10.86495825737817
 30
0.0
 10
117.0609069131815
 20
10.89074386463123
 30
0.0
 10
117.0260890810421
 20
10.91853699743457
 30
0.0
 10
116.985140504668
 20
10.94786636740043
 30
0.0
 10
116.9379786356246
 20
10.97834510220117
 30
0.0
 10
116.8844123258067
 20
11.00981330031323
 30
0.0
 10
116.8251753959949
 20
11.04376559442132
 30
0.0
 10
116.7832920375851
 20
11.06628056748274
 30
0.0
 10
116.7613982371795
 20
11.07804987980769
 30
0.0
  0
SPLINE
  5
12E
330
1F
100
AcDbEntity
  8
0
  6
Continuous
 62
     7
370
    15
100
AcDbSpline
210
0.0
220
0.0
230
1.0
 70
     8
 71
     3
 72
    15
 73
    11
 74
     0
 42
0.000000001
 43
0.00000001
 40
0.0
 40
0.0
 40
0.0
 40
0.0
 40
0.1577616635135483
 40
0.3059502132085515
 40
0.4437754990007193
 40
0.5728243624015458
 40
0.6921541564432365
 40
0.802295706990839
 40
0.9055643918329935
 40
1.0
 40
1.0
 40
1.0
 40
1.0
 10
116.7613982371795
 20
11.07804987980769
 30
0.0
 10
116.7377702137152
 20
11.091238949246
 30
0.0
 10
116.6919479356306
 20
11.11681676401294
 30
0.0
 10
116.6270443217103
 20
11.15665492253299
 30
0.0
 10
116.5684906503831
 20
11.19717452170716
 30
0.0
 10
116.5148779863156
 20
11.23610259731231
 30
0.0
 10
116.4675605025939
 20
11.27549159646472
 30
0.0
 10
116.4267246066316
 20
11.31538524601019
 30
0.0
 10
116.3907625465557
 20
11.35417466195355
 30
0.0
 10
116.370853108771
 20
11.38165863816836
 30
0.0
 10
116.3613431490385
 20
11.39478665865384
 30
0.0
  0
SPLINE
  5
12F
330
1F
100
AcDbEntity
  8
0
  6
Continuous
 62
     7
370
    15
100
AcDbSpline
210
0.0
220
0.0
230
1.0
 70
     8
 71
     3
 72
    11
 73
     7
 74
     0
 42
0.000000001
 43
0.00000001
 40
0.0
 40
0.0
 40
0.0
 40
0.0
 40
0.246252370692976
 40
0.4925907964763721
 40
0.7405699911180886
 40
1.0
 40
1.0
 40
1.0
 40
1.0
 10
116.3613431490385
 20
11.39478665865384
 30
0.0
 10
116.3448961050645
 20
11.4212258951505
 30
0.0
 10
116.3119962695503
 20
11.47411360757117
 30
0.0
 10
116.2800510604101
 20
11.56238811146384
 30
0.0
 10
116.2580927342145
 20
11.65532041346973
 30
0.0
 10
116.256131137418
 20
11.71944348848367
 30
0.0
 10
116.2551282051282
 20
11.75222856570513
 30
0.0
  0
SPLINE
  5
130
330
1F
100
AcDbEntity
  8
0
  6
Continuous
 62
     7
370
    15
100
AcDbSpline
210
0.0
220
0.0
230
1.0
 70
     8
 71
     3
 72
    15
 73
    11
 74
     0
 42
0.000000001
 43
0.00000001
 40
0.0
 40
0.0
 40
0.0
 40
0.0
 40
0.1318667517023655
 40
0.2566614034533689
 40
0.3842132129425007
 40
0.5133652331525831
 40
0.6404431518253874
 40
0.7610850047778875
 40
0.8791455246531654
 40
1.0
 40
1.0
 40
1.0
 40
1.0
 10
118.1466446314103
 20
12.80865384615385
 30
0.0
 10
118.1291655532233
 20
12.80944280664066
 30
0.0
 10
118.0951448112195
 20
12.81097841514849
 30
0.0
 10
118.0458263185234
 20
12.8251026455236
 30
0.0
 10
118.000624760288
 20
12.84815865469333
 30
0.0
 10
117.9601075215194
 20
12.8792066940297
 30
0.0
 10
117.9263344177495
 20
12.91634956508805
 30
0.0
 10
117.9017523654255
 20
12.95837503880129
 30
0.0
 10
117.886262935715
 20
13.00392191477618
 30
0.0
 10
117.884317451186
 20
13.0355922370709
 30
0.0
 10
117.8833333333334
 20
13.05161258012821
 30
0.0
  0
SPLINE
  5
131
330
1F
100
AcDbEntity
  8
0
  6
Continuous
 62
     7
370
    15
100
AcDbSpline
210
0.0
220
0.0
230
1.0
 70
     8
 71
     3
 72
    15
 73
    11
 74
     0
 42
0.000000001
 43
0.00000001
 40
0.0
 40
0.0
 40
0.0
 40
0.0
 40
0.1232898687277962
 40
0.2421490813339692
 40
0.3634374760537338
 40
0.4897453933413771
 40
0.618114844593007
 40
0.7448937812572439
 40
0.8689322665891516
 40
1.0
 40
1.0
 40
1.0
 40
1.0
 10
117.8833333333334
 20
13.05161258012821
 30
0.0
 10
117.8842958904787
 20
13.06805985083925
 30
0.0
 10
117.8861864134459
 20
13.10036332828007
 30
0.0
 10
117.9017639759429
 20
13.14671382242502
 30
0.0
 10
117.9261296586983
 20
13.18933275620358
 30
0.0
 10
117.9601298841895
 20
13.22654874496856
 30
0.0
 10
118.0006188088633
 20
13.25761424650909
 30
0.0
 10
118.0458278562644
 20
13.28066563687177
 30
0.0
 10
118.0951444049864
 20
13.29479106615767
 30
0.0
 10
118.1291654153474
 20
13.29632650916099
 30
0.0
 10
118.1466446314103
 20
13.29711538461538
 30
0.0
  0
SPLINE
  5
132
330
1F
100
AcDbEntity
  8
0
  6
Continuous
 62
     7
370
    15
100
AcDbSpline
210
0.0
220
0.0
230
1.0
 70
     8
 71
     3
 72
    15
 73
    11
 74
     0
 42
0.000000001
 43
0.00000001
 40
0.0
 40
0.0
 40
0.0
 40
0.0
 40
0.1318992643310742
 40
0.2582840923169646
 40
0.384341124779093
 40
0.5119796151257079
 40
0.6386320084211341
 40
0.7592297631645823
 40
0.8774121680352011
 40
0.9999999999999999
 40
0.9999999999999999
 40
0.9999999999999999
 40
0.9999999999999999
 10
118.1466446314103
 20
13.29711538461538
 30
0.0
 10
118.1643260393038
 20
13.29629518922782
 30
0.0
 10
118.1989496318752
 20
13.29468908913111
 30
0.0
 10
118.2490178104101
 20
13.28093546349551
 30
0.0
 10
118.2946080999356
 20
13.25762217741371
 30
0.0
 10
118.3350464719142
 20
13.22634418116819
 30
0.0
 10
118.3697463976891
 20
13.18956004317301
 30
0.0
 10
118.3940403278153
 20
13.14668759336233
 30
0.0
 10
118.4096544300057
 20
13.10037011388958
 30
0.0
 10
118.4115399765789
 20
13.06806214013245
 30
0.0
 10
118.4125
 20
13.0516125801282
 30
0.0
  0
SPLINE
  5
133
330
1F
100
AcDbEntity
  8
0
  6
Continuous
 62
     7
370
    15
100
AcDbSpline
210
0.0
220
0.0
230
1.0
 70
     8
 71
     3
 72
    15
 73
    11
 74
     0
 42
0.000000001
 43
0.00000001
 40
0.0
 40
0.0
 40
0.0
 40
0.0
 40
0.1201621349925895
 40
0.2375463202768791
 40
0.3574970509273692
 40
0.484917122465276
 40
0.6133292680851364
 40
0.7401503701286989
 40
0.867301254563267
 40
1.0
 40
1.0
 40
1.0
 40
1.0
 10
118.4125
 20
13.0516125801282
 30
0.0
 10
118.4115183264446
 20
13.03559003047301
 30
0.0
 10
118.4095776740019
 20
13.0039153459954
 30
0.0
 10
118.394052388231
 20
12.95840083920501
 30
0.0
 10
118.3695393581881
 20
12.91612409633081
 30
0.0
 10
118.3350687227987
 20
12.87941138063825
 30
0.0
 10
118.2946022038899
 20
12.84815067536115
 30
0.0
 10
118.2490193767259
 20
12.82483280506873
 30
0.0
 10
118.1989492198591
 20
12.81108039474412
 30
0.0
 10
118.1643259000241
 20
12.80947412710244
 30
0.0
 10
118.1466446314103
 20
12.80865384615385
 30
0.0
  0
LINE
  5
134
330
1F
100
AcDbEntity
  8
0
  6
Continuous
 62
     7
370
    15
100
AcDbLine
 10
118.2903846154
 20
10.0
 30
0.0
 11
118.0054487179
 21
10.0
 31
0.0
  0
LINE
  5
135
330
1F
100
AcDbEntity
  8
0
  6
Continuous
 62
     7
370
    15
100
AcDbLine
 10
118.0054487179
 20
10.0
 30
0.0
 11
118.0054487179
 21
12.3201923077
 31
0.0
  0
LINE
  5
136
330
1F
100
AcDbEntity
  8
0
  6
Continuous
 62
     7
370
    15
100
AcDbLine
 10
118.0054487179
 20
12.3201923077
 30
0.0
 11
118.2903846154
 21
12.3201923077
 31
0.0
  0
LINE
  5
137
330
1F
100
AcDbEntity
  8
0
  6
Continuous
 62
     7
370
    15
100
AcDbLine
 10
118.2903846154
 20
12.3201923077
 30
0.0
 11
118.2903846154
 21
10.0
 31
0.0
  0
LINE
  5
138
330
1F
100
AcDbEntity
  8
0
  6
Continuous
 62
     7
370
    15
100
AcDbLine
 10
119.2673076923
 20
10.0
 30
0.0
 11
118.9823717949
 21
10.0
 31
0.0
  0
LINE
  5
139
330
1F
100
AcDbEntity
  8
0
  6
Continuous
 62
     7
370
    15
100
AcDbLine
 10
118.9823717949
 20
10.0
 30
0.0
 11
118.9823717949
 21
12.3201923077
 31
0.0
  0
LINE
  5
13A
330
1F
100
AcDbEntity
  8
0
  6
Continuous
 62
     7
370
    15
100
AcDbLine
 10
118.9823717949
 20
12.3201923077
 30
0.0
 11
119.2673076923
 21
12.3201923077
 31
0.0
  0
LINE
  5
13B
330
1F
100
AcDbEntity
  8
0
  6
Continuous
 62
     7
370
    15
100
AcDbLine
 10
119.2673076923
 20
12.3201923077
 30
0.0
 11
119.2673076923
 21
11.9016927083
 31
0.0
  0
SPLINE
  5
13C
330
1F
100
AcDbEntity
  8
0
  6
Continuous
 62
     7
370
    15
100
AcDbSpline
210
0.0
220
0.0
230
1.0
 70
     8
 71
     3
 72
    15
 73
    11
 74
     0
 42
0.000000001
 43
0.00000001
 40
0.0
 40
0.0
 40
0.0
 40
0.0
 40
0.1409759662687707
 40
0.2735687809631759
 40
0.3989883138042535
 40
0.519929781392431
 40
0.638110021524754
 40
0.7565889007405964
 40
0.8768597544106093
 40
1.0
 40
1.0
 40
1.0
 40
1.0
 10
119.2673076923077
 20
11.90169270833333
 30
0.0
 10
119.2977311184632
 20
11.93965003547889
 30
0.0
 10
119.3567688383412
 20
12.0133075530733
 30
0.0
 10
119.4550889120982
 20
12.11011835999566
 30
0.0
 10
119.5589965931051
 20
12.18989724271485
 30
0.0
 10
119.6678555534114
 20
12.25349139865007
 30
0.0
 10
119.7818135697163
 20
12.30143083808492
 30
0.0
 10
119.9001760003256
 20
12.3360527898555
 30
0.0
 10
120.0236514837054
 20
12.35681259860215
 30
0.0
 10
120.1076206514406
 20
12.35952516465958
 30
0.0
 10
120.1501001602564
 20
12.36089743589744
 30
0.0
  0
SPLINE
  5
13D
330
1F
100
AcDbEntity
  8
0
  6
Continuous
 62
     7
370
    15
100
AcDbSpline
210
0.0
220
0.0
230
1.0
 70
     8
 71
     3
 72
    23
 73
    19
 74
     0
 42
0.000000001
 43
0.00000001
 40
0.0
 40
0.0
 40
0.0
 40
0.0
 40
0.0772404236164825
 40
0.1511781404663827
 40
0.2234879838004036
 40
0.2955426441988709
 40
0.3669762546197929
 40
0.4371305254863884
 40
0.5070436156432694
 40
0.5785597335236775
 40
0.6166135446965532
 40
0.6587562369775294
 40
0.704491226114404
 40
0.7548031149051501
 40
0.8093316253185657
 40
0.8682744554728212
 40
0.9320728834092935
 40
1.0
 40
1.0
 40
1.0
 40
1.0
 10
120.1501001602564
 20
12.36089743589744
 30
0.0
 10
120.1930358069193
 20
12.35931429431864
 30
0.0
 10
120.2770712241051
 20
12.35621570437348
 30
0.0
 10
120.399424894073
 20
12.33170770600846
 30
0.0
 10
120.5137007583461
 20
12.2898473674311
 30
0.0
 10
120.6194913553824
 20
12.23250498927975
 30
0.0
 10
120.7148567560756
 20
12.16119768840631
 30
0.0
 10
120.798608585629
 20
12.0781235578105
 30
0.0
 10
120.8678809600358
 20
11.98256868230391
 30
0.0
 10
120.9143242821856
 20
11.89391981914643
 30
0.0
 10
120.9449182625909
 20
11.81528069862753
 30
0.0
 10
120.9641790259071
 20
11.7479282896093
 30
0.0
 10
120.9805357019452
 20
11.6728911096202
 30
0.0
 10
120.9947159305041
 20
11.590395910978
 30
0.0
 10
121.0043108819839
 20
11.49986469553479
 30
0.0
 10
121.0118785321586
 20
11.40166857488678
 30
0.0
 10
121.0173020619774
 20
11.29583935650865
 30
0.0
 10
121.017517242601
 20
11.22264505878683
 30
0.0
 10
121.0176282051282
 20
11.18490084134615
 30
0.0
  0
LINE
  5
13E
330
1F
100
AcDbEntity
  8
0
  6
Continuous
 62
     7
370
    15
100
AcDbLine
 10
121.0176282051
 20
11.1849008413
 30
0.0
 11
121.0176282051
 21
10.0
 31
0.0
  0
LINE
  5
13F
330
1F
100
AcDbEntity
  8
0
  6
Continuous
 62
     7
370
    15
100
AcDbLine
 10
121.0176282051
 20
10.0
 30
0.0
 11
120.7326923077
 21
10.0
 31
0.0
  0
LINE
  5
140
330
1F
100
AcDbEntity
  8
0
  6
Continuous
 62
     7
370
    15
100
AcDbLine
 10
120.7326923077
 20
10.0
 30
0.0
 11
120.7326923077
 21
11.09140625
 31
0.0
  0
SPLINE
  5
141
330
1F
100
AcDbEntity
  8
0
  6
Continuous
 62
     7
370
    15
100
AcDbSpline
210
0.0
220
0.0
230
1.0
 70
     8
 71
     3
 72
    15
 73
    11
 74
     0
 42
0.000000001
 43
0.00000001
 40
0.0
 40
0.0
 40
0.0
 40
0.0
 40
0.1788500194111608
 40
0.3421096489423008
 40
0.4898256633683922
 40
0.6232544282245651
 40
0.7400796760857957
 40
0.8414826730699845
 40
0.9289076721840664
 40
1.0
 40
1.0
 40
1.0
 40
1.0
 10
120.7326923076923
 20
11.09140625
 30
0.0
 10
120.732517040418
 20
11.12299518218537
 30
0.0
 10
120.7321817839507
 20
11.18341943338747
 30
0.0
 10
120.7311243758868
 20
11.26993276156728
 30
0.0
 10
120.728575479897
 20
11.34838844340409
 30
0.0
 10
120.7249937960375
 20
11.41859891240757
 30
0.0
 10
120.7197513897716
 20
11.48049674986148
 30
0.0
 10
120.7142880027613
 20
11.5342080223314
 30
0.0
 10
120.7076069166668
 20
11.57966453582402
 30
0.0
 10
120.7016534168924
 20
11.60702857484301
 30
0.0
 10
120.6989833733975
 20
11.61930088141025
 30
0.0
  0
SPLINE
  5
142
330
1F
100
AcDbEntity
  8
0
  6
Continuous
 62
     7
370
    15
100
AcDbSpline
210
0.0
220
0.0
230
1.0
 70
     8
 71
     3
 72
    15
 73
    11
 74
     0
 42
0.000000001
 43
0.00000001
 40
0.0
 40
0.0
 40
0.0
 40
0.0
 40
0.1355195283706071
 40
0.2608331631936783
 40
0.3784760291245001
 40
0.4931776464746775
 40
0.609280964928941
 40
0.7299810378566484
 40
0.8592613089300682
 40
1.0
 40
1.0
 40
1.0
 40
1.0
 10
120.6989833733975
 20
11.61930088141025
 30
0.0
 10
120.6893444983881
 20
11.65532459918419
 30
0.0
 10
120.6707926462046
 20
11.72465911037934
 30
0.0
 10
120.6249511043697
 20
11.81870655882879
 30
0.0
 10
120.567062526084
 20
11.89871491493109
 30
0.0
 10
120.4963980484456
 20
11.96418951240464
 30
0.0
 10
120.4136402441147
 20
12.01514448570133
 30
0.0
 10
120.3190187646039
 20
12.05049943034659
 30
0.0
 10
120.213446711994
 20
12.07261218883417
 30
0.0
 10
120.1391930934259
 20
12.07481394430522
 30
0.0
 10
120.1004907852564
 20
12.07596153846154
 30
0.0
  0
SPLINE
  5
143
330
1F
100
AcDbEntity
  8
0
  6
Continuous
 62
     7
370
    15
100
AcDbSpline
210
0.0
220
0.0
230
1.0
 70
     8
 71
     3
 72
    23
 73
    19
 74
     0
 42
0.000000001
 43
0.00000001
 40
0.0
 40
0.0
 40
0.0
 40
0.0
 40
0.0639861098164609
 40
0.1266268580894719
 40
0.1889843719814867
 40
0.2502301939603992
 40
0.3123511629623275
 40
0.3745736184579437
 40
0.4381475308782029
 40
0.502920412607369
 40
0.5679740951402691
 40
0.6307713337491887
 40
0.6929346089254614
 40
0.7543975343123275
 40
0.8152183520172943
 40
0.8761169254810909
 40
0.9380146047939537
 40
1.0
 40
1.0
 40
1.0
 40
1.0
 10
120.1004907852564
 20
12.07596153846154
 30
0.0
 10
120.0775693865577
 20
12.07552973423104
 30
0.0
 10
120.0322085307633
 20
12.0746752048156
 30
0.0
 10
119.9649439133912
 20
12.06610152732332
 30
0.0
 10
119.899698413437
 20
12.05207849974481
 30
0.0
 10
119.8358172238488
 20
12.03314766429915
 30
0.0
 10
119.7745780109606
 20
12.00714689150429
 30
0.0
 10
119.7140132611043
 20
11.97763810565741
 30
0.0
 10
119.6564035536437
 20
11.940855084785
 30
0.0
 10
119.6005204719629
 20
11.89986073533608
 30
0.0
 10
119.5485295678774
 20
11.8544317402354
 30
0.0
 10
119.5001531466049
 20
11.806494220311
 30
0.0
 10
119.4570293710915
 20
11.75544420829598
 30
0.0
 10
119.4179599299412
 20
11.7021042558946
 30
0.0
 10
119.3842339338773
 20
11.64574180285438
 30
0.0
 10
119.3547943468493
 20
11.5869006105486
 30
0.0
 10
119.3298155380026
 20
11.52550323268696
 30
0.0
 10
119.3174033812621
 20
11.48289014142763
 30
0.0
 10
119.3111929086539
 20
11.46156850961538
 30
0.0
  0
SPLINE
  5
144
330
1F
100
AcDbEntity
  8
0
  6
Continuous
 62
     7
370
    15
100
AcDbSpline
210
0.0
220
0.0
230
1.0
 70
     8
 71
     3
 72
    15
 73
    11
 74
     0
 42
0.000000001
 43
0.00000001
 40
0.0
 40
0.0
 40
0.0
 40
0.0
 40
0.0769954547170585
 40
0.1676150771831721
 40
0.2710523936342354
 40
0.3894595025720743
 40
0.5208428024655756
 40
0.6663987586080743
 40
0.8260936125153175
 40
1.0
 40
1.0
 40
1.0
 40
1.0
 10
119.3111929086539
 20
11.46156850961538
 30
0.0
 10
119.3076190845888
 20
11.44591557541649
 30
0.0
 10
119.2998390565506
 20
11.41183995649157
 30
0.0
 10
119.2914360291072
 20
11.35591966176413
 30
0.0
 10
119.2838091571357
 20
11.29123132730696
 30
0.0
 10
119.2774256303889
 20
11.21785043969202
 30
0.0
 10
119.2735200025905
 20
11.13552008154968
 30
0.0
 10
119.2692615140887
 20
11.04459185725605
 30
0.0
 10
119.2677111515499
 20
10.94470319281875
 30
0.0
 10
119.2674459446911
 20
10.875160085847
 30
0.0
 10
119.2673076923077
 20
10.83890725160256
 30
0.0
  0
LINE
  5
145
330
1F
100
AcDbEntity
  8
0
  6
Continuous
 62
     7
370
    15
100
AcDbLine
 10
119.2673076923
 20
10.8389072516
 30
0.0
 11
119.2673076923
 21
10.0
 31
0.0
  0
SPLINE
  5
146
330
1F
100
AcDbEntity
  8
0
  6
Continuous
 62
     7
370
    15
100
AcDbSpline
210
0.0
220
0.0
230
1.0
 70
     8
 71
     3
 72
    23
 73
    19
 74
     0
 42
0.000000001
 43
0.00000001
 40
0.0
 40
0.0
 40
0.0
 40
0.0
 40
0.0683846151037683
 40
0.1344755875434522
 40
0.1983910577839538
 40
0.2607534774484859
 40
0.3218292228076516
 40
0.3830372384795195
 40
0.444653123106426
 40
0.5073980112040091
 40
0.5698252379730236
 40
0.6307776406313147
 40
0.6909286865237128
 40
0.7509451326917347
 40
0.8110494767293212
 40
0.8723308525469916
 40
0.9350040935893994
 40
1.0
 40
1.0
 40
1.0
 40
1.0
 10
132.5371794871795
 20
11.09903846153846
 30
0.0
 10
132.5385761301545
 20
11.06846732611429
 30
0.0
 10
132.5413225722361
 20
11.0083504212842
 30
0.0
 10
132.5541270235371
 20
10.92038406805939
 30
0.0
 10
132.5743098397466
 20
10.83658825052524
 30
0.0
 10
132.6026753465686
 20
10.75759149102074
 30
0.0
 10
132.6370259847642
 20
10.68236201820331
 30
0.0
 10
132.6791044564199
 20
10.61145788466746
 30
0.0
 10
132.7293053375055
 20
10.54520204812221
 30
0.0
 10
132.7852993648041
 20
10.48300185901987
 30
0.0
 10
132.8476265155729
 20
10.42761102567487
 30
0.0
 10
132.9131972934092
 20
10.3780340572338
 30
0.0
 10
132.9829507416494
 20
10.33648183734357
 30
0.0
 10
133.0563368602475
 20
10.30275436592439
 30
0.0
 10
133.1332369796283
 20
10.27635077921362
 30
0.0
 10
133.2136753280547
 20
10.25832782759412
 30
0.0
 10
133.2974936193194
 20
10.24625638064335
 30
0.0
 10
133.3546306780491
 20
10.24491411292573
 30
0.0
 10
133.3837189503205
 20
10.24423076923077
 30
0.0
  0
SPLINE
  5
147
330
1F
100
AcDbEntity
  8
0
  6
Continuous
 62
     7
370
    15
100
AcDbSpline
210
0.0
220
0.0
230
1.0
 70
     8
 71
     3
 72
    19
 73
    15
 74
     0
 42
0.000000001
 43
0.00000001
 40
0.0
 40
0.0
 40
0.0
 40
0.0
 40
0.0825922633314241
 40
0.1638788940984792
 40
0.2456587396295088
 40
0.3277256953541289
 40
0.4086099609103128
 40
0.4857490859539325
 40
0.5591690561972843
 40
0.6302684758575516
 40
0.7053060284320597
 40
0.7920649660965958
 40
0.8897964374100853
 40
1.0
 40
1.0
 40
1.0
 40
1.0
 10
133.3837189503205
 20
10.24423076923077
 30
0.0
 10
133.4121589199327
 20
10.24478236348653
 30
0.0
 10
133.4685892752741
 20
10.24587683230212
 30
0.0
 10
133.5526277672926
 20
10.25651935148569
 30
0.0
 10
133.6353043385764
 20
10.27372810151338
 30
0.0
 10
133.7162768019688
 20
10.29721402108927
 30
0.0
 10
133.7939017836218
 20
10.32585873692896
 30
0.0
 10
133.8657888183203
 20
10.36042347208205
 30
0.0
 10
133.9319015853525
 20
10.39865931377027
 30
0.0
 10
133.9936934050415
 20
10.44239237613563
 30
0.0
 10
134.0536292347251
 20
10.49592123148837
 30
0.0
 10
134.1130856331156
 20
10.56271934981372
 30
0.0
 10
134.176836597238
 20
10.64172017858884
 30
0.0
 10
134.2167414420842
 20
10.70117946129738
 30
0.0
 10
134.2378906250001
 20
10.73269230769231
 30
0.0
  0
LINE
  5
148
330
1F
100
AcDbEntity
  8
0
  6
Continuous
 62
     7
370
    15
100
AcDbLine
 10
134.237890625
 20
10.7326923077
 30
0.0
 11
134.491025641
 21
10.5997646234
 31
0.0
  0
SPLINE
  5
149
330
1F
100
AcDbEntity
  8
0
  6
Continuous
 62
     7
370
    15
100
AcDbSpline
210
0.0
220
0.0
230
1.0
 70
     8
 71
     3
 72
    19
 73
    15
 74
     0
 42
0.000000001
 43
0.00000001
 40
0.0
 40
0.0
 40
0.0
 40
0.0
 40
0.0933698567362019
 40
0.1816607660710118
 40
0.2658742270426184
 40
0.3463547840343196
 40
0.4245998617178918
 40
0.5019031838373846
 40
0.5799920909873517
 40
0.6584434305294391
 40
0.7386722364878308
 40
0.8218941484362524
 40
0.9088007920466179
 40
1.0
 40
1.0
 40
1.0
 40
1.0
 10
134.4910256410257
 20
10.59976462339743
 30
0.0
 10
134.4708538724865
 20
10.56398388716911
 30
0.0
 10
134.4316075990754
 20
10.49436874389876
 30
0.0
 10
134.3641154920602
 20
10.39872698475624
 30
0.0
 10
134.2933655405072
 20
10.31268655681677
 30
0.0
 10
134.2161640838182
 20
10.23854608471641
 30
0.0
 10
134.1348208750528
 20
10.17391089977551
 30
0.0
 10
134.0488848239258
 20
10.11736158735191
 30
0.0
 10
133.9579085392658
 20
10.06917550103819
 30
0.0
 10
133.8618877175027
 20
10.02857856503933
 30
0.0
 10
133.7600159818244
 20
9.997364238241417
 30
0.0
 10
133.6520464633667
 20
9.975316837834518
 30
0.0
 10
133.5377723211302
 20
9.961688586987329
 30
0.0
 10
133.4594440008216
 20
9.960105494996712
 30
0.0
 10
133.4193359375
 20
9.959294871794869
 30
0.0
  0
SPLINE
  5
14A
330
1F
100
AcDbEntity
  8
0
  6
Continuous
 62
     7
370
    15
100
AcDbSpline
210
0.0
220
0.0
230
1.0
 70
     8
 71
     3
 72
    23
 73
    19
 74
     0
 42
0.000000001
 43
0.00000001
 40
0.0
 40
0.0
 40
0.0
 40
0.0
 40
0.0715786576891423
 40
0.1396292246928492
 40
0.2047966973966681
 40
0.2681349633966843
 40
0.3298137469867347
 40
0.3913013977745654
 40
0.4534335150970589
 40
0.5165516903197732
 40
0.5796312707049229
 40
0.6411189214927562
 40
0.7012940466987764
 40
0.7608103356761373
 40
0.819931721778144
 40
0.8789195754993845
 40
0.9389828222504475
 40
1.0
 40
1.0
 40
1.0
 40
1.0
 10
133.4193359375
 20
9.959294871794869
 30
0.0
 10
133.3747571435929
 20
9.960335523700982
 30
0.0
 10
133.2877968312323
 20
9.962365534091184
 30
0.0
 10
133.1612143463514
 20
9.979866555399594
 30
0.0
 10
133.0420344453764
 20
10.00841648078599
 30
0.0
 10
132.9302638287628
 20
10.04829950771023
 30
0.0
 10
132.8261762139247
 20
10.10039429456356
 30
0.0
 10
132.7295647242024
 20
10.16385753877122
 30
0.0
 10
132.6399212971641
 20
10.23836322695298
 30
0.0
 10
132.5600707645461
 20
10.32455671497328
 30
0.0
 10
132.4881852423731
 20
10.41679677623413
 30
0.0
 10
132.4247525342523
 20
10.51291390001782
 30
0.0
 10
132.3717232932289
 20
10.61266625364774
 30
0.0
 10
132.3285862825513
 20
10.71541880045867
 30
0.0
 10
132.2937475836145
 20
10.8205239038871
 30
0.0
 10
132.269466359481
 20
10.92893787803916
 30
0.0
 10
132.2554693738116
 20
11.04036730088561
 30
0.0
 10
132.2533244839313
 20
11.11574845542957
 30
0.0
 10
132.2522435897436
 20
11.1537359775641
 30
0.0
  0
SPLINE
  5
14B
330
1F
100
AcDbEntity
  8
0
  6
Continuous
 62
     7
370
    15
100
AcDbSpline
210
0.0
220
0.0
230
1.0
 70
     8
 71
     3
 72
    15
 73
    11
 74
     0
 42
0.000000001
 43
0.00000001
 40
0.0
 40
0.0
 40
0.0
 40
0.0
 40
0.128044807961119
 40
0.2537679000244887
 40
0.3774284265813019
 40
0.5005508414825333
 40
0.6232958832424751
 40
0.7465783319335029
 40
0.8723475406047054
 40
1.0
 40
1.0
 40
1.0
 40
1.0
 10
132.2522435897436
 20
11.1537359775641
 30
0.0
 10
132.2532043822363
 20
11.18938200230004
 30
0.0
 10
132.2551085460765
 20
11.26002771598028
 30
0.0
 10
132.2671107603551
 20
11.3645900313756
 30
0.0
 10
132.288381711924
 20
11.46621584188365
 30
0.0
 10
132.3175702343635
 20
11.56498959111256
 30
0.0
 10
132.3552631505441
 20
11.66074589836956
 30
0.0
 10
132.4013752351187
 20
11.75354304179912
 30
0.0
 10
132.4559783206843
 20
11.84328227581542
 30
0.0
 10
132.4981356747348
 20
11.89989083282178
 30
0.0
 10
132.5193709935898
 20
11.92840544871795
 30
0.0
  0
SPLINE
  5
14C
330
1F
100
AcDbEntity
  8
0
  6
Continuous
 62
     7
370
    15
100
AcDbSpline
210
0.0
220
0.0
230
1.0
 70
     8
 71
     3
 72
    15
 73
    11
 74
     0
 42
0.000000001
 43
0.00000001
 40
0.0
 40
0.0
 40
0.0
 40
0.0
 40
0.1288352544875554
 40
0.2535893349864604
 40
0.3746432573141587
 40
0.4953400422377849
 40
0.6163247746357895
 40
0.7397593354404955
 40
0.8668423203805368
 40
1.0
 40
1.0
 40
1.0
 40
1.0
 10
132.5193709935898
 20
11.92840544871795
 30
0.0
 10
132.5481343915364
 20
11.96275792372639
 30
0.0
 10
132.6047500359597
 20
12.03037467449217
 30
0.0
 10
132.7005047297449
 20
12.11921872716552
 30
0.0
 10
132.8041913364269
 20
12.19364415179042
 30
0.0
 10
132.9145104543892
 20
12.25533633957294
 30
0.0
 10
133.0327442558585
 20
12.30221171934496
 30
0.0
 10
133.1573033984426
 20
12.33714359751282
 30
0.0
 10
133.2896061802338
 20
12.356717936093
 30
0.0
 10
133.3800530591371
 20
12.35948275659295
 30
0.0
 10
133.4263321314103
 20
12.36089743589744
 30
0.0
  0
SPLINE
  5
14D
330
1F
100
AcDbEntity
  8
0
  6
Continuous
 62
     7
370
    15
100
AcDbSpline
210
0.0
220
0.0
230
1.0
 70
     8
 71
     3
 72
    15
 73
    11
 74
     0
 42
0.000000001
 43
0.00000001
 40
0.0
 40
0.0
 40
0.0
 40
0.0
 40
0.1320402344259799
 40
0.2590328407793645
 40
0.3818798239250089
 40
0.5022584437149753
 40
0.6227521895274665
 40
0.7447426318590069
 40
0.8701089273418204
 40
1.0
 40
1.0
 40
1.0
 40
1.0
 10
133.4263321314103
 20
12.36089743589744
 30
0.0
 10
133.4739096019358
 20
12.35966912011638
 30
0.0
 10
133.5672457536087
 20
12.35725944455405
 30
0.0
 10
133.7033463205492
 20
12.3349198421044
 30
0.0
 10
133.8321249705539
 20
12.29949359617903
 30
0.0
 10
133.9535301708911
 20
12.24946122908212
 30
0.0
 10
134.0675742302884
 20
12.18490934995799
 30
0.0
 10
134.1735158609739
 20
12.10495210804313
 30
0.0
 10
134.273166875929
 20
12.01204427177468
 30
0.0
 10
134.3311410867449
 20
11.94059478893706
 30
0.0
 10
134.3606420272436
 20
11.90423677884615
 30
0.0
  0
SPLINE
  5
14E
330
1F
100
AcDbEntity
  8
0
  6
Continuous
 62
     7
370
    15
100
AcDbSpline
210
0.0
220
0.0
230
1.0
 70
     8
 71
     3
 72
    15
 73
    11
 74
     0
 42
0.000000001
 43
0.00000001
 40
0.0
 40
0.0
 40
0.0
 40
0.0
 40
0.1185218400132627
 40
0.2362547631617526
 40
0.3561744339909396
 40
0.4772496548985591
 40
0.6015398708217041
 40
0.7296183821680466
 40
0.8621582661414393
 40
1.0
 40
1.0
 40
1.0
 40
1.0
 10
134.3606420272436
 20
11.90423677884615
 30
0.0
 10
134.3807143212842
 20
11.87683781573144
 30
0.0
 10
134.4207253021646
 20
11.82222226520659
 30
0.0
 10
134.4708423143393
 20
11.73316700126526
 30
0.0
 10
134.514346522646
 20
11.63999381924763
 30
0.0
 10
134.5491199944236
 20
11.54119662117584
 30
0.0
 10
134.5772772562234
 20
11.43794600201898
 30
0.0
 10
134.5976487989377
 20
11.32950383645671
 30
0.0
 10
134.6095955243655
 20
11.21590241686507
 30
0.0
 10
134.6119438426744
 20
11.13849904153978
 30
0.0
 10
134.613141025641
 20
11.09903846153846
 30
0.0
  0
LINE
  5
14F
330
1F
100
AcDbEntity
  8
0
  6
Continuous
 62
     7
370
    15
100
AcDbLine
 10
134.6131410256
 20
11.0990384615
 30
0.0
 11
132.5371794872
 21
11.0990384615
 31
0.0
  0
LINE
  5
150
330
1F
100
AcDbEntity
  8
0
  6
Continuous
 62
     7
370
    15
100
AcDbLine
 10
135.3865384615
 20
10.0
 30
0.0
 11
135.1016025641
 21
10.0
 31
0.0
  0
LINE
  5
151
330
1F
100
AcDbEntity
  8
0
  6
Continuous
 62
     7
370
    15
100
AcDbLine
 10
135.1016025641
 20
10.0
 30
0.0
 11
135.1016025641
 21
12.3201923077
 31
0.0
  0
LINE
  5
152
330
1F
100
AcDbEntity
  8
0
  6
Continuous
 62
     7
370
    15
100
AcDbLine
 10
135.1016025641
 20
12.3201923077
 30
0.0
 11
135.3865384615
 21
12.3201923077
 31
0.0
  0
LINE
  5
153
330
1F
100
AcDbEntity
  8
0
  6
Continuous
 62
     7
370
    15
100
AcDbLine
 10
135.3865384615
 20
12.3201923077
 30
0.0
 11
135.3865384615
 21
11.9786508413
 31
0.0
  0
SPLINE
  5
154
330
1F
100
AcDbEntity
  8
0
  6
Continuous
 62
     7
370
    15
100
AcDbSpline
210
0.0
220
0.0
230
1.0
 70
     8
 71
     3
 72
    15
 73
    11
 74
     0
 42
0.000000001
 43
0.00000001
 40
0.0
 40
0.0
 40
0.0
 40
0.0
 40
0.1600594124855001
 40
0.3061123827401339
 40
0.4383665141302093
 40
0.56054145525521
 40
0.675317224952707
 40
0.7861136344281857
 40
0.8928417881050972
 40
1.0
 40
1.0
 40
1.0
 40
1.0
 10
135.3865384615385
 20
11.97865084134616
 30
0.0
 10
135.4075739784057
 20
12.01045148561321
 30
0.0
 10
135.4478042409714
 20
12.07126997068757
 30
0.0
 10
135.5146723983138
 20
12.15170569373018
 30
0.0
 10
135.5831647059734
 20
12.21830362887052
 30
0.0
 10
135.653609054455
 20
12.27137467804037
 30
0.0
 10
135.7265234736592
 20
12.31111943583055
 30
0.0
 10
135.800307708432
 20
12.34023240332345
 30
0.0
 10
135.8761225989456
 20
12.35744753928874
 30
0.0
 10
135.9270694873523
 20
12.35974592991429
 30
0.0
 10
135.952594150641
 20
12.36089743589744
 30
0.0
  0
SPLINE
  5
155
330
1F
100
AcDbEntity
  8
0
  6
Continuous
 62
     7
370
    15
100
AcDbSpline
210
0.0
220
0.0
230
1.0
 70
     8
 71
     3
 72
    11
 73
     7
 74
     0
 42
0.000000001
 43
0.00000001
 40
0.0
 40
0.0
 40
0.0
 40
0.0
 40
0.2252775478670208
 40
0.4635231951764775
 40
0.7203235553269757
 40
1.0
 40
1.0
 40
1.0
 40
1.0
 10
135.952594150641
 20
12.36089743589744
 30
0.0
 10
135.9723937468111
 20
12.35981745820062
 30
0.0
 10
136.0131327026762
 20
12.35759533390333
 30
0.0
 10
136.0748026234272
 20
12.34198265726392
 30
0.0
 10
136.1383420405166
 20
12.31705616537657
 30
0.0
 10
136.1792926346653
 20
12.29361539195904
 30
0.0
 10
136.200641025641
 20
12.28139523237179
 30
0.0
  0
LINE
  5
156
330
1F
100
AcDbEntity
  8
0
  6
Continuous
 62
     7
370
    15
100
AcDbLine
 10
136.2006410256
 20
12.2813952324
 30
0.0
 11
136.0441806891
 21
12.0346203926
 31
0.0
  0
SPLINE
  5
157
330
1F
100
AcDbEntity
  8
0
  6
Continuous
 62
     7
370
    15
100
AcDbSpline
210
0.0
220
0.0
230
1.0
 70
     8
 71
     3
 72
    11
 73
     7
 74
     0
 42
0.000000001
 43
0.00000001
 40
0.0
 40
0.0
 40
0.0
 40
0.0
 40
0.295138801369311
 40
0.5602299448881756
 40
0.7949833567409171
 40
1.0
 40
1.0
 40
1.0
 40
1.0
 10
136.0441806891025
 20
12.0346203926282
 30
0.0
 10
136.0304746484935
 20
12.0407347768898
 30
0.0
 10
136.0044579596019
 20
12.05234104872531
 30
0.0
 10
135.9663991744867
 20
12.06607701505937
 30
0.0
 10
135.9313096761665
 20
12.07416502443587
 30
0.0
 10
135.9089544482231
 20
12.07539031812458
 30
0.0
 10
135.8985326522436
 20
12.07596153846154
 30
0.0
  0
SPLINE
  5
158
330
1F
100
AcDbEntity
  8
0
  6
Continuous
 62
     7
370
    15
100
AcDbSpline
210
0.0
220
0.0
230
1.0
 70
     8
 71
     3
 72
    19
 73
    15
 74
     0
 42
0.000000001
 43
0.00000001
 40
0.0
 40
0.0
 40
0.0
 40
0.0
 40
0.0938065293523269
 40
0.1913381281363307
 40
0.2951906166251684
 40
0.4103123367233041
 40
0.4719302510512777
 40
0.5364251593464349
 40
0.6031187283036407
 40
0.674117672490599
 40
0.7493320232258865
 40
0.8282833841715633
 40
0.9120398092627651
 40
0.9999999999999999
 40
0.9999999999999999
 40
0.9999999999999999
 40
0.9999999999999999
 10
135.8985326522436
 20
12.07596153846154
 30
0.0
 10
135.87566745113
 20
12.07443750456291
 30
0.0
 10
135.8290290688049
 20
12.07132891718212
 30
0.0
 10
135.7605538443403
 20
12.04689157013635
 30
0.0
 10
135.6941081650641
 20
12.00740795946228
 30
0.0
 10
135.6413381570879
 20
11.96361916514043
 30
0.0
 10
135.6004783991228
 20
11.92139366315487
 30
0.0
 10
135.5713226231057
 20
11.88451975511196
 30
0.0
 10
135.5445775597976
 20
11.8431734250826
 30
0.0
 10
135.5190231455772
 20
11.79806149763242
 30
0.0
 10
135.495740150116
 20
11.74841370873174
 30
0.0
 10
135.4740098430527
 20
11.6947260794133
 30
0.0
 10
135.4543621602587
 20
11.63693642688643
 30
0.0
 10
135.4431587244268
 20
11.59667514068661
 30
0.0
 10
135.4374198717949
 20
11.57605168269231
 30
0.0
  0
SPLINE
  5
159
330
1F
100
AcDbEntity
  8
0
  6
Continuous
 62
     7
370
    15
100
AcDbSpline
210
0.0
220
0.0
230
1.0
 70
     8
 71
     3
 72
    15
 73
    11
 74
     0
 42
0.000000001
 43
0.00000001
 40
0.0
 40
0.0
 40
0.0
 40
0.0
 40
0.0708548685015339
 40
0.1569381495573536
 40
0.2586003949600846
 40
0.3758909295892028
 40
0.5081661676989037
 40
0.6562378085782232
 40
0.8201767703979104
 40
1.0
 40
1.0
 40
1.0
 40
1.0
 10
135.4374198717949
 20
11.57605168269231
 30
0.0
 10
135.4331269149565
 20
11.55765738951724
 30
0.0
 10
135.4236183417761
 20
11.51691542789396
 30
0.0
 10
135.4143731610179
 20
11.44856355189635
 30
0.0
 10
135.4052386697107
 20
11.36780637573187
 30
0.0
 10
135.398801023064
 20
11.27441910933036
 30
0.0
 10
135.3928337991342
 20
11.16863496376696
 30
0.0
 10
135.3894682245425
 20
11.05029278452268
 30
0.0
 10
135.3866532327516
 20
10.91927110170097
 30
0.0
 10
135.386577879233
 20
10.82767293841174
 30
0.0
 10
135.3865384615384
 20
10.77975761217949
 30
0.0
  0
LINE
  5
15A
330
1F
100
AcDbEntity
  8
0
  6
Continuous
 62
     7
370
    15
100
AcDbLine
 10
135.3865384615
 20
10.7797576122
 30
0.0
 11
135.3865384615
 21
10.0
 31
0.0
  0
LINE
  5
15B
330
1F
100
AcDbEntity
  8
0
  6
Continuous
 62
     7
370
    15
100
AcDbLine
 10
138.4699519231
 20
10.0
 30
0.0
 11
138.4292467949
 21
10.0
 31
0.0
  0
LINE
  5
15C
330
1F
100
AcDbEntity
  8
0
  6
Continuous
 62
     7
370
    15
100
AcDbLine
 10
138.4292467949
 20
10.0
 30
0.0
 11
137.5846153846
 21
13.175
 31
0.0
  0
LINE
  5
15D
330
1F
100
AcDbEntity
  8
0
  6
Continuous
 62
     7
370
    15
100
AcDbLine
 10
137.5846153846
 20
13.175
 30
0.0
 11
137.8790915465
 21
13.175
 31
0.0
  0
LINE
  5
15E
330
1F
100
AcDbEntity
  8
0
  6
Continuous
 62
     7
370
    15
100
AcDbLine
 10
137.8790915465
 20
13.175
 30
0.0
 11
138.5004807692
 21
10.8465394631
 31
0.0
  0
LINE
  5
15F
330
1F
100
AcDbEntity
  8
0
  6
Continuous
 62
     7
370
    15
100
AcDbLine
 10
138.5004807692
 20
10.8465394631
 30
0.0
 11
139.424614383
 21
13.175
 31
0.0
  0
LINE
  5
160
330
1F
100
AcDbEntity
  8
0
  6
Continuous
 62
     7
370
    15
100
AcDbLine
 10
139.424614383
 20
13.175
 30
0.0
 11
139.4659555288
 21
13.175
 31
0.0
  0
LINE
  5
161
330
1F
100
AcDbEntity
  8
0
  6
Continuous
 62
     7
370
    15
100
AcDbLine
 10
139.4659555288
 20
13.175
 30
0.0
 11
140.3729166667
 21
10.8624399038
 31
0.0
  0
LINE
  5
162
330
1F
100
AcDbEntity
  8
0
  6
Continuous
 62
     7
370
    15
100
AcDbLine
 10
140.3729166667
 20
10.8624399038
 30
0.0
 11
140.9974859776
 21
13.175
 31
0.0
  0
LINE
  5
163
330
1F
100
AcDbEntity
  8
0
  6
Continuous
 62
     7
370
    15
100
AcDbLine
 10
140.9974859776
 20
13.175
 30
0.0
 11
141.2887820513
 21
13.175
 31
0.0
  0
LINE
  5
164
330
1F
100
AcDbEntity
  8
0
  6
Continuous
 62
     7
370
    15
100
AcDbLine
 10
141.2887820513
 20
13.175
 30
0.0
 11
140.4327023237
 21
10.0
 31
0.0
  0
LINE
  5
165
330
1F
100
AcDbEntity
  8
0
  6
Continuous
 62
     7
370
    15
100
AcDbLine
 10
140.4327023237
 20
10.0
 30
0.0
 11
140.3919971955
 21
10.0
 31
0.0
  0
LINE
  5
166
330
1F
100
AcDbEntity
  8
0
  6
Continuous
 62
     7
370
    15
100
AcDbLine
 10
140.3919971955
 20
10.0
 30
0.0
 11
139.4366987179
 21
12.4283153045
 31
0.0
  0
LINE
  5
167
330
1F
100
AcDbEntity
  8
0
  6
Continuous
 62
     7
370
    15
100
AcDbLine
 10
139.4366987179
 20
12.4283153045
 30
0.0
 11
138.4699519231
 21
10.0
 31
0.0
  0
LINE
  5
168
330
1F
100
AcDbEntity
  8
0
  6
Continuous
 62
     7
370
    15
100
AcDbLine
 10
148.7416366186
 20
10.0
 30
0.0
 11
147.8830128205
 21
10.0
 31
0.0
  0
LINE
  5
169
330
1F
100
AcDbEntity
  8
0
  6
Continuous
 62
     7
370
    15
100
AcDbLine
 10
147.8830128205
 20
10.0
 30
0.0
 11
147.8830128205
 21
13.175
 31
0.0
  0
LINE
  5
16A
330
1F
100
AcDbEntity
  8
0
  6
Continuous
 62
     7
370
    15
100
AcDbLine
 10
147.8830128205
 20
13.175
 30
0.0
 11
148.5024939904
 21
13.175
 31
0.0
  0
SPLINE
  5
16B
330
1F
100
AcDbEntity
  8
0
  6
Continuous
 62
     7
370
    15
100
AcDbSpline
210
0.0
220
0.0
230
1.0
 70
     8
 71
     3
 72
    23
 73
    19
 74
     0
 42
0.000000001
 43
0.00000001
 40
0.0
 40
0.0
 40
0.0
 40
0.0
 40
0.0625940971873276
 40
0.1213229386347557
 40
0.1766801421977574
 40
0.2283650957096671
 40
0.2768684458368118
 40
0.3218791276660403
 40
0.3640986251098891
 40
0.4033556962426971
 40
0.4779679481633695
 40
0.5505354613647685
 40
0.6235844567403172
 40
0.6981748822642029
 40
0.773353670340876
 40
0.8472811254977345
 40
0.9228183395566704
 40
1.0
 40
1.0
 40
1.0
 40
1.0
 10
148.5024939903846
 20
13.175
 30
0.0
 10
148.5328183955978
 20
13.1748405692784
 30
0.0
 10
148.5915946399745
 20
13.17453155286116
 30
0.0
 10
148.6770651336334
 20
13.16973899817783
 30
0.0
 10
148.7571194118573
 20
13.16320424050221
 30
0.0
 10
148.831780691061
 20
13.15283551360353
 30
0.0
 10
148.9010144710872
 20
13.14032440147883
 30
0.0
 10
148.965029399153
 20
13.12517346831118
 30
0.0
 10
149.0236219125678
 20
13.10700646877764
 30
0.0
 10
149.0935741805933
 20
13.07811734223105
 30
0.0
 10
149.1733307801049
 20
13.03518846808525
 30
0.0
 10
149.2596893220568
 20
12.97175326970006
 30
0.0
 10
149.3335345963328
 20
12.89416310672657
 30
0.0
 10
149.397203612687
 20
12.80663955502023
 30
0.0
 10
149.447823199763
 20
12.71035924778896
 30
0.0
 10
149.4844439194708
 20
12.60761698368363
 30
0.0
 10
149.5076285635461
 20
12.49973797494233
 30
0.0
 10
149.5100129288706
 20
12.42567594929502
 30
0.0
 10
149.5112179487179
 20
12.38824619391025
 30
0.0
  0
SPLINE
  5
16C
330
1F
100
AcDbEntity
  8
0
  6
Continuous
 62
     7
370
    15
100
AcDbSpline
210
0.0
220
0.0
230
1.0
 70
     8
 71
     3
 72
    15
 73
    11
 74
     0
 42
0.000000001
 43
0.00000001
 40
0.0
 40
0.0
 40
0.0
 40
0.0
 40
0.1305691070873067
 40
0.2565806086940832
 40
0.3805516168036842
 40
0.5036229172007012
 40
0.6257393231697796
 40
0.74754858195961
 40
0.8717661185648553
 40
1.0
 40
1.0
 40
1.0
 40
1.0
 10
149.5112179487179
 20
12.38824619391025
 30
0.0
 10
149.5102262434165
 20
12.35318280411668
 30
0.0
 10
149.5082774489768
 20
12.28427993653333
 30
0.0
 10
149.4896422315821
 20
12.18350170882602
 30
0.0
 10
149.4604679109262
 20
12.08757024603264
 30
0.0
 10
149.4199138634703
 20
11.99683565354731
 30
0.0
 10
149.3672070526335
 20
11.91334801876519
 30
0.0
 10
149.3047427207015
 20
11.83643385599576
 30
0.0
 10
149.2293801927276
 20
11.76934968286462
 30
0.0
 10
149.1729166821671
 20
11.73184576412218
 30
0.0
 10
149.1442357772436
 20
11.71279547275641
 30
0.0
  0
SPLINE
  5
16D
330
1F
100
AcDbEntity
  8
0
  6
Continuous
 62
     7
370
    15
100
AcDbSpline
210
0.0
220
0.0
230
1.0
 70
     8
 71
     3
 72
    19
 73
    15
 74
     0
 42
0.000000001
 43
0.00000001
 40
0.0
 40
0.0
 40
0.0
 40
0.0
 40
0.1060574933034093
 40
0.2029142570846059
 40
0.2903001653958359
 40
0.3702225656250361
 40
0.4463837207709682
 40
0.521396899964828
 40
0.598291082846457
 40
0.6761424688569287
 40
0.7555286995560215
 40
0.8348871724576581
 40
0.9166460487466429
 40
1.0
 40
1.0
 40
1.0
 40
1.0
 10
149.1442357772436
 20
11.71279547275641
 30
0.0
 10
149.1803041651332
 20
11.69894793800313
 30
0.0
 10
149.2493119259701
 20
11.67245417373061
 30
0.0
 10
149.3442770943906
 20
11.62561343139041
 30
0.0
 10
149.4260967037799
 20
11.57466637410682
 30
0.0
 10
149.4953998290664
 20
11.5190296243336
 30
0.0
 10
149.5546704160266
 20
11.45905948883114
 30
0.0
 10
149.6064255844534
 20
11.39387663519156
 30
0.0
 10
149.6505865452994
 20
11.32263076197421
 30
0.0
 10
149.6884261259624
 20
11.2460646977526
 30
0.0
 10
149.7179524975004
 20
11.1649602586003
 30
0.0
 10
149.7400649250359
 20
11.08007819742625
 30
0.0
 10
149.7527353967519
 20
10.9917228866428
 30
0.0
 10
149.7545384713401
 20
10.93159257824288
 30
0.0
 10
149.7554487179487
 20
10.90123697916667
 30
0.0
  0
SPLINE
  5
16E
330
1F
100
AcDbEntity
  8
0
  6
Continuous
 62
     7
370
    15
100
AcDbSpline
210
0.0
220
0.0
230
1.0
 70
     8
 71
     3
 72
    23
 73
    19
 74
     0
 42
0.000000001
 43
0.00000001
 40
0.0
 40
0.0
 40
0.0
 40
0.0
 40
0.0611602766365173
 40
0.1203345577262033
 40
0.178180255063126
 40
0.2352351259863649
 40
0.2926829614441794
 40
0.351186248215084
 40
0.4104566095096922
 40
0.4717198544629987
 40
0.5337612027725825
 40
0.5957390238870969
 40
0.657887515124884
 40
0.7212951802914611
 40
0.7868225145418926
 40
0.8546861538286763
 40
0.9254779862700002
 40
1.0
 40
1.0
 40
1.0
 40
1.0
 10
149.7554487179487
 20
10.90123697916667
 30
0.0
 10
149.7545625790561
 20
10.87024274517039
 30
0.0
 10
149.7528190759592
 20
10.80926072145962
 30
0.0
 10
149.7399558158293
 20
10.71967570654596
 30
0.0
 10
149.7181761259161
 20
10.63406414783291
 30
0.0
 10
149.6881758717139
 20
10.55187230352264
 30
0.0
 10
149.6490214863283
 20
10.47325918153852
 30
0.0
 10
149.6013711186847
 20
10.39813572063649
 30
0.0
 10
149.5445553431125
 20
10.32725672072318
 30
0.0
 10
149.480998311992
 20
10.25983457690834
 30
0.0
 10
149.40909622287
 20
10.19921222696439
 30
0.0
 10
149.3315212166189
 20
10.14522297876064
 30
0.0
 10
149.2472963407153
 20
10.1008219081273
 30
0.0
 10
149.1578048890004
 20
10.06352380290687
 30
0.0
 10
149.0620429736682
 20
10.03503298715644
 30
0.0
 10
148.9604406084204
 20
10.01510072369063
 30
0.0
 10
148.8530854203272
 20
10.00167044012762
 30
0.0
 10
148.7794165746761
 20
10.00056626140149
 30
0.0
 10
148.7416366185898
 20
10.0
 30
0.0
  0
MTEXT
  5
170
330
1F
100
AcDbEntity
  8
0
  6
Continuous
 62
     7
100
AcDbMText
 10
-3.4
 20
-4.4195663917
 30
0.0
 40
4.83362
 41
0.0
 71
     1
 72
     1
  1
SOLIDWORKS Educational Product.
  7
SLDTEXTSTYLE0
 73
     1
 44
1.0
  0
MTEXT
  5
171
330
1F
100
AcDbEntity
  8
0
  6
Continuous
 62
     7
100
AcDbMText
 10
-3.4
 20
-11.6699963917
 30
0.0
 40
4.83362
 41
0.0
 71
     1
 72
     1
  1
For Instructional Use Only.
  7
SLDTEXTSTYLE0
 73
     1
 44
1.0
  0
ENDSEC
  0
SECTION
  2
OBJECTS
  0
DICTIONARY
  5
C
330
0
100
AcDbDictionary
281
     1
  3
ACAD_GROUP
350
D
  3
ACAD_LAYOUT
350
1A
  3
ACAD_MLINESTYLE
350
17
  3
ACAD_PLOTSETTINGS
350
19
  3
ACAD_PLOTSTYLENAME
350
E
  3
ACAD_SCALELIST
350
47
  0
DICTIONARY
  5
D
102
{ACAD_REACTORS
330
C
102
}
330
C
100
AcDbDictionary
281
     1
  0
DICTIONARY
  5
1A
102
{ACAD_REACTORS
330
C
102
}
330
C
100
AcDbDictionary
281
     1
  3
Layout1
350
1E
  3
Layout2
350
26
  3
Model
350
22
  0
DICTIONARY
  5
17
102
{ACAD_REACTORS
330
C
102
}
330
C
100
AcDbDictionary
281
     1
  3
Standard
350
18
  0
DICTIONARY
  5
19
102
{ACAD_REACTORS
330
C
102
}
330
C
100
AcDbDictionary
281
     1
  0
ACDBDICTIONARYWDFLT
  5
E
102
{ACAD_REACTORS
330
C
102
}
330
C
100
AcDbDictionary
281
     1
  3
Normal
350
F
100
AcDbDictionaryWithDefault
340
F
  0
DICTIONARY
  5
47
102
{ACAD_REACTORS
330
C
102
}
330
C
100
AcDbDictionary
281
     1
  3
A0
350
48
  3
A1
350
49
  3
A2
350
4A
  3
A3
350
4B
  3
A4
350
4C
  3
A5
350
4D
  3
A6
350
4E
  3
A7
350
4F
  3
A8
350
50
  3
A9
350
51
  3
B0
350
52
  3
B1
350
53
  3
B2
350
54
  3
B3
350
55
  3
B4
350
56
  3
B5
350
57
  3
B6
350
58
  3
B7
350
59
  3
B8
350
5A
  3
B9
350
5B
  3
C0
350
5C
  3
C1
350
5D
  3
C2
350
5E
  3
C3
350
5F
  3
C4
350
60
  3
C5
350
61
  3
C6
350
62
  3
C7
350
63
  3
C8
350
64
  3
C9
350
65
  3
D0
350
66
  3
D1
350
67
  3
D2
350
68
  0
LAYOUT
  5
1E
102
{ACAD_REACTORS
330
1A
102
}
330
1A
100
AcDbPlotSettings
  1

  2
none_device
  4

  6

 40
0.0
 41
0.0
 42
0.0
 43
0.0
 44
0.0
 45
0.0
 46
0.0
 47
0.0
 48
0.0
 49
0.0
140
0.0
141
0.0
142
1.0
143
1.0
 70
   688
 72
     1
 73
     0
 74
     5
  7

 75
    16
147
1.0
148
0.0
149
0.0
100
AcDbLayout
  1
Layout1
 70
     1
 71
     1
 10
0.0
 20
0.0
 11
420.0
 21
297.0
 12
0.0
 22
0.0
 32
0.0
 14
1.0000000000E+20
 24
1.0000000000E+20
 34
1.0000000000E+20
 15
-1.0000000000E+20
 25
-1.0000000000E+20
 35
-1.0000000000E+20
146
0.0
 13
0.0
 23
0.0
 33
0.0
 16
1.0
 26
0.0
 36
0.0
 17
0.0
 27
1.0
 37
0.0
 76
     0
330
1B
  0
LAYOUT
  5
26
102
{ACAD_REACTORS
330
1A
102
}
330
1A
100
AcDbPlotSettings
  1

  2
none_device
  4

  6

 40
0.0
 41
0.0
 42
0.0
 43
0.0
 44
0.0
 45
0.0
 46
0.0
 47
0.0
 48
0.0
 49
0.0
140
0.0
141
0.0
142
1.0
143
1.0
 70
   688
 72
     1
 73
     0
 74
     5
  7

 75
    16
147
1.0
148
0.0
149
0.0
100
AcDbLayout
  1
Layout2
 70
     1
 71
     2
 10
0.0
 20
0.0
 11
0.0
 21
0.0
 12
0.0
 22
0.0
 32
0.0
 14
0.0
 24
0.0
 34
0.0
 15
0.0
 25
0.0
 35
0.0
146
0.0
 13
0.0
 23
0.0
 33
0.0
 16
1.0
 26
0.0
 36
0.0
 17
0.0
 27
1.0
 37
0.0
 76
     0
330
23
  0
LAYOUT
  5
22
102
{ACAD_REACTORS
330
1A
102
}
330
1A
100
AcDbPlotSettings
  1

  2
none_device
  4
ANSI_A_(11.00_x_8.50_Inches)
  6

 40
6.35
 41
19.05
 42
6.35000508
 43
19.05000254
 44
279.4
 45
215.9
 46
-1.1423850359
 47
73.99375967
 48
0.0
 49
0.0
140
0.0
141
0.0
142
0.0441247974
143
1.0
 70
  1696
 72
     0
 73
     0
 74
     0
  7

 75
     0
147
0.0179189148
148
-1300.4909072572
149
0.0
100
AcDbLayout
  1
Model
 70
     1
 71
     0
 10
0.0
 20
0.0
 11
420.0
 21
297.0
 12
0.0
 22
0.0
 32
0.0
 14
-3.4
 24
-3.4
 34
0.0
 15
243.4
 25
30.0
 35
0.0
146
0.0
 13
0.0
 23
0.0
 33
0.0
 16
1.0
 26
0.0
 36
0.0
 17
0.0
 27
1.0
 37
0.0
 76
     0
330
1F
331
29
  0
MLINESTYLE
  5
18
102
{ACAD_REACTORS
330
17
102
}
330
17
100
AcDbMlineStyle
  2
Standard
 70
     0
  3

 62
   256
 51
90.0
 52
90.0
 71
     2
 49
0.5
 62
   256
  6
BYLAYER
 49
-0.5
 62
   256
  6
BYLAYER
  0
ACDBPLACEHOLDER
  5
F
102
{ACAD_REACTORS
330
E
102
}
330
E
  0
SCALE
  5
48
102
{ACAD_REACTORS
330
47
102
}
330
47
100
AcDbScale
 70
     0
300
1:1
140
1.0
141
1.0
290
     1
  0
SCALE
  5
49
102
{ACAD_REACTORS
330
47
102
}
330
47
100
AcDbScale
 70
     0
300
1:2
140
1.0
141
2.0
290
     0
  0
SCALE
  5
4A
102
{ACAD_REACTORS
330
47
102
}
330
47
100
AcDbScale
 70
     0
300
1:4
140
1.0
141
4.0
290
     0
  0
SCALE
  5
4B
102
{ACAD_REACTORS
330
47
102
}
330
47
100
AcDbScale
 70
     0
300
1:5
140
1.0
141
5.0
290
     0
  0
SCALE
  5
4C
102
{ACAD_REACTORS
330
47
102
}
330
47
100
AcDbScale
 70
     0
300
1:8
140
1.0
141
8.0
290
     0
  0
SCALE
  5
4D
102
{ACAD_REACTORS
330
47
102
}
330
47
100
AcDbScale
 70
     0
300
1:10
140
1.0
141
10.0
290
     0
  0
SCALE
  5
4E
102
{ACAD_REACTORS
330
47
102
}
330
47
100
AcDbScale
 70
     0
300
1:16
140
1.0
141
16.0
290
     0
  0
SCALE
  5
4F
102
{ACAD_REACTORS
330
47
102
}
330
47
100
AcDbScale
 70
     0
300
1:20
140
1.0
141
20.0
290
     0
  0
SCALE
  5
50
102
{ACAD_REACTORS
330
47
102
}
330
47
100
AcDbScale
 70
     0
300
1:30
140
1.0
141
30.0
290
     0
  0
SCALE
  5
51
102
{ACAD_REACTORS
330
47
102
}
330
47
100
AcDbScale
 70
     0
300
1:40
140
1.0
141
40.0
290
     0
  0
SCALE
  5
52
102
{ACAD_REACTORS
330
47
102
}
330
47
100
AcDbScale
 70
     0
300
1:50
140
1.0
141
50.0
290
     0
  0
SCALE
  5
53
102
{ACAD_REACTORS
330
47
102
}
330
47
100
AcDbScale
 70
     0
300
1:100
140
1.0
141
100.0
290
     0
  0
SCALE
  5
54
102
{ACAD_REACTORS
330
47
102
}
330
47
100
AcDbScale
 70
     0
300
2:1
140
2.0
141
1.0
290
     0
  0
SCALE
  5
55
102
{ACAD_REACTORS
330
47
102
}
330
47
100
AcDbScale
 70
     0
300
4:1
140
4.0
141
1.0
290
     0
  0
SCALE
  5
56
102
{ACAD_REACTORS
330
47
102
}
330
47
100
AcDbScale
 70
     0
300
8:1
140
8.0
141
1.0
290
     0
  0
SCALE
  5
57
102
{ACAD_REACTORS
330
47
102
}
330
47
100
AcDbScale
 70
     0
300
10:1
140
10.0
141
1.0
290
     0
  0
SCALE
  5
58
102
{ACAD_REACTORS
330
47
102
}
330
47
100
AcDbScale
 70
     0
300
100:1
140
100.0
141
1.0
290
     0
  0
SCALE
  5
59
102
{ACAD_REACTORS
330
47
102
}
330
47
100
AcDbScale
 70
     0
300
1/128" = 1'-0"
140
0.0078125
141
12.0
290
     0
  0
SCALE
  5
5A
102
{ACAD_REACTORS
330
47
102
}
330
47
100
AcDbScale
 70
     0
300
1/64" = 1'-0"
140
0.015625
141
12.0
290
     0
  0
SCALE
  5
5B
102
{ACAD_REACTORS
330
47
102
}
330
47
100
AcDbScale
 70
     0
300
1/32" = 1'-0"
140
0.03125
141
12.0
290
     0
  0
SCALE
  5
5C
102
{ACAD_REACTORS
330
47
102
}
330
47
100
AcDbScale
 70
     0
300
1/16" = 1'-0"
140
0.0625
141
12.0
290
     0
  0
SCALE
  5
5D
102
{ACAD_REACTORS
330
47
102
}
330
47
100
AcDbScale
 70
     0
300
3/32" = 1'-0"
140
0.09375
141
12.0
290
     0
  0
SCALE
  5
5E
102
{ACAD_REACTORS
330
47
102
}
330
47
100
AcDbScale
 70
     0
300
1/8" = 1'-0"
140
0.125
141
12.0
290
     0
  0
SCALE
  5
5F
102
{ACAD_REACTORS
330
47
102
}
330
47
100
AcDbScale
 70
     0
300
3/16" = 1'-0"
140
0.1875
141
12.0
290
     0
  0
SCALE
  5
60
102
{ACAD_REACTORS
330
47
102
}
330
47
100
AcDbScale
 70
     0
300
1/4" = 1'-0"
140
0.25
141
12.0
290
     0
  0
SCALE
  5
61
102
{ACAD_REACTORS
330
47
102
}
330
47
100
AcDbScale
 70
     0
300
3/8" = 1'-0"
140
0.375
141
12.0
290
     0
  0
SCALE
  5
62
102
{ACAD_REACTORS
330
47
102
}
330
47
100
AcDbScale
 70
     0
300
1/2" = 1'-0"
140
0.5
141
12.0
290
     0
  0
SCALE
  5
63
102
{ACAD_REACTORS
330
47
102
}
330
47
100
AcDbScale
 70
     0
300
3/4" = 1'-0"
140
0.75
141
12.0
290
     0
  0
SCALE
  5
64
102
{ACAD_REACTORS
330
47
102
}
330
47
100
AcDbScale
 70
     0
300
1" = 1'-0"
140
1.0
141
12.0
290
     0
  0
SCALE
  5
65
102
{ACAD_REACTORS
330
47
102
}
330
47
100
AcDbScale
 70
     0
300
1-1/2" = 1'-0"
140
1.5
141
12.0
290
     0
  0
SCALE
  5
66
102
{ACAD_REACTORS
330
47
102
}
330
47
100
AcDbScale
 70
     0
300
3" = 1'-0"
140
3.0
141
12.0
290
     0
  0
SCALE
  5
67
102
{ACAD_REACTORS
330
47
102
}
330
47
100
AcDbScale
 70
     0
300
6" = 1'-0"
140
6.0
141
12.0
290
     0
  0
SCALE
  5
68
102
{ACAD_REACTORS
330
47
102
}
330
47
100
AcDbScale
 70
     0
300
1'-0" = 1'-0"
140
12.0
141
12.0
290
     0
  0
ENDSEC
  0
EOF
