  0
SECTION
  2
HEADER
  9
$ACADVER
  1
AC1015
  9
$ACADMAINTVER
 70
     6
  9
$DWGCODEPAGE
  3
ANSI_1252
  9
$INSBASE
 10
0.0
 20
0.0
 30
0.0
  9
$EXTMIN
 10
-123.4
 20
-123.4
 30
0.0
  9
$EXTMAX
 10
123.4
 20
123.4
 30
0.0
  9
$LIMMIN
 10
0.0
 20
0.0
  9
$LIMMAX
 10
420.0
 20
297.0
  9
$ORTHOMODE
 70
     0
  9
$REGENMODE
 70
     1
  9
$FILLMODE
 70
     1
  9
$QTEXTMODE
 70
     0
  9
$MIRRTEXT
 70
     1
  9
$LTSCALE
 40
1.0
  9
$ATTMODE
 70
     1
  9
$TEXTSIZE
 40
6.35
  9
$TRACEWID
 40
1.0
  9
$TEXTSTYLE
  7
Standard
  9
$CLAYER
  8
0
  9
$CELTYPE
  6
ByLayer
  9
$CECOLOR
 62
   256
  9
$CELTSCALE
 40
1.0
  9
$DISPSILH
 70
     0
  9
$DIMSCALE
 40
1.0
  9
$DIMASZ
 40
5.9944
  9
$DIMEXO
 40
0.9906
  9
$DIMDLI
 40
3.75
  9
$DIMRND
 40
0.0
  9
$DIMDLE
 40
0.0
  9
$DIMEXE
 40
0.9906
  9
$DIMTP
 40
0.0
  9
$DIMTM
 40
0.0
  9
$DIMTXT
 40
6.35
  9
$DIMCEN
 40
2.5
  9
$DIMTSZ
 40
0.0
  9
$DIMTOL
 70
     0
  9
$DIMLIM
 70
     0
  9
$DIMTIH
 70
     1
  9
$DIMTOH
 70
     1
  9
$DIMSE1
 70
     0
  9
$DIMSE2
 70
     0
  9
$DIMTAD
 70
     1
  9
$DIMZIN
 70
     0
  9
$DIMBLK
  1

  9
$DIMASO
 70
     1
  9
$DIMSHO
 70
     1
  9
$DIMPOST
  1

  9
$DIMAPOST
  1

  9
$DIMALT
 70
     0
  9
$DIMALTD
 70
     3
  9
$DIMALTF
 40
0.0393700787
  9
$DIMLFAC
 40
1.0
  9
$DIMTOFL
 70
     1
  9
$DIMTVP
 40
0.0
  9
$DIMTIX
 70
     0
  9
$DIMSOXD
 70
     0
  9
$DIMSAH
 70
     0
  9
$DIMBLK1
  1

  9
$DIMBLK2
  1

  9
$DIMSTYLE
  2
ISO-25
  9
$DIMCLRD
 70
     0
  9
$DIMCLRE
 70
     0
  9
$DIMCLRT
 70
     0
  9
$DIMTFAC
 40
1.0
  9
$DIMGAP
 40
1.524
  9
$DIMJUST
 70
     0
  9
$DIMSD1
 70
     0
  9
$DIMSD2
 70
     0
  9
$DIMTOLJ
 70
     0
  9
$DIMTZIN
 70
     0
  9
$DIMALTZ
 70
     0
  9
$DIMALTTZ
 70
     0
  9
$DIMUPT
 70
     0
  9
$DIMDEC
 70
     2
  9
$DIMTDEC
 70
     2
  9
$DIMALTU
 70
     2
  9
$DIMALTTD
 70
     3
  9
$DIMTXSTY
  7
Standard
  9
$DIMAUNIT
 70
     0
  9
$DIMADEC
 70
     2
  9
$DIMALTRND
 40
0.0
  9
$DIMAZIN
 70
     0
  9
$DIMDSEP
 70
    44
  9
$DIMATFIT
 70
     3
  9
$DIMFRAC
 70
     0
  9
$DIMLDRBLK
  1

  9
$DIMLUNIT
 70
     2
  9
$DIMLWD
 70
    -2
  9
$DIMLWE
 70
    -2
  9
$DIMTMOVE
 70
     0
  9
$LUNITS
 70
     2
  9
$LUPREC
 70
     2
  9
$SKETCHINC
 40
1.0
  9
$FILLETRAD
 40
10.0
  9
$AUNITS
 70
     0
  9
$AUPREC
 70
     2
  9
$MENU
  1
.
  9
$ELEVATION
 40
0.0
  9
$PELEVATION
 40
0.0
  9
$THICKNESS
 40
0.0
  9
$LIMCHECK
 70
     0
  9
$CHAMFERA
 40
0.0
  9
$CHAMFERB
 40
0.0
  9
$CHAMFERC
 40
0.0
  9
$CHAMFERD
 40
0.0
  9
$SKPOLY
 70
     0
  9
$TDCREATE
 40
2457988.454069398
  9
$TDUCREATE
 40
2457988.412402731
  9
$TDUPDATE
 40
2457988.454094479
  9
$TDUUPDATE
 40
2457988.412427812
  9
$TDINDWG
 40
0.0000000116
  9
$TDUSRTIMER
 40
0.0000000116
  9
$USRTIMER
 70
     1
  9
$ANGBASE
 50
0.0
  9
$ANGDIR
 70
     0
  9
$PDMODE
 70
     0
  9
$PDSIZE
 40
-1.0
  9
$PLINEWID
 40
0.0
  9
$SPLFRAME
 70
     0
  9
$SPLINETYPE
 70
     6
  9
$SPLINESEGS
 70
     8
  9
$HANDSEED
  5
163
  9
$SURFTAB1
 70
     6
  9
$SURFTAB2
 70
     6
  9
$SURFTYPE
 70
     6
  9
$SURFU
 70
     6
  9
$SURFV
 70
     6
  9
$UCSBASE
  2

  9
$UCSNAME
  2

  9
$UCSORG
 10
0.0
 20
0.0
 30
0.0
  9
$UCSXDIR
 10
1.0
 20
0.0
 30
0.0
  9
$UCSYDIR
 10
0.0
 20
1.0
 30
0.0
  9
$UCSORTHOREF
  2

  9
$UCSORTHOVIEW
 70
     0
  9
$UCSORGTOP
 10
0.0
 20
0.0
 30
0.0
  9
$UCSORGBOTTOM
 10
0.0
 20
0.0
 30
0.0
  9
$UCSORGLEFT
 10
0.0
 20
0.0
 30
0.0
  9
$UCSORGRIGHT
 10
0.0
 20
0.0
 30
0.0
  9
$UCSORGFRONT
 10
0.0
 20
0.0
 30
0.0
  9
$UCSORGBACK
 10
0.0
 20
0.0
 30
0.0
  9
$PUCSBASE
  2

  9
$PUCSNAME
  2

  9
$PUCSORG
 10
0.0
 20
0.0
 30
0.0
  9
$PUCSXDIR
 10
1.0
 20
0.0
 30
0.0
  9
$PUCSYDIR
 10
0.0
 20
1.0
 30
0.0
  9
$PUCSORTHOREF
  2

  9
$PUCSORTHOVIEW
 70
     0
  9
$PUCSORGTOP
 10
0.0
 20
0.0
 30
0.0
  9
$PUCSORGBOTTOM
 10
0.0
 20
0.0
 30
0.0
  9
$PUCSORGLEFT
 10
0.0
 20
0.0
 30
0.0
  9
$PUCSORGRIGHT
 10
0.0
 20
0.0
 30
0.0
  9
$PUCSORGFRONT
 10
0.0
 20
0.0
 30
0.0
  9
$PUCSORGBACK
 10
0.0
 20
0.0
 30
0.0
  9
$USERI1
 70
     0
  9
$USERI2
 70
     0
  9
$USERI3
 70
     0
  9
$USERI4
 70
     0
  9
$USERI5
 70
     0
  9
$USERR1
 40
0.0
  9
$USERR2
 40
0.0
  9
$USERR3
 40
0.0
  9
$USERR4
 40
0.0
  9
$USERR5
 40
0.0
  9
$WORLDVIEW
 70
     1
  9
$SHADEDGE
 70
     3
  9
$SHADEDIF
 70
    70
  9
$TILEMODE
 70
     1
  9
$MAXACTVP
 70
    64
  9
$PINSBASE
 10
0.0
 20
0.0
 30
0.0
  9
$PLIMCHECK
 70
     0
  9
$PEXTMIN
 10
1.0000000000E+20
 20
1.0000000000E+20
 30
1.0000000000E+20
  9
$PEXTMAX
 10
-1.0000000000E+20
 20
-1.0000000000E+20
 30
-1.0000000000E+20
  9
$PLIMMIN
 10
0.0
 20
0.0
  9
$PLIMMAX
 10
420.0
 20
297.0
  9
$UNITMODE
 70
     0
  9
$VISRETAIN
 70
     1
  9
$PLINEGEN
 70
     0
  9
$PSLTSCALE
 70
     1
  9
$TREEDEPTH
 70
  3020
  9
$CMLSTYLE
  2
Standard
  9
$CMLJUST
 70
     0
  9
$CMLSCALE
 40
20.0
  9
$PROXYGRAPHICS
 70
     1
  9
$MEASUREMENT
 70
     1
  9
$CELWEIGHT
370
    -1
  9
$ENDCAPS
280
     0
  9
$JOINSTYLE
280
     0
  9
$LWDISPLAY
290
     1
  9
$INSUNITS
 70
     4
  9
$HYPERLINKBASE
  1

  9
$STYLESHEET
  1

  9
$XEDIT
290
     1
  9
$CEPSNTYPE
380
     0
  9
$PSTYLEMODE
290
     1
  9
$FINGERPRINTGUID
  2
{819F1AD0-79E0-4EC5-A2C4-8C8F7C0E95DB}
  9
$VERSIONGUID
  2
{FAEB1C32-E019-11D5-929B-00C0DF256EC4}
  9
$EXTNAMES
290
     1
  9
$PSVPSCALE
 40
0.0
  9
$OLESTARTUP
290
     0
  0
ENDSEC
  0
SECTION
  2
CLASSES
  0
CLASS
  1
ACDBDICTIONARYWDFLT
  2
AcDbDictionaryWithDefault
  3
ObjectDBX Classes
 90
        0
280
     0
281
     0
  0
CLASS
  1
VISUALSTYLE
  2
AcDbVisualStyle
  3
ObjectDBX Classes
 90
     4095
280
     0
281
     0
  0
CLASS
  1
MATERIAL
  2
AcDbMaterial
  3
ObjectDBX Classes
 90
     1153
280
     0
281
     0
  0
CLASS
  1
SCALE
  2
AcDbScale
  3
ObjectDBX Classes
 90
     1153
280
     0
281
     0
  0
CLASS
  1
TABLESTYLE
  2
AcDbTableStyle
  3
ObjectDBX Classes
 90
     4095
280
     0
281
     0
  0
CLASS
  1
MLEADERSTYLE
  2
AcDbMLeaderStyle
  3
ACDB_MLEADERSTYLE_CLASS
 90
     4095
280
     0
281
     0
  0
CLASS
  1
SUN
  2
AcDbSun
  3
SCENEOE
 90
     1153
280
     0
281
     0
  0
CLASS
  1
ACDBPLACEHOLDER
  2
AcDbPlaceHolder
  3
ObjectDBX Classes
 90
        0
280
     0
281
     0
  0
CLASS
  1
LAYOUT
  2
AcDbLayout
  3
ObjectDBX Classes
 90
        0
280
     0
281
     0
  0
ENDSEC
  0
SECTION
  2
TABLES
  0
TABLE
  2
VPORT
  5
8
330
0
100
AcDbSymbolTable
 70
     1
  0
VPORT
  5
29
330
8
100
AcDbSymbolTableRecord
100
AcDbViewportTableRecord
  2
*Active
 70
     0
 10
0.0
 20
0.0
 11
1.0
 21
1.0
 12
0.0
 22
0.0
 13
0.0
 23
0.0
 14
10.0
 24
10.0
 15
10.0
 25
10.0
 16
0.0
 26
0.0
 36
1.0
 17
0.0
 27
0.0
 37
0.0
 40
251.736
 41
1.0
 42
50.0
 43
0.0
 44
0.0
 50
0.0
 51
0.0
 71
     0
 72
   100
 73
     1
 74
     3
 75
     0
 76
     0
 77
     0
 78
     0
281
     0
 65
     1
110
0.0
120
0.0
130
0.0
111
1.0
121
0.0
131
0.0
112
0.0
122
1.0
132
0.0
 79
     0
146
0.0
  0
ENDTAB
  0
TABLE
  2
LTYPE
  5
5
330
0
100
AcDbSymbolTable
 70
     6
  0
LTYPE
  5
14
330
5
100
AcDbSymbolTableRecord
100
AcDbLinetypeTableRecord
  2
ByBlock
 70
     0
  3

 72
    65
 73
     0
 40
0.0
  0
LTYPE
  5
15
330
5
100
AcDbSymbolTableRecord
100
AcDbLinetypeTableRecord
  2
ByLayer
 70
     0
  3

 72
    65
 73
     0
 40
0.0
  0
LTYPE
  5
16
330
5
100
AcDbSymbolTableRecord
100
AcDbLinetypeTableRecord
  2
Continuous
 70
     0
  3
Solid line
 72
    65
 73
     0
 40
0.0
  0
LTYPE
  5
6E
330
5
100
AcDbSymbolTableRecord
100
AcDbLinetypeTableRecord
  2
HIDDEN
 70
     0
  3
Hidden __ __ __ __ __ __ __ __ __ __ __ __ __ __
 72
    65
 73
     2
 40
1.905
 49
1.27
 74
     0
 49
-0.635
 74
     0
  0
LTYPE
  5
6F
330
5
100
AcDbSymbolTableRecord
100
AcDbLinetypeTableRecord
  2
PHANTOM
 70
     0
  3
Phantom ______  __  __  ______  __  __  ______
 72
    65
 73
     6
 40
12.7
 49
6.35
 74
     0
 49
-1.27
 74
     0
 49
1.27
 74
     0
 49
-1.27
 74
     0
 49
1.27
 74
     0
 49
-1.27
 74
     0
  0
LTYPE
  5
70
330
5
100
AcDbSymbolTableRecord
100
AcDbLinetypeTableRecord
  2
CENTER
 70
     0
  3
Center ____ _ ____ _ ____ _ ____ _ ____ _ ____
 72
    65
 73
     4
 40
10.16
 49
6.35
 74
     0
 49
-1.27
 74
     0
 49
1.27
 74
     0
 49
-1.27
 74
     0
  0
LTYPE
  5
71
330
5
100
AcDbSymbolTableRecord
100
AcDbLinetypeTableRecord
  2
CENTERX2
 70
     0
  3
Center (2x) ________  __  ________  __  _____
 72
    65
 73
     4
 40
20.32
 49
12.7
 74
     0
 49
-2.54
 74
     0
 49
2.54
 74
     0
 49
-2.54
 74
     0
  0
LTYPE
  5
72
330
5
100
AcDbSymbolTableRecord
100
AcDbLinetypeTableRecord
  2
DOT2
 70
     0
  3
Dot (.5x) ........................................
 72
    65
 73
     2
 40
0.635
 49
0.0
 74
     0
 49
-0.635
 74
     0
  0
ENDTAB
  0
TABLE
  2
LAYER
  5
2
330
0
100
AcDbSymbolTable
 70
     1
  0
LAYER
  5
10
330
2
100
AcDbSymbolTableRecord
100
AcDbLayerTableRecord
  2
0
 70
     0
 62
     7
  6
Continuous
370
    -3
390
F
  0
ENDTAB
  0
TABLE
  2
STYLE
  5
3
330
0
100
AcDbSymbolTable
 70
     2
  0
STYLE
  5
11
330
3
100
AcDbSymbolTableRecord
100
AcDbTextStyleTableRecord
  2
Standard
 70
     0
 40
0.0
 41
1.0
 50
0.0
 71
     0
 42
6.35
  3
txt
  4

  0
STYLE
  5
160
330
3
100
AcDbSymbolTableRecord
100
AcDbTextStyleTableRecord
  2
SLDTEXTSTYLE0
 70
     0
 40
0.0
 41
0.7
 50
0.0
 71
     0
 42
6.35
  3
TXT
  4

  0
ENDTAB
  0
TABLE
  2
VIEW
  5
6
330
0
100
AcDbSymbolTable
 70
     0
  0
ENDTAB
  0
TABLE
  2
UCS
  5
7
330
0
100
AcDbSymbolTable
 70
     0
  0
ENDTAB
  0
TABLE
  2
APPID
  5
9
330
0
100
AcDbSymbolTable
 70
     1
  0
APPID
  5
12
330
9
100
AcDbSymbolTableRecord
100
AcDbRegAppTableRecord
  2
ACAD
 70
     0
  0
ENDTAB
  0
TABLE
  2
DIMSTYLE
  5
A
330
0
100
AcDbSymbolTable
 70
     1
100
AcDbDimStyleTable
  0
DIMSTYLE
105
27
330
A
100
AcDbSymbolTableRecord
100
AcDbDimStyleTableRecord
  2
ISO-25
 70
     0
 41
2.5
 42
0.625
 43
3.75
 44
1.25
 73
     0
 74
     0
 77
     1
 78
     8
140
2.5
141
2.5
143
0.0393700787
147
0.625
171
     3
172
     1
178
     0
271
     2
272
     2
274
     3
278
    44
283
     0
284
     8
340
11
  0
ENDTAB
  0
TABLE
  2
BLOCK_RECORD
  5
1
330
0
100
AcDbSymbolTable
 70
     1
  0
BLOCK_RECORD
  5
1F
330
1
100
AcDbSymbolTableRecord
100
AcDbBlockTableRecord
  2
*Model_Space
340
22
  0
BLOCK_RECORD
  5
1B
330
1
100
AcDbSymbolTableRecord
100
AcDbBlockTableRecord
  2
*Paper_Space
340
1E
  0
BLOCK_RECORD
  5
23
330
1
100
AcDbSymbolTableRecord
100
AcDbBlockTableRecord
  2
*Paper_Space0
340
26
  0
ENDTAB
  0
ENDSEC
  0
SECTION
  2
BLOCKS
  0
BLOCK
  5
20
330
1F
100
AcDbEntity
  8
0
100
AcDbBlockBegin
  2
*Model_Space
 70
     0
 10
0.0
 20
0.0
 30
0.0
  3
*Model_Space
  1

  0
ENDBLK
  5
21
330
1F
100
AcDbEntity
  8
0
100
AcDbBlockEnd
  0
BLOCK
  5
1C
330
1B
100
AcDbEntity
 67
     1
  8
0
100
AcDbBlockBegin
  2
*Paper_Space
 70
     0
 10
0.0
 20
0.0
 30
0.0
  3
*Paper_Space
  1

  0
ENDBLK
  5
1D
330
1B
100
AcDbEntity
 67
     1
  8
0
100
AcDbBlockEnd
  0
BLOCK
  5
24
330
23
100
AcDbEntity
  8
0
100
AcDbBlockBegin
  2
*Paper_Space0
 70
     0
 10
0.0
 20
0.0
 30
0.0
  3
*Paper_Space0
  1

  0
ENDBLK
  5
25
330
23
100
AcDbEntity
  8
0
100
AcDbBlockEnd
  0
ENDSEC
  0
SECTION
  2
ENTITIES
  0
SPLINE
  5
73
330
1F
100
AcDbEntity
  8
0
  6
Continuous
 62
     7
370
    15
100
AcDbSpline
210
0.0
220
0.0
230
1.0
 70
     8
 71
     3
 72
    31
 73
    27
 74
     0
 42
0.000000001
 43
0.00000001
 40
0.0
 40
0.0
 40
0.0
 40
0.0
 40
0.0451516788047784
 40
0.0887272521645408
 40
0.1305341108247526
 40
0.1710707458966331
 40
0.2100958400813096
 40
0.2477692374166788
 40
0.284849364364438
 40
0.3209855015160375
 40
0.3563873757532793
 40
0.3915492787874603
 40
0.4261913606636671
 40
0.4605110592984623
 40
0.4949714404811191
 40
0.5295336250796084
 40
0.5645757480731507
 40
0.6000961892387691
 40
0.6375349450701449
 40
0.678213416247435
 40
0.722582742971169
 40
0.7701823039810342
 40
0.8218792822901988
 40
0.8770670125167502
 40
0.9365240376354079
 40
1.0
 40
1.0
 40
1.0
 40
1.0
 10
1.833638822115375
 20
94.9592948717949
 30
0.0
 10
1.805429841469035
 20
94.95960303470453
 30
0.0
 10
1.749996568435398
 20
94.96020860350987
 30
0.0
 10
1.668651939713496
 20
94.96668724334606
 30
0.0
 10
1.590684275430782
 20
94.97739894101812
 30
0.0
 10
1.516370771060233
 20
94.99268903107297
 30
0.0
 10
1.445636853500353
 20
95.01177447308505
 30
0.0
 10
1.378196007328785
 20
95.03445625168852
 30
0.0
 10
1.314837918034307
 20
95.06265068870992
 30
0.0
 10
1.254801385835325
 20
95.09438033012795
 30
0.0
 10
1.198556362238685
 20
95.13027168711062
 30
0.0
 10
1.145843580699841
 20
95.16961269448477
 30
0.0
 10
1.096733721610012
 20
95.21234462311962
 30
0.0
 10
1.051215952773315
 20
95.25828901139181
 30
0.0
 10
1.009929181153048
 20
95.30801580367006
 30
0.0
 10
0.9723589147670667
 20
95.36112499049366
 30
0.0
 10
0.9379267608007135
 20
95.4170903422932
 30
0.0
 10
0.9067638724074737
 20
95.47701906823791
 30
0.0
 10
0.8799924941648781
 20
95.54285224853176
 30
0.0
 10
0.8563566639557743
 20
95.61569318660864
 30
0.0
 10
0.8370248705663639
 20
95.69634046971399
 30
0.0
 10
0.8212927742678713
 20
95.78472514766423
 30
0.0
 10
0.8086368245718425
 20
95.88042422112522
 30
0.0
 10
0.7998501098505656
 20
95.98399128357015
 30
0.0
 10
0.7949371776622172
 20
96.0951740614409
 30
0.0
 10
0.7941542576532257
 20
96.1719636045505
 30
0.0
 10
0.7937499999999899
 20
96.2116135817308
 30
0.0
  0
LINE
  5
74
330
1F
100
AcDbEntity
  8
0
  6
Continuous
 62
     7
370
    15
100
AcDbLine
 10
0.79375
 20
96.2116135817
 30
0.0
 11
0.79375
 21
97.3201923077
 31
0.0
  0
LINE
  5
75
330
1F
100
AcDbEntity
  8
0
  6
Continuous
 62
     7
370
    15
100
AcDbLine
 10
0.79375
 20
97.3201923077
 30
0.0
 11
1.0786858974
 21
97.3201923077
 31
0.0
  0
LINE
  5
76
330
1F
100
AcDbEntity
  8
0
  6
Continuous
 62
     7
370
    15
100
AcDbLine
 10
1.0786858974
 20
97.3201923077
 30
0.0
 11
1.0786858974
 21
96.2440504808
 31
0.0
  0
SPLINE
  5
77
330
1F
100
AcDbEntity
  8
0
  6
Continuous
 62
     7
370
    15
100
AcDbSpline
210
0.0
220
0.0
230
1.0
 70
     8
 71
     3
 72
    15
 73
    11
 74
     0
 42
0.000000001
 43
0.00000001
 40
0.0
 40
0.0
 40
0.0
 40
0.0
 40
0.1736165757486405
 40
0.3321203769788909
 40
0.4779362767239518
 40
0.6099318098113878
 40
0.727031521037979
 40
0.8316714227513081
 40
0.921715476122432
 40
1.0
 40
1.0
 40
1.0
 40
1.0
 10
1.078685897435887
 20
96.24405048076926
 30
0.0
 10
1.078814625453607
 20
96.21246127258289
 30
0.0
 10
1.079060876121716
 20
96.15203259700233
 30
0.0
 10
1.080730872540588
 20
96.06507824901618
 30
0.0
 10
1.084658886047514
 20
95.98577880254305
 30
0.0
 10
1.089569998285471
 20
95.9140884484856
 30
0.0
 10
1.095885650327854
 20
95.85001931468584
 30
0.0
 10
1.103399841640348
 20
95.7937951836641
 30
0.0
 10
1.111798552686339
 20
95.74477845954856
 30
0.0
 10
1.120019728926477
 20
95.71525698687047
 30
0.0
 10
1.123843149038452
 20
95.7015274439103
 30
0.0
  0
SPLINE
  5
78
330
1F
100
AcDbEntity
  8
0
  6
Continuous
 62
     7
370
    15
100
AcDbSpline
210
0.0
220
0.0
230
1.0
 70
     8
 71
     3
 72
    19
 73
    15
 74
     0
 42
0.000000001
 43
0.00000001
 40
0.0
 40
0.0
 40
0.0
 40
0.0
 40
0.0604867187842494
 40
0.1197159334053021
 40
0.1780861642555892
 40
0.2359713213676926
 40
0.2946097683616262
 40
0.3535360182612486
 40
0.4131613089452029
 40
0.474545308794415
 40
0.5992335172031805
 40
0.7270292124547225
 40
0.8596954264724354
 40
1.0
 40
1.0
 40
1.0
 40
1.0
 10
1.123843149038452
 20
95.7015274439103
 30
0.0
 10
1.129976754655958
 20
95.68427098238429
 30
0.0
 10
1.142116449722883
 20
95.65011681696772
 30
0.0
 10
1.1641359671276
 20
95.60077821940469
 30
0.0
 10
1.191375958163007
 20
95.55508064177322
 30
0.0
 10
1.22118451630483
 20
95.51126194723157
 30
0.0
 10
1.255564693209083
 20
95.47062014484354
 30
0.0
 10
1.294081499151828
 20
95.43322386667468
 30
0.0
 10
1.335445614157811
 20
95.3976601553333
 30
0.0
 10
1.39690909964397
 20
95.35558252262186
 30
0.0
 10
1.480964290930221
 20
95.31048361597684
 30
0.0
 10
1.591320718976265
 20
95.27157098074204
 30
0.0
 10
1.710976695326873
 20
95.2483156297147
 30
0.0
 10
1.793676119251319
 20
95.24561755552901
 30
0.0
 10
1.836182892628195
 20
95.2442307692308
 30
0.0
  0
SPLINE
  5
79
330
1F
100
AcDbEntity
  8
0
  6
Continuous
 62
     7
370
    15
100
AcDbSpline
210
0.0
220
0.0
230
1.0
 70
     8
 71
     3
 72
    15
 73
    11
 74
     0
 42
0.000000001
 43
0.00000001
 40
0.0
 40
0.0
 40
0.0
 40
0.0
 40
0.1446324159930509
 40
0.2798369641781421
 40
0.4083713118090921
 40
0.5330428696034701
 40
0.6535963008637306
 40
0.7700157379356782
 40
0.8843394719004981
 40
1.0
 40
1.0
 40
1.0
 40
1.0
 10
1.836182892628195
 20
95.2442307692308
 30
0.0
 10
1.878685717486647
 20
95.24564704474481
 30
0.0
 10
1.960920819456843
 20
95.24838727581651
 30
0.0
 10
2.079262113006623
 20
95.27086948584231
 30
0.0
 10
2.187440181808102
 20
95.30843036088015
 30
0.0
 10
2.284369259064921
 20
95.3608699415686
 30
0.0
 10
2.369609699777969
 20
95.42504309856136
 30
0.0
 10
2.440642993943584
 20
95.50034394646542
 30
0.0
 10
2.499251003423509
 20
95.58439017599153
 30
0.0
 10
2.524840977864419
 20
95.64709577180416
 30
0.0
 10
2.537710336538452
 20
95.67863080929492
 30
0.0
  0
SPLINE
  5
7A
330
1F
100
AcDbEntity
  8
0
  6
Continuous
 62
     7
370
    15
100
AcDbSpline
210
0.0
220
0.0
230
1.0
 70
     8
 71
     3
 72
    15
 73
    11
 74
     0
 42
0.000000001
 43
0.00000001
 40
0.0
 40
0.0
 40
0.0
 40
0.0
 40
0.0696927557420457
 40
0.1540736621798102
 40
0.2545914510459102
 40
0.3714654144290052
 40
0.5047545659520662
 40
0.6534942950018611
 40
0.8189527408800201
 40
1.0
 40
1.0
 40
1.0
 40
1.0
 10
2.537710336538452
 20
95.67863080929492
 30
0.0
 10
2.541515102385675
 20
95.69130023736447
 30
0.0
 10
2.549926510452076
 20
95.71930924862558
 30
0.0
 10
2.558963786466657
 20
95.76682516323075
 30
0.0
 10
2.567104905199583
 20
95.82348948308244
 30
0.0
 10
2.574056500702733
 20
95.8896730009478
 30
0.0
 10
2.579014183933209
 20
95.96520276067511
 30
0.0
 10
2.581686650914203
 20
96.05005515832202
 30
0.0
 10
2.584705872004031
 20
96.1439638207588
 30
0.0
 10
2.584751697476848
 20
96.20970243099636
 30
0.0
 10
2.584775641025631
 20
96.24405048076926
 30
0.0
  0
LINE
  5
7B
330
1F
100
AcDbEntity
  8
0
  6
Continuous
 62
     7
370
    15
100
AcDbLine
 10
2.584775641
 20
96.2440504808
 30
0.0
 11
2.584775641
 21
97.3201923077
 31
0.0
  0
LINE
  5
7C
330
1F
100
AcDbEntity
  8
0
  6
Continuous
 62
     7
370
    15
100
AcDbLine
 10
2.584775641
 20
97.3201923077
 30
0.0
 11
2.8697115385
 21
97.3201923077
 31
0.0
  0
LINE
  5
7D
330
1F
100
AcDbEntity
  8
0
  6
Continuous
 62
     7
370
    15
100
AcDbLine
 10
2.8697115385
 20
97.3201923077
 30
0.0
 11
2.8697115385
 21
96.190625
 31
0.0
  0
SPLINE
  5
7E
330
1F
100
AcDbEntity
  8
0
  6
Continuous
 62
     7
370
    15
100
AcDbSpline
210
0.0
220
0.0
230
1.0
 70
     8
 71
     3
 72
    31
 73
    27
 74
     0
 42
0.000000001
 43
0.00000001
 40
0.0
 40
0.0
 40
0.0
 40
0.0
 40
0.0622100326824419
 40
0.1206959731983286
 40
0.1755484638831953
 40
0.2261906127214141
 40
0.2737107306295686
 40
0.3173020717741395
 40
0.3578372980216231
 40
0.3954278376537102
 40
0.4310885268449429
 40
0.4660974733410709
 40
0.5010152197637654
 40
0.5354236135188924
 40
0.5701735381629645
 40
0.6047650703833896
 40
0.6400930345425718
 40
0.6759387007616798
 40
0.712224790187655
 40
0.7494554524110926
 40
0.7876011171624484
 40
0.8267837743908839
 40
0.8678285699487372
 40
0.9101595124056452
 40
0.9539387393934006
 40
1.0
 40
1.0
 40
1.0
 40
1.0
 10
2.869711538461528
 20
96.19062500000003
 30
0.0
 10
2.869310858162139
 20
96.15224635161282
 30
0.0
 10
2.868533483571725
 20
96.0777865238745
 30
0.0
 10
2.863537536266806
 20
95.96957879414596
 30
0.0
 10
2.854965387649237
 20
95.86873875771565
 30
0.0
 10
2.841954523421617
 20
95.77521303683609
 30
0.0
 10
2.82665494715053
 20
95.68907303554674
 30
0.0
 10
2.806918899550231
 20
95.61020835242512
 30
0.0
 10
2.783352926734527
 20
95.53886197133774
 30
0.0
 10
2.756768638142368
 20
95.47378193084528
 30
0.0
 10
2.725361658316278
 20
95.41477510539507
 30
0.0
 10
2.691954289697998
 20
95.3587719003246
 30
0.0
 10
2.653378246678488
 20
95.3071618805567
 30
0.0
 10
2.612765248456246
 20
95.25737594182526
 30
0.0
 10
2.567588032057933
 20
95.21189041339748
 30
0.0
 10
2.518693159999573
 20
95.16966157457883
 30
0.0
 10
2.466768829147123
 20
95.13004389575634
 30
0.0
 10
2.410662770963582
 20
95.09458252089327
 30
0.0
 10
2.351194056742362
 20
95.06263599262115
 30
0.0
 10
2.288289272157224
 20
95.03431855032446
 30
0.0
 10
2.221177938071305
 20
95.01190978398756
 30
0.0
 10
2.150725924523131
 20
94.99257796578146
 30
0.0
 10
2.076588060423413
 20
94.97741555449136
 30
0.0
 10
1.998835818285059
 20
94.96672345465167
 30
0.0
 10
1.917495387803098
 20
94.96016904731371
 30
0.0
 10
1.86206037795883
 20
94.95959115662508
 30
0.0
 10
1.833638822115375
 20
94.9592948717949
 30
0.0
  0
SPLINE
  5
7F
330
1F
100
AcDbEntity
  8
0
  6
Continuous
 62
     7
370
    15
100
AcDbSpline
210
0.0
220
0.0
230
1.0
 70
     8
 71
     3
 72
    23
 73
    19
 74
     0
 42
0.000000001
 43
0.00000001
 40
0.0
 40
0.0
 40
0.0
 40
0.0
 40
0.0679784896192512
 40
0.1330435352439131
 40
0.1965074380533898
 40
0.2586134167685691
 40
0.3197283376065534
 40
0.3808728540495664
 40
0.4426356023162061
 40
0.50507930350488
 40
0.5678805200585787
 40
0.6288138541554865
 40
0.6889100905404387
 40
0.7487650058898477
 40
0.8093857829631184
 40
0.8708843357532277
 40
0.9340374630737031
 40
1.0
 40
1.0
 40
1.0
 40
1.0
 10
3.439583333333324
 20
96.75222856570515
 30
0.0
 10
3.440067924804368
 20
96.77366017670126
 30
0.0
 10
3.441016338969169
 20
96.81560487580919
 30
0.0
 10
3.448585585755779
 20
96.87723509136991
 30
0.0
 10
3.462366638055027
 20
96.93578948807544
 30
0.0
 10
3.479652174983996
 20
96.99214742809029
 30
0.0
 10
3.503676043301078
 20
97.04521718482454
 30
0.0
 10
3.532383400111148
 20
97.09570646211615
 30
0.0
 10
3.566117707006418
 20
97.14354547344699
 30
0.0
 10
3.604982692275823
 20
97.18799831469822
 30
0.0
 10
3.647715149032466
 20
97.228374632134
 30
0.0
 10
3.693883975863824
 20
97.26357053036521
 30
0.0
 10
3.742450822905
 20
97.2936027236448
 30
0.0
 10
3.793621317790699
 20
97.31878969075255
 30
0.0
 10
3.847887032550845
 20
97.33784094496353
 30
0.0
 10
3.904868654442004
 20
97.35095585856139
 30
0.0
 10
3.964450844939605
 20
97.35971450681643
 30
0.0
 10
4.005182580633255
 20
97.36049744757115
 30
0.0
 10
4.025991586538452
 20
97.36089743589746
 30
0.0
  0
SPLINE
  5
80
330
1F
100
AcDbEntity
  8
0
  6
Continuous
 62
     7
370
    15
100
AcDbSpline
210
0.0
220
0.0
230
1.0
 70
     8
 71
     3
 72
    15
 73
    11
 74
     0
 42
0.000000001
 43
0.00000001
 40
0.0
 40
0.0
 40
0.0
 40
0.0
 40
0.1057142614175176
 40
0.2134116126389973
 40
0.3261267300734722
 40
0.4444516715568733
 40
0.5690610798550846
 40
0.7027122044812129
 40
0.8463179465861943
 40
0.9999999999999999
 40
0.9999999999999999
 40
0.9999999999999999
 40
0.9999999999999999
 10
4.025991586538453
 20
97.36089743589747
 30
0.0
 10
4.05065867268228
 20
97.35989564112201
 30
0.0
 10
4.100455573899496
 20
97.357873258941
 30
0.0
 10
4.175162984671702
 20
97.34181166817805
 30
0.0
 10
4.249760373565316
 20
97.31538378088787
 30
0.0
 10
4.324439412464513
 20
97.27888376921663
 30
0.0
 10
4.398653032119508
 20
97.2316516746682
 30
0.0
 10
4.473054037818205
 20
97.17456581024118
 30
0.0
 10
4.548535608152838
 20
97.10800174065074
 30
0.0
 10
4.595667406466238
 20
97.05711172901975
 30
0.0
 10
4.620032051282043
 20
97.03080428685901
 30
0.0
  0
LINE
  5
81
330
1F
100
AcDbEntity
  8
0
  6
Continuous
 62
     7
370
    15
100
AcDbLine
 10
4.6200320513
 20
97.0308042869
 30
0.0
 11
4.4266826923
 21
96.8317307692
 31
0.0
  0
SPLINE
  5
82
330
1F
100
AcDbEntity
  8
0
  6
Continuous
 62
     7
370
    15
100
AcDbSpline
210
0.0
220
0.0
230
1.0
 70
     8
 71
     3
 72
    15
 73
    11
 74
     0
 42
0.000000001
 43
0.00000001
 40
0.0
 40
0.0
 40
0.0
 40
0.0
 40
0.158223097556332
 40
0.3050355053581734
 40
0.4413089638879042
 40
0.5659632271047188
 40
0.6835251144150648
 40
0.7933341296296026
 40
0.8985175121610016
 40
1.0
 40
1.0
 40
1.0
 40
1.0
 10
4.426682692307683
 20
96.8317307692308
 30
0.0
 10
4.409999878393004
 20
96.85106483769161
 30
0.0
 10
4.377837377140944
 20
96.88833864559116
 30
0.0
 10
4.326827390803021
 20
96.93817441306217
 30
0.0
 10
4.276005978989185
 20
96.98002720767417
 30
0.0
 10
4.226068840962032
 20
97.01536247111332
 30
0.0
 10
4.175760268301842
 20
97.04207705410575
 30
0.0
 10
4.125670635424709
 20
97.06157596458016
 30
0.0
 10
4.075748079771862
 20
97.07364260257242
 30
0.0
 10
4.042377890683677
 20
97.07519784338776
 30
0.0
 10
4.025991586538452
 20
97.07596153846157
 30
0.0
  0
SPLINE
  5
83
330
1F
100
AcDbEntity
  8
0
  6
Continuous
 62
     7
370
    15
100
AcDbSpline
210
0.0
220
0.0
230
1.0
 70
     8
 71
     3
 72
    15
 73
    11
 74
     0
 42
0.000000001
 43
0.00000001
 40
0.0
 40
0.0
 40
0.0
 40
0.0
 40
0.1249584925460631
 40
0.2459006286062607
 40
0.3691660295860673
 40
0.498510841177348
 40
0.6285038663666183
 40
0.7510283288510036
 40
0.8737241742784403
 40
0.9999999999999999
 40
0.9999999999999999
 40
0.9999999999999999
 40
0.9999999999999999
 10
4.025991586538453
 20
97.07596153846158
 30
0.0
 10
4.005907997182003
 20
97.0749864751175
 30
0.0
 10
3.966386335654272
 20
97.07306768845201
 30
0.0
 10
3.909757200451594
 20
97.05391479093409
 30
0.0
 10
3.857187704899601
 20
97.02451543533111
 30
0.0
 10
3.811688158751137
 20
96.98281536310607
 30
0.0
 10
3.773145763303249
 20
96.9349506335263
 30
0.0
 10
3.745011924093792
 20
96.88143253880834
 30
0.0
 10
3.72780706751562
 20
96.82387609916043
 30
0.0
 10
3.725625632020267
 20
96.78393472827558
 30
0.0
 10
3.724519230769221
 20
96.76367688301285
 30
0.0
  0
SPLINE
  5
84
330
1F
100
AcDbEntity
  8
0
  6
Continuous
 62
     7
370
    15
100
AcDbSpline
210
0.0
220
0.0
230
1.0
 70
     8
 71
     3
 72
    11
 73
     7
 74
     0
 42
0.000000001
 43
0.00000001
 40
0.0
 40
0.0
 40
0.0
 40
0.0
 40
0.2400399314959946
 40
0.4794031936060899
 40
0.7317567388575524
 40
0.9999999999999999
 40
0.9999999999999999
 40
0.9999999999999999
 40
0.9999999999999999
 10
3.724519230769221
 20
96.76367688301285
 30
0.0
 10
3.725526896181354
 20
96.74534167153244
 30
0.0
 10
3.727539386410176
 20
96.70872293528981
 30
0.0
 10
3.743184588266132
 20
96.65470436173446
 30
0.0
 10
3.768100239457703
 20
96.60203833423105
 30
0.0
 10
3.791386772842594
 20
96.5697776977533
 30
0.0
 10
3.803385416666657
 20
96.55315504807695
 30
0.0
  0
SPLINE
  5
85
330
1F
100
AcDbEntity
  8
0
  6
Continuous
 62
     7
370
    15
100
AcDbSpline
210
0.0
220
0.0
230
1.0
 70
     8
 71
     3
 72
    15
 73
    11
 74
     0
 42
0.000000001
 43
0.00000001
 40
0.0
 40
0.0
 40
0.0
 40
0.0
 40
0.0834251049856354
 40
0.1775598214659682
 40
0.2839823599504284
 40
0.4022167468072005
 40
0.5335684803800601
 40
0.6761209941988169
 40
0.8316493725539869
 40
1.0
 40
1.0
 40
1.0
 40
1.0
 10
3.803385416666657
 20
96.55315504807695
 30
0.0
 10
3.810609443159537
 20
96.54427903228911
 30
0.0
 10
3.825984873068338
 20
96.52538755137475
 30
0.0
 10
3.854839740225837
 20
96.49916762720314
 30
0.0
 10
3.887517296391978
 20
96.4701914423899
 30
0.0
 10
3.926814668477681
 20
96.4412201688451
 30
0.0
 10
3.971038815201071
 20
96.41071138955081
 30
0.0
 10
4.021148737309275
 20
96.37986659749525
 30
0.0
 10
4.075554181104438
 20
96.34633458348941
 30
0.0
 10
4.114504452106664
 20
96.32506713124617
 30
0.0
 10
4.134750600961529
 20
96.31401241987182
 30
0.0
  0
SPLINE
  5
86
330
1F
100
AcDbEntity
  8
0
  6
Continuous
 62
     7
370
    15
100
AcDbSpline
210
0.0
220
0.0
230
1.0
 70
     8
 71
     3
 72
    15
 73
    11
 74
     0
 42
0.000000001
 43
0.00000001
 40
0.0
 40
0.0
 40
0.0
 40
0.0
 40
0.1589891012267926
 40
0.3071145916055698
 40
0.4462131585962125
 40
0.5748760724117269
 40
0.6941521095829575
 40
0.8045811801532442
 40
0.9065933190457743
 40
1.0
 40
1.0
 40
1.0
 40
1.0
 10
4.134750600961529
 20
96.31401241987182
 30
0.0
 10
4.159437203042461
 20
96.30018311517613
 30
0.0
 10
4.207123589453309
 20
96.27346945222041
 30
0.0
 10
4.274880599749366
 20
96.2320042211797
 30
0.0
 10
4.336373129772979
 20
96.19079142916007
 30
0.0
 10
4.392122199711415
 20
96.15027183071395
 30
0.0
 10
4.441055126303677
 20
96.1093117293759
 30
0.0
 10
4.48465654192353
 20
96.069481121264
 30
0.0
 10
4.521838916056647
 20
96.02957653446357
 30
0.0
 10
4.542661406694524
 20
96.00169720991096
 30
0.0
 10
4.5526141826923
 20
95.98837139423081
 30
0.0
  0
SPLINE
  5
87
330
1F
100
AcDbEntity
  8
0
  6
Continuous
 62
     7
370
    15
100
AcDbSpline
210
0.0
220
0.0
230
1.0
 70
     8
 71
     3
 72
    11
 73
     7
 74
     0
 42
0.000000001
 43
0.00000001
 40
0.0
 40
0.0
 40
0.0
 40
0.0
 40
0.2488386141270646
 40
0.4952350254576778
 40
0.7433356038750171
 40
1.0
 40
1.0
 40
1.0
 40
1.0
 10
4.5526141826923
 20
95.98837139423081
 30
0.0
 10
4.569133732558944
 20
95.96146001435645
 30
0.0
 10
4.602010702748865
 20
95.90790137377346
 30
0.0
 10
4.63653498731963
 20
95.819710371736
 30
0.0
 10
4.656546808069881
 20
95.7261744159537
 30
0.0
 10
4.659324679272717
 20
95.6621916162764
 30
0.0
 10
4.66073717948717
 20
95.62965745192311
 30
0.0
  0
SPLINE
  5
88
330
1F
100
AcDbEntity
  8
0
  6
Continuous
 62
     7
370
    15
100
AcDbSpline
210
0.0
220
0.0
230
1.0
 70
     8
 71
     3
 72
    23
 73
    19
 74
     0
 42
0.000000001
 43
0.00000001
 40
0.0
 40
0.0
 40
0.0
 40
0.0
 40
0.0645481255642446
 40
0.127199132755509
 40
0.1885973380874205
 40
0.2486395150940062
 40
0.3095246994640542
 40
0.3700369910533473
 40
0.43188924360707
 40
0.4957042857252945
 40
0.5595193278435114
 40
0.6213715803972395
 40
0.6823971072916363
 40
0.7435684819321643
 40
0.8054984835712143
 40
0.8686397008205246
 40
0.933066225081164
 40
1.0
 40
1.0
 40
1.0
 40
1.0
 10
4.66073717948717
 20
95.62965745192311
 30
0.0
 10
4.660084459526031
 20
95.606734726401
 30
0.0
 10
4.658798203538527
 20
95.56156299164785
 30
0.0
 10
4.649855528530646
 20
95.49503782470481
 30
0.0
 10
4.634474942866039
 20
95.43141576179676
 30
0.0
 10
4.613525608919311
 20
95.37000646781757
 30
0.0
 10
4.585236927785149
 20
95.31198657259313
 30
0.0
 10
4.552082854655013
 20
95.2558922610115
 30
0.0
 10
4.51228204186608
 20
95.20293695236683
 30
0.0
 10
4.466842008270872
 20
95.15319018134831
 30
0.0
 10
4.417089310161321
 20
95.10775525333128
 30
0.0
 10
4.364015884654942
 20
95.06781923803838
 30
0.0
 10
4.307556374030269
 20
95.0346410892935
 30
0.0
 10
4.248114204168532
 20
95.0071860975374
 30
0.0
 10
4.185554317974161
 20
94.98535274925752
 30
0.0
 10
4.119866934121375
 20
94.97023745304871
 30
0.0
 10
4.051260849617118
 20
94.96119073405615
 30
0.0
 10
4.004606666526868
 20
94.95993481637441
 30
0.0
 10
3.980834334935888
 20
94.9592948717949
 30
0.0
  0
SPLINE
  5
89
330
1F
100
AcDbEntity
  8
0
  6
Continuous
 62
     7
370
    15
100
AcDbSpline
210
0.0
220
0.0
230
1.0
 70
     8
 71
     3
 72
    15
 73
    11
 74
     0
 42
0.000000001
 43
0.00000001
 40
0.0
 40
0.0
 40
0.0
 40
0.0
 40
0.1267425189618459
 40
0.2517239612496097
 40
0.3772186880262472
 40
0.5046935492516285
 40
0.6314582385934933
 40
0.7554010672029535
 40
0.8777005336014835
 40
1.0
 40
1.0
 40
1.0
 40
1.0
 10
3.980834334935888
 20
94.9592948717949
 30
0.0
 10
3.948751254360015
 20
94.96019539280451
 30
0.0
 10
3.885030884922821
 20
94.96198392215977
 30
0.0
 10
3.790788068266471
 20
94.97877156335838
 30
0.0
 10
3.6986942371921
 20
95.0048930993146
 30
0.0
 10
3.609446311342741
 20
95.04092112530093
 30
0.0
 10
3.525040193743405
 20
95.08641498625003
 30
0.0
 10
3.447814283569718
 20
95.14090015757469
 30
0.0
 10
3.377500314051774
 20
95.20257679807679
 30
0.0
 10
3.337478737162551
 20
95.24985065277777
 30
0.0
 10
3.317467948717939
 20
95.27348758012823
 30
0.0
  0
LINE
  5
8A
330
1F
100
AcDbEntity
  8
0
  6
Continuous
 62
     7
370
    15
100
AcDbLine
 10
3.3174679487
 20
95.2734875801
 30
0.0
 11
3.5063651843
 21
95.4884615385
 31
0.0
  0
SPLINE
  5
8B
330
1F
100
AcDbEntity
  8
0
  6
Continuous
 62
     7
370
    15
100
AcDbSpline
210
0.0
220
0.0
230
1.0
 70
     8
 71
     3
 72
    15
 73
    11
 74
     0
 42
0.000000001
 43
0.00000001
 40
0.0
 40
0.0
 40
0.0
 40
0.0
 40
0.1474758177483536
 40
0.285904171544367
 40
0.4171716482444394
 40
0.5405007435864956
 40
0.6592377183802366
 40
0.7750060983159528
 40
0.8872285734286345
 40
1.0
 40
1.0
 40
1.0
 40
1.0
 10
3.506365184294862
 20
95.48846153846156
 30
0.0
 10
3.524301587494922
 20
95.46908971635419
 30
0.0
 10
3.559074017142673
 20
95.4315345101145
 30
0.0
 10
3.614682978094512
 20
95.3815288582197
 30
0.0
 10
3.671270006237966
 20
95.33961770512133
 30
0.0
 10
3.728270043344669
 20
95.3045626074172
 30
0.0
 10
3.7865268431953
 20
95.27755206312425
 30
0.0
 10
3.845713936107267
 20
95.2585759100777
 30
0.0
 10
3.905710935077277
 20
95.24638010713038
 30
0.0
 10
3.94600815828529
 20
95.24494837959766
 30
0.0
 10
3.96620592948717
 20
95.2442307692308
 30
0.0
  0
SPLINE
  5
8C
330
1F
100
AcDbEntity
  8
0
  6
Continuous
 62
     7
370
    15
100
AcDbSpline
210
0.0
220
0.0
230
1.0
 70
     8
 71
     3
 72
    15
 73
    11
 74
     0
 42
0.000000001
 43
0.00000001
 40
0.0
 40
0.0
 40
0.0
 40
0.0
 40
0.1340420464623718
 40
0.2618956736507278
 40
0.3878360446911128
 40
0.5176862058208316
 40
0.6445086536782102
 40
0.7647182630567214
 40
0.8802907821584928
 40
1.0
 40
1.0
 40
1.0
 40
1.0
 10
3.96620592948717
 20
95.2442307692308
 30
0.0
 10
3.993708619463395
 20
95.24547430321114
 30
0.0
 10
4.047444262186161
 20
95.24790396000972
 30
0.0
 10
4.124409671785997
 20
95.26996303635104
 30
0.0
 10
4.195473997208927
 20
95.30455234979235
 30
0.0
 10
4.257180889215317
 20
95.35361489740907
 30
0.0
 10
4.309706421040902
 20
95.41072459541014
 30
0.0
 10
4.347741264967899
 20
95.47505383220404
 30
0.0
 10
4.37157750985028
 20
95.5447146536293
 30
0.0
 10
4.374376951488181
 20
95.59300395671944
 30
0.0
 10
4.375801282051273
 20
95.6175731169872
 30
0.0
  0
SPLINE
  5
8D
330
1F
100
AcDbEntity
  8
0
  6
Continuous
 62
     7
370
    15
100
AcDbSpline
210
0.0
220
0.0
230
1.0
 70
     8
 71
     3
 72
    11
 73
     7
 74
     0
 42
0.000000001
 43
0.00000001
 40
0.0
 40
0.0
 40
0.0
 40
0.0
 40
0.2534754346498561
 40
0.5004533151029344
 40
0.7455781350010007
 40
0.9999999999999999
 40
0.9999999999999999
 40
0.9999999999999999
 40
0.9999999999999999
 10
4.375801282051273
 20
95.6175731169872
 30
0.0
 10
4.37481585790107
 20
95.6378111282021
 30
0.0
 10
4.372870269826893
 20
95.67776837225443
 30
0.0
 10
4.357591015937085
 20
95.73559903877303
 30
0.0
 10
4.333449357101411
 20
95.79045331482065
 30
0.0
 10
4.30967799752336
 20
95.8225567805328
 30
0.0
 10
4.297571113782042
 20
95.83890725160259
 30
0.0
  0
SPLINE
  5
8E
330
1F
100
AcDbEntity
  8
0
  6
Continuous
 62
     7
370
    15
100
AcDbSpline
210
0.0
220
0.0
230
1.0
 70
     8
 71
     3
 72
    15
 73
    11
 74
     0
 42
0.000000001
 43
0.00000001
 40
0.0
 40
0.0
 40
0.0
 40
0.0
 40
0.076875074035058
 40
0.1674616757257369
 40
0.2722700232466383
 40
0.3895508405125208
 40
0.5208013683480675
 40
0.666263293375225
 40
0.8255449152058588
 40
1.0
 40
1.0
 40
1.0
 40
1.0
 10
4.297571113782042
 20
95.83890725160259
 30
0.0
 10
4.290293655980055
 20
95.84710361584027
 30
0.0
 10
4.274440724534573
 20
95.86495825737825
 30
0.0
 10
4.245362041386522
 20
95.89074386463122
 30
0.0
 10
4.210544209247279
 20
95.91853699743461
 30
0.0
 10
4.169595632873024
 20
95.94786636740044
 30
0.0
 10
4.122433763829664
 20
95.97834510220122
 30
0.0
 10
4.068867454011747
 20
96.00981330031327
 30
0.0
 10
4.009630524199976
 20
96.04376559442137
 30
0.0
 10
3.967747165790157
 20
96.06628056748279
 30
0.0
 10
3.945853365384606
 20
96.07804987980772
 30
0.0
  0
SPLINE
  5
8F
330
1F
100
AcDbEntity
  8
0
  6
Continuous
 62
     7
370
    15
100
AcDbSpline
210
0.0
220
0.0
230
1.0
 70
     8
 71
     3
 72
    15
 73
    11
 74
     0
 42
0.000000001
 43
0.00000001
 40
0.0
 40
0.0
 40
0.0
 40
0.0
 40
0.1577616635135394
 40
0.3059502132085334
 40
0.4437754990007219
 40
0.5728243624015416
 40
0.6921541564432353
 40
0.8022957069908471
 40
0.905564391832982
 40
1.0
 40
1.0
 40
1.0
 40
1.0
 10
3.945853365384607
 20
96.07804987980774
 30
0.0
 10
3.922225341920282
 20
96.09123894924605
 30
0.0
 10
3.876403063835683
 20
96.116816764013
 30
0.0
 10
3.811499449915309
 20
96.156654922533
 30
0.0
 10
3.752945778588295
 20
96.19717452170718
 30
0.0
 10
3.699333114520675
 20
96.23610259731237
 30
0.0
 10
3.65201563079898
 20
96.27549159646473
 30
0.0
 10
3.611179734836628
 20
96.31538524601021
 30
0.0
 10
3.575217674760858
 20
96.35417466195356
 30
0.0
 10
3.555308236976114
 20
96.38165863816839
 30
0.0
 10
3.545798277243581
 20
96.39478665865387
 30
0.0
  0
SPLINE
  5
90
330
1F
100
AcDbEntity
  8
0
  6
Continuous
 62
     7
370
    15
100
AcDbSpline
210
0.0
220
0.0
230
1.0
 70
     8
 71
     3
 72
    11
 73
     7
 74
     0
 42
0.000000001
 43
0.00000001
 40
0.0
 40
0.0
 40
0.0
 40
0.0
 40
0.2462523706929931
 40
0.4925907964763706
 40
0.7405699911181007
 40
1.0
 40
1.0
 40
1.0
 40
1.0
 10
3.545798277243581
 20
96.39478665865387
 30
0.0
 10
3.529351233269642
 20
96.42122589515056
 30
0.0
 10
3.496451397755346
 20
96.4741136075712
 30
0.0
 10
3.464506188615204
 20
96.56238811146385
 30
0.0
 10
3.442547862419525
 20
96.6553204134698
 30
0.0
 10
3.440586265623069
 20
96.71944348848373
 30
0.0
 10
3.439583333333324
 20
96.75222856570515
 30
0.0
  0
SPLINE
  5
91
330
1F
100
AcDbEntity
  8
0
  6
Continuous
 62
     7
370
    15
100
AcDbSpline
210
0.0
220
0.0
230
1.0
 70
     8
 71
     3
 72
    15
 73
    11
 74
     0
 42
0.000000001
 43
0.00000001
 40
0.0
 40
0.0
 40
0.0
 40
0.0
 40
0.131866751702332
 40
0.2566614034533694
 40
0.3842132129425032
 40
0.5133652331525805
 40
0.640443151825385
 40
0.7610850047778744
 40
0.8791455246531535
 40
1.0
 40
1.0
 40
1.0
 40
1.0
 10
5.331099759615377
 20
97.80865384615387
 30
0.0
 10
5.313620681428413
 20
97.80944280664069
 30
0.0
 10
5.279599939424664
 20
97.81097841514853
 30
0.0
 10
5.230281446728494
 20
97.82510264552367
 30
0.0
 10
5.185079888493125
 20
97.84815865469336
 30
0.0
 10
5.144562649724504
 20
97.87920669402972
 30
0.0
 10
5.110789545954644
 20
97.91634956508807
 30
0.0
 10
5.086207493630613
 20
97.9583750388013
 30
0.0
 10
5.070718063920087
 20
98.00392191477623
 30
0.0
 10
5.068772579391054
 20
98.03559223707096
 30
0.0
 10
5.067788461538454
 20
98.05161258012824
 30
0.0
  0
SPLINE
  5
92
330
1F
100
AcDbEntity
  8
0
  6
Continuous
 62
     7
370
    15
100
AcDbSpline
210
0.0
220
0.0
230
1.0
 70
     8
 71
     3
 72
    15
 73
    11
 74
     0
 42
0.000000001
 43
0.00000001
 40
0.0
 40
0.0
 40
0.0
 40
0.0
 40
0.1232898687277902
 40
0.2421490813339597
 40
0.3634374760537395
 40
0.4897453933413824
 40
0.6181148445930066
 40
0.7448937812572447
 40
0.8689322665891855
 40
1.0
 40
1.0
 40
1.0
 40
1.0
 10
5.067788461538454
 20
98.05161258012824
 30
0.0
 10
5.068751018683734
 20
98.06805985083928
 30
0.0
 10
5.070641541651001
 20
98.10036332828014
 30
0.0
 10
5.086219104148025
 20
98.14671382242503
 30
0.0
 10
5.110584786903446
 20
98.18933275620367
 30
0.0
 10
5.144585012394552
 20
98.22654874496858
 30
0.0
 10
5.185073937068423
 20
98.2576142465091
 30
0.0
 10
5.2302829844695
 20
98.2806656368718
 30
0.0
 10
5.279599533191504
 20
98.2947910661577
 30
0.0
 10
5.313620543552569
 20
98.29632650916103
 30
0.0
 10
5.331099759615377
 20
98.29711538461541
 30
0.0
  0
SPLINE
  5
93
330
1F
100
AcDbEntity
  8
0
  6
Continuous
 62
     7
370
    15
100
AcDbSpline
210
0.0
220
0.0
230
1.0
 70
     8
 71
     3
 72
    15
 73
    11
 74
     0
 42
0.000000001
 43
0.00000001
 40
0.0
 40
0.0
 40
0.0
 40
0.0
 40
0.1318992643310783
 40
0.2582840923169778
 40
0.3843411247791046
 40
0.5119796151257109
 40
0.6386320084211381
 40
0.7592297631645977
 40
0.8774121680352099
 40
1.0
 40
1.0
 40
1.0
 40
1.0
 10
5.331099759615377
 20
98.29711538461541
 30
0.0
 10
5.348781167508902
 20
98.29629518922786
 30
0.0
 10
5.383404760080293
 20
98.29468908913114
 30
0.0
 10
5.433472938615194
 20
98.28093546349551
 30
0.0
 10
5.479063228140674
 20
98.25762217741378
 30
0.0
 10
5.519501600119337
 20
98.22634418116823
 30
0.0
 10
5.554201525894216
 20
98.18956004317303
 30
0.0
 10
5.578495456020475
 20
98.14668759336239
 30
0.0
 10
5.594109558210759
 20
98.10037011388958
 30
0.0
 10
5.595995104783968
 20
98.06806214013245
 30
0.0
 10
5.59695512820512
 20
98.05161258012824
 30
0.0
  0
SPLINE
  5
94
330
1F
100
AcDbEntity
  8
0
  6
Continuous
 62
     7
370
    15
100
AcDbSpline
210
0.0
220
0.0
230
1.0
 70
     8
 71
     3
 72
    15
 73
    11
 74
     0
 42
0.000000001
 43
0.00000001
 40
0.0
 40
0.0
 40
0.0
 40
0.0
 40
0.1201621349925985
 40
0.2375463202768865
 40
0.3574970509273619
 40
0.4849171224652704
 40
0.6133292680851228
 40
0.7401503701286841
 40
0.8673012545632621
 40
0.9999999999999999
 40
0.9999999999999999
 40
0.9999999999999999
 40
0.9999999999999999
 10
5.59695512820512
 20
98.05161258012824
 30
0.0
 10
5.595973454649722
 20
98.03559003047305
 30
0.0
 10
5.594032802206987
 20
98.00391534599544
 30
0.0
 10
5.578507516436119
 20
97.95840083920505
 30
0.0
 10
5.553994486393263
 20
97.91612409633082
 30
0.0
 10
5.519523851003849
 20
97.8794113806383
 30
0.0
 10
5.479057332094984
 20
97.84815067536117
 30
0.0
 10
5.433474504930967
 20
97.8248328050688
 30
0.0
 10
5.383404348064214
 20
97.81108039474414
 30
0.0
 10
5.348781028229209
 20
97.80947412710246
 30
0.0
 10
5.331099759615377
 20
97.80865384615389
 30
0.0
  0
LINE
  5
95
330
1F
100
AcDbEntity
  8
0
  6
Continuous
 62
     7
370
    15
100
AcDbLine
 10
5.4748397436
 20
95.0
 30
0.0
 11
5.1899038462
 21
95.0
 31
0.0
  0
LINE
  5
96
330
1F
100
AcDbEntity
  8
0
  6
Continuous
 62
     7
370
    15
100
AcDbLine
 10
5.1899038462
 20
95.0
 30
0.0
 11
5.1899038462
 21
97.3201923077
 31
0.0
  0
LINE
  5
97
330
1F
100
AcDbEntity
  8
0
  6
Continuous
 62
     7
370
    15
100
AcDbLine
 10
5.1899038462
 20
97.3201923077
 30
0.0
 11
5.4748397436
 21
97.3201923077
 31
0.0
  0
LINE
  5
98
330
1F
100
AcDbEntity
  8
0
  6
Continuous
 62
     7
370
    15
100
AcDbLine
 10
5.4748397436
 20
97.3201923077
 30
0.0
 11
5.4748397436
 21
95.0
 31
0.0
  0
LINE
  5
99
330
1F
100
AcDbEntity
  8
0
  6
Continuous
 62
     7
370
    15
100
AcDbLine
 10
6.4517628205
 20
95.0
 30
0.0
 11
6.1668269231
 21
95.0
 31
0.0
  0
LINE
  5
9A
330
1F
100
AcDbEntity
  8
0
  6
Continuous
 62
     7
370
    15
100
AcDbLine
 10
6.1668269231
 20
95.0
 30
0.0
 11
6.1668269231
 21
97.3201923077
 31
0.0
  0
LINE
  5
9B
330
1F
100
AcDbEntity
  8
0
  6
Continuous
 62
     7
370
    15
100
AcDbLine
 10
6.1668269231
 20
97.3201923077
 30
0.0
 11
6.4517628205
 21
97.3201923077
 31
0.0
  0
LINE
  5
9C
330
1F
100
AcDbEntity
  8
0
  6
Continuous
 62
     7
370
    15
100
AcDbLine
 10
6.4517628205
 20
97.3201923077
 30
0.0
 11
6.4517628205
 21
96.9016927083
 31
0.0
  0
SPLINE
  5
9D
330
1F
100
AcDbEntity
  8
0
  6
Continuous
 62
     7
370
    15
100
AcDbSpline
210
0.0
220
0.0
230
1.0
 70
     8
 71
     3
 72
    15
 73
    11
 74
     0
 42
0.000000001
 43
0.00000001
 40
0.0
 40
0.0
 40
0.0
 40
0.0
 40
0.14097596626877
 40
0.2735687809631704
 40
0.3989883138042528
 40
0.5199297813924313
 40
0.6381100215247453
 40
0.7565889007405943
 40
0.876859754410608
 40
1.0
 40
1.0
 40
1.0
 40
1.0
 10
6.451762820512822
 20
96.90169270833337
 30
0.0
 10
6.482186246668384
 20
96.93965003547896
 30
0.0
 10
6.541223966546339
 20
97.01330755307337
 30
0.0
 10
6.639544040303321
 20
97.11011835999572
 30
0.0
 10
6.743451721310261
 20
97.18989724271489
 30
0.0
 10
6.852310681616473
 20
97.25349139865014
 30
0.0
 10
6.966268697921403
 20
97.30143083808495
 30
0.0
 10
7.084631128530785
 20
97.33605278985551
 30
0.0
 10
7.208106611910434
 20
97.35681259860222
 30
0.0
 10
7.292075779645717
 20
97.35952516465963
 30
0.0
 10
7.334555288461541
 20
97.36089743589748
 30
0.0
  0
SPLINE
  5
9E
330
1F
100
AcDbEntity
  8
0
  6
Continuous
 62
     7
370
    15
100
AcDbSpline
210
0.0
220
0.0
230
1.0
 70
     8
 71
     3
 72
    23
 73
    19
 74
     0
 42
0.000000001
 43
0.00000001
 40
0.0
 40
0.0
 40
0.0
 40
0.0
 40
0.0772404236164781
 40
0.1511781404663815
 40
0.2234879838003976
 40
0.2955426441988701
 40
0.3669762546197888
 40
0.4371305254863842
 40
0.5070436156432644
 40
0.5785597335236775
 40
0.6166135446965538
 40
0.6587562369775282
 40
0.7044912261144037
 40
0.7548031149051472
 40
0.8093316253185604
 40
0.8682744554728211
 40
0.9320728834092893
 40
0.9999999999999999
 40
0.9999999999999999
 40
0.9999999999999999
 40
0.9999999999999999
 10
7.33455528846154
 20
97.36089743589747
 30
0.0
 10
7.377490935124408
 20
97.35931429431868
 30
0.0
 10
7.461526352310151
 20
97.35621570437353
 30
0.0
 10
7.58388002227816
 20
97.3317077060085
 30
0.0
 10
7.698155886551172
 20
97.28984736743115
 30
0.0
 10
7.803946483587503
 20
97.2325049892798
 30
0.0
 10
7.899311884280757
 20
97.16119768840636
 30
0.0
 10
7.983063713834138
 20
97.07812355781053
 30
0.0
 10
8.052336088240951
 20
96.98256868230395
 30
0.0
 10
8.098779410390684
 20
96.89391981914646
 30
0.0
 10
8.12937339079608
 20
96.81528069862757
 30
0.0
 10
8.148634154112193
 20
96.74792828960933
 30
0.0
 10
8.164990830150337
 20
96.67289110962025
 30
0.0
 10
8.17917105870925
 20
96.59039591097805
 30
0.0
 10
8.188766010188992
 20
96.49986469553484
 30
0.0
 10
8.196333660363798
 20
96.40166857488681
 30
0.0
 10
8.201757190182471
 20
96.29583935650871
 30
0.0
 10
8.201972370806166
 20
96.22264505878687
 30
0.0
 10
8.202083333333336
 20
96.18490084134619
 30
0.0
  0
LINE
  5
9F
330
1F
100
AcDbEntity
  8
0
  6
Continuous
 62
     7
370
    15
100
AcDbLine
 10
8.2020833333
 20
96.1849008413
 30
0.0
 11
8.2020833333
 21
95.0
 31
0.0
  0
LINE
  5
A0
330
1F
100
AcDbEntity
  8
0
  6
Continuous
 62
     7
370
    15
100
AcDbLine
 10
8.2020833333
 20
95.0
 30
0.0
 11
7.9171474359
 21
95.0
 31
0.0
  0
LINE
  5
A1
330
1F
100
AcDbEntity
  8
0
  6
Continuous
 62
     7
370
    15
100
AcDbLine
 10
7.9171474359
 20
95.0
 30
0.0
 11
7.9171474359
 21
96.09140625
 31
0.0
  0
SPLINE
  5
A2
330
1F
100
AcDbEntity
  8
0
  6
Continuous
 62
     7
370
    15
100
AcDbSpline
210
0.0
220
0.0
230
1.0
 70
     8
 71
     3
 72
    15
 73
    11
 74
     0
 42
0.000000001
 43
0.00000001
 40
0.0
 40
0.0
 40
0.0
 40
0.0
 40
0.1788500194111732
 40
0.3421096489423057
 40
0.4898256633683972
 40
0.6232544282245694
 40
0.7400796760858082
 40
0.8414826730699914
 40
0.9289076721840629
 40
1.0
 40
1.0
 40
1.0
 40
1.0
 10
7.917147435897439
 20
96.09140625000005
 30
0.0
 10
7.91697216862311
 20
96.1229951821854
 30
0.0
 10
7.916636912155767
 20
96.18341943338753
 30
0.0
 10
7.915579504091935
 20
96.26993276156733
 30
0.0
 10
7.913030608102098
 20
96.34838844340412
 30
0.0
 10
7.90944892424255
 20
96.41859891240763
 30
0.0
 10
7.904206517976728
 20
96.48049674986154
 30
0.0
 10
7.89874313096637
 20
96.53420802233143
 30
0.0
 10
7.892062044872
 20
96.57966453582408
 30
0.0
 10
7.886108545097573
 20
96.60702857484304
 30
0.0
 10
7.883438501602565
 20
96.6193008814103
 30
0.0
  0
SPLINE
  5
A3
330
1F
100
AcDbEntity
  8
0
  6
Continuous
 62
     7
370
    15
100
AcDbSpline
210
0.0
220
0.0
230
1.0
 70
     8
 71
     3
 72
    15
 73
    11
 74
     0
 42
0.000000001
 43
0.00000001
 40
0.0
 40
0.0
 40
0.0
 40
0.0
 40
0.1355195283706091
 40
0.2608331631936834
 40
0.3784760291245071
 40
0.4931776464746769
 40
0.6092809649289429
 40
0.729981037856646
 40
0.8592613089300672
 40
1.0
 40
1.0
 40
1.0
 40
1.0
 10
7.883438501602565
 20
96.6193008814103
 30
0.0
 10
7.873799626593257
 20
96.65532459918423
 30
0.0
 10
7.85524777440978
 20
96.72465911037939
 30
0.0
 10
7.809406232574824
 20
96.81870655882881
 30
0.0
 10
7.751517654289145
 20
96.89871491493115
 30
0.0
 10
7.680853176650736
 20
96.96418951240467
 30
0.0
 10
7.598095372319841
 20
97.01514448570141
 30
0.0
 10
7.503473892809009
 20
97.05049943034662
 30
0.0
 10
7.397901840199122
 20
97.07261218883421
 30
0.0
 10
7.323648221631034
 20
97.07481394430526
 30
0.0
 10
7.28494591346154
 20
97.07596153846158
 30
0.0
  0
SPLINE
  5
A4
330
1F
100
AcDbEntity
  8
0
  6
Continuous
 62
     7
370
    15
100
AcDbSpline
210
0.0
220
0.0
230
1.0
 70
     8
 71
     3
 72
    23
 73
    19
 74
     0
 42
0.000000001
 43
0.00000001
 40
0.0
 40
0.0
 40
0.0
 40
0.0
 40
0.0639861098164678
 40
0.1266268580894778
 40
0.1889843719814879
 40
0.250230193960399
 40
0.3123511629623236
 40
0.3745736184579415
 40
0.4381475308782081
 40
0.502920412607374
 40
0.567974095140273
 40
0.6307713337491935
 40
0.6929346089254558
 40
0.7543975343123334
 40
0.8152183520172993
 40
0.8761169254810984
 40
0.9380146047939537
 40
1.0
 40
1.0
 40
1.0
 40
1.0
 10
7.28494591346154
 20
97.07596153846158
 30
0.0
 10
7.262024514762836
 20
97.07552973423107
 30
0.0
 10
7.216663658968381
 20
97.07467520481563
 30
0.0
 10
7.149399041596374
 20
97.06610152732338
 30
0.0
 10
7.084153541642083
 20
97.05207849974481
 30
0.0
 10
7.020272352053964
 20
97.0331476642992
 30
0.0
 10
6.959033139165749
 20
97.00714689150435
 30
0.0
 10
6.898468389309437
 20
96.97763810565745
 30
0.0
 10
6.840858681848809
 20
96.94085508478503
 30
0.0
 10
6.784975600167975
 20
96.89986073533612
 30
0.0
 10
6.732984696082593
 20
96.85443174023546
 30
0.0
 10
6.684608274810077
 20
96.80649422031101
 30
0.0
 10
6.64148449929657
 20
96.75544420829604
 30
0.0
 10
6.602415058146374
 20
96.70210425589467
 30
0.0
 10
6.568689062082422
 20
96.64574180285442
 30
0.0
 10
6.539249475054474
 20
96.58690061054865
 30
0.0
 10
6.514270666207683
 20
96.52550323268702
 30
0.0
 10
6.501858509467177
 20
96.48289014142766
 30
0.0
 10
6.495648036858976
 20
96.46156850961543
 30
0.0
  0
SPLINE
  5
A5
330
1F
100
AcDbEntity
  8
0
  6
Continuous
 62
     7
370
    15
100
AcDbSpline
210
0.0
220
0.0
230
1.0
 70
     8
 71
     3
 72
    15
 73
    11
 74
     0
 42
0.000000001
 43
0.00000001
 40
0.0
 40
0.0
 40
0.0
 40
0.0
 40
0.0769954547170641
 40
0.1676150771831776
 40
0.2710523936342312
 40
0.389459502572073
 40
0.5208428024655724
 40
0.6663987586080798
 40
0.826093612515301
 40
0.9999999999999999
 40
0.9999999999999999
 40
0.9999999999999999
 40
0.9999999999999999
 10
6.495648036858976
 20
96.46156850961543
 30
0.0
 10
6.492074212793885
 20
96.44591557541654
 30
0.0
 10
6.484294184755732
 20
96.41183995649163
 30
0.0
 10
6.475891157312334
 20
96.35591966176415
 30
0.0
 10
6.468264285340816
 20
96.29123132730702
 30
0.0
 10
6.461880758593969
 20
96.21785043969209
 30
0.0
 10
6.457975130795658
 20
96.13552008154973
 30
0.0
 10
6.453716642293841
 20
96.04459185725607
 30
0.0
 10
6.45216627975505
 20
95.94470319281882
 30
0.0
 10
6.451901072896275
 20
95.87516008584704
 30
0.0
 10
6.451762820512822
 20
95.8389072516026
 30
0.0
  0
LINE
  5
A6
330
1F
100
AcDbEntity
  8
0
  6
Continuous
 62
     7
370
    15
100
AcDbLine
 10
6.4517628205
 20
95.8389072516
 30
0.0
 11
6.4517628205
 21
95.0
 31
0.0
  0
SPLINE
  5
A7
330
1F
100
AcDbEntity
  8
0
  6
Continuous
 62
     7
370
    15
100
AcDbSpline
210
0.0
220
0.0
230
1.0
 70
     8
 71
     3
 72
    15
 73
    11
 74
     0
 42
0.000000001
 43
0.00000001
 40
0.0
 40
0.0
 40
0.0
 40
0.0
 40
0.1209110787487123
 40
0.238762228638724
 40
0.3547548590848601
 40
0.4703593994502174
 40
0.5891440987928706
 40
0.7163289048363453
 40
0.852445285857602
 40
1.0
 40
1.0
 40
1.0
 40
1.0
 10
9.970212339743568
 20
97.36089743589746
 30
0.0
 10
10.01289426296065
 20
97.35966673942009
 30
0.0
 10
10.09717794660123
 20
97.35723649202875
 30
0.0
 10
10.22121249880422
 20
97.33816731014542
 30
0.0
 10
10.34090295935474
 20
97.30776531231926
 30
0.0
 10
10.45692473071886
 20
97.26420827607079
 30
0.0
 10
10.57022292841285
 20
97.20474502700966
 30
0.0
 10
10.68042414430123
 20
97.12641963845752
 30
0.0
 10
10.78784721601705
 20
97.02852954455778
 30
0.0
 10
10.85413924801388
 20
96.95346087473895
 30
0.0
 10
10.88862179487177
 20
96.91441306089746
 30
0.0
  0
LINE
  5
A8
330
1F
100
AcDbEntity
  8
0
  6
Continuous
 62
     7
370
    15
100
AcDbLine
 10
10.8886217949
 20
96.9144130609
 30
0.0
 11
10.8886217949
 21
97.3201923077
 31
0.0
  0
LINE
  5
A9
330
1F
100
AcDbEntity
  8
0
  6
Continuous
 62
     7
370
    15
100
AcDbLine
 10
10.8886217949
 20
97.3201923077
 30
0.0
 11
11.1735576923
 21
97.3201923077
 31
0.0
  0
LINE
  5
AA
330
1F
100
AcDbEntity
  8
0
  6
Continuous
 62
     7
370
    15
100
AcDbLine
 10
11.1735576923
 20
97.3201923077
 30
0.0
 11
11.1735576923
 21
95.478921274
 31
0.0
  0
SPLINE
  5
AB
330
1F
100
AcDbEntity
  8
0
  6
Continuous
 62
     7
370
    15
100
AcDbSpline
210
0.0
220
0.0
230
1.0
 70
     8
 71
     3
 72
    15
 73
    11
 74
     0
 42
0.000000001
 43
0.00000001
 40
0.0
 40
0.0
 40
0.0
 40
0.0
 40
0.1634452548497674
 40
0.3154887127129157
 40
0.4562908239366565
 40
0.5858641495747634
 40
0.7054286858067423
 40
0.8133707129824345
 40
0.9117182381600867
 40
1.0
 40
1.0
 40
1.0
 40
1.0
 10
11.17355769230767
 20
95.4789212740385
 30
0.0
 10
11.17330637511836
 20
95.43969859893085
 30
0.0
 10
11.17282127240546
 20
95.3639893879768
 30
0.0
 10
11.16932789133876
 20
95.25451694861371
 30
0.0
 10
11.16196127700312
 20
95.15340128530974
 30
0.0
 10
11.15360768748955
 20
95.0601812364467
 30
0.0
 10
11.14159102339967
 20
94.97528889374937
 30
0.0
 10
11.12691674740485
 20
94.89847094379515
 30
0.0
 10
11.11037438131688
 20
94.82965366936168
 30
0.0
 10
11.09584175548333
 20
94.7872675635724
 30
0.0
 10
11.08896734775639
 20
94.76721754807694
 30
0.0
  0
SPLINE
  5
AC
330
1F
100
AcDbEntity
  8
0
  6
Continuous
 62
     7
370
    15
100
AcDbSpline
210
0.0
220
0.0
230
1.0
 70
     8
 71
     3
 72
    23
 73
    19
 74
     0
 42
0.000000001
 43
0.00000001
 40
0.0
 40
0.0
 40
0.0
 40
0.0
 40
0.0613707062984519
 40
0.1209064680177751
 40
0.1794236650000237
 40
0.2376066874397766
 40
0.2959384682493677
 40
0.3542182268208535
 40
0.4135370665946712
 40
0.4740867825531816
 40
0.5351211890802655
 40
0.5969876649622241
 40
0.6600198335468064
 40
0.7242774964844927
 40
0.7900118502255368
 40
0.8577476843344466
 40
0.9278290322155474
 40
0.9999999999999999
 40
0.9999999999999999
 40
0.9999999999999999
 40
0.9999999999999999
 10
11.08896734775639
 20
94.76721754807694
 30
0.0
 10
11.07881710975968
 20
94.74115540491904
 30
0.0
 10
11.0588201193429
 20
94.68981035989268
 30
0.0
 10
11.02136815184801
 20
94.61702636888698
 30
0.0
 10
10.97942739642236
 20
94.54849500095503
 30
0.0
 10
10.93152412977465
 20
94.48459817012866
 30
0.0
 10
10.87787497183154
 20
94.42565664248559
 30
0.0
 10
10.81974390394853
 20
94.37038987171044
 30
0.0
 10
10.75599880173042
 20
94.31996709129668
 30
0.0
 10
10.68667611280071
 20
94.27525828574655
 30
0.0
 10
10.61337385982559
 20
94.23499288662163
 30
0.0
 10
10.53613418152225
 20
94.20011635781935
 30
0.0
 10
10.45539262672092
 20
94.16973900681882
 30
0.0
 10
10.37039071791332
 20
94.14698532783538
 30
0.0
 10
10.28246114807445
 20
94.1272688313211
 30
0.0
 10
10.19056990702291
 20
94.11443758063628
 30
0.0
 10
10.09525386992105
 20
94.10570446362104
 30
0.0
 10
10.03044270370528
 20
94.10489689513281
 30
0.0
 10
9.997561097756392
 20
94.10448717948722
 30
0.0
  0
SPLINE
  5
AD
330
1F
100
AcDbEntity
  8
0
  6
Continuous
 62
     7
370
    15
100
AcDbSpline
210
0.0
220
0.0
230
1.0
 70
     8
 71
     3
 72
    19
 73
    15
 74
     0
 42
0.000000001
 43
0.00000001
 40
0.0
 40
0.0
 40
0.0
 40
0.0
 40
0.0964914237691189
 40
0.1884736749923093
 40
0.2768399149588139
 40
0.3621365621714261
 40
0.4434367545654594
 40
0.5201655209986238
 40
0.592709663569001
 40
0.6629173343528215
 40
0.7354188002027047
 40
0.8148809699994186
 40
0.9030605557399849
 40
1.0
 40
1.0
 40
1.0
 40
1.0
 10
9.99756109775639
 20
94.10448717948721
 30
0.0
 10
9.949587088510516
 20
94.1052641344726
 30
0.0
 10
9.855880959266116
 20
94.10678173630372
 30
0.0
 10
9.719260715902188
 20
94.12446278070803
 30
0.0
 10
9.589507791397832
 20
94.14945853342459
 30
0.0
 10
9.468336677105643
 20
94.18729131420538
 30
0.0
 10
9.35651308923014
 20
94.23358915488991
 30
0.0
 10
9.254800716427786
 20
94.28674314792721
 30
0.0
 10
9.164112640322335
 20
94.34769344948269
 30
0.0
 10
9.082357594098132
 20
94.41709042317127
 30
0.0
 10
9.008569151617552
 20
94.49960747722798
 30
0.0
 10
8.939147967135224
 20
94.59685214296975
 30
0.0
 10
8.872326969878365
 20
94.71030567812832
 30
0.0
 10
8.833166848384064
 20
94.79357478225862
 30
0.0
 10
8.812660256410236
 20
94.83717948717951
 30
0.0
  0
LINE
  5
AE
330
1F
100
AcDbEntity
  8
0
  6
Continuous
 62
     7
370
    15
100
AcDbLine
 10
8.8126602564
 20
94.8371794872
 30
0.0
 11
9.0975961538
 21
94.8371794872
 31
0.0
  0
SPLINE
  5
AF
330
1F
100
AcDbEntity
  8
0
  6
Continuous
 62
     7
370
    15
100
AcDbSpline
210
0.0
220
0.0
230
1.0
 70
     8
 71
     3
 72
    15
 73
    11
 74
     0
 42
0.000000001
 43
0.00000001
 40
0.0
 40
0.0
 40
0.0
 40
0.0
 40
0.124716486702299
 40
0.2438053739155057
 40
0.3600615340644419
 40
0.4751119996584064
 40
0.5935250978119063
 40
0.7193501703843596
 40
0.8538547713042648
 40
1.0
 40
1.0
 40
1.0
 40
1.0
 10
9.097596153846135
 20
94.83717948717953
 30
0.0
 10
9.120512586573197
 20
94.80079772844311
 30
0.0
 10
9.165311390625202
 20
94.72967587016304
 30
0.0
 10
9.249084655502253
 20
94.63758893585079
 30
0.0
 10
9.340893251545973
 20
94.55889124074139
 30
0.0
 10
9.443835535577586
 20
94.4954721814113
 30
0.0
 10
9.558339838126306
 20
94.44765687063969
 30
0.0
 10
9.684475046294393
 20
94.41357070887281
 30
0.0
 10
9.823267560296763
 20
94.39316338108166
 30
0.0
 10
9.919894797448528
 20
94.39070384996863
 30
0.0
 10
9.970212339743568
 20
94.38942307692311
 30
0.0
  0
SPLINE
  5
B0
330
1F
100
AcDbEntity
  8
0
  6
Continuous
 62
     7
370
    15
100
AcDbSpline
210
0.0
220
0.0
230
1.0
 70
     8
 71
     3
 72
    23
 73
    19
 74
     0
 42
0.000000001
 43
0.00000001
 40
0.0
 40
0.0
 40
0.0
 40
0.0
 40
0.098171297827695
 40
0.1892644356875861
 40
0.2744630560180387
 40
0.3550231712817374
 40
0.4309204620429349
 40
0.5010860453857569
 40
0.5666076270375979
 40
0.6297208634282968
 40
0.6627106951128647
 40
0.6987655616316109
 40
0.7386105373889622
 40
0.782581228078447
 40
0.8304087872491275
 40
0.882577866070276
 40
0.9392286810451766
 40
1.0
 40
1.0
 40
1.0
 40
1.0
 10
9.970212339743568
 20
94.38942307692311
 30
0.0
 10
10.01989373312696
 20
94.3907204261872
 30
0.0
 10
10.11567448667658
 20
94.3932215857093
 30
0.0
 10
10.25340704716773
 20
94.4135798164945
 30
0.0
 10
10.3791324552722
 20
94.44766428854975
 30
0.0
 10
10.49212635155528
 20
94.4953876103588
 30
0.0
 10
10.59105551301414
 20
94.5538533362866
 30
0.0
 10
10.67633781939369
 20
94.61916768950124
 30
0.0
 10
10.74541191846594
 20
94.69281045652158
 30
0.0
 10
10.79186939537357
 20
94.76064823776105
 30
0.0
 10
10.82074794133821
 20
94.82108584112895
 30
0.0
 10
10.83913775611847
 20
94.87311283889049
 30
0.0
 10
10.85408199983775
 20
94.9319436636271
 30
0.0
 10
10.86658228103081
 20
94.99738108148614
 30
0.0
 10
10.87689732387503
 20
95.06951858468284
 30
0.0
 10
10.88343136714736
 20
95.14852111488712
 30
0.0
 10
10.88815378193079
 20
95.23420912370769
 30
0.0
 10
10.88846218315063
 20
95.29362075622646
 30
0.0
 10
10.88862179487177
 20
95.32436899038464
 30
0.0
  0
LINE
  5
B1
330
1F
100
AcDbEntity
  8
0
  6
Continuous
 62
     7
370
    15
100
AcDbLine
 10
10.8886217949
 20
95.3243689904
 30
0.0
 11
10.8886217949
 21
95.4445763221
 31
0.0
  0
SPLINE
  5
B2
330
1F
100
AcDbEntity
  8
0
  6
Continuous
 62
     7
370
    15
100
AcDbSpline
210
0.0
220
0.0
230
1.0
 70
     8
 71
     3
 72
    15
 73
    11
 74
     0
 42
0.000000001
 43
0.00000001
 40
0.0
 40
0.0
 40
0.0
 40
0.0
 40
0.1265607130145234
 40
0.2508952618879488
 40
0.3747192653150397
 40
0.4998264235934704
 40
0.6249635314328665
 40
0.7490394747387378
 40
0.8731801199413519
 40
1.0
 40
1.0
 40
1.0
 40
1.0
 10
10.88862179487177
 20
95.44457632211541
 30
0.0
 10
10.85970106694236
 20
95.41015768730142
 30
0.0
 10
10.80236831782133
 20
95.3419258309078
 30
0.0
 10
10.7033560996365
 20
95.25251634619335
 30
0.0
 10
10.59520932617222
 20
95.17551249941991
 30
0.0
 10
10.47811211270727
 20
95.1123584523973
 30
0.0
 10
10.35493277874897
 20
95.06184744578744
 30
0.0
 10
10.22700546972747
 20
95.02652061696847
 30
0.0
 10
10.09547696250928
 20
95.00369699349652
 30
0.0
 10
10.00634822659689
 20
95.00124107091105
 30
0.0
 10
9.961308092948698
 20
95.00000000000003
 30
0.0
  0
SPLINE
  5
B3
330
1F
100
AcDbEntity
  8
0
  6
Continuous
 62
     7
370
    15
100
AcDbSpline
210
0.0
220
0.0
230
1.0
 70
     8
 71
     3
 72
    31
 73
    27
 74
     0
 42
0.000000001
 43
0.00000001
 40
0.0
 40
0.0
 40
0.0
 40
0.0
 40
0.0428647590311919
 40
0.0852222575672314
 40
0.1272022841437368
 40
0.1690253126085998
 40
0.2108820330997097
 40
0.2529626777271211
 40
0.2956282851000467
 40
0.338553293630608
 40
0.3814632477171844
 40
0.4235815621432618
 40
0.4650661653954491
 40
0.506312218841862
 40
0.5470395054616143
 40
0.587675832893168
 40
0.6286747862975591
 40
0.6699464646027563
 40
0.7110355744560714
 40
0.7519958286352143
 40
0.7926726074835024
 40
0.8334460178854441
 40
0.8741906070422377
 40
0.9154935830294668
 40
0.9574778068391485
 40
1.0
 40
1.0
 40
1.0
 40
1.0
 10
9.9613080929487
 20
95.00000000000004
 30
0.0
 10
9.934786619973456
 20
95.00046720258395
 30
0.0
 10
9.882057528476325
 20
95.00139607888802
 30
0.0
 10
9.803721436344178
 20
95.00952296983793
 30
0.0
 10
9.726541324431988
 20
95.02131468606191
 30
0.0
 10
9.650697193284683
 20
95.03862427714004
 30
0.0
 10
9.576079601431116
 20
95.06084177192879
 30
0.0
 10
9.502811857149617
 20
95.08861552779446
 30
0.0
 10
9.430300729478303
 20
95.12001638507918
 30
0.0
 10
9.35986426356089
 20
95.15700314248454
 30
0.0
 10
9.292203987823218
 20
95.19815323513609
 30
0.0
 10
9.22783024130762
 20
95.2427292288517
 30
0.0
 10
9.167080209421103
 20
95.29049781889925
 30
0.0
 10
9.110532108277598
 20
95.34193004285723
 30
0.0
 10
9.058260113463225
 20
95.396951461863
 30
0.0
 10
9.009561176013598
 20
95.45497554211406
 30
0.0
 10
8.965240582602844
 20
95.51681251462033
 30
0.0
 10
8.924388865220367
 20
95.5813348260968
 30
0.0
 10
8.888958087381877
 20
95.64897223555447
 30
0.0
 10
8.857857264368977
 20
95.71825807926388
 30
0.0
 10
8.830815875510579
 20
95.78904420940418
 30
0.0
 10
8.809257261078148
 20
95.8615676162408
 30
0.0
 10
8.7927916083263
 20
95.93578257799798
 30
0.0
 10
8.780535902414812
 20
96.01156751376033
 30
0.0
 10
8.773584528698512
 20
96.08915579396758
 30
0.0
 10
8.7725005618869
 20
96.14142658930851
 30
0.0
 10
8.771955128205109
 20
96.16772836538466
 30
0.0
  0
SPLINE
  5
B4
330
1F
100
AcDbEntity
  8
0
  6
Continuous
 62
     7
370
    15
100
AcDbSpline
210
0.0
220
0.0
230
1.0
 70
     8
 71
     3
 72
    31
 73
    27
 74
     0
 42
0.000000001
 43
0.00000001
 40
0.0
 40
0.0
 40
0.0
 40
0.0
 40
0.0420341186638445
 40
0.0839054330862317
 40
0.1250689344486264
 40
0.1661584697031411
 40
0.2072102728707317
 40
0.2484907320562522
 40
0.2898781122327928
 40
0.3321695142040877
 40
0.3744758421539214
 40
0.4162249804562083
 40
0.457609586958505
 40
0.4990731704672217
 40
0.5405533615534444
 40
0.5822488491953594
 40
0.6245497501259987
 40
0.6674328009210345
 40
0.710322543305531
 40
0.7524671185698649
 40
0.7940647568438067
 40
0.835215707295013
 40
0.876228344224685
 40
0.9174461887061519
 40
0.9586431404713234
 40
0.9999999999999999
 40
0.9999999999999999
 40
0.9999999999999999
 40
0.9999999999999999
 10
8.771955128205107
 20
96.16772836538465
 30
0.0
 10
8.772426086183634
 20
96.19403831675525
 30
0.0
 10
8.773366178052097
 20
96.24655631723685
 30
0.0
 10
8.781485995035158
 20
96.32446118826691
 30
0.0
 10
8.793068566869854
 20
96.40132289023636
 30
0.0
 10
8.811399900173269
 20
96.4763491759141
 30
0.0
 10
8.833463902736717
 20
96.55039448644236
 30
0.0
 10
8.860790286413671
 20
96.62291190047272
 30
0.0
 10
8.893645875240752
 20
96.69392350516287
 30
0.0
 10
8.930847576732925
 20
96.76348188725977
 30
0.0
 10
8.97265243220965
 20
96.83065365223604
 30
0.0
 10
9.01849261122748
 20
96.89444996673524
 30
0.0
 10
9.068423454305997
 20
96.95440137983948
 30
0.0
 10
9.121756120618658
 20
97.01111270539148
 30
0.0
 10
9.179141811789128
 20
97.06403677423788
 30
0.0
 10
9.240550840559472
 20
97.1130451352393
 30
0.0
 10
9.305377881925757
 20
97.15895928764097
 30
0.0
 10
9.373823851564909
 20
97.2007888577799
 30
0.0
 10
9.444832625433635
 20
97.23778418140871
 30
0.0
 10
9.516600160145753
 20
97.27154132290467
 30
0.0
 10
9.590077130486028
 20
97.29833298847846
 30
0.0
 10
9.66389364839204
 20
97.3219396568892
 30
0.0
 10
9.739349713927052
 20
97.33866301255291
 30
0.0
 10
9.815520135284567
 20
97.35156461772117
 30
0.0
 10
9.892665684533991
 20
97.3594247575084
 30
0.0
 10
9.944330096469988
 20
97.36040590959982
 30
0.0
 10
9.970212339743568
 20
97.36089743589746
 30
0.0
  0
LINE
  5
B5
330
1F
100
AcDbEntity
  8
0
  6
Continuous
 62
     7
370
    15
100
AcDbLine
 10
17.6456730769
 20
96.8908804087
 30
0.0
 11
17.6456730769
 21
97.3201923077
 31
0.0
  0
LINE
  5
B6
330
1F
100
AcDbEntity
  8
0
  6
Continuous
 62
     7
370
    15
100
AcDbLine
 10
17.6456730769
 20
97.3201923077
 30
0.0
 11
17.9306089744
 21
97.3201923077
 31
0.0
  0
LINE
  5
B7
330
1F
100
AcDbEntity
  8
0
  6
Continuous
 62
     7
370
    15
100
AcDbLine
 10
17.9306089744
 20
97.3201923077
 30
0.0
 11
17.9306089744
 21
95.0
 31
0.0
  0
LINE
  5
B8
330
1F
100
AcDbEntity
  8
0
  6
Continuous
 62
     7
370
    15
100
AcDbLine
 10
17.9306089744
 20
95.0
 30
0.0
 11
17.6456730769
 21
95.0
 31
0.0
  0
LINE
  5
B9
330
1F
100
AcDbEntity
  8
0
  6
Continuous
 62
     7
370
    15
100
AcDbLine
 10
17.6456730769
 20
95.0
 30
0.0
 11
17.6456730769
 21
95.4013271234
 31
0.0
  0
SPLINE
  5
BA
330
1F
100
AcDbEntity
  8
0
  6
Continuous
 62
     7
370
    15
100
AcDbSpline
210
0.0
220
0.0
230
1.0
 70
     8
 71
     3
 72
    15
 73
    11
 74
     0
 42
0.000000001
 43
0.00000001
 40
0.0
 40
0.0
 40
0.0
 40
0.0
 40
0.1342983790141707
 40
0.2620849753822996
 40
0.3862699121345023
 40
0.5071645966227986
 40
0.6273002357255082
 40
0.7481449416029957
 40
0.8723701771613532
 40
1.0
 40
1.0
 40
1.0
 40
1.0
 10
17.64567307692305
 20
95.40132712339746
 30
0.0
 10
17.61354317399789
 20
95.36500549173573
 30
0.0
 10
17.5508412644217
 20
95.29412337082115
 30
0.0
 10
17.44611967883327
 20
95.2015202572045
 30
0.0
 10
17.33511426030746
 20
95.12497706552176
 30
0.0
 10
17.21836377613889
 20
95.06315535627928
 30
0.0
 10
17.09597365539056
 20
95.01671684803038
 30
0.0
 10
16.96821520478996
 20
94.98370940368055
 30
0.0
 10
16.8350363092905
 20
94.96248785320289
 30
0.0
 10
16.744093101731
 20
94.96036874765025
 30
0.0
 10
16.6980068108974
 20
94.9592948717949
 30
0.0
  0
SPLINE
  5
BB
330
1F
100
AcDbEntity
  8
0
  6
Continuous
 62
     7
370
    15
100
AcDbSpline
210
0.0
220
0.0
230
1.0
 70
     8
 71
     3
 72
    23
 73
    19
 74
     0
 42
0.000000001
 43
0.00000001
 40
0.0
 40
0.0
 40
0.0
 40
0.0
 40
0.0646199913407683
 40
0.1274334841444694
 40
0.1890041265579406
 40
0.2499300706860485
 40
0.3106684537406723
 40
0.3723289611368239
 40
0.4349391099970083
 40
0.4995755441940384
 40
0.5641912077719262
 40
0.6267352169294792
 40
0.6881093335614025
 40
0.7492936065367515
 40
0.8103305278109497
 40
0.8719011702244162
 40
0.9350459146845324
 40
1.0
 40
1.0
 40
1.0
 40
1.0
 10
16.6980068108974
 20
94.9592948717949
 30
0.0
 10
16.65703302420646
 20
94.96040736663906
 30
0.0
 10
16.5762309026295
 20
94.96260125573042
 30
0.0
 10
16.45736881122491
 20
94.97962134544127
 30
0.0
 10
16.34298512779284
 20
95.00695412364512
 30
0.0
 10
16.23297176544966
 20
95.04496421625555
 30
0.0
 10
16.12804060494872
 20
95.09538396159873
 30
0.0
 10
16.02729323153883
 20
95.15574637946486
 30
0.0
 10
15.93125157520721
 20
95.2276291324666
 30
0.0
 10
15.84137953629
 20
95.30980541532959
 30
0.0
 10
15.75861907880615
 20
95.39906372513185
 30
0.0
 10
15.68599206721316
 20
95.4942643283686
 30
0.0
 10
15.62543748763065
 20
95.59499556118547
 30
0.0
 10
15.57480070013191
 20
95.69998206507032
 30
0.0
 10
15.53579687338924
 20
95.81003202779037
 30
0.0
 10
15.50860650516956
 20
95.92476488727868
 30
0.0
 10
15.49160624280538
 20
96.04404498684691
 30
0.0
 10
15.4894132606126
 20
96.12527012565508
 30
0.0
 10
15.48830128205125
 20
96.16645633012823
 30
0.0
  0
SPLINE
  5
BC
330
1F
100
AcDbEntity
  8
0
  6
Continuous
 62
     7
370
    15
100
AcDbSpline
210
0.0
220
0.0
230
1.0
 70
     8
 71
     3
 72
    23
 73
    19
 74
     0
 42
0.000000001
 43
0.00000001
 40
0.0
 40
0.0
 40
0.0
 40
0.0
 40
0.0637745323056357
 40
0.1260788099895062
 40
0.186904092747207
 40
0.2475739349176257
 40
0.3080033561644481
 40
0.3691318984609824
 40
0.4320332277442052
 40
0.4967907944370921
 40
0.5616108232295655
 40
0.6249138657484619
 40
0.6867263492419269
 40
0.7480788332577736
 40
0.8095822911398963
 40
0.8716307425688289
 40
0.9348858208285553
 40
1.0
 40
1.0
 40
1.0
 40
1.0
 10
15.48830128205125
 20
96.16645633012823
 30
0.0
 10
15.48943790609325
 20
96.20679126122334
 30
0.0
 10
15.491684950508
 20
96.28653124409158
 30
0.0
 10
15.50842465707739
 20
96.40380549155022
 30
0.0
 10
15.53657421493251
 20
96.51676134235822
 30
0.0
 10
15.57607833388656
 20
96.62503514085407
 30
0.0
 10
15.62673496446025
 20
96.72875790063173
 30
0.0
 10
15.68835544340059
 20
96.82800298046665
 30
0.0
 10
15.76094422080597
 20
96.92304379102158
 30
0.0
 10
15.84463033288511
 20
97.01164554677855
 30
0.0
 10
15.93528544581837
 20
97.09348853258008
 30
0.0
 10
16.03226693743446
 20
97.16461673808861
 30
0.0
 10
16.13316234263262
 20
97.22604559380024
 30
0.0
 10
16.23953664503509
 20
97.27471696159252
 30
0.0
 10
16.34981537583063
 20
97.3140952207149
 30
0.0
 10
16.46498028732991
 20
97.34133941320616
 30
0.0
 10
16.58455221941418
 20
97.35739341175953
 30
0.0
 10
16.66573288007279
 20
97.35971820495375
 30
0.0
 10
16.70691105769227
 20
97.36089743589746
 30
0.0
  0
SPLINE
  5
BD
330
1F
100
AcDbEntity
  8
0
  6
Continuous
 62
     7
370
    15
100
AcDbSpline
210
0.0
220
0.0
230
1.0
 70
     8
 71
     3
 72
    15
 73
    11
 74
     0
 42
0.000000001
 43
0.00000001
 40
0.0
 40
0.0
 40
0.0
 40
0.0
 40
0.1298621417207374
 40
0.2546535308972884
 40
0.3760145541937135
 40
0.4952552518176072
 40
0.6147977192994574
 40
0.7381055541683311
 40
0.865196300072355
 40
1.0
 40
1.0
 40
1.0
 40
1.0
 10
16.70691105769227
 20
97.36089743589746
 30
0.0
 10
16.75426378698509
 20
97.3595931898559
 30
0.0
 10
16.84712025425304
 20
97.35703562492408
 30
0.0
 10
16.98294494837366
 20
97.33575157942761
 30
0.0
 10
17.1114367247576
 20
97.29979382707998
 30
0.0
 10
17.23358745838488
 20
97.25088295387292
 30
0.0
 10
17.34895850934235
 20
97.18588732106296
 30
0.0
 10
17.45645764511465
 20
97.10389978499144
 30
0.0
 10
17.55720990497246
 20
97.00543742252572
 30
0.0
 10
17.6156120266919
 20
96.92980851932863
 30
0.0
 10
17.64567307692305
 20
96.89088040865387
 30
0.0
  0
LINE
  5
BE
330
1F
100
AcDbEntity
  8
0
  6
Continuous
 62
     7
370
    15
100
AcDbLine
 10
-21.9807692308
 20
97.2896634615
 30
0.0
 11
-22.2841496394
 21
95.0
 31
0.0
  0
LINE
  5
BF
330
1F
100
AcDbEntity
  8
0
  6
Continuous
 62
     7
370
    15
100
AcDbLine
 10
-22.2841496394
 20
95.0
 30
0.0
 11
-22.5709935897
 21
95.0
 31
0.0
  0
LINE
  5
C0
330
1F
100
AcDbEntity
  8
0
  6
Continuous
 62
     7
370
    15
100
AcDbLine
 10
-22.5709935897
 20
95.0
 30
0.0
 11
-22.1518579728
 21
98.175
 31
0.0
  0
LINE
  5
C1
330
1F
100
AcDbEntity
  8
0
  6
Continuous
 62
     7
370
    15
100
AcDbLine
 10
-22.1518579728
 20
98.175
 30
0.0
 11
-22.1111528446
 21
98.175
 31
0.0
  0
LINE
  5
C2
330
1F
100
AcDbEntity
  8
0
  6
Continuous
 62
     7
370
    15
100
AcDbLine
 10
-22.1111528446
 20
98.175
 30
0.0
 11
-20.8003205128
 21
95.5698717949
 31
0.0
  0
LINE
  5
C3
330
1F
100
AcDbEntity
  8
0
  6
Continuous
 62
     7
370
    15
100
AcDbLine
 10
-20.8003205128
 20
95.5698717949
 30
0.0
 11
-19.4926682692
 21
98.175
 31
0.0
  0
LINE
  5
C4
330
1F
100
AcDbEntity
  8
0
  6
Continuous
 62
     7
370
    15
100
AcDbLine
 10
-19.4926682692
 20
98.175
 30
0.0
 11
-19.4513271234
 21
98.175
 31
0.0
  0
LINE
  5
C5
330
1F
100
AcDbEntity
  8
0
  6
Continuous
 62
     7
370
    15
100
AcDbLine
 10
-19.4513271234
 20
98.175
 30
0.0
 11
-19.0296474359
 21
95.0
 31
0.0
  0
LINE
  5
C6
330
1F
100
AcDbEntity
  8
0
  6
Continuous
 62
     7
370
    15
100
AcDbLine
 10
-19.0296474359
 20
95.0
 30
0.0
 11
-19.3158553686
 21
95.0
 31
0.0
  0
LINE
  5
C7
330
1F
100
AcDbEntity
  8
0
  6
Continuous
 62
     7
370
    15
100
AcDbLine
 10
-19.3158553686
 20
95.0
 30
0.0
 11
-19.6198717949
 21
97.2845753205
 31
0.0
  0
LINE
  5
C8
330
1F
100
AcDbEntity
  8
0
  6
Continuous
 62
     7
370
    15
100
AcDbLine
 10
-19.6198717949
 20
97.2845753205
 30
0.0
 11
-20.7659755609
 21
95.0
 31
0.0
  0
LINE
  5
C9
330
1F
100
AcDbEntity
  8
0
  6
Continuous
 62
     7
370
    15
100
AcDbLine
 10
-20.7659755609
 20
95.0
 30
0.0
 11
-20.8302133413
 21
95.0
 31
0.0
  0
LINE
  5
CA
330
1F
100
AcDbEntity
  8
0
  6
Continuous
 62
     7
370
    15
100
AcDbLine
 10
-20.8302133413
 20
95.0
 30
0.0
 11
-21.9807692308
 21
97.2896634615
 31
0.0
  0
LINE
  5
CB
330
1F
100
AcDbEntity
  8
0
  6
Continuous
 62
     7
370
    15
100
AcDbLine
 10
-95.0
 20
-120.0
 30
0.0
 11
-95.0
 21
-116.6
 31
0.0
  0
LINE
  5
CC
330
1F
100
AcDbEntity
  8
0
  6
Continuous
 62
     7
370
    15
100
AcDbLine
 10
-95.0
 20
-116.6
 30
0.0
 11
-60.0
 21
-116.6
 31
0.0
  0
LINE
  5
CD
330
1F
100
AcDbEntity
  8
0
  6
Continuous
 62
     7
370
    15
100
AcDbLine
 10
-60.0
 20
-120.0
 30
0.0
 11
-60.0
 21
-116.6
 31
0.0
  0
LINE
  5
CE
330
1F
100
AcDbEntity
  8
0
  6
Continuous
 62
     7
370
    15
100
AcDbLine
 10
-95.0
 20
-120.0
 30
0.0
 11
-60.0
 21
-120.0
 31
0.0
  0
LINE
  5
CF
330
1F
100
AcDbEntity
  8
0
  6
Continuous
 62
     7
370
    15
100
AcDbLine
 10
120.0
 20
-95.0
 30
0.0
 11
116.6
 21
-95.0
 31
0.0
  0
LINE
  5
D0
330
1F
100
AcDbEntity
  8
0
  6
Continuous
 62
     7
370
    15
100
AcDbLine
 10
116.6
 20
-95.0
 30
0.0
 11
116.6
 21
-60.0
 31
0.0
  0
LINE
  5
D1
330
1F
100
AcDbEntity
  8
0
  6
Continuous
 62
     7
370
    15
100
AcDbLine
 10
120.0
 20
-60.0
 30
0.0
 11
116.6
 21
-60.0
 31
0.0
  0
LINE
  5
D2
330
1F
100
AcDbEntity
  8
0
  6
Continuous
 62
     7
370
    15
100
AcDbLine
 10
120.0
 20
-95.0
 30
0.0
 11
120.0
 21
-60.0
 31
0.0
  0
LINE
  5
D3
330
1F
100
AcDbEntity
  8
0
  6
Continuous
 62
     7
370
    15
100
AcDbLine
 10
95.0
 20
120.0
 30
0.0
 11
95.0
 21
116.6
 31
0.0
  0
LINE
  5
D4
330
1F
100
AcDbEntity
  8
0
  6
Continuous
 62
     7
370
    15
100
AcDbLine
 10
95.0
 20
116.6
 30
0.0
 11
60.0
 21
116.6
 31
0.0
  0
LINE
  5
D5
330
1F
100
AcDbEntity
  8
0
  6
Continuous
 62
     7
370
    15
100
AcDbLine
 10
60.0
 20
120.0
 30
0.0
 11
60.0
 21
116.6
 31
0.0
  0
LINE
  5
D6
330
1F
100
AcDbEntity
  8
0
  6
Continuous
 62
     7
370
    15
100
AcDbLine
 10
95.0
 20
120.0
 30
0.0
 11
60.0
 21
120.0
 31
0.0
  0
LINE
  5
D7
330
1F
100
AcDbEntity
  8
0
  6
Continuous
 62
     7
370
    15
100
AcDbLine
 10
-120.0
 20
95.0
 30
0.0
 11
-116.6
 21
95.0
 31
0.0
  0
LINE
  5
D8
330
1F
100
AcDbEntity
  8
0
  6
Continuous
 62
     7
370
    15
100
AcDbLine
 10
-116.6
 20
95.0
 30
0.0
 11
-116.6
 21
60.0
 31
0.0
  0
LINE
  5
D9
330
1F
100
AcDbEntity
  8
0
  6
Continuous
 62
     7
370
    15
100
AcDbLine
 10
-120.0
 20
60.0
 30
0.0
 11
-116.6
 21
60.0
 31
0.0
  0
LINE
  5
DA
330
1F
100
AcDbEntity
  8
0
  6
Continuous
 62
     7
370
    15
100
AcDbLine
 10
-120.0
 20
95.0
 30
0.0
 11
-120.0
 21
60.0
 31
0.0
  0
LINE
  5
DB
330
1F
100
AcDbEntity
  8
0
  6
Continuous
 62
     7
370
    15
100
AcDbLine
 10
123.4
 20
-37.5
 30
0.0
 11
123.4
 21
-123.4
 31
0.0
  0
LINE
  5
DC
330
1F
100
AcDbEntity
  8
0
  6
Continuous
 62
     7
370
    15
100
AcDbLine
 10
123.4
 20
-37.5
 30
0.0
 11
120.0
 21
-37.5
 31
0.0
  0
LINE
  5
DD
330
1F
100
AcDbEntity
  8
0
  6
Continuous
 62
     7
370
    15
100
AcDbLine
 10
120.0
 20
-37.5
 30
0.0
 11
120.0
 21
37.5
 31
0.0
  0
LINE
  5
DE
330
1F
100
AcDbEntity
  8
0
  6
Continuous
 62
     7
370
    15
100
AcDbLine
 10
123.4
 20
37.5
 30
0.0
 11
120.0
 21
37.5
 31
0.0
  0
LINE
  5
DF
330
1F
100
AcDbEntity
  8
0
  6
Continuous
 62
     7
370
    15
100
AcDbLine
 10
123.4
 20
123.4
 30
0.0
 11
123.4
 21
37.5
 31
0.0
  0
LINE
  5
E0
330
1F
100
AcDbEntity
  8
0
  6
Continuous
 62
     7
370
    15
100
AcDbLine
 10
37.5
 20
123.4
 30
0.0
 11
123.4
 21
123.4
 31
0.0
  0
LINE
  5
E1
330
1F
100
AcDbEntity
  8
0
  6
Continuous
 62
     7
370
    15
100
AcDbLine
 10
37.5
 20
123.4
 30
0.0
 11
37.5
 21
120.0
 31
0.0
  0
LINE
  5
E2
330
1F
100
AcDbEntity
  8
0
  6
Continuous
 62
     7
370
    15
100
AcDbLine
 10
-37.5
 20
120.0
 30
0.0
 11
37.5
 21
120.0
 31
0.0
  0
LINE
  5
E3
330
1F
100
AcDbEntity
  8
0
  6
Continuous
 62
     7
370
    15
100
AcDbLine
 10
-37.5
 20
123.4
 30
0.0
 11
-37.5
 21
120.0
 31
0.0
  0
LINE
  5
E4
330
1F
100
AcDbEntity
  8
0
  6
Continuous
 62
     7
370
    15
100
AcDbLine
 10
-123.4
 20
123.4
 30
0.0
 11
-37.5
 21
123.4
 31
0.0
  0
LINE
  5
E5
330
1F
100
AcDbEntity
  8
0
  6
Continuous
 62
     7
370
    15
100
AcDbLine
 10
-123.4
 20
123.4
 30
0.0
 11
-123.4
 21
37.5
 31
0.0
  0
LINE
  5
E6
330
1F
100
AcDbEntity
  8
0
  6
Continuous
 62
     7
370
    15
100
AcDbLine
 10
-123.4
 20
37.5
 30
0.0
 11
-120.0
 21
37.5
 31
0.0
  0
LINE
  5
E7
330
1F
100
AcDbEntity
  8
0
  6
Continuous
 62
     7
370
    15
100
AcDbLine
 10
-120.0
 20
37.5
 30
0.0
 11
-120.0
 21
-37.5
 31
0.0
  0
LINE
  5
E8
330
1F
100
AcDbEntity
  8
0
  6
Continuous
 62
     7
370
    15
100
AcDbLine
 10
-123.4
 20
-37.5
 30
0.0
 11
-120.0
 21
-37.5
 31
0.0
  0
LINE
  5
E9
330
1F
100
AcDbEntity
  8
0
  6
Continuous
 62
     7
370
    15
100
AcDbLine
 10
-123.4
 20
-37.5
 30
0.0
 11
-123.4
 21
-123.4
 31
0.0
  0
LINE
  5
EA
330
1F
100
AcDbEntity
  8
0
  6
Continuous
 62
     7
370
    15
100
AcDbLine
 10
-123.4
 20
-123.4
 30
0.0
 11
-37.5
 21
-123.4
 31
0.0
  0
LINE
  5
EB
330
1F
100
AcDbEntity
  8
0
  6
Continuous
 62
     7
370
    15
100
AcDbLine
 10
-37.5
 20
-123.4
 30
0.0
 11
-37.5
 21
-120.0
 31
0.0
  0
LINE
  5
EC
330
1F
100
AcDbEntity
  8
0
  6
Continuous
 62
     7
370
    15
100
AcDbLine
 10
37.5
 20
-120.0
 30
0.0
 11
-37.5
 21
-120.0
 31
0.0
  0
LINE
  5
ED
330
1F
100
AcDbEntity
  8
0
  6
Continuous
 62
     7
370
    15
100
AcDbLine
 10
37.5
 20
-123.4
 30
0.0
 11
37.5
 21
-120.0
 31
0.0
  0
LINE
  5
EE
330
1F
100
AcDbEntity
  8
0
  6
Continuous
 62
     7
370
    15
100
AcDbLine
 10
37.5
 20
-123.4
 30
0.0
 11
123.4
 21
-123.4
 31
0.0
  0
LINE
  5
EF
330
1F
100
AcDbEntity
  8
0
  6
Continuous
 62
     7
370
    15
100
AcDbLine
 10
-120.0
 20
-95.0
 30
0.0
 11
-116.6
 21
-95.0
 31
0.0
  0
LINE
  5
F0
330
1F
100
AcDbEntity
  8
0
  6
Continuous
 62
     7
370
    15
100
AcDbLine
 10
-120.0
 20
-95.0
 30
0.0
 11
-120.0
 21
-60.0
 31
0.0
  0
LINE
  5
F1
330
1F
100
AcDbEntity
  8
0
  6
Continuous
 62
     7
370
    15
100
AcDbLine
 10
-120.0
 20
-60.0
 30
0.0
 11
-116.6
 21
-60.0
 31
0.0
  0
LINE
  5
F2
330
1F
100
AcDbEntity
  8
0
  6
Continuous
 62
     7
370
    15
100
AcDbLine
 10
-116.6
 20
-95.0
 30
0.0
 11
-116.6
 21
-60.0
 31
0.0
  0
LINE
  5
F3
330
1F
100
AcDbEntity
  8
0
  6
Continuous
 62
     7
370
    15
100
AcDbLine
 10
-95.0
 20
120.0
 30
0.0
 11
-95.0
 21
116.6
 31
0.0
  0
LINE
  5
F4
330
1F
100
AcDbEntity
  8
0
  6
Continuous
 62
     7
370
    15
100
AcDbLine
 10
-95.0
 20
120.0
 30
0.0
 11
-60.0
 21
120.0
 31
0.0
  0
LINE
  5
F5
330
1F
100
AcDbEntity
  8
0
  6
Continuous
 62
     7
370
    15
100
AcDbLine
 10
-60.0
 20
120.0
 30
0.0
 11
-60.0
 21
116.6
 31
0.0
  0
LINE
  5
F6
330
1F
100
AcDbEntity
  8
0
  6
Continuous
 62
     7
370
    15
100
AcDbLine
 10
-95.0
 20
116.6
 30
0.0
 11
-60.0
 21
116.6
 31
0.0
  0
LINE
  5
F7
330
1F
100
AcDbEntity
  8
0
  6
Continuous
 62
     7
370
    15
100
AcDbLine
 10
120.0
 20
95.0
 30
0.0
 11
116.6
 21
95.0
 31
0.0
  0
LINE
  5
F8
330
1F
100
AcDbEntity
  8
0
  6
Continuous
 62
     7
370
    15
100
AcDbLine
 10
120.0
 20
95.0
 30
0.0
 11
120.0
 21
60.0
 31
0.0
  0
LINE
  5
F9
330
1F
100
AcDbEntity
  8
0
  6
Continuous
 62
     7
370
    15
100
AcDbLine
 10
120.0
 20
60.0
 30
0.0
 11
116.6
 21
60.0
 31
0.0
  0
LINE
  5
FA
330
1F
100
AcDbEntity
  8
0
  6
Continuous
 62
     7
370
    15
100
AcDbLine
 10
116.6
 20
95.0
 30
0.0
 11
116.6
 21
60.0
 31
0.0
  0
LINE
  5
FB
330
1F
100
AcDbEntity
  8
0
  6
Continuous
 62
     7
370
    15
100
AcDbLine
 10
95.0
 20
-120.0
 30
0.0
 11
95.0
 21
-116.6
 31
0.0
  0
LINE
  5
FC
330
1F
100
AcDbEntity
  8
0
  6
Continuous
 62
     7
370
    15
100
AcDbLine
 10
95.0
 20
-120.0
 30
0.0
 11
60.0
 21
-120.0
 31
0.0
  0
LINE
  5
FD
330
1F
100
AcDbEntity
  8
0
  6
Continuous
 62
     7
370
    15
100
AcDbLine
 10
60.0
 20
-120.0
 30
0.0
 11
60.0
 21
-116.6
 31
0.0
  0
LINE
  5
FE
330
1F
100
AcDbEntity
  8
0
  6
Continuous
 62
     7
370
    15
100
AcDbLine
 10
95.0
 20
-116.6
 30
0.0
 11
60.0
 21
-116.6
 31
0.0
  0
SPLINE
  5
FF
330
1F
100
AcDbEntity
  8
0
  6
Continuous
 62
     7
370
    15
100
AcDbSpline
210
0.0
220
0.0
230
1.0
 70
     8
 71
     3
 72
    23
 73
    19
 74
     0
 42
0.000000001
 43
0.00000001
 40
0.0
 40
0.0
 40
0.0
 40
0.0
 40
0.0683846151037621
 40
0.1344755875434497
 40
0.1983910577839511
 40
0.2607534774484804
 40
0.3218292228076433
 40
0.3830372384795195
 40
0.4446531231064229
 40
0.5073980112040041
 40
0.5698252379730241
 40
0.6307776406313107
 40
0.6909286865237153
 40
0.7509451326917329
 40
0.8110494767293248
 40
0.8723308525469933
 40
0.935004093589404
 40
1.0
 40
1.0
 40
1.0
 40
1.0
 10
20.49503205128203
 20
96.09903846153848
 30
0.0
 10
20.49642869425705
 20
96.06846732611433
 30
0.0
 10
20.49917513633864
 20
96.00835042128423
 30
0.0
 10
20.5119795876396
 20
95.92038406805938
 30
0.0
 10
20.5321624038491
 20
95.83658825052531
 30
0.0
 10
20.56052791067116
 20
95.75759149102076
 30
0.0
 10
20.59487854886668
 20
95.68236201820336
 30
0.0
 10
20.63695702052248
 20
95.6114578846675
 30
0.0
 10
20.68715790160797
 20
95.54520204812226
 30
0.0
 10
20.74315192890664
 20
95.48300185901991
 30
0.0
 10
20.80547907967538
 20
95.42761102567492
 30
0.0
 10
20.87104985751174
 20
95.3780340572338
 30
0.0
 10
20.94080330575193
 20
95.33648183734364
 30
0.0
 10
21.01418942435002
 20
95.30275436592443
 30
0.0
 10
21.09108954373081
 20
95.27635077921366
 30
0.0
 10
21.17152789215723
 20
95.25832782759414
 30
0.0
 10
21.2553461834219
 20
95.24625638064337
 30
0.0
 10
21.31248324215163
 20
95.24491411292576
 30
0.0
 10
21.34157151442306
 20
95.2442307692308
 30
0.0
  0
SPLINE
  5
100
330
1F
100
AcDbEntity
  8
0
  6
Continuous
 62
     7
370
    15
100
AcDbSpline
210
0.0
220
0.0
230
1.0
 70
     8
 71
     3
 72
    19
 73
    15
 74
     0
 42
0.000000001
 43
0.00000001
 40
0.0
 40
0.0
 40
0.0
 40
0.0
 40
0.0825922633314339
 40
0.1638788940984962
 40
0.245658739629504
 40
0.3277256953541202
 40
0.4086099609103174
 40
0.4857490859539297
 40
0.5591690561972811
 40
0.6302684758575446
 40
0.7053060284320701
 40
0.7920649660966124
 40
0.8897964374100903
 40
1.0
 40
1.0
 40
1.0
 40
1.0
 10
21.34157151442306
 20
95.2442307692308
 30
0.0
 10
21.37001148403527
 20
95.24478236348658
 30
0.0
 10
21.42644183937669
 20
95.24587683230214
 30
0.0
 10
21.51048033139507
 20
95.25651935148571
 30
0.0
 10
21.59315690267891
 20
95.27372810151341
 30
0.0
 10
21.67412936607133
 20
95.29721402108929
 30
0.0
 10
21.75175434772433
 20
95.325858736929
 30
0.0
 10
21.82364138242274
 20
95.36042347208206
 30
0.0
 10
21.88975414945499
 20
95.3986593137703
 30
0.0
 10
21.95154596914401
 20
95.44239237613567
 30
0.0
 10
22.01148179882764
 20
95.49592123148842
 30
0.0
 10
22.07093819721815
 20
95.56271934981372
 30
0.0
 10
22.13468916134055
 20
95.64172017858891
 30
0.0
 10
22.17459400618667
 20
95.70117946129741
 30
0.0
 10
22.19574318910255
 20
95.73269230769233
 30
0.0
  0
LINE
  5
101
330
1F
100
AcDbEntity
  8
0
  6
Continuous
 62
     7
370
    15
100
AcDbLine
 10
22.1957431891
 20
95.7326923077
 30
0.0
 11
22.4488782051
 21
95.5997646234
 31
0.0
  0
SPLINE
  5
102
330
1F
100
AcDbEntity
  8
0
  6
Continuous
 62
     7
370
    15
100
AcDbSpline
210
0.0
220
0.0
230
1.0
 70
     8
 71
     3
 72
    19
 73
    15
 74
     0
 42
0.000000001
 43
0.00000001
 40
0.0
 40
0.0
 40
0.0
 40
0.0
 40
0.0933698567361904
 40
0.1816607660710032
 40
0.2658742270426173
 40
0.3463547840343077
 40
0.4245998617178924
 40
0.5019031838373763
 40
0.5799920909873477
 40
0.658443430529431
 40
0.7386722364878338
 40
0.8218941484362422
 40
0.9088007920466157
 40
1.0
 40
1.0
 40
1.0
 40
1.0
 10
22.44887820512819
 20
95.59976462339748
 30
0.0
 10
22.42870643658907
 20
95.56398388716916
 30
0.0
 10
22.38946016317797
 20
95.49436874389879
 30
0.0
 10
22.32196805616278
 20
95.3987269847563
 30
0.0
 10
22.2512181046097
 20
95.31268655681683
 30
0.0
 10
22.17401664792075
 20
95.2385460847164
 30
0.0
 10
22.09267343915532
 20
95.17391089977559
 30
0.0
 10
22.0067373880283
 20
95.11736158735191
 30
0.0
 10
21.91576110336839
 20
95.06917550103825
 30
0.0
 10
21.81974028160525
 20
95.02857856503933
 30
0.0
 10
21.71786854592689
 20
94.9973642382415
 30
0.0
 10
21.6098990274692
 20
94.97531683783453
 30
0.0
 10
21.49562488523274
 20
94.96168858698736
 30
0.0
 10
21.41729656492413
 20
94.96010549499675
 30
0.0
 10
21.37718850160255
 20
94.9592948717949
 30
0.0
  0
SPLINE
  5
103
330
1F
100
AcDbEntity
  8
0
  6
Continuous
 62
     7
370
    15
100
AcDbSpline
210
0.0
220
0.0
230
1.0
 70
     8
 71
     3
 72
    23
 73
    19
 74
     0
 42
0.000000001
 43
0.00000001
 40
0.0
 40
0.0
 40
0.0
 40
0.0
 40
0.0715786576891429
 40
0.1396292246928477
 40
0.2047966973966658
 40
0.268134963396683
 40
0.3298137469867308
 40
0.3913013977745579
 40
0.453433515097051
 40
0.5165516903197691
 40
0.5796312707049202
 40
0.6411189214927514
 40
0.7012940466987753
 40
0.7608103356761307
 40
0.8199317217781468
 40
0.8789195754993862
 40
0.9389828222504437
 40
1.0
 40
1.0
 40
1.0
 40
1.0
 10
21.37718850160255
 20
94.9592948717949
 30
0.0
 10
21.3326097076954
 20
94.96033552370102
 30
0.0
 10
21.24564939533483
 20
94.9623655340912
 30
0.0
 10
21.11906691045388
 20
94.97986655539962
 30
0.0
 10
20.99988700947899
 20
95.00841648078605
 30
0.0
 10
20.88811639286536
 20
95.04829950771024
 30
0.0
 10
20.78402877802716
 20
95.10039429456364
 30
0.0
 10
20.6874172883049
 20
95.16385753877123
 30
0.0
 10
20.59777386126662
 20
95.238363226953
 30
0.0
 10
20.51792332864868
 20
95.32455671497333
 30
0.0
 10
20.44603780647562
 20
95.41679677623415
 30
0.0
 10
20.38260509835483
 20
95.51291390001788
 30
0.0
 10
20.32957585733141
 20
95.61266625364779
 30
0.0
 10
20.28643884665384
 20
95.71541880045866
 30
0.0
 10
20.25160014771696
 20
95.82052390388712
 30
0.0
 10
20.22731892358354
 20
95.9289378780392
 30
0.0
 10
20.2133219379141
 20
96.04036730088565
 30
0.0
 10
20.21117704803378
 20
96.11574845542958
 30
0.0
 10
20.21009615384614
 20
96.15373597756412
 30
0.0
  0
SPLINE
  5
104
330
1F
100
AcDbEntity
  8
0
  6
Continuous
 62
     7
370
    15
100
AcDbSpline
210
0.0
220
0.0
230
1.0
 70
     8
 71
     3
 72
    15
 73
    11
 74
     0
 42
0.000000001
 43
0.00000001
 40
0.0
 40
0.0
 40
0.0
 40
0.0
 40
0.1280448079611249
 40
0.2537679000244943
 40
0.3774284265813035
 40
0.5005508414825268
 40
0.6232958832424771
 40
0.7465783319335115
 40
0.8723475406047196
 40
1.0
 40
1.0
 40
1.0
 40
1.0
 10
20.21009615384614
 20
96.15373597756412
 30
0.0
 10
20.21105694633888
 20
96.18938200230005
 30
0.0
 10
20.21296111017909
 20
96.26002771598029
 30
0.0
 10
20.22496332445766
 20
96.36459003137567
 30
0.0
 10
20.24623427602649
 20
96.46621584188367
 30
0.0
 10
20.27542279846607
 20
96.56498959111262
 30
0.0
 10
20.31311571464658
 20
96.66074589836957
 30
0.0
 10
20.35922779922129
 20
96.75354304179918
 30
0.0
 10
20.41383088478684
 20
96.84328227581547
 30
0.0
 10
20.45598823883734
 20
96.89989083282178
 30
0.0
 10
20.47722355769229
 20
96.92840544871798
 30
0.0
  0
SPLINE
  5
105
330
1F
100
AcDbEntity
  8
0
  6
Continuous
 62
     7
370
    15
100
AcDbSpline
210
0.0
220
0.0
230
1.0
 70
     8
 71
     3
 72
    15
 73
    11
 74
     0
 42
0.000000001
 43
0.00000001
 40
0.0
 40
0.0
 40
0.0
 40
0.0
 40
0.1288352544875525
 40
0.253589334986475
 40
0.3746432573141694
 40
0.4953400422377908
 40
0.6163247746357885
 40
0.7397593354405134
 40
0.8668423203805469
 40
0.9999999999999999
 40
0.9999999999999999
 40
0.9999999999999999
 40
0.9999999999999999
 10
20.47722355769229
 20
96.92840544871798
 30
0.0
 10
20.50598695563894
 20
96.96275792372641
 30
0.0
 10
20.56260260006216
 20
97.03037467449221
 30
0.0
 10
20.65835729384744
 20
97.11921872716559
 30
0.0
 10
20.76204390052946
 20
97.19364415179047
 30
0.0
 10
20.87236301849174
 20
97.25533633957295
 30
0.0
 10
20.990596819961
 20
97.30221171934498
 30
0.0
 10
21.1151559625451
 20
97.33714359751286
 30
0.0
 10
21.24745874433638
 20
97.35671793609305
 30
0.0
 10
21.3379056232396
 20
97.35948275659297
 30
0.0
 10
21.3841846955128
 20
97.36089743589746
 30
0.0
  0
SPLINE
  5
106
330
1F
100
AcDbEntity
  8
0
  6
Continuous
 62
     7
370
    15
100
AcDbSpline
210
0.0
220
0.0
230
1.0
 70
     8
 71
     3
 72
    15
 73
    11
 74
     0
 42
0.000000001
 43
0.00000001
 40
0.0
 40
0.0
 40
0.0
 40
0.0
 40
0.1320402344259811
 40
0.2590328407793681
 40
0.3818798239250187
 40
0.5022584437149857
 40
0.6227521895274789
 40
0.7447426318590068
 40
0.8701089273418249
 40
1.0
 40
1.0
 40
1.0
 40
1.0
 10
21.3841846955128
 20
97.36089743589746
 30
0.0
 10
21.43176216603829
 20
97.35966912011641
 30
0.0
 10
21.52509831771123
 20
97.35725944455409
 30
0.0
 10
21.66119888465174
 20
97.33491984210444
 30
0.0
 10
21.78997753465643
 20
97.29949359617905
 30
0.0
 10
21.9113827349937
 20
97.24946122908214
 30
0.0
 10
22.02542679439093
 20
97.18490934995805
 30
0.0
 10
22.13136842507652
 20
97.10495210804314
 30
0.0
 10
22.23101944003147
 20
97.0120442717747
 30
0.0
 10
22.2889936508474
 20
96.9405947889371
 30
0.0
 10
22.31849459134614
 20
96.90423677884618
 30
0.0
  0
SPLINE
  5
107
330
1F
100
AcDbEntity
  8
0
  6
Continuous
 62
     7
370
    15
100
AcDbSpline
210
0.0
220
0.0
230
1.0
 70
     8
 71
     3
 72
    15
 73
    11
 74
     0
 42
0.000000001
 43
0.00000001
 40
0.0
 40
0.0
 40
0.0
 40
0.0
 40
0.1185218400132679
 40
0.2362547631617444
 40
0.3561744339909254
 40
0.4772496548985618
 40
0.6015398708216941
 40
0.7296183821680325
 40
0.8621582661414366
 40
1.0
 40
1.0
 40
1.0
 40
1.0
 10
22.31849459134614
 20
96.9042367788462
 30
0.0
 10
22.33856688538675
 20
96.87683781573149
 30
0.0
 10
22.37857786626713
 20
96.82222226520662
 30
0.0
 10
22.42869487844186
 20
96.7331670012653
 30
0.0
 10
22.47219908674849
 20
96.63999381924766
 30
0.0
 10
22.50697255852616
 20
96.54119662117586
 30
0.0
 10
22.5351298203259
 20
96.43794600201902
 30
0.0
 10
22.5555013630402
 20
96.32950383645674
 30
0.0
 10
22.56744808846802
 20
96.21590241686512
 30
0.0
 10
22.56979640677694
 20
96.13849904153979
 30
0.0
 10
22.57099358974357
 20
96.09903846153848
 30
0.0
  0
LINE
  5
108
330
1F
100
AcDbEntity
  8
0
  6
Continuous
 62
     7
370
    15
100
AcDbLine
 10
22.5709935897
 20
96.0990384615
 30
0.0
 11
20.4950320513
 21
96.0990384615
 31
0.0
  0
SPLINE
  5
109
330
1F
100
AcDbEntity
  8
0
  6
Continuous
 62
     7
370
    15
100
AcDbSpline
210
0.0
220
0.0
230
1.0
 70
     8
 71
     3
 72
    23
 73
    19
 74
     0
 42
0.000000001
 43
0.00000001
 40
0.0
 40
0.0
 40
0.0
 40
0.0
 40
0.067978489619251
 40
0.1330435352439127
 40
0.19650743805339
 40
0.2586134167685689
 40
0.3197283376065528
 40
0.3808728540495662
 40
0.4426356023162053
 40
0.5050793035048796
 40
0.5678805200585769
 40
0.6288138541554872
 40
0.6889100905404393
 40
0.7487650058898462
 40
0.8093857829631158
 40
0.870884335753226
 40
0.9340374630737031
 40
1.0
 40
1.0
 40
1.0
 40
1.0
 10
18.50048076923076
 20
96.75222856570515
 30
0.0
 10
18.5009653607018
 20
96.77366017670124
 30
0.0
 10
18.5019137748666
 20
96.81560487580921
 30
0.0
 10
18.50948302165321
 20
96.87723509136991
 30
0.0
 10
18.52326407395246
 20
96.93578948807544
 30
0.0
 10
18.54054961088143
 20
96.99214742809033
 30
0.0
 10
18.56457347919851
 20
97.04521718482451
 30
0.0
 10
18.59328083600859
 20
97.09570646211617
 30
0.0
 10
18.62701514290386
 20
97.14354547344698
 30
0.0
 10
18.66588012817326
 20
97.18799831469825
 30
0.0
 10
18.7086125849299
 20
97.228374632134
 30
0.0
 10
18.75478141176126
 20
97.26357053036519
 30
0.0
 10
18.80334825880244
 20
97.29360272364484
 30
0.0
 10
18.85451875368814
 20
97.31878969075255
 30
0.0
 10
18.90878446844828
 20
97.33784094496353
 30
0.0
 10
18.96576609033945
 20
97.3509558585614
 30
0.0
 10
19.02534828083704
 20
97.35971450681645
 30
0.0
 10
19.06608001653069
 20
97.36049744757116
 30
0.0
 10
19.08688902243589
 20
97.36089743589746
 30
0.0
  0
SPLINE
  5
10A
330
1F
100
AcDbEntity
  8
0
  6
Continuous
 62
     7
370
    15
100
AcDbSpline
210
0.0
220
0.0
230
1.0
 70
     8
 71
     3
 72
    15
 73
    11
 74
     0
 42
0.000000001
 43
0.00000001
 40
0.0
 40
0.0
 40
0.0
 40
0.0
 40
0.1057142614175155
 40
0.2134116126389944
 40
0.3261267300734697
 40
0.4444516715568711
 40
0.5690610798550859
 40
0.7027122044812147
 40
0.8463179465861939
 40
1.0
 40
1.0
 40
1.0
 40
1.0
 10
19.08688902243589
 20
97.36089743589746
 30
0.0
 10
19.11155610857972
 20
97.359895641122
 30
0.0
 10
19.16135300979693
 20
97.357873258941
 30
0.0
 10
19.23606042056914
 20
97.34181166817808
 30
0.0
 10
19.31065780946275
 20
97.31538378088786
 30
0.0
 10
19.38533684836195
 20
97.27888376921665
 30
0.0
 10
19.45955046801694
 20
97.23165167466814
 30
0.0
 10
19.53395147371564
 20
97.17456581024118
 30
0.0
 10
19.60943304405027
 20
97.10800174065074
 30
0.0
 10
19.65656484236367
 20
97.05711172901977
 30
0.0
 10
19.68092948717948
 20
97.03080428685901
 30
0.0
  0
LINE
  5
10B
330
1F
100
AcDbEntity
  8
0
  6
Continuous
 62
     7
370
    15
100
AcDbLine
 10
19.6809294872
 20
97.0308042869
 30
0.0
 11
19.4875801282
 21
96.8317307692
 31
0.0
  0
SPLINE
  5
10C
330
1F
100
AcDbEntity
  8
0
  6
Continuous
 62
     7
370
    15
100
AcDbSpline
210
0.0
220
0.0
230
1.0
 70
     8
 71
     3
 72
    15
 73
    11
 74
     0
 42
0.000000001
 43
0.00000001
 40
0.0
 40
0.0
 40
0.0
 40
0.0
 40
0.1582230975563343
 40
0.305035505358177
 40
0.4413089638879091
 40
0.5659632271047207
 40
0.6835251144150667
 40
0.7933341296296027
 40
0.8985175121610071
 40
1.0
 40
1.0
 40
1.0
 40
1.0
 10
19.48758012820512
 20
96.8317307692308
 30
0.0
 10
19.47089731429045
 20
96.85106483769165
 30
0.0
 10
19.43873481303839
 20
96.88833864559119
 30
0.0
 10
19.38772482670045
 20
96.93817441306214
 30
0.0
 10
19.33690341488662
 20
96.98002720767418
 30
0.0
 10
19.28696627685947
 20
97.01536247111332
 30
0.0
 10
19.23665770419928
 20
97.04207705410575
 30
0.0
 10
19.18656807132214
 20
97.06157596458014
 30
0.0
 10
19.1366455156693
 20
97.0736426025724
 30
0.0
 10
19.10327532658111
 20
97.07519784338774
 30
0.0
 10
19.08688902243589
 20
97.07596153846158
 30
0.0
  0
SPLINE
  5
10D
330
1F
100
AcDbEntity
  8
0
  6
Continuous
 62
     7
370
    15
100
AcDbSpline
210
0.0
220
0.0
230
1.0
 70
     8
 71
     3
 72
    15
 73
    11
 74
     0
 42
0.000000001
 43
0.00000001
 40
0.0
 40
0.0
 40
0.0
 40
0.0
 40
0.1249584925460612
 40
0.2459006286062622
 40
0.369166029586067
 40
0.4985108411773482
 40
0.6285038663666196
 40
0.7510283288510037
 40
0.8737241742784407
 40
1.0
 40
1.0
 40
1.0
 40
1.0
 10
19.08688902243589
 20
97.07596153846158
 30
0.0
 10
19.06680543307944
 20
97.0749864751175
 30
0.0
 10
19.02728377155172
 20
97.07306768845203
 30
0.0
 10
18.97065463634902
 20
97.05391479093403
 30
0.0
 10
18.91808514079705
 20
97.02451543533117
 30
0.0
 10
18.87258559464857
 20
96.98281536310601
 30
0.0
 10
18.83404319920069
 20
96.93495063352631
 30
0.0
 10
18.80590935999123
 20
96.88143253880833
 30
0.0
 10
18.78870450341305
 20
96.82387609916044
 30
0.0
 10
18.78652306791771
 20
96.7839347282756
 30
0.0
 10
18.78541666666666
 20
96.76367688301285
 30
0.0
  0
SPLINE
  5
10E
330
1F
100
AcDbEntity
  8
0
  6
Continuous
 62
     7
370
    15
100
AcDbSpline
210
0.0
220
0.0
230
1.0
 70
     8
 71
     3
 72
    11
 73
     7
 74
     0
 42
0.000000001
 43
0.00000001
 40
0.0
 40
0.0
 40
0.0
 40
0.0
 40
0.240039931495993
 40
0.4794031936060884
 40
0.7317567388575524
 40
1.0
 40
1.0
 40
1.0
 40
1.0
 10
18.78541666666666
 20
96.76367688301286
 30
0.0
 10
18.78642433207879
 20
96.74534167153243
 30
0.0
 10
18.78843682230761
 20
96.7087229352898
 30
0.0
 10
18.80408202416357
 20
96.65470436173446
 30
0.0
 10
18.82899767535515
 20
96.60203833423104
 30
0.0
 10
18.85228420874004
 20
96.56977769775331
 30
0.0
 10
18.8642828525641
 20
96.55315504807695
 30
0.0
  0
SPLINE
  5
10F
330
1F
100
AcDbEntity
  8
0
  6
Continuous
 62
     7
370
    15
100
AcDbSpline
210
0.0
220
0.0
230
1.0
 70
     8
 71
     3
 72
    15
 73
    11
 74
     0
 42
0.000000001
 43
0.00000001
 40
0.0
 40
0.0
 40
0.0
 40
0.0
 40
0.08342510498563
 40
0.1775598214659682
 40
0.2839823599504252
 40
0.4022167468071999
 40
0.5335684803800596
 40
0.6761209941988148
 40
0.8316493725539867
 40
1.0
 40
1.0
 40
1.0
 40
1.0
 10
18.8642828525641
 20
96.55315504807695
 30
0.0
 10
18.87150687905698
 20
96.54427903228913
 30
0.0
 10
18.88688230896577
 20
96.52538755137473
 30
0.0
 10
18.91573717612327
 20
96.49916762720306
 30
0.0
 10
18.94841473228943
 20
96.47019144238998
 30
0.0
 10
18.98771210437511
 20
96.44122016884509
 30
0.0
 10
19.03193625109851
 20
96.4107113895508
 30
0.0
 10
19.08204617320671
 20
96.3798665974953
 30
0.0
 10
19.13645161700188
 20
96.34633458348941
 30
0.0
 10
19.1754018880041
 20
96.32506713124614
 30
0.0
 10
19.19564803685897
 20
96.31401241987182
 30
0.0
  0
SPLINE
  5
110
330
1F
100
AcDbEntity
  8
0
  6
Continuous
 62
     7
370
    15
100
AcDbSpline
210
0.0
220
0.0
230
1.0
 70
     8
 71
     3
 72
    15
 73
    11
 74
     0
 42
0.000000001
 43
0.00000001
 40
0.0
 40
0.0
 40
0.0
 40
0.0
 40
0.1589891012267915
 40
0.3071145916055661
 40
0.4462131585962118
 40
0.574876072411725
 40
0.694152109582957
 40
0.8045811801532416
 40
0.9065933190457741
 40
1.0
 40
1.0
 40
1.0
 40
1.0
 10
19.19564803685897
 20
96.31401241987182
 30
0.0
 10
19.2203346389399
 20
96.30018311517615
 30
0.0
 10
19.26802102535075
 20
96.27346945222048
 30
0.0
 10
19.3357780356468
 20
96.23200422117962
 30
0.0
 10
19.39727056567042
 20
96.19079142916011
 30
0.0
 10
19.45301963560885
 20
96.15027183071395
 30
0.0
 10
19.50195256220112
 20
96.10931172937589
 30
0.0
 10
19.54555397782097
 20
96.06948112126403
 30
0.0
 10
19.58273635195408
 20
96.02957653446356
 30
0.0
 10
19.60355884259196
 20
96.00169720991093
 30
0.0
 10
19.61351161858974
 20
95.98837139423081
 30
0.0
  0
SPLINE
  5
111
330
1F
100
AcDbEntity
  8
0
  6
Continuous
 62
     7
370
    15
100
AcDbSpline
210
0.0
220
0.0
230
1.0
 70
     8
 71
     3
 72
    11
 73
     7
 74
     0
 42
0.000000001
 43
0.00000001
 40
0.0
 40
0.0
 40
0.0
 40
0.0
 40
0.2488386141270625
 40
0.4952350254576758
 40
0.7433356038750172
 40
1.0
 40
1.0
 40
1.0
 40
1.0
 10
19.61351161858974
 20
95.98837139423081
 30
0.0
 10
19.63003116845638
 20
95.96146001435642
 30
0.0
 10
19.66290813864629
 20
95.90790137377344
 30
0.0
 10
19.69743242321707
 20
95.81971037173602
 30
0.0
 10
19.71744424396731
 20
95.72617441595365
 30
0.0
 10
19.72022211517015
 20
95.66219161627639
 30
0.0
 10
19.72163461538461
 20
95.62965745192311
 30
0.0
  0
SPLINE
  5
112
330
1F
100
AcDbEntity
  8
0
  6
Continuous
 62
     7
370
    15
100
AcDbSpline
210
0.0
220
0.0
230
1.0
 70
     8
 71
     3
 72
    23
 73
    19
 74
     0
 42
0.000000001
 43
0.00000001
 40
0.0
 40
0.0
 40
0.0
 40
0.0
 40
0.0645481255642445
 40
0.127199132755509
 40
0.1885973380874203
 40
0.2486395150940064
 40
0.309524699464054
 40
0.3700369910533461
 40
0.4318892436070703
 40
0.4957042857252942
 40
0.5595193278435111
 40
0.6213715803972398
 40
0.6823971072916358
 40
0.7435684819321652
 40
0.8054984835712153
 40
0.8686397008205238
 40
0.9330662250811632
 40
1.0
 40
1.0
 40
1.0
 40
1.0
 10
19.72163461538461
 20
95.62965745192311
 30
0.0
 10
19.72098189542347
 20
95.606734726401
 30
0.0
 10
19.71969563943597
 20
95.56156299164783
 30
0.0
 10
19.71075296442809
 20
95.49503782470482
 30
0.0
 10
19.69537237876348
 20
95.4314157617968
 30
0.0
 10
19.67442304481674
 20
95.37000646781752
 30
0.0
 10
19.64613436368259
 20
95.31198657259314
 30
0.0
 10
19.61298029055245
 20
95.25589226101147
 30
0.0
 10
19.57317947776352
 20
95.20293695236684
 30
0.0
 10
19.5277394441683
 20
95.1531901813483
 30
0.0
 10
19.47798674605875
 20
95.10775525333129
 30
0.0
 10
19.42491332055238
 20
95.06781923803838
 30
0.0
 10
19.36845380992771
 20
95.03464108929352
 30
0.0
 10
19.30901164006597
 20
95.00718609753746
 30
0.0
 10
19.24645175387159
 20
94.98535274925747
 30
0.0
 10
19.18076437001881
 20
94.97023745304872
 30
0.0
 10
19.11215828551455
 20
94.96119073405612
 30
0.0
 10
19.06550410242431
 20
94.95993481637443
 30
0.0
 10
19.04173177083332
 20
94.9592948717949
 30
0.0
  0
SPLINE
  5
113
330
1F
100
AcDbEntity
  8
0
  6
Continuous
 62
     7
370
    15
100
AcDbSpline
210
0.0
220
0.0
230
1.0
 70
     8
 71
     3
 72
    15
 73
    11
 74
     0
 42
0.000000001
 43
0.00000001
 40
0.0
 40
0.0
 40
0.0
 40
0.0
 40
0.1267425189618454
 40
0.251723961249607
 40
0.3772186880262467
 40
0.5046935492516266
 40
0.6314582385934914
 40
0.7554010672029532
 40
0.8777005336014816
 40
1.0
 40
1.0
 40
1.0
 40
1.0
 10
19.04173177083332
 20
94.9592948717949
 30
0.0
 10
19.00964869025745
 20
94.9601953928045
 30
0.0
 10
18.94592832082026
 20
94.96198392215979
 30
0.0
 10
18.85168550416391
 20
94.97877156335836
 30
0.0
 10
18.75959167308954
 20
95.00489309931464
 30
0.0
 10
18.67034374724017
 20
95.0409211253009
 30
0.0
 10
18.58593762964084
 20
95.08641498625005
 30
0.0
 10
18.50871171946715
 20
95.14090015757468
 30
0.0
 10
18.43839774994921
 20
95.20257679807679
 30
0.0
 10
18.39837617305999
 20
95.24985065277775
 30
0.0
 10
18.37836538461537
 20
95.27348758012823
 30
0.0
  0
LINE
  5
114
330
1F
100
AcDbEntity
  8
0
  6
Continuous
 62
     7
370
    15
100
AcDbLine
 10
18.3783653846
 20
95.2734875801
 30
0.0
 11
18.5672626202
 21
95.4884615385
 31
0.0
  0
SPLINE
  5
115
330
1F
100
AcDbEntity
  8
0
  6
Continuous
 62
     7
370
    15
100
AcDbSpline
210
0.0
220
0.0
230
1.0
 70
     8
 71
     3
 72
    15
 73
    11
 74
     0
 42
0.000000001
 43
0.00000001
 40
0.0
 40
0.0
 40
0.0
 40
0.0
 40
0.1474758177483535
 40
0.2859041715443686
 40
0.4171716482444365
 40
0.5405007435864928
 40
0.6592377183802318
 40
0.7750060983159506
 40
0.8872285734286341
 40
1.0
 40
1.0
 40
1.0
 40
1.0
 10
18.5672626201923
 20
95.48846153846156
 30
0.0
 10
18.58519902339236
 20
95.46908971635419
 30
0.0
 10
18.61997145304011
 20
95.43153451011449
 30
0.0
 10
18.67558041399194
 20
95.38152885821964
 30
0.0
 10
18.7321674421354
 20
95.33961770512133
 30
0.0
 10
18.78916747924211
 20
95.30456260741721
 30
0.0
 10
18.84742427909273
 20
95.27755206312425
 30
0.0
 10
18.9066113720047
 20
95.25857591007768
 30
0.0
 10
18.96660837097471
 20
95.2463801071304
 30
0.0
 10
19.00690559418273
 20
95.24494837959769
 30
0.0
 10
19.02710336538461
 20
95.2442307692308
 30
0.0
  0
SPLINE
  5
116
330
1F
100
AcDbEntity
  8
0
  6
Continuous
 62
     7
370
    15
100
AcDbSpline
210
0.0
220
0.0
230
1.0
 70
     8
 71
     3
 72
    15
 73
    11
 74
     0
 42
0.000000001
 43
0.00000001
 40
0.0
 40
0.0
 40
0.0
 40
0.0
 40
0.1340420464623707
 40
0.2618956736507258
 40
0.3878360446911137
 40
0.5176862058208295
 40
0.6445086536782074
 40
0.7647182630567211
 40
0.8802907821584925
 40
1.0
 40
1.0
 40
1.0
 40
1.0
 10
19.02710336538461
 20
95.2442307692308
 30
0.0
 10
19.05460605536084
 20
95.24547430321115
 30
0.0
 10
19.1083416980836
 20
95.24790396000974
 30
0.0
 10
19.18530710768344
 20
95.26996303635106
 30
0.0
 10
19.25637143310636
 20
95.30455234979235
 30
0.0
 10
19.31807832511275
 20
95.35361489740907
 30
0.0
 10
19.37060385693834
 20
95.41072459541017
 30
0.0
 10
19.40863870086534
 20
95.47505383220404
 30
0.0
 10
19.43247494574772
 20
95.5447146536293
 30
0.0
 10
19.43527438738562
 20
95.59300395671944
 30
0.0
 10
19.43669871794871
 20
95.61757311698722
 30
0.0
  0
SPLINE
  5
117
330
1F
100
AcDbEntity
  8
0
  6
Continuous
 62
     7
370
    15
100
AcDbSpline
210
0.0
220
0.0
230
1.0
 70
     8
 71
     3
 72
    11
 73
     7
 74
     0
 42
0.000000001
 43
0.00000001
 40
0.0
 40
0.0
 40
0.0
 40
0.0
 40
0.2534754346498572
 40
0.5004533151029333
 40
0.7455781350010001
 40
0.9999999999999999
 40
0.9999999999999999
 40
0.9999999999999999
 40
0.9999999999999999
 10
19.43669871794871
 20
95.6175731169872
 30
0.0
 10
19.43571329379851
 20
95.6378111282021
 30
0.0
 10
19.43376770572433
 20
95.67776837225446
 30
0.0
 10
19.41848845183452
 20
95.73559903877302
 30
0.0
 10
19.39434679299885
 20
95.79045331482067
 30
0.0
 10
19.3705754334208
 20
95.8225567805328
 30
0.0
 10
19.35846854967948
 20
95.83890725160259
 30
0.0
  0
SPLINE
  5
118
330
1F
100
AcDbEntity
  8
0
  6
Continuous
 62
     7
370
    15
100
AcDbSpline
210
0.0
220
0.0
230
1.0
 70
     8
 71
     3
 72
    15
 73
    11
 74
     0
 42
0.000000001
 43
0.00000001
 40
0.0
 40
0.0
 40
0.0
 40
0.0
 40
0.0768750740350594
 40
0.1674616757257383
 40
0.2722700232466365
 40
0.3895508405125206
 40
0.520801368348069
 40
0.6662632933752248
 40
0.8255449152058604
 40
1.0
 40
1.0
 40
1.0
 40
1.0
 10
19.35846854967948
 20
95.83890725160259
 30
0.0
 10
19.35119109187749
 20
95.84710361584027
 30
0.0
 10
19.33533816043201
 20
95.86495825737825
 30
0.0
 10
19.30625947728396
 20
95.89074386463123
 30
0.0
 10
19.27144164514472
 20
95.91853699743463
 30
0.0
 10
19.23049306877047
 20
95.94786636740047
 30
0.0
 10
19.1833311997271
 20
95.97834510220123
 30
0.0
 10
19.12976488990919
 20
96.00981330031325
 30
0.0
 10
19.07052796009741
 20
96.04376559442134
 30
0.0
 10
19.02864460168759
 20
96.06628056748278
 30
0.0
 10
19.00675080128204
 20
96.07804987980772
 30
0.0
  0
SPLINE
  5
119
330
1F
100
AcDbEntity
  8
0
  6
Continuous
 62
     7
370
    15
100
AcDbSpline
210
0.0
220
0.0
230
1.0
 70
     8
 71
     3
 72
    15
 73
    11
 74
     0
 42
0.000000001
 43
0.00000001
 40
0.0
 40
0.0
 40
0.0
 40
0.0
 40
0.1577616635135393
 40
0.3059502132085353
 40
0.4437754990007244
 40
0.5728243624015412
 40
0.6921541564432374
 40
0.8022957069908497
 40
0.9055643918329834
 40
1.0
 40
1.0
 40
1.0
 40
1.0
 10
19.00675080128205
 20
96.07804987980774
 30
0.0
 10
18.98312277781772
 20
96.09123894924603
 30
0.0
 10
18.93730049973311
 20
96.11681676401295
 30
0.0
 10
18.87239688581275
 20
96.15665492253305
 30
0.0
 10
18.81384321448573
 20
96.19717452170718
 30
0.0
 10
18.76023055041811
 20
96.23610259731232
 30
0.0
 10
18.71291306669642
 20
96.27549159646476
 30
0.0
 10
18.67207717073406
 20
96.31538524601021
 30
0.0
 10
18.63611511065829
 20
96.35417466195356
 30
0.0
 10
18.61620567287355
 20
96.3816586381684
 30
0.0
 10
18.60669571314102
 20
96.39478665865387
 30
0.0
  0
SPLINE
  5
11A
330
1F
100
AcDbEntity
  8
0
  6
Continuous
 62
     7
370
    15
100
AcDbSpline
210
0.0
220
0.0
230
1.0
 70
     8
 71
     3
 72
    11
 73
     7
 74
     0
 42
0.000000001
 43
0.00000001
 40
0.0
 40
0.0
 40
0.0
 40
0.0
 40
0.2462523706929928
 40
0.4925907964763715
 40
0.7405699911181015
 40
0.9999999999999999
 40
0.9999999999999999
 40
0.9999999999999999
 40
0.9999999999999999
 10
18.60669571314102
 20
96.39478665865387
 30
0.0
 10
18.59024866916708
 20
96.42122589515053
 30
0.0
 10
18.55734883365278
 20
96.47411360757116
 30
0.0
 10
18.52540362451264
 20
96.56238811146387
 30
0.0
 10
18.50344529831696
 20
96.65532041346978
 30
0.0
 10
18.5014837015205
 20
96.71944348848369
 30
0.0
 10
18.50048076923076
 20
96.75222856570515
 30
0.0
  0
LINE
  5
11B
330
1F
100
AcDbEntity
  8
0
  6
Continuous
 62
     7
370
    15
100
AcDbLine
 10
13.9860276442
 20
95.0
 30
0.0
 11
13.1274038462
 21
95.0
 31
0.0
  0
LINE
  5
11C
330
1F
100
AcDbEntity
  8
0
  6
Continuous
 62
     7
370
    15
100
AcDbLine
 10
13.1274038462
 20
95.0
 30
0.0
 11
13.1274038462
 21
98.175
 31
0.0
  0
LINE
  5
11D
330
1F
100
AcDbEntity
  8
0
  6
Continuous
 62
     7
370
    15
100
AcDbLine
 10
13.1274038462
 20
98.175
 30
0.0
 11
13.746885016
 21
98.175
 31
0.0
  0
SPLINE
  5
11E
330
1F
100
AcDbEntity
  8
0
  6
Continuous
 62
     7
370
    15
100
AcDbSpline
210
0.0
220
0.0
230
1.0
 70
     8
 71
     3
 72
    23
 73
    19
 74
     0
 42
0.000000001
 43
0.00000001
 40
0.0
 40
0.0
 40
0.0
 40
0.0
 40
0.0625940971873311
 40
0.1213229386347496
 40
0.1766801421977656
 40
0.2283650957096757
 40
0.2768684458368069
 40
0.3218791276660455
 40
0.3640986251098909
 40
0.4033556962427021
 40
0.477967948163372
 40
0.5505354613647775
 40
0.6235844567403219
 40
0.698174882264205
 40
0.773353670340877
 40
0.8472811254977335
 40
0.9228183395566704
 40
1.0
 40
1.0
 40
1.0
 40
1.0
 10
13.74688501602563
 20
98.17500000000003
 30
0.0
 10
13.77720942123883
 20
98.17484056927844
 30
0.0
 10
13.83598566561546
 20
98.17453155286118
 30
0.0
 10
13.92145615927439
 20
98.16973899817785
 30
0.0
 10
14.00151043749831
 20
98.16320424050227
 30
0.0
 10
14.076171716702
 20
98.15283551360352
 30
0.0
 10
14.1454054967282
 20
98.14032440147889
 30
0.0
 10
14.20942042479395
 20
98.1251734683112
 30
0.0
 10
14.26801293820877
 20
98.10700646877768
 30
0.0
 10
14.33796520623436
 20
98.07811734223112
 30
0.0
 10
14.41772180574587
 20
98.0351884680853
 30
0.0
 10
14.50408034769786
 20
97.97175326970009
 30
0.0
 10
14.57792562197382
 20
97.89416310672662
 30
0.0
 10
14.6415946383281
 20
97.80663955502025
 30
0.0
 10
14.69221422540401
 20
97.710359247789
 30
0.0
 10
14.72883494511182
 20
97.60761698368366
 30
0.0
 10
14.75201958918717
 20
97.49973797494236
 30
0.0
 10
14.75440395451159
 20
97.42567594929504
 30
0.0
 10
14.75560897435896
 20
97.38824619391029
 30
0.0
  0
SPLINE
  5
11F
330
1F
100
AcDbEntity
  8
0
  6
Continuous
 62
     7
370
    15
100
AcDbSpline
210
0.0
220
0.0
230
1.0
 70
     8
 71
     3
 72
    15
 73
    11
 74
     0
 42
0.000000001
 43
0.00000001
 40
0.0
 40
0.0
 40
0.0
 40
0.0
 40
0.1305691070873059
 40
0.2565806086940807
 40
0.3805516168036873
 40
0.5036229172007074
 40
0.6257393231697949
 40
0.7475485819596284
 40
0.8717661185648736
 40
1.0
 40
1.0
 40
1.0
 40
1.0
 10
14.75560897435896
 20
97.38824619391029
 30
0.0
 10
14.75461726905749
 20
97.35318280411671
 30
0.0
 10
14.75266847461774
 20
97.28427993653335
 30
0.0
 10
14.73403325722304
 20
97.18350170882609
 30
0.0
 10
14.70485893656717
 20
97.08757024603268
 30
0.0
 10
14.66430488911129
 20
96.99683565354735
 30
0.0
 10
14.61159807827446
 20
96.91334801876519
 30
0.0
 10
14.54913374634254
 20
96.83643385599582
 30
0.0
 10
14.47377121836858
 20
96.76934968286464
 30
0.0
 10
14.41730770780811
 20
96.7318457641222
 30
0.0
 10
14.3886268028846
 20
96.71279547275644
 30
0.0
  0
SPLINE
  5
120
330
1F
100
AcDbEntity
  8
0
  6
Continuous
 62
     7
370
    15
100
AcDbSpline
210
0.0
220
0.0
230
1.0
 70
     8
 71
     3
 72
    19
 73
    15
 74
     0
 42
0.000000001
 43
0.00000001
 40
0.0
 40
0.0
 40
0.0
 40
0.0
 40
0.1060574933033917
 40
0.2029142570846077
 40
0.2903001653958378
 40
0.3702225656250345
 40
0.4463837207709656
 40
0.521396899964831
 40
0.5982910828464579
 40
0.6761424688569234
 40
0.7555286995560192
 40
0.8348871724576598
 40
0.9166460487466342
 40
1.0
 40
1.0
 40
1.0
 40
1.0
 10
14.3886268028846
 20
96.71279547275644
 30
0.0
 10
14.42469519077416
 20
96.69894793800316
 30
0.0
 10
14.49370295161115
 20
96.67245417373064
 30
0.0
 10
14.58866812003157
 20
96.62561343139048
 30
0.0
 10
14.67048772942091
 20
96.57466637410685
 30
0.0
 10
14.73979085470748
 20
96.51902962433361
 30
0.0
 10
14.79906144166758
 20
96.45905948883119
 30
0.0
 10
14.85081661009441
 20
96.3938766351916
 30
0.0
 10
14.89497757094036
 20
96.32263076197422
 30
0.0
 10
14.93281715160343
 20
96.24606469775262
 30
0.0
 10
14.96234352314151
 20
96.16496025860035
 30
0.0
 10
14.98445595067691
 20
96.08007819742626
 30
0.0
 10
14.99712642239297
 20
95.99172288664289
 30
0.0
 10
14.99892949698104
 20
95.93159257824291
 30
0.0
 10
14.99983974358973
 20
95.9012369791667
 30
0.0
  0
SPLINE
  5
121
330
1F
100
AcDbEntity
  8
0
  6
Continuous
 62
     7
370
    15
100
AcDbSpline
210
0.0
220
0.0
230
1.0
 70
     8
 71
     3
 72
    23
 73
    19
 74
     0
 42
0.000000001
 43
0.00000001
 40
0.0
 40
0.0
 40
0.0
 40
0.0
 40
0.061160276636518
 40
0.1203345577262035
 40
0.178180255063127
 40
0.2352351259863585
 40
0.2926829614441752
 40
0.3511862482150806
 40
0.4104566095096947
 40
0.4717198544629959
 40
0.5337612027725871
 40
0.5957390238870964
 40
0.6578875151248825
 40
0.7212951802914591
 40
0.7868225145418892
 40
0.8546861538286842
 40
0.9254779862699964
 40
1.0
 40
1.0
 40
1.0
 40
1.0
 10
14.99983974358973
 20
95.9012369791667
 30
0.0
 10
14.99895360469713
 20
95.8702427451704
 30
0.0
 10
14.9972101016002
 20
95.80926072145965
 30
0.0
 10
14.98434684147031
 20
95.719675706546
 30
0.0
 10
14.96256715155714
 20
95.63406414783294
 30
0.0
 10
14.93256689735487
 20
95.55187230352267
 30
0.0
 10
14.89341251196926
 20
95.47325918153857
 30
0.0
 10
14.84576214432575
 20
95.3981357206365
 30
0.0
 10
14.7889463687536
 20
95.32725672072321
 30
0.0
 10
14.72538933763293
 20
95.25983457690835
 30
0.0
 10
14.65348724851105
 20
95.19921222696443
 30
0.0
 10
14.57591224225989
 20
95.14522297876067
 30
0.0
 10
14.49168736635635
 20
95.10082190812736
 30
0.0
 10
14.40219591464144
 20
95.06352380290689
 30
0.0
 10
14.30643399930924
 20
95.03503298715648
 30
0.0
 10
14.2048316340614
 20
95.01510072369062
 30
0.0
 10
14.09747644596825
 20
95.00167044012767
 30
0.0
 10
14.02380760031709
 20
95.00056626140152
 30
0.0
 10
13.98602764423075
 20
95.00000000000003
 30
0.0
  0
SPLINE
  5
122
330
1F
100
AcDbEntity
  8
0
  6
Continuous
 62
     7
370
    15
100
AcDbSpline
210
0.0
220
0.0
230
1.0
 70
     8
 71
     3
 72
    15
 73
    11
 74
     0
 42
0.000000001
 43
0.00000001
 40
0.0
 40
0.0
 40
0.0
 40
0.0
 40
0.1289191318119571
 40
0.2552377249249119
 40
0.3786785959785526
 40
0.5010878871851319
 40
0.622713679429777
 40
0.7462407949383807
 40
0.8715890472316689
 40
0.9999999999999999
 40
0.9999999999999999
 40
0.9999999999999999
 40
0.9999999999999999
 10
-2.137019230769243
 20
96.15373597756412
 30
0.0
 10
-2.136000227805583
 20
96.19257670133841
 30
0.0
 10
-2.13398277706355
 20
96.26947465923848
 30
0.0
 10
-2.119177743831856
 20
96.38280134997196
 30
0.0
 10
-2.094359624735228
 20
96.49229112433775
 30
0.0
 10
-2.059224715094297
 20
96.59745209183721
 30
0.0
 10
-2.014307363357111
 20
96.69883023738748
 30
0.0
 10
-1.9595510521506
 20
96.7962617626394
 30
0.0
 10
-1.894426692631714
 20
96.88968641021653
 30
0.0
 10
-1.844350636598813
 20
96.94749143995628
 30
0.0
 10
-1.819010416666679
 20
96.97674278846156
 30
0.0
  0
SPLINE
  5
123
330
1F
100
AcDbEntity
  8
0
  6
Continuous
 62
     7
370
    15
100
AcDbSpline
210
0.0
220
0.0
230
1.0
 70
     8
 71
     3
 72
    15
 73
    11
 74
     0
 42
0.000000001
 43
0.00000001
 40
0.0
 40
0.0
 40
0.0
 40
0.0
 40
0.1284975211375092
 40
0.2527129855154506
 40
0.3748191325670451
 40
0.4964364263727322
 40
0.617910556745852
 40
0.7412876173092903
 40
0.868700400744608
 40
1.0
 40
1.0
 40
1.0
 40
1.0
 10
-1.819010416666679
 20
96.97674278846156
 30
0.0
 10
-1.789574909093071
 20
97.00756291192727
 30
0.0
 10
-1.731684804029263
 20
97.06817610777745
 30
0.0
 10
-1.634304172447255
 20
97.14576632605632
 30
0.0
 10
-1.532256206154184
 20
97.21281876448722
 30
0.0
 10
-1.423648594586586
 20
97.266772188505
 30
0.0
 10
-1.309636287726704
 20
97.30926141529967
 30
0.0
 10
-1.189694546290697
 20
97.33880298972531
 30
0.0
 10
-1.064258900123862
 20
97.35808281887574
 30
0.0
 10
-0.978479815272869
 20
97.35994988017067
 30
0.0
 10
-0.9349459134615503
 20
97.36089743589746
 30
0.0
  0
SPLINE
  5
124
330
1F
100
AcDbEntity
  8
0
  6
Continuous
 62
     7
370
    15
100
AcDbSpline
210
0.0
220
0.0
230
1.0
 70
     8
 71
     3
 72
    15
 73
    11
 74
     0
 42
0.000000001
 43
0.00000001
 40
0.0
 40
0.0
 40
0.0
 40
0.0
 40
0.1317514273024046
 40
0.2583323505141589
 40
0.3821339760925452
 40
0.5038043916000854
 40
0.624692986540936
 40
0.7468705897275763
 40
0.8715135042348171
 40
1.0
 40
1.0
 40
1.0
 40
1.0
 10
-0.9349459134615503
 20
97.36089743589746
 30
0.0
 10
-0.8914109730965954
 20
97.35997043465007
 30
0.0
 10
-0.8060495944440605
 20
97.35815281175164
 30
0.0
 10
-0.6810381551106628
 20
97.33872637862397
 30
0.0
 10
-0.5617079246541516
 20
97.30901984093127
 30
0.0
 10
-0.4476018789058112
 20
97.26795206676375
 30
0.0
 10
-0.3401813823165393
 20
97.21290486876781
 30
0.0
 10
-0.2378817537328773
 20
97.14721929753263
 30
0.0
 10
-0.1409834671015626
 20
97.06940223051357
 30
0.0
 10
-0.0829054334182471
 20
97.00920598277362
 30
0.0
 10
-0.0534254807692427
 20
96.97865084134618
 30
0.0
  0
SPLINE
  5
125
330
1F
100
AcDbEntity
  8
0
  6
Continuous
 62
     7
370
    15
100
AcDbSpline
210
0.0
220
0.0
230
1.0
 70
     8
 71
     3
 72
    15
 73
    11
 74
     0
 42
0.000000001
 43
0.00000001
 40
0.0
 40
0.0
 40
0.0
 40
0.0
 40
0.1281572795931867
 40
0.253834362796733
 40
0.376505622522207
 40
0.4985336856679044
 40
0.6213677287324669
 40
0.7445647449043573
 40
0.8706337982552909
 40
1.0
 40
1.0
 40
1.0
 40
1.0
 10
-0.0534254807692427
 20
96.97865084134618
 30
0.0
 10
-0.0280418510103238
 20
96.94942815423721
 30
0.0
 10
0.0222341653484529
 20
96.89154831951329
 30
0.0
 10
0.0867009245359485
 20
96.79769929918315
 30
0.0
 10
0.1422376255359075
 20
96.70050792221782
 30
0.0
 10
0.1867447401452695
 20
96.59868356159465
 30
0.0
 10
0.2218375830597076
 20
96.4931151099053
 30
0.0
 10
0.2467528932341621
 20
96.38343971406842
 30
0.0
 10
0.2615728270729665
 20
96.26989958485575
 30
0.0
 10
0.2635712327985972
 20
96.19278896031445
 30
0.0
 10
0.2645833333333215
 20
96.15373597756412
 30
0.0
  0
SPLINE
  5
126
330
1F
100
AcDbEntity
  8
0
  6
Continuous
 62
     7
370
    15
100
AcDbSpline
210
0.0
220
0.0
230
1.0
 70
     8
 71
     3
 72
    23
 73
    19
 74
     0
 42
0.000000001
 43
0.00000001
 40
0.0
 40
0.0
 40
0.0
 40
0.0
 40
0.0624160261588205
 40
0.1233369785373284
 40
0.183265139853094
 40
0.243172443069706
 40
0.3028983539197452
 40
0.3637735975039125
 40
0.4256053049523819
 40
0.489659042510186
 40
0.5537845767921153
 40
0.6162215328110745
 40
0.6778544713083413
 40
0.7395168974879389
 40
0.8020965355763707
 40
0.8658658412779715
 40
0.931507795196511
 40
1.0
 40
1.0
 40
1.0
 40
1.0
 10
0.2645833333333215
 20
96.15373597756412
 30
0.0
 10
0.2636931201949403
 20
96.11445663952793
 30
0.0
 10
0.2619340175173238
 20
96.03683883572857
 30
0.0
 10
0.2452937369339969
 20
95.92252126819183
 30
0.0
 10
0.2194119661739145
 20
95.81167310761299
 30
0.0
 10
0.1823716558257759
 20
95.70475843542316
 30
0.0
 10
0.1348753709938516
 20
95.60145044198568
 30
0.0
 10
0.0769173901598241
 20
95.50220035084502
 30
0.0
 10
0.0080909946007611
 20
95.40681234423302
 30
0.0
 10
-0.0699269167443514
 20
95.31609639096114
 30
0.0
 10
-0.1561525472531219
 20
95.2324884675414
 30
0.0
 10
-0.2496936246568366
 20
95.15961925158942
 30
0.0
 10
-0.3487119267023218
 20
95.09718829734096
 30
0.0
 10
-0.4545241114586313
 20
95.04689954889044
 30
0.0
 10
-0.5661639030845812
 20
95.00724860646496
 30
0.0
 10
-0.6838721005798842
 20
94.97939930584594
 30
0.0
 10
-0.8074658429354606
 20
94.96256120699167
 30
0.0
 10
-0.8918548223176451
 20
94.96039896553356
 30
0.0
 10
-0.9349459134615503
 20
94.9592948717949
 30
0.0
  0
SPLINE
  5
127
330
1F
100
AcDbEntity
  8
0
  6
Continuous
 62
     7
370
    15
100
AcDbSpline
210
0.0
220
0.0
230
1.0
 70
     8
 71
     3
 72
    23
 73
    19
 74
     0
 42
0.000000001
 43
0.00000001
 40
0.0
 40
0.0
 40
0.0
 40
0.0
 40
0.0687422616054891
 40
0.1346351922242765
 40
0.1983241870671479
 40
0.2608250125604202
 40
0.3227135881590255
 40
0.3845545346076176
 40
0.4469128577247572
 40
0.5109576325148274
 40
0.5749307010013363
 40
0.6366845377960914
 40
0.6974831152940622
 40
0.7571338075238578
 40
0.8169656636752626
 40
0.8768183516571978
 40
0.9376625803840005
 40
1.0
 40
1.0
 40
1.0
 40
1.0
 10
-0.9349459134615503
 20
94.9592948717949
 30
0.0
 10
-0.9782481233018099
 20
94.96040267122093
 30
0.0
 10
-1.063057688908447
 20
94.9625723523631
 30
0.0
 10
-1.187087686795976
 20
94.97933388741056
 30
0.0
 10
-1.305006841115457
 20
95.00723577159866
 30
0.0
 10
-1.416792784058068
 20
95.04702985428939
 30
0.0
 10
-1.523059895224472
 20
95.0971899046907
 30
0.0
 10
-1.62265193174285
 20
95.15943050880801
 30
0.0
 10
-1.716268997960801
 20
95.2325100782029
 30
0.0
 10
-1.802512869538088
 20
95.31609053538382
 30
0.0
 10
-1.880525890083881
 20
95.40681385290969
 30
0.0
 10
-1.949353547659641
 20
95.50219995925738
 30
0.0
 10
-2.007311200667175
 20
95.60145054401826
 30
0.0
 10
-2.05480757133166
 20
95.70475840821456
 30
0.0
 10
-2.091847858764522
 20
95.81167311490874
 30
0.0
 10
-2.117729635685069
 20
95.92252126621163
 30
0.0
 10
-2.13436991461272
 20
96.03683883624129
 30
0.0
 10
-2.13612901751644
 20
96.1144566397002
 30
0.0
 10
-2.137019230769243
 20
96.15373597756412
 30
0.0
  0
LINE
  5
128
330
1F
100
AcDbEntity
  8
0
  6
Continuous
 62
     7
370
    15
100
AcDbLine
 10
-4.7014423077
 20
95.0
 30
0.0
 11
-4.9863782051
 21
95.0
 31
0.0
  0
LINE
  5
129
330
1F
100
AcDbEntity
  8
0
  6
Continuous
 62
     7
370
    15
100
AcDbLine
 10
-4.9863782051
 20
95.0
 30
0.0
 11
-4.9863782051
 21
98.175
 31
0.0
  0
LINE
  5
12A
330
1F
100
AcDbEntity
  8
0
  6
Continuous
 62
     7
370
    15
100
AcDbLine
 10
-4.9863782051
 20
98.175
 30
0.0
 11
-4.7014423077
 21
98.175
 31
0.0
  0
LINE
  5
12B
330
1F
100
AcDbEntity
  8
0
  6
Continuous
 62
     7
370
    15
100
AcDbLine
 10
-4.7014423077
 20
98.175
 30
0.0
 11
-4.7014423077
 21
96.8724358974
 31
0.0
  0
LINE
  5
12C
330
1F
100
AcDbEntity
  8
0
  6
Continuous
 62
     7
370
    15
100
AcDbLine
 10
-4.7014423077
 20
96.8724358974
 30
0.0
 11
-3.0732371795
 21
96.8724358974
 31
0.0
  0
LINE
  5
12D
330
1F
100
AcDbEntity
  8
0
  6
Continuous
 62
     7
370
    15
100
AcDbLine
 10
-3.0732371795
 20
96.8724358974
 30
0.0
 11
-3.0732371795
 21
98.175
 31
0.0
  0
LINE
  5
12E
330
1F
100
AcDbEntity
  8
0
  6
Continuous
 62
     7
370
    15
100
AcDbLine
 10
-3.0732371795
 20
98.175
 30
0.0
 11
-2.7883012821
 21
98.175
 31
0.0
  0
LINE
  5
12F
330
1F
100
AcDbEntity
  8
0
  6
Continuous
 62
     7
370
    15
100
AcDbLine
 10
-2.7883012821
 20
98.175
 30
0.0
 11
-2.7883012821
 21
95.0
 31
0.0
  0
LINE
  5
130
330
1F
100
AcDbEntity
  8
0
  6
Continuous
 62
     7
370
    15
100
AcDbLine
 10
-2.7883012821
 20
95.0
 30
0.0
 11
-3.0732371795
 21
95.0
 31
0.0
  0
LINE
  5
131
330
1F
100
AcDbEntity
  8
0
  6
Continuous
 62
     7
370
    15
100
AcDbLine
 10
-3.0732371795
 20
95.0
 30
0.0
 11
-3.0732371795
 21
96.5467948718
 31
0.0
  0
LINE
  5
132
330
1F
100
AcDbEntity
  8
0
  6
Continuous
 62
     7
370
    15
100
AcDbLine
 10
-3.0732371795
 20
96.5467948718
 30
0.0
 11
-4.7014423077
 21
96.5467948718
 31
0.0
  0
LINE
  5
133
330
1F
100
AcDbEntity
  8
0
  6
Continuous
 62
     7
370
    15
100
AcDbLine
 10
-4.7014423077
 20
96.5467948718
 30
0.0
 11
-4.7014423077
 21
95.0
 31
0.0
  0
LINE
  5
134
330
1F
100
AcDbEntity
  8
0
  6
Continuous
 62
     7
370
    15
100
AcDbLine
 10
-5.5155448718
 20
96.0583333333
 30
0.0
 11
-6.7366987179
 21
96.0583333333
 31
0.0
  0
LINE
  5
135
330
1F
100
AcDbEntity
  8
0
  6
Continuous
 62
     7
370
    15
100
AcDbLine
 10
-6.7366987179
 20
96.0583333333
 30
0.0
 11
-6.7366987179
 21
96.383974359
 31
0.0
  0
LINE
  5
136
330
1F
100
AcDbEntity
  8
0
  6
Continuous
 62
     7
370
    15
100
AcDbLine
 10
-6.7366987179
 20
96.383974359
 30
0.0
 11
-5.5155448718
 21
96.383974359
 31
0.0
  0
LINE
  5
137
330
1F
100
AcDbEntity
  8
0
  6
Continuous
 62
     7
370
    15
100
AcDbLine
 10
-5.5155448718
 20
96.383974359
 30
0.0
 11
-5.5155448718
 21
96.0583333333
 31
0.0
  0
LINE
  5
138
330
1F
100
AcDbEntity
  8
0
  6
Continuous
 62
     7
370
    15
100
AcDbLine
 10
-10.0541666667
 20
97.2896634615
 30
0.0
 11
-10.3575470753
 21
95.0
 31
0.0
  0
LINE
  5
139
330
1F
100
AcDbEntity
  8
0
  6
Continuous
 62
     7
370
    15
100
AcDbLine
 10
-10.3575470753
 20
95.0
 30
0.0
 11
-10.6443910256
 21
95.0
 31
0.0
  0
LINE
  5
13A
330
1F
100
AcDbEntity
  8
0
  6
Continuous
 62
     7
370
    15
100
AcDbLine
 10
-10.6443910256
 20
95.0
 30
0.0
 11
-10.2252554087
 21
98.175
 31
0.0
  0
LINE
  5
13B
330
1F
100
AcDbEntity
  8
0
  6
Continuous
 62
     7
370
    15
100
AcDbLine
 10
-10.2252554087
 20
98.175
 30
0.0
 11
-10.1845502804
 21
98.175
 31
0.0
  0
LINE
  5
13C
330
1F
100
AcDbEntity
  8
0
  6
Continuous
 62
     7
370
    15
100
AcDbLine
 10
-10.1845502804
 20
98.175
 30
0.0
 11
-8.8737179487
 21
95.5698717949
 31
0.0
  0
LINE
  5
13D
330
1F
100
AcDbEntity
  8
0
  6
Continuous
 62
     7
370
    15
100
AcDbLine
 10
-8.8737179487
 20
95.5698717949
 30
0.0
 11
-7.5660657051
 21
98.175
 31
0.0
  0
LINE
  5
13E
330
1F
100
AcDbEntity
  8
0
  6
Continuous
 62
     7
370
    15
100
AcDbLine
 10
-7.5660657051
 20
98.175
 30
0.0
 11
-7.5247245593
 21
98.175
 31
0.0
  0
LINE
  5
13F
330
1F
100
AcDbEntity
  8
0
  6
Continuous
 62
     7
370
    15
100
AcDbLine
 10
-7.5247245593
 20
98.175
 30
0.0
 11
-7.1030448718
 21
95.0
 31
0.0
  0
LINE
  5
140
330
1F
100
AcDbEntity
  8
0
  6
Continuous
 62
     7
370
    15
100
AcDbLine
 10
-7.1030448718
 20
95.0
 30
0.0
 11
-7.3892528045
 21
95.0
 31
0.0
  0
LINE
  5
141
330
1F
100
AcDbEntity
  8
0
  6
Continuous
 62
     7
370
    15
100
AcDbLine
 10
-7.3892528045
 20
95.0
 30
0.0
 11
-7.6932692308
 21
97.2845753205
 31
0.0
  0
LINE
  5
142
330
1F
100
AcDbEntity
  8
0
  6
Continuous
 62
     7
370
    15
100
AcDbLine
 10
-7.6932692308
 20
97.2845753205
 30
0.0
 11
-8.8393729968
 21
95.0
 31
0.0
  0
LINE
  5
143
330
1F
100
AcDbEntity
  8
0
  6
Continuous
 62
     7
370
    15
100
AcDbLine
 10
-8.8393729968
 20
95.0
 30
0.0
 11
-8.9036107772
 21
95.0
 31
0.0
  0
LINE
  5
144
330
1F
100
AcDbEntity
  8
0
  6
Continuous
 62
     7
370
    15
100
AcDbLine
 10
-8.9036107772
 20
95.0
 30
0.0
 11
-10.0541666667
 21
97.2896634615
 31
0.0
  0
LINE
  5
145
330
1F
100
AcDbEntity
  8
0
  6
Continuous
 62
     7
370
    15
100
AcDbLine
 10
-12.5168269231
 20
95.0
 30
0.0
 11
-12.8017628205
 21
95.0
 31
0.0
  0
LINE
  5
146
330
1F
100
AcDbEntity
  8
0
  6
Continuous
 62
     7
370
    15
100
AcDbLine
 10
-12.8017628205
 20
95.0
 30
0.0
 11
-12.8017628205
 21
98.175
 31
0.0
  0
LINE
  5
147
330
1F
100
AcDbEntity
  8
0
  6
Continuous
 62
     7
370
    15
100
AcDbLine
 10
-12.8017628205
 20
98.175
 30
0.0
 11
-12.5168269231
 21
98.175
 31
0.0
  0
LINE
  5
148
330
1F
100
AcDbEntity
  8
0
  6
Continuous
 62
     7
370
    15
100
AcDbLine
 10
-12.5168269231
 20
98.175
 30
0.0
 11
-12.5168269231
 21
95.0
 31
0.0
  0
LINE
  5
149
330
1F
100
AcDbEntity
  8
0
  6
Continuous
 62
     7
370
    15
100
AcDbLine
 10
-13.6158653846
 20
95.0
 30
0.0
 11
-13.9008012821
 21
95.0
 31
0.0
  0
LINE
  5
14A
330
1F
100
AcDbEntity
  8
0
  6
Continuous
 62
     7
370
    15
100
AcDbLine
 10
-13.9008012821
 20
95.0
 30
0.0
 11
-13.9008012821
 21
98.175
 31
0.0
  0
LINE
  5
14B
330
1F
100
AcDbEntity
  8
0
  6
Continuous
 62
     7
370
    15
100
AcDbLine
 10
-13.9008012821
 20
98.175
 30
0.0
 11
-13.6158653846
 21
98.175
 31
0.0
  0
LINE
  5
14C
330
1F
100
AcDbEntity
  8
0
  6
Continuous
 62
     7
370
    15
100
AcDbLine
 10
-13.6158653846
 20
98.175
 30
0.0
 11
-13.6158653846
 21
95.0
 31
0.0
  0
LINE
  5
14D
330
1F
100
AcDbEntity
  8
0
  6
Continuous
 62
     7
370
    15
100
AcDbLine
 10
-14.7149038462
 20
95.0
 30
0.0
 11
-14.9998397436
 21
95.0
 31
0.0
  0
LINE
  5
14E
330
1F
100
AcDbEntity
  8
0
  6
Continuous
 62
     7
370
    15
100
AcDbLine
 10
-14.9998397436
 20
95.0
 30
0.0
 11
-14.9998397436
 21
98.175
 31
0.0
  0
LINE
  5
14F
330
1F
100
AcDbEntity
  8
0
  6
Continuous
 62
     7
370
    15
100
AcDbLine
 10
-14.9998397436
 20
98.175
 30
0.0
 11
-14.7149038462
 21
98.175
 31
0.0
  0
LINE
  5
150
330
1F
100
AcDbEntity
  8
0
  6
Continuous
 62
     7
370
    15
100
AcDbLine
 10
-14.7149038462
 20
98.175
 30
0.0
 11
-14.7149038462
 21
95.0
 31
0.0
  0
SPLINE
  5
151
330
1F
100
AcDbEntity
  8
0
  6
Continuous
 62
     7
370
    15
100
AcDbSpline
210
0.0
220
0.0
230
1.0
 70
     8
 71
     3
 72
    15
 73
    11
 74
     0
 42
0.000000001
 43
0.00000001
 40
0.0
 40
0.0
 40
0.0
 40
0.0
 40
0.1277566033101304
 40
0.2494143553365248
 40
0.3727964764554033
 40
0.5001113325158631
 40
0.6286099407651115
 40
0.7506433738258109
 40
0.8737683791425161
 40
1.0
 40
1.0
 40
1.0
 40
1.0
 10
-15.95641025641025
 20
94.9592948717949
 30
0.0
 10
-15.9741230422516
 20
94.96024156351838
 30
0.0
 10
-16.00870304005501
 20
94.9620897537473
 30
0.0
 10
-16.05840176339238
 20
94.97765887087117
 30
0.0
 10
-16.1041280848888
 20
95.0019915812352
 30
0.0
 10
-16.14475693767877
 20
95.0357979919801
 30
0.0
 10
-16.17790255119087
 20
95.07661955063192
 30
0.0
 10
-16.20296271992179
 20
95.1221597516808
 30
0.0
 10
-16.21801235504338
 20
95.17185434133583
 30
0.0
 10
-16.21999162524833
 20
95.20639348162666
 30
0.0
 10
-16.22099358974358
 20
95.22387820512823
 30
0.0
  0
SPLINE
  5
152
330
1F
100
AcDbEntity
  8
0
  6
Continuous
 62
     7
370
    15
100
AcDbSpline
210
0.0
220
0.0
230
1.0
 70
     8
 71
     3
 72
    15
 73
    11
 74
     0
 42
0.000000001
 43
0.00000001
 40
0.0
 40
0.0
 40
0.0
 40
0.0
 40
0.1290969581672444
 40
0.2520459672599933
 40
0.3739049644020112
 40
0.5010378352202163
 40
0.6281707060384215
 40
0.7513764634091993
 40
0.8724260133704554
 40
1.0
 40
1.0
 40
1.0
 40
1.0
 10
-16.22099358974358
 20
95.22387820512823
 30
0.0
 10
-16.2200301139904
 20
95.24179371380872
 30
0.0
 10
-16.2181490458259
 20
95.27677154580753
 30
0.0
 10
-16.20293112545464
 20
95.32684502187628
 30
0.0
 10
-16.17809699036959
 20
95.37235496319599
 30
0.0
 10
-16.1445278106267
 20
95.41262900373671
 30
0.0
 10
-16.10413791364214
 20
95.44636319972629
 30
0.0
 10
-16.05851207037355
 20
95.47091483350304
 30
0.0
 10
-16.00858334452634
 20
95.48546577884287
 30
0.0
 10
-15.97410290039357
 20
95.48744563332144
 30
0.0
 10
-15.95641025641025
 20
95.48846153846156
 30
0.0
  0
SPLINE
  5
153
330
1F
100
AcDbEntity
  8
0
  6
Continuous
 62
     7
370
    15
100
AcDbSpline
210
0.0
220
0.0
230
1.0
 70
     8
 71
     3
 72
    15
 73
    11
 74
     0
 42
0.000000001
 43
0.00000001
 40
0.0
 40
0.0
 40
0.0
 40
0.0
 40
0.1275189266999429
 40
0.2499859477488093
 40
0.3717923515057399
 40
0.4988703527764594
 40
0.625948354047179
 40
0.748491738016042
 40
0.870958759064898
 40
1.0
 40
1.0
 40
1.0
 40
1.0
 10
-15.95641025641025
 20
95.48846153846156
 30
0.0
 10
-15.93872984965334
 20
95.4874109158246
 30
0.0
 10
-15.90406947919624
 20
95.48535129297147
 30
0.0
 10
-15.85395969850966
 20
95.47122102463209
 30
0.0
 10
-15.80860740005527
 20
95.44613066834714
 30
0.0
 10
-15.76821029228447
 20
95.41269086226175
 30
0.0
 10
-15.7349122742946
 20
95.37214551070761
 30
0.0
 10
-15.70892775486439
 20
95.32715493635419
 30
0.0
 10
-15.6949205754221
 20
95.27662563451464
 30
0.0
 10
-15.69287595542246
 20
95.2417644293696
 30
0.0
 10
-15.69182692307692
 20
95.22387820512823
 30
0.0
  0
SPLINE
  5
154
330
1F
100
AcDbEntity
  8
0
  6
Continuous
 62
     7
370
    15
100
AcDbSpline
210
0.0
220
0.0
230
1.0
 70
     8
 71
     3
 72
    15
 73
    11
 74
     0
 42
0.000000001
 43
0.00000001
 40
0.0
 40
0.0
 40
0.0
 40
0.0
 40
0.1261777183170035
 40
0.2488206074857891
 40
0.3715399692351504
 40
0.4999837069108777
 40
0.6272441978753652
 40
0.7492255210762621
 40
0.8722979504176511
 40
1.0
 40
1.0
 40
1.0
 40
1.0
 10
-15.69182692307692
 20
95.22387820512823
 30
0.0
 10
-15.69291150375317
 20
95.20642175598655
 30
0.0
 10
-15.69505028091869
 20
95.17199789464308
 30
0.0
 10
-15.70889564686427
 20
95.12184971069141
 30
0.0
 10
-15.73511030671581
 20
95.07683101877929
 30
0.0
 10
-15.76798062172392
 20
95.03573550776282
 30
0.0
 10
-15.80861738645173
 20
95.002224860854
 30
0.0
 10
-15.85406691856375
 20
94.97734796956111
 30
0.0
 10
-15.90395184560625
 20
94.96220595921471
 30
0.0
 10
-15.93871022464356
 20
94.96027710398639
 30
0.0
 10
-15.95641025641025
 20
94.9592948717949
 30
0.0
  0
LINE
  5
155
330
1F
100
AcDbEntity
  8
0
  6
Continuous
 62
     7
370
    15
100
AcDbLine
 10
-18.1748397436
 20
95.0
 30
0.0
 11
-18.459775641
 21
95.0
 31
0.0
  0
LINE
  5
156
330
1F
100
AcDbEntity
  8
0
  6
Continuous
 62
     7
370
    15
100
AcDbLine
 10
-18.459775641
 20
95.0
 30
0.0
 11
-18.459775641
 21
98.2564102564
 31
0.0
  0
LINE
  5
157
330
1F
100
AcDbEntity
  8
0
  6
Continuous
 62
     7
370
    15
100
AcDbLine
 10
-18.459775641
 20
98.2564102564
 30
0.0
 11
-18.1748397436
 21
98.2564102564
 31
0.0
  0
LINE
  5
158
330
1F
100
AcDbEntity
  8
0
  6
Continuous
 62
     7
370
    15
100
AcDbLine
 10
-18.1748397436
 20
98.2564102564
 30
0.0
 11
-18.1748397436
 21
96.3737980769
 31
0.0
  0
LINE
  5
159
330
1F
100
AcDbEntity
  8
0
  6
Continuous
 62
     7
370
    15
100
AcDbLine
 10
-18.1748397436
 20
96.3737980769
 30
0.0
 11
-17.1190504808
 21
97.3201923077
 31
0.0
  0
LINE
  5
15A
330
1F
100
AcDbEntity
  8
0
  6
Continuous
 62
     7
370
    15
100
AcDbLine
 10
-17.1190504808
 20
97.3201923077
 30
0.0
 11
-16.7094551282
 21
97.3201923077
 31
0.0
  0
LINE
  5
15B
330
1F
100
AcDbEntity
  8
0
  6
Continuous
 62
     7
370
    15
100
AcDbLine
 10
-16.7094551282
 20
97.3201923077
 30
0.0
 11
-17.9344250801
 21
96.2211538462
 31
0.0
  0
LINE
  5
15C
330
1F
100
AcDbEntity
  8
0
  6
Continuous
 62
     7
370
    15
100
AcDbLine
 10
-17.9344250801
 20
96.2211538462
 30
0.0
 11
-16.5873397436
 21
95.0
 31
0.0
  0
LINE
  5
15D
330
1F
100
AcDbEntity
  8
0
  6
Continuous
 62
     7
370
    15
100
AcDbLine
 10
-16.5873397436
 20
95.0
 30
0.0
 11
-16.9962990785
 21
95.0
 31
0.0
  0
LINE
  5
15E
330
1F
100
AcDbEntity
  8
0
  6
Continuous
 62
     7
370
    15
100
AcDbLine
 10
-16.9962990785
 20
95.0
 30
0.0
 11
-18.1748397436
 21
96.069145633
 31
0.0
  0
LINE
  5
15F
330
1F
100
AcDbEntity
  8
0
  6
Continuous
 62
     7
370
    15
100
AcDbLine
 10
-18.1748397436
 20
96.069145633
 30
0.0
 11
-18.1748397436
 21
95.0
 31
0.0
  0
MTEXT
  5
161
330
1F
100
AcDbEntity
  8
0
  6
Continuous
 62
     7
100
AcDbMText
 10
-123.4
 20
-124.4195663917
 30
0.0
 40
4.83362
 41
0.0
 71
     1
 72
     1
  1
SOLIDWORKS Educational Product.
  7
SLDTEXTSTYLE0
 73
     1
 44
1.0
  0
MTEXT
  5
162
330
1F
100
AcDbEntity
  8
0
  6
Continuous
 62
     7
100
AcDbMText
 10
-123.4
 20
-131.6699963917
 30
0.0
 40
4.83362
 41
0.0
 71
     1
 72
     1
  1
For Instructional Use Only.
  7
SLDTEXTSTYLE0
 73
     1
 44
1.0
  0
ENDSEC
  0
SECTION
  2
OBJECTS
  0
DICTIONARY
  5
C
330
0
100
AcDbDictionary
281
     1
  3
ACAD_GROUP
350
D
  3
ACAD_LAYOUT
350
1A
  3
ACAD_MLINESTYLE
350
17
  3
ACAD_PLOTSETTINGS
350
19
  3
ACAD_PLOTSTYLENAME
350
E
  3
ACAD_SCALELIST
350
47
  0
DICTIONARY
  5
D
102
{ACAD_REACTORS
330
C
102
}
330
C
100
AcDbDictionary
281
     1
  0
DICTIONARY
  5
1A
102
{ACAD_REACTORS
330
C
102
}
330
C
100
AcDbDictionary
281
     1
  3
Layout1
350
1E
  3
Layout2
350
26
  3
Model
350
22
  0
DICTIONARY
  5
17
102
{ACAD_REACTORS
330
C
102
}
330
C
100
AcDbDictionary
281
     1
  3
Standard
350
18
  0
DICTIONARY
  5
19
102
{ACAD_REACTORS
330
C
102
}
330
C
100
AcDbDictionary
281
     1
  0
ACDBDICTIONARYWDFLT
  5
E
102
{ACAD_REACTORS
330
C
102
}
330
C
100
AcDbDictionary
281
     1
  3
Normal
350
F
100
AcDbDictionaryWithDefault
340
F
  0
DICTIONARY
  5
47
102
{ACAD_REACTORS
330
C
102
}
330
C
100
AcDbDictionary
281
     1
  3
A0
350
48
  3
A1
350
49
  3
A2
350
4A
  3
A3
350
4B
  3
A4
350
4C
  3
A5
350
4D
  3
A6
350
4E
  3
A7
350
4F
  3
A8
350
50
  3
A9
350
51
  3
B0
350
52
  3
B1
350
53
  3
B2
350
54
  3
B3
350
55
  3
B4
350
56
  3
B5
350
57
  3
B6
350
58
  3
B7
350
59
  3
B8
350
5A
  3
B9
350
5B
  3
C0
350
5C
  3
C1
350
5D
  3
C2
350
5E
  3
C3
350
5F
  3
C4
350
60
  3
C5
350
61
  3
C6
350
62
  3
C7
350
63
  3
C8
350
64
  3
C9
350
65
  3
D0
350
66
  3
D1
350
67
  3
D2
350
68
  0
LAYOUT
  5
1E
102
{ACAD_REACTORS
330
1A
102
}
330
1A
100
AcDbPlotSettings
  1

  2
none_device
  4

  6

 40
0.0
 41
0.0
 42
0.0
 43
0.0
 44
0.0
 45
0.0
 46
0.0
 47
0.0
 48
0.0
 49
0.0
140
0.0
141
0.0
142
1.0
143
1.0
 70
   688
 72
     1
 73
     0
 74
     5
  7

 75
    16
147
1.0
148
0.0
149
0.0
100
AcDbLayout
  1
Layout1
 70
     1
 71
     1
 10
0.0
 20
0.0
 11
420.0
 21
297.0
 12
0.0
 22
0.0
 32
0.0
 14
1.0000000000E+20
 24
1.0000000000E+20
 34
1.0000000000E+20
 15
-1.0000000000E+20
 25
-1.0000000000E+20
 35
-1.0000000000E+20
146
0.0
 13
0.0
 23
0.0
 33
0.0
 16
1.0
 26
0.0
 36
0.0
 17
0.0
 27
1.0
 37
0.0
 76
     0
330
1B
  0
LAYOUT
  5
26
102
{ACAD_REACTORS
330
1A
102
}
330
1A
100
AcDbPlotSettings
  1

  2
none_device
  4

  6

 40
0.0
 41
0.0
 42
0.0
 43
0.0
 44
0.0
 45
0.0
 46
0.0
 47
0.0
 48
0.0
 49
0.0
140
0.0
141
0.0
142
1.0
143
1.0
 70
   688
 72
     1
 73
     0
 74
     5
  7

 75
    16
147
1.0
148
0.0
149
0.0
100
AcDbLayout
  1
Layout2
 70
     1
 71
     2
 10
0.0
 20
0.0
 11
0.0
 21
0.0
 12
0.0
 22
0.0
 32
0.0
 14
0.0
 24
0.0
 34
0.0
 15
0.0
 25
0.0
 35
0.0
146
0.0
 13
0.0
 23
0.0
 33
0.0
 16
1.0
 26
0.0
 36
0.0
 17
0.0
 27
1.0
 37
0.0
 76
     0
330
23
  0
LAYOUT
  5
22
102
{ACAD_REACTORS
330
1A
102
}
330
1A
100
AcDbPlotSettings
  1

  2
none_device
  4
ANSI_A_(11.00_x_8.50_Inches)
  6

 40
6.35
 41
19.05
 42
6.35000508
 43
19.05000254
 44
279.4
 45
215.9
 46
133.34999746
 47
88.89999873
 48
0.0
 49
0.0
140
0.0
141
0.0
142
0.0340964344
143
1.0
 70
  1696
 72
     0
 73
     0
 74
     0
  7

 75
     0
147
0.0179189148
148
-1300.4909072572
149
0.0
100
AcDbLayout
  1
Model
 70
     1
 71
     0
 10
0.0
 20
0.0
 11
420.0
 21
297.0
 12
0.0
 22
0.0
 32
0.0
 14
-123.4
 24
-123.4
 34
0.0
 15
123.4
 25
123.4
 35
0.0
146
0.0
 13
0.0
 23
0.0
 33
0.0
 16
1.0
 26
0.0
 36
0.0
 17
0.0
 27
1.0
 37
0.0
 76
     0
330
1F
331
29
  0
MLINESTYLE
  5
18
102
{ACAD_REACTORS
330
17
102
}
330
17
100
AcDbMlineStyle
  2
Standard
 70
     0
  3

 62
   256
 51
90.0
 52
90.0
 71
     2
 49
0.5
 62
   256
  6
BYLAYER
 49
-0.5
 62
   256
  6
BYLAYER
  0
ACDBPLACEHOLDER
  5
F
102
{ACAD_REACTORS
330
E
102
}
330
E
  0
SCALE
  5
48
102
{ACAD_REACTORS
330
47
102
}
330
47
100
AcDbScale
 70
     0
300
1:1
140
1.0
141
1.0
290
     1
  0
SCALE
  5
49
102
{ACAD_REACTORS
330
47
102
}
330
47
100
AcDbScale
 70
     0
300
1:2
140
1.0
141
2.0
290
     0
  0
SCALE
  5
4A
102
{ACAD_REACTORS
330
47
102
}
330
47
100
AcDbScale
 70
     0
300
1:4
140
1.0
141
4.0
290
     0
  0
SCALE
  5
4B
102
{ACAD_REACTORS
330
47
102
}
330
47
100
AcDbScale
 70
     0
300
1:5
140
1.0
141
5.0
290
     0
  0
SCALE
  5
4C
102
{ACAD_REACTORS
330
47
102
}
330
47
100
AcDbScale
 70
     0
300
1:8
140
1.0
141
8.0
290
     0
  0
SCALE
  5
4D
102
{ACAD_REACTORS
330
47
102
}
330
47
100
AcDbScale
 70
     0
300
1:10
140
1.0
141
10.0
290
     0
  0
SCALE
  5
4E
102
{ACAD_REACTORS
330
47
102
}
330
47
100
AcDbScale
 70
     0
300
1:16
140
1.0
141
16.0
290
     0
  0
SCALE
  5
4F
102
{ACAD_REACTORS
330
47
102
}
330
47
100
AcDbScale
 70
     0
300
1:20
140
1.0
141
20.0
290
     0
  0
SCALE
  5
50
102
{ACAD_REACTORS
330
47
102
}
330
47
100
AcDbScale
 70
     0
300
1:30
140
1.0
141
30.0
290
     0
  0
SCALE
  5
51
102
{ACAD_REACTORS
330
47
102
}
330
47
100
AcDbScale
 70
     0
300
1:40
140
1.0
141
40.0
290
     0
  0
SCALE
  5
52
102
{ACAD_REACTORS
330
47
102
}
330
47
100
AcDbScale
 70
     0
300
1:50
140
1.0
141
50.0
290
     0
  0
SCALE
  5
53
102
{ACAD_REACTORS
330
47
102
}
330
47
100
AcDbScale
 70
     0
300
1:100
140
1.0
141
100.0
290
     0
  0
SCALE
  5
54
102
{ACAD_REACTORS
330
47
102
}
330
47
100
AcDbScale
 70
     0
300
2:1
140
2.0
141
1.0
290
     0
  0
SCALE
  5
55
102
{ACAD_REACTORS
330
47
102
}
330
47
100
AcDbScale
 70
     0
300
4:1
140
4.0
141
1.0
290
     0
  0
SCALE
  5
56
102
{ACAD_REACTORS
330
47
102
}
330
47
100
AcDbScale
 70
     0
300
8:1
140
8.0
141
1.0
290
     0
  0
SCALE
  5
57
102
{ACAD_REACTORS
330
47
102
}
330
47
100
AcDbScale
 70
     0
300
10:1
140
10.0
141
1.0
290
     0
  0
SCALE
  5
58
102
{ACAD_REACTORS
330
47
102
}
330
47
100
AcDbScale
 70
     0
300
100:1
140
100.0
141
1.0
290
     0
  0
SCALE
  5
59
102
{ACAD_REACTORS
330
47
102
}
330
47
100
AcDbScale
 70
     0
300
1/128" = 1'-0"
140
0.0078125
141
12.0
290
     0
  0
SCALE
  5
5A
102
{ACAD_REACTORS
330
47
102
}
330
47
100
AcDbScale
 70
     0
300
1/64" = 1'-0"
140
0.015625
141
12.0
290
     0
  0
SCALE
  5
5B
102
{ACAD_REACTORS
330
47
102
}
330
47
100
AcDbScale
 70
     0
300
1/32" = 1'-0"
140
0.03125
141
12.0
290
     0
  0
SCALE
  5
5C
102
{ACAD_REACTORS
330
47
102
}
330
47
100
AcDbScale
 70
     0
300
1/16" = 1'-0"
140
0.0625
141
12.0
290
     0
  0
SCALE
  5
5D
102
{ACAD_REACTORS
330
47
102
}
330
47
100
AcDbScale
 70
     0
300
3/32" = 1'-0"
140
0.09375
141
12.0
290
     0
  0
SCALE
  5
5E
102
{ACAD_REACTORS
330
47
102
}
330
47
100
AcDbScale
 70
     0
300
1/8" = 1'-0"
140
0.125
141
12.0
290
     0
  0
SCALE
  5
5F
102
{ACAD_REACTORS
330
47
102
}
330
47
100
AcDbScale
 70
     0
300
3/16" = 1'-0"
140
0.1875
141
12.0
290
     0
  0
SCALE
  5
60
102
{ACAD_REACTORS
330
47
102
}
330
47
100
AcDbScale
 70
     0
300
1/4" = 1'-0"
140
0.25
141
12.0
290
     0
  0
SCALE
  5
61
102
{ACAD_REACTORS
330
47
102
}
330
47
100
AcDbScale
 70
     0
300
3/8" = 1'-0"
140
0.375
141
12.0
290
     0
  0
SCALE
  5
62
102
{ACAD_REACTORS
330
47
102
}
330
47
100
AcDbScale
 70
     0
300
1/2" = 1'-0"
140
0.5
141
12.0
290
     0
  0
SCALE
  5
63
102
{ACAD_REACTORS
330
47
102
}
330
47
100
AcDbScale
 70
     0
300
3/4" = 1'-0"
140
0.75
141
12.0
290
     0
  0
SCALE
  5
64
102
{ACAD_REACTORS
330
47
102
}
330
47
100
AcDbScale
 70
     0
300
1" = 1'-0"
140
1.0
141
12.0
290
     0
  0
SCALE
  5
65
102
{ACAD_REACTORS
330
47
102
}
330
47
100
AcDbScale
 70
     0
300
1-1/2" = 1'-0"
140
1.5
141
12.0
290
     0
  0
SCALE
  5
66
102
{ACAD_REACTORS
330
47
102
}
330
47
100
AcDbScale
 70
     0
300
3" = 1'-0"
140
3.0
141
12.0
290
     0
  0
SCALE
  5
67
102
{ACAD_REACTORS
330
47
102
}
330
47
100
AcDbScale
 70
     0
300
6" = 1'-0"
140
6.0
141
12.0
290
     0
  0
SCALE
  5
68
102
{ACAD_REACTORS
330
47
102
}
330
47
100
AcDbScale
 70
     0
300
1'-0" = 1'-0"
140
12.0
141
12.0
290
     0
  0
ENDSEC
  0
EOF
