  0
SECTION
  2
HEADER
  9
$ACADVER
  1
AC1015
  9
$ACADMAINTVER
 70
     6
  9
$DWGCODEPAGE
  3
ANSI_1252
  9
$INSBASE
 10
0.0
 20
0.0
 30
0.0
  9
$EXTMIN
 10
-3.4
 20
-3.4
 30
0.0
  9
$EXTMAX
 10
243.4
 20
30.0
 30
0.0
  9
$LIMMIN
 10
0.0
 20
0.0
  9
$LIMMAX
 10
420.0
 20
297.0
  9
$ORTHOMODE
 70
     0
  9
$REGENMODE
 70
     1
  9
$FILLMODE
 70
     1
  9
$QTEXTMODE
 70
     0
  9
$MIRRTEXT
 70
     1
  9
$LTSCALE
 40
1.0
  9
$ATTMODE
 70
     1
  9
$TEXTSIZE
 40
6.35
  9
$TRACEWID
 40
1.0
  9
$TEXTSTYLE
  7
Standard
  9
$CLAYER
  8
0
  9
$CELTYPE
  6
ByLayer
  9
$CECOLOR
 62
   256
  9
$CELTSCALE
 40
1.0
  9
$DISPSILH
 70
     0
  9
$DIMSCALE
 40
1.0
  9
$DIMASZ
 40
5.9944
  9
$DIMEXO
 40
0.9906
  9
$DIMDLI
 40
3.75
  9
$DIMRND
 40
0.0
  9
$DIMDLE
 40
0.0
  9
$DIMEXE
 40
0.9906
  9
$DIMTP
 40
0.0
  9
$DIMTM
 40
0.0
  9
$DIMTXT
 40
6.35
  9
$DIMCEN
 40
2.5
  9
$DIMTSZ
 40
0.0
  9
$DIMTOL
 70
     0
  9
$DIMLIM
 70
     0
  9
$DIMTIH
 70
     1
  9
$DIMTOH
 70
     1
  9
$DIMSE1
 70
     0
  9
$DIMSE2
 70
     0
  9
$DIMTAD
 70
     1
  9
$DIMZIN
 70
     0
  9
$DIMBLK
  1

  9
$DIMASO
 70
     1
  9
$DIMSHO
 70
     1
  9
$DIMPOST
  1

  9
$DIMAPOST
  1

  9
$DIMALT
 70
     0
  9
$DIMALTD
 70
     3
  9
$DIMALTF
 40
0.0393700787
  9
$DIMLFAC
 40
1.0
  9
$DIMTOFL
 70
     1
  9
$DIMTVP
 40
0.0
  9
$DIMTIX
 70
     0
  9
$DIMSOXD
 70
     0
  9
$DIMSAH
 70
     0
  9
$DIMBLK1
  1

  9
$DIMBLK2
  1

  9
$DIMSTYLE
  2
ISO-25
  9
$DIMCLRD
 70
     0
  9
$DIMCLRE
 70
     0
  9
$DIMCLRT
 70
     0
  9
$DIMTFAC
 40
1.0
  9
$DIMGAP
 40
1.524
  9
$DIMJUST
 70
     0
  9
$DIMSD1
 70
     0
  9
$DIMSD2
 70
     0
  9
$DIMTOLJ
 70
     0
  9
$DIMTZIN
 70
     0
  9
$DIMALTZ
 70
     0
  9
$DIMALTTZ
 70
     0
  9
$DIMUPT
 70
     0
  9
$DIMDEC
 70
     2
  9
$DIMTDEC
 70
     2
  9
$DIMALTU
 70
     2
  9
$DIMALTTD
 70
     3
  9
$DIMTXSTY
  7
Standard
  9
$DIMAUNIT
 70
     0
  9
$DIMADEC
 70
     2
  9
$DIMALTRND
 40
0.0
  9
$DIMAZIN
 70
     0
  9
$DIMDSEP
 70
    44
  9
$DIMATFIT
 70
     3
  9
$DIMFRAC
 70
     0
  9
$DIMLDRBLK
  1

  9
$DIMLUNIT
 70
     2
  9
$DIMLWD
 70
    -2
  9
$DIMLWE
 70
    -2
  9
$DIMTMOVE
 70
     0
  9
$LUNITS
 70
     2
  9
$LUPREC
 70
     2
  9
$SKETCHINC
 40
1.0
  9
$FILLETRAD
 40
10.0
  9
$AUNITS
 70
     0
  9
$AUPREC
 70
     2
  9
$MENU
  1
.
  9
$ELEVATION
 40
0.0
  9
$PELEVATION
 40
0.0
  9
$THICKNESS
 40
0.0
  9
$LIMCHECK
 70
     0
  9
$CHAMFERA
 40
0.0
  9
$CHAMFERB
 40
0.0
  9
$CHAMFERC
 40
0.0
  9
$CHAMFERD
 40
0.0
  9
$SKPOLY
 70
     0
  9
$TDCREATE
 40
2457988.453899306
  9
$TDUCREATE
 40
2457988.412232639
  9
$TDUPDATE
 40
2457988.453924282
  9
$TDUUPDATE
 40
2457988.412257616
  9
$TDINDWG
 40
0.0000000116
  9
$TDUSRTIMER
 40
0.0000000116
  9
$USRTIMER
 70
     1
  9
$ANGBASE
 50
0.0
  9
$ANGDIR
 70
     0
  9
$PDMODE
 70
     0
  9
$PDSIZE
 40
-1.0
  9
$PLINEWID
 40
0.0
  9
$SPLFRAME
 70
     0
  9
$SPLINETYPE
 70
     6
  9
$SPLINESEGS
 70
     8
  9
$HANDSEED
  5
172
  9
$SURFTAB1
 70
     6
  9
$SURFTAB2
 70
     6
  9
$SURFTYPE
 70
     6
  9
$SURFU
 70
     6
  9
$SURFV
 70
     6
  9
$UCSBASE
  2

  9
$UCSNAME
  2

  9
$UCSORG
 10
0.0
 20
0.0
 30
0.0
  9
$UCSXDIR
 10
1.0
 20
0.0
 30
0.0
  9
$UCSYDIR
 10
0.0
 20
1.0
 30
0.0
  9
$UCSORTHOREF
  2

  9
$UCSORTHOVIEW
 70
     0
  9
$UCSORGTOP
 10
0.0
 20
0.0
 30
0.0
  9
$UCSORGBOTTOM
 10
0.0
 20
0.0
 30
0.0
  9
$UCSORGLEFT
 10
0.0
 20
0.0
 30
0.0
  9
$UCSORGRIGHT
 10
0.0
 20
0.0
 30
0.0
  9
$UCSORGFRONT
 10
0.0
 20
0.0
 30
0.0
  9
$UCSORGBACK
 10
0.0
 20
0.0
 30
0.0
  9
$PUCSBASE
  2

  9
$PUCSNAME
  2

  9
$PUCSORG
 10
0.0
 20
0.0
 30
0.0
  9
$PUCSXDIR
 10
1.0
 20
0.0
 30
0.0
  9
$PUCSYDIR
 10
0.0
 20
1.0
 30
0.0
  9
$PUCSORTHOREF
  2

  9
$PUCSORTHOVIEW
 70
     0
  9
$PUCSORGTOP
 10
0.0
 20
0.0
 30
0.0
  9
$PUCSORGBOTTOM
 10
0.0
 20
0.0
 30
0.0
  9
$PUCSORGLEFT
 10
0.0
 20
0.0
 30
0.0
  9
$PUCSORGRIGHT
 10
0.0
 20
0.0
 30
0.0
  9
$PUCSORGFRONT
 10
0.0
 20
0.0
 30
0.0
  9
$PUCSORGBACK
 10
0.0
 20
0.0
 30
0.0
  9
$USERI1
 70
     0
  9
$USERI2
 70
     0
  9
$USERI3
 70
     0
  9
$USERI4
 70
     0
  9
$USERI5
 70
     0
  9
$USERR1
 40
0.0
  9
$USERR2
 40
0.0
  9
$USERR3
 40
0.0
  9
$USERR4
 40
0.0
  9
$USERR5
 40
0.0
  9
$WORLDVIEW
 70
     1
  9
$SHADEDGE
 70
     3
  9
$SHADEDIF
 70
    70
  9
$TILEMODE
 70
     1
  9
$MAXACTVP
 70
    64
  9
$PINSBASE
 10
0.0
 20
0.0
 30
0.0
  9
$PLIMCHECK
 70
     0
  9
$PEXTMIN
 10
1.0000000000E+20
 20
1.0000000000E+20
 30
1.0000000000E+20
  9
$PEXTMAX
 10
-1.0000000000E+20
 20
-1.0000000000E+20
 30
-1.0000000000E+20
  9
$PLIMMIN
 10
0.0
 20
0.0
  9
$PLIMMAX
 10
420.0
 20
297.0
  9
$UNITMODE
 70
     0
  9
$VISRETAIN
 70
     1
  9
$PLINEGEN
 70
     0
  9
$PSLTSCALE
 70
     1
  9
$TREEDEPTH
 70
  3020
  9
$CMLSTYLE
  2
Standard
  9
$CMLJUST
 70
     0
  9
$CMLSCALE
 40
20.0
  9
$PROXYGRAPHICS
 70
     1
  9
$MEASUREMENT
 70
     1
  9
$CELWEIGHT
370
    -1
  9
$ENDCAPS
280
     0
  9
$JOINSTYLE
280
     0
  9
$LWDISPLAY
290
     1
  9
$INSUNITS
 70
     4
  9
$HYPERLINKBASE
  1

  9
$STYLESHEET
  1

  9
$XEDIT
290
     1
  9
$CEPSNTYPE
380
     0
  9
$PSTYLEMODE
290
     1
  9
$FINGERPRINTGUID
  2
{89A74F49-BADD-4346-A1D6-0013A230EE6F}
  9
$VERSIONGUID
  2
{FAEB1C32-E019-11D5-929B-00C0DF256EC4}
  9
$EXTNAMES
290
     1
  9
$PSVPSCALE
 40
0.0
  9
$OLESTARTUP
290
     0
  0
ENDSEC
  0
SECTION
  2
CLASSES
  0
CLASS
  1
ACDBDICTIONARYWDFLT
  2
AcDbDictionaryWithDefault
  3
ObjectDBX Classes
 90
        0
280
     0
281
     0
  0
CLASS
  1
VISUALSTYLE
  2
AcDbVisualStyle
  3
ObjectDBX Classes
 90
     4095
280
     0
281
     0
  0
CLASS
  1
MATERIAL
  2
AcDbMaterial
  3
ObjectDBX Classes
 90
     1153
280
     0
281
     0
  0
CLASS
  1
SCALE
  2
AcDbScale
  3
ObjectDBX Classes
 90
     1153
280
     0
281
     0
  0
CLASS
  1
TABLESTYLE
  2
AcDbTableStyle
  3
ObjectDBX Classes
 90
     4095
280
     0
281
     0
  0
CLASS
  1
MLEADERSTYLE
  2
AcDbMLeaderStyle
  3
ACDB_MLEADERSTYLE_CLASS
 90
     4095
280
     0
281
     0
  0
CLASS
  1
SUN
  2
AcDbSun
  3
SCENEOE
 90
     1153
280
     0
281
     0
  0
CLASS
  1
ACDBPLACEHOLDER
  2
AcDbPlaceHolder
  3
ObjectDBX Classes
 90
        0
280
     0
281
     0
  0
CLASS
  1
LAYOUT
  2
AcDbLayout
  3
ObjectDBX Classes
 90
        0
280
     0
281
     0
  0
ENDSEC
  0
SECTION
  2
TABLES
  0
TABLE
  2
VPORT
  5
8
330
0
100
AcDbSymbolTable
 70
     1
  0
VPORT
  5
29
330
8
100
AcDbSymbolTableRecord
100
AcDbViewportTableRecord
  2
*Active
 70
     0
 10
0.0
 20
0.0
 11
1.0
 21
1.0
 12
120.0
 22
13.3
 13
0.0
 23
0.0
 14
10.0
 24
10.0
 15
10.0
 25
10.0
 16
0.0
 26
0.0
 36
1.0
 17
0.0
 27
0.0
 37
0.0
 40
34.068
 41
7.3892215569
 42
50.0
 43
0.0
 44
0.0
 50
0.0
 51
0.0
 71
     0
 72
   100
 73
     1
 74
     3
 75
     0
 76
     0
 77
     0
 78
     0
281
     0
 65
     1
110
0.0
120
0.0
130
0.0
111
1.0
121
0.0
131
0.0
112
0.0
122
1.0
132
0.0
 79
     0
146
0.0
  0
ENDTAB
  0
TABLE
  2
LTYPE
  5
5
330
0
100
AcDbSymbolTable
 70
     6
  0
LTYPE
  5
14
330
5
100
AcDbSymbolTableRecord
100
AcDbLinetypeTableRecord
  2
ByBlock
 70
     0
  3

 72
    65
 73
     0
 40
0.0
  0
LTYPE
  5
15
330
5
100
AcDbSymbolTableRecord
100
AcDbLinetypeTableRecord
  2
ByLayer
 70
     0
  3

 72
    65
 73
     0
 40
0.0
  0
LTYPE
  5
16
330
5
100
AcDbSymbolTableRecord
100
AcDbLinetypeTableRecord
  2
Continuous
 70
     0
  3
Solid line
 72
    65
 73
     0
 40
0.0
  0
LTYPE
  5
6E
330
5
100
AcDbSymbolTableRecord
100
AcDbLinetypeTableRecord
  2
HIDDEN
 70
     0
  3
Hidden __ __ __ __ __ __ __ __ __ __ __ __ __ __
 72
    65
 73
     2
 40
1.905
 49
1.27
 74
     0
 49
-0.635
 74
     0
  0
LTYPE
  5
6F
330
5
100
AcDbSymbolTableRecord
100
AcDbLinetypeTableRecord
  2
PHANTOM
 70
     0
  3
Phantom ______  __  __  ______  __  __  ______
 72
    65
 73
     6
 40
12.7
 49
6.35
 74
     0
 49
-1.27
 74
     0
 49
1.27
 74
     0
 49
-1.27
 74
     0
 49
1.27
 74
     0
 49
-1.27
 74
     0
  0
LTYPE
  5
70
330
5
100
AcDbSymbolTableRecord
100
AcDbLinetypeTableRecord
  2
CENTER
 70
     0
  3
Center ____ _ ____ _ ____ _ ____ _ ____ _ ____
 72
    65
 73
     4
 40
10.16
 49
6.35
 74
     0
 49
-1.27
 74
     0
 49
1.27
 74
     0
 49
-1.27
 74
     0
  0
LTYPE
  5
71
330
5
100
AcDbSymbolTableRecord
100
AcDbLinetypeTableRecord
  2
CENTERX2
 70
     0
  3
Center (2x) ________  __  ________  __  _____
 72
    65
 73
     4
 40
20.32
 49
12.7
 74
     0
 49
-2.54
 74
     0
 49
2.54
 74
     0
 49
-2.54
 74
     0
  0
LTYPE
  5
72
330
5
100
AcDbSymbolTableRecord
100
AcDbLinetypeTableRecord
  2
DOT2
 70
     0
  3
Dot (.5x) ........................................
 72
    65
 73
     2
 40
0.635
 49
0.0
 74
     0
 49
-0.635
 74
     0
  0
ENDTAB
  0
TABLE
  2
LAYER
  5
2
330
0
100
AcDbSymbolTable
 70
     1
  0
LAYER
  5
10
330
2
100
AcDbSymbolTableRecord
100
AcDbLayerTableRecord
  2
0
 70
     0
 62
     7
  6
Continuous
370
    -3
390
F
  0
ENDTAB
  0
TABLE
  2
STYLE
  5
3
330
0
100
AcDbSymbolTable
 70
     2
  0
STYLE
  5
11
330
3
100
AcDbSymbolTableRecord
100
AcDbTextStyleTableRecord
  2
Standard
 70
     0
 40
0.0
 41
1.0
 50
0.0
 71
     0
 42
6.35
  3
txt
  4

  0
STYLE
  5
16F
330
3
100
AcDbSymbolTableRecord
100
AcDbTextStyleTableRecord
  2
SLDTEXTSTYLE0
 70
     0
 40
0.0
 41
0.7
 50
0.0
 71
     0
 42
6.35
  3
TXT
  4

  0
ENDTAB
  0
TABLE
  2
VIEW
  5
6
330
0
100
AcDbSymbolTable
 70
     0
  0
ENDTAB
  0
TABLE
  2
UCS
  5
7
330
0
100
AcDbSymbolTable
 70
     0
  0
ENDTAB
  0
TABLE
  2
APPID
  5
9
330
0
100
AcDbSymbolTable
 70
     1
  0
APPID
  5
12
330
9
100
AcDbSymbolTableRecord
100
AcDbRegAppTableRecord
  2
ACAD
 70
     0
  0
ENDTAB
  0
TABLE
  2
DIMSTYLE
  5
A
330
0
100
AcDbSymbolTable
 70
     1
100
AcDbDimStyleTable
  0
DIMSTYLE
105
27
330
A
100
AcDbSymbolTableRecord
100
AcDbDimStyleTableRecord
  2
ISO-25
 70
     0
 41
2.5
 42
0.625
 43
3.75
 44
1.25
 73
     0
 74
     0
 77
     1
 78
     8
140
2.5
141
2.5
143
0.0393700787
147
0.625
171
     3
172
     1
178
     0
271
     2
272
     2
274
     3
278
    44
283
     0
284
     8
340
11
  0
ENDTAB
  0
TABLE
  2
BLOCK_RECORD
  5
1
330
0
100
AcDbSymbolTable
 70
     1
  0
BLOCK_RECORD
  5
1F
330
1
100
AcDbSymbolTableRecord
100
AcDbBlockTableRecord
  2
*Model_Space
340
22
  0
BLOCK_RECORD
  5
1B
330
1
100
AcDbSymbolTableRecord
100
AcDbBlockTableRecord
  2
*Paper_Space
340
1E
  0
BLOCK_RECORD
  5
23
330
1
100
AcDbSymbolTableRecord
100
AcDbBlockTableRecord
  2
*Paper_Space0
340
26
  0
ENDTAB
  0
ENDSEC
  0
SECTION
  2
BLOCKS
  0
BLOCK
  5
20
330
1F
100
AcDbEntity
  8
0
100
AcDbBlockBegin
  2
*Model_Space
 70
     0
 10
0.0
 20
0.0
 30
0.0
  3
*Model_Space
  1

  0
ENDBLK
  5
21
330
1F
100
AcDbEntity
  8
0
100
AcDbBlockEnd
  0
BLOCK
  5
1C
330
1B
100
AcDbEntity
 67
     1
  8
0
100
AcDbBlockBegin
  2
*Paper_Space
 70
     0
 10
0.0
 20
0.0
 30
0.0
  3
*Paper_Space
  1

  0
ENDBLK
  5
1D
330
1B
100
AcDbEntity
 67
     1
  8
0
100
AcDbBlockEnd
  0
BLOCK
  5
24
330
23
100
AcDbEntity
  8
0
100
AcDbBlockBegin
  2
*Paper_Space0
 70
     0
 10
0.0
 20
0.0
 30
0.0
  3
*Paper_Space0
  1

  0
ENDBLK
  5
25
330
23
100
AcDbEntity
  8
0
100
AcDbBlockEnd
  0
ENDSEC
  0
SECTION
  2
ENTITIES
  0
LINE
  5
73
330
1F
100
AcDbEntity
  8
0
  6
Continuous
 62
     7
370
    15
100
AcDbLine
 10
145.5221153846
 20
10.0
 30
0.0
 11
145.2371794872
 21
10.0
 31
0.0
  0
LINE
  5
74
330
1F
100
AcDbEntity
  8
0
  6
Continuous
 62
     7
370
    15
100
AcDbLine
 10
145.2371794872
 20
10.0
 30
0.0
 11
145.2371794872
 21
13.2564102564
 31
0.0
  0
LINE
  5
75
330
1F
100
AcDbEntity
  8
0
  6
Continuous
 62
     7
370
    15
100
AcDbLine
 10
145.2371794872
 20
13.2564102564
 30
0.0
 11
145.5221153846
 21
13.2564102564
 31
0.0
  0
LINE
  5
76
330
1F
100
AcDbEntity
  8
0
  6
Continuous
 62
     7
370
    15
100
AcDbLine
 10
145.5221153846
 20
13.2564102564
 30
0.0
 11
145.5221153846
 21
10.0
 31
0.0
  0
LINE
  5
77
330
1F
100
AcDbEntity
  8
0
  6
Continuous
 62
     7
370
    15
100
AcDbLine
 10
144.6266025641
 20
10.0
 30
0.0
 11
144.3416666667
 21
10.0
 31
0.0
  0
LINE
  5
78
330
1F
100
AcDbEntity
  8
0
  6
Continuous
 62
     7
370
    15
100
AcDbLine
 10
144.3416666667
 20
10.0
 30
0.0
 11
144.3416666667
 21
13.2564102564
 31
0.0
  0
LINE
  5
79
330
1F
100
AcDbEntity
  8
0
  6
Continuous
 62
     7
370
    15
100
AcDbLine
 10
144.3416666667
 20
13.2564102564
 30
0.0
 11
144.6266025641
 21
13.2564102564
 31
0.0
  0
LINE
  5
7A
330
1F
100
AcDbEntity
  8
0
  6
Continuous
 62
     7
370
    15
100
AcDbLine
 10
144.6266025641
 20
13.2564102564
 30
0.0
 11
144.6266025641
 21
10.0
 31
0.0
  0
LINE
  5
7B
330
1F
100
AcDbEntity
  8
0
  6
Continuous
 62
     7
370
    15
100
AcDbLine
 10
143.4461538462
 20
11.8908804087
 30
0.0
 11
143.4461538462
 21
12.3201923077
 31
0.0
  0
LINE
  5
7C
330
1F
100
AcDbEntity
  8
0
  6
Continuous
 62
     7
370
    15
100
AcDbLine
 10
143.4461538462
 20
12.3201923077
 30
0.0
 11
143.7310897436
 21
12.3201923077
 31
0.0
  0
LINE
  5
7D
330
1F
100
AcDbEntity
  8
0
  6
Continuous
 62
     7
370
    15
100
AcDbLine
 10
143.7310897436
 20
12.3201923077
 30
0.0
 11
143.7310897436
 21
10.0
 31
0.0
  0
LINE
  5
7E
330
1F
100
AcDbEntity
  8
0
  6
Continuous
 62
     7
370
    15
100
AcDbLine
 10
143.7310897436
 20
10.0
 30
0.0
 11
143.4461538462
 21
10.0
 31
0.0
  0
LINE
  5
7F
330
1F
100
AcDbEntity
  8
0
  6
Continuous
 62
     7
370
    15
100
AcDbLine
 10
143.4461538462
 20
10.0
 30
0.0
 11
143.4461538462
 21
10.4013271234
 31
0.0
  0
SPLINE
  5
80
330
1F
100
AcDbEntity
  8
0
  6
Continuous
 62
     7
370
    15
100
AcDbSpline
210
0.0
220
0.0
230
1.0
 70
     8
 71
     3
 72
    15
 73
    11
 74
     0
 42
0.000000001
 43
0.00000001
 40
0.0
 40
0.0
 40
0.0
 40
0.0
 40
0.1342983790141795
 40
0.2620849753822926
 40
0.3862699121344926
 40
0.5071645966228006
 40
0.6273002357254971
 40
0.7481449416029825
 40
0.8723701771613424
 40
1.0
 40
1.0
 40
1.0
 40
1.0
 10
143.4461538461539
 20
10.40132712339743
 30
0.0
 10
143.4140239432287
 20
10.36500549173569
 30
0.0
 10
143.3513220336525
 20
10.29412337082112
 30
0.0
 10
143.2466004480642
 20
10.20152025720449
 30
0.0
 10
143.1355950295383
 20
10.12497706552173
 30
0.0
 10
143.0188445453697
 20
10.06315535627924
 30
0.0
 10
142.8964544246214
 20
10.01671684803034
 30
0.0
 10
142.7686959740208
 20
9.98370940368051
 30
0.0
 10
142.6355170785213
 20
9.962487853202827
 30
0.0
 10
142.5445738709619
 20
9.96036874765021
 30
0.0
 10
142.4984875801282
 20
9.959294871794869
 30
0.0
  0
SPLINE
  5
81
330
1F
100
AcDbEntity
  8
0
  6
Continuous
 62
     7
370
    15
100
AcDbSpline
210
0.0
220
0.0
230
1.0
 70
     8
 71
     3
 72
    23
 73
    19
 74
     0
 42
0.000000001
 43
0.00000001
 40
0.0
 40
0.0
 40
0.0
 40
0.0
 40
0.064619991340761
 40
0.1274334841444645
 40
0.1890041265579311
 40
0.2499300706860424
 40
0.3106684537406675
 40
0.3723289611368265
 40
0.4349391099970013
 40
0.4995755441940359
 40
0.564191207771924
 40
0.6267352169294726
 40
0.6881093335614029
 40
0.7492936065367486
 40
0.8103305278109466
 40
0.8719011702244153
 40
0.9350459146845301
 40
0.9999999999999999
 40
0.9999999999999999
 40
0.9999999999999999
 40
0.9999999999999999
 10
142.4984875801282
 20
9.959294871794869
 30
0.0
 10
142.4575137934373
 20
9.960407366639028
 30
0.0
 10
142.3767116718604
 20
9.962601255730357
 30
0.0
 10
142.2578495804558
 20
9.97962134544122
 30
0.0
 10
142.1434658970237
 20
10.00695412364511
 30
0.0
 10
142.0334525346805
 20
10.04496421625549
 30
0.0
 10
141.9285213741795
 20
10.09538396159871
 30
0.0
 10
141.8277740007697
 20
10.15574637946483
 30
0.0
 10
141.731732344438
 20
10.22762913246659
 30
0.0
 10
141.6418603055209
 20
10.30980541532955
 30
0.0
 10
141.559099848037
 20
10.39906372513183
 30
0.0
 10
141.486472836444
 20
10.49426432836857
 30
0.0
 10
141.4259182568615
 20
10.59499556118546
 30
0.0
 10
141.3752814693628
 20
10.69998206507025
 30
0.0
 10
141.33627764262
 20
10.81003202779039
 30
0.0
 10
141.3090872744004
 20
10.92476488727863
 30
0.0
 10
141.2920870120363
 20
11.04404498684691
 30
0.0
 10
141.2898940298435
 20
11.12527012565507
 30
0.0
 10
141.2887820512821
 20
11.1664563301282
 30
0.0
  0
SPLINE
  5
82
330
1F
100
AcDbEntity
  8
0
  6
Continuous
 62
     7
370
    15
100
AcDbSpline
210
0.0
220
0.0
230
1.0
 70
     8
 71
     3
 72
    23
 73
    19
 74
     0
 42
0.000000001
 43
0.00000001
 40
0.0
 40
0.0
 40
0.0
 40
0.0
 40
0.0637745323056313
 40
0.1260788099895048
 40
0.1869040927472074
 40
0.2475739349176176
 40
0.3080033561644466
 40
0.3691318984609758
 40
0.4320332277442041
 40
0.4967907944370878
 40
0.5616108232295584
 40
0.6249138657484559
 40
0.6867263492419243
 40
0.748078833257768
 40
0.8095822911398951
 40
0.8716307425688212
 40
0.9348858208285479
 40
1.0
 40
1.0
 40
1.0
 40
1.0
 10
141.2887820512821
 20
11.1664563301282
 30
0.0
 10
141.2899186753241
 20
11.20679126122333
 30
0.0
 10
141.2921657197389
 20
11.28653124409158
 30
0.0
 10
141.3089054263082
 20
11.40380549155018
 30
0.0
 10
141.3370549841634
 20
11.51676134235819
 30
0.0
 10
141.3765591031174
 20
11.62503514085403
 30
0.0
 10
141.4272157336911
 20
11.72875790063168
 30
0.0
 10
141.4888362126314
 20
11.82800298046667
 30
0.0
 10
141.5614249900369
 20
11.9230437910215
 30
0.0
 10
141.6451111021159
 20
12.01164554677854
 30
0.0
 10
141.7357662150492
 20
12.09348853258005
 30
0.0
 10
141.8327477066653
 20
12.16461673808857
 30
0.0
 10
141.9336431118635
 20
12.22604559380025
 30
0.0
 10
142.0400174142659
 20
12.27471696159244
 30
0.0
 10
142.1502961450615
 20
12.31409522071491
 30
0.0
 10
142.2654610565608
 20
12.3413394132061
 30
0.0
 10
142.385032988645
 20
12.35739341175953
 30
0.0
 10
142.4662136493037
 20
12.35971820495373
 30
0.0
 10
142.5073918269231
 20
12.36089743589744
 30
0.0
  0
SPLINE
  5
83
330
1F
100
AcDbEntity
  8
0
  6
Continuous
 62
     7
370
    15
100
AcDbSpline
210
0.0
220
0.0
230
1.0
 70
     8
 71
     3
 72
    15
 73
    11
 74
     0
 42
0.000000001
 43
0.00000001
 40
0.0
 40
0.0
 40
0.0
 40
0.0
 40
0.1298621417207363
 40
0.2546535308972849
 40
0.3760145541937065
 40
0.4952552518175962
 40
0.6147977192994417
 40
0.7381055541683285
 40
0.8651963000723482
 40
1.0
 40
1.0
 40
1.0
 40
1.0
 10
142.5073918269231
 20
12.36089743589744
 30
0.0
 10
142.554744556216
 20
12.35959318985589
 30
0.0
 10
142.6476010234839
 20
12.35703562492405
 30
0.0
 10
142.7834257176045
 20
12.33575157942755
 30
0.0
 10
142.9119174939885
 20
12.29979382707994
 30
0.0
 10
143.0340682276157
 20
12.2508829538729
 30
0.0
 10
143.1494392785731
 20
12.18588732106287
 30
0.0
 10
143.2569384143455
 20
12.10389978499144
 30
0.0
 10
143.3576906742032
 20
12.00543742252567
 30
0.0
 10
143.4160927959227
 20
11.92980851932859
 30
0.0
 10
143.4461538461539
 20
11.89088040865384
 30
0.0
  0
LINE
  5
84
330
1F
100
AcDbEntity
  8
0
  6
Continuous
 62
     7
370
    15
100
AcDbLine
 10
129.525
 20
10.0
 30
0.0
 11
129.2400641026
 21
10.0
 31
0.0
  0
LINE
  5
85
330
1F
100
AcDbEntity
  8
0
  6
Continuous
 62
     7
370
    15
100
AcDbLine
 10
129.2400641026
 20
10.0
 30
0.0
 11
129.2400641026
 21
12.3201923077
 31
0.0
  0
LINE
  5
86
330
1F
100
AcDbEntity
  8
0
  6
Continuous
 62
     7
370
    15
100
AcDbLine
 10
129.2400641026
 20
12.3201923077
 30
0.0
 11
129.525
 21
12.3201923077
 31
0.0
  0
LINE
  5
87
330
1F
100
AcDbEntity
  8
0
  6
Continuous
 62
     7
370
    15
100
AcDbLine
 10
129.525
 20
12.3201923077
 30
0.0
 11
129.525
 21
11.9016927083
 31
0.0
  0
SPLINE
  5
88
330
1F
100
AcDbEntity
  8
0
  6
Continuous
 62
     7
370
    15
100
AcDbSpline
210
0.0
220
0.0
230
1.0
 70
     8
 71
     3
 72
    15
 73
    11
 74
     0
 42
0.000000001
 43
0.00000001
 40
0.0
 40
0.0
 40
0.0
 40
0.0
 40
0.1409759662687777
 40
0.2735687809631717
 40
0.3989883138042586
 40
0.519929781392423
 40
0.6381100215247323
 40
0.756588900740586
 40
0.8768597544106108
 40
1.0
 40
1.0
 40
1.0
 40
1.0
 10
129.525
 20
11.90169270833333
 30
0.0
 10
129.5554234261556
 20
11.93965003547889
 30
0.0
 10
129.6144611460335
 20
12.0133075530733
 30
0.0
 10
129.7127812197905
 20
12.11011835999567
 30
0.0
 10
129.8166889007974
 20
12.18989724271485
 30
0.0
 10
129.9255478611036
 20
12.25349139865007
 30
0.0
 10
130.0395058774086
 20
12.30143083808493
 30
0.0
 10
130.157868308018
 20
12.3360527898555
 30
0.0
 10
130.2813437913976
 20
12.35681259860215
 30
0.0
 10
130.3653129591329
 20
12.35952516465958
 30
0.0
 10
130.4077924679488
 20
12.36089743589744
 30
0.0
  0
SPLINE
  5
89
330
1F
100
AcDbEntity
  8
0
  6
Continuous
 62
     7
370
    15
100
AcDbSpline
210
0.0
220
0.0
230
1.0
 70
     8
 71
     3
 72
    23
 73
    19
 74
     0
 42
0.000000001
 43
0.00000001
 40
0.0
 40
0.0
 40
0.0
 40
0.0
 40
0.0772404236164749
 40
0.1511781404663758
 40
0.2234879838003895
 40
0.2955426441988722
 40
0.3669762546197815
 40
0.4371305254863776
 40
0.507043615643269
 40
0.578559733523674
 40
0.6166135446965499
 40
0.6587562369775265
 40
0.7044912261144016
 40
0.7548031149051481
 40
0.8093316253185634
 40
0.8682744554728195
 40
0.9320728834092927
 40
0.9999999999999999
 40
0.9999999999999999
 40
0.9999999999999999
 40
0.9999999999999999
 10
130.4077924679487
 20
12.36089743589744
 30
0.0
 10
130.4507281146116
 20
12.35931429431864
 30
0.0
 10
130.5347635317974
 20
12.35621570437348
 30
0.0
 10
130.6571172017653
 20
12.33170770600846
 30
0.0
 10
130.7713930660383
 20
12.28984736743109
 30
0.0
 10
130.8771836630747
 20
12.23250498927977
 30
0.0
 10
130.9725490637679
 20
12.1611976884063
 30
0.0
 10
131.0563008933213
 20
12.0781235578105
 30
0.0
 10
131.1255732677281
 20
11.98256868230393
 30
0.0
 10
131.1720165898778
 20
11.89391981914642
 30
0.0
 10
131.2026105702833
 20
11.81528069862753
 30
0.0
 10
131.2218713335994
 20
11.7479282896093
 30
0.0
 10
131.2382280096375
 20
11.6728911096202
 30
0.0
 10
131.2524082381964
 20
11.59039591097801
 30
0.0
 10
131.2620031896762
 20
11.49986469553479
 30
0.0
 10
131.269570839851
 20
11.40166857488678
 30
0.0
 10
131.2749943696696
 20
11.29583935650865
 30
0.0
 10
131.2752095502934
 20
11.22264505878683
 30
0.0
 10
131.2753205128205
 20
11.18490084134615
 30
0.0
  0
LINE
  5
8A
330
1F
100
AcDbEntity
  8
0
  6
Continuous
 62
     7
370
    15
100
AcDbLine
 10
131.2753205128
 20
11.1849008413
 30
0.0
 11
131.2753205128
 21
10.0
 31
0.0
  0
LINE
  5
8B
330
1F
100
AcDbEntity
  8
0
  6
Continuous
 62
     7
370
    15
100
AcDbLine
 10
131.2753205128
 20
10.0
 30
0.0
 11
130.9903846154
 21
10.0
 31
0.0
  0
LINE
  5
8C
330
1F
100
AcDbEntity
  8
0
  6
Continuous
 62
     7
370
    15
100
AcDbLine
 10
130.9903846154
 20
10.0
 30
0.0
 11
130.9903846154
 21
11.09140625
 31
0.0
  0
SPLINE
  5
8D
330
1F
100
AcDbEntity
  8
0
  6
Continuous
 62
     7
370
    15
100
AcDbSpline
210
0.0
220
0.0
230
1.0
 70
     8
 71
     3
 72
    15
 73
    11
 74
     0
 42
0.000000001
 43
0.00000001
 40
0.0
 40
0.0
 40
0.0
 40
0.0
 40
0.1788500194111603
 40
0.3421096489422994
 40
0.4898256633683922
 40
0.6232544282245632
 40
0.7400796760857936
 40
0.8414826730699849
 40
0.9289076721840666
 40
0.9999999999999999
 40
0.9999999999999999
 40
0.9999999999999999
 40
0.9999999999999999
 10
130.9903846153846
 20
11.09140625
 30
0.0
 10
130.9902093481103
 20
11.12299518218537
 30
0.0
 10
130.9898740916429
 20
11.18341943338747
 30
0.0
 10
130.9888166835791
 20
11.26993276156728
 30
0.0
 10
130.9862677875893
 20
11.34838844340409
 30
0.0
 10
130.9826861037297
 20
11.41859891240758
 30
0.0
 10
130.9774436974639
 20
11.48049674986147
 30
0.0
 10
130.9719803104536
 20
11.5342080223314
 30
0.0
 10
130.9652992243591
 20
11.57966453582402
 30
0.0
 10
130.9593457245847
 20
11.607028574843
 30
0.0
 10
130.9566756810897
 20
11.61930088141025
 30
0.0
  0
SPLINE
  5
8E
330
1F
100
AcDbEntity
  8
0
  6
Continuous
 62
     7
370
    15
100
AcDbSpline
210
0.0
220
0.0
230
1.0
 70
     8
 71
     3
 72
    15
 73
    11
 74
     0
 42
0.000000001
 43
0.00000001
 40
0.0
 40
0.0
 40
0.0
 40
0.0
 40
0.135519528370603
 40
0.2608331631936749
 40
0.3784760291245074
 40
0.4931776464746732
 40
0.6092809649289375
 40
0.7299810378566298
 40
0.8592613089300505
 40
0.9999999999999999
 40
0.9999999999999999
 40
0.9999999999999999
 40
0.9999999999999999
 10
130.9566756810897
 20
11.61930088141025
 30
0.0
 10
130.9470368060804
 20
11.65532459918419
 30
0.0
 10
130.928484953897
 20
11.72465911037934
 30
0.0
 10
130.882643412062
 20
11.8187065588288
 30
0.0
 10
130.8247548337763
 20
11.89871491493108
 30
0.0
 10
130.7540903561379
 20
11.96418951240465
 30
0.0
 10
130.6713325518071
 20
12.01514448570133
 30
0.0
 10
130.5767110722962
 20
12.05049943034659
 30
0.0
 10
130.4711390196863
 20
12.07261218883418
 30
0.0
 10
130.3968854011182
 20
12.07481394430522
 30
0.0
 10
130.3581830929487
 20
12.07596153846154
 30
0.0
  0
SPLINE
  5
8F
330
1F
100
AcDbEntity
  8
0
  6
Continuous
 62
     7
370
    15
100
AcDbSpline
210
0.0
220
0.0
230
1.0
 70
     8
 71
     3
 72
    23
 73
    19
 74
     0
 42
0.000000001
 43
0.00000001
 40
0.0
 40
0.0
 40
0.0
 40
0.0
 40
0.0639861098164609
 40
0.1266268580894719
 40
0.1889843719814866
 40
0.2502301939603868
 40
0.3123511629623271
 40
0.3745736184579433
 40
0.4381475308782134
 40
0.5029204126073691
 40
0.5679740951402692
 40
0.630771333749198
 40
0.692934608925454
 40
0.7543975343123352
 40
0.8152183520172954
 40
0.876116925481092
 40
0.9380146047939499
 40
1.0
 40
1.0
 40
1.0
 40
1.0
 10
130.3581830929487
 20
12.07596153846154
 30
0.0
 10
130.33526169425
 20
12.07552973423104
 30
0.0
 10
130.2899008384556
 20
12.0746752048156
 30
0.0
 10
130.2226362210836
 20
12.06610152732332
 30
0.0
 10
130.1573907211292
 20
12.05207849974481
 30
0.0
 10
130.0935095315411
 20
12.03314766429915
 30
0.0
 10
130.032270318653
 20
12.00714689150429
 30
0.0
 10
129.9717055687966
 20
11.97763810565741
 30
0.0
 10
129.914095861336
 20
11.94085508478501
 30
0.0
 10
129.8582127796552
 20
11.89986073533607
 30
0.0
 10
129.8062218755697
 20
11.85443174023539
 30
0.0
 10
129.7578454542972
 20
11.80649422031101
 30
0.0
 10
129.7147216787838
 20
11.75544420829596
 30
0.0
 10
129.6756522376335
 20
11.70210425589461
 30
0.0
 10
129.6419262415696
 20
11.64574180285437
 30
0.0
 10
129.6124866545417
 20
11.58690061054861
 30
0.0
 10
129.5875078456949
 20
11.52550323268695
 30
0.0
 10
129.5750956889544
 20
11.48289014142763
 30
0.0
 10
129.5688852163462
 20
11.46156850961538
 30
0.0
  0
SPLINE
  5
90
330
1F
100
AcDbEntity
  8
0
  6
Continuous
 62
     7
370
    15
100
AcDbSpline
210
0.0
220
0.0
230
1.0
 70
     8
 71
     3
 72
    15
 73
    11
 74
     0
 42
0.000000001
 43
0.00000001
 40
0.0
 40
0.0
 40
0.0
 40
0.0
 40
0.0769954547170536
 40
0.1676150771831741
 40
0.2710523936342373
 40
0.389459502572076
 40
0.5208428024655759
 40
0.6663987586080753
 40
0.8260936125153179
 40
1.0
 40
1.0
 40
1.0
 40
1.0
 10
129.5688852163462
 20
11.46156850961538
 30
0.0
 10
129.565311392281
 20
11.44591557541649
 30
0.0
 10
129.5575313642429
 20
11.41183995649157
 30
0.0
 10
129.5491283367995
 20
11.35591966176413
 30
0.0
 10
129.5415014648279
 20
11.29123132730695
 30
0.0
 10
129.5351179380812
 20
11.21785043969202
 30
0.0
 10
129.5312123102828
 20
11.13552008154967
 30
0.0
 10
129.526953821781
 20
11.04459185725606
 30
0.0
 10
129.5254034592422
 20
10.94470319281875
 30
0.0
 10
129.5251382523835
 20
10.875160085847
 30
0.0
 10
129.525
 20
10.83890725160256
 30
0.0
  0
LINE
  5
91
330
1F
100
AcDbEntity
  8
0
  6
Continuous
 62
     7
370
    15
100
AcDbLine
 10
129.525
 20
10.8389072516
 30
0.0
 11
129.525
 21
10.0
 31
0.0
  0
LINE
  5
92
330
1F
100
AcDbEntity
  8
0
  6
Continuous
 62
     7
370
    15
100
AcDbLine
 10
126.8384615385
 20
10.0
 30
0.0
 11
126.553525641
 21
10.0
 31
0.0
  0
LINE
  5
93
330
1F
100
AcDbEntity
  8
0
  6
Continuous
 62
     7
370
    15
100
AcDbLine
 10
126.553525641
 20
10.0
 30
0.0
 11
126.553525641
 21
12.3201923077
 31
0.0
  0
LINE
  5
94
330
1F
100
AcDbEntity
  8
0
  6
Continuous
 62
     7
370
    15
100
AcDbLine
 10
126.553525641
 20
12.3201923077
 30
0.0
 11
126.8384615385
 21
12.3201923077
 31
0.0
  0
LINE
  5
95
330
1F
100
AcDbEntity
  8
0
  6
Continuous
 62
     7
370
    15
100
AcDbLine
 10
126.8384615385
 20
12.3201923077
 30
0.0
 11
126.8384615385
 21
11.9016927083
 31
0.0
  0
SPLINE
  5
96
330
1F
100
AcDbEntity
  8
0
  6
Continuous
 62
     7
370
    15
100
AcDbSpline
210
0.0
220
0.0
230
1.0
 70
     8
 71
     3
 72
    15
 73
    11
 74
     0
 42
0.000000001
 43
0.00000001
 40
0.0
 40
0.0
 40
0.0
 40
0.0
 40
0.1409759662687777
 40
0.2735687809631717
 40
0.3989883138042586
 40
0.519929781392423
 40
0.6381100215247323
 40
0.756588900740586
 40
0.8768597544106108
 40
1.0
 40
1.0
 40
1.0
 40
1.0
 10
126.8384615384616
 20
11.90169270833333
 30
0.0
 10
126.8688849646172
 20
11.93965003547889
 30
0.0
 10
126.9279226844952
 20
12.0133075530733
 30
0.0
 10
127.0262427582521
 20
12.11011835999567
 30
0.0
 10
127.130150439259
 20
12.18989724271485
 30
0.0
 10
127.2390093995652
 20
12.25349139865007
 30
0.0
 10
127.3529674158701
 20
12.30143083808493
 30
0.0
 10
127.4713298464795
 20
12.3360527898555
 30
0.0
 10
127.5948053298592
 20
12.35681259860215
 30
0.0
 10
127.6787744975945
 20
12.35952516465958
 30
0.0
 10
127.7212540064103
 20
12.36089743589744
 30
0.0
  0
SPLINE
  5
97
330
1F
100
AcDbEntity
  8
0
  6
Continuous
 62
     7
370
    15
100
AcDbSpline
210
0.0
220
0.0
230
1.0
 70
     8
 71
     3
 72
    23
 73
    19
 74
     0
 42
0.000000001
 43
0.00000001
 40
0.0
 40
0.0
 40
0.0
 40
0.0
 40
0.0772404236164749
 40
0.1511781404663758
 40
0.2234879838003895
 40
0.2955426441988722
 40
0.3669762546197815
 40
0.4371305254863776
 40
0.507043615643269
 40
0.578559733523674
 40
0.6166135446965499
 40
0.6587562369775265
 40
0.7044912261144016
 40
0.7548031149051481
 40
0.8093316253185634
 40
0.8682744554728195
 40
0.9320728834092927
 40
0.9999999999999999
 40
0.9999999999999999
 40
0.9999999999999999
 40
0.9999999999999999
 10
127.7212540064103
 20
12.36089743589744
 30
0.0
 10
127.7641896530731
 20
12.35931429431864
 30
0.0
 10
127.8482250702589
 20
12.35621570437348
 30
0.0
 10
127.9705787402269
 20
12.33170770600846
 30
0.0
 10
128.0848546044999
 20
12.28984736743109
 30
0.0
 10
128.1906452015363
 20
12.23250498927977
 30
0.0
 10
128.2860106022295
 20
12.1611976884063
 30
0.0
 10
128.3697624317829
 20
12.0781235578105
 30
0.0
 10
128.4390348061897
 20
11.98256868230393
 30
0.0
 10
128.4854781283394
 20
11.89391981914642
 30
0.0
 10
128.5160721087448
 20
11.81528069862753
 30
0.0
 10
128.535332872061
 20
11.7479282896093
 30
0.0
 10
128.5516895480991
 20
11.6728911096202
 30
0.0
 10
128.565869776658
 20
11.59039591097801
 30
0.0
 10
128.5754647281377
 20
11.49986469553479
 30
0.0
 10
128.5830323783125
 20
11.40166857488678
 30
0.0
 10
128.5884559081312
 20
11.29583935650865
 30
0.0
 10
128.5886710887549
 20
11.22264505878683
 30
0.0
 10
128.5887820512821
 20
11.18490084134615
 30
0.0
  0
LINE
  5
98
330
1F
100
AcDbEntity
  8
0
  6
Continuous
 62
     7
370
    15
100
AcDbLine
 10
128.5887820513
 20
11.1849008413
 30
0.0
 11
128.5887820513
 21
10.0
 31
0.0
  0
LINE
  5
99
330
1F
100
AcDbEntity
  8
0
  6
Continuous
 62
     7
370
    15
100
AcDbLine
 10
128.5887820513
 20
10.0
 30
0.0
 11
128.3038461538
 21
10.0
 31
0.0
  0
LINE
  5
9A
330
1F
100
AcDbEntity
  8
0
  6
Continuous
 62
     7
370
    15
100
AcDbLine
 10
128.3038461538
 20
10.0
 30
0.0
 11
128.3038461538
 21
11.09140625
 31
0.0
  0
SPLINE
  5
9B
330
1F
100
AcDbEntity
  8
0
  6
Continuous
 62
     7
370
    15
100
AcDbSpline
210
0.0
220
0.0
230
1.0
 70
     8
 71
     3
 72
    15
 73
    11
 74
     0
 42
0.000000001
 43
0.00000001
 40
0.0
 40
0.0
 40
0.0
 40
0.0
 40
0.1788500194111603
 40
0.3421096489422994
 40
0.4898256633683922
 40
0.6232544282245632
 40
0.7400796760857936
 40
0.8414826730699849
 40
0.9289076721840666
 40
0.9999999999999999
 40
0.9999999999999999
 40
0.9999999999999999
 40
0.9999999999999999
 10
128.3038461538462
 20
11.09140625
 30
0.0
 10
128.3036708865718
 20
11.12299518218537
 30
0.0
 10
128.3033356301045
 20
11.18341943338747
 30
0.0
 10
128.3022782220407
 20
11.26993276156728
 30
0.0
 10
128.2997293260509
 20
11.34838844340409
 30
0.0
 10
128.2961476421913
 20
11.41859891240758
 30
0.0
 10
128.2909052359255
 20
11.48049674986147
 30
0.0
 10
128.2854418489151
 20
11.5342080223314
 30
0.0
 10
128.2787607628207
 20
11.57966453582402
 30
0.0
 10
128.2728072630463
 20
11.607028574843
 30
0.0
 10
128.2701372195513
 20
11.61930088141025
 30
0.0
  0
SPLINE
  5
9C
330
1F
100
AcDbEntity
  8
0
  6
Continuous
 62
     7
370
    15
100
AcDbSpline
210
0.0
220
0.0
230
1.0
 70
     8
 71
     3
 72
    15
 73
    11
 74
     0
 42
0.000000001
 43
0.00000001
 40
0.0
 40
0.0
 40
0.0
 40
0.0
 40
0.135519528370603
 40
0.2608331631936749
 40
0.3784760291245074
 40
0.4931776464746732
 40
0.6092809649289375
 40
0.7299810378566298
 40
0.8592613089300505
 40
0.9999999999999999
 40
0.9999999999999999
 40
0.9999999999999999
 40
0.9999999999999999
 10
128.2701372195513
 20
11.61930088141025
 30
0.0
 10
128.260498344542
 20
11.65532459918419
 30
0.0
 10
128.2419464923586
 20
11.72465911037934
 30
0.0
 10
128.1961049505236
 20
11.8187065588288
 30
0.0
 10
128.1382163722379
 20
11.89871491493108
 30
0.0
 10
128.0675518945995
 20
11.96418951240465
 30
0.0
 10
127.9847940902686
 20
12.01514448570133
 30
0.0
 10
127.8901726107578
 20
12.05049943034659
 30
0.0
 10
127.7846005581479
 20
12.07261218883418
 30
0.0
 10
127.7103469395798
 20
12.07481394430522
 30
0.0
 10
127.6716446314103
 20
12.07596153846154
 30
0.0
  0
SPLINE
  5
9D
330
1F
100
AcDbEntity
  8
0
  6
Continuous
 62
     7
370
    15
100
AcDbSpline
210
0.0
220
0.0
230
1.0
 70
     8
 71
     3
 72
    23
 73
    19
 74
     0
 42
0.000000001
 43
0.00000001
 40
0.0
 40
0.0
 40
0.0
 40
0.0
 40
0.0639861098164609
 40
0.1266268580894719
 40
0.1889843719814866
 40
0.2502301939603868
 40
0.3123511629623271
 40
0.3745736184579433
 40
0.4381475308782134
 40
0.5029204126073691
 40
0.5679740951402692
 40
0.630771333749198
 40
0.692934608925454
 40
0.7543975343123352
 40
0.8152183520172954
 40
0.876116925481092
 40
0.9380146047939499
 40
1.0
 40
1.0
 40
1.0
 40
1.0
 10
127.6716446314103
 20
12.07596153846154
 30
0.0
 10
127.6487232327116
 20
12.07552973423104
 30
0.0
 10
127.6033623769171
 20
12.0746752048156
 30
0.0
 10
127.5360977595452
 20
12.06610152732332
 30
0.0
 10
127.4708522595908
 20
12.05207849974481
 30
0.0
 10
127.4069710700027
 20
12.03314766429915
 30
0.0
 10
127.3457318571145
 20
12.00714689150429
 30
0.0
 10
127.2851671072582
 20
11.97763810565741
 30
0.0
 10
127.2275573997975
 20
11.94085508478501
 30
0.0
 10
127.1716743181167
 20
11.89986073533607
 30
0.0
 10
127.1196834140313
 20
11.85443174023539
 30
0.0
 10
127.0713069927588
 20
11.80649422031101
 30
0.0
 10
127.0281832172454
 20
11.75544420829596
 30
0.0
 10
126.9891137760951
 20
11.70210425589461
 30
0.0
 10
126.9553877800312
 20
11.64574180285437
 30
0.0
 10
126.9259481930032
 20
11.58690061054861
 30
0.0
 10
126.9009693841564
 20
11.52550323268695
 30
0.0
 10
126.8885572274159
 20
11.48289014142763
 30
0.0
 10
126.8823467548077
 20
11.46156850961538
 30
0.0
  0
SPLINE
  5
9E
330
1F
100
AcDbEntity
  8
0
  6
Continuous
 62
     7
370
    15
100
AcDbSpline
210
0.0
220
0.0
230
1.0
 70
     8
 71
     3
 72
    15
 73
    11
 74
     0
 42
0.000000001
 43
0.00000001
 40
0.0
 40
0.0
 40
0.0
 40
0.0
 40
0.0769954547170536
 40
0.1676150771831741
 40
0.2710523936342373
 40
0.389459502572076
 40
0.5208428024655759
 40
0.6663987586080753
 40
0.8260936125153179
 40
1.0
 40
1.0
 40
1.0
 40
1.0
 10
126.8823467548078
 20
11.46156850961538
 30
0.0
 10
126.8787729307427
 20
11.44591557541649
 30
0.0
 10
126.8709929027045
 20
11.41183995649157
 30
0.0
 10
126.862589875261
 20
11.35591966176413
 30
0.0
 10
126.8549630032895
 20
11.29123132730695
 30
0.0
 10
126.8485794765427
 20
11.21785043969202
 30
0.0
 10
126.8446738487444
 20
11.13552008154967
 30
0.0
 10
126.8404153602426
 20
11.04459185725606
 30
0.0
 10
126.8388649977038
 20
10.94470319281875
 30
0.0
 10
126.838599790845
 20
10.875160085847
 30
0.0
 10
126.8384615384616
 20
10.83890725160256
 30
0.0
  0
LINE
  5
9F
330
1F
100
AcDbEntity
  8
0
  6
Continuous
 62
     7
370
    15
100
AcDbLine
 10
126.8384615385
 20
10.8389072516
 30
0.0
 11
126.8384615385
 21
10.0
 31
0.0
  0
LINE
  5
A0
330
1F
100
AcDbEntity
  8
0
  6
Continuous
 62
     7
370
    15
100
AcDbLine
 10
125.8208333333
 20
10.0
 30
0.0
 11
125.5358974359
 21
10.0
 31
0.0
  0
LINE
  5
A1
330
1F
100
AcDbEntity
  8
0
  6
Continuous
 62
     7
370
    15
100
AcDbLine
 10
125.5358974359
 20
10.0
 30
0.0
 11
125.5358974359
 21
13.175
 31
0.0
  0
LINE
  5
A2
330
1F
100
AcDbEntity
  8
0
  6
Continuous
 62
     7
370
    15
100
AcDbLine
 10
125.5358974359
 20
13.175
 30
0.0
 11
125.8208333333
 21
13.175
 31
0.0
  0
LINE
  5
A3
330
1F
100
AcDbEntity
  8
0
  6
Continuous
 62
     7
370
    15
100
AcDbLine
 10
125.8208333333
 20
13.175
 30
0.0
 11
125.8208333333
 21
10.0
 31
0.0
  0
SPLINE
  5
A4
330
1F
100
AcDbEntity
  8
0
  6
Continuous
 62
     7
370
    15
100
AcDbSpline
210
0.0
220
0.0
230
1.0
 70
     8
 71
     3
 72
    15
 73
    11
 74
     0
 42
0.000000001
 43
0.00000001
 40
0.0
 40
0.0
 40
0.0
 40
0.0
 40
0.1209110787487095
 40
0.238762228638721
 40
0.3547548590848595
 40
0.4703593994502191
 40
0.5891440987928738
 40
0.7163289048363425
 40
0.8524452858576034
 40
1.0
 40
1.0
 40
1.0
 40
1.0
 10
122.3787059294872
 20
12.36089743589744
 30
0.0
 10
122.4213878527043
 20
12.35966673942007
 30
0.0
 10
122.5056715363449
 20
12.35723649202872
 30
0.0
 10
122.6297060885478
 20
12.33816731014538
 30
0.0
 10
122.7493965490984
 20
12.30776531231924
 30
0.0
 10
122.8654183204625
 20
12.26420827607073
 30
0.0
 10
122.9787165181565
 20
12.20474502700966
 30
0.0
 10
123.0889177340448
 20
12.12641963845747
 30
0.0
 10
123.1963408057607
 20
12.02852954455777
 30
0.0
 10
123.2626328377575
 20
11.95346087473894
 30
0.0
 10
123.2971153846154
 20
11.91441306089743
 30
0.0
  0
LINE
  5
A5
330
1F
100
AcDbEntity
  8
0
  6
Continuous
 62
     7
370
    15
100
AcDbLine
 10
123.2971153846
 20
11.9144130609
 30
0.0
 11
123.2971153846
 21
12.3201923077
 31
0.0
  0
LINE
  5
A6
330
1F
100
AcDbEntity
  8
0
  6
Continuous
 62
     7
370
    15
100
AcDbLine
 10
123.2971153846
 20
12.3201923077
 30
0.0
 11
123.5820512821
 21
12.3201923077
 31
0.0
  0
LINE
  5
A7
330
1F
100
AcDbEntity
  8
0
  6
Continuous
 62
     7
370
    15
100
AcDbLine
 10
123.5820512821
 20
12.3201923077
 30
0.0
 11
123.5820512821
 21
10.478921274
 31
0.0
  0
SPLINE
  5
A8
330
1F
100
AcDbEntity
  8
0
  6
Continuous
 62
     7
370
    15
100
AcDbSpline
210
0.0
220
0.0
230
1.0
 70
     8
 71
     3
 72
    15
 73
    11
 74
     0
 42
0.000000001
 43
0.00000001
 40
0.0
 40
0.0
 40
0.0
 40
0.0
 40
0.1634452548497621
 40
0.3154887127129218
 40
0.4562908239366668
 40
0.5858641495747764
 40
0.7054286858067537
 40
0.8133707129824376
 40
0.9117182381600979
 40
0.9999999999999999
 40
0.9999999999999999
 40
0.9999999999999999
 40
0.9999999999999999
 10
123.5820512820513
 20
10.47892127403846
 30
0.0
 10
123.5817999648619
 20
10.43969859893084
 30
0.0
 10
123.5813148621491
 20
10.36398938797679
 30
0.0
 10
123.5778214810824
 20
10.25451694861365
 30
0.0
 10
123.5704548667467
 20
10.15340128530972
 30
0.0
 10
123.5621012772332
 20
10.06018123644664
 30
0.0
 10
123.5500846131433
 20
9.97528889374937
 30
0.0
 10
123.5354103371485
 20
9.898470943795118
 30
0.0
 10
123.5188679710605
 20
9.829653669361633
 30
0.0
 10
123.5043353452269
 20
9.787267563572378
 30
0.0
 10
123.4974609375
 20
9.767217548076923
 30
0.0
  0
SPLINE
  5
A9
330
1F
100
AcDbEntity
  8
0
  6
Continuous
 62
     7
370
    15
100
AcDbSpline
210
0.0
220
0.0
230
1.0
 70
     8
 71
     3
 72
    23
 73
    19
 74
     0
 42
0.000000001
 43
0.00000001
 40
0.0
 40
0.0
 40
0.0
 40
0.0
 40
0.0613707062984579
 40
0.1209064680177769
 40
0.1794236650000254
 40
0.2376066874397806
 40
0.2959384682493747
 40
0.3542182268208548
 40
0.4135370665946743
 40
0.4740867825531884
 40
0.5351211890802731
 40
0.5969876649622229
 40
0.6600198335468078
 40
0.7242774964844981
 40
0.7900118502255359
 40
0.8577476843344485
 40
0.9278290322155529
 40
1.0
 40
1.0
 40
1.0
 40
1.0
 10
123.4974609375
 20
9.767217548076923
 30
0.0
 10
123.4873106995033
 20
9.74115540491902
 30
0.0
 10
123.4673137090865
 20
9.689810359892629
 30
0.0
 10
123.4298617415916
 20
9.617026368886952
 30
0.0
 10
123.387920986166
 20
9.548495000954993
 30
0.0
 10
123.3400177195182
 20
9.484598170128644
 30
0.0
 10
123.2863685615752
 20
9.425656642485574
 30
0.0
 10
123.2282374936921
 20
9.370389871710385
 30
0.0
 10
123.164492391474
 20
9.31996709129663
 30
0.0
 10
123.0951697025443
 20
9.275258285746519
 30
0.0
 10
123.0218674495692
 20
9.234992886621612
 30
0.0
 10
122.9446277712659
 20
9.200116357819338
 30
0.0
 10
122.8638862164645
 20
9.169739006818768
 30
0.0
 10
122.778884307657
 20
9.146985327835365
 30
0.0
 10
122.6909547378181
 20
9.127268831321077
 30
0.0
 10
122.5990634967665
 20
9.114437580636228
 30
0.0
 10
122.5037474596647
 20
9.10570446362103
 30
0.0
 10
122.4389362934489
 20
9.104896895132773
 30
0.0
 10
122.4060546875
 20
9.10448717948718
 30
0.0
  0
SPLINE
  5
AA
330
1F
100
AcDbEntity
  8
0
  6
Continuous
 62
     7
370
    15
100
AcDbSpline
210
0.0
220
0.0
230
1.0
 70
     8
 71
     3
 72
    19
 73
    15
 74
     0
 42
0.000000001
 43
0.00000001
 40
0.0
 40
0.0
 40
0.0
 40
0.0
 40
0.0964914237691222
 40
0.1884736749923072
 40
0.2768399149588152
 40
0.36213656217143
 40
0.4434367545654616
 40
0.5201655209986256
 40
0.592709663569004
 40
0.6629173343528173
 40
0.7354188002027071
 40
0.8148809699994166
 40
0.9030605557399859
 40
1.0
 40
1.0
 40
1.0
 40
1.0
 10
122.4060546875
 20
9.104487179487178
 30
0.0
 10
122.3580806782541
 20
9.105264134472561
 30
0.0
 10
122.2643745490097
 20
9.106781736303677
 30
0.0
 10
122.1277543056458
 20
9.12446278070801
 30
0.0
 10
121.9980013811414
 20
9.14945853342456
 30
0.0
 10
121.8768302668493
 20
9.18729131420533
 30
0.0
 10
121.7650066789737
 20
9.23358915488989
 30
0.0
 10
121.6632943061714
 20
9.286743147927153
 30
0.0
 10
121.572606230066
 20
9.347693449482694
 30
0.0
 10
121.4908511838418
 20
9.417090423171219
 30
0.0
 10
121.4170627413611
 20
9.49960747722797
 30
0.0
 10
121.3476415568788
 20
9.59685214296972
 30
0.0
 10
121.280820559622
 20
9.71030567812829
 30
0.0
 10
121.2416604381277
 20
9.793574782258581
 30
0.0
 10
121.2211538461539
 20
9.837179487179485
 30
0.0
  0
LINE
  5
AB
330
1F
100
AcDbEntity
  8
0
  6
Continuous
 62
     7
370
    15
100
AcDbLine
 10
121.2211538462
 20
9.8371794872
 30
0.0
 11
121.5060897436
 21
9.8371794872
 31
0.0
  0
SPLINE
  5
AC
330
1F
100
AcDbEntity
  8
0
  6
Continuous
 62
     7
370
    15
100
AcDbSpline
210
0.0
220
0.0
230
1.0
 70
     8
 71
     3
 72
    15
 73
    11
 74
     0
 42
0.000000001
 43
0.00000001
 40
0.0
 40
0.0
 40
0.0
 40
0.0
 40
0.1247164867023033
 40
0.2438053739155052
 40
0.360061534064442
 40
0.4751119996584022
 40
0.5935250978119095
 40
0.7193501703843527
 40
0.8538547713042595
 40
0.9999999999999999
 40
0.9999999999999999
 40
0.9999999999999999
 40
0.9999999999999999
 10
121.5060897435897
 20
9.837179487179485
 30
0.0
 10
121.5290061763168
 20
9.800797728443088
 30
0.0
 10
121.5738049803688
 20
9.729675870163003
 30
0.0
 10
121.6575782452459
 20
9.637588935850701
 30
0.0
 10
121.7493868412896
 20
9.558891240741385
 30
0.0
 10
121.8523291253212
 20
9.495472181411243
 30
0.0
 10
121.9668334278699
 20
9.44765687063969
 30
0.0
 10
122.092968636038
 20
9.413570708872763
 30
0.0
 10
122.2317611500404
 20
9.393163381081646
 30
0.0
 10
122.3283883871921
 20
9.39070384996859
 30
0.0
 10
122.3787059294872
 20
9.389423076923075
 30
0.0
  0
SPLINE
  5
AD
330
1F
100
AcDbEntity
  8
0
  6
Continuous
 62
     7
370
    15
100
AcDbSpline
210
0.0
220
0.0
230
1.0
 70
     8
 71
     3
 72
    23
 73
    19
 74
     0
 42
0.000000001
 43
0.00000001
 40
0.0
 40
0.0
 40
0.0
 40
0.0
 40
0.0981712978276953
 40
0.1892644356875805
 40
0.2744630560180384
 40
0.3550231712817347
 40
0.4309204620429336
 40
0.5010860453857492
 40
0.5666076270375985
 40
0.6297208634282984
 40
0.6627106951128596
 40
0.6987655616316139
 40
0.7386105373889628
 40
0.7825812280784427
 40
0.8304087872491269
 40
0.8825778660702768
 40
0.9392286810451788
 40
0.9999999999999999
 40
0.9999999999999999
 40
0.9999999999999999
 40
0.9999999999999999
 10
122.3787059294872
 20
9.389423076923077
 30
0.0
 10
122.4283873228706
 20
9.390720426187167
 30
0.0
 10
122.5241680764202
 20
9.393221585709254
 30
0.0
 10
122.6619006369114
 20
9.413579816494474
 30
0.0
 10
122.7876260450158
 20
9.447664288549742
 30
0.0
 10
122.9006199412989
 20
9.49538761035875
 30
0.0
 10
122.9995491027578
 20
9.553853336286588
 30
0.0
 10
123.0848314091373
 20
9.619167689501198
 30
0.0
 10
123.1539055082096
 20
9.69281045652156
 30
0.0
 10
123.2003629851171
 20
9.760648237761002
 30
0.0
 10
123.2292415310818
 20
9.82108584112893
 30
0.0
 10
123.2476313458621
 20
9.873112838890451
 30
0.0
 10
123.2625755895814
 20
9.93194366362708
 30
0.0
 10
123.2750758707744
 20
9.997381081486127
 30
0.0
 10
123.2853909136186
 20
10.06951858468277
 30
0.0
 10
123.291924956891
 20
10.1485211148871
 30
0.0
 10
123.2966473716744
 20
10.23420912370767
 30
0.0
 10
123.2969557728942
 20
10.29362075622643
 30
0.0
 10
123.2971153846154
 20
10.32436899038461
 30
0.0
  0
LINE
  5
AE
330
1F
100
AcDbEntity
  8
0
  6
Continuous
 62
     7
370
    15
100
AcDbLine
 10
123.2971153846
 20
10.3243689904
 30
0.0
 11
123.2971153846
 21
10.4445763221
 31
0.0
  0
SPLINE
  5
AF
330
1F
100
AcDbEntity
  8
0
  6
Continuous
 62
     7
370
    15
100
AcDbSpline
210
0.0
220
0.0
230
1.0
 70
     8
 71
     3
 72
    15
 73
    11
 74
     0
 42
0.000000001
 43
0.00000001
 40
0.0
 40
0.0
 40
0.0
 40
0.0
 40
0.1265607130145264
 40
0.2508952618879465
 40
0.3747192653150433
 40
0.4998264235934686
 40
0.6249635314328588
 40
0.7490394747387297
 40
0.8731801199413558
 40
1.0
 40
1.0
 40
1.0
 40
1.0
 10
123.2971153846154
 20
10.44457632211538
 30
0.0
 10
123.2681946566859
 20
10.41015768730139
 30
0.0
 10
123.2108619075649
 20
10.34192583090776
 30
0.0
 10
123.1118496893802
 20
10.2525163461933
 30
0.0
 10
123.0037029159159
 20
10.17551249941989
 30
0.0
 10
122.8866057024509
 20
10.11235845239726
 30
0.0
 10
122.7634263684925
 20
10.0618474457874
 30
0.0
 10
122.6354990594711
 20
10.02652061696844
 30
0.0
 10
122.5039705522529
 20
10.00369699349648
 30
0.0
 10
122.4148418163405
 20
10.00124107091103
 30
0.0
 10
122.3698016826923
 20
9.999999999999998
 30
0.0
  0
SPLINE
  5
B0
330
1F
100
AcDbEntity
  8
0
  6
Continuous
 62
     7
370
    15
100
AcDbSpline
210
0.0
220
0.0
230
1.0
 70
     8
 71
     3
 72
    31
 73
    27
 74
     0
 42
0.000000001
 43
0.00000001
 40
0.0
 40
0.0
 40
0.0
 40
0.0
 40
0.0428647590311891
 40
0.0852222575672289
 40
0.1272022841437366
 40
0.1690253126085974
 40
0.2108820330997074
 40
0.2529626777271214
 40
0.2956282851000465
 40
0.3385532936306077
 40
0.3814632477171886
 40
0.4235815621432648
 40
0.4650661653954496
 40
0.5063122188418614
 40
0.5470395054616125
 40
0.5876758328931694
 40
0.6286747862975582
 40
0.6699464646027584
 40
0.7110355744560757
 40
0.7519958286352152
 40
0.7926726074835032
 40
0.8334460178854418
 40
0.8741906070422422
 40
0.9154935830294665
 40
0.9574778068391475
 40
1.0
 40
1.0
 40
1.0
 40
1.0
 10
122.3698016826923
 20
9.999999999999998
 30
0.0
 10
122.3432802097171
 20
10.00046720258391
 30
0.0
 10
122.2905511182199
 20
10.00139607888795
 30
0.0
 10
122.2122150260878
 20
10.00952296983789
 30
0.0
 10
122.1350349141756
 20
10.02131468606191
 30
0.0
 10
122.0591907830283
 20
10.03862427714002
 30
0.0
 10
121.9845731911747
 20
10.06084177192877
 30
0.0
 10
121.9113054468932
 20
10.08861552779438
 30
0.0
 10
121.8387943192219
 20
10.12001638507919
 30
0.0
 10
121.7683578533045
 20
10.15700314248452
 30
0.0
 10
121.7006975775668
 20
10.19815323513607
 30
0.0
 10
121.6363238310512
 20
10.24272922885168
 30
0.0
 10
121.5755737991647
 20
10.29049781889924
 30
0.0
 10
121.5190256980212
 20
10.34193004285718
 30
0.0
 10
121.4667537032069
 20
10.396951461863
 30
0.0
 10
121.4180547657572
 20
10.454975542114
 30
0.0
 10
121.3737341723465
 20
10.51681251462028
 30
0.0
 10
121.332882454964
 20
10.5813348260968
 30
0.0
 10
121.2974516771255
 20
10.64897223555441
 30
0.0
 10
121.2663508541126
 20
10.71825807926386
 30
0.0
 10
121.2393094652542
 20
10.78904420940417
 30
0.0
 10
121.2177508508218
 20
10.86156761624077
 30
0.0
 10
121.2012851980699
 20
10.93578257799796
 30
0.0
 10
121.1890294921584
 20
11.01156751376031
 30
0.0
 10
121.1820781184421
 20
11.08915579396757
 30
0.0
 10
121.1809941516305
 20
11.14142658930846
 30
0.0
 10
121.1804487179487
 20
11.16772836538461
 30
0.0
  0
SPLINE
  5
B1
330
1F
100
AcDbEntity
  8
0
  6
Continuous
 62
     7
370
    15
100
AcDbSpline
210
0.0
220
0.0
230
1.0
 70
     8
 71
     3
 72
    31
 73
    27
 74
     0
 42
0.000000001
 43
0.00000001
 40
0.0
 40
0.0
 40
0.0
 40
0.0
 40
0.042034118663846
 40
0.0839054330862331
 40
0.1250689344486248
 40
0.1661584697031398
 40
0.2072102728707285
 40
0.248490732056254
 40
0.289878112232792
 40
0.3321695142040886
 40
0.374475842153922
 40
0.4162249804562078
 40
0.4576095869585026
 40
0.4990731704672243
 40
0.540553361553446
 40
0.5822488491953597
 40
0.6245497501259976
 40
0.6674328009210315
 40
0.7103225433055336
 40
0.7524671185698653
 40
0.7940647568438071
 40
0.835215707295008
 40
0.8762283442246862
 40
0.9174461887061487
 40
0.9586431404713226
 40
1.0
 40
1.0
 40
1.0
 40
1.0
 10
121.1804487179487
 20
11.16772836538461
 30
0.0
 10
121.1809196759272
 20
11.19403831675524
 30
0.0
 10
121.1818597677957
 20
11.24655631723682
 30
0.0
 10
121.1899795847788
 20
11.32446118826687
 30
0.0
 10
121.2015621566135
 20
11.4013228902363
 30
0.0
 10
121.2198934899168
 20
11.47634917591409
 30
0.0
 10
121.2419574924803
 20
11.55039448644229
 30
0.0
 10
121.2692838761573
 20
11.6229119004727
 30
0.0
 10
121.3021394649843
 20
11.69392350516282
 30
0.0
 10
121.3393411664766
 20
11.76348188725973
 30
0.0
 10
121.3811460219533
 20
11.83065365223599
 30
0.0
 10
121.4269862009711
 20
11.89444996673523
 30
0.0
 10
121.4769170440495
 20
11.95440137983943
 30
0.0
 10
121.5302497103623
 20
12.01111270539146
 30
0.0
 10
121.5876354015327
 20
12.06403677423784
 30
0.0
 10
121.6490444303031
 20
12.11304513523929
 30
0.0
 10
121.7138714716694
 20
12.15895928764093
 30
0.0
 10
121.7823174413085
 20
12.20078885777987
 30
0.0
 10
121.8533262151773
 20
12.23778418140868
 30
0.0
 10
121.9250937498893
 20
12.27154132290464
 30
0.0
 10
121.9985707202297
 20
12.2983329884784
 30
0.0
 10
122.0723872381356
 20
12.32193965688917
 30
0.0
 10
122.1478433036707
 20
12.33866301255289
 30
0.0
 10
122.2240137250282
 20
12.35156461772114
 30
0.0
 10
122.3011592742776
 20
12.35942475750837
 30
0.0
 10
122.3528236862136
 20
12.36040590959979
 30
0.0
 10
122.3787059294872
 20
12.36089743589744
 30
0.0
  0
LINE
  5
B2
330
1F
100
AcDbEntity
  8
0
  6
Continuous
 62
     7
370
    15
100
AcDbLine
 10
107.7070512821
 20
10.0
 30
0.0
 11
107.4221153846
 21
10.0
 31
0.0
  0
LINE
  5
B3
330
1F
100
AcDbEntity
  8
0
  6
Continuous
 62
     7
370
    15
100
AcDbLine
 10
107.4221153846
 20
10.0
 30
0.0
 11
107.4221153846
 21
13.175
 31
0.0
  0
LINE
  5
B4
330
1F
100
AcDbEntity
  8
0
  6
Continuous
 62
     7
370
    15
100
AcDbLine
 10
107.4221153846
 20
13.175
 30
0.0
 11
107.7070512821
 21
13.175
 31
0.0
  0
LINE
  5
B5
330
1F
100
AcDbEntity
  8
0
  6
Continuous
 62
     7
370
    15
100
AcDbLine
 10
107.7070512821
 20
13.175
 30
0.0
 11
107.7070512821
 21
11.8724358974
 31
0.0
  0
LINE
  5
B6
330
1F
100
AcDbEntity
  8
0
  6
Continuous
 62
     7
370
    15
100
AcDbLine
 10
107.7070512821
 20
11.8724358974
 30
0.0
 11
109.3352564103
 21
11.8724358974
 31
0.0
  0
LINE
  5
B7
330
1F
100
AcDbEntity
  8
0
  6
Continuous
 62
     7
370
    15
100
AcDbLine
 10
109.3352564103
 20
11.8724358974
 30
0.0
 11
109.3352564103
 21
13.175
 31
0.0
  0
LINE
  5
B8
330
1F
100
AcDbEntity
  8
0
  6
Continuous
 62
     7
370
    15
100
AcDbLine
 10
109.3352564103
 20
13.175
 30
0.0
 11
109.6201923077
 21
13.175
 31
0.0
  0
LINE
  5
B9
330
1F
100
AcDbEntity
  8
0
  6
Continuous
 62
     7
370
    15
100
AcDbLine
 10
109.6201923077
 20
13.175
 30
0.0
 11
109.6201923077
 21
10.0
 31
0.0
  0
LINE
  5
BA
330
1F
100
AcDbEntity
  8
0
  6
Continuous
 62
     7
370
    15
100
AcDbLine
 10
109.6201923077
 20
10.0
 30
0.0
 11
109.3352564103
 21
10.0
 31
0.0
  0
LINE
  5
BB
330
1F
100
AcDbEntity
  8
0
  6
Continuous
 62
     7
370
    15
100
AcDbLine
 10
109.3352564103
 20
10.0
 30
0.0
 11
109.3352564103
 21
11.5467948718
 31
0.0
  0
LINE
  5
BC
330
1F
100
AcDbEntity
  8
0
  6
Continuous
 62
     7
370
    15
100
AcDbLine
 10
109.3352564103
 20
11.5467948718
 30
0.0
 11
107.7070512821
 21
11.5467948718
 31
0.0
  0
LINE
  5
BD
330
1F
100
AcDbEntity
  8
0
  6
Continuous
 62
     7
370
    15
100
AcDbLine
 10
107.7070512821
 20
11.5467948718
 30
0.0
 11
107.7070512821
 21
10.0
 31
0.0
  0
LINE
  5
BE
330
1F
100
AcDbEntity
  8
0
  6
Continuous
 62
     7
370
    15
100
AcDbLine
 10
106.8929487179
 20
11.0583333333
 30
0.0
 11
105.6717948718
 21
11.0583333333
 31
0.0
  0
LINE
  5
BF
330
1F
100
AcDbEntity
  8
0
  6
Continuous
 62
     7
370
    15
100
AcDbLine
 10
105.6717948718
 20
11.0583333333
 30
0.0
 11
105.6717948718
 21
11.383974359
 31
0.0
  0
LINE
  5
C0
330
1F
100
AcDbEntity
  8
0
  6
Continuous
 62
     7
370
    15
100
AcDbLine
 10
105.6717948718
 20
11.383974359
 30
0.0
 11
106.8929487179
 21
11.383974359
 31
0.0
  0
LINE
  5
C1
330
1F
100
AcDbEntity
  8
0
  6
Continuous
 62
     7
370
    15
100
AcDbLine
 10
106.8929487179
 20
11.383974359
 30
0.0
 11
106.8929487179
 21
11.0583333333
 31
0.0
  0
LINE
  5
C2
330
1F
100
AcDbEntity
  8
0
  6
Continuous
 62
     7
370
    15
100
AcDbLine
 10
102.3543269231
 20
12.2896634615
 30
0.0
 11
102.0509465144
 21
10.0
 31
0.0
  0
LINE
  5
C3
330
1F
100
AcDbEntity
  8
0
  6
Continuous
 62
     7
370
    15
100
AcDbLine
 10
102.0509465144
 20
10.0
 30
0.0
 11
101.7641025641
 21
10.0
 31
0.0
  0
LINE
  5
C4
330
1F
100
AcDbEntity
  8
0
  6
Continuous
 62
     7
370
    15
100
AcDbLine
 10
101.7641025641
 20
10.0
 30
0.0
 11
102.1832381811
 21
13.175
 31
0.0
  0
LINE
  5
C5
330
1F
100
AcDbEntity
  8
0
  6
Continuous
 62
     7
370
    15
100
AcDbLine
 10
102.1832381811
 20
13.175
 30
0.0
 11
102.2239433093
 21
13.175
 31
0.0
  0
LINE
  5
C6
330
1F
100
AcDbEntity
  8
0
  6
Continuous
 62
     7
370
    15
100
AcDbLine
 10
102.2239433093
 20
13.175
 30
0.0
 11
103.534775641
 21
10.5698717949
 31
0.0
  0
LINE
  5
C7
330
1F
100
AcDbEntity
  8
0
  6
Continuous
 62
     7
370
    15
100
AcDbLine
 10
103.534775641
 20
10.5698717949
 30
0.0
 11
104.8424278846
 21
13.175
 31
0.0
  0
LINE
  5
C8
330
1F
100
AcDbEntity
  8
0
  6
Continuous
 62
     7
370
    15
100
AcDbLine
 10
104.8424278846
 20
13.175
 30
0.0
 11
104.8837690304
 21
13.175
 31
0.0
  0
LINE
  5
C9
330
1F
100
AcDbEntity
  8
0
  6
Continuous
 62
     7
370
    15
100
AcDbLine
 10
104.8837690304
 20
13.175
 30
0.0
 11
105.3054487179
 21
10.0
 31
0.0
  0
LINE
  5
CA
330
1F
100
AcDbEntity
  8
0
  6
Continuous
 62
     7
370
    15
100
AcDbLine
 10
105.3054487179
 20
10.0
 30
0.0
 11
105.0192407853
 21
10.0
 31
0.0
  0
LINE
  5
CB
330
1F
100
AcDbEntity
  8
0
  6
Continuous
 62
     7
370
    15
100
AcDbLine
 10
105.0192407853
 20
10.0
 30
0.0
 11
104.715224359
 21
12.2845753205
 31
0.0
  0
LINE
  5
CC
330
1F
100
AcDbEntity
  8
0
  6
Continuous
 62
     7
370
    15
100
AcDbLine
 10
104.715224359
 20
12.2845753205
 30
0.0
 11
103.5691205929
 21
10.0
 31
0.0
  0
LINE
  5
CD
330
1F
100
AcDbEntity
  8
0
  6
Continuous
 62
     7
370
    15
100
AcDbLine
 10
103.5691205929
 20
10.0
 30
0.0
 11
103.5048828125
 21
10.0
 31
0.0
  0
LINE
  5
CE
330
1F
100
AcDbEntity
  8
0
  6
Continuous
 62
     7
370
    15
100
AcDbLine
 10
103.5048828125
 20
10.0
 30
0.0
 11
102.3543269231
 21
12.2896634615
 31
0.0
  0
LINE
  5
CF
330
1F
100
AcDbEntity
  8
0
  6
Continuous
 62
     7
370
    15
100
AcDbLine
 10
99.8916666667
 20
10.0
 30
0.0
 11
99.6067307692
 21
10.0
 31
0.0
  0
LINE
  5
D0
330
1F
100
AcDbEntity
  8
0
  6
Continuous
 62
     7
370
    15
100
AcDbLine
 10
99.6067307692
 20
10.0
 30
0.0
 11
99.6067307692
 21
13.175
 31
0.0
  0
LINE
  5
D1
330
1F
100
AcDbEntity
  8
0
  6
Continuous
 62
     7
370
    15
100
AcDbLine
 10
99.6067307692
 20
13.175
 30
0.0
 11
99.8916666667
 21
13.175
 31
0.0
  0
LINE
  5
D2
330
1F
100
AcDbEntity
  8
0
  6
Continuous
 62
     7
370
    15
100
AcDbLine
 10
99.8916666667
 20
13.175
 30
0.0
 11
99.8916666667
 21
10.0
 31
0.0
  0
LINE
  5
D3
330
1F
100
AcDbEntity
  8
0
  6
Continuous
 62
     7
370
    15
100
AcDbLine
 10
98.7926282051
 20
10.0
 30
0.0
 11
98.5076923077
 21
10.0
 31
0.0
  0
LINE
  5
D4
330
1F
100
AcDbEntity
  8
0
  6
Continuous
 62
     7
370
    15
100
AcDbLine
 10
98.5076923077
 20
10.0
 30
0.0
 11
98.5076923077
 21
13.175
 31
0.0
  0
LINE
  5
D5
330
1F
100
AcDbEntity
  8
0
  6
Continuous
 62
     7
370
    15
100
AcDbLine
 10
98.5076923077
 20
13.175
 30
0.0
 11
98.7926282051
 21
13.175
 31
0.0
  0
LINE
  5
D6
330
1F
100
AcDbEntity
  8
0
  6
Continuous
 62
     7
370
    15
100
AcDbLine
 10
98.7926282051
 20
13.175
 30
0.0
 11
98.7926282051
 21
10.0
 31
0.0
  0
LINE
  5
D7
330
1F
100
AcDbEntity
  8
0
  6
Continuous
 62
     7
370
    15
100
AcDbLine
 10
97.6935897436
 20
10.0
 30
0.0
 11
97.4086538462
 21
10.0
 31
0.0
  0
LINE
  5
D8
330
1F
100
AcDbEntity
  8
0
  6
Continuous
 62
     7
370
    15
100
AcDbLine
 10
97.4086538462
 20
10.0
 30
0.0
 11
97.4086538462
 21
13.175
 31
0.0
  0
LINE
  5
D9
330
1F
100
AcDbEntity
  8
0
  6
Continuous
 62
     7
370
    15
100
AcDbLine
 10
97.4086538462
 20
13.175
 30
0.0
 11
97.6935897436
 21
13.175
 31
0.0
  0
LINE
  5
DA
330
1F
100
AcDbEntity
  8
0
  6
Continuous
 62
     7
370
    15
100
AcDbLine
 10
97.6935897436
 20
13.175
 30
0.0
 11
97.6935897436
 21
10.0
 31
0.0
  0
SPLINE
  5
DB
330
1F
100
AcDbEntity
  8
0
  6
Continuous
 62
     7
370
    15
100
AcDbSpline
210
0.0
220
0.0
230
1.0
 70
     8
 71
     3
 72
    15
 73
    11
 74
     0
 42
0.000000001
 43
0.00000001
 40
0.0
 40
0.0
 40
0.0
 40
0.0
 40
0.127756603310154
 40
0.2494143553365538
 40
0.3727964764554145
 40
0.5001113325158717
 40
0.6286099407651207
 40
0.7506433738258096
 40
0.8737683791425163
 40
1.0
 40
1.0
 40
1.0
 40
1.0
 10
96.45208333333335
 20
9.959294871794869
 30
0.0
 10
96.434370547492
 20
9.960241563518363
 30
0.0
 10
96.3997905496886
 20
9.962089753747282
 30
0.0
 10
96.35009182635122
 20
9.977658870871137
 30
0.0
 10
96.3043655048548
 20
10.00199158123517
 30
0.0
 10
96.26373665206484
 20
10.03579799198006
 30
0.0
 10
96.23059103855269
 20
10.07661955063187
 30
0.0
 10
96.20553086982184
 20
10.12215975168079
 30
0.0
 10
96.19048123470021
 20
10.17185434133577
 30
0.0
 10
96.18850196449529
 20
10.20639348162664
 30
0.0
 10
96.18750000000001
 20
10.2238782051282
 30
0.0
  0
SPLINE
  5
DC
330
1F
100
AcDbEntity
  8
0
  6
Continuous
 62
     7
370
    15
100
AcDbSpline
210
0.0
220
0.0
230
1.0
 70
     8
 71
     3
 72
    15
 73
    11
 74
     0
 42
0.000000001
 43
0.00000001
 40
0.0
 40
0.0
 40
0.0
 40
0.0
 40
0.1290969581672247
 40
0.2520459672599765
 40
0.3739049644019851
 40
0.501037835220189
 40
0.6281707060383929
 40
0.75137646340917
 40
0.8724260133704307
 40
1.0
 40
1.0
 40
1.0
 40
1.0
 10
96.18750000000001
 20
10.2238782051282
 30
0.0
 10
96.1884634757532
 20
10.24179371380869
 30
0.0
 10
96.19034454391773
 20
10.27677154580748
 30
0.0
 10
96.20556246428895
 20
10.32684502187626
 30
0.0
 10
96.23039659937399
 20
10.37235496319595
 30
0.0
 10
96.2639657791169
 20
10.41262900373667
 30
0.0
 10
96.30435567610142
 20
10.44636319972627
 30
0.0
 10
96.34998151937012
 20
10.47091483350301
 30
0.0
 10
96.39991024521724
 20
10.48546577884285
 30
0.0
 10
96.43439068935002
 20
10.48744563332142
 30
0.0
 10
96.45208333333335
 20
10.48846153846154
 30
0.0
  0
SPLINE
  5
DD
330
1F
100
AcDbEntity
  8
0
  6
Continuous
 62
     7
370
    15
100
AcDbSpline
210
0.0
220
0.0
230
1.0
 70
     8
 71
     3
 72
    15
 73
    11
 74
     0
 42
0.000000001
 43
0.00000001
 40
0.0
 40
0.0
 40
0.0
 40
0.0
 40
0.1275189266999384
 40
0.2499859477487969
 40
0.3717923515057452
 40
0.4988703527764674
 40
0.6259483540471894
 40
0.748491738016059
 40
0.8709587590649146
 40
1.0
 40
1.0
 40
1.0
 40
1.0
 10
96.45208333333335
 20
10.48846153846154
 30
0.0
 10
96.46976374009026
 20
10.48741091582455
 30
0.0
 10
96.50442411054735
 20
10.48535129297144
 30
0.0
 10
96.55453389123396
 20
10.47122102463206
 30
0.0
 10
96.59988618968828
 20
10.44613066834708
 30
0.0
 10
96.64028329745915
 20
10.41269086226171
 30
0.0
 10
96.67358131544901
 20
10.37214551070761
 30
0.0
 10
96.69956583487922
 20
10.32715493635411
 30
0.0
 10
96.7135730143215
 20
10.27662563451461
 30
0.0
 10
96.71561763432113
 20
10.24176442936959
 30
0.0
 10
96.71666666666668
 20
10.2238782051282
 30
0.0
  0
SPLINE
  5
DE
330
1F
100
AcDbEntity
  8
0
  6
Continuous
 62
     7
370
    15
100
AcDbSpline
210
0.0
220
0.0
230
1.0
 70
     8
 71
     3
 72
    15
 73
    11
 74
     0
 42
0.000000001
 43
0.00000001
 40
0.0
 40
0.0
 40
0.0
 40
0.0
 40
0.1261777183170063
 40
0.2488206074857902
 40
0.3715399692351568
 40
0.4999837069108886
 40
0.6272441978753773
 40
0.7492255210762747
 40
0.8722979504176569
 40
0.9999999999999999
 40
0.9999999999999999
 40
0.9999999999999999
 40
0.9999999999999999
 10
96.71666666666668
 20
10.2238782051282
 30
0.0
 10
96.71558208599042
 20
10.20642175598652
 30
0.0
 10
96.71344330882488
 20
10.17199789464306
 30
0.0
 10
96.69959794287935
 20
10.12184971069137
 30
0.0
 10
96.67338328302782
 20
10.07683101877924
 30
0.0
 10
96.64051296801965
 20
10.03573550776281
 30
0.0
 10
96.59987620329188
 20
10.00222486085397
 30
0.0
 10
96.55442667117983
 20
9.977347969561084
 30
0.0
 10
96.50454174413736
 20
9.962205959214694
 30
0.0
 10
96.46978336510004
 20
9.960277103986366
 30
0.0
 10
96.45208333333335
 20
9.959294871794869
 30
0.0
  0
LINE
  5
DF
330
1F
100
AcDbEntity
  8
0
  6
Continuous
 62
     7
370
    15
100
AcDbLine
 10
94.2336538462
 20
10.0
 30
0.0
 11
93.9487179487
 21
10.0
 31
0.0
  0
LINE
  5
E0
330
1F
100
AcDbEntity
  8
0
  6
Continuous
 62
     7
370
    15
100
AcDbLine
 10
93.9487179487
 20
10.0
 30
0.0
 11
93.9487179487
 21
13.2564102564
 31
0.0
  0
LINE
  5
E1
330
1F
100
AcDbEntity
  8
0
  6
Continuous
 62
     7
370
    15
100
AcDbLine
 10
93.9487179487
 20
13.2564102564
 30
0.0
 11
94.2336538462
 21
13.2564102564
 31
0.0
  0
LINE
  5
E2
330
1F
100
AcDbEntity
  8
0
  6
Continuous
 62
     7
370
    15
100
AcDbLine
 10
94.2336538462
 20
13.2564102564
 30
0.0
 11
94.2336538462
 21
11.3737980769
 31
0.0
  0
LINE
  5
E3
330
1F
100
AcDbEntity
  8
0
  6
Continuous
 62
     7
370
    15
100
AcDbLine
 10
94.2336538462
 20
11.3737980769
 30
0.0
 11
95.289443109
 21
12.3201923077
 31
0.0
  0
LINE
  5
E4
330
1F
100
AcDbEntity
  8
0
  6
Continuous
 62
     7
370
    15
100
AcDbLine
 10
95.289443109
 20
12.3201923077
 30
0.0
 11
95.6990384615
 21
12.3201923077
 31
0.0
  0
LINE
  5
E5
330
1F
100
AcDbEntity
  8
0
  6
Continuous
 62
     7
370
    15
100
AcDbLine
 10
95.6990384615
 20
12.3201923077
 30
0.0
 11
94.4740685096
 21
11.2211538462
 31
0.0
  0
LINE
  5
E6
330
1F
100
AcDbEntity
  8
0
  6
Continuous
 62
     7
370
    15
100
AcDbLine
 10
94.4740685096
 20
11.2211538462
 30
0.0
 11
95.8211538462
 21
10.0
 31
0.0
  0
LINE
  5
E7
330
1F
100
AcDbEntity
  8
0
  6
Continuous
 62
     7
370
    15
100
AcDbLine
 10
95.8211538462
 20
10.0
 30
0.0
 11
95.4121945112
 21
10.0
 31
0.0
  0
LINE
  5
E8
330
1F
100
AcDbEntity
  8
0
  6
Continuous
 62
     7
370
    15
100
AcDbLine
 10
95.4121945112
 20
10.0
 30
0.0
 11
94.2336538462
 21
11.069145633
 31
0.0
  0
LINE
  5
E9
330
1F
100
AcDbEntity
  8
0
  6
Continuous
 62
     7
370
    15
100
AcDbLine
 10
94.2336538462
 20
11.069145633
 30
0.0
 11
94.2336538462
 21
10.0
 31
0.0
  0
LINE
  5
EA
330
1F
100
AcDbEntity
  8
0
  6
Continuous
 62
     7
370
    15
100
AcDbLine
 10
90.427724359
 20
12.2896634615
 30
0.0
 11
90.1243439503
 21
10.0
 31
0.0
  0
LINE
  5
EB
330
1F
100
AcDbEntity
  8
0
  6
Continuous
 62
     7
370
    15
100
AcDbLine
 10
90.1243439503
 20
10.0
 30
0.0
 11
89.8375
 21
10.0
 31
0.0
  0
LINE
  5
EC
330
1F
100
AcDbEntity
  8
0
  6
Continuous
 62
     7
370
    15
100
AcDbLine
 10
89.8375
 20
10.0
 30
0.0
 11
90.256635617
 21
13.175
 31
0.0
  0
LINE
  5
ED
330
1F
100
AcDbEntity
  8
0
  6
Continuous
 62
     7
370
    15
100
AcDbLine
 10
90.256635617
 20
13.175
 30
0.0
 11
90.2973407452
 21
13.175
 31
0.0
  0
LINE
  5
EE
330
1F
100
AcDbEntity
  8
0
  6
Continuous
 62
     7
370
    15
100
AcDbLine
 10
90.2973407452
 20
13.175
 30
0.0
 11
91.6081730769
 21
10.5698717949
 31
0.0
  0
LINE
  5
EF
330
1F
100
AcDbEntity
  8
0
  6
Continuous
 62
     7
370
    15
100
AcDbLine
 10
91.6081730769
 20
10.5698717949
 30
0.0
 11
92.9158253205
 21
13.175
 31
0.0
  0
LINE
  5
F0
330
1F
100
AcDbEntity
  8
0
  6
Continuous
 62
     7
370
    15
100
AcDbLine
 10
92.9158253205
 20
13.175
 30
0.0
 11
92.9571664663
 21
13.175
 31
0.0
  0
LINE
  5
F1
330
1F
100
AcDbEntity
  8
0
  6
Continuous
 62
     7
370
    15
100
AcDbLine
 10
92.9571664663
 20
13.175
 30
0.0
 11
93.3788461538
 21
10.0
 31
0.0
  0
LINE
  5
F2
330
1F
100
AcDbEntity
  8
0
  6
Continuous
 62
     7
370
    15
100
AcDbLine
 10
93.3788461538
 20
10.0
 30
0.0
 11
93.0926382212
 21
10.0
 31
0.0
  0
LINE
  5
F3
330
1F
100
AcDbEntity
  8
0
  6
Continuous
 62
     7
370
    15
100
AcDbLine
 10
93.0926382212
 20
10.0
 30
0.0
 11
92.7886217949
 21
12.2845753205
 31
0.0
  0
LINE
  5
F4
330
1F
100
AcDbEntity
  8
0
  6
Continuous
 62
     7
370
    15
100
AcDbLine
 10
92.7886217949
 20
12.2845753205
 30
0.0
 11
91.6425180288
 21
10.0
 31
0.0
  0
LINE
  5
F5
330
1F
100
AcDbEntity
  8
0
  6
Continuous
 62
     7
370
    15
100
AcDbLine
 10
91.6425180288
 20
10.0
 30
0.0
 11
91.5782802484
 21
10.0
 31
0.0
  0
LINE
  5
F6
330
1F
100
AcDbEntity
  8
0
  6
Continuous
 62
     7
370
    15
100
AcDbLine
 10
91.5782802484
 20
10.0
 30
0.0
 11
90.427724359
 21
12.2896634615
 31
0.0
  0
LINE
  5
F7
330
1F
100
AcDbEntity
  8
0
  6
Continuous
 62
     7
370
    15
100
AcDbLine
 10
-3.4
 20
30.0
 30
0.0
 11
236.6
 21
30.0
 31
0.0
  0
LINE
  5
F8
330
1F
100
AcDbEntity
  8
0
  6
Continuous
 62
     7
370
    15
100
AcDbLine
 10
-3.4
 20
20.0
 30
0.0
 11
-3.4
 21
30.0
 31
0.0
  0
LINE
  5
F9
330
1F
100
AcDbEntity
  8
0
  6
Continuous
 62
     7
370
    15
100
AcDbLine
 10
3.4
 20
20.0
 30
0.0
 11
-3.4
 21
20.0
 31
0.0
  0
LINE
  5
FA
330
1F
100
AcDbEntity
  8
0
  6
Continuous
 62
     7
370
    15
100
AcDbLine
 10
3.4
 20
10.0
 30
0.0
 11
3.4
 21
20.0
 31
0.0
  0
LINE
  5
FB
330
1F
100
AcDbEntity
  8
0
  6
Continuous
 62
     7
370
    15
100
AcDbLine
 10
-3.4
 20
10.0
 30
0.0
 11
3.4
 21
10.0
 31
0.0
  0
LINE
  5
FC
330
1F
100
AcDbEntity
  8
0
  6
Continuous
 62
     7
370
    15
100
AcDbLine
 10
-3.4
 20
0.0
 30
0.0
 11
-3.4
 21
10.0
 31
0.0
  0
LINE
  5
FD
330
1F
100
AcDbEntity
  8
0
  6
Continuous
 62
     7
370
    15
100
AcDbLine
 10
25.0
 20
0.0
 30
0.0
 11
-3.4
 21
0.0
 31
0.0
  0
LINE
  5
FE
330
1F
100
AcDbEntity
  8
0
  6
Continuous
 62
     7
370
    15
100
AcDbLine
 10
25.0
 20
0.0
 30
0.0
 11
25.0
 21
-3.4
 31
0.0
  0
LINE
  5
FF
330
1F
100
AcDbEntity
  8
0
  6
Continuous
 62
     7
370
    15
100
AcDbLine
 10
25.0
 20
-3.4
 30
0.0
 11
60.0
 21
-3.4
 31
0.0
  0
LINE
  5
100
330
1F
100
AcDbEntity
  8
0
  6
Continuous
 62
     7
370
    15
100
AcDbLine
 10
60.0
 20
0.0
 30
0.0
 11
60.0
 21
-3.4
 31
0.0
  0
LINE
  5
101
330
1F
100
AcDbEntity
  8
0
  6
Continuous
 62
     7
370
    15
100
AcDbLine
 10
180.0
 20
0.0
 30
0.0
 11
60.0
 21
0.0
 31
0.0
  0
LINE
  5
102
330
1F
100
AcDbEntity
  8
0
  6
Continuous
 62
     7
370
    15
100
AcDbLine
 10
180.0
 20
0.0
 30
0.0
 11
180.0
 21
-3.4
 31
0.0
  0
LINE
  5
103
330
1F
100
AcDbEntity
  8
0
  6
Continuous
 62
     7
370
    15
100
AcDbLine
 10
215.0
 20
-3.4
 30
0.0
 11
180.0
 21
-3.4
 31
0.0
  0
LINE
  5
104
330
1F
100
AcDbEntity
  8
0
  6
Continuous
 62
     7
370
    15
100
AcDbLine
 10
215.0
 20
0.0
 30
0.0
 11
215.0
 21
-3.4
 31
0.0
  0
LINE
  5
105
330
1F
100
AcDbEntity
  8
0
  6
Continuous
 62
     7
370
    15
100
AcDbLine
 10
236.6
 20
0.0
 30
0.0
 11
215.0
 21
0.0
 31
0.0
  0
LINE
  5
106
330
1F
100
AcDbEntity
  8
0
  6
Continuous
 62
     7
370
    15
100
AcDbLine
 10
236.6
 20
10.0
 30
0.0
 11
236.6
 21
0.0
 31
0.0
  0
LINE
  5
107
330
1F
100
AcDbEntity
  8
0
  6
Continuous
 62
     7
370
    15
100
AcDbLine
 10
243.4
 20
10.0
 30
0.0
 11
236.6
 21
10.0
 31
0.0
  0
LINE
  5
108
330
1F
100
AcDbEntity
  8
0
  6
Continuous
 62
     7
370
    15
100
AcDbLine
 10
243.4
 20
20.0
 30
0.0
 11
243.4
 21
10.0
 31
0.0
  0
LINE
  5
109
330
1F
100
AcDbEntity
  8
0
  6
Continuous
 62
     7
370
    15
100
AcDbLine
 10
236.6
 20
20.0
 30
0.0
 11
243.4
 21
20.0
 31
0.0
  0
LINE
  5
10A
330
1F
100
AcDbEntity
  8
0
  6
Continuous
 62
     7
370
    15
100
AcDbLine
 10
236.6
 20
30.0
 30
0.0
 11
236.6
 21
20.0
 31
0.0
  0
SPLINE
  5
10B
330
1F
100
AcDbEntity
  8
0
  6
Continuous
 62
     7
370
    15
100
AcDbSpline
210
0.0
220
0.0
230
1.0
 70
     8
 71
     3
 72
    15
 73
    11
 74
     0
 42
0.000000001
 43
0.00000001
 40
0.0
 40
0.0
 40
0.0
 40
0.0
 40
0.1289191318119605
 40
0.2552377249249076
 40
0.3786785959785531
 40
0.5010878871851322
 40
0.6227136794297774
 40
0.7462407949383849
 40
0.8715890472316691
 40
0.9999999999999999
 40
0.9999999999999999
 40
0.9999999999999999
 40
0.9999999999999999
 10
110.2714743589744
 20
11.1537359775641
 30
0.0
 10
110.272493361938
 20
11.19257670133839
 30
0.0
 10
110.2745108126801
 20
11.26947465923843
 30
0.0
 10
110.2893158459117
 20
11.38280134997196
 30
0.0
 10
110.3141339650084
 20
11.49229112433769
 30
0.0
 10
110.3492688746493
 20
11.59745209183718
 30
0.0
 10
110.3941862263865
 20
11.69883023738746
 30
0.0
 10
110.448942537593
 20
11.79626176263933
 30
0.0
 10
110.5140668971119
 20
11.88968641021651
 30
0.0
 10
110.5641429531448
 20
11.94749143995625
 30
0.0
 10
110.5894831730769
 20
11.97674278846154
 30
0.0
  0
SPLINE
  5
10C
330
1F
100
AcDbEntity
  8
0
  6
Continuous
 62
     7
370
    15
100
AcDbSpline
210
0.0
220
0.0
230
1.0
 70
     8
 71
     3
 72
    15
 73
    11
 74
     0
 42
0.000000001
 43
0.00000001
 40
0.0
 40
0.0
 40
0.0
 40
0.0
 40
0.1284975211375086
 40
0.2527129855154496
 40
0.3748191325670504
 40
0.4964364263727332
 40
0.6179105567458482
 40
0.741287617309287
 40
0.8687004007446085
 40
1.0
 40
1.0
 40
1.0
 40
1.0
 10
110.5894831730769
 20
11.97674278846154
 30
0.0
 10
110.6189186806506
 20
12.00756291192723
 30
0.0
 10
110.6768087857144
 20
12.06817610777741
 30
0.0
 10
110.7741894172963
 20
12.14576632605629
 30
0.0
 10
110.8762373835894
 20
12.21281876448718
 30
0.0
 10
110.9848449951571
 20
12.26677218850497
 30
0.0
 10
111.0988573020169
 20
12.30926141529964
 30
0.0
 10
111.218799043453
 20
12.33880298972527
 30
0.0
 10
111.3442346896198
 20
12.3580828188757
 30
0.0
 10
111.4300137744707
 20
12.35994988017064
 30
0.0
 10
111.4735476762821
 20
12.36089743589744
 30
0.0
  0
SPLINE
  5
10D
330
1F
100
AcDbEntity
  8
0
  6
Continuous
 62
     7
370
    15
100
AcDbSpline
210
0.0
220
0.0
230
1.0
 70
     8
 71
     3
 72
    15
 73
    11
 74
     0
 42
0.000000001
 43
0.00000001
 40
0.0
 40
0.0
 40
0.0
 40
0.0
 40
0.1317514273024045
 40
0.2583323505141539
 40
0.3821339760925411
 40
0.5038043916000763
 40
0.6246929865409272
 40
0.746870589727568
 40
0.8715135042348097
 40
1.0
 40
1.0
 40
1.0
 40
1.0
 10
111.4735476762821
 20
12.36089743589744
 30
0.0
 10
111.517082616647
 20
12.35997043465006
 30
0.0
 10
111.6024439952996
 20
12.35815281175164
 30
0.0
 10
111.727455434633
 20
12.33872637862391
 30
0.0
 10
111.8467856650895
 20
12.30901984093124
 30
0.0
 10
111.9608917108378
 20
12.2679520667637
 30
0.0
 10
112.0683122074271
 20
12.2129048687678
 30
0.0
 10
112.1706118360107
 20
12.14721929753258
 30
0.0
 10
112.2675101226421
 20
12.06940223051353
 30
0.0
 10
112.3255881563254
 20
12.00920598277359
 30
0.0
 10
112.3550681089744
 20
11.97865084134615
 30
0.0
  0
SPLINE
  5
10E
330
1F
100
AcDbEntity
  8
0
  6
Continuous
 62
     7
370
    15
100
AcDbSpline
210
0.0
220
0.0
230
1.0
 70
     8
 71
     3
 72
    15
 73
    11
 74
     0
 42
0.000000001
 43
0.00000001
 40
0.0
 40
0.0
 40
0.0
 40
0.0
 40
0.1281572795931874
 40
0.2538343627967323
 40
0.3765056225222075
 40
0.4985336856679096
 40
0.6213677287324617
 40
0.7445647449043578
 40
0.8706337982552826
 40
1.0
 40
1.0
 40
1.0
 40
1.0
 10
112.3550681089744
 20
11.97865084134615
 30
0.0
 10
112.3804517387333
 20
11.94942815423717
 30
0.0
 10
112.4307277550921
 20
11.89154831951327
 30
0.0
 10
112.4951945142796
 20
11.7976992991831
 30
0.0
 10
112.5507312152795
 20
11.70050792221781
 30
0.0
 10
112.5952383298889
 20
11.59868356159459
 30
0.0
 10
112.6303311728033
 20
11.49311510990528
 30
0.0
 10
112.6552464829778
 20
11.38343971406839
 30
0.0
 10
112.6700664168166
 20
11.26989958485572
 30
0.0
 10
112.6720648225422
 20
11.19278896031441
 30
0.0
 10
112.6730769230769
 20
11.1537359775641
 30
0.0
  0
SPLINE
  5
10F
330
1F
100
AcDbEntity
  8
0
  6
Continuous
 62
     7
370
    15
100
AcDbSpline
210
0.0
220
0.0
230
1.0
 70
     8
 71
     3
 72
    23
 73
    19
 74
     0
 42
0.000000001
 43
0.00000001
 40
0.0
 40
0.0
 40
0.0
 40
0.0
 40
0.0624160261588178
 40
0.1233369785373303
 40
0.1832651398530933
 40
0.2431724430697109
 40
0.302898353919745
 40
0.3637735975039117
 40
0.4256053049523829
 40
0.4896590425101843
 40
0.5537845767921195
 40
0.6162215328110765
 40
0.6778544713083431
 40
0.7395168974879379
 40
0.8020965355763717
 40
0.865865841277976
 40
0.931507795196516
 40
1.0
 40
1.0
 40
1.0
 40
1.0
 10
112.6730769230769
 20
11.1537359775641
 30
0.0
 10
112.6721867099386
 20
11.1144566395279
 30
0.0
 10
112.6704276072609
 20
11.03683883572852
 30
0.0
 10
112.6537873266776
 20
10.92252126819184
 30
0.0
 10
112.6279055559175
 20
10.81167310761295
 30
0.0
 10
112.5908652455694
 20
10.70475843542312
 30
0.0
 10
112.5433689607375
 20
10.60145044198565
 30
0.0
 10
112.4854109799034
 20
10.502200350845
 30
0.0
 10
112.4165845843444
 20
10.40681234423295
 30
0.0
 10
112.3385666729993
 20
10.31609639096112
 30
0.0
 10
112.2523410424905
 20
10.23248846754135
 30
0.0
 10
112.1587999650868
 20
10.15961925158941
 30
0.0
 10
112.0597816630413
 20
10.09718829734091
 30
0.0
 10
111.953969478285
 20
10.04689954889038
 30
0.0
 10
111.842329686659
 20
10.00724860646492
 30
0.0
 10
111.7246214891637
 20
9.979399305845911
 30
0.0
 10
111.6010277468081
 20
9.962561206991637
 30
0.0
 10
111.516638767426
 20
9.96039896553352
 30
0.0
 10
111.4735476762821
 20
9.959294871794869
 30
0.0
  0
SPLINE
  5
110
330
1F
100
AcDbEntity
  8
0
  6
Continuous
 62
     7
370
    15
100
AcDbSpline
210
0.0
220
0.0
230
1.0
 70
     8
 71
     3
 72
    23
 73
    19
 74
     0
 42
0.000000001
 43
0.00000001
 40
0.0
 40
0.0
 40
0.0
 40
0.0
 40
0.0687422616054898
 40
0.1346351922242761
 40
0.1983241870671505
 40
0.2608250125604245
 40
0.3227135881590255
 40
0.3845545346076218
 40
0.4469128577247591
 40
0.5109576325148295
 40
0.5749307010013351
 40
0.6366845377960958
 40
0.6974831152940622
 40
0.7571338075238554
 40
0.8169656636752655
 40
0.8768183516571977
 40
0.9376625803840035
 40
1.0
 40
1.0
 40
1.0
 40
1.0
 10
111.4735476762821
 20
9.959294871794869
 30
0.0
 10
111.4302454664418
 20
9.960402671220919
 30
0.0
 10
111.3454359008352
 20
9.96257235236304
 30
0.0
 10
111.2214059029476
 20
9.979333887410572
 30
0.0
 10
111.1034867486282
 20
10.0072357715986
 30
0.0
 10
110.9917008056855
 20
10.04702985428938
 30
0.0
 10
110.8854336945191
 20
10.09718990469066
 30
0.0
 10
110.7858416580008
 20
10.15943050880799
 30
0.0
 10
110.6922245917828
 20
10.23251007820286
 30
0.0
 10
110.6059807202055
 20
10.3160905353838
 30
0.0
 10
110.5279676996598
 20
10.40681385290966
 30
0.0
 10
110.459140042084
 20
10.50219995925734
 30
0.0
 10
110.4011823890765
 20
10.60145054401826
 30
0.0
 10
110.353686018412
 20
10.70475840821451
 30
0.0
 10
110.3166457309791
 20
10.81167311490872
 30
0.0
 10
110.2907639540586
 20
10.92252126621157
 30
0.0
 10
110.2741236751309
 20
11.03683883624126
 30
0.0
 10
110.2723645722272
 20
11.11445663970018
 30
0.0
 10
110.2714743589744
 20
11.1537359775641
 30
0.0
  0
SPLINE
  5
111
330
1F
100
AcDbEntity
  8
0
  6
Continuous
 62
     7
370
    15
100
AcDbSpline
210
0.0
220
0.0
230
1.0
 70
     8
 71
     3
 72
    31
 73
    27
 74
     0
 42
0.000000001
 43
0.00000001
 40
0.0
 40
0.0
 40
0.0
 40
0.0
 40
0.0451516788047804
 40
0.0887272521645443
 40
0.1305341108247499
 40
0.1710707458966307
 40
0.2100958400813077
 40
0.2477692374166756
 40
0.2848493643644358
 40
0.3209855015160398
 40
0.3563873757532839
 40
0.3915492787874617
 40
0.4261913606636702
 40
0.4605110592984609
 40
0.4949714404811194
 40
0.5295336250796099
 40
0.5645757480731514
 40
0.6000961892387717
 40
0.6375349450701505
 40
0.6782134162474357
 40
0.7225827429711674
 40
0.7701823039810383
 40
0.8218792822902008
 40
0.877067012516751
 40
0.9365240376354078
 40
0.9999999999999999
 40
0.9999999999999999
 40
0.9999999999999999
 40
0.9999999999999999
 10
114.242132411859
 20
9.959294871794869
 30
0.0
 10
114.2139234312126
 20
9.959603034704509
 30
0.0
 10
114.158490158179
 20
9.960208603509813
 30
0.0
 10
114.0771455294572
 20
9.966687243346039
 30
0.0
 10
113.9991778651744
 20
9.977398941018093
 30
0.0
 10
113.9248643608039
 20
9.992689031072942
 30
0.0
 10
113.854130443244
 20
10.01177447308503
 30
0.0
 10
113.7866895970724
 20
10.03445625168852
 30
0.0
 10
113.7233315077779
 20
10.0626506887099
 30
0.0
 10
113.6632949755789
 20
10.09438033012789
 30
0.0
 10
113.6070499519823
 20
10.13027168711061
 30
0.0
 10
113.5543371704435
 20
10.16961269448474
 30
0.0
 10
113.5052273113536
 20
10.21234462311959
 30
0.0
 10
113.4597095425169
 20
10.25828901139178
 30
0.0
 10
113.4184227708967
 20
10.30801580367004
 30
0.0
 10
113.3808525045106
 20
10.36112499049362
 30
0.0
 10
113.3464203505443
 20
10.41709034229317
 30
0.0
 10
113.3152574621511
 20
10.47701906823786
 30
0.0
 10
113.2884860839085
 20
10.54285224853171
 30
0.0
 10
113.2648502536994
 20
10.61569318660859
 30
0.0
 10
113.24551846031
 20
10.69634046971396
 30
0.0
 10
113.2297863640115
 20
10.78472514766421
 30
0.0
 10
113.2171304143155
 20
10.88042422112517
 30
0.0
 10
113.2083436995941
 20
10.98399128357013
 30
0.0
 10
113.2034307674058
 20
11.09517406144086
 30
0.0
 10
113.2026478473968
 20
11.17196360455045
 30
0.0
 10
113.2022435897436
 20
11.21161358173077
 30
0.0
  0
LINE
  5
112
330
1F
100
AcDbEntity
  8
0
  6
Continuous
 62
     7
370
    15
100
AcDbLine
 10
113.2022435897
 20
11.2116135817
 30
0.0
 11
113.2022435897
 21
12.3201923077
 31
0.0
  0
LINE
  5
113
330
1F
100
AcDbEntity
  8
0
  6
Continuous
 62
     7
370
    15
100
AcDbLine
 10
113.2022435897
 20
12.3201923077
 30
0.0
 11
113.4871794872
 21
12.3201923077
 31
0.0
  0
LINE
  5
114
330
1F
100
AcDbEntity
  8
0
  6
Continuous
 62
     7
370
    15
100
AcDbLine
 10
113.4871794872
 20
12.3201923077
 30
0.0
 11
113.4871794872
 21
11.2440504808
 31
0.0
  0
SPLINE
  5
115
330
1F
100
AcDbEntity
  8
0
  6
Continuous
 62
     7
370
    15
100
AcDbSpline
210
0.0
220
0.0
230
1.0
 70
     8
 71
     3
 72
    15
 73
    11
 74
     0
 42
0.000000001
 43
0.00000001
 40
0.0
 40
0.0
 40
0.0
 40
0.0
 40
0.1736165757486469
 40
0.3321203769789012
 40
0.4779362767239436
 40
0.6099318098113861
 40
0.727031521037976
 40
0.8316714227513095
 40
0.9217154761224298
 40
1.0
 40
1.0
 40
1.0
 40
1.0
 10
113.4871794871795
 20
11.24405048076923
 30
0.0
 10
113.4873082151972
 20
11.21246127258286
 30
0.0
 10
113.4875544658653
 20
11.15203259700232
 30
0.0
 10
113.4892244622842
 20
11.06507824901612
 30
0.0
 10
113.4931524757911
 20
10.98577880254302
 30
0.0
 10
113.4980635880291
 20
10.91408844848559
 30
0.0
 10
113.5043792400714
 20
10.85001931468583
 30
0.0
 10
113.511893431384
 20
10.79379518366405
 30
0.0
 10
113.5202921424299
 20
10.74477845954852
 30
0.0
 10
113.5285133186701
 20
10.71525698687046
 30
0.0
 10
113.5323367387821
 20
10.70152744391026
 30
0.0
  0
SPLINE
  5
116
330
1F
100
AcDbEntity
  8
0
  6
Continuous
 62
     7
370
    15
100
AcDbSpline
210
0.0
220
0.0
230
1.0
 70
     8
 71
     3
 72
    19
 73
    15
 74
     0
 42
0.000000001
 43
0.00000001
 40
0.0
 40
0.0
 40
0.0
 40
0.0
 40
0.0604867187842468
 40
0.1197159334053013
 40
0.1780861642555846
 40
0.2359713213676955
 40
0.2946097683616268
 40
0.3535360182612475
 40
0.4131613089451942
 40
0.4745453087944067
 40
0.5992335172031698
 40
0.7270292124547222
 40
0.8596954264724386
 40
1.0
 40
1.0
 40
1.0
 40
1.0
 10
113.5323367387821
 20
10.70152744391025
 30
0.0
 10
113.5384703443996
 20
10.68427098238423
 30
0.0
 10
113.5506100394665
 20
10.6501168169677
 30
0.0
 10
113.5726295568712
 20
10.60077821940464
 30
0.0
 10
113.5998695479066
 20
10.55508064177317
 30
0.0
 10
113.6296781060484
 20
10.51126194723151
 30
0.0
 10
113.6640582829527
 20
10.4706201448435
 30
0.0
 10
113.7025750888954
 20
10.43322386667463
 30
0.0
 10
113.7439392039014
 20
10.39766015533323
 30
0.0
 10
113.8054026893876
 20
10.35558252262184
 30
0.0
 10
113.8894578806738
 20
10.31048361597679
 30
0.0
 10
113.9998143087199
 20
10.27157098074201
 30
0.0
 10
114.1194702850704
 20
10.2483156297147
 30
0.0
 10
114.2021697089949
 20
10.24561755552896
 30
0.0
 10
114.2446764823718
 20
10.24423076923077
 30
0.0
  0
SPLINE
  5
117
330
1F
100
AcDbEntity
  8
0
  6
Continuous
 62
     7
370
    15
100
AcDbSpline
210
0.0
220
0.0
230
1.0
 70
     8
 71
     3
 72
    15
 73
    11
 74
     0
 42
0.000000001
 43
0.00000001
 40
0.0
 40
0.0
 40
0.0
 40
0.0
 40
0.1446324159930477
 40
0.2798369641781319
 40
0.4083713118090859
 40
0.5330428696034645
 40
0.6535963008637301
 40
0.7700157379356778
 40
0.8843394719005003
 40
1.0
 40
1.0
 40
1.0
 40
1.0
 10
114.2446764823718
 20
10.24423076923077
 30
0.0
 10
114.2871793072303
 20
10.24564704474477
 30
0.0
 10
114.3694144092004
 20
10.24838727581646
 30
0.0
 10
114.4877557027502
 20
10.2708694858423
 30
0.0
 10
114.5959337715517
 20
10.30843036088012
 30
0.0
 10
114.6928628488085
 20
10.36086994156854
 30
0.0
 10
114.7781032895216
 20
10.42504309856137
 30
0.0
 10
114.8491365836872
 20
10.50034394646538
 30
0.0
 10
114.9077445931671
 20
10.58439017599154
 30
0.0
 10
114.933334567608
 20
10.64709577180413
 30
0.0
 10
114.9462039262821
 20
10.67863080929487
 30
0.0
  0
SPLINE
  5
118
330
1F
100
AcDbEntity
  8
0
  6
Continuous
 62
     7
370
    15
100
AcDbSpline
210
0.0
220
0.0
230
1.0
 70
     8
 71
     3
 72
    15
 73
    11
 74
     0
 42
0.000000001
 43
0.00000001
 40
0.0
 40
0.0
 40
0.0
 40
0.0
 40
0.0696927557420288
 40
0.1540736621798104
 40
0.2545914510459158
 40
0.371465414429005
 40
0.5047545659520504
 40
0.6534942950018636
 40
0.8189527408800048
 40
1.0
 40
1.0
 40
1.0
 40
1.0
 10
114.9462039262821
 20
10.67863080929487
 30
0.0
 10
114.9500086921293
 20
10.69130023736442
 30
0.0
 10
114.9584201001957
 20
10.71930924862557
 30
0.0
 10
114.9674573762102
 20
10.76682516323069
 30
0.0
 10
114.9755984949432
 20
10.82348948308243
 30
0.0
 10
114.9825500904464
 20
10.88967300094776
 30
0.0
 10
114.9875077736768
 20
10.96520276067511
 30
0.0
 10
114.9901802406579
 20
11.05005515832199
 30
0.0
 10
114.9931994617476
 20
11.14396382075877
 30
0.0
 10
114.9932452872205
 20
11.20970243099633
 30
0.0
 10
114.9932692307692
 20
11.24405048076923
 30
0.0
  0
LINE
  5
119
330
1F
100
AcDbEntity
  8
0
  6
Continuous
 62
     7
370
    15
100
AcDbLine
 10
114.9932692308
 20
11.2440504808
 30
0.0
 11
114.9932692308
 21
12.3201923077
 31
0.0
  0
LINE
  5
11A
330
1F
100
AcDbEntity
  8
0
  6
Continuous
 62
     7
370
    15
100
AcDbLine
 10
114.9932692308
 20
12.3201923077
 30
0.0
 11
115.2782051282
 21
12.3201923077
 31
0.0
  0
LINE
  5
11B
330
1F
100
AcDbEntity
  8
0
  6
Continuous
 62
     7
370
    15
100
AcDbLine
 10
115.2782051282
 20
12.3201923077
 30
0.0
 11
115.2782051282
 21
11.190625
 31
0.0
  0
SPLINE
  5
11C
330
1F
100
AcDbEntity
  8
0
  6
Continuous
 62
     7
370
    15
100
AcDbSpline
210
0.0
220
0.0
230
1.0
 70
     8
 71
     3
 72
    31
 73
    27
 74
     0
 42
0.000000001
 43
0.00000001
 40
0.0
 40
0.0
 40
0.0
 40
0.0
 40
0.0622100326824419
 40
0.1206959731983285
 40
0.1755484638831975
 40
0.2261906127214149
 40
0.2737107306295724
 40
0.3173020717741437
 40
0.3578372980216204
 40
0.3954278376537086
 40
0.4310885268449416
 40
0.466097473341075
 40
0.5010152197637693
 40
0.5354236135188917
 40
0.5701735381629641
 40
0.6047650703833912
 40
0.640093034542571
 40
0.6759387007616814
 40
0.7122247901876555
 40
0.7494554524110951
 40
0.7876011171624494
 40
0.8267837743908867
 40
0.86782856994874
 40
0.9101595124056417
 40
0.9539387393933997
 40
0.9999999999999999
 40
0.9999999999999999
 40
0.9999999999999999
 40
0.9999999999999999
 10
115.2782051282051
 20
11.190625
 30
0.0
 10
115.2778044479058
 20
11.1522463516128
 30
0.0
 10
115.2770270733153
 20
11.07778652387449
 30
0.0
 10
115.2720311260104
 20
10.96957879414592
 30
0.0
 10
115.2634589773928
 20
10.8687387577156
 30
0.0
 10
115.2504481131652
 20
10.77521303683605
 30
0.0
 10
115.2351485368941
 20
10.68907303554671
 30
0.0
 10
115.2154124892939
 20
10.6102083524251
 30
0.0
 10
115.1918465164782
 20
10.5388619713377
 30
0.0
 10
115.165262227886
 20
10.47378193084523
 30
0.0
 10
115.1338552480599
 20
10.41477510539505
 30
0.0
 10
115.1004478794416
 20
10.35877190032455
 30
0.0
 10
115.0618718364221
 20
10.30716188055666
 30
0.0
 10
115.0212588381998
 20
10.25737594182523
 30
0.0
 10
114.9760816218016
 20
10.21189041339744
 30
0.0
 10
114.9271867497432
 20
10.16966157457882
 30
0.0
 10
114.8752624188907
 20
10.13004389575629
 30
0.0
 10
114.8191563607072
 20
10.09458252089325
 30
0.0
 10
114.759687646486
 20
10.06263599262112
 30
0.0
 10
114.6967828619008
 20
10.03431855032438
 30
0.0
 10
114.6296715278149
 20
10.01190978398756
 30
0.0
 10
114.5592195142668
 20
9.992577965781416
 30
0.0
 10
114.485081650167
 20
9.977415554491344
 30
0.0
 10
114.4073294080287
 20
9.96672345465167
 30
0.0
 10
114.3259889775467
 20
9.960169047313656
 30
0.0
 10
114.2705539677025
 20
9.95959115662505
 30
0.0
 10
114.242132411859
 20
9.959294871794869
 30
0.0
  0
SPLINE
  5
11D
330
1F
100
AcDbEntity
  8
0
  6
Continuous
 62
     7
370
    15
100
AcDbSpline
210
0.0
220
0.0
230
1.0
 70
     8
 71
     3
 72
    23
 73
    19
 74
     0
 42
0.000000001
 43
0.00000001
 40
0.0
 40
0.0
 40
0.0
 40
0.0
 40
0.0679784896192547
 40
0.1330435352439075
 40
0.1965074380533966
 40
0.2586134167685769
 40
0.3197283376065493
 40
0.3808728540495712
 40
0.4426356023162076
 40
0.5050793035048774
 40
0.5678805200585803
 40
0.6288138541554883
 40
0.6889100905404406
 40
0.7487650058898518
 40
0.809385782963116
 40
0.8708843357532354
 40
0.9340374630736988
 40
1.0
 40
1.0
 40
1.0
 40
1.0
 10
115.8480769230769
 20
11.75222856570513
 30
0.0
 10
115.848561514548
 20
11.77366017670122
 30
0.0
 10
115.8495099287128
 20
11.81560487580916
 30
0.0
 10
115.8570791754994
 20
11.87723509136988
 30
0.0
 10
115.8708602277986
 20
11.93578948807544
 30
0.0
 10
115.8881457647276
 20
11.99214742809026
 30
0.0
 10
115.9121696330447
 20
12.04521718482449
 30
0.0
 10
115.9408769898548
 20
12.09570646211614
 30
0.0
 10
115.97461129675
 20
12.1435454734469
 30
0.0
 10
116.0134762820194
 20
12.18799831469819
 30
0.0
 10
116.0562087387761
 20
12.22837463213398
 30
0.0
 10
116.1023775656074
 20
12.26357053036516
 30
0.0
 10
116.1509444126486
 20
12.29360272364478
 30
0.0
 10
116.2021149075343
 20
12.3187896907525
 30
0.0
 10
116.2563806222944
 20
12.3378409449635
 30
0.0
 10
116.3133622441856
 20
12.35095585856133
 30
0.0
 10
116.3729444346832
 20
12.35971450681643
 30
0.0
 10
116.4136761703769
 20
12.36049744757112
 30
0.0
 10
116.4344851762821
 20
12.36089743589744
 30
0.0
  0
SPLINE
  5
11E
330
1F
100
AcDbEntity
  8
0
  6
Continuous
 62
     7
370
    15
100
AcDbSpline
210
0.0
220
0.0
230
1.0
 70
     8
 71
     3
 72
    15
 73
    11
 74
     0
 42
0.000000001
 43
0.00000001
 40
0.0
 40
0.0
 40
0.0
 40
0.0
 40
0.1057142614175197
 40
0.213411612639002
 40
0.3261267300734758
 40
0.4444516715568735
 40
0.5690610798550921
 40
0.7027122044812221
 40
0.8463179465861975
 40
1.0
 40
1.0
 40
1.0
 40
1.0
 10
116.4344851762821
 20
12.36089743589744
 30
0.0
 10
116.4591522624259
 20
12.35989564112196
 30
0.0
 10
116.5089491636431
 20
12.35787325894094
 30
0.0
 10
116.5836565744153
 20
12.34181166817807
 30
0.0
 10
116.658253963309
 20
12.31538378088784
 30
0.0
 10
116.7329330022081
 20
12.27888376921659
 30
0.0
 10
116.8071466218631
 20
12.23165167466813
 30
0.0
 10
116.8815476275618
 20
12.17456581024116
 30
0.0
 10
116.9570291978964
 20
12.10800174065069
 30
0.0
 10
117.0041609962098
 20
12.0571117290197
 30
0.0
 10
117.0285256410257
 20
12.03080428685898
 30
0.0
  0
LINE
  5
11F
330
1F
100
AcDbEntity
  8
0
  6
Continuous
 62
     7
370
    15
100
AcDbLine
 10
117.028525641
 20
12.0308042869
 30
0.0
 11
116.8351762821
 21
11.8317307692
 31
0.0
  0
SPLINE
  5
120
330
1F
100
AcDbEntity
  8
0
  6
Continuous
 62
     7
370
    15
100
AcDbSpline
210
0.0
220
0.0
230
1.0
 70
     8
 71
     3
 72
    15
 73
    11
 74
     0
 42
0.000000001
 43
0.00000001
 40
0.0
 40
0.0
 40
0.0
 40
0.0
 40
0.1582230975563253
 40
0.3050355053581599
 40
0.4413089638879018
 40
0.5659632271047114
 40
0.683525114415058
 40
0.7933341296295885
 40
0.8985175121610073
 40
1.0
 40
1.0
 40
1.0
 40
1.0
 10
116.8351762820513
 20
11.83173076923077
 30
0.0
 10
116.8184934681367
 20
11.85106483769161
 30
0.0
 10
116.7863309668846
 20
11.88833864559112
 30
0.0
 10
116.7353209805466
 20
11.93817441306215
 30
0.0
 10
116.6844995687328
 20
11.98002720767412
 30
0.0
 10
116.6345624307057
 20
12.01536247111329
 30
0.0
 10
116.5842538580454
 20
12.0420770541057
 30
0.0
 10
116.5341642251683
 20
12.06157596458013
 30
0.0
 10
116.4842416695155
 20
12.07364260257235
 30
0.0
 10
116.4508714804273
 20
12.07519784338771
 30
0.0
 10
116.4344851762821
 20
12.07596153846154
 30
0.0
  0
SPLINE
  5
121
330
1F
100
AcDbEntity
  8
0
  6
Continuous
 62
     7
370
    15
100
AcDbSpline
210
0.0
220
0.0
230
1.0
 70
     8
 71
     3
 72
    15
 73
    11
 74
     0
 42
0.000000001
 43
0.00000001
 40
0.0
 40
0.0
 40
0.0
 40
0.0
 40
0.1249584925460612
 40
0.2459006286062698
 40
0.3691660295860785
 40
0.4985108411773548
 40
0.6285038663665984
 40
0.7510283288509935
 40
0.873724174278431
 40
0.9999999999999999
 40
0.9999999999999999
 40
0.9999999999999999
 40
0.9999999999999999
 10
116.4344851762821
 20
12.07596153846154
 30
0.0
 10
116.4144015869256
 20
12.07498647511748
 30
0.0
 10
116.3748799253979
 20
12.073067688452
 30
0.0
 10
116.3182507901952
 20
12.05391479093402
 30
0.0
 10
116.2656812946432
 20
12.02451543533109
 30
0.0
 10
116.2201817484948
 20
11.98281536310601
 30
0.0
 10
116.1816393530469
 20
11.93495063352627
 30
0.0
 10
116.1535055138374
 20
11.8814325388083
 30
0.0
 10
116.1363006572593
 20
11.82387609916042
 30
0.0
 10
116.1341192217639
 20
11.78393472827555
 30
0.0
 10
116.1330128205128
 20
11.76367688301282
 30
0.0
  0
SPLINE
  5
122
330
1F
100
AcDbEntity
  8
0
  6
Continuous
 62
     7
370
    15
100
AcDbSpline
210
0.0
220
0.0
230
1.0
 70
     8
 71
     3
 72
    11
 73
     7
 74
     0
 42
0.000000001
 43
0.00000001
 40
0.0
 40
0.0
 40
0.0
 40
0.0
 40
0.2400399314959925
 40
0.4794031936061127
 40
0.7317567388575682
 40
0.9999999999999999
 40
0.9999999999999999
 40
0.9999999999999999
 40
0.9999999999999999
 10
116.1330128205128
 20
11.76367688301282
 30
0.0
 10
116.134020485925
 20
11.7453416715324
 30
0.0
 10
116.1360329761538
 20
11.70872293528975
 30
0.0
 10
116.1516781780098
 20
11.65470436173443
 30
0.0
 10
116.1765938292013
 20
11.60203833423098
 30
0.0
 10
116.1998803625862
 20
11.56977769775327
 30
0.0
 10
116.2118790064103
 20
11.55315504807692
 30
0.0
  0
SPLINE
  5
123
330
1F
100
AcDbEntity
  8
0
  6
Continuous
 62
     7
370
    15
100
AcDbSpline
210
0.0
220
0.0
230
1.0
 70
     8
 71
     3
 72
    15
 73
    11
 74
     0
 42
0.000000001
 43
0.00000001
 40
0.0
 40
0.0
 40
0.0
 40
0.0
 40
0.0834251049856352
 40
0.177559821465982
 40
0.2839823599504616
 40
0.4022167468072198
 40
0.5335684803800647
 40
0.6761209941988475
 40
0.8316493725539947
 40
1.0
 40
1.0
 40
1.0
 40
1.0
 10
116.2118790064103
 20
11.55315504807692
 30
0.0
 10
116.2191030329031
 20
11.54427903228909
 30
0.0
 10
116.2344784628119
 20
11.52538755137472
 30
0.0
 10
116.2633333299695
 20
11.49916762720308
 30
0.0
 10
116.2960108861356
 20
11.47019144238989
 30
0.0
 10
116.3353082582213
 20
11.44122016884508
 30
0.0
 10
116.3795324049447
 20
11.41071138955078
 30
0.0
 10
116.4296423270529
 20
11.37986659749524
 30
0.0
 10
116.4840477708481
 20
11.34633458348939
 30
0.0
 10
116.5229980418503
 20
11.32506713124611
 30
0.0
 10
116.5432441907051
 20
11.31401241987179
 30
0.0
  0
SPLINE
  5
124
330
1F
100
AcDbEntity
  8
0
  6
Continuous
 62
     7
370
    15
100
AcDbSpline
210
0.0
220
0.0
230
1.0
 70
     8
 71
     3
 72
    15
 73
    11
 74
     0
 42
0.000000001
 43
0.00000001
 40
0.0
 40
0.0
 40
0.0
 40
0.0
 40
0.1589891012267964
 40
0.307114591605569
 40
0.4462131585962184
 40
0.5748760724117336
 40
0.6941521095829556
 40
0.8045811801532424
 40
0.9065933190457676
 40
1.0
 40
1.0
 40
1.0
 40
1.0
 10
116.5432441907051
 20
11.31401241987179
 30
0.0
 10
116.5679307927861
 20
11.30018311517612
 30
0.0
 10
116.615617179197
 20
11.27346945222044
 30
0.0
 10
116.6833741894929
 20
11.23200422117961
 30
0.0
 10
116.7448667195166
 20
11.19079142916005
 30
0.0
 10
116.800615789455
 20
11.15027183071393
 30
0.0
 10
116.8495487160473
 20
11.10931172937583
 30
0.0
 10
116.8931501316671
 20
11.06948112126399
 30
0.0
 10
116.9303325058003
 20
11.02957653446355
 30
0.0
 10
116.9511549964382
 20
11.00169720991091
 30
0.0
 10
116.9611077724359
 20
10.98837139423077
 30
0.0
  0
SPLINE
  5
125
330
1F
100
AcDbEntity
  8
0
  6
Continuous
 62
     7
370
    15
100
AcDbSpline
210
0.0
220
0.0
230
1.0
 70
     8
 71
     3
 72
    11
 73
     7
 74
     0
 42
0.000000001
 43
0.00000001
 40
0.0
 40
0.0
 40
0.0
 40
0.0
 40
0.2488386141270633
 40
0.4952350254576713
 40
0.743335603875006
 40
1.0
 40
1.0
 40
1.0
 40
1.0
 10
116.9611077724359
 20
10.98837139423077
 30
0.0
 10
116.9776273223026
 20
10.96146001435637
 30
0.0
 10
117.0105042924925
 20
10.90790137377341
 30
0.0
 10
117.0450285770633
 20
10.81971037173601
 30
0.0
 10
117.0650403978135
 20
10.72617441595367
 30
0.0
 10
117.0678182690163
 20
10.66219161627639
 30
0.0
 10
117.0692307692308
 20
10.62965745192308
 30
0.0
  0
SPLINE
  5
126
330
1F
100
AcDbEntity
  8
0
  6
Continuous
 62
     7
370
    15
100
AcDbSpline
210
0.0
220
0.0
230
1.0
 70
     8
 71
     3
 72
    23
 73
    19
 74
     0
 42
0.000000001
 43
0.00000001
 40
0.0
 40
0.0
 40
0.0
 40
0.0
 40
0.064548125564251
 40
0.1271991327555113
 40
0.188597338087427
 40
0.2486395150940129
 40
0.3095246994640602
 40
0.3700369910533524
 40
0.431889243607072
 40
0.4957042857252975
 40
0.5595193278435127
 40
0.6213715803972348
 40
0.6823971072916365
 40
0.7435684819321623
 40
0.8054984835712148
 40
0.8686397008205172
 40
0.9330662250811667
 40
1.0
 40
1.0
 40
1.0
 40
1.0
 10
117.0692307692308
 20
10.62965745192308
 30
0.0
 10
117.0685780492696
 20
10.60673472640099
 30
0.0
 10
117.0672917932821
 20
10.56156299164783
 30
0.0
 10
117.0583491182743
 20
10.49503782470476
 30
0.0
 10
117.0429685326096
 20
10.43141576179676
 30
0.0
 10
117.0220191986629
 20
10.37000646781749
 30
0.0
 10
116.9937305175287
 20
10.3119865725931
 30
0.0
 10
116.9605764443986
 20
10.25589226101145
 30
0.0
 10
116.9207756316097
 20
10.20293695236679
 30
0.0
 10
116.8753355980145
 20
10.15319018134829
 30
0.0
 10
116.8255828999049
 20
10.10775525333125
 30
0.0
 10
116.7725094743986
 20
10.06781923803837
 30
0.0
 10
116.7160499637739
 20
10.03464108929347
 30
0.0
 10
116.6566077939122
 20
10.0071860975374
 30
0.0
 10
116.5940479077177
 20
9.985352749257473
 30
0.0
 10
116.528360523865
 20
9.97023745304868
 30
0.0
 10
116.4597544393607
 20
9.961190734056103
 30
0.0
 10
116.4131002562705
 20
9.959934816374389
 30
0.0
 10
116.3893279246795
 20
9.959294871794869
 30
0.0
  0
SPLINE
  5
127
330
1F
100
AcDbEntity
  8
0
  6
Continuous
 62
     7
370
    15
100
AcDbSpline
210
0.0
220
0.0
230
1.0
 70
     8
 71
     3
 72
    15
 73
    11
 74
     0
 42
0.000000001
 43
0.00000001
 40
0.0
 40
0.0
 40
0.0
 40
0.0
 40
0.1267425189618499
 40
0.251723961249609
 40
0.3772186880262351
 40
0.5046935492516365
 40
0.6314582385934822
 40
0.7554010672029525
 40
0.8777005336014826
 40
1.0
 40
1.0
 40
1.0
 40
1.0
 10
116.3893279246795
 20
9.959294871794869
 30
0.0
 10
116.3572448441036
 20
9.960195392804478
 30
0.0
 10
116.2935244746664
 20
9.961983922159769
 30
0.0
 10
116.1992816580101
 20
9.978771563358308
 30
0.0
 10
116.1071878269357
 20
10.00489309931461
 30
0.0
 10
116.0179399010864
 20
10.04092112530089
 30
0.0
 10
115.933533783487
 20
10.08641498625
 30
0.0
 10
115.8563078733133
 20
10.14090015757467
 30
0.0
 10
115.7859939037954
 20
10.20257679807676
 30
0.0
 10
115.7459723269062
 20
10.24985065277772
 30
0.0
 10
115.7259615384616
 20
10.2734875801282
 30
0.0
  0
LINE
  5
128
330
1F
100
AcDbEntity
  8
0
  6
Continuous
 62
     7
370
    15
100
AcDbLine
 10
115.7259615385
 20
10.2734875801
 30
0.0
 11
115.914858774
 21
10.4884615385
 31
0.0
  0
SPLINE
  5
129
330
1F
100
AcDbEntity
  8
0
  6
Continuous
 62
     7
370
    15
100
AcDbSpline
210
0.0
220
0.0
230
1.0
 70
     8
 71
     3
 72
    15
 73
    11
 74
     0
 42
0.000000001
 43
0.00000001
 40
0.0
 40
0.0
 40
0.0
 40
0.0
 40
0.1474758177483481
 40
0.2859041715443706
 40
0.4171716482444279
 40
0.540500743586505
 40
0.6592377183802344
 40
0.7750060983159549
 40
0.8872285734286398
 40
1.0
 40
1.0
 40
1.0
 40
1.0
 10
115.9148587740385
 20
10.48846153846154
 30
0.0
 10
115.9327951772385
 20
10.46908971635417
 30
0.0
 10
115.9675676068863
 20
10.43153451011444
 30
0.0
 10
116.0231765678381
 20
10.38152885821964
 30
0.0
 10
116.0797635959816
 20
10.33961770512131
 30
0.0
 10
116.1367636330883
 20
10.30456260741716
 30
0.0
 10
116.1950204329389
 20
10.27755206312423
 30
0.0
 10
116.2542075258509
 20
10.25857591007765
 30
0.0
 10
116.3142045248209
 20
10.24638010713036
 30
0.0
 10
116.3545017480289
 20
10.24494837959762
 30
0.0
 10
116.3746995192308
 20
10.24423076923077
 30
0.0
  0
SPLINE
  5
12A
330
1F
100
AcDbEntity
  8
0
  6
Continuous
 62
     7
370
    15
100
AcDbSpline
210
0.0
220
0.0
230
1.0
 70
     8
 71
     3
 72
    15
 73
    11
 74
     0
 42
0.000000001
 43
0.00000001
 40
0.0
 40
0.0
 40
0.0
 40
0.0
 40
0.1340420464623699
 40
0.2618956736507445
 40
0.3878360446911191
 40
0.5176862058208266
 40
0.6445086536782145
 40
0.7647182630567247
 40
0.8802907821584985
 40
1.0
 40
1.0
 40
1.0
 40
1.0
 10
116.3746995192308
 20
10.24423076923077
 30
0.0
 10
116.402202209207
 20
10.2454743032111
 30
0.0
 10
116.4559378519298
 20
10.24790396000969
 30
0.0
 10
116.5329032615297
 20
10.26996303635102
 30
0.0
 10
116.6039675869525
 20
10.30455234979233
 30
0.0
 10
116.665674478959
 20
10.35361489740901
 30
0.0
 10
116.7182000107845
 20
10.41072459541013
 30
0.0
 10
116.7562348547115
 20
10.47505383220403
 30
0.0
 10
116.7800710995938
 20
10.54471465362925
 30
0.0
 10
116.7828705412318
 20
10.59300395671942
 30
0.0
 10
116.7842948717949
 20
10.61757311698718
 30
0.0
  0
SPLINE
  5
12B
330
1F
100
AcDbEntity
  8
0
  6
Continuous
 62
     7
370
    15
100
AcDbSpline
210
0.0
220
0.0
230
1.0
 70
     8
 71
     3
 72
    11
 73
     7
 74
     0
 42
0.000000001
 43
0.00000001
 40
0.0
 40
0.0
 40
0.0
 40
0.0
 40
0.2534754346498623
 40
0.5004533151029001
 40
0.7455781350009854
 40
0.9999999999999999
 40
0.9999999999999999
 40
0.9999999999999999
 40
0.9999999999999999
 10
116.7842948717949
 20
10.61757311698718
 30
0.0
 10
116.7833094476447
 20
10.63781112820207
 30
0.0
 10
116.7813638595705
 20
10.67776837225442
 30
0.0
 10
116.7660846056807
 20
10.73559903877302
 30
0.0
 10
116.741942946845
 20
10.79045331482061
 30
0.0
 10
116.718171587267
 20
10.82255678053277
 30
0.0
 10
116.7060647035257
 20
10.83890725160256
 30
0.0
  0
SPLINE
  5
12C
330
1F
100
AcDbEntity
  8
0
  6
Continuous
 62
     7
370
    15
100
AcDbSpline
210
0.0
220
0.0
230
1.0
 70
     8
 71
     3
 72
    15
 73
    11
 74
     0
 42
0.000000001
 43
0.00000001
 40
0.0
 40
0.0
 40
0.0
 40
0.0
 40
0.0768750740350466
 40
0.1674616757257128
 40
0.2722700232466432
 40
0.3895508405125283
 40
0.5208013683480445
 40
0.6662632933752336
 40
0.8255449152058757
 40
1.0
 40
1.0
 40
1.0
 40
1.0
 10
116.7060647035257
 20
10.83890725160256
 30
0.0
 10
116.6987872457237
 20
10.84710361584023
 30
0.0
 10
116.6829343142782
 20
10.86495825737817
 30
0.0
 10
116.6538556311302
 20
10.89074386463123
 30
0.0
 10
116.6190377989908
 20
10.91853699743457
 30
0.0
 10
116.5780892226167
 20
10.94786636740043
 30
0.0
 10
116.5309273535733
 20
10.97834510220117
 30
0.0
 10
116.4773610437554
 20
11.00981330031323
 30
0.0
 10
116.4181241139436
 20
11.04376559442132
 30
0.0
 10
116.3762407555338
 20
11.06628056748274
 30
0.0
 10
116.3543469551282
 20
11.07804987980769
 30
0.0
  0
SPLINE
  5
12D
330
1F
100
AcDbEntity
  8
0
  6
Continuous
 62
     7
370
    15
100
AcDbSpline
210
0.0
220
0.0
230
1.0
 70
     8
 71
     3
 72
    15
 73
    11
 74
     0
 42
0.000000001
 43
0.00000001
 40
0.0
 40
0.0
 40
0.0
 40
0.0
 40
0.1577616635135483
 40
0.3059502132085515
 40
0.4437754990007193
 40
0.5728243624015458
 40
0.6921541564432365
 40
0.802295706990839
 40
0.9055643918329935
 40
1.0
 40
1.0
 40
1.0
 40
1.0
 10
116.3543469551282
 20
11.07804987980769
 30
0.0
 10
116.3307189316639
 20
11.091238949246
 30
0.0
 10
116.2848966535793
 20
11.11681676401294
 30
0.0
 10
116.2199930396589
 20
11.15665492253299
 30
0.0
 10
116.1614393683319
 20
11.19717452170716
 30
0.0
 10
116.1078267042643
 20
11.23610259731231
 30
0.0
 10
116.0605092205426
 20
11.27549159646472
 30
0.0
 10
116.0196733245803
 20
11.31538524601019
 30
0.0
 10
115.9837112645045
 20
11.35417466195355
 30
0.0
 10
115.9638018267197
 20
11.38165863816836
 30
0.0
 10
115.9542918669872
 20
11.39478665865384
 30
0.0
  0
SPLINE
  5
12E
330
1F
100
AcDbEntity
  8
0
  6
Continuous
 62
     7
370
    15
100
AcDbSpline
210
0.0
220
0.0
230
1.0
 70
     8
 71
     3
 72
    11
 73
     7
 74
     0
 42
0.000000001
 43
0.00000001
 40
0.0
 40
0.0
 40
0.0
 40
0.0
 40
0.246252370692976
 40
0.4925907964763721
 40
0.7405699911180886
 40
1.0
 40
1.0
 40
1.0
 40
1.0
 10
115.9542918669872
 20
11.39478665865384
 30
0.0
 10
115.9378448230133
 20
11.4212258951505
 30
0.0
 10
115.904944987499
 20
11.47411360757117
 30
0.0
 10
115.8729997783588
 20
11.56238811146384
 30
0.0
 10
115.8510414521632
 20
11.65532041346973
 30
0.0
 10
115.8490798553667
 20
11.71944348848367
 30
0.0
 10
115.8480769230769
 20
11.75222856570513
 30
0.0
  0
SPLINE
  5
12F
330
1F
100
AcDbEntity
  8
0
  6
Continuous
 62
     7
370
    15
100
AcDbSpline
210
0.0
220
0.0
230
1.0
 70
     8
 71
     3
 72
    15
 73
    11
 74
     0
 42
0.000000001
 43
0.00000001
 40
0.0
 40
0.0
 40
0.0
 40
0.0
 40
0.1318667517023655
 40
0.2566614034533689
 40
0.3842132129425007
 40
0.5133652331525831
 40
0.6404431518253874
 40
0.7610850047778875
 40
0.8791455246531654
 40
1.0
 40
1.0
 40
1.0
 40
1.0
 10
117.739593349359
 20
12.80865384615385
 30
0.0
 10
117.7221142711721
 20
12.80944280664066
 30
0.0
 10
117.6880935291683
 20
12.81097841514849
 30
0.0
 10
117.6387750364721
 20
12.8251026455236
 30
0.0
 10
117.5935734782367
 20
12.84815865469333
 30
0.0
 10
117.5530562394681
 20
12.8792066940297
 30
0.0
 10
117.5192831356983
 20
12.91634956508805
 30
0.0
 10
117.4947010833742
 20
12.95837503880129
 30
0.0
 10
117.4792116536637
 20
13.00392191477618
 30
0.0
 10
117.4772661691347
 20
13.0355922370709
 30
0.0
 10
117.4762820512821
 20
13.05161258012821
 30
0.0
  0
SPLINE
  5
130
330
1F
100
AcDbEntity
  8
0
  6
Continuous
 62
     7
370
    15
100
AcDbSpline
210
0.0
220
0.0
230
1.0
 70
     8
 71
     3
 72
    15
 73
    11
 74
     0
 42
0.000000001
 43
0.00000001
 40
0.0
 40
0.0
 40
0.0
 40
0.0
 40
0.1232898687277962
 40
0.2421490813339692
 40
0.3634374760537338
 40
0.4897453933413771
 40
0.618114844593007
 40
0.7448937812572439
 40
0.8689322665891516
 40
1.0
 40
1.0
 40
1.0
 40
1.0
 10
117.4762820512821
 20
13.05161258012821
 30
0.0
 10
117.4772446084274
 20
13.06805985083925
 30
0.0
 10
117.4791351313946
 20
13.10036332828007
 30
0.0
 10
117.4947126938917
 20
13.14671382242502
 30
0.0
 10
117.519078376647
 20
13.18933275620358
 30
0.0
 10
117.5530786021382
 20
13.22654874496856
 30
0.0
 10
117.593567526812
 20
13.25761424650909
 30
0.0
 10
117.6387765742131
 20
13.28066563687177
 30
0.0
 10
117.6880931229351
 20
13.29479106615767
 30
0.0
 10
117.7221141332962
 20
13.29632650916099
 30
0.0
 10
117.739593349359
 20
13.29711538461538
 30
0.0
  0
SPLINE
  5
131
330
1F
100
AcDbEntity
  8
0
  6
Continuous
 62
     7
370
    15
100
AcDbSpline
210
0.0
220
0.0
230
1.0
 70
     8
 71
     3
 72
    15
 73
    11
 74
     0
 42
0.000000001
 43
0.00000001
 40
0.0
 40
0.0
 40
0.0
 40
0.0
 40
0.1318992643310742
 40
0.2582840923169646
 40
0.384341124779093
 40
0.5119796151257079
 40
0.6386320084211341
 40
0.7592297631645823
 40
0.8774121680352011
 40
0.9999999999999999
 40
0.9999999999999999
 40
0.9999999999999999
 40
0.9999999999999999
 10
117.739593349359
 20
13.29711538461538
 30
0.0
 10
117.7572747572525
 20
13.29629518922782
 30
0.0
 10
117.7918983498239
 20
13.29468908913111
 30
0.0
 10
117.8419665283588
 20
13.28093546349551
 30
0.0
 10
117.8875568178843
 20
13.25762217741371
 30
0.0
 10
117.9279951898629
 20
13.22634418116819
 30
0.0
 10
117.9626951156378
 20
13.18956004317301
 30
0.0
 10
117.9869890457641
 20
13.14668759336233
 30
0.0
 10
118.0026031479544
 20
13.10037011388958
 30
0.0
 10
118.0044886945276
 20
13.06806214013245
 30
0.0
 10
118.0054487179487
 20
13.0516125801282
 30
0.0
  0
SPLINE
  5
132
330
1F
100
AcDbEntity
  8
0
  6
Continuous
 62
     7
370
    15
100
AcDbSpline
210
0.0
220
0.0
230
1.0
 70
     8
 71
     3
 72
    15
 73
    11
 74
     0
 42
0.000000001
 43
0.00000001
 40
0.0
 40
0.0
 40
0.0
 40
0.0
 40
0.1201621349925895
 40
0.2375463202768791
 40
0.3574970509273692
 40
0.484917122465276
 40
0.6133292680851364
 40
0.7401503701286989
 40
0.867301254563267
 40
1.0
 40
1.0
 40
1.0
 40
1.0
 10
118.0054487179487
 20
13.0516125801282
 30
0.0
 10
118.0044670443934
 20
13.03559003047301
 30
0.0
 10
118.0025263919506
 20
13.0039153459954
 30
0.0
 10
117.9870011061798
 20
12.95840083920501
 30
0.0
 10
117.9624880761369
 20
12.91612409633081
 30
0.0
 10
117.9280174407475
 20
12.87941138063825
 30
0.0
 10
117.8875509218386
 20
12.84815067536115
 30
0.0
 10
117.8419680946746
 20
12.82483280506873
 30
0.0
 10
117.7918979378078
 20
12.81108039474412
 30
0.0
 10
117.7572746179728
 20
12.80947412710244
 30
0.0
 10
117.739593349359
 20
12.80865384615385
 30
0.0
  0
LINE
  5
133
330
1F
100
AcDbEntity
  8
0
  6
Continuous
 62
     7
370
    15
100
AcDbLine
 10
117.8833333333
 20
10.0
 30
0.0
 11
117.5983974359
 21
10.0
 31
0.0
  0
LINE
  5
134
330
1F
100
AcDbEntity
  8
0
  6
Continuous
 62
     7
370
    15
100
AcDbLine
 10
117.5983974359
 20
10.0
 30
0.0
 11
117.5983974359
 21
12.3201923077
 31
0.0
  0
LINE
  5
135
330
1F
100
AcDbEntity
  8
0
  6
Continuous
 62
     7
370
    15
100
AcDbLine
 10
117.5983974359
 20
12.3201923077
 30
0.0
 11
117.8833333333
 21
12.3201923077
 31
0.0
  0
LINE
  5
136
330
1F
100
AcDbEntity
  8
0
  6
Continuous
 62
     7
370
    15
100
AcDbLine
 10
117.8833333333
 20
12.3201923077
 30
0.0
 11
117.8833333333
 21
10.0
 31
0.0
  0
LINE
  5
137
330
1F
100
AcDbEntity
  8
0
  6
Continuous
 62
     7
370
    15
100
AcDbLine
 10
118.8602564103
 20
10.0
 30
0.0
 11
118.5753205128
 21
10.0
 31
0.0
  0
LINE
  5
138
330
1F
100
AcDbEntity
  8
0
  6
Continuous
 62
     7
370
    15
100
AcDbLine
 10
118.5753205128
 20
10.0
 30
0.0
 11
118.5753205128
 21
12.3201923077
 31
0.0
  0
LINE
  5
139
330
1F
100
AcDbEntity
  8
0
  6
Continuous
 62
     7
370
    15
100
AcDbLine
 10
118.5753205128
 20
12.3201923077
 30
0.0
 11
118.8602564103
 21
12.3201923077
 31
0.0
  0
LINE
  5
13A
330
1F
100
AcDbEntity
  8
0
  6
Continuous
 62
     7
370
    15
100
AcDbLine
 10
118.8602564103
 20
12.3201923077
 30
0.0
 11
118.8602564103
 21
11.9016927083
 31
0.0
  0
SPLINE
  5
13B
330
1F
100
AcDbEntity
  8
0
  6
Continuous
 62
     7
370
    15
100
AcDbSpline
210
0.0
220
0.0
230
1.0
 70
     8
 71
     3
 72
    15
 73
    11
 74
     0
 42
0.000000001
 43
0.00000001
 40
0.0
 40
0.0
 40
0.0
 40
0.0
 40
0.1409759662687707
 40
0.2735687809631759
 40
0.3989883138042535
 40
0.519929781392431
 40
0.638110021524754
 40
0.7565889007405964
 40
0.8768597544106093
 40
1.0
 40
1.0
 40
1.0
 40
1.0
 10
118.8602564102565
 20
11.90169270833333
 30
0.0
 10
118.890679836412
 20
11.93965003547889
 30
0.0
 10
118.9497175562899
 20
12.0133075530733
 30
0.0
 10
119.0480376300469
 20
12.11011835999566
 30
0.0
 10
119.1519453110539
 20
12.18989724271485
 30
0.0
 10
119.2608042713601
 20
12.25349139865007
 30
0.0
 10
119.374762287665
 20
12.30143083808492
 30
0.0
 10
119.4931247182744
 20
12.3360527898555
 30
0.0
 10
119.6166002016541
 20
12.35681259860215
 30
0.0
 10
119.7005693693893
 20
12.35952516465958
 30
0.0
 10
119.7430488782052
 20
12.36089743589744
 30
0.0
  0
SPLINE
  5
13C
330
1F
100
AcDbEntity
  8
0
  6
Continuous
 62
     7
370
    15
100
AcDbSpline
210
0.0
220
0.0
230
1.0
 70
     8
 71
     3
 72
    23
 73
    19
 74
     0
 42
0.000000001
 43
0.00000001
 40
0.0
 40
0.0
 40
0.0
 40
0.0
 40
0.0772404236164825
 40
0.1511781404663827
 40
0.2234879838004036
 40
0.2955426441988709
 40
0.3669762546197929
 40
0.4371305254863884
 40
0.5070436156432694
 40
0.5785597335236775
 40
0.6166135446965532
 40
0.6587562369775294
 40
0.704491226114404
 40
0.7548031149051501
 40
0.8093316253185657
 40
0.8682744554728212
 40
0.9320728834092935
 40
1.0
 40
1.0
 40
1.0
 40
1.0
 10
119.7430488782052
 20
12.36089743589744
 30
0.0
 10
119.785984524868
 20
12.35931429431864
 30
0.0
 10
119.8700199420538
 20
12.35621570437348
 30
0.0
 10
119.9923736120218
 20
12.33170770600846
 30
0.0
 10
120.1066494762948
 20
12.2898473674311
 30
0.0
 10
120.2124400733311
 20
12.23250498927975
 30
0.0
 10
120.3078054740244
 20
12.16119768840631
 30
0.0
 10
120.3915573035778
 20
12.0781235578105
 30
0.0
 10
120.4608296779846
 20
11.98256868230391
 30
0.0
 10
120.5072730001343
 20
11.89391981914643
 30
0.0
 10
120.5378669805397
 20
11.81528069862753
 30
0.0
 10
120.5571277438558
 20
11.7479282896093
 30
0.0
 10
120.573484419894
 20
11.6728911096202
 30
0.0
 10
120.5876646484529
 20
11.590395910978
 30
0.0
 10
120.5972595999327
 20
11.49986469553479
 30
0.0
 10
120.6048272501074
 20
11.40166857488678
 30
0.0
 10
120.6102507799261
 20
11.29583935650865
 30
0.0
 10
120.6104659605498
 20
11.22264505878683
 30
0.0
 10
120.610576923077
 20
11.18490084134615
 30
0.0
  0
LINE
  5
13D
330
1F
100
AcDbEntity
  8
0
  6
Continuous
 62
     7
370
    15
100
AcDbLine
 10
120.6105769231
 20
11.1849008413
 30
0.0
 11
120.6105769231
 21
10.0
 31
0.0
  0
LINE
  5
13E
330
1F
100
AcDbEntity
  8
0
  6
Continuous
 62
     7
370
    15
100
AcDbLine
 10
120.6105769231
 20
10.0
 30
0.0
 11
120.3256410256
 21
10.0
 31
0.0
  0
LINE
  5
13F
330
1F
100
AcDbEntity
  8
0
  6
Continuous
 62
     7
370
    15
100
AcDbLine
 10
120.3256410256
 20
10.0
 30
0.0
 11
120.3256410256
 21
11.09140625
 31
0.0
  0
SPLINE
  5
140
330
1F
100
AcDbEntity
  8
0
  6
Continuous
 62
     7
370
    15
100
AcDbSpline
210
0.0
220
0.0
230
1.0
 70
     8
 71
     3
 72
    15
 73
    11
 74
     0
 42
0.000000001
 43
0.00000001
 40
0.0
 40
0.0
 40
0.0
 40
0.0
 40
0.1788500194111608
 40
0.3421096489423008
 40
0.4898256633683922
 40
0.6232544282245651
 40
0.7400796760857957
 40
0.8414826730699845
 40
0.9289076721840664
 40
1.0
 40
1.0
 40
1.0
 40
1.0
 10
120.3256410256411
 20
11.09140625
 30
0.0
 10
120.3254657583668
 20
11.12299518218537
 30
0.0
 10
120.3251305018994
 20
11.18341943338747
 30
0.0
 10
120.3240730938355
 20
11.26993276156728
 30
0.0
 10
120.3215241978457
 20
11.34838844340409
 30
0.0
 10
120.3179425139862
 20
11.41859891240757
 30
0.0
 10
120.3127001077204
 20
11.48049674986148
 30
0.0
 10
120.30723672071
 20
11.5342080223314
 30
0.0
 10
120.3005556346156
 20
11.57966453582402
 30
0.0
 10
120.2946021348412
 20
11.60702857484301
 30
0.0
 10
120.2919320913462
 20
11.61930088141025
 30
0.0
  0
SPLINE
  5
141
330
1F
100
AcDbEntity
  8
0
  6
Continuous
 62
     7
370
    15
100
AcDbSpline
210
0.0
220
0.0
230
1.0
 70
     8
 71
     3
 72
    15
 73
    11
 74
     0
 42
0.000000001
 43
0.00000001
 40
0.0
 40
0.0
 40
0.0
 40
0.0
 40
0.1355195283706071
 40
0.2608331631936783
 40
0.3784760291245001
 40
0.4931776464746775
 40
0.609280964928941
 40
0.7299810378566484
 40
0.8592613089300682
 40
1.0
 40
1.0
 40
1.0
 40
1.0
 10
120.2919320913462
 20
11.61930088141025
 30
0.0
 10
120.2822932163369
 20
11.65532459918419
 30
0.0
 10
120.2637413641534
 20
11.72465911037934
 30
0.0
 10
120.2178998223185
 20
11.81870655882879
 30
0.0
 10
120.1600112440328
 20
11.89871491493109
 30
0.0
 10
120.0893467663944
 20
11.96418951240464
 30
0.0
 10
120.0065889620634
 20
12.01514448570133
 30
0.0
 10
119.9119674825526
 20
12.05049943034659
 30
0.0
 10
119.8063954299428
 20
12.07261218883417
 30
0.0
 10
119.7321418113747
 20
12.07481394430522
 30
0.0
 10
119.6934395032052
 20
12.07596153846154
 30
0.0
  0
SPLINE
  5
142
330
1F
100
AcDbEntity
  8
0
  6
Continuous
 62
     7
370
    15
100
AcDbSpline
210
0.0
220
0.0
230
1.0
 70
     8
 71
     3
 72
    23
 73
    19
 74
     0
 42
0.000000001
 43
0.00000001
 40
0.0
 40
0.0
 40
0.0
 40
0.0
 40
0.0639861098164609
 40
0.1266268580894719
 40
0.1889843719814867
 40
0.2502301939603992
 40
0.3123511629623275
 40
0.3745736184579437
 40
0.4381475308782029
 40
0.502920412607369
 40
0.5679740951402691
 40
0.6307713337491887
 40
0.6929346089254614
 40
0.7543975343123275
 40
0.8152183520172943
 40
0.8761169254810909
 40
0.9380146047939537
 40
1.0
 40
1.0
 40
1.0
 40
1.0
 10
119.6934395032052
 20
12.07596153846154
 30
0.0
 10
119.6705181045065
 20
12.07552973423104
 30
0.0
 10
119.625157248712
 20
12.0746752048156
 30
0.0
 10
119.55789263134
 20
12.06610152732332
 30
0.0
 10
119.4926471313857
 20
12.05207849974481
 30
0.0
 10
119.4287659417976
 20
12.03314766429915
 30
0.0
 10
119.3675267289094
 20
12.00714689150429
 30
0.0
 10
119.3069619790531
 20
11.97763810565741
 30
0.0
 10
119.2493522715924
 20
11.940855084785
 30
0.0
 10
119.1934691899116
 20
11.89986073533608
 30
0.0
 10
119.1414782858262
 20
11.8544317402354
 30
0.0
 10
119.0931018645537
 20
11.806494220311
 30
0.0
 10
119.0499780890402
 20
11.75544420829598
 30
0.0
 10
119.01090864789
 20
11.7021042558946
 30
0.0
 10
118.9771826518261
 20
11.64574180285438
 30
0.0
 10
118.9477430647981
 20
11.5869006105486
 30
0.0
 10
118.9227642559513
 20
11.52550323268696
 30
0.0
 10
118.9103520992108
 20
11.48289014142763
 30
0.0
 10
118.9041416266026
 20
11.46156850961538
 30
0.0
  0
SPLINE
  5
143
330
1F
100
AcDbEntity
  8
0
  6
Continuous
 62
     7
370
    15
100
AcDbSpline
210
0.0
220
0.0
230
1.0
 70
     8
 71
     3
 72
    15
 73
    11
 74
     0
 42
0.000000001
 43
0.00000001
 40
0.0
 40
0.0
 40
0.0
 40
0.0
 40
0.0769954547170585
 40
0.1676150771831721
 40
0.2710523936342354
 40
0.3894595025720743
 40
0.5208428024655756
 40
0.6663987586080743
 40
0.8260936125153175
 40
1.0
 40
1.0
 40
1.0
 40
1.0
 10
118.9041416266026
 20
11.46156850961538
 30
0.0
 10
118.9005678025375
 20
11.44591557541649
 30
0.0
 10
118.8927877744993
 20
11.41183995649157
 30
0.0
 10
118.884384747056
 20
11.35591966176413
 30
0.0
 10
118.8767578750845
 20
11.29123132730696
 30
0.0
 10
118.8703743483376
 20
11.21785043969202
 30
0.0
 10
118.8664687205393
 20
11.13552008154968
 30
0.0
 10
118.8622102320374
 20
11.04459185725605
 30
0.0
 10
118.8606598694987
 20
10.94470319281875
 30
0.0
 10
118.8603946626399
 20
10.875160085847
 30
0.0
 10
118.8602564102565
 20
10.83890725160256
 30
0.0
  0
LINE
  5
144
330
1F
100
AcDbEntity
  8
0
  6
Continuous
 62
     7
370
    15
100
AcDbLine
 10
118.8602564103
 20
10.8389072516
 30
0.0
 11
118.8602564103
 21
10.0
 31
0.0
  0
SPLINE
  5
145
330
1F
100
AcDbEntity
  8
0
  6
Continuous
 62
     7
370
    15
100
AcDbSpline
210
0.0
220
0.0
230
1.0
 70
     8
 71
     3
 72
    23
 73
    19
 74
     0
 42
0.000000001
 43
0.00000001
 40
0.0
 40
0.0
 40
0.0
 40
0.0
 40
0.0683846151037683
 40
0.1344755875434522
 40
0.1983910577839538
 40
0.2607534774484859
 40
0.3218292228076516
 40
0.3830372384795195
 40
0.444653123106426
 40
0.5073980112040091
 40
0.5698252379730236
 40
0.6307776406313147
 40
0.6909286865237128
 40
0.7509451326917347
 40
0.8110494767293212
 40
0.8723308525469916
 40
0.9350040935893994
 40
1.0
 40
1.0
 40
1.0
 40
1.0
 10
132.1301282051282
 20
11.09903846153846
 30
0.0
 10
132.1315248481032
 20
11.06846732611429
 30
0.0
 10
132.1342712901847
 20
11.0083504212842
 30
0.0
 10
132.1470757414858
 20
10.92038406805939
 30
0.0
 10
132.1672585576952
 20
10.83658825052524
 30
0.0
 10
132.1956240645173
 20
10.75759149102074
 30
0.0
 10
132.2299747027129
 20
10.68236201820331
 30
0.0
 10
132.2720531743686
 20
10.61145788466746
 30
0.0
 10
132.3222540554541
 20
10.54520204812221
 30
0.0
 10
132.3782480827528
 20
10.48300185901987
 30
0.0
 10
132.4405752335215
 20
10.42761102567487
 30
0.0
 10
132.5061460113579
 20
10.3780340572338
 30
0.0
 10
132.5758994595981
 20
10.33648183734357
 30
0.0
 10
132.6492855781962
 20
10.30275436592439
 30
0.0
 10
132.7261856975769
 20
10.27635077921362
 30
0.0
 10
132.8066240460034
 20
10.25832782759412
 30
0.0
 10
132.890442337268
 20
10.24625638064335
 30
0.0
 10
132.9475793959978
 20
10.24491411292573
 30
0.0
 10
132.9766676682692
 20
10.24423076923077
 30
0.0
  0
SPLINE
  5
146
330
1F
100
AcDbEntity
  8
0
  6
Continuous
 62
     7
370
    15
100
AcDbSpline
210
0.0
220
0.0
230
1.0
 70
     8
 71
     3
 72
    19
 73
    15
 74
     0
 42
0.000000001
 43
0.00000001
 40
0.0
 40
0.0
 40
0.0
 40
0.0
 40
0.0825922633314241
 40
0.1638788940984792
 40
0.2456587396295088
 40
0.3277256953541289
 40
0.4086099609103128
 40
0.4857490859539325
 40
0.5591690561972843
 40
0.6302684758575516
 40
0.7053060284320597
 40
0.7920649660965958
 40
0.8897964374100853
 40
1.0
 40
1.0
 40
1.0
 40
1.0
 10
132.9766676682692
 20
10.24423076923077
 30
0.0
 10
133.0051076378814
 20
10.24478236348653
 30
0.0
 10
133.0615379932228
 20
10.24587683230212
 30
0.0
 10
133.1455764852413
 20
10.25651935148569
 30
0.0
 10
133.2282530565251
 20
10.27372810151338
 30
0.0
 10
133.3092255199175
 20
10.29721402108927
 30
0.0
 10
133.3868505015705
 20
10.32585873692896
 30
0.0
 10
133.458737536269
 20
10.36042347208205
 30
0.0
 10
133.5248503033012
 20
10.39865931377027
 30
0.0
 10
133.5866421229902
 20
10.44239237613563
 30
0.0
 10
133.6465779526738
 20
10.49592123148837
 30
0.0
 10
133.7060343510643
 20
10.56271934981372
 30
0.0
 10
133.7697853151867
 20
10.64172017858884
 30
0.0
 10
133.8096901600329
 20
10.70117946129738
 30
0.0
 10
133.8308393429487
 20
10.73269230769231
 30
0.0
  0
LINE
  5
147
330
1F
100
AcDbEntity
  8
0
  6
Continuous
 62
     7
370
    15
100
AcDbLine
 10
133.8308393429
 20
10.7326923077
 30
0.0
 11
134.083974359
 21
10.5997646234
 31
0.0
  0
SPLINE
  5
148
330
1F
100
AcDbEntity
  8
0
  6
Continuous
 62
     7
370
    15
100
AcDbSpline
210
0.0
220
0.0
230
1.0
 70
     8
 71
     3
 72
    19
 73
    15
 74
     0
 42
0.000000001
 43
0.00000001
 40
0.0
 40
0.0
 40
0.0
 40
0.0
 40
0.0933698567362019
 40
0.1816607660710118
 40
0.2658742270426184
 40
0.3463547840343196
 40
0.4245998617178918
 40
0.5019031838373846
 40
0.5799920909873517
 40
0.6584434305294391
 40
0.7386722364878308
 40
0.8218941484362524
 40
0.9088007920466179
 40
1.0
 40
1.0
 40
1.0
 40
1.0
 10
134.0839743589743
 20
10.59976462339743
 30
0.0
 10
134.0638025904352
 20
10.56398388716911
 30
0.0
 10
134.0245563170241
 20
10.49436874389876
 30
0.0
 10
133.9570642100089
 20
10.39872698475624
 30
0.0
 10
133.8863142584558
 20
10.31268655681677
 30
0.0
 10
133.8091128017669
 20
10.23854608471641
 30
0.0
 10
133.7277695930015
 20
10.17391089977551
 30
0.0
 10
133.6418335418744
 20
10.11736158735191
 30
0.0
 10
133.5508572572145
 20
10.06917550103819
 30
0.0
 10
133.4548364354514
 20
10.02857856503933
 30
0.0
 10
133.352964699773
 20
9.997364238241417
 30
0.0
 10
133.2449951813154
 20
9.975316837834518
 30
0.0
 10
133.1307210390789
 20
9.961688586987329
 30
0.0
 10
133.0523927187703
 20
9.960105494996712
 30
0.0
 10
133.0122846554487
 20
9.959294871794869
 30
0.0
  0
SPLINE
  5
149
330
1F
100
AcDbEntity
  8
0
  6
Continuous
 62
     7
370
    15
100
AcDbSpline
210
0.0
220
0.0
230
1.0
 70
     8
 71
     3
 72
    23
 73
    19
 74
     0
 42
0.000000001
 43
0.00000001
 40
0.0
 40
0.0
 40
0.0
 40
0.0
 40
0.0715786576891423
 40
0.1396292246928492
 40
0.2047966973966681
 40
0.2681349633966843
 40
0.3298137469867347
 40
0.3913013977745654
 40
0.4534335150970589
 40
0.5165516903197732
 40
0.5796312707049229
 40
0.6411189214927562
 40
0.7012940466987764
 40
0.7608103356761373
 40
0.819931721778144
 40
0.8789195754993845
 40
0.9389828222504475
 40
1.0
 40
1.0
 40
1.0
 40
1.0
 10
133.0122846554487
 20
9.959294871794869
 30
0.0
 10
132.9677058615416
 20
9.960335523700982
 30
0.0
 10
132.880745549181
 20
9.962365534091184
 30
0.0
 10
132.7541630643001
 20
9.979866555399594
 30
0.0
 10
132.6349831633251
 20
10.00841648078599
 30
0.0
 10
132.5232125467115
 20
10.04829950771023
 30
0.0
 10
132.4191249318733
 20
10.10039429456356
 30
0.0
 10
132.322513442151
 20
10.16385753877122
 30
0.0
 10
132.2328700151128
 20
10.23836322695298
 30
0.0
 10
132.1530194824948
 20
10.32455671497328
 30
0.0
 10
132.0811339603218
 20
10.41679677623413
 30
0.0
 10
132.0177012522009
 20
10.51291390001782
 30
0.0
 10
131.9646720111776
 20
10.61266625364774
 30
0.0
 10
131.9215350005
 20
10.71541880045867
 30
0.0
 10
131.8866963015631
 20
10.8205239038871
 30
0.0
 10
131.8624150774296
 20
10.92893787803916
 30
0.0
 10
131.8484180917603
 20
11.04036730088561
 30
0.0
 10
131.8462732018799
 20
11.11574845542957
 30
0.0
 10
131.8451923076923
 20
11.1537359775641
 30
0.0
  0
SPLINE
  5
14A
330
1F
100
AcDbEntity
  8
0
  6
Continuous
 62
     7
370
    15
100
AcDbSpline
210
0.0
220
0.0
230
1.0
 70
     8
 71
     3
 72
    15
 73
    11
 74
     0
 42
0.000000001
 43
0.00000001
 40
0.0
 40
0.0
 40
0.0
 40
0.0
 40
0.128044807961119
 40
0.2537679000244887
 40
0.3774284265813019
 40
0.5005508414825333
 40
0.6232958832424751
 40
0.7465783319335029
 40
0.8723475406047054
 40
1.0
 40
1.0
 40
1.0
 40
1.0
 10
131.8451923076923
 20
11.1537359775641
 30
0.0
 10
131.846153100185
 20
11.18938200230004
 30
0.0
 10
131.8480572640252
 20
11.26002771598028
 30
0.0
 10
131.8600594783038
 20
11.3645900313756
 30
0.0
 10
131.8813304298727
 20
11.46621584188365
 30
0.0
 10
131.9105189523122
 20
11.56498959111256
 30
0.0
 10
131.9482118684928
 20
11.66074589836956
 30
0.0
 10
131.9943239530674
 20
11.75354304179912
 30
0.0
 10
132.048927038633
 20
11.84328227581542
 30
0.0
 10
132.0910843926835
 20
11.89989083282178
 30
0.0
 10
132.1123197115384
 20
11.92840544871795
 30
0.0
  0
SPLINE
  5
14B
330
1F
100
AcDbEntity
  8
0
  6
Continuous
 62
     7
370
    15
100
AcDbSpline
210
0.0
220
0.0
230
1.0
 70
     8
 71
     3
 72
    15
 73
    11
 74
     0
 42
0.000000001
 43
0.00000001
 40
0.0
 40
0.0
 40
0.0
 40
0.0
 40
0.1288352544875554
 40
0.2535893349864604
 40
0.3746432573141587
 40
0.4953400422377849
 40
0.6163247746357895
 40
0.7397593354404955
 40
0.8668423203805368
 40
1.0
 40
1.0
 40
1.0
 40
1.0
 10
132.1123197115384
 20
11.92840544871795
 30
0.0
 10
132.1410831094851
 20
11.96275792372639
 30
0.0
 10
132.1976987539083
 20
12.03037467449217
 30
0.0
 10
132.2934534476936
 20
12.11921872716552
 30
0.0
 10
132.3971400543756
 20
12.19364415179042
 30
0.0
 10
132.5074591723379
 20
12.25533633957294
 30
0.0
 10
132.6256929738072
 20
12.30221171934496
 30
0.0
 10
132.7502521163912
 20
12.33714359751282
 30
0.0
 10
132.8825548981825
 20
12.356717936093
 30
0.0
 10
132.9730017770858
 20
12.35948275659295
 30
0.0
 10
133.0192808493589
 20
12.36089743589744
 30
0.0
  0
SPLINE
  5
14C
330
1F
100
AcDbEntity
  8
0
  6
Continuous
 62
     7
370
    15
100
AcDbSpline
210
0.0
220
0.0
230
1.0
 70
     8
 71
     3
 72
    15
 73
    11
 74
     0
 42
0.000000001
 43
0.00000001
 40
0.0
 40
0.0
 40
0.0
 40
0.0
 40
0.1320402344259799
 40
0.2590328407793645
 40
0.3818798239250089
 40
0.5022584437149753
 40
0.6227521895274665
 40
0.7447426318590069
 40
0.8701089273418204
 40
1.0
 40
1.0
 40
1.0
 40
1.0
 10
133.0192808493589
 20
12.36089743589744
 30
0.0
 10
133.0668583198844
 20
12.35966912011638
 30
0.0
 10
133.1601944715574
 20
12.35725944455405
 30
0.0
 10
133.2962950384979
 20
12.3349198421044
 30
0.0
 10
133.4250736885026
 20
12.29949359617903
 30
0.0
 10
133.5464788888398
 20
12.24946122908212
 30
0.0
 10
133.6605229482371
 20
12.18490934995799
 30
0.0
 10
133.7664645789226
 20
12.10495210804313
 30
0.0
 10
133.8661155938777
 20
12.01204427177468
 30
0.0
 10
133.9240898046935
 20
11.94059478893706
 30
0.0
 10
133.9535907451923
 20
11.90423677884615
 30
0.0
  0
SPLINE
  5
14D
330
1F
100
AcDbEntity
  8
0
  6
Continuous
 62
     7
370
    15
100
AcDbSpline
210
0.0
220
0.0
230
1.0
 70
     8
 71
     3
 72
    15
 73
    11
 74
     0
 42
0.000000001
 43
0.00000001
 40
0.0
 40
0.0
 40
0.0
 40
0.0
 40
0.1185218400132627
 40
0.2362547631617526
 40
0.3561744339909396
 40
0.4772496548985591
 40
0.6015398708217041
 40
0.7296183821680466
 40
0.8621582661414393
 40
1.0
 40
1.0
 40
1.0
 40
1.0
 10
133.9535907451923
 20
11.90423677884615
 30
0.0
 10
133.9736630392329
 20
11.87683781573144
 30
0.0
 10
134.0136740201133
 20
11.82222226520659
 30
0.0
 10
134.063791032288
 20
11.73316700126526
 30
0.0
 10
134.1072952405946
 20
11.63999381924763
 30
0.0
 10
134.1420687123722
 20
11.54119662117584
 30
0.0
 10
134.1702259741721
 20
11.43794600201898
 30
0.0
 10
134.1905975168864
 20
11.32950383645671
 30
0.0
 10
134.2025442423142
 20
11.21590241686507
 30
0.0
 10
134.2048925606231
 20
11.13849904153978
 30
0.0
 10
134.2060897435897
 20
11.09903846153846
 30
0.0
  0
LINE
  5
14E
330
1F
100
AcDbEntity
  8
0
  6
Continuous
 62
     7
370
    15
100
AcDbLine
 10
134.2060897436
 20
11.0990384615
 30
0.0
 11
132.1301282051
 21
11.0990384615
 31
0.0
  0
LINE
  5
14F
330
1F
100
AcDbEntity
  8
0
  6
Continuous
 62
     7
370
    15
100
AcDbLine
 10
134.9794871795
 20
10.0
 30
0.0
 11
134.6945512821
 21
10.0
 31
0.0
  0
LINE
  5
150
330
1F
100
AcDbEntity
  8
0
  6
Continuous
 62
     7
370
    15
100
AcDbLine
 10
134.6945512821
 20
10.0
 30
0.0
 11
134.6945512821
 21
12.3201923077
 31
0.0
  0
LINE
  5
151
330
1F
100
AcDbEntity
  8
0
  6
Continuous
 62
     7
370
    15
100
AcDbLine
 10
134.6945512821
 20
12.3201923077
 30
0.0
 11
134.9794871795
 21
12.3201923077
 31
0.0
  0
LINE
  5
152
330
1F
100
AcDbEntity
  8
0
  6
Continuous
 62
     7
370
    15
100
AcDbLine
 10
134.9794871795
 20
12.3201923077
 30
0.0
 11
134.9794871795
 21
11.9786508413
 31
0.0
  0
SPLINE
  5
153
330
1F
100
AcDbEntity
  8
0
  6
Continuous
 62
     7
370
    15
100
AcDbSpline
210
0.0
220
0.0
230
1.0
 70
     8
 71
     3
 72
    15
 73
    11
 74
     0
 42
0.000000001
 43
0.00000001
 40
0.0
 40
0.0
 40
0.0
 40
0.0
 40
0.1600594124855001
 40
0.3061123827401339
 40
0.4383665141302093
 40
0.56054145525521
 40
0.675317224952707
 40
0.7861136344281857
 40
0.8928417881050972
 40
1.0
 40
1.0
 40
1.0
 40
1.0
 10
134.9794871794872
 20
11.97865084134616
 30
0.0
 10
135.0005226963544
 20
12.01045148561321
 30
0.0
 10
135.0407529589202
 20
12.07126997068757
 30
0.0
 10
135.1076211162624
 20
12.15170569373018
 30
0.0
 10
135.1761134239221
 20
12.21830362887052
 30
0.0
 10
135.2465577724037
 20
12.27137467804037
 30
0.0
 10
135.3194721916079
 20
12.31111943583055
 30
0.0
 10
135.3932564263807
 20
12.34023240332345
 30
0.0
 10
135.4690713168942
 20
12.35744753928874
 30
0.0
 10
135.5200182053009
 20
12.35974592991429
 30
0.0
 10
135.5455428685897
 20
12.36089743589744
 30
0.0
  0
SPLINE
  5
154
330
1F
100
AcDbEntity
  8
0
  6
Continuous
 62
     7
370
    15
100
AcDbSpline
210
0.0
220
0.0
230
1.0
 70
     8
 71
     3
 72
    11
 73
     7
 74
     0
 42
0.000000001
 43
0.00000001
 40
0.0
 40
0.0
 40
0.0
 40
0.0
 40
0.2252775478670208
 40
0.4635231951764775
 40
0.7203235553269757
 40
1.0
 40
1.0
 40
1.0
 40
1.0
 10
135.5455428685897
 20
12.36089743589744
 30
0.0
 10
135.5653424647598
 20
12.35981745820062
 30
0.0
 10
135.6060814206249
 20
12.35759533390333
 30
0.0
 10
135.6677513413758
 20
12.34198265726392
 30
0.0
 10
135.7312907584652
 20
12.31705616537657
 30
0.0
 10
135.7722413526139
 20
12.29361539195904
 30
0.0
 10
135.7935897435897
 20
12.28139523237179
 30
0.0
  0
LINE
  5
155
330
1F
100
AcDbEntity
  8
0
  6
Continuous
 62
     7
370
    15
100
AcDbLine
 10
135.7935897436
 20
12.2813952324
 30
0.0
 11
135.6371294071
 21
12.0346203926
 31
0.0
  0
SPLINE
  5
156
330
1F
100
AcDbEntity
  8
0
  6
Continuous
 62
     7
370
    15
100
AcDbSpline
210
0.0
220
0.0
230
1.0
 70
     8
 71
     3
 72
    11
 73
     7
 74
     0
 42
0.000000001
 43
0.00000001
 40
0.0
 40
0.0
 40
0.0
 40
0.0
 40
0.295138801369311
 40
0.5602299448881756
 40
0.7949833567409171
 40
1.0
 40
1.0
 40
1.0
 40
1.0
 10
135.6371294070512
 20
12.0346203926282
 30
0.0
 10
135.6234233664422
 20
12.0407347768898
 30
0.0
 10
135.5974066775505
 20
12.05234104872531
 30
0.0
 10
135.5593478924354
 20
12.06607701505937
 30
0.0
 10
135.5242583941152
 20
12.07416502443587
 30
0.0
 10
135.5019031661717
 20
12.07539031812458
 30
0.0
 10
135.4914813701923
 20
12.07596153846154
 30
0.0
  0
SPLINE
  5
157
330
1F
100
AcDbEntity
  8
0
  6
Continuous
 62
     7
370
    15
100
AcDbSpline
210
0.0
220
0.0
230
1.0
 70
     8
 71
     3
 72
    19
 73
    15
 74
     0
 42
0.000000001
 43
0.00000001
 40
0.0
 40
0.0
 40
0.0
 40
0.0
 40
0.0938065293523269
 40
0.1913381281363307
 40
0.2951906166251684
 40
0.4103123367233041
 40
0.4719302510512777
 40
0.5364251593464349
 40
0.6031187283036407
 40
0.674117672490599
 40
0.7493320232258865
 40
0.8282833841715633
 40
0.9120398092627651
 40
0.9999999999999999
 40
0.9999999999999999
 40
0.9999999999999999
 40
0.9999999999999999
 10
135.4914813701923
 20
12.07596153846154
 30
0.0
 10
135.4686161690787
 20
12.07443750456291
 30
0.0
 10
135.4219777867535
 20
12.07132891718212
 30
0.0
 10
135.353502562289
 20
12.04689157013635
 30
0.0
 10
135.2870568830127
 20
12.00740795946228
 30
0.0
 10
135.2342868750366
 20
11.96361916514043
 30
0.0
 10
135.1934271170715
 20
11.92139366315487
 30
0.0
 10
135.1642713410543
 20
11.88451975511196
 30
0.0
 10
135.1375262777463
 20
11.8431734250826
 30
0.0
 10
135.1119718635259
 20
11.79806149763242
 30
0.0
 10
135.0886888680648
 20
11.74841370873174
 30
0.0
 10
135.0669585610013
 20
11.6947260794133
 30
0.0
 10
135.0473108782074
 20
11.63693642688643
 30
0.0
 10
135.0361074423755
 20
11.59667514068661
 30
0.0
 10
135.0303685897435
 20
11.57605168269231
 30
0.0
  0
SPLINE
  5
158
330
1F
100
AcDbEntity
  8
0
  6
Continuous
 62
     7
370
    15
100
AcDbSpline
210
0.0
220
0.0
230
1.0
 70
     8
 71
     3
 72
    15
 73
    11
 74
     0
 42
0.000000001
 43
0.00000001
 40
0.0
 40
0.0
 40
0.0
 40
0.0
 40
0.0708548685015339
 40
0.1569381495573536
 40
0.2586003949600846
 40
0.3758909295892028
 40
0.5081661676989037
 40
0.6562378085782232
 40
0.8201767703979104
 40
1.0
 40
1.0
 40
1.0
 40
1.0
 10
135.0303685897435
 20
11.57605168269231
 30
0.0
 10
135.0260756329052
 20
11.55765738951724
 30
0.0
 10
135.0165670597248
 20
11.51691542789396
 30
0.0
 10
135.0073218789666
 20
11.44856355189635
 30
0.0
 10
134.9981873876594
 20
11.36780637573187
 30
0.0
 10
134.9917497410126
 20
11.27441910933036
 30
0.0
 10
134.9857825170829
 20
11.16863496376696
 30
0.0
 10
134.9824169424911
 20
11.05029278452268
 30
0.0
 10
134.9796019507003
 20
10.91927110170097
 30
0.0
 10
134.9795265971817
 20
10.82767293841174
 30
0.0
 10
134.9794871794871
 20
10.77975761217949
 30
0.0
  0
LINE
  5
159
330
1F
100
AcDbEntity
  8
0
  6
Continuous
 62
     7
370
    15
100
AcDbLine
 10
134.9794871795
 20
10.7797576122
 30
0.0
 11
134.9794871795
 21
10.0
 31
0.0
  0
LINE
  5
15A
330
1F
100
AcDbEntity
  8
0
  6
Continuous
 62
     7
370
    15
100
AcDbLine
 10
138.062900641
 20
10.0
 30
0.0
 11
138.0221955128
 21
10.0
 31
0.0
  0
LINE
  5
15B
330
1F
100
AcDbEntity
  8
0
  6
Continuous
 62
     7
370
    15
100
AcDbLine
 10
138.0221955128
 20
10.0
 30
0.0
 11
137.1775641026
 21
13.175
 31
0.0
  0
LINE
  5
15C
330
1F
100
AcDbEntity
  8
0
  6
Continuous
 62
     7
370
    15
100
AcDbLine
 10
137.1775641026
 20
13.175
 30
0.0
 11
137.4720402644
 21
13.175
 31
0.0
  0
LINE
  5
15D
330
1F
100
AcDbEntity
  8
0
  6
Continuous
 62
     7
370
    15
100
AcDbLine
 10
137.4720402644
 20
13.175
 30
0.0
 11
138.0934294872
 21
10.8465394631
 31
0.0
  0
LINE
  5
15E
330
1F
100
AcDbEntity
  8
0
  6
Continuous
 62
     7
370
    15
100
AcDbLine
 10
138.0934294872
 20
10.8465394631
 30
0.0
 11
139.017563101
 21
13.175
 31
0.0
  0
LINE
  5
15F
330
1F
100
AcDbEntity
  8
0
  6
Continuous
 62
     7
370
    15
100
AcDbLine
 10
139.017563101
 20
13.175
 30
0.0
 11
139.0589042468
 21
13.175
 31
0.0
  0
LINE
  5
160
330
1F
100
AcDbEntity
  8
0
  6
Continuous
 62
     7
370
    15
100
AcDbLine
 10
139.0589042468
 20
13.175
 30
0.0
 11
139.9658653846
 21
10.8624399038
 31
0.0
  0
LINE
  5
161
330
1F
100
AcDbEntity
  8
0
  6
Continuous
 62
     7
370
    15
100
AcDbLine
 10
139.9658653846
 20
10.8624399038
 30
0.0
 11
140.5904346955
 21
13.175
 31
0.0
  0
LINE
  5
162
330
1F
100
AcDbEntity
  8
0
  6
Continuous
 62
     7
370
    15
100
AcDbLine
 10
140.5904346955
 20
13.175
 30
0.0
 11
140.8817307692
 21
13.175
 31
0.0
  0
LINE
  5
163
330
1F
100
AcDbEntity
  8
0
  6
Continuous
 62
     7
370
    15
100
AcDbLine
 10
140.8817307692
 20
13.175
 30
0.0
 11
140.0256510417
 21
10.0
 31
0.0
  0
LINE
  5
164
330
1F
100
AcDbEntity
  8
0
  6
Continuous
 62
     7
370
    15
100
AcDbLine
 10
140.0256510417
 20
10.0
 30
0.0
 11
139.9849459135
 21
10.0
 31
0.0
  0
LINE
  5
165
330
1F
100
AcDbEntity
  8
0
  6
Continuous
 62
     7
370
    15
100
AcDbLine
 10
139.9849459135
 20
10.0
 30
0.0
 11
139.0296474359
 21
12.4283153045
 31
0.0
  0
LINE
  5
166
330
1F
100
AcDbEntity
  8
0
  6
Continuous
 62
     7
370
    15
100
AcDbLine
 10
139.0296474359
 20
12.4283153045
 30
0.0
 11
138.062900641
 21
10.0
 31
0.0
  0
LINE
  5
167
330
1F
100
AcDbEntity
  8
0
  6
Continuous
 62
     7
370
    15
100
AcDbLine
 10
147.2317307692
 20
10.0
 30
0.0
 11
148.7378205128
 21
13.175
 31
0.0
  0
LINE
  5
168
330
1F
100
AcDbEntity
  8
0
  6
Continuous
 62
     7
370
    15
100
AcDbLine
 10
148.7378205128
 20
13.175
 30
0.0
 11
148.778525641
 21
13.175
 31
0.0
  0
LINE
  5
169
330
1F
100
AcDbEntity
  8
0
  6
Continuous
 62
     7
370
    15
100
AcDbLine
 10
148.778525641
 20
13.175
 30
0.0
 11
150.2439102564
 21
10.0
 31
0.0
  0
LINE
  5
16A
330
1F
100
AcDbEntity
  8
0
  6
Continuous
 62
     7
370
    15
100
AcDbLine
 10
150.2439102564
 20
10.0
 30
0.0
 11
149.9341696715
 21
10.0
 31
0.0
  0
LINE
  5
16B
330
1F
100
AcDbEntity
  8
0
  6
Continuous
 62
     7
370
    15
100
AcDbLine
 10
149.9341696715
 20
10.0
 30
0.0
 11
149.4647886619
 21
11.0176282051
 31
0.0
  0
LINE
  5
16C
330
1F
100
AcDbEntity
  8
0
  6
Continuous
 62
     7
370
    15
100
AcDbLine
 10
149.4647886619
 20
11.0176282051
 30
0.0
 11
148.0254807692
 21
11.0176282051
 31
0.0
  0
LINE
  5
16D
330
1F
100
AcDbEntity
  8
0
  6
Continuous
 62
     7
370
    15
100
AcDbLine
 10
148.0254807692
 20
11.0176282051
 30
0.0
 11
147.5427433894
 21
10.0
 31
0.0
  0
LINE
  5
16E
330
1F
100
AcDbEntity
  8
0
  6
Continuous
 62
     7
370
    15
100
AcDbLine
 10
147.5427433894
 20
10.0
 30
0.0
 11
147.2317307692
 21
10.0
 31
0.0
  0
MTEXT
  5
170
330
1F
100
AcDbEntity
  8
0
  6
Continuous
 62
     7
100
AcDbMText
 10
-3.4
 20
-4.4195663917
 30
0.0
 40
4.83362
 41
0.0
 71
     1
 72
     1
  1
SOLIDWORKS Educational Product.
  7
SLDTEXTSTYLE0
 73
     1
 44
1.0
  0
MTEXT
  5
171
330
1F
100
AcDbEntity
  8
0
  6
Continuous
 62
     7
100
AcDbMText
 10
-3.4
 20
-11.6699963917
 30
0.0
 40
4.83362
 41
0.0
 71
     1
 72
     1
  1
For Instructional Use Only.
  7
SLDTEXTSTYLE0
 73
     1
 44
1.0
  0
ENDSEC
  0
SECTION
  2
OBJECTS
  0
DICTIONARY
  5
C
330
0
100
AcDbDictionary
281
     1
  3
ACAD_GROUP
350
D
  3
ACAD_LAYOUT
350
1A
  3
ACAD_MLINESTYLE
350
17
  3
ACAD_PLOTSETTINGS
350
19
  3
ACAD_PLOTSTYLENAME
350
E
  3
ACAD_SCALELIST
350
47
  0
DICTIONARY
  5
D
102
{ACAD_REACTORS
330
C
102
}
330
C
100
AcDbDictionary
281
     1
  0
DICTIONARY
  5
1A
102
{ACAD_REACTORS
330
C
102
}
330
C
100
AcDbDictionary
281
     1
  3
Layout1
350
1E
  3
Layout2
350
26
  3
Model
350
22
  0
DICTIONARY
  5
17
102
{ACAD_REACTORS
330
C
102
}
330
C
100
AcDbDictionary
281
     1
  3
Standard
350
18
  0
DICTIONARY
  5
19
102
{ACAD_REACTORS
330
C
102
}
330
C
100
AcDbDictionary
281
     1
  0
ACDBDICTIONARYWDFLT
  5
E
102
{ACAD_REACTORS
330
C
102
}
330
C
100
AcDbDictionary
281
     1
  3
Normal
350
F
100
AcDbDictionaryWithDefault
340
F
  0
DICTIONARY
  5
47
102
{ACAD_REACTORS
330
C
102
}
330
C
100
AcDbDictionary
281
     1
  3
A0
350
48
  3
A1
350
49
  3
A2
350
4A
  3
A3
350
4B
  3
A4
350
4C
  3
A5
350
4D
  3
A6
350
4E
  3
A7
350
4F
  3
A8
350
50
  3
A9
350
51
  3
B0
350
52
  3
B1
350
53
  3
B2
350
54
  3
B3
350
55
  3
B4
350
56
  3
B5
350
57
  3
B6
350
58
  3
B7
350
59
  3
B8
350
5A
  3
B9
350
5B
  3
C0
350
5C
  3
C1
350
5D
  3
C2
350
5E
  3
C3
350
5F
  3
C4
350
60
  3
C5
350
61
  3
C6
350
62
  3
C7
350
63
  3
C8
350
64
  3
C9
350
65
  3
D0
350
66
  3
D1
350
67
  3
D2
350
68
  0
LAYOUT
  5
1E
102
{ACAD_REACTORS
330
1A
102
}
330
1A
100
AcDbPlotSettings
  1

  2
none_device
  4

  6

 40
0.0
 41
0.0
 42
0.0
 43
0.0
 44
0.0
 45
0.0
 46
0.0
 47
0.0
 48
0.0
 49
0.0
140
0.0
141
0.0
142
1.0
143
1.0
 70
   688
 72
     1
 73
     0
 74
     5
  7

 75
    16
147
1.0
148
0.0
149
0.0
100
AcDbLayout
  1
Layout1
 70
     1
 71
     1
 10
0.0
 20
0.0
 11
420.0
 21
297.0
 12
0.0
 22
0.0
 32
0.0
 14
1.0000000000E+20
 24
1.0000000000E+20
 34
1.0000000000E+20
 15
-1.0000000000E+20
 25
-1.0000000000E+20
 35
-1.0000000000E+20
146
0.0
 13
0.0
 23
0.0
 33
0.0
 16
1.0
 26
0.0
 36
0.0
 17
0.0
 27
1.0
 37
0.0
 76
     0
330
1B
  0
LAYOUT
  5
26
102
{ACAD_REACTORS
330
1A
102
}
330
1A
100
AcDbPlotSettings
  1

  2
none_device
  4

  6

 40
0.0
 41
0.0
 42
0.0
 43
0.0
 44
0.0
 45
0.0
 46
0.0
 47
0.0
 48
0.0
 49
0.0
140
0.0
141
0.0
142
1.0
143
1.0
 70
   688
 72
     1
 73
     0
 74
     5
  7

 75
    16
147
1.0
148
0.0
149
0.0
100
AcDbLayout
  1
Layout2
 70
     1
 71
     2
 10
0.0
 20
0.0
 11
0.0
 21
0.0
 12
0.0
 22
0.0
 32
0.0
 14
0.0
 24
0.0
 34
0.0
 15
0.0
 25
0.0
 35
0.0
146
0.0
 13
0.0
 23
0.0
 33
0.0
 16
1.0
 26
0.0
 36
0.0
 17
0.0
 27
1.0
 37
0.0
 76
     0
330
23
  0
LAYOUT
  5
22
102
{ACAD_REACTORS
330
1A
102
}
330
1A
100
AcDbPlotSettings
  1

  2
none_device
  4
ANSI_A_(11.00_x_8.50_Inches)
  6

 40
6.35
 41
19.05
 42
6.35000508
 43
19.05000254
 44
279.4
 45
215.9
 46
-1.1423850359
 47
73.99375967
 48
0.0
 49
0.0
140
0.0
141
0.0
142
0.0441247974
143
1.0
 70
  1696
 72
     0
 73
     0
 74
     0
  7

 75
     0
147
0.0179189148
148
-1300.4909072572
149
0.0
100
AcDbLayout
  1
Model
 70
     1
 71
     0
 10
0.0
 20
0.0
 11
420.0
 21
297.0
 12
0.0
 22
0.0
 32
0.0
 14
-3.4
 24
-3.4
 34
0.0
 15
243.4
 25
30.0
 35
0.0
146
0.0
 13
0.0
 23
0.0
 33
0.0
 16
1.0
 26
0.0
 36
0.0
 17
0.0
 27
1.0
 37
0.0
 76
     0
330
1F
331
29
  0
MLINESTYLE
  5
18
102
{ACAD_REACTORS
330
17
102
}
330
17
100
AcDbMlineStyle
  2
Standard
 70
     0
  3

 62
   256
 51
90.0
 52
90.0
 71
     2
 49
0.5
 62
   256
  6
BYLAYER
 49
-0.5
 62
   256
  6
BYLAYER
  0
ACDBPLACEHOLDER
  5
F
102
{ACAD_REACTORS
330
E
102
}
330
E
  0
SCALE
  5
48
102
{ACAD_REACTORS
330
47
102
}
330
47
100
AcDbScale
 70
     0
300
1:1
140
1.0
141
1.0
290
     1
  0
SCALE
  5
49
102
{ACAD_REACTORS
330
47
102
}
330
47
100
AcDbScale
 70
     0
300
1:2
140
1.0
141
2.0
290
     0
  0
SCALE
  5
4A
102
{ACAD_REACTORS
330
47
102
}
330
47
100
AcDbScale
 70
     0
300
1:4
140
1.0
141
4.0
290
     0
  0
SCALE
  5
4B
102
{ACAD_REACTORS
330
47
102
}
330
47
100
AcDbScale
 70
     0
300
1:5
140
1.0
141
5.0
290
     0
  0
SCALE
  5
4C
102
{ACAD_REACTORS
330
47
102
}
330
47
100
AcDbScale
 70
     0
300
1:8
140
1.0
141
8.0
290
     0
  0
SCALE
  5
4D
102
{ACAD_REACTORS
330
47
102
}
330
47
100
AcDbScale
 70
     0
300
1:10
140
1.0
141
10.0
290
     0
  0
SCALE
  5
4E
102
{ACAD_REACTORS
330
47
102
}
330
47
100
AcDbScale
 70
     0
300
1:16
140
1.0
141
16.0
290
     0
  0
SCALE
  5
4F
102
{ACAD_REACTORS
330
47
102
}
330
47
100
AcDbScale
 70
     0
300
1:20
140
1.0
141
20.0
290
     0
  0
SCALE
  5
50
102
{ACAD_REACTORS
330
47
102
}
330
47
100
AcDbScale
 70
     0
300
1:30
140
1.0
141
30.0
290
     0
  0
SCALE
  5
51
102
{ACAD_REACTORS
330
47
102
}
330
47
100
AcDbScale
 70
     0
300
1:40
140
1.0
141
40.0
290
     0
  0
SCALE
  5
52
102
{ACAD_REACTORS
330
47
102
}
330
47
100
AcDbScale
 70
     0
300
1:50
140
1.0
141
50.0
290
     0
  0
SCALE
  5
53
102
{ACAD_REACTORS
330
47
102
}
330
47
100
AcDbScale
 70
     0
300
1:100
140
1.0
141
100.0
290
     0
  0
SCALE
  5
54
102
{ACAD_REACTORS
330
47
102
}
330
47
100
AcDbScale
 70
     0
300
2:1
140
2.0
141
1.0
290
     0
  0
SCALE
  5
55
102
{ACAD_REACTORS
330
47
102
}
330
47
100
AcDbScale
 70
     0
300
4:1
140
4.0
141
1.0
290
     0
  0
SCALE
  5
56
102
{ACAD_REACTORS
330
47
102
}
330
47
100
AcDbScale
 70
     0
300
8:1
140
8.0
141
1.0
290
     0
  0
SCALE
  5
57
102
{ACAD_REACTORS
330
47
102
}
330
47
100
AcDbScale
 70
     0
300
10:1
140
10.0
141
1.0
290
     0
  0
SCALE
  5
58
102
{ACAD_REACTORS
330
47
102
}
330
47
100
AcDbScale
 70
     0
300
100:1
140
100.0
141
1.0
290
     0
  0
SCALE
  5
59
102
{ACAD_REACTORS
330
47
102
}
330
47
100
AcDbScale
 70
     0
300
1/128" = 1'-0"
140
0.0078125
141
12.0
290
     0
  0
SCALE
  5
5A
102
{ACAD_REACTORS
330
47
102
}
330
47
100
AcDbScale
 70
     0
300
1/64" = 1'-0"
140
0.015625
141
12.0
290
     0
  0
SCALE
  5
5B
102
{ACAD_REACTORS
330
47
102
}
330
47
100
AcDbScale
 70
     0
300
1/32" = 1'-0"
140
0.03125
141
12.0
290
     0
  0
SCALE
  5
5C
102
{ACAD_REACTORS
330
47
102
}
330
47
100
AcDbScale
 70
     0
300
1/16" = 1'-0"
140
0.0625
141
12.0
290
     0
  0
SCALE
  5
5D
102
{ACAD_REACTORS
330
47
102
}
330
47
100
AcDbScale
 70
     0
300
3/32" = 1'-0"
140
0.09375
141
12.0
290
     0
  0
SCALE
  5
5E
102
{ACAD_REACTORS
330
47
102
}
330
47
100
AcDbScale
 70
     0
300
1/8" = 1'-0"
140
0.125
141
12.0
290
     0
  0
SCALE
  5
5F
102
{ACAD_REACTORS
330
47
102
}
330
47
100
AcDbScale
 70
     0
300
3/16" = 1'-0"
140
0.1875
141
12.0
290
     0
  0
SCALE
  5
60
102
{ACAD_REACTORS
330
47
102
}
330
47
100
AcDbScale
 70
     0
300
1/4" = 1'-0"
140
0.25
141
12.0
290
     0
  0
SCALE
  5
61
102
{ACAD_REACTORS
330
47
102
}
330
47
100
AcDbScale
 70
     0
300
3/8" = 1'-0"
140
0.375
141
12.0
290
     0
  0
SCALE
  5
62
102
{ACAD_REACTORS
330
47
102
}
330
47
100
AcDbScale
 70
     0
300
1/2" = 1'-0"
140
0.5
141
12.0
290
     0
  0
SCALE
  5
63
102
{ACAD_REACTORS
330
47
102
}
330
47
100
AcDbScale
 70
     0
300
3/4" = 1'-0"
140
0.75
141
12.0
290
     0
  0
SCALE
  5
64
102
{ACAD_REACTORS
330
47
102
}
330
47
100
AcDbScale
 70
     0
300
1" = 1'-0"
140
1.0
141
12.0
290
     0
  0
SCALE
  5
65
102
{ACAD_REACTORS
330
47
102
}
330
47
100
AcDbScale
 70
     0
300
1-1/2" = 1'-0"
140
1.5
141
12.0
290
     0
  0
SCALE
  5
66
102
{ACAD_REACTORS
330
47
102
}
330
47
100
AcDbScale
 70
     0
300
3" = 1'-0"
140
3.0
141
12.0
290
     0
  0
SCALE
  5
67
102
{ACAD_REACTORS
330
47
102
}
330
47
100
AcDbScale
 70
     0
300
6" = 1'-0"
140
6.0
141
12.0
290
     0
  0
SCALE
  5
68
102
{ACAD_REACTORS
330
47
102
}
330
47
100
AcDbScale
 70
     0
300
1'-0" = 1'-0"
140
12.0
141
12.0
290
     0
  0
ENDSEC
  0
EOF
