  0
SECTION
  2
HEADER
  9
$ACADVER
  1
AC1015
  9
$ACADMAINTVER
 70
     6
  9
$DWGCODEPAGE
  3
ANSI_1252
  9
$INSBASE
 10
0.0
 20
0.0
 30
0.0
  9
$EXTMIN
 10
0.0
 20
0.0
 30
0.0
  9
$EXTMAX
 10
338.8
 20
130.0
 30
0.0
  9
$LIMMIN
 10
0.0
 20
0.0
  9
$LIMMAX
 10
420.0
 20
297.0
  9
$ORTHOMODE
 70
     0
  9
$REGENMODE
 70
     1
  9
$FILLMODE
 70
     1
  9
$QTEXTMODE
 70
     0
  9
$MIRRTEXT
 70
     1
  9
$LTSCALE
 40
1.0
  9
$ATTMODE
 70
     1
  9
$TEXTSIZE
 40
6.35
  9
$TRACEWID
 40
1.0
  9
$TEXTSTYLE
  7
Standard
  9
$CLAYER
  8
0
  9
$CELTYPE
  6
ByLayer
  9
$CECOLOR
 62
   256
  9
$CELTSCALE
 40
1.0
  9
$DISPSILH
 70
     0
  9
$DIMSCALE
 40
1.0
  9
$DIMASZ
 40
5.9944
  9
$DIMEXO
 40
0.9906
  9
$DIMDLI
 40
3.75
  9
$DIMRND
 40
0.0
  9
$DIMDLE
 40
0.0
  9
$DIMEXE
 40
0.9906
  9
$DIMTP
 40
0.0
  9
$DIMTM
 40
0.0
  9
$DIMTXT
 40
6.35
  9
$DIMCEN
 40
2.5
  9
$DIMTSZ
 40
0.0
  9
$DIMTOL
 70
     0
  9
$DIMLIM
 70
     0
  9
$DIMTIH
 70
     1
  9
$DIMTOH
 70
     1
  9
$DIMSE1
 70
     0
  9
$DIMSE2
 70
     0
  9
$DIMTAD
 70
     1
  9
$DIMZIN
 70
     0
  9
$DIMBLK
  1

  9
$DIMASO
 70
     1
  9
$DIMSHO
 70
     1
  9
$DIMPOST
  1

  9
$DIMAPOST
  1

  9
$DIMALT
 70
     0
  9
$DIMALTD
 70
     3
  9
$DIMALTF
 40
0.0393700787
  9
$DIMLFAC
 40
1.0
  9
$DIMTOFL
 70
     1
  9
$DIMTVP
 40
0.0
  9
$DIMTIX
 70
     0
  9
$DIMSOXD
 70
     0
  9
$DIMSAH
 70
     0
  9
$DIMBLK1
  1

  9
$DIMBLK2
  1

  9
$DIMSTYLE
  2
ISO-25
  9
$DIMCLRD
 70
     0
  9
$DIMCLRE
 70
     0
  9
$DIMCLRT
 70
     0
  9
$DIMTFAC
 40
1.0
  9
$DIMGAP
 40
1.524
  9
$DIMJUST
 70
     0
  9
$DIMSD1
 70
     0
  9
$DIMSD2
 70
     0
  9
$DIMTOLJ
 70
     0
  9
$DIMTZIN
 70
     0
  9
$DIMALTZ
 70
     0
  9
$DIMALTTZ
 70
     0
  9
$DIMUPT
 70
     0
  9
$DIMDEC
 70
     2
  9
$DIMTDEC
 70
     2
  9
$DIMALTU
 70
     2
  9
$DIMALTTD
 70
     3
  9
$DIMTXSTY
  7
Standard
  9
$DIMAUNIT
 70
     0
  9
$DIMADEC
 70
     2
  9
$DIMALTRND
 40
0.0
  9
$DIMAZIN
 70
     0
  9
$DIMDSEP
 70
    44
  9
$DIMATFIT
 70
     3
  9
$DIMFRAC
 70
     0
  9
$DIMLDRBLK
  1

  9
$DIMLUNIT
 70
     2
  9
$DIMLWD
 70
    -2
  9
$DIMLWE
 70
    -2
  9
$DIMTMOVE
 70
     0
  9
$LUNITS
 70
     2
  9
$LUPREC
 70
     2
  9
$SKETCHINC
 40
1.0
  9
$FILLETRAD
 40
10.0
  9
$AUNITS
 70
     0
  9
$AUPREC
 70
     2
  9
$MENU
  1
.
  9
$ELEVATION
 40
0.0
  9
$PELEVATION
 40
0.0
  9
$THICKNESS
 40
0.0
  9
$LIMCHECK
 70
     0
  9
$CHAMFERA
 40
0.0
  9
$CHAMFERB
 40
0.0
  9
$CHAMFERC
 40
0.0
  9
$CHAMFERD
 40
0.0
  9
$SKPOLY
 70
     0
  9
$TDCREATE
 40
2457988.447163218
  9
$TDUCREATE
 40
2457988.405496551
  9
$TDUPDATE
 40
2457988.447211644
  9
$TDUUPDATE
 40
2457988.405544977
  9
$TDINDWG
 40
0.0000000116
  9
$TDUSRTIMER
 40
0.0000000116
  9
$USRTIMER
 70
     1
  9
$ANGBASE
 50
0.0
  9
$ANGDIR
 70
     0
  9
$PDMODE
 70
     0
  9
$PDSIZE
 40
-1.0
  9
$PLINEWID
 40
0.0
  9
$SPLFRAME
 70
     0
  9
$SPLINETYPE
 70
     6
  9
$SPLINESEGS
 70
     8
  9
$HANDSEED
  5
11E
  9
$SURFTAB1
 70
     6
  9
$SURFTAB2
 70
     6
  9
$SURFTYPE
 70
     6
  9
$SURFU
 70
     6
  9
$SURFV
 70
     6
  9
$UCSBASE
  2

  9
$UCSNAME
  2

  9
$UCSORG
 10
0.0
 20
0.0
 30
0.0
  9
$UCSXDIR
 10
1.0
 20
0.0
 30
0.0
  9
$UCSYDIR
 10
0.0
 20
1.0
 30
0.0
  9
$UCSORTHOREF
  2

  9
$UCSORTHOVIEW
 70
     0
  9
$UCSORGTOP
 10
0.0
 20
0.0
 30
0.0
  9
$UCSORGBOTTOM
 10
0.0
 20
0.0
 30
0.0
  9
$UCSORGLEFT
 10
0.0
 20
0.0
 30
0.0
  9
$UCSORGRIGHT
 10
0.0
 20
0.0
 30
0.0
  9
$UCSORGFRONT
 10
0.0
 20
0.0
 30
0.0
  9
$UCSORGBACK
 10
0.0
 20
0.0
 30
0.0
  9
$PUCSBASE
  2

  9
$PUCSNAME
  2

  9
$PUCSORG
 10
0.0
 20
0.0
 30
0.0
  9
$PUCSXDIR
 10
1.0
 20
0.0
 30
0.0
  9
$PUCSYDIR
 10
0.0
 20
1.0
 30
0.0
  9
$PUCSORTHOREF
  2

  9
$PUCSORTHOVIEW
 70
     0
  9
$PUCSORGTOP
 10
0.0
 20
0.0
 30
0.0
  9
$PUCSORGBOTTOM
 10
0.0
 20
0.0
 30
0.0
  9
$PUCSORGLEFT
 10
0.0
 20
0.0
 30
0.0
  9
$PUCSORGRIGHT
 10
0.0
 20
0.0
 30
0.0
  9
$PUCSORGFRONT
 10
0.0
 20
0.0
 30
0.0
  9
$PUCSORGBACK
 10
0.0
 20
0.0
 30
0.0
  9
$USERI1
 70
     0
  9
$USERI2
 70
     0
  9
$USERI3
 70
     0
  9
$USERI4
 70
     0
  9
$USERI5
 70
     0
  9
$USERR1
 40
0.0
  9
$USERR2
 40
0.0
  9
$USERR3
 40
0.0
  9
$USERR4
 40
0.0
  9
$USERR5
 40
0.0
  9
$WORLDVIEW
 70
     1
  9
$SHADEDGE
 70
     3
  9
$SHADEDIF
 70
    70
  9
$TILEMODE
 70
     1
  9
$MAXACTVP
 70
    64
  9
$PINSBASE
 10
0.0
 20
0.0
 30
0.0
  9
$PLIMCHECK
 70
     0
  9
$PEXTMIN
 10
1.0000000000E+20
 20
1.0000000000E+20
 30
1.0000000000E+20
  9
$PEXTMAX
 10
-1.0000000000E+20
 20
-1.0000000000E+20
 30
-1.0000000000E+20
  9
$PLIMMIN
 10
0.0
 20
0.0
  9
$PLIMMAX
 10
420.0
 20
297.0
  9
$UNITMODE
 70
     0
  9
$VISRETAIN
 70
     1
  9
$PLINEGEN
 70
     0
  9
$PSLTSCALE
 70
     1
  9
$TREEDEPTH
 70
  3020
  9
$CMLSTYLE
  2
Standard
  9
$CMLJUST
 70
     0
  9
$CMLSCALE
 40
20.0
  9
$PROXYGRAPHICS
 70
     1
  9
$MEASUREMENT
 70
     1
  9
$CELWEIGHT
370
    -1
  9
$ENDCAPS
280
     0
  9
$JOINSTYLE
280
     0
  9
$LWDISPLAY
290
     1
  9
$INSUNITS
 70
     4
  9
$HYPERLINKBASE
  1

  9
$STYLESHEET
  1

  9
$XEDIT
290
     1
  9
$CEPSNTYPE
380
     0
  9
$PSTYLEMODE
290
     1
  9
$FINGERPRINTGUID
  2
{5CE4AFCB-828D-4F19-8148-549A71149560}
  9
$VERSIONGUID
  2
{FAEB1C32-E019-11D5-929B-00C0DF256EC4}
  9
$EXTNAMES
290
     1
  9
$PSVPSCALE
 40
0.0
  9
$OLESTARTUP
290
     0
  0
ENDSEC
  0
SECTION
  2
CLASSES
  0
CLASS
  1
ACDBDICTIONARYWDFLT
  2
AcDbDictionaryWithDefault
  3
ObjectDBX Classes
 90
        0
280
     0
281
     0
  0
CLASS
  1
VISUALSTYLE
  2
AcDbVisualStyle
  3
ObjectDBX Classes
 90
     4095
280
     0
281
     0
  0
CLASS
  1
MATERIAL
  2
AcDbMaterial
  3
ObjectDBX Classes
 90
     1153
280
     0
281
     0
  0
CLASS
  1
SCALE
  2
AcDbScale
  3
ObjectDBX Classes
 90
     1153
280
     0
281
     0
  0
CLASS
  1
TABLESTYLE
  2
AcDbTableStyle
  3
ObjectDBX Classes
 90
     4095
280
     0
281
     0
  0
CLASS
  1
MLEADERSTYLE
  2
AcDbMLeaderStyle
  3
ACDB_MLEADERSTYLE_CLASS
 90
     4095
280
     0
281
     0
  0
CLASS
  1
SUN
  2
AcDbSun
  3
SCENEOE
 90
     1153
280
     0
281
     0
  0
CLASS
  1
ACDBPLACEHOLDER
  2
AcDbPlaceHolder
  3
ObjectDBX Classes
 90
        0
280
     0
281
     0
  0
CLASS
  1
LAYOUT
  2
AcDbLayout
  3
ObjectDBX Classes
 90
        0
280
     0
281
     0
  0
ENDSEC
  0
SECTION
  2
TABLES
  0
TABLE
  2
VPORT
  5
8
330
0
100
AcDbSymbolTable
 70
     1
  0
VPORT
  5
29
330
8
100
AcDbSymbolTableRecord
100
AcDbViewportTableRecord
  2
*Active
 70
     0
 10
0.0
 20
0.0
 11
1.0
 21
1.0
 12
169.4
 22
65.0
 13
0.0
 23
0.0
 14
10.0
 24
10.0
 15
10.0
 25
10.0
 16
0.0
 26
0.0
 36
1.0
 17
0.0
 27
0.0
 37
0.0
 40
132.6
 41
2.6061538462
 42
50.0
 43
0.0
 44
0.0
 50
0.0
 51
0.0
 71
     0
 72
   100
 73
     1
 74
     3
 75
     0
 76
     0
 77
     0
 78
     0
281
     0
 65
     1
110
0.0
120
0.0
130
0.0
111
1.0
121
0.0
131
0.0
112
0.0
122
1.0
132
0.0
 79
     0
146
0.0
  0
ENDTAB
  0
TABLE
  2
LTYPE
  5
5
330
0
100
AcDbSymbolTable
 70
     6
  0
LTYPE
  5
14
330
5
100
AcDbSymbolTableRecord
100
AcDbLinetypeTableRecord
  2
ByBlock
 70
     0
  3

 72
    65
 73
     0
 40
0.0
  0
LTYPE
  5
15
330
5
100
AcDbSymbolTableRecord
100
AcDbLinetypeTableRecord
  2
ByLayer
 70
     0
  3

 72
    65
 73
     0
 40
0.0
  0
LTYPE
  5
16
330
5
100
AcDbSymbolTableRecord
100
AcDbLinetypeTableRecord
  2
Continuous
 70
     0
  3
Solid line
 72
    65
 73
     0
 40
0.0
  0
LTYPE
  5
6E
330
5
100
AcDbSymbolTableRecord
100
AcDbLinetypeTableRecord
  2
HIDDEN
 70
     0
  3
Hidden __ __ __ __ __ __ __ __ __ __ __ __ __ __
 72
    65
 73
     2
 40
1.905
 49
1.27
 74
     0
 49
-0.635
 74
     0
  0
LTYPE
  5
6F
330
5
100
AcDbSymbolTableRecord
100
AcDbLinetypeTableRecord
  2
PHANTOM
 70
     0
  3
Phantom ______  __  __  ______  __  __  ______
 72
    65
 73
     6
 40
12.7
 49
6.35
 74
     0
 49
-1.27
 74
     0
 49
1.27
 74
     0
 49
-1.27
 74
     0
 49
1.27
 74
     0
 49
-1.27
 74
     0
  0
LTYPE
  5
70
330
5
100
AcDbSymbolTableRecord
100
AcDbLinetypeTableRecord
  2
CENTER
 70
     0
  3
Center ____ _ ____ _ ____ _ ____ _ ____ _ ____
 72
    65
 73
     4
 40
10.16
 49
6.35
 74
     0
 49
-1.27
 74
     0
 49
1.27
 74
     0
 49
-1.27
 74
     0
  0
LTYPE
  5
71
330
5
100
AcDbSymbolTableRecord
100
AcDbLinetypeTableRecord
  2
CENTERX2
 70
     0
  3
Center (2x) ________  __  ________  __  _____
 72
    65
 73
     4
 40
20.32
 49
12.7
 74
     0
 49
-2.54
 74
     0
 49
2.54
 74
     0
 49
-2.54
 74
     0
  0
LTYPE
  5
72
330
5
100
AcDbSymbolTableRecord
100
AcDbLinetypeTableRecord
  2
DOT2
 70
     0
  3
Dot (.5x) ........................................
 72
    65
 73
     2
 40
0.635
 49
0.0
 74
     0
 49
-0.635
 74
     0
  0
ENDTAB
  0
TABLE
  2
LAYER
  5
2
330
0
100
AcDbSymbolTable
 70
     1
  0
LAYER
  5
10
330
2
100
AcDbSymbolTableRecord
100
AcDbLayerTableRecord
  2
0
 70
     0
 62
     7
  6
Continuous
370
    -3
390
F
  0
ENDTAB
  0
TABLE
  2
STYLE
  5
3
330
0
100
AcDbSymbolTable
 70
     2
  0
STYLE
  5
11
330
3
100
AcDbSymbolTableRecord
100
AcDbTextStyleTableRecord
  2
Standard
 70
     0
 40
0.0
 41
1.0
 50
0.0
 71
     0
 42
6.35
  3
txt
  4

  0
STYLE
  5
11B
330
3
100
AcDbSymbolTableRecord
100
AcDbTextStyleTableRecord
  2
SLDTEXTSTYLE0
 70
     0
 40
0.0
 41
0.7
 50
0.0
 71
     0
 42
6.35
  3
TXT
  4

  0
ENDTAB
  0
TABLE
  2
VIEW
  5
6
330
0
100
AcDbSymbolTable
 70
     0
  0
ENDTAB
  0
TABLE
  2
UCS
  5
7
330
0
100
AcDbSymbolTable
 70
     0
  0
ENDTAB
  0
TABLE
  2
APPID
  5
9
330
0
100
AcDbSymbolTable
 70
     1
  0
APPID
  5
12
330
9
100
AcDbSymbolTableRecord
100
AcDbRegAppTableRecord
  2
ACAD
 70
     0
  0
ENDTAB
  0
TABLE
  2
DIMSTYLE
  5
A
330
0
100
AcDbSymbolTable
 70
     1
100
AcDbDimStyleTable
  0
DIMSTYLE
105
27
330
A
100
AcDbSymbolTableRecord
100
AcDbDimStyleTableRecord
  2
ISO-25
 70
     0
 41
2.5
 42
0.625
 43
3.75
 44
1.25
 73
     0
 74
     0
 77
     1
 78
     8
140
2.5
141
2.5
143
0.0393700787
147
0.625
171
     3
172
     1
178
     0
271
     2
272
     2
274
     3
278
    44
283
     0
284
     8
340
11
  0
ENDTAB
  0
TABLE
  2
BLOCK_RECORD
  5
1
330
0
100
AcDbSymbolTable
 70
     1
  0
BLOCK_RECORD
  5
1F
330
1
100
AcDbSymbolTableRecord
100
AcDbBlockTableRecord
  2
*Model_Space
340
22
  0
BLOCK_RECORD
  5
1B
330
1
100
AcDbSymbolTableRecord
100
AcDbBlockTableRecord
  2
*Paper_Space
340
1E
  0
BLOCK_RECORD
  5
23
330
1
100
AcDbSymbolTableRecord
100
AcDbBlockTableRecord
  2
*Paper_Space0
340
26
  0
ENDTAB
  0
ENDSEC
  0
SECTION
  2
BLOCKS
  0
BLOCK
  5
20
330
1F
100
AcDbEntity
  8
0
100
AcDbBlockBegin
  2
*Model_Space
 70
     0
 10
0.0
 20
0.0
 30
0.0
  3
*Model_Space
  1

  0
ENDBLK
  5
21
330
1F
100
AcDbEntity
  8
0
100
AcDbBlockEnd
  0
BLOCK
  5
1C
330
1B
100
AcDbEntity
 67
     1
  8
0
100
AcDbBlockBegin
  2
*Paper_Space
 70
     0
 10
0.0
 20
0.0
 30
0.0
  3
*Paper_Space
  1

  0
ENDBLK
  5
1D
330
1B
100
AcDbEntity
 67
     1
  8
0
100
AcDbBlockEnd
  0
BLOCK
  5
24
330
23
100
AcDbEntity
  8
0
100
AcDbBlockBegin
  2
*Paper_Space0
 70
     0
 10
0.0
 20
0.0
 30
0.0
  3
*Paper_Space0
  1

  0
ENDBLK
  5
25
330
23
100
AcDbEntity
  8
0
100
AcDbBlockEnd
  0
ENDSEC
  0
SECTION
  2
ENTITIES
  0
SPLINE
  5
73
330
1F
100
AcDbEntity
  8
0
  6
Continuous
 62
     7
370
    15
100
AcDbSpline
210
0.0
220
0.0
230
1.0
 70
     8
 71
     3
 72
    23
 73
    19
 74
     0
 42
0.000000001
 43
0.00000001
 40
0.0
 40
0.0
 40
0.0
 40
0.0
 40
0.0679784896192499
 40
0.1330435352439108
 40
0.1965074380533881
 40
0.258613416768563
 40
0.3197283376065566
 40
0.3808728540495565
 40
0.4426356023162034
 40
0.5050793035048722
 40
0.5678805200585739
 40
0.6288138541554777
 40
0.6889100905404415
 40
0.7487650058898279
 40
0.8093857829631176
 40
0.8708843357532092
 40
0.9340374630736855
 40
1.0
 40
1.0
 40
1.0
 40
1.0
 10
167.8328525641026
 20
66.75222856570514
 30
0.0
 10
167.8333371555736
 20
66.77366017670124
 30
0.0
 10
167.8342855697384
 20
66.81560487580919
 30
0.0
 10
167.841854816525
 20
66.87723509136988
 30
0.0
 10
167.8556358688243
 20
66.93578948807547
 30
0.0
 10
167.8729214057532
 20
66.99214742809028
 30
0.0
 10
167.8969452740703
 20
67.04521718482448
 30
0.0
 10
167.9256526308803
 20
67.09570646211615
 30
0.0
 10
167.9593869377756
 20
67.14354547344688
 30
0.0
 10
167.9982519230451
 20
67.18799831469822
 30
0.0
 10
168.0409843798016
 20
67.22837463213398
 30
0.0
 10
168.087153206633
 20
67.26357053036519
 30
0.0
 10
168.1357200536742
 20
67.29360272364477
 30
0.0
 10
168.1868905485599
 20
67.31878969075254
 30
0.0
 10
168.24115626332
 20
67.33784094496347
 30
0.0
 10
168.2981378852112
 20
67.35095585856135
 30
0.0
 10
168.3577200757088
 20
67.35971450681642
 30
0.0
 10
168.3984518114025
 20
67.3604974475711
 30
0.0
 10
168.4192608173077
 20
67.36089743589743
 30
0.0
  0
SPLINE
  5
74
330
1F
100
AcDbEntity
  8
0
  6
Continuous
 62
     7
370
    15
100
AcDbSpline
210
0.0
220
0.0
230
1.0
 70
     8
 71
     3
 72
    15
 73
    11
 74
     0
 42
0.000000001
 43
0.00000001
 40
0.0
 40
0.0
 40
0.0
 40
0.0
 40
0.1057142614175235
 40
0.2134116126389715
 40
0.3261267300734501
 40
0.4444516715568549
 40
0.5690610798550734
 40
0.702712204481206
 40
0.8463179465861892
 40
1.0
 40
1.0
 40
1.0
 40
1.0
 10
168.4192608173077
 20
67.36089743589743
 30
0.0
 10
168.4439279034515
 20
67.35989564112195
 30
0.0
 10
168.4937248046687
 20
67.35787325894094
 30
0.0
 10
168.5684322154409
 20
67.34181166817807
 30
0.0
 10
168.6430296043345
 20
67.31538378088784
 30
0.0
 10
168.7177086432338
 20
67.2788837692166
 30
0.0
 10
168.7919222628887
 20
67.23165167466813
 30
0.0
 10
168.8663232685875
 20
67.17456581024118
 30
0.0
 10
168.9418048389221
 20
67.10800174065069
 30
0.0
 10
168.9889366372355
 20
67.05711172901972
 30
0.0
 10
169.0133012820513
 20
67.030804286859
 30
0.0
  0
LINE
  5
75
330
1F
100
AcDbEntity
  8
0
  6
Continuous
 62
     7
370
    15
100
AcDbLine
 10
169.0133012821
 20
67.0308042869
 30
0.0
 11
168.8199519231
 21
66.8317307692
 31
0.0
  0
SPLINE
  5
76
330
1F
100
AcDbEntity
  8
0
  6
Continuous
 62
     7
370
    15
100
AcDbSpline
210
0.0
220
0.0
230
1.0
 70
     8
 71
     3
 72
    15
 73
    11
 74
     0
 42
0.000000001
 43
0.00000001
 40
0.0
 40
0.0
 40
0.0
 40
0.0
 40
0.1582230975563069
 40
0.3050355053581602
 40
0.441308963887903
 40
0.565963227104737
 40
0.6835251144150494
 40
0.7933341296296096
 40
0.8985175121610317
 40
1.0
 40
1.0
 40
1.0
 40
1.0
 10
168.8199519230769
 20
66.83173076923077
 30
0.0
 10
168.8032691091623
 20
66.85106483769162
 30
0.0
 10
168.7711066079102
 20
66.88833864559115
 30
0.0
 10
168.7200966215722
 20
66.93817441306214
 30
0.0
 10
168.6692752097584
 20
66.98002720767415
 30
0.0
 10
168.6193380717313
 20
67.01536247111328
 30
0.0
 10
168.5690294990711
 20
67.04207705410573
 30
0.0
 10
168.5189398661939
 20
67.06157596458014
 30
0.0
 10
168.4690173105411
 20
67.07364260257236
 30
0.0
 10
168.4356471214529
 20
67.07519784338773
 30
0.0
 10
168.4192608173077
 20
67.07596153846154
 30
0.0
  0
SPLINE
  5
77
330
1F
100
AcDbEntity
  8
0
  6
Continuous
 62
     7
370
    15
100
AcDbSpline
210
0.0
220
0.0
230
1.0
 70
     8
 71
     3
 72
    15
 73
    11
 74
     0
 42
0.000000001
 43
0.00000001
 40
0.0
 40
0.0
 40
0.0
 40
0.0
 40
0.1249584925460585
 40
0.2459006286062844
 40
0.369166029586093
 40
0.4985108411773607
 40
0.6285038663666203
 40
0.7510283288510118
 40
0.8737241742784421
 40
1.0
 40
1.0
 40
1.0
 40
1.0
 10
168.4192608173077
 20
67.07596153846154
 30
0.0
 10
168.3991772279512
 20
67.07498647511746
 30
0.0
 10
168.3596555664235
 20
67.07306768845196
 30
0.0
 10
168.3030264312207
 20
67.05391479093402
 30
0.0
 10
168.2504569356689
 20
67.02451543533111
 30
0.0
 10
168.2049573895203
 20
66.982815363106
 30
0.0
 10
168.1664149940725
 20
66.9349506335263
 30
0.0
 10
168.138281154863
 20
66.88143253880827
 30
0.0
 10
168.1210762982849
 20
66.82387609916043
 30
0.0
 10
168.1188948627895
 20
66.78393472827555
 30
0.0
 10
168.1177884615384
 20
66.76367688301282
 30
0.0
  0
SPLINE
  5
78
330
1F
100
AcDbEntity
  8
0
  6
Continuous
 62
     7
370
    15
100
AcDbSpline
210
0.0
220
0.0
230
1.0
 70
     8
 71
     3
 72
    11
 73
     7
 74
     0
 42
0.000000001
 43
0.00000001
 40
0.0
 40
0.0
 40
0.0
 40
0.0
 40
0.2400399314959948
 40
0.4794031936060877
 40
0.7317567388575297
 40
0.9999999999999999
 40
0.9999999999999999
 40
0.9999999999999999
 40
0.9999999999999999
 10
168.1177884615384
 20
66.76367688301282
 30
0.0
 10
168.1187961269506
 20
66.7453416715324
 30
0.0
 10
168.1208086171794
 20
66.70872293528977
 30
0.0
 10
168.1364538190353
 20
66.6547043617344
 30
0.0
 10
168.1613694702269
 20
66.60203833423098
 30
0.0
 10
168.1846560036118
 20
66.56977769775327
 30
0.0
 10
168.1966546474359
 20
66.55315504807692
 30
0.0
  0
SPLINE
  5
79
330
1F
100
AcDbEntity
  8
0
  6
Continuous
 62
     7
370
    15
100
AcDbSpline
210
0.0
220
0.0
230
1.0
 70
     8
 71
     3
 72
    15
 73
    11
 74
     0
 42
0.000000001
 43
0.00000001
 40
0.0
 40
0.0
 40
0.0
 40
0.0
 40
0.0834251049856377
 40
0.1775598214659356
 40
0.2839823599504274
 40
0.4022167468071917
 40
0.5335684803800549
 40
0.6761209941988354
 40
0.8316493725539896
 40
1.0
 40
1.0
 40
1.0
 40
1.0
 10
168.1966546474359
 20
66.55315504807692
 30
0.0
 10
168.2038786739288
 20
66.5442790322891
 30
0.0
 10
168.2192541038375
 20
66.52538755137473
 30
0.0
 10
168.2481089709951
 20
66.49916762720306
 30
0.0
 10
168.2807865271613
 20
66.47019144238993
 30
0.0
 10
168.3200838992468
 20
66.44122016884506
 30
0.0
 10
168.3643080459703
 20
66.41071138955077
 30
0.0
 10
168.4144179680785
 20
66.37986659749527
 30
0.0
 10
168.4688234118736
 20
66.34633458348938
 30
0.0
 10
168.5077736828759
 20
66.32506713124612
 30
0.0
 10
168.5280198317307
 20
66.3140124198718
 30
0.0
  0
SPLINE
  5
7A
330
1F
100
AcDbEntity
  8
0
  6
Continuous
 62
     7
370
    15
100
AcDbSpline
210
0.0
220
0.0
230
1.0
 70
     8
 71
     3
 72
    15
 73
    11
 74
     0
 42
0.000000001
 43
0.00000001
 40
0.0
 40
0.0
 40
0.0
 40
0.0
 40
0.1589891012267978
 40
0.307114591605573
 40
0.4462131585962031
 40
0.5748760724117429
 40
0.6941521095829505
 40
0.804581180153245
 40
0.9065933190457779
 40
1.0
 40
1.0
 40
1.0
 40
1.0
 10
168.5280198317307
 20
66.3140124198718
 30
0.0
 10
168.5527064338117
 20
66.30018311517611
 30
0.0
 10
168.6003928202225
 20
66.27346945222043
 30
0.0
 10
168.6681498305186
 20
66.23200422117962
 30
0.0
 10
168.7296423605421
 20
66.19079142916006
 30
0.0
 10
168.7853914304807
 20
66.15027183071393
 30
0.0
 10
168.8343243570729
 20
66.10931172937583
 30
0.0
 10
168.8779257726927
 20
66.06948112126399
 30
0.0
 10
168.9151081468259
 20
66.02957653446356
 30
0.0
 10
168.9359306374638
 20
66.00169720991093
 30
0.0
 10
168.9458834134615
 20
65.98837139423078
 30
0.0
  0
SPLINE
  5
7B
330
1F
100
AcDbEntity
  8
0
  6
Continuous
 62
     7
370
    15
100
AcDbSpline
210
0.0
220
0.0
230
1.0
 70
     8
 71
     3
 72
    11
 73
     7
 74
     0
 42
0.000000001
 43
0.00000001
 40
0.0
 40
0.0
 40
0.0
 40
0.0
 40
0.248838614127086
 40
0.4952350254576789
 40
0.7433356038750204
 40
1.0
 40
1.0
 40
1.0
 40
1.0
 10
168.9458834134615
 20
65.98837139423078
 30
0.0
 10
168.9624029633281
 20
65.96146001435639
 30
0.0
 10
168.9952799335181
 20
65.90790137377341
 30
0.0
 10
169.0298042180889
 20
65.81971037173601
 30
0.0
 10
169.0498160388391
 20
65.72617441595366
 30
0.0
 10
169.0525939100419
 20
65.66219161627639
 30
0.0
 10
169.0540064102564
 20
65.62965745192308
 30
0.0
  0
SPLINE
  5
7C
330
1F
100
AcDbEntity
  8
0
  6
Continuous
 62
     7
370
    15
100
AcDbSpline
210
0.0
220
0.0
230
1.0
 70
     8
 71
     3
 72
    23
 73
    19
 74
     0
 42
0.000000001
 43
0.00000001
 40
0.0
 40
0.0
 40
0.0
 40
0.0
 40
0.0645481255642463
 40
0.127199132755511
 40
0.1885973380874232
 40
0.2486395150940114
 40
0.3095246994640515
 40
0.3700369910533529
 40
0.4318892436070723
 40
0.495704285725295
 40
0.5595193278435178
 40
0.6213715803972448
 40
0.682397107291653
 40
0.7435684819321834
 40
0.8054984835712252
 40
0.8686397008205411
 40
0.9330662250811783
 40
1.0
 40
1.0
 40
1.0
 40
1.0
 10
169.0540064102564
 20
65.62965745192308
 30
0.0
 10
169.0533536902953
 20
65.606734726401
 30
0.0
 10
169.0520674343077
 20
65.56156299164782
 30
0.0
 10
169.0431247592999
 20
65.49503782470478
 30
0.0
 10
169.0277441736352
 20
65.43141576179674
 30
0.0
 10
169.0067948396885
 20
65.37000646781752
 30
0.0
 10
168.9785061585544
 20
65.31198657259311
 30
0.0
 10
168.9453520854241
 20
65.25589226101143
 30
0.0
 10
168.9055512726354
 20
65.20293695236684
 30
0.0
 10
168.86011123904
 20
65.15319018134825
 30
0.0
 10
168.8103585409305
 20
65.10775525333128
 30
0.0
 10
168.7572851154242
 20
65.06781923803835
 30
0.0
 10
168.7008256047995
 20
65.03464108929347
 30
0.0
 10
168.6413834349378
 20
65.00718609753741
 30
0.0
 10
168.5788235487433
 20
64.98535274925746
 30
0.0
 10
168.5131361648906
 20
64.9702374530487
 30
0.0
 10
168.4445300803864
 20
64.9611907340561
 30
0.0
 10
168.3978758972961
 20
64.9599348163744
 30
0.0
 10
168.3741035657051
 20
64.95929487179487
 30
0.0
  0
SPLINE
  5
7D
330
1F
100
AcDbEntity
  8
0
  6
Continuous
 62
     7
370
    15
100
AcDbSpline
210
0.0
220
0.0
230
1.0
 70
     8
 71
     3
 72
    15
 73
    11
 74
     0
 42
0.000000001
 43
0.00000001
 40
0.0
 40
0.0
 40
0.0
 40
0.0
 40
0.1267425189618466
 40
0.2517239612496228
 40
0.377218688026246
 40
0.5046935492516224
 40
0.6314582385935039
 40
0.7554010672029512
 40
0.8777005336014695
 40
0.9999999999999999
 40
0.9999999999999999
 40
0.9999999999999999
 40
0.9999999999999999
 10
168.3741035657051
 20
64.95929487179487
 30
0.0
 10
168.3420204851292
 20
64.96019539280445
 30
0.0
 10
168.278300115692
 20
64.96198392215975
 30
0.0
 10
168.1840572990358
 20
64.97877156335835
 30
0.0
 10
168.0919634679613
 20
65.00489309931459
 30
0.0
 10
168.002715542112
 20
65.04092112530091
 30
0.0
 10
167.9183094245126
 20
65.08641498624999
 30
0.0
 10
167.841083514339
 20
65.14090015757468
 30
0.0
 10
167.770769544821
 20
65.20257679807676
 30
0.0
 10
167.7307479679318
 20
65.24985065277774
 30
0.0
 10
167.7107371794872
 20
65.27348758012822
 30
0.0
  0
LINE
  5
7E
330
1F
100
AcDbEntity
  8
0
  6
Continuous
 62
     7
370
    15
100
AcDbLine
 10
167.7107371795
 20
65.2734875801
 30
0.0
 11
167.8996344151
 21
65.4884615385
 31
0.0
  0
SPLINE
  5
7F
330
1F
100
AcDbEntity
  8
0
  6
Continuous
 62
     7
370
    15
100
AcDbSpline
210
0.0
220
0.0
230
1.0
 70
     8
 71
     3
 72
    15
 73
    11
 74
     0
 42
0.000000001
 43
0.00000001
 40
0.0
 40
0.0
 40
0.0
 40
0.0
 40
0.1474758177483389
 40
0.2859041715443723
 40
0.4171716482444184
 40
0.5405007435864903
 40
0.65923771838024
 40
0.775006098315958
 40
0.8872285734285899
 40
1.0
 40
1.0
 40
1.0
 40
1.0
 10
167.8996344150641
 20
65.48846153846154
 30
0.0
 10
167.9175708182642
 20
65.46908971635416
 30
0.0
 10
167.9523432479118
 20
65.43153451011443
 30
0.0
 10
168.0079522088638
 20
65.38152885821968
 30
0.0
 10
168.0645392370072
 20
65.33961770512128
 30
0.0
 10
168.1215392741139
 20
65.30456260741717
 30
0.0
 10
168.1797960739645
 20
65.27755206312423
 30
0.0
 10
168.2389831668765
 20
65.25857591007768
 30
0.0
 10
168.2989801658465
 20
65.24638010713032
 30
0.0
 10
168.3392773890545
 20
65.24494837959764
 30
0.0
 10
168.3594751602564
 20
65.2442307692308
 30
0.0
  0
SPLINE
  5
80
330
1F
100
AcDbEntity
  8
0
  6
Continuous
 62
     7
370
    15
100
AcDbSpline
210
0.0
220
0.0
230
1.0
 70
     8
 71
     3
 72
    15
 73
    11
 74
     0
 42
0.000000001
 43
0.00000001
 40
0.0
 40
0.0
 40
0.0
 40
0.0
 40
0.1340420464623708
 40
0.2618956736507206
 40
0.3878360446910935
 40
0.5176862058208316
 40
0.6445086536782098
 40
0.7647182630567206
 40
0.8802907821584924
 40
1.0
 40
1.0
 40
1.0
 40
1.0
 10
168.3594751602564
 20
65.24423076923078
 30
0.0
 10
168.3869778502326
 20
65.2454743032111
 30
0.0
 10
168.4407134929554
 20
65.2479039600097
 30
0.0
 10
168.5176789025552
 20
65.26996303635102
 30
0.0
 10
168.5887432279781
 20
65.30455234979232
 30
0.0
 10
168.6504501199845
 20
65.35361489740902
 30
0.0
 10
168.7029756518101
 20
65.41072459541013
 30
0.0
 10
168.7410104957371
 20
65.47505383220405
 30
0.0
 10
168.7648467406195
 20
65.54471465362924
 30
0.0
 10
168.7676461822574
 20
65.59300395671941
 30
0.0
 10
168.7690705128205
 20
65.61757311698719
 30
0.0
  0
SPLINE
  5
81
330
1F
100
AcDbEntity
  8
0
  6
Continuous
 62
     7
370
    15
100
AcDbSpline
210
0.0
220
0.0
230
1.0
 70
     8
 71
     3
 72
    11
 73
     7
 74
     0
 42
0.000000001
 43
0.00000001
 40
0.0
 40
0.0
 40
0.0
 40
0.0
 40
0.253475434649855
 40
0.5004533151029301
 40
0.7455781350009804
 40
1.0
 40
1.0
 40
1.0
 40
1.0
 10
168.7690705128205
 20
65.61757311698719
 30
0.0
 10
168.7680850886703
 20
65.63781112820205
 30
0.0
 10
168.7661395005961
 20
65.67776837225442
 30
0.0
 10
168.7508602467063
 20
65.73559903877305
 30
0.0
 10
168.7267185878706
 20
65.79045331482062
 30
0.0
 10
168.7029472282926
 20
65.82255678053276
 30
0.0
 10
168.6908403445512
 20
65.83890725160256
 30
0.0
  0
SPLINE
  5
82
330
1F
100
AcDbEntity
  8
0
  6
Continuous
 62
     7
370
    15
100
AcDbSpline
210
0.0
220
0.0
230
1.0
 70
     8
 71
     3
 72
    15
 73
    11
 74
     0
 42
0.000000001
 43
0.00000001
 40
0.0
 40
0.0
 40
0.0
 40
0.0
 40
0.0768750740350603
 40
0.1674616757257464
 40
0.2722700232466143
 40
0.3895508405125262
 40
0.5208013683480558
 40
0.6662632933752065
 40
0.825544915205844
 40
1.0
 40
1.0
 40
1.0
 40
1.0
 10
168.6908403445512
 20
65.83890725160256
 30
0.0
 10
168.6835628867493
 20
65.84710361584023
 30
0.0
 10
168.6677099553038
 20
65.8649582573782
 30
0.0
 10
168.6386312721558
 20
65.89074386463123
 30
0.0
 10
168.6038134400165
 20
65.91853699743459
 30
0.0
 10
168.5628648636422
 20
65.9478663674004
 30
0.0
 10
168.5157029945989
 20
65.97834510220119
 30
0.0
 10
168.462136684781
 20
66.00981330031323
 30
0.0
 10
168.4028997549692
 20
66.04376559442132
 30
0.0
 10
168.3610163965594
 20
66.06628056748275
 30
0.0
 10
168.3391225961538
 20
66.0780498798077
 30
0.0
  0
SPLINE
  5
83
330
1F
100
AcDbEntity
  8
0
  6
Continuous
 62
     7
370
    15
100
AcDbSpline
210
0.0
220
0.0
230
1.0
 70
     8
 71
     3
 72
    15
 73
    11
 74
     0
 42
0.000000001
 43
0.00000001
 40
0.0
 40
0.0
 40
0.0
 40
0.0
 40
0.1577616635135613
 40
0.3059502132085216
 40
0.4437754990007151
 40
0.5728243624015253
 40
0.6921541564432464
 40
0.8022957069908384
 40
0.9055643918329802
 40
1.0
 40
1.0
 40
1.0
 40
1.0
 10
168.3391225961538
 20
66.0780498798077
 30
0.0
 10
168.3154945726895
 20
66.09123894924599
 30
0.0
 10
168.2696722946049
 20
66.11681676401292
 30
0.0
 10
168.2047686806845
 20
66.156654922533
 30
0.0
 10
168.1462150093575
 20
66.19717452170715
 30
0.0
 10
168.0926023452898
 20
66.2361025973123
 30
0.0
 10
168.0452848615682
 20
66.27549159646469
 30
0.0
 10
168.0044489656058
 20
66.31538524601021
 30
0.0
 10
167.9684869055301
 20
66.35417466195358
 30
0.0
 10
167.9485774677454
 20
66.38165863816837
 30
0.0
 10
167.9390675080128
 20
66.39478665865386
 30
0.0
  0
SPLINE
  5
84
330
1F
100
AcDbEntity
  8
0
  6
Continuous
 62
     7
370
    15
100
AcDbSpline
210
0.0
220
0.0
230
1.0
 70
     8
 71
     3
 72
    11
 73
     7
 74
     0
 42
0.000000001
 43
0.00000001
 40
0.0
 40
0.0
 40
0.0
 40
0.0
 40
0.2462523706929853
 40
0.4925907964763788
 40
0.7405699911180986
 40
1.0
 40
1.0
 40
1.0
 40
1.0
 10
167.9390675080128
 20
66.39478665865386
 30
0.0
 10
167.9226204640389
 20
66.42122589515053
 30
0.0
 10
167.8897206285246
 20
66.47411360757118
 30
0.0
 10
167.8577754193844
 20
66.56238811146382
 30
0.0
 10
167.8358170931888
 20
66.65532041346977
 30
0.0
 10
167.8338554963923
 20
66.71944348848369
 30
0.0
 10
167.8328525641026
 20
66.75222856570514
 30
0.0
  0
SPLINE
  5
85
330
1F
100
AcDbEntity
  8
0
  6
Continuous
 62
     7
370
    15
100
AcDbSpline
210
0.0
220
0.0
230
1.0
 70
     8
 71
     3
 72
    15
 73
    11
 74
     0
 42
0.000000001
 43
0.00000001
 40
0.0
 40
0.0
 40
0.0
 40
0.0
 40
0.1318667517023363
 40
0.2566614034533504
 40
0.3842132129424844
 40
0.5133652331525955
 40
0.6404431518253793
 40
0.7610850047778637
 40
0.8791455246531472
 40
1.0
 40
1.0
 40
1.0
 40
1.0
 10
169.7243689903846
 20
67.80865384615385
 30
0.0
 10
169.7068899121977
 20
67.80944280664067
 30
0.0
 10
169.6728691701939
 20
67.81097841514851
 30
0.0
 10
169.6235506774978
 20
67.8251026455236
 30
0.0
 10
169.5783491192624
 20
67.84815865469335
 30
0.0
 10
169.5378318804937
 20
67.87920669402968
 30
0.0
 10
169.504058776724
 20
67.91634956508805
 30
0.0
 10
169.4794767243999
 20
67.95837503880131
 30
0.0
 10
169.4639872946894
 20
68.00392191477619
 30
0.0
 10
169.4620418101604
 20
68.03559223707092
 30
0.0
 10
169.4610576923077
 20
68.05161258012821
 30
0.0
  0
SPLINE
  5
86
330
1F
100
AcDbEntity
  8
0
  6
Continuous
 62
     7
370
    15
100
AcDbSpline
210
0.0
220
0.0
230
1.0
 70
     8
 71
     3
 72
    15
 73
    11
 74
     0
 42
0.000000001
 43
0.00000001
 40
0.0
 40
0.0
 40
0.0
 40
0.0
 40
0.1232898687277964
 40
0.2421490813339703
 40
0.3634374760537454
 40
0.4897453933413677
 40
0.6181148445930253
 40
0.7448937812572638
 40
0.8689322665891814
 40
1.0
 40
1.0
 40
1.0
 40
1.0
 10
169.4610576923078
 20
68.05161258012822
 30
0.0
 10
169.462020249453
 20
68.06805985083925
 30
0.0
 10
169.4639107724203
 20
68.10036332828007
 30
0.0
 10
169.4794883349174
 20
68.14671382242504
 30
0.0
 10
169.5038540176727
 20
68.1893327562036
 30
0.0
 10
169.5378542431639
 20
68.22654874496858
 30
0.0
 10
169.5783431678377
 20
68.25761424650908
 30
0.0
 10
169.6235522152388
 20
68.28066563687179
 30
0.0
 10
169.6728687639608
 20
68.29479106615766
 30
0.0
 10
169.7068897743218
 20
68.296326509161
 30
0.0
 10
169.7243689903846
 20
68.29711538461538
 30
0.0
  0
SPLINE
  5
87
330
1F
100
AcDbEntity
  8
0
  6
Continuous
 62
     7
370
    15
100
AcDbSpline
210
0.0
220
0.0
230
1.0
 70
     8
 71
     3
 72
    15
 73
    11
 74
     0
 42
0.000000001
 43
0.00000001
 40
0.0
 40
0.0
 40
0.0
 40
0.0
 40
0.1318992643310713
 40
0.2582840923169975
 40
0.3843411247791199
 40
0.5119796151257
 40
0.6386320084211442
 40
0.7592297631645958
 40
0.8774121680352083
 40
1.0
 40
1.0
 40
1.0
 40
1.0
 10
169.7243689903846
 20
68.29711538461538
 30
0.0
 10
169.7420503982782
 20
68.29629518922783
 30
0.0
 10
169.7766739908495
 20
68.29468908913113
 30
0.0
 10
169.8267421693845
 20
68.28093546349551
 30
0.0
 10
169.8723324589099
 20
68.25762217741372
 30
0.0
 10
169.9127708308886
 20
68.22634418116816
 30
0.0
 10
169.9474707566636
 20
68.18956004317306
 30
0.0
 10
169.9717646867897
 20
68.14668759336232
 30
0.0
 10
169.9873787889801
 20
68.10037011388958
 30
0.0
 10
169.9892643355533
 20
68.06806214013244
 30
0.0
 10
169.9902243589744
 20
68.05161258012821
 30
0.0
  0
SPLINE
  5
88
330
1F
100
AcDbEntity
  8
0
  6
Continuous
 62
     7
370
    15
100
AcDbSpline
210
0.0
220
0.0
230
1.0
 70
     8
 71
     3
 72
    15
 73
    11
 74
     0
 42
0.000000001
 43
0.00000001
 40
0.0
 40
0.0
 40
0.0
 40
0.0
 40
0.1201621349926004
 40
0.2375463202768885
 40
0.3574970509273558
 40
0.4849171224652814
 40
0.6133292680851075
 40
0.7401503701286645
 40
0.8673012545632692
 40
1.0
 40
1.0
 40
1.0
 40
1.0
 10
169.9902243589744
 20
68.05161258012821
 30
0.0
 10
169.989242685419
 20
68.035590030473
 30
0.0
 10
169.9873020329763
 20
68.00391534599541
 30
0.0
 10
169.9717767472054
 20
67.95840083920498
 30
0.0
 10
169.9472637171626
 20
67.91612409633083
 30
0.0
 10
169.9127930817731
 20
67.87941138063829
 30
0.0
 10
169.8723265628642
 20
67.84815067536113
 30
0.0
 10
169.8267437357003
 20
67.82483280506877
 30
0.0
 10
169.7766735788335
 20
67.81108039474411
 30
0.0
 10
169.7420502589985
 20
67.80947412710246
 30
0.0
 10
169.7243689903846
 20
67.80865384615385
 30
0.0
  0
LINE
  5
89
330
1F
100
AcDbEntity
  8
0
  6
Continuous
 62
     7
370
    15
100
AcDbLine
 10
169.8681089744
 20
65.0
 30
0.0
 11
169.5831730769
 21
65.0
 31
0.0
  0
LINE
  5
8A
330
1F
100
AcDbEntity
  8
0
  6
Continuous
 62
     7
370
    15
100
AcDbLine
 10
169.5831730769
 20
65.0
 30
0.0
 11
169.5831730769
 21
67.3201923077
 31
0.0
  0
LINE
  5
8B
330
1F
100
AcDbEntity
  8
0
  6
Continuous
 62
     7
370
    15
100
AcDbLine
 10
169.5831730769
 20
67.3201923077
 30
0.0
 11
169.8681089744
 21
67.3201923077
 31
0.0
  0
LINE
  5
8C
330
1F
100
AcDbEntity
  8
0
  6
Continuous
 62
     7
370
    15
100
AcDbLine
 10
169.8681089744
 20
67.3201923077
 30
0.0
 11
169.8681089744
 21
65.0
 31
0.0
  0
LINE
  5
8D
330
1F
100
AcDbEntity
  8
0
  6
Continuous
 62
     7
370
    15
100
AcDbLine
 10
170.8450320513
 20
65.0
 30
0.0
 11
170.5600961538
 21
65.0
 31
0.0
  0
LINE
  5
8E
330
1F
100
AcDbEntity
  8
0
  6
Continuous
 62
     7
370
    15
100
AcDbLine
 10
170.5600961538
 20
65.0
 30
0.0
 11
170.5600961538
 21
67.3201923077
 31
0.0
  0
LINE
  5
8F
330
1F
100
AcDbEntity
  8
0
  6
Continuous
 62
     7
370
    15
100
AcDbLine
 10
170.5600961538
 20
67.3201923077
 30
0.0
 11
170.8450320513
 21
67.3201923077
 31
0.0
  0
LINE
  5
90
330
1F
100
AcDbEntity
  8
0
  6
Continuous
 62
     7
370
    15
100
AcDbLine
 10
170.8450320513
 20
67.3201923077
 30
0.0
 11
170.8450320513
 21
66.9016927083
 31
0.0
  0
SPLINE
  5
91
330
1F
100
AcDbEntity
  8
0
  6
Continuous
 62
     7
370
    15
100
AcDbSpline
210
0.0
220
0.0
230
1.0
 70
     8
 71
     3
 72
    15
 73
    11
 74
     0
 42
0.000000001
 43
0.00000001
 40
0.0
 40
0.0
 40
0.0
 40
0.0
 40
0.1409759662687763
 40
0.2735687809631727
 40
0.3989883138042575
 40
0.5199297813924226
 40
0.6381100215247325
 40
0.7565889007405854
 40
0.8768597544106115
 40
1.0
 40
1.0
 40
1.0
 40
1.0
 10
170.845032051282
 20
66.90169270833333
 30
0.0
 10
170.8754554774376
 20
66.93965003547889
 30
0.0
 10
170.9344931973156
 20
67.01330755307332
 30
0.0
 10
171.0328132710725
 20
67.11011835999565
 30
0.0
 10
171.1367209520796
 20
67.18989724271489
 30
0.0
 10
171.2455799123856
 20
67.25349139865004
 30
0.0
 10
171.3595379286907
 20
67.30143083808494
 30
0.0
 10
171.4779003593
 20
67.3360527898555
 30
0.0
 10
171.6013758426797
 20
67.35681259860219
 30
0.0
 10
171.685345010415
 20
67.35952516465959
 30
0.0
 10
171.7278245192308
 20
67.36089743589743
 30
0.0
  0
SPLINE
  5
92
330
1F
100
AcDbEntity
  8
0
  6
Continuous
 62
     7
370
    15
100
AcDbSpline
210
0.0
220
0.0
230
1.0
 70
     8
 71
     3
 72
    23
 73
    19
 74
     0
 42
0.000000001
 43
0.00000001
 40
0.0
 40
0.0
 40
0.0
 40
0.0
 40
0.0772404236164746
 40
0.1511781404663744
 40
0.2234879838003876
 40
0.2955426441988725
 40
0.366976254619781
 40
0.4371305254863753
 40
0.5070436156432641
 40
0.5785597335236743
 40
0.6166135446965502
 40
0.6587562369775266
 40
0.7044912261144015
 40
0.7548031149051457
 40
0.8093316253185588
 40
0.8682744554728199
 40
0.932072883409289
 40
1.0
 40
1.0
 40
1.0
 40
1.0
 10
171.7278245192308
 20
67.36089743589743
 30
0.0
 10
171.7707601658936
 20
67.35931429431864
 30
0.0
 10
171.8547955830794
 20
67.35621570437348
 30
0.0
 10
171.9771492530473
 20
67.33170770600846
 30
0.0
 10
172.0914251173205
 20
67.28984736743111
 30
0.0
 10
172.1972157143567
 20
67.23250498927978
 30
0.0
 10
172.29258111505
 20
67.16119768840629
 30
0.0
 10
172.3763329446033
 20
67.07812355781051
 30
0.0
 10
172.4456053190102
 20
66.98256868230393
 30
0.0
 10
172.4920486411599
 20
66.89391981914642
 30
0.0
 10
172.5226426215653
 20
66.81528069862753
 30
0.0
 10
172.5419033848814
 20
66.74792828960928
 30
0.0
 10
172.5582600609195
 20
66.67289110962021
 30
0.0
 10
172.5724402894784
 20
66.59039591097799
 30
0.0
 10
172.5820352409582
 20
66.4998646955348
 30
0.0
 10
172.589602891133
 20
66.40166857488678
 30
0.0
 10
172.5950264209517
 20
66.29583935650867
 30
0.0
 10
172.5952416015754
 20
66.22264505878684
 30
0.0
 10
172.5953525641025
 20
66.18490084134615
 30
0.0
  0
LINE
  5
93
330
1F
100
AcDbEntity
  8
0
  6
Continuous
 62
     7
370
    15
100
AcDbLine
 10
172.5953525641
 20
66.1849008413
 30
0.0
 11
172.5953525641
 21
65.0
 31
0.0
  0
LINE
  5
94
330
1F
100
AcDbEntity
  8
0
  6
Continuous
 62
     7
370
    15
100
AcDbLine
 10
172.5953525641
 20
65.0
 30
0.0
 11
172.3104166667
 21
65.0
 31
0.0
  0
LINE
  5
95
330
1F
100
AcDbEntity
  8
0
  6
Continuous
 62
     7
370
    15
100
AcDbLine
 10
172.3104166667
 20
65.0
 30
0.0
 11
172.3104166667
 21
66.09140625
 31
0.0
  0
SPLINE
  5
96
330
1F
100
AcDbEntity
  8
0
  6
Continuous
 62
     7
370
    15
100
AcDbSpline
210
0.0
220
0.0
230
1.0
 70
     8
 71
     3
 72
    15
 73
    11
 74
     0
 42
0.000000001
 43
0.00000001
 40
0.0
 40
0.0
 40
0.0
 40
0.0
 40
0.1788500194111728
 40
0.3421096489423048
 40
0.4898256633683971
 40
0.6232544282245677
 40
0.7400796760858074
 40
0.8414826730699919
 40
0.9289076721840637
 40
1.0
 40
1.0
 40
1.0
 40
1.0
 10
172.3104166666667
 20
66.09140624999999
 30
0.0
 10
172.3102413993923
 20
66.12299518218538
 30
0.0
 10
172.309906142925
 20
66.18341943338747
 30
0.0
 10
172.3088487348612
 20
66.2699327615673
 30
0.0
 10
172.3062998388713
 20
66.34838844340409
 30
0.0
 10
172.3027181550118
 20
66.41859891240759
 30
0.0
 10
172.297475748746
 20
66.48049674986147
 30
0.0
 10
172.2920123617355
 20
66.5342080223314
 30
0.0
 10
172.2853312756412
 20
66.57966453582405
 30
0.0
 10
172.2793777758668
 20
66.607028574843
 30
0.0
 10
172.2767077323718
 20
66.61930088141025
 30
0.0
  0
SPLINE
  5
97
330
1F
100
AcDbEntity
  8
0
  6
Continuous
 62
     7
370
    15
100
AcDbSpline
210
0.0
220
0.0
230
1.0
 70
     8
 71
     3
 72
    15
 73
    11
 74
     0
 42
0.000000001
 43
0.00000001
 40
0.0
 40
0.0
 40
0.0
 40
0.0
 40
0.1355195283706067
 40
0.2608331631936801
 40
0.3784760291245104
 40
0.493177646474673
 40
0.6092809649289412
 40
0.7299810378566303
 40
0.8592613089300509
 40
1.0
 40
1.0
 40
1.0
 40
1.0
 10
172.2767077323718
 20
66.61930088141025
 30
0.0
 10
172.2670688573625
 20
66.6553245991842
 30
0.0
 10
172.248517005179
 20
66.72465911037935
 30
0.0
 10
172.2026754633441
 20
66.81870655882881
 30
0.0
 10
172.1447868850583
 20
66.89871491493109
 30
0.0
 10
172.07412240742
 20
66.96418951240469
 30
0.0
 10
171.991364603089
 20
67.01514448570131
 30
0.0
 10
171.8967431235783
 20
67.05049943034659
 30
0.0
 10
171.7911710709683
 20
67.07261218883419
 30
0.0
 10
171.7169174524003
 20
67.07481394430523
 30
0.0
 10
171.6782151442308
 20
67.07596153846154
 30
0.0
  0
SPLINE
  5
98
330
1F
100
AcDbEntity
  8
0
  6
Continuous
 62
     7
370
    15
100
AcDbSpline
210
0.0
220
0.0
230
1.0
 70
     8
 71
     3
 72
    23
 73
    19
 74
     0
 42
0.000000001
 43
0.00000001
 40
0.0
 40
0.0
 40
0.0
 40
0.0
 40
0.0639861098164614
 40
0.1266268580894722
 40
0.188984371981488
 40
0.2502301939603875
 40
0.3123511629623293
 40
0.3745736184579459
 40
0.438147530878218
 40
0.502920412607373
 40
0.5679740951402702
 40
0.6307713337492016
 40
0.6929346089254504
 40
0.7543975343123398
 40
0.8152183520172989
 40
0.8761169254810988
 40
0.938014604793951
 40
1.0
 40
1.0
 40
1.0
 40
1.0
 10
171.6782151442308
 20
67.07596153846154
 30
0.0
 10
171.655293745532
 20
67.07552973423103
 30
0.0
 10
171.6099328897376
 20
67.07467520481559
 30
0.0
 10
171.5426682723656
 20
67.06610152732333
 30
0.0
 10
171.4774227724113
 20
67.05207849974481
 30
0.0
 10
171.4135415828232
 20
67.03314766429916
 30
0.0
 10
171.3523023699351
 20
67.00714689150432
 30
0.0
 10
171.2917376200786
 20
66.97763810565738
 30
0.0
 10
171.2341279126181
 20
66.94085508478501
 30
0.0
 10
171.1782448309371
 20
66.89986073533605
 30
0.0
 10
171.1262539268519
 20
66.8544317402354
 30
0.0
 10
171.0778775055793
 20
66.80649422031101
 30
0.0
 10
171.0347537300659
 20
66.75544420829598
 30
0.0
 10
170.9956842889156
 20
66.70210425589461
 30
0.0
 10
170.9619582928517
 20
66.64574180285439
 30
0.0
 10
170.9325187058237
 20
66.58690061054861
 30
0.0
 10
170.9075398969769
 20
66.52550323268693
 30
0.0
 10
170.8951277402364
 20
66.48289014142763
 30
0.0
 10
170.8889172676282
 20
66.4615685096154
 30
0.0
  0
SPLINE
  5
99
330
1F
100
AcDbEntity
  8
0
  6
Continuous
 62
     7
370
    15
100
AcDbSpline
210
0.0
220
0.0
230
1.0
 70
     8
 71
     3
 72
    15
 73
    11
 74
     0
 42
0.000000001
 43
0.00000001
 40
0.0
 40
0.0
 40
0.0
 40
0.0
 40
0.0769954547170605
 40
0.1676150771831794
 40
0.2710523936342327
 40
0.389459502572075
 40
0.5208428024655727
 40
0.6663987586080586
 40
0.8260936125153013
 40
1.0
 40
1.0
 40
1.0
 40
1.0
 10
170.8889172676282
 20
66.4615685096154
 30
0.0
 10
170.8853434435631
 20
66.44591557541652
 30
0.0
 10
170.8775634155249
 20
66.41183995649156
 30
0.0
 10
170.8691603880816
 20
66.35591966176413
 30
0.0
 10
170.86153351611
 20
66.29123132730697
 30
0.0
 10
170.8551499893632
 20
66.21785043969203
 30
0.0
 10
170.8512443615649
 20
66.13552008154967
 30
0.0
 10
170.846985873063
 20
66.04459185725605
 30
0.0
 10
170.8454355105243
 20
65.94470319281875
 30
0.0
 10
170.8451703036655
 20
65.875160085847
 30
0.0
 10
170.8450320512821
 20
65.83890725160258
 30
0.0
  0
LINE
  5
9A
330
1F
100
AcDbEntity
  8
0
  6
Continuous
 62
     7
370
    15
100
AcDbLine
 10
170.8450320513
 20
65.8389072516
 30
0.0
 11
170.8450320513
 21
65.0
 31
0.0
  0
SPLINE
  5
9B
330
1F
100
AcDbEntity
  8
0
  6
Continuous
 62
     7
370
    15
100
AcDbSpline
210
0.0
220
0.0
230
1.0
 70
     8
 71
     3
 72
    15
 73
    11
 74
     0
 42
0.000000001
 43
0.00000001
 40
0.0
 40
0.0
 40
0.0
 40
0.0
 40
0.1209110787487082
 40
0.238762228638732
 40
0.3547548590848689
 40
0.4703593994502178
 40
0.5891440987928733
 40
0.7163289048363529
 40
0.8524452858576032
 40
1.0
 40
1.0
 40
1.0
 40
1.0
 10
174.3634815705128
 20
67.36089743589744
 30
0.0
 10
174.4061634937299
 20
67.35966673942006
 30
0.0
 10
174.4904471773705
 20
67.35723649202872
 30
0.0
 10
174.6144817295735
 20
67.33816731014541
 30
0.0
 10
174.734172190124
 20
67.30776531231926
 30
0.0
 10
174.8501939614881
 20
67.26420827607072
 30
0.0
 10
174.9634921591822
 20
67.20474502700966
 30
0.0
 10
175.0736933750705
 20
67.12641963845749
 30
0.0
 10
175.1811164467863
 20
67.02852954455777
 30
0.0
 10
175.2474084787831
 20
66.95346087473894
 30
0.0
 10
175.281891025641
 20
66.91441306089745
 30
0.0
  0
LINE
  5
9C
330
1F
100
AcDbEntity
  8
0
  6
Continuous
 62
     7
370
    15
100
AcDbLine
 10
175.2818910256
 20
66.9144130609
 30
0.0
 11
175.2818910256
 21
67.3201923077
 31
0.0
  0
LINE
  5
9D
330
1F
100
AcDbEntity
  8
0
  6
Continuous
 62
     7
370
    15
100
AcDbLine
 10
175.2818910256
 20
67.3201923077
 30
0.0
 11
175.5668269231
 21
67.3201923077
 31
0.0
  0
LINE
  5
9E
330
1F
100
AcDbEntity
  8
0
  6
Continuous
 62
     7
370
    15
100
AcDbLine
 10
175.5668269231
 20
67.3201923077
 30
0.0
 11
175.5668269231
 21
65.478921274
 31
0.0
  0
SPLINE
  5
9F
330
1F
100
AcDbEntity
  8
0
  6
Continuous
 62
     7
370
    15
100
AcDbSpline
210
0.0
220
0.0
230
1.0
 70
     8
 71
     3
 72
    15
 73
    11
 74
     0
 42
0.000000001
 43
0.00000001
 40
0.0
 40
0.0
 40
0.0
 40
0.0
 40
0.163445254849767
 40
0.3154887127129143
 40
0.4562908239366549
 40
0.5858641495747609
 40
0.7054286858067417
 40
0.8133707129824335
 40
0.9117182381600831
 40
1.0
 40
1.0
 40
1.0
 40
1.0
 10
175.5668269230769
 20
65.47892127403848
 30
0.0
 10
175.5665756058876
 20
65.43969859893087
 30
0.0
 10
175.5660905031748
 20
65.36398938797683
 30
0.0
 10
175.562597122108
 20
65.25451694861364
 30
0.0
 10
175.5552305077724
 20
65.15340128530974
 30
0.0
 10
175.5468769182587
 20
65.06018123644664
 30
0.0
 10
175.534860254169
 20
64.97528889374941
 30
0.0
 10
175.520185978174
 20
64.89847094379512
 30
0.0
 10
175.5036436120862
 20
64.82965366936165
 30
0.0
 10
175.4891109862526
 20
64.78726756357239
 30
0.0
 10
175.4822365785256
 20
64.76721754807691
 30
0.0
  0
SPLINE
  5
A0
330
1F
100
AcDbEntity
  8
0
  6
Continuous
 62
     7
370
    15
100
AcDbSpline
210
0.0
220
0.0
230
1.0
 70
     8
 71
     3
 72
    23
 73
    19
 74
     0
 42
0.000000001
 43
0.00000001
 40
0.0
 40
0.0
 40
0.0
 40
0.0
 40
0.0613707062984494
 40
0.1209064680177726
 40
0.179423665000024
 40
0.2376066874397718
 40
0.2959384682493598
 40
0.3542182268208487
 40
0.4135370665946728
 40
0.4740867825531774
 40
0.5351211890802631
 40
0.5969876649622151
 40
0.6600198335467993
 40
0.7242774964844789
 40
0.790011850225526
 40
0.8577476843344289
 40
0.9278290322155328
 40
1.0
 40
1.0
 40
1.0
 40
1.0
 10
175.4822365785256
 20
64.76721754807691
 30
0.0
 10
175.4720863405289
 20
64.74115540491901
 30
0.0
 10
175.4520893501121
 20
64.6898103598926
 30
0.0
 10
175.4146373826173
 20
64.61702636888695
 30
0.0
 10
175.3726966271915
 20
64.548495000955
 30
0.0
 10
175.3247933605439
 20
64.48459817012865
 30
0.0
 10
175.2711442026008
 20
64.42565664248559
 30
0.0
 10
175.2130131347178
 20
64.37038987171039
 30
0.0
 10
175.1492680324996
 20
64.31996709129665
 30
0.0
 10
175.07994534357
 20
64.27525828574655
 30
0.0
 10
175.0066430905948
 20
64.2349928866216
 30
0.0
 10
174.9294034122916
 20
64.20011635781934
 30
0.0
 10
174.8486618574902
 20
64.16973900681877
 30
0.0
 10
174.7636599486826
 20
64.14698532783537
 30
0.0
 10
174.6757303788437
 20
64.12726883132109
 30
0.0
 10
174.5838391377922
 20
64.11443758063623
 30
0.0
 10
174.4885231006903
 20
64.10570446362104
 30
0.0
 10
174.4237119344746
 20
64.10489689513278
 30
0.0
 10
174.3908303285256
 20
64.10448717948718
 30
0.0
  0
SPLINE
  5
A1
330
1F
100
AcDbEntity
  8
0
  6
Continuous
 62
     7
370
    15
100
AcDbSpline
210
0.0
220
0.0
230
1.0
 70
     8
 71
     3
 72
    19
 73
    15
 74
     0
 42
0.000000001
 43
0.00000001
 40
0.0
 40
0.0
 40
0.0
 40
0.0
 40
0.0964914237691139
 40
0.1884736749922992
 40
0.2768399149587988
 40
0.3621365621714229
 40
0.4434367545654569
 40
0.5201655209986117
 40
0.5927096635689895
 40
0.662917334352815
 40
0.7354188002027018
 40
0.8148809699994131
 40
0.90306055573998
 40
1.0
 40
1.0
 40
1.0
 40
1.0
 10
174.3908303285257
 20
64.1044871794872
 30
0.0
 10
174.3428563192797
 20
64.10526413447256
 30
0.0
 10
174.2491501900354
 20
64.10678173630369
 30
0.0
 10
174.1125299466715
 20
64.12446278070801
 30
0.0
 10
173.982777022167
 20
64.14945853342455
 30
0.0
 10
173.8616059078749
 20
64.18729131420535
 30
0.0
 10
173.7497823199993
 20
64.23358915488987
 30
0.0
 10
173.6480699471971
 20
64.28674314792717
 30
0.0
 10
173.5573818710916
 20
64.3476934494827
 30
0.0
 10
173.4756268248674
 20
64.41709042317123
 30
0.0
 10
173.4018383823868
 20
64.49960747722797
 30
0.0
 10
173.3324171979044
 20
64.59685214296972
 30
0.0
 10
173.2655962006475
 20
64.71030567812826
 30
0.0
 10
173.2264360791533
 20
64.79357478225859
 30
0.0
 10
173.2059294871795
 20
64.83717948717948
 30
0.0
  0
LINE
  5
A2
330
1F
100
AcDbEntity
  8
0
  6
Continuous
 62
     7
370
    15
100
AcDbLine
 10
173.2059294872
 20
64.8371794872
 30
0.0
 11
173.4908653846
 21
64.8371794872
 31
0.0
  0
SPLINE
  5
A3
330
1F
100
AcDbEntity
  8
0
  6
Continuous
 62
     7
370
    15
100
AcDbSpline
210
0.0
220
0.0
230
1.0
 70
     8
 71
     3
 72
    15
 73
    11
 74
     0
 42
0.000000001
 43
0.00000001
 40
0.0
 40
0.0
 40
0.0
 40
0.0
 40
0.1247164867022887
 40
0.2438053739154955
 40
0.3600615340644459
 40
0.4751119996583976
 40
0.5935250978118944
 40
0.7193501703843509
 40
0.8538547713042713
 40
1.0
 40
1.0
 40
1.0
 40
1.0
 10
173.4908653846154
 20
64.83717948717948
 30
0.0
 10
173.5137818173425
 20
64.80079772844309
 30
0.0
 10
173.5585806213944
 20
64.729675870163
 30
0.0
 10
173.6423538862715
 20
64.63758893585067
 30
0.0
 10
173.7341624823152
 20
64.55889124074139
 30
0.0
 10
173.8371047663468
 20
64.49547218141123
 30
0.0
 10
173.9516090688956
 20
64.44765687063972
 30
0.0
 10
174.0777442770636
 20
64.41357070887274
 30
0.0
 10
174.216536791066
 20
64.39316338108166
 30
0.0
 10
174.3131640282178
 20
64.39070384996862
 30
0.0
 10
174.3634815705128
 20
64.38942307692308
 30
0.0
  0
SPLINE
  5
A4
330
1F
100
AcDbEntity
  8
0
  6
Continuous
 62
     7
370
    15
100
AcDbSpline
210
0.0
220
0.0
230
1.0
 70
     8
 71
     3
 72
    23
 73
    19
 74
     0
 42
0.000000001
 43
0.00000001
 40
0.0
 40
0.0
 40
0.0
 40
0.0
 40
0.0981712978276955
 40
0.1892644356875803
 40
0.2744630560180378
 40
0.3550231712817347
 40
0.4309204620429276
 40
0.5010860453857597
 40
0.5666076270375996
 40
0.6297208634282968
 40
0.6627106951128655
 40
0.6987655616316091
 40
0.7386105373889603
 40
0.7825812280784465
 40
0.8304087872491263
 40
0.8825778660702751
 40
0.9392286810451763
 40
1.0
 40
1.0
 40
1.0
 40
1.0
 10
174.3634815705128
 20
64.38942307692308
 30
0.0
 10
174.4131629638962
 20
64.39072042618717
 30
0.0
 10
174.5089437174457
 20
64.39322158570924
 30
0.0
 10
174.6466762779371
 20
64.41357981649449
 30
0.0
 10
174.7724016860414
 20
64.44766428854973
 30
0.0
 10
174.8853955823246
 20
64.49538761035876
 30
0.0
 10
174.9843247437833
 20
64.5538533362866
 30
0.0
 10
175.069607050163
 20
64.6191676895012
 30
0.0
 10
175.1386811492352
 20
64.69281045652154
 30
0.0
 10
175.1851386261428
 20
64.76064823776103
 30
0.0
 10
175.2140171721074
 20
64.8210858411289
 30
0.0
 10
175.2324069868877
 20
64.87311283889046
 30
0.0
 10
175.247351230607
 20
64.9319436636271
 30
0.0
 10
175.2598515118
 20
64.99738108148611
 30
0.0
 10
175.2701665546443
 20
65.0695185846828
 30
0.0
 10
175.2767005979165
 20
65.1485211148871
 30
0.0
 10
175.2814230127
 20
65.23420912370767
 30
0.0
 10
175.2817314139199
 20
65.29362075622645
 30
0.0
 10
175.281891025641
 20
65.32436899038461
 30
0.0
  0
LINE
  5
A5
330
1F
100
AcDbEntity
  8
0
  6
Continuous
 62
     7
370
    15
100
AcDbLine
 10
175.2818910256
 20
65.3243689904
 30
0.0
 11
175.2818910256
 21
65.4445763221
 31
0.0
  0
SPLINE
  5
A6
330
1F
100
AcDbEntity
  8
0
  6
Continuous
 62
     7
370
    15
100
AcDbSpline
210
0.0
220
0.0
230
1.0
 70
     8
 71
     3
 72
    15
 73
    11
 74
     0
 42
0.000000001
 43
0.00000001
 40
0.0
 40
0.0
 40
0.0
 40
0.0
 40
0.1265607130145262
 40
0.2508952618879496
 40
0.3747192653150343
 40
0.4998264235934723
 40
0.6249635314328792
 40
0.7490394747387505
 40
0.8731801199413535
 40
1.0
 40
1.0
 40
1.0
 40
1.0
 10
175.281891025641
 20
65.44457632211538
 30
0.0
 10
175.2529702977116
 20
65.41015768730138
 30
0.0
 10
175.1956375485906
 20
65.34192583090775
 30
0.0
 10
175.0966253304058
 20
65.2525163461933
 30
0.0
 10
174.9884785569415
 20
65.17551249941988
 30
0.0
 10
174.8713813434765
 20
65.11235845239726
 30
0.0
 10
174.7482020095182
 20
65.06184744578741
 30
0.0
 10
174.6202747004967
 20
65.02652061696843
 30
0.0
 10
174.4887461932785
 20
65.00369699349649
 30
0.0
 10
174.3996174573662
 20
65.00124107091105
 30
0.0
 10
174.354577323718
 20
65.0
 30
0.0
  0
SPLINE
  5
A7
330
1F
100
AcDbEntity
  8
0
  6
Continuous
 62
     7
370
    15
100
AcDbSpline
210
0.0
220
0.0
230
1.0
 70
     8
 71
     3
 72
    31
 73
    27
 74
     0
 42
0.000000001
 43
0.00000001
 40
0.0
 40
0.0
 40
0.0
 40
0.0
 40
0.0428647590311963
 40
0.085222257567243
 40
0.1272022841437425
 40
0.1690253126086035
 40
0.2108820330997131
 40
0.2529626777271259
 40
0.2956282851000556
 40
0.3385532936306101
 40
0.3814632477171838
 40
0.4235815621432655
 40
0.4650661653954512
 40
0.5063122188418686
 40
0.5470395054616207
 40
0.5876758328931694
 40
0.6286747862975602
 40
0.6699464646027615
 40
0.7110355744560706
 40
0.7519958286352183
 40
0.7926726074835032
 40
0.8334460178854449
 40
0.8741906070422377
 40
0.9154935830294675
 40
0.957477806839149
 40
1.0
 40
1.0
 40
1.0
 40
1.0
 10
174.354577323718
 20
65.00000000000001
 30
0.0
 10
174.3280558507428
 20
65.00046720258393
 30
0.0
 10
174.2753267592456
 20
65.00139607888798
 30
0.0
 10
174.1969906671134
 20
65.00952296983789
 30
0.0
 10
174.1198105552012
 20
65.0213146860619
 30
0.0
 10
174.043966424054
 20
65.03862427714003
 30
0.0
 10
173.9693488322004
 20
65.06084177192878
 30
0.0
 10
173.8960810879188
 20
65.08861552779442
 30
0.0
 10
173.8235699602476
 20
65.1200163850792
 30
0.0
 10
173.7531334943301
 20
65.15700314248451
 30
0.0
 10
173.6854732185925
 20
65.19815323513609
 30
0.0
 10
173.6210994720768
 20
65.24272922885166
 30
0.0
 10
173.5603494401904
 20
65.29049781889925
 30
0.0
 10
173.5038013390468
 20
65.34193004285717
 30
0.0
 10
173.4515293442325
 20
65.39695146186301
 30
0.0
 10
173.4028304067828
 20
65.45497554211398
 30
0.0
 10
173.3585098133721
 20
65.5168125146203
 30
0.0
 10
173.3176580959896
 20
65.58133482609679
 30
0.0
 10
173.2822273181511
 20
65.64897223555441
 30
0.0
 10
173.2511264951382
 20
65.71825807926385
 30
0.0
 10
173.2240851062799
 20
65.78904420940422
 30
0.0
 10
173.2025264918473
 20
65.86156761624073
 30
0.0
 10
173.1860608390956
 20
65.93578257799798
 30
0.0
 10
173.173805133184
 20
66.01156751376031
 30
0.0
 10
173.1668537594678
 20
66.08915579396758
 30
0.0
 10
173.1657697926562
 20
66.14142658930848
 30
0.0
 10
173.1652243589744
 20
66.16772836538462
 30
0.0
  0
SPLINE
  5
A8
330
1F
100
AcDbEntity
  8
0
  6
Continuous
 62
     7
370
    15
100
AcDbSpline
210
0.0
220
0.0
230
1.0
 70
     8
 71
     3
 72
    31
 73
    27
 74
     0
 42
0.000000001
 43
0.00000001
 40
0.0
 40
0.0
 40
0.0
 40
0.0
 40
0.0420341186638442
 40
0.0839054330862314
 40
0.1250689344486268
 40
0.1661584697031401
 40
0.2072102728707307
 40
0.2484907320562527
 40
0.2898781122327909
 40
0.3321695142040857
 40
0.3744758421539223
 40
0.4162249804562074
 40
0.457609586958507
 40
0.4990731704672223
 40
0.5405533615534484
 40
0.5822488491953602
 40
0.6245497501260033
 40
0.667432800921036
 40
0.7103225433055249
 40
0.7524671185698638
 40
0.7940647568438072
 40
0.8352157072950152
 40
0.8762283442246851
 40
0.9174461887061484
 40
0.9586431404713152
 40
0.9999999999999999
 40
0.9999999999999999
 40
0.9999999999999999
 40
0.9999999999999999
 10
173.1652243589744
 20
66.16772836538462
 30
0.0
 10
173.1656953169528
 20
66.19403831675525
 30
0.0
 10
173.1666354088213
 20
66.24655631723682
 30
0.0
 10
173.1747552258044
 20
66.32446118826687
 30
0.0
 10
173.1863377976391
 20
66.4013228902363
 30
0.0
 10
173.2046691309425
 20
66.47634917591411
 30
0.0
 10
173.226733133506
 20
66.55039448644231
 30
0.0
 10
173.2540595171829
 20
66.62291190047269
 30
0.0
 10
173.28691510601
 20
66.69392350516284
 30
0.0
 10
173.3241168075022
 20
66.76348188725973
 30
0.0
 10
173.365921662979
 20
66.83065365223601
 30
0.0
 10
173.4117618419967
 20
66.89444996673524
 30
0.0
 10
173.4616926850752
 20
66.95440137983941
 30
0.0
 10
173.5150253513879
 20
67.01111270539148
 30
0.0
 10
173.5724110425584
 20
67.06403677423783
 30
0.0
 10
173.6338200713287
 20
67.1130451352393
 30
0.0
 10
173.698647112695
 20
67.15895928764093
 30
0.0
 10
173.7670930823342
 20
67.20078885777986
 30
0.0
 10
173.8381018562029
 20
67.2377841814087
 30
0.0
 10
173.909869390915
 20
67.27154132290465
 30
0.0
 10
173.9833463612553
 20
67.29833298847842
 30
0.0
 10
174.0571628791613
 20
67.32193965688917
 30
0.0
 10
174.1326189446963
 20
67.33866301255289
 30
0.0
 10
174.2087893660538
 20
67.35156461772115
 30
0.0
 10
174.2859349153032
 20
67.35942475750838
 30
0.0
 10
174.3375993272392
 20
67.36040590959978
 30
0.0
 10
174.3634815705128
 20
67.36089743589743
 30
0.0
  0
LINE
  5
A9
330
1F
100
AcDbEntity
  8
0
  6
Continuous
 62
     7
370
    15
100
AcDbLine
 10
184.7661858974
 20
65.0
 30
0.0
 11
184.48125
 21
65.0
 31
0.0
  0
LINE
  5
AA
330
1F
100
AcDbEntity
  8
0
  6
Continuous
 62
     7
370
    15
100
AcDbLine
 10
184.48125
 20
65.0
 30
0.0
 11
184.48125
 21
68.2564102564
 31
0.0
  0
LINE
  5
AB
330
1F
100
AcDbEntity
  8
0
  6
Continuous
 62
     7
370
    15
100
AcDbLine
 10
184.48125
 20
68.2564102564
 30
0.0
 11
184.7661858974
 21
68.2564102564
 31
0.0
  0
LINE
  5
AC
330
1F
100
AcDbEntity
  8
0
  6
Continuous
 62
     7
370
    15
100
AcDbLine
 10
184.7661858974
 20
68.2564102564
 30
0.0
 11
184.7661858974
 21
65.0
 31
0.0
  0
LINE
  5
AD
330
1F
100
AcDbEntity
  8
0
  6
Continuous
 62
     7
370
    15
100
AcDbLine
 10
185.6616987179
 20
65.0
 30
0.0
 11
185.3767628205
 21
65.0
 31
0.0
  0
LINE
  5
AE
330
1F
100
AcDbEntity
  8
0
  6
Continuous
 62
     7
370
    15
100
AcDbLine
 10
185.3767628205
 20
65.0
 30
0.0
 11
185.3767628205
 21
68.2564102564
 31
0.0
  0
LINE
  5
AF
330
1F
100
AcDbEntity
  8
0
  6
Continuous
 62
     7
370
    15
100
AcDbLine
 10
185.3767628205
 20
68.2564102564
 30
0.0
 11
185.6616987179
 21
68.2564102564
 31
0.0
  0
LINE
  5
B0
330
1F
100
AcDbEntity
  8
0
  6
Continuous
 62
     7
370
    15
100
AcDbLine
 10
185.6616987179
 20
68.2564102564
 30
0.0
 11
185.6616987179
 21
65.0
 31
0.0
  0
LINE
  5
B1
330
1F
100
AcDbEntity
  8
0
  6
Continuous
 62
     7
370
    15
100
AcDbLine
 10
188.4741686699
 20
65.0
 30
0.0
 11
187.6155448718
 21
65.0
 31
0.0
  0
LINE
  5
B2
330
1F
100
AcDbEntity
  8
0
  6
Continuous
 62
     7
370
    15
100
AcDbLine
 10
187.6155448718
 20
65.0
 30
0.0
 11
187.6155448718
 21
68.175
 31
0.0
  0
LINE
  5
B3
330
1F
100
AcDbEntity
  8
0
  6
Continuous
 62
     7
370
    15
100
AcDbLine
 10
187.6155448718
 20
68.175
 30
0.0
 11
188.2350260417
 21
68.175
 31
0.0
  0
SPLINE
  5
B4
330
1F
100
AcDbEntity
  8
0
  6
Continuous
 62
     7
370
    15
100
AcDbSpline
210
0.0
220
0.0
230
1.0
 70
     8
 71
     3
 72
    23
 73
    19
 74
     0
 42
0.000000001
 43
0.00000001
 40
0.0
 40
0.0
 40
0.0
 40
0.0
 40
0.0625940971873275
 40
0.1213229386347556
 40
0.1766801421977573
 40
0.2283650957096673
 40
0.2768684458368115
 40
0.3218791276660397
 40
0.3640986251098884
 40
0.4033556962426973
 40
0.4779679481633703
 40
0.55053546136477
 40
0.6235844567403154
 40
0.6981748822642041
 40
0.7733536703408772
 40
0.8472811254977345
 40
0.9228183395566715
 40
1.0
 40
1.0
 40
1.0
 40
1.0
 10
188.2350260416667
 20
68.175
 30
0.0
 10
188.2653504468799
 20
68.1748405692784
 30
0.0
 10
188.3241266912566
 20
68.17453155286117
 30
0.0
 10
188.4095971849155
 20
68.16973899817783
 30
0.0
 10
188.4896514631394
 20
68.16320424050224
 30
0.0
 10
188.564312742343
 20
68.15283551360353
 30
0.0
 10
188.6335465223693
 20
68.14032440147885
 30
0.0
 10
188.697561450435
 20
68.12517346831116
 30
0.0
 10
188.7561539638498
 20
68.10700646877767
 30
0.0
 10
188.8261062318754
 20
68.07811734223104
 30
0.0
 10
188.9058628313869
 20
68.03518846808525
 30
0.0
 10
188.992221373339
 20
67.97175326970006
 30
0.0
 10
189.0660666476149
 20
67.8941631067266
 30
0.0
 10
189.1297356639692
 20
67.80663955502025
 30
0.0
 10
189.1803552510451
 20
67.71035924778899
 30
0.0
 10
189.2169759707529
 20
67.60761698368361
 30
0.0
 10
189.2401606148283
 20
67.49973797494233
 30
0.0
 10
189.2425449801527
 20
67.42567594929504
 30
0.0
 10
189.24375
 20
67.38824619391026
 30
0.0
  0
SPLINE
  5
B5
330
1F
100
AcDbEntity
  8
0
  6
Continuous
 62
     7
370
    15
100
AcDbSpline
210
0.0
220
0.0
230
1.0
 70
     8
 71
     3
 72
    15
 73
    11
 74
     0
 42
0.000000001
 43
0.00000001
 40
0.0
 40
0.0
 40
0.0
 40
0.0
 40
0.1305691070873036
 40
0.2565806086940813
 40
0.3805516168036875
 40
0.5036229172006996
 40
0.6257393231697862
 40
0.7475485819596107
 40
0.871766118564855
 40
0.9999999999999999
 40
0.9999999999999999
 40
0.9999999999999999
 40
0.9999999999999999
 10
189.24375
 20
67.38824619391026
 30
0.0
 10
189.2427582946986
 20
67.35318280411668
 30
0.0
 10
189.2408095002588
 20
67.28427993653335
 30
0.0
 10
189.2221742828641
 20
67.18350170882603
 30
0.0
 10
189.1929999622082
 20
67.08757024603264
 30
0.0
 10
189.1524459147524
 20
66.99683565354734
 30
0.0
 10
189.0997391039156
 20
66.91334801876519
 30
0.0
 10
189.0372747719835
 20
66.83643385599574
 30
0.0
 10
188.9619122440097
 20
66.76934968286464
 30
0.0
 10
188.9054487334492
 20
66.7318457641222
 30
0.0
 10
188.8767678285257
 20
66.71279547275641
 30
0.0
  0
SPLINE
  5
B6
330
1F
100
AcDbEntity
  8
0
  6
Continuous
 62
     7
370
    15
100
AcDbSpline
210
0.0
220
0.0
230
1.0
 70
     8
 71
     3
 72
    19
 73
    15
 74
     0
 42
0.000000001
 43
0.00000001
 40
0.0
 40
0.0
 40
0.0
 40
0.0
 40
0.1060574933034061
 40
0.2029142570846046
 40
0.2903001653958371
 40
0.3702225656250311
 40
0.4463837207709642
 40
0.5213968999648313
 40
0.5982910828464588
 40
0.6761424688569233
 40
0.7555286995560189
 40
0.8348871724576599
 40
0.9166460487466351
 40
1.0
 40
1.0
 40
1.0
 40
1.0
 10
188.8767678285257
 20
66.71279547275643
 30
0.0
 10
188.9128362164153
 20
66.69894793800314
 30
0.0
 10
188.9818439772522
 20
66.67245417373063
 30
0.0
 10
189.0768091456727
 20
66.62561343139043
 30
0.0
 10
189.158628755062
 20
66.57466637410683
 30
0.0
 10
189.2279318803486
 20
66.51902962433363
 30
0.0
 10
189.2872024673086
 20
66.45905948883113
 30
0.0
 10
189.3389576357355
 20
66.39387663519157
 30
0.0
 10
189.3831185965815
 20
66.32263076197424
 30
0.0
 10
189.4209581772444
 20
66.24606469775259
 30
0.0
 10
189.4504845487826
 20
66.16496025860032
 30
0.0
 10
189.4725969763179
 20
66.08007819742625
 30
0.0
 10
189.4852674480341
 20
65.9917228866428
 30
0.0
 10
189.4870705226221
 20
65.9315925782429
 30
0.0
 10
189.4879807692308
 20
65.90123697916667
 30
0.0
  0
SPLINE
  5
B7
330
1F
100
AcDbEntity
  8
0
  6
Continuous
 62
     7
370
    15
100
AcDbSpline
210
0.0
220
0.0
230
1.0
 70
     8
 71
     3
 72
    23
 73
    19
 74
     0
 42
0.000000001
 43
0.00000001
 40
0.0
 40
0.0
 40
0.0
 40
0.0
 40
0.0611602766365174
 40
0.1203345577262035
 40
0.1781802550631275
 40
0.235235125986359
 40
0.2926829614441736
 40
0.351186248215085
 40
0.4104566095096934
 40
0.4717198544629992
 40
0.5337612027725809
 40
0.5957390238870987
 40
0.6578875151248816
 40
0.7212951802914592
 40
0.7868225145418914
 40
0.8546861538286765
 40
0.92547798627
 40
1.0
 40
1.0
 40
1.0
 40
1.0
 10
189.4879807692308
 20
65.90123697916667
 30
0.0
 10
189.4870946303382
 20
65.87024274517037
 30
0.0
 10
189.4853511272413
 20
65.80926072145961
 30
0.0
 10
189.4724878671114
 20
65.71967570654598
 30
0.0
 10
189.4507081771982
 20
65.63406414783292
 30
0.0
 10
189.420707922996
 20
65.55187230352264
 30
0.0
 10
189.3815535376104
 20
65.47325918153852
 30
0.0
 10
189.3339031699668
 20
65.39813572063647
 30
0.0
 10
189.2770873943947
 20
65.32725672072317
 30
0.0
 10
189.213530363274
 20
65.25983457690835
 30
0.0
 10
189.1416282741521
 20
65.19921222696439
 30
0.0
 10
189.0640532679009
 20
65.14522297876061
 30
0.0
 10
188.9798283919975
 20
65.10082190812734
 30
0.0
 10
188.8903369402825
 20
65.06352380290686
 30
0.0
 10
188.7945750249503
 20
65.03503298715644
 30
0.0
 10
188.6929726597025
 20
65.01510072369062
 30
0.0
 10
188.5856174716093
 20
65.00167044012764
 30
0.0
 10
188.5119486259582
 20
65.00056626140149
 30
0.0
 10
188.4741686698718
 20
65.0
 30
0.0
  0
CIRCLE
  5
B8
330
1F
100
AcDbEntity
  8
0
  6
Continuous
 62
     7
370
    15
100
AcDbCircle
 10
164.4
 20
40.0
 30
0.0
 40
2.000000000000028
  0
LINE
  5
B9
330
1F
100
AcDbEntity
  8
0
  6
Continuous
 62
     7
370
    15
100
AcDbLine
 10
0.0
 20
5.0
 30
0.0
 11
0.0
 21
125.0
 31
0.0
  0
ARC
  5
BA
330
1F
100
AcDbEntity
  8
0
  6
Continuous
 62
     7
370
    15
100
AcDbCircle
 10
5.0
 20
5.0
 30
0.0
 40
5.0
100
AcDbArc
 50
180.0
 51
270.0
  0
LINE
  5
BB
330
1F
100
AcDbEntity
  8
0
  6
Continuous
 62
     7
370
    15
100
AcDbLine
 10
5.0
 20
0.0
 30
0.0
 11
333.8
 21
0.0
 31
0.0
  0
ARC
  5
BC
330
1F
100
AcDbEntity
  8
0
  6
Continuous
 62
     7
370
    15
100
AcDbCircle
 10
333.8
 20
5.0
 30
0.0
 40
5.0
100
AcDbArc
 50
270.0
 51
0.0
  0
LINE
  5
BD
330
1F
100
AcDbEntity
  8
0
  6
Continuous
 62
     7
370
    15
100
AcDbLine
 10
338.8
 20
5.0
 30
0.0
 11
338.8
 21
125.0
 31
0.0
  0
ARC
  5
BE
330
1F
100
AcDbEntity
  8
0
  6
Continuous
 62
     7
370
    15
100
AcDbCircle
 10
333.8
 20
125.0
 30
0.0
 40
5.0
100
AcDbArc
 50
0.0
 51
90.0
  0
LINE
  5
BF
330
1F
100
AcDbEntity
  8
0
  6
Continuous
 62
     7
370
    15
100
AcDbLine
 10
328.8
 20
130.0
 30
0.0
 11
333.8
 21
130.0
 31
0.0
  0
LINE
  5
C0
330
1F
100
AcDbEntity
  8
0
  6
Continuous
 62
     7
370
    15
100
AcDbLine
 10
328.8
 20
130.0
 30
0.0
 11
328.8
 21
65.0
 31
0.0
  0
LINE
  5
C1
330
1F
100
AcDbEntity
  8
0
  6
Continuous
 62
     7
370
    15
100
AcDbLine
 10
328.8
 20
65.0
 30
0.0
 11
325.4
 21
65.0
 31
0.0
  0
LINE
  5
C2
330
1F
100
AcDbEntity
  8
0
  6
Continuous
 62
     7
370
    15
100
AcDbLine
 10
325.4
 20
130.0
 30
0.0
 11
325.4
 21
65.0
 31
0.0
  0
LINE
  5
C3
330
1F
100
AcDbEntity
  8
0
  6
Continuous
 62
     7
370
    15
100
AcDbLine
 10
13.4
 20
130.0
 30
0.0
 11
325.4
 21
130.0
 31
0.0
  0
LINE
  5
C4
330
1F
100
AcDbEntity
  8
0
  6
Continuous
 62
     7
370
    15
100
AcDbLine
 10
13.4
 20
130.0
 30
0.0
 11
13.4
 21
65.0
 31
0.0
  0
LINE
  5
C5
330
1F
100
AcDbEntity
  8
0
  6
Continuous
 62
     7
370
    15
100
AcDbLine
 10
10.0
 20
65.0
 30
0.0
 11
13.4
 21
65.0
 31
0.0
  0
LINE
  5
C6
330
1F
100
AcDbEntity
  8
0
  6
Continuous
 62
     7
370
    15
100
AcDbLine
 10
10.0
 20
130.0
 30
0.0
 11
10.0
 21
65.0
 31
0.0
  0
LINE
  5
C7
330
1F
100
AcDbEntity
  8
0
  6
Continuous
 62
     7
370
    15
100
AcDbLine
 10
5.0
 20
130.0
 30
0.0
 11
10.0
 21
130.0
 31
0.0
  0
ARC
  5
C8
330
1F
100
AcDbEntity
  8
0
  6
Continuous
 62
     7
370
    15
100
AcDbCircle
 10
5.0
 20
125.0
 30
0.0
 40
5.0
100
AcDbArc
 50
90.0
 51
180.0
  0
LINE
  5
C9
330
1F
100
AcDbEntity
  8
0
  6
Continuous
 62
     7
370
    15
100
AcDbLine
 10
149.9022435897
 20
67.2896634615
 30
0.0
 11
149.5988631811
 21
65.0
 31
0.0
  0
LINE
  5
CA
330
1F
100
AcDbEntity
  8
0
  6
Continuous
 62
     7
370
    15
100
AcDbLine
 10
149.5988631811
 20
65.0
 30
0.0
 11
149.3120192308
 21
65.0
 31
0.0
  0
LINE
  5
CB
330
1F
100
AcDbEntity
  8
0
  6
Continuous
 62
     7
370
    15
100
AcDbLine
 10
149.3120192308
 20
65.0
 30
0.0
 11
149.7311548478
 21
68.175
 31
0.0
  0
LINE
  5
CC
330
1F
100
AcDbEntity
  8
0
  6
Continuous
 62
     7
370
    15
100
AcDbLine
 10
149.7311548478
 20
68.175
 30
0.0
 11
149.771859976
 21
68.175
 31
0.0
  0
LINE
  5
CD
330
1F
100
AcDbEntity
  8
0
  6
Continuous
 62
     7
370
    15
100
AcDbLine
 10
149.771859976
 20
68.175
 30
0.0
 11
151.0826923077
 21
65.5698717949
 31
0.0
  0
LINE
  5
CE
330
1F
100
AcDbEntity
  8
0
  6
Continuous
 62
     7
370
    15
100
AcDbLine
 10
151.0826923077
 20
65.5698717949
 30
0.0
 11
152.3903445513
 21
68.175
 31
0.0
  0
LINE
  5
CF
330
1F
100
AcDbEntity
  8
0
  6
Continuous
 62
     7
370
    15
100
AcDbLine
 10
152.3903445513
 20
68.175
 30
0.0
 11
152.4316856971
 21
68.175
 31
0.0
  0
LINE
  5
D0
330
1F
100
AcDbEntity
  8
0
  6
Continuous
 62
     7
370
    15
100
AcDbLine
 10
152.4316856971
 20
68.175
 30
0.0
 11
152.8533653846
 21
65.0
 31
0.0
  0
LINE
  5
D1
330
1F
100
AcDbEntity
  8
0
  6
Continuous
 62
     7
370
    15
100
AcDbLine
 10
152.8533653846
 20
65.0
 30
0.0
 11
152.5671574519
 21
65.0
 31
0.0
  0
LINE
  5
D2
330
1F
100
AcDbEntity
  8
0
  6
Continuous
 62
     7
370
    15
100
AcDbLine
 10
152.5671574519
 20
65.0
 30
0.0
 11
152.2631410256
 21
67.2845753205
 31
0.0
  0
LINE
  5
D3
330
1F
100
AcDbEntity
  8
0
  6
Continuous
 62
     7
370
    15
100
AcDbLine
 10
152.2631410256
 20
67.2845753205
 30
0.0
 11
151.1170372596
 21
65.0
 31
0.0
  0
LINE
  5
D4
330
1F
100
AcDbEntity
  8
0
  6
Continuous
 62
     7
370
    15
100
AcDbLine
 10
151.1170372596
 20
65.0
 30
0.0
 11
151.0527994792
 21
65.0
 31
0.0
  0
LINE
  5
D5
330
1F
100
AcDbEntity
  8
0
  6
Continuous
 62
     7
370
    15
100
AcDbLine
 10
151.0527994792
 20
65.0
 30
0.0
 11
149.9022435897
 21
67.2896634615
 31
0.0
  0
LINE
  5
D6
330
1F
100
AcDbEntity
  8
0
  6
Continuous
 62
     7
370
    15
100
AcDbLine
 10
183.5857371795
 20
66.8908804087
 30
0.0
 11
183.5857371795
 21
67.3201923077
 31
0.0
  0
LINE
  5
D7
330
1F
100
AcDbEntity
  8
0
  6
Continuous
 62
     7
370
    15
100
AcDbLine
 10
183.5857371795
 20
67.3201923077
 30
0.0
 11
183.8706730769
 21
67.3201923077
 31
0.0
  0
LINE
  5
D8
330
1F
100
AcDbEntity
  8
0
  6
Continuous
 62
     7
370
    15
100
AcDbLine
 10
183.8706730769
 20
67.3201923077
 30
0.0
 11
183.8706730769
 21
65.0
 31
0.0
  0
LINE
  5
D9
330
1F
100
AcDbEntity
  8
0
  6
Continuous
 62
     7
370
    15
100
AcDbLine
 10
183.8706730769
 20
65.0
 30
0.0
 11
183.5857371795
 21
65.0
 31
0.0
  0
LINE
  5
DA
330
1F
100
AcDbEntity
  8
0
  6
Continuous
 62
     7
370
    15
100
AcDbLine
 10
183.5857371795
 20
65.0
 30
0.0
 11
183.5857371795
 21
65.4013271234
 31
0.0
  0
SPLINE
  5
DB
330
1F
100
AcDbEntity
  8
0
  6
Continuous
 62
     7
370
    15
100
AcDbSpline
210
0.0
220
0.0
230
1.0
 70
     8
 71
     3
 72
    15
 73
    11
 74
     0
 42
0.000000001
 43
0.00000001
 40
0.0
 40
0.0
 40
0.0
 40
0.0
 40
0.1342983790141818
 40
0.2620849753822896
 40
0.3862699121344931
 40
0.5071645966227989
 40
0.6273002357254976
 40
0.7481449416029835
 40
0.8723701771613422
 40
1.0
 40
1.0
 40
1.0
 40
1.0
 10
183.5857371794872
 20
65.40132712339744
 30
0.0
 10
183.553607276562
 20
65.3650054917357
 30
0.0
 10
183.4909053669859
 20
65.29412337082113
 30
0.0
 10
183.3861837813973
 20
65.20152025720446
 30
0.0
 10
183.2751783628717
 20
65.12497706552178
 30
0.0
 10
183.1584278787031
 20
65.06315535627927
 30
0.0
 10
183.0360377579547
 20
65.01671684803034
 30
0.0
 10
182.9082793073541
 20
64.9837094036805
 30
0.0
 10
182.7751004118547
 20
64.96248785320286
 30
0.0
 10
182.6841572042952
 20
64.96036874765021
 30
0.0
 10
182.6380709134615
 20
64.95929487179487
 30
0.0
  0
SPLINE
  5
DC
330
1F
100
AcDbEntity
  8
0
  6
Continuous
 62
     7
370
    15
100
AcDbSpline
210
0.0
220
0.0
230
1.0
 70
     8
 71
     3
 72
    23
 73
    19
 74
     0
 42
0.000000001
 43
0.00000001
 40
0.0
 40
0.0
 40
0.0
 40
0.0
 40
0.0646199913407614
 40
0.1274334841444647
 40
0.1890041265579309
 40
0.2499300706860443
 40
0.3106684537406684
 40
0.3723289611368266
 40
0.4349391099970011
 40
0.4995755441940397
 40
0.5641912077719267
 40
0.6267352169294734
 40
0.6881093335614047
 40
0.7492936065367488
 40
0.8103305278109514
 40
0.8719011702244158
 40
0.9350459146845318
 40
1.0
 40
1.0
 40
1.0
 40
1.0
 10
182.6380709134615
 20
64.95929487179487
 30
0.0
 10
182.5970971267706
 20
64.96040736663903
 30
0.0
 10
182.5162950051937
 20
64.96260125573038
 30
0.0
 10
182.3974329137891
 20
64.97962134544122
 30
0.0
 10
182.283049230357
 20
65.0069541236451
 30
0.0
 10
182.1730358680138
 20
65.04496421625548
 30
0.0
 10
182.0681047075129
 20
65.09538396159874
 30
0.0
 10
181.9673573341029
 20
65.1557463794648
 30
0.0
 10
181.8713156777715
 20
65.22762913246663
 30
0.0
 10
181.7814436388541
 20
65.30980541532954
 30
0.0
 10
181.6986831813703
 20
65.39906372513182
 30
0.0
 10
181.6260561697773
 20
65.49426432836856
 30
0.0
 10
181.5655015901947
 20
65.59499556118546
 30
0.0
 10
181.5148648026961
 20
65.69998206507026
 30
0.0
 10
181.4758609759535
 20
65.8100320277904
 30
0.0
 10
181.4486706077337
 20
65.92476488727863
 30
0.0
 10
181.4316703453696
 20
66.04404498684691
 30
0.0
 10
181.4294773631767
 20
66.12527012565506
 30
0.0
 10
181.4283653846154
 20
66.1664563301282
 30
0.0
  0
SPLINE
  5
DD
330
1F
100
AcDbEntity
  8
0
  6
Continuous
 62
     7
370
    15
100
AcDbSpline
210
0.0
220
0.0
230
1.0
 70
     8
 71
     3
 72
    23
 73
    19
 74
     0
 42
0.000000001
 43
0.00000001
 40
0.0
 40
0.0
 40
0.0
 40
0.0
 40
0.0637745323056357
 40
0.1260788099895054
 40
0.1869040927472069
 40
0.2475739349176238
 40
0.3080033561644476
 40
0.3691318984609798
 40
0.4320332277442056
 40
0.4967907944370885
 40
0.5616108232295589
 40
0.6249138657484551
 40
0.6867263492419261
 40
0.7480788332577694
 40
0.8095822911398952
 40
0.8716307425688221
 40
0.9348858208285483
 40
1.0
 40
1.0
 40
1.0
 40
1.0
 10
181.4283653846154
 20
66.1664563301282
 30
0.0
 10
181.4295020086575
 20
66.20679126122333
 30
0.0
 10
181.4317490530722
 20
66.28653124409158
 30
0.0
 10
181.4484887596415
 20
66.40380549155019
 30
0.0
 10
181.4766383174967
 20
66.51676134235821
 30
0.0
 10
181.5161424364506
 20
66.62503514085402
 30
0.0
 10
181.5667990670245
 20
66.7287579006317
 30
0.0
 10
181.6284195459647
 20
66.82800298046666
 30
0.0
 10
181.7010083233702
 20
66.92304379102151
 30
0.0
 10
181.7846944354493
 20
67.01164554677852
 30
0.0
 10
181.8753495483825
 20
67.09348853258005
 30
0.0
 10
181.9723310399986
 20
67.16461673808857
 30
0.0
 10
182.0732264451968
 20
67.22604559380024
 30
0.0
 10
182.1796007475992
 20
67.27471696159246
 30
0.0
 10
182.2898794783948
 20
67.3140952207149
 30
0.0
 10
182.4050443898941
 20
67.34133941320614
 30
0.0
 10
182.5246163219783
 20
67.3573934117595
 30
0.0
 10
182.6057969826369
 20
67.35971820495374
 30
0.0
 10
182.6469751602564
 20
67.36089743589743
 30
0.0
  0
SPLINE
  5
DE
330
1F
100
AcDbEntity
  8
0
  6
Continuous
 62
     7
370
    15
100
AcDbSpline
210
0.0
220
0.0
230
1.0
 70
     8
 71
     3
 72
    15
 73
    11
 74
     0
 42
0.000000001
 43
0.00000001
 40
0.0
 40
0.0
 40
0.0
 40
0.0
 40
0.1298621417207355
 40
0.2546535308972847
 40
0.3760145541937079
 40
0.4952552518175968
 40
0.6147977192994398
 40
0.7381055541683273
 40
0.8651963000723457
 40
1.0
 40
1.0
 40
1.0
 40
1.0
 10
182.6469751602564
 20
67.36089743589743
 30
0.0
 10
182.6943278895493
 20
67.35959318985589
 30
0.0
 10
182.7871843568172
 20
67.35703562492407
 30
0.0
 10
182.9230090509378
 20
67.33575157942755
 30
0.0
 10
183.0515008273217
 20
67.29979382707992
 30
0.0
 10
183.173651560949
 20
67.25088295387289
 30
0.0
 10
183.2890226119064
 20
67.18588732106286
 30
0.0
 10
183.3965217476788
 20
67.10389978499147
 30
0.0
 10
183.4972740075365
 20
67.00543742252566
 30
0.0
 10
183.5556761292561
 20
66.9298085193286
 30
0.0
 10
183.5857371794872
 20
66.89088040865384
 30
0.0
  0
LINE
  5
DF
330
1F
100
AcDbEntity
  8
0
  6
Continuous
 62
     7
370
    15
100
AcDbLine
 10
178.2024839744
 20
65.0
 30
0.0
 11
178.1617788462
 21
65.0
 31
0.0
  0
LINE
  5
E0
330
1F
100
AcDbEntity
  8
0
  6
Continuous
 62
     7
370
    15
100
AcDbLine
 10
178.1617788462
 20
65.0
 30
0.0
 11
177.3171474359
 21
68.175
 31
0.0
  0
LINE
  5
E1
330
1F
100
AcDbEntity
  8
0
  6
Continuous
 62
     7
370
    15
100
AcDbLine
 10
177.3171474359
 20
68.175
 30
0.0
 11
177.6116235978
 21
68.175
 31
0.0
  0
LINE
  5
E2
330
1F
100
AcDbEntity
  8
0
  6
Continuous
 62
     7
370
    15
100
AcDbLine
 10
177.6116235978
 20
68.175
 30
0.0
 11
178.2330128205
 21
65.8465394631
 31
0.0
  0
LINE
  5
E3
330
1F
100
AcDbEntity
  8
0
  6
Continuous
 62
     7
370
    15
100
AcDbLine
 10
178.2330128205
 20
65.8465394631
 30
0.0
 11
179.1571464343
 21
68.175
 31
0.0
  0
LINE
  5
E4
330
1F
100
AcDbEntity
  8
0
  6
Continuous
 62
     7
370
    15
100
AcDbLine
 10
179.1571464343
 20
68.175
 30
0.0
 11
179.1984875801
 21
68.175
 31
0.0
  0
LINE
  5
E5
330
1F
100
AcDbEntity
  8
0
  6
Continuous
 62
     7
370
    15
100
AcDbLine
 10
179.1984875801
 20
68.175
 30
0.0
 11
180.1054487179
 21
65.8624399038
 31
0.0
  0
LINE
  5
E6
330
1F
100
AcDbEntity
  8
0
  6
Continuous
 62
     7
370
    15
100
AcDbLine
 10
180.1054487179
 20
65.8624399038
 30
0.0
 11
180.7300180288
 21
68.175
 31
0.0
  0
LINE
  5
E7
330
1F
100
AcDbEntity
  8
0
  6
Continuous
 62
     7
370
    15
100
AcDbLine
 10
180.7300180288
 20
68.175
 30
0.0
 11
181.0213141026
 21
68.175
 31
0.0
  0
LINE
  5
E8
330
1F
100
AcDbEntity
  8
0
  6
Continuous
 62
     7
370
    15
100
AcDbLine
 10
181.0213141026
 20
68.175
 30
0.0
 11
180.165234375
 21
65.0
 31
0.0
  0
LINE
  5
E9
330
1F
100
AcDbEntity
  8
0
  6
Continuous
 62
     7
370
    15
100
AcDbLine
 10
180.165234375
 20
65.0
 30
0.0
 11
180.1245292468
 21
65.0
 31
0.0
  0
LINE
  5
EA
330
1F
100
AcDbEntity
  8
0
  6
Continuous
 62
     7
370
    15
100
AcDbLine
 10
180.1245292468
 20
65.0
 30
0.0
 11
179.1692307692
 21
67.4283153045
 31
0.0
  0
LINE
  5
EB
330
1F
100
AcDbEntity
  8
0
  6
Continuous
 62
     7
370
    15
100
AcDbLine
 10
179.1692307692
 20
67.4283153045
 30
0.0
 11
178.2024839744
 21
65.0
 31
0.0
  0
LINE
  5
EC
330
1F
100
AcDbEntity
  8
0
  6
Continuous
 62
     7
370
    15
100
AcDbLine
 10
166.9780448718
 20
66.8908804087
 30
0.0
 11
166.9780448718
 21
67.3201923077
 31
0.0
  0
LINE
  5
ED
330
1F
100
AcDbEntity
  8
0
  6
Continuous
 62
     7
370
    15
100
AcDbLine
 10
166.9780448718
 20
67.3201923077
 30
0.0
 11
167.2629807692
 21
67.3201923077
 31
0.0
  0
LINE
  5
EE
330
1F
100
AcDbEntity
  8
0
  6
Continuous
 62
     7
370
    15
100
AcDbLine
 10
167.2629807692
 20
67.3201923077
 30
0.0
 11
167.2629807692
 21
65.0
 31
0.0
  0
LINE
  5
EF
330
1F
100
AcDbEntity
  8
0
  6
Continuous
 62
     7
370
    15
100
AcDbLine
 10
167.2629807692
 20
65.0
 30
0.0
 11
166.9780448718
 21
65.0
 31
0.0
  0
LINE
  5
F0
330
1F
100
AcDbEntity
  8
0
  6
Continuous
 62
     7
370
    15
100
AcDbLine
 10
166.9780448718
 20
65.0
 30
0.0
 11
166.9780448718
 21
65.4013271234
 31
0.0
  0
SPLINE
  5
F1
330
1F
100
AcDbEntity
  8
0
  6
Continuous
 62
     7
370
    15
100
AcDbSpline
210
0.0
220
0.0
230
1.0
 70
     8
 71
     3
 72
    15
 73
    11
 74
     0
 42
0.000000001
 43
0.00000001
 40
0.0
 40
0.0
 40
0.0
 40
0.0
 40
0.1342983790141818
 40
0.2620849753822896
 40
0.3862699121344931
 40
0.5071645966227989
 40
0.6273002357254976
 40
0.7481449416029835
 40
0.8723701771613422
 40
1.0
 40
1.0
 40
1.0
 40
1.0
 10
166.9780448717949
 20
65.40132712339744
 30
0.0
 10
166.9459149688697
 20
65.3650054917357
 30
0.0
 10
166.8832130592935
 20
65.29412337082113
 30
0.0
 10
166.7784914737051
 20
65.20152025720446
 30
0.0
 10
166.6674860551794
 20
65.12497706552178
 30
0.0
 10
166.5507355710108
 20
65.06315535627927
 30
0.0
 10
166.4283454502624
 20
65.01671684803034
 30
0.0
 10
166.3005869996618
 20
64.9837094036805
 30
0.0
 10
166.1674081041624
 20
64.96248785320286
 30
0.0
 10
166.0764648966028
 20
64.96036874765021
 30
0.0
 10
166.0303786057692
 20
64.95929487179487
 30
0.0
  0
SPLINE
  5
F2
330
1F
100
AcDbEntity
  8
0
  6
Continuous
 62
     7
370
    15
100
AcDbSpline
210
0.0
220
0.0
230
1.0
 70
     8
 71
     3
 72
    23
 73
    19
 74
     0
 42
0.000000001
 43
0.00000001
 40
0.0
 40
0.0
 40
0.0
 40
0.0
 40
0.0646199913407614
 40
0.1274334841444647
 40
0.1890041265579309
 40
0.2499300706860443
 40
0.3106684537406684
 40
0.3723289611368266
 40
0.4349391099970011
 40
0.4995755441940397
 40
0.5641912077719267
 40
0.6267352169294734
 40
0.6881093335614047
 40
0.7492936065367488
 40
0.8103305278109514
 40
0.8719011702244158
 40
0.9350459146845318
 40
1.0
 40
1.0
 40
1.0
 40
1.0
 10
166.0303786057692
 20
64.95929487179487
 30
0.0
 10
165.9894048190783
 20
64.96040736663903
 30
0.0
 10
165.9086026975013
 20
64.96260125573038
 30
0.0
 10
165.7897406060968
 20
64.97962134544122
 30
0.0
 10
165.6753569226647
 20
65.0069541236451
 30
0.0
 10
165.5653435603214
 20
65.04496421625548
 30
0.0
 10
165.4604123998206
 20
65.09538396159874
 30
0.0
 10
165.3596650264107
 20
65.1557463794648
 30
0.0
 10
165.2636233700791
 20
65.22762913246663
 30
0.0
 10
165.1737513311618
 20
65.30980541532954
 30
0.0
 10
165.090990873678
 20
65.39906372513182
 30
0.0
 10
165.018363862085
 20
65.49426432836856
 30
0.0
 10
164.9578092825024
 20
65.59499556118546
 30
0.0
 10
164.9071724950037
 20
65.69998206507026
 30
0.0
 10
164.8681686682611
 20
65.8100320277904
 30
0.0
 10
164.8409783000414
 20
65.92476488727863
 30
0.0
 10
164.8239780376772
 20
66.04404498684691
 30
0.0
 10
164.8217850554844
 20
66.12527012565506
 30
0.0
 10
164.8206730769231
 20
66.1664563301282
 30
0.0
  0
SPLINE
  5
F3
330
1F
100
AcDbEntity
  8
0
  6
Continuous
 62
     7
370
    15
100
AcDbSpline
210
0.0
220
0.0
230
1.0
 70
     8
 71
     3
 72
    23
 73
    19
 74
     0
 42
0.000000001
 43
0.00000001
 40
0.0
 40
0.0
 40
0.0
 40
0.0
 40
0.0637745323056357
 40
0.1260788099895054
 40
0.1869040927472069
 40
0.2475739349176238
 40
0.3080033561644476
 40
0.3691318984609798
 40
0.4320332277442056
 40
0.4967907944370885
 40
0.5616108232295589
 40
0.6249138657484551
 40
0.6867263492419261
 40
0.7480788332577694
 40
0.8095822911398952
 40
0.8716307425688221
 40
0.9348858208285483
 40
1.0
 40
1.0
 40
1.0
 40
1.0
 10
164.8206730769231
 20
66.1664563301282
 30
0.0
 10
164.8218097009651
 20
66.20679126122333
 30
0.0
 10
164.8240567453798
 20
66.28653124409158
 30
0.0
 10
164.8407964519492
 20
66.40380549155019
 30
0.0
 10
164.8689460098044
 20
66.51676134235821
 30
0.0
 10
164.9084501287583
 20
66.62503514085402
 30
0.0
 10
164.9591067593321
 20
66.7287579006317
 30
0.0
 10
165.0207272382724
 20
66.82800298046666
 30
0.0
 10
165.0933160156779
 20
66.92304379102151
 30
0.0
 10
165.1770021277569
 20
67.01164554677852
 30
0.0
 10
165.2676572406902
 20
67.09348853258005
 30
0.0
 10
165.3646387323063
 20
67.16461673808857
 30
0.0
 10
165.4655341375044
 20
67.22604559380024
 30
0.0
 10
165.5719084399069
 20
67.27471696159246
 30
0.0
 10
165.6821871707025
 20
67.3140952207149
 30
0.0
 10
165.7973520822018
 20
67.34133941320614
 30
0.0
 10
165.916924014286
 20
67.3573934117595
 30
0.0
 10
165.9981046749447
 20
67.35971820495374
 30
0.0
 10
166.0392828525641
 20
67.36089743589743
 30
0.0
  0
SPLINE
  5
F4
330
1F
100
AcDbEntity
  8
0
  6
Continuous
 62
     7
370
    15
100
AcDbSpline
210
0.0
220
0.0
230
1.0
 70
     8
 71
     3
 72
    15
 73
    11
 74
     0
 42
0.000000001
 43
0.00000001
 40
0.0
 40
0.0
 40
0.0
 40
0.0
 40
0.1298621417207355
 40
0.2546535308972847
 40
0.3760145541937079
 40
0.4952552518175968
 40
0.6147977192994398
 40
0.7381055541683273
 40
0.8651963000723457
 40
1.0
 40
1.0
 40
1.0
 40
1.0
 10
166.0392828525641
 20
67.36089743589743
 30
0.0
 10
166.0866355818569
 20
67.35959318985589
 30
0.0
 10
166.1794920491249
 20
67.35703562492407
 30
0.0
 10
166.3153167432455
 20
67.33575157942755
 30
0.0
 10
166.4438085196294
 20
67.29979382707992
 30
0.0
 10
166.5659592532567
 20
67.25088295387289
 30
0.0
 10
166.6813303042141
 20
67.18588732106286
 30
0.0
 10
166.7888294399865
 20
67.10389978499147
 30
0.0
 10
166.8895816998442
 20
67.00543742252566
 30
0.0
 10
166.9479838215637
 20
66.9298085193286
 30
0.0
 10
166.9780448717949
 20
66.89088040865384
 30
0.0
  0
SPLINE
  5
F5
330
1F
100
AcDbEntity
  8
0
  6
Continuous
 62
     7
370
    15
100
AcDbSpline
210
0.0
220
0.0
230
1.0
 70
     8
 71
     3
 72
    23
 73
    19
 74
     0
 42
0.000000001
 43
0.00000001
 40
0.0
 40
0.0
 40
0.0
 40
0.0
 40
0.0645578459297195
 40
0.1270135315497589
 40
0.1879548102020897
 40
0.2480139127896314
 40
0.3077476818488369
 40
0.3682345146974858
 40
0.4294698439426699
 40
0.4927434367465833
 40
0.5562577687060823
 40
0.6182167855431444
 40
0.6796554755875566
 40
0.7412455456206313
 40
0.8034152647056986
 40
0.8668154615439941
 40
0.9323283119492658
 40
1.0
 40
1.0
 40
1.0
 40
1.0
 10
161.2386217948718
 20
66.60594451121796
 30
0.0
 10
161.2400325775986
 20
66.66305410121612
 30
0.0
 10
161.2428082045389
 20
66.77541365421176
 30
0.0
 10
161.2663901047169
 20
66.94030859755262
 30
0.0
 10
161.3043257269762
 20
67.09828879508376
 30
0.0
 10
161.3582071902018
 20
67.24905933481706
 30
0.0
 10
161.4265199017431
 20
67.39341323188474
 30
0.0
 10
161.5109083300118
 20
67.53024775342425
 30
0.0
 10
161.6103920947412
 20
67.6604379931127
 30
0.0
 10
161.7241909597114
 20
67.78200851750402
 30
0.0
 10
161.8489841853047
 20
67.89316921595422
 30
0.0
 10
161.9826233950469
 20
67.99096484364021
 30
0.0
 10
162.124847018372
 20
68.07235144743937
 30
0.0
 10
162.274088212392
 20
68.14038368049735
 30
0.0
 10
162.4314645092418
 20
68.1926754434849
 30
0.0
 10
162.5966401369484
 20
68.2292815485518
 30
0.0
 10
162.7693047239285
 20
68.25206636118621
 30
0.0
 10
162.8871084957676
 20
68.2549467283552
 30
0.0
 10
162.9469651442307
 20
68.25641025641026
 30
0.0
  0
SPLINE
  5
F6
330
1F
100
AcDbEntity
  8
0
  6
Continuous
 62
     7
370
    15
100
AcDbSpline
210
0.0
220
0.0
230
1.0
 70
     8
 71
     3
 72
    23
 73
    19
 74
     0
 42
0.000000001
 43
0.00000001
 40
0.0
 40
0.0
 40
0.0
 40
0.0
 40
0.0685475367089085
 40
0.1356829456230475
 40
0.2012149895263293
 40
0.2656822347547041
 40
0.3292668348172618
 40
0.3923954278443325
 40
0.4550697616521561
 40
0.5171268500645168
 40
0.5787900352866511
 40
0.6397398633435545
 40
0.7001915036663081
 40
0.7598062425966703
 40
0.8196283192750132
 40
0.8793547910462804
 40
0.9395116077646751
 40
1.0
 40
1.0
 40
1.0
 40
1.0
 10
162.9469651442307
 20
68.25641025641026
 30
0.0
 10
162.9834454152107
 20
68.25597288819425
 30
0.0
 10
163.0556544377568
 20
68.25510716185721
 30
0.0
 10
163.1624729153022
 20
68.24666516151036
 30
0.0
 10
163.266469883315
 20
68.23259210443288
 30
0.0
 10
163.3677169884461
 20
68.213436812531
 30
0.0
 10
163.4667067902874
 20
68.18966302805504
 30
0.0
 10
163.5626827230844
 20
68.15869290029643
 30
0.0
 10
163.6562079604544
 20
68.12328118974582
 30
0.0
 10
163.7466926557287
 20
68.08249743850217
 30
0.0
 10
163.8337026690704
 20
68.03671689451171
 30
0.0
 10
163.9172109008626
 20
67.9864470074375
 30
0.0
 10
163.9965540226904
 20
67.93175009815855
 30
0.0
 10
164.0722903352006
 20
67.87309136046547
 30
0.0
 10
164.1431528981053
 20
67.80922981024752
 30
0.0
 10
164.2111536679194
 20
67.7419219910428
 30
0.0
 10
164.2739833602518
 20
67.66922916484297
 30
0.0
 10
164.3127666157107
 20
67.61806183193983
 30
0.0
 10
164.3322115384615
 20
67.59240785256412
 30
0.0
  0
LINE
  5
F7
330
1F
100
AcDbEntity
  8
0
  6
Continuous
 62
     7
370
    15
100
AcDbLine
 10
164.3322115385
 20
67.5924078526
 30
0.0
 11
164.0828926282
 21
67.4016025641
 31
0.0
  0
SPLINE
  5
F8
330
1F
100
AcDbEntity
  8
0
  6
Continuous
 62
     7
370
    15
100
AcDbSpline
210
0.0
220
0.0
230
1.0
 70
     8
 71
     3
 72
    19
 73
    15
 74
     0
 42
0.000000001
 43
0.00000001
 40
0.0
 40
0.0
 40
0.0
 40
0.0
 40
0.0631632593634673
 40
0.1254749410306441
 40
0.187121219816038
 40
0.2482943461143003
 40
0.3092948562551293
 40
0.3698500660670982
 40
0.4309733755473816
 40
0.4924559896728188
 40
0.6161479662918506
 40
0.7408436984673721
 40
0.868182648670048
 40
1.0
 40
1.0
 40
1.0
 40
1.0
 10
164.0828926282051
 20
67.40160256410256
 30
0.0
 10
164.0651072866249
 20
67.42279883673508
 30
0.0
 10
164.0297763884337
 20
67.46490561028412
 30
0.0
 10
163.9729355404298
 20
67.52403276848631
 30
0.0
 10
163.9136976215169
 20
67.57942768420548
 30
0.0
 10
163.8520852758424
 20
67.63135424644032
 30
0.0
 10
163.786989503165
 20
67.677996598214
 30
0.0
 10
163.7199872072322
 20
67.72178538445502
 30
0.0
 10
163.6499575519378
 20
67.76103540387437
 30
0.0
 10
163.5531184783665
 20
67.80862682699379
 30
0.0
 10
163.4264379302836
 20
67.85828941046917
 30
0.0
 10
163.2669668976959
 20
67.89993019886293
 30
0.0
 10
163.100496115499
 20
67.92643797966225
 30
0.0
 10
162.9869240072659
 20
67.92930894298593
 30
0.0
 10
162.929156650641
 20
67.93076923076924
 30
0.0
  0
SPLINE
  5
F9
330
1F
100
AcDbEntity
  8
0
  6
Continuous
 62
     7
370
    15
100
AcDbSpline
210
0.0
220
0.0
230
1.0
 70
     8
 71
     3
 72
    31
 73
    27
 74
     0
 42
0.000000001
 43
0.00000001
 40
0.0
 40
0.0
 40
0.0
 40
0.0
 40
0.0439549089061968
 40
0.0875018747976121
 40
0.1304626267314923
 40
0.1727520205665197
 40
0.2154030673796047
 40
0.2576498297432473
 40
0.3001527489572977
 40
0.3431214895020875
 40
0.3859251632064349
 40
0.4276857274028035
 40
0.468817950486588
 40
0.5094918001549963
 40
0.5498830310733525
 40
0.589980022966886
 40
0.6304052300068399
 40
0.6708686260826435
 40
0.7113839438381783
 40
0.7516272580635853
 40
0.7917755768651927
 40
0.8324589188037473
 40
0.8733190450172899
 40
0.9145429556263527
 40
0.9569235582098854
 40
1.0
 40
1.0
 40
1.0
 40
1.0
 10
162.929156650641
 20
67.93076923076924
 30
0.0
 10
162.8973310862393
 20
67.93040277906388
 30
0.0
 10
162.8339753286929
 20
67.92967327667066
 30
0.0
 10
162.7399513563032
 20
67.92004928452045
 30
0.0
 10
162.6476830884912
 20
67.90652268683722
 30
0.0
 10
162.5572305441356
 20
67.88645185791302
 30
0.0
 10
162.4687088603179
 20
67.86107669632132
 30
0.0
 10
162.3815393241584
 20
67.8307550708334
 30
0.0
 10
162.2969839943424
 20
67.79324032324612
 30
0.0
 10
162.2138731639624
 20
67.75177640171381
 30
0.0
 10
162.1342448797023
 20
67.70494293398238
 30
0.0
 10
162.0589020863615
 20
67.6538586790613
 30
0.0
 10
161.9881195726045
 20
67.59909528443379
 30
0.0
 10
161.9218413458836
 20
67.54044749507675
 30
0.0
 10
161.8599996498936
 20
67.47817943093112
 30
0.0
 10
161.8030425893774
 20
67.41162749248957
 30
0.0
 10
161.7511672529224
 20
67.34100444937036
 30
0.0
 10
161.7033453801862
 20
67.26724157251387
 30
0.0
 10
161.6605166863574
 20
67.19055371867363
 30
0.0
 10
161.6246574386242
 20
67.110657047633
 30
0.0
 10
161.592902792052
 20
67.02891975416911
 30
0.0
 10
161.5677756219372
 20
66.94441834398874
 30
0.0
 10
161.5478869530975
 20
66.85774740640241
 30
0.0
 10
161.5341640014136
 20
66.76867433447633
 30
0.0
 10
161.5246494596874
 20
66.6773852108417
 30
0.0
 10
161.5239235849275
 20
66.61550962011293
 30
0.0
 10
161.5235576923077
 20
66.584319911859
 30
0.0
  0
SPLINE
  5
FA
330
1F
100
AcDbEntity
  8
0
  6
Continuous
 62
     7
370
    15
100
AcDbSpline
210
0.0
220
0.0
230
1.0
 70
     8
 71
     3
 72
    23
 73
    19
 74
     0
 42
0.000000001
 43
0.00000001
 40
0.0
 40
0.0
 40
0.0
 40
0.0
 40
0.0643232165798433
 40
0.1262901037035571
 40
0.186726469216136
 40
0.2461464323353427
 40
0.3055756426461361
 40
0.3654293856180545
 40
0.426326308948261
 40
0.4888399064006332
 40
0.5517249718140385
 40
0.6139185964661501
 40
0.6754837657683903
 40
0.7373338970992844
 40
0.800229044394529
 40
0.8645022981233194
 40
0.9310407391556884
 40
1.0
 40
1.0
 40
1.0
 40
1.0
 10
161.5235576923077
 20
66.58431991185898
 30
0.0
 10
161.5247023424222
 20
66.53739221450051
 30
0.0
 10
161.5269497110918
 20
66.44525590538711
 30
0.0
 10
161.5469506998648
 20
66.31029970868181
 30
0.0
 10
161.5773446041052
 20
66.18101309746686
 30
0.0
 10
161.6228973060398
 20
66.05820424051338
 30
0.0
 10
161.6790667304767
 20
65.94035880141791
 30
0.0
 10
161.7500421423423
 20
65.82947069868494
 30
0.0
 10
161.8322442869513
 20
65.72386424373518
 30
0.0
 10
161.9268360817481
 20
65.62603528399197
 30
0.0
 10
162.0306185005383
 20
65.53666926175724
 30
0.0
 10
162.1419683917701
 20
65.4579740913863
 30
0.0
 10
162.2606084242598
 20
65.39237416229177
 30
0.0
 10
162.3852286530719
 20
65.33778598223766
 30
0.0
 10
162.5167880564125
 20
65.29582452215016
 30
0.0
 10
162.655050055745
 20
65.26628421011503
 30
0.0
 10
162.7997139371504
 20
65.24701451776657
 30
0.0
 10
162.8985647499078
 20
65.24516967216101
 30
0.0
 10
162.9488731971154
 20
65.24423076923078
 30
0.0
  0
SPLINE
  5
FB
330
1F
100
AcDbEntity
  8
0
  6
Continuous
 62
     7
370
    15
100
AcDbSpline
210
0.0
220
0.0
230
1.0
 70
     8
 71
     3
 72
    15
 73
    11
 74
     0
 42
0.000000001
 43
0.00000001
 40
0.0
 40
0.0
 40
0.0
 40
0.0
 40
0.1285151895116559
 40
0.2529486363526463
 40
0.3747547340060057
 40
0.4959397538670385
 40
0.6171806414298907
 40
0.7409094692781277
 40
0.8678111481861936
 40
1.0
 40
1.0
 40
1.0
 40
1.0
 10
162.9488731971154
 20
65.24423076923078
 30
0.0
 10
163.0043020649881
 20
65.2457627337191
 30
0.0
 10
163.1133993366512
 20
65.24877800630853
 30
0.0
 10
163.2733903319751
 20
65.27432246801287
 30
0.0
 10
163.4265484907955
 20
65.31574072204891
 30
0.0
 10
163.5728820514438
 20
65.37370526586703
 30
0.0
 10
163.711978480501
 20
65.44905734846449
 30
0.0
 10
163.8440554509242
 20
65.5404047086841
 30
0.0
 10
163.9692244470242
 20
65.64861626768835
 30
0.0
 10
164.0444912530529
 20
65.73124167689308
 30
0.0
 10
164.0828926282051
 20
65.77339743589744
 30
0.0
  0
LINE
  5
FC
330
1F
100
AcDbEntity
  8
0
  6
Continuous
 62
     7
370
    15
100
AcDbLine
 10
164.0828926282
 20
65.7733974359
 30
0.0
 11
164.3322115385
 21
65.5845002003
 31
0.0
  0
SPLINE
  5
FD
330
1F
100
AcDbEntity
  8
0
  6
Continuous
 62
     7
370
    15
100
AcDbSpline
210
0.0
220
0.0
230
1.0
 70
     8
 71
     3
 72
    23
 73
    19
 74
     0
 42
0.000000001
 43
0.00000001
 40
0.0
 40
0.0
 40
0.0
 40
0.0
 40
0.0616742388774264
 40
0.123053061634794
 40
0.1834750007317056
 40
0.2437265005106066
 40
0.3042789165122464
 40
0.3648629209606771
 40
0.4259462039686135
 40
0.4873912299654068
 40
0.5492203840754754
 40
0.6111435886925979
 40
0.6735285303101516
 40
0.7369614566573002
 40
0.8007852828728467
 40
0.8660125956416248
 40
0.9321007477905872
 40
0.9999999999999999
 40
0.9999999999999999
 40
0.9999999999999999
 40
0.9999999999999999
 10
164.3322115384615
 20
65.58450020032052
 30
0.0
 10
164.3121472530693
 20
65.55861174750436
 30
0.0
 10
164.2721147890786
 20
65.50695884609854
 30
0.0
 10
164.2072921593838
 20
65.43414093799169
 30
0.0
 10
164.1390048967463
 20
65.36564799150322
 30
0.0
 10
164.0667457883829
 20
65.30203222081828
 30
0.0
 10
163.9913460774408
 20
65.24202066987675
 30
0.0
 10
163.9114519083853
 20
65.18731829436237
 30
0.0
 10
163.8281135717556
 20
65.13716156362051
 30
0.0
 10
163.7416134373197
 20
65.09123571067026
 30
0.0
 10
163.6520434099943
 20
65.05048935086947
 30
0.0
 10
163.5595108154399
 20
65.01560629008672
 30
0.0
 10
163.4644145076612
 20
64.98555728315363
 30
0.0
 10
163.3667501393159
 20
64.96083588341125
 30
0.0
 10
163.2663151313373
 20
64.94153997161176
 30
0.0
 10
163.1634719155526
 20
64.92864069514542
 30
0.0
 10
163.0579985287469
 20
64.919803387051
 30
0.0
 10
162.9868409538685
 20
64.91899792055828
 30
0.0
 10
162.95078125
 20
64.91858974358975
 30
0.0
  0
SPLINE
  5
FE
330
1F
100
AcDbEntity
  8
0
  6
Continuous
 62
     7
370
    15
100
AcDbSpline
210
0.0
220
0.0
230
1.0
 70
     8
 71
     3
 72
    23
 73
    19
 74
     0
 42
0.000000001
 43
0.00000001
 40
0.0
 40
0.0
 40
0.0
 40
0.0
 40
0.0696628008990821
 40
0.1377495622582699
 40
0.203916743517779
 40
0.2687798623293411
 40
0.3324137064772224
 40
0.394753540447139
 40
0.456180031659178
 40
0.5169956491967234
 40
0.5773959379659583
 40
0.6371983435092744
 40
0.6969991842614559
 40
0.756756194225563
 40
0.8165539052726092
 40
0.8769479965978677
 40
0.9381317879205983
 40
1.0
 40
1.0
 40
1.0
 40
1.0
 10
162.95078125
 20
64.91858974358975
 30
0.0
 10
162.9166330663119
 20
64.91882740826536
 30
0.0
 10
162.8491092617242
 20
64.9192973607308
 30
0.0
 10
162.7494153941903
 20
64.92691025545355
 30
0.0
 10
162.6523605601774
 20
64.93729680250763
 30
0.0
 10
162.5582221495697
 20
64.95293606425852
 30
0.0
 10
162.4664864436347
 20
64.97139128702169
 30
0.0
 10
162.3779850562751
 20
64.99613021267452
 30
0.0
 10
162.2918471154501
 20
65.02384267094395
 30
0.0
 10
162.2084186921043
 20
65.05641362320522
 30
0.0
 10
162.1276288215745
 20
65.09316758879267
 30
0.0
 10
162.049738078405
 20
65.13470707436726
 30
0.0
 10
161.9747822861574
 20
65.18068276588143
 30
0.0
 10
161.9020245115244
 20
65.23008123962289
 30
0.0
 10
161.8325395606192
 20
65.28448922060535
 30
0.0
 10
161.7657252911969
 20
65.34315109619081
 30
0.0
 10
161.7012070449001
 20
65.40586914880095
 30
0.0
 10
161.6612903235148
 20
65.45109462290439
 30
0.0
 10
161.6412209535256
 20
65.47383313301282
 30
0.0
  0
SPLINE
  5
FF
330
1F
100
AcDbEntity
  8
0
  6
Continuous
 62
     7
370
    15
100
AcDbSpline
210
0.0
220
0.0
230
1.0
 70
     8
 71
     3
 72
    15
 73
    11
 74
     0
 42
0.000000001
 43
0.00000001
 40
0.0
 40
0.0
 40
0.0
 40
0.0
 40
0.1243285095938597
 40
0.2471560163611948
 40
0.3687797492913374
 40
0.4907338624016452
 40
0.6136137718478425
 40
0.7389575757222175
 40
0.8673105751912611
 40
1.0
 40
1.0
 40
1.0
 40
1.0
 10
161.6412209535256
 20
65.47383313301282
 30
0.0
 10
161.6090757626365
 20
65.51333121153051
 30
0.0
 10
161.5451734657998
 20
65.59185051311499
 30
0.0
 10
161.4634165957213
 20
65.71910993897086
 30
0.0
 10
161.3934327420672
 20
65.85197752845109
 30
0.0
 10
161.3368488710756
 20
65.99115132098572
 30
0.0
 10
161.2926141059996
 20
66.13631902226813
 30
0.0
 10
161.2619697361773
 20
66.2875538103407
 30
0.0
 10
161.2420564949724
 20
66.44471444362411
 30
0.0
 10
161.2397793044352
 20
66.55160924476559
 30
0.0
 10
161.2386217948718
 20
66.60594451121796
 30
0.0
  0
LINE
  5
100
330
1F
100
AcDbEntity
  8
0
  6
Continuous
 62
     7
370
    15
100
AcDbLine
 10
159.3661858974
 20
65.0
 30
0.0
 11
159.08125
 21
65.0
 31
0.0
  0
LINE
  5
101
330
1F
100
AcDbEntity
  8
0
  6
Continuous
 62
     7
370
    15
100
AcDbLine
 10
159.08125
 20
65.0
 30
0.0
 11
159.08125
 21
68.175
 31
0.0
  0
LINE
  5
102
330
1F
100
AcDbEntity
  8
0
  6
Continuous
 62
     7
370
    15
100
AcDbLine
 10
159.08125
 20
68.175
 30
0.0
 11
159.3661858974
 21
68.175
 31
0.0
  0
LINE
  5
103
330
1F
100
AcDbEntity
  8
0
  6
Continuous
 62
     7
370
    15
100
AcDbLine
 10
159.3661858974
 20
68.175
 30
0.0
 11
159.3661858974
 21
65.0
 31
0.0
  0
LINE
  5
104
330
1F
100
AcDbEntity
  8
0
  6
Continuous
 62
     7
370
    15
100
AcDbLine
 10
158.2671474359
 20
65.0
 30
0.0
 11
157.9822115385
 21
65.0
 31
0.0
  0
LINE
  5
105
330
1F
100
AcDbEntity
  8
0
  6
Continuous
 62
     7
370
    15
100
AcDbLine
 10
157.9822115385
 20
65.0
 30
0.0
 11
157.9822115385
 21
68.175
 31
0.0
  0
LINE
  5
106
330
1F
100
AcDbEntity
  8
0
  6
Continuous
 62
     7
370
    15
100
AcDbLine
 10
157.9822115385
 20
68.175
 30
0.0
 11
158.2671474359
 21
68.175
 31
0.0
  0
LINE
  5
107
330
1F
100
AcDbEntity
  8
0
  6
Continuous
 62
     7
370
    15
100
AcDbLine
 10
158.2671474359
 20
68.175
 30
0.0
 11
158.2671474359
 21
65.0
 31
0.0
  0
LINE
  5
108
330
1F
100
AcDbEntity
  8
0
  6
Continuous
 62
     7
370
    15
100
AcDbLine
 10
157.1681089744
 20
65.0
 30
0.0
 11
156.8831730769
 21
65.0
 31
0.0
  0
LINE
  5
109
330
1F
100
AcDbEntity
  8
0
  6
Continuous
 62
     7
370
    15
100
AcDbLine
 10
156.8831730769
 20
65.0
 30
0.0
 11
156.8831730769
 21
68.175
 31
0.0
  0
LINE
  5
10A
330
1F
100
AcDbEntity
  8
0
  6
Continuous
 62
     7
370
    15
100
AcDbLine
 10
156.8831730769
 20
68.175
 30
0.0
 11
157.1681089744
 21
68.175
 31
0.0
  0
LINE
  5
10B
330
1F
100
AcDbEntity
  8
0
  6
Continuous
 62
     7
370
    15
100
AcDbLine
 10
157.1681089744
 20
68.175
 30
0.0
 11
157.1681089744
 21
65.0
 31
0.0
  0
SPLINE
  5
10C
330
1F
100
AcDbEntity
  8
0
  6
Continuous
 62
     7
370
    15
100
AcDbSpline
210
0.0
220
0.0
230
1.0
 70
     8
 71
     3
 72
    15
 73
    11
 74
     0
 42
0.000000001
 43
0.00000001
 40
0.0
 40
0.0
 40
0.0
 40
0.0
 40
0.1277566033101203
 40
0.2494143553365529
 40
0.3727964764554222
 40
0.5001113325158546
 40
0.6286099407651222
 40
0.7506433738258119
 40
0.8737683791425154
 40
0.9999999999999999
 40
0.9999999999999999
 40
0.9999999999999999
 40
0.9999999999999999
 10
155.9266025641025
 20
64.95929487179487
 30
0.0
 10
155.9088897782611
 20
64.96024156351835
 30
0.0
 10
155.8743097804577
 20
64.96208975374728
 30
0.0
 10
155.8246110571204
 20
64.97765887087112
 30
0.0
 10
155.778884735624
 20
65.00199158123522
 30
0.0
 10
155.738255882834
 20
65.03579799198008
 30
0.0
 10
155.7051102693219
 20
65.07661955063186
 30
0.0
 10
155.680050100591
 20
65.12215975168081
 30
0.0
 10
155.6650004654693
 20
65.17185434133576
 30
0.0
 10
155.6630211952644
 20
65.20639348162665
 30
0.0
 10
155.6620192307692
 20
65.2238782051282
 30
0.0
  0
SPLINE
  5
10D
330
1F
100
AcDbEntity
  8
0
  6
Continuous
 62
     7
370
    15
100
AcDbSpline
210
0.0
220
0.0
230
1.0
 70
     8
 71
     3
 72
    15
 73
    11
 74
     0
 42
0.000000001
 43
0.00000001
 40
0.0
 40
0.0
 40
0.0
 40
0.0
 40
0.1290969581672449
 40
0.2520459672599921
 40
0.3739049644020002
 40
0.5010378352202249
 40
0.6281707060384024
 40
0.7513764634091712
 40
0.8724260133704657
 40
1.0
 40
1.0
 40
1.0
 40
1.0
 10
155.6620192307692
 20
65.2238782051282
 30
0.0
 10
155.6629827065223
 20
65.2417937138087
 30
0.0
 10
155.6648637746868
 20
65.27677154580748
 30
0.0
 10
155.6800816950581
 20
65.32684502187628
 30
0.0
 10
155.7049158301431
 20
65.37235496319596
 30
0.0
 10
155.738485009886
 20
65.41262900373667
 30
0.0
 10
155.7788749068707
 20
65.4463631997263
 30
0.0
 10
155.8245007501392
 20
65.47091483350299
 30
0.0
 10
155.8744294759865
 20
65.48546577884287
 30
0.0
 10
155.9089099201192
 20
65.48744563332143
 30
0.0
 10
155.9266025641025
 20
65.48846153846154
 30
0.0
  0
SPLINE
  5
10E
330
1F
100
AcDbEntity
  8
0
  6
Continuous
 62
     7
370
    15
100
AcDbSpline
210
0.0
220
0.0
230
1.0
 70
     8
 71
     3
 72
    15
 73
    11
 74
     0
 42
0.000000001
 43
0.00000001
 40
0.0
 40
0.0
 40
0.0
 40
0.0
 40
0.127518926699937
 40
0.2499859477487656
 40
0.3717923515057058
 40
0.4988703527764534
 40
0.625948354047154
 40
0.7484917380160397
 40
0.8709587590649004
 40
1.0
 40
1.0
 40
1.0
 40
1.0
 10
155.9266025641025
 20
65.48846153846154
 30
0.0
 10
155.9442829708594
 20
65.48741091582457
 30
0.0
 10
155.9789433413165
 20
65.48535129297146
 30
0.0
 10
156.029053122003
 20
65.47122102463203
 30
0.0
 10
156.0744054204575
 20
65.44613066834711
 30
0.0
 10
156.1148025282283
 20
65.41269086226171
 30
0.0
 10
156.1481005462181
 20
65.37214551070761
 30
0.0
 10
156.1740850656484
 20
65.32715493635412
 30
0.0
 10
156.1880922450906
 20
65.2766256345146
 30
0.0
 10
156.1901368650903
 20
65.24176442936961
 30
0.0
 10
156.1911858974358
 20
65.22387820512822
 30
0.0
  0
SPLINE
  5
10F
330
1F
100
AcDbEntity
  8
0
  6
Continuous
 62
     7
370
    15
100
AcDbSpline
210
0.0
220
0.0
230
1.0
 70
     8
 71
     3
 72
    15
 73
    11
 74
     0
 42
0.000000001
 43
0.00000001
 40
0.0
 40
0.0
 40
0.0
 40
0.0
 40
0.1261777183170009
 40
0.2488206074857911
 40
0.371539969235175
 40
0.4999837069108835
 40
0.6272441978753992
 40
0.7492255210763056
 40
0.8722979504176569
 40
0.9999999999999999
 40
0.9999999999999999
 40
0.9999999999999999
 40
0.9999999999999999
 10
156.1911858974358
 20
65.2238782051282
 30
0.0
 10
156.1901013167596
 20
65.20642175598654
 30
0.0
 10
156.1879625395941
 20
65.17199789464308
 30
0.0
 10
156.1741171736485
 20
65.12184971069138
 30
0.0
 10
156.147902513797
 20
65.07683101877927
 30
0.0
 10
156.1150321987888
 20
65.03573550776281
 30
0.0
 10
156.074395434061
 20
65.00222486085396
 30
0.0
 10
156.028945901949
 20
64.9773479695611
 30
0.0
 10
155.9790609749065
 20
64.9622059592147
 30
0.0
 10
155.9443025958692
 20
64.96027710398637
 30
0.0
 10
155.9266025641025
 20
64.95929487179487
 30
0.0
  0
LINE
  5
110
330
1F
100
AcDbEntity
  8
0
  6
Continuous
 62
     7
370
    15
100
AcDbLine
 10
153.7081730769
 20
65.0
 30
0.0
 11
153.4232371795
 21
65.0
 31
0.0
  0
LINE
  5
111
330
1F
100
AcDbEntity
  8
0
  6
Continuous
 62
     7
370
    15
100
AcDbLine
 10
153.4232371795
 20
65.0
 30
0.0
 11
153.4232371795
 21
68.2564102564
 31
0.0
  0
LINE
  5
112
330
1F
100
AcDbEntity
  8
0
  6
Continuous
 62
     7
370
    15
100
AcDbLine
 10
153.4232371795
 20
68.2564102564
 30
0.0
 11
153.7081730769
 21
68.2564102564
 31
0.0
  0
LINE
  5
113
330
1F
100
AcDbEntity
  8
0
  6
Continuous
 62
     7
370
    15
100
AcDbLine
 10
153.7081730769
 20
68.2564102564
 30
0.0
 11
153.7081730769
 21
66.3737980769
 31
0.0
  0
LINE
  5
114
330
1F
100
AcDbEntity
  8
0
  6
Continuous
 62
     7
370
    15
100
AcDbLine
 10
153.7081730769
 20
66.3737980769
 30
0.0
 11
154.7639623397
 21
67.3201923077
 31
0.0
  0
LINE
  5
115
330
1F
100
AcDbEntity
  8
0
  6
Continuous
 62
     7
370
    15
100
AcDbLine
 10
154.7639623397
 20
67.3201923077
 30
0.0
 11
155.1735576923
 21
67.3201923077
 31
0.0
  0
LINE
  5
116
330
1F
100
AcDbEntity
  8
0
  6
Continuous
 62
     7
370
    15
100
AcDbLine
 10
155.1735576923
 20
67.3201923077
 30
0.0
 11
153.9485877404
 21
66.2211538462
 31
0.0
  0
LINE
  5
117
330
1F
100
AcDbEntity
  8
0
  6
Continuous
 62
     7
370
    15
100
AcDbLine
 10
153.9485877404
 20
66.2211538462
 30
0.0
 11
155.2956730769
 21
65.0
 31
0.0
  0
LINE
  5
118
330
1F
100
AcDbEntity
  8
0
  6
Continuous
 62
     7
370
    15
100
AcDbLine
 10
155.2956730769
 20
65.0
 30
0.0
 11
154.886713742
 21
65.0
 31
0.0
  0
LINE
  5
119
330
1F
100
AcDbEntity
  8
0
  6
Continuous
 62
     7
370
    15
100
AcDbLine
 10
154.886713742
 20
65.0
 30
0.0
 11
153.7081730769
 21
66.069145633
 31
0.0
  0
LINE
  5
11A
330
1F
100
AcDbEntity
  8
0
  6
Continuous
 62
     7
370
    15
100
AcDbLine
 10
153.7081730769
 20
66.069145633
 30
0.0
 11
153.7081730769
 21
65.0
 31
0.0
  0
MTEXT
  5
11C
330
1F
100
AcDbEntity
  8
0
  6
Continuous
 62
     7
100
AcDbMText
 10
0.0
 20
-1.0195663917
 30
0.0
 40
4.83362
 41
0.0
 71
     1
 72
     1
  1
SOLIDWORKS Educational Product.
  7
SLDTEXTSTYLE0
 73
     1
 44
1.0
  0
MTEXT
  5
11D
330
1F
100
AcDbEntity
  8
0
  6
Continuous
 62
     7
100
AcDbMText
 10
0.0
 20
-8.2699963917
 30
0.0
 40
4.83362
 41
0.0
 71
     1
 72
     1
  1
For Instructional Use Only.
  7
SLDTEXTSTYLE0
 73
     1
 44
1.0
  0
ENDSEC
  0
SECTION
  2
OBJECTS
  0
DICTIONARY
  5
C
330
0
100
AcDbDictionary
281
     1
  3
ACAD_GROUP
350
D
  3
ACAD_LAYOUT
350
1A
  3
ACAD_MLINESTYLE
350
17
  3
ACAD_PLOTSETTINGS
350
19
  3
ACAD_PLOTSTYLENAME
350
E
  3
ACAD_SCALELIST
350
47
  0
DICTIONARY
  5
D
102
{ACAD_REACTORS
330
C
102
}
330
C
100
AcDbDictionary
281
     1
  0
DICTIONARY
  5
1A
102
{ACAD_REACTORS
330
C
102
}
330
C
100
AcDbDictionary
281
     1
  3
Layout1
350
1E
  3
Layout2
350
26
  3
Model
350
22
  0
DICTIONARY
  5
17
102
{ACAD_REACTORS
330
C
102
}
330
C
100
AcDbDictionary
281
     1
  3
Standard
350
18
  0
DICTIONARY
  5
19
102
{ACAD_REACTORS
330
C
102
}
330
C
100
AcDbDictionary
281
     1
  0
ACDBDICTIONARYWDFLT
  5
E
102
{ACAD_REACTORS
330
C
102
}
330
C
100
AcDbDictionary
281
     1
  3
Normal
350
F
100
AcDbDictionaryWithDefault
340
F
  0
DICTIONARY
  5
47
102
{ACAD_REACTORS
330
C
102
}
330
C
100
AcDbDictionary
281
     1
  3
A0
350
48
  3
A1
350
49
  3
A2
350
4A
  3
A3
350
4B
  3
A4
350
4C
  3
A5
350
4D
  3
A6
350
4E
  3
A7
350
4F
  3
A8
350
50
  3
A9
350
51
  3
B0
350
52
  3
B1
350
53
  3
B2
350
54
  3
B3
350
55
  3
B4
350
56
  3
B5
350
57
  3
B6
350
58
  3
B7
350
59
  3
B8
350
5A
  3
B9
350
5B
  3
C0
350
5C
  3
C1
350
5D
  3
C2
350
5E
  3
C3
350
5F
  3
C4
350
60
  3
C5
350
61
  3
C6
350
62
  3
C7
350
63
  3
C8
350
64
  3
C9
350
65
  3
D0
350
66
  3
D1
350
67
  3
D2
350
68
  0
LAYOUT
  5
1E
102
{ACAD_REACTORS
330
1A
102
}
330
1A
100
AcDbPlotSettings
  1

  2
none_device
  4

  6

 40
0.0
 41
0.0
 42
0.0
 43
0.0
 44
0.0
 45
0.0
 46
0.0
 47
0.0
 48
0.0
 49
0.0
140
0.0
141
0.0
142
1.0
143
1.0
 70
   688
 72
     1
 73
     0
 74
     5
  7

 75
    16
147
1.0
148
0.0
149
0.0
100
AcDbLayout
  1
Layout1
 70
     1
 71
     1
 10
0.0
 20
0.0
 11
420.0
 21
297.0
 12
0.0
 22
0.0
 32
0.0
 14
1.0000000000E+20
 24
1.0000000000E+20
 34
1.0000000000E+20
 15
-1.0000000000E+20
 25
-1.0000000000E+20
 35
-1.0000000000E+20
146
0.0
 13
0.0
 23
0.0
 33
0.0
 16
1.0
 26
0.0
 36
0.0
 17
0.0
 27
1.0
 37
0.0
 76
     0
330
1B
  0
LAYOUT
  5
26
102
{ACAD_REACTORS
330
1A
102
}
330
1A
100
AcDbPlotSettings
  1

  2
none_device
  4

  6

 40
0.0
 41
0.0
 42
0.0
 43
0.0
 44
0.0
 45
0.0
 46
0.0
 47
0.0
 48
0.0
 49
0.0
140
0.0
141
0.0
142
1.0
143
1.0
 70
   688
 72
     1
 73
     0
 74
     5
  7

 75
    16
147
1.0
148
0.0
149
0.0
100
AcDbLayout
  1
Layout2
 70
     1
 71
     2
 10
0.0
 20
0.0
 11
0.0
 21
0.0
 12
0.0
 22
0.0
 32
0.0
 14
0.0
 24
0.0
 34
0.0
 15
0.0
 25
0.0
 35
0.0
146
0.0
 13
0.0
 23
0.0
 33
0.0
 16
1.0
 26
0.0
 36
0.0
 17
0.0
 27
1.0
 37
0.0
 76
     0
330
23
  0
LAYOUT
  5
22
102
{ACAD_REACTORS
330
1A
102
}
330
1A
100
AcDbPlotSettings
  1

  2
none_device
  4
ANSI_A_(11.00_x_8.50_Inches)
  6

 40
6.35
 41
19.05
 42
6.35000508
 43
19.05000254
 44
279.4
 45
215.9
 46
-4.95300254
 47
35.8321415871
 48
0.0
 49
0.0
140
0.0
141
0.0
142
0.0321428571
143
1.0
 70
  1696
 72
     0
 73
     0
 74
     0
  7

 75
     0
147
0.0179189148
148
-1300.4909072572
149
0.0
100
AcDbLayout
  1
Model
 70
     1
 71
     0
 10
0.0
 20
0.0
 11
420.0
 21
297.0
 12
0.0
 22
0.0
 32
0.0
 14
0.0
 24
0.0
 34
0.0
 15
338.8
 25
130.0
 35
0.0
146
0.0
 13
0.0
 23
0.0
 33
0.0
 16
1.0
 26
0.0
 36
0.0
 17
0.0
 27
1.0
 37
0.0
 76
     0
330
1F
331
29
  0
MLINESTYLE
  5
18
102
{ACAD_REACTORS
330
17
102
}
330
17
100
AcDbMlineStyle
  2
Standard
 70
     0
  3

 62
   256
 51
90.0
 52
90.0
 71
     2
 49
0.5
 62
   256
  6
BYLAYER
 49
-0.5
 62
   256
  6
BYLAYER
  0
ACDBPLACEHOLDER
  5
F
102
{ACAD_REACTORS
330
E
102
}
330
E
  0
SCALE
  5
48
102
{ACAD_REACTORS
330
47
102
}
330
47
100
AcDbScale
 70
     0
300
1:1
140
1.0
141
1.0
290
     1
  0
SCALE
  5
49
102
{ACAD_REACTORS
330
47
102
}
330
47
100
AcDbScale
 70
     0
300
1:2
140
1.0
141
2.0
290
     0
  0
SCALE
  5
4A
102
{ACAD_REACTORS
330
47
102
}
330
47
100
AcDbScale
 70
     0
300
1:4
140
1.0
141
4.0
290
     0
  0
SCALE
  5
4B
102
{ACAD_REACTORS
330
47
102
}
330
47
100
AcDbScale
 70
     0
300
1:5
140
1.0
141
5.0
290
     0
  0
SCALE
  5
4C
102
{ACAD_REACTORS
330
47
102
}
330
47
100
AcDbScale
 70
     0
300
1:8
140
1.0
141
8.0
290
     0
  0
SCALE
  5
4D
102
{ACAD_REACTORS
330
47
102
}
330
47
100
AcDbScale
 70
     0
300
1:10
140
1.0
141
10.0
290
     0
  0
SCALE
  5
4E
102
{ACAD_REACTORS
330
47
102
}
330
47
100
AcDbScale
 70
     0
300
1:16
140
1.0
141
16.0
290
     0
  0
SCALE
  5
4F
102
{ACAD_REACTORS
330
47
102
}
330
47
100
AcDbScale
 70
     0
300
1:20
140
1.0
141
20.0
290
     0
  0
SCALE
  5
50
102
{ACAD_REACTORS
330
47
102
}
330
47
100
AcDbScale
 70
     0
300
1:30
140
1.0
141
30.0
290
     0
  0
SCALE
  5
51
102
{ACAD_REACTORS
330
47
102
}
330
47
100
AcDbScale
 70
     0
300
1:40
140
1.0
141
40.0
290
     0
  0
SCALE
  5
52
102
{ACAD_REACTORS
330
47
102
}
330
47
100
AcDbScale
 70
     0
300
1:50
140
1.0
141
50.0
290
     0
  0
SCALE
  5
53
102
{ACAD_REACTORS
330
47
102
}
330
47
100
AcDbScale
 70
     0
300
1:100
140
1.0
141
100.0
290
     0
  0
SCALE
  5
54
102
{ACAD_REACTORS
330
47
102
}
330
47
100
AcDbScale
 70
     0
300
2:1
140
2.0
141
1.0
290
     0
  0
SCALE
  5
55
102
{ACAD_REACTORS
330
47
102
}
330
47
100
AcDbScale
 70
     0
300
4:1
140
4.0
141
1.0
290
     0
  0
SCALE
  5
56
102
{ACAD_REACTORS
330
47
102
}
330
47
100
AcDbScale
 70
     0
300
8:1
140
8.0
141
1.0
290
     0
  0
SCALE
  5
57
102
{ACAD_REACTORS
330
47
102
}
330
47
100
AcDbScale
 70
     0
300
10:1
140
10.0
141
1.0
290
     0
  0
SCALE
  5
58
102
{ACAD_REACTORS
330
47
102
}
330
47
100
AcDbScale
 70
     0
300
100:1
140
100.0
141
1.0
290
     0
  0
SCALE
  5
59
102
{ACAD_REACTORS
330
47
102
}
330
47
100
AcDbScale
 70
     0
300
1/128" = 1'-0"
140
0.0078125
141
12.0
290
     0
  0
SCALE
  5
5A
102
{ACAD_REACTORS
330
47
102
}
330
47
100
AcDbScale
 70
     0
300
1/64" = 1'-0"
140
0.015625
141
12.0
290
     0
  0
SCALE
  5
5B
102
{ACAD_REACTORS
330
47
102
}
330
47
100
AcDbScale
 70
     0
300
1/32" = 1'-0"
140
0.03125
141
12.0
290
     0
  0
SCALE
  5
5C
102
{ACAD_REACTORS
330
47
102
}
330
47
100
AcDbScale
 70
     0
300
1/16" = 1'-0"
140
0.0625
141
12.0
290
     0
  0
SCALE
  5
5D
102
{ACAD_REACTORS
330
47
102
}
330
47
100
AcDbScale
 70
     0
300
3/32" = 1'-0"
140
0.09375
141
12.0
290
     0
  0
SCALE
  5
5E
102
{ACAD_REACTORS
330
47
102
}
330
47
100
AcDbScale
 70
     0
300
1/8" = 1'-0"
140
0.125
141
12.0
290
     0
  0
SCALE
  5
5F
102
{ACAD_REACTORS
330
47
102
}
330
47
100
AcDbScale
 70
     0
300
3/16" = 1'-0"
140
0.1875
141
12.0
290
     0
  0
SCALE
  5
60
102
{ACAD_REACTORS
330
47
102
}
330
47
100
AcDbScale
 70
     0
300
1/4" = 1'-0"
140
0.25
141
12.0
290
     0
  0
SCALE
  5
61
102
{ACAD_REACTORS
330
47
102
}
330
47
100
AcDbScale
 70
     0
300
3/8" = 1'-0"
140
0.375
141
12.0
290
     0
  0
SCALE
  5
62
102
{ACAD_REACTORS
330
47
102
}
330
47
100
AcDbScale
 70
     0
300
1/2" = 1'-0"
140
0.5
141
12.0
290
     0
  0
SCALE
  5
63
102
{ACAD_REACTORS
330
47
102
}
330
47
100
AcDbScale
 70
     0
300
3/4" = 1'-0"
140
0.75
141
12.0
290
     0
  0
SCALE
  5
64
102
{ACAD_REACTORS
330
47
102
}
330
47
100
AcDbScale
 70
     0
300
1" = 1'-0"
140
1.0
141
12.0
290
     0
  0
SCALE
  5
65
102
{ACAD_REACTORS
330
47
102
}
330
47
100
AcDbScale
 70
     0
300
1-1/2" = 1'-0"
140
1.5
141
12.0
290
     0
  0
SCALE
  5
66
102
{ACAD_REACTORS
330
47
102
}
330
47
100
AcDbScale
 70
     0
300
3" = 1'-0"
140
3.0
141
12.0
290
     0
  0
SCALE
  5
67
102
{ACAD_REACTORS
330
47
102
}
330
47
100
AcDbScale
 70
     0
300
6" = 1'-0"
140
6.0
141
12.0
290
     0
  0
SCALE
  5
68
102
{ACAD_REACTORS
330
47
102
}
330
47
100
AcDbScale
 70
     0
300
1'-0" = 1'-0"
140
12.0
141
12.0
290
     0
  0
ENDSEC
  0
EOF
