  0
SECTION
  2
HEADER
  9
$ACADVER
  1
AC1015
  9
$ACADMAINTVER
 70
     6
  9
$DWGCODEPAGE
  3
ANSI_1252
  9
$INSBASE
 10
0.0
 20
0.0
 30
0.0
  9
$EXTMIN
 10
-6.8
 20
-3.4
 30
0.0
  9
$EXTMAX
 10
240.0
 20
55.0
 30
0.0
  9
$LIMMIN
 10
0.0
 20
0.0
  9
$LIMMAX
 10
420.0
 20
297.0
  9
$ORTHOMODE
 70
     0
  9
$REGENMODE
 70
     1
  9
$FILLMODE
 70
     1
  9
$QTEXTMODE
 70
     0
  9
$MIRRTEXT
 70
     1
  9
$LTSCALE
 40
1.0
  9
$ATTMODE
 70
     1
  9
$TEXTSIZE
 40
6.35
  9
$TRACEWID
 40
1.0
  9
$TEXTSTYLE
  7
Standard
  9
$CLAYER
  8
0
  9
$CELTYPE
  6
ByLayer
  9
$CECOLOR
 62
   256
  9
$CELTSCALE
 40
1.0
  9
$DISPSILH
 70
     0
  9
$DIMSCALE
 40
1.0
  9
$DIMASZ
 40
5.9944
  9
$DIMEXO
 40
0.9906
  9
$DIMDLI
 40
3.75
  9
$DIMRND
 40
0.0
  9
$DIMDLE
 40
0.0
  9
$DIMEXE
 40
0.9906
  9
$DIMTP
 40
0.0
  9
$DIMTM
 40
0.0
  9
$DIMTXT
 40
6.35
  9
$DIMCEN
 40
2.5
  9
$DIMTSZ
 40
0.0
  9
$DIMTOL
 70
     0
  9
$DIMLIM
 70
     0
  9
$DIMTIH
 70
     1
  9
$DIMTOH
 70
     1
  9
$DIMSE1
 70
     0
  9
$DIMSE2
 70
     0
  9
$DIMTAD
 70
     1
  9
$DIMZIN
 70
     0
  9
$DIMBLK
  1

  9
$DIMASO
 70
     1
  9
$DIMSHO
 70
     1
  9
$DIMPOST
  1

  9
$DIMAPOST
  1

  9
$DIMALT
 70
     0
  9
$DIMALTD
 70
     3
  9
$DIMALTF
 40
0.0393700787
  9
$DIMLFAC
 40
1.0
  9
$DIMTOFL
 70
     1
  9
$DIMTVP
 40
0.0
  9
$DIMTIX
 70
     0
  9
$DIMSOXD
 70
     0
  9
$DIMSAH
 70
     0
  9
$DIMBLK1
  1

  9
$DIMBLK2
  1

  9
$DIMSTYLE
  2
ISO-25
  9
$DIMCLRD
 70
     0
  9
$DIMCLRE
 70
     0
  9
$DIMCLRT
 70
     0
  9
$DIMTFAC
 40
1.0
  9
$DIMGAP
 40
1.524
  9
$DIMJUST
 70
     0
  9
$DIMSD1
 70
     0
  9
$DIMSD2
 70
     0
  9
$DIMTOLJ
 70
     0
  9
$DIMTZIN
 70
     0
  9
$DIMALTZ
 70
     0
  9
$DIMALTTZ
 70
     0
  9
$DIMUPT
 70
     0
  9
$DIMDEC
 70
     2
  9
$DIMTDEC
 70
     2
  9
$DIMALTU
 70
     2
  9
$DIMALTTD
 70
     3
  9
$DIMTXSTY
  7
Standard
  9
$DIMAUNIT
 70
     0
  9
$DIMADEC
 70
     2
  9
$DIMALTRND
 40
0.0
  9
$DIMAZIN
 70
     0
  9
$DIMDSEP
 70
    44
  9
$DIMATFIT
 70
     3
  9
$DIMFRAC
 70
     0
  9
$DIMLDRBLK
  1

  9
$DIMLUNIT
 70
     2
  9
$DIMLWD
 70
    -2
  9
$DIMLWE
 70
    -2
  9
$DIMTMOVE
 70
     0
  9
$LUNITS
 70
     2
  9
$LUPREC
 70
     2
  9
$SKETCHINC
 40
1.0
  9
$FILLETRAD
 40
10.0
  9
$AUNITS
 70
     0
  9
$AUPREC
 70
     2
  9
$MENU
  1
.
  9
$ELEVATION
 40
0.0
  9
$PELEVATION
 40
0.0
  9
$THICKNESS
 40
0.0
  9
$LIMCHECK
 70
     0
  9
$CHAMFERA
 40
0.0
  9
$CHAMFERB
 40
0.0
  9
$CHAMFERC
 40
0.0
  9
$CHAMFERD
 40
0.0
  9
$SKPOLY
 70
     0
  9
$TDCREATE
 40
2457988.454819629
  9
$TDUCREATE
 40
2457988.413152963
  9
$TDUPDATE
 40
2457988.454833067
  9
$TDUUPDATE
 40
2457988.413166401
  9
$TDINDWG
 40
0.0000000116
  9
$TDUSRTIMER
 40
0.0000000116
  9
$USRTIMER
 70
     1
  9
$ANGBASE
 50
0.0
  9
$ANGDIR
 70
     0
  9
$PDMODE
 70
     0
  9
$PDSIZE
 40
-1.0
  9
$PLINEWID
 40
0.0
  9
$SPLFRAME
 70
     0
  9
$SPLINETYPE
 70
     6
  9
$SPLINESEGS
 70
     8
  9
$HANDSEED
  5
16E
  9
$SURFTAB1
 70
     6
  9
$SURFTAB2
 70
     6
  9
$SURFTYPE
 70
     6
  9
$SURFU
 70
     6
  9
$SURFV
 70
     6
  9
$UCSBASE
  2

  9
$UCSNAME
  2

  9
$UCSORG
 10
0.0
 20
0.0
 30
0.0
  9
$UCSXDIR
 10
1.0
 20
0.0
 30
0.0
  9
$UCSYDIR
 10
0.0
 20
1.0
 30
0.0
  9
$UCSORTHOREF
  2

  9
$UCSORTHOVIEW
 70
     0
  9
$UCSORGTOP
 10
0.0
 20
0.0
 30
0.0
  9
$UCSORGBOTTOM
 10
0.0
 20
0.0
 30
0.0
  9
$UCSORGLEFT
 10
0.0
 20
0.0
 30
0.0
  9
$UCSORGRIGHT
 10
0.0
 20
0.0
 30
0.0
  9
$UCSORGFRONT
 10
0.0
 20
0.0
 30
0.0
  9
$UCSORGBACK
 10
0.0
 20
0.0
 30
0.0
  9
$PUCSBASE
  2

  9
$PUCSNAME
  2

  9
$PUCSORG
 10
0.0
 20
0.0
 30
0.0
  9
$PUCSXDIR
 10
1.0
 20
0.0
 30
0.0
  9
$PUCSYDIR
 10
0.0
 20
1.0
 30
0.0
  9
$PUCSORTHOREF
  2

  9
$PUCSORTHOVIEW
 70
     0
  9
$PUCSORGTOP
 10
0.0
 20
0.0
 30
0.0
  9
$PUCSORGBOTTOM
 10
0.0
 20
0.0
 30
0.0
  9
$PUCSORGLEFT
 10
0.0
 20
0.0
 30
0.0
  9
$PUCSORGRIGHT
 10
0.0
 20
0.0
 30
0.0
  9
$PUCSORGFRONT
 10
0.0
 20
0.0
 30
0.0
  9
$PUCSORGBACK
 10
0.0
 20
0.0
 30
0.0
  9
$USERI1
 70
     0
  9
$USERI2
 70
     0
  9
$USERI3
 70
     0
  9
$USERI4
 70
     0
  9
$USERI5
 70
     0
  9
$USERR1
 40
0.0
  9
$USERR2
 40
0.0
  9
$USERR3
 40
0.0
  9
$USERR4
 40
0.0
  9
$USERR5
 40
0.0
  9
$WORLDVIEW
 70
     1
  9
$SHADEDGE
 70
     3
  9
$SHADEDIF
 70
    70
  9
$TILEMODE
 70
     1
  9
$MAXACTVP
 70
    64
  9
$PINSBASE
 10
0.0
 20
0.0
 30
0.0
  9
$PLIMCHECK
 70
     0
  9
$PEXTMIN
 10
1.0000000000E+20
 20
1.0000000000E+20
 30
1.0000000000E+20
  9
$PEXTMAX
 10
-1.0000000000E+20
 20
-1.0000000000E+20
 30
-1.0000000000E+20
  9
$PLIMMIN
 10
0.0
 20
0.0
  9
$PLIMMAX
 10
420.0
 20
297.0
  9
$UNITMODE
 70
     0
  9
$VISRETAIN
 70
     1
  9
$PLINEGEN
 70
     0
  9
$PSLTSCALE
 70
     1
  9
$TREEDEPTH
 70
  3020
  9
$CMLSTYLE
  2
Standard
  9
$CMLJUST
 70
     0
  9
$CMLSCALE
 40
20.0
  9
$PROXYGRAPHICS
 70
     1
  9
$MEASUREMENT
 70
     1
  9
$CELWEIGHT
370
    -1
  9
$ENDCAPS
280
     0
  9
$JOINSTYLE
280
     0
  9
$LWDISPLAY
290
     1
  9
$INSUNITS
 70
     4
  9
$HYPERLINKBASE
  1

  9
$STYLESHEET
  1

  9
$XEDIT
290
     1
  9
$CEPSNTYPE
380
     0
  9
$PSTYLEMODE
290
     1
  9
$FINGERPRINTGUID
  2
{04071F55-0CC2-4140-8151-416D5751C407}
  9
$VERSIONGUID
  2
{FAEB1C32-E019-11D5-929B-00C0DF256EC4}
  9
$EXTNAMES
290
     1
  9
$PSVPSCALE
 40
0.0
  9
$OLESTARTUP
290
     0
  0
ENDSEC
  0
SECTION
  2
CLASSES
  0
CLASS
  1
ACDBDICTIONARYWDFLT
  2
AcDbDictionaryWithDefault
  3
ObjectDBX Classes
 90
        0
280
     0
281
     0
  0
CLASS
  1
VISUALSTYLE
  2
AcDbVisualStyle
  3
ObjectDBX Classes
 90
     4095
280
     0
281
     0
  0
CLASS
  1
MATERIAL
  2
AcDbMaterial
  3
ObjectDBX Classes
 90
     1153
280
     0
281
     0
  0
CLASS
  1
SCALE
  2
AcDbScale
  3
ObjectDBX Classes
 90
     1153
280
     0
281
     0
  0
CLASS
  1
TABLESTYLE
  2
AcDbTableStyle
  3
ObjectDBX Classes
 90
     4095
280
     0
281
     0
  0
CLASS
  1
MLEADERSTYLE
  2
AcDbMLeaderStyle
  3
ACDB_MLEADERSTYLE_CLASS
 90
     4095
280
     0
281
     0
  0
CLASS
  1
SUN
  2
AcDbSun
  3
SCENEOE
 90
     1153
280
     0
281
     0
  0
CLASS
  1
ACDBPLACEHOLDER
  2
AcDbPlaceHolder
  3
ObjectDBX Classes
 90
        0
280
     0
281
     0
  0
CLASS
  1
LAYOUT
  2
AcDbLayout
  3
ObjectDBX Classes
 90
        0
280
     0
281
     0
  0
ENDSEC
  0
SECTION
  2
TABLES
  0
TABLE
  2
VPORT
  5
8
330
0
100
AcDbSymbolTable
 70
     1
  0
VPORT
  5
29
330
8
100
AcDbSymbolTableRecord
100
AcDbViewportTableRecord
  2
*Active
 70
     0
 10
0.0
 20
0.0
 11
1.0
 21
1.0
 12
116.6
 22
25.8
 13
0.0
 23
0.0
 14
10.0
 24
10.0
 15
10.0
 25
10.0
 16
0.0
 26
0.0
 36
1.0
 17
0.0
 27
0.0
 37
0.0
 40
59.568
 41
4.2260273973
 42
50.0
 43
0.0
 44
0.0
 50
0.0
 51
0.0
 71
     0
 72
   100
 73
     1
 74
     3
 75
     0
 76
     0
 77
     0
 78
     0
281
     0
 65
     1
110
0.0
120
0.0
130
0.0
111
1.0
121
0.0
131
0.0
112
0.0
122
1.0
132
0.0
 79
     0
146
0.0
  0
ENDTAB
  0
TABLE
  2
LTYPE
  5
5
330
0
100
AcDbSymbolTable
 70
     6
  0
LTYPE
  5
14
330
5
100
AcDbSymbolTableRecord
100
AcDbLinetypeTableRecord
  2
ByBlock
 70
     0
  3

 72
    65
 73
     0
 40
0.0
  0
LTYPE
  5
15
330
5
100
AcDbSymbolTableRecord
100
AcDbLinetypeTableRecord
  2
ByLayer
 70
     0
  3

 72
    65
 73
     0
 40
0.0
  0
LTYPE
  5
16
330
5
100
AcDbSymbolTableRecord
100
AcDbLinetypeTableRecord
  2
Continuous
 70
     0
  3
Solid line
 72
    65
 73
     0
 40
0.0
  0
LTYPE
  5
6E
330
5
100
AcDbSymbolTableRecord
100
AcDbLinetypeTableRecord
  2
HIDDEN
 70
     0
  3
Hidden __ __ __ __ __ __ __ __ __ __ __ __ __ __
 72
    65
 73
     2
 40
1.905
 49
1.27
 74
     0
 49
-0.635
 74
     0
  0
LTYPE
  5
6F
330
5
100
AcDbSymbolTableRecord
100
AcDbLinetypeTableRecord
  2
PHANTOM
 70
     0
  3
Phantom ______  __  __  ______  __  __  ______
 72
    65
 73
     6
 40
12.7
 49
6.35
 74
     0
 49
-1.27
 74
     0
 49
1.27
 74
     0
 49
-1.27
 74
     0
 49
1.27
 74
     0
 49
-1.27
 74
     0
  0
LTYPE
  5
70
330
5
100
AcDbSymbolTableRecord
100
AcDbLinetypeTableRecord
  2
CENTER
 70
     0
  3
Center ____ _ ____ _ ____ _ ____ _ ____ _ ____
 72
    65
 73
     4
 40
10.16
 49
6.35
 74
     0
 49
-1.27
 74
     0
 49
1.27
 74
     0
 49
-1.27
 74
     0
  0
LTYPE
  5
71
330
5
100
AcDbSymbolTableRecord
100
AcDbLinetypeTableRecord
  2
CENTERX2
 70
     0
  3
Center (2x) ________  __  ________  __  _____
 72
    65
 73
     4
 40
20.32
 49
12.7
 74
     0
 49
-2.54
 74
     0
 49
2.54
 74
     0
 49
-2.54
 74
     0
  0
LTYPE
  5
72
330
5
100
AcDbSymbolTableRecord
100
AcDbLinetypeTableRecord
  2
DOT2
 70
     0
  3
Dot (.5x) ........................................
 72
    65
 73
     2
 40
0.635
 49
0.0
 74
     0
 49
-0.635
 74
     0
  0
ENDTAB
  0
TABLE
  2
LAYER
  5
2
330
0
100
AcDbSymbolTable
 70
     1
  0
LAYER
  5
10
330
2
100
AcDbSymbolTableRecord
100
AcDbLayerTableRecord
  2
0
 70
     0
 62
     7
  6
Continuous
370
    -3
390
F
  0
ENDTAB
  0
TABLE
  2
STYLE
  5
3
330
0
100
AcDbSymbolTable
 70
     2
  0
STYLE
  5
11
330
3
100
AcDbSymbolTableRecord
100
AcDbTextStyleTableRecord
  2
Standard
 70
     0
 40
0.0
 41
1.0
 50
0.0
 71
     0
 42
6.35
  3
txt
  4

  0
STYLE
  5
16B
330
3
100
AcDbSymbolTableRecord
100
AcDbTextStyleTableRecord
  2
SLDTEXTSTYLE0
 70
     0
 40
0.0
 41
0.7
 50
0.0
 71
     0
 42
6.35
  3
TXT
  4

  0
ENDTAB
  0
TABLE
  2
VIEW
  5
6
330
0
100
AcDbSymbolTable
 70
     0
  0
ENDTAB
  0
TABLE
  2
UCS
  5
7
330
0
100
AcDbSymbolTable
 70
     0
  0
ENDTAB
  0
TABLE
  2
APPID
  5
9
330
0
100
AcDbSymbolTable
 70
     1
  0
APPID
  5
12
330
9
100
AcDbSymbolTableRecord
100
AcDbRegAppTableRecord
  2
ACAD
 70
     0
  0
ENDTAB
  0
TABLE
  2
DIMSTYLE
  5
A
330
0
100
AcDbSymbolTable
 70
     1
100
AcDbDimStyleTable
  0
DIMSTYLE
105
27
330
A
100
AcDbSymbolTableRecord
100
AcDbDimStyleTableRecord
  2
ISO-25
 70
     0
 41
2.5
 42
0.625
 43
3.75
 44
1.25
 73
     0
 74
     0
 77
     1
 78
     8
140
2.5
141
2.5
143
0.0393700787
147
0.625
171
     3
172
     1
178
     0
271
     2
272
     2
274
     3
278
    44
283
     0
284
     8
340
11
  0
ENDTAB
  0
TABLE
  2
BLOCK_RECORD
  5
1
330
0
100
AcDbSymbolTable
 70
     1
  0
BLOCK_RECORD
  5
1F
330
1
100
AcDbSymbolTableRecord
100
AcDbBlockTableRecord
  2
*Model_Space
340
22
  0
BLOCK_RECORD
  5
1B
330
1
100
AcDbSymbolTableRecord
100
AcDbBlockTableRecord
  2
*Paper_Space
340
1E
  0
BLOCK_RECORD
  5
23
330
1
100
AcDbSymbolTableRecord
100
AcDbBlockTableRecord
  2
*Paper_Space0
340
26
  0
ENDTAB
  0
ENDSEC
  0
SECTION
  2
BLOCKS
  0
BLOCK
  5
20
330
1F
100
AcDbEntity
  8
0
100
AcDbBlockBegin
  2
*Model_Space
 70
     0
 10
0.0
 20
0.0
 30
0.0
  3
*Model_Space
  1

  0
ENDBLK
  5
21
330
1F
100
AcDbEntity
  8
0
100
AcDbBlockEnd
  0
BLOCK
  5
1C
330
1B
100
AcDbEntity
 67
     1
  8
0
100
AcDbBlockBegin
  2
*Paper_Space
 70
     0
 10
0.0
 20
0.0
 30
0.0
  3
*Paper_Space
  1

  0
ENDBLK
  5
1D
330
1B
100
AcDbEntity
 67
     1
  8
0
100
AcDbBlockEnd
  0
BLOCK
  5
24
330
23
100
AcDbEntity
  8
0
100
AcDbBlockBegin
  2
*Paper_Space0
 70
     0
 10
0.0
 20
0.0
 30
0.0
  3
*Paper_Space0
  1

  0
ENDBLK
  5
25
330
23
100
AcDbEntity
  8
0
100
AcDbBlockEnd
  0
ENDSEC
  0
SECTION
  2
ENTITIES
  0
CIRCLE
  5
73
330
1F
100
AcDbEntity
  8
0
  6
Continuous
 62
     7
370
    15
100
AcDbCircle
 10
116.6
 20
19.6
 30
0.0
 40
2.0
  0
LINE
  5
74
330
1F
100
AcDbEntity
  8
0
  6
Continuous
 62
     7
370
    15
100
AcDbLine
 10
143.2822115385
 20
10.0
 30
0.0
 11
142.997275641
 21
10.0
 31
0.0
  0
LINE
  5
75
330
1F
100
AcDbEntity
  8
0
  6
Continuous
 62
     7
370
    15
100
AcDbLine
 10
142.997275641
 20
10.0
 30
0.0
 11
142.997275641
 21
13.2564102564
 31
0.0
  0
LINE
  5
76
330
1F
100
AcDbEntity
  8
0
  6
Continuous
 62
     7
370
    15
100
AcDbLine
 10
142.997275641
 20
13.2564102564
 30
0.0
 11
143.2822115385
 21
13.2564102564
 31
0.0
  0
LINE
  5
77
330
1F
100
AcDbEntity
  8
0
  6
Continuous
 62
     7
370
    15
100
AcDbLine
 10
143.2822115385
 20
13.2564102564
 30
0.0
 11
143.2822115385
 21
10.0
 31
0.0
  0
LINE
  5
78
330
1F
100
AcDbEntity
  8
0
  6
Continuous
 62
     7
370
    15
100
AcDbLine
 10
142.3866987179
 20
10.0
 30
0.0
 11
142.1017628205
 21
10.0
 31
0.0
  0
LINE
  5
79
330
1F
100
AcDbEntity
  8
0
  6
Continuous
 62
     7
370
    15
100
AcDbLine
 10
142.1017628205
 20
10.0
 30
0.0
 11
142.1017628205
 21
13.2564102564
 31
0.0
  0
LINE
  5
7A
330
1F
100
AcDbEntity
  8
0
  6
Continuous
 62
     7
370
    15
100
AcDbLine
 10
142.1017628205
 20
13.2564102564
 30
0.0
 11
142.3866987179
 21
13.2564102564
 31
0.0
  0
LINE
  5
7B
330
1F
100
AcDbEntity
  8
0
  6
Continuous
 62
     7
370
    15
100
AcDbLine
 10
142.3866987179
 20
13.2564102564
 30
0.0
 11
142.3866987179
 21
10.0
 31
0.0
  0
LINE
  5
7C
330
1F
100
AcDbEntity
  8
0
  6
Continuous
 62
     7
370
    15
100
AcDbLine
 10
141.20625
 20
11.8908804087
 30
0.0
 11
141.20625
 21
12.3201923077
 31
0.0
  0
LINE
  5
7D
330
1F
100
AcDbEntity
  8
0
  6
Continuous
 62
     7
370
    15
100
AcDbLine
 10
141.20625
 20
12.3201923077
 30
0.0
 11
141.4911858974
 21
12.3201923077
 31
0.0
  0
LINE
  5
7E
330
1F
100
AcDbEntity
  8
0
  6
Continuous
 62
     7
370
    15
100
AcDbLine
 10
141.4911858974
 20
12.3201923077
 30
0.0
 11
141.4911858974
 21
10.0
 31
0.0
  0
LINE
  5
7F
330
1F
100
AcDbEntity
  8
0
  6
Continuous
 62
     7
370
    15
100
AcDbLine
 10
141.4911858974
 20
10.0
 30
0.0
 11
141.20625
 21
10.0
 31
0.0
  0
LINE
  5
80
330
1F
100
AcDbEntity
  8
0
  6
Continuous
 62
     7
370
    15
100
AcDbLine
 10
141.20625
 20
10.0
 30
0.0
 11
141.20625
 21
10.4013271234
 31
0.0
  0
SPLINE
  5
81
330
1F
100
AcDbEntity
  8
0
  6
Continuous
 62
     7
370
    15
100
AcDbSpline
210
0.0
220
0.0
230
1.0
 70
     8
 71
     3
 72
    15
 73
    11
 74
     0
 42
0.000000001
 43
0.00000001
 40
0.0
 40
0.0
 40
0.0
 40
0.0
 40
0.1342983790141795
 40
0.2620849753822926
 40
0.3862699121344926
 40
0.5071645966228006
 40
0.6273002357254971
 40
0.7481449416029825
 40
0.8723701771613424
 40
1.0
 40
1.0
 40
1.0
 40
1.0
 10
141.20625
 20
10.40132712339743
 30
0.0
 10
141.1741200970748
 20
10.36500549173568
 30
0.0
 10
141.1114181874986
 20
10.29412337082111
 30
0.0
 10
141.0066966019102
 20
10.20152025720448
 30
0.0
 10
140.8956911833844
 20
10.12497706552172
 30
0.0
 10
140.7789406992158
 20
10.06315535627923
 30
0.0
 10
140.6565505784675
 20
10.01671684803034
 30
0.0
 10
140.5287921278669
 20
9.983709403680503
 30
0.0
 10
140.3956132323675
 20
9.962487853202823
 30
0.0
 10
140.304670024808
 20
9.960368747650204
 30
0.0
 10
140.2585837339743
 20
9.959294871794864
 30
0.0
  0
SPLINE
  5
82
330
1F
100
AcDbEntity
  8
0
  6
Continuous
 62
     7
370
    15
100
AcDbSpline
210
0.0
220
0.0
230
1.0
 70
     8
 71
     3
 72
    23
 73
    19
 74
     0
 42
0.000000001
 43
0.00000001
 40
0.0
 40
0.0
 40
0.0
 40
0.0
 40
0.064619991340761
 40
0.1274334841444645
 40
0.1890041265579311
 40
0.2499300706860425
 40
0.3106684537406676
 40
0.3723289611368266
 40
0.4349391099970014
 40
0.499575544194036
 40
0.5641912077719241
 40
0.6267352169294735
 40
0.6881093335614029
 40
0.7492936065367486
 40
0.8103305278109467
 40
0.8719011702244154
 40
0.9350459146845301
 40
0.9999999999999999
 40
0.9999999999999999
 40
0.9999999999999999
 40
0.9999999999999999
 10
140.2585837339743
 20
9.959294871794864
 30
0.0
 10
140.2176099472834
 20
9.960407366639025
 30
0.0
 10
140.1368078257064
 20
9.962601255730348
 30
0.0
 10
140.0179457343018
 20
9.979621345441211
 30
0.0
 10
139.9035620508698
 20
10.0069541236451
 30
0.0
 10
139.7935486885266
 20
10.04496421625548
 30
0.0
 10
139.6886175280256
 20
10.0953839615987
 30
0.0
 10
139.5878701546158
 20
10.15574637946483
 30
0.0
 10
139.4918284982841
 20
10.22762913246659
 30
0.0
 10
139.401956459367
 20
10.30980541532954
 30
0.0
 10
139.3191960018831
 20
10.39906372513182
 30
0.0
 10
139.2465689902901
 20
10.49426432836857
 30
0.0
 10
139.1860144107076
 20
10.59499556118545
 30
0.0
 10
139.1353776232089
 20
10.69998206507024
 30
0.0
 10
139.0963737964661
 20
10.81003202779038
 30
0.0
 10
139.0691834282465
 20
10.92476488727862
 30
0.0
 10
139.0521831658824
 20
11.04404498684691
 30
0.0
 10
139.0499901836896
 20
11.12527012565507
 30
0.0
 10
139.0488782051282
 20
11.1664563301282
 30
0.0
  0
SPLINE
  5
83
330
1F
100
AcDbEntity
  8
0
  6
Continuous
 62
     7
370
    15
100
AcDbSpline
210
0.0
220
0.0
230
1.0
 70
     8
 71
     3
 72
    23
 73
    19
 74
     0
 42
0.000000001
 43
0.00000001
 40
0.0
 40
0.0
 40
0.0
 40
0.0
 40
0.0637745323056313
 40
0.1260788099895049
 40
0.1869040927472075
 40
0.2475739349176177
 40
0.3080033561644466
 40
0.3691318984609751
 40
0.4320332277442041
 40
0.4967907944370878
 40
0.5616108232295591
 40
0.6249138657484554
 40
0.686726349241924
 40
0.748078833257768
 40
0.8095822911398951
 40
0.8716307425688211
 40
0.9348858208285478
 40
1.0
 40
1.0
 40
1.0
 40
1.0
 10
139.0488782051282
 20
11.1664563301282
 30
0.0
 10
139.0500148291702
 20
11.20679126122332
 30
0.0
 10
139.052261873585
 20
11.28653124409157
 30
0.0
 10
139.0690015801543
 20
11.40380549155018
 30
0.0
 10
139.0971511380095
 20
11.51676134235819
 30
0.0
 10
139.1366552569635
 20
11.62503514085403
 30
0.0
 10
139.1873118875372
 20
11.72875790063167
 30
0.0
 10
139.2489323664776
 20
11.82800298046666
 30
0.0
 10
139.3215211438829
 20
11.9230437910215
 30
0.0
 10
139.4052072559621
 20
12.01164554677854
 30
0.0
 10
139.4958623688952
 20
12.09348853258004
 30
0.0
 10
139.5928438605114
 20
12.16461673808857
 30
0.0
 10
139.6937392657096
 20
12.22604559380023
 30
0.0
 10
139.800113568112
 20
12.27471696159244
 30
0.0
 10
139.9103922989076
 20
12.3140952207149
 30
0.0
 10
140.0255572104069
 20
12.34133941320609
 30
0.0
 10
140.1451291424911
 20
12.35739341175952
 30
0.0
 10
140.2263098031498
 20
12.35971820495372
 30
0.0
 10
140.2674879807693
 20
12.36089743589743
 30
0.0
  0
SPLINE
  5
84
330
1F
100
AcDbEntity
  8
0
  6
Continuous
 62
     7
370
    15
100
AcDbSpline
210
0.0
220
0.0
230
1.0
 70
     8
 71
     3
 72
    15
 73
    11
 74
     0
 42
0.000000001
 43
0.00000001
 40
0.0
 40
0.0
 40
0.0
 40
0.0
 40
0.1298621417207361
 40
0.2546535308972849
 40
0.3760145541937066
 40
0.4952552518175969
 40
0.6147977192994417
 40
0.7381055541683285
 40
0.8651963000723482
 40
1.0
 40
1.0
 40
1.0
 40
1.0
 10
140.2674879807692
 20
12.36089743589743
 30
0.0
 10
140.3148407100621
 20
12.35959318985589
 30
0.0
 10
140.40769717733
 20
12.35703562492405
 30
0.0
 10
140.5435218714507
 20
12.33575157942754
 30
0.0
 10
140.6720136478345
 20
12.29979382707993
 30
0.0
 10
140.7941643814619
 20
12.2508829538729
 30
0.0
 10
140.9095354324193
 20
12.18588732106286
 30
0.0
 10
141.0170345681916
 20
12.10389978499144
 30
0.0
 10
141.1177868280494
 20
12.00543742252566
 30
0.0
 10
141.1761889497689
 20
11.92980851932858
 30
0.0
 10
141.20625
 20
11.89088040865384
 30
0.0
  0
LINE
  5
85
330
1F
100
AcDbEntity
  8
0
  6
Continuous
 62
     7
370
    15
100
AcDbLine
 10
128.0991987179
 20
12.3201923077
 30
0.0
 11
128.50625
 21
12.3201923077
 31
0.0
  0
LINE
  5
86
330
1F
100
AcDbEntity
  8
0
  6
Continuous
 62
     7
370
    15
100
AcDbLine
 10
128.50625
 20
12.3201923077
 30
0.0
 11
128.50625
 21
13.2564102564
 31
0.0
  0
LINE
  5
87
330
1F
100
AcDbEntity
  8
0
  6
Continuous
 62
     7
370
    15
100
AcDbLine
 10
128.50625
 20
13.2564102564
 30
0.0
 11
128.7911858974
 21
13.2564102564
 31
0.0
  0
LINE
  5
88
330
1F
100
AcDbEntity
  8
0
  6
Continuous
 62
     7
370
    15
100
AcDbLine
 10
128.7911858974
 20
13.2564102564
 30
0.0
 11
128.7911858974
 21
12.3201923077
 31
0.0
  0
LINE
  5
89
330
1F
100
AcDbEntity
  8
0
  6
Continuous
 62
     7
370
    15
100
AcDbLine
 10
128.7911858974
 20
12.3201923077
 30
0.0
 11
129.1982371795
 21
12.3201923077
 31
0.0
  0
LINE
  5
8A
330
1F
100
AcDbEntity
  8
0
  6
Continuous
 62
     7
370
    15
100
AcDbLine
 10
129.1982371795
 20
12.3201923077
 30
0.0
 11
129.1982371795
 21
12.0352564103
 31
0.0
  0
LINE
  5
8B
330
1F
100
AcDbEntity
  8
0
  6
Continuous
 62
     7
370
    15
100
AcDbLine
 10
129.1982371795
 20
12.0352564103
 30
0.0
 11
128.7911858974
 21
12.0352564103
 31
0.0
  0
LINE
  5
8C
330
1F
100
AcDbEntity
  8
0
  6
Continuous
 62
     7
370
    15
100
AcDbLine
 10
128.7911858974
 20
12.0352564103
 30
0.0
 11
128.7911858974
 21
10.0
 31
0.0
  0
LINE
  5
8D
330
1F
100
AcDbEntity
  8
0
  6
Continuous
 62
     7
370
    15
100
AcDbLine
 10
128.7911858974
 20
10.0
 30
0.0
 11
128.50625
 21
10.0
 31
0.0
  0
LINE
  5
8E
330
1F
100
AcDbEntity
  8
0
  6
Continuous
 62
     7
370
    15
100
AcDbLine
 10
128.50625
 20
10.0
 30
0.0
 11
128.50625
 21
12.0352564103
 31
0.0
  0
LINE
  5
8F
330
1F
100
AcDbEntity
  8
0
  6
Continuous
 62
     7
370
    15
100
AcDbLine
 10
128.50625
 20
12.0352564103
 30
0.0
 11
128.0991987179
 21
12.0352564103
 31
0.0
  0
LINE
  5
90
330
1F
100
AcDbEntity
  8
0
  6
Continuous
 62
     7
370
    15
100
AcDbLine
 10
128.0991987179
 20
12.0352564103
 30
0.0
 11
128.0991987179
 21
12.3201923077
 31
0.0
  0
SPLINE
  5
91
330
1F
100
AcDbEntity
  8
0
  6
Continuous
 62
     7
370
    15
100
AcDbSpline
210
0.0
220
0.0
230
1.0
 70
     8
 71
     3
 72
    31
 73
    27
 74
     0
 42
0.000000001
 43
0.00000001
 40
0.0
 40
0.0
 40
0.0
 40
0.0
 40
0.045151678804773
 40
0.0887272521645368
 40
0.1305341108247571
 40
0.1710707458966378
 40
0.2100958400813077
 40
0.2477692374166756
 40
0.2848493643644425
 40
0.3209855015160399
 40
0.3563873757532778
 40
0.3915492787874555
 40
0.4261913606636696
 40
0.4605110592984603
 40
0.4949714404811234
 40
0.529533625079614
 40
0.5645757480731516
 40
0.6000961892387685
 40
0.6375349450701501
 40
0.6782134162474353
 40
0.7225827429711688
 40
0.7701823039810382
 40
0.8218792822902018
 40
0.8770670125167512
 40
0.9365240376354077
 40
1.0
 40
1.0
 40
1.0
 40
1.0
 10
126.5339593349359
 20
9.959294871794862
 30
0.0
 10
126.5057503542896
 20
9.959603034704502
 30
0.0
 10
126.450317081256
 20
9.960208603509807
 30
0.0
 10
126.3689724525341
 20
9.966687243346033
 30
0.0
 10
126.2910047882513
 20
9.977398941018084
 30
0.0
 10
126.2166912838808
 20
9.992689031072935
 30
0.0
 10
126.1459573663209
 20
10.01177447308502
 30
0.0
 10
126.0785165201493
 20
10.03445625168852
 30
0.0
 10
126.0151584308549
 20
10.06265068870989
 30
0.0
 10
125.9551218986558
 20
10.09438033012788
 30
0.0
 10
125.8988768750592
 20
10.1302716871106
 30
0.0
 10
125.8461640935204
 20
10.16961269448474
 30
0.0
 10
125.7970542344306
 20
10.21234462311958
 30
0.0
 10
125.7515364655938
 20
10.25828901139178
 30
0.0
 10
125.7102496939736
 20
10.30801580367003
 30
0.0
 10
125.6726794275876
 20
10.36112499049361
 30
0.0
 10
125.6382472736213
 20
10.41709034229317
 30
0.0
 10
125.607084385228
 20
10.47701906823786
 30
0.0
 10
125.5803130069854
 20
10.5428522485317
 30
0.0
 10
125.5566771767763
 20
10.61569318660859
 30
0.0
 10
125.5373453833868
 20
10.69634046971395
 30
0.0
 10
125.5216132870885
 20
10.78472514766421
 30
0.0
 10
125.5089573373923
 20
10.88042422112515
 30
0.0
 10
125.5001706226711
 20
10.98399128357014
 30
0.0
 10
125.4952576904828
 20
11.09517406144085
 30
0.0
 10
125.4944747704738
 20
11.17196360455045
 30
0.0
 10
125.4940705128205
 20
11.21161358173076
 30
0.0
  0
LINE
  5
92
330
1F
100
AcDbEntity
  8
0
  6
Continuous
 62
     7
370
    15
100
AcDbLine
 10
125.4940705128
 20
11.2116135817
 30
0.0
 11
125.4940705128
 21
12.3201923077
 31
0.0
  0
LINE
  5
93
330
1F
100
AcDbEntity
  8
0
  6
Continuous
 62
     7
370
    15
100
AcDbLine
 10
125.4940705128
 20
12.3201923077
 30
0.0
 11
125.7790064103
 21
12.3201923077
 31
0.0
  0
LINE
  5
94
330
1F
100
AcDbEntity
  8
0
  6
Continuous
 62
     7
370
    15
100
AcDbLine
 10
125.7790064103
 20
12.3201923077
 30
0.0
 11
125.7790064103
 21
11.2440504808
 31
0.0
  0
SPLINE
  5
95
330
1F
100
AcDbEntity
  8
0
  6
Continuous
 62
     7
370
    15
100
AcDbSpline
210
0.0
220
0.0
230
1.0
 70
     8
 71
     3
 72
    15
 73
    11
 74
     0
 42
0.000000001
 43
0.00000001
 40
0.0
 40
0.0
 40
0.0
 40
0.0
 40
0.1736165757486458
 40
0.3321203769788984
 40
0.4779362767239387
 40
0.6099318098113821
 40
0.7270315210379712
 40
0.831671422751304
 40
0.9217154761224238
 40
1.0
 40
1.0
 40
1.0
 40
1.0
 10
125.7790064102564
 20
11.24405048076922
 30
0.0
 10
125.7791351382742
 20
11.21246127258286
 30
0.0
 10
125.7793813889423
 20
11.15203259700231
 30
0.0
 10
125.7810513853611
 20
11.06507824901612
 30
0.0
 10
125.784979398868
 20
10.98577880254301
 30
0.0
 10
125.789890511106
 20
10.91408844848558
 30
0.0
 10
125.7962061631484
 20
10.85001931468582
 30
0.0
 10
125.8037203544609
 20
10.79379518366404
 30
0.0
 10
125.8121190655069
 20
10.74477845954851
 30
0.0
 10
125.8203402417471
 20
10.71525698687046
 30
0.0
 10
125.824163661859
 20
10.70152744391025
 30
0.0
  0
SPLINE
  5
96
330
1F
100
AcDbEntity
  8
0
  6
Continuous
 62
     7
370
    15
100
AcDbSpline
210
0.0
220
0.0
230
1.0
 70
     8
 71
     3
 72
    19
 73
    15
 74
     0
 42
0.000000001
 43
0.00000001
 40
0.0
 40
0.0
 40
0.0
 40
0.0
 40
0.0604867187842427
 40
0.1197159334052984
 40
0.1780861642555829
 40
0.235971321367695
 40
0.2946097683616176
 40
0.3535360182612614
 40
0.4131613089451976
 40
0.4745453087944114
 40
0.5992335172031904
 40
0.7270292124547166
 40
0.8596954264724357
 40
1.0
 40
1.0
 40
1.0
 40
1.0
 10
125.824163661859
 20
10.70152744391025
 30
0.0
 10
125.8302972674765
 20
10.68427098238423
 30
0.0
 10
125.8424369625434
 20
10.65011681696769
 30
0.0
 10
125.8644564799481
 20
10.60077821940464
 30
0.0
 10
125.8916964709836
 20
10.55508064177317
 30
0.0
 10
125.9215050291253
 20
10.51126194723151
 30
0.0
 10
125.9558852060296
 20
10.47062014484348
 30
0.0
 10
125.9944020119724
 20
10.43322386667464
 30
0.0
 10
126.0357661269783
 20
10.39766015533322
 30
0.0
 10
126.0972296124645
 20
10.35558252262184
 30
0.0
 10
126.1812848037507
 20
10.3104836159768
 30
0.0
 10
126.2916412317968
 20
10.27157098074199
 30
0.0
 10
126.4112972081474
 20
10.2483156297147
 30
0.0
 10
126.4939966320719
 20
10.24561755552896
 30
0.0
 10
126.5365034054487
 20
10.24423076923076
 30
0.0
  0
SPLINE
  5
97
330
1F
100
AcDbEntity
  8
0
  6
Continuous
 62
     7
370
    15
100
AcDbSpline
210
0.0
220
0.0
230
1.0
 70
     8
 71
     3
 72
    15
 73
    11
 74
     0
 42
0.000000001
 43
0.00000001
 40
0.0
 40
0.0
 40
0.0
 40
0.0
 40
0.1446324159930445
 40
0.2798369641781411
 40
0.4083713118091072
 40
0.533042869603483
 40
0.6535963008637333
 40
0.7700157379356676
 40
0.8843394719004963
 40
1.0
 40
1.0
 40
1.0
 40
1.0
 10
126.5365034054488
 20
10.24423076923076
 30
0.0
 10
126.5790062303072
 20
10.24564704474477
 30
0.0
 10
126.6612413322774
 20
10.24838727581646
 30
0.0
 10
126.7795826258272
 20
10.2708694858423
 30
0.0
 10
126.8877606946286
 20
10.30843036088011
 30
0.0
 10
126.9846897718855
 20
10.36086994156853
 30
0.0
 10
127.0699302125985
 20
10.42504309856136
 30
0.0
 10
127.1409635067642
 20
10.50034394646538
 30
0.0
 10
127.1995715162441
 20
10.58439017599153
 30
0.0
 10
127.225161490685
 20
10.64709577180412
 30
0.0
 10
127.238030849359
 20
10.67863080929486
 30
0.0
  0
SPLINE
  5
98
330
1F
100
AcDbEntity
  8
0
  6
Continuous
 62
     7
370
    15
100
AcDbSpline
210
0.0
220
0.0
230
1.0
 70
     8
 71
     3
 72
    15
 73
    11
 74
     0
 42
0.000000001
 43
0.00000001
 40
0.0
 40
0.0
 40
0.0
 40
0.0
 40
0.0696927557420228
 40
0.1540736621798004
 40
0.2545914510459067
 40
0.3714654144289971
 40
0.5047545659520454
 40
0.6534942950018611
 40
0.8189527408800031
 40
1.0
 40
1.0
 40
1.0
 40
1.0
 10
127.238030849359
 20
10.67863080929486
 30
0.0
 10
127.2418356152062
 20
10.69130023736441
 30
0.0
 10
127.2502470232726
 20
10.71930924862556
 30
0.0
 10
127.2592842992871
 20
10.76682516323068
 30
0.0
 10
127.2674254180201
 20
10.82348948308242
 30
0.0
 10
127.2743770135233
 20
10.88967300094775
 30
0.0
 10
127.2793346967538
 20
10.96520276067511
 30
0.0
 10
127.2820071637348
 20
11.05005515832198
 30
0.0
 10
127.2850263848246
 20
11.14396382075876
 30
0.0
 10
127.2850722102974
 20
11.20970243099632
 30
0.0
 10
127.2850961538462
 20
11.24405048076922
 30
0.0
  0
LINE
  5
99
330
1F
100
AcDbEntity
  8
0
  6
Continuous
 62
     7
370
    15
100
AcDbLine
 10
127.2850961538
 20
11.2440504808
 30
0.0
 11
127.2850961538
 21
12.3201923077
 31
0.0
  0
LINE
  5
9A
330
1F
100
AcDbEntity
  8
0
  6
Continuous
 62
     7
370
    15
100
AcDbLine
 10
127.2850961538
 20
12.3201923077
 30
0.0
 11
127.5700320513
 21
12.3201923077
 31
0.0
  0
LINE
  5
9B
330
1F
100
AcDbEntity
  8
0
  6
Continuous
 62
     7
370
    15
100
AcDbLine
 10
127.5700320513
 20
12.3201923077
 30
0.0
 11
127.5700320513
 21
11.190625
 31
0.0
  0
SPLINE
  5
9C
330
1F
100
AcDbEntity
  8
0
  6
Continuous
 62
     7
370
    15
100
AcDbSpline
210
0.0
220
0.0
230
1.0
 70
     8
 71
     3
 72
    31
 73
    27
 74
     0
 42
0.000000001
 43
0.00000001
 40
0.0
 40
0.0
 40
0.0
 40
0.0
 40
0.0622100326824418
 40
0.1206959731983287
 40
0.1755484638831969
 40
0.2261906127214153
 40
0.2737107306295714
 40
0.3173020717741407
 40
0.3578372980216221
 40
0.3954278376537074
 40
0.431088526844937
 40
0.4660974733410742
 40
0.5010152197637684
 40
0.5354236135188859
 40
0.5701735381629585
 40
0.604765070383391
 40
0.6400930345425708
 40
0.6759387007616748
 40
0.712224790187649
 40
0.7494554524110953
 40
0.7876011171624495
 40
0.8267837743908796
 40
0.8678285699487329
 40
0.9101595124056494
 40
0.9539387393934073
 40
1.0
 40
1.0
 40
1.0
 40
1.0
 10
127.5700320512821
 20
11.19062499999999
 30
0.0
 10
127.5696313709827
 20
11.15224635161279
 30
0.0
 10
127.5688539963923
 20
11.07778652387448
 30
0.0
 10
127.5638580490873
 20
10.96957879414592
 30
0.0
 10
127.5552859004698
 20
10.86873875771558
 30
0.0
 10
127.5422750362421
 20
10.77521303683605
 30
0.0
 10
127.5269754599711
 20
10.68907303554671
 30
0.0
 10
127.5072394123708
 20
10.61020835242508
 30
0.0
 10
127.483673439555
 20
10.53886197133769
 30
0.0
 10
127.4570891509629
 20
10.47378193084523
 30
0.0
 10
127.4256821711368
 20
10.41477510539503
 30
0.0
 10
127.3922748025186
 20
10.35877190032455
 30
0.0
 10
127.353698759499
 20
10.30716188055665
 30
0.0
 10
127.3130857612768
 20
10.25737594182523
 30
0.0
 10
127.2679085448785
 20
10.21189041339743
 30
0.0
 10
127.2190136728201
 20
10.16966157457881
 30
0.0
 10
127.1670893419676
 20
10.13004389575629
 30
0.0
 10
127.1109832837842
 20
10.09458252089324
 30
0.0
 10
127.0515145695629
 20
10.06263599262111
 30
0.0
 10
126.9886097849778
 20
10.03431855032438
 30
0.0
 10
126.9214984508919
 20
10.01190978398756
 30
0.0
 10
126.8510464373437
 20
9.992577965781408
 30
0.0
 10
126.776908573244
 20
9.977415554491333
 30
0.0
 10
126.6991563311056
 20
9.966723454651666
 30
0.0
 10
126.6178159006236
 20
9.96016904731365
 30
0.0
 10
126.5623808907794
 20
9.959591156625047
 30
0.0
 10
126.5339593349359
 20
9.959294871794864
 30
0.0
  0
SPLINE
  5
9D
330
1F
100
AcDbEntity
  8
0
  6
Continuous
 62
     7
370
    15
100
AcDbSpline
210
0.0
220
0.0
230
1.0
 70
     8
 71
     3
 72
    23
 73
    19
 74
     0
 42
0.000000001
 43
0.00000001
 40
0.0
 40
0.0
 40
0.0
 40
0.0
 40
0.0658188768433055
 40
0.1297465269068271
 40
0.192071954488003
 40
0.2534594242982005
 40
0.3145695877964187
 40
0.3762798811880235
 40
0.4390256536685598
 40
0.5032670288290844
 40
0.5674928228792947
 40
0.6297047956052437
 40
0.6909996492157539
 40
0.7514516509174467
 40
0.8120043642646941
 40
0.8731496810680426
 40
0.9356354837317851
 40
1.0
 40
1.0
 40
1.0
 40
1.0
 10
123.3010817307692
 20
9.918589743589735
 30
0.0
 10
123.2435468128377
 20
9.919995258807557
 30
0.0
 10
123.1301301740937
 20
9.922765903442846
 30
0.0
 10
122.9636358634277
 20
9.946516177798987
 30
0.0
 10
122.803726767223
 20
9.983655789104374
 30
0.0
 10
122.6508601771946
 20
10.03673220624548
 30
0.0
 10
122.5049508482017
 20
10.10532783697445
 30
0.0
 10
122.3657134160431
 20
10.18897038084057
 30
0.0
 10
122.2337067610453
 20
10.28821828748299
 30
0.0
 10
122.1100253195915
 20
10.40085510871003
 30
0.0
 10
121.996859975526
 20
10.52347501661007
 30
0.0
 10
121.8981996847188
 20
10.65486037657386
 30
0.0
 10
121.8145383319221
 20
10.79243354081472
 30
0.0
 10
121.7461730231586
 20
10.93657629483123
 30
0.0
 10
121.6920488350388
 20
11.08659181785355
 30
0.0
 10
121.6551237500125
 20
11.24348079386184
 30
0.0
 10
121.6312332792073
 20
11.40634877413668
 30
0.0
 10
121.6284802398988
 20
11.51724054618892
 30
0.0
 10
121.6270833333333
 20
11.57350761217948
 30
0.0
  0
SPLINE
  5
9E
330
1F
100
AcDbEntity
  8
0
  6
Continuous
 62
     7
370
    15
100
AcDbSpline
210
0.0
220
0.0
230
1.0
 70
     8
 71
     3
 72
    31
 73
    27
 74
     0
 42
0.000000001
 43
0.00000001
 40
0.0
 40
0.0
 40
0.0
 40
0.0
 40
0.0432089861713361
 40
0.085872871630618
 40
0.1281200066967022
 40
0.1701519644541984
 40
0.211917620987861
 40
0.2537530026191239
 40
0.2960064088559496
 40
0.3384433571447835
 40
0.3810153681620316
 40
0.4228204794407588
 40
0.4640890557943142
 40
0.5051258486836846
 40
0.5459749706852398
 40
0.5869852111338577
 40
0.6283385916346619
 40
0.6700838015912057
 40
0.7119916023637218
 40
0.753039154863017
 40
0.7940493953116357
 40
0.8348855427015821
 40
0.8754983129295091
 40
0.9165472998303774
 40
0.9580037786449587
 40
0.9999999999999999
 40
0.9999999999999999
 40
0.9999999999999999
 40
0.9999999999999999
 10
121.6270833333333
 20
11.57350761217948
 30
0.0
 10
121.627568324113
 20
11.61127439061059
 30
0.0
 10
121.6285321872963
 20
11.68633150264873
 30
0.0
 10
121.6401360797501
 20
11.79778906135835
 30
0.0
 10
121.6569741944163
 20
11.90745415804698
 30
0.0
 10
121.6811059293718
 20
12.01501494655747
 30
0.0
 10
121.7126669415667
 20
12.12020812553741
 30
0.0
 10
121.749906994985
 20
12.22375917468181
 30
0.0
 10
121.7953909975593
 20
12.32461869550801
 30
0.0
 10
121.846808442566
 20
12.42326448656025
 30
0.0
 10
121.9041959398438
 20
12.51815880114031
 30
0.0
 10
121.9675832268467
 20
12.60785670871312
 30
0.0
 10
122.0347438825283
 20
12.69311089865129
 30
0.0
 10
122.1083706753194
 20
12.77171210927672
 30
0.0
 10
122.1860370220325
 20
12.84594692614472
 30
0.0
 10
122.2690028364828
 20
12.91467453372736
 30
0.0
 10
122.356761872443
 20
12.97851466780936
 30
0.0
 10
122.449691745516
 20
13.03604597721804
 30
0.0
 10
122.5455026091568
 20
13.08807890647669
 30
0.0
 10
122.6442694004281
 20
13.13273015701104
 30
0.0
 10
122.7446507188654
 20
13.17105336995275
 30
0.0
 10
122.847116720912
 20
13.20211468995291
 30
0.0
 10
122.9513953070135
 20
13.22663660831709
 30
0.0
 10
123.0577140687332
 20
13.24333470775297
 30
0.0
 10
123.1659883054295
 20
13.25496819612233
 30
0.0
 10
123.2389328590484
 20
13.25592750149835
 30
0.0
 10
123.275641025641
 20
13.25641025641025
 30
0.0
  0
SPLINE
  5
9F
330
1F
100
AcDbEntity
  8
0
  6
Continuous
 62
     7
370
    15
100
AcDbSpline
210
0.0
220
0.0
230
1.0
 70
     8
 71
     3
 72
    23
 73
    19
 74
     0
 42
0.000000001
 43
0.00000001
 40
0.0
 40
0.0
 40
0.0
 40
0.0
 40
0.0665700352151785
 40
0.1307490414821748
 40
0.1934128000295041
 40
0.2549893988897062
 40
0.3161135558759004
 40
0.3772617579089825
 40
0.4394007841555531
 40
0.5029705893719745
 40
0.566524976360731
 40
0.6282311025133076
 40
0.6890906105998637
 40
0.7493446689958043
 40
0.8101695933722055
 40
0.8716098243170429
 40
0.9348691840727639
 40
1.0
 40
1.0
 40
1.0
 40
1.0
 10
123.275641025641
 20
13.25641025641025
 30
0.0
 10
123.3344312360004
 20
13.25492120012364
 30
0.0
 10
123.4499000595962
 20
13.25199657072307
 30
0.0
 10
123.6196037168173
 20
13.22960909821213
 30
0.0
 10
123.7816149818255
 20
13.19087828017057
 30
0.0
 10
123.9372536077385
 20
13.13929543177733
 30
0.0
 10
124.0846579507692
 20
13.07048466789621
 30
0.0
 10
124.2249375175284
 20
12.98731314047391
 30
0.0
 10
124.3577585387845
 20
12.88890949574322
 30
0.0
 10
124.4813307920281
 20
12.77603441138496
 30
0.0
 10
124.5944124540707
 20
12.65322227820284
 30
0.0
 10
124.6940402223293
 20
12.52216017406525
 30
0.0
 10
124.7775357316431
 20
12.38364054625849
 30
0.0
 10
124.8461028385716
 20
12.23807964989065
 30
0.0
 10
124.8998951487938
 20
12.08580667894221
 30
0.0
 10
124.9370145669988
 20
11.92600983359825
 30
0.0
 10
124.960725603209
 20
11.75972447903289
 30
0.0
 10
124.9634976298573
 20
11.64630725174777
 30
0.0
 10
124.9649038461538
 20
11.5887720352564
 30
0.0
  0
SPLINE
  5
A0
330
1F
100
AcDbEntity
  8
0
  6
Continuous
 62
     7
370
    15
100
AcDbSpline
210
0.0
220
0.0
230
1.0
 70
     8
 71
     3
 72
    23
 73
    19
 74
     0
 42
0.000000001
 43
0.00000001
 40
0.0
 40
0.0
 40
0.0
 40
0.0
 40
0.0652265038922757
 40
0.128568995706729
 40
0.1903203781044676
 40
0.2513779886240629
 40
0.3123875283336933
 40
0.3737887042767238
 40
0.4364311597804488
 40
0.5005667553098506
 40
0.5646867953847432
 40
0.6271355178835117
 40
0.6884554088949785
 40
0.7492457464637468
 40
0.8101551773646752
 40
0.8716709256529189
 40
0.9347734961077244
 40
1.0
 40
1.0
 40
1.0
 40
1.0
 10
124.9649038461538
 20
11.5887720352564
 30
0.0
 10
124.9634978359356
 20
11.53166063749009
 30
0.0
 10
124.9607264269081
 20
11.41908745609823
 30
0.0
 10
124.9369876072865
 20
11.25385733174337
 30
0.0
 10
124.8997575573101
 20
11.09502505707735
 30
0.0
 10
124.8466023729873
 20
10.94285578634581
 30
0.0
 10
124.7783621175242
 20
10.79718899635898
 30
0.0
 10
124.6943106408554
 20
10.65840797390901
 30
0.0
 10
124.5953039711108
 20
10.52646722180179
 30
0.0
 10
124.4826306133876
 20
10.40281216120602
 30
0.0
 10
124.3598025252749
 20
10.2894215985054
 30
0.0
 10
124.2280579260982
 20
10.19061661842091
 30
0.0
 10
124.090359700169
 20
10.10559544824907
 30
0.0
 10
123.9449358934815
 20
10.03775597258061
 30
0.0
 10
123.793715145789
 20
9.983534301891135
 30
0.0
 10
123.6353440384158
 20
9.946565844648386
 30
0.0
 10
123.4705646643935
 20
9.922719741126869
 30
0.0
 10
123.3581959680868
 20
9.919981515931724
 30
0.0
 10
123.3010817307692
 20
9.918589743589735
 30
0.0
  0
LINE
  5
A1
330
1F
100
AcDbEntity
  8
0
  6
Continuous
 62
     7
370
    15
100
AcDbLine
 10
115.1142628205
 20
10.0
 30
0.0
 11
114.8293269231
 21
10.0
 31
0.0
  0
LINE
  5
A2
330
1F
100
AcDbEntity
  8
0
  6
Continuous
 62
     7
370
    15
100
AcDbLine
 10
114.8293269231
 20
10.0
 30
0.0
 11
114.8293269231
 21
12.3201923077
 31
0.0
  0
LINE
  5
A3
330
1F
100
AcDbEntity
  8
0
  6
Continuous
 62
     7
370
    15
100
AcDbLine
 10
114.8293269231
 20
12.3201923077
 30
0.0
 11
115.1142628205
 21
12.3201923077
 31
0.0
  0
LINE
  5
A4
330
1F
100
AcDbEntity
  8
0
  6
Continuous
 62
     7
370
    15
100
AcDbLine
 10
115.1142628205
 20
12.3201923077
 30
0.0
 11
115.1142628205
 21
11.9016927083
 31
0.0
  0
SPLINE
  5
A5
330
1F
100
AcDbEntity
  8
0
  6
Continuous
 62
     7
370
    15
100
AcDbSpline
210
0.0
220
0.0
230
1.0
 70
     8
 71
     3
 72
    15
 73
    11
 74
     0
 42
0.000000001
 43
0.00000001
 40
0.0
 40
0.0
 40
0.0
 40
0.0
 40
0.1409759662687707
 40
0.2735687809631759
 40
0.3989883138042535
 40
0.519929781392431
 40
0.638110021524754
 40
0.7565889007405964
 40
0.8768597544106093
 40
1.0
 40
1.0
 40
1.0
 40
1.0
 10
115.1142628205128
 20
11.90169270833333
 30
0.0
 10
115.1446862466683
 20
11.93965003547888
 30
0.0
 10
115.2037239665462
 20
12.0133075530733
 30
0.0
 10
115.3020440403033
 20
12.11011835999565
 30
0.0
 10
115.4059517213102
 20
12.18989724271485
 30
0.0
 10
115.5148106816165
 20
12.25349139865006
 30
0.0
 10
115.6287686979214
 20
12.30143083808491
 30
0.0
 10
115.7471311285307
 20
12.33605278985549
 30
0.0
 10
115.8706066119104
 20
12.35681259860214
 30
0.0
 10
115.9545757796457
 20
12.35952516465957
 30
0.0
 10
115.9970552884615
 20
12.36089743589743
 30
0.0
  0
SPLINE
  5
A6
330
1F
100
AcDbEntity
  8
0
  6
Continuous
 62
     7
370
    15
100
AcDbSpline
210
0.0
220
0.0
230
1.0
 70
     8
 71
     3
 72
    23
 73
    19
 74
     0
 42
0.000000001
 43
0.00000001
 40
0.0
 40
0.0
 40
0.0
 40
0.0
 40
0.0772404236164825
 40
0.1511781404663827
 40
0.2234879838004036
 40
0.2955426441988709
 40
0.3669762546197929
 40
0.4371305254863884
 40
0.5070436156432694
 40
0.5785597335236775
 40
0.6166135446965532
 40
0.6587562369775294
 40
0.704491226114404
 40
0.7548031149051501
 40
0.8093316253185657
 40
0.8682744554728212
 40
0.9320728834092935
 40
1.0
 40
1.0
 40
1.0
 40
1.0
 10
115.9970552884615
 20
12.36089743589743
 30
0.0
 10
116.0399909351244
 20
12.35931429431863
 30
0.0
 10
116.1240263523101
 20
12.35621570437347
 30
0.0
 10
116.2463800222781
 20
12.33170770600845
 30
0.0
 10
116.3606558865512
 20
12.28984736743109
 30
0.0
 10
116.4664464835874
 20
12.23250498927975
 30
0.0
 10
116.5618118842807
 20
12.1611976884063
 30
0.0
 10
116.6455637138341
 20
12.0781235578105
 30
0.0
 10
116.7148360882409
 20
11.98256868230391
 30
0.0
 10
116.7612794103907
 20
11.89391981914642
 30
0.0
 10
116.791873390796
 20
11.81528069862752
 30
0.0
 10
116.8111341541122
 20
11.74792828960929
 30
0.0
 10
116.8274908301503
 20
11.6728911096202
 30
0.0
 10
116.8416710587092
 20
11.590395910978
 30
0.0
 10
116.851266010189
 20
11.49986469553478
 30
0.0
 10
116.8588336603637
 20
11.40166857488677
 30
0.0
 10
116.8642571901824
 20
11.29583935650864
 30
0.0
 10
116.8644723708061
 20
11.22264505878682
 30
0.0
 10
116.8645833333333
 20
11.18490084134615
 30
0.0
  0
LINE
  5
A7
330
1F
100
AcDbEntity
  8
0
  6
Continuous
 62
     7
370
    15
100
AcDbLine
 10
116.8645833333
 20
11.1849008413
 30
0.0
 11
116.8645833333
 21
10.0
 31
0.0
  0
LINE
  5
A8
330
1F
100
AcDbEntity
  8
0
  6
Continuous
 62
     7
370
    15
100
AcDbLine
 10
116.8645833333
 20
10.0
 30
0.0
 11
116.5796474359
 21
10.0
 31
0.0
  0
LINE
  5
A9
330
1F
100
AcDbEntity
  8
0
  6
Continuous
 62
     7
370
    15
100
AcDbLine
 10
116.5796474359
 20
10.0
 30
0.0
 11
116.5796474359
 21
11.09140625
 31
0.0
  0
SPLINE
  5
AA
330
1F
100
AcDbEntity
  8
0
  6
Continuous
 62
     7
370
    15
100
AcDbSpline
210
0.0
220
0.0
230
1.0
 70
     8
 71
     3
 72
    15
 73
    11
 74
     0
 42
0.000000001
 43
0.00000001
 40
0.0
 40
0.0
 40
0.0
 40
0.0
 40
0.1788500194111608
 40
0.3421096489423008
 40
0.4898256633683922
 40
0.6232544282245651
 40
0.7400796760857957
 40
0.8414826730699845
 40
0.9289076721840664
 40
1.0
 40
1.0
 40
1.0
 40
1.0
 10
116.5796474358974
 20
11.09140624999999
 30
0.0
 10
116.5794721686231
 20
11.12299518218537
 30
0.0
 10
116.5791369121558
 20
11.18341943338747
 30
0.0
 10
116.5780795040918
 20
11.26993276156727
 30
0.0
 10
116.5755306081021
 20
11.34838844340408
 30
0.0
 10
116.5719489242425
 20
11.41859891240757
 30
0.0
 10
116.5667065179768
 20
11.48049674986147
 30
0.0
 10
116.5612431309663
 20
11.5342080223314
 30
0.0
 10
116.5545620448719
 20
11.57966453582402
 30
0.0
 10
116.5486085450975
 20
11.607028574843
 30
0.0
 10
116.5459385016025
 20
11.61930088141025
 30
0.0
  0
SPLINE
  5
AB
330
1F
100
AcDbEntity
  8
0
  6
Continuous
 62
     7
370
    15
100
AcDbSpline
210
0.0
220
0.0
230
1.0
 70
     8
 71
     3
 72
    15
 73
    11
 74
     0
 42
0.000000001
 43
0.00000001
 40
0.0
 40
0.0
 40
0.0
 40
0.0
 40
0.1355195283706071
 40
0.2608331631936783
 40
0.3784760291245001
 40
0.4931776464746775
 40
0.609280964928941
 40
0.7299810378566484
 40
0.8592613089300682
 40
1.0
 40
1.0
 40
1.0
 40
1.0
 10
116.5459385016025
 20
11.61930088141025
 30
0.0
 10
116.5362996265932
 20
11.65532459918419
 30
0.0
 10
116.5177477744097
 20
11.72465911037933
 30
0.0
 10
116.4719062325748
 20
11.81870655882879
 30
0.0
 10
116.4140176542891
 20
11.89871491493108
 30
0.0
 10
116.3433531766507
 20
11.96418951240464
 30
0.0
 10
116.2605953723198
 20
12.01514448570132
 30
0.0
 10
116.165973892809
 20
12.05049943034659
 30
0.0
 10
116.0604018401991
 20
12.07261218883417
 30
0.0
 10
115.986148221631
 20
12.07481394430521
 30
0.0
 10
115.9474459134615
 20
12.07596153846153
 30
0.0
  0
SPLINE
  5
AC
330
1F
100
AcDbEntity
  8
0
  6
Continuous
 62
     7
370
    15
100
AcDbSpline
210
0.0
220
0.0
230
1.0
 70
     8
 71
     3
 72
    23
 73
    19
 74
     0
 42
0.000000001
 43
0.00000001
 40
0.0
 40
0.0
 40
0.0
 40
0.0
 40
0.0639861098164609
 40
0.1266268580894719
 40
0.1889843719814867
 40
0.2502301939603992
 40
0.3123511629623275
 40
0.3745736184579437
 40
0.4381475308782029
 40
0.502920412607369
 40
0.5679740951402691
 40
0.6307713337491887
 40
0.6929346089254614
 40
0.7543975343123275
 40
0.8152183520172943
 40
0.8761169254810909
 40
0.9380146047939537
 40
1.0
 40
1.0
 40
1.0
 40
1.0
 10
115.9474459134615
 20
12.07596153846153
 30
0.0
 10
115.9245245147628
 20
12.07552973423103
 30
0.0
 10
115.8791636589684
 20
12.0746752048156
 30
0.0
 10
115.8118990415963
 20
12.06610152732331
 30
0.0
 10
115.7466535416421
 20
12.05207849974481
 30
0.0
 10
115.6827723520539
 20
12.03314766429915
 30
0.0
 10
115.6215331391657
 20
12.00714689150428
 30
0.0
 10
115.5609683893094
 20
11.9776381056574
 30
0.0
 10
115.5033586818488
 20
11.94085508478499
 30
0.0
 10
115.447475600168
 20
11.89986073533607
 30
0.0
 10
115.3954846960825
 20
11.85443174023539
 30
0.0
 10
115.34710827481
 20
11.80649422031099
 30
0.0
 10
115.3039844992965
 20
11.75544420829597
 30
0.0
 10
115.2649150581463
 20
11.70210425589459
 30
0.0
 10
115.2311890620824
 20
11.64574180285437
 30
0.0
 10
115.2017494750544
 20
11.5869006105486
 30
0.0
 10
115.1767706662077
 20
11.52550323268695
 30
0.0
 10
115.1643585094672
 20
11.48289014142762
 30
0.0
 10
115.1581480368589
 20
11.46156850961538
 30
0.0
  0
SPLINE
  5
AD
330
1F
100
AcDbEntity
  8
0
  6
Continuous
 62
     7
370
    15
100
AcDbSpline
210
0.0
220
0.0
230
1.0
 70
     8
 71
     3
 72
    15
 73
    11
 74
     0
 42
0.000000001
 43
0.00000001
 40
0.0
 40
0.0
 40
0.0
 40
0.0
 40
0.0769954547170585
 40
0.1676150771831721
 40
0.2710523936342354
 40
0.3894595025720743
 40
0.5208428024655756
 40
0.6663987586080743
 40
0.8260936125153175
 40
1.0
 40
1.0
 40
1.0
 40
1.0
 10
115.1581480368589
 20
11.46156850961538
 30
0.0
 10
115.1545742127938
 20
11.44591557541649
 30
0.0
 10
115.1467941847557
 20
11.41183995649156
 30
0.0
 10
115.1383911573123
 20
11.35591966176412
 30
0.0
 10
115.1307642853408
 20
11.29123132730695
 30
0.0
 10
115.124380758594
 20
11.21785043969201
 30
0.0
 10
115.1204751307956
 20
11.13552008154967
 30
0.0
 10
115.1162166422938
 20
11.04459185725604
 30
0.0
 10
115.114666279755
 20
10.94470319281874
 30
0.0
 10
115.1144010728962
 20
10.87516008584699
 30
0.0
 10
115.1142628205128
 20
10.83890725160256
 30
0.0
  0
LINE
  5
AE
330
1F
100
AcDbEntity
  8
0
  6
Continuous
 62
     7
370
    15
100
AcDbLine
 10
115.1142628205
 20
10.8389072516
 30
0.0
 11
115.1142628205
 21
10.0
 31
0.0
  0
LINE
  5
AF
330
1F
100
AcDbEntity
  8
0
  6
Continuous
 62
     7
370
    15
100
AcDbLine
 10
114.1373397436
 20
10.0
 30
0.0
 11
113.8524038462
 21
10.0
 31
0.0
  0
LINE
  5
B0
330
1F
100
AcDbEntity
  8
0
  6
Continuous
 62
     7
370
    15
100
AcDbLine
 10
113.8524038462
 20
10.0
 30
0.0
 11
113.8524038462
 21
12.3201923077
 31
0.0
  0
LINE
  5
B1
330
1F
100
AcDbEntity
  8
0
  6
Continuous
 62
     7
370
    15
100
AcDbLine
 10
113.8524038462
 20
12.3201923077
 30
0.0
 11
114.1373397436
 21
12.3201923077
 31
0.0
  0
LINE
  5
B2
330
1F
100
AcDbEntity
  8
0
  6
Continuous
 62
     7
370
    15
100
AcDbLine
 10
114.1373397436
 20
12.3201923077
 30
0.0
 11
114.1373397436
 21
10.0
 31
0.0
  0
SPLINE
  5
B3
330
1F
100
AcDbEntity
  8
0
  6
Continuous
 62
     7
370
    15
100
AcDbSpline
210
0.0
220
0.0
230
1.0
 70
     8
 71
     3
 72
    15
 73
    11
 74
     0
 42
0.000000001
 43
0.00000001
 40
0.0
 40
0.0
 40
0.0
 40
0.0
 40
0.1318667517023655
 40
0.2566614034533689
 40
0.3842132129425007
 40
0.5133652331525831
 40
0.6404431518253874
 40
0.7610850047778875
 40
0.8791455246531654
 40
1.0
 40
1.0
 40
1.0
 40
1.0
 10
113.9935997596154
 20
12.80865384615384
 30
0.0
 10
113.9761206814285
 20
12.80944280664065
 30
0.0
 10
113.9420999394247
 20
12.81097841514848
 30
0.0
 10
113.8927814467285
 20
12.82510264552359
 30
0.0
 10
113.8475798884932
 20
12.84815865469333
 30
0.0
 10
113.8070626497245
 20
12.8792066940297
 30
0.0
 10
113.7732895459547
 20
12.91634956508805
 30
0.0
 10
113.7487074936307
 20
12.95837503880129
 30
0.0
 10
113.7332180639201
 20
13.00392191477618
 30
0.0
 10
113.7312725793911
 20
13.03559223707089
 30
0.0
 10
113.7302884615385
 20
13.0516125801282
 30
0.0
  0
SPLINE
  5
B4
330
1F
100
AcDbEntity
  8
0
  6
Continuous
 62
     7
370
    15
100
AcDbSpline
210
0.0
220
0.0
230
1.0
 70
     8
 71
     3
 72
    15
 73
    11
 74
     0
 42
0.000000001
 43
0.00000001
 40
0.0
 40
0.0
 40
0.0
 40
0.0
 40
0.1232898687277962
 40
0.2421490813339692
 40
0.3634374760537338
 40
0.4897453933413771
 40
0.618114844593007
 40
0.7448937812572439
 40
0.8689322665891516
 40
1.0
 40
1.0
 40
1.0
 40
1.0
 10
113.7302884615385
 20
13.0516125801282
 30
0.0
 10
113.7312510186838
 20
13.06805985083925
 30
0.0
 10
113.733141541651
 20
13.10036332828007
 30
0.0
 10
113.7487191041481
 20
13.14671382242502
 30
0.0
 10
113.7730847869034
 20
13.18933275620357
 30
0.0
 10
113.8070850123946
 20
13.22654874496856
 30
0.0
 10
113.8475739370685
 20
13.25761424650908
 30
0.0
 10
113.8927829844695
 20
13.28066563687177
 30
0.0
 10
113.9420995331915
 20
13.29479106615766
 30
0.0
 10
113.9761205435526
 20
13.29632650916099
 30
0.0
 10
113.9935997596154
 20
13.29711538461538
 30
0.0
  0
SPLINE
  5
B5
330
1F
100
AcDbEntity
  8
0
  6
Continuous
 62
     7
370
    15
100
AcDbSpline
210
0.0
220
0.0
230
1.0
 70
     8
 71
     3
 72
    15
 73
    11
 74
     0
 42
0.000000001
 43
0.00000001
 40
0.0
 40
0.0
 40
0.0
 40
0.0
 40
0.1318992643310742
 40
0.2582840923169646
 40
0.384341124779093
 40
0.5119796151257079
 40
0.6386320084211341
 40
0.7592297631645823
 40
0.8774121680352011
 40
0.9999999999999999
 40
0.9999999999999999
 40
0.9999999999999999
 40
0.9999999999999999
 10
113.9935997596154
 20
13.29711538461538
 30
0.0
 10
114.0112811675089
 20
13.29629518922782
 30
0.0
 10
114.0459047600803
 20
13.29468908913111
 30
0.0
 10
114.0959729386152
 20
13.28093546349551
 30
0.0
 10
114.1415632281407
 20
13.25762217741371
 30
0.0
 10
114.1820016001193
 20
13.22634418116818
 30
0.0
 10
114.2167015258942
 20
13.18956004317301
 30
0.0
 10
114.2409954560205
 20
13.14668759336233
 30
0.0
 10
114.2566095582108
 20
13.10037011388957
 30
0.0
 10
114.258495104784
 20
13.06806214013245
 30
0.0
 10
114.2594551282051
 20
13.0516125801282
 30
0.0
  0
SPLINE
  5
B6
330
1F
100
AcDbEntity
  8
0
  6
Continuous
 62
     7
370
    15
100
AcDbSpline
210
0.0
220
0.0
230
1.0
 70
     8
 71
     3
 72
    15
 73
    11
 74
     0
 42
0.000000001
 43
0.00000001
 40
0.0
 40
0.0
 40
0.0
 40
0.0
 40
0.1201621349925895
 40
0.2375463202768791
 40
0.3574970509273692
 40
0.484917122465276
 40
0.6133292680851364
 40
0.7401503701286989
 40
0.867301254563267
 40
1.0
 40
1.0
 40
1.0
 40
1.0
 10
114.2594551282051
 20
13.0516125801282
 30
0.0
 10
114.2584734546498
 20
13.03559003047301
 30
0.0
 10
114.256532802207
 20
13.0039153459954
 30
0.0
 10
114.2410075164362
 20
12.958400839205
 30
0.0
 10
114.2164944863933
 20
12.9161240963308
 30
0.0
 10
114.1820238510039
 20
12.87941138063825
 30
0.0
 10
114.141557332095
 20
12.84815067536115
 30
0.0
 10
114.095974504931
 20
12.82483280506873
 30
0.0
 10
114.0459043480642
 20
12.81108039474411
 30
0.0
 10
114.0112810282292
 20
12.80947412710244
 30
0.0
 10
113.9935997596154
 20
12.80865384615384
 30
0.0
  0
SPLINE
  5
B7
330
1F
100
AcDbEntity
  8
0
  6
Continuous
 62
     7
370
    15
100
AcDbSpline
210
0.0
220
0.0
230
1.0
 70
     8
 71
     3
 72
    23
 73
    19
 74
     0
 42
0.000000001
 43
0.00000001
 40
0.0
 40
0.0
 40
0.0
 40
0.0
 40
0.0679784896192547
 40
0.1330435352439074
 40
0.1965074380533965
 40
0.2586134167685785
 40
0.3197283376065493
 40
0.3808728540495712
 40
0.442635602316209
 40
0.5050793035048774
 40
0.5678805200585803
 40
0.6288138541554883
 40
0.6889100905404405
 40
0.7487650058898526
 40
0.8093857829631156
 40
0.8708843357532354
 40
0.9340374630736988
 40
1.0
 40
1.0
 40
1.0
 40
1.0
 10
112.1020833333333
 20
11.75222856570512
 30
0.0
 10
112.1025679248043
 20
11.77366017670121
 30
0.0
 10
112.1035163389691
 20
11.81560487580915
 30
0.0
 10
112.1110855857558
 20
11.87723509136988
 30
0.0
 10
112.124866638055
 20
11.93578948807543
 30
0.0
 10
112.142152174984
 20
11.99214742809024
 30
0.0
 10
112.1661760433011
 20
12.04521718482449
 30
0.0
 10
112.1948834001112
 20
12.09570646211613
 30
0.0
 10
112.2286177070064
 20
12.1435454734469
 30
0.0
 10
112.2674826922758
 20
12.18799831469818
 30
0.0
 10
112.3102151490325
 20
12.22837463213398
 30
0.0
 10
112.3563839758638
 20
12.26357053036516
 30
0.0
 10
112.404950822905
 20
12.29360272364477
 30
0.0
 10
112.4561213177908
 20
12.31878969075251
 30
0.0
 10
112.5103870325508
 20
12.33784094496349
 30
0.0
 10
112.567368654442
 20
12.35095585856132
 30
0.0
 10
112.6269508449396
 20
12.35971450681642
 30
0.0
 10
112.6676825806332
 20
12.36049744757111
 30
0.0
 10
112.6884915865384
 20
12.36089743589742
 30
0.0
  0
SPLINE
  5
B8
330
1F
100
AcDbEntity
  8
0
  6
Continuous
 62
     7
370
    15
100
AcDbSpline
210
0.0
220
0.0
230
1.0
 70
     8
 71
     3
 72
    15
 73
    11
 74
     0
 42
0.000000001
 43
0.00000001
 40
0.0
 40
0.0
 40
0.0
 40
0.0
 40
0.1057142614175193
 40
0.2134116126390022
 40
0.3261267300734759
 40
0.4444516715568737
 40
0.5690610798550921
 40
0.7027122044812221
 40
0.8463179465861975
 40
1.0
 40
1.0
 40
1.0
 40
1.0
 10
112.6884915865384
 20
12.36089743589742
 30
0.0
 10
112.7131586726823
 20
12.35989564112194
 30
0.0
 10
112.7629555738995
 20
12.35787325894093
 30
0.0
 10
112.8376629846717
 20
12.34181166817807
 30
0.0
 10
112.9122603735653
 20
12.31538378088783
 30
0.0
 10
112.9869394124645
 20
12.27888376921658
 30
0.0
 10
113.0611530321195
 20
12.23165167466812
 30
0.0
 10
113.1355540378182
 20
12.17456581024115
 30
0.0
 10
113.2110356081528
 20
12.10800174065068
 30
0.0
 10
113.2581674064662
 20
12.0571117290197
 30
0.0
 10
113.282532051282
 20
12.03080428685897
 30
0.0
  0
LINE
  5
B9
330
1F
100
AcDbEntity
  8
0
  6
Continuous
 62
     7
370
    15
100
AcDbLine
 10
113.2825320513
 20
12.0308042869
 30
0.0
 11
113.0891826923
 21
11.8317307692
 31
0.0
  0
SPLINE
  5
BA
330
1F
100
AcDbEntity
  8
0
  6
Continuous
 62
     7
370
    15
100
AcDbSpline
210
0.0
220
0.0
230
1.0
 70
     8
 71
     3
 72
    15
 73
    11
 74
     0
 42
0.000000001
 43
0.00000001
 40
0.0
 40
0.0
 40
0.0
 40
0.0
 40
0.1582230975563254
 40
0.3050355053581575
 40
0.4413089638879018
 40
0.5659632271047113
 40
0.6835251144150579
 40
0.7933341296295885
 40
0.8985175121610073
 40
1.0
 40
1.0
 40
1.0
 40
1.0
 10
113.0891826923077
 20
11.83173076923076
 30
0.0
 10
113.072499878393
 20
11.8510648376916
 30
0.0
 10
113.0403373771409
 20
11.88833864559111
 30
0.0
 10
112.9893273908031
 20
11.93817441306214
 30
0.0
 10
112.9385059789892
 20
11.98002720767412
 30
0.0
 10
112.888568840962
 20
12.01536247111327
 30
0.0
 10
112.8382602683019
 20
12.0420770541057
 30
0.0
 10
112.7881706354247
 20
12.06157596458013
 30
0.0
 10
112.7382480797718
 20
12.07364260257234
 30
0.0
 10
112.7048778906837
 20
12.0751978433877
 30
0.0
 10
112.6884915865385
 20
12.07596153846153
 30
0.0
  0
SPLINE
  5
BB
330
1F
100
AcDbEntity
  8
0
  6
Continuous
 62
     7
370
    15
100
AcDbSpline
210
0.0
220
0.0
230
1.0
 70
     8
 71
     3
 72
    15
 73
    11
 74
     0
 42
0.000000001
 43
0.00000001
 40
0.0
 40
0.0
 40
0.0
 40
0.0
 40
0.1249584925460603
 40
0.2459006286062696
 40
0.3691660295860795
 40
0.4985108411773504
 40
0.6285038663665964
 40
0.751028328850991
 40
0.8737241742784315
 40
0.9999999999999999
 40
0.9999999999999999
 40
0.9999999999999999
 40
0.9999999999999999
 10
112.6884915865384
 20
12.07596153846153
 30
0.0
 10
112.668407997182
 20
12.07498647511747
 30
0.0
 10
112.6288863356542
 20
12.07306768845199
 30
0.0
 10
112.5722572004516
 20
12.05391479093401
 30
0.0
 10
112.5196877048996
 20
12.02451543533108
 30
0.0
 10
112.4741881587511
 20
11.982815363106
 30
0.0
 10
112.4356457633032
 20
11.93495063352626
 30
0.0
 10
112.4075119240938
 20
11.88143253880829
 30
0.0
 10
112.3903070675156
 20
11.82387609916041
 30
0.0
 10
112.3881256320203
 20
11.78393472827553
 30
0.0
 10
112.3870192307692
 20
11.76367688301281
 30
0.0
  0
SPLINE
  5
BC
330
1F
100
AcDbEntity
  8
0
  6
Continuous
 62
     7
370
    15
100
AcDbSpline
210
0.0
220
0.0
230
1.0
 70
     8
 71
     3
 72
    11
 73
     7
 74
     0
 42
0.000000001
 43
0.00000001
 40
0.0
 40
0.0
 40
0.0
 40
0.0
 40
0.2400399314959869
 40
0.4794031936061017
 40
0.7317567388575661
 40
1.0
 40
1.0
 40
1.0
 40
1.0
 10
112.3870192307692
 20
11.76367688301281
 30
0.0
 10
112.3880268961814
 20
11.7453416715324
 30
0.0
 10
112.3900393864102
 20
11.70872293528975
 30
0.0
 10
112.4056845882661
 20
11.65470436173441
 30
0.0
 10
112.4306002394577
 20
11.60203833423098
 30
0.0
 10
112.4538867728426
 20
11.56977769775326
 30
0.0
 10
112.4658854166667
 20
11.55315504807691
 30
0.0
  0
SPLINE
  5
BD
330
1F
100
AcDbEntity
  8
0
  6
Continuous
 62
     7
370
    15
100
AcDbSpline
210
0.0
220
0.0
230
1.0
 70
     8
 71
     3
 72
    15
 73
    11
 74
     0
 42
0.000000001
 43
0.00000001
 40
0.0
 40
0.0
 40
0.0
 40
0.0
 40
0.0834251049856351
 40
0.1775598214659849
 40
0.2839823599504617
 40
0.4022167468072199
 40
0.5335684803800648
 40
0.6761209941988475
 40
0.8316493725539948
 40
1.0
 40
1.0
 40
1.0
 40
1.0
 10
112.4658854166667
 20
11.55315504807692
 30
0.0
 10
112.4731094431595
 20
11.54427903228909
 30
0.0
 10
112.4884848730683
 20
11.52538755137471
 30
0.0
 10
112.5173397402258
 20
11.49916762720306
 30
0.0
 10
112.550017296392
 20
11.47019144238988
 30
0.0
 10
112.5893146684776
 20
11.44122016884507
 30
0.0
 10
112.6335388152011
 20
11.41071138955077
 30
0.0
 10
112.6836487373093
 20
11.37986659749523
 30
0.0
 10
112.7380541811044
 20
11.34633458348938
 30
0.0
 10
112.7770044521066
 20
11.32506713124611
 30
0.0
 10
112.7972506009615
 20
11.31401241987179
 30
0.0
  0
SPLINE
  5
BE
330
1F
100
AcDbEntity
  8
0
  6
Continuous
 62
     7
370
    15
100
AcDbSpline
210
0.0
220
0.0
230
1.0
 70
     8
 71
     3
 72
    15
 73
    11
 74
     0
 42
0.000000001
 43
0.00000001
 40
0.0
 40
0.0
 40
0.0
 40
0.0
 40
0.1589891012267964
 40
0.307114591605569
 40
0.4462131585962184
 40
0.5748760724117336
 40
0.6941521095829556
 40
0.8045811801532424
 40
0.9065933190457676
 40
1.0
 40
1.0
 40
1.0
 40
1.0
 10
112.7972506009615
 20
11.31401241987179
 30
0.0
 10
112.8219372030425
 20
11.30018311517611
 30
0.0
 10
112.8696235894533
 20
11.27346945222043
 30
0.0
 10
112.9373805997493
 20
11.2320042211796
 30
0.0
 10
112.998873129773
 20
11.19079142916004
 30
0.0
 10
113.0546221997114
 20
11.15027183071392
 30
0.0
 10
113.1035551263037
 20
11.10931172937582
 30
0.0
 10
113.1471565419235
 20
11.06948112126398
 30
0.0
 10
113.1843389160566
 20
11.02957653446354
 30
0.0
 10
113.2051614066945
 20
11.0016972099109
 30
0.0
 10
113.2151141826923
 20
10.98837139423076
 30
0.0
  0
SPLINE
  5
BF
330
1F
100
AcDbEntity
  8
0
  6
Continuous
 62
     7
370
    15
100
AcDbSpline
210
0.0
220
0.0
230
1.0
 70
     8
 71
     3
 72
    11
 73
     7
 74
     0
 42
0.000000001
 43
0.00000001
 40
0.0
 40
0.0
 40
0.0
 40
0.0
 40
0.2488386141270633
 40
0.4952350254576713
 40
0.743335603875006
 40
1.0
 40
1.0
 40
1.0
 40
1.0
 10
113.2151141826923
 20
10.98837139423076
 30
0.0
 10
113.2316337325589
 20
10.96146001435637
 30
0.0
 10
113.2645107027489
 20
10.9079013737734
 30
0.0
 10
113.2990349873197
 20
10.819710371736
 30
0.0
 10
113.3190468080698
 20
10.72617441595366
 30
0.0
 10
113.3218246792727
 20
10.66219161627638
 30
0.0
 10
113.3232371794872
 20
10.62965745192307
 30
0.0
  0
SPLINE
  5
C0
330
1F
100
AcDbEntity
  8
0
  6
Continuous
 62
     7
370
    15
100
AcDbSpline
210
0.0
220
0.0
230
1.0
 70
     8
 71
     3
 72
    23
 73
    19
 74
     0
 42
0.000000001
 43
0.00000001
 40
0.0
 40
0.0
 40
0.0
 40
0.0
 40
0.064548125564251
 40
0.1271991327555113
 40
0.188597338087427
 40
0.2486395150940129
 40
0.3095246994640602
 40
0.3700369910533524
 40
0.431889243607072
 40
0.4957042857252975
 40
0.5595193278435127
 40
0.6213715803972348
 40
0.6823971072916365
 40
0.7435684819321623
 40
0.8054984835712148
 40
0.8686397008205172
 40
0.9330662250811667
 40
1.0
 40
1.0
 40
1.0
 40
1.0
 10
113.3232371794872
 20
10.62965745192307
 30
0.0
 10
113.322584459526
 20
10.60673472640098
 30
0.0
 10
113.3212982035385
 20
10.56156299164783
 30
0.0
 10
113.3123555285307
 20
10.49503782470475
 30
0.0
 10
113.296974942866
 20
10.43141576179675
 30
0.0
 10
113.2760256089193
 20
10.37000646781748
 30
0.0
 10
113.2477369277851
 20
10.31198657259309
 30
0.0
 10
113.214582854655
 20
10.25589226101144
 30
0.0
 10
113.1747820418661
 20
10.20293695236678
 30
0.0
 10
113.1293420082709
 20
10.15319018134828
 30
0.0
 10
113.0795893101613
 20
10.10775525333124
 30
0.0
 10
113.026515884655
 20
10.06781923803836
 30
0.0
 10
112.9700563740302
 20
10.03464108929346
 30
0.0
 10
112.9106142041686
 20
10.00718609753739
 30
0.0
 10
112.8480543179741
 20
9.985352749257464
 30
0.0
 10
112.7823669341214
 20
9.970237453048671
 30
0.0
 10
112.7137608496171
 20
9.961190734056094
 30
0.0
 10
112.6671066665268
 20
9.959934816374382
 30
0.0
 10
112.6433343349359
 20
9.95929487179486
 30
0.0
  0
SPLINE
  5
C1
330
1F
100
AcDbEntity
  8
0
  6
Continuous
 62
     7
370
    15
100
AcDbSpline
210
0.0
220
0.0
230
1.0
 70
     8
 71
     3
 72
    15
 73
    11
 74
     0
 42
0.000000001
 43
0.00000001
 40
0.0
 40
0.0
 40
0.0
 40
0.0
 40
0.1267425189618499
 40
0.251723961249609
 40
0.3772186880262351
 40
0.5046935492516365
 40
0.6314582385934822
 40
0.7554010672029525
 40
0.8777005336014826
 40
1.0
 40
1.0
 40
1.0
 40
1.0
 10
112.6433343349359
 20
9.95929487179486
 30
0.0
 10
112.61125125436
 20
9.960195392804467
 30
0.0
 10
112.5475308849228
 20
9.96198392215976
 30
0.0
 10
112.4532880682665
 20
9.978771563358299
 30
0.0
 10
112.3611942371921
 20
10.0048930993146
 30
0.0
 10
112.2719463113428
 20
10.04092112530088
 30
0.0
 10
112.1875401937434
 20
10.08641498624999
 30
0.0
 10
112.1103142835697
 20
10.14090015757466
 30
0.0
 10
112.0400003140518
 20
10.20257679807675
 30
0.0
 10
111.9999787371625
 20
10.24985065277771
 30
0.0
 10
111.9799679487179
 20
10.2734875801282
 30
0.0
  0
LINE
  5
C2
330
1F
100
AcDbEntity
  8
0
  6
Continuous
 62
     7
370
    15
100
AcDbLine
 10
111.9799679487
 20
10.2734875801
 30
0.0
 11
112.1688651843
 21
10.4884615385
 31
0.0
  0
SPLINE
  5
C3
330
1F
100
AcDbEntity
  8
0
  6
Continuous
 62
     7
370
    15
100
AcDbSpline
210
0.0
220
0.0
230
1.0
 70
     8
 71
     3
 72
    15
 73
    11
 74
     0
 42
0.000000001
 43
0.00000001
 40
0.0
 40
0.0
 40
0.0
 40
0.0
 40
0.1474758177483481
 40
0.2859041715443706
 40
0.4171716482444279
 40
0.540500743586505
 40
0.6592377183802344
 40
0.7750060983159549
 40
0.8872285734286398
 40
1.0
 40
1.0
 40
1.0
 40
1.0
 10
112.1688651842949
 20
10.48846153846153
 30
0.0
 10
112.1868015874949
 20
10.46908971635416
 30
0.0
 10
112.2215740171427
 20
10.43153451011444
 30
0.0
 10
112.2771829780945
 20
10.38152885821963
 30
0.0
 10
112.333770006238
 20
10.3396177051213
 30
0.0
 10
112.3907700433447
 20
10.30456260741715
 30
0.0
 10
112.4490268431953
 20
10.27755206312422
 30
0.0
 10
112.5082139361073
 20
10.25857591007764
 30
0.0
 10
112.5682109350773
 20
10.24638010713035
 30
0.0
 10
112.6085081582853
 20
10.24494837959761
 30
0.0
 10
112.6287059294872
 20
10.24423076923076
 30
0.0
  0
SPLINE
  5
C4
330
1F
100
AcDbEntity
  8
0
  6
Continuous
 62
     7
370
    15
100
AcDbSpline
210
0.0
220
0.0
230
1.0
 70
     8
 71
     3
 72
    15
 73
    11
 74
     0
 42
0.000000001
 43
0.00000001
 40
0.0
 40
0.0
 40
0.0
 40
0.0
 40
0.1340420464623699
 40
0.2618956736507445
 40
0.3878360446911191
 40
0.5176862058208266
 40
0.6445086536782145
 40
0.7647182630567247
 40
0.8802907821584985
 40
1.0
 40
1.0
 40
1.0
 40
1.0
 10
112.6287059294872
 20
10.24423076923076
 30
0.0
 10
112.6562086194634
 20
10.24547430321108
 30
0.0
 10
112.7099442621862
 20
10.24790396000968
 30
0.0
 10
112.786909671786
 20
10.26996303635101
 30
0.0
 10
112.8579739972089
 20
10.30455234979232
 30
0.0
 10
112.9196808892153
 20
10.353614897409
 30
0.0
 10
112.9722064210409
 20
10.41072459541012
 30
0.0
 10
113.0102412649679
 20
10.47505383220402
 30
0.0
 10
113.0340775098502
 20
10.54471465362924
 30
0.0
 10
113.0368769514882
 20
10.59300395671941
 30
0.0
 10
113.0383012820513
 20
10.61757311698717
 30
0.0
  0
SPLINE
  5
C5
330
1F
100
AcDbEntity
  8
0
  6
Continuous
 62
     7
370
    15
100
AcDbSpline
210
0.0
220
0.0
230
1.0
 70
     8
 71
     3
 72
    11
 73
     7
 74
     0
 42
0.000000001
 43
0.00000001
 40
0.0
 40
0.0
 40
0.0
 40
0.0
 40
0.2534754346498638
 40
0.500453315102903
 40
0.7455781350009897
 40
0.9999999999999999
 40
0.9999999999999999
 40
0.9999999999999999
 40
0.9999999999999999
 10
113.0383012820513
 20
10.61757311698717
 30
0.0
 10
113.037315857901
 20
10.63781112820206
 30
0.0
 10
113.0353702698269
 20
10.67776837225441
 30
0.0
 10
113.0200910159371
 20
10.73559903877302
 30
0.0
 10
112.9959493571014
 20
10.79045331482059
 30
0.0
 10
112.9721779975233
 20
10.82255678053276
 30
0.0
 10
112.960071113782
 20
10.83890725160255
 30
0.0
  0
SPLINE
  5
C6
330
1F
100
AcDbEntity
  8
0
  6
Continuous
 62
     7
370
    15
100
AcDbSpline
210
0.0
220
0.0
230
1.0
 70
     8
 71
     3
 72
    15
 73
    11
 74
     0
 42
0.000000001
 43
0.00000001
 40
0.0
 40
0.0
 40
0.0
 40
0.0
 40
0.0768750740350494
 40
0.1674616757257126
 40
0.2722700232466452
 40
0.3895508405125299
 40
0.5208013683480457
 40
0.6662632933752366
 40
0.8255449152058761
 40
1.0
 40
1.0
 40
1.0
 40
1.0
 10
112.960071113782
 20
10.83890725160255
 30
0.0
 10
112.95279365598
 20
10.84710361584022
 30
0.0
 10
112.9369407245346
 20
10.86495825737816
 30
0.0
 10
112.9078620413865
 20
10.89074386463122
 30
0.0
 10
112.8730442092473
 20
10.91853699743456
 30
0.0
 10
112.832095632873
 20
10.94786636740042
 30
0.0
 10
112.7849337638296
 20
10.97834510220116
 30
0.0
 10
112.7313674540118
 20
11.00981330031322
 30
0.0
 10
112.6721305242
 20
11.04376559442131
 30
0.0
 10
112.6302471657902
 20
11.06628056748273
 30
0.0
 10
112.6083533653846
 20
11.07804987980768
 30
0.0
  0
SPLINE
  5
C7
330
1F
100
AcDbEntity
  8
0
  6
Continuous
 62
     7
370
    15
100
AcDbSpline
210
0.0
220
0.0
230
1.0
 70
     8
 71
     3
 72
    15
 73
    11
 74
     0
 42
0.000000001
 43
0.00000001
 40
0.0
 40
0.0
 40
0.0
 40
0.0
 40
0.1577616635135479
 40
0.3059502132085506
 40
0.4437754990007181
 40
0.5728243624015441
 40
0.6921541564432324
 40
0.8022957069908367
 40
0.9055643918329911
 40
1.0
 40
1.0
 40
1.0
 40
1.0
 10
112.6083533653846
 20
11.07804987980768
 30
0.0
 10
112.5847253419203
 20
11.09123894924599
 30
0.0
 10
112.5389030638356
 20
11.11681676401293
 30
0.0
 10
112.4739994499153
 20
11.15665492253298
 30
0.0
 10
112.4154457785883
 20
11.19717452170716
 30
0.0
 10
112.3618331145206
 20
11.23610259731229
 30
0.0
 10
112.314515630799
 20
11.27549159646471
 30
0.0
 10
112.2736797348366
 20
11.31538524601017
 30
0.0
 10
112.2377176747609
 20
11.35417466195355
 30
0.0
 10
112.2178082369761
 20
11.38165863816835
 30
0.0
 10
112.2082982772436
 20
11.39478665865384
 30
0.0
  0
SPLINE
  5
C8
330
1F
100
AcDbEntity
  8
0
  6
Continuous
 62
     7
370
    15
100
AcDbSpline
210
0.0
220
0.0
230
1.0
 70
     8
 71
     3
 72
    11
 73
     7
 74
     0
 42
0.000000001
 43
0.00000001
 40
0.0
 40
0.0
 40
0.0
 40
0.0
 40
0.246252370692973
 40
0.4925907964763658
 40
0.7405699911180877
 40
1.0
 40
1.0
 40
1.0
 40
1.0
 10
112.2082982772436
 20
11.39478665865384
 30
0.0
 10
112.1918512332697
 20
11.4212258951505
 30
0.0
 10
112.1589513977554
 20
11.47411360757116
 30
0.0
 10
112.1270061886152
 20
11.56238811146383
 30
0.0
 10
112.1050478624195
 20
11.65532041346971
 30
0.0
 10
112.1030862656231
 20
11.71944348848366
 30
0.0
 10
112.1020833333333
 20
11.75222856570512
 30
0.0
  0
SPLINE
  5
C9
330
1F
100
AcDbEntity
  8
0
  6
Continuous
 62
     7
370
    15
100
AcDbSpline
210
0.0
220
0.0
230
1.0
 70
     8
 71
     3
 72
    31
 73
    27
 74
     0
 42
0.000000001
 43
0.00000001
 40
0.0
 40
0.0
 40
0.0
 40
0.0
 40
0.0451516788047804
 40
0.0887272521645443
 40
0.1305341108247499
 40
0.1710707458966307
 40
0.2100958400813077
 40
0.2477692374166756
 40
0.2848493643644358
 40
0.3209855015160398
 40
0.3563873757532839
 40
0.3915492787874617
 40
0.4261913606636702
 40
0.4605110592984609
 40
0.4949714404811194
 40
0.5295336250796099
 40
0.5645757480731514
 40
0.6000961892387717
 40
0.6375349450701505
 40
0.6782134162474357
 40
0.7225827429711674
 40
0.7701823039810383
 40
0.8218792822902008
 40
0.877067012516751
 40
0.9365240376354078
 40
0.9999999999999999
 40
0.9999999999999999
 40
0.9999999999999999
 40
0.9999999999999999
 10
110.4961388221154
 20
9.959294871794862
 30
0.0
 10
110.467929841469
 20
9.9596030347045
 30
0.0
 10
110.4124965684354
 20
9.960208603509805
 30
0.0
 10
110.3311519397135
 20
9.966687243346033
 30
0.0
 10
110.2531842754308
 20
9.977398941018086
 30
0.0
 10
110.1788707710602
 20
9.992689031072935
 30
0.0
 10
110.1081368535004
 20
10.01177447308502
 30
0.0
 10
110.0406960073288
 20
10.03445625168851
 30
0.0
 10
109.9773379180343
 20
10.06265068870989
 30
0.0
 10
109.9173013858353
 20
10.09438033012788
 30
0.0
 10
109.8610563622387
 20
10.1302716871106
 30
0.0
 10
109.8083435806998
 20
10.16961269448474
 30
0.0
 10
109.75923372161
 20
10.21234462311958
 30
0.0
 10
109.7137159527733
 20
10.25828901139177
 30
0.0
 10
109.6724291811531
 20
10.30801580367003
 30
0.0
 10
109.634858914767
 20
10.36112499049361
 30
0.0
 10
109.6004267608007
 20
10.41709034229316
 30
0.0
 10
109.5692638724074
 20
10.47701906823786
 30
0.0
 10
109.5424924941648
 20
10.5428522485317
 30
0.0
 10
109.5188566639558
 20
10.61569318660858
 30
0.0
 10
109.4995248705663
 20
10.69634046971395
 30
0.0
 10
109.4837927742679
 20
10.78472514766421
 30
0.0
 10
109.4711368245719
 20
10.88042422112516
 30
0.0
 10
109.4623501098505
 20
10.98399128357013
 30
0.0
 10
109.4574371776623
 20
11.09517406144086
 30
0.0
 10
109.4566542576532
 20
11.17196360455045
 30
0.0
 10
109.45625
 20
11.21161358173076
 30
0.0
  0
LINE
  5
CA
330
1F
100
AcDbEntity
  8
0
  6
Continuous
 62
     7
370
    15
100
AcDbLine
 10
109.45625
 20
11.2116135817
 30
0.0
 11
109.45625
 21
12.3201923077
 31
0.0
  0
LINE
  5
CB
330
1F
100
AcDbEntity
  8
0
  6
Continuous
 62
     7
370
    15
100
AcDbLine
 10
109.45625
 20
12.3201923077
 30
0.0
 11
109.7411858974
 21
12.3201923077
 31
0.0
  0
LINE
  5
CC
330
1F
100
AcDbEntity
  8
0
  6
Continuous
 62
     7
370
    15
100
AcDbLine
 10
109.7411858974
 20
12.3201923077
 30
0.0
 11
109.7411858974
 21
11.2440504808
 31
0.0
  0
SPLINE
  5
CD
330
1F
100
AcDbEntity
  8
0
  6
Continuous
 62
     7
370
    15
100
AcDbSpline
210
0.0
220
0.0
230
1.0
 70
     8
 71
     3
 72
    15
 73
    11
 74
     0
 42
0.000000001
 43
0.00000001
 40
0.0
 40
0.0
 40
0.0
 40
0.0
 40
0.1736165757486469
 40
0.3321203769789012
 40
0.4779362767239436
 40
0.6099318098113861
 40
0.727031521037976
 40
0.8316714227513095
 40
0.9217154761224298
 40
1.0
 40
1.0
 40
1.0
 40
1.0
 10
109.7411858974359
 20
11.24405048076922
 30
0.0
 10
109.7413146254536
 20
11.21246127258286
 30
0.0
 10
109.7415608761217
 20
11.15203259700231
 30
0.0
 10
109.7432308725406
 20
11.06507824901612
 30
0.0
 10
109.7471588860475
 20
10.98577880254301
 30
0.0
 10
109.7520699982855
 20
10.91408844848558
 30
0.0
 10
109.7583856503278
 20
10.85001931468582
 30
0.0
 10
109.7658998416403
 20
10.79379518366404
 30
0.0
 10
109.7742985526863
 20
10.74477845954851
 30
0.0
 10
109.7825197289265
 20
10.71525698687046
 30
0.0
 10
109.7863431490385
 20
10.70152744391025
 30
0.0
  0
SPLINE
  5
CE
330
1F
100
AcDbEntity
  8
0
  6
Continuous
 62
     7
370
    15
100
AcDbSpline
210
0.0
220
0.0
230
1.0
 70
     8
 71
     3
 72
    19
 73
    15
 74
     0
 42
0.000000001
 43
0.00000001
 40
0.0
 40
0.0
 40
0.0
 40
0.0
 40
0.0604867187842468
 40
0.1197159334053013
 40
0.1780861642555846
 40
0.2359713213676955
 40
0.2946097683616268
 40
0.3535360182612475
 40
0.4131613089451942
 40
0.4745453087944067
 40
0.5992335172031698
 40
0.7270292124547222
 40
0.8596954264724386
 40
1.0
 40
1.0
 40
1.0
 40
1.0
 10
109.7863431490384
 20
10.70152744391025
 30
0.0
 10
109.792476754656
 20
10.68427098238423
 30
0.0
 10
109.8046164497229
 20
10.65011681696769
 30
0.0
 10
109.8266359671275
 20
10.60077821940463
 30
0.0
 10
109.853875958163
 20
10.55508064177317
 30
0.0
 10
109.8836845163048
 20
10.5112619472315
 30
0.0
 10
109.9180646932091
 20
10.4706201448435
 30
0.0
 10
109.9565814991518
 20
10.43322386667462
 30
0.0
 10
109.9979456141578
 20
10.39766015533323
 30
0.0
 10
110.059409099644
 20
10.35558252262184
 30
0.0
 10
110.1434642909302
 20
10.31048361597679
 30
0.0
 10
110.2538207189763
 20
10.271570980742
 30
0.0
 10
110.3734766953269
 20
10.24831562971469
 30
0.0
 10
110.4561761192513
 20
10.24561755552896
 30
0.0
 10
110.4986828926282
 20
10.24423076923076
 30
0.0
  0
SPLINE
  5
CF
330
1F
100
AcDbEntity
  8
0
  6
Continuous
 62
     7
370
    15
100
AcDbSpline
210
0.0
220
0.0
230
1.0
 70
     8
 71
     3
 72
    15
 73
    11
 74
     0
 42
0.000000001
 43
0.00000001
 40
0.0
 40
0.0
 40
0.0
 40
0.0
 40
0.1446324159930477
 40
0.2798369641781319
 40
0.4083713118090859
 40
0.5330428696034645
 40
0.6535963008637301
 40
0.7700157379356778
 40
0.8843394719005003
 40
1.0
 40
1.0
 40
1.0
 40
1.0
 10
110.4986828926282
 20
10.24423076923076
 30
0.0
 10
110.5411857174867
 20
10.24564704474477
 30
0.0
 10
110.6234208194569
 20
10.24838727581646
 30
0.0
 10
110.7417621130066
 20
10.27086948584229
 30
0.0
 10
110.8499401818081
 20
10.30843036088011
 30
0.0
 10
110.9468692590649
 20
10.36086994156853
 30
0.0
 10
111.032109699778
 20
10.42504309856137
 30
0.0
 10
111.1031429939436
 20
10.50034394646537
 30
0.0
 10
111.1617510034235
 20
10.58439017599153
 30
0.0
 10
111.1873409778644
 20
10.64709577180412
 30
0.0
 10
111.2002103365384
 20
10.67863080929486
 30
0.0
  0
SPLINE
  5
D0
330
1F
100
AcDbEntity
  8
0
  6
Continuous
 62
     7
370
    15
100
AcDbSpline
210
0.0
220
0.0
230
1.0
 70
     8
 71
     3
 72
    15
 73
    11
 74
     0
 42
0.000000001
 43
0.00000001
 40
0.0
 40
0.0
 40
0.0
 40
0.0
 40
0.0696927557420288
 40
0.1540736621798104
 40
0.2545914510459158
 40
0.371465414429005
 40
0.5047545659520504
 40
0.6534942950018636
 40
0.8189527408800048
 40
1.0
 40
1.0
 40
1.0
 40
1.0
 10
111.2002103365384
 20
10.67863080929486
 30
0.0
 10
111.2040151023857
 20
10.69130023736441
 30
0.0
 10
111.2124265104521
 20
10.71930924862556
 30
0.0
 10
111.2214637864666
 20
10.76682516323068
 30
0.0
 10
111.2296049051996
 20
10.82348948308242
 30
0.0
 10
111.2365565007027
 20
10.88967300094775
 30
0.0
 10
111.2415141839332
 20
10.9652027606751
 30
0.0
 10
111.2441866509142
 20
11.05005515832198
 30
0.0
 10
111.247205872004
 20
11.14396382075876
 30
0.0
 10
111.2472516974768
 20
11.20970243099632
 30
0.0
 10
111.2472756410256
 20
11.24405048076922
 30
0.0
  0
LINE
  5
D1
330
1F
100
AcDbEntity
  8
0
  6
Continuous
 62
     7
370
    15
100
AcDbLine
 10
111.247275641
 20
11.2440504808
 30
0.0
 11
111.247275641
 21
12.3201923077
 31
0.0
  0
LINE
  5
D2
330
1F
100
AcDbEntity
  8
0
  6
Continuous
 62
     7
370
    15
100
AcDbLine
 10
111.247275641
 20
12.3201923077
 30
0.0
 11
111.5322115385
 21
12.3201923077
 31
0.0
  0
LINE
  5
D3
330
1F
100
AcDbEntity
  8
0
  6
Continuous
 62
     7
370
    15
100
AcDbLine
 10
111.5322115385
 20
12.3201923077
 30
0.0
 11
111.5322115385
 21
11.190625
 31
0.0
  0
SPLINE
  5
D4
330
1F
100
AcDbEntity
  8
0
  6
Continuous
 62
     7
370
    15
100
AcDbSpline
210
0.0
220
0.0
230
1.0
 70
     8
 71
     3
 72
    31
 73
    27
 74
     0
 42
0.000000001
 43
0.00000001
 40
0.0
 40
0.0
 40
0.0
 40
0.0
 40
0.0622100326824419
 40
0.1206959731983285
 40
0.1755484638831975
 40
0.2261906127214149
 40
0.2737107306295724
 40
0.3173020717741437
 40
0.3578372980216204
 40
0.3954278376537086
 40
0.4310885268449416
 40
0.466097473341075
 40
0.5010152197637693
 40
0.5354236135188917
 40
0.5701735381629641
 40
0.6047650703833912
 40
0.640093034542571
 40
0.6759387007616814
 40
0.7122247901876555
 40
0.7494554524110951
 40
0.7876011171624494
 40
0.8267837743908867
 40
0.86782856994874
 40
0.9101595124056417
 40
0.9539387393933997
 40
0.9999999999999999
 40
0.9999999999999999
 40
0.9999999999999999
 40
0.9999999999999999
 10
111.5322115384615
 20
11.19062499999999
 30
0.0
 10
111.5318108581621
 20
11.1522463516128
 30
0.0
 10
111.5310334835717
 20
11.07778652387448
 30
0.0
 10
111.5260375362668
 20
10.96957879414592
 30
0.0
 10
111.5174653876492
 20
10.86873875771558
 30
0.0
 10
111.5044545234216
 20
10.77521303683605
 30
0.0
 10
111.4891549471505
 20
10.68907303554671
 30
0.0
 10
111.4694188995502
 20
10.61020835242509
 30
0.0
 10
111.4458529267345
 20
10.53886197133769
 30
0.0
 10
111.4192686381424
 20
10.47378193084523
 30
0.0
 10
111.3878616583163
 20
10.41477510539504
 30
0.0
 10
111.354454289698
 20
10.35877190032454
 30
0.0
 10
111.3158782466785
 20
10.30716188055665
 30
0.0
 10
111.2752652484562
 20
10.25737594182523
 30
0.0
 10
111.230088032058
 20
10.21189041339744
 30
0.0
 10
111.1811931599996
 20
10.16966157457881
 30
0.0
 10
111.1292688291471
 20
10.13004389575629
 30
0.0
 10
111.0731627709636
 20
10.09458252089324
 30
0.0
 10
111.0136940567424
 20
10.06263599262112
 30
0.0
 10
110.9507892721572
 20
10.03431855032437
 30
0.0
 10
110.8836779380713
 20
10.01190978398756
 30
0.0
 10
110.8132259245231
 20
9.99257796578141
 30
0.0
 10
110.7390880604234
 20
9.977415554491337
 30
0.0
 10
110.6613358182851
 20
9.966723454651662
 30
0.0
 10
110.5799953878031
 20
9.960169047313649
 30
0.0
 10
110.5245603779588
 20
9.959591156625043
 30
0.0
 10
110.4961388221154
 20
9.959294871794862
 30
0.0
  0
SPLINE
  5
D5
330
1F
100
AcDbEntity
  8
0
  6
Continuous
 62
     7
370
    15
100
AcDbSpline
210
0.0
220
0.0
230
1.0
 70
     8
 71
     3
 72
    15
 73
    11
 74
     0
 42
0.000000001
 43
0.00000001
 40
0.0
 40
0.0
 40
0.0
 40
0.0
 40
0.1289191318119626
 40
0.255237724924908
 40
0.3786785959785537
 40
0.5010878871851329
 40
0.6227136794297783
 40
0.7462407949383877
 40
0.8715890472316704
 40
1.0
 40
1.0
 40
1.0
 40
1.0
 10
106.5254807692308
 20
11.15373597756409
 30
0.0
 10
106.5264997721944
 20
11.19257670133838
 30
0.0
 10
106.5285172229364
 20
11.26947465923842
 30
0.0
 10
106.5433222561682
 20
11.38280134997196
 30
0.0
 10
106.5681403752648
 20
11.49229112433768
 30
0.0
 10
106.6032752849057
 20
11.59745209183717
 30
0.0
 10
106.6481926366429
 20
11.69883023738745
 30
0.0
 10
106.7029489478494
 20
11.79626176263933
 30
0.0
 10
106.7680733073683
 20
11.8896864102165
 30
0.0
 10
106.8181493634012
 20
11.94749143995624
 30
0.0
 10
106.8434895833333
 20
11.97674278846153
 30
0.0
  0
SPLINE
  5
D6
330
1F
100
AcDbEntity
  8
0
  6
Continuous
 62
     7
370
    15
100
AcDbSpline
210
0.0
220
0.0
230
1.0
 70
     8
 71
     3
 72
    15
 73
    11
 74
     0
 42
0.000000001
 43
0.00000001
 40
0.0
 40
0.0
 40
0.0
 40
0.0
 40
0.1284975211375097
 40
0.2527129855154516
 40
0.3748191325670513
 40
0.4964364263727339
 40
0.6179105567458488
 40
0.741287617309287
 40
0.8687004007446087
 40
1.0
 40
1.0
 40
1.0
 40
1.0
 10
106.8434895833333
 20
11.97674278846153
 30
0.0
 10
106.8729250909069
 20
12.00756291192722
 30
0.0
 10
106.9308151959708
 20
12.06817610777741
 30
0.0
 10
107.0281958275527
 20
12.14576632605628
 30
0.0
 10
107.1302437938458
 20
12.21281876448717
 30
0.0
 10
107.2388514054134
 20
12.26677218850496
 30
0.0
 10
107.3528637122733
 20
12.30926141529963
 30
0.0
 10
107.4728054537093
 20
12.33880298972525
 30
0.0
 10
107.5982410998762
 20
12.3580828188757
 30
0.0
 10
107.6840201847271
 20
12.35994988017063
 30
0.0
 10
107.7275540865385
 20
12.36089743589742
 30
0.0
  0
SPLINE
  5
D7
330
1F
100
AcDbEntity
  8
0
  6
Continuous
 62
     7
370
    15
100
AcDbSpline
210
0.0
220
0.0
230
1.0
 70
     8
 71
     3
 72
    15
 73
    11
 74
     0
 42
0.000000001
 43
0.00000001
 40
0.0
 40
0.0
 40
0.0
 40
0.0
 40
0.1317514273024044
 40
0.2583323505141542
 40
0.3821339760925409
 40
0.5038043916000761
 40
0.624692986540927
 40
0.7468705897275678
 40
0.8715135042348083
 40
1.0
 40
1.0
 40
1.0
 40
1.0
 10
107.7275540865385
 20
12.36089743589742
 30
0.0
 10
107.7710890269034
 20
12.35997043465005
 30
0.0
 10
107.856450405556
 20
12.35815281175163
 30
0.0
 10
107.9814618448893
 20
12.33872637862389
 30
0.0
 10
108.1007920753459
 20
12.30901984093123
 30
0.0
 10
108.2148981210942
 20
12.26795206676369
 30
0.0
 10
108.3223186176835
 20
12.21290486876779
 30
0.0
 10
108.4246182462671
 20
12.14721929753257
 30
0.0
 10
108.5215165328985
 20
12.06940223051352
 30
0.0
 10
108.5795945665817
 20
12.00920598277358
 30
0.0
 10
108.6090745192308
 20
11.97865084134614
 30
0.0
  0
SPLINE
  5
D8
330
1F
100
AcDbEntity
  8
0
  6
Continuous
 62
     7
370
    15
100
AcDbSpline
210
0.0
220
0.0
230
1.0
 70
     8
 71
     3
 72
    15
 73
    11
 74
     0
 42
0.000000001
 43
0.00000001
 40
0.0
 40
0.0
 40
0.0
 40
0.0
 40
0.1281572795931874
 40
0.2538343627967323
 40
0.3765056225222091
 40
0.4985336856679095
 40
0.6213677287324616
 40
0.7445647449043576
 40
0.8706337982552824
 40
0.9999999999999999
 40
0.9999999999999999
 40
0.9999999999999999
 40
0.9999999999999999
 10
108.6090745192308
 20
11.97865084134614
 30
0.0
 10
108.6344581489897
 20
11.94942815423716
 30
0.0
 10
108.6847341653485
 20
11.89154831951327
 30
0.0
 10
108.7492009245359
 20
11.79769929918309
 30
0.0
 10
108.8047376255359
 20
11.70050792221781
 30
0.0
 10
108.8492447401453
 20
11.59868356159458
 30
0.0
 10
108.8843375830597
 20
11.49311510990528
 30
0.0
 10
108.9092528932341
 20
11.38343971406838
 30
0.0
 10
108.924072827073
 20
11.26989958485571
 30
0.0
 10
108.9260712327986
 20
11.1927889603144
 30
0.0
 10
108.9270833333333
 20
11.15373597756409
 30
0.0
  0
SPLINE
  5
D9
330
1F
100
AcDbEntity
  8
0
  6
Continuous
 62
     7
370
    15
100
AcDbSpline
210
0.0
220
0.0
230
1.0
 70
     8
 71
     3
 72
    23
 73
    19
 74
     0
 42
0.000000001
 43
0.00000001
 40
0.0
 40
0.0
 40
0.0
 40
0.0
 40
0.0624160261588178
 40
0.1233369785373303
 40
0.1832651398530933
 40
0.2431724430697109
 40
0.302898353919745
 40
0.3637735975039117
 40
0.4256053049523829
 40
0.4896590425101843
 40
0.5537845767921195
 40
0.6162215328110765
 40
0.6778544713083431
 40
0.7395168974879379
 40
0.8020965355763717
 40
0.865865841277976
 40
0.931507795196516
 40
1.0
 40
1.0
 40
1.0
 40
1.0
 10
108.9270833333333
 20
11.15373597756409
 30
0.0
 10
108.926193120195
 20
11.11445663952789
 30
0.0
 10
108.9244340175173
 20
11.03683883572851
 30
0.0
 10
108.907793736934
 20
10.92252126819183
 30
0.0
 10
108.8819119661739
 20
10.81167310761294
 30
0.0
 10
108.8448716558258
 20
10.70475843542311
 30
0.0
 10
108.7973753709938
 20
10.60145044198564
 30
0.0
 10
108.7394173901598
 20
10.50220035084499
 30
0.0
 10
108.6705909946007
 20
10.40681234423294
 30
0.0
 10
108.5925730832557
 20
10.31609639096111
 30
0.0
 10
108.5063474527468
 20
10.23248846754134
 30
0.0
 10
108.4128063753432
 20
10.1596192515894
 30
0.0
 10
108.3137880732977
 20
10.0971882973409
 30
0.0
 10
108.2079758885414
 20
10.04689954889038
 30
0.0
 10
108.0963360969154
 20
10.00724860646491
 30
0.0
 10
107.9786278994201
 20
9.979399305845904
 30
0.0
 10
107.8550341570646
 20
9.962561206991628
 30
0.0
 10
107.7706451776824
 20
9.960398965533509
 30
0.0
 10
107.7275540865385
 20
9.95929487179486
 30
0.0
  0
SPLINE
  5
DA
330
1F
100
AcDbEntity
  8
0
  6
Continuous
 62
     7
370
    15
100
AcDbSpline
210
0.0
220
0.0
230
1.0
 70
     8
 71
     3
 72
    23
 73
    19
 74
     0
 42
0.000000001
 43
0.00000001
 40
0.0
 40
0.0
 40
0.0
 40
0.0
 40
0.0687422616054898
 40
0.1346351922242761
 40
0.1983241870671505
 40
0.2608250125604245
 40
0.3227135881590255
 40
0.3845545346076218
 40
0.4469128577247591
 40
0.5109576325148295
 40
0.5749307010013351
 40
0.6366845377960958
 40
0.6974831152940622
 40
0.7571338075238554
 40
0.8169656636752655
 40
0.8768183516571977
 40
0.9376625803840035
 40
1.0
 40
1.0
 40
1.0
 40
1.0
 10
107.7275540865385
 20
9.95929487179486
 30
0.0
 10
107.6842518766982
 20
9.960402671220908
 30
0.0
 10
107.5994423110916
 20
9.962572352363031
 30
0.0
 10
107.475412313204
 20
9.979333887410565
 30
0.0
 10
107.3574931588845
 20
10.00723577159859
 30
0.0
 10
107.2457072159419
 20
10.04702985428937
 30
0.0
 10
107.1394401047755
 20
10.09718990469064
 30
0.0
 10
107.0398480682572
 20
10.15943050880798
 30
0.0
 10
106.9462310020392
 20
10.23251007820285
 30
0.0
 10
106.8599871304619
 20
10.31609053538379
 30
0.0
 10
106.7819741099162
 20
10.40681385290965
 30
0.0
 10
106.7131464523403
 20
10.50219995925733
 30
0.0
 10
106.6551887993329
 20
10.60145054401825
 30
0.0
 10
106.6076924286683
 20
10.7047584082145
 30
0.0
 10
106.5706521412355
 20
10.81167311490871
 30
0.0
 10
106.544770364315
 20
10.92252126621156
 30
0.0
 10
106.5281300853873
 20
11.03683883624125
 30
0.0
 10
106.5263709824836
 20
11.11445663970018
 30
0.0
 10
106.5254807692308
 20
11.15373597756409
 30
0.0
  0
LINE
  5
DB
330
1F
100
AcDbEntity
  8
0
  6
Continuous
 62
     7
370
    15
100
AcDbLine
 10
236.6
 20
30.0
 30
0.0
 11
240.0
 21
30.0
 31
0.0
  0
LINE
  5
DC
330
1F
100
AcDbEntity
  8
0
  6
Continuous
 62
     7
370
    15
100
AcDbLine
 10
236.6
 20
55.0
 30
0.0
 11
236.6
 21
30.0
 31
0.0
  0
LINE
  5
DD
330
1F
100
AcDbEntity
  8
0
  6
Continuous
 62
     7
370
    15
100
AcDbLine
 10
-6.8
 20
55.0
 30
0.0
 11
236.6
 21
55.0
 31
0.0
  0
LINE
  5
DE
330
1F
100
AcDbEntity
  8
0
  6
Continuous
 62
     7
370
    15
100
AcDbLine
 10
-6.8
 20
30.0
 30
0.0
 11
-6.8
 21
55.0
 31
0.0
  0
LINE
  5
DF
330
1F
100
AcDbEntity
  8
0
  6
Continuous
 62
     7
370
    15
100
AcDbLine
 10
0.0
 20
30.0
 30
0.0
 11
-6.8
 21
30.0
 31
0.0
  0
LINE
  5
E0
330
1F
100
AcDbEntity
  8
0
  6
Continuous
 62
     7
370
    15
100
AcDbLine
 10
0.0
 20
20.0
 30
0.0
 11
0.0
 21
30.0
 31
0.0
  0
LINE
  5
E1
330
1F
100
AcDbEntity
  8
0
  6
Continuous
 62
     7
370
    15
100
AcDbLine
 10
0.0
 20
20.0
 30
0.0
 11
-6.8
 21
20.0
 31
0.0
  0
LINE
  5
E2
330
1F
100
AcDbEntity
  8
0
  6
Continuous
 62
     7
370
    15
100
AcDbLine
 10
-6.8
 20
10.0
 30
0.0
 11
-6.8
 21
20.0
 31
0.0
  0
LINE
  5
E3
330
1F
100
AcDbEntity
  8
0
  6
Continuous
 62
     7
370
    15
100
AcDbLine
 10
0.0
 20
10.0
 30
0.0
 11
-6.8
 21
10.0
 31
0.0
  0
LINE
  5
E4
330
1F
100
AcDbEntity
  8
0
  6
Continuous
 62
     7
370
    15
100
AcDbLine
 10
0.0
 20
0.0
 30
0.0
 11
0.0
 21
10.0
 31
0.0
  0
LINE
  5
E5
330
1F
100
AcDbEntity
  8
0
  6
Continuous
 62
     7
370
    15
100
AcDbLine
 10
79.1
 20
0.0
 30
0.0
 11
0.0
 21
0.0
 31
0.0
  0
LINE
  5
E6
330
1F
100
AcDbEntity
  8
0
  6
Continuous
 62
     7
370
    15
100
AcDbLine
 10
79.1
 20
0.0
 30
0.0
 11
79.1
 21
-3.4
 31
0.0
  0
LINE
  5
E7
330
1F
100
AcDbEntity
  8
0
  6
Continuous
 62
     7
370
    15
100
AcDbLine
 10
154.1
 20
-3.4
 30
0.0
 11
79.1
 21
-3.4
 31
0.0
  0
LINE
  5
E8
330
1F
100
AcDbEntity
  8
0
  6
Continuous
 62
     7
370
    15
100
AcDbLine
 10
154.1
 20
0.0
 30
0.0
 11
154.1
 21
-3.4
 31
0.0
  0
LINE
  5
E9
330
1F
100
AcDbEntity
  8
0
  6
Continuous
 62
     7
370
    15
100
AcDbLine
 10
240.0
 20
0.0
 30
0.0
 11
154.1
 21
0.0
 31
0.0
  0
LINE
  5
EA
330
1F
100
AcDbEntity
  8
0
  6
Continuous
 62
     7
370
    15
100
AcDbLine
 10
240.0
 20
0.0
 30
0.0
 11
240.0
 21
10.0
 31
0.0
  0
LINE
  5
EB
330
1F
100
AcDbEntity
  8
0
  6
Continuous
 62
     7
370
    15
100
AcDbLine
 10
233.2
 20
10.0
 30
0.0
 11
240.0
 21
10.0
 31
0.0
  0
LINE
  5
EC
330
1F
100
AcDbEntity
  8
0
  6
Continuous
 62
     7
370
    15
100
AcDbLine
 10
233.2
 20
20.0
 30
0.0
 11
233.2
 21
10.0
 31
0.0
  0
LINE
  5
ED
330
1F
100
AcDbEntity
  8
0
  6
Continuous
 62
     7
370
    15
100
AcDbLine
 10
233.2
 20
20.0
 30
0.0
 11
240.0
 21
20.0
 31
0.0
  0
LINE
  5
EE
330
1F
100
AcDbEntity
  8
0
  6
Continuous
 62
     7
370
    15
100
AcDbLine
 10
240.0
 20
20.0
 30
0.0
 11
240.0
 21
30.0
 31
0.0
  0
LINE
  5
EF
330
1F
100
AcDbEntity
  8
0
  6
Continuous
 62
     7
370
    15
100
AcDbLine
 10
86.6817307692
 20
12.2896634615
 30
0.0
 11
86.3783503606
 21
10.0
 31
0.0
  0
LINE
  5
F0
330
1F
100
AcDbEntity
  8
0
  6
Continuous
 62
     7
370
    15
100
AcDbLine
 10
86.3783503606
 20
10.0
 30
0.0
 11
86.0915064103
 21
10.0
 31
0.0
  0
LINE
  5
F1
330
1F
100
AcDbEntity
  8
0
  6
Continuous
 62
     7
370
    15
100
AcDbLine
 10
86.0915064103
 20
10.0
 30
0.0
 11
86.5106420272
 21
13.175
 31
0.0
  0
LINE
  5
F2
330
1F
100
AcDbEntity
  8
0
  6
Continuous
 62
     7
370
    15
100
AcDbLine
 10
86.5106420272
 20
13.175
 30
0.0
 11
86.5513471554
 21
13.175
 31
0.0
  0
LINE
  5
F3
330
1F
100
AcDbEntity
  8
0
  6
Continuous
 62
     7
370
    15
100
AcDbLine
 10
86.5513471554
 20
13.175
 30
0.0
 11
87.8621794872
 21
10.5698717949
 31
0.0
  0
LINE
  5
F4
330
1F
100
AcDbEntity
  8
0
  6
Continuous
 62
     7
370
    15
100
AcDbLine
 10
87.8621794872
 20
10.5698717949
 30
0.0
 11
89.1698317308
 21
13.175
 31
0.0
  0
LINE
  5
F5
330
1F
100
AcDbEntity
  8
0
  6
Continuous
 62
     7
370
    15
100
AcDbLine
 10
89.1698317308
 20
13.175
 30
0.0
 11
89.2111728766
 21
13.175
 31
0.0
  0
LINE
  5
F6
330
1F
100
AcDbEntity
  8
0
  6
Continuous
 62
     7
370
    15
100
AcDbLine
 10
89.2111728766
 20
13.175
 30
0.0
 11
89.6328525641
 21
10.0
 31
0.0
  0
LINE
  5
F7
330
1F
100
AcDbEntity
  8
0
  6
Continuous
 62
     7
370
    15
100
AcDbLine
 10
89.6328525641
 20
10.0
 30
0.0
 11
89.3466446314
 21
10.0
 31
0.0
  0
LINE
  5
F8
330
1F
100
AcDbEntity
  8
0
  6
Continuous
 62
     7
370
    15
100
AcDbLine
 10
89.3466446314
 20
10.0
 30
0.0
 11
89.0426282051
 21
12.2845753205
 31
0.0
  0
LINE
  5
F9
330
1F
100
AcDbEntity
  8
0
  6
Continuous
 62
     7
370
    15
100
AcDbLine
 10
89.0426282051
 20
12.2845753205
 30
0.0
 11
87.8965244391
 21
10.0
 31
0.0
  0
LINE
  5
FA
330
1F
100
AcDbEntity
  8
0
  6
Continuous
 62
     7
370
    15
100
AcDbLine
 10
87.8965244391
 20
10.0
 30
0.0
 11
87.8322866587
 21
10.0
 31
0.0
  0
LINE
  5
FB
330
1F
100
AcDbEntity
  8
0
  6
Continuous
 62
     7
370
    15
100
AcDbLine
 10
87.8322866587
 20
10.0
 30
0.0
 11
86.6817307692
 21
12.2896634615
 31
0.0
  0
LINE
  5
FC
330
1F
100
AcDbEntity
  8
0
  6
Continuous
 62
     7
370
    15
100
AcDbLine
 10
90.4876602564
 20
10.0
 30
0.0
 11
90.202724359
 21
10.0
 31
0.0
  0
LINE
  5
FD
330
1F
100
AcDbEntity
  8
0
  6
Continuous
 62
     7
370
    15
100
AcDbLine
 10
90.202724359
 20
10.0
 30
0.0
 11
90.202724359
 21
13.2564102564
 31
0.0
  0
LINE
  5
FE
330
1F
100
AcDbEntity
  8
0
  6
Continuous
 62
     7
370
    15
100
AcDbLine
 10
90.202724359
 20
13.2564102564
 30
0.0
 11
90.4876602564
 21
13.2564102564
 31
0.0
  0
LINE
  5
FF
330
1F
100
AcDbEntity
  8
0
  6
Continuous
 62
     7
370
    15
100
AcDbLine
 10
90.4876602564
 20
13.2564102564
 30
0.0
 11
90.4876602564
 21
11.3737980769
 31
0.0
  0
LINE
  5
100
330
1F
100
AcDbEntity
  8
0
  6
Continuous
 62
     7
370
    15
100
AcDbLine
 10
90.4876602564
 20
11.3737980769
 30
0.0
 11
91.5434495192
 21
12.3201923077
 31
0.0
  0
LINE
  5
101
330
1F
100
AcDbEntity
  8
0
  6
Continuous
 62
     7
370
    15
100
AcDbLine
 10
91.5434495192
 20
12.3201923077
 30
0.0
 11
91.9530448718
 21
12.3201923077
 31
0.0
  0
LINE
  5
102
330
1F
100
AcDbEntity
  8
0
  6
Continuous
 62
     7
370
    15
100
AcDbLine
 10
91.9530448718
 20
12.3201923077
 30
0.0
 11
90.7280749199
 21
11.2211538462
 31
0.0
  0
LINE
  5
103
330
1F
100
AcDbEntity
  8
0
  6
Continuous
 62
     7
370
    15
100
AcDbLine
 10
90.7280749199
 20
11.2211538462
 30
0.0
 11
92.0751602564
 21
10.0
 31
0.0
  0
LINE
  5
104
330
1F
100
AcDbEntity
  8
0
  6
Continuous
 62
     7
370
    15
100
AcDbLine
 10
92.0751602564
 20
10.0
 30
0.0
 11
91.6662009215
 21
10.0
 31
0.0
  0
LINE
  5
105
330
1F
100
AcDbEntity
  8
0
  6
Continuous
 62
     7
370
    15
100
AcDbLine
 10
91.6662009215
 20
10.0
 30
0.0
 11
90.4876602564
 21
11.069145633
 31
0.0
  0
LINE
  5
106
330
1F
100
AcDbEntity
  8
0
  6
Continuous
 62
     7
370
    15
100
AcDbLine
 10
90.4876602564
 20
11.069145633
 30
0.0
 11
90.4876602564
 21
10.0
 31
0.0
  0
SPLINE
  5
107
330
1F
100
AcDbEntity
  8
0
  6
Continuous
 62
     7
370
    15
100
AcDbSpline
210
0.0
220
0.0
230
1.0
 70
     8
 71
     3
 72
    15
 73
    11
 74
     0
 42
0.000000001
 43
0.00000001
 40
0.0
 40
0.0
 40
0.0
 40
0.0
 40
0.127756603310154
 40
0.2494143553365538
 40
0.3727964764554145
 40
0.5001113325158717
 40
0.6286099407651207
 40
0.7506433738258096
 40
0.8737683791425163
 40
1.0
 40
1.0
 40
1.0
 40
1.0
 10
92.70608974358977
 20
9.959294871794862
 30
0.0
 10
92.68837695774843
 20
9.960241563518357
 30
0.0
 10
92.65379695994503
 20
9.962089753747275
 30
0.0
 10
92.60409823660765
 20
9.977658870871132
 30
0.0
 10
92.55837191511124
 20
10.00199158123517
 30
0.0
 10
92.51774306232123
 20
10.03579799198006
 30
0.0
 10
92.48459744880913
 20
10.07661955063186
 30
0.0
 10
92.45953728007825
 20
10.12215975168079
 30
0.0
 10
92.44448764495665
 20
10.17185434133577
 30
0.0
 10
92.44250837475171
 20
10.20639348162663
 30
0.0
 10
92.44150641025644
 20
10.2238782051282
 30
0.0
  0
SPLINE
  5
108
330
1F
100
AcDbEntity
  8
0
  6
Continuous
 62
     7
370
    15
100
AcDbSpline
210
0.0
220
0.0
230
1.0
 70
     8
 71
     3
 72
    15
 73
    11
 74
     0
 42
0.000000001
 43
0.00000001
 40
0.0
 40
0.0
 40
0.0
 40
0.0
 40
0.1290969581672247
 40
0.2520459672599765
 40
0.3739049644019851
 40
0.501037835220189
 40
0.6281707060383929
 40
0.75137646340917
 40
0.8724260133704307
 40
1.0
 40
1.0
 40
1.0
 40
1.0
 10
92.44150641025644
 20
10.2238782051282
 30
0.0
 10
92.4424698860096
 20
10.24179371380868
 30
0.0
 10
92.44435095417414
 20
10.27677154580748
 30
0.0
 10
92.45956887454538
 20
10.32684502187626
 30
0.0
 10
92.48440300963041
 20
10.37235496319594
 30
0.0
 10
92.51797218937332
 20
10.41262900373666
 30
0.0
 10
92.55836208635785
 20
10.44636319972627
 30
0.0
 10
92.60398792962653
 20
10.47091483350301
 30
0.0
 10
92.65391665547367
 20
10.48546577884284
 30
0.0
 10
92.68839709960645
 20
10.48744563332141
 30
0.0
 10
92.70608974358977
 20
10.48846153846153
 30
0.0
  0
SPLINE
  5
109
330
1F
100
AcDbEntity
  8
0
  6
Continuous
 62
     7
370
    15
100
AcDbSpline
210
0.0
220
0.0
230
1.0
 70
     8
 71
     3
 72
    15
 73
    11
 74
     0
 42
0.000000001
 43
0.00000001
 40
0.0
 40
0.0
 40
0.0
 40
0.0
 40
0.1275189266999384
 40
0.2499859477487969
 40
0.3717923515057452
 40
0.4988703527764674
 40
0.6259483540471894
 40
0.748491738016059
 40
0.8709587590649146
 40
1.0
 40
1.0
 40
1.0
 40
1.0
 10
92.70608974358977
 20
10.48846153846153
 30
0.0
 10
92.72377015034667
 20
10.48741091582454
 30
0.0
 10
92.75843052080376
 20
10.48535129297143
 30
0.0
 10
92.80854030149041
 20
10.47122102463205
 30
0.0
 10
92.85389259994471
 20
10.44613066834707
 30
0.0
 10
92.89428970771556
 20
10.4126908622617
 30
0.0
 10
92.92758772570542
 20
10.3721455107076
 30
0.0
 10
92.95357224513565
 20
10.3271549363541
 30
0.0
 10
92.96757942457792
 20
10.2766256345146
 30
0.0
 10
92.96962404457757
 20
10.24176442936958
 30
0.0
 10
92.9706730769231
 20
10.2238782051282
 30
0.0
  0
SPLINE
  5
10A
330
1F
100
AcDbEntity
  8
0
  6
Continuous
 62
     7
370
    15
100
AcDbSpline
210
0.0
220
0.0
230
1.0
 70
     8
 71
     3
 72
    15
 73
    11
 74
     0
 42
0.000000001
 43
0.00000001
 40
0.0
 40
0.0
 40
0.0
 40
0.0
 40
0.1261777183170063
 40
0.2488206074857902
 40
0.3715399692351568
 40
0.4999837069108886
 40
0.6272441978753773
 40
0.7492255210762747
 40
0.8722979504176569
 40
0.9999999999999999
 40
0.9999999999999999
 40
0.9999999999999999
 40
0.9999999999999999
 10
92.9706730769231
 20
10.2238782051282
 30
0.0
 10
92.96958849624684
 20
10.20642175598651
 30
0.0
 10
92.96744971908132
 20
10.17199789464306
 30
0.0
 10
92.95360435313577
 20
10.12184971069137
 30
0.0
 10
92.92738969328423
 20
10.07683101877923
 30
0.0
 10
92.89451937827609
 20
10.0357355077628
 30
0.0
 10
92.8538826135483
 20
10.00222486085396
 30
0.0
 10
92.80843308143628
 20
9.977347969561077
 30
0.0
 10
92.7585481543938
 20
9.962205959214689
 30
0.0
 10
92.72378977535648
 20
9.96027710398636
 30
0.0
 10
92.70608974358977
 20
9.959294871794862
 30
0.0
  0
LINE
  5
10B
330
1F
100
AcDbEntity
  8
0
  6
Continuous
 62
     7
370
    15
100
AcDbLine
 10
93.9475961538
 20
10.0
 30
0.0
 11
93.6626602564
 21
10.0
 31
0.0
  0
LINE
  5
10C
330
1F
100
AcDbEntity
  8
0
  6
Continuous
 62
     7
370
    15
100
AcDbLine
 10
93.6626602564
 20
10.0
 30
0.0
 11
93.6626602564
 21
13.175
 31
0.0
  0
LINE
  5
10D
330
1F
100
AcDbEntity
  8
0
  6
Continuous
 62
     7
370
    15
100
AcDbLine
 10
93.6626602564
 20
13.175
 30
0.0
 11
93.9475961538
 21
13.175
 31
0.0
  0
LINE
  5
10E
330
1F
100
AcDbEntity
  8
0
  6
Continuous
 62
     7
370
    15
100
AcDbLine
 10
93.9475961538
 20
13.175
 30
0.0
 11
93.9475961538
 21
10.0
 31
0.0
  0
LINE
  5
10F
330
1F
100
AcDbEntity
  8
0
  6
Continuous
 62
     7
370
    15
100
AcDbLine
 10
95.0466346154
 20
10.0
 30
0.0
 11
94.7616987179
 21
10.0
 31
0.0
  0
LINE
  5
110
330
1F
100
AcDbEntity
  8
0
  6
Continuous
 62
     7
370
    15
100
AcDbLine
 10
94.7616987179
 20
10.0
 30
0.0
 11
94.7616987179
 21
13.175
 31
0.0
  0
LINE
  5
111
330
1F
100
AcDbEntity
  8
0
  6
Continuous
 62
     7
370
    15
100
AcDbLine
 10
94.7616987179
 20
13.175
 30
0.0
 11
95.0466346154
 21
13.175
 31
0.0
  0
LINE
  5
112
330
1F
100
AcDbEntity
  8
0
  6
Continuous
 62
     7
370
    15
100
AcDbLine
 10
95.0466346154
 20
13.175
 30
0.0
 11
95.0466346154
 21
10.0
 31
0.0
  0
LINE
  5
113
330
1F
100
AcDbEntity
  8
0
  6
Continuous
 62
     7
370
    15
100
AcDbLine
 10
96.1456730769
 20
10.0
 30
0.0
 11
95.8607371795
 21
10.0
 31
0.0
  0
LINE
  5
114
330
1F
100
AcDbEntity
  8
0
  6
Continuous
 62
     7
370
    15
100
AcDbLine
 10
95.8607371795
 20
10.0
 30
0.0
 11
95.8607371795
 21
13.175
 31
0.0
  0
LINE
  5
115
330
1F
100
AcDbEntity
  8
0
  6
Continuous
 62
     7
370
    15
100
AcDbLine
 10
95.8607371795
 20
13.175
 30
0.0
 11
96.1456730769
 21
13.175
 31
0.0
  0
LINE
  5
116
330
1F
100
AcDbEntity
  8
0
  6
Continuous
 62
     7
370
    15
100
AcDbLine
 10
96.1456730769
 20
13.175
 30
0.0
 11
96.1456730769
 21
10.0
 31
0.0
  0
LINE
  5
117
330
1F
100
AcDbEntity
  8
0
  6
Continuous
 62
     7
370
    15
100
AcDbLine
 10
98.6083333333
 20
12.2896634615
 30
0.0
 11
98.3049529247
 21
10.0
 31
0.0
  0
LINE
  5
118
330
1F
100
AcDbEntity
  8
0
  6
Continuous
 62
     7
370
    15
100
AcDbLine
 10
98.3049529247
 20
10.0
 30
0.0
 11
98.0181089744
 21
10.0
 31
0.0
  0
LINE
  5
119
330
1F
100
AcDbEntity
  8
0
  6
Continuous
 62
     7
370
    15
100
AcDbLine
 10
98.0181089744
 20
10.0
 30
0.0
 11
98.4372445913
 21
13.175
 31
0.0
  0
LINE
  5
11A
330
1F
100
AcDbEntity
  8
0
  6
Continuous
 62
     7
370
    15
100
AcDbLine
 10
98.4372445913
 20
13.175
 30
0.0
 11
98.4779497196
 21
13.175
 31
0.0
  0
LINE
  5
11B
330
1F
100
AcDbEntity
  8
0
  6
Continuous
 62
     7
370
    15
100
AcDbLine
 10
98.4779497196
 20
13.175
 30
0.0
 11
99.7887820513
 21
10.5698717949
 31
0.0
  0
LINE
  5
11C
330
1F
100
AcDbEntity
  8
0
  6
Continuous
 62
     7
370
    15
100
AcDbLine
 10
99.7887820513
 20
10.5698717949
 30
0.0
 11
101.0964342949
 21
13.175
 31
0.0
  0
LINE
  5
11D
330
1F
100
AcDbEntity
  8
0
  6
Continuous
 62
     7
370
    15
100
AcDbLine
 10
101.0964342949
 20
13.175
 30
0.0
 11
101.1377754407
 21
13.175
 31
0.0
  0
LINE
  5
11E
330
1F
100
AcDbEntity
  8
0
  6
Continuous
 62
     7
370
    15
100
AcDbLine
 10
101.1377754407
 20
13.175
 30
0.0
 11
101.5594551282
 21
10.0
 31
0.0
  0
LINE
  5
11F
330
1F
100
AcDbEntity
  8
0
  6
Continuous
 62
     7
370
    15
100
AcDbLine
 10
101.5594551282
 20
10.0
 30
0.0
 11
101.2732471955
 21
10.0
 31
0.0
  0
LINE
  5
120
330
1F
100
AcDbEntity
  8
0
  6
Continuous
 62
     7
370
    15
100
AcDbLine
 10
101.2732471955
 20
10.0
 30
0.0
 11
100.9692307692
 21
12.2845753205
 31
0.0
  0
LINE
  5
121
330
1F
100
AcDbEntity
  8
0
  6
Continuous
 62
     7
370
    15
100
AcDbLine
 10
100.9692307692
 20
12.2845753205
 30
0.0
 11
99.8231270032
 21
10.0
 31
0.0
  0
LINE
  5
122
330
1F
100
AcDbEntity
  8
0
  6
Continuous
 62
     7
370
    15
100
AcDbLine
 10
99.8231270032
 20
10.0
 30
0.0
 11
99.7588892228
 21
10.0
 31
0.0
  0
LINE
  5
123
330
1F
100
AcDbEntity
  8
0
  6
Continuous
 62
     7
370
    15
100
AcDbLine
 10
99.7588892228
 20
10.0
 30
0.0
 11
98.6083333333
 21
12.2896634615
 31
0.0
  0
LINE
  5
124
330
1F
100
AcDbEntity
  8
0
  6
Continuous
 62
     7
370
    15
100
AcDbLine
 10
103.1469551282
 20
11.0583333333
 30
0.0
 11
101.9258012821
 21
11.0583333333
 31
0.0
  0
LINE
  5
125
330
1F
100
AcDbEntity
  8
0
  6
Continuous
 62
     7
370
    15
100
AcDbLine
 10
101.9258012821
 20
11.0583333333
 30
0.0
 11
101.9258012821
 21
11.383974359
 31
0.0
  0
LINE
  5
126
330
1F
100
AcDbEntity
  8
0
  6
Continuous
 62
     7
370
    15
100
AcDbLine
 10
101.9258012821
 20
11.383974359
 30
0.0
 11
103.1469551282
 21
11.383974359
 31
0.0
  0
LINE
  5
127
330
1F
100
AcDbEntity
  8
0
  6
Continuous
 62
     7
370
    15
100
AcDbLine
 10
103.1469551282
 20
11.383974359
 30
0.0
 11
103.1469551282
 21
11.0583333333
 31
0.0
  0
LINE
  5
128
330
1F
100
AcDbEntity
  8
0
  6
Continuous
 62
     7
370
    15
100
AcDbLine
 10
103.9610576923
 20
10.0
 30
0.0
 11
103.6761217949
 21
10.0
 31
0.0
  0
LINE
  5
129
330
1F
100
AcDbEntity
  8
0
  6
Continuous
 62
     7
370
    15
100
AcDbLine
 10
103.6761217949
 20
10.0
 30
0.0
 11
103.6761217949
 21
13.175
 31
0.0
  0
LINE
  5
12A
330
1F
100
AcDbEntity
  8
0
  6
Continuous
 62
     7
370
    15
100
AcDbLine
 10
103.6761217949
 20
13.175
 30
0.0
 11
103.9610576923
 21
13.175
 31
0.0
  0
LINE
  5
12B
330
1F
100
AcDbEntity
  8
0
  6
Continuous
 62
     7
370
    15
100
AcDbLine
 10
103.9610576923
 20
13.175
 30
0.0
 11
103.9610576923
 21
11.8724358974
 31
0.0
  0
LINE
  5
12C
330
1F
100
AcDbEntity
  8
0
  6
Continuous
 62
     7
370
    15
100
AcDbLine
 10
103.9610576923
 20
11.8724358974
 30
0.0
 11
105.5892628205
 21
11.8724358974
 31
0.0
  0
LINE
  5
12D
330
1F
100
AcDbEntity
  8
0
  6
Continuous
 62
     7
370
    15
100
AcDbLine
 10
105.5892628205
 20
11.8724358974
 30
0.0
 11
105.5892628205
 21
13.175
 31
0.0
  0
LINE
  5
12E
330
1F
100
AcDbEntity
  8
0
  6
Continuous
 62
     7
370
    15
100
AcDbLine
 10
105.5892628205
 20
13.175
 30
0.0
 11
105.8741987179
 21
13.175
 31
0.0
  0
LINE
  5
12F
330
1F
100
AcDbEntity
  8
0
  6
Continuous
 62
     7
370
    15
100
AcDbLine
 10
105.8741987179
 20
13.175
 30
0.0
 11
105.8741987179
 21
10.0
 31
0.0
  0
LINE
  5
130
330
1F
100
AcDbEntity
  8
0
  6
Continuous
 62
     7
370
    15
100
AcDbLine
 10
105.8741987179
 20
10.0
 30
0.0
 11
105.5892628205
 21
10.0
 31
0.0
  0
LINE
  5
131
330
1F
100
AcDbEntity
  8
0
  6
Continuous
 62
     7
370
    15
100
AcDbLine
 10
105.5892628205
 20
10.0
 30
0.0
 11
105.5892628205
 21
11.5467948718
 31
0.0
  0
LINE
  5
132
330
1F
100
AcDbEntity
  8
0
  6
Continuous
 62
     7
370
    15
100
AcDbLine
 10
105.5892628205
 20
11.5467948718
 30
0.0
 11
103.9610576923
 21
11.5467948718
 31
0.0
  0
LINE
  5
133
330
1F
100
AcDbEntity
  8
0
  6
Continuous
 62
     7
370
    15
100
AcDbLine
 10
103.9610576923
 20
11.5467948718
 30
0.0
 11
103.9610576923
 21
10.0
 31
0.0
  0
SPLINE
  5
134
330
1F
100
AcDbEntity
  8
0
  6
Continuous
 62
     7
370
    15
100
AcDbSpline
210
0.0
220
0.0
230
1.0
 70
     8
 71
     3
 72
    15
 73
    11
 74
     0
 42
0.000000001
 43
0.00000001
 40
0.0
 40
0.0
 40
0.0
 40
0.0
 40
0.1209110787487095
 40
0.238762228638721
 40
0.3547548590848595
 40
0.4703593994502191
 40
0.5891440987928738
 40
0.7163289048363425
 40
0.8524452858576034
 40
1.0
 40
1.0
 40
1.0
 40
1.0
 10
118.6327123397436
 20
12.36089743589743
 30
0.0
 10
118.6753942629607
 20
12.35966673942006
 30
0.0
 10
118.7596779466013
 20
12.35723649202871
 30
0.0
 10
118.8837124988042
 20
12.33816731014537
 30
0.0
 10
119.0034029593547
 20
12.30776531231924
 30
0.0
 10
119.1194247307189
 20
12.26420827607072
 30
0.0
 10
119.2327229284129
 20
12.20474502700966
 30
0.0
 10
119.3429241443013
 20
12.12641963845747
 30
0.0
 10
119.4503472160171
 20
12.02852954455776
 30
0.0
 10
119.5166392480139
 20
11.95346087473894
 30
0.0
 10
119.5511217948718
 20
11.91441306089743
 30
0.0
  0
LINE
  5
135
330
1F
100
AcDbEntity
  8
0
  6
Continuous
 62
     7
370
    15
100
AcDbLine
 10
119.5511217949
 20
11.9144130609
 30
0.0
 11
119.5511217949
 21
12.3201923077
 31
0.0
  0
LINE
  5
136
330
1F
100
AcDbEntity
  8
0
  6
Continuous
 62
     7
370
    15
100
AcDbLine
 10
119.5511217949
 20
12.3201923077
 30
0.0
 11
119.8360576923
 21
12.3201923077
 31
0.0
  0
LINE
  5
137
330
1F
100
AcDbEntity
  8
0
  6
Continuous
 62
     7
370
    15
100
AcDbLine
 10
119.8360576923
 20
12.3201923077
 30
0.0
 11
119.8360576923
 21
10.478921274
 31
0.0
  0
SPLINE
  5
138
330
1F
100
AcDbEntity
  8
0
  6
Continuous
 62
     7
370
    15
100
AcDbSpline
210
0.0
220
0.0
230
1.0
 70
     8
 71
     3
 72
    15
 73
    11
 74
     0
 42
0.000000001
 43
0.00000001
 40
0.0
 40
0.0
 40
0.0
 40
0.0
 40
0.1634452548497621
 40
0.3154887127129218
 40
0.4562908239366668
 40
0.5858641495747764
 40
0.7054286858067537
 40
0.8133707129824376
 40
0.9117182381600979
 40
0.9999999999999999
 40
0.9999999999999999
 40
0.9999999999999999
 40
0.9999999999999999
 10
119.8360576923077
 20
10.47892127403845
 30
0.0
 10
119.8358063751184
 20
10.43969859893083
 30
0.0
 10
119.8353212724055
 20
10.36398938797678
 30
0.0
 10
119.8318278913388
 20
10.25451694861364
 30
0.0
 10
119.8244612770032
 20
10.15340128530971
 30
0.0
 10
119.8161076874896
 20
10.06018123644664
 30
0.0
 10
119.8040910233997
 20
9.975288893749362
 30
0.0
 10
119.7894167474049
 20
9.898470943795113
 30
0.0
 10
119.7728743813169
 20
9.829653669361626
 30
0.0
 10
119.7583417554834
 20
9.78726756357237
 30
0.0
 10
119.7514673477564
 20
9.767217548076916
 30
0.0
  0
SPLINE
  5
139
330
1F
100
AcDbEntity
  8
0
  6
Continuous
 62
     7
370
    15
100
AcDbSpline
210
0.0
220
0.0
230
1.0
 70
     8
 71
     3
 72
    23
 73
    19
 74
     0
 42
0.000000001
 43
0.00000001
 40
0.0
 40
0.0
 40
0.0
 40
0.0
 40
0.0613707062984579
 40
0.1209064680177769
 40
0.1794236650000254
 40
0.2376066874397806
 40
0.2959384682493747
 40
0.3542182268208548
 40
0.4135370665946743
 40
0.4740867825531884
 40
0.5351211890802731
 40
0.5969876649622229
 40
0.6600198335468078
 40
0.7242774964844981
 40
0.7900118502255359
 40
0.8577476843344485
 40
0.9278290322155529
 40
1.0
 40
1.0
 40
1.0
 40
1.0
 10
119.7514673477564
 20
9.767217548076916
 30
0.0
 10
119.7413171097597
 20
9.741155404919011
 30
0.0
 10
119.7213201193429
 20
9.689810359892622
 30
0.0
 10
119.683868151848
 20
9.617026368886947
 30
0.0
 10
119.6419273964224
 20
9.548495000954988
 30
0.0
 10
119.5940241297747
 20
9.484598170128635
 30
0.0
 10
119.5403749718316
 20
9.425656642485569
 30
0.0
 10
119.4822439039485
 20
9.370389871710378
 30
0.0
 10
119.4184988017304
 20
9.319967091296622
 30
0.0
 10
119.3491761128007
 20
9.27525828574651
 30
0.0
 10
119.2758738598256
 20
9.234992886621605
 30
0.0
 10
119.1986341815223
 20
9.200116357819333
 30
0.0
 10
119.1178926267209
 20
9.169739006818759
 30
0.0
 10
119.0328907179134
 20
9.146985327835358
 30
0.0
 10
118.9449611480745
 20
9.12726883132107
 30
0.0
 10
118.8530699070229
 20
9.11443758063622
 30
0.0
 10
118.7577538699211
 20
9.105704463621027
 30
0.0
 10
118.6929427037053
 20
9.104896895132764
 30
0.0
 10
118.6600610977564
 20
9.104487179487172
 30
0.0
  0
SPLINE
  5
13A
330
1F
100
AcDbEntity
  8
0
  6
Continuous
 62
     7
370
    15
100
AcDbSpline
210
0.0
220
0.0
230
1.0
 70
     8
 71
     3
 72
    19
 73
    15
 74
     0
 42
0.000000001
 43
0.00000001
 40
0.0
 40
0.0
 40
0.0
 40
0.0
 40
0.0964914237691222
 40
0.1884736749923072
 40
0.2768399149588152
 40
0.36213656217143
 40
0.4434367545654616
 40
0.5201655209986256
 40
0.592709663569004
 40
0.6629173343528173
 40
0.7354188002027071
 40
0.8148809699994166
 40
0.9030605557399859
 40
1.0
 40
1.0
 40
1.0
 40
1.0
 10
118.6600610977564
 20
9.10448717948717
 30
0.0
 10
118.6120870885105
 20
9.105264134472554
 30
0.0
 10
118.5183809592661
 20
9.10678173630367
 30
0.0
 10
118.3817607159022
 20
9.124462780708
 30
0.0
 10
118.2520077913978
 20
9.149458533424555
 30
0.0
 10
118.1308366771057
 20
9.187291314205321
 30
0.0
 10
118.0190130892301
 20
9.233589154889884
 30
0.0
 10
117.9173007164278
 20
9.286743147927146
 30
0.0
 10
117.8266126403224
 20
9.347693449482685
 30
0.0
 10
117.7448575940981
 20
9.41709042317121
 30
0.0
 10
117.6710691516176
 20
9.499607477227963
 30
0.0
 10
117.6016479671352
 20
9.596852142969713
 30
0.0
 10
117.5348269698784
 20
9.710305678128286
 30
0.0
 10
117.4956668483841
 20
9.793574782258574
 30
0.0
 10
117.4751602564103
 20
9.837179487179478
 30
0.0
  0
LINE
  5
13B
330
1F
100
AcDbEntity
  8
0
  6
Continuous
 62
     7
370
    15
100
AcDbLine
 10
117.4751602564
 20
9.8371794872
 30
0.0
 11
117.7600961538
 21
9.8371794872
 31
0.0
  0
SPLINE
  5
13C
330
1F
100
AcDbEntity
  8
0
  6
Continuous
 62
     7
370
    15
100
AcDbSpline
210
0.0
220
0.0
230
1.0
 70
     8
 71
     3
 72
    15
 73
    11
 74
     0
 42
0.000000001
 43
0.00000001
 40
0.0
 40
0.0
 40
0.0
 40
0.0
 40
0.1247164867023033
 40
0.2438053739155052
 40
0.360061534064442
 40
0.4751119996584022
 40
0.5935250978119095
 40
0.7193501703843527
 40
0.8538547713042595
 40
0.9999999999999999
 40
0.9999999999999999
 40
0.9999999999999999
 40
0.9999999999999999
 10
117.7600961538461
 20
9.837179487179478
 30
0.0
 10
117.7830125865732
 20
9.800797728443081
 30
0.0
 10
117.8278113906252
 20
9.729675870162998
 30
0.0
 10
117.9115846555023
 20
9.637588935850692
 30
0.0
 10
118.003393251546
 20
9.558891240741378
 30
0.0
 10
118.1063355355776
 20
9.495472181411234
 30
0.0
 10
118.2208398381263
 20
9.447656870639683
 30
0.0
 10
118.3469750462944
 20
9.413570708872758
 30
0.0
 10
118.4857675602968
 20
9.393163381081637
 30
0.0
 10
118.5823947974485
 20
9.390703849968585
 30
0.0
 10
118.6327123397436
 20
9.389423076923068
 30
0.0
  0
SPLINE
  5
13D
330
1F
100
AcDbEntity
  8
0
  6
Continuous
 62
     7
370
    15
100
AcDbSpline
210
0.0
220
0.0
230
1.0
 70
     8
 71
     3
 72
    23
 73
    19
 74
     0
 42
0.000000001
 43
0.00000001
 40
0.0
 40
0.0
 40
0.0
 40
0.0
 40
0.0981712978276953
 40
0.1892644356875805
 40
0.2744630560180384
 40
0.3550231712817347
 40
0.4309204620429336
 40
0.5010860453857492
 40
0.5666076270375985
 40
0.6297208634282984
 40
0.6627106951128596
 40
0.6987655616316139
 40
0.7386105373889628
 40
0.7825812280784427
 40
0.8304087872491269
 40
0.8825778660702768
 40
0.9392286810451788
 40
0.9999999999999999
 40
0.9999999999999999
 40
0.9999999999999999
 40
0.9999999999999999
 10
118.6327123397436
 20
9.38942307692307
 30
0.0
 10
118.682393733127
 20
9.39072042618716
 30
0.0
 10
118.7781744866766
 20
9.393221585709245
 30
0.0
 10
118.9159070471678
 20
9.413579816494467
 30
0.0
 10
119.0416324552722
 20
9.447664288549735
 30
0.0
 10
119.1546263515553
 20
9.495387610358744
 30
0.0
 10
119.2535555130142
 20
9.553853336286583
 30
0.0
 10
119.3388378193937
 20
9.619167689501191
 30
0.0
 10
119.407911918466
 20
9.692810456521551
 30
0.0
 10
119.4543693953735
 20
9.760648237760998
 30
0.0
 10
119.4832479413382
 20
9.821085841128921
 30
0.0
 10
119.5016377561185
 20
9.873112838890444
 30
0.0
 10
119.5165819998378
 20
9.931943663627074
 30
0.0
 10
119.5290822810309
 20
9.997381081486118
 30
0.0
 10
119.539397323875
 20
10.06951858468276
 30
0.0
 10
119.5459313671474
 20
10.1485211148871
 30
0.0
 10
119.5506537819308
 20
10.23420912370767
 30
0.0
 10
119.5509621831506
 20
10.29362075622643
 30
0.0
 10
119.5511217948718
 20
10.32436899038461
 30
0.0
  0
LINE
  5
13E
330
1F
100
AcDbEntity
  8
0
  6
Continuous
 62
     7
370
    15
100
AcDbLine
 10
119.5511217949
 20
10.3243689904
 30
0.0
 11
119.5511217949
 21
10.4445763221
 31
0.0
  0
SPLINE
  5
13F
330
1F
100
AcDbEntity
  8
0
  6
Continuous
 62
     7
370
    15
100
AcDbSpline
210
0.0
220
0.0
230
1.0
 70
     8
 71
     3
 72
    15
 73
    11
 74
     0
 42
0.000000001
 43
0.00000001
 40
0.0
 40
0.0
 40
0.0
 40
0.0
 40
0.1265607130145264
 40
0.2508952618879465
 40
0.3747192653150433
 40
0.4998264235934686
 40
0.6249635314328588
 40
0.7490394747387297
 40
0.8731801199413558
 40
1.0
 40
1.0
 40
1.0
 40
1.0
 10
119.5511217948718
 20
10.44457632211538
 30
0.0
 10
119.5222010669423
 20
10.41015768730138
 30
0.0
 10
119.4648683178213
 20
10.34192583090775
 30
0.0
 10
119.3658560996366
 20
10.25251634619329
 30
0.0
 10
119.2577093261722
 20
10.17551249941989
 30
0.0
 10
119.1406121127073
 20
10.11235845239725
 30
0.0
 10
119.017432778749
 20
10.06184744578739
 30
0.0
 10
118.8895054697275
 20
10.02652061696844
 30
0.0
 10
118.7579769625093
 20
10.00369699349648
 30
0.0
 10
118.6688482265969
 20
10.00124107091103
 30
0.0
 10
118.6238080929487
 20
9.999999999999991
 30
0.0
  0
SPLINE
  5
140
330
1F
100
AcDbEntity
  8
0
  6
Continuous
 62
     7
370
    15
100
AcDbSpline
210
0.0
220
0.0
230
1.0
 70
     8
 71
     3
 72
    31
 73
    27
 74
     0
 42
0.000000001
 43
0.00000001
 40
0.0
 40
0.0
 40
0.0
 40
0.0
 40
0.0428647590311891
 40
0.0852222575672289
 40
0.1272022841437366
 40
0.1690253126085974
 40
0.2108820330997074
 40
0.2529626777271214
 40
0.2956282851000465
 40
0.3385532936306077
 40
0.3814632477171886
 40
0.4235815621432648
 40
0.4650661653954496
 40
0.5063122188418614
 40
0.5470395054616125
 40
0.5876758328931694
 40
0.6286747862975582
 40
0.6699464646027584
 40
0.7110355744560757
 40
0.7519958286352152
 40
0.7926726074835032
 40
0.8334460178854418
 40
0.8741906070422422
 40
0.9154935830294665
 40
0.9574778068391475
 40
1.0
 40
1.0
 40
1.0
 40
1.0
 10
118.6238080929487
 20
9.999999999999991
 30
0.0
 10
118.5972866199735
 20
10.00046720258391
 30
0.0
 10
118.5445575284764
 20
10.00139607888795
 30
0.0
 10
118.4662214363442
 20
10.00952296983788
 30
0.0
 10
118.389041324432
 20
10.0213146860619
 30
0.0
 10
118.3131971932847
 20
10.03862427714001
 30
0.0
 10
118.2385796014312
 20
10.06084177192876
 30
0.0
 10
118.1653118571496
 20
10.08861552779438
 30
0.0
 10
118.0928007294784
 20
10.12001638507919
 30
0.0
 10
118.0223642635609
 20
10.15700314248451
 30
0.0
 10
117.9547039878233
 20
10.19815323513607
 30
0.0
 10
117.8903302413076
 20
10.24272922885167
 30
0.0
 10
117.8295802094211
 20
10.29049781889923
 30
0.0
 10
117.7730321082776
 20
10.34193004285717
 30
0.0
 10
117.7207601134633
 20
10.39695146186299
 30
0.0
 10
117.6720611760136
 20
10.454975542114
 30
0.0
 10
117.6277405826029
 20
10.51681251462027
 30
0.0
 10
117.5868888652204
 20
10.58133482609679
 30
0.0
 10
117.5514580873819
 20
10.6489722355544
 30
0.0
 10
117.520357264369
 20
10.71825807926385
 30
0.0
 10
117.4933158755106
 20
10.78904420940416
 30
0.0
 10
117.4717572610782
 20
10.86156761624076
 30
0.0
 10
117.4552916083263
 20
10.93578257799795
 30
0.0
 10
117.4430359024148
 20
11.0115675137603
 30
0.0
 10
117.4360845286985
 20
11.08915579396756
 30
0.0
 10
117.4350005618869
 20
11.14142658930845
 30
0.0
 10
117.4344551282051
 20
11.16772836538461
 30
0.0
  0
SPLINE
  5
141
330
1F
100
AcDbEntity
  8
0
  6
Continuous
 62
     7
370
    15
100
AcDbSpline
210
0.0
220
0.0
230
1.0
 70
     8
 71
     3
 72
    31
 73
    27
 74
     0
 42
0.000000001
 43
0.00000001
 40
0.0
 40
0.0
 40
0.0
 40
0.0
 40
0.042034118663846
 40
0.0839054330862331
 40
0.1250689344486248
 40
0.1661584697031398
 40
0.2072102728707285
 40
0.248490732056254
 40
0.289878112232792
 40
0.3321695142040886
 40
0.374475842153922
 40
0.4162249804562078
 40
0.4576095869585026
 40
0.4990731704672243
 40
0.540553361553446
 40
0.5822488491953597
 40
0.6245497501259976
 40
0.6674328009210315
 40
0.7103225433055336
 40
0.7524671185698653
 40
0.7940647568438071
 40
0.835215707295008
 40
0.8762283442246862
 40
0.9174461887061487
 40
0.9586431404713226
 40
1.0
 40
1.0
 40
1.0
 40
1.0
 10
117.4344551282051
 20
11.16772836538461
 30
0.0
 10
117.4349260861837
 20
11.19403831675523
 30
0.0
 10
117.4358661780521
 20
11.24655631723681
 30
0.0
 10
117.4439859950351
 20
11.32446118826686
 30
0.0
 10
117.4555685668699
 20
11.40132289023629
 30
0.0
 10
117.4738999001733
 20
11.47634917591408
 30
0.0
 10
117.4959639027368
 20
11.55039448644229
 30
0.0
 10
117.5232902864137
 20
11.62291190047269
 30
0.0
 10
117.5561458752407
 20
11.69392350516282
 30
0.0
 10
117.593347576733
 20
11.76348188725972
 30
0.0
 10
117.6351524322097
 20
11.83065365223598
 30
0.0
 10
117.6809926112275
 20
11.89444996673523
 30
0.0
 10
117.730923454306
 20
11.95440137983942
 30
0.0
 10
117.7842561206187
 20
12.01111270539145
 30
0.0
 10
117.8416418117891
 20
12.06403677423783
 30
0.0
 10
117.9030508405595
 20
12.11304513523928
 30
0.0
 10
117.9678778819258
 20
12.15895928764092
 30
0.0
 10
118.0363238515649
 20
12.20078885777987
 30
0.0
 10
118.1073326254337
 20
12.23778418140868
 30
0.0
 10
118.1791001601457
 20
12.27154132290463
 30
0.0
 10
118.2525771304861
 20
12.29833298847839
 30
0.0
 10
118.3263936483921
 20
12.32193965688917
 30
0.0
 10
118.4018497139271
 20
12.33866301255288
 30
0.0
 10
118.4780201352846
 20
12.35156461772113
 30
0.0
 10
118.555165684534
 20
12.35942475750836
 30
0.0
 10
118.60683009647
 20
12.36040590959979
 30
0.0
 10
118.6327123397436
 20
12.36089743589743
 30
0.0
  0
SPLINE
  5
142
330
1F
100
AcDbEntity
  8
0
  6
Continuous
 62
     7
370
    15
100
AcDbSpline
210
0.0
220
0.0
230
1.0
 70
     8
 71
     3
 72
    23
 73
    19
 74
     0
 42
0.000000001
 43
0.00000001
 40
0.0
 40
0.0
 40
0.0
 40
0.0
 40
0.0683846151037683
 40
0.1344755875434522
 40
0.1983910577839538
 40
0.2607534774484859
 40
0.3218292228076516
 40
0.3830372384795195
 40
0.444653123106426
 40
0.5073980112040091
 40
0.5698252379730236
 40
0.6307776406313147
 40
0.6909286865237128
 40
0.7509451326917347
 40
0.8110494767293212
 40
0.8723308525469916
 40
0.9350040935893994
 40
1.0
 40
1.0
 40
1.0
 40
1.0
 10
129.8902243589744
 20
11.09903846153846
 30
0.0
 10
129.8916210019494
 20
11.06846732611429
 30
0.0
 10
129.894367444031
 20
11.0083504212842
 30
0.0
 10
129.907171895332
 20
10.92038406805939
 30
0.0
 10
129.9273547115415
 20
10.83658825052524
 30
0.0
 10
129.9557202183635
 20
10.75759149102073
 30
0.0
 10
129.9900708565591
 20
10.6823620182033
 30
0.0
 10
130.0321493282148
 20
10.61145788466746
 30
0.0
 10
130.0823502093003
 20
10.5452020481222
 30
0.0
 10
130.138344236599
 20
10.48300185901987
 30
0.0
 10
130.2006713873677
 20
10.42761102567487
 30
0.0
 10
130.2662421652041
 20
10.37803405723379
 30
0.0
 10
130.3359956134443
 20
10.33648183734357
 30
0.0
 10
130.4093817320424
 20
10.30275436592439
 30
0.0
 10
130.4862818514231
 20
10.27635077921362
 30
0.0
 10
130.5667201998496
 20
10.25832782759411
 30
0.0
 10
130.6505384911142
 20
10.24625638064334
 30
0.0
 10
130.707675549844
 20
10.24491411292572
 30
0.0
 10
130.7367638221154
 20
10.24423076923076
 30
0.0
  0
SPLINE
  5
143
330
1F
100
AcDbEntity
  8
0
  6
Continuous
 62
     7
370
    15
100
AcDbSpline
210
0.0
220
0.0
230
1.0
 70
     8
 71
     3
 72
    19
 73
    15
 74
     0
 42
0.000000001
 43
0.00000001
 40
0.0
 40
0.0
 40
0.0
 40
0.0
 40
0.0825922633314241
 40
0.1638788940984792
 40
0.2456587396295088
 40
0.3277256953541289
 40
0.4086099609103128
 40
0.4857490859539325
 40
0.5591690561972843
 40
0.6302684758575516
 40
0.7053060284320597
 40
0.7920649660965958
 40
0.8897964374100853
 40
1.0
 40
1.0
 40
1.0
 40
1.0
 10
130.7367638221154
 20
10.24423076923076
 30
0.0
 10
130.7652037917276
 20
10.24478236348653
 30
0.0
 10
130.821634147069
 20
10.24587683230212
 30
0.0
 10
130.9056726390874
 20
10.25651935148569
 30
0.0
 10
130.9883492103712
 20
10.27372810151338
 30
0.0
 10
131.0693216737637
 20
10.29721402108927
 30
0.0
 10
131.1469466554167
 20
10.32585873692896
 30
0.0
 10
131.2188336901151
 20
10.36042347208205
 30
0.0
 10
131.2849464571474
 20
10.39865931377027
 30
0.0
 10
131.3467382768364
 20
10.44239237613563
 30
0.0
 10
131.40667410652
 20
10.49592123148836
 30
0.0
 10
131.4661305049105
 20
10.56271934981371
 30
0.0
 10
131.5298814690329
 20
10.64172017858883
 30
0.0
 10
131.569786313879
 20
10.70117946129738
 30
0.0
 10
131.5909354967949
 20
10.7326923076923
 30
0.0
  0
LINE
  5
144
330
1F
100
AcDbEntity
  8
0
  6
Continuous
 62
     7
370
    15
100
AcDbLine
 10
131.5909354968
 20
10.7326923077
 30
0.0
 11
131.8440705128
 21
10.5997646234
 31
0.0
  0
SPLINE
  5
145
330
1F
100
AcDbEntity
  8
0
  6
Continuous
 62
     7
370
    15
100
AcDbSpline
210
0.0
220
0.0
230
1.0
 70
     8
 71
     3
 72
    19
 73
    15
 74
     0
 42
0.000000001
 43
0.00000001
 40
0.0
 40
0.0
 40
0.0
 40
0.0
 40
0.0933698567362019
 40
0.1816607660710118
 40
0.2658742270426184
 40
0.3463547840343196
 40
0.4245998617178918
 40
0.5019031838373846
 40
0.5799920909873517
 40
0.6584434305294391
 40
0.7386722364878308
 40
0.8218941484362524
 40
0.9088007920466179
 40
1.0
 40
1.0
 40
1.0
 40
1.0
 10
131.8440705128205
 20
10.59976462339743
 30
0.0
 10
131.8238987442815
 20
10.5639838871691
 30
0.0
 10
131.7846524708703
 20
10.49436874389875
 30
0.0
 10
131.7171603638551
 20
10.39872698475624
 30
0.0
 10
131.646410412302
 20
10.31268655681677
 30
0.0
 10
131.5692089556131
 20
10.23854608471641
 30
0.0
 10
131.4878657468477
 20
10.1739108997755
 30
0.0
 10
131.4019296957206
 20
10.11736158735191
 30
0.0
 10
131.3109534110608
 20
10.06917550103819
 30
0.0
 10
131.2149325892976
 20
10.02857856503933
 30
0.0
 10
131.1130608536192
 20
9.997364238241417
 30
0.0
 10
131.0050913351616
 20
9.975316837834514
 30
0.0
 10
130.8908171929251
 20
9.961688586987327
 30
0.0
 10
130.8124888726165
 20
9.96010549499671
 30
0.0
 10
130.7723808092949
 20
9.959294871794866
 30
0.0
  0
SPLINE
  5
146
330
1F
100
AcDbEntity
  8
0
  6
Continuous
 62
     7
370
    15
100
AcDbSpline
210
0.0
220
0.0
230
1.0
 70
     8
 71
     3
 72
    23
 73
    19
 74
     0
 42
0.000000001
 43
0.00000001
 40
0.0
 40
0.0
 40
0.0
 40
0.0
 40
0.0715786576891423
 40
0.1396292246928492
 40
0.2047966973966681
 40
0.2681349633966843
 40
0.3298137469867347
 40
0.3913013977745654
 40
0.4534335150970589
 40
0.5165516903197732
 40
0.5796312707049229
 40
0.6411189214927562
 40
0.7012940466987764
 40
0.7608103356761373
 40
0.819931721778144
 40
0.8789195754993845
 40
0.9389828222504475
 40
1.0
 40
1.0
 40
1.0
 40
1.0
 10
130.7723808092949
 20
9.959294871794866
 30
0.0
 10
130.7278020153877
 20
9.960335523700977
 30
0.0
 10
130.6408417030272
 20
9.962365534091179
 30
0.0
 10
130.5142592181463
 20
9.979866555399594
 30
0.0
 10
130.3950793171713
 20
10.00841648078599
 30
0.0
 10
130.2833087005577
 20
10.04829950771022
 30
0.0
 10
130.1792210857195
 20
10.10039429456355
 30
0.0
 10
130.0826095959973
 20
10.16385753877121
 30
0.0
 10
129.992966168959
 20
10.23836322695297
 30
0.0
 10
129.913115636341
 20
10.32455671497328
 30
0.0
 10
129.841230114168
 20
10.41679677623413
 30
0.0
 10
129.7777974060471
 20
10.51291390001782
 30
0.0
 10
129.7247681650238
 20
10.61266625364774
 30
0.0
 10
129.6816311543462
 20
10.71541880045867
 30
0.0
 10
129.6467924554093
 20
10.82052390388709
 30
0.0
 10
129.6225112312759
 20
10.92893787803915
 30
0.0
 10
129.6085142456064
 20
11.0403673008856
 30
0.0
 10
129.6063693557261
 20
11.11574845542957
 30
0.0
 10
129.6052884615385
 20
11.1537359775641
 30
0.0
  0
SPLINE
  5
147
330
1F
100
AcDbEntity
  8
0
  6
Continuous
 62
     7
370
    15
100
AcDbSpline
210
0.0
220
0.0
230
1.0
 70
     8
 71
     3
 72
    15
 73
    11
 74
     0
 42
0.000000001
 43
0.00000001
 40
0.0
 40
0.0
 40
0.0
 40
0.0
 40
0.128044807961119
 40
0.2537679000244887
 40
0.3774284265813019
 40
0.5005508414825333
 40
0.6232958832424751
 40
0.7465783319335029
 40
0.8723475406047054
 40
1.0
 40
1.0
 40
1.0
 40
1.0
 10
129.6052884615385
 20
11.1537359775641
 30
0.0
 10
129.6062492540312
 20
11.18938200230004
 30
0.0
 10
129.6081534178714
 20
11.26002771598027
 30
0.0
 10
129.62015563215
 20
11.3645900313756
 30
0.0
 10
129.6414265837189
 20
11.46621584188365
 30
0.0
 10
129.6706151061584
 20
11.56498959111256
 30
0.0
 10
129.708308022339
 20
11.66074589836955
 30
0.0
 10
129.7544201069136
 20
11.75354304179912
 30
0.0
 10
129.8090231924792
 20
11.84328227581541
 30
0.0
 10
129.8511805465297
 20
11.89989083282178
 30
0.0
 10
129.8724158653847
 20
11.92840544871794
 30
0.0
  0
SPLINE
  5
148
330
1F
100
AcDbEntity
  8
0
  6
Continuous
 62
     7
370
    15
100
AcDbSpline
210
0.0
220
0.0
230
1.0
 70
     8
 71
     3
 72
    15
 73
    11
 74
     0
 42
0.000000001
 43
0.00000001
 40
0.0
 40
0.0
 40
0.0
 40
0.0
 40
0.1288352544875554
 40
0.2535893349864604
 40
0.3746432573141587
 40
0.4953400422377849
 40
0.6163247746357895
 40
0.7397593354404955
 40
0.8668423203805368
 40
1.0
 40
1.0
 40
1.0
 40
1.0
 10
129.8724158653847
 20
11.92840544871794
 30
0.0
 10
129.9011792633313
 20
11.96275792372639
 30
0.0
 10
129.9577949077545
 20
12.03037467449217
 30
0.0
 10
130.0535496015398
 20
12.11921872716552
 30
0.0
 10
130.1572362082218
 20
12.19364415179041
 30
0.0
 10
130.2675553261841
 20
12.25533633957294
 30
0.0
 10
130.3857891276534
 20
12.30221171934496
 30
0.0
 10
130.5103482702374
 20
12.33714359751282
 30
0.0
 10
130.6426510520287
 20
12.35671793609299
 30
0.0
 10
130.7330979309319
 20
12.35948275659295
 30
0.0
 10
130.7793770032052
 20
12.36089743589743
 30
0.0
  0
SPLINE
  5
149
330
1F
100
AcDbEntity
  8
0
  6
Continuous
 62
     7
370
    15
100
AcDbSpline
210
0.0
220
0.0
230
1.0
 70
     8
 71
     3
 72
    15
 73
    11
 74
     0
 42
0.000000001
 43
0.00000001
 40
0.0
 40
0.0
 40
0.0
 40
0.0
 40
0.1320402344259799
 40
0.2590328407793645
 40
0.3818798239250089
 40
0.5022584437149753
 40
0.6227521895274665
 40
0.7447426318590069
 40
0.8701089273418204
 40
1.0
 40
1.0
 40
1.0
 40
1.0
 10
130.7793770032052
 20
12.36089743589743
 30
0.0
 10
130.8269544737306
 20
12.35966912011638
 30
0.0
 10
130.9202906254036
 20
12.35725944455404
 30
0.0
 10
131.0563911923441
 20
12.33491984210439
 30
0.0
 10
131.1851698423488
 20
12.29949359617903
 30
0.0
 10
131.306575042686
 20
12.24946122908211
 30
0.0
 10
131.4206191020833
 20
12.18490934995799
 30
0.0
 10
131.5265607327688
 20
12.10495210804313
 30
0.0
 10
131.6262117477239
 20
12.01204427177467
 30
0.0
 10
131.6841859585397
 20
11.94059478893706
 30
0.0
 10
131.7136868990385
 20
11.90423677884615
 30
0.0
  0
SPLINE
  5
14A
330
1F
100
AcDbEntity
  8
0
  6
Continuous
 62
     7
370
    15
100
AcDbSpline
210
0.0
220
0.0
230
1.0
 70
     8
 71
     3
 72
    15
 73
    11
 74
     0
 42
0.000000001
 43
0.00000001
 40
0.0
 40
0.0
 40
0.0
 40
0.0
 40
0.1185218400132627
 40
0.2362547631617526
 40
0.3561744339909396
 40
0.4772496548985591
 40
0.6015398708217041
 40
0.7296183821680466
 40
0.8621582661414393
 40
1.0
 40
1.0
 40
1.0
 40
1.0
 10
131.7136868990385
 20
11.90423677884615
 30
0.0
 10
131.7337591930791
 20
11.87683781573144
 30
0.0
 10
131.7737701739595
 20
11.82222226520659
 30
0.0
 10
131.8238871861342
 20
11.73316700126526
 30
0.0
 10
131.8673913944408
 20
11.63999381924763
 30
0.0
 10
131.9021648662185
 20
11.54119662117584
 30
0.0
 10
131.9303221280182
 20
11.43794600201897
 30
0.0
 10
131.9506936707325
 20
11.3295038364567
 30
0.0
 10
131.9626403961604
 20
11.21590241686507
 30
0.0
 10
131.9649887144693
 20
11.13849904153977
 30
0.0
 10
131.9661858974359
 20
11.09903846153846
 30
0.0
  0
LINE
  5
14B
330
1F
100
AcDbEntity
  8
0
  6
Continuous
 62
     7
370
    15
100
AcDbLine
 10
131.9661858974
 20
11.0990384615
 30
0.0
 11
129.890224359
 21
11.0990384615
 31
0.0
  0
LINE
  5
14C
330
1F
100
AcDbEntity
  8
0
  6
Continuous
 62
     7
370
    15
100
AcDbLine
 10
132.7395833333
 20
10.0
 30
0.0
 11
132.4546474359
 21
10.0
 31
0.0
  0
LINE
  5
14D
330
1F
100
AcDbEntity
  8
0
  6
Continuous
 62
     7
370
    15
100
AcDbLine
 10
132.4546474359
 20
10.0
 30
0.0
 11
132.4546474359
 21
12.3201923077
 31
0.0
  0
LINE
  5
14E
330
1F
100
AcDbEntity
  8
0
  6
Continuous
 62
     7
370
    15
100
AcDbLine
 10
132.4546474359
 20
12.3201923077
 30
0.0
 11
132.7395833333
 21
12.3201923077
 31
0.0
  0
LINE
  5
14F
330
1F
100
AcDbEntity
  8
0
  6
Continuous
 62
     7
370
    15
100
AcDbLine
 10
132.7395833333
 20
12.3201923077
 30
0.0
 11
132.7395833333
 21
11.9786508413
 31
0.0
  0
SPLINE
  5
150
330
1F
100
AcDbEntity
  8
0
  6
Continuous
 62
     7
370
    15
100
AcDbSpline
210
0.0
220
0.0
230
1.0
 70
     8
 71
     3
 72
    15
 73
    11
 74
     0
 42
0.000000001
 43
0.00000001
 40
0.0
 40
0.0
 40
0.0
 40
0.0
 40
0.1600594124855001
 40
0.3061123827401339
 40
0.4383665141302093
 40
0.56054145525521
 40
0.675317224952707
 40
0.7861136344281857
 40
0.8928417881050972
 40
1.0
 40
1.0
 40
1.0
 40
1.0
 10
132.7395833333333
 20
11.97865084134615
 30
0.0
 10
132.7606188502006
 20
12.01045148561321
 30
0.0
 10
132.8008491127663
 20
12.07126997068757
 30
0.0
 10
132.8677172701086
 20
12.15170569373017
 30
0.0
 10
132.9362095777683
 20
12.21830362887052
 30
0.0
 10
133.00665392625
 20
12.27137467804036
 30
0.0
 10
133.0795683454541
 20
12.31111943583054
 30
0.0
 10
133.1533525802269
 20
12.34023240332345
 30
0.0
 10
133.2291674707404
 20
12.35744753928874
 30
0.0
 10
133.2801143591471
 20
12.35974592991428
 30
0.0
 10
133.3056390224359
 20
12.36089743589743
 30
0.0
  0
SPLINE
  5
151
330
1F
100
AcDbEntity
  8
0
  6
Continuous
 62
     7
370
    15
100
AcDbSpline
210
0.0
220
0.0
230
1.0
 70
     8
 71
     3
 72
    11
 73
     7
 74
     0
 42
0.000000001
 43
0.00000001
 40
0.0
 40
0.0
 40
0.0
 40
0.0
 40
0.2252775478670208
 40
0.4635231951764775
 40
0.7203235553269757
 40
1.0
 40
1.0
 40
1.0
 40
1.0
 10
133.3056390224359
 20
12.36089743589743
 30
0.0
 10
133.325438618606
 20
12.35981745820061
 30
0.0
 10
133.3661775744711
 20
12.35759533390332
 30
0.0
 10
133.4278474952221
 20
12.34198265726392
 30
0.0
 10
133.4913869123114
 20
12.31705616537657
 30
0.0
 10
133.5323375064602
 20
12.29361539195903
 30
0.0
 10
133.5536858974359
 20
12.28139523237179
 30
0.0
  0
LINE
  5
152
330
1F
100
AcDbEntity
  8
0
  6
Continuous
 62
     7
370
    15
100
AcDbLine
 10
133.5536858974
 20
12.2813952324
 30
0.0
 11
133.3972255609
 21
12.0346203926
 31
0.0
  0
SPLINE
  5
153
330
1F
100
AcDbEntity
  8
0
  6
Continuous
 62
     7
370
    15
100
AcDbSpline
210
0.0
220
0.0
230
1.0
 70
     8
 71
     3
 72
    11
 73
     7
 74
     0
 42
0.000000001
 43
0.00000001
 40
0.0
 40
0.0
 40
0.0
 40
0.0
 40
0.295138801369311
 40
0.5602299448881756
 40
0.7949833567409171
 40
1.0
 40
1.0
 40
1.0
 40
1.0
 10
133.3972255608974
 20
12.0346203926282
 30
0.0
 10
133.3835195202884
 20
12.04073477688979
 30
0.0
 10
133.3575028313967
 20
12.0523410487253
 30
0.0
 10
133.3194440462816
 20
12.06607701505936
 30
0.0
 10
133.2843545479614
 20
12.07416502443587
 30
0.0
 10
133.2619993200179
 20
12.07539031812457
 30
0.0
 10
133.2515775240385
 20
12.07596153846153
 30
0.0
  0
SPLINE
  5
154
330
1F
100
AcDbEntity
  8
0
  6
Continuous
 62
     7
370
    15
100
AcDbSpline
210
0.0
220
0.0
230
1.0
 70
     8
 71
     3
 72
    19
 73
    15
 74
     0
 42
0.000000001
 43
0.00000001
 40
0.0
 40
0.0
 40
0.0
 40
0.0
 40
0.0938065293523269
 40
0.1913381281363307
 40
0.2951906166251684
 40
0.4103123367233041
 40
0.4719302510512777
 40
0.5364251593464349
 40
0.6031187283036407
 40
0.674117672490599
 40
0.7493320232258865
 40
0.8282833841715633
 40
0.9120398092627651
 40
0.9999999999999999
 40
0.9999999999999999
 40
0.9999999999999999
 40
0.9999999999999999
 10
133.2515775240385
 20
12.07596153846153
 30
0.0
 10
133.2287123229249
 20
12.0744375045629
 30
0.0
 10
133.1820739405997
 20
12.07132891718211
 30
0.0
 10
133.1135987161352
 20
12.04689157013635
 30
0.0
 10
133.047153036859
 20
12.00740795946227
 30
0.0
 10
132.9943830288827
 20
11.96361916514042
 30
0.0
 10
132.9535232709177
 20
11.92139366315486
 30
0.0
 10
132.9243674949005
 20
11.88451975511195
 30
0.0
 10
132.8976224315925
 20
11.84317342508259
 30
0.0
 10
132.872068017372
 20
11.79806149763241
 30
0.0
 10
132.8487850219109
 20
11.74841370873173
 30
0.0
 10
132.8270547148475
 20
11.6947260794133
 30
0.0
 10
132.8074070320536
 20
11.63693642688642
 30
0.0
 10
132.7962035962217
 20
11.5966751406866
 30
0.0
 10
132.7904647435898
 20
11.5760516826923
 30
0.0
  0
SPLINE
  5
155
330
1F
100
AcDbEntity
  8
0
  6
Continuous
 62
     7
370
    15
100
AcDbSpline
210
0.0
220
0.0
230
1.0
 70
     8
 71
     3
 72
    15
 73
    11
 74
     0
 42
0.000000001
 43
0.00000001
 40
0.0
 40
0.0
 40
0.0
 40
0.0
 40
0.0708548685015339
 40
0.1569381495573536
 40
0.2586003949600846
 40
0.3758909295892028
 40
0.5081661676989037
 40
0.6562378085782232
 40
0.8201767703979104
 40
1.0
 40
1.0
 40
1.0
 40
1.0
 10
132.7904647435898
 20
11.5760516826923
 30
0.0
 10
132.7861717867514
 20
11.55765738951723
 30
0.0
 10
132.776663213571
 20
11.51691542789396
 30
0.0
 10
132.7674180328128
 20
11.44856355189634
 30
0.0
 10
132.7582835415056
 20
11.36780637573186
 30
0.0
 10
132.7518458948588
 20
11.27441910933035
 30
0.0
 10
132.7458786709291
 20
11.16863496376695
 30
0.0
 10
132.7425130963373
 20
11.05029278452267
 30
0.0
 10
132.7396981045465
 20
10.91927110170096
 30
0.0
 10
132.7396227510279
 20
10.82767293841173
 30
0.0
 10
132.7395833333333
 20
10.77975761217948
 30
0.0
  0
LINE
  5
156
330
1F
100
AcDbEntity
  8
0
  6
Continuous
 62
     7
370
    15
100
AcDbLine
 10
132.7395833333
 20
10.7797576122
 30
0.0
 11
132.7395833333
 21
10.0
 31
0.0
  0
LINE
  5
157
330
1F
100
AcDbEntity
  8
0
  6
Continuous
 62
     7
370
    15
100
AcDbLine
 10
135.8229967949
 20
10.0
 30
0.0
 11
135.7822916667
 21
10.0
 31
0.0
  0
LINE
  5
158
330
1F
100
AcDbEntity
  8
0
  6
Continuous
 62
     7
370
    15
100
AcDbLine
 10
135.7822916667
 20
10.0
 30
0.0
 11
134.9376602564
 21
13.175
 31
0.0
  0
LINE
  5
159
330
1F
100
AcDbEntity
  8
0
  6
Continuous
 62
     7
370
    15
100
AcDbLine
 10
134.9376602564
 20
13.175
 30
0.0
 11
135.2321364183
 21
13.175
 31
0.0
  0
LINE
  5
15A
330
1F
100
AcDbEntity
  8
0
  6
Continuous
 62
     7
370
    15
100
AcDbLine
 10
135.2321364183
 20
13.175
 30
0.0
 11
135.853525641
 21
10.8465394631
 31
0.0
  0
LINE
  5
15B
330
1F
100
AcDbEntity
  8
0
  6
Continuous
 62
     7
370
    15
100
AcDbLine
 10
135.853525641
 20
10.8465394631
 30
0.0
 11
136.7776592548
 21
13.175
 31
0.0
  0
LINE
  5
15C
330
1F
100
AcDbEntity
  8
0
  6
Continuous
 62
     7
370
    15
100
AcDbLine
 10
136.7776592548
 20
13.175
 30
0.0
 11
136.8190004006
 21
13.175
 31
0.0
  0
LINE
  5
15D
330
1F
100
AcDbEntity
  8
0
  6
Continuous
 62
     7
370
    15
100
AcDbLine
 10
136.8190004006
 20
13.175
 30
0.0
 11
137.7259615385
 21
10.8624399038
 31
0.0
  0
LINE
  5
15E
330
1F
100
AcDbEntity
  8
0
  6
Continuous
 62
     7
370
    15
100
AcDbLine
 10
137.7259615385
 20
10.8624399038
 30
0.0
 11
138.3505308494
 21
13.175
 31
0.0
  0
LINE
  5
15F
330
1F
100
AcDbEntity
  8
0
  6
Continuous
 62
     7
370
    15
100
AcDbLine
 10
138.3505308494
 20
13.175
 30
0.0
 11
138.6418269231
 21
13.175
 31
0.0
  0
LINE
  5
160
330
1F
100
AcDbEntity
  8
0
  6
Continuous
 62
     7
370
    15
100
AcDbLine
 10
138.6418269231
 20
13.175
 30
0.0
 11
137.7857471955
 21
10.0
 31
0.0
  0
LINE
  5
161
330
1F
100
AcDbEntity
  8
0
  6
Continuous
 62
     7
370
    15
100
AcDbLine
 10
137.7857471955
 20
10.0
 30
0.0
 11
137.7450420673
 21
10.0
 31
0.0
  0
LINE
  5
162
330
1F
100
AcDbEntity
  8
0
  6
Continuous
 62
     7
370
    15
100
AcDbLine
 10
137.7450420673
 20
10.0
 30
0.0
 11
136.7897435897
 21
12.4283153045
 31
0.0
  0
LINE
  5
163
330
1F
100
AcDbEntity
  8
0
  6
Continuous
 62
     7
370
    15
100
AcDbLine
 10
136.7897435897
 20
12.4283153045
 30
0.0
 11
135.8229967949
 21
10.0
 31
0.0
  0
LINE
  5
164
330
1F
100
AcDbEntity
  8
0
  6
Continuous
 62
     7
370
    15
100
AcDbLine
 10
146.0946814904
 20
10.0
 30
0.0
 11
145.2360576923
 21
10.0
 31
0.0
  0
LINE
  5
165
330
1F
100
AcDbEntity
  8
0
  6
Continuous
 62
     7
370
    15
100
AcDbLine
 10
145.2360576923
 20
10.0
 30
0.0
 11
145.2360576923
 21
13.175
 31
0.0
  0
LINE
  5
166
330
1F
100
AcDbEntity
  8
0
  6
Continuous
 62
     7
370
    15
100
AcDbLine
 10
145.2360576923
 20
13.175
 30
0.0
 11
145.8555388622
 21
13.175
 31
0.0
  0
SPLINE
  5
167
330
1F
100
AcDbEntity
  8
0
  6
Continuous
 62
     7
370
    15
100
AcDbSpline
210
0.0
220
0.0
230
1.0
 70
     8
 71
     3
 72
    23
 73
    19
 74
     0
 42
0.000000001
 43
0.00000001
 40
0.0
 40
0.0
 40
0.0
 40
0.0
 40
0.0625940971873276
 40
0.1213229386347557
 40
0.1766801421977574
 40
0.2283650957096671
 40
0.2768684458368118
 40
0.3218791276660403
 40
0.3640986251098891
 40
0.4033556962426971
 40
0.4779679481633695
 40
0.5505354613647685
 40
0.6235844567403172
 40
0.6981748822642029
 40
0.773353670340876
 40
0.8472811254977345
 40
0.9228183395566704
 40
1.0
 40
1.0
 40
1.0
 40
1.0
 10
145.8555388621795
 20
13.175
 30
0.0
 10
145.8858632673927
 20
13.17484056927839
 30
0.0
 10
145.9446395117693
 20
13.17453155286116
 30
0.0
 10
146.0301100054282
 20
13.16973899817783
 30
0.0
 10
146.1101642836522
 20
13.16320424050221
 30
0.0
 10
146.1848255628558
 20
13.15283551360353
 30
0.0
 10
146.254059342882
 20
13.14032440147883
 30
0.0
 10
146.3180742709478
 20
13.12517346831117
 30
0.0
 10
146.3766667843626
 20
13.10700646877764
 30
0.0
 10
146.4466190523881
 20
13.07811734223104
 30
0.0
 10
146.5263756518997
 20
13.03518846808525
 30
0.0
 10
146.6127341938517
 20
12.97175326970005
 30
0.0
 10
146.6865794681277
 20
12.89416310672657
 30
0.0
 10
146.7502484844819
 20
12.80663955502023
 30
0.0
 10
146.8008680715579
 20
12.71035924778895
 30
0.0
 10
146.8374887912657
 20
12.60761698368363
 30
0.0
 10
146.860673435341
 20
12.49973797494233
 30
0.0
 10
146.8630578006654
 20
12.42567594929501
 30
0.0
 10
146.8642628205128
 20
12.38824619391025
 30
0.0
  0
SPLINE
  5
168
330
1F
100
AcDbEntity
  8
0
  6
Continuous
 62
     7
370
    15
100
AcDbSpline
210
0.0
220
0.0
230
1.0
 70
     8
 71
     3
 72
    15
 73
    11
 74
     0
 42
0.000000001
 43
0.00000001
 40
0.0
 40
0.0
 40
0.0
 40
0.0
 40
0.1305691070873067
 40
0.2565806086940832
 40
0.3805516168036842
 40
0.5036229172007012
 40
0.6257393231697796
 40
0.74754858195961
 40
0.8717661185648553
 40
1.0
 40
1.0
 40
1.0
 40
1.0
 10
146.8642628205128
 20
12.38824619391025
 30
0.0
 10
146.8632711152113
 20
12.35318280411667
 30
0.0
 10
146.8613223207716
 20
12.28427993653332
 30
0.0
 10
146.8426871033769
 20
12.18350170882602
 30
0.0
 10
146.8135127827209
 20
12.08757024603264
 30
0.0
 10
146.7729587352651
 20
11.99683565354731
 30
0.0
 10
146.7202519244283
 20
11.91334801876519
 30
0.0
 10
146.6577875924964
 20
11.83643385599575
 30
0.0
 10
146.5824250645224
 20
11.76934968286461
 30
0.0
 10
146.5259615539619
 20
11.73184576412217
 30
0.0
 10
146.4972806490384
 20
11.7127954727564
 30
0.0
  0
SPLINE
  5
169
330
1F
100
AcDbEntity
  8
0
  6
Continuous
 62
     7
370
    15
100
AcDbSpline
210
0.0
220
0.0
230
1.0
 70
     8
 71
     3
 72
    19
 73
    15
 74
     0
 42
0.000000001
 43
0.00000001
 40
0.0
 40
0.0
 40
0.0
 40
0.0
 40
0.1060574933034093
 40
0.2029142570846059
 40
0.2903001653958359
 40
0.3702225656250361
 40
0.4463837207709682
 40
0.521396899964828
 40
0.598291082846457
 40
0.6761424688569287
 40
0.7555286995560215
 40
0.8348871724576581
 40
0.9166460487466429
 40
1.0
 40
1.0
 40
1.0
 40
1.0
 10
146.4972806490384
 20
11.71279547275641
 30
0.0
 10
146.533349036928
 20
11.69894793800313
 30
0.0
 10
146.6023567977649
 20
11.6724541737306
 30
0.0
 10
146.6973219661854
 20
11.62561343139041
 30
0.0
 10
146.7791415755747
 20
11.57466637410681
 30
0.0
 10
146.8484447008613
 20
11.5190296243336
 30
0.0
 10
146.9077152878214
 20
11.45905948883114
 30
0.0
 10
146.9594704562482
 20
11.39387663519156
 30
0.0
 10
147.0036314170943
 20
11.32263076197421
 30
0.0
 10
147.0414709977572
 20
11.2460646977526
 30
0.0
 10
147.0709973692953
 20
11.16496025860029
 30
0.0
 10
147.0931097968307
 20
11.08007819742624
 30
0.0
 10
147.1057802685468
 20
10.99172288664279
 30
0.0
 10
147.1075833431349
 20
10.93159257824288
 30
0.0
 10
147.1084935897435
 20
10.90123697916666
 30
0.0
  0
SPLINE
  5
16A
330
1F
100
AcDbEntity
  8
0
  6
Continuous
 62
     7
370
    15
100
AcDbSpline
210
0.0
220
0.0
230
1.0
 70
     8
 71
     3
 72
    23
 73
    19
 74
     0
 42
0.000000001
 43
0.00000001
 40
0.0
 40
0.0
 40
0.0
 40
0.0
 40
0.0611602766365173
 40
0.1203345577262033
 40
0.178180255063126
 40
0.2352351259863649
 40
0.2926829614441794
 40
0.351186248215084
 40
0.4104566095096922
 40
0.4717198544629987
 40
0.5337612027725825
 40
0.5957390238870969
 40
0.657887515124884
 40
0.7212951802914611
 40
0.7868225145418926
 40
0.8546861538286763
 40
0.9254779862700002
 40
1.0
 40
1.0
 40
1.0
 40
1.0
 10
147.1084935897435
 20
10.90123697916666
 30
0.0
 10
147.107607450851
 20
10.87024274517038
 30
0.0
 10
147.105863947754
 20
10.80926072145962
 30
0.0
 10
147.0930006876241
 20
10.71967570654595
 30
0.0
 10
147.071220997711
 20
10.63406414783291
 30
0.0
 10
147.0412207435087
 20
10.55187230352264
 30
0.0
 10
147.0020663581231
 20
10.47325918153852
 30
0.0
 10
146.9544159904796
 20
10.39813572063649
 30
0.0
 10
146.8976002149074
 20
10.32725672072318
 30
0.0
 10
146.8340431837868
 20
10.25983457690833
 30
0.0
 10
146.7621410946649
 20
10.19921222696439
 30
0.0
 10
146.6845660884138
 20
10.14522297876064
 30
0.0
 10
146.6003412125102
 20
10.1008219081273
 30
0.0
 10
146.5108497607952
 20
10.06352380290686
 30
0.0
 10
146.4150878454631
 20
10.03503298715644
 30
0.0
 10
146.3134854802152
 20
10.01510072369062
 30
0.0
 10
146.206130292122
 20
10.00167044012761
 30
0.0
 10
146.1324614464709
 20
10.00056626140148
 30
0.0
 10
146.0946814903846
 20
9.999999999999996
 30
0.0
  0
MTEXT
  5
16C
330
1F
100
AcDbEntity
  8
0
  6
Continuous
 62
     7
100
AcDbMText
 10
-6.8
 20
-4.4195663917
 30
0.0
 40
4.83362
 41
0.0
 71
     1
 72
     1
  1
SOLIDWORKS Educational Product.
  7
SLDTEXTSTYLE0
 73
     1
 44
1.0
  0
MTEXT
  5
16D
330
1F
100
AcDbEntity
  8
0
  6
Continuous
 62
     7
100
AcDbMText
 10
-6.8
 20
-11.6699963917
 30
0.0
 40
4.83362
 41
0.0
 71
     1
 72
     1
  1
For Instructional Use Only.
  7
SLDTEXTSTYLE0
 73
     1
 44
1.0
  0
ENDSEC
  0
SECTION
  2
OBJECTS
  0
DICTIONARY
  5
C
330
0
100
AcDbDictionary
281
     1
  3
ACAD_GROUP
350
D
  3
ACAD_LAYOUT
350
1A
  3
ACAD_MLINESTYLE
350
17
  3
ACAD_PLOTSETTINGS
350
19
  3
ACAD_PLOTSTYLENAME
350
E
  3
ACAD_SCALELIST
350
47
  0
DICTIONARY
  5
D
102
{ACAD_REACTORS
330
C
102
}
330
C
100
AcDbDictionary
281
     1
  0
DICTIONARY
  5
1A
102
{ACAD_REACTORS
330
C
102
}
330
C
100
AcDbDictionary
281
     1
  3
Layout1
350
1E
  3
Layout2
350
26
  3
Model
350
22
  0
DICTIONARY
  5
17
102
{ACAD_REACTORS
330
C
102
}
330
C
100
AcDbDictionary
281
     1
  3
Standard
350
18
  0
DICTIONARY
  5
19
102
{ACAD_REACTORS
330
C
102
}
330
C
100
AcDbDictionary
281
     1
  0
ACDBDICTIONARYWDFLT
  5
E
102
{ACAD_REACTORS
330
C
102
}
330
C
100
AcDbDictionary
281
     1
  3
Normal
350
F
100
AcDbDictionaryWithDefault
340
F
  0
DICTIONARY
  5
47
102
{ACAD_REACTORS
330
C
102
}
330
C
100
AcDbDictionary
281
     1
  3
A0
350
48
  3
A1
350
49
  3
A2
350
4A
  3
A3
350
4B
  3
A4
350
4C
  3
A5
350
4D
  3
A6
350
4E
  3
A7
350
4F
  3
A8
350
50
  3
A9
350
51
  3
B0
350
52
  3
B1
350
53
  3
B2
350
54
  3
B3
350
55
  3
B4
350
56
  3
B5
350
57
  3
B6
350
58
  3
B7
350
59
  3
B8
350
5A
  3
B9
350
5B
  3
C0
350
5C
  3
C1
350
5D
  3
C2
350
5E
  3
C3
350
5F
  3
C4
350
60
  3
C5
350
61
  3
C6
350
62
  3
C7
350
63
  3
C8
350
64
  3
C9
350
65
  3
D0
350
66
  3
D1
350
67
  3
D2
350
68
  0
LAYOUT
  5
1E
102
{ACAD_REACTORS
330
1A
102
}
330
1A
100
AcDbPlotSettings
  1

  2
none_device
  4

  6

 40
0.0
 41
0.0
 42
0.0
 43
0.0
 44
0.0
 45
0.0
 46
0.0
 47
0.0
 48
0.0
 49
0.0
140
0.0
141
0.0
142
1.0
143
1.0
 70
   688
 72
     1
 73
     0
 74
     5
  7

 75
    16
147
1.0
148
0.0
149
0.0
100
AcDbLayout
  1
Layout1
 70
     1
 71
     1
 10
0.0
 20
0.0
 11
420.0
 21
297.0
 12
0.0
 22
0.0
 32
0.0
 14
1.0000000000E+20
 24
1.0000000000E+20
 34
1.0000000000E+20
 15
-1.0000000000E+20
 25
-1.0000000000E+20
 35
-1.0000000000E+20
146
0.0
 13
0.0
 23
0.0
 33
0.0
 16
1.0
 26
0.0
 36
0.0
 17
0.0
 27
1.0
 37
0.0
 76
     0
330
1B
  0
LAYOUT
  5
26
102
{ACAD_REACTORS
330
1A
102
}
330
1A
100
AcDbPlotSettings
  1

  2
none_device
  4

  6

 40
0.0
 41
0.0
 42
0.0
 43
0.0
 44
0.0
 45
0.0
 46
0.0
 47
0.0
 48
0.0
 49
0.0
140
0.0
141
0.0
142
1.0
143
1.0
 70
   688
 72
     1
 73
     0
 74
     5
  7

 75
    16
147
1.0
148
0.0
149
0.0
100
AcDbLayout
  1
Layout2
 70
     1
 71
     2
 10
0.0
 20
0.0
 11
0.0
 21
0.0
 12
0.0
 22
0.0
 32
0.0
 14
0.0
 24
0.0
 34
0.0
 15
0.0
 25
0.0
 35
0.0
146
0.0
 13
0.0
 23
0.0
 33
0.0
 16
1.0
 26
0.0
 36
0.0
 17
0.0
 27
1.0
 37
0.0
 76
     0
330
23
  0
LAYOUT
  5
22
102
{ACAD_REACTORS
330
1A
102
}
330
1A
100
AcDbPlotSettings
  1

  2
none_device
  4
ANSI_A_(11.00_x_8.50_Inches)
  6

 40
6.35
 41
19.05
 42
6.35000508
 43
19.05000254
 44
279.4
 45
215.9
 46
2.6682324681
 47
59.9841364934
 48
0.0
 49
0.0
140
0.0
141
0.0
142
0.0441247974
143
1.0
 70
  1696
 72
     0
 73
     0
 74
     0
  7

 75
     0
147
0.0179189148
148
-1300.4909072572
149
0.0
100
AcDbLayout
  1
Model
 70
     1
 71
     0
 10
0.0
 20
0.0
 11
420.0
 21
297.0
 12
0.0
 22
0.0
 32
0.0
 14
-6.8
 24
-3.4
 34
0.0
 15
240.0
 25
55.0
 35
0.0
146
0.0
 13
0.0
 23
0.0
 33
0.0
 16
1.0
 26
0.0
 36
0.0
 17
0.0
 27
1.0
 37
0.0
 76
     0
330
1F
331
29
  0
MLINESTYLE
  5
18
102
{ACAD_REACTORS
330
17
102
}
330
17
100
AcDbMlineStyle
  2
Standard
 70
     0
  3

 62
   256
 51
90.0
 52
90.0
 71
     2
 49
0.5
 62
   256
  6
BYLAYER
 49
-0.5
 62
   256
  6
BYLAYER
  0
ACDBPLACEHOLDER
  5
F
102
{ACAD_REACTORS
330
E
102
}
330
E
  0
SCALE
  5
48
102
{ACAD_REACTORS
330
47
102
}
330
47
100
AcDbScale
 70
     0
300
1:1
140
1.0
141
1.0
290
     1
  0
SCALE
  5
49
102
{ACAD_REACTORS
330
47
102
}
330
47
100
AcDbScale
 70
     0
300
1:2
140
1.0
141
2.0
290
     0
  0
SCALE
  5
4A
102
{ACAD_REACTORS
330
47
102
}
330
47
100
AcDbScale
 70
     0
300
1:4
140
1.0
141
4.0
290
     0
  0
SCALE
  5
4B
102
{ACAD_REACTORS
330
47
102
}
330
47
100
AcDbScale
 70
     0
300
1:5
140
1.0
141
5.0
290
     0
  0
SCALE
  5
4C
102
{ACAD_REACTORS
330
47
102
}
330
47
100
AcDbScale
 70
     0
300
1:8
140
1.0
141
8.0
290
     0
  0
SCALE
  5
4D
102
{ACAD_REACTORS
330
47
102
}
330
47
100
AcDbScale
 70
     0
300
1:10
140
1.0
141
10.0
290
     0
  0
SCALE
  5
4E
102
{ACAD_REACTORS
330
47
102
}
330
47
100
AcDbScale
 70
     0
300
1:16
140
1.0
141
16.0
290
     0
  0
SCALE
  5
4F
102
{ACAD_REACTORS
330
47
102
}
330
47
100
AcDbScale
 70
     0
300
1:20
140
1.0
141
20.0
290
     0
  0
SCALE
  5
50
102
{ACAD_REACTORS
330
47
102
}
330
47
100
AcDbScale
 70
     0
300
1:30
140
1.0
141
30.0
290
     0
  0
SCALE
  5
51
102
{ACAD_REACTORS
330
47
102
}
330
47
100
AcDbScale
 70
     0
300
1:40
140
1.0
141
40.0
290
     0
  0
SCALE
  5
52
102
{ACAD_REACTORS
330
47
102
}
330
47
100
AcDbScale
 70
     0
300
1:50
140
1.0
141
50.0
290
     0
  0
SCALE
  5
53
102
{ACAD_REACTORS
330
47
102
}
330
47
100
AcDbScale
 70
     0
300
1:100
140
1.0
141
100.0
290
     0
  0
SCALE
  5
54
102
{ACAD_REACTORS
330
47
102
}
330
47
100
AcDbScale
 70
     0
300
2:1
140
2.0
141
1.0
290
     0
  0
SCALE
  5
55
102
{ACAD_REACTORS
330
47
102
}
330
47
100
AcDbScale
 70
     0
300
4:1
140
4.0
141
1.0
290
     0
  0
SCALE
  5
56
102
{ACAD_REACTORS
330
47
102
}
330
47
100
AcDbScale
 70
     0
300
8:1
140
8.0
141
1.0
290
     0
  0
SCALE
  5
57
102
{ACAD_REACTORS
330
47
102
}
330
47
100
AcDbScale
 70
     0
300
10:1
140
10.0
141
1.0
290
     0
  0
SCALE
  5
58
102
{ACAD_REACTORS
330
47
102
}
330
47
100
AcDbScale
 70
     0
300
100:1
140
100.0
141
1.0
290
     0
  0
SCALE
  5
59
102
{ACAD_REACTORS
330
47
102
}
330
47
100
AcDbScale
 70
     0
300
1/128" = 1'-0"
140
0.0078125
141
12.0
290
     0
  0
SCALE
  5
5A
102
{ACAD_REACTORS
330
47
102
}
330
47
100
AcDbScale
 70
     0
300
1/64" = 1'-0"
140
0.015625
141
12.0
290
     0
  0
SCALE
  5
5B
102
{ACAD_REACTORS
330
47
102
}
330
47
100
AcDbScale
 70
     0
300
1/32" = 1'-0"
140
0.03125
141
12.0
290
     0
  0
SCALE
  5
5C
102
{ACAD_REACTORS
330
47
102
}
330
47
100
AcDbScale
 70
     0
300
1/16" = 1'-0"
140
0.0625
141
12.0
290
     0
  0
SCALE
  5
5D
102
{ACAD_REACTORS
330
47
102
}
330
47
100
AcDbScale
 70
     0
300
3/32" = 1'-0"
140
0.09375
141
12.0
290
     0
  0
SCALE
  5
5E
102
{ACAD_REACTORS
330
47
102
}
330
47
100
AcDbScale
 70
     0
300
1/8" = 1'-0"
140
0.125
141
12.0
290
     0
  0
SCALE
  5
5F
102
{ACAD_REACTORS
330
47
102
}
330
47
100
AcDbScale
 70
     0
300
3/16" = 1'-0"
140
0.1875
141
12.0
290
     0
  0
SCALE
  5
60
102
{ACAD_REACTORS
330
47
102
}
330
47
100
AcDbScale
 70
     0
300
1/4" = 1'-0"
140
0.25
141
12.0
290
     0
  0
SCALE
  5
61
102
{ACAD_REACTORS
330
47
102
}
330
47
100
AcDbScale
 70
     0
300
3/8" = 1'-0"
140
0.375
141
12.0
290
     0
  0
SCALE
  5
62
102
{ACAD_REACTORS
330
47
102
}
330
47
100
AcDbScale
 70
     0
300
1/2" = 1'-0"
140
0.5
141
12.0
290
     0
  0
SCALE
  5
63
102
{ACAD_REACTORS
330
47
102
}
330
47
100
AcDbScale
 70
     0
300
3/4" = 1'-0"
140
0.75
141
12.0
290
     0
  0
SCALE
  5
64
102
{ACAD_REACTORS
330
47
102
}
330
47
100
AcDbScale
 70
     0
300
1" = 1'-0"
140
1.0
141
12.0
290
     0
  0
SCALE
  5
65
102
{ACAD_REACTORS
330
47
102
}
330
47
100
AcDbScale
 70
     0
300
1-1/2" = 1'-0"
140
1.5
141
12.0
290
     0
  0
SCALE
  5
66
102
{ACAD_REACTORS
330
47
102
}
330
47
100
AcDbScale
 70
     0
300
3" = 1'-0"
140
3.0
141
12.0
290
     0
  0
SCALE
  5
67
102
{ACAD_REACTORS
330
47
102
}
330
47
100
AcDbScale
 70
     0
300
6" = 1'-0"
140
6.0
141
12.0
290
     0
  0
SCALE
  5
68
102
{ACAD_REACTORS
330
47
102
}
330
47
100
AcDbScale
 70
     0
300
1'-0" = 1'-0"
140
12.0
141
12.0
290
     0
  0
ENDSEC
  0
EOF
