  0
SECTION
  2
HEADER
  9
$ACADVER
  1
AC1015
  9
$ACADMAINTVER
 70
     6
  9
$DWGCODEPAGE
  3
ANSI_1252
  9
$INSBASE
 10
0.0
 20
0.0
 30
0.0
  9
$EXTMIN
 10
-6.8
 20
-3.4
 30
0.0
  9
$EXTMAX
 10
240.0
 20
55.0
 30
0.0
  9
$LIMMIN
 10
0.0
 20
0.0
  9
$LIMMAX
 10
420.0
 20
297.0
  9
$ORTHOMODE
 70
     0
  9
$REGENMODE
 70
     1
  9
$FILLMODE
 70
     1
  9
$QTEXTMODE
 70
     0
  9
$MIRRTEXT
 70
     1
  9
$LTSCALE
 40
1.0
  9
$ATTMODE
 70
     1
  9
$TEXTSIZE
 40
6.35
  9
$TRACEWID
 40
1.0
  9
$TEXTSTYLE
  7
Standard
  9
$CLAYER
  8
0
  9
$CELTYPE
  6
ByLayer
  9
$CECOLOR
 62
   256
  9
$CELTSCALE
 40
1.0
  9
$DISPSILH
 70
     0
  9
$DIMSCALE
 40
1.0
  9
$DIMASZ
 40
5.9944
  9
$DIMEXO
 40
0.9906
  9
$DIMDLI
 40
3.75
  9
$DIMRND
 40
0.0
  9
$DIMDLE
 40
0.0
  9
$DIMEXE
 40
0.9906
  9
$DIMTP
 40
0.0
  9
$DIMTM
 40
0.0
  9
$DIMTXT
 40
6.35
  9
$DIMCEN
 40
2.5
  9
$DIMTSZ
 40
0.0
  9
$DIMTOL
 70
     0
  9
$DIMLIM
 70
     0
  9
$DIMTIH
 70
     1
  9
$DIMTOH
 70
     1
  9
$DIMSE1
 70
     0
  9
$DIMSE2
 70
     0
  9
$DIMTAD
 70
     1
  9
$DIMZIN
 70
     0
  9
$DIMBLK
  1

  9
$DIMASO
 70
     1
  9
$DIMSHO
 70
     1
  9
$DIMPOST
  1

  9
$DIMAPOST
  1

  9
$DIMALT
 70
     0
  9
$DIMALTD
 70
     3
  9
$DIMALTF
 40
0.0393700787
  9
$DIMLFAC
 40
1.0
  9
$DIMTOFL
 70
     1
  9
$DIMTVP
 40
0.0
  9
$DIMTIX
 70
     0
  9
$DIMSOXD
 70
     0
  9
$DIMSAH
 70
     0
  9
$DIMBLK1
  1

  9
$DIMBLK2
  1

  9
$DIMSTYLE
  2
ISO-25
  9
$DIMCLRD
 70
     0
  9
$DIMCLRE
 70
     0
  9
$DIMCLRT
 70
     0
  9
$DIMTFAC
 40
1.0
  9
$DIMGAP
 40
1.524
  9
$DIMJUST
 70
     0
  9
$DIMSD1
 70
     0
  9
$DIMSD2
 70
     0
  9
$DIMTOLJ
 70
     0
  9
$DIMTZIN
 70
     0
  9
$DIMALTZ
 70
     0
  9
$DIMALTTZ
 70
     0
  9
$DIMUPT
 70
     0
  9
$DIMDEC
 70
     2
  9
$DIMTDEC
 70
     2
  9
$DIMALTU
 70
     2
  9
$DIMALTTD
 70
     3
  9
$DIMTXSTY
  7
Standard
  9
$DIMAUNIT
 70
     0
  9
$DIMADEC
 70
     2
  9
$DIMALTRND
 40
0.0
  9
$DIMAZIN
 70
     0
  9
$DIMDSEP
 70
    44
  9
$DIMATFIT
 70
     3
  9
$DIMFRAC
 70
     0
  9
$DIMLDRBLK
  1

  9
$DIMLUNIT
 70
     2
  9
$DIMLWD
 70
    -2
  9
$DIMLWE
 70
    -2
  9
$DIMTMOVE
 70
     0
  9
$LUNITS
 70
     2
  9
$LUPREC
 70
     2
  9
$SKETCHINC
 40
1.0
  9
$FILLETRAD
 40
10.0
  9
$AUNITS
 70
     0
  9
$AUPREC
 70
     2
  9
$MENU
  1
.
  9
$ELEVATION
 40
0.0
  9
$PELEVATION
 40
0.0
  9
$THICKNESS
 40
0.0
  9
$LIMCHECK
 70
     0
  9
$CHAMFERA
 40
0.0
  9
$CHAMFERB
 40
0.0
  9
$CHAMFERC
 40
0.0
  9
$CHAMFERD
 40
0.0
  9
$SKPOLY
 70
     0
  9
$TDCREATE
 40
2457988.454590949
  9
$TDUCREATE
 40
2457988.412924282
  9
$TDUPDATE
 40
2457988.454604178
  9
$TDUUPDATE
 40
2457988.412937512
  9
$TDINDWG
 40
0.0000000116
  9
$TDUSRTIMER
 40
0.0000000116
  9
$USRTIMER
 70
     1
  9
$ANGBASE
 50
0.0
  9
$ANGDIR
 70
     0
  9
$PDMODE
 70
     0
  9
$PDSIZE
 40
-1.0
  9
$PLINEWID
 40
0.0
  9
$SPLFRAME
 70
     0
  9
$SPLINETYPE
 70
     6
  9
$SPLINESEGS
 70
     8
  9
$HANDSEED
  5
16E
  9
$SURFTAB1
 70
     6
  9
$SURFTAB2
 70
     6
  9
$SURFTYPE
 70
     6
  9
$SURFU
 70
     6
  9
$SURFV
 70
     6
  9
$UCSBASE
  2

  9
$UCSNAME
  2

  9
$UCSORG
 10
0.0
 20
0.0
 30
0.0
  9
$UCSXDIR
 10
1.0
 20
0.0
 30
0.0
  9
$UCSYDIR
 10
0.0
 20
1.0
 30
0.0
  9
$UCSORTHOREF
  2

  9
$UCSORTHOVIEW
 70
     0
  9
$UCSORGTOP
 10
0.0
 20
0.0
 30
0.0
  9
$UCSORGBOTTOM
 10
0.0
 20
0.0
 30
0.0
  9
$UCSORGLEFT
 10
0.0
 20
0.0
 30
0.0
  9
$UCSORGRIGHT
 10
0.0
 20
0.0
 30
0.0
  9
$UCSORGFRONT
 10
0.0
 20
0.0
 30
0.0
  9
$UCSORGBACK
 10
0.0
 20
0.0
 30
0.0
  9
$PUCSBASE
  2

  9
$PUCSNAME
  2

  9
$PUCSORG
 10
0.0
 20
0.0
 30
0.0
  9
$PUCSXDIR
 10
1.0
 20
0.0
 30
0.0
  9
$PUCSYDIR
 10
0.0
 20
1.0
 30
0.0
  9
$PUCSORTHOREF
  2

  9
$PUCSORTHOVIEW
 70
     0
  9
$PUCSORGTOP
 10
0.0
 20
0.0
 30
0.0
  9
$PUCSORGBOTTOM
 10
0.0
 20
0.0
 30
0.0
  9
$PUCSORGLEFT
 10
0.0
 20
0.0
 30
0.0
  9
$PUCSORGRIGHT
 10
0.0
 20
0.0
 30
0.0
  9
$PUCSORGFRONT
 10
0.0
 20
0.0
 30
0.0
  9
$PUCSORGBACK
 10
0.0
 20
0.0
 30
0.0
  9
$USERI1
 70
     0
  9
$USERI2
 70
     0
  9
$USERI3
 70
     0
  9
$USERI4
 70
     0
  9
$USERI5
 70
     0
  9
$USERR1
 40
0.0
  9
$USERR2
 40
0.0
  9
$USERR3
 40
0.0
  9
$USERR4
 40
0.0
  9
$USERR5
 40
0.0
  9
$WORLDVIEW
 70
     1
  9
$SHADEDGE
 70
     3
  9
$SHADEDIF
 70
    70
  9
$TILEMODE
 70
     1
  9
$MAXACTVP
 70
    64
  9
$PINSBASE
 10
0.0
 20
0.0
 30
0.0
  9
$PLIMCHECK
 70
     0
  9
$PEXTMIN
 10
1.0000000000E+20
 20
1.0000000000E+20
 30
1.0000000000E+20
  9
$PEXTMAX
 10
-1.0000000000E+20
 20
-1.0000000000E+20
 30
-1.0000000000E+20
  9
$PLIMMIN
 10
0.0
 20
0.0
  9
$PLIMMAX
 10
420.0
 20
297.0
  9
$UNITMODE
 70
     0
  9
$VISRETAIN
 70
     1
  9
$PLINEGEN
 70
     0
  9
$PSLTSCALE
 70
     1
  9
$TREEDEPTH
 70
  3020
  9
$CMLSTYLE
  2
Standard
  9
$CMLJUST
 70
     0
  9
$CMLSCALE
 40
20.0
  9
$PROXYGRAPHICS
 70
     1
  9
$MEASUREMENT
 70
     1
  9
$CELWEIGHT
370
    -1
  9
$ENDCAPS
280
     0
  9
$JOINSTYLE
280
     0
  9
$LWDISPLAY
290
     1
  9
$INSUNITS
 70
     4
  9
$HYPERLINKBASE
  1

  9
$STYLESHEET
  1

  9
$XEDIT
290
     1
  9
$CEPSNTYPE
380
     0
  9
$PSTYLEMODE
290
     1
  9
$FINGERPRINTGUID
  2
{C907F6FD-24E5-4C80-9A8B-368DBAD30FB9}
  9
$VERSIONGUID
  2
{FAEB1C32-E019-11D5-929B-00C0DF256EC4}
  9
$EXTNAMES
290
     1
  9
$PSVPSCALE
 40
0.0
  9
$OLESTARTUP
290
     0
  0
ENDSEC
  0
SECTION
  2
CLASSES
  0
CLASS
  1
ACDBDICTIONARYWDFLT
  2
AcDbDictionaryWithDefault
  3
ObjectDBX Classes
 90
        0
280
     0
281
     0
  0
CLASS
  1
VISUALSTYLE
  2
AcDbVisualStyle
  3
ObjectDBX Classes
 90
     4095
280
     0
281
     0
  0
CLASS
  1
MATERIAL
  2
AcDbMaterial
  3
ObjectDBX Classes
 90
     1153
280
     0
281
     0
  0
CLASS
  1
SCALE
  2
AcDbScale
  3
ObjectDBX Classes
 90
     1153
280
     0
281
     0
  0
CLASS
  1
TABLESTYLE
  2
AcDbTableStyle
  3
ObjectDBX Classes
 90
     4095
280
     0
281
     0
  0
CLASS
  1
MLEADERSTYLE
  2
AcDbMLeaderStyle
  3
ACDB_MLEADERSTYLE_CLASS
 90
     4095
280
     0
281
     0
  0
CLASS
  1
SUN
  2
AcDbSun
  3
SCENEOE
 90
     1153
280
     0
281
     0
  0
CLASS
  1
ACDBPLACEHOLDER
  2
AcDbPlaceHolder
  3
ObjectDBX Classes
 90
        0
280
     0
281
     0
  0
CLASS
  1
LAYOUT
  2
AcDbLayout
  3
ObjectDBX Classes
 90
        0
280
     0
281
     0
  0
ENDSEC
  0
SECTION
  2
TABLES
  0
TABLE
  2
VPORT
  5
8
330
0
100
AcDbSymbolTable
 70
     1
  0
VPORT
  5
29
330
8
100
AcDbSymbolTableRecord
100
AcDbViewportTableRecord
  2
*Active
 70
     0
 10
0.0
 20
0.0
 11
1.0
 21
1.0
 12
116.6
 22
25.8
 13
0.0
 23
0.0
 14
10.0
 24
10.0
 15
10.0
 25
10.0
 16
0.0
 26
0.0
 36
1.0
 17
0.0
 27
0.0
 37
0.0
 40
59.568
 41
4.2260273973
 42
50.0
 43
0.0
 44
0.0
 50
0.0
 51
0.0
 71
     0
 72
   100
 73
     1
 74
     3
 75
     0
 76
     0
 77
     0
 78
     0
281
     0
 65
     1
110
0.0
120
0.0
130
0.0
111
1.0
121
0.0
131
0.0
112
0.0
122
1.0
132
0.0
 79
     0
146
0.0
  0
ENDTAB
  0
TABLE
  2
LTYPE
  5
5
330
0
100
AcDbSymbolTable
 70
     6
  0
LTYPE
  5
14
330
5
100
AcDbSymbolTableRecord
100
AcDbLinetypeTableRecord
  2
ByBlock
 70
     0
  3

 72
    65
 73
     0
 40
0.0
  0
LTYPE
  5
15
330
5
100
AcDbSymbolTableRecord
100
AcDbLinetypeTableRecord
  2
ByLayer
 70
     0
  3

 72
    65
 73
     0
 40
0.0
  0
LTYPE
  5
16
330
5
100
AcDbSymbolTableRecord
100
AcDbLinetypeTableRecord
  2
Continuous
 70
     0
  3
Solid line
 72
    65
 73
     0
 40
0.0
  0
LTYPE
  5
6E
330
5
100
AcDbSymbolTableRecord
100
AcDbLinetypeTableRecord
  2
HIDDEN
 70
     0
  3
Hidden __ __ __ __ __ __ __ __ __ __ __ __ __ __
 72
    65
 73
     2
 40
1.905
 49
1.27
 74
     0
 49
-0.635
 74
     0
  0
LTYPE
  5
6F
330
5
100
AcDbSymbolTableRecord
100
AcDbLinetypeTableRecord
  2
PHANTOM
 70
     0
  3
Phantom ______  __  __  ______  __  __  ______
 72
    65
 73
     6
 40
12.7
 49
6.35
 74
     0
 49
-1.27
 74
     0
 49
1.27
 74
     0
 49
-1.27
 74
     0
 49
1.27
 74
     0
 49
-1.27
 74
     0
  0
LTYPE
  5
70
330
5
100
AcDbSymbolTableRecord
100
AcDbLinetypeTableRecord
  2
CENTER
 70
     0
  3
Center ____ _ ____ _ ____ _ ____ _ ____ _ ____
 72
    65
 73
     4
 40
10.16
 49
6.35
 74
     0
 49
-1.27
 74
     0
 49
1.27
 74
     0
 49
-1.27
 74
     0
  0
LTYPE
  5
71
330
5
100
AcDbSymbolTableRecord
100
AcDbLinetypeTableRecord
  2
CENTERX2
 70
     0
  3
Center (2x) ________  __  ________  __  _____
 72
    65
 73
     4
 40
20.32
 49
12.7
 74
     0
 49
-2.54
 74
     0
 49
2.54
 74
     0
 49
-2.54
 74
     0
  0
LTYPE
  5
72
330
5
100
AcDbSymbolTableRecord
100
AcDbLinetypeTableRecord
  2
DOT2
 70
     0
  3
Dot (.5x) ........................................
 72
    65
 73
     2
 40
0.635
 49
0.0
 74
     0
 49
-0.635
 74
     0
  0
ENDTAB
  0
TABLE
  2
LAYER
  5
2
330
0
100
AcDbSymbolTable
 70
     1
  0
LAYER
  5
10
330
2
100
AcDbSymbolTableRecord
100
AcDbLayerTableRecord
  2
0
 70
     0
 62
     7
  6
Continuous
370
    -3
390
F
  0
ENDTAB
  0
TABLE
  2
STYLE
  5
3
330
0
100
AcDbSymbolTable
 70
     2
  0
STYLE
  5
11
330
3
100
AcDbSymbolTableRecord
100
AcDbTextStyleTableRecord
  2
Standard
 70
     0
 40
0.0
 41
1.0
 50
0.0
 71
     0
 42
6.35
  3
txt
  4

  0
STYLE
  5
16B
330
3
100
AcDbSymbolTableRecord
100
AcDbTextStyleTableRecord
  2
SLDTEXTSTYLE0
 70
     0
 40
0.0
 41
0.7
 50
0.0
 71
     0
 42
6.35
  3
TXT
  4

  0
ENDTAB
  0
TABLE
  2
VIEW
  5
6
330
0
100
AcDbSymbolTable
 70
     0
  0
ENDTAB
  0
TABLE
  2
UCS
  5
7
330
0
100
AcDbSymbolTable
 70
     0
  0
ENDTAB
  0
TABLE
  2
APPID
  5
9
330
0
100
AcDbSymbolTable
 70
     1
  0
APPID
  5
12
330
9
100
AcDbSymbolTableRecord
100
AcDbRegAppTableRecord
  2
ACAD
 70
     0
  0
ENDTAB
  0
TABLE
  2
DIMSTYLE
  5
A
330
0
100
AcDbSymbolTable
 70
     1
100
AcDbDimStyleTable
  0
DIMSTYLE
105
27
330
A
100
AcDbSymbolTableRecord
100
AcDbDimStyleTableRecord
  2
ISO-25
 70
     0
 41
2.5
 42
0.625
 43
3.75
 44
1.25
 73
     0
 74
     0
 77
     1
 78
     8
140
2.5
141
2.5
143
0.0393700787
147
0.625
171
     3
172
     1
178
     0
271
     2
272
     2
274
     3
278
    44
283
     0
284
     8
340
11
  0
ENDTAB
  0
TABLE
  2
BLOCK_RECORD
  5
1
330
0
100
AcDbSymbolTable
 70
     1
  0
BLOCK_RECORD
  5
1F
330
1
100
AcDbSymbolTableRecord
100
AcDbBlockTableRecord
  2
*Model_Space
340
22
  0
BLOCK_RECORD
  5
1B
330
1
100
AcDbSymbolTableRecord
100
AcDbBlockTableRecord
  2
*Paper_Space
340
1E
  0
BLOCK_RECORD
  5
23
330
1
100
AcDbSymbolTableRecord
100
AcDbBlockTableRecord
  2
*Paper_Space0
340
26
  0
ENDTAB
  0
ENDSEC
  0
SECTION
  2
BLOCKS
  0
BLOCK
  5
20
330
1F
100
AcDbEntity
  8
0
100
AcDbBlockBegin
  2
*Model_Space
 70
     0
 10
0.0
 20
0.0
 30
0.0
  3
*Model_Space
  1

  0
ENDBLK
  5
21
330
1F
100
AcDbEntity
  8
0
100
AcDbBlockEnd
  0
BLOCK
  5
1C
330
1B
100
AcDbEntity
 67
     1
  8
0
100
AcDbBlockBegin
  2
*Paper_Space
 70
     0
 10
0.0
 20
0.0
 30
0.0
  3
*Paper_Space
  1

  0
ENDBLK
  5
1D
330
1B
100
AcDbEntity
 67
     1
  8
0
100
AcDbBlockEnd
  0
BLOCK
  5
24
330
23
100
AcDbEntity
  8
0
100
AcDbBlockBegin
  2
*Paper_Space0
 70
     0
 10
0.0
 20
0.0
 30
0.0
  3
*Paper_Space0
  1

  0
ENDBLK
  5
25
330
23
100
AcDbEntity
  8
0
100
AcDbBlockEnd
  0
ENDSEC
  0
SECTION
  2
ENTITIES
  0
LINE
  5
73
330
1F
100
AcDbEntity
  8
0
  6
Continuous
 62
     7
370
    15
100
AcDbLine
 10
142.8751602564
 20
10.0
 30
0.0
 11
142.590224359
 21
10.0
 31
0.0
  0
LINE
  5
74
330
1F
100
AcDbEntity
  8
0
  6
Continuous
 62
     7
370
    15
100
AcDbLine
 10
142.590224359
 20
10.0
 30
0.0
 11
142.590224359
 21
13.2564102564
 31
0.0
  0
LINE
  5
75
330
1F
100
AcDbEntity
  8
0
  6
Continuous
 62
     7
370
    15
100
AcDbLine
 10
142.590224359
 20
13.2564102564
 30
0.0
 11
142.8751602564
 21
13.2564102564
 31
0.0
  0
LINE
  5
76
330
1F
100
AcDbEntity
  8
0
  6
Continuous
 62
     7
370
    15
100
AcDbLine
 10
142.8751602564
 20
13.2564102564
 30
0.0
 11
142.8751602564
 21
10.0
 31
0.0
  0
LINE
  5
77
330
1F
100
AcDbEntity
  8
0
  6
Continuous
 62
     7
370
    15
100
AcDbLine
 10
141.9796474359
 20
10.0
 30
0.0
 11
141.6947115385
 21
10.0
 31
0.0
  0
LINE
  5
78
330
1F
100
AcDbEntity
  8
0
  6
Continuous
 62
     7
370
    15
100
AcDbLine
 10
141.6947115385
 20
10.0
 30
0.0
 11
141.6947115385
 21
13.2564102564
 31
0.0
  0
LINE
  5
79
330
1F
100
AcDbEntity
  8
0
  6
Continuous
 62
     7
370
    15
100
AcDbLine
 10
141.6947115385
 20
13.2564102564
 30
0.0
 11
141.9796474359
 21
13.2564102564
 31
0.0
  0
LINE
  5
7A
330
1F
100
AcDbEntity
  8
0
  6
Continuous
 62
     7
370
    15
100
AcDbLine
 10
141.9796474359
 20
13.2564102564
 30
0.0
 11
141.9796474359
 21
10.0
 31
0.0
  0
LINE
  5
7B
330
1F
100
AcDbEntity
  8
0
  6
Continuous
 62
     7
370
    15
100
AcDbLine
 10
140.7991987179
 20
11.8908804087
 30
0.0
 11
140.7991987179
 21
12.3201923077
 31
0.0
  0
LINE
  5
7C
330
1F
100
AcDbEntity
  8
0
  6
Continuous
 62
     7
370
    15
100
AcDbLine
 10
140.7991987179
 20
12.3201923077
 30
0.0
 11
141.0841346154
 21
12.3201923077
 31
0.0
  0
LINE
  5
7D
330
1F
100
AcDbEntity
  8
0
  6
Continuous
 62
     7
370
    15
100
AcDbLine
 10
141.0841346154
 20
12.3201923077
 30
0.0
 11
141.0841346154
 21
10.0
 31
0.0
  0
LINE
  5
7E
330
1F
100
AcDbEntity
  8
0
  6
Continuous
 62
     7
370
    15
100
AcDbLine
 10
141.0841346154
 20
10.0
 30
0.0
 11
140.7991987179
 21
10.0
 31
0.0
  0
LINE
  5
7F
330
1F
100
AcDbEntity
  8
0
  6
Continuous
 62
     7
370
    15
100
AcDbLine
 10
140.7991987179
 20
10.0
 30
0.0
 11
140.7991987179
 21
10.4013271234
 31
0.0
  0
SPLINE
  5
80
330
1F
100
AcDbEntity
  8
0
  6
Continuous
 62
     7
370
    15
100
AcDbSpline
210
0.0
220
0.0
230
1.0
 70
     8
 71
     3
 72
    15
 73
    11
 74
     0
 42
0.000000001
 43
0.00000001
 40
0.0
 40
0.0
 40
0.0
 40
0.0
 40
0.1342983790141795
 40
0.2620849753822926
 40
0.3862699121344926
 40
0.5071645966228006
 40
0.6273002357254971
 40
0.7481449416029825
 40
0.8723701771613424
 40
1.0
 40
1.0
 40
1.0
 40
1.0
 10
140.7991987179487
 20
10.40132712339743
 30
0.0
 10
140.7670688150235
 20
10.36500549173569
 30
0.0
 10
140.7043669054473
 20
10.29412337082112
 30
0.0
 10
140.599645319859
 20
10.20152025720448
 30
0.0
 10
140.4886399013331
 20
10.12497706552172
 30
0.0
 10
140.3718894171645
 20
10.06315535627924
 30
0.0
 10
140.2494992964162
 20
10.01671684803033
 30
0.0
 10
140.1217408458155
 20
9.983709403680505
 30
0.0
 10
139.9885619503162
 20
9.962487853202825
 30
0.0
 10
139.8976187427566
 20
9.960368747650204
 30
0.0
 10
139.851532451923
 20
9.959294871794866
 30
0.0
  0
SPLINE
  5
81
330
1F
100
AcDbEntity
  8
0
  6
Continuous
 62
     7
370
    15
100
AcDbSpline
210
0.0
220
0.0
230
1.0
 70
     8
 71
     3
 72
    23
 73
    19
 74
     0
 42
0.000000001
 43
0.00000001
 40
0.0
 40
0.0
 40
0.0
 40
0.0
 40
0.064619991340761
 40
0.1274334841444645
 40
0.1890041265579311
 40
0.2499300706860424
 40
0.3106684537406675
 40
0.3723289611368265
 40
0.4349391099970013
 40
0.4995755441940359
 40
0.564191207771924
 40
0.6267352169294726
 40
0.6881093335614029
 40
0.7492936065367486
 40
0.8103305278109466
 40
0.8719011702244153
 40
0.9350459146845301
 40
0.9999999999999999
 40
0.9999999999999999
 40
0.9999999999999999
 40
0.9999999999999999
 10
139.851532451923
 20
9.959294871794866
 30
0.0
 10
139.8105586652321
 20
9.960407366639025
 30
0.0
 10
139.7297565436552
 20
9.962601255730355
 30
0.0
 10
139.6108944522505
 20
9.979621345441215
 30
0.0
 10
139.4965107688185
 20
10.00695412364511
 30
0.0
 10
139.3864974064753
 20
10.04496421625549
 30
0.0
 10
139.2815662459743
 20
10.0953839615987
 30
0.0
 10
139.1808188725645
 20
10.15574637946483
 30
0.0
 10
139.0847772162328
 20
10.22762913246659
 30
0.0
 10
138.9949051773156
 20
10.30980541532954
 30
0.0
 10
138.9121447198318
 20
10.39906372513182
 30
0.0
 10
138.8395177082388
 20
10.49426432836856
 30
0.0
 10
138.7789631286562
 20
10.59499556118546
 30
0.0
 10
138.7283263411576
 20
10.69998206507025
 30
0.0
 10
138.6893225144148
 20
10.81003202779038
 30
0.0
 10
138.6621321461952
 20
10.92476488727862
 30
0.0
 10
138.6451318838311
 20
11.04404498684691
 30
0.0
 10
138.6429389016382
 20
11.12527012565507
 30
0.0
 10
138.6418269230769
 20
11.1664563301282
 30
0.0
  0
SPLINE
  5
82
330
1F
100
AcDbEntity
  8
0
  6
Continuous
 62
     7
370
    15
100
AcDbSpline
210
0.0
220
0.0
230
1.0
 70
     8
 71
     3
 72
    23
 73
    19
 74
     0
 42
0.000000001
 43
0.00000001
 40
0.0
 40
0.0
 40
0.0
 40
0.0
 40
0.0637745323056313
 40
0.1260788099895048
 40
0.1869040927472074
 40
0.2475739349176176
 40
0.3080033561644466
 40
0.3691318984609758
 40
0.4320332277442041
 40
0.4967907944370878
 40
0.5616108232295584
 40
0.6249138657484559
 40
0.6867263492419243
 40
0.748078833257768
 40
0.8095822911398951
 40
0.8716307425688212
 40
0.9348858208285479
 40
1.0
 40
1.0
 40
1.0
 40
1.0
 10
138.6418269230769
 20
11.1664563301282
 30
0.0
 10
138.6429635471189
 20
11.20679126122332
 30
0.0
 10
138.6452105915337
 20
11.28653124409158
 30
0.0
 10
138.661950298103
 20
11.40380549155018
 30
0.0
 10
138.6900998559582
 20
11.51676134235819
 30
0.0
 10
138.7296039749122
 20
11.62503514085403
 30
0.0
 10
138.7802606054859
 20
11.72875790063168
 30
0.0
 10
138.8418810844262
 20
11.82800298046666
 30
0.0
 10
138.9144698618316
 20
11.9230437910215
 30
0.0
 10
138.9981559739107
 20
12.01164554677853
 30
0.0
 10
139.088811086844
 20
12.09348853258005
 30
0.0
 10
139.1857925784601
 20
12.16461673808857
 30
0.0
 10
139.2866879836583
 20
12.22604559380024
 30
0.0
 10
139.3930622860607
 20
12.27471696159244
 30
0.0
 10
139.5033410168563
 20
12.31409522071491
 30
0.0
 10
139.6185059283556
 20
12.34133941320609
 30
0.0
 10
139.7380778604398
 20
12.35739341175952
 30
0.0
 10
139.8192585210985
 20
12.35971820495372
 30
0.0
 10
139.8604366987179
 20
12.36089743589743
 30
0.0
  0
SPLINE
  5
83
330
1F
100
AcDbEntity
  8
0
  6
Continuous
 62
     7
370
    15
100
AcDbSpline
210
0.0
220
0.0
230
1.0
 70
     8
 71
     3
 72
    15
 73
    11
 74
     0
 42
0.000000001
 43
0.00000001
 40
0.0
 40
0.0
 40
0.0
 40
0.0
 40
0.1298621417207363
 40
0.2546535308972849
 40
0.3760145541937065
 40
0.4952552518175962
 40
0.6147977192994417
 40
0.7381055541683285
 40
0.8651963000723482
 40
1.0
 40
1.0
 40
1.0
 40
1.0
 10
139.8604366987179
 20
12.36089743589743
 30
0.0
 10
139.9077894280107
 20
12.35959318985589
 30
0.0
 10
140.0006458952787
 20
12.35703562492405
 30
0.0
 10
140.1364705893993
 20
12.33575157942755
 30
0.0
 10
140.2649623657832
 20
12.29979382707994
 30
0.0
 10
140.3871130994105
 20
12.2508829538729
 30
0.0
 10
140.502484150368
 20
12.18588732106286
 30
0.0
 10
140.6099832861403
 20
12.10389978499144
 30
0.0
 10
140.7107355459981
 20
12.00543742252566
 30
0.0
 10
140.7691376677175
 20
11.92980851932858
 30
0.0
 10
140.7991987179487
 20
11.89088040865384
 30
0.0
  0
LINE
  5
84
330
1F
100
AcDbEntity
  8
0
  6
Continuous
 62
     7
370
    15
100
AcDbLine
 10
127.6921474359
 20
12.3201923077
 30
0.0
 11
128.0991987179
 21
12.3201923077
 31
0.0
  0
LINE
  5
85
330
1F
100
AcDbEntity
  8
0
  6
Continuous
 62
     7
370
    15
100
AcDbLine
 10
128.0991987179
 20
12.3201923077
 30
0.0
 11
128.0991987179
 21
13.2564102564
 31
0.0
  0
LINE
  5
86
330
1F
100
AcDbEntity
  8
0
  6
Continuous
 62
     7
370
    15
100
AcDbLine
 10
128.0991987179
 20
13.2564102564
 30
0.0
 11
128.3841346154
 21
13.2564102564
 31
0.0
  0
LINE
  5
87
330
1F
100
AcDbEntity
  8
0
  6
Continuous
 62
     7
370
    15
100
AcDbLine
 10
128.3841346154
 20
13.2564102564
 30
0.0
 11
128.3841346154
 21
12.3201923077
 31
0.0
  0
LINE
  5
88
330
1F
100
AcDbEntity
  8
0
  6
Continuous
 62
     7
370
    15
100
AcDbLine
 10
128.3841346154
 20
12.3201923077
 30
0.0
 11
128.7911858974
 21
12.3201923077
 31
0.0
  0
LINE
  5
89
330
1F
100
AcDbEntity
  8
0
  6
Continuous
 62
     7
370
    15
100
AcDbLine
 10
128.7911858974
 20
12.3201923077
 30
0.0
 11
128.7911858974
 21
12.0352564103
 31
0.0
  0
LINE
  5
8A
330
1F
100
AcDbEntity
  8
0
  6
Continuous
 62
     7
370
    15
100
AcDbLine
 10
128.7911858974
 20
12.0352564103
 30
0.0
 11
128.3841346154
 21
12.0352564103
 31
0.0
  0
LINE
  5
8B
330
1F
100
AcDbEntity
  8
0
  6
Continuous
 62
     7
370
    15
100
AcDbLine
 10
128.3841346154
 20
12.0352564103
 30
0.0
 11
128.3841346154
 21
10.0
 31
0.0
  0
LINE
  5
8C
330
1F
100
AcDbEntity
  8
0
  6
Continuous
 62
     7
370
    15
100
AcDbLine
 10
128.3841346154
 20
10.0
 30
0.0
 11
128.0991987179
 21
10.0
 31
0.0
  0
LINE
  5
8D
330
1F
100
AcDbEntity
  8
0
  6
Continuous
 62
     7
370
    15
100
AcDbLine
 10
128.0991987179
 20
10.0
 30
0.0
 11
128.0991987179
 21
12.0352564103
 31
0.0
  0
LINE
  5
8E
330
1F
100
AcDbEntity
  8
0
  6
Continuous
 62
     7
370
    15
100
AcDbLine
 10
128.0991987179
 20
12.0352564103
 30
0.0
 11
127.6921474359
 21
12.0352564103
 31
0.0
  0
LINE
  5
8F
330
1F
100
AcDbEntity
  8
0
  6
Continuous
 62
     7
370
    15
100
AcDbLine
 10
127.6921474359
 20
12.0352564103
 30
0.0
 11
127.6921474359
 21
12.3201923077
 31
0.0
  0
SPLINE
  5
90
330
1F
100
AcDbEntity
  8
0
  6
Continuous
 62
     7
370
    15
100
AcDbSpline
210
0.0
220
0.0
230
1.0
 70
     8
 71
     3
 72
    31
 73
    27
 74
     0
 42
0.000000001
 43
0.00000001
 40
0.0
 40
0.0
 40
0.0
 40
0.0
 40
0.045151678804773
 40
0.0887272521645368
 40
0.1305341108247571
 40
0.1710707458966379
 40
0.2100958400813077
 40
0.2477692374166756
 40
0.2848493643644426
 40
0.32098550151604
 40
0.3563873757532779
 40
0.3915492787874557
 40
0.4261913606636696
 40
0.460511059298461
 40
0.4949714404811234
 40
0.529533625079614
 40
0.5645757480731516
 40
0.6000961892387685
 40
0.6375349450701502
 40
0.6782134162474353
 40
0.7225827429711688
 40
0.7701823039810383
 40
0.8218792822902018
 40
0.8770670125167512
 40
0.9365240376354077
 40
1.0
 40
1.0
 40
1.0
 40
1.0
 10
126.1269080528846
 20
9.959294871794866
 30
0.0
 10
126.0986990722382
 20
9.959603034704504
 30
0.0
 10
126.0432657992046
 20
9.960208603509809
 30
0.0
 10
125.9619211704828
 20
9.966687243346039
 30
0.0
 10
125.8839535062
 20
9.977398941018084
 30
0.0
 10
125.8096400018295
 20
9.992689031072937
 30
0.0
 10
125.7389060842696
 20
10.01177447308503
 30
0.0
 10
125.671465238098
 20
10.03445625168852
 30
0.0
 10
125.6081071488035
 20
10.06265068870988
 30
0.0
 10
125.5480706166046
 20
10.09438033012788
 30
0.0
 10
125.4918255930079
 20
10.1302716871106
 30
0.0
 10
125.4391128114691
 20
10.16961269448474
 30
0.0
 10
125.3900029523792
 20
10.21234462311958
 30
0.0
 10
125.3444851835425
 20
10.25828901139178
 30
0.0
 10
125.3031984119222
 20
10.30801580367003
 30
0.0
 10
125.2656281455363
 20
10.36112499049361
 30
0.0
 10
125.23119599157
 20
10.41709034229317
 30
0.0
 10
125.2000331031767
 20
10.47701906823786
 30
0.0
 10
125.1732617249341
 20
10.5428522485317
 30
0.0
 10
125.149625894725
 20
10.61569318660859
 30
0.0
 10
125.1302941013356
 20
10.69634046971395
 30
0.0
 10
125.1145620050371
 20
10.78472514766421
 30
0.0
 10
125.101906055341
 20
10.88042422112516
 30
0.0
 10
125.0931193406198
 20
10.98399128357014
 30
0.0
 10
125.0882064084314
 20
11.09517406144085
 30
0.0
 10
125.0874234884225
 20
11.17196360455045
 30
0.0
 10
125.0870192307692
 20
11.21161358173076
 30
0.0
  0
LINE
  5
91
330
1F
100
AcDbEntity
  8
0
  6
Continuous
 62
     7
370
    15
100
AcDbLine
 10
125.0870192308
 20
11.2116135817
 30
0.0
 11
125.0870192308
 21
12.3201923077
 31
0.0
  0
LINE
  5
92
330
1F
100
AcDbEntity
  8
0
  6
Continuous
 62
     7
370
    15
100
AcDbLine
 10
125.0870192308
 20
12.3201923077
 30
0.0
 11
125.3719551282
 21
12.3201923077
 31
0.0
  0
LINE
  5
93
330
1F
100
AcDbEntity
  8
0
  6
Continuous
 62
     7
370
    15
100
AcDbLine
 10
125.3719551282
 20
12.3201923077
 30
0.0
 11
125.3719551282
 21
11.2440504808
 31
0.0
  0
SPLINE
  5
94
330
1F
100
AcDbEntity
  8
0
  6
Continuous
 62
     7
370
    15
100
AcDbSpline
210
0.0
220
0.0
230
1.0
 70
     8
 71
     3
 72
    15
 73
    11
 74
     0
 42
0.000000001
 43
0.00000001
 40
0.0
 40
0.0
 40
0.0
 40
0.0
 40
0.1736165757486484
 40
0.3321203769789006
 40
0.4779362767239403
 40
0.6099318098113834
 40
0.7270315210379722
 40
0.8316714227513046
 40
0.9217154761224241
 40
1.0
 40
1.0
 40
1.0
 40
1.0
 10
125.3719551282051
 20
11.24405048076922
 30
0.0
 10
125.3720838562229
 20
11.21246127258286
 30
0.0
 10
125.372330106891
 20
11.15203259700231
 30
0.0
 10
125.3740001033098
 20
11.06507824901612
 30
0.0
 10
125.3779281168167
 20
10.98577880254301
 30
0.0
 10
125.3828392290547
 20
10.91408844848558
 30
0.0
 10
125.3891548810971
 20
10.85001931468583
 30
0.0
 10
125.3966690724096
 20
10.79379518366404
 30
0.0
 10
125.4050677834556
 20
10.74477845954851
 30
0.0
 10
125.4132889596957
 20
10.71525698687046
 30
0.0
 10
125.4171123798077
 20
10.70152744391025
 30
0.0
  0
SPLINE
  5
95
330
1F
100
AcDbEntity
  8
0
  6
Continuous
 62
     7
370
    15
100
AcDbSpline
210
0.0
220
0.0
230
1.0
 70
     8
 71
     3
 72
    19
 73
    15
 74
     0
 42
0.000000001
 43
0.00000001
 40
0.0
 40
0.0
 40
0.0
 40
0.0
 40
0.0604867187842427
 40
0.1197159334052985
 40
0.178086164255583
 40
0.235971321367695
 40
0.2946097683616177
 40
0.3535360182612601
 40
0.4131613089451976
 40
0.4745453087944114
 40
0.5992335172031904
 40
0.7270292124547166
 40
0.8596954264724358
 40
1.0
 40
1.0
 40
1.0
 40
1.0
 10
125.4171123798077
 20
10.70152744391025
 30
0.0
 10
125.4232459854252
 20
10.68427098238423
 30
0.0
 10
125.4353856804921
 20
10.65011681696769
 30
0.0
 10
125.4574051978968
 20
10.60077821940464
 30
0.0
 10
125.4846451889323
 20
10.55508064177317
 30
0.0
 10
125.514453747074
 20
10.51126194723151
 30
0.0
 10
125.5488339239783
 20
10.47062014484349
 30
0.0
 10
125.5873507299211
 20
10.43322386667464
 30
0.0
 10
125.628714844927
 20
10.39766015533322
 30
0.0
 10
125.6901783304132
 20
10.35558252262183
 30
0.0
 10
125.7742335216994
 20
10.3104836159768
 30
0.0
 10
125.8845899497455
 20
10.271570980742
 30
0.0
 10
126.004245926096
 20
10.24831562971469
 30
0.0
 10
126.0869453500205
 20
10.24561755552896
 30
0.0
 10
126.1294521233974
 20
10.24423076923076
 30
0.0
  0
SPLINE
  5
96
330
1F
100
AcDbEntity
  8
0
  6
Continuous
 62
     7
370
    15
100
AcDbSpline
210
0.0
220
0.0
230
1.0
 70
     8
 71
     3
 72
    15
 73
    11
 74
     0
 42
0.000000001
 43
0.00000001
 40
0.0
 40
0.0
 40
0.0
 40
0.0
 40
0.1446324159930445
 40
0.2798369641781411
 40
0.4083713118091072
 40
0.533042869603483
 40
0.6535963008637333
 40
0.7700157379356676
 40
0.8843394719004963
 40
1.0
 40
1.0
 40
1.0
 40
1.0
 10
126.1294521233974
 20
10.24423076923076
 30
0.0
 10
126.1719549482559
 20
10.24564704474477
 30
0.0
 10
126.2541900502261
 20
10.24838727581646
 30
0.0
 10
126.3725313437759
 20
10.2708694858423
 30
0.0
 10
126.4807094125773
 20
10.30843036088011
 30
0.0
 10
126.5776384898342
 20
10.36086994156853
 30
0.0
 10
126.6628789305472
 20
10.42504309856136
 30
0.0
 10
126.7339122247128
 20
10.50034394646538
 30
0.0
 10
126.7925202341927
 20
10.58439017599153
 30
0.0
 10
126.8181102086336
 20
10.64709577180412
 30
0.0
 10
126.8309795673077
 20
10.67863080929487
 30
0.0
  0
SPLINE
  5
97
330
1F
100
AcDbEntity
  8
0
  6
Continuous
 62
     7
370
    15
100
AcDbSpline
210
0.0
220
0.0
230
1.0
 70
     8
 71
     3
 72
    15
 73
    11
 74
     0
 42
0.000000001
 43
0.00000001
 40
0.0
 40
0.0
 40
0.0
 40
0.0
 40
0.0696927557420225
 40
0.1540736621797999
 40
0.254591451045906
 40
0.3714654144289959
 40
0.5047545659520438
 40
0.653494295001859
 40
0.8189527408800006
 40
1.0
 40
1.0
 40
1.0
 40
1.0
 10
126.8309795673077
 20
10.67863080929487
 30
0.0
 10
126.8347843331549
 20
10.69130023736441
 30
0.0
 10
126.8431957412213
 20
10.71930924862556
 30
0.0
 10
126.8522330172359
 20
10.76682516323069
 30
0.0
 10
126.8603741359688
 20
10.82348948308242
 30
0.0
 10
126.867325731472
 20
10.88967300094775
 30
0.0
 10
126.8722834147024
 20
10.96520276067511
 30
0.0
 10
126.8749558816834
 20
11.05005515832198
 30
0.0
 10
126.8779751027733
 20
11.14396382075876
 30
0.0
 10
126.8780209282461
 20
11.20970243099633
 30
0.0
 10
126.8780448717949
 20
11.24405048076923
 30
0.0
  0
LINE
  5
98
330
1F
100
AcDbEntity
  8
0
  6
Continuous
 62
     7
370
    15
100
AcDbLine
 10
126.8780448718
 20
11.2440504808
 30
0.0
 11
126.8780448718
 21
12.3201923077
 31
0.0
  0
LINE
  5
99
330
1F
100
AcDbEntity
  8
0
  6
Continuous
 62
     7
370
    15
100
AcDbLine
 10
126.8780448718
 20
12.3201923077
 30
0.0
 11
127.1629807692
 21
12.3201923077
 31
0.0
  0
LINE
  5
9A
330
1F
100
AcDbEntity
  8
0
  6
Continuous
 62
     7
370
    15
100
AcDbLine
 10
127.1629807692
 20
12.3201923077
 30
0.0
 11
127.1629807692
 21
11.190625
 31
0.0
  0
SPLINE
  5
9B
330
1F
100
AcDbEntity
  8
0
  6
Continuous
 62
     7
370
    15
100
AcDbSpline
210
0.0
220
0.0
230
1.0
 70
     8
 71
     3
 72
    31
 73
    27
 74
     0
 42
0.000000001
 43
0.00000001
 40
0.0
 40
0.0
 40
0.0
 40
0.0
 40
0.0622100326824418
 40
0.1206959731983287
 40
0.175548463883197
 40
0.2261906127214154
 40
0.2737107306295714
 40
0.3173020717741399
 40
0.3578372980216221
 40
0.3954278376537074
 40
0.4310885268449378
 40
0.4660974733410743
 40
0.5010152197637684
 40
0.5354236135188859
 40
0.5701735381629585
 40
0.604765070383391
 40
0.6400930345425708
 40
0.6759387007616748
 40
0.712224790187649
 40
0.7494554524110955
 40
0.7876011171624496
 40
0.8267837743908797
 40
0.867828569948733
 40
0.9101595124056495
 40
0.9539387393934073
 40
1.0
 40
1.0
 40
1.0
 40
1.0
 10
127.1629807692308
 20
11.190625
 30
0.0
 10
127.1625800889314
 20
11.1522463516128
 30
0.0
 10
127.1618027143409
 20
11.07778652387448
 30
0.0
 10
127.1568067670361
 20
10.96957879414592
 30
0.0
 10
127.1482346184185
 20
10.86873875771559
 30
0.0
 10
127.1352237541908
 20
10.77521303683605
 30
0.0
 10
127.1199241779197
 20
10.68907303554671
 30
0.0
 10
127.1001881303195
 20
10.61020835242508
 30
0.0
 10
127.0766221575037
 20
10.5388619713377
 30
0.0
 10
127.0500378689116
 20
10.47378193084523
 30
0.0
 10
127.0186308890855
 20
10.41477510539504
 30
0.0
 10
126.9852235204672
 20
10.35877190032454
 30
0.0
 10
126.9466474774477
 20
10.30716188055666
 30
0.0
 10
126.9060344792255
 20
10.25737594182523
 30
0.0
 10
126.8608572628272
 20
10.21189041339743
 30
0.0
 10
126.8119623907688
 20
10.16966157457881
 30
0.0
 10
126.7600380599163
 20
10.13004389575629
 30
0.0
 10
126.7039320017328
 20
10.09458252089324
 30
0.0
 10
126.6444632875116
 20
10.06263599262111
 30
0.0
 10
126.5815585029264
 20
10.03431855032438
 30
0.0
 10
126.5144471688405
 20
10.01190978398756
 30
0.0
 10
126.4439951552924
 20
9.99257796578141
 30
0.0
 10
126.3698572911926
 20
9.977415554491335
 30
0.0
 10
126.2921050490543
 20
9.966723454651664
 30
0.0
 10
126.2107646185723
 20
9.960169047313652
 30
0.0
 10
126.1553296087281
 20
9.959591156625045
 30
0.0
 10
126.1269080528846
 20
9.959294871794866
 30
0.0
  0
SPLINE
  5
9C
330
1F
100
AcDbEntity
  8
0
  6
Continuous
 62
     7
370
    15
100
AcDbSpline
210
0.0
220
0.0
230
1.0
 70
     8
 71
     3
 72
    23
 73
    19
 74
     0
 42
0.000000001
 43
0.00000001
 40
0.0
 40
0.0
 40
0.0
 40
0.0
 40
0.0658188768433055
 40
0.1297465269068271
 40
0.192071954488003
 40
0.2534594242982005
 40
0.3145695877964187
 40
0.3762798811880235
 40
0.4390256536685598
 40
0.5032670288290844
 40
0.5674928228792947
 40
0.6297047956052437
 40
0.6909996492157539
 40
0.7514516509174467
 40
0.8120043642646941
 40
0.8731496810680426
 40
0.9356354837317851
 40
1.0
 40
1.0
 40
1.0
 40
1.0
 10
122.8940304487179
 20
9.918589743589735
 30
0.0
 10
122.8364955307865
 20
9.919995258807557
 30
0.0
 10
122.7230788920424
 20
9.922765903442846
 30
0.0
 10
122.5565845813764
 20
9.946516177798987
 30
0.0
 10
122.3966754851717
 20
9.983655789104374
 30
0.0
 10
122.2438088951433
 20
10.03673220624548
 30
0.0
 10
122.0978995661505
 20
10.10532783697445
 30
0.0
 10
121.9586621339918
 20
10.18897038084057
 30
0.0
 10
121.826655478994
 20
10.28821828748299
 30
0.0
 10
121.7029740375402
 20
10.40085510871003
 30
0.0
 10
121.5898086934747
 20
10.52347501661007
 30
0.0
 10
121.4911484026676
 20
10.65486037657386
 30
0.0
 10
121.4074870498709
 20
10.79243354081472
 30
0.0
 10
121.3391217411073
 20
10.93657629483123
 30
0.0
 10
121.2849975529875
 20
11.08659181785355
 30
0.0
 10
121.2480724679613
 20
11.24348079386184
 30
0.0
 10
121.224181997156
 20
11.40634877413668
 30
0.0
 10
121.2214289578476
 20
11.51724054618892
 30
0.0
 10
121.220032051282
 20
11.57350761217948
 30
0.0
  0
SPLINE
  5
9D
330
1F
100
AcDbEntity
  8
0
  6
Continuous
 62
     7
370
    15
100
AcDbSpline
210
0.0
220
0.0
230
1.0
 70
     8
 71
     3
 72
    31
 73
    27
 74
     0
 42
0.000000001
 43
0.00000001
 40
0.0
 40
0.0
 40
0.0
 40
0.0
 40
0.0432089861713361
 40
0.085872871630618
 40
0.1281200066967022
 40
0.1701519644541996
 40
0.2119176209878608
 40
0.2537530026191237
 40
0.2960064088559495
 40
0.3384433571447834
 40
0.3810153681620314
 40
0.4228204794407587
 40
0.4640890557943141
 40
0.5051258486836845
 40
0.5459749706852397
 40
0.5869852111338577
 40
0.6283385916346618
 40
0.6700838015912057
 40
0.7119916023637218
 40
0.753039154863017
 40
0.7940493953116357
 40
0.8348855427015822
 40
0.8754983129295092
 40
0.9165472998303775
 40
0.9580037786449588
 40
1.0
 40
1.0
 40
1.0
 40
1.0
 10
121.220032051282
 20
11.57350761217948
 30
0.0
 10
121.2205170420617
 20
11.61127439061059
 30
0.0
 10
121.221480905245
 20
11.68633150264872
 30
0.0
 10
121.233084797699
 20
11.79778906135835
 30
0.0
 10
121.249922912365
 20
11.90745415804698
 30
0.0
 10
121.2740546473206
 20
12.01501494655747
 30
0.0
 10
121.3056156595154
 20
12.12020812553741
 30
0.0
 10
121.3428557129338
 20
12.22375917468181
 30
0.0
 10
121.3883397155081
 20
12.32461869550801
 30
0.0
 10
121.4397571605147
 20
12.42326448656024
 30
0.0
 10
121.4971446577926
 20
12.51815880114031
 30
0.0
 10
121.5605319447954
 20
12.60785670871311
 30
0.0
 10
121.6276926004771
 20
12.6931108986513
 30
0.0
 10
121.7013193932682
 20
12.77171210927671
 30
0.0
 10
121.7789857399813
 20
12.84594692614472
 30
0.0
 10
121.8619515544315
 20
12.91467453372736
 30
0.0
 10
121.9497105903917
 20
12.97851466780936
 30
0.0
 10
122.0426404634648
 20
13.03604597721805
 30
0.0
 10
122.1384513271055
 20
13.08807890647669
 30
0.0
 10
122.2372181183768
 20
13.13273015701104
 30
0.0
 10
122.3375994368141
 20
13.17105336995275
 30
0.0
 10
122.4400654388608
 20
13.20211468995291
 30
0.0
 10
122.5443440249622
 20
13.22663660831709
 30
0.0
 10
122.6506627866819
 20
13.24333470775297
 30
0.0
 10
122.7589370233783
 20
13.25496819612233
 30
0.0
 10
122.8318815769972
 20
13.25592750149835
 30
0.0
 10
122.8685897435898
 20
13.25641025641025
 30
0.0
  0
SPLINE
  5
9E
330
1F
100
AcDbEntity
  8
0
  6
Continuous
 62
     7
370
    15
100
AcDbSpline
210
0.0
220
0.0
230
1.0
 70
     8
 71
     3
 72
    23
 73
    19
 74
     0
 42
0.000000001
 43
0.00000001
 40
0.0
 40
0.0
 40
0.0
 40
0.0
 40
0.0665700352151785
 40
0.1307490414821748
 40
0.1934128000295041
 40
0.2549893988897062
 40
0.3161135558759004
 40
0.3772617579089825
 40
0.4394007841555531
 40
0.5029705893719745
 40
0.566524976360731
 40
0.6282311025133076
 40
0.6890906105998637
 40
0.7493446689958043
 40
0.8101695933722055
 40
0.8716098243170429
 40
0.9348691840727639
 40
1.0
 40
1.0
 40
1.0
 40
1.0
 10
122.8685897435898
 20
13.25641025641025
 30
0.0
 10
122.9273799539492
 20
13.25492120012364
 30
0.0
 10
123.042848777545
 20
13.25199657072307
 30
0.0
 10
123.2125524347661
 20
13.22960909821213
 30
0.0
 10
123.3745636997742
 20
13.19087828017057
 30
0.0
 10
123.5302023256873
 20
13.13929543177733
 30
0.0
 10
123.6776066687179
 20
13.07048466789621
 30
0.0
 10
123.8178862354771
 20
12.98731314047391
 30
0.0
 10
123.9507072567333
 20
12.88890949574322
 30
0.0
 10
124.0742795099769
 20
12.77603441138496
 30
0.0
 10
124.1873611720195
 20
12.65322227820284
 30
0.0
 10
124.2869889402781
 20
12.52216017406525
 30
0.0
 10
124.3704844495918
 20
12.38364054625849
 30
0.0
 10
124.4390515565203
 20
12.23807964989065
 30
0.0
 10
124.4928438667426
 20
12.08580667894221
 30
0.0
 10
124.5299632849476
 20
11.92600983359825
 30
0.0
 10
124.5536743211578
 20
11.75972447903289
 30
0.0
 10
124.556446347806
 20
11.64630725174777
 30
0.0
 10
124.5578525641026
 20
11.5887720352564
 30
0.0
  0
SPLINE
  5
9F
330
1F
100
AcDbEntity
  8
0
  6
Continuous
 62
     7
370
    15
100
AcDbSpline
210
0.0
220
0.0
230
1.0
 70
     8
 71
     3
 72
    23
 73
    19
 74
     0
 42
0.000000001
 43
0.00000001
 40
0.0
 40
0.0
 40
0.0
 40
0.0
 40
0.0652265038922757
 40
0.128568995706729
 40
0.1903203781044676
 40
0.2513779886240629
 40
0.3123875283336933
 40
0.3737887042767238
 40
0.4364311597804488
 40
0.5005667553098506
 40
0.5646867953847432
 40
0.6271355178835117
 40
0.6884554088949785
 40
0.7492457464637468
 40
0.8101551773646752
 40
0.8716709256529189
 40
0.9347734961077244
 40
1.0
 40
1.0
 40
1.0
 40
1.0
 10
124.5578525641026
 20
11.5887720352564
 30
0.0
 10
124.5564465538843
 20
11.53166063749009
 30
0.0
 10
124.5536751448568
 20
11.41908745609823
 30
0.0
 10
124.5299363252353
 20
11.25385733174337
 30
0.0
 10
124.4927062752589
 20
11.09502505707735
 30
0.0
 10
124.439551090936
 20
10.94285578634581
 30
0.0
 10
124.371310835473
 20
10.79718899635898
 30
0.0
 10
124.2872593588041
 20
10.65840797390901
 30
0.0
 10
124.1882526890595
 20
10.52646722180179
 30
0.0
 10
124.0755793313364
 20
10.40281216120602
 30
0.0
 10
123.9527512432237
 20
10.2894215985054
 30
0.0
 10
123.8210066440469
 20
10.19061661842091
 30
0.0
 10
123.6833084181178
 20
10.10559544824907
 30
0.0
 10
123.5378846114303
 20
10.03775597258061
 30
0.0
 10
123.3866638637377
 20
9.983534301891135
 30
0.0
 10
123.2282927563646
 20
9.946565844648386
 30
0.0
 10
123.0635133823422
 20
9.922719741126869
 30
0.0
 10
122.9511446860356
 20
9.919981515931724
 30
0.0
 10
122.8940304487179
 20
9.918589743589735
 30
0.0
  0
LINE
  5
A0
330
1F
100
AcDbEntity
  8
0
  6
Continuous
 62
     7
370
    15
100
AcDbLine
 10
114.7072115385
 20
10.0
 30
0.0
 11
114.422275641
 21
10.0
 31
0.0
  0
LINE
  5
A1
330
1F
100
AcDbEntity
  8
0
  6
Continuous
 62
     7
370
    15
100
AcDbLine
 10
114.422275641
 20
10.0
 30
0.0
 11
114.422275641
 21
12.3201923077
 31
0.0
  0
LINE
  5
A2
330
1F
100
AcDbEntity
  8
0
  6
Continuous
 62
     7
370
    15
100
AcDbLine
 10
114.422275641
 20
12.3201923077
 30
0.0
 11
114.7072115385
 21
12.3201923077
 31
0.0
  0
LINE
  5
A3
330
1F
100
AcDbEntity
  8
0
  6
Continuous
 62
     7
370
    15
100
AcDbLine
 10
114.7072115385
 20
12.3201923077
 30
0.0
 11
114.7072115385
 21
11.9016927083
 31
0.0
  0
SPLINE
  5
A4
330
1F
100
AcDbEntity
  8
0
  6
Continuous
 62
     7
370
    15
100
AcDbSpline
210
0.0
220
0.0
230
1.0
 70
     8
 71
     3
 72
    15
 73
    11
 74
     0
 42
0.000000001
 43
0.00000001
 40
0.0
 40
0.0
 40
0.0
 40
0.0
 40
0.1409759662687707
 40
0.2735687809631759
 40
0.3989883138042535
 40
0.519929781392431
 40
0.638110021524754
 40
0.7565889007405964
 40
0.8768597544106093
 40
1.0
 40
1.0
 40
1.0
 40
1.0
 10
114.7072115384615
 20
11.90169270833333
 30
0.0
 10
114.7376349646171
 20
11.93965003547888
 30
0.0
 10
114.796672684495
 20
12.0133075530733
 30
0.0
 10
114.894992758252
 20
12.11011835999565
 30
0.0
 10
114.9989004392589
 20
12.18989724271485
 30
0.0
 10
115.1077593995652
 20
12.25349139865006
 30
0.0
 10
115.2217174158701
 20
12.30143083808491
 30
0.0
 10
115.3400798464795
 20
12.33605278985549
 30
0.0
 10
115.4635553298592
 20
12.35681259860214
 30
0.0
 10
115.5475244975944
 20
12.35952516465957
 30
0.0
 10
115.5900040064102
 20
12.36089743589743
 30
0.0
  0
SPLINE
  5
A5
330
1F
100
AcDbEntity
  8
0
  6
Continuous
 62
     7
370
    15
100
AcDbSpline
210
0.0
220
0.0
230
1.0
 70
     8
 71
     3
 72
    23
 73
    19
 74
     0
 42
0.000000001
 43
0.00000001
 40
0.0
 40
0.0
 40
0.0
 40
0.0
 40
0.0772404236164825
 40
0.1511781404663827
 40
0.2234879838004036
 40
0.2955426441988709
 40
0.3669762546197929
 40
0.4371305254863884
 40
0.5070436156432694
 40
0.5785597335236775
 40
0.6166135446965532
 40
0.6587562369775294
 40
0.704491226114404
 40
0.7548031149051501
 40
0.8093316253185657
 40
0.8682744554728212
 40
0.9320728834092935
 40
1.0
 40
1.0
 40
1.0
 40
1.0
 10
115.5900040064102
 20
12.36089743589743
 30
0.0
 10
115.6329396530731
 20
12.35931429431863
 30
0.0
 10
115.7169750702589
 20
12.35621570437347
 30
0.0
 10
115.8393287402269
 20
12.33170770600845
 30
0.0
 10
115.9536046044999
 20
12.28984736743109
 30
0.0
 10
116.0593952015362
 20
12.23250498927975
 30
0.0
 10
116.1547606022295
 20
12.1611976884063
 30
0.0
 10
116.2385124317828
 20
12.0781235578105
 30
0.0
 10
116.3077848061896
 20
11.98256868230391
 30
0.0
 10
116.3542281283394
 20
11.89391981914642
 30
0.0
 10
116.3848221087447
 20
11.81528069862752
 30
0.0
 10
116.4040828720609
 20
11.74792828960929
 30
0.0
 10
116.4204395480991
 20
11.6728911096202
 30
0.0
 10
116.4346197766579
 20
11.590395910978
 30
0.0
 10
116.4442147281377
 20
11.49986469553478
 30
0.0
 10
116.4517823783125
 20
11.40166857488677
 30
0.0
 10
116.4572059081312
 20
11.29583935650864
 30
0.0
 10
116.4574210887549
 20
11.22264505878682
 30
0.0
 10
116.457532051282
 20
11.18490084134615
 30
0.0
  0
LINE
  5
A6
330
1F
100
AcDbEntity
  8
0
  6
Continuous
 62
     7
370
    15
100
AcDbLine
 10
116.4575320513
 20
11.1849008413
 30
0.0
 11
116.4575320513
 21
10.0
 31
0.0
  0
LINE
  5
A7
330
1F
100
AcDbEntity
  8
0
  6
Continuous
 62
     7
370
    15
100
AcDbLine
 10
116.4575320513
 20
10.0
 30
0.0
 11
116.1725961538
 21
10.0
 31
0.0
  0
LINE
  5
A8
330
1F
100
AcDbEntity
  8
0
  6
Continuous
 62
     7
370
    15
100
AcDbLine
 10
116.1725961538
 20
10.0
 30
0.0
 11
116.1725961538
 21
11.09140625
 31
0.0
  0
SPLINE
  5
A9
330
1F
100
AcDbEntity
  8
0
  6
Continuous
 62
     7
370
    15
100
AcDbSpline
210
0.0
220
0.0
230
1.0
 70
     8
 71
     3
 72
    15
 73
    11
 74
     0
 42
0.000000001
 43
0.00000001
 40
0.0
 40
0.0
 40
0.0
 40
0.0
 40
0.1788500194111608
 40
0.3421096489423008
 40
0.4898256633683922
 40
0.6232544282245651
 40
0.7400796760857957
 40
0.8414826730699845
 40
0.9289076721840664
 40
1.0
 40
1.0
 40
1.0
 40
1.0
 10
116.1725961538461
 20
11.09140624999999
 30
0.0
 10
116.1724208865718
 20
11.12299518218537
 30
0.0
 10
116.1720856301045
 20
11.18341943338747
 30
0.0
 10
116.1710282220406
 20
11.26993276156727
 30
0.0
 10
116.1684793260509
 20
11.34838844340408
 30
0.0
 10
116.1648976421912
 20
11.41859891240757
 30
0.0
 10
116.1596552359255
 20
11.48049674986147
 30
0.0
 10
116.1541918489151
 20
11.5342080223314
 30
0.0
 10
116.1475107628207
 20
11.57966453582402
 30
0.0
 10
116.1415572630463
 20
11.607028574843
 30
0.0
 10
116.1388872195513
 20
11.61930088141025
 30
0.0
  0
SPLINE
  5
AA
330
1F
100
AcDbEntity
  8
0
  6
Continuous
 62
     7
370
    15
100
AcDbSpline
210
0.0
220
0.0
230
1.0
 70
     8
 71
     3
 72
    15
 73
    11
 74
     0
 42
0.000000001
 43
0.00000001
 40
0.0
 40
0.0
 40
0.0
 40
0.0
 40
0.1355195283706071
 40
0.2608331631936783
 40
0.3784760291245001
 40
0.4931776464746775
 40
0.609280964928941
 40
0.7299810378566484
 40
0.8592613089300682
 40
1.0
 40
1.0
 40
1.0
 40
1.0
 10
116.1388872195513
 20
11.61930088141025
 30
0.0
 10
116.1292483445419
 20
11.65532459918419
 30
0.0
 10
116.1106964923585
 20
11.72465911037933
 30
0.0
 10
116.0648549505236
 20
11.81870655882879
 30
0.0
 10
116.0069663722378
 20
11.89871491493108
 30
0.0
 10
115.9363018945995
 20
11.96418951240464
 30
0.0
 10
115.8535440902685
 20
12.01514448570132
 30
0.0
 10
115.7589226107578
 20
12.05049943034659
 30
0.0
 10
115.6533505581478
 20
12.07261218883417
 30
0.0
 10
115.5790969395797
 20
12.07481394430521
 30
0.0
 10
115.5403946314103
 20
12.07596153846153
 30
0.0
  0
SPLINE
  5
AB
330
1F
100
AcDbEntity
  8
0
  6
Continuous
 62
     7
370
    15
100
AcDbSpline
210
0.0
220
0.0
230
1.0
 70
     8
 71
     3
 72
    23
 73
    19
 74
     0
 42
0.000000001
 43
0.00000001
 40
0.0
 40
0.0
 40
0.0
 40
0.0
 40
0.0639861098164609
 40
0.1266268580894719
 40
0.1889843719814867
 40
0.2502301939603992
 40
0.3123511629623275
 40
0.3745736184579437
 40
0.4381475308782029
 40
0.502920412607369
 40
0.5679740951402691
 40
0.6307713337491887
 40
0.6929346089254614
 40
0.7543975343123275
 40
0.8152183520172943
 40
0.8761169254810909
 40
0.9380146047939537
 40
1.0
 40
1.0
 40
1.0
 40
1.0
 10
115.5403946314103
 20
12.07596153846153
 30
0.0
 10
115.5174732327115
 20
12.07552973423103
 30
0.0
 10
115.4721123769171
 20
12.0746752048156
 30
0.0
 10
115.4048477595451
 20
12.06610152732331
 30
0.0
 10
115.3396022595908
 20
12.05207849974481
 30
0.0
 10
115.2757210700027
 20
12.03314766429915
 30
0.0
 10
115.2144818571144
 20
12.00714689150428
 30
0.0
 10
115.1539171072582
 20
11.9776381056574
 30
0.0
 10
115.0963073997975
 20
11.94085508478499
 30
0.0
 10
115.0404243181167
 20
11.89986073533607
 30
0.0
 10
114.9884334140313
 20
11.85443174023539
 30
0.0
 10
114.9400569927588
 20
11.80649422031099
 30
0.0
 10
114.8969332172453
 20
11.75544420829597
 30
0.0
 10
114.8578637760951
 20
11.70210425589459
 30
0.0
 10
114.8241377800311
 20
11.64574180285437
 30
0.0
 10
114.7946981930032
 20
11.5869006105486
 30
0.0
 10
114.7697193841564
 20
11.52550323268695
 30
0.0
 10
114.7573072274159
 20
11.48289014142762
 30
0.0
 10
114.7510967548077
 20
11.46156850961538
 30
0.0
  0
SPLINE
  5
AC
330
1F
100
AcDbEntity
  8
0
  6
Continuous
 62
     7
370
    15
100
AcDbSpline
210
0.0
220
0.0
230
1.0
 70
     8
 71
     3
 72
    15
 73
    11
 74
     0
 42
0.000000001
 43
0.00000001
 40
0.0
 40
0.0
 40
0.0
 40
0.0
 40
0.0769954547170585
 40
0.1676150771831721
 40
0.2710523936342354
 40
0.3894595025720743
 40
0.5208428024655756
 40
0.6663987586080743
 40
0.8260936125153175
 40
1.0
 40
1.0
 40
1.0
 40
1.0
 10
114.7510967548077
 20
11.46156850961538
 30
0.0
 10
114.7475229307426
 20
11.44591557541649
 30
0.0
 10
114.7397429027044
 20
11.41183995649156
 30
0.0
 10
114.7313398752611
 20
11.35591966176412
 30
0.0
 10
114.7237130032895
 20
11.29123132730695
 30
0.0
 10
114.7173294765427
 20
11.21785043969201
 30
0.0
 10
114.7134238487444
 20
11.13552008154967
 30
0.0
 10
114.7091653602425
 20
11.04459185725604
 30
0.0
 10
114.7076149977038
 20
10.94470319281874
 30
0.0
 10
114.707349790845
 20
10.87516008584699
 30
0.0
 10
114.7072115384615
 20
10.83890725160256
 30
0.0
  0
LINE
  5
AD
330
1F
100
AcDbEntity
  8
0
  6
Continuous
 62
     7
370
    15
100
AcDbLine
 10
114.7072115385
 20
10.8389072516
 30
0.0
 11
114.7072115385
 21
10.0
 31
0.0
  0
LINE
  5
AE
330
1F
100
AcDbEntity
  8
0
  6
Continuous
 62
     7
370
    15
100
AcDbLine
 10
113.7302884615
 20
10.0
 30
0.0
 11
113.4453525641
 21
10.0
 31
0.0
  0
LINE
  5
AF
330
1F
100
AcDbEntity
  8
0
  6
Continuous
 62
     7
370
    15
100
AcDbLine
 10
113.4453525641
 20
10.0
 30
0.0
 11
113.4453525641
 21
12.3201923077
 31
0.0
  0
LINE
  5
B0
330
1F
100
AcDbEntity
  8
0
  6
Continuous
 62
     7
370
    15
100
AcDbLine
 10
113.4453525641
 20
12.3201923077
 30
0.0
 11
113.7302884615
 21
12.3201923077
 31
0.0
  0
LINE
  5
B1
330
1F
100
AcDbEntity
  8
0
  6
Continuous
 62
     7
370
    15
100
AcDbLine
 10
113.7302884615
 20
12.3201923077
 30
0.0
 11
113.7302884615
 21
10.0
 31
0.0
  0
SPLINE
  5
B2
330
1F
100
AcDbEntity
  8
0
  6
Continuous
 62
     7
370
    15
100
AcDbSpline
210
0.0
220
0.0
230
1.0
 70
     8
 71
     3
 72
    15
 73
    11
 74
     0
 42
0.000000001
 43
0.00000001
 40
0.0
 40
0.0
 40
0.0
 40
0.0
 40
0.1318667517023655
 40
0.2566614034533689
 40
0.3842132129425007
 40
0.5133652331525831
 40
0.6404431518253874
 40
0.7610850047778875
 40
0.8791455246531654
 40
1.0
 40
1.0
 40
1.0
 40
1.0
 10
113.5865484775641
 20
12.80865384615384
 30
0.0
 10
113.5690693993772
 20
12.80944280664065
 30
0.0
 10
113.5350486573734
 20
12.81097841514848
 30
0.0
 10
113.4857301646772
 20
12.82510264552359
 30
0.0
 10
113.4405286064419
 20
12.84815865469333
 30
0.0
 10
113.4000113676732
 20
12.8792066940297
 30
0.0
 10
113.3662382639034
 20
12.91634956508804
 30
0.0
 10
113.3416562115793
 20
12.95837503880129
 30
0.0
 10
113.3261667818688
 20
13.00392191477617
 30
0.0
 10
113.3242212973398
 20
13.03559223707089
 30
0.0
 10
113.3232371794872
 20
13.0516125801282
 30
0.0
  0
SPLINE
  5
B3
330
1F
100
AcDbEntity
  8
0
  6
Continuous
 62
     7
370
    15
100
AcDbSpline
210
0.0
220
0.0
230
1.0
 70
     8
 71
     3
 72
    15
 73
    11
 74
     0
 42
0.000000001
 43
0.00000001
 40
0.0
 40
0.0
 40
0.0
 40
0.0
 40
0.1232898687277962
 40
0.2421490813339692
 40
0.3634374760537338
 40
0.4897453933413771
 40
0.618114844593007
 40
0.7448937812572439
 40
0.8689322665891516
 40
1.0
 40
1.0
 40
1.0
 40
1.0
 10
113.3232371794872
 20
13.0516125801282
 30
0.0
 10
113.3241997366325
 20
13.06805985083924
 30
0.0
 10
113.3260902595997
 20
13.10036332828006
 30
0.0
 10
113.3416678220968
 20
13.14671382242501
 30
0.0
 10
113.3660335048521
 20
13.18933275620357
 30
0.0
 10
113.4000337303433
 20
13.22654874496856
 30
0.0
 10
113.4405226550171
 20
13.25761424650908
 30
0.0
 10
113.4857317024182
 20
13.28066563687176
 30
0.0
 10
113.5350482511402
 20
13.29479106615766
 30
0.0
 10
113.5690692615013
 20
13.29632650916099
 30
0.0
 10
113.5865484775641
 20
13.29711538461538
 30
0.0
  0
SPLINE
  5
B4
330
1F
100
AcDbEntity
  8
0
  6
Continuous
 62
     7
370
    15
100
AcDbSpline
210
0.0
220
0.0
230
1.0
 70
     8
 71
     3
 72
    15
 73
    11
 74
     0
 42
0.000000001
 43
0.00000001
 40
0.0
 40
0.0
 40
0.0
 40
0.0
 40
0.1318992643310742
 40
0.2582840923169646
 40
0.384341124779093
 40
0.5119796151257079
 40
0.6386320084211341
 40
0.7592297631645823
 40
0.8774121680352011
 40
0.9999999999999999
 40
0.9999999999999999
 40
0.9999999999999999
 40
0.9999999999999999
 10
113.5865484775641
 20
13.29711538461538
 30
0.0
 10
113.6042298854576
 20
13.29629518922782
 30
0.0
 10
113.638853478029
 20
13.29468908913111
 30
0.0
 10
113.6889216565639
 20
13.2809354634955
 30
0.0
 10
113.7345119460894
 20
13.25762217741371
 30
0.0
 10
113.774950318068
 20
13.22634418116818
 30
0.0
 10
113.8096502438429
 20
13.189560043173
 30
0.0
 10
113.8339441739692
 20
13.14668759336232
 30
0.0
 10
113.8495582761595
 20
13.10037011388957
 30
0.0
 10
113.8514438227327
 20
13.06806214013245
 30
0.0
 10
113.8524038461538
 20
13.0516125801282
 30
0.0
  0
SPLINE
  5
B5
330
1F
100
AcDbEntity
  8
0
  6
Continuous
 62
     7
370
    15
100
AcDbSpline
210
0.0
220
0.0
230
1.0
 70
     8
 71
     3
 72
    15
 73
    11
 74
     0
 42
0.000000001
 43
0.00000001
 40
0.0
 40
0.0
 40
0.0
 40
0.0
 40
0.1201621349925895
 40
0.2375463202768791
 40
0.3574970509273692
 40
0.484917122465276
 40
0.6133292680851364
 40
0.7401503701286989
 40
0.867301254563267
 40
1.0
 40
1.0
 40
1.0
 40
1.0
 10
113.8524038461538
 20
13.0516125801282
 30
0.0
 10
113.8514221725985
 20
13.035590030473
 30
0.0
 10
113.8494815201557
 20
13.0039153459954
 30
0.0
 10
113.8339562343849
 20
12.958400839205
 30
0.0
 10
113.809443204342
 20
12.9161240963308
 30
0.0
 10
113.7749725689525
 20
12.87941138063825
 30
0.0
 10
113.7345060500437
 20
12.84815067536115
 30
0.0
 10
113.6889232228797
 20
12.82483280506873
 30
0.0
 10
113.6388530660129
 20
12.81108039474411
 30
0.0
 10
113.6042297461779
 20
12.80947412710244
 30
0.0
 10
113.5865484775641
 20
12.80865384615384
 30
0.0
  0
SPLINE
  5
B6
330
1F
100
AcDbEntity
  8
0
  6
Continuous
 62
     7
370
    15
100
AcDbSpline
210
0.0
220
0.0
230
1.0
 70
     8
 71
     3
 72
    23
 73
    19
 74
     0
 42
0.000000001
 43
0.00000001
 40
0.0
 40
0.0
 40
0.0
 40
0.0
 40
0.0679784896192547
 40
0.1330435352439075
 40
0.1965074380533966
 40
0.2586134167685769
 40
0.3197283376065493
 40
0.3808728540495712
 40
0.4426356023162076
 40
0.5050793035048774
 40
0.5678805200585803
 40
0.6288138541554883
 40
0.6889100905404406
 40
0.7487650058898518
 40
0.809385782963116
 40
0.8708843357532354
 40
0.9340374630736988
 40
1.0
 40
1.0
 40
1.0
 40
1.0
 10
111.695032051282
 20
11.75222856570512
 30
0.0
 10
111.6955166427531
 20
11.77366017670121
 30
0.0
 10
111.6964650569179
 20
11.81560487580916
 30
0.0
 10
111.7040343037045
 20
11.87723509136987
 30
0.0
 10
111.7178153560037
 20
11.93578948807543
 30
0.0
 10
111.7351008929327
 20
11.99214742809025
 30
0.0
 10
111.7591247612498
 20
12.04521718482449
 30
0.0
 10
111.7878321180598
 20
12.09570646211612
 30
0.0
 10
111.8215664249551
 20
12.1435454734469
 30
0.0
 10
111.8604314102245
 20
12.18799831469819
 30
0.0
 10
111.9031638669812
 20
12.22837463213398
 30
0.0
 10
111.9493326938125
 20
12.26357053036516
 30
0.0
 10
111.9978995408537
 20
12.29360272364478
 30
0.0
 10
112.0490700357394
 20
12.3187896907525
 30
0.0
 10
112.1033357504995
 20
12.3378409449635
 30
0.0
 10
112.1603173723908
 20
12.35095585856132
 30
0.0
 10
112.2198995628883
 20
12.35971450681642
 30
0.0
 10
112.2606312985819
 20
12.36049744757111
 30
0.0
 10
112.2814403044871
 20
12.36089743589743
 30
0.0
  0
SPLINE
  5
B7
330
1F
100
AcDbEntity
  8
0
  6
Continuous
 62
     7
370
    15
100
AcDbSpline
210
0.0
220
0.0
230
1.0
 70
     8
 71
     3
 72
    15
 73
    11
 74
     0
 42
0.000000001
 43
0.00000001
 40
0.0
 40
0.0
 40
0.0
 40
0.0
 40
0.1057142614175197
 40
0.213411612639002
 40
0.3261267300734758
 40
0.4444516715568735
 40
0.5690610798550921
 40
0.7027122044812221
 40
0.8463179465861975
 40
1.0
 40
1.0
 40
1.0
 40
1.0
 10
112.2814403044872
 20
12.36089743589743
 30
0.0
 10
112.306107390631
 20
12.35989564112195
 30
0.0
 10
112.3559042918482
 20
12.35787325894093
 30
0.0
 10
112.4306117026204
 20
12.34181166817807
 30
0.0
 10
112.505209091514
 20
12.31538378088783
 30
0.0
 10
112.5798881304132
 20
12.27888376921658
 30
0.0
 10
112.6541017500682
 20
12.23165167466812
 30
0.0
 10
112.7285027557669
 20
12.17456581024115
 30
0.0
 10
112.8039843261015
 20
12.10800174065068
 30
0.0
 10
112.8511161244149
 20
12.0571117290197
 30
0.0
 10
112.8754807692308
 20
12.03080428685897
 30
0.0
  0
LINE
  5
B8
330
1F
100
AcDbEntity
  8
0
  6
Continuous
 62
     7
370
    15
100
AcDbLine
 10
112.8754807692
 20
12.0308042869
 30
0.0
 11
112.6821314103
 21
11.8317307692
 31
0.0
  0
SPLINE
  5
B9
330
1F
100
AcDbEntity
  8
0
  6
Continuous
 62
     7
370
    15
100
AcDbSpline
210
0.0
220
0.0
230
1.0
 70
     8
 71
     3
 72
    15
 73
    11
 74
     0
 42
0.000000001
 43
0.00000001
 40
0.0
 40
0.0
 40
0.0
 40
0.0
 40
0.1582230975563253
 40
0.3050355053581599
 40
0.4413089638879018
 40
0.5659632271047114
 40
0.683525114415058
 40
0.7933341296295885
 40
0.8985175121610073
 40
1.0
 40
1.0
 40
1.0
 40
1.0
 10
112.6821314102564
 20
11.83173076923076
 30
0.0
 10
112.6654485963417
 20
11.8510648376916
 30
0.0
 10
112.6332860950896
 20
11.88833864559111
 30
0.0
 10
112.5822761087518
 20
11.93817441306214
 30
0.0
 10
112.5314546969379
 20
11.98002720767412
 30
0.0
 10
112.4815175589108
 20
12.01536247111328
 30
0.0
 10
112.4312089862505
 20
12.0420770541057
 30
0.0
 10
112.3811193533734
 20
12.06157596458013
 30
0.0
 10
112.3311967977206
 20
12.07364260257235
 30
0.0
 10
112.2978266086324
 20
12.0751978433877
 30
0.0
 10
112.2814403044872
 20
12.07596153846153
 30
0.0
  0
SPLINE
  5
BA
330
1F
100
AcDbEntity
  8
0
  6
Continuous
 62
     7
370
    15
100
AcDbSpline
210
0.0
220
0.0
230
1.0
 70
     8
 71
     3
 72
    15
 73
    11
 74
     0
 42
0.000000001
 43
0.00000001
 40
0.0
 40
0.0
 40
0.0
 40
0.0
 40
0.1249584925460612
 40
0.2459006286062698
 40
0.3691660295860785
 40
0.4985108411773548
 40
0.6285038663665984
 40
0.7510283288509935
 40
0.873724174278431
 40
0.9999999999999999
 40
0.9999999999999999
 40
0.9999999999999999
 40
0.9999999999999999
 10
112.2814403044871
 20
12.07596153846153
 30
0.0
 10
112.2613567151307
 20
12.07498647511747
 30
0.0
 10
112.221835053603
 20
12.07306768845199
 30
0.0
 10
112.1652059184003
 20
12.05391479093401
 30
0.0
 10
112.1126364228483
 20
12.02451543533108
 30
0.0
 10
112.0671368766999
 20
11.98281536310601
 30
0.0
 10
112.0285944812519
 20
11.93495063352626
 30
0.0
 10
112.0004606420425
 20
11.88143253880829
 30
0.0
 10
111.9832557854644
 20
11.82387609916042
 30
0.0
 10
111.981074349969
 20
11.78393472827554
 30
0.0
 10
111.9799679487179
 20
11.76367688301281
 30
0.0
  0
SPLINE
  5
BB
330
1F
100
AcDbEntity
  8
0
  6
Continuous
 62
     7
370
    15
100
AcDbSpline
210
0.0
220
0.0
230
1.0
 70
     8
 71
     3
 72
    11
 73
     7
 74
     0
 42
0.000000001
 43
0.00000001
 40
0.0
 40
0.0
 40
0.0
 40
0.0
 40
0.2400399314959925
 40
0.4794031936061127
 40
0.7317567388575682
 40
0.9999999999999999
 40
0.9999999999999999
 40
0.9999999999999999
 40
0.9999999999999999
 10
111.9799679487179
 20
11.76367688301281
 30
0.0
 10
111.9809756141301
 20
11.7453416715324
 30
0.0
 10
111.9829881043589
 20
11.70872293528975
 30
0.0
 10
111.9986333062148
 20
11.65470436173442
 30
0.0
 10
112.0235489574064
 20
11.60203833423098
 30
0.0
 10
112.0468354907913
 20
11.56977769775326
 30
0.0
 10
112.0588341346154
 20
11.55315504807692
 30
0.0
  0
SPLINE
  5
BC
330
1F
100
AcDbEntity
  8
0
  6
Continuous
 62
     7
370
    15
100
AcDbSpline
210
0.0
220
0.0
230
1.0
 70
     8
 71
     3
 72
    15
 73
    11
 74
     0
 42
0.000000001
 43
0.00000001
 40
0.0
 40
0.0
 40
0.0
 40
0.0
 40
0.0834251049856352
 40
0.177559821465982
 40
0.2839823599504616
 40
0.4022167468072198
 40
0.5335684803800647
 40
0.6761209941988475
 40
0.8316493725539947
 40
1.0
 40
1.0
 40
1.0
 40
1.0
 10
112.0588341346154
 20
11.55315504807692
 30
0.0
 10
112.0660581611082
 20
11.54427903228909
 30
0.0
 10
112.081433591017
 20
11.52538755137471
 30
0.0
 10
112.1102884581746
 20
11.49916762720308
 30
0.0
 10
112.1429660143407
 20
11.47019144238988
 30
0.0
 10
112.1822633864264
 20
11.44122016884507
 30
0.0
 10
112.2264875331498
 20
11.41071138955077
 30
0.0
 10
112.2765974552579
 20
11.37986659749523
 30
0.0
 10
112.3310028990531
 20
11.34633458348938
 30
0.0
 10
112.3699531700554
 20
11.32506713124611
 30
0.0
 10
112.3901993189102
 20
11.31401241987179
 30
0.0
  0
SPLINE
  5
BD
330
1F
100
AcDbEntity
  8
0
  6
Continuous
 62
     7
370
    15
100
AcDbSpline
210
0.0
220
0.0
230
1.0
 70
     8
 71
     3
 72
    15
 73
    11
 74
     0
 42
0.000000001
 43
0.00000001
 40
0.0
 40
0.0
 40
0.0
 40
0.0
 40
0.1589891012267964
 40
0.307114591605569
 40
0.4462131585962184
 40
0.5748760724117336
 40
0.6941521095829556
 40
0.8045811801532424
 40
0.9065933190457676
 40
1.0
 40
1.0
 40
1.0
 40
1.0
 10
112.3901993189102
 20
11.31401241987179
 30
0.0
 10
112.4148859209912
 20
11.30018311517611
 30
0.0
 10
112.462572307402
 20
11.27346945222043
 30
0.0
 10
112.530329317698
 20
11.2320042211796
 30
0.0
 10
112.5918218477217
 20
11.19079142916005
 30
0.0
 10
112.6475709176601
 20
11.15027183071392
 30
0.0
 10
112.6965038442524
 20
11.10931172937582
 30
0.0
 10
112.7401052598722
 20
11.06948112126398
 30
0.0
 10
112.7772876340053
 20
11.02957653446354
 30
0.0
 10
112.7981101246433
 20
11.0016972099109
 30
0.0
 10
112.808062900641
 20
10.98837139423076
 30
0.0
  0
SPLINE
  5
BE
330
1F
100
AcDbEntity
  8
0
  6
Continuous
 62
     7
370
    15
100
AcDbSpline
210
0.0
220
0.0
230
1.0
 70
     8
 71
     3
 72
    11
 73
     7
 74
     0
 42
0.000000001
 43
0.00000001
 40
0.0
 40
0.0
 40
0.0
 40
0.0
 40
0.2488386141270633
 40
0.4952350254576713
 40
0.743335603875006
 40
1.0
 40
1.0
 40
1.0
 40
1.0
 10
112.808062900641
 20
10.98837139423076
 30
0.0
 10
112.8245824505076
 20
10.96146001435637
 30
0.0
 10
112.8574594206976
 20
10.9079013737734
 30
0.0
 10
112.8919837052684
 20
10.819710371736
 30
0.0
 10
112.9119955260185
 20
10.72617441595366
 30
0.0
 10
112.9147733972214
 20
10.66219161627638
 30
0.0
 10
112.9161858974359
 20
10.62965745192307
 30
0.0
  0
SPLINE
  5
BF
330
1F
100
AcDbEntity
  8
0
  6
Continuous
 62
     7
370
    15
100
AcDbSpline
210
0.0
220
0.0
230
1.0
 70
     8
 71
     3
 72
    23
 73
    19
 74
     0
 42
0.000000001
 43
0.00000001
 40
0.0
 40
0.0
 40
0.0
 40
0.0
 40
0.064548125564251
 40
0.1271991327555113
 40
0.188597338087427
 40
0.2486395150940129
 40
0.3095246994640602
 40
0.3700369910533524
 40
0.431889243607072
 40
0.4957042857252975
 40
0.5595193278435127
 40
0.6213715803972348
 40
0.6823971072916365
 40
0.7435684819321623
 40
0.8054984835712148
 40
0.8686397008205172
 40
0.9330662250811667
 40
1.0
 40
1.0
 40
1.0
 40
1.0
 10
112.9161858974359
 20
10.62965745192307
 30
0.0
 10
112.9155331774747
 20
10.60673472640099
 30
0.0
 10
112.9142469214872
 20
10.56156299164783
 30
0.0
 10
112.9053042464794
 20
10.49503782470475
 30
0.0
 10
112.8899236608147
 20
10.43141576179675
 30
0.0
 10
112.868974326868
 20
10.37000646781748
 30
0.0
 10
112.8406856457338
 20
10.3119865725931
 30
0.0
 10
112.8075315726037
 20
10.25589226101144
 30
0.0
 10
112.7677307598148
 20
10.20293695236678
 30
0.0
 10
112.7222907262196
 20
10.15319018134828
 30
0.0
 10
112.67253802811
 20
10.10775525333125
 30
0.0
 10
112.6194646026037
 20
10.06781923803836
 30
0.0
 10
112.5630050919789
 20
10.03464108929346
 30
0.0
 10
112.5035629221173
 20
10.00718609753739
 30
0.0
 10
112.4410030359228
 20
9.985352749257464
 30
0.0
 10
112.3753156520701
 20
9.970237453048673
 30
0.0
 10
112.3067095675658
 20
9.961190734056096
 30
0.0
 10
112.2600553844756
 20
9.959934816374384
 30
0.0
 10
112.2362830528846
 20
9.959294871794862
 30
0.0
  0
SPLINE
  5
C0
330
1F
100
AcDbEntity
  8
0
  6
Continuous
 62
     7
370
    15
100
AcDbSpline
210
0.0
220
0.0
230
1.0
 70
     8
 71
     3
 72
    15
 73
    11
 74
     0
 42
0.000000001
 43
0.00000001
 40
0.0
 40
0.0
 40
0.0
 40
0.0
 40
0.1267425189618499
 40
0.251723961249609
 40
0.3772186880262351
 40
0.5046935492516365
 40
0.6314582385934822
 40
0.7554010672029525
 40
0.8777005336014826
 40
1.0
 40
1.0
 40
1.0
 40
1.0
 10
112.2362830528846
 20
9.959294871794862
 30
0.0
 10
112.2041999723087
 20
9.96019539280447
 30
0.0
 10
112.1404796028715
 20
9.961983922159764
 30
0.0
 10
112.0462367862152
 20
9.9787715633583
 30
0.0
 10
111.9541429551408
 20
10.0048930993146
 30
0.0
 10
111.8648950292914
 20
10.04092112530088
 30
0.0
 10
111.7804889116921
 20
10.08641498624999
 30
0.0
 10
111.7032630015184
 20
10.14090015757466
 30
0.0
 10
111.6329490320005
 20
10.20257679807675
 30
0.0
 10
111.5929274551113
 20
10.24985065277771
 30
0.0
 10
111.5729166666666
 20
10.2734875801282
 30
0.0
  0
LINE
  5
C1
330
1F
100
AcDbEntity
  8
0
  6
Continuous
 62
     7
370
    15
100
AcDbLine
 10
111.5729166667
 20
10.2734875801
 30
0.0
 11
111.7618139022
 21
10.4884615385
 31
0.0
  0
SPLINE
  5
C2
330
1F
100
AcDbEntity
  8
0
  6
Continuous
 62
     7
370
    15
100
AcDbSpline
210
0.0
220
0.0
230
1.0
 70
     8
 71
     3
 72
    15
 73
    11
 74
     0
 42
0.000000001
 43
0.00000001
 40
0.0
 40
0.0
 40
0.0
 40
0.0
 40
0.1474758177483481
 40
0.2859041715443706
 40
0.4171716482444279
 40
0.540500743586505
 40
0.6592377183802344
 40
0.7750060983159549
 40
0.8872285734286398
 40
1.0
 40
1.0
 40
1.0
 40
1.0
 10
111.7618139022436
 20
10.48846153846153
 30
0.0
 10
111.7797503054436
 20
10.46908971635416
 30
0.0
 10
111.8145227350914
 20
10.43153451011444
 30
0.0
 10
111.8701316960432
 20
10.38152885821963
 30
0.0
 10
111.9267187241867
 20
10.3396177051213
 30
0.0
 10
111.9837187612934
 20
10.30456260741715
 30
0.0
 10
112.041975561144
 20
10.27755206312422
 30
0.0
 10
112.101162654056
 20
10.25857591007764
 30
0.0
 10
112.161159653026
 20
10.24638010713035
 30
0.0
 10
112.201456876234
 20
10.24494837959762
 30
0.0
 10
112.2216546474359
 20
10.24423076923076
 30
0.0
  0
SPLINE
  5
C3
330
1F
100
AcDbEntity
  8
0
  6
Continuous
 62
     7
370
    15
100
AcDbSpline
210
0.0
220
0.0
230
1.0
 70
     8
 71
     3
 72
    15
 73
    11
 74
     0
 42
0.000000001
 43
0.00000001
 40
0.0
 40
0.0
 40
0.0
 40
0.0
 40
0.1340420464623699
 40
0.2618956736507445
 40
0.3878360446911191
 40
0.5176862058208266
 40
0.6445086536782145
 40
0.7647182630567247
 40
0.8802907821584985
 40
1.0
 40
1.0
 40
1.0
 40
1.0
 10
112.2216546474359
 20
10.24423076923076
 30
0.0
 10
112.2491573374121
 20
10.24547430321109
 30
0.0
 10
112.3028929801349
 20
10.24790396000968
 30
0.0
 10
112.3798583897348
 20
10.26996303635102
 30
0.0
 10
112.4509227151576
 20
10.30455234979232
 30
0.0
 10
112.5126296071641
 20
10.353614897409
 30
0.0
 10
112.5651551389896
 20
10.41072459541013
 30
0.0
 10
112.6031899829166
 20
10.47505383220402
 30
0.0
 10
112.627026227799
 20
10.54471465362924
 30
0.0
 10
112.6298256694369
 20
10.59300395671941
 30
0.0
 10
112.63125
 20
10.61757311698717
 30
0.0
  0
SPLINE
  5
C4
330
1F
100
AcDbEntity
  8
0
  6
Continuous
 62
     7
370
    15
100
AcDbSpline
210
0.0
220
0.0
230
1.0
 70
     8
 71
     3
 72
    11
 73
     7
 74
     0
 42
0.000000001
 43
0.00000001
 40
0.0
 40
0.0
 40
0.0
 40
0.0
 40
0.2534754346498623
 40
0.5004533151029001
 40
0.7455781350009854
 40
0.9999999999999999
 40
0.9999999999999999
 40
0.9999999999999999
 40
0.9999999999999999
 10
112.63125
 20
10.61757311698717
 30
0.0
 10
112.6302645758498
 20
10.63781112820206
 30
0.0
 10
112.6283189877756
 20
10.67776837225441
 30
0.0
 10
112.6130397338858
 20
10.73559903877302
 30
0.0
 10
112.5888980750501
 20
10.7904533148206
 30
0.0
 10
112.5651267154721
 20
10.82255678053276
 30
0.0
 10
112.5530198317308
 20
10.83890725160256
 30
0.0
  0
SPLINE
  5
C5
330
1F
100
AcDbEntity
  8
0
  6
Continuous
 62
     7
370
    15
100
AcDbSpline
210
0.0
220
0.0
230
1.0
 70
     8
 71
     3
 72
    15
 73
    11
 74
     0
 42
0.000000001
 43
0.00000001
 40
0.0
 40
0.0
 40
0.0
 40
0.0
 40
0.0768750740350466
 40
0.1674616757257128
 40
0.2722700232466432
 40
0.3895508405125283
 40
0.5208013683480445
 40
0.6662632933752336
 40
0.8255449152058757
 40
1.0
 40
1.0
 40
1.0
 40
1.0
 10
112.5530198317308
 20
10.83890725160256
 30
0.0
 10
112.5457423739287
 20
10.84710361584023
 30
0.0
 10
112.5298894424833
 20
10.86495825737817
 30
0.0
 10
112.5008107593353
 20
10.89074386463122
 30
0.0
 10
112.4659929271959
 20
10.91853699743456
 30
0.0
 10
112.4250443508218
 20
10.94786636740042
 30
0.0
 10
112.3778824817784
 20
10.97834510220116
 30
0.0
 10
112.3243161719605
 20
11.00981330031323
 30
0.0
 10
112.2650792421487
 20
11.04376559442131
 30
0.0
 10
112.2231958837389
 20
11.06628056748273
 30
0.0
 10
112.2013020833333
 20
11.07804987980768
 30
0.0
  0
SPLINE
  5
C6
330
1F
100
AcDbEntity
  8
0
  6
Continuous
 62
     7
370
    15
100
AcDbSpline
210
0.0
220
0.0
230
1.0
 70
     8
 71
     3
 72
    15
 73
    11
 74
     0
 42
0.000000001
 43
0.00000001
 40
0.0
 40
0.0
 40
0.0
 40
0.0
 40
0.1577616635135483
 40
0.3059502132085515
 40
0.4437754990007193
 40
0.5728243624015458
 40
0.6921541564432365
 40
0.802295706990839
 40
0.9055643918329935
 40
1.0
 40
1.0
 40
1.0
 40
1.0
 10
112.2013020833333
 20
11.07804987980768
 30
0.0
 10
112.177674059869
 20
11.09123894924599
 30
0.0
 10
112.1318517817844
 20
11.11681676401293
 30
0.0
 10
112.066948167864
 20
11.15665492253298
 30
0.0
 10
112.008394496537
 20
11.19717452170716
 30
0.0
 10
111.9547818324694
 20
11.2361025973123
 30
0.0
 10
111.9074643487477
 20
11.27549159646471
 30
0.0
 10
111.8666284527853
 20
11.31538524601018
 30
0.0
 10
111.8306663927096
 20
11.35417466195355
 30
0.0
 10
111.8107569549248
 20
11.38165863816835
 30
0.0
 10
111.8012469951923
 20
11.39478665865384
 30
0.0
  0
SPLINE
  5
C7
330
1F
100
AcDbEntity
  8
0
  6
Continuous
 62
     7
370
    15
100
AcDbSpline
210
0.0
220
0.0
230
1.0
 70
     8
 71
     3
 72
    11
 73
     7
 74
     0
 42
0.000000001
 43
0.00000001
 40
0.0
 40
0.0
 40
0.0
 40
0.0
 40
0.246252370692976
 40
0.4925907964763721
 40
0.7405699911180886
 40
1.0
 40
1.0
 40
1.0
 40
1.0
 10
111.8012469951923
 20
11.39478665865384
 30
0.0
 10
111.7847999512183
 20
11.4212258951505
 30
0.0
 10
111.7519001157041
 20
11.47411360757116
 30
0.0
 10
111.7199549065638
 20
11.56238811146383
 30
0.0
 10
111.6979965803683
 20
11.65532041346972
 30
0.0
 10
111.6960349835718
 20
11.71944348848366
 30
0.0
 10
111.695032051282
 20
11.75222856570512
 30
0.0
  0
SPLINE
  5
C8
330
1F
100
AcDbEntity
  8
0
  6
Continuous
 62
     7
370
    15
100
AcDbSpline
210
0.0
220
0.0
230
1.0
 70
     8
 71
     3
 72
    31
 73
    27
 74
     0
 42
0.000000001
 43
0.00000001
 40
0.0
 40
0.0
 40
0.0
 40
0.0
 40
0.0451516788047804
 40
0.0887272521645443
 40
0.1305341108247499
 40
0.1710707458966307
 40
0.2100958400813077
 40
0.2477692374166756
 40
0.2848493643644358
 40
0.3209855015160398
 40
0.3563873757532839
 40
0.3915492787874617
 40
0.4261913606636702
 40
0.4605110592984609
 40
0.4949714404811194
 40
0.5295336250796099
 40
0.5645757480731514
 40
0.6000961892387717
 40
0.6375349450701505
 40
0.6782134162474357
 40
0.7225827429711674
 40
0.7701823039810383
 40
0.8218792822902008
 40
0.877067012516751
 40
0.9365240376354078
 40
0.9999999999999999
 40
0.9999999999999999
 40
0.9999999999999999
 40
0.9999999999999999
 10
110.0890875400641
 20
9.959294871794862
 30
0.0
 10
110.0608785594178
 20
9.9596030347045
 30
0.0
 10
110.0054452863841
 20
9.960208603509805
 30
0.0
 10
109.9241006576622
 20
9.966687243346033
 30
0.0
 10
109.8461329933795
 20
9.977398941018086
 30
0.0
 10
109.7718194890089
 20
9.992689031072935
 30
0.0
 10
109.7010855714491
 20
10.01177447308502
 30
0.0
 10
109.6336447252775
 20
10.03445625168851
 30
0.0
 10
109.5702866359831
 20
10.06265068870989
 30
0.0
 10
109.510250103784
 20
10.09438033012788
 30
0.0
 10
109.4540050801874
 20
10.1302716871106
 30
0.0
 10
109.4012922986485
 20
10.16961269448474
 30
0.0
 10
109.3521824395588
 20
10.21234462311958
 30
0.0
 10
109.306664670722
 20
10.25828901139177
 30
0.0
 10
109.2653778991018
 20
10.30801580367003
 30
0.0
 10
109.2278076327157
 20
10.36112499049361
 30
0.0
 10
109.1933754787494
 20
10.41709034229316
 30
0.0
 10
109.1622125903562
 20
10.47701906823786
 30
0.0
 10
109.1354412121136
 20
10.5428522485317
 30
0.0
 10
109.1118053819045
 20
10.61569318660858
 30
0.0
 10
109.092473588515
 20
10.69634046971395
 30
0.0
 10
109.0767414922166
 20
10.78472514766421
 30
0.0
 10
109.0640855425206
 20
10.88042422112516
 30
0.0
 10
109.0552988277992
 20
10.98399128357013
 30
0.0
 10
109.050385895611
 20
11.09517406144086
 30
0.0
 10
109.049602975602
 20
11.17196360455045
 30
0.0
 10
109.0491987179487
 20
11.21161358173076
 30
0.0
  0
LINE
  5
C9
330
1F
100
AcDbEntity
  8
0
  6
Continuous
 62
     7
370
    15
100
AcDbLine
 10
109.0491987179
 20
11.2116135817
 30
0.0
 11
109.0491987179
 21
12.3201923077
 31
0.0
  0
LINE
  5
CA
330
1F
100
AcDbEntity
  8
0
  6
Continuous
 62
     7
370
    15
100
AcDbLine
 10
109.0491987179
 20
12.3201923077
 30
0.0
 11
109.3341346154
 21
12.3201923077
 31
0.0
  0
LINE
  5
CB
330
1F
100
AcDbEntity
  8
0
  6
Continuous
 62
     7
370
    15
100
AcDbLine
 10
109.3341346154
 20
12.3201923077
 30
0.0
 11
109.3341346154
 21
11.2440504808
 31
0.0
  0
SPLINE
  5
CC
330
1F
100
AcDbEntity
  8
0
  6
Continuous
 62
     7
370
    15
100
AcDbSpline
210
0.0
220
0.0
230
1.0
 70
     8
 71
     3
 72
    15
 73
    11
 74
     0
 42
0.000000001
 43
0.00000001
 40
0.0
 40
0.0
 40
0.0
 40
0.0
 40
0.1736165757486469
 40
0.3321203769789012
 40
0.4779362767239436
 40
0.6099318098113861
 40
0.727031521037976
 40
0.8316714227513095
 40
0.9217154761224298
 40
1.0
 40
1.0
 40
1.0
 40
1.0
 10
109.3341346153846
 20
11.24405048076922
 30
0.0
 10
109.3342633434023
 20
11.21246127258286
 30
0.0
 10
109.3345095940704
 20
11.15203259700231
 30
0.0
 10
109.3361795904893
 20
11.06507824901612
 30
0.0
 10
109.3401076039962
 20
10.98577880254301
 30
0.0
 10
109.3450187162342
 20
10.91408844848558
 30
0.0
 10
109.3513343682765
 20
10.85001931468582
 30
0.0
 10
109.3588485595891
 20
10.79379518366404
 30
0.0
 10
109.367247270635
 20
10.74477845954851
 30
0.0
 10
109.3754684468752
 20
10.71525698687046
 30
0.0
 10
109.3792918669872
 20
10.70152744391025
 30
0.0
  0
SPLINE
  5
CD
330
1F
100
AcDbEntity
  8
0
  6
Continuous
 62
     7
370
    15
100
AcDbSpline
210
0.0
220
0.0
230
1.0
 70
     8
 71
     3
 72
    19
 73
    15
 74
     0
 42
0.000000001
 43
0.00000001
 40
0.0
 40
0.0
 40
0.0
 40
0.0
 40
0.0604867187842468
 40
0.1197159334053013
 40
0.1780861642555846
 40
0.2359713213676955
 40
0.2946097683616268
 40
0.3535360182612475
 40
0.4131613089451942
 40
0.4745453087944067
 40
0.5992335172031698
 40
0.7270292124547222
 40
0.8596954264724386
 40
1.0
 40
1.0
 40
1.0
 40
1.0
 10
109.3792918669872
 20
10.70152744391025
 30
0.0
 10
109.3854254726047
 20
10.68427098238423
 30
0.0
 10
109.3975651676716
 20
10.65011681696769
 30
0.0
 10
109.4195846850763
 20
10.60077821940463
 30
0.0
 10
109.4468246761118
 20
10.55508064177317
 30
0.0
 10
109.4766332342535
 20
10.5112619472315
 30
0.0
 10
109.5110134111578
 20
10.4706201448435
 30
0.0
 10
109.5495302171006
 20
10.43322386667462
 30
0.0
 10
109.5908943321065
 20
10.39766015533323
 30
0.0
 10
109.6523578175927
 20
10.35558252262184
 30
0.0
 10
109.7364130088789
 20
10.31048361597679
 30
0.0
 10
109.846769436925
 20
10.271570980742
 30
0.0
 10
109.9664254132756
 20
10.24831562971469
 30
0.0
 10
110.0491248372
 20
10.24561755552896
 30
0.0
 10
110.0916316105769
 20
10.24423076923076
 30
0.0
  0
SPLINE
  5
CE
330
1F
100
AcDbEntity
  8
0
  6
Continuous
 62
     7
370
    15
100
AcDbSpline
210
0.0
220
0.0
230
1.0
 70
     8
 71
     3
 72
    15
 73
    11
 74
     0
 42
0.000000001
 43
0.00000001
 40
0.0
 40
0.0
 40
0.0
 40
0.0
 40
0.1446324159930477
 40
0.2798369641781319
 40
0.4083713118090859
 40
0.5330428696034645
 40
0.6535963008637301
 40
0.7700157379356778
 40
0.8843394719005003
 40
1.0
 40
1.0
 40
1.0
 40
1.0
 10
110.0916316105769
 20
10.24423076923076
 30
0.0
 10
110.1341344354354
 20
10.24564704474477
 30
0.0
 10
110.2163695374056
 20
10.24838727581646
 30
0.0
 10
110.3347108309553
 20
10.27086948584229
 30
0.0
 10
110.4428888997568
 20
10.30843036088011
 30
0.0
 10
110.5398179770137
 20
10.36086994156853
 30
0.0
 10
110.6250584177267
 20
10.42504309856137
 30
0.0
 10
110.6960917118923
 20
10.50034394646537
 30
0.0
 10
110.7546997213722
 20
10.58439017599153
 30
0.0
 10
110.7802896958131
 20
10.64709577180412
 30
0.0
 10
110.7931590544872
 20
10.67863080929486
 30
0.0
  0
SPLINE
  5
CF
330
1F
100
AcDbEntity
  8
0
  6
Continuous
 62
     7
370
    15
100
AcDbSpline
210
0.0
220
0.0
230
1.0
 70
     8
 71
     3
 72
    15
 73
    11
 74
     0
 42
0.000000001
 43
0.00000001
 40
0.0
 40
0.0
 40
0.0
 40
0.0
 40
0.0696927557420288
 40
0.1540736621798104
 40
0.2545914510459158
 40
0.371465414429005
 40
0.5047545659520504
 40
0.6534942950018636
 40
0.8189527408800048
 40
1.0
 40
1.0
 40
1.0
 40
1.0
 10
110.7931590544872
 20
10.67863080929486
 30
0.0
 10
110.7969638203344
 20
10.69130023736441
 30
0.0
 10
110.8053752284008
 20
10.71930924862556
 30
0.0
 10
110.8144125044153
 20
10.76682516323068
 30
0.0
 10
110.8225536231483
 20
10.82348948308242
 30
0.0
 10
110.8295052186515
 20
10.88967300094775
 30
0.0
 10
110.8344629018819
 20
10.9652027606751
 30
0.0
 10
110.8371353688629
 20
11.05005515832198
 30
0.0
 10
110.8401545899527
 20
11.14396382075876
 30
0.0
 10
110.8402004154256
 20
11.20970243099632
 30
0.0
 10
110.8402243589744
 20
11.24405048076922
 30
0.0
  0
LINE
  5
D0
330
1F
100
AcDbEntity
  8
0
  6
Continuous
 62
     7
370
    15
100
AcDbLine
 10
110.840224359
 20
11.2440504808
 30
0.0
 11
110.840224359
 21
12.3201923077
 31
0.0
  0
LINE
  5
D1
330
1F
100
AcDbEntity
  8
0
  6
Continuous
 62
     7
370
    15
100
AcDbLine
 10
110.840224359
 20
12.3201923077
 30
0.0
 11
111.1251602564
 21
12.3201923077
 31
0.0
  0
LINE
  5
D2
330
1F
100
AcDbEntity
  8
0
  6
Continuous
 62
     7
370
    15
100
AcDbLine
 10
111.1251602564
 20
12.3201923077
 30
0.0
 11
111.1251602564
 21
11.190625
 31
0.0
  0
SPLINE
  5
D3
330
1F
100
AcDbEntity
  8
0
  6
Continuous
 62
     7
370
    15
100
AcDbSpline
210
0.0
220
0.0
230
1.0
 70
     8
 71
     3
 72
    31
 73
    27
 74
     0
 42
0.000000001
 43
0.00000001
 40
0.0
 40
0.0
 40
0.0
 40
0.0
 40
0.0622100326824419
 40
0.1206959731983285
 40
0.1755484638831975
 40
0.2261906127214149
 40
0.2737107306295724
 40
0.3173020717741437
 40
0.3578372980216204
 40
0.3954278376537086
 40
0.4310885268449416
 40
0.466097473341075
 40
0.5010152197637693
 40
0.5354236135188917
 40
0.5701735381629641
 40
0.6047650703833912
 40
0.640093034542571
 40
0.6759387007616814
 40
0.7122247901876555
 40
0.7494554524110951
 40
0.7876011171624494
 40
0.8267837743908867
 40
0.86782856994874
 40
0.9101595124056417
 40
0.9539387393933997
 40
0.9999999999999999
 40
0.9999999999999999
 40
0.9999999999999999
 40
0.9999999999999999
 10
111.1251602564102
 20
11.19062499999999
 30
0.0
 10
111.1247595761109
 20
11.1522463516128
 30
0.0
 10
111.1239822015204
 20
11.07778652387448
 30
0.0
 10
111.1189862542155
 20
10.96957879414592
 30
0.0
 10
111.110414105598
 20
10.86873875771558
 30
0.0
 10
111.0974032413703
 20
10.77521303683605
 30
0.0
 10
111.0821036650992
 20
10.68907303554671
 30
0.0
 10
111.062367617499
 20
10.61020835242509
 30
0.0
 10
111.0388016446833
 20
10.53886197133769
 30
0.0
 10
111.0122173560911
 20
10.47378193084523
 30
0.0
 10
110.980810376265
 20
10.41477510539504
 30
0.0
 10
110.9474030076467
 20
10.35877190032454
 30
0.0
 10
110.9088269646272
 20
10.30716188055665
 30
0.0
 10
110.8682139664049
 20
10.25737594182523
 30
0.0
 10
110.8230367500067
 20
10.21189041339744
 30
0.0
 10
110.7741418779483
 20
10.16966157457881
 30
0.0
 10
110.7222175470958
 20
10.13004389575629
 30
0.0
 10
110.6661114889123
 20
10.09458252089324
 30
0.0
 10
110.6066427746911
 20
10.06263599262112
 30
0.0
 10
110.5437379901059
 20
10.03431855032437
 30
0.0
 10
110.47662665602
 20
10.01190978398756
 30
0.0
 10
110.4061746424718
 20
9.99257796578141
 30
0.0
 10
110.3320367783721
 20
9.977415554491337
 30
0.0
 10
110.2542845362338
 20
9.966723454651662
 30
0.0
 10
110.1729441057518
 20
9.960169047313649
 30
0.0
 10
110.1175090959076
 20
9.959591156625043
 30
0.0
 10
110.0890875400641
 20
9.959294871794862
 30
0.0
  0
SPLINE
  5
D4
330
1F
100
AcDbEntity
  8
0
  6
Continuous
 62
     7
370
    15
100
AcDbSpline
210
0.0
220
0.0
230
1.0
 70
     8
 71
     3
 72
    15
 73
    11
 74
     0
 42
0.000000001
 43
0.00000001
 40
0.0
 40
0.0
 40
0.0
 40
0.0
 40
0.1289191318119605
 40
0.2552377249249076
 40
0.3786785959785531
 40
0.5010878871851322
 40
0.6227136794297774
 40
0.7462407949383849
 40
0.8715890472316691
 40
0.9999999999999999
 40
0.9999999999999999
 40
0.9999999999999999
 40
0.9999999999999999
 10
106.1184294871795
 20
11.15373597756409
 30
0.0
 10
106.1194484901431
 20
11.19257670133838
 30
0.0
 10
106.1214659408852
 20
11.26947465923843
 30
0.0
 10
106.1362709741168
 20
11.38280134997195
 30
0.0
 10
106.1610890932135
 20
11.49229112433769
 30
0.0
 10
106.1962240028544
 20
11.59745209183717
 30
0.0
 10
106.2411413545916
 20
11.69883023738745
 30
0.0
 10
106.2958976657981
 20
11.79626176263932
 30
0.0
 10
106.361022025317
 20
11.88968641021651
 30
0.0
 10
106.4110980813499
 20
11.94749143995625
 30
0.0
 10
106.4364383012821
 20
11.97674278846153
 30
0.0
  0
SPLINE
  5
D5
330
1F
100
AcDbEntity
  8
0
  6
Continuous
 62
     7
370
    15
100
AcDbSpline
210
0.0
220
0.0
230
1.0
 70
     8
 71
     3
 72
    15
 73
    11
 74
     0
 42
0.000000001
 43
0.00000001
 40
0.0
 40
0.0
 40
0.0
 40
0.0
 40
0.1284975211375086
 40
0.2527129855154496
 40
0.3748191325670504
 40
0.4964364263727332
 40
0.6179105567458482
 40
0.741287617309287
 40
0.8687004007446085
 40
1.0
 40
1.0
 40
1.0
 40
1.0
 10
106.4364383012821
 20
11.97674278846153
 30
0.0
 10
106.4658738088557
 20
12.00756291192723
 30
0.0
 10
106.5237639139195
 20
12.06817610777741
 30
0.0
 10
106.6211445455015
 20
12.14576632605628
 30
0.0
 10
106.7231925117945
 20
12.21281876448717
 30
0.0
 10
106.8318001233622
 20
12.26677218850497
 30
0.0
 10
106.945812430222
 20
12.30926141529963
 30
0.0
 10
107.065754171658
 20
12.33880298972526
 30
0.0
 10
107.1911898178249
 20
12.3580828188757
 30
0.0
 10
107.2769689026758
 20
12.35994988017064
 30
0.0
 10
107.3205028044872
 20
12.36089743589743
 30
0.0
  0
SPLINE
  5
D6
330
1F
100
AcDbEntity
  8
0
  6
Continuous
 62
     7
370
    15
100
AcDbSpline
210
0.0
220
0.0
230
1.0
 70
     8
 71
     3
 72
    15
 73
    11
 74
     0
 42
0.000000001
 43
0.00000001
 40
0.0
 40
0.0
 40
0.0
 40
0.0
 40
0.1317514273024045
 40
0.2583323505141539
 40
0.3821339760925411
 40
0.5038043916000763
 40
0.6246929865409272
 40
0.746870589727568
 40
0.8715135042348097
 40
1.0
 40
1.0
 40
1.0
 40
1.0
 10
107.3205028044872
 20
12.36089743589743
 30
0.0
 10
107.3640377448521
 20
12.35997043465005
 30
0.0
 10
107.4493991235047
 20
12.35815281175163
 30
0.0
 10
107.5744105628381
 20
12.3387263786239
 30
0.0
 10
107.6937407932946
 20
12.30901984093123
 30
0.0
 10
107.8078468390429
 20
12.26795206676369
 30
0.0
 10
107.9152673356322
 20
12.21290486876779
 30
0.0
 10
108.0175669642158
 20
12.14721929753257
 30
0.0
 10
108.1144652508472
 20
12.06940223051352
 30
0.0
 10
108.1725432845305
 20
12.00920598277358
 30
0.0
 10
108.2020232371795
 20
11.97865084134615
 30
0.0
  0
SPLINE
  5
D7
330
1F
100
AcDbEntity
  8
0
  6
Continuous
 62
     7
370
    15
100
AcDbSpline
210
0.0
220
0.0
230
1.0
 70
     8
 71
     3
 72
    15
 73
    11
 74
     0
 42
0.000000001
 43
0.00000001
 40
0.0
 40
0.0
 40
0.0
 40
0.0
 40
0.1281572795931874
 40
0.2538343627967323
 40
0.3765056225222075
 40
0.4985336856679096
 40
0.6213677287324617
 40
0.7445647449043578
 40
0.8706337982552826
 40
1.0
 40
1.0
 40
1.0
 40
1.0
 10
108.2020232371795
 20
11.97865084134615
 30
0.0
 10
108.2274068669384
 20
11.94942815423716
 30
0.0
 10
108.2776828832972
 20
11.89154831951326
 30
0.0
 10
108.3421496424847
 20
11.79769929918309
 30
0.0
 10
108.3976863434846
 20
11.70050792221781
 30
0.0
 10
108.442193458094
 20
11.59868356159459
 30
0.0
 10
108.4772863010084
 20
11.49311510990527
 30
0.0
 10
108.5022016111829
 20
11.38343971406838
 30
0.0
 10
108.5170215450217
 20
11.26989958485571
 30
0.0
 10
108.5190199507473
 20
11.19278896031441
 30
0.0
 10
108.520032051282
 20
11.15373597756409
 30
0.0
  0
SPLINE
  5
D8
330
1F
100
AcDbEntity
  8
0
  6
Continuous
 62
     7
370
    15
100
AcDbSpline
210
0.0
220
0.0
230
1.0
 70
     8
 71
     3
 72
    23
 73
    19
 74
     0
 42
0.000000001
 43
0.00000001
 40
0.0
 40
0.0
 40
0.0
 40
0.0
 40
0.0624160261588178
 40
0.1233369785373303
 40
0.1832651398530933
 40
0.2431724430697109
 40
0.302898353919745
 40
0.3637735975039117
 40
0.4256053049523829
 40
0.4896590425101843
 40
0.5537845767921195
 40
0.6162215328110765
 40
0.6778544713083431
 40
0.7395168974879379
 40
0.8020965355763717
 40
0.865865841277976
 40
0.931507795196516
 40
1.0
 40
1.0
 40
1.0
 40
1.0
 10
108.520032051282
 20
11.15373597756409
 30
0.0
 10
108.5191418381437
 20
11.11445663952789
 30
0.0
 10
108.517382735466
 20
11.03683883572851
 30
0.0
 10
108.5007424548827
 20
10.92252126819183
 30
0.0
 10
108.4748606841226
 20
10.81167310761294
 30
0.0
 10
108.4378203737745
 20
10.70475843542311
 30
0.0
 10
108.3903240889426
 20
10.60145044198564
 30
0.0
 10
108.3323661081085
 20
10.50220035084499
 30
0.0
 10
108.2635397125495
 20
10.40681234423294
 30
0.0
 10
108.1855218012044
 20
10.31609639096111
 30
0.0
 10
108.0992961706956
 20
10.23248846754134
 30
0.0
 10
108.0057550932919
 20
10.1596192515894
 30
0.0
 10
107.9067367912464
 20
10.09718829734091
 30
0.0
 10
107.8009246064901
 20
10.04689954889037
 30
0.0
 10
107.6892848148642
 20
10.00724860646491
 30
0.0
 10
107.5715766173688
 20
9.979399305845904
 30
0.0
 10
107.4479828750133
 20
9.962561206991632
 30
0.0
 10
107.3635938956311
 20
9.960398965533512
 30
0.0
 10
107.3205028044872
 20
9.959294871794862
 30
0.0
  0
SPLINE
  5
D9
330
1F
100
AcDbEntity
  8
0
  6
Continuous
 62
     7
370
    15
100
AcDbSpline
210
0.0
220
0.0
230
1.0
 70
     8
 71
     3
 72
    23
 73
    19
 74
     0
 42
0.000000001
 43
0.00000001
 40
0.0
 40
0.0
 40
0.0
 40
0.0
 40
0.0687422616054898
 40
0.1346351922242761
 40
0.1983241870671505
 40
0.2608250125604245
 40
0.3227135881590255
 40
0.3845545346076218
 40
0.4469128577247591
 40
0.5109576325148295
 40
0.5749307010013351
 40
0.6366845377960958
 40
0.6974831152940622
 40
0.7571338075238554
 40
0.8169656636752655
 40
0.8768183516571977
 40
0.9376625803840035
 40
1.0
 40
1.0
 40
1.0
 40
1.0
 10
107.3205028044872
 20
9.959294871794862
 30
0.0
 10
107.2772005946469
 20
9.96040267122091
 30
0.0
 10
107.1923910290403
 20
9.962572352363035
 30
0.0
 10
107.0683610311527
 20
9.979333887410567
 30
0.0
 10
106.9504418768333
 20
10.00723577159859
 30
0.0
 10
106.8386559338907
 20
10.04702985428937
 30
0.0
 10
106.7323888227242
 20
10.09718990469065
 30
0.0
 10
106.6327967862059
 20
10.15943050880798
 30
0.0
 10
106.5391797199879
 20
10.23251007820285
 30
0.0
 10
106.4529358484106
 20
10.31609053538379
 30
0.0
 10
106.3749228278649
 20
10.40681385290965
 30
0.0
 10
106.3060951702891
 20
10.50219995925733
 30
0.0
 10
106.2481375172816
 20
10.60145054401825
 30
0.0
 10
106.200641146617
 20
10.7047584082145
 30
0.0
 10
106.1636008591842
 20
10.81167311490871
 30
0.0
 10
106.1377190822637
 20
10.92252126621156
 30
0.0
 10
106.121078803336
 20
11.03683883624126
 30
0.0
 10
106.1193197004323
 20
11.11445663970018
 30
0.0
 10
106.1184294871795
 20
11.15373597756409
 30
0.0
  0
LINE
  5
DA
330
1F
100
AcDbEntity
  8
0
  6
Continuous
 62
     7
370
    15
100
AcDbLine
 10
236.6
 20
30.0
 30
0.0
 11
240.0
 21
30.0
 31
0.0
  0
LINE
  5
DB
330
1F
100
AcDbEntity
  8
0
  6
Continuous
 62
     7
370
    15
100
AcDbLine
 10
236.6
 20
55.0
 30
0.0
 11
236.6
 21
30.0
 31
0.0
  0
LINE
  5
DC
330
1F
100
AcDbEntity
  8
0
  6
Continuous
 62
     7
370
    15
100
AcDbLine
 10
-6.8
 20
55.0
 30
0.0
 11
236.6
 21
55.0
 31
0.0
  0
LINE
  5
DD
330
1F
100
AcDbEntity
  8
0
  6
Continuous
 62
     7
370
    15
100
AcDbLine
 10
-6.8
 20
30.0
 30
0.0
 11
-6.8
 21
55.0
 31
0.0
  0
LINE
  5
DE
330
1F
100
AcDbEntity
  8
0
  6
Continuous
 62
     7
370
    15
100
AcDbLine
 10
0.0
 20
30.0
 30
0.0
 11
-6.8
 21
30.0
 31
0.0
  0
LINE
  5
DF
330
1F
100
AcDbEntity
  8
0
  6
Continuous
 62
     7
370
    15
100
AcDbLine
 10
0.0
 20
20.0
 30
0.0
 11
0.0
 21
30.0
 31
0.0
  0
LINE
  5
E0
330
1F
100
AcDbEntity
  8
0
  6
Continuous
 62
     7
370
    15
100
AcDbLine
 10
0.0
 20
20.0
 30
0.0
 11
-6.8
 21
20.0
 31
0.0
  0
LINE
  5
E1
330
1F
100
AcDbEntity
  8
0
  6
Continuous
 62
     7
370
    15
100
AcDbLine
 10
-6.8
 20
10.0
 30
0.0
 11
-6.8
 21
20.0
 31
0.0
  0
LINE
  5
E2
330
1F
100
AcDbEntity
  8
0
  6
Continuous
 62
     7
370
    15
100
AcDbLine
 10
0.0
 20
10.0
 30
0.0
 11
-6.8
 21
10.0
 31
0.0
  0
LINE
  5
E3
330
1F
100
AcDbEntity
  8
0
  6
Continuous
 62
     7
370
    15
100
AcDbLine
 10
0.0
 20
0.0
 30
0.0
 11
0.0
 21
10.0
 31
0.0
  0
LINE
  5
E4
330
1F
100
AcDbEntity
  8
0
  6
Continuous
 62
     7
370
    15
100
AcDbLine
 10
79.1
 20
0.0
 30
0.0
 11
0.0
 21
0.0
 31
0.0
  0
LINE
  5
E5
330
1F
100
AcDbEntity
  8
0
  6
Continuous
 62
     7
370
    15
100
AcDbLine
 10
79.1
 20
0.0
 30
0.0
 11
79.1
 21
-3.4
 31
0.0
  0
LINE
  5
E6
330
1F
100
AcDbEntity
  8
0
  6
Continuous
 62
     7
370
    15
100
AcDbLine
 10
154.1
 20
-3.4
 30
0.0
 11
79.1
 21
-3.4
 31
0.0
  0
LINE
  5
E7
330
1F
100
AcDbEntity
  8
0
  6
Continuous
 62
     7
370
    15
100
AcDbLine
 10
154.1
 20
0.0
 30
0.0
 11
154.1
 21
-3.4
 31
0.0
  0
LINE
  5
E8
330
1F
100
AcDbEntity
  8
0
  6
Continuous
 62
     7
370
    15
100
AcDbLine
 10
240.0
 20
0.0
 30
0.0
 11
154.1
 21
0.0
 31
0.0
  0
LINE
  5
E9
330
1F
100
AcDbEntity
  8
0
  6
Continuous
 62
     7
370
    15
100
AcDbLine
 10
240.0
 20
0.0
 30
0.0
 11
240.0
 21
10.0
 31
0.0
  0
LINE
  5
EA
330
1F
100
AcDbEntity
  8
0
  6
Continuous
 62
     7
370
    15
100
AcDbLine
 10
233.2
 20
10.0
 30
0.0
 11
240.0
 21
10.0
 31
0.0
  0
LINE
  5
EB
330
1F
100
AcDbEntity
  8
0
  6
Continuous
 62
     7
370
    15
100
AcDbLine
 10
233.2
 20
20.0
 30
0.0
 11
233.2
 21
10.0
 31
0.0
  0
LINE
  5
EC
330
1F
100
AcDbEntity
  8
0
  6
Continuous
 62
     7
370
    15
100
AcDbLine
 10
233.2
 20
20.0
 30
0.0
 11
240.0
 21
20.0
 31
0.0
  0
LINE
  5
ED
330
1F
100
AcDbEntity
  8
0
  6
Continuous
 62
     7
370
    15
100
AcDbLine
 10
240.0
 20
20.0
 30
0.0
 11
240.0
 21
30.0
 31
0.0
  0
LINE
  5
EE
330
1F
100
AcDbEntity
  8
0
  6
Continuous
 62
     7
370
    15
100
AcDbLine
 10
86.2746794872
 20
12.2896634615
 30
0.0
 11
85.9712990785
 21
10.0
 31
0.0
  0
LINE
  5
EF
330
1F
100
AcDbEntity
  8
0
  6
Continuous
 62
     7
370
    15
100
AcDbLine
 10
85.9712990785
 20
10.0
 30
0.0
 11
85.6844551282
 21
10.0
 31
0.0
  0
LINE
  5
F0
330
1F
100
AcDbEntity
  8
0
  6
Continuous
 62
     7
370
    15
100
AcDbLine
 10
85.6844551282
 20
10.0
 30
0.0
 11
86.1035907452
 21
13.175
 31
0.0
  0
LINE
  5
F1
330
1F
100
AcDbEntity
  8
0
  6
Continuous
 62
     7
370
    15
100
AcDbLine
 10
86.1035907452
 20
13.175
 30
0.0
 11
86.1442958734
 21
13.175
 31
0.0
  0
LINE
  5
F2
330
1F
100
AcDbEntity
  8
0
  6
Continuous
 62
     7
370
    15
100
AcDbLine
 10
86.1442958734
 20
13.175
 30
0.0
 11
87.4551282051
 21
10.5698717949
 31
0.0
  0
LINE
  5
F3
330
1F
100
AcDbEntity
  8
0
  6
Continuous
 62
     7
370
    15
100
AcDbLine
 10
87.4551282051
 20
10.5698717949
 30
0.0
 11
88.7627804487
 21
13.175
 31
0.0
  0
LINE
  5
F4
330
1F
100
AcDbEntity
  8
0
  6
Continuous
 62
     7
370
    15
100
AcDbLine
 10
88.7627804487
 20
13.175
 30
0.0
 11
88.8041215946
 21
13.175
 31
0.0
  0
LINE
  5
F5
330
1F
100
AcDbEntity
  8
0
  6
Continuous
 62
     7
370
    15
100
AcDbLine
 10
88.8041215946
 20
13.175
 30
0.0
 11
89.2258012821
 21
10.0
 31
0.0
  0
LINE
  5
F6
330
1F
100
AcDbEntity
  8
0
  6
Continuous
 62
     7
370
    15
100
AcDbLine
 10
89.2258012821
 20
10.0
 30
0.0
 11
88.9395933494
 21
10.0
 31
0.0
  0
LINE
  5
F7
330
1F
100
AcDbEntity
  8
0
  6
Continuous
 62
     7
370
    15
100
AcDbLine
 10
88.9395933494
 20
10.0
 30
0.0
 11
88.6355769231
 21
12.2845753205
 31
0.0
  0
LINE
  5
F8
330
1F
100
AcDbEntity
  8
0
  6
Continuous
 62
     7
370
    15
100
AcDbLine
 10
88.6355769231
 20
12.2845753205
 30
0.0
 11
87.4894731571
 21
10.0
 31
0.0
  0
LINE
  5
F9
330
1F
100
AcDbEntity
  8
0
  6
Continuous
 62
     7
370
    15
100
AcDbLine
 10
87.4894731571
 20
10.0
 30
0.0
 11
87.4252353766
 21
10.0
 31
0.0
  0
LINE
  5
FA
330
1F
100
AcDbEntity
  8
0
  6
Continuous
 62
     7
370
    15
100
AcDbLine
 10
87.4252353766
 20
10.0
 30
0.0
 11
86.2746794872
 21
12.2896634615
 31
0.0
  0
LINE
  5
FB
330
1F
100
AcDbEntity
  8
0
  6
Continuous
 62
     7
370
    15
100
AcDbLine
 10
90.0806089744
 20
10.0
 30
0.0
 11
89.7956730769
 21
10.0
 31
0.0
  0
LINE
  5
FC
330
1F
100
AcDbEntity
  8
0
  6
Continuous
 62
     7
370
    15
100
AcDbLine
 10
89.7956730769
 20
10.0
 30
0.0
 11
89.7956730769
 21
13.2564102564
 31
0.0
  0
LINE
  5
FD
330
1F
100
AcDbEntity
  8
0
  6
Continuous
 62
     7
370
    15
100
AcDbLine
 10
89.7956730769
 20
13.2564102564
 30
0.0
 11
90.0806089744
 21
13.2564102564
 31
0.0
  0
LINE
  5
FE
330
1F
100
AcDbEntity
  8
0
  6
Continuous
 62
     7
370
    15
100
AcDbLine
 10
90.0806089744
 20
13.2564102564
 30
0.0
 11
90.0806089744
 21
11.3737980769
 31
0.0
  0
LINE
  5
FF
330
1F
100
AcDbEntity
  8
0
  6
Continuous
 62
     7
370
    15
100
AcDbLine
 10
90.0806089744
 20
11.3737980769
 30
0.0
 11
91.1363982372
 21
12.3201923077
 31
0.0
  0
LINE
  5
100
330
1F
100
AcDbEntity
  8
0
  6
Continuous
 62
     7
370
    15
100
AcDbLine
 10
91.1363982372
 20
12.3201923077
 30
0.0
 11
91.5459935897
 21
12.3201923077
 31
0.0
  0
LINE
  5
101
330
1F
100
AcDbEntity
  8
0
  6
Continuous
 62
     7
370
    15
100
AcDbLine
 10
91.5459935897
 20
12.3201923077
 30
0.0
 11
90.3210236378
 21
11.2211538462
 31
0.0
  0
LINE
  5
102
330
1F
100
AcDbEntity
  8
0
  6
Continuous
 62
     7
370
    15
100
AcDbLine
 10
90.3210236378
 20
11.2211538462
 30
0.0
 11
91.6681089744
 21
10.0
 31
0.0
  0
LINE
  5
103
330
1F
100
AcDbEntity
  8
0
  6
Continuous
 62
     7
370
    15
100
AcDbLine
 10
91.6681089744
 20
10.0
 30
0.0
 11
91.2591496394
 21
10.0
 31
0.0
  0
LINE
  5
104
330
1F
100
AcDbEntity
  8
0
  6
Continuous
 62
     7
370
    15
100
AcDbLine
 10
91.2591496394
 20
10.0
 30
0.0
 11
90.0806089744
 21
11.069145633
 31
0.0
  0
LINE
  5
105
330
1F
100
AcDbEntity
  8
0
  6
Continuous
 62
     7
370
    15
100
AcDbLine
 10
90.0806089744
 20
11.069145633
 30
0.0
 11
90.0806089744
 21
10.0
 31
0.0
  0
SPLINE
  5
106
330
1F
100
AcDbEntity
  8
0
  6
Continuous
 62
     7
370
    15
100
AcDbSpline
210
0.0
220
0.0
230
1.0
 70
     8
 71
     3
 72
    15
 73
    11
 74
     0
 42
0.000000001
 43
0.00000001
 40
0.0
 40
0.0
 40
0.0
 40
0.0
 40
0.127756603310154
 40
0.2494143553365538
 40
0.3727964764554145
 40
0.5001113325158717
 40
0.6286099407651207
 40
0.7506433738258096
 40
0.8737683791425163
 40
1.0
 40
1.0
 40
1.0
 40
1.0
 10
92.2990384615385
 20
9.959294871794862
 30
0.0
 10
92.28132567569715
 20
9.960241563518357
 30
0.0
 10
92.24674567789374
 20
9.962089753747275
 30
0.0
 10
92.19704695455638
 20
9.977658870871132
 30
0.0
 10
92.15132063305995
 20
10.00199158123517
 30
0.0
 10
92.11069178026997
 20
10.03579799198006
 30
0.0
 10
92.07754616675784
 20
10.07661955063186
 30
0.0
 10
92.052485998027
 20
10.12215975168079
 30
0.0
 10
92.03743636290535
 20
10.17185434133577
 30
0.0
 10
92.03545709270044
 20
10.20639348162663
 30
0.0
 10
92.03445512820515
 20
10.2238782051282
 30
0.0
  0
SPLINE
  5
107
330
1F
100
AcDbEntity
  8
0
  6
Continuous
 62
     7
370
    15
100
AcDbSpline
210
0.0
220
0.0
230
1.0
 70
     8
 71
     3
 72
    15
 73
    11
 74
     0
 42
0.000000001
 43
0.00000001
 40
0.0
 40
0.0
 40
0.0
 40
0.0
 40
0.1290969581672247
 40
0.2520459672599765
 40
0.3739049644019851
 40
0.501037835220189
 40
0.6281707060383929
 40
0.75137646340917
 40
0.8724260133704307
 40
1.0
 40
1.0
 40
1.0
 40
1.0
 10
92.03445512820515
 20
10.2238782051282
 30
0.0
 10
92.03541860395833
 20
10.24179371380868
 30
0.0
 10
92.03729967212286
 20
10.27677154580748
 30
0.0
 10
92.05251759249411
 20
10.32684502187626
 30
0.0
 10
92.07735172757914
 20
10.37235496319594
 30
0.0
 10
92.11092090732207
 20
10.41262900373666
 30
0.0
 10
92.15131080430656
 20
10.44636319972627
 30
0.0
 10
92.19693664757526
 20
10.47091483350301
 30
0.0
 10
92.2468653734224
 20
10.48546577884284
 30
0.0
 10
92.28134581755518
 20
10.48744563332141
 30
0.0
 10
92.2990384615385
 20
10.48846153846153
 30
0.0
  0
SPLINE
  5
108
330
1F
100
AcDbEntity
  8
0
  6
Continuous
 62
     7
370
    15
100
AcDbSpline
210
0.0
220
0.0
230
1.0
 70
     8
 71
     3
 72
    15
 73
    11
 74
     0
 42
0.000000001
 43
0.00000001
 40
0.0
 40
0.0
 40
0.0
 40
0.0
 40
0.1275189266999384
 40
0.2499859477487969
 40
0.3717923515057452
 40
0.4988703527764674
 40
0.6259483540471894
 40
0.748491738016059
 40
0.8709587590649146
 40
1.0
 40
1.0
 40
1.0
 40
1.0
 10
92.2990384615385
 20
10.48846153846153
 30
0.0
 10
92.3167188682954
 20
10.48741091582454
 30
0.0
 10
92.35137923875249
 20
10.48535129297143
 30
0.0
 10
92.40148901943913
 20
10.47122102463205
 30
0.0
 10
92.44684131789342
 20
10.44613066834707
 30
0.0
 10
92.4872384256643
 20
10.4126908622617
 30
0.0
 10
92.52053644365414
 20
10.3721455107076
 30
0.0
 10
92.54652096308439
 20
10.3271549363541
 30
0.0
 10
92.56052814252664
 20
10.2766256345146
 30
0.0
 10
92.56257276252627
 20
10.24176442936958
 30
0.0
 10
92.56362179487184
 20
10.2238782051282
 30
0.0
  0
SPLINE
  5
109
330
1F
100
AcDbEntity
  8
0
  6
Continuous
 62
     7
370
    15
100
AcDbSpline
210
0.0
220
0.0
230
1.0
 70
     8
 71
     3
 72
    15
 73
    11
 74
     0
 42
0.000000001
 43
0.00000001
 40
0.0
 40
0.0
 40
0.0
 40
0.0
 40
0.1261777183170063
 40
0.2488206074857902
 40
0.3715399692351568
 40
0.4999837069108886
 40
0.6272441978753773
 40
0.7492255210762747
 40
0.8722979504176569
 40
0.9999999999999999
 40
0.9999999999999999
 40
0.9999999999999999
 40
0.9999999999999999
 10
92.56362179487184
 20
10.2238782051282
 30
0.0
 10
92.56253721419556
 20
10.20642175598651
 30
0.0
 10
92.56039843703003
 20
10.17199789464306
 30
0.0
 10
92.5465530710845
 20
10.12184971069137
 30
0.0
 10
92.52033841123296
 20
10.07683101877923
 30
0.0
 10
92.4874680962248
 20
10.0357355077628
 30
0.0
 10
92.44683133149704
 20
10.00222486085396
 30
0.0
 10
92.40138179938499
 20
9.977347969561077
 30
0.0
 10
92.35149687234252
 20
9.962205959214689
 30
0.0
 10
92.31673849330518
 20
9.96027710398636
 30
0.0
 10
92.2990384615385
 20
9.959294871794862
 30
0.0
  0
LINE
  5
10A
330
1F
100
AcDbEntity
  8
0
  6
Continuous
 62
     7
370
    15
100
AcDbLine
 10
93.5405448718
 20
10.0
 30
0.0
 11
93.2556089744
 21
10.0
 31
0.0
  0
LINE
  5
10B
330
1F
100
AcDbEntity
  8
0
  6
Continuous
 62
     7
370
    15
100
AcDbLine
 10
93.2556089744
 20
10.0
 30
0.0
 11
93.2556089744
 21
13.175
 31
0.0
  0
LINE
  5
10C
330
1F
100
AcDbEntity
  8
0
  6
Continuous
 62
     7
370
    15
100
AcDbLine
 10
93.2556089744
 20
13.175
 30
0.0
 11
93.5405448718
 21
13.175
 31
0.0
  0
LINE
  5
10D
330
1F
100
AcDbEntity
  8
0
  6
Continuous
 62
     7
370
    15
100
AcDbLine
 10
93.5405448718
 20
13.175
 30
0.0
 11
93.5405448718
 21
10.0
 31
0.0
  0
LINE
  5
10E
330
1F
100
AcDbEntity
  8
0
  6
Continuous
 62
     7
370
    15
100
AcDbLine
 10
94.6395833333
 20
10.0
 30
0.0
 11
94.3546474359
 21
10.0
 31
0.0
  0
LINE
  5
10F
330
1F
100
AcDbEntity
  8
0
  6
Continuous
 62
     7
370
    15
100
AcDbLine
 10
94.3546474359
 20
10.0
 30
0.0
 11
94.3546474359
 21
13.175
 31
0.0
  0
LINE
  5
110
330
1F
100
AcDbEntity
  8
0
  6
Continuous
 62
     7
370
    15
100
AcDbLine
 10
94.3546474359
 20
13.175
 30
0.0
 11
94.6395833333
 21
13.175
 31
0.0
  0
LINE
  5
111
330
1F
100
AcDbEntity
  8
0
  6
Continuous
 62
     7
370
    15
100
AcDbLine
 10
94.6395833333
 20
13.175
 30
0.0
 11
94.6395833333
 21
10.0
 31
0.0
  0
LINE
  5
112
330
1F
100
AcDbEntity
  8
0
  6
Continuous
 62
     7
370
    15
100
AcDbLine
 10
95.7386217949
 20
10.0
 30
0.0
 11
95.4536858974
 21
10.0
 31
0.0
  0
LINE
  5
113
330
1F
100
AcDbEntity
  8
0
  6
Continuous
 62
     7
370
    15
100
AcDbLine
 10
95.4536858974
 20
10.0
 30
0.0
 11
95.4536858974
 21
13.175
 31
0.0
  0
LINE
  5
114
330
1F
100
AcDbEntity
  8
0
  6
Continuous
 62
     7
370
    15
100
AcDbLine
 10
95.4536858974
 20
13.175
 30
0.0
 11
95.7386217949
 21
13.175
 31
0.0
  0
LINE
  5
115
330
1F
100
AcDbEntity
  8
0
  6
Continuous
 62
     7
370
    15
100
AcDbLine
 10
95.7386217949
 20
13.175
 30
0.0
 11
95.7386217949
 21
10.0
 31
0.0
  0
LINE
  5
116
330
1F
100
AcDbEntity
  8
0
  6
Continuous
 62
     7
370
    15
100
AcDbLine
 10
98.2012820513
 20
12.2896634615
 30
0.0
 11
97.8979016426
 21
10.0
 31
0.0
  0
LINE
  5
117
330
1F
100
AcDbEntity
  8
0
  6
Continuous
 62
     7
370
    15
100
AcDbLine
 10
97.8979016426
 20
10.0
 30
0.0
 11
97.6110576923
 21
10.0
 31
0.0
  0
LINE
  5
118
330
1F
100
AcDbEntity
  8
0
  6
Continuous
 62
     7
370
    15
100
AcDbLine
 10
97.6110576923
 20
10.0
 30
0.0
 11
98.0301933093
 21
13.175
 31
0.0
  0
LINE
  5
119
330
1F
100
AcDbEntity
  8
0
  6
Continuous
 62
     7
370
    15
100
AcDbLine
 10
98.0301933093
 20
13.175
 30
0.0
 11
98.0708984375
 21
13.175
 31
0.0
  0
LINE
  5
11A
330
1F
100
AcDbEntity
  8
0
  6
Continuous
 62
     7
370
    15
100
AcDbLine
 10
98.0708984375
 20
13.175
 30
0.0
 11
99.3817307692
 21
10.5698717949
 31
0.0
  0
LINE
  5
11B
330
1F
100
AcDbEntity
  8
0
  6
Continuous
 62
     7
370
    15
100
AcDbLine
 10
99.3817307692
 20
10.5698717949
 30
0.0
 11
100.6893830128
 21
13.175
 31
0.0
  0
LINE
  5
11C
330
1F
100
AcDbEntity
  8
0
  6
Continuous
 62
     7
370
    15
100
AcDbLine
 10
100.6893830128
 20
13.175
 30
0.0
 11
100.7307241587
 21
13.175
 31
0.0
  0
LINE
  5
11D
330
1F
100
AcDbEntity
  8
0
  6
Continuous
 62
     7
370
    15
100
AcDbLine
 10
100.7307241587
 20
13.175
 30
0.0
 11
101.1524038462
 21
10.0
 31
0.0
  0
LINE
  5
11E
330
1F
100
AcDbEntity
  8
0
  6
Continuous
 62
     7
370
    15
100
AcDbLine
 10
101.1524038462
 20
10.0
 30
0.0
 11
100.8661959135
 21
10.0
 31
0.0
  0
LINE
  5
11F
330
1F
100
AcDbEntity
  8
0
  6
Continuous
 62
     7
370
    15
100
AcDbLine
 10
100.8661959135
 20
10.0
 30
0.0
 11
100.5621794872
 21
12.2845753205
 31
0.0
  0
LINE
  5
120
330
1F
100
AcDbEntity
  8
0
  6
Continuous
 62
     7
370
    15
100
AcDbLine
 10
100.5621794872
 20
12.2845753205
 30
0.0
 11
99.4160757212
 21
10.0
 31
0.0
  0
LINE
  5
121
330
1F
100
AcDbEntity
  8
0
  6
Continuous
 62
     7
370
    15
100
AcDbLine
 10
99.4160757212
 20
10.0
 30
0.0
 11
99.3518379407
 21
10.0
 31
0.0
  0
LINE
  5
122
330
1F
100
AcDbEntity
  8
0
  6
Continuous
 62
     7
370
    15
100
AcDbLine
 10
99.3518379407
 20
10.0
 30
0.0
 11
98.2012820513
 21
12.2896634615
 31
0.0
  0
LINE
  5
123
330
1F
100
AcDbEntity
  8
0
  6
Continuous
 62
     7
370
    15
100
AcDbLine
 10
102.7399038462
 20
11.0583333333
 30
0.0
 11
101.51875
 21
11.0583333333
 31
0.0
  0
LINE
  5
124
330
1F
100
AcDbEntity
  8
0
  6
Continuous
 62
     7
370
    15
100
AcDbLine
 10
101.51875
 20
11.0583333333
 30
0.0
 11
101.51875
 21
11.383974359
 31
0.0
  0
LINE
  5
125
330
1F
100
AcDbEntity
  8
0
  6
Continuous
 62
     7
370
    15
100
AcDbLine
 10
101.51875
 20
11.383974359
 30
0.0
 11
102.7399038462
 21
11.383974359
 31
0.0
  0
LINE
  5
126
330
1F
100
AcDbEntity
  8
0
  6
Continuous
 62
     7
370
    15
100
AcDbLine
 10
102.7399038462
 20
11.383974359
 30
0.0
 11
102.7399038462
 21
11.0583333333
 31
0.0
  0
LINE
  5
127
330
1F
100
AcDbEntity
  8
0
  6
Continuous
 62
     7
370
    15
100
AcDbLine
 10
103.5540064103
 20
10.0
 30
0.0
 11
103.2690705128
 21
10.0
 31
0.0
  0
LINE
  5
128
330
1F
100
AcDbEntity
  8
0
  6
Continuous
 62
     7
370
    15
100
AcDbLine
 10
103.2690705128
 20
10.0
 30
0.0
 11
103.2690705128
 21
13.175
 31
0.0
  0
LINE
  5
129
330
1F
100
AcDbEntity
  8
0
  6
Continuous
 62
     7
370
    15
100
AcDbLine
 10
103.2690705128
 20
13.175
 30
0.0
 11
103.5540064103
 21
13.175
 31
0.0
  0
LINE
  5
12A
330
1F
100
AcDbEntity
  8
0
  6
Continuous
 62
     7
370
    15
100
AcDbLine
 10
103.5540064103
 20
13.175
 30
0.0
 11
103.5540064103
 21
11.8724358974
 31
0.0
  0
LINE
  5
12B
330
1F
100
AcDbEntity
  8
0
  6
Continuous
 62
     7
370
    15
100
AcDbLine
 10
103.5540064103
 20
11.8724358974
 30
0.0
 11
105.1822115385
 21
11.8724358974
 31
0.0
  0
LINE
  5
12C
330
1F
100
AcDbEntity
  8
0
  6
Continuous
 62
     7
370
    15
100
AcDbLine
 10
105.1822115385
 20
11.8724358974
 30
0.0
 11
105.1822115385
 21
13.175
 31
0.0
  0
LINE
  5
12D
330
1F
100
AcDbEntity
  8
0
  6
Continuous
 62
     7
370
    15
100
AcDbLine
 10
105.1822115385
 20
13.175
 30
0.0
 11
105.4671474359
 21
13.175
 31
0.0
  0
LINE
  5
12E
330
1F
100
AcDbEntity
  8
0
  6
Continuous
 62
     7
370
    15
100
AcDbLine
 10
105.4671474359
 20
13.175
 30
0.0
 11
105.4671474359
 21
10.0
 31
0.0
  0
LINE
  5
12F
330
1F
100
AcDbEntity
  8
0
  6
Continuous
 62
     7
370
    15
100
AcDbLine
 10
105.4671474359
 20
10.0
 30
0.0
 11
105.1822115385
 21
10.0
 31
0.0
  0
LINE
  5
130
330
1F
100
AcDbEntity
  8
0
  6
Continuous
 62
     7
370
    15
100
AcDbLine
 10
105.1822115385
 20
10.0
 30
0.0
 11
105.1822115385
 21
11.5467948718
 31
0.0
  0
LINE
  5
131
330
1F
100
AcDbEntity
  8
0
  6
Continuous
 62
     7
370
    15
100
AcDbLine
 10
105.1822115385
 20
11.5467948718
 30
0.0
 11
103.5540064103
 21
11.5467948718
 31
0.0
  0
LINE
  5
132
330
1F
100
AcDbEntity
  8
0
  6
Continuous
 62
     7
370
    15
100
AcDbLine
 10
103.5540064103
 20
11.5467948718
 30
0.0
 11
103.5540064103
 21
10.0
 31
0.0
  0
SPLINE
  5
133
330
1F
100
AcDbEntity
  8
0
  6
Continuous
 62
     7
370
    15
100
AcDbSpline
210
0.0
220
0.0
230
1.0
 70
     8
 71
     3
 72
    15
 73
    11
 74
     0
 42
0.000000001
 43
0.00000001
 40
0.0
 40
0.0
 40
0.0
 40
0.0
 40
0.1209110787487095
 40
0.238762228638721
 40
0.3547548590848595
 40
0.4703593994502191
 40
0.5891440987928738
 40
0.7163289048363425
 40
0.8524452858576034
 40
1.0
 40
1.0
 40
1.0
 40
1.0
 10
118.2256610576923
 20
12.36089743589743
 30
0.0
 10
118.2683429809094
 20
12.35966673942006
 30
0.0
 10
118.35262666455
 20
12.35723649202871
 30
0.0
 10
118.4766612167529
 20
12.33816731014537
 30
0.0
 10
118.5963516773035
 20
12.30776531231924
 30
0.0
 10
118.7123734486676
 20
12.26420827607072
 30
0.0
 10
118.8256716463616
 20
12.20474502700966
 30
0.0
 10
118.93587286225
 20
12.12641963845747
 30
0.0
 10
119.0432959339658
 20
12.02852954455776
 30
0.0
 10
119.1095879659626
 20
11.95346087473894
 30
0.0
 10
119.1440705128205
 20
11.91441306089743
 30
0.0
  0
LINE
  5
134
330
1F
100
AcDbEntity
  8
0
  6
Continuous
 62
     7
370
    15
100
AcDbLine
 10
119.1440705128
 20
11.9144130609
 30
0.0
 11
119.1440705128
 21
12.3201923077
 31
0.0
  0
LINE
  5
135
330
1F
100
AcDbEntity
  8
0
  6
Continuous
 62
     7
370
    15
100
AcDbLine
 10
119.1440705128
 20
12.3201923077
 30
0.0
 11
119.4290064103
 21
12.3201923077
 31
0.0
  0
LINE
  5
136
330
1F
100
AcDbEntity
  8
0
  6
Continuous
 62
     7
370
    15
100
AcDbLine
 10
119.4290064103
 20
12.3201923077
 30
0.0
 11
119.4290064103
 21
10.478921274
 31
0.0
  0
SPLINE
  5
137
330
1F
100
AcDbEntity
  8
0
  6
Continuous
 62
     7
370
    15
100
AcDbSpline
210
0.0
220
0.0
230
1.0
 70
     8
 71
     3
 72
    15
 73
    11
 74
     0
 42
0.000000001
 43
0.00000001
 40
0.0
 40
0.0
 40
0.0
 40
0.0
 40
0.1634452548497621
 40
0.3154887127129218
 40
0.4562908239366668
 40
0.5858641495747764
 40
0.7054286858067537
 40
0.8133707129824376
 40
0.9117182381600979
 40
0.9999999999999999
 40
0.9999999999999999
 40
0.9999999999999999
 40
0.9999999999999999
 10
119.4290064102564
 20
10.47892127403845
 30
0.0
 10
119.4287550930671
 20
10.43969859893083
 30
0.0
 10
119.4282699903542
 20
10.36398938797678
 30
0.0
 10
119.4247766092875
 20
10.25451694861364
 30
0.0
 10
119.4174099949519
 20
10.15340128530971
 30
0.0
 10
119.4090564054383
 20
10.06018123644664
 30
0.0
 10
119.3970397413484
 20
9.975288893749362
 30
0.0
 10
119.3823654653536
 20
9.898470943795113
 30
0.0
 10
119.3658230992656
 20
9.829653669361626
 30
0.0
 10
119.3512904734321
 20
9.78726756357237
 30
0.0
 10
119.3444160657051
 20
9.767217548076916
 30
0.0
  0
SPLINE
  5
138
330
1F
100
AcDbEntity
  8
0
  6
Continuous
 62
     7
370
    15
100
AcDbSpline
210
0.0
220
0.0
230
1.0
 70
     8
 71
     3
 72
    23
 73
    19
 74
     0
 42
0.000000001
 43
0.00000001
 40
0.0
 40
0.0
 40
0.0
 40
0.0
 40
0.0613707062984579
 40
0.1209064680177769
 40
0.1794236650000254
 40
0.2376066874397806
 40
0.2959384682493747
 40
0.3542182268208548
 40
0.4135370665946743
 40
0.4740867825531884
 40
0.5351211890802731
 40
0.5969876649622229
 40
0.6600198335468078
 40
0.7242774964844981
 40
0.7900118502255359
 40
0.8577476843344485
 40
0.9278290322155529
 40
1.0
 40
1.0
 40
1.0
 40
1.0
 10
119.3444160657051
 20
9.767217548076916
 30
0.0
 10
119.3342658277084
 20
9.741155404919011
 30
0.0
 10
119.3142688372916
 20
9.689810359892622
 30
0.0
 10
119.2768168697967
 20
9.617026368886947
 30
0.0
 10
119.2348761143711
 20
9.548495000954988
 30
0.0
 10
119.1869728477234
 20
9.484598170128635
 30
0.0
 10
119.1333236897803
 20
9.425656642485569
 30
0.0
 10
119.0751926218973
 20
9.370389871710378
 30
0.0
 10
119.0114475196792
 20
9.319967091296622
 30
0.0
 10
118.9421248307494
 20
9.27525828574651
 30
0.0
 10
118.8688225777743
 20
9.234992886621605
 30
0.0
 10
118.791582899471
 20
9.200116357819333
 30
0.0
 10
118.7108413446696
 20
9.169739006818759
 30
0.0
 10
118.6258394358621
 20
9.146985327835358
 30
0.0
 10
118.5379098660232
 20
9.12726883132107
 30
0.0
 10
118.4460186249716
 20
9.11443758063622
 30
0.0
 10
118.3507025878698
 20
9.105704463621027
 30
0.0
 10
118.285891421654
 20
9.104896895132764
 30
0.0
 10
118.2530098157051
 20
9.104487179487172
 30
0.0
  0
SPLINE
  5
139
330
1F
100
AcDbEntity
  8
0
  6
Continuous
 62
     7
370
    15
100
AcDbSpline
210
0.0
220
0.0
230
1.0
 70
     8
 71
     3
 72
    19
 73
    15
 74
     0
 42
0.000000001
 43
0.00000001
 40
0.0
 40
0.0
 40
0.0
 40
0.0
 40
0.0964914237691222
 40
0.1884736749923072
 40
0.2768399149588152
 40
0.36213656217143
 40
0.4434367545654616
 40
0.5201655209986256
 40
0.592709663569004
 40
0.6629173343528173
 40
0.7354188002027071
 40
0.8148809699994166
 40
0.9030605557399859
 40
1.0
 40
1.0
 40
1.0
 40
1.0
 10
118.2530098157051
 20
9.10448717948717
 30
0.0
 10
118.2050358064592
 20
9.105264134472554
 30
0.0
 10
118.1113296772148
 20
9.10678173630367
 30
0.0
 10
117.9747094338509
 20
9.124462780708
 30
0.0
 10
117.8449565093465
 20
9.149458533424555
 30
0.0
 10
117.7237853950544
 20
9.187291314205321
 30
0.0
 10
117.6119618071788
 20
9.233589154889884
 30
0.0
 10
117.5102494343765
 20
9.286743147927146
 30
0.0
 10
117.4195613582711
 20
9.347693449482685
 30
0.0
 10
117.3378063120469
 20
9.41709042317121
 30
0.0
 10
117.2640178695663
 20
9.499607477227963
 30
0.0
 10
117.194596685084
 20
9.596852142969713
 30
0.0
 10
117.1277756878271
 20
9.710305678128286
 30
0.0
 10
117.0886155663328
 20
9.793574782258574
 30
0.0
 10
117.068108974359
 20
9.837179487179478
 30
0.0
  0
LINE
  5
13A
330
1F
100
AcDbEntity
  8
0
  6
Continuous
 62
     7
370
    15
100
AcDbLine
 10
117.0681089744
 20
9.8371794872
 30
0.0
 11
117.3530448718
 21
9.8371794872
 31
0.0
  0
SPLINE
  5
13B
330
1F
100
AcDbEntity
  8
0
  6
Continuous
 62
     7
370
    15
100
AcDbSpline
210
0.0
220
0.0
230
1.0
 70
     8
 71
     3
 72
    15
 73
    11
 74
     0
 42
0.000000001
 43
0.00000001
 40
0.0
 40
0.0
 40
0.0
 40
0.0
 40
0.1247164867023033
 40
0.2438053739155052
 40
0.360061534064442
 40
0.4751119996584022
 40
0.5935250978119095
 40
0.7193501703843527
 40
0.8538547713042595
 40
0.9999999999999999
 40
0.9999999999999999
 40
0.9999999999999999
 40
0.9999999999999999
 10
117.3530448717949
 20
9.837179487179478
 30
0.0
 10
117.3759613045219
 20
9.800797728443081
 30
0.0
 10
117.4207601085739
 20
9.729675870162998
 30
0.0
 10
117.504533373451
 20
9.637588935850692
 30
0.0
 10
117.5963419694947
 20
9.558891240741378
 30
0.0
 10
117.6992842535263
 20
9.495472181411234
 30
0.0
 10
117.813788556075
 20
9.447656870639683
 30
0.0
 10
117.9399237642431
 20
9.413570708872758
 30
0.0
 10
118.0787162782455
 20
9.393163381081637
 30
0.0
 10
118.1753435153973
 20
9.390703849968585
 30
0.0
 10
118.2256610576923
 20
9.389423076923068
 30
0.0
  0
SPLINE
  5
13C
330
1F
100
AcDbEntity
  8
0
  6
Continuous
 62
     7
370
    15
100
AcDbSpline
210
0.0
220
0.0
230
1.0
 70
     8
 71
     3
 72
    23
 73
    19
 74
     0
 42
0.000000001
 43
0.00000001
 40
0.0
 40
0.0
 40
0.0
 40
0.0
 40
0.0981712978276953
 40
0.1892644356875805
 40
0.2744630560180384
 40
0.3550231712817347
 40
0.4309204620429336
 40
0.5010860453857492
 40
0.5666076270375985
 40
0.6297208634282984
 40
0.6627106951128596
 40
0.6987655616316139
 40
0.7386105373889628
 40
0.7825812280784427
 40
0.8304087872491269
 40
0.8825778660702768
 40
0.9392286810451788
 40
0.9999999999999999
 40
0.9999999999999999
 40
0.9999999999999999
 40
0.9999999999999999
 10
118.2256610576923
 20
9.38942307692307
 30
0.0
 10
118.2753424510757
 20
9.39072042618716
 30
0.0
 10
118.3711232046253
 20
9.393221585709245
 30
0.0
 10
118.5088557651165
 20
9.413579816494467
 30
0.0
 10
118.6345811732209
 20
9.447664288549735
 30
0.0
 10
118.747575069504
 20
9.495387610358744
 30
0.0
 10
118.8465042309629
 20
9.553853336286583
 30
0.0
 10
118.9317865373424
 20
9.619167689501191
 30
0.0
 10
119.0008606364147
 20
9.692810456521551
 30
0.0
 10
119.0473181133222
 20
9.760648237760998
 30
0.0
 10
119.0761966592869
 20
9.821085841128921
 30
0.0
 10
119.0945864740672
 20
9.873112838890444
 30
0.0
 10
119.1095307177865
 20
9.931943663627074
 30
0.0
 10
119.1220309989796
 20
9.997381081486118
 30
0.0
 10
119.1323460418237
 20
10.06951858468276
 30
0.0
 10
119.1388800850961
 20
10.1485211148871
 30
0.0
 10
119.1436024998795
 20
10.23420912370767
 30
0.0
 10
119.1439109010994
 20
10.29362075622643
 30
0.0
 10
119.1440705128205
 20
10.32436899038461
 30
0.0
  0
LINE
  5
13D
330
1F
100
AcDbEntity
  8
0
  6
Continuous
 62
     7
370
    15
100
AcDbLine
 10
119.1440705128
 20
10.3243689904
 30
0.0
 11
119.1440705128
 21
10.4445763221
 31
0.0
  0
SPLINE
  5
13E
330
1F
100
AcDbEntity
  8
0
  6
Continuous
 62
     7
370
    15
100
AcDbSpline
210
0.0
220
0.0
230
1.0
 70
     8
 71
     3
 72
    15
 73
    11
 74
     0
 42
0.000000001
 43
0.00000001
 40
0.0
 40
0.0
 40
0.0
 40
0.0
 40
0.1265607130145264
 40
0.2508952618879465
 40
0.3747192653150433
 40
0.4998264235934686
 40
0.6249635314328588
 40
0.7490394747387297
 40
0.8731801199413558
 40
1.0
 40
1.0
 40
1.0
 40
1.0
 10
119.1440705128205
 20
10.44457632211538
 30
0.0
 10
119.1151497848911
 20
10.41015768730138
 30
0.0
 10
119.05781703577
 20
10.34192583090775
 30
0.0
 10
118.9588048175853
 20
10.25251634619329
 30
0.0
 10
118.8506580441209
 20
10.17551249941989
 30
0.0
 10
118.733560830656
 20
10.11235845239725
 30
0.0
 10
118.6103814966977
 20
10.06184744578739
 30
0.0
 10
118.4824541876763
 20
10.02652061696844
 30
0.0
 10
118.350925680458
 20
10.00369699349648
 30
0.0
 10
118.2617969445456
 20
10.00124107091103
 30
0.0
 10
118.2167568108974
 20
9.999999999999991
 30
0.0
  0
SPLINE
  5
13F
330
1F
100
AcDbEntity
  8
0
  6
Continuous
 62
     7
370
    15
100
AcDbSpline
210
0.0
220
0.0
230
1.0
 70
     8
 71
     3
 72
    31
 73
    27
 74
     0
 42
0.000000001
 43
0.00000001
 40
0.0
 40
0.0
 40
0.0
 40
0.0
 40
0.0428647590311891
 40
0.0852222575672289
 40
0.1272022841437366
 40
0.1690253126085974
 40
0.2108820330997074
 40
0.2529626777271214
 40
0.2956282851000465
 40
0.3385532936306077
 40
0.3814632477171886
 40
0.4235815621432648
 40
0.4650661653954496
 40
0.5063122188418614
 40
0.5470395054616125
 40
0.5876758328931694
 40
0.6286747862975582
 40
0.6699464646027584
 40
0.7110355744560757
 40
0.7519958286352152
 40
0.7926726074835032
 40
0.8334460178854418
 40
0.8741906070422422
 40
0.9154935830294665
 40
0.9574778068391475
 40
1.0
 40
1.0
 40
1.0
 40
1.0
 10
118.2167568108974
 20
9.999999999999991
 30
0.0
 10
118.1902353379222
 20
10.00046720258391
 30
0.0
 10
118.137506246425
 20
10.00139607888795
 30
0.0
 10
118.0591701542929
 20
10.00952296983788
 30
0.0
 10
117.9819900423807
 20
10.0213146860619
 30
0.0
 10
117.9061459112334
 20
10.03862427714001
 30
0.0
 10
117.8315283193798
 20
10.06084177192876
 30
0.0
 10
117.7582605750984
 20
10.08861552779438
 30
0.0
 10
117.685749447427
 20
10.12001638507919
 30
0.0
 10
117.6153129815096
 20
10.15700314248451
 30
0.0
 10
117.547652705772
 20
10.19815323513607
 30
0.0
 10
117.4832789592563
 20
10.24272922885167
 30
0.0
 10
117.4225289273699
 20
10.29049781889923
 30
0.0
 10
117.3659808262263
 20
10.34193004285717
 30
0.0
 10
117.313708831412
 20
10.39695146186299
 30
0.0
 10
117.2650098939623
 20
10.454975542114
 30
0.0
 10
117.2206893005516
 20
10.51681251462027
 30
0.0
 10
117.1798375831691
 20
10.58133482609679
 30
0.0
 10
117.1444068053306
 20
10.6489722355544
 30
0.0
 10
117.1133059823177
 20
10.71825807926385
 30
0.0
 10
117.0862645934593
 20
10.78904420940416
 30
0.0
 10
117.0647059790269
 20
10.86156761624076
 30
0.0
 10
117.048240326275
 20
10.93578257799795
 30
0.0
 10
117.0359846203635
 20
11.0115675137603
 30
0.0
 10
117.0290332466472
 20
11.08915579396756
 30
0.0
 10
117.0279492798356
 20
11.14142658930845
 30
0.0
 10
117.0274038461538
 20
11.16772836538461
 30
0.0
  0
SPLINE
  5
140
330
1F
100
AcDbEntity
  8
0
  6
Continuous
 62
     7
370
    15
100
AcDbSpline
210
0.0
220
0.0
230
1.0
 70
     8
 71
     3
 72
    31
 73
    27
 74
     0
 42
0.000000001
 43
0.00000001
 40
0.0
 40
0.0
 40
0.0
 40
0.0
 40
0.042034118663846
 40
0.0839054330862331
 40
0.1250689344486248
 40
0.1661584697031398
 40
0.2072102728707285
 40
0.248490732056254
 40
0.289878112232792
 40
0.3321695142040886
 40
0.374475842153922
 40
0.4162249804562078
 40
0.4576095869585026
 40
0.4990731704672243
 40
0.540553361553446
 40
0.5822488491953597
 40
0.6245497501259976
 40
0.6674328009210315
 40
0.7103225433055336
 40
0.7524671185698653
 40
0.7940647568438071
 40
0.835215707295008
 40
0.8762283442246862
 40
0.9174461887061487
 40
0.9586431404713226
 40
1.0
 40
1.0
 40
1.0
 40
1.0
 10
117.0274038461538
 20
11.16772836538461
 30
0.0
 10
117.0278748041324
 20
11.19403831675523
 30
0.0
 10
117.0288148960009
 20
11.24655631723681
 30
0.0
 10
117.0369347129839
 20
11.32446118826686
 30
0.0
 10
117.0485172848186
 20
11.40132289023629
 30
0.0
 10
117.066848618122
 20
11.47634917591408
 30
0.0
 10
117.0889126206854
 20
11.55039448644229
 30
0.0
 10
117.1162390043624
 20
11.62291190047269
 30
0.0
 10
117.1490945931894
 20
11.69392350516282
 30
0.0
 10
117.1862962946817
 20
11.76348188725972
 30
0.0
 10
117.2281011501584
 20
11.83065365223598
 30
0.0
 10
117.2739413291762
 20
11.89444996673523
 30
0.0
 10
117.3238721722547
 20
11.95440137983942
 30
0.0
 10
117.3772048385674
 20
12.01111270539145
 30
0.0
 10
117.4345905297378
 20
12.06403677423783
 30
0.0
 10
117.4959995585082
 20
12.11304513523928
 30
0.0
 10
117.5608265998745
 20
12.15895928764092
 30
0.0
 10
117.6292725695136
 20
12.20078885777987
 30
0.0
 10
117.7002813433824
 20
12.23778418140868
 30
0.0
 10
117.7720488780945
 20
12.27154132290463
 30
0.0
 10
117.8455258484348
 20
12.29833298847839
 30
0.0
 10
117.9193423663407
 20
12.32193965688917
 30
0.0
 10
117.9947984318758
 20
12.33866301255288
 30
0.0
 10
118.0709688532333
 20
12.35156461772113
 30
0.0
 10
118.1481144024827
 20
12.35942475750836
 30
0.0
 10
118.1997788144187
 20
12.36040590959979
 30
0.0
 10
118.2256610576923
 20
12.36089743589743
 30
0.0
  0
SPLINE
  5
141
330
1F
100
AcDbEntity
  8
0
  6
Continuous
 62
     7
370
    15
100
AcDbSpline
210
0.0
220
0.0
230
1.0
 70
     8
 71
     3
 72
    23
 73
    19
 74
     0
 42
0.000000001
 43
0.00000001
 40
0.0
 40
0.0
 40
0.0
 40
0.0
 40
0.0683846151037683
 40
0.1344755875434522
 40
0.1983910577839538
 40
0.2607534774484859
 40
0.3218292228076516
 40
0.3830372384795195
 40
0.444653123106426
 40
0.5073980112040091
 40
0.5698252379730236
 40
0.6307776406313147
 40
0.6909286865237128
 40
0.7509451326917347
 40
0.8110494767293212
 40
0.8723308525469916
 40
0.9350040935893994
 40
1.0
 40
1.0
 40
1.0
 40
1.0
 10
129.4831730769231
 20
11.09903846153845
 30
0.0
 10
129.484569719898
 20
11.06846732611429
 30
0.0
 10
129.4873161619796
 20
11.00835042128419
 30
0.0
 10
129.5001206132806
 20
10.92038406805938
 30
0.0
 10
129.5203034294901
 20
10.83658825052524
 30
0.0
 10
129.5486689363122
 20
10.75759149102073
 30
0.0
 10
129.5830195745077
 20
10.6823620182033
 30
0.0
 10
129.6250980461635
 20
10.61145788466746
 30
0.0
 10
129.675298927249
 20
10.5452020481222
 30
0.0
 10
129.7312929545477
 20
10.48300185901987
 30
0.0
 10
129.7936201053164
 20
10.42761102567487
 30
0.0
 10
129.8591908831528
 20
10.37803405723379
 30
0.0
 10
129.9289443313929
 20
10.33648183734357
 30
0.0
 10
130.0023304499911
 20
10.30275436592438
 30
0.0
 10
130.0792305693718
 20
10.27635077921362
 30
0.0
 10
130.1596689177983
 20
10.25832782759411
 30
0.0
 10
130.2434872090629
 20
10.24625638064334
 30
0.0
 10
130.3006242677926
 20
10.24491411292572
 30
0.0
 10
130.3297125400641
 20
10.24423076923076
 30
0.0
  0
SPLINE
  5
142
330
1F
100
AcDbEntity
  8
0
  6
Continuous
 62
     7
370
    15
100
AcDbSpline
210
0.0
220
0.0
230
1.0
 70
     8
 71
     3
 72
    19
 73
    15
 74
     0
 42
0.000000001
 43
0.00000001
 40
0.0
 40
0.0
 40
0.0
 40
0.0
 40
0.0825922633314241
 40
0.1638788940984792
 40
0.2456587396295088
 40
0.3277256953541289
 40
0.4086099609103128
 40
0.4857490859539325
 40
0.5591690561972843
 40
0.6302684758575516
 40
0.7053060284320597
 40
0.7920649660965958
 40
0.8897964374100853
 40
1.0
 40
1.0
 40
1.0
 40
1.0
 10
130.3297125400641
 20
10.24423076923076
 30
0.0
 10
130.3581525096763
 20
10.24478236348653
 30
0.0
 10
130.4145828650177
 20
10.24587683230212
 30
0.0
 10
130.4986213570361
 20
10.25651935148569
 30
0.0
 10
130.58129792832
 20
10.27372810151337
 30
0.0
 10
130.6622703917124
 20
10.29721402108927
 30
0.0
 10
130.7398953733654
 20
10.32585873692896
 30
0.0
 10
130.8117824080638
 20
10.36042347208204
 30
0.0
 10
130.877895175096
 20
10.39865931377027
 30
0.0
 10
130.939686994785
 20
10.44239237613562
 30
0.0
 10
130.9996228244687
 20
10.49592123148836
 30
0.0
 10
131.0590792228591
 20
10.56271934981371
 30
0.0
 10
131.1228301869816
 20
10.64172017858883
 30
0.0
 10
131.1627350318277
 20
10.70117946129737
 30
0.0
 10
131.1838842147436
 20
10.7326923076923
 30
0.0
  0
LINE
  5
143
330
1F
100
AcDbEntity
  8
0
  6
Continuous
 62
     7
370
    15
100
AcDbLine
 10
131.1838842147
 20
10.7326923077
 30
0.0
 11
131.4370192308
 21
10.5997646234
 31
0.0
  0
SPLINE
  5
144
330
1F
100
AcDbEntity
  8
0
  6
Continuous
 62
     7
370
    15
100
AcDbSpline
210
0.0
220
0.0
230
1.0
 70
     8
 71
     3
 72
    19
 73
    15
 74
     0
 42
0.000000001
 43
0.00000001
 40
0.0
 40
0.0
 40
0.0
 40
0.0
 40
0.0933698567362019
 40
0.1816607660710118
 40
0.2658742270426184
 40
0.3463547840343196
 40
0.4245998617178918
 40
0.5019031838373846
 40
0.5799920909873517
 40
0.6584434305294391
 40
0.7386722364878308
 40
0.8218941484362524
 40
0.9088007920466179
 40
1.0
 40
1.0
 40
1.0
 40
1.0
 10
131.4370192307692
 20
10.59976462339743
 30
0.0
 10
131.4168474622301
 20
10.5639838871691
 30
0.0
 10
131.377601188819
 20
10.49436874389875
 30
0.0
 10
131.3101090818038
 20
10.39872698475624
 30
0.0
 10
131.2393591302507
 20
10.31268655681677
 30
0.0
 10
131.1621576735618
 20
10.23854608471641
 30
0.0
 10
131.0808144647964
 20
10.1739108997755
 30
0.0
 10
130.9948784136693
 20
10.1173615873519
 30
0.0
 10
130.9039021290094
 20
10.06917550103819
 30
0.0
 10
130.8078813072463
 20
10.02857856503932
 30
0.0
 10
130.7060095715679
 20
9.997364238241413
 30
0.0
 10
130.5980400531103
 20
9.97531683783451
 30
0.0
 10
130.4837659108738
 20
9.961688586987322
 30
0.0
 10
130.4054375905652
 20
9.960105494996705
 30
0.0
 10
130.3653295272436
 20
9.959294871794862
 30
0.0
  0
SPLINE
  5
145
330
1F
100
AcDbEntity
  8
0
  6
Continuous
 62
     7
370
    15
100
AcDbSpline
210
0.0
220
0.0
230
1.0
 70
     8
 71
     3
 72
    23
 73
    19
 74
     0
 42
0.000000001
 43
0.00000001
 40
0.0
 40
0.0
 40
0.0
 40
0.0
 40
0.0715786576891423
 40
0.1396292246928492
 40
0.2047966973966681
 40
0.2681349633966843
 40
0.3298137469867347
 40
0.3913013977745654
 40
0.4534335150970589
 40
0.5165516903197732
 40
0.5796312707049229
 40
0.6411189214927562
 40
0.7012940466987764
 40
0.7608103356761373
 40
0.819931721778144
 40
0.8789195754993845
 40
0.9389828222504475
 40
1.0
 40
1.0
 40
1.0
 40
1.0
 10
130.3653295272436
 20
9.959294871794862
 30
0.0
 10
130.3207507333364
 20
9.960335523700977
 30
0.0
 10
130.2337904209759
 20
9.962365534091175
 30
0.0
 10
130.107207936095
 20
9.979866555399589
 30
0.0
 10
129.98802803512
 20
10.00841648078599
 30
0.0
 10
129.8762574185064
 20
10.04829950771022
 30
0.0
 10
129.7721698036682
 20
10.10039429456355
 30
0.0
 10
129.6755583139459
 20
10.16385753877121
 30
0.0
 10
129.5859148869077
 20
10.23836322695297
 30
0.0
 10
129.5060643542897
 20
10.32455671497327
 30
0.0
 10
129.4341788321166
 20
10.41679677623412
 30
0.0
 10
129.3707461239958
 20
10.51291390001782
 30
0.0
 10
129.3177168829724
 20
10.61266625364774
 30
0.0
 10
129.2745798722949
 20
10.71541880045866
 30
0.0
 10
129.2397411733581
 20
10.82052390388709
 30
0.0
 10
129.2154599492245
 20
10.92893787803915
 30
0.0
 10
129.2014629635551
 20
11.0403673008856
 30
0.0
 10
129.1993180736748
 20
11.11574845542956
 30
0.0
 10
129.1982371794872
 20
11.15373597756409
 30
0.0
  0
SPLINE
  5
146
330
1F
100
AcDbEntity
  8
0
  6
Continuous
 62
     7
370
    15
100
AcDbSpline
210
0.0
220
0.0
230
1.0
 70
     8
 71
     3
 72
    15
 73
    11
 74
     0
 42
0.000000001
 43
0.00000001
 40
0.0
 40
0.0
 40
0.0
 40
0.0
 40
0.128044807961119
 40
0.2537679000244887
 40
0.3774284265813019
 40
0.5005508414825333
 40
0.6232958832424751
 40
0.7465783319335029
 40
0.8723475406047054
 40
1.0
 40
1.0
 40
1.0
 40
1.0
 10
129.1982371794872
 20
11.15373597756409
 30
0.0
 10
129.1991979719799
 20
11.18938200230004
 30
0.0
 10
129.2011021358201
 20
11.26002771598027
 30
0.0
 10
129.2131043500987
 20
11.3645900313756
 30
0.0
 10
129.2343753016675
 20
11.46621584188365
 30
0.0
 10
129.2635638241071
 20
11.56498959111255
 30
0.0
 10
129.3012567402876
 20
11.66074589836955
 30
0.0
 10
129.3473688248623
 20
11.75354304179912
 30
0.0
 10
129.4019719104279
 20
11.84328227581541
 30
0.0
 10
129.4441292644783
 20
11.89989083282178
 30
0.0
 10
129.4653645833333
 20
11.92840544871794
 30
0.0
  0
SPLINE
  5
147
330
1F
100
AcDbEntity
  8
0
  6
Continuous
 62
     7
370
    15
100
AcDbSpline
210
0.0
220
0.0
230
1.0
 70
     8
 71
     3
 72
    15
 73
    11
 74
     0
 42
0.000000001
 43
0.00000001
 40
0.0
 40
0.0
 40
0.0
 40
0.0
 40
0.1288352544875554
 40
0.2535893349864604
 40
0.3746432573141587
 40
0.4953400422377849
 40
0.6163247746357895
 40
0.7397593354404955
 40
0.8668423203805368
 40
1.0
 40
1.0
 40
1.0
 40
1.0
 10
129.4653645833333
 20
11.92840544871794
 30
0.0
 10
129.49412798128
 20
11.96275792372638
 30
0.0
 10
129.5507436257032
 20
12.03037467449217
 30
0.0
 10
129.6464983194885
 20
12.11921872716552
 30
0.0
 10
129.7501849261705
 20
12.19364415179041
 30
0.0
 10
129.8605040441327
 20
12.25533633957294
 30
0.0
 10
129.978737845602
 20
12.30221171934496
 30
0.0
 10
130.1032969881861
 20
12.33714359751281
 30
0.0
 10
130.2355997699774
 20
12.35671793609299
 30
0.0
 10
130.3260466488806
 20
12.35948275659294
 30
0.0
 10
130.3723257211538
 20
12.36089743589743
 30
0.0
  0
SPLINE
  5
148
330
1F
100
AcDbEntity
  8
0
  6
Continuous
 62
     7
370
    15
100
AcDbSpline
210
0.0
220
0.0
230
1.0
 70
     8
 71
     3
 72
    15
 73
    11
 74
     0
 42
0.000000001
 43
0.00000001
 40
0.0
 40
0.0
 40
0.0
 40
0.0
 40
0.1320402344259799
 40
0.2590328407793645
 40
0.3818798239250089
 40
0.5022584437149753
 40
0.6227521895274665
 40
0.7447426318590069
 40
0.8701089273418204
 40
1.0
 40
1.0
 40
1.0
 40
1.0
 10
130.3723257211538
 20
12.36089743589743
 30
0.0
 10
130.4199031916793
 20
12.35966912011637
 30
0.0
 10
130.5132393433523
 20
12.35725944455404
 30
0.0
 10
130.6493399102928
 20
12.33491984210439
 30
0.0
 10
130.7781185602975
 20
12.29949359617903
 30
0.0
 10
130.8995237606347
 20
12.24946122908211
 30
0.0
 10
131.013567820032
 20
12.18490934995799
 30
0.0
 10
131.1195094507175
 20
12.10495210804312
 30
0.0
 10
131.2191604656725
 20
12.01204427177467
 30
0.0
 10
131.2771346764884
 20
11.94059478893706
 30
0.0
 10
131.3066356169872
 20
11.90423677884615
 30
0.0
  0
SPLINE
  5
149
330
1F
100
AcDbEntity
  8
0
  6
Continuous
 62
     7
370
    15
100
AcDbSpline
210
0.0
220
0.0
230
1.0
 70
     8
 71
     3
 72
    15
 73
    11
 74
     0
 42
0.000000001
 43
0.00000001
 40
0.0
 40
0.0
 40
0.0
 40
0.0
 40
0.1185218400132627
 40
0.2362547631617526
 40
0.3561744339909396
 40
0.4772496548985591
 40
0.6015398708217041
 40
0.7296183821680466
 40
0.8621582661414393
 40
1.0
 40
1.0
 40
1.0
 40
1.0
 10
131.3066356169872
 20
11.90423677884615
 30
0.0
 10
131.3267079110278
 20
11.87683781573144
 30
0.0
 10
131.3667188919081
 20
11.82222226520659
 30
0.0
 10
131.4168359040829
 20
11.73316700126526
 30
0.0
 10
131.4603401123895
 20
11.63999381924762
 30
0.0
 10
131.4951135841671
 20
11.54119662117583
 30
0.0
 10
131.5232708459669
 20
11.43794600201897
 30
0.0
 10
131.5436423886812
 20
11.3295038364567
 30
0.0
 10
131.555589114109
 20
11.21590241686506
 30
0.0
 10
131.557937432418
 20
11.13849904153977
 30
0.0
 10
131.5591346153846
 20
11.09903846153845
 30
0.0
  0
LINE
  5
14A
330
1F
100
AcDbEntity
  8
0
  6
Continuous
 62
     7
370
    15
100
AcDbLine
 10
131.5591346154
 20
11.0990384615
 30
0.0
 11
129.4831730769
 21
11.0990384615
 31
0.0
  0
LINE
  5
14B
330
1F
100
AcDbEntity
  8
0
  6
Continuous
 62
     7
370
    15
100
AcDbLine
 10
132.3325320513
 20
10.0
 30
0.0
 11
132.0475961538
 21
10.0
 31
0.0
  0
LINE
  5
14C
330
1F
100
AcDbEntity
  8
0
  6
Continuous
 62
     7
370
    15
100
AcDbLine
 10
132.0475961538
 20
10.0
 30
0.0
 11
132.0475961538
 21
12.3201923077
 31
0.0
  0
LINE
  5
14D
330
1F
100
AcDbEntity
  8
0
  6
Continuous
 62
     7
370
    15
100
AcDbLine
 10
132.0475961538
 20
12.3201923077
 30
0.0
 11
132.3325320513
 21
12.3201923077
 31
0.0
  0
LINE
  5
14E
330
1F
100
AcDbEntity
  8
0
  6
Continuous
 62
     7
370
    15
100
AcDbLine
 10
132.3325320513
 20
12.3201923077
 30
0.0
 11
132.3325320513
 21
11.9786508413
 31
0.0
  0
SPLINE
  5
14F
330
1F
100
AcDbEntity
  8
0
  6
Continuous
 62
     7
370
    15
100
AcDbSpline
210
0.0
220
0.0
230
1.0
 70
     8
 71
     3
 72
    15
 73
    11
 74
     0
 42
0.000000001
 43
0.00000001
 40
0.0
 40
0.0
 40
0.0
 40
0.0
 40
0.1600594124855002
 40
0.3061123827401341
 40
0.4383665141302096
 40
0.5605414552552104
 40
0.6753172249527074
 40
0.7861136344281853
 40
0.8928417881050973
 40
1.0
 40
1.0
 40
1.0
 40
1.0
 10
132.332532051282
 20
11.97865084134615
 30
0.0
 10
132.3535675681493
 20
12.01045148561321
 30
0.0
 10
132.393797830715
 20
12.07126997068757
 30
0.0
 10
132.4606659880573
 20
12.15170569373017
 30
0.0
 10
132.5291582957171
 20
12.21830362887052
 30
0.0
 10
132.5996026441986
 20
12.27137467804036
 30
0.0
 10
132.6725170634029
 20
12.31111943583055
 30
0.0
 10
132.7463012981756
 20
12.34023240332345
 30
0.0
 10
132.8221161886891
 20
12.35744753928874
 30
0.0
 10
132.8730630770959
 20
12.35974592991428
 30
0.0
 10
132.8985877403846
 20
12.36089743589743
 30
0.0
  0
SPLINE
  5
150
330
1F
100
AcDbEntity
  8
0
  6
Continuous
 62
     7
370
    15
100
AcDbSpline
210
0.0
220
0.0
230
1.0
 70
     8
 71
     3
 72
    11
 73
     7
 74
     0
 42
0.000000001
 43
0.00000001
 40
0.0
 40
0.0
 40
0.0
 40
0.0
 40
0.2252775478670202
 40
0.4635231951764792
 40
0.720323555326978
 40
1.0
 40
1.0
 40
1.0
 40
1.0
 10
132.8985877403846
 20
12.36089743589743
 30
0.0
 10
132.9183873365547
 20
12.35981745820061
 30
0.0
 10
132.9591262924198
 20
12.35759533390333
 30
0.0
 10
133.0207962131708
 20
12.34198265726392
 30
0.0
 10
133.0843356302603
 20
12.31705616537658
 30
0.0
 10
133.1252862244089
 20
12.29361539195904
 30
0.0
 10
133.1466346153846
 20
12.28139523237179
 30
0.0
  0
LINE
  5
151
330
1F
100
AcDbEntity
  8
0
  6
Continuous
 62
     7
370
    15
100
AcDbLine
 10
133.1466346154
 20
12.2813952324
 30
0.0
 11
132.9901742788
 21
12.0346203926
 31
0.0
  0
SPLINE
  5
152
330
1F
100
AcDbEntity
  8
0
  6
Continuous
 62
     7
370
    15
100
AcDbSpline
210
0.0
220
0.0
230
1.0
 70
     8
 71
     3
 72
    11
 73
     7
 74
     0
 42
0.000000001
 43
0.00000001
 40
0.0
 40
0.0
 40
0.0
 40
0.0
 40
0.2951388013693114
 40
0.5602299448881765
 40
0.7949833567409159
 40
1.0
 40
1.0
 40
1.0
 40
1.0
 10
132.9901742788461
 20
12.0346203926282
 30
0.0
 10
132.9764682382371
 20
12.04073477688979
 30
0.0
 10
132.9504515493455
 20
12.0523410487253
 30
0.0
 10
132.9123927642302
 20
12.06607701505936
 30
0.0
 10
132.8773032659102
 20
12.07416502443588
 30
0.0
 10
132.8549480379667
 20
12.07539031812457
 30
0.0
 10
132.8445262419872
 20
12.07596153846153
 30
0.0
  0
SPLINE
  5
153
330
1F
100
AcDbEntity
  8
0
  6
Continuous
 62
     7
370
    15
100
AcDbSpline
210
0.0
220
0.0
230
1.0
 70
     8
 71
     3
 72
    19
 73
    15
 74
     0
 42
0.000000001
 43
0.00000001
 40
0.0
 40
0.0
 40
0.0
 40
0.0
 40
0.0938065293523266
 40
0.1913381281363311
 40
0.2951906166251687
 40
0.4103123367233028
 40
0.471930251051278
 40
0.5364251593464352
 40
0.603118728303641
 40
0.6741176724905992
 40
0.7493320232258868
 40
0.8282833841715634
 40
0.9120398092627652
 40
1.0
 40
1.0
 40
1.0
 40
1.0
 10
132.8445262419872
 20
12.07596153846153
 30
0.0
 10
132.8216610408736
 20
12.0744375045629
 30
0.0
 10
132.7750226585485
 20
12.07132891718212
 30
0.0
 10
132.7065474340839
 20
12.04689157013635
 30
0.0
 10
132.6401017548077
 20
12.00740795946228
 30
0.0
 10
132.5873317468314
 20
11.96361916514042
 30
0.0
 10
132.5464719888664
 20
11.92139366315486
 30
0.0
 10
132.5173162128493
 20
11.88451975511196
 30
0.0
 10
132.4905711495412
 20
11.84317342508259
 30
0.0
 10
132.4650167353208
 20
11.79806149763242
 30
0.0
 10
132.4417337398596
 20
11.74841370873173
 30
0.0
 10
132.4200034327963
 20
11.6947260794133
 30
0.0
 10
132.4003557500023
 20
11.63693642688643
 30
0.0
 10
132.3891523141704
 20
11.59667514068661
 30
0.0
 10
132.3834134615385
 20
11.5760516826923
 30
0.0
  0
SPLINE
  5
154
330
1F
100
AcDbEntity
  8
0
  6
Continuous
 62
     7
370
    15
100
AcDbSpline
210
0.0
220
0.0
230
1.0
 70
     8
 71
     3
 72
    15
 73
    11
 74
     0
 42
0.000000001
 43
0.00000001
 40
0.0
 40
0.0
 40
0.0
 40
0.0
 40
0.0708548685015339
 40
0.1569381495573536
 40
0.2586003949600846
 40
0.3758909295892028
 40
0.5081661676989037
 40
0.6562378085782232
 40
0.8201767703979104
 40
1.0
 40
1.0
 40
1.0
 40
1.0
 10
132.3834134615385
 20
11.5760516826923
 30
0.0
 10
132.3791205047001
 20
11.55765738951723
 30
0.0
 10
132.3696119315197
 20
11.51691542789396
 30
0.0
 10
132.3603667507615
 20
11.44856355189634
 30
0.0
 10
132.3512322594543
 20
11.36780637573187
 30
0.0
 10
132.3447946128075
 20
11.27441910933035
 30
0.0
 10
132.3388273888777
 20
11.16863496376695
 30
0.0
 10
132.3354618142861
 20
11.05029278452268
 30
0.0
 10
132.3326468224952
 20
10.91927110170096
 30
0.0
 10
132.3325714689767
 20
10.82767293841173
 30
0.0
 10
132.332532051282
 20
10.77975761217948
 30
0.0
  0
LINE
  5
155
330
1F
100
AcDbEntity
  8
0
  6
Continuous
 62
     7
370
    15
100
AcDbLine
 10
132.3325320513
 20
10.7797576122
 30
0.0
 11
132.3325320513
 21
10.0
 31
0.0
  0
LINE
  5
156
330
1F
100
AcDbEntity
  8
0
  6
Continuous
 62
     7
370
    15
100
AcDbLine
 10
135.4159455128
 20
10.0
 30
0.0
 11
135.3752403846
 21
10.0
 31
0.0
  0
LINE
  5
157
330
1F
100
AcDbEntity
  8
0
  6
Continuous
 62
     7
370
    15
100
AcDbLine
 10
135.3752403846
 20
10.0
 30
0.0
 11
134.5306089744
 21
13.175
 31
0.0
  0
LINE
  5
158
330
1F
100
AcDbEntity
  8
0
  6
Continuous
 62
     7
370
    15
100
AcDbLine
 10
134.5306089744
 20
13.175
 30
0.0
 11
134.8250851362
 21
13.175
 31
0.0
  0
LINE
  5
159
330
1F
100
AcDbEntity
  8
0
  6
Continuous
 62
     7
370
    15
100
AcDbLine
 10
134.8250851362
 20
13.175
 30
0.0
 11
135.446474359
 21
10.8465394631
 31
0.0
  0
LINE
  5
15A
330
1F
100
AcDbEntity
  8
0
  6
Continuous
 62
     7
370
    15
100
AcDbLine
 10
135.446474359
 20
10.8465394631
 30
0.0
 11
136.3706079728
 21
13.175
 31
0.0
  0
LINE
  5
15B
330
1F
100
AcDbEntity
  8
0
  6
Continuous
 62
     7
370
    15
100
AcDbLine
 10
136.3706079728
 20
13.175
 30
0.0
 11
136.4119491186
 21
13.175
 31
0.0
  0
LINE
  5
15C
330
1F
100
AcDbEntity
  8
0
  6
Continuous
 62
     7
370
    15
100
AcDbLine
 10
136.4119491186
 20
13.175
 30
0.0
 11
137.3189102564
 21
10.8624399038
 31
0.0
  0
LINE
  5
15D
330
1F
100
AcDbEntity
  8
0
  6
Continuous
 62
     7
370
    15
100
AcDbLine
 10
137.3189102564
 20
10.8624399038
 30
0.0
 11
137.9434795673
 21
13.175
 31
0.0
  0
LINE
  5
15E
330
1F
100
AcDbEntity
  8
0
  6
Continuous
 62
     7
370
    15
100
AcDbLine
 10
137.9434795673
 20
13.175
 30
0.0
 11
138.234775641
 21
13.175
 31
0.0
  0
LINE
  5
15F
330
1F
100
AcDbEntity
  8
0
  6
Continuous
 62
     7
370
    15
100
AcDbLine
 10
138.234775641
 20
13.175
 30
0.0
 11
137.3786959135
 21
10.0
 31
0.0
  0
LINE
  5
160
330
1F
100
AcDbEntity
  8
0
  6
Continuous
 62
     7
370
    15
100
AcDbLine
 10
137.3786959135
 20
10.0
 30
0.0
 11
137.3379907853
 21
10.0
 31
0.0
  0
LINE
  5
161
330
1F
100
AcDbEntity
  8
0
  6
Continuous
 62
     7
370
    15
100
AcDbLine
 10
137.3379907853
 20
10.0
 30
0.0
 11
136.3826923077
 21
12.4283153045
 31
0.0
  0
LINE
  5
162
330
1F
100
AcDbEntity
  8
0
  6
Continuous
 62
     7
370
    15
100
AcDbLine
 10
136.3826923077
 20
12.4283153045
 30
0.0
 11
135.4159455128
 21
10.0
 31
0.0
  0
LINE
  5
163
330
1F
100
AcDbEntity
  8
0
  6
Continuous
 62
     7
370
    15
100
AcDbLine
 10
144.584775641
 20
10.0
 30
0.0
 11
146.0908653846
 21
13.175
 31
0.0
  0
LINE
  5
164
330
1F
100
AcDbEntity
  8
0
  6
Continuous
 62
     7
370
    15
100
AcDbLine
 10
146.0908653846
 20
13.175
 30
0.0
 11
146.1315705128
 21
13.175
 31
0.0
  0
LINE
  5
165
330
1F
100
AcDbEntity
  8
0
  6
Continuous
 62
     7
370
    15
100
AcDbLine
 10
146.1315705128
 20
13.175
 30
0.0
 11
147.5969551282
 21
10.0
 31
0.0
  0
LINE
  5
166
330
1F
100
AcDbEntity
  8
0
  6
Continuous
 62
     7
370
    15
100
AcDbLine
 10
147.5969551282
 20
10.0
 30
0.0
 11
147.2872145433
 21
10.0
 31
0.0
  0
LINE
  5
167
330
1F
100
AcDbEntity
  8
0
  6
Continuous
 62
     7
370
    15
100
AcDbLine
 10
147.2872145433
 20
10.0
 30
0.0
 11
146.8178335337
 21
11.0176282051
 31
0.0
  0
LINE
  5
168
330
1F
100
AcDbEntity
  8
0
  6
Continuous
 62
     7
370
    15
100
AcDbLine
 10
146.8178335337
 20
11.0176282051
 30
0.0
 11
145.378525641
 21
11.0176282051
 31
0.0
  0
LINE
  5
169
330
1F
100
AcDbEntity
  8
0
  6
Continuous
 62
     7
370
    15
100
AcDbLine
 10
145.378525641
 20
11.0176282051
 30
0.0
 11
144.8957882612
 21
10.0
 31
0.0
  0
LINE
  5
16A
330
1F
100
AcDbEntity
  8
0
  6
Continuous
 62
     7
370
    15
100
AcDbLine
 10
144.8957882612
 20
10.0
 30
0.0
 11
144.584775641
 21
10.0
 31
0.0
  0
MTEXT
  5
16C
330
1F
100
AcDbEntity
  8
0
  6
Continuous
 62
     7
100
AcDbMText
 10
-6.8
 20
-4.4195663917
 30
0.0
 40
4.83362
 41
0.0
 71
     1
 72
     1
  1
SOLIDWORKS Educational Product.
  7
SLDTEXTSTYLE0
 73
     1
 44
1.0
  0
MTEXT
  5
16D
330
1F
100
AcDbEntity
  8
0
  6
Continuous
 62
     7
100
AcDbMText
 10
-6.8
 20
-11.6699963917
 30
0.0
 40
4.83362
 41
0.0
 71
     1
 72
     1
  1
For Instructional Use Only.
  7
SLDTEXTSTYLE0
 73
     1
 44
1.0
  0
ENDSEC
  0
SECTION
  2
OBJECTS
  0
DICTIONARY
  5
C
330
0
100
AcDbDictionary
281
     1
  3
ACAD_GROUP
350
D
  3
ACAD_LAYOUT
350
1A
  3
ACAD_MLINESTYLE
350
17
  3
ACAD_PLOTSETTINGS
350
19
  3
ACAD_PLOTSTYLENAME
350
E
  3
ACAD_SCALELIST
350
47
  0
DICTIONARY
  5
D
102
{ACAD_REACTORS
330
C
102
}
330
C
100
AcDbDictionary
281
     1
  0
DICTIONARY
  5
1A
102
{ACAD_REACTORS
330
C
102
}
330
C
100
AcDbDictionary
281
     1
  3
Layout1
350
1E
  3
Layout2
350
26
  3
Model
350
22
  0
DICTIONARY
  5
17
102
{ACAD_REACTORS
330
C
102
}
330
C
100
AcDbDictionary
281
     1
  3
Standard
350
18
  0
DICTIONARY
  5
19
102
{ACAD_REACTORS
330
C
102
}
330
C
100
AcDbDictionary
281
     1
  0
ACDBDICTIONARYWDFLT
  5
E
102
{ACAD_REACTORS
330
C
102
}
330
C
100
AcDbDictionary
281
     1
  3
Normal
350
F
100
AcDbDictionaryWithDefault
340
F
  0
DICTIONARY
  5
47
102
{ACAD_REACTORS
330
C
102
}
330
C
100
AcDbDictionary
281
     1
  3
A0
350
48
  3
A1
350
49
  3
A2
350
4A
  3
A3
350
4B
  3
A4
350
4C
  3
A5
350
4D
  3
A6
350
4E
  3
A7
350
4F
  3
A8
350
50
  3
A9
350
51
  3
B0
350
52
  3
B1
350
53
  3
B2
350
54
  3
B3
350
55
  3
B4
350
56
  3
B5
350
57
  3
B6
350
58
  3
B7
350
59
  3
B8
350
5A
  3
B9
350
5B
  3
C0
350
5C
  3
C1
350
5D
  3
C2
350
5E
  3
C3
350
5F
  3
C4
350
60
  3
C5
350
61
  3
C6
350
62
  3
C7
350
63
  3
C8
350
64
  3
C9
350
65
  3
D0
350
66
  3
D1
350
67
  3
D2
350
68
  0
LAYOUT
  5
1E
102
{ACAD_REACTORS
330
1A
102
}
330
1A
100
AcDbPlotSettings
  1

  2
none_device
  4

  6

 40
0.0
 41
0.0
 42
0.0
 43
0.0
 44
0.0
 45
0.0
 46
0.0
 47
0.0
 48
0.0
 49
0.0
140
0.0
141
0.0
142
1.0
143
1.0
 70
   688
 72
     1
 73
     0
 74
     5
  7

 75
    16
147
1.0
148
0.0
149
0.0
100
AcDbLayout
  1
Layout1
 70
     1
 71
     1
 10
0.0
 20
0.0
 11
420.0
 21
297.0
 12
0.0
 22
0.0
 32
0.0
 14
1.0000000000E+20
 24
1.0000000000E+20
 34
1.0000000000E+20
 15
-1.0000000000E+20
 25
-1.0000000000E+20
 35
-1.0000000000E+20
146
0.0
 13
0.0
 23
0.0
 33
0.0
 16
1.0
 26
0.0
 36
0.0
 17
0.0
 27
1.0
 37
0.0
 76
     0
330
1B
  0
LAYOUT
  5
26
102
{ACAD_REACTORS
330
1A
102
}
330
1A
100
AcDbPlotSettings
  1

  2
none_device
  4

  6

 40
0.0
 41
0.0
 42
0.0
 43
0.0
 44
0.0
 45
0.0
 46
0.0
 47
0.0
 48
0.0
 49
0.0
140
0.0
141
0.0
142
1.0
143
1.0
 70
   688
 72
     1
 73
     0
 74
     5
  7

 75
    16
147
1.0
148
0.0
149
0.0
100
AcDbLayout
  1
Layout2
 70
     1
 71
     2
 10
0.0
 20
0.0
 11
0.0
 21
0.0
 12
0.0
 22
0.0
 32
0.0
 14
0.0
 24
0.0
 34
0.0
 15
0.0
 25
0.0
 35
0.0
146
0.0
 13
0.0
 23
0.0
 33
0.0
 16
1.0
 26
0.0
 36
0.0
 17
0.0
 27
1.0
 37
0.0
 76
     0
330
23
  0
LAYOUT
  5
22
102
{ACAD_REACTORS
330
1A
102
}
330
1A
100
AcDbPlotSettings
  1

  2
none_device
  4
ANSI_A_(11.00_x_8.50_Inches)
  6

 40
6.35
 41
19.05
 42
6.35000508
 43
19.05000254
 44
279.4
 45
215.9
 46
2.6682324681
 47
59.9841364934
 48
0.0
 49
0.0
140
0.0
141
0.0
142
0.0441247974
143
1.0
 70
  1696
 72
     0
 73
     0
 74
     0
  7

 75
     0
147
0.0179189148
148
-1300.4909072572
149
0.0
100
AcDbLayout
  1
Model
 70
     1
 71
     0
 10
0.0
 20
0.0
 11
420.0
 21
297.0
 12
0.0
 22
0.0
 32
0.0
 14
-6.8
 24
-3.4
 34
0.0
 15
240.0
 25
55.0
 35
0.0
146
0.0
 13
0.0
 23
0.0
 33
0.0
 16
1.0
 26
0.0
 36
0.0
 17
0.0
 27
1.0
 37
0.0
 76
     0
330
1F
331
29
  0
MLINESTYLE
  5
18
102
{ACAD_REACTORS
330
17
102
}
330
17
100
AcDbMlineStyle
  2
Standard
 70
     0
  3

 62
   256
 51
90.0
 52
90.0
 71
     2
 49
0.5
 62
   256
  6
BYLAYER
 49
-0.5
 62
   256
  6
BYLAYER
  0
ACDBPLACEHOLDER
  5
F
102
{ACAD_REACTORS
330
E
102
}
330
E
  0
SCALE
  5
48
102
{ACAD_REACTORS
330
47
102
}
330
47
100
AcDbScale
 70
     0
300
1:1
140
1.0
141
1.0
290
     1
  0
SCALE
  5
49
102
{ACAD_REACTORS
330
47
102
}
330
47
100
AcDbScale
 70
     0
300
1:2
140
1.0
141
2.0
290
     0
  0
SCALE
  5
4A
102
{ACAD_REACTORS
330
47
102
}
330
47
100
AcDbScale
 70
     0
300
1:4
140
1.0
141
4.0
290
     0
  0
SCALE
  5
4B
102
{ACAD_REACTORS
330
47
102
}
330
47
100
AcDbScale
 70
     0
300
1:5
140
1.0
141
5.0
290
     0
  0
SCALE
  5
4C
102
{ACAD_REACTORS
330
47
102
}
330
47
100
AcDbScale
 70
     0
300
1:8
140
1.0
141
8.0
290
     0
  0
SCALE
  5
4D
102
{ACAD_REACTORS
330
47
102
}
330
47
100
AcDbScale
 70
     0
300
1:10
140
1.0
141
10.0
290
     0
  0
SCALE
  5
4E
102
{ACAD_REACTORS
330
47
102
}
330
47
100
AcDbScale
 70
     0
300
1:16
140
1.0
141
16.0
290
     0
  0
SCALE
  5
4F
102
{ACAD_REACTORS
330
47
102
}
330
47
100
AcDbScale
 70
     0
300
1:20
140
1.0
141
20.0
290
     0
  0
SCALE
  5
50
102
{ACAD_REACTORS
330
47
102
}
330
47
100
AcDbScale
 70
     0
300
1:30
140
1.0
141
30.0
290
     0
  0
SCALE
  5
51
102
{ACAD_REACTORS
330
47
102
}
330
47
100
AcDbScale
 70
     0
300
1:40
140
1.0
141
40.0
290
     0
  0
SCALE
  5
52
102
{ACAD_REACTORS
330
47
102
}
330
47
100
AcDbScale
 70
     0
300
1:50
140
1.0
141
50.0
290
     0
  0
SCALE
  5
53
102
{ACAD_REACTORS
330
47
102
}
330
47
100
AcDbScale
 70
     0
300
1:100
140
1.0
141
100.0
290
     0
  0
SCALE
  5
54
102
{ACAD_REACTORS
330
47
102
}
330
47
100
AcDbScale
 70
     0
300
2:1
140
2.0
141
1.0
290
     0
  0
SCALE
  5
55
102
{ACAD_REACTORS
330
47
102
}
330
47
100
AcDbScale
 70
     0
300
4:1
140
4.0
141
1.0
290
     0
  0
SCALE
  5
56
102
{ACAD_REACTORS
330
47
102
}
330
47
100
AcDbScale
 70
     0
300
8:1
140
8.0
141
1.0
290
     0
  0
SCALE
  5
57
102
{ACAD_REACTORS
330
47
102
}
330
47
100
AcDbScale
 70
     0
300
10:1
140
10.0
141
1.0
290
     0
  0
SCALE
  5
58
102
{ACAD_REACTORS
330
47
102
}
330
47
100
AcDbScale
 70
     0
300
100:1
140
100.0
141
1.0
290
     0
  0
SCALE
  5
59
102
{ACAD_REACTORS
330
47
102
}
330
47
100
AcDbScale
 70
     0
300
1/128" = 1'-0"
140
0.0078125
141
12.0
290
     0
  0
SCALE
  5
5A
102
{ACAD_REACTORS
330
47
102
}
330
47
100
AcDbScale
 70
     0
300
1/64" = 1'-0"
140
0.015625
141
12.0
290
     0
  0
SCALE
  5
5B
102
{ACAD_REACTORS
330
47
102
}
330
47
100
AcDbScale
 70
     0
300
1/32" = 1'-0"
140
0.03125
141
12.0
290
     0
  0
SCALE
  5
5C
102
{ACAD_REACTORS
330
47
102
}
330
47
100
AcDbScale
 70
     0
300
1/16" = 1'-0"
140
0.0625
141
12.0
290
     0
  0
SCALE
  5
5D
102
{ACAD_REACTORS
330
47
102
}
330
47
100
AcDbScale
 70
     0
300
3/32" = 1'-0"
140
0.09375
141
12.0
290
     0
  0
SCALE
  5
5E
102
{ACAD_REACTORS
330
47
102
}
330
47
100
AcDbScale
 70
     0
300
1/8" = 1'-0"
140
0.125
141
12.0
290
     0
  0
SCALE
  5
5F
102
{ACAD_REACTORS
330
47
102
}
330
47
100
AcDbScale
 70
     0
300
3/16" = 1'-0"
140
0.1875
141
12.0
290
     0
  0
SCALE
  5
60
102
{ACAD_REACTORS
330
47
102
}
330
47
100
AcDbScale
 70
     0
300
1/4" = 1'-0"
140
0.25
141
12.0
290
     0
  0
SCALE
  5
61
102
{ACAD_REACTORS
330
47
102
}
330
47
100
AcDbScale
 70
     0
300
3/8" = 1'-0"
140
0.375
141
12.0
290
     0
  0
SCALE
  5
62
102
{ACAD_REACTORS
330
47
102
}
330
47
100
AcDbScale
 70
     0
300
1/2" = 1'-0"
140
0.5
141
12.0
290
     0
  0
SCALE
  5
63
102
{ACAD_REACTORS
330
47
102
}
330
47
100
AcDbScale
 70
     0
300
3/4" = 1'-0"
140
0.75
141
12.0
290
     0
  0
SCALE
  5
64
102
{ACAD_REACTORS
330
47
102
}
330
47
100
AcDbScale
 70
     0
300
1" = 1'-0"
140
1.0
141
12.0
290
     0
  0
SCALE
  5
65
102
{ACAD_REACTORS
330
47
102
}
330
47
100
AcDbScale
 70
     0
300
1-1/2" = 1'-0"
140
1.5
141
12.0
290
     0
  0
SCALE
  5
66
102
{ACAD_REACTORS
330
47
102
}
330
47
100
AcDbScale
 70
     0
300
3" = 1'-0"
140
3.0
141
12.0
290
     0
  0
SCALE
  5
67
102
{ACAD_REACTORS
330
47
102
}
330
47
100
AcDbScale
 70
     0
300
6" = 1'-0"
140
6.0
141
12.0
290
     0
  0
SCALE
  5
68
102
{ACAD_REACTORS
330
47
102
}
330
47
100
AcDbScale
 70
     0
300
1'-0" = 1'-0"
140
12.0
141
12.0
290
     0
  0
ENDSEC
  0
EOF
