  0
SECTION
  2
HEADER
  9
$ACADVER
  1
AC1015
  9
$ACADMAINTVER
 70
     6
  9
$DWGCODEPAGE
  3
ANSI_1252
  9
$INSBASE
 10
0.0
 20
0.0
 30
0.0
  9
$EXTMIN
 10
0.0
 20
0.0
 30
0.0
  9
$EXTMAX
 10
338.8
 20
130.0
 30
0.0
  9
$LIMMIN
 10
0.0
 20
0.0
  9
$LIMMAX
 10
420.0
 20
297.0
  9
$ORTHOMODE
 70
     0
  9
$REGENMODE
 70
     1
  9
$FILLMODE
 70
     1
  9
$QTEXTMODE
 70
     0
  9
$MIRRTEXT
 70
     1
  9
$LTSCALE
 40
1.0
  9
$ATTMODE
 70
     1
  9
$TEXTSIZE
 40
6.35
  9
$TRACEWID
 40
1.0
  9
$TEXTSTYLE
  7
Standard
  9
$CLAYER
  8
0
  9
$CELTYPE
  6
ByLayer
  9
$CECOLOR
 62
   256
  9
$CELTSCALE
 40
1.0
  9
$DISPSILH
 70
     0
  9
$DIMSCALE
 40
1.0
  9
$DIMASZ
 40
5.9944
  9
$DIMEXO
 40
0.9906
  9
$DIMDLI
 40
3.75
  9
$DIMRND
 40
0.0
  9
$DIMDLE
 40
0.0
  9
$DIMEXE
 40
0.9906
  9
$DIMTP
 40
0.0
  9
$DIMTM
 40
0.0
  9
$DIMTXT
 40
6.35
  9
$DIMCEN
 40
2.5
  9
$DIMTSZ
 40
0.0
  9
$DIMTOL
 70
     0
  9
$DIMLIM
 70
     0
  9
$DIMTIH
 70
     1
  9
$DIMTOH
 70
     1
  9
$DIMSE1
 70
     0
  9
$DIMSE2
 70
     0
  9
$DIMTAD
 70
     1
  9
$DIMZIN
 70
     0
  9
$DIMBLK
  1

  9
$DIMASO
 70
     1
  9
$DIMSHO
 70
     1
  9
$DIMPOST
  1

  9
$DIMAPOST
  1

  9
$DIMALT
 70
     0
  9
$DIMALTD
 70
     3
  9
$DIMALTF
 40
0.0393700787
  9
$DIMLFAC
 40
1.0
  9
$DIMTOFL
 70
     1
  9
$DIMTVP
 40
0.0
  9
$DIMTIX
 70
     0
  9
$DIMSOXD
 70
     0
  9
$DIMSAH
 70
     0
  9
$DIMBLK1
  1

  9
$DIMBLK2
  1

  9
$DIMSTYLE
  2
ISO-25
  9
$DIMCLRD
 70
     0
  9
$DIMCLRE
 70
     0
  9
$DIMCLRT
 70
     0
  9
$DIMTFAC
 40
1.0
  9
$DIMGAP
 40
1.524
  9
$DIMJUST
 70
     0
  9
$DIMSD1
 70
     0
  9
$DIMSD2
 70
     0
  9
$DIMTOLJ
 70
     0
  9
$DIMTZIN
 70
     0
  9
$DIMALTZ
 70
     0
  9
$DIMALTTZ
 70
     0
  9
$DIMUPT
 70
     0
  9
$DIMDEC
 70
     2
  9
$DIMTDEC
 70
     2
  9
$DIMALTU
 70
     2
  9
$DIMALTTD
 70
     3
  9
$DIMTXSTY
  7
Standard
  9
$DIMAUNIT
 70
     0
  9
$DIMADEC
 70
     2
  9
$DIMALTRND
 40
0.0
  9
$DIMAZIN
 70
     0
  9
$DIMDSEP
 70
    44
  9
$DIMATFIT
 70
     3
  9
$DIMFRAC
 70
     0
  9
$DIMLDRBLK
  1

  9
$DIMLUNIT
 70
     2
  9
$DIMLWD
 70
    -2
  9
$DIMLWE
 70
    -2
  9
$DIMTMOVE
 70
     0
  9
$LUNITS
 70
     2
  9
$LUPREC
 70
     2
  9
$SKETCHINC
 40
1.0
  9
$FILLETRAD
 40
10.0
  9
$AUNITS
 70
     0
  9
$AUPREC
 70
     2
  9
$MENU
  1
.
  9
$ELEVATION
 40
0.0
  9
$PELEVATION
 40
0.0
  9
$THICKNESS
 40
0.0
  9
$LIMCHECK
 70
     0
  9
$CHAMFERA
 40
0.0
  9
$CHAMFERB
 40
0.0
  9
$CHAMFERC
 40
0.0
  9
$CHAMFERD
 40
0.0
  9
$SKPOLY
 70
     0
  9
$TDCREATE
 40
2457988.447439583
  9
$TDUCREATE
 40
2457988.405772917
  9
$TDUPDATE
 40
2457988.44747632
  9
$TDUUPDATE
 40
2457988.405809653
  9
$TDINDWG
 40
0.0000000116
  9
$TDUSRTIMER
 40
0.0000000116
  9
$USRTIMER
 70
     1
  9
$ANGBASE
 50
0.0
  9
$ANGDIR
 70
     0
  9
$PDMODE
 70
     0
  9
$PDSIZE
 40
-1.0
  9
$PLINEWID
 40
0.0
  9
$SPLFRAME
 70
     0
  9
$SPLINETYPE
 70
     6
  9
$SPLINESEGS
 70
     8
  9
$HANDSEED
  5
122
  9
$SURFTAB1
 70
     6
  9
$SURFTAB2
 70
     6
  9
$SURFTYPE
 70
     6
  9
$SURFU
 70
     6
  9
$SURFV
 70
     6
  9
$UCSBASE
  2

  9
$UCSNAME
  2

  9
$UCSORG
 10
0.0
 20
0.0
 30
0.0
  9
$UCSXDIR
 10
1.0
 20
0.0
 30
0.0
  9
$UCSYDIR
 10
0.0
 20
1.0
 30
0.0
  9
$UCSORTHOREF
  2

  9
$UCSORTHOVIEW
 70
     0
  9
$UCSORGTOP
 10
0.0
 20
0.0
 30
0.0
  9
$UCSORGBOTTOM
 10
0.0
 20
0.0
 30
0.0
  9
$UCSORGLEFT
 10
0.0
 20
0.0
 30
0.0
  9
$UCSORGRIGHT
 10
0.0
 20
0.0
 30
0.0
  9
$UCSORGFRONT
 10
0.0
 20
0.0
 30
0.0
  9
$UCSORGBACK
 10
0.0
 20
0.0
 30
0.0
  9
$PUCSBASE
  2

  9
$PUCSNAME
  2

  9
$PUCSORG
 10
0.0
 20
0.0
 30
0.0
  9
$PUCSXDIR
 10
1.0
 20
0.0
 30
0.0
  9
$PUCSYDIR
 10
0.0
 20
1.0
 30
0.0
  9
$PUCSORTHOREF
  2

  9
$PUCSORTHOVIEW
 70
     0
  9
$PUCSORGTOP
 10
0.0
 20
0.0
 30
0.0
  9
$PUCSORGBOTTOM
 10
0.0
 20
0.0
 30
0.0
  9
$PUCSORGLEFT
 10
0.0
 20
0.0
 30
0.0
  9
$PUCSORGRIGHT
 10
0.0
 20
0.0
 30
0.0
  9
$PUCSORGFRONT
 10
0.0
 20
0.0
 30
0.0
  9
$PUCSORGBACK
 10
0.0
 20
0.0
 30
0.0
  9
$USERI1
 70
     0
  9
$USERI2
 70
     0
  9
$USERI3
 70
     0
  9
$USERI4
 70
     0
  9
$USERI5
 70
     0
  9
$USERR1
 40
0.0
  9
$USERR2
 40
0.0
  9
$USERR3
 40
0.0
  9
$USERR4
 40
0.0
  9
$USERR5
 40
0.0
  9
$WORLDVIEW
 70
     1
  9
$SHADEDGE
 70
     3
  9
$SHADEDIF
 70
    70
  9
$TILEMODE
 70
     1
  9
$MAXACTVP
 70
    64
  9
$PINSBASE
 10
0.0
 20
0.0
 30
0.0
  9
$PLIMCHECK
 70
     0
  9
$PEXTMIN
 10
1.0000000000E+20
 20
1.0000000000E+20
 30
1.0000000000E+20
  9
$PEXTMAX
 10
-1.0000000000E+20
 20
-1.0000000000E+20
 30
-1.0000000000E+20
  9
$PLIMMIN
 10
0.0
 20
0.0
  9
$PLIMMAX
 10
420.0
 20
297.0
  9
$UNITMODE
 70
     0
  9
$VISRETAIN
 70
     1
  9
$PLINEGEN
 70
     0
  9
$PSLTSCALE
 70
     1
  9
$TREEDEPTH
 70
  3020
  9
$CMLSTYLE
  2
Standard
  9
$CMLJUST
 70
     0
  9
$CMLSCALE
 40
20.0
  9
$PROXYGRAPHICS
 70
     1
  9
$MEASUREMENT
 70
     1
  9
$CELWEIGHT
370
    -1
  9
$ENDCAPS
280
     0
  9
$JOINSTYLE
280
     0
  9
$LWDISPLAY
290
     1
  9
$INSUNITS
 70
     4
  9
$HYPERLINKBASE
  1

  9
$STYLESHEET
  1

  9
$XEDIT
290
     1
  9
$CEPSNTYPE
380
     0
  9
$PSTYLEMODE
290
     1
  9
$FINGERPRINTGUID
  2
{AB084D6C-3C1A-4252-950C-5761FCD3F2AE}
  9
$VERSIONGUID
  2
{FAEB1C32-E019-11D5-929B-00C0DF256EC4}
  9
$EXTNAMES
290
     1
  9
$PSVPSCALE
 40
0.0
  9
$OLESTARTUP
290
     0
  0
ENDSEC
  0
SECTION
  2
CLASSES
  0
CLASS
  1
ACDBDICTIONARYWDFLT
  2
AcDbDictionaryWithDefault
  3
ObjectDBX Classes
 90
        0
280
     0
281
     0
  0
CLASS
  1
VISUALSTYLE
  2
AcDbVisualStyle
  3
ObjectDBX Classes
 90
     4095
280
     0
281
     0
  0
CLASS
  1
MATERIAL
  2
AcDbMaterial
  3
ObjectDBX Classes
 90
     1153
280
     0
281
     0
  0
CLASS
  1
SCALE
  2
AcDbScale
  3
ObjectDBX Classes
 90
     1153
280
     0
281
     0
  0
CLASS
  1
TABLESTYLE
  2
AcDbTableStyle
  3
ObjectDBX Classes
 90
     4095
280
     0
281
     0
  0
CLASS
  1
MLEADERSTYLE
  2
AcDbMLeaderStyle
  3
ACDB_MLEADERSTYLE_CLASS
 90
     4095
280
     0
281
     0
  0
CLASS
  1
SUN
  2
AcDbSun
  3
SCENEOE
 90
     1153
280
     0
281
     0
  0
CLASS
  1
ACDBPLACEHOLDER
  2
AcDbPlaceHolder
  3
ObjectDBX Classes
 90
        0
280
     0
281
     0
  0
CLASS
  1
LAYOUT
  2
AcDbLayout
  3
ObjectDBX Classes
 90
        0
280
     0
281
     0
  0
ENDSEC
  0
SECTION
  2
TABLES
  0
TABLE
  2
VPORT
  5
8
330
0
100
AcDbSymbolTable
 70
     1
  0
VPORT
  5
29
330
8
100
AcDbSymbolTableRecord
100
AcDbViewportTableRecord
  2
*Active
 70
     0
 10
0.0
 20
0.0
 11
1.0
 21
1.0
 12
169.4
 22
65.0
 13
0.0
 23
0.0
 14
10.0
 24
10.0
 15
10.0
 25
10.0
 16
0.0
 26
0.0
 36
1.0
 17
0.0
 27
0.0
 37
0.0
 40
132.6
 41
2.6061538462
 42
50.0
 43
0.0
 44
0.0
 50
0.0
 51
0.0
 71
     0
 72
   100
 73
     1
 74
     3
 75
     0
 76
     0
 77
     0
 78
     0
281
     0
 65
     1
110
0.0
120
0.0
130
0.0
111
1.0
121
0.0
131
0.0
112
0.0
122
1.0
132
0.0
 79
     0
146
0.0
  0
ENDTAB
  0
TABLE
  2
LTYPE
  5
5
330
0
100
AcDbSymbolTable
 70
     6
  0
LTYPE
  5
14
330
5
100
AcDbSymbolTableRecord
100
AcDbLinetypeTableRecord
  2
ByBlock
 70
     0
  3

 72
    65
 73
     0
 40
0.0
  0
LTYPE
  5
15
330
5
100
AcDbSymbolTableRecord
100
AcDbLinetypeTableRecord
  2
ByLayer
 70
     0
  3

 72
    65
 73
     0
 40
0.0
  0
LTYPE
  5
16
330
5
100
AcDbSymbolTableRecord
100
AcDbLinetypeTableRecord
  2
Continuous
 70
     0
  3
Solid line
 72
    65
 73
     0
 40
0.0
  0
LTYPE
  5
6E
330
5
100
AcDbSymbolTableRecord
100
AcDbLinetypeTableRecord
  2
HIDDEN
 70
     0
  3
Hidden __ __ __ __ __ __ __ __ __ __ __ __ __ __
 72
    65
 73
     2
 40
1.905
 49
1.27
 74
     0
 49
-0.635
 74
     0
  0
LTYPE
  5
6F
330
5
100
AcDbSymbolTableRecord
100
AcDbLinetypeTableRecord
  2
PHANTOM
 70
     0
  3
Phantom ______  __  __  ______  __  __  ______
 72
    65
 73
     6
 40
12.7
 49
6.35
 74
     0
 49
-1.27
 74
     0
 49
1.27
 74
     0
 49
-1.27
 74
     0
 49
1.27
 74
     0
 49
-1.27
 74
     0
  0
LTYPE
  5
70
330
5
100
AcDbSymbolTableRecord
100
AcDbLinetypeTableRecord
  2
CENTER
 70
     0
  3
Center ____ _ ____ _ ____ _ ____ _ ____ _ ____
 72
    65
 73
     4
 40
10.16
 49
6.35
 74
     0
 49
-1.27
 74
     0
 49
1.27
 74
     0
 49
-1.27
 74
     0
  0
LTYPE
  5
71
330
5
100
AcDbSymbolTableRecord
100
AcDbLinetypeTableRecord
  2
CENTERX2
 70
     0
  3
Center (2x) ________  __  ________  __  _____
 72
    65
 73
     4
 40
20.32
 49
12.7
 74
     0
 49
-2.54
 74
     0
 49
2.54
 74
     0
 49
-2.54
 74
     0
  0
LTYPE
  5
72
330
5
100
AcDbSymbolTableRecord
100
AcDbLinetypeTableRecord
  2
DOT2
 70
     0
  3
Dot (.5x) ........................................
 72
    65
 73
     2
 40
0.635
 49
0.0
 74
     0
 49
-0.635
 74
     0
  0
ENDTAB
  0
TABLE
  2
LAYER
  5
2
330
0
100
AcDbSymbolTable
 70
     1
  0
LAYER
  5
10
330
2
100
AcDbSymbolTableRecord
100
AcDbLayerTableRecord
  2
0
 70
     0
 62
     7
  6
Continuous
370
    -3
390
F
  0
ENDTAB
  0
TABLE
  2
STYLE
  5
3
330
0
100
AcDbSymbolTable
 70
     2
  0
STYLE
  5
11
330
3
100
AcDbSymbolTableRecord
100
AcDbTextStyleTableRecord
  2
Standard
 70
     0
 40
0.0
 41
1.0
 50
0.0
 71
     0
 42
6.35
  3
txt
  4

  0
STYLE
  5
11F
330
3
100
AcDbSymbolTableRecord
100
AcDbTextStyleTableRecord
  2
SLDTEXTSTYLE0
 70
     0
 40
0.0
 41
0.7
 50
0.0
 71
     0
 42
6.35
  3
TXT
  4

  0
ENDTAB
  0
TABLE
  2
VIEW
  5
6
330
0
100
AcDbSymbolTable
 70
     0
  0
ENDTAB
  0
TABLE
  2
UCS
  5
7
330
0
100
AcDbSymbolTable
 70
     0
  0
ENDTAB
  0
TABLE
  2
APPID
  5
9
330
0
100
AcDbSymbolTable
 70
     1
  0
APPID
  5
12
330
9
100
AcDbSymbolTableRecord
100
AcDbRegAppTableRecord
  2
ACAD
 70
     0
  0
ENDTAB
  0
TABLE
  2
DIMSTYLE
  5
A
330
0
100
AcDbSymbolTable
 70
     1
100
AcDbDimStyleTable
  0
DIMSTYLE
105
27
330
A
100
AcDbSymbolTableRecord
100
AcDbDimStyleTableRecord
  2
ISO-25
 70
     0
 41
2.5
 42
0.625
 43
3.75
 44
1.25
 73
     0
 74
     0
 77
     1
 78
     8
140
2.5
141
2.5
143
0.0393700787
147
0.625
171
     3
172
     1
178
     0
271
     2
272
     2
274
     3
278
    44
283
     0
284
     8
340
11
  0
ENDTAB
  0
TABLE
  2
BLOCK_RECORD
  5
1
330
0
100
AcDbSymbolTable
 70
     1
  0
BLOCK_RECORD
  5
1F
330
1
100
AcDbSymbolTableRecord
100
AcDbBlockTableRecord
  2
*Model_Space
340
22
  0
BLOCK_RECORD
  5
1B
330
1
100
AcDbSymbolTableRecord
100
AcDbBlockTableRecord
  2
*Paper_Space
340
1E
  0
BLOCK_RECORD
  5
23
330
1
100
AcDbSymbolTableRecord
100
AcDbBlockTableRecord
  2
*Paper_Space0
340
26
  0
ENDTAB
  0
ENDSEC
  0
SECTION
  2
BLOCKS
  0
BLOCK
  5
20
330
1F
100
AcDbEntity
  8
0
100
AcDbBlockBegin
  2
*Model_Space
 70
     0
 10
0.0
 20
0.0
 30
0.0
  3
*Model_Space
  1

  0
ENDBLK
  5
21
330
1F
100
AcDbEntity
  8
0
100
AcDbBlockEnd
  0
BLOCK
  5
1C
330
1B
100
AcDbEntity
 67
     1
  8
0
100
AcDbBlockBegin
  2
*Paper_Space
 70
     0
 10
0.0
 20
0.0
 30
0.0
  3
*Paper_Space
  1

  0
ENDBLK
  5
1D
330
1B
100
AcDbEntity
 67
     1
  8
0
100
AcDbBlockEnd
  0
BLOCK
  5
24
330
23
100
AcDbEntity
  8
0
100
AcDbBlockBegin
  2
*Paper_Space0
 70
     0
 10
0.0
 20
0.0
 30
0.0
  3
*Paper_Space0
  1

  0
ENDBLK
  5
25
330
23
100
AcDbEntity
  8
0
100
AcDbBlockEnd
  0
ENDSEC
  0
SECTION
  2
ENTITIES
  0
SPLINE
  5
73
330
1F
100
AcDbEntity
  8
0
  6
Continuous
 62
     7
370
    15
100
AcDbSpline
210
0.0
220
0.0
230
1.0
 70
     8
 71
     3
 72
    23
 73
    19
 74
     0
 42
0.000000001
 43
0.00000001
 40
0.0
 40
0.0
 40
0.0
 40
0.0
 40
0.0679784896192499
 40
0.1330435352439108
 40
0.1965074380533881
 40
0.258613416768563
 40
0.3197283376065566
 40
0.3808728540495565
 40
0.4426356023162034
 40
0.5050793035048722
 40
0.5678805200585739
 40
0.6288138541554777
 40
0.6889100905404415
 40
0.7487650058898279
 40
0.8093857829631176
 40
0.8708843357532092
 40
0.9340374630736855
 40
1.0
 40
1.0
 40
1.0
 40
1.0
 10
167.4258012820513
 20
66.75222856570514
 30
0.0
 10
167.4262858735224
 20
66.77366017670124
 30
0.0
 10
167.4272342876872
 20
66.81560487580919
 30
0.0
 10
167.4348035344737
 20
66.87723509136988
 30
0.0
 10
167.448584586773
 20
66.93578948807547
 30
0.0
 10
167.465870123702
 20
66.99214742809028
 30
0.0
 10
167.4898939920191
 20
67.04521718482448
 30
0.0
 10
167.5186013488291
 20
67.09570646211615
 30
0.0
 10
167.5523356557244
 20
67.14354547344688
 30
0.0
 10
167.5912006409938
 20
67.18799831469822
 30
0.0
 10
167.6339330977504
 20
67.22837463213398
 30
0.0
 10
167.6801019245818
 20
67.26357053036519
 30
0.0
 10
167.7286687716229
 20
67.29360272364477
 30
0.0
 10
167.7798392665087
 20
67.31878969075254
 30
0.0
 10
167.8341049812688
 20
67.33784094496347
 30
0.0
 10
167.8910866031599
 20
67.35095585856135
 30
0.0
 10
167.9506687936576
 20
67.35971450681642
 30
0.0
 10
167.9914005293512
 20
67.3604974475711
 30
0.0
 10
168.0122095352565
 20
67.36089743589743
 30
0.0
  0
SPLINE
  5
74
330
1F
100
AcDbEntity
  8
0
  6
Continuous
 62
     7
370
    15
100
AcDbSpline
210
0.0
220
0.0
230
1.0
 70
     8
 71
     3
 72
    15
 73
    11
 74
     0
 42
0.000000001
 43
0.00000001
 40
0.0
 40
0.0
 40
0.0
 40
0.0
 40
0.1057142614175235
 40
0.2134116126389715
 40
0.3261267300734501
 40
0.4444516715568549
 40
0.5690610798550734
 40
0.702712204481206
 40
0.8463179465861892
 40
1.0
 40
1.0
 40
1.0
 40
1.0
 10
168.0122095352565
 20
67.36089743589743
 30
0.0
 10
168.0368766214003
 20
67.35989564112195
 30
0.0
 10
168.0866735226175
 20
67.35787325894094
 30
0.0
 10
168.1613809333897
 20
67.34181166817807
 30
0.0
 10
168.2359783222833
 20
67.31538378088784
 30
0.0
 10
168.3106573611825
 20
67.2788837692166
 30
0.0
 10
168.3848709808375
 20
67.23165167466813
 30
0.0
 10
168.4592719865362
 20
67.17456581024118
 30
0.0
 10
168.5347535568708
 20
67.10800174065069
 30
0.0
 10
168.5818853551842
 20
67.05711172901972
 30
0.0
 10
168.60625
 20
67.030804286859
 30
0.0
  0
LINE
  5
75
330
1F
100
AcDbEntity
  8
0
  6
Continuous
 62
     7
370
    15
100
AcDbLine
 10
168.60625
 20
67.0308042869
 30
0.0
 11
168.412900641
 21
66.8317307692
 31
0.0
  0
SPLINE
  5
76
330
1F
100
AcDbEntity
  8
0
  6
Continuous
 62
     7
370
    15
100
AcDbSpline
210
0.0
220
0.0
230
1.0
 70
     8
 71
     3
 72
    15
 73
    11
 74
     0
 42
0.000000001
 43
0.00000001
 40
0.0
 40
0.0
 40
0.0
 40
0.0
 40
0.1582230975563069
 40
0.3050355053581602
 40
0.441308963887903
 40
0.565963227104737
 40
0.6835251144150494
 40
0.7933341296296096
 40
0.8985175121610317
 40
1.0
 40
1.0
 40
1.0
 40
1.0
 10
168.4129006410257
 20
66.83173076923077
 30
0.0
 10
168.396217827111
 20
66.85106483769162
 30
0.0
 10
168.3640553258589
 20
66.88833864559115
 30
0.0
 10
168.313045339521
 20
66.93817441306214
 30
0.0
 10
168.2622239277071
 20
66.98002720767415
 30
0.0
 10
168.2122867896801
 20
67.01536247111328
 30
0.0
 10
168.1619782170199
 20
67.04207705410573
 30
0.0
 10
168.1118885841427
 20
67.06157596458014
 30
0.0
 10
168.0619660284899
 20
67.07364260257236
 30
0.0
 10
168.0285958394017
 20
67.07519784338773
 30
0.0
 10
168.0122095352565
 20
67.07596153846154
 30
0.0
  0
SPLINE
  5
77
330
1F
100
AcDbEntity
  8
0
  6
Continuous
 62
     7
370
    15
100
AcDbSpline
210
0.0
220
0.0
230
1.0
 70
     8
 71
     3
 72
    15
 73
    11
 74
     0
 42
0.000000001
 43
0.00000001
 40
0.0
 40
0.0
 40
0.0
 40
0.0
 40
0.1249584925460585
 40
0.2459006286062844
 40
0.369166029586093
 40
0.4985108411773607
 40
0.6285038663666203
 40
0.7510283288510118
 40
0.8737241742784421
 40
1.0
 40
1.0
 40
1.0
 40
1.0
 10
168.0122095352565
 20
67.07596153846154
 30
0.0
 10
167.9921259459
 20
67.07498647511746
 30
0.0
 10
167.9526042843723
 20
67.07306768845196
 30
0.0
 10
167.8959751491695
 20
67.05391479093402
 30
0.0
 10
167.8434056536177
 20
67.02451543533111
 30
0.0
 10
167.7979061074691
 20
66.982815363106
 30
0.0
 10
167.7593637120213
 20
66.9349506335263
 30
0.0
 10
167.7312298728118
 20
66.88143253880827
 30
0.0
 10
167.7140250162336
 20
66.82387609916043
 30
0.0
 10
167.7118435807382
 20
66.78393472827555
 30
0.0
 10
167.7107371794872
 20
66.76367688301282
 30
0.0
  0
SPLINE
  5
78
330
1F
100
AcDbEntity
  8
0
  6
Continuous
 62
     7
370
    15
100
AcDbSpline
210
0.0
220
0.0
230
1.0
 70
     8
 71
     3
 72
    11
 73
     7
 74
     0
 42
0.000000001
 43
0.00000001
 40
0.0
 40
0.0
 40
0.0
 40
0.0
 40
0.2400399314959948
 40
0.4794031936060877
 40
0.7317567388575297
 40
0.9999999999999999
 40
0.9999999999999999
 40
0.9999999999999999
 40
0.9999999999999999
 10
167.7107371794872
 20
66.76367688301282
 30
0.0
 10
167.7117448448994
 20
66.7453416715324
 30
0.0
 10
167.7137573351282
 20
66.70872293528977
 30
0.0
 10
167.7294025369841
 20
66.6547043617344
 30
0.0
 10
167.7543181881756
 20
66.60203833423098
 30
0.0
 10
167.7776047215606
 20
66.56977769775327
 30
0.0
 10
167.7896033653846
 20
66.55315504807692
 30
0.0
  0
SPLINE
  5
79
330
1F
100
AcDbEntity
  8
0
  6
Continuous
 62
     7
370
    15
100
AcDbSpline
210
0.0
220
0.0
230
1.0
 70
     8
 71
     3
 72
    15
 73
    11
 74
     0
 42
0.000000001
 43
0.00000001
 40
0.0
 40
0.0
 40
0.0
 40
0.0
 40
0.0834251049856377
 40
0.1775598214659356
 40
0.2839823599504274
 40
0.4022167468071917
 40
0.5335684803800549
 40
0.6761209941988354
 40
0.8316493725539896
 40
1.0
 40
1.0
 40
1.0
 40
1.0
 10
167.7896033653846
 20
66.55315504807692
 30
0.0
 10
167.7968273918775
 20
66.5442790322891
 30
0.0
 10
167.8122028217863
 20
66.52538755137473
 30
0.0
 10
167.8410576889438
 20
66.49916762720306
 30
0.0
 10
167.87373524511
 20
66.47019144238993
 30
0.0
 10
167.9130326171956
 20
66.44122016884506
 30
0.0
 10
167.957256763919
 20
66.41071138955077
 30
0.0
 10
168.0073666860273
 20
66.37986659749527
 30
0.0
 10
168.0617721298224
 20
66.34633458348938
 30
0.0
 10
168.1007224008246
 20
66.32506713124612
 30
0.0
 10
168.1209685496795
 20
66.3140124198718
 30
0.0
  0
SPLINE
  5
7A
330
1F
100
AcDbEntity
  8
0
  6
Continuous
 62
     7
370
    15
100
AcDbSpline
210
0.0
220
0.0
230
1.0
 70
     8
 71
     3
 72
    15
 73
    11
 74
     0
 42
0.000000001
 43
0.00000001
 40
0.0
 40
0.0
 40
0.0
 40
0.0
 40
0.1589891012267978
 40
0.307114591605573
 40
0.4462131585962031
 40
0.5748760724117429
 40
0.6941521095829505
 40
0.804581180153245
 40
0.9065933190457779
 40
1.0
 40
1.0
 40
1.0
 40
1.0
 10
168.1209685496795
 20
66.3140124198718
 30
0.0
 10
168.1456551517604
 20
66.30018311517611
 30
0.0
 10
168.1933415381713
 20
66.27346945222043
 30
0.0
 10
168.2610985484674
 20
66.23200422117962
 30
0.0
 10
168.3225910784909
 20
66.19079142916006
 30
0.0
 10
168.3783401484294
 20
66.15027183071393
 30
0.0
 10
168.4272730750216
 20
66.10931172937583
 30
0.0
 10
168.4708744906415
 20
66.06948112126399
 30
0.0
 10
168.5080568647746
 20
66.02957653446356
 30
0.0
 10
168.5288793554125
 20
66.00169720991093
 30
0.0
 10
168.5388321314103
 20
65.98837139423078
 30
0.0
  0
SPLINE
  5
7B
330
1F
100
AcDbEntity
  8
0
  6
Continuous
 62
     7
370
    15
100
AcDbSpline
210
0.0
220
0.0
230
1.0
 70
     8
 71
     3
 72
    11
 73
     7
 74
     0
 42
0.000000001
 43
0.00000001
 40
0.0
 40
0.0
 40
0.0
 40
0.0
 40
0.248838614127086
 40
0.4952350254576789
 40
0.7433356038750204
 40
1.0
 40
1.0
 40
1.0
 40
1.0
 10
168.5388321314103
 20
65.98837139423078
 30
0.0
 10
168.5553516812769
 20
65.96146001435639
 30
0.0
 10
168.5882286514668
 20
65.90790137377341
 30
0.0
 10
168.6227529360376
 20
65.81971037173601
 30
0.0
 10
168.6427647567878
 20
65.72617441595366
 30
0.0
 10
168.6455426279907
 20
65.66219161627639
 30
0.0
 10
168.6469551282051
 20
65.62965745192308
 30
0.0
  0
SPLINE
  5
7C
330
1F
100
AcDbEntity
  8
0
  6
Continuous
 62
     7
370
    15
100
AcDbSpline
210
0.0
220
0.0
230
1.0
 70
     8
 71
     3
 72
    23
 73
    19
 74
     0
 42
0.000000001
 43
0.00000001
 40
0.0
 40
0.0
 40
0.0
 40
0.0
 40
0.0645481255642463
 40
0.127199132755511
 40
0.1885973380874232
 40
0.2486395150940114
 40
0.3095246994640515
 40
0.3700369910533529
 40
0.4318892436070723
 40
0.495704285725295
 40
0.5595193278435178
 40
0.6213715803972448
 40
0.682397107291653
 40
0.7435684819321834
 40
0.8054984835712252
 40
0.8686397008205411
 40
0.9330662250811783
 40
1.0
 40
1.0
 40
1.0
 40
1.0
 10
168.6469551282051
 20
65.62965745192308
 30
0.0
 10
168.646302408244
 20
65.606734726401
 30
0.0
 10
168.6450161522565
 20
65.56156299164782
 30
0.0
 10
168.6360734772487
 20
65.49503782470478
 30
0.0
 10
168.620692891584
 20
65.43141576179674
 30
0.0
 10
168.5997435576373
 20
65.37000646781752
 30
0.0
 10
168.5714548765032
 20
65.31198657259311
 30
0.0
 10
168.5383008033729
 20
65.25589226101143
 30
0.0
 10
168.4984999905842
 20
65.20293695236684
 30
0.0
 10
168.4530599569888
 20
65.15319018134825
 30
0.0
 10
168.4033072588793
 20
65.10775525333128
 30
0.0
 10
168.350233833373
 20
65.06781923803835
 30
0.0
 10
168.2937743227482
 20
65.03464108929347
 30
0.0
 10
168.2343321528865
 20
65.00718609753741
 30
0.0
 10
168.1717722666921
 20
64.98535274925746
 30
0.0
 10
168.1060848828394
 20
64.9702374530487
 30
0.0
 10
168.0374787983351
 20
64.9611907340561
 30
0.0
 10
167.9908246152448
 20
64.9599348163744
 30
0.0
 10
167.9670522836539
 20
64.95929487179487
 30
0.0
  0
SPLINE
  5
7D
330
1F
100
AcDbEntity
  8
0
  6
Continuous
 62
     7
370
    15
100
AcDbSpline
210
0.0
220
0.0
230
1.0
 70
     8
 71
     3
 72
    15
 73
    11
 74
     0
 42
0.000000001
 43
0.00000001
 40
0.0
 40
0.0
 40
0.0
 40
0.0
 40
0.1267425189618466
 40
0.2517239612496228
 40
0.377218688026246
 40
0.5046935492516224
 40
0.6314582385935039
 40
0.7554010672029512
 40
0.8777005336014695
 40
0.9999999999999999
 40
0.9999999999999999
 40
0.9999999999999999
 40
0.9999999999999999
 10
167.9670522836539
 20
64.95929487179487
 30
0.0
 10
167.934969203078
 20
64.96019539280445
 30
0.0
 10
167.8712488336408
 20
64.96198392215975
 30
0.0
 10
167.7770060169845
 20
64.97877156335835
 30
0.0
 10
167.68491218591
 20
65.00489309931459
 30
0.0
 10
167.5956642600607
 20
65.04092112530091
 30
0.0
 10
167.5112581424614
 20
65.08641498624999
 30
0.0
 10
167.4340322322877
 20
65.14090015757468
 30
0.0
 10
167.3637182627697
 20
65.20257679807676
 30
0.0
 10
167.3236966858805
 20
65.24985065277774
 30
0.0
 10
167.3036858974359
 20
65.27348758012822
 30
0.0
  0
LINE
  5
7E
330
1F
100
AcDbEntity
  8
0
  6
Continuous
 62
     7
370
    15
100
AcDbLine
 10
167.3036858974
 20
65.2734875801
 30
0.0
 11
167.492583133
 21
65.4884615385
 31
0.0
  0
SPLINE
  5
7F
330
1F
100
AcDbEntity
  8
0
  6
Continuous
 62
     7
370
    15
100
AcDbSpline
210
0.0
220
0.0
230
1.0
 70
     8
 71
     3
 72
    15
 73
    11
 74
     0
 42
0.000000001
 43
0.00000001
 40
0.0
 40
0.0
 40
0.0
 40
0.0
 40
0.1474758177483389
 40
0.2859041715443723
 40
0.4171716482444184
 40
0.5405007435864903
 40
0.65923771838024
 40
0.775006098315958
 40
0.8872285734285899
 40
1.0
 40
1.0
 40
1.0
 40
1.0
 10
167.4925831330129
 20
65.48846153846154
 30
0.0
 10
167.5105195362129
 20
65.46908971635416
 30
0.0
 10
167.5452919658606
 20
65.43153451011443
 30
0.0
 10
167.6009009268125
 20
65.38152885821968
 30
0.0
 10
167.6574879549559
 20
65.33961770512128
 30
0.0
 10
167.7144879920627
 20
65.30456260741717
 30
0.0
 10
167.7727447919133
 20
65.27755206312423
 30
0.0
 10
167.8319318848253
 20
65.25857591007768
 30
0.0
 10
167.8919288837952
 20
65.24638010713032
 30
0.0
 10
167.9322261070033
 20
65.24494837959764
 30
0.0
 10
167.9524238782052
 20
65.2442307692308
 30
0.0
  0
SPLINE
  5
80
330
1F
100
AcDbEntity
  8
0
  6
Continuous
 62
     7
370
    15
100
AcDbSpline
210
0.0
220
0.0
230
1.0
 70
     8
 71
     3
 72
    15
 73
    11
 74
     0
 42
0.000000001
 43
0.00000001
 40
0.0
 40
0.0
 40
0.0
 40
0.0
 40
0.1340420464623708
 40
0.2618956736507206
 40
0.3878360446910935
 40
0.5176862058208316
 40
0.6445086536782098
 40
0.7647182630567206
 40
0.8802907821584924
 40
1.0
 40
1.0
 40
1.0
 40
1.0
 10
167.9524238782052
 20
65.24423076923078
 30
0.0
 10
167.9799265681814
 20
65.2454743032111
 30
0.0
 10
168.0336622109041
 20
65.2479039600097
 30
0.0
 10
168.110627620504
 20
65.26996303635102
 30
0.0
 10
168.1816919459269
 20
65.30455234979232
 30
0.0
 10
168.2433988379333
 20
65.35361489740902
 30
0.0
 10
168.2959243697589
 20
65.41072459541013
 30
0.0
 10
168.3339592136859
 20
65.47505383220405
 30
0.0
 10
168.3577954585683
 20
65.54471465362924
 30
0.0
 10
168.3605949002062
 20
65.59300395671941
 30
0.0
 10
168.3620192307693
 20
65.61757311698719
 30
0.0
  0
SPLINE
  5
81
330
1F
100
AcDbEntity
  8
0
  6
Continuous
 62
     7
370
    15
100
AcDbSpline
210
0.0
220
0.0
230
1.0
 70
     8
 71
     3
 72
    11
 73
     7
 74
     0
 42
0.000000001
 43
0.00000001
 40
0.0
 40
0.0
 40
0.0
 40
0.0
 40
0.253475434649855
 40
0.5004533151029301
 40
0.7455781350009804
 40
1.0
 40
1.0
 40
1.0
 40
1.0
 10
168.3620192307693
 20
65.61757311698719
 30
0.0
 10
168.361033806619
 20
65.63781112820205
 30
0.0
 10
168.3590882185448
 20
65.67776837225442
 30
0.0
 10
168.3438089646551
 20
65.73559903877305
 30
0.0
 10
168.3196673058194
 20
65.79045331482062
 30
0.0
 10
168.2958959462414
 20
65.82255678053276
 30
0.0
 10
168.2837890625
 20
65.83890725160256
 30
0.0
  0
SPLINE
  5
82
330
1F
100
AcDbEntity
  8
0
  6
Continuous
 62
     7
370
    15
100
AcDbSpline
210
0.0
220
0.0
230
1.0
 70
     8
 71
     3
 72
    15
 73
    11
 74
     0
 42
0.000000001
 43
0.00000001
 40
0.0
 40
0.0
 40
0.0
 40
0.0
 40
0.0768750740350603
 40
0.1674616757257464
 40
0.2722700232466143
 40
0.3895508405125262
 40
0.5208013683480558
 40
0.6662632933752065
 40
0.825544915205844
 40
1.0
 40
1.0
 40
1.0
 40
1.0
 10
168.2837890625
 20
65.83890725160256
 30
0.0
 10
168.276511604698
 20
65.84710361584023
 30
0.0
 10
168.2606586732526
 20
65.8649582573782
 30
0.0
 10
168.2315799901045
 20
65.89074386463123
 30
0.0
 10
168.1967621579653
 20
65.91853699743459
 30
0.0
 10
168.155813581591
 20
65.9478663674004
 30
0.0
 10
168.1086517125477
 20
65.97834510220119
 30
0.0
 10
168.0550854027297
 20
66.00981330031323
 30
0.0
 10
167.995848472918
 20
66.04376559442132
 30
0.0
 10
167.9539651145082
 20
66.06628056748275
 30
0.0
 10
167.9320713141026
 20
66.0780498798077
 30
0.0
  0
SPLINE
  5
83
330
1F
100
AcDbEntity
  8
0
  6
Continuous
 62
     7
370
    15
100
AcDbSpline
210
0.0
220
0.0
230
1.0
 70
     8
 71
     3
 72
    15
 73
    11
 74
     0
 42
0.000000001
 43
0.00000001
 40
0.0
 40
0.0
 40
0.0
 40
0.0
 40
0.1577616635135613
 40
0.3059502132085216
 40
0.4437754990007151
 40
0.5728243624015253
 40
0.6921541564432464
 40
0.8022957069908384
 40
0.9055643918329802
 40
1.0
 40
1.0
 40
1.0
 40
1.0
 10
167.9320713141026
 20
66.0780498798077
 30
0.0
 10
167.9084432906382
 20
66.09123894924599
 30
0.0
 10
167.8626210125537
 20
66.11681676401292
 30
0.0
 10
167.7977173986333
 20
66.156654922533
 30
0.0
 10
167.7391637273063
 20
66.19717452170715
 30
0.0
 10
167.6855510632386
 20
66.2361025973123
 30
0.0
 10
167.638233579517
 20
66.27549159646469
 30
0.0
 10
167.5973976835546
 20
66.31538524601021
 30
0.0
 10
167.5614356234789
 20
66.35417466195358
 30
0.0
 10
167.5415261856941
 20
66.38165863816837
 30
0.0
 10
167.5320162259616
 20
66.39478665865386
 30
0.0
  0
SPLINE
  5
84
330
1F
100
AcDbEntity
  8
0
  6
Continuous
 62
     7
370
    15
100
AcDbSpline
210
0.0
220
0.0
230
1.0
 70
     8
 71
     3
 72
    11
 73
     7
 74
     0
 42
0.000000001
 43
0.00000001
 40
0.0
 40
0.0
 40
0.0
 40
0.0
 40
0.2462523706929853
 40
0.4925907964763788
 40
0.7405699911180986
 40
1.0
 40
1.0
 40
1.0
 40
1.0
 10
167.5320162259616
 20
66.39478665865386
 30
0.0
 10
167.5155691819876
 20
66.42122589515053
 30
0.0
 10
167.4826693464733
 20
66.47411360757118
 30
0.0
 10
167.4507241373331
 20
66.56238811146382
 30
0.0
 10
167.4287658111376
 20
66.65532041346977
 30
0.0
 10
167.4268042143411
 20
66.71944348848369
 30
0.0
 10
167.4258012820513
 20
66.75222856570514
 30
0.0
  0
SPLINE
  5
85
330
1F
100
AcDbEntity
  8
0
  6
Continuous
 62
     7
370
    15
100
AcDbSpline
210
0.0
220
0.0
230
1.0
 70
     8
 71
     3
 72
    15
 73
    11
 74
     0
 42
0.000000001
 43
0.00000001
 40
0.0
 40
0.0
 40
0.0
 40
0.0
 40
0.1318667517023363
 40
0.2566614034533504
 40
0.3842132129424844
 40
0.5133652331525955
 40
0.6404431518253793
 40
0.7610850047778637
 40
0.8791455246531472
 40
1.0
 40
1.0
 40
1.0
 40
1.0
 10
169.3173177083333
 20
67.80865384615385
 30
0.0
 10
169.2998386301464
 20
67.80944280664067
 30
0.0
 10
169.2658178881426
 20
67.81097841514851
 30
0.0
 10
169.2164993954464
 20
67.8251026455236
 30
0.0
 10
169.1712978372111
 20
67.84815865469335
 30
0.0
 10
169.1307805984424
 20
67.87920669402968
 30
0.0
 10
169.0970074946726
 20
67.91634956508805
 30
0.0
 10
169.0724254423486
 20
67.95837503880131
 30
0.0
 10
169.0569360126381
 20
68.00392191477619
 30
0.0
 10
169.054990528109
 20
68.03559223707092
 30
0.0
 10
169.0540064102564
 20
68.05161258012821
 30
0.0
  0
SPLINE
  5
86
330
1F
100
AcDbEntity
  8
0
  6
Continuous
 62
     7
370
    15
100
AcDbSpline
210
0.0
220
0.0
230
1.0
 70
     8
 71
     3
 72
    15
 73
    11
 74
     0
 42
0.000000001
 43
0.00000001
 40
0.0
 40
0.0
 40
0.0
 40
0.0
 40
0.1232898687277964
 40
0.2421490813339703
 40
0.3634374760537454
 40
0.4897453933413677
 40
0.6181148445930253
 40
0.7448937812572638
 40
0.8689322665891814
 40
1.0
 40
1.0
 40
1.0
 40
1.0
 10
169.0540064102564
 20
68.05161258012822
 30
0.0
 10
169.0549689674017
 20
68.06805985083925
 30
0.0
 10
169.0568594903689
 20
68.10036332828007
 30
0.0
 10
169.0724370528661
 20
68.14671382242504
 30
0.0
 10
169.0968027356214
 20
68.1893327562036
 30
0.0
 10
169.1308029611125
 20
68.22654874496858
 30
0.0
 10
169.1712918857864
 20
68.25761424650908
 30
0.0
 10
169.2165009331874
 20
68.28066563687179
 30
0.0
 10
169.2658174819094
 20
68.29479106615766
 30
0.0
 10
169.2998384922705
 20
68.296326509161
 30
0.0
 10
169.3173177083333
 20
68.29711538461538
 30
0.0
  0
SPLINE
  5
87
330
1F
100
AcDbEntity
  8
0
  6
Continuous
 62
     7
370
    15
100
AcDbSpline
210
0.0
220
0.0
230
1.0
 70
     8
 71
     3
 72
    15
 73
    11
 74
     0
 42
0.000000001
 43
0.00000001
 40
0.0
 40
0.0
 40
0.0
 40
0.0
 40
0.1318992643310713
 40
0.2582840923169975
 40
0.3843411247791199
 40
0.5119796151257
 40
0.6386320084211442
 40
0.7592297631645958
 40
0.8774121680352083
 40
1.0
 40
1.0
 40
1.0
 40
1.0
 10
169.3173177083333
 20
68.29711538461538
 30
0.0
 10
169.3349991162269
 20
68.29629518922783
 30
0.0
 10
169.3696227087983
 20
68.29468908913113
 30
0.0
 10
169.4196908873331
 20
68.28093546349551
 30
0.0
 10
169.4652811768586
 20
68.25762217741372
 30
0.0
 10
169.5057195488373
 20
68.22634418116816
 30
0.0
 10
169.5404194746122
 20
68.18956004317306
 30
0.0
 10
169.5647134047384
 20
68.14668759336232
 30
0.0
 10
169.5803275069287
 20
68.10037011388958
 30
0.0
 10
169.5822130535019
 20
68.06806214013244
 30
0.0
 10
169.5831730769231
 20
68.05161258012821
 30
0.0
  0
SPLINE
  5
88
330
1F
100
AcDbEntity
  8
0
  6
Continuous
 62
     7
370
    15
100
AcDbSpline
210
0.0
220
0.0
230
1.0
 70
     8
 71
     3
 72
    15
 73
    11
 74
     0
 42
0.000000001
 43
0.00000001
 40
0.0
 40
0.0
 40
0.0
 40
0.0
 40
0.1201621349926004
 40
0.2375463202768885
 40
0.3574970509273558
 40
0.4849171224652814
 40
0.6133292680851075
 40
0.7401503701286645
 40
0.8673012545632692
 40
1.0
 40
1.0
 40
1.0
 40
1.0
 10
169.5831730769231
 20
68.05161258012821
 30
0.0
 10
169.5821914033676
 20
68.035590030473
 30
0.0
 10
169.5802507509249
 20
68.00391534599541
 30
0.0
 10
169.5647254651541
 20
67.95840083920498
 30
0.0
 10
169.5402124351112
 20
67.91612409633083
 30
0.0
 10
169.5057417997218
 20
67.87941138063829
 30
0.0
 10
169.4652752808129
 20
67.84815067536113
 30
0.0
 10
169.4196924536489
 20
67.82483280506877
 30
0.0
 10
169.3696222967822
 20
67.81108039474411
 30
0.0
 10
169.3349989769472
 20
67.80947412710246
 30
0.0
 10
169.3173177083333
 20
67.80865384615385
 30
0.0
  0
LINE
  5
89
330
1F
100
AcDbEntity
  8
0
  6
Continuous
 62
     7
370
    15
100
AcDbLine
 10
169.4610576923
 20
65.0
 30
0.0
 11
169.1761217949
 21
65.0
 31
0.0
  0
LINE
  5
8A
330
1F
100
AcDbEntity
  8
0
  6
Continuous
 62
     7
370
    15
100
AcDbLine
 10
169.1761217949
 20
65.0
 30
0.0
 11
169.1761217949
 21
67.3201923077
 31
0.0
  0
LINE
  5
8B
330
1F
100
AcDbEntity
  8
0
  6
Continuous
 62
     7
370
    15
100
AcDbLine
 10
169.1761217949
 20
67.3201923077
 30
0.0
 11
169.4610576923
 21
67.3201923077
 31
0.0
  0
LINE
  5
8C
330
1F
100
AcDbEntity
  8
0
  6
Continuous
 62
     7
370
    15
100
AcDbLine
 10
169.4610576923
 20
67.3201923077
 30
0.0
 11
169.4610576923
 21
65.0
 31
0.0
  0
LINE
  5
8D
330
1F
100
AcDbEntity
  8
0
  6
Continuous
 62
     7
370
    15
100
AcDbLine
 10
170.4379807692
 20
65.0
 30
0.0
 11
170.1530448718
 21
65.0
 31
0.0
  0
LINE
  5
8E
330
1F
100
AcDbEntity
  8
0
  6
Continuous
 62
     7
370
    15
100
AcDbLine
 10
170.1530448718
 20
65.0
 30
0.0
 11
170.1530448718
 21
67.3201923077
 31
0.0
  0
LINE
  5
8F
330
1F
100
AcDbEntity
  8
0
  6
Continuous
 62
     7
370
    15
100
AcDbLine
 10
170.1530448718
 20
67.3201923077
 30
0.0
 11
170.4379807692
 21
67.3201923077
 31
0.0
  0
LINE
  5
90
330
1F
100
AcDbEntity
  8
0
  6
Continuous
 62
     7
370
    15
100
AcDbLine
 10
170.4379807692
 20
67.3201923077
 30
0.0
 11
170.4379807692
 21
66.9016927083
 31
0.0
  0
SPLINE
  5
91
330
1F
100
AcDbEntity
  8
0
  6
Continuous
 62
     7
370
    15
100
AcDbSpline
210
0.0
220
0.0
230
1.0
 70
     8
 71
     3
 72
    15
 73
    11
 74
     0
 42
0.000000001
 43
0.00000001
 40
0.0
 40
0.0
 40
0.0
 40
0.0
 40
0.1409759662687763
 40
0.2735687809631727
 40
0.3989883138042575
 40
0.5199297813924226
 40
0.6381100215247325
 40
0.7565889007405854
 40
0.8768597544106115
 40
1.0
 40
1.0
 40
1.0
 40
1.0
 10
170.4379807692308
 20
66.90169270833333
 30
0.0
 10
170.4684041953863
 20
66.93965003547889
 30
0.0
 10
170.5274419152644
 20
67.01330755307332
 30
0.0
 10
170.6257619890213
 20
67.11011835999565
 30
0.0
 10
170.7296696700283
 20
67.18989724271489
 30
0.0
 10
170.8385286303344
 20
67.25349139865004
 30
0.0
 10
170.9524866466394
 20
67.30143083808494
 30
0.0
 10
171.0708490772487
 20
67.3360527898555
 30
0.0
 10
171.1943245606285
 20
67.35681259860219
 30
0.0
 10
171.2782937283637
 20
67.35952516465959
 30
0.0
 10
171.3207732371795
 20
67.36089743589743
 30
0.0
  0
SPLINE
  5
92
330
1F
100
AcDbEntity
  8
0
  6
Continuous
 62
     7
370
    15
100
AcDbSpline
210
0.0
220
0.0
230
1.0
 70
     8
 71
     3
 72
    23
 73
    19
 74
     0
 42
0.000000001
 43
0.00000001
 40
0.0
 40
0.0
 40
0.0
 40
0.0
 40
0.0772404236164746
 40
0.1511781404663744
 40
0.2234879838003876
 40
0.2955426441988725
 40
0.366976254619781
 40
0.4371305254863753
 40
0.5070436156432641
 40
0.5785597335236743
 40
0.6166135446965502
 40
0.6587562369775266
 40
0.7044912261144015
 40
0.7548031149051457
 40
0.8093316253185588
 40
0.8682744554728199
 40
0.932072883409289
 40
1.0
 40
1.0
 40
1.0
 40
1.0
 10
171.3207732371795
 20
67.36089743589743
 30
0.0
 10
171.3637088838424
 20
67.35931429431864
 30
0.0
 10
171.4477443010281
 20
67.35621570437348
 30
0.0
 10
171.5700979709961
 20
67.33170770600846
 30
0.0
 10
171.6843738352692
 20
67.28984736743111
 30
0.0
 10
171.7901644323055
 20
67.23250498927978
 30
0.0
 10
171.8855298329987
 20
67.16119768840629
 30
0.0
 10
171.9692816625521
 20
67.07812355781051
 30
0.0
 10
172.0385540369589
 20
66.98256868230393
 30
0.0
 10
172.0849973591086
 20
66.89391981914642
 30
0.0
 10
172.115591339514
 20
66.81528069862753
 30
0.0
 10
172.1348521028302
 20
66.74792828960928
 30
0.0
 10
172.1512087788683
 20
66.67289110962021
 30
0.0
 10
172.1653890074272
 20
66.59039591097799
 30
0.0
 10
172.1749839589069
 20
66.4998646955348
 30
0.0
 10
172.1825516090817
 20
66.40166857488678
 30
0.0
 10
172.1879751389005
 20
66.29583935650867
 30
0.0
 10
172.1881903195241
 20
66.22264505878684
 30
0.0
 10
172.1883012820513
 20
66.18490084134615
 30
0.0
  0
LINE
  5
93
330
1F
100
AcDbEntity
  8
0
  6
Continuous
 62
     7
370
    15
100
AcDbLine
 10
172.1883012821
 20
66.1849008413
 30
0.0
 11
172.1883012821
 21
65.0
 31
0.0
  0
LINE
  5
94
330
1F
100
AcDbEntity
  8
0
  6
Continuous
 62
     7
370
    15
100
AcDbLine
 10
172.1883012821
 20
65.0
 30
0.0
 11
171.9033653846
 21
65.0
 31
0.0
  0
LINE
  5
95
330
1F
100
AcDbEntity
  8
0
  6
Continuous
 62
     7
370
    15
100
AcDbLine
 10
171.9033653846
 20
65.0
 30
0.0
 11
171.9033653846
 21
66.09140625
 31
0.0
  0
SPLINE
  5
96
330
1F
100
AcDbEntity
  8
0
  6
Continuous
 62
     7
370
    15
100
AcDbSpline
210
0.0
220
0.0
230
1.0
 70
     8
 71
     3
 72
    15
 73
    11
 74
     0
 42
0.000000001
 43
0.00000001
 40
0.0
 40
0.0
 40
0.0
 40
0.0
 40
0.1788500194111728
 40
0.3421096489423048
 40
0.4898256633683971
 40
0.6232544282245677
 40
0.7400796760858074
 40
0.8414826730699919
 40
0.9289076721840637
 40
1.0
 40
1.0
 40
1.0
 40
1.0
 10
171.9033653846154
 20
66.09140624999999
 30
0.0
 10
171.9031901173411
 20
66.12299518218538
 30
0.0
 10
171.9028548608737
 20
66.18341943338747
 30
0.0
 10
171.9017974528099
 20
66.2699327615673
 30
0.0
 10
171.89924855682
 20
66.34838844340409
 30
0.0
 10
171.8956668729606
 20
66.41859891240759
 30
0.0
 10
171.8904244666947
 20
66.48049674986147
 30
0.0
 10
171.8849610796843
 20
66.5342080223314
 30
0.0
 10
171.8782799935899
 20
66.57966453582405
 30
0.0
 10
171.8723264938155
 20
66.607028574843
 30
0.0
 10
171.8696564503205
 20
66.61930088141025
 30
0.0
  0
SPLINE
  5
97
330
1F
100
AcDbEntity
  8
0
  6
Continuous
 62
     7
370
    15
100
AcDbSpline
210
0.0
220
0.0
230
1.0
 70
     8
 71
     3
 72
    15
 73
    11
 74
     0
 42
0.000000001
 43
0.00000001
 40
0.0
 40
0.0
 40
0.0
 40
0.0
 40
0.1355195283706067
 40
0.2608331631936801
 40
0.3784760291245104
 40
0.493177646474673
 40
0.6092809649289412
 40
0.7299810378566303
 40
0.8592613089300509
 40
1.0
 40
1.0
 40
1.0
 40
1.0
 10
171.8696564503205
 20
66.61930088141025
 30
0.0
 10
171.8600175753112
 20
66.6553245991842
 30
0.0
 10
171.8414657231277
 20
66.72465911037935
 30
0.0
 10
171.7956241812928
 20
66.81870655882881
 30
0.0
 10
171.7377356030071
 20
66.89871491493109
 30
0.0
 10
171.6670711253688
 20
66.96418951240469
 30
0.0
 10
171.5843133210377
 20
67.01514448570131
 30
0.0
 10
171.489691841527
 20
67.05049943034659
 30
0.0
 10
171.3841197889171
 20
67.07261218883419
 30
0.0
 10
171.309866170349
 20
67.07481394430523
 30
0.0
 10
171.2711638621795
 20
67.07596153846154
 30
0.0
  0
SPLINE
  5
98
330
1F
100
AcDbEntity
  8
0
  6
Continuous
 62
     7
370
    15
100
AcDbSpline
210
0.0
220
0.0
230
1.0
 70
     8
 71
     3
 72
    23
 73
    19
 74
     0
 42
0.000000001
 43
0.00000001
 40
0.0
 40
0.0
 40
0.0
 40
0.0
 40
0.0639861098164614
 40
0.1266268580894722
 40
0.188984371981488
 40
0.2502301939603875
 40
0.3123511629623293
 40
0.3745736184579459
 40
0.438147530878218
 40
0.502920412607373
 40
0.5679740951402702
 40
0.6307713337492016
 40
0.6929346089254504
 40
0.7543975343123398
 40
0.8152183520172989
 40
0.8761169254810988
 40
0.938014604793951
 40
1.0
 40
1.0
 40
1.0
 40
1.0
 10
171.2711638621795
 20
67.07596153846154
 30
0.0
 10
171.2482424634808
 20
67.07552973423103
 30
0.0
 10
171.2028816076864
 20
67.07467520481559
 30
0.0
 10
171.1356169903143
 20
67.06610152732333
 30
0.0
 10
171.07037149036
 20
67.05207849974481
 30
0.0
 10
171.006490300772
 20
67.03314766429916
 30
0.0
 10
170.9452510878838
 20
67.00714689150432
 30
0.0
 10
170.8846863380274
 20
66.97763810565738
 30
0.0
 10
170.8270766305668
 20
66.94085508478501
 30
0.0
 10
170.7711935488859
 20
66.89986073533605
 30
0.0
 10
170.7192026448006
 20
66.8544317402354
 30
0.0
 10
170.670826223528
 20
66.80649422031101
 30
0.0
 10
170.6277024480146
 20
66.75544420829598
 30
0.0
 10
170.5886330068643
 20
66.70210425589461
 30
0.0
 10
170.5549070108004
 20
66.64574180285439
 30
0.0
 10
170.5254674237725
 20
66.58690061054861
 30
0.0
 10
170.5004886149256
 20
66.52550323268693
 30
0.0
 10
170.4880764581852
 20
66.48289014142763
 30
0.0
 10
170.481865985577
 20
66.4615685096154
 30
0.0
  0
SPLINE
  5
99
330
1F
100
AcDbEntity
  8
0
  6
Continuous
 62
     7
370
    15
100
AcDbSpline
210
0.0
220
0.0
230
1.0
 70
     8
 71
     3
 72
    15
 73
    11
 74
     0
 42
0.000000001
 43
0.00000001
 40
0.0
 40
0.0
 40
0.0
 40
0.0
 40
0.0769954547170605
 40
0.1676150771831794
 40
0.2710523936342327
 40
0.389459502572075
 40
0.5208428024655727
 40
0.6663987586080586
 40
0.8260936125153013
 40
1.0
 40
1.0
 40
1.0
 40
1.0
 10
170.481865985577
 20
66.4615685096154
 30
0.0
 10
170.4782921615119
 20
66.44591557541652
 30
0.0
 10
170.4705121334737
 20
66.41183995649156
 30
0.0
 10
170.4621091060303
 20
66.35591966176413
 30
0.0
 10
170.4544822340588
 20
66.29123132730697
 30
0.0
 10
170.4480987073119
 20
66.21785043969203
 30
0.0
 10
170.4441930795136
 20
66.13552008154967
 30
0.0
 10
170.4399345910118
 20
66.04459185725605
 30
0.0
 10
170.438384228473
 20
65.94470319281875
 30
0.0
 10
170.4381190216142
 20
65.875160085847
 30
0.0
 10
170.4379807692308
 20
65.83890725160258
 30
0.0
  0
LINE
  5
9A
330
1F
100
AcDbEntity
  8
0
  6
Continuous
 62
     7
370
    15
100
AcDbLine
 10
170.4379807692
 20
65.8389072516
 30
0.0
 11
170.4379807692
 21
65.0
 31
0.0
  0
SPLINE
  5
9B
330
1F
100
AcDbEntity
  8
0
  6
Continuous
 62
     7
370
    15
100
AcDbSpline
210
0.0
220
0.0
230
1.0
 70
     8
 71
     3
 72
    15
 73
    11
 74
     0
 42
0.000000001
 43
0.00000001
 40
0.0
 40
0.0
 40
0.0
 40
0.0
 40
0.1209110787487082
 40
0.238762228638732
 40
0.3547548590848689
 40
0.4703593994502178
 40
0.5891440987928733
 40
0.7163289048363529
 40
0.8524452858576032
 40
1.0
 40
1.0
 40
1.0
 40
1.0
 10
173.9564302884616
 20
67.36089743589744
 30
0.0
 10
173.9991122116787
 20
67.35966673942006
 30
0.0
 10
174.0833958953192
 20
67.35723649202872
 30
0.0
 10
174.2074304475222
 20
67.33816731014541
 30
0.0
 10
174.3271209080728
 20
67.30776531231926
 30
0.0
 10
174.4431426794368
 20
67.26420827607072
 30
0.0
 10
174.5564408771309
 20
67.20474502700966
 30
0.0
 10
174.6666420930192
 20
67.12641963845749
 30
0.0
 10
174.774065164735
 20
67.02852954455777
 30
0.0
 10
174.8403571967318
 20
66.95346087473894
 30
0.0
 10
174.8748397435898
 20
66.91441306089745
 30
0.0
  0
LINE
  5
9C
330
1F
100
AcDbEntity
  8
0
  6
Continuous
 62
     7
370
    15
100
AcDbLine
 10
174.8748397436
 20
66.9144130609
 30
0.0
 11
174.8748397436
 21
67.3201923077
 31
0.0
  0
LINE
  5
9D
330
1F
100
AcDbEntity
  8
0
  6
Continuous
 62
     7
370
    15
100
AcDbLine
 10
174.8748397436
 20
67.3201923077
 30
0.0
 11
175.159775641
 21
67.3201923077
 31
0.0
  0
LINE
  5
9E
330
1F
100
AcDbEntity
  8
0
  6
Continuous
 62
     7
370
    15
100
AcDbLine
 10
175.159775641
 20
67.3201923077
 30
0.0
 11
175.159775641
 21
65.478921274
 31
0.0
  0
SPLINE
  5
9F
330
1F
100
AcDbEntity
  8
0
  6
Continuous
 62
     7
370
    15
100
AcDbSpline
210
0.0
220
0.0
230
1.0
 70
     8
 71
     3
 72
    15
 73
    11
 74
     0
 42
0.000000001
 43
0.00000001
 40
0.0
 40
0.0
 40
0.0
 40
0.0
 40
0.163445254849767
 40
0.3154887127129143
 40
0.4562908239366549
 40
0.5858641495747609
 40
0.7054286858067417
 40
0.8133707129824335
 40
0.9117182381600831
 40
1.0
 40
1.0
 40
1.0
 40
1.0
 10
175.1597756410257
 20
65.47892127403848
 30
0.0
 10
175.1595243238364
 20
65.43969859893087
 30
0.0
 10
175.1590392211235
 20
65.36398938797683
 30
0.0
 10
175.1555458400567
 20
65.25451694861364
 30
0.0
 10
175.1481792257211
 20
65.15340128530974
 30
0.0
 10
175.1398256362075
 20
65.06018123644664
 30
0.0
 10
175.1278089721177
 20
64.97528889374941
 30
0.0
 10
175.1131346961228
 20
64.89847094379512
 30
0.0
 10
175.096592330035
 20
64.82965366936165
 30
0.0
 10
175.0820597042013
 20
64.78726756357239
 30
0.0
 10
175.0751852964744
 20
64.76721754807691
 30
0.0
  0
SPLINE
  5
A0
330
1F
100
AcDbEntity
  8
0
  6
Continuous
 62
     7
370
    15
100
AcDbSpline
210
0.0
220
0.0
230
1.0
 70
     8
 71
     3
 72
    23
 73
    19
 74
     0
 42
0.000000001
 43
0.00000001
 40
0.0
 40
0.0
 40
0.0
 40
0.0
 40
0.0613707062984494
 40
0.1209064680177726
 40
0.179423665000024
 40
0.2376066874397718
 40
0.2959384682493598
 40
0.3542182268208487
 40
0.4135370665946728
 40
0.4740867825531774
 40
0.5351211890802631
 40
0.5969876649622151
 40
0.6600198335467993
 40
0.7242774964844789
 40
0.790011850225526
 40
0.8577476843344289
 40
0.9278290322155328
 40
1.0
 40
1.0
 40
1.0
 40
1.0
 10
175.0751852964744
 20
64.76721754807691
 30
0.0
 10
175.0650350584776
 20
64.74115540491901
 30
0.0
 10
175.0450380680608
 20
64.6898103598926
 30
0.0
 10
175.007586100566
 20
64.61702636888695
 30
0.0
 10
174.9656453451403
 20
64.548495000955
 30
0.0
 10
174.9177420784926
 20
64.48459817012865
 30
0.0
 10
174.8640929205495
 20
64.42565664248559
 30
0.0
 10
174.8059618526665
 20
64.37038987171039
 30
0.0
 10
174.7422167504483
 20
64.31996709129665
 30
0.0
 10
174.6728940615187
 20
64.27525828574655
 30
0.0
 10
174.5995918085435
 20
64.2349928866216
 30
0.0
 10
174.5223521302403
 20
64.20011635781934
 30
0.0
 10
174.4416105754389
 20
64.16973900681877
 30
0.0
 10
174.3566086666313
 20
64.14698532783537
 30
0.0
 10
174.2686790967924
 20
64.12726883132109
 30
0.0
 10
174.1767878557409
 20
64.11443758063623
 30
0.0
 10
174.0814718186391
 20
64.10570446362104
 30
0.0
 10
174.0166606524233
 20
64.10489689513278
 30
0.0
 10
173.9837790464744
 20
64.10448717948718
 30
0.0
  0
SPLINE
  5
A1
330
1F
100
AcDbEntity
  8
0
  6
Continuous
 62
     7
370
    15
100
AcDbSpline
210
0.0
220
0.0
230
1.0
 70
     8
 71
     3
 72
    19
 73
    15
 74
     0
 42
0.000000001
 43
0.00000001
 40
0.0
 40
0.0
 40
0.0
 40
0.0
 40
0.0964914237691139
 40
0.1884736749922992
 40
0.2768399149587988
 40
0.3621365621714229
 40
0.4434367545654569
 40
0.5201655209986117
 40
0.5927096635689895
 40
0.662917334352815
 40
0.7354188002027018
 40
0.8148809699994131
 40
0.90306055573998
 40
1.0
 40
1.0
 40
1.0
 40
1.0
 10
173.9837790464744
 20
64.1044871794872
 30
0.0
 10
173.9358050372285
 20
64.10526413447256
 30
0.0
 10
173.8420989079841
 20
64.10678173630369
 30
0.0
 10
173.7054786646202
 20
64.12446278070801
 30
0.0
 10
173.5757257401157
 20
64.14945853342455
 30
0.0
 10
173.4545546258237
 20
64.18729131420535
 30
0.0
 10
173.342731037948
 20
64.23358915488987
 30
0.0
 10
173.2410186651458
 20
64.28674314792717
 30
0.0
 10
173.1503305890404
 20
64.3476934494827
 30
0.0
 10
173.0685755428161
 20
64.41709042317123
 30
0.0
 10
172.9947871003355
 20
64.49960747722797
 30
0.0
 10
172.9253659158533
 20
64.59685214296972
 30
0.0
 10
172.8585449185963
 20
64.71030567812826
 30
0.0
 10
172.8193847971021
 20
64.79357478225859
 30
0.0
 10
172.7988782051282
 20
64.83717948717948
 30
0.0
  0
LINE
  5
A2
330
1F
100
AcDbEntity
  8
0
  6
Continuous
 62
     7
370
    15
100
AcDbLine
 10
172.7988782051
 20
64.8371794872
 30
0.0
 11
173.0838141026
 21
64.8371794872
 31
0.0
  0
SPLINE
  5
A3
330
1F
100
AcDbEntity
  8
0
  6
Continuous
 62
     7
370
    15
100
AcDbSpline
210
0.0
220
0.0
230
1.0
 70
     8
 71
     3
 72
    15
 73
    11
 74
     0
 42
0.000000001
 43
0.00000001
 40
0.0
 40
0.0
 40
0.0
 40
0.0
 40
0.1247164867022887
 40
0.2438053739154955
 40
0.3600615340644459
 40
0.4751119996583976
 40
0.5935250978118944
 40
0.7193501703843509
 40
0.8538547713042713
 40
1.0
 40
1.0
 40
1.0
 40
1.0
 10
173.0838141025641
 20
64.83717948717948
 30
0.0
 10
173.1067305352912
 20
64.80079772844309
 30
0.0
 10
173.1515293393432
 20
64.729675870163
 30
0.0
 10
173.2353026042202
 20
64.63758893585067
 30
0.0
 10
173.327111200264
 20
64.55889124074139
 30
0.0
 10
173.4300534842955
 20
64.49547218141123
 30
0.0
 10
173.5445577868444
 20
64.44765687063972
 30
0.0
 10
173.6706929950123
 20
64.41357070887274
 30
0.0
 10
173.8094855090148
 20
64.39316338108166
 30
0.0
 10
173.9061127461665
 20
64.39070384996862
 30
0.0
 10
173.9564302884615
 20
64.38942307692308
 30
0.0
  0
SPLINE
  5
A4
330
1F
100
AcDbEntity
  8
0
  6
Continuous
 62
     7
370
    15
100
AcDbSpline
210
0.0
220
0.0
230
1.0
 70
     8
 71
     3
 72
    23
 73
    19
 74
     0
 42
0.000000001
 43
0.00000001
 40
0.0
 40
0.0
 40
0.0
 40
0.0
 40
0.0981712978276955
 40
0.1892644356875803
 40
0.2744630560180378
 40
0.3550231712817347
 40
0.4309204620429276
 40
0.5010860453857597
 40
0.5666076270375996
 40
0.6297208634282968
 40
0.6627106951128655
 40
0.6987655616316091
 40
0.7386105373889603
 40
0.7825812280784465
 40
0.8304087872491263
 40
0.8825778660702751
 40
0.9392286810451763
 40
1.0
 40
1.0
 40
1.0
 40
1.0
 10
173.9564302884615
 20
64.38942307692308
 30
0.0
 10
174.0061116818449
 20
64.39072042618717
 30
0.0
 10
174.1018924353945
 20
64.39322158570924
 30
0.0
 10
174.2396249958857
 20
64.41357981649449
 30
0.0
 10
174.3653504039901
 20
64.44766428854973
 30
0.0
 10
174.4783443002733
 20
64.49538761035876
 30
0.0
 10
174.5772734617321
 20
64.5538533362866
 30
0.0
 10
174.6625557681117
 20
64.6191676895012
 30
0.0
 10
174.7316298671839
 20
64.69281045652154
 30
0.0
 10
174.7780873440916
 20
64.76064823776103
 30
0.0
 10
174.8069658900561
 20
64.8210858411289
 30
0.0
 10
174.8253557048365
 20
64.87311283889046
 30
0.0
 10
174.8402999485557
 20
64.9319436636271
 30
0.0
 10
174.8528002297488
 20
64.99738108148611
 30
0.0
 10
174.863115272593
 20
65.0695185846828
 30
0.0
 10
174.8696493158653
 20
65.1485211148871
 30
0.0
 10
174.8743717306488
 20
65.23420912370767
 30
0.0
 10
174.8746801318686
 20
65.29362075622645
 30
0.0
 10
174.8748397435897
 20
65.32436899038461
 30
0.0
  0
LINE
  5
A5
330
1F
100
AcDbEntity
  8
0
  6
Continuous
 62
     7
370
    15
100
AcDbLine
 10
174.8748397436
 20
65.3243689904
 30
0.0
 11
174.8748397436
 21
65.4445763221
 31
0.0
  0
SPLINE
  5
A6
330
1F
100
AcDbEntity
  8
0
  6
Continuous
 62
     7
370
    15
100
AcDbSpline
210
0.0
220
0.0
230
1.0
 70
     8
 71
     3
 72
    15
 73
    11
 74
     0
 42
0.000000001
 43
0.00000001
 40
0.0
 40
0.0
 40
0.0
 40
0.0
 40
0.1265607130145262
 40
0.2508952618879496
 40
0.3747192653150343
 40
0.4998264235934723
 40
0.6249635314328792
 40
0.7490394747387505
 40
0.8731801199413535
 40
1.0
 40
1.0
 40
1.0
 40
1.0
 10
174.8748397435897
 20
65.44457632211538
 30
0.0
 10
174.8459190156603
 20
65.41015768730138
 30
0.0
 10
174.7885862665393
 20
65.34192583090775
 30
0.0
 10
174.6895740483545
 20
65.2525163461933
 30
0.0
 10
174.5814272748902
 20
65.17551249941988
 30
0.0
 10
174.4643300614252
 20
65.11235845239726
 30
0.0
 10
174.341150727467
 20
65.06184744578741
 30
0.0
 10
174.2132234184454
 20
65.02652061696843
 30
0.0
 10
174.0816949112273
 20
65.00369699349649
 30
0.0
 10
173.9925661753149
 20
65.00124107091105
 30
0.0
 10
173.9475260416667
 20
65.0
 30
0.0
  0
SPLINE
  5
A7
330
1F
100
AcDbEntity
  8
0
  6
Continuous
 62
     7
370
    15
100
AcDbSpline
210
0.0
220
0.0
230
1.0
 70
     8
 71
     3
 72
    31
 73
    27
 74
     0
 42
0.000000001
 43
0.00000001
 40
0.0
 40
0.0
 40
0.0
 40
0.0
 40
0.0428647590311963
 40
0.085222257567243
 40
0.1272022841437425
 40
0.1690253126086035
 40
0.2108820330997131
 40
0.2529626777271259
 40
0.2956282851000556
 40
0.3385532936306101
 40
0.3814632477171838
 40
0.4235815621432655
 40
0.4650661653954512
 40
0.5063122188418686
 40
0.5470395054616207
 40
0.5876758328931694
 40
0.6286747862975602
 40
0.6699464646027615
 40
0.7110355744560706
 40
0.7519958286352183
 40
0.7926726074835032
 40
0.8334460178854449
 40
0.8741906070422377
 40
0.9154935830294675
 40
0.957477806839149
 40
1.0
 40
1.0
 40
1.0
 40
1.0
 10
173.9475260416667
 20
65.00000000000001
 30
0.0
 10
173.9210045686915
 20
65.00046720258393
 30
0.0
 10
173.8682754771943
 20
65.00139607888798
 30
0.0
 10
173.7899393850622
 20
65.00952296983789
 30
0.0
 10
173.7127592731499
 20
65.0213146860619
 30
0.0
 10
173.6369151420027
 20
65.03862427714003
 30
0.0
 10
173.5622975501491
 20
65.06084177192878
 30
0.0
 10
173.4890298058676
 20
65.08861552779442
 30
0.0
 10
173.4165186781963
 20
65.1200163850792
 30
0.0
 10
173.3460822122788
 20
65.15700314248451
 30
0.0
 10
173.2784219365412
 20
65.19815323513609
 30
0.0
 10
173.2140481900256
 20
65.24272922885166
 30
0.0
 10
173.1532981581391
 20
65.29049781889925
 30
0.0
 10
173.0967500569955
 20
65.34193004285717
 30
0.0
 10
173.0444780621812
 20
65.39695146186301
 30
0.0
 10
172.9957791247315
 20
65.45497554211398
 30
0.0
 10
172.9514585313208
 20
65.5168125146203
 30
0.0
 10
172.9106068139384
 20
65.58133482609679
 30
0.0
 10
172.8751760360999
 20
65.64897223555441
 30
0.0
 10
172.8440752130869
 20
65.71825807926385
 30
0.0
 10
172.8170338242287
 20
65.78904420940422
 30
0.0
 10
172.7954752097961
 20
65.86156761624073
 30
0.0
 10
172.7790095570443
 20
65.93578257799798
 30
0.0
 10
172.7667538511328
 20
66.01156751376031
 30
0.0
 10
172.7598024774165
 20
66.08915579396758
 30
0.0
 10
172.7587185106049
 20
66.14142658930848
 30
0.0
 10
172.7581730769231
 20
66.16772836538462
 30
0.0
  0
SPLINE
  5
A8
330
1F
100
AcDbEntity
  8
0
  6
Continuous
 62
     7
370
    15
100
AcDbSpline
210
0.0
220
0.0
230
1.0
 70
     8
 71
     3
 72
    31
 73
    27
 74
     0
 42
0.000000001
 43
0.00000001
 40
0.0
 40
0.0
 40
0.0
 40
0.0
 40
0.0420341186638442
 40
0.0839054330862314
 40
0.1250689344486268
 40
0.1661584697031401
 40
0.2072102728707307
 40
0.2484907320562527
 40
0.2898781122327909
 40
0.3321695142040857
 40
0.3744758421539223
 40
0.4162249804562074
 40
0.457609586958507
 40
0.4990731704672223
 40
0.5405533615534484
 40
0.5822488491953602
 40
0.6245497501260033
 40
0.667432800921036
 40
0.7103225433055249
 40
0.7524671185698638
 40
0.7940647568438072
 40
0.8352157072950152
 40
0.8762283442246851
 40
0.9174461887061484
 40
0.9586431404713152
 40
0.9999999999999999
 40
0.9999999999999999
 40
0.9999999999999999
 40
0.9999999999999999
 10
172.7581730769231
 20
66.16772836538462
 30
0.0
 10
172.7586440349016
 20
66.19403831675525
 30
0.0
 10
172.7595841267701
 20
66.24655631723682
 30
0.0
 10
172.7677039437531
 20
66.32446118826687
 30
0.0
 10
172.7792865155878
 20
66.4013228902363
 30
0.0
 10
172.7976178488913
 20
66.47634917591411
 30
0.0
 10
172.8196818514547
 20
66.55039448644231
 30
0.0
 10
172.8470082351317
 20
66.62291190047269
 30
0.0
 10
172.8798638239587
 20
66.69392350516284
 30
0.0
 10
172.9170655254509
 20
66.76348188725973
 30
0.0
 10
172.9588703809276
 20
66.83065365223601
 30
0.0
 10
173.0047105599455
 20
66.89444996673524
 30
0.0
 10
173.0546414030239
 20
66.95440137983941
 30
0.0
 10
173.1079740693367
 20
67.01111270539148
 30
0.0
 10
173.1653597605072
 20
67.06403677423783
 30
0.0
 10
173.2267687892774
 20
67.1130451352393
 30
0.0
 10
173.2915958306437
 20
67.15895928764093
 30
0.0
 10
173.3600418002829
 20
67.20078885777986
 30
0.0
 10
173.4310505741516
 20
67.2377841814087
 30
0.0
 10
173.5028181088637
 20
67.27154132290465
 30
0.0
 10
173.576295079204
 20
67.29833298847842
 30
0.0
 10
173.65011159711
 20
67.32193965688917
 30
0.0
 10
173.725567662645
 20
67.33866301255289
 30
0.0
 10
173.8017380840026
 20
67.35156461772115
 30
0.0
 10
173.878883633252
 20
67.35942475750838
 30
0.0
 10
173.9305480451879
 20
67.36040590959978
 30
0.0
 10
173.9564302884615
 20
67.36089743589743
 30
0.0
  0
LINE
  5
A9
330
1F
100
AcDbEntity
  8
0
  6
Continuous
 62
     7
370
    15
100
AcDbLine
 10
184.3591346154
 20
65.0
 30
0.0
 11
184.0741987179
 21
65.0
 31
0.0
  0
LINE
  5
AA
330
1F
100
AcDbEntity
  8
0
  6
Continuous
 62
     7
370
    15
100
AcDbLine
 10
184.0741987179
 20
65.0
 30
0.0
 11
184.0741987179
 21
68.2564102564
 31
0.0
  0
LINE
  5
AB
330
1F
100
AcDbEntity
  8
0
  6
Continuous
 62
     7
370
    15
100
AcDbLine
 10
184.0741987179
 20
68.2564102564
 30
0.0
 11
184.3591346154
 21
68.2564102564
 31
0.0
  0
LINE
  5
AC
330
1F
100
AcDbEntity
  8
0
  6
Continuous
 62
     7
370
    15
100
AcDbLine
 10
184.3591346154
 20
68.2564102564
 30
0.0
 11
184.3591346154
 21
65.0
 31
0.0
  0
LINE
  5
AD
330
1F
100
AcDbEntity
  8
0
  6
Continuous
 62
     7
370
    15
100
AcDbLine
 10
185.2546474359
 20
65.0
 30
0.0
 11
184.9697115385
 21
65.0
 31
0.0
  0
LINE
  5
AE
330
1F
100
AcDbEntity
  8
0
  6
Continuous
 62
     7
370
    15
100
AcDbLine
 10
184.9697115385
 20
65.0
 30
0.0
 11
184.9697115385
 21
68.2564102564
 31
0.0
  0
LINE
  5
AF
330
1F
100
AcDbEntity
  8
0
  6
Continuous
 62
     7
370
    15
100
AcDbLine
 10
184.9697115385
 20
68.2564102564
 30
0.0
 11
185.2546474359
 21
68.2564102564
 31
0.0
  0
LINE
  5
B0
330
1F
100
AcDbEntity
  8
0
  6
Continuous
 62
     7
370
    15
100
AcDbLine
 10
185.2546474359
 20
68.2564102564
 30
0.0
 11
185.2546474359
 21
65.0
 31
0.0
  0
LINE
  5
B1
330
1F
100
AcDbEntity
  8
0
  6
Continuous
 62
     7
370
    15
100
AcDbLine
 10
186.9642628205
 20
65.0
 30
0.0
 11
188.4703525641
 21
68.175
 31
0.0
  0
LINE
  5
B2
330
1F
100
AcDbEntity
  8
0
  6
Continuous
 62
     7
370
    15
100
AcDbLine
 10
188.4703525641
 20
68.175
 30
0.0
 11
188.5110576923
 21
68.175
 31
0.0
  0
LINE
  5
B3
330
1F
100
AcDbEntity
  8
0
  6
Continuous
 62
     7
370
    15
100
AcDbLine
 10
188.5110576923
 20
68.175
 30
0.0
 11
189.9764423077
 21
65.0
 31
0.0
  0
LINE
  5
B4
330
1F
100
AcDbEntity
  8
0
  6
Continuous
 62
     7
370
    15
100
AcDbLine
 10
189.9764423077
 20
65.0
 30
0.0
 11
189.6667017228
 21
65.0
 31
0.0
  0
LINE
  5
B5
330
1F
100
AcDbEntity
  8
0
  6
Continuous
 62
     7
370
    15
100
AcDbLine
 10
189.6667017228
 20
65.0
 30
0.0
 11
189.1973207131
 21
66.0176282051
 31
0.0
  0
LINE
  5
B6
330
1F
100
AcDbEntity
  8
0
  6
Continuous
 62
     7
370
    15
100
AcDbLine
 10
189.1973207131
 20
66.0176282051
 30
0.0
 11
187.7580128205
 21
66.0176282051
 31
0.0
  0
LINE
  5
B7
330
1F
100
AcDbEntity
  8
0
  6
Continuous
 62
     7
370
    15
100
AcDbLine
 10
187.7580128205
 20
66.0176282051
 30
0.0
 11
187.2752754407
 21
65.0
 31
0.0
  0
LINE
  5
B8
330
1F
100
AcDbEntity
  8
0
  6
Continuous
 62
     7
370
    15
100
AcDbLine
 10
187.2752754407
 20
65.0
 30
0.0
 11
186.9642628205
 21
65.0
 31
0.0
  0
CIRCLE
  5
B9
330
1F
100
AcDbEntity
  8
0
  6
Continuous
 62
     7
370
    15
100
AcDbCircle
 10
169.4
 20
40.0
 30
0.0
 40
2.0
  0
CIRCLE
  5
BA
330
1F
100
AcDbEntity
  8
0
  6
Continuous
 62
     7
370
    15
100
AcDbCircle
 10
169.4
 20
105.0
 30
0.0
 40
2.0
  0
LINE
  5
BB
330
1F
100
AcDbEntity
  8
0
  6
Continuous
 62
     7
370
    15
100
AcDbLine
 10
0.0
 20
5.0
 30
0.0
 11
0.0
 21
125.0
 31
0.0
  0
ARC
  5
BC
330
1F
100
AcDbEntity
  8
0
  6
Continuous
 62
     7
370
    15
100
AcDbCircle
 10
5.0
 20
5.0
 30
0.0
 40
5.0
100
AcDbArc
 50
180.0
 51
270.0
  0
LINE
  5
BD
330
1F
100
AcDbEntity
  8
0
  6
Continuous
 62
     7
370
    15
100
AcDbLine
 10
5.0
 20
0.0
 30
0.0
 11
10.0
 21
0.0
 31
0.0
  0
LINE
  5
BE
330
1F
100
AcDbEntity
  8
0
  6
Continuous
 62
     7
370
    15
100
AcDbLine
 10
10.0
 20
0.0
 30
0.0
 11
10.0
 21
65.0
 31
0.0
  0
LINE
  5
BF
330
1F
100
AcDbEntity
  8
0
  6
Continuous
 62
     7
370
    15
100
AcDbLine
 10
10.0
 20
65.0
 30
0.0
 11
13.4
 21
65.0
 31
0.0
  0
LINE
  5
C0
330
1F
100
AcDbEntity
  8
0
  6
Continuous
 62
     7
370
    15
100
AcDbLine
 10
13.4
 20
0.0
 30
0.0
 11
13.4
 21
65.0
 31
0.0
  0
LINE
  5
C1
330
1F
100
AcDbEntity
  8
0
  6
Continuous
 62
     7
370
    15
100
AcDbLine
 10
13.4
 20
0.0
 30
0.0
 11
44.2344565035
 21
0.0
 31
0.0
  0
ARC
  5
C2
330
1F
100
AcDbEntity
  8
0
  6
Continuous
 62
     7
370
    15
100
AcDbCircle
 10
64.2344565035
 20
0.0
 30
0.0
 40
20.00000000000001
100
AcDbArc
 50
0.0
 51
180.0
  0
LINE
  5
C3
330
1F
100
AcDbEntity
  8
0
  6
Continuous
 62
     7
370
    15
100
AcDbLine
 10
84.2344565035
 20
0.0
 30
0.0
 11
325.4
 21
0.0
 31
0.0
  0
LINE
  5
C4
330
1F
100
AcDbEntity
  8
0
  6
Continuous
 62
     7
370
    15
100
AcDbLine
 10
325.4
 20
0.0
 30
0.0
 11
325.4
 21
65.0
 31
0.0
  0
LINE
  5
C5
330
1F
100
AcDbEntity
  8
0
  6
Continuous
 62
     7
370
    15
100
AcDbLine
 10
328.8
 20
65.0
 30
0.0
 11
325.4
 21
65.0
 31
0.0
  0
LINE
  5
C6
330
1F
100
AcDbEntity
  8
0
  6
Continuous
 62
     7
370
    15
100
AcDbLine
 10
328.8
 20
0.0
 30
0.0
 11
328.8
 21
65.0
 31
0.0
  0
LINE
  5
C7
330
1F
100
AcDbEntity
  8
0
  6
Continuous
 62
     7
370
    15
100
AcDbLine
 10
328.8
 20
0.0
 30
0.0
 11
333.8
 21
0.0
 31
0.0
  0
ARC
  5
C8
330
1F
100
AcDbEntity
  8
0
  6
Continuous
 62
     7
370
    15
100
AcDbCircle
 10
333.8
 20
5.0
 30
0.0
 40
5.0
100
AcDbArc
 50
270.0
 51
0.0
  0
LINE
  5
C9
330
1F
100
AcDbEntity
  8
0
  6
Continuous
 62
     7
370
    15
100
AcDbLine
 10
338.8
 20
5.0
 30
0.0
 11
338.8
 21
125.0
 31
0.0
  0
ARC
  5
CA
330
1F
100
AcDbEntity
  8
0
  6
Continuous
 62
     7
370
    15
100
AcDbCircle
 10
333.8
 20
125.0
 30
0.0
 40
5.0
100
AcDbArc
 50
0.0
 51
90.0
  0
LINE
  5
CB
330
1F
100
AcDbEntity
  8
0
  6
Continuous
 62
     7
370
    15
100
AcDbLine
 10
5.0
 20
130.0
 30
0.0
 11
333.8
 21
130.0
 31
0.0
  0
ARC
  5
CC
330
1F
100
AcDbEntity
  8
0
  6
Continuous
 62
     7
370
    15
100
AcDbCircle
 10
5.0
 20
125.0
 30
0.0
 40
5.0
100
AcDbArc
 50
90.0
 51
180.0
  0
LINE
  5
CD
330
1F
100
AcDbEntity
  8
0
  6
Continuous
 62
     7
370
    15
100
AcDbLine
 10
149.4951923077
 20
67.2896634615
 30
0.0
 11
149.191811899
 21
65.0
 31
0.0
  0
LINE
  5
CE
330
1F
100
AcDbEntity
  8
0
  6
Continuous
 62
     7
370
    15
100
AcDbLine
 10
149.191811899
 20
65.0
 30
0.0
 11
148.9049679487
 21
65.0
 31
0.0
  0
LINE
  5
CF
330
1F
100
AcDbEntity
  8
0
  6
Continuous
 62
     7
370
    15
100
AcDbLine
 10
148.9049679487
 20
65.0
 30
0.0
 11
149.3241035657
 21
68.175
 31
0.0
  0
LINE
  5
D0
330
1F
100
AcDbEntity
  8
0
  6
Continuous
 62
     7
370
    15
100
AcDbLine
 10
149.3241035657
 20
68.175
 30
0.0
 11
149.3648086939
 21
68.175
 31
0.0
  0
LINE
  5
D1
330
1F
100
AcDbEntity
  8
0
  6
Continuous
 62
     7
370
    15
100
AcDbLine
 10
149.3648086939
 20
68.175
 30
0.0
 11
150.6756410256
 21
65.5698717949
 31
0.0
  0
LINE
  5
D2
330
1F
100
AcDbEntity
  8
0
  6
Continuous
 62
     7
370
    15
100
AcDbLine
 10
150.6756410256
 20
65.5698717949
 30
0.0
 11
151.9832932692
 21
68.175
 31
0.0
  0
LINE
  5
D3
330
1F
100
AcDbEntity
  8
0
  6
Continuous
 62
     7
370
    15
100
AcDbLine
 10
151.9832932692
 20
68.175
 30
0.0
 11
152.0246344151
 21
68.175
 31
0.0
  0
LINE
  5
D4
330
1F
100
AcDbEntity
  8
0
  6
Continuous
 62
     7
370
    15
100
AcDbLine
 10
152.0246344151
 20
68.175
 30
0.0
 11
152.4463141026
 21
65.0
 31
0.0
  0
LINE
  5
D5
330
1F
100
AcDbEntity
  8
0
  6
Continuous
 62
     7
370
    15
100
AcDbLine
 10
152.4463141026
 20
65.0
 30
0.0
 11
152.1601061699
 21
65.0
 31
0.0
  0
LINE
  5
D6
330
1F
100
AcDbEntity
  8
0
  6
Continuous
 62
     7
370
    15
100
AcDbLine
 10
152.1601061699
 20
65.0
 30
0.0
 11
151.8560897436
 21
67.2845753205
 31
0.0
  0
LINE
  5
D7
330
1F
100
AcDbEntity
  8
0
  6
Continuous
 62
     7
370
    15
100
AcDbLine
 10
151.8560897436
 20
67.2845753205
 30
0.0
 11
150.7099859776
 21
65.0
 31
0.0
  0
LINE
  5
D8
330
1F
100
AcDbEntity
  8
0
  6
Continuous
 62
     7
370
    15
100
AcDbLine
 10
150.7099859776
 20
65.0
 30
0.0
 11
150.6457481971
 21
65.0
 31
0.0
  0
LINE
  5
D9
330
1F
100
AcDbEntity
  8
0
  6
Continuous
 62
     7
370
    15
100
AcDbLine
 10
150.6457481971
 20
65.0
 30
0.0
 11
149.4951923077
 21
67.2896634615
 31
0.0
  0
LINE
  5
DA
330
1F
100
AcDbEntity
  8
0
  6
Continuous
 62
     7
370
    15
100
AcDbLine
 10
183.1786858974
 20
66.8908804087
 30
0.0
 11
183.1786858974
 21
67.3201923077
 31
0.0
  0
LINE
  5
DB
330
1F
100
AcDbEntity
  8
0
  6
Continuous
 62
     7
370
    15
100
AcDbLine
 10
183.1786858974
 20
67.3201923077
 30
0.0
 11
183.4636217949
 21
67.3201923077
 31
0.0
  0
LINE
  5
DC
330
1F
100
AcDbEntity
  8
0
  6
Continuous
 62
     7
370
    15
100
AcDbLine
 10
183.4636217949
 20
67.3201923077
 30
0.0
 11
183.4636217949
 21
65.0
 31
0.0
  0
LINE
  5
DD
330
1F
100
AcDbEntity
  8
0
  6
Continuous
 62
     7
370
    15
100
AcDbLine
 10
183.4636217949
 20
65.0
 30
0.0
 11
183.1786858974
 21
65.0
 31
0.0
  0
LINE
  5
DE
330
1F
100
AcDbEntity
  8
0
  6
Continuous
 62
     7
370
    15
100
AcDbLine
 10
183.1786858974
 20
65.0
 30
0.0
 11
183.1786858974
 21
65.4013271234
 31
0.0
  0
SPLINE
  5
DF
330
1F
100
AcDbEntity
  8
0
  6
Continuous
 62
     7
370
    15
100
AcDbSpline
210
0.0
220
0.0
230
1.0
 70
     8
 71
     3
 72
    15
 73
    11
 74
     0
 42
0.000000001
 43
0.00000001
 40
0.0
 40
0.0
 40
0.0
 40
0.0
 40
0.1342983790141818
 40
0.2620849753822896
 40
0.3862699121344931
 40
0.5071645966227989
 40
0.6273002357254976
 40
0.7481449416029835
 40
0.8723701771613422
 40
1.0
 40
1.0
 40
1.0
 40
1.0
 10
183.1786858974359
 20
65.40132712339744
 30
0.0
 10
183.1465559945107
 20
65.3650054917357
 30
0.0
 10
183.0838540849345
 20
65.29412337082113
 30
0.0
 10
182.979132499346
 20
65.20152025720446
 30
0.0
 10
182.8681270808203
 20
65.12497706552178
 30
0.0
 10
182.7513765966517
 20
65.06315535627927
 30
0.0
 10
182.6289864759034
 20
65.01671684803034
 30
0.0
 10
182.5012280253028
 20
64.9837094036805
 30
0.0
 10
182.3680491298034
 20
64.96248785320286
 30
0.0
 10
182.2771059222438
 20
64.96036874765021
 30
0.0
 10
182.2310196314102
 20
64.95929487179487
 30
0.0
  0
SPLINE
  5
E0
330
1F
100
AcDbEntity
  8
0
  6
Continuous
 62
     7
370
    15
100
AcDbSpline
210
0.0
220
0.0
230
1.0
 70
     8
 71
     3
 72
    23
 73
    19
 74
     0
 42
0.000000001
 43
0.00000001
 40
0.0
 40
0.0
 40
0.0
 40
0.0
 40
0.0646199913407614
 40
0.1274334841444647
 40
0.1890041265579309
 40
0.2499300706860443
 40
0.3106684537406684
 40
0.3723289611368266
 40
0.4349391099970011
 40
0.4995755441940397
 40
0.5641912077719267
 40
0.6267352169294734
 40
0.6881093335614047
 40
0.7492936065367488
 40
0.8103305278109514
 40
0.8719011702244158
 40
0.9350459146845318
 40
1.0
 40
1.0
 40
1.0
 40
1.0
 10
182.2310196314102
 20
64.95929487179487
 30
0.0
 10
182.1900458447192
 20
64.96040736663903
 30
0.0
 10
182.1092437231424
 20
64.96260125573038
 30
0.0
 10
181.9903816317377
 20
64.97962134544122
 30
0.0
 10
181.8759979483057
 20
65.0069541236451
 30
0.0
 10
181.7659845859624
 20
65.04496421625548
 30
0.0
 10
181.6610534254616
 20
65.09538396159874
 30
0.0
 10
181.5603060520516
 20
65.1557463794648
 30
0.0
 10
181.4642643957201
 20
65.22762913246663
 30
0.0
 10
181.3743923568027
 20
65.30980541532954
 30
0.0
 10
181.2916318993189
 20
65.39906372513182
 30
0.0
 10
181.219004887726
 20
65.49426432836856
 30
0.0
 10
181.1584503081434
 20
65.59499556118546
 30
0.0
 10
181.1078135206448
 20
65.69998206507026
 30
0.0
 10
181.068809693902
 20
65.8100320277904
 30
0.0
 10
181.0416193256823
 20
65.92476488727863
 30
0.0
 10
181.0246190633182
 20
66.04404498684691
 30
0.0
 10
181.0224260811254
 20
66.12527012565506
 30
0.0
 10
181.021314102564
 20
66.1664563301282
 30
0.0
  0
SPLINE
  5
E1
330
1F
100
AcDbEntity
  8
0
  6
Continuous
 62
     7
370
    15
100
AcDbSpline
210
0.0
220
0.0
230
1.0
 70
     8
 71
     3
 72
    23
 73
    19
 74
     0
 42
0.000000001
 43
0.00000001
 40
0.0
 40
0.0
 40
0.0
 40
0.0
 40
0.0637745323056357
 40
0.1260788099895054
 40
0.1869040927472069
 40
0.2475739349176238
 40
0.3080033561644476
 40
0.3691318984609798
 40
0.4320332277442056
 40
0.4967907944370885
 40
0.5616108232295589
 40
0.6249138657484551
 40
0.6867263492419261
 40
0.7480788332577694
 40
0.8095822911398952
 40
0.8716307425688221
 40
0.9348858208285483
 40
1.0
 40
1.0
 40
1.0
 40
1.0
 10
181.021314102564
 20
66.1664563301282
 30
0.0
 10
181.0224507266061
 20
66.20679126122333
 30
0.0
 10
181.0246977710208
 20
66.28653124409158
 30
0.0
 10
181.0414374775902
 20
66.40380549155019
 30
0.0
 10
181.0695870354454
 20
66.51676134235821
 30
0.0
 10
181.1090911543993
 20
66.62503514085402
 30
0.0
 10
181.1597477849731
 20
66.7287579006317
 30
0.0
 10
181.2213682639133
 20
66.82800298046666
 30
0.0
 10
181.2939570413188
 20
66.92304379102151
 30
0.0
 10
181.3776431533979
 20
67.01164554677852
 30
0.0
 10
181.4682982663312
 20
67.09348853258005
 30
0.0
 10
181.5652797579473
 20
67.16461673808857
 30
0.0
 10
181.6661751631454
 20
67.22604559380024
 30
0.0
 10
181.7725494655479
 20
67.27471696159246
 30
0.0
 10
181.8828281963435
 20
67.3140952207149
 30
0.0
 10
181.9979931078428
 20
67.34133941320614
 30
0.0
 10
182.1175650399269
 20
67.3573934117595
 30
0.0
 10
182.1987457005856
 20
67.35971820495374
 30
0.0
 10
182.2399238782051
 20
67.36089743589743
 30
0.0
  0
SPLINE
  5
E2
330
1F
100
AcDbEntity
  8
0
  6
Continuous
 62
     7
370
    15
100
AcDbSpline
210
0.0
220
0.0
230
1.0
 70
     8
 71
     3
 72
    15
 73
    11
 74
     0
 42
0.000000001
 43
0.00000001
 40
0.0
 40
0.0
 40
0.0
 40
0.0
 40
0.1298621417207355
 40
0.2546535308972847
 40
0.3760145541937079
 40
0.4952552518175968
 40
0.6147977192994398
 40
0.7381055541683273
 40
0.8651963000723457
 40
1.0
 40
1.0
 40
1.0
 40
1.0
 10
182.2399238782051
 20
67.36089743589743
 30
0.0
 10
182.2872766074979
 20
67.35959318985589
 30
0.0
 10
182.3801330747659
 20
67.35703562492407
 30
0.0
 10
182.5159577688865
 20
67.33575157942755
 30
0.0
 10
182.6444495452704
 20
67.29979382707992
 30
0.0
 10
182.7666002788977
 20
67.25088295387289
 30
0.0
 10
182.8819713298551
 20
67.18588732106286
 30
0.0
 10
182.9894704656275
 20
67.10389978499147
 30
0.0
 10
183.0902227254852
 20
67.00543742252566
 30
0.0
 10
183.1486248472047
 20
66.9298085193286
 30
0.0
 10
183.1786858974359
 20
66.89088040865384
 30
0.0
  0
LINE
  5
E3
330
1F
100
AcDbEntity
  8
0
  6
Continuous
 62
     7
370
    15
100
AcDbLine
 10
177.7954326923
 20
65.0
 30
0.0
 11
177.7547275641
 21
65.0
 31
0.0
  0
LINE
  5
E4
330
1F
100
AcDbEntity
  8
0
  6
Continuous
 62
     7
370
    15
100
AcDbLine
 10
177.7547275641
 20
65.0
 30
0.0
 11
176.9100961538
 21
68.175
 31
0.0
  0
LINE
  5
E5
330
1F
100
AcDbEntity
  8
0
  6
Continuous
 62
     7
370
    15
100
AcDbLine
 10
176.9100961538
 20
68.175
 30
0.0
 11
177.2045723157
 21
68.175
 31
0.0
  0
LINE
  5
E6
330
1F
100
AcDbEntity
  8
0
  6
Continuous
 62
     7
370
    15
100
AcDbLine
 10
177.2045723157
 20
68.175
 30
0.0
 11
177.8259615385
 21
65.8465394631
 31
0.0
  0
LINE
  5
E7
330
1F
100
AcDbEntity
  8
0
  6
Continuous
 62
     7
370
    15
100
AcDbLine
 10
177.8259615385
 20
65.8465394631
 30
0.0
 11
178.7500951522
 21
68.175
 31
0.0
  0
LINE
  5
E8
330
1F
100
AcDbEntity
  8
0
  6
Continuous
 62
     7
370
    15
100
AcDbLine
 10
178.7500951522
 20
68.175
 30
0.0
 11
178.7914362981
 21
68.175
 31
0.0
  0
LINE
  5
E9
330
1F
100
AcDbEntity
  8
0
  6
Continuous
 62
     7
370
    15
100
AcDbLine
 10
178.7914362981
 20
68.175
 30
0.0
 11
179.6983974359
 21
65.8624399038
 31
0.0
  0
LINE
  5
EA
330
1F
100
AcDbEntity
  8
0
  6
Continuous
 62
     7
370
    15
100
AcDbLine
 10
179.6983974359
 20
65.8624399038
 30
0.0
 11
180.3229667468
 21
68.175
 31
0.0
  0
LINE
  5
EB
330
1F
100
AcDbEntity
  8
0
  6
Continuous
 62
     7
370
    15
100
AcDbLine
 10
180.3229667468
 20
68.175
 30
0.0
 11
180.6142628205
 21
68.175
 31
0.0
  0
LINE
  5
EC
330
1F
100
AcDbEntity
  8
0
  6
Continuous
 62
     7
370
    15
100
AcDbLine
 10
180.6142628205
 20
68.175
 30
0.0
 11
179.7581830929
 21
65.0
 31
0.0
  0
LINE
  5
ED
330
1F
100
AcDbEntity
  8
0
  6
Continuous
 62
     7
370
    15
100
AcDbLine
 10
179.7581830929
 20
65.0
 30
0.0
 11
179.7174779647
 21
65.0
 31
0.0
  0
LINE
  5
EE
330
1F
100
AcDbEntity
  8
0
  6
Continuous
 62
     7
370
    15
100
AcDbLine
 10
179.7174779647
 20
65.0
 30
0.0
 11
178.7621794872
 21
67.4283153045
 31
0.0
  0
LINE
  5
EF
330
1F
100
AcDbEntity
  8
0
  6
Continuous
 62
     7
370
    15
100
AcDbLine
 10
178.7621794872
 20
67.4283153045
 30
0.0
 11
177.7954326923
 21
65.0
 31
0.0
  0
LINE
  5
F0
330
1F
100
AcDbEntity
  8
0
  6
Continuous
 62
     7
370
    15
100
AcDbLine
 10
166.5709935897
 20
66.8908804087
 30
0.0
 11
166.5709935897
 21
67.3201923077
 31
0.0
  0
LINE
  5
F1
330
1F
100
AcDbEntity
  8
0
  6
Continuous
 62
     7
370
    15
100
AcDbLine
 10
166.5709935897
 20
67.3201923077
 30
0.0
 11
166.8559294872
 21
67.3201923077
 31
0.0
  0
LINE
  5
F2
330
1F
100
AcDbEntity
  8
0
  6
Continuous
 62
     7
370
    15
100
AcDbLine
 10
166.8559294872
 20
67.3201923077
 30
0.0
 11
166.8559294872
 21
65.0
 31
0.0
  0
LINE
  5
F3
330
1F
100
AcDbEntity
  8
0
  6
Continuous
 62
     7
370
    15
100
AcDbLine
 10
166.8559294872
 20
65.0
 30
0.0
 11
166.5709935897
 21
65.0
 31
0.0
  0
LINE
  5
F4
330
1F
100
AcDbEntity
  8
0
  6
Continuous
 62
     7
370
    15
100
AcDbLine
 10
166.5709935897
 20
65.0
 30
0.0
 11
166.5709935897
 21
65.4013271234
 31
0.0
  0
SPLINE
  5
F5
330
1F
100
AcDbEntity
  8
0
  6
Continuous
 62
     7
370
    15
100
AcDbSpline
210
0.0
220
0.0
230
1.0
 70
     8
 71
     3
 72
    15
 73
    11
 74
     0
 42
0.000000001
 43
0.00000001
 40
0.0
 40
0.0
 40
0.0
 40
0.0
 40
0.1342983790141818
 40
0.2620849753822896
 40
0.3862699121344931
 40
0.5071645966227989
 40
0.6273002357254976
 40
0.7481449416029835
 40
0.8723701771613422
 40
1.0
 40
1.0
 40
1.0
 40
1.0
 10
166.5709935897436
 20
65.40132712339744
 30
0.0
 10
166.5388636868184
 20
65.3650054917357
 30
0.0
 10
166.4761617772423
 20
65.29412337082113
 30
0.0
 10
166.3714401916538
 20
65.20152025720446
 30
0.0
 10
166.2604347731281
 20
65.12497706552178
 30
0.0
 10
166.1436842889595
 20
65.06315535627927
 30
0.0
 10
166.0212941682111
 20
65.01671684803034
 30
0.0
 10
165.8935357176105
 20
64.9837094036805
 30
0.0
 10
165.7603568221111
 20
64.96248785320286
 30
0.0
 10
165.6694136145516
 20
64.96036874765021
 30
0.0
 10
165.6233273237179
 20
64.95929487179487
 30
0.0
  0
SPLINE
  5
F6
330
1F
100
AcDbEntity
  8
0
  6
Continuous
 62
     7
370
    15
100
AcDbSpline
210
0.0
220
0.0
230
1.0
 70
     8
 71
     3
 72
    23
 73
    19
 74
     0
 42
0.000000001
 43
0.00000001
 40
0.0
 40
0.0
 40
0.0
 40
0.0
 40
0.0646199913407614
 40
0.1274334841444647
 40
0.1890041265579309
 40
0.2499300706860443
 40
0.3106684537406684
 40
0.3723289611368266
 40
0.4349391099970011
 40
0.4995755441940397
 40
0.5641912077719267
 40
0.6267352169294734
 40
0.6881093335614047
 40
0.7492936065367488
 40
0.8103305278109514
 40
0.8719011702244158
 40
0.9350459146845318
 40
1.0
 40
1.0
 40
1.0
 40
1.0
 10
165.6233273237179
 20
64.95929487179487
 30
0.0
 10
165.582353537027
 20
64.96040736663903
 30
0.0
 10
165.5015514154501
 20
64.96260125573038
 30
0.0
 10
165.3826893240455
 20
64.97962134544122
 30
0.0
 10
165.2683056406134
 20
65.0069541236451
 30
0.0
 10
165.1582922782702
 20
65.04496421625548
 30
0.0
 10
165.0533611177693
 20
65.09538396159874
 30
0.0
 10
164.9526137443593
 20
65.1557463794648
 30
0.0
 10
164.8565720880279
 20
65.22762913246663
 30
0.0
 10
164.7667000491105
 20
65.30980541532954
 30
0.0
 10
164.6839395916267
 20
65.39906372513182
 30
0.0
 10
164.6113125800337
 20
65.49426432836856
 30
0.0
 10
164.5507580004512
 20
65.59499556118546
 30
0.0
 10
164.5001212129525
 20
65.69998206507026
 30
0.0
 10
164.4611173862098
 20
65.8100320277904
 30
0.0
 10
164.4339270179901
 20
65.92476488727863
 30
0.0
 10
164.416926755626
 20
66.04404498684691
 30
0.0
 10
164.4147337734332
 20
66.12527012565506
 30
0.0
 10
164.4136217948718
 20
66.1664563301282
 30
0.0
  0
SPLINE
  5
F7
330
1F
100
AcDbEntity
  8
0
  6
Continuous
 62
     7
370
    15
100
AcDbSpline
210
0.0
220
0.0
230
1.0
 70
     8
 71
     3
 72
    23
 73
    19
 74
     0
 42
0.000000001
 43
0.00000001
 40
0.0
 40
0.0
 40
0.0
 40
0.0
 40
0.0637745323056357
 40
0.1260788099895054
 40
0.1869040927472069
 40
0.2475739349176238
 40
0.3080033561644476
 40
0.3691318984609798
 40
0.4320332277442056
 40
0.4967907944370885
 40
0.5616108232295589
 40
0.6249138657484551
 40
0.6867263492419261
 40
0.7480788332577694
 40
0.8095822911398952
 40
0.8716307425688221
 40
0.9348858208285483
 40
1.0
 40
1.0
 40
1.0
 40
1.0
 10
164.4136217948718
 20
66.1664563301282
 30
0.0
 10
164.4147584189138
 20
66.20679126122333
 30
0.0
 10
164.4170054633286
 20
66.28653124409158
 30
0.0
 10
164.433745169898
 20
66.40380549155019
 30
0.0
 10
164.4618947277531
 20
66.51676134235821
 30
0.0
 10
164.501398846707
 20
66.62503514085402
 30
0.0
 10
164.5520554772809
 20
66.7287579006317
 30
0.0
 10
164.6136759562212
 20
66.82800298046666
 30
0.0
 10
164.6862647336266
 20
66.92304379102151
 30
0.0
 10
164.7699508457057
 20
67.01164554677852
 30
0.0
 10
164.8606059586389
 20
67.09348853258005
 30
0.0
 10
164.957587450255
 20
67.16461673808857
 30
0.0
 10
165.0584828554532
 20
67.22604559380024
 30
0.0
 10
165.1648571578556
 20
67.27471696159246
 30
0.0
 10
165.2751358886512
 20
67.3140952207149
 30
0.0
 10
165.3903008001505
 20
67.34133941320614
 30
0.0
 10
165.5098727322347
 20
67.3573934117595
 30
0.0
 10
165.5910533928934
 20
67.35971820495374
 30
0.0
 10
165.6322315705129
 20
67.36089743589743
 30
0.0
  0
SPLINE
  5
F8
330
1F
100
AcDbEntity
  8
0
  6
Continuous
 62
     7
370
    15
100
AcDbSpline
210
0.0
220
0.0
230
1.0
 70
     8
 71
     3
 72
    15
 73
    11
 74
     0
 42
0.000000001
 43
0.00000001
 40
0.0
 40
0.0
 40
0.0
 40
0.0
 40
0.1298621417207355
 40
0.2546535308972847
 40
0.3760145541937079
 40
0.4952552518175968
 40
0.6147977192994398
 40
0.7381055541683273
 40
0.8651963000723457
 40
1.0
 40
1.0
 40
1.0
 40
1.0
 10
165.6322315705129
 20
67.36089743589743
 30
0.0
 10
165.6795842998057
 20
67.35959318985589
 30
0.0
 10
165.7724407670736
 20
67.35703562492407
 30
0.0
 10
165.9082654611942
 20
67.33575157942755
 30
0.0
 10
166.0367572375782
 20
67.29979382707992
 30
0.0
 10
166.1589079712054
 20
67.25088295387289
 30
0.0
 10
166.2742790221629
 20
67.18588732106286
 30
0.0
 10
166.3817781579353
 20
67.10389978499147
 30
0.0
 10
166.482530417793
 20
67.00543742252566
 30
0.0
 10
166.5409325395125
 20
66.9298085193286
 30
0.0
 10
166.5709935897436
 20
66.89088040865384
 30
0.0
  0
SPLINE
  5
F9
330
1F
100
AcDbEntity
  8
0
  6
Continuous
 62
     7
370
    15
100
AcDbSpline
210
0.0
220
0.0
230
1.0
 70
     8
 71
     3
 72
    23
 73
    19
 74
     0
 42
0.000000001
 43
0.00000001
 40
0.0
 40
0.0
 40
0.0
 40
0.0
 40
0.0645578459297195
 40
0.1270135315497589
 40
0.1879548102020897
 40
0.2480139127896314
 40
0.3077476818488369
 40
0.3682345146974858
 40
0.4294698439426699
 40
0.4927434367465833
 40
0.5562577687060823
 40
0.6182167855431444
 40
0.6796554755875566
 40
0.7412455456206313
 40
0.8034152647056986
 40
0.8668154615439941
 40
0.9323283119492658
 40
1.0
 40
1.0
 40
1.0
 40
1.0
 10
160.8315705128205
 20
66.60594451121796
 30
0.0
 10
160.8329812955473
 20
66.66305410121612
 30
0.0
 10
160.8357569224877
 20
66.77541365421176
 30
0.0
 10
160.8593388226656
 20
66.94030859755262
 30
0.0
 10
160.897274444925
 20
67.09828879508376
 30
0.0
 10
160.9511559081505
 20
67.24905933481706
 30
0.0
 10
161.0194686196918
 20
67.39341323188474
 30
0.0
 10
161.1038570479605
 20
67.53024775342425
 30
0.0
 10
161.2033408126899
 20
67.6604379931127
 30
0.0
 10
161.3171396776601
 20
67.78200851750402
 30
0.0
 10
161.4419329032534
 20
67.89316921595422
 30
0.0
 10
161.5755721129956
 20
67.99096484364021
 30
0.0
 10
161.7177957363208
 20
68.07235144743937
 30
0.0
 10
161.8670369303407
 20
68.14038368049735
 30
0.0
 10
162.0244132271905
 20
68.1926754434849
 30
0.0
 10
162.1895888548972
 20
68.2292815485518
 30
0.0
 10
162.3622534418773
 20
68.25206636118621
 30
0.0
 10
162.4800572137163
 20
68.2549467283552
 30
0.0
 10
162.5399138621795
 20
68.25641025641026
 30
0.0
  0
SPLINE
  5
FA
330
1F
100
AcDbEntity
  8
0
  6
Continuous
 62
     7
370
    15
100
AcDbSpline
210
0.0
220
0.0
230
1.0
 70
     8
 71
     3
 72
    23
 73
    19
 74
     0
 42
0.000000001
 43
0.00000001
 40
0.0
 40
0.0
 40
0.0
 40
0.0
 40
0.0685475367089085
 40
0.1356829456230475
 40
0.2012149895263293
 40
0.2656822347547041
 40
0.3292668348172618
 40
0.3923954278443325
 40
0.4550697616521561
 40
0.5171268500645168
 40
0.5787900352866511
 40
0.6397398633435545
 40
0.7001915036663081
 40
0.7598062425966703
 40
0.8196283192750132
 40
0.8793547910462804
 40
0.9395116077646751
 40
1.0
 40
1.0
 40
1.0
 40
1.0
 10
162.5399138621795
 20
68.25641025641026
 30
0.0
 10
162.5763941331595
 20
68.25597288819425
 30
0.0
 10
162.6486031557055
 20
68.25510716185721
 30
0.0
 10
162.7554216332509
 20
68.24666516151036
 30
0.0
 10
162.8594186012637
 20
68.23259210443288
 30
0.0
 10
162.9606657063949
 20
68.213436812531
 30
0.0
 10
163.0596555082361
 20
68.18966302805504
 30
0.0
 10
163.1556314410331
 20
68.15869290029643
 30
0.0
 10
163.2491566784032
 20
68.12328118974582
 30
0.0
 10
163.3396413736775
 20
68.08249743850217
 30
0.0
 10
163.4266513870191
 20
68.03671689451171
 30
0.0
 10
163.5101596188113
 20
67.9864470074375
 30
0.0
 10
163.5895027406391
 20
67.93175009815855
 30
0.0
 10
163.6652390531494
 20
67.87309136046547
 30
0.0
 10
163.7361016160541
 20
67.80922981024752
 30
0.0
 10
163.8041023858682
 20
67.7419219910428
 30
0.0
 10
163.8669320782005
 20
67.66922916484297
 30
0.0
 10
163.9057153336594
 20
67.61806183193983
 30
0.0
 10
163.9251602564103
 20
67.59240785256412
 30
0.0
  0
LINE
  5
FB
330
1F
100
AcDbEntity
  8
0
  6
Continuous
 62
     7
370
    15
100
AcDbLine
 10
163.9251602564
 20
67.5924078526
 30
0.0
 11
163.6758413462
 21
67.4016025641
 31
0.0
  0
SPLINE
  5
FC
330
1F
100
AcDbEntity
  8
0
  6
Continuous
 62
     7
370
    15
100
AcDbSpline
210
0.0
220
0.0
230
1.0
 70
     8
 71
     3
 72
    19
 73
    15
 74
     0
 42
0.000000001
 43
0.00000001
 40
0.0
 40
0.0
 40
0.0
 40
0.0
 40
0.0631632593634673
 40
0.1254749410306441
 40
0.187121219816038
 40
0.2482943461143003
 40
0.3092948562551293
 40
0.3698500660670982
 40
0.4309733755473816
 40
0.4924559896728188
 40
0.6161479662918506
 40
0.7408436984673721
 40
0.868182648670048
 40
1.0
 40
1.0
 40
1.0
 40
1.0
 10
163.6758413461538
 20
67.40160256410256
 30
0.0
 10
163.6580560045736
 20
67.42279883673508
 30
0.0
 10
163.6227251063824
 20
67.46490561028412
 30
0.0
 10
163.5658842583786
 20
67.52403276848631
 30
0.0
 10
163.5066463394656
 20
67.57942768420548
 30
0.0
 10
163.4450339937912
 20
67.63135424644032
 30
0.0
 10
163.3799382211137
 20
67.677996598214
 30
0.0
 10
163.312935925181
 20
67.72178538445502
 30
0.0
 10
163.2429062698866
 20
67.76103540387437
 30
0.0
 10
163.1460671963152
 20
67.80862682699379
 30
0.0
 10
163.0193866482323
 20
67.85828941046917
 30
0.0
 10
162.8599156156446
 20
67.89993019886293
 30
0.0
 10
162.6934448334478
 20
67.92643797966225
 30
0.0
 10
162.5798727252146
 20
67.92930894298593
 30
0.0
 10
162.5221053685897
 20
67.93076923076924
 30
0.0
  0
SPLINE
  5
FD
330
1F
100
AcDbEntity
  8
0
  6
Continuous
 62
     7
370
    15
100
AcDbSpline
210
0.0
220
0.0
230
1.0
 70
     8
 71
     3
 72
    31
 73
    27
 74
     0
 42
0.000000001
 43
0.00000001
 40
0.0
 40
0.0
 40
0.0
 40
0.0
 40
0.0439549089061968
 40
0.0875018747976121
 40
0.1304626267314923
 40
0.1727520205665197
 40
0.2154030673796047
 40
0.2576498297432473
 40
0.3001527489572977
 40
0.3431214895020875
 40
0.3859251632064349
 40
0.4276857274028035
 40
0.468817950486588
 40
0.5094918001549963
 40
0.5498830310733525
 40
0.589980022966886
 40
0.6304052300068399
 40
0.6708686260826435
 40
0.7113839438381783
 40
0.7516272580635853
 40
0.7917755768651927
 40
0.8324589188037473
 40
0.8733190450172899
 40
0.9145429556263527
 40
0.9569235582098854
 40
1.0
 40
1.0
 40
1.0
 40
1.0
 10
162.5221053685897
 20
67.93076923076924
 30
0.0
 10
162.4902798041881
 20
67.93040277906388
 30
0.0
 10
162.4269240466416
 20
67.92967327667066
 30
0.0
 10
162.3329000742519
 20
67.92004928452045
 30
0.0
 10
162.2406318064399
 20
67.90652268683722
 30
0.0
 10
162.1501792620844
 20
67.88645185791302
 30
0.0
 10
162.0616575782666
 20
67.86107669632132
 30
0.0
 10
161.9744880421072
 20
67.8307550708334
 30
0.0
 10
161.8899327122911
 20
67.79324032324612
 30
0.0
 10
161.8068218819111
 20
67.75177640171381
 30
0.0
 10
161.7271935976511
 20
67.70494293398238
 30
0.0
 10
161.6518508043102
 20
67.6538586790613
 30
0.0
 10
161.5810682905532
 20
67.59909528443379
 30
0.0
 10
161.5147900638323
 20
67.54044749507675
 30
0.0
 10
161.4529483678423
 20
67.47817943093112
 30
0.0
 10
161.3959913073261
 20
67.41162749248957
 30
0.0
 10
161.3441159708711
 20
67.34100444937036
 30
0.0
 10
161.296294098135
 20
67.26724157251387
 30
0.0
 10
161.2534654043061
 20
67.19055371867363
 30
0.0
 10
161.2176061565729
 20
67.110657047633
 30
0.0
 10
161.1858515100007
 20
67.02891975416911
 30
0.0
 10
161.1607243398859
 20
66.94441834398874
 30
0.0
 10
161.1408356710462
 20
66.85774740640241
 30
0.0
 10
161.1271127193624
 20
66.76867433447633
 30
0.0
 10
161.1175981776361
 20
66.6773852108417
 30
0.0
 10
161.1168723028762
 20
66.61550962011293
 30
0.0
 10
161.1165064102564
 20
66.584319911859
 30
0.0
  0
SPLINE
  5
FE
330
1F
100
AcDbEntity
  8
0
  6
Continuous
 62
     7
370
    15
100
AcDbSpline
210
0.0
220
0.0
230
1.0
 70
     8
 71
     3
 72
    23
 73
    19
 74
     0
 42
0.000000001
 43
0.00000001
 40
0.0
 40
0.0
 40
0.0
 40
0.0
 40
0.0643232165798433
 40
0.1262901037035571
 40
0.186726469216136
 40
0.2461464323353427
 40
0.3055756426461361
 40
0.3654293856180545
 40
0.426326308948261
 40
0.4888399064006332
 40
0.5517249718140385
 40
0.6139185964661501
 40
0.6754837657683903
 40
0.7373338970992844
 40
0.800229044394529
 40
0.8645022981233194
 40
0.9310407391556884
 40
1.0
 40
1.0
 40
1.0
 40
1.0
 10
161.1165064102564
 20
66.58431991185898
 30
0.0
 10
161.1176510603709
 20
66.53739221450051
 30
0.0
 10
161.1198984290406
 20
66.44525590538711
 30
0.0
 10
161.1398994178135
 20
66.31029970868181
 30
0.0
 10
161.170293322054
 20
66.18101309746686
 30
0.0
 10
161.2158460239885
 20
66.05820424051338
 30
0.0
 10
161.2720154484255
 20
65.94035880141791
 30
0.0
 10
161.3429908602911
 20
65.82947069868494
 30
0.0
 10
161.4251930049
 20
65.72386424373518
 30
0.0
 10
161.5197847996968
 20
65.62603528399197
 30
0.0
 10
161.6235672184871
 20
65.53666926175724
 30
0.0
 10
161.7349171097188
 20
65.4579740913863
 30
0.0
 10
161.8535571422085
 20
65.39237416229177
 30
0.0
 10
161.9781773710207
 20
65.33778598223766
 30
0.0
 10
162.1097367743612
 20
65.29582452215016
 30
0.0
 10
162.2479987736937
 20
65.26628421011503
 30
0.0
 10
162.3926626550992
 20
65.24701451776657
 30
0.0
 10
162.4915134678565
 20
65.24516967216101
 30
0.0
 10
162.5418219150641
 20
65.24423076923078
 30
0.0
  0
SPLINE
  5
FF
330
1F
100
AcDbEntity
  8
0
  6
Continuous
 62
     7
370
    15
100
AcDbSpline
210
0.0
220
0.0
230
1.0
 70
     8
 71
     3
 72
    15
 73
    11
 74
     0
 42
0.000000001
 43
0.00000001
 40
0.0
 40
0.0
 40
0.0
 40
0.0
 40
0.1285151895116559
 40
0.2529486363526463
 40
0.3747547340060057
 40
0.4959397538670385
 40
0.6171806414298907
 40
0.7409094692781277
 40
0.8678111481861936
 40
1.0
 40
1.0
 40
1.0
 40
1.0
 10
162.5418219150641
 20
65.24423076923078
 30
0.0
 10
162.5972507829369
 20
65.2457627337191
 30
0.0
 10
162.7063480545999
 20
65.24877800630853
 30
0.0
 10
162.8663390499238
 20
65.27432246801287
 30
0.0
 10
163.0194972087442
 20
65.31574072204891
 30
0.0
 10
163.1658307693925
 20
65.37370526586703
 30
0.0
 10
163.3049271984498
 20
65.44905734846449
 30
0.0
 10
163.4370041688729
 20
65.5404047086841
 30
0.0
 10
163.5621731649729
 20
65.64861626768835
 30
0.0
 10
163.6374399710017
 20
65.73124167689308
 30
0.0
 10
163.6758413461538
 20
65.77339743589744
 30
0.0
  0
LINE
  5
100
330
1F
100
AcDbEntity
  8
0
  6
Continuous
 62
     7
370
    15
100
AcDbLine
 10
163.6758413462
 20
65.7733974359
 30
0.0
 11
163.9251602564
 21
65.5845002003
 31
0.0
  0
SPLINE
  5
101
330
1F
100
AcDbEntity
  8
0
  6
Continuous
 62
     7
370
    15
100
AcDbSpline
210
0.0
220
0.0
230
1.0
 70
     8
 71
     3
 72
    23
 73
    19
 74
     0
 42
0.000000001
 43
0.00000001
 40
0.0
 40
0.0
 40
0.0
 40
0.0
 40
0.0616742388774264
 40
0.123053061634794
 40
0.1834750007317056
 40
0.2437265005106066
 40
0.3042789165122464
 40
0.3648629209606771
 40
0.4259462039686135
 40
0.4873912299654068
 40
0.5492203840754754
 40
0.6111435886925979
 40
0.6735285303101516
 40
0.7369614566573002
 40
0.8007852828728467
 40
0.8660125956416248
 40
0.9321007477905872
 40
0.9999999999999999
 40
0.9999999999999999
 40
0.9999999999999999
 40
0.9999999999999999
 10
163.9251602564102
 20
65.58450020032052
 30
0.0
 10
163.9050959710181
 20
65.55861174750436
 30
0.0
 10
163.8650635070273
 20
65.50695884609854
 30
0.0
 10
163.8002408773326
 20
65.43414093799169
 30
0.0
 10
163.731953614695
 20
65.36564799150322
 30
0.0
 10
163.6596945063316
 20
65.30203222081828
 30
0.0
 10
163.5842947953896
 20
65.24202066987675
 30
0.0
 10
163.504400626334
 20
65.18731829436237
 30
0.0
 10
163.4210622897043
 20
65.13716156362051
 30
0.0
 10
163.3345621552684
 20
65.09123571067026
 30
0.0
 10
163.2449921279431
 20
65.05048935086947
 30
0.0
 10
163.1524595333886
 20
65.01560629008672
 30
0.0
 10
163.0573632256099
 20
64.98555728315363
 30
0.0
 10
162.9596988572646
 20
64.96083588341125
 30
0.0
 10
162.859263849286
 20
64.94153997161176
 30
0.0
 10
162.7564206335013
 20
64.92864069514542
 30
0.0
 10
162.6509472466956
 20
64.919803387051
 30
0.0
 10
162.5797896718173
 20
64.91899792055828
 30
0.0
 10
162.5437299679487
 20
64.91858974358975
 30
0.0
  0
SPLINE
  5
102
330
1F
100
AcDbEntity
  8
0
  6
Continuous
 62
     7
370
    15
100
AcDbSpline
210
0.0
220
0.0
230
1.0
 70
     8
 71
     3
 72
    23
 73
    19
 74
     0
 42
0.000000001
 43
0.00000001
 40
0.0
 40
0.0
 40
0.0
 40
0.0
 40
0.0696628008990821
 40
0.1377495622582699
 40
0.203916743517779
 40
0.2687798623293411
 40
0.3324137064772224
 40
0.394753540447139
 40
0.456180031659178
 40
0.5169956491967234
 40
0.5773959379659583
 40
0.6371983435092744
 40
0.6969991842614559
 40
0.756756194225563
 40
0.8165539052726092
 40
0.8769479965978677
 40
0.9381317879205983
 40
1.0
 40
1.0
 40
1.0
 40
1.0
 10
162.5437299679487
 20
64.91858974358975
 30
0.0
 10
162.5095817842606
 20
64.91882740826536
 30
0.0
 10
162.442057979673
 20
64.9192973607308
 30
0.0
 10
162.342364112139
 20
64.92691025545355
 30
0.0
 10
162.2453092781262
 20
64.93729680250763
 30
0.0
 10
162.1511708675185
 20
64.95293606425852
 30
0.0
 10
162.0594351615835
 20
64.97139128702169
 30
0.0
 10
161.9709337742239
 20
64.99613021267452
 30
0.0
 10
161.8847958333988
 20
65.02384267094395
 30
0.0
 10
161.801367410053
 20
65.05641362320522
 30
0.0
 10
161.7205775395232
 20
65.09316758879267
 30
0.0
 10
161.6426867963537
 20
65.13470707436726
 30
0.0
 10
161.5677310041061
 20
65.18068276588143
 30
0.0
 10
161.4949732294731
 20
65.23008123962289
 30
0.0
 10
161.4254882785679
 20
65.28448922060535
 30
0.0
 10
161.3586740091456
 20
65.34315109619081
 30
0.0
 10
161.2941557628489
 20
65.40586914880095
 30
0.0
 10
161.2542390414635
 20
65.45109462290439
 30
0.0
 10
161.2341696714743
 20
65.47383313301282
 30
0.0
  0
SPLINE
  5
103
330
1F
100
AcDbEntity
  8
0
  6
Continuous
 62
     7
370
    15
100
AcDbSpline
210
0.0
220
0.0
230
1.0
 70
     8
 71
     3
 72
    15
 73
    11
 74
     0
 42
0.000000001
 43
0.00000001
 40
0.0
 40
0.0
 40
0.0
 40
0.0
 40
0.1243285095938597
 40
0.2471560163611948
 40
0.3687797492913374
 40
0.4907338624016452
 40
0.6136137718478425
 40
0.7389575757222175
 40
0.8673105751912611
 40
1.0
 40
1.0
 40
1.0
 40
1.0
 10
161.2341696714743
 20
65.47383313301282
 30
0.0
 10
161.2020244805853
 20
65.51333121153051
 30
0.0
 10
161.1381221837486
 20
65.59185051311499
 30
0.0
 10
161.0563653136701
 20
65.71910993897086
 30
0.0
 10
160.986381460016
 20
65.85197752845109
 30
0.0
 10
160.9297975890243
 20
65.99115132098572
 30
0.0
 10
160.8855628239484
 20
66.13631902226813
 30
0.0
 10
160.854918454126
 20
66.2875538103407
 30
0.0
 10
160.8350052129212
 20
66.44471444362411
 30
0.0
 10
160.8327280223839
 20
66.55160924476559
 30
0.0
 10
160.8315705128205
 20
66.60594451121796
 30
0.0
  0
LINE
  5
104
330
1F
100
AcDbEntity
  8
0
  6
Continuous
 62
     7
370
    15
100
AcDbLine
 10
158.9591346154
 20
65.0
 30
0.0
 11
158.6741987179
 21
65.0
 31
0.0
  0
LINE
  5
105
330
1F
100
AcDbEntity
  8
0
  6
Continuous
 62
     7
370
    15
100
AcDbLine
 10
158.6741987179
 20
65.0
 30
0.0
 11
158.6741987179
 21
68.175
 31
0.0
  0
LINE
  5
106
330
1F
100
AcDbEntity
  8
0
  6
Continuous
 62
     7
370
    15
100
AcDbLine
 10
158.6741987179
 20
68.175
 30
0.0
 11
158.9591346154
 21
68.175
 31
0.0
  0
LINE
  5
107
330
1F
100
AcDbEntity
  8
0
  6
Continuous
 62
     7
370
    15
100
AcDbLine
 10
158.9591346154
 20
68.175
 30
0.0
 11
158.9591346154
 21
65.0
 31
0.0
  0
LINE
  5
108
330
1F
100
AcDbEntity
  8
0
  6
Continuous
 62
     7
370
    15
100
AcDbLine
 10
157.8600961538
 20
65.0
 30
0.0
 11
157.5751602564
 21
65.0
 31
0.0
  0
LINE
  5
109
330
1F
100
AcDbEntity
  8
0
  6
Continuous
 62
     7
370
    15
100
AcDbLine
 10
157.5751602564
 20
65.0
 30
0.0
 11
157.5751602564
 21
68.175
 31
0.0
  0
LINE
  5
10A
330
1F
100
AcDbEntity
  8
0
  6
Continuous
 62
     7
370
    15
100
AcDbLine
 10
157.5751602564
 20
68.175
 30
0.0
 11
157.8600961538
 21
68.175
 31
0.0
  0
LINE
  5
10B
330
1F
100
AcDbEntity
  8
0
  6
Continuous
 62
     7
370
    15
100
AcDbLine
 10
157.8600961538
 20
68.175
 30
0.0
 11
157.8600961538
 21
65.0
 31
0.0
  0
LINE
  5
10C
330
1F
100
AcDbEntity
  8
0
  6
Continuous
 62
     7
370
    15
100
AcDbLine
 10
156.7610576923
 20
65.0
 30
0.0
 11
156.4761217949
 21
65.0
 31
0.0
  0
LINE
  5
10D
330
1F
100
AcDbEntity
  8
0
  6
Continuous
 62
     7
370
    15
100
AcDbLine
 10
156.4761217949
 20
65.0
 30
0.0
 11
156.4761217949
 21
68.175
 31
0.0
  0
LINE
  5
10E
330
1F
100
AcDbEntity
  8
0
  6
Continuous
 62
     7
370
    15
100
AcDbLine
 10
156.4761217949
 20
68.175
 30
0.0
 11
156.7610576923
 21
68.175
 31
0.0
  0
LINE
  5
10F
330
1F
100
AcDbEntity
  8
0
  6
Continuous
 62
     7
370
    15
100
AcDbLine
 10
156.7610576923
 20
68.175
 30
0.0
 11
156.7610576923
 21
65.0
 31
0.0
  0
SPLINE
  5
110
330
1F
100
AcDbEntity
  8
0
  6
Continuous
 62
     7
370
    15
100
AcDbSpline
210
0.0
220
0.0
230
1.0
 70
     8
 71
     3
 72
    15
 73
    11
 74
     0
 42
0.000000001
 43
0.00000001
 40
0.0
 40
0.0
 40
0.0
 40
0.0
 40
0.1277566033101203
 40
0.2494143553365529
 40
0.3727964764554222
 40
0.5001113325158546
 40
0.6286099407651222
 40
0.7506433738258119
 40
0.8737683791425154
 40
0.9999999999999999
 40
0.9999999999999999
 40
0.9999999999999999
 40
0.9999999999999999
 10
155.5195512820512
 20
64.95929487179487
 30
0.0
 10
155.5018384962099
 20
64.96024156351835
 30
0.0
 10
155.4672584984065
 20
64.96208975374728
 30
0.0
 10
155.417559775069
 20
64.97765887087112
 30
0.0
 10
155.3718334535728
 20
65.00199158123522
 30
0.0
 10
155.3312046007827
 20
65.03579799198008
 30
0.0
 10
155.2980589872706
 20
65.07661955063186
 30
0.0
 10
155.2729988185397
 20
65.12215975168081
 30
0.0
 10
155.257949183418
 20
65.17185434133576
 30
0.0
 10
155.2559699132131
 20
65.20639348162665
 30
0.0
 10
155.2549679487179
 20
65.2238782051282
 30
0.0
  0
SPLINE
  5
111
330
1F
100
AcDbEntity
  8
0
  6
Continuous
 62
     7
370
    15
100
AcDbSpline
210
0.0
220
0.0
230
1.0
 70
     8
 71
     3
 72
    15
 73
    11
 74
     0
 42
0.000000001
 43
0.00000001
 40
0.0
 40
0.0
 40
0.0
 40
0.0
 40
0.1290969581672449
 40
0.2520459672599921
 40
0.3739049644020002
 40
0.5010378352202249
 40
0.6281707060384024
 40
0.7513764634091712
 40
0.8724260133704657
 40
1.0
 40
1.0
 40
1.0
 40
1.0
 10
155.2549679487179
 20
65.2238782051282
 30
0.0
 10
155.2559314244711
 20
65.2417937138087
 30
0.0
 10
155.2578124926356
 20
65.27677154580748
 30
0.0
 10
155.2730304130068
 20
65.32684502187628
 30
0.0
 10
155.2978645480919
 20
65.37235496319596
 30
0.0
 10
155.3314337278348
 20
65.41262900373667
 30
0.0
 10
155.3718236248193
 20
65.4463631997263
 30
0.0
 10
155.4174494680879
 20
65.47091483350299
 30
0.0
 10
155.4673781939352
 20
65.48546577884287
 30
0.0
 10
155.5018586380679
 20
65.48744563332143
 30
0.0
 10
155.5195512820512
 20
65.48846153846154
 30
0.0
  0
SPLINE
  5
112
330
1F
100
AcDbEntity
  8
0
  6
Continuous
 62
     7
370
    15
100
AcDbSpline
210
0.0
220
0.0
230
1.0
 70
     8
 71
     3
 72
    15
 73
    11
 74
     0
 42
0.000000001
 43
0.00000001
 40
0.0
 40
0.0
 40
0.0
 40
0.0
 40
0.127518926699937
 40
0.2499859477487656
 40
0.3717923515057058
 40
0.4988703527764534
 40
0.625948354047154
 40
0.7484917380160397
 40
0.8709587590649004
 40
1.0
 40
1.0
 40
1.0
 40
1.0
 10
155.5195512820512
 20
65.48846153846154
 30
0.0
 10
155.5372316888081
 20
65.48741091582457
 30
0.0
 10
155.5718920592652
 20
65.48535129297146
 30
0.0
 10
155.6220018399518
 20
65.47122102463203
 30
0.0
 10
155.6673541384062
 20
65.44613066834711
 30
0.0
 10
155.707751246177
 20
65.41269086226171
 30
0.0
 10
155.7410492641668
 20
65.37214551070761
 30
0.0
 10
155.7670337835971
 20
65.32715493635412
 30
0.0
 10
155.7810409630393
 20
65.2766256345146
 30
0.0
 10
155.783085583039
 20
65.24176442936961
 30
0.0
 10
155.7841346153846
 20
65.22387820512822
 30
0.0
  0
SPLINE
  5
113
330
1F
100
AcDbEntity
  8
0
  6
Continuous
 62
     7
370
    15
100
AcDbSpline
210
0.0
220
0.0
230
1.0
 70
     8
 71
     3
 72
    15
 73
    11
 74
     0
 42
0.000000001
 43
0.00000001
 40
0.0
 40
0.0
 40
0.0
 40
0.0
 40
0.1261777183170009
 40
0.2488206074857911
 40
0.371539969235175
 40
0.4999837069108835
 40
0.6272441978753992
 40
0.7492255210763056
 40
0.8722979504176569
 40
0.9999999999999999
 40
0.9999999999999999
 40
0.9999999999999999
 40
0.9999999999999999
 10
155.7841346153845
 20
65.2238782051282
 30
0.0
 10
155.7830500347084
 20
65.20642175598654
 30
0.0
 10
155.7809112575428
 20
65.17199789464308
 30
0.0
 10
155.7670658915972
 20
65.12184971069138
 30
0.0
 10
155.7408512317457
 20
65.07683101877927
 30
0.0
 10
155.7079809167375
 20
65.03573550776281
 30
0.0
 10
155.6673441520097
 20
65.00222486085396
 30
0.0
 10
155.6218946198977
 20
64.9773479695611
 30
0.0
 10
155.5720096928553
 20
64.9622059592147
 30
0.0
 10
155.5372513138179
 20
64.96027710398637
 30
0.0
 10
155.5195512820512
 20
64.95929487179487
 30
0.0
  0
LINE
  5
114
330
1F
100
AcDbEntity
  8
0
  6
Continuous
 62
     7
370
    15
100
AcDbLine
 10
153.3011217949
 20
65.0
 30
0.0
 11
153.0161858974
 21
65.0
 31
0.0
  0
LINE
  5
115
330
1F
100
AcDbEntity
  8
0
  6
Continuous
 62
     7
370
    15
100
AcDbLine
 10
153.0161858974
 20
65.0
 30
0.0
 11
153.0161858974
 21
68.2564102564
 31
0.0
  0
LINE
  5
116
330
1F
100
AcDbEntity
  8
0
  6
Continuous
 62
     7
370
    15
100
AcDbLine
 10
153.0161858974
 20
68.2564102564
 30
0.0
 11
153.3011217949
 21
68.2564102564
 31
0.0
  0
LINE
  5
117
330
1F
100
AcDbEntity
  8
0
  6
Continuous
 62
     7
370
    15
100
AcDbLine
 10
153.3011217949
 20
68.2564102564
 30
0.0
 11
153.3011217949
 21
66.3737980769
 31
0.0
  0
LINE
  5
118
330
1F
100
AcDbEntity
  8
0
  6
Continuous
 62
     7
370
    15
100
AcDbLine
 10
153.3011217949
 20
66.3737980769
 30
0.0
 11
154.3569110577
 21
67.3201923077
 31
0.0
  0
LINE
  5
119
330
1F
100
AcDbEntity
  8
0
  6
Continuous
 62
     7
370
    15
100
AcDbLine
 10
154.3569110577
 20
67.3201923077
 30
0.0
 11
154.7665064103
 21
67.3201923077
 31
0.0
  0
LINE
  5
11A
330
1F
100
AcDbEntity
  8
0
  6
Continuous
 62
     7
370
    15
100
AcDbLine
 10
154.7665064103
 20
67.3201923077
 30
0.0
 11
153.5415364583
 21
66.2211538462
 31
0.0
  0
LINE
  5
11B
330
1F
100
AcDbEntity
  8
0
  6
Continuous
 62
     7
370
    15
100
AcDbLine
 10
153.5415364583
 20
66.2211538462
 30
0.0
 11
154.8886217949
 21
65.0
 31
0.0
  0
LINE
  5
11C
330
1F
100
AcDbEntity
  8
0
  6
Continuous
 62
     7
370
    15
100
AcDbLine
 10
154.8886217949
 20
65.0
 30
0.0
 11
154.4796624599
 21
65.0
 31
0.0
  0
LINE
  5
11D
330
1F
100
AcDbEntity
  8
0
  6
Continuous
 62
     7
370
    15
100
AcDbLine
 10
154.4796624599
 20
65.0
 30
0.0
 11
153.3011217949
 21
66.069145633
 31
0.0
  0
LINE
  5
11E
330
1F
100
AcDbEntity
  8
0
  6
Continuous
 62
     7
370
    15
100
AcDbLine
 10
153.3011217949
 20
66.069145633
 30
0.0
 11
153.3011217949
 21
65.0
 31
0.0
  0
MTEXT
  5
120
330
1F
100
AcDbEntity
  8
0
  6
Continuous
 62
     7
100
AcDbMText
 10
0.0
 20
-1.0195663917
 30
0.0
 40
4.83362
 41
0.0
 71
     1
 72
     1
  1
SOLIDWORKS Educational Product.
  7
SLDTEXTSTYLE0
 73
     1
 44
1.0
  0
MTEXT
  5
121
330
1F
100
AcDbEntity
  8
0
  6
Continuous
 62
     7
100
AcDbMText
 10
0.0
 20
-8.2699963917
 30
0.0
 40
4.83362
 41
0.0
 71
     1
 72
     1
  1
For Instructional Use Only.
  7
SLDTEXTSTYLE0
 73
     1
 44
1.0
  0
ENDSEC
  0
SECTION
  2
OBJECTS
  0
DICTIONARY
  5
C
330
0
100
AcDbDictionary
281
     1
  3
ACAD_GROUP
350
D
  3
ACAD_LAYOUT
350
1A
  3
ACAD_MLINESTYLE
350
17
  3
ACAD_PLOTSETTINGS
350
19
  3
ACAD_PLOTSTYLENAME
350
E
  3
ACAD_SCALELIST
350
47
  0
DICTIONARY
  5
D
102
{ACAD_REACTORS
330
C
102
}
330
C
100
AcDbDictionary
281
     1
  0
DICTIONARY
  5
1A
102
{ACAD_REACTORS
330
C
102
}
330
C
100
AcDbDictionary
281
     1
  3
Layout1
350
1E
  3
Layout2
350
26
  3
Model
350
22
  0
DICTIONARY
  5
17
102
{ACAD_REACTORS
330
C
102
}
330
C
100
AcDbDictionary
281
     1
  3
Standard
350
18
  0
DICTIONARY
  5
19
102
{ACAD_REACTORS
330
C
102
}
330
C
100
AcDbDictionary
281
     1
  0
ACDBDICTIONARYWDFLT
  5
E
102
{ACAD_REACTORS
330
C
102
}
330
C
100
AcDbDictionary
281
     1
  3
Normal
350
F
100
AcDbDictionaryWithDefault
340
F
  0
DICTIONARY
  5
47
102
{ACAD_REACTORS
330
C
102
}
330
C
100
AcDbDictionary
281
     1
  3
A0
350
48
  3
A1
350
49
  3
A2
350
4A
  3
A3
350
4B
  3
A4
350
4C
  3
A5
350
4D
  3
A6
350
4E
  3
A7
350
4F
  3
A8
350
50
  3
A9
350
51
  3
B0
350
52
  3
B1
350
53
  3
B2
350
54
  3
B3
350
55
  3
B4
350
56
  3
B5
350
57
  3
B6
350
58
  3
B7
350
59
  3
B8
350
5A
  3
B9
350
5B
  3
C0
350
5C
  3
C1
350
5D
  3
C2
350
5E
  3
C3
350
5F
  3
C4
350
60
  3
C5
350
61
  3
C6
350
62
  3
C7
350
63
  3
C8
350
64
  3
C9
350
65
  3
D0
350
66
  3
D1
350
67
  3
D2
350
68
  0
LAYOUT
  5
1E
102
{ACAD_REACTORS
330
1A
102
}
330
1A
100
AcDbPlotSettings
  1

  2
none_device
  4

  6

 40
0.0
 41
0.0
 42
0.0
 43
0.0
 44
0.0
 45
0.0
 46
0.0
 47
0.0
 48
0.0
 49
0.0
140
0.0
141
0.0
142
1.0
143
1.0
 70
   688
 72
     1
 73
     0
 74
     5
  7

 75
    16
147
1.0
148
0.0
149
0.0
100
AcDbLayout
  1
Layout1
 70
     1
 71
     1
 10
0.0
 20
0.0
 11
420.0
 21
297.0
 12
0.0
 22
0.0
 32
0.0
 14
1.0000000000E+20
 24
1.0000000000E+20
 34
1.0000000000E+20
 15
-1.0000000000E+20
 25
-1.0000000000E+20
 35
-1.0000000000E+20
146
0.0
 13
0.0
 23
0.0
 33
0.0
 16
1.0
 26
0.0
 36
0.0
 17
0.0
 27
1.0
 37
0.0
 76
     0
330
1B
  0
LAYOUT
  5
26
102
{ACAD_REACTORS
330
1A
102
}
330
1A
100
AcDbPlotSettings
  1

  2
none_device
  4

  6

 40
0.0
 41
0.0
 42
0.0
 43
0.0
 44
0.0
 45
0.0
 46
0.0
 47
0.0
 48
0.0
 49
0.0
140
0.0
141
0.0
142
1.0
143
1.0
 70
   688
 72
     1
 73
     0
 74
     5
  7

 75
    16
147
1.0
148
0.0
149
0.0
100
AcDbLayout
  1
Layout2
 70
     1
 71
     2
 10
0.0
 20
0.0
 11
0.0
 21
0.0
 12
0.0
 22
0.0
 32
0.0
 14
0.0
 24
0.0
 34
0.0
 15
0.0
 25
0.0
 35
0.0
146
0.0
 13
0.0
 23
0.0
 33
0.0
 16
1.0
 26
0.0
 36
0.0
 17
0.0
 27
1.0
 37
0.0
 76
     0
330
23
  0
LAYOUT
  5
22
102
{ACAD_REACTORS
330
1A
102
}
330
1A
100
AcDbPlotSettings
  1

  2
none_device
  4
ANSI_A_(11.00_x_8.50_Inches)
  6

 40
6.35
 41
19.05
 42
6.35000508
 43
19.05000254
 44
279.4
 45
215.9
 46
-4.95300254
 47
35.8321415871
 48
0.0
 49
0.0
140
0.0
141
0.0
142
0.0321428571
143
1.0
 70
  1696
 72
     0
 73
     0
 74
     0
  7

 75
     0
147
0.0179189148
148
-1300.4909072572
149
0.0
100
AcDbLayout
  1
Model
 70
     1
 71
     0
 10
0.0
 20
0.0
 11
420.0
 21
297.0
 12
0.0
 22
0.0
 32
0.0
 14
0.0
 24
0.0
 34
0.0
 15
338.8
 25
130.0
 35
0.0
146
0.0
 13
0.0
 23
0.0
 33
0.0
 16
1.0
 26
0.0
 36
0.0
 17
0.0
 27
1.0
 37
0.0
 76
     0
330
1F
331
29
  0
MLINESTYLE
  5
18
102
{ACAD_REACTORS
330
17
102
}
330
17
100
AcDbMlineStyle
  2
Standard
 70
     0
  3

 62
   256
 51
90.0
 52
90.0
 71
     2
 49
0.5
 62
   256
  6
BYLAYER
 49
-0.5
 62
   256
  6
BYLAYER
  0
ACDBPLACEHOLDER
  5
F
102
{ACAD_REACTORS
330
E
102
}
330
E
  0
SCALE
  5
48
102
{ACAD_REACTORS
330
47
102
}
330
47
100
AcDbScale
 70
     0
300
1:1
140
1.0
141
1.0
290
     1
  0
SCALE
  5
49
102
{ACAD_REACTORS
330
47
102
}
330
47
100
AcDbScale
 70
     0
300
1:2
140
1.0
141
2.0
290
     0
  0
SCALE
  5
4A
102
{ACAD_REACTORS
330
47
102
}
330
47
100
AcDbScale
 70
     0
300
1:4
140
1.0
141
4.0
290
     0
  0
SCALE
  5
4B
102
{ACAD_REACTORS
330
47
102
}
330
47
100
AcDbScale
 70
     0
300
1:5
140
1.0
141
5.0
290
     0
  0
SCALE
  5
4C
102
{ACAD_REACTORS
330
47
102
}
330
47
100
AcDbScale
 70
     0
300
1:8
140
1.0
141
8.0
290
     0
  0
SCALE
  5
4D
102
{ACAD_REACTORS
330
47
102
}
330
47
100
AcDbScale
 70
     0
300
1:10
140
1.0
141
10.0
290
     0
  0
SCALE
  5
4E
102
{ACAD_REACTORS
330
47
102
}
330
47
100
AcDbScale
 70
     0
300
1:16
140
1.0
141
16.0
290
     0
  0
SCALE
  5
4F
102
{ACAD_REACTORS
330
47
102
}
330
47
100
AcDbScale
 70
     0
300
1:20
140
1.0
141
20.0
290
     0
  0
SCALE
  5
50
102
{ACAD_REACTORS
330
47
102
}
330
47
100
AcDbScale
 70
     0
300
1:30
140
1.0
141
30.0
290
     0
  0
SCALE
  5
51
102
{ACAD_REACTORS
330
47
102
}
330
47
100
AcDbScale
 70
     0
300
1:40
140
1.0
141
40.0
290
     0
  0
SCALE
  5
52
102
{ACAD_REACTORS
330
47
102
}
330
47
100
AcDbScale
 70
     0
300
1:50
140
1.0
141
50.0
290
     0
  0
SCALE
  5
53
102
{ACAD_REACTORS
330
47
102
}
330
47
100
AcDbScale
 70
     0
300
1:100
140
1.0
141
100.0
290
     0
  0
SCALE
  5
54
102
{ACAD_REACTORS
330
47
102
}
330
47
100
AcDbScale
 70
     0
300
2:1
140
2.0
141
1.0
290
     0
  0
SCALE
  5
55
102
{ACAD_REACTORS
330
47
102
}
330
47
100
AcDbScale
 70
     0
300
4:1
140
4.0
141
1.0
290
     0
  0
SCALE
  5
56
102
{ACAD_REACTORS
330
47
102
}
330
47
100
AcDbScale
 70
     0
300
8:1
140
8.0
141
1.0
290
     0
  0
SCALE
  5
57
102
{ACAD_REACTORS
330
47
102
}
330
47
100
AcDbScale
 70
     0
300
10:1
140
10.0
141
1.0
290
     0
  0
SCALE
  5
58
102
{ACAD_REACTORS
330
47
102
}
330
47
100
AcDbScale
 70
     0
300
100:1
140
100.0
141
1.0
290
     0
  0
SCALE
  5
59
102
{ACAD_REACTORS
330
47
102
}
330
47
100
AcDbScale
 70
     0
300
1/128" = 1'-0"
140
0.0078125
141
12.0
290
     0
  0
SCALE
  5
5A
102
{ACAD_REACTORS
330
47
102
}
330
47
100
AcDbScale
 70
     0
300
1/64" = 1'-0"
140
0.015625
141
12.0
290
     0
  0
SCALE
  5
5B
102
{ACAD_REACTORS
330
47
102
}
330
47
100
AcDbScale
 70
     0
300
1/32" = 1'-0"
140
0.03125
141
12.0
290
     0
  0
SCALE
  5
5C
102
{ACAD_REACTORS
330
47
102
}
330
47
100
AcDbScale
 70
     0
300
1/16" = 1'-0"
140
0.0625
141
12.0
290
     0
  0
SCALE
  5
5D
102
{ACAD_REACTORS
330
47
102
}
330
47
100
AcDbScale
 70
     0
300
3/32" = 1'-0"
140
0.09375
141
12.0
290
     0
  0
SCALE
  5
5E
102
{ACAD_REACTORS
330
47
102
}
330
47
100
AcDbScale
 70
     0
300
1/8" = 1'-0"
140
0.125
141
12.0
290
     0
  0
SCALE
  5
5F
102
{ACAD_REACTORS
330
47
102
}
330
47
100
AcDbScale
 70
     0
300
3/16" = 1'-0"
140
0.1875
141
12.0
290
     0
  0
SCALE
  5
60
102
{ACAD_REACTORS
330
47
102
}
330
47
100
AcDbScale
 70
     0
300
1/4" = 1'-0"
140
0.25
141
12.0
290
     0
  0
SCALE
  5
61
102
{ACAD_REACTORS
330
47
102
}
330
47
100
AcDbScale
 70
     0
300
3/8" = 1'-0"
140
0.375
141
12.0
290
     0
  0
SCALE
  5
62
102
{ACAD_REACTORS
330
47
102
}
330
47
100
AcDbScale
 70
     0
300
1/2" = 1'-0"
140
0.5
141
12.0
290
     0
  0
SCALE
  5
63
102
{ACAD_REACTORS
330
47
102
}
330
47
100
AcDbScale
 70
     0
300
3/4" = 1'-0"
140
0.75
141
12.0
290
     0
  0
SCALE
  5
64
102
{ACAD_REACTORS
330
47
102
}
330
47
100
AcDbScale
 70
     0
300
1" = 1'-0"
140
1.0
141
12.0
290
     0
  0
SCALE
  5
65
102
{ACAD_REACTORS
330
47
102
}
330
47
100
AcDbScale
 70
     0
300
1-1/2" = 1'-0"
140
1.5
141
12.0
290
     0
  0
SCALE
  5
66
102
{ACAD_REACTORS
330
47
102
}
330
47
100
AcDbScale
 70
     0
300
3" = 1'-0"
140
3.0
141
12.0
290
     0
  0
SCALE
  5
67
102
{ACAD_REACTORS
330
47
102
}
330
47
100
AcDbScale
 70
     0
300
6" = 1'-0"
140
6.0
141
12.0
290
     0
  0
SCALE
  5
68
102
{ACAD_REACTORS
330
47
102
}
330
47
100
AcDbScale
 70
     0
300
1'-0" = 1'-0"
140
12.0
141
12.0
290
     0
  0
ENDSEC
  0
EOF
