  0
SECTION
  2
HEADER
  9
$ACADVER
  1
AC1015
  9
$ACADMAINTVER
 70
     6
  9
$DWGCODEPAGE
  3
ANSI_1252
  9
$INSBASE
 10
0.0
 20
0.0
 30
0.0
  9
$EXTMIN
 10
0.0
 20
0.0
 30
0.0
  9
$EXTMAX
 10
17.8
 20
50.0
 30
0.0
  9
$LIMMIN
 10
0.0
 20
0.0
  9
$LIMMAX
 10
420.0
 20
297.0
  9
$ORTHOMODE
 70
     0
  9
$REGENMODE
 70
     1
  9
$FILLMODE
 70
     1
  9
$QTEXTMODE
 70
     0
  9
$MIRRTEXT
 70
     1
  9
$LTSCALE
 40
1.0
  9
$ATTMODE
 70
     1
  9
$TEXTSIZE
 40
6.35
  9
$TRACEWID
 40
1.0
  9
$TEXTSTYLE
  7
Standard
  9
$CLAYER
  8
0
  9
$CELTYPE
  6
ByLayer
  9
$CECOLOR
 62
   256
  9
$CELTSCALE
 40
1.0
  9
$DISPSILH
 70
     0
  9
$DIMSCALE
 40
1.0
  9
$DIMASZ
 40
5.9944
  9
$DIMEXO
 40
0.9906
  9
$DIMDLI
 40
3.75
  9
$DIMRND
 40
0.0
  9
$DIMDLE
 40
0.0
  9
$DIMEXE
 40
0.9906
  9
$DIMTP
 40
0.0
  9
$DIMTM
 40
0.0
  9
$DIMTXT
 40
6.35
  9
$DIMCEN
 40
2.5
  9
$DIMTSZ
 40
0.0
  9
$DIMTOL
 70
     0
  9
$DIMLIM
 70
     0
  9
$DIMTIH
 70
     1
  9
$DIMTOH
 70
     1
  9
$DIMSE1
 70
     0
  9
$DIMSE2
 70
     0
  9
$DIMTAD
 70
     1
  9
$DIMZIN
 70
     0
  9
$DIMBLK
  1

  9
$DIMASO
 70
     1
  9
$DIMSHO
 70
     1
  9
$DIMPOST
  1

  9
$DIMAPOST
  1

  9
$DIMALT
 70
     0
  9
$DIMALTD
 70
     3
  9
$DIMALTF
 40
0.0393700787
  9
$DIMLFAC
 40
1.0
  9
$DIMTOFL
 70
     1
  9
$DIMTVP
 40
0.0
  9
$DIMTIX
 70
     0
  9
$DIMSOXD
 70
     0
  9
$DIMSAH
 70
     0
  9
$DIMBLK1
  1

  9
$DIMBLK2
  1

  9
$DIMSTYLE
  2
ISO-25
  9
$DIMCLRD
 70
     0
  9
$DIMCLRE
 70
     0
  9
$DIMCLRT
 70
     0
  9
$DIMTFAC
 40
1.0
  9
$DIMGAP
 40
1.524
  9
$DIMJUST
 70
     0
  9
$DIMSD1
 70
     0
  9
$DIMSD2
 70
     0
  9
$DIMTOLJ
 70
     0
  9
$DIMTZIN
 70
     0
  9
$DIMALTZ
 70
     0
  9
$DIMALTTZ
 70
     0
  9
$DIMUPT
 70
     0
  9
$DIMDEC
 70
     2
  9
$DIMTDEC
 70
     2
  9
$DIMALTU
 70
     2
  9
$DIMALTTD
 70
     3
  9
$DIMTXSTY
  7
Standard
  9
$DIMAUNIT
 70
     0
  9
$DIMADEC
 70
     2
  9
$DIMALTRND
 40
0.0
  9
$DIMAZIN
 70
     0
  9
$DIMDSEP
 70
    44
  9
$DIMATFIT
 70
     3
  9
$DIMFRAC
 70
     0
  9
$DIMLDRBLK
  1

  9
$DIMLUNIT
 70
     2
  9
$DIMLWD
 70
    -2
  9
$DIMLWE
 70
    -2
  9
$DIMTMOVE
 70
     0
  9
$LUNITS
 70
     2
  9
$LUPREC
 70
     2
  9
$SKETCHINC
 40
1.0
  9
$FILLETRAD
 40
10.0
  9
$AUNITS
 70
     0
  9
$AUPREC
 70
     2
  9
$MENU
  1
.
  9
$ELEVATION
 40
0.0
  9
$PELEVATION
 40
0.0
  9
$THICKNESS
 40
0.0
  9
$LIMCHECK
 70
     0
  9
$CHAMFERA
 40
0.0
  9
$CHAMFERB
 40
0.0
  9
$CHAMFERC
 40
0.0
  9
$CHAMFERD
 40
0.0
  9
$SKPOLY
 70
     0
  9
$TDCREATE
 40
2457988.455494444
  9
$TDUCREATE
 40
2457988.413827778
  9
$TDUPDATE
 40
2457988.455519143
  9
$TDUUPDATE
 40
2457988.413852477
  9
$TDINDWG
 40
0.0000000116
  9
$TDUSRTIMER
 40
0.0000000116
  9
$USRTIMER
 70
     1
  9
$ANGBASE
 50
0.0
  9
$ANGDIR
 70
     0
  9
$PDMODE
 70
     0
  9
$PDSIZE
 40
-1.0
  9
$PLINEWID
 40
0.0
  9
$SPLFRAME
 70
     0
  9
$SPLINETYPE
 70
     6
  9
$SPLINESEGS
 70
     8
  9
$HANDSEED
  5
FC
  9
$SURFTAB1
 70
     6
  9
$SURFTAB2
 70
     6
  9
$SURFTYPE
 70
     6
  9
$SURFU
 70
     6
  9
$SURFV
 70
     6
  9
$UCSBASE
  2

  9
$UCSNAME
  2

  9
$UCSORG
 10
0.0
 20
0.0
 30
0.0
  9
$UCSXDIR
 10
1.0
 20
0.0
 30
0.0
  9
$UCSYDIR
 10
0.0
 20
1.0
 30
0.0
  9
$UCSORTHOREF
  2

  9
$UCSORTHOVIEW
 70
     0
  9
$UCSORGTOP
 10
0.0
 20
0.0
 30
0.0
  9
$UCSORGBOTTOM
 10
0.0
 20
0.0
 30
0.0
  9
$UCSORGLEFT
 10
0.0
 20
0.0
 30
0.0
  9
$UCSORGRIGHT
 10
0.0
 20
0.0
 30
0.0
  9
$UCSORGFRONT
 10
0.0
 20
0.0
 30
0.0
  9
$UCSORGBACK
 10
0.0
 20
0.0
 30
0.0
  9
$PUCSBASE
  2

  9
$PUCSNAME
  2

  9
$PUCSORG
 10
0.0
 20
0.0
 30
0.0
  9
$PUCSXDIR
 10
1.0
 20
0.0
 30
0.0
  9
$PUCSYDIR
 10
0.0
 20
1.0
 30
0.0
  9
$PUCSORTHOREF
  2

  9
$PUCSORTHOVIEW
 70
     0
  9
$PUCSORGTOP
 10
0.0
 20
0.0
 30
0.0
  9
$PUCSORGBOTTOM
 10
0.0
 20
0.0
 30
0.0
  9
$PUCSORGLEFT
 10
0.0
 20
0.0
 30
0.0
  9
$PUCSORGRIGHT
 10
0.0
 20
0.0
 30
0.0
  9
$PUCSORGFRONT
 10
0.0
 20
0.0
 30
0.0
  9
$PUCSORGBACK
 10
0.0
 20
0.0
 30
0.0
  9
$USERI1
 70
     0
  9
$USERI2
 70
     0
  9
$USERI3
 70
     0
  9
$USERI4
 70
     0
  9
$USERI5
 70
     0
  9
$USERR1
 40
0.0
  9
$USERR2
 40
0.0
  9
$USERR3
 40
0.0
  9
$USERR4
 40
0.0
  9
$USERR5
 40
0.0
  9
$WORLDVIEW
 70
     1
  9
$SHADEDGE
 70
     3
  9
$SHADEDIF
 70
    70
  9
$TILEMODE
 70
     1
  9
$MAXACTVP
 70
    64
  9
$PINSBASE
 10
0.0
 20
0.0
 30
0.0
  9
$PLIMCHECK
 70
     0
  9
$PEXTMIN
 10
1.0000000000E+20
 20
1.0000000000E+20
 30
1.0000000000E+20
  9
$PEXTMAX
 10
-1.0000000000E+20
 20
-1.0000000000E+20
 30
-1.0000000000E+20
  9
$PLIMMIN
 10
0.0
 20
0.0
  9
$PLIMMAX
 10
420.0
 20
297.0
  9
$UNITMODE
 70
     0
  9
$VISRETAIN
 70
     1
  9
$PLINEGEN
 70
     0
  9
$PSLTSCALE
 70
     1
  9
$TREEDEPTH
 70
  3020
  9
$CMLSTYLE
  2
Standard
  9
$CMLJUST
 70
     0
  9
$CMLSCALE
 40
20.0
  9
$PROXYGRAPHICS
 70
     1
  9
$MEASUREMENT
 70
     1
  9
$CELWEIGHT
370
    -1
  9
$ENDCAPS
280
     0
  9
$JOINSTYLE
280
     0
  9
$LWDISPLAY
290
     1
  9
$INSUNITS
 70
     4
  9
$HYPERLINKBASE
  1

  9
$STYLESHEET
  1

  9
$XEDIT
290
     1
  9
$CEPSNTYPE
380
     0
  9
$PSTYLEMODE
290
     1
  9
$FINGERPRINTGUID
  2
{117E7C98-192D-41A5-9837-F9A5C0CA95CA}
  9
$VERSIONGUID
  2
{FAEB1C32-E019-11D5-929B-00C0DF256EC4}
  9
$EXTNAMES
290
     1
  9
$PSVPSCALE
 40
0.0
  9
$OLESTARTUP
290
     0
  0
ENDSEC
  0
SECTION
  2
CLASSES
  0
CLASS
  1
ACDBDICTIONARYWDFLT
  2
AcDbDictionaryWithDefault
  3
ObjectDBX Classes
 90
        0
280
     0
281
     0
  0
CLASS
  1
VISUALSTYLE
  2
AcDbVisualStyle
  3
ObjectDBX Classes
 90
     4095
280
     0
281
     0
  0
CLASS
  1
MATERIAL
  2
AcDbMaterial
  3
ObjectDBX Classes
 90
     1153
280
     0
281
     0
  0
CLASS
  1
SCALE
  2
AcDbScale
  3
ObjectDBX Classes
 90
     1153
280
     0
281
     0
  0
CLASS
  1
TABLESTYLE
  2
AcDbTableStyle
  3
ObjectDBX Classes
 90
     4095
280
     0
281
     0
  0
CLASS
  1
MLEADERSTYLE
  2
AcDbMLeaderStyle
  3
ACDB_MLEADERSTYLE_CLASS
 90
     4095
280
     0
281
     0
  0
CLASS
  1
SUN
  2
AcDbSun
  3
SCENEOE
 90
     1153
280
     0
281
     0
  0
CLASS
  1
ACDBPLACEHOLDER
  2
AcDbPlaceHolder
  3
ObjectDBX Classes
 90
        0
280
     0
281
     0
  0
CLASS
  1
LAYOUT
  2
AcDbLayout
  3
ObjectDBX Classes
 90
        0
280
     0
281
     0
  0
ENDSEC
  0
SECTION
  2
TABLES
  0
TABLE
  2
VPORT
  5
8
330
0
100
AcDbSymbolTable
 70
     1
  0
VPORT
  5
29
330
8
100
AcDbSymbolTableRecord
100
AcDbViewportTableRecord
  2
*Active
 70
     0
 10
0.0
 20
0.0
 11
1.0
 21
1.0
 12
8.9
 22
25.0
 13
0.0
 23
0.0
 14
10.0
 24
10.0
 15
10.0
 25
10.0
 16
0.0
 26
0.0
 36
1.0
 17
0.0
 27
0.0
 37
0.0
 40
51.0
 41
0.356
 42
50.0
 43
0.0
 44
0.0
 50
0.0
 51
0.0
 71
     0
 72
   100
 73
     1
 74
     3
 75
     0
 76
     0
 77
     0
 78
     0
281
     0
 65
     1
110
0.0
120
0.0
130
0.0
111
1.0
121
0.0
131
0.0
112
0.0
122
1.0
132
0.0
 79
     0
146
0.0
  0
ENDTAB
  0
TABLE
  2
LTYPE
  5
5
330
0
100
AcDbSymbolTable
 70
     6
  0
LTYPE
  5
14
330
5
100
AcDbSymbolTableRecord
100
AcDbLinetypeTableRecord
  2
ByBlock
 70
     0
  3

 72
    65
 73
     0
 40
0.0
  0
LTYPE
  5
15
330
5
100
AcDbSymbolTableRecord
100
AcDbLinetypeTableRecord
  2
ByLayer
 70
     0
  3

 72
    65
 73
     0
 40
0.0
  0
LTYPE
  5
16
330
5
100
AcDbSymbolTableRecord
100
AcDbLinetypeTableRecord
  2
Continuous
 70
     0
  3
Solid line
 72
    65
 73
     0
 40
0.0
  0
LTYPE
  5
6E
330
5
100
AcDbSymbolTableRecord
100
AcDbLinetypeTableRecord
  2
HIDDEN
 70
     0
  3
Hidden __ __ __ __ __ __ __ __ __ __ __ __ __ __
 72
    65
 73
     2
 40
1.905
 49
1.27
 74
     0
 49
-0.635
 74
     0
  0
LTYPE
  5
6F
330
5
100
AcDbSymbolTableRecord
100
AcDbLinetypeTableRecord
  2
PHANTOM
 70
     0
  3
Phantom ______  __  __  ______  __  __  ______
 72
    65
 73
     6
 40
12.7
 49
6.35
 74
     0
 49
-1.27
 74
     0
 49
1.27
 74
     0
 49
-1.27
 74
     0
 49
1.27
 74
     0
 49
-1.27
 74
     0
  0
LTYPE
  5
70
330
5
100
AcDbSymbolTableRecord
100
AcDbLinetypeTableRecord
  2
CENTER
 70
     0
  3
Center ____ _ ____ _ ____ _ ____ _ ____ _ ____
 72
    65
 73
     4
 40
10.16
 49
6.35
 74
     0
 49
-1.27
 74
     0
 49
1.27
 74
     0
 49
-1.27
 74
     0
  0
LTYPE
  5
71
330
5
100
AcDbSymbolTableRecord
100
AcDbLinetypeTableRecord
  2
CENTERX2
 70
     0
  3
Center (2x) ________  __  ________  __  _____
 72
    65
 73
     4
 40
20.32
 49
12.7
 74
     0
 49
-2.54
 74
     0
 49
2.54
 74
     0
 49
-2.54
 74
     0
  0
LTYPE
  5
72
330
5
100
AcDbSymbolTableRecord
100
AcDbLinetypeTableRecord
  2
DOT2
 70
     0
  3
Dot (.5x) ........................................
 72
    65
 73
     2
 40
0.635
 49
0.0
 74
     0
 49
-0.635
 74
     0
  0
ENDTAB
  0
TABLE
  2
LAYER
  5
2
330
0
100
AcDbSymbolTable
 70
     1
  0
LAYER
  5
10
330
2
100
AcDbSymbolTableRecord
100
AcDbLayerTableRecord
  2
0
 70
     0
 62
     7
  6
Continuous
370
    -3
390
F
  0
ENDTAB
  0
TABLE
  2
STYLE
  5
3
330
0
100
AcDbSymbolTable
 70
     2
  0
STYLE
  5
11
330
3
100
AcDbSymbolTableRecord
100
AcDbTextStyleTableRecord
  2
Standard
 70
     0
 40
0.0
 41
1.0
 50
0.0
 71
     0
 42
6.35
  3
txt
  4

  0
STYLE
  5
F9
330
3
100
AcDbSymbolTableRecord
100
AcDbTextStyleTableRecord
  2
SLDTEXTSTYLE0
 70
     0
 40
0.0
 41
0.7
 50
0.0
 71
     0
 42
6.35
  3
TXT
  4

  0
ENDTAB
  0
TABLE
  2
VIEW
  5
6
330
0
100
AcDbSymbolTable
 70
     0
  0
ENDTAB
  0
TABLE
  2
UCS
  5
7
330
0
100
AcDbSymbolTable
 70
     0
  0
ENDTAB
  0
TABLE
  2
APPID
  5
9
330
0
100
AcDbSymbolTable
 70
     1
  0
APPID
  5
12
330
9
100
AcDbSymbolTableRecord
100
AcDbRegAppTableRecord
  2
ACAD
 70
     0
  0
ENDTAB
  0
TABLE
  2
DIMSTYLE
  5
A
330
0
100
AcDbSymbolTable
 70
     1
100
AcDbDimStyleTable
  0
DIMSTYLE
105
27
330
A
100
AcDbSymbolTableRecord
100
AcDbDimStyleTableRecord
  2
ISO-25
 70
     0
 41
2.5
 42
0.625
 43
3.75
 44
1.25
 73
     0
 74
     0
 77
     1
 78
     8
140
2.5
141
2.5
143
0.0393700787
147
0.625
171
     3
172
     1
178
     0
271
     2
272
     2
274
     3
278
    44
283
     0
284
     8
340
11
  0
ENDTAB
  0
TABLE
  2
BLOCK_RECORD
  5
1
330
0
100
AcDbSymbolTable
 70
     1
  0
BLOCK_RECORD
  5
1F
330
1
100
AcDbSymbolTableRecord
100
AcDbBlockTableRecord
  2
*Model_Space
340
22
  0
BLOCK_RECORD
  5
1B
330
1
100
AcDbSymbolTableRecord
100
AcDbBlockTableRecord
  2
*Paper_Space
340
1E
  0
BLOCK_RECORD
  5
23
330
1
100
AcDbSymbolTableRecord
100
AcDbBlockTableRecord
  2
*Paper_Space0
340
26
  0
ENDTAB
  0
ENDSEC
  0
SECTION
  2
BLOCKS
  0
BLOCK
  5
20
330
1F
100
AcDbEntity
  8
0
100
AcDbBlockBegin
  2
*Model_Space
 70
     0
 10
0.0
 20
0.0
 30
0.0
  3
*Model_Space
  1

  0
ENDBLK
  5
21
330
1F
100
AcDbEntity
  8
0
100
AcDbBlockEnd
  0
BLOCK
  5
1C
330
1B
100
AcDbEntity
 67
     1
  8
0
100
AcDbBlockBegin
  2
*Paper_Space
 70
     0
 10
0.0
 20
0.0
 30
0.0
  3
*Paper_Space
  1

  0
ENDBLK
  5
1D
330
1B
100
AcDbEntity
 67
     1
  8
0
100
AcDbBlockEnd
  0
BLOCK
  5
24
330
23
100
AcDbEntity
  8
0
100
AcDbBlockBegin
  2
*Paper_Space0
 70
     0
 10
0.0
 20
0.0
 30
0.0
  3
*Paper_Space0
  1

  0
ENDBLK
  5
25
330
23
100
AcDbEntity
  8
0
100
AcDbBlockEnd
  0
ENDSEC
  0
SECTION
  2
ENTITIES
  0
SPLINE
  5
73
330
1F
100
AcDbEntity
  8
0
  6
Continuous
 62
     7
370
    15
100
AcDbSpline
210
0.0
220
0.0
230
1.0
 70
     8
 71
     3
 72
    15
 73
    11
 74
     0
 42
0.000000001
 43
0.00000001
 40
0.0
 40
0.0
 40
0.0
 40
0.0
 40
0.1290969581672207
 40
0.2520459672599741
 40
0.3739049644019914
 40
0.5010378352202057
 40
0.6281707060384066
 40
0.75137646340918
 40
0.8724260133704633
 40
1.0
 40
1.0
 40
1.0
 40
1.0
 10
9.950897673129257
 20
31.6538461538462
 30
0.0
 10
9.939612313330526
 20
31.65445306770648
 30
0.0
 10
9.917579033331288
 20
31.65563799253451
 30
0.0
 10
9.886036686201345
 20
31.66522408410696
 30
0.0
 10
9.857369006629884
 20
31.68086763376681
 30
0.0
 10
9.83199953227354
 20
31.70201357376235
 30
0.0
 10
9.810749645035978
 20
31.72745602855577
 30
0.0
 10
9.795284048956157
 20
31.75619671722891
 30
0.0
 10
9.786118099135784
 20
31.78764788311691
 30
0.0
 10
9.784870946708336
 20
31.80936784792495
 30
0.0
 10
9.784231006462592
 20
31.82051282051287
 30
0.0
  0
SPLINE
  5
74
330
1F
100
AcDbEntity
  8
0
  6
Continuous
 62
     7
370
    15
100
AcDbSpline
210
0.0
220
0.0
230
1.0
 70
     8
 71
     3
 72
    15
 73
    11
 74
     0
 42
0.000000001
 43
0.00000001
 40
0.0
 40
0.0
 40
0.0
 40
0.0
 40
0.1275189266999354
 40
0.2499859477488147
 40
0.3717923515057548
 40
0.4988703527764703
 40
0.6259483540471995
 40
0.7484917380160591
 40
0.870958759064922
 40
1.0
 40
1.0
 40
1.0
 40
1.0
 10
9.784231006462592
 20
31.82051282051287
 30
0.0
 10
9.784892815997706
 20
31.83165008461172
 30
0.0
 10
9.786190216220136
 20
31.85348338883665
 30
0.0
 10
9.795091172654388
 20
31.88504860501718
 30
0.0
 10
9.810896121495317
 20
31.91361698199632
 30
0.0
 10
9.831960566273514
 20
31.93906397901729
 30
0.0
 10
9.857500945205217
 20
31.96003910845973
 30
0.0
 10
9.885841464483022
 20
31.97640730967562
 30
0.0
 10
9.91767094595672
 20
31.98523072979674
 30
0.0
 10
9.939630760221299
 20
31.98651867940281
 30
0.0
 10
9.950897673129257
 20
31.98717948717954
 30
0.0
  0
SPLINE
  5
75
330
1F
100
AcDbEntity
  8
0
  6
Continuous
 62
     7
370
    15
100
AcDbSpline
210
0.0
220
0.0
230
1.0
 70
     8
 71
     3
 72
    15
 73
    11
 74
     0
 42
0.000000001
 43
0.00000001
 40
0.0
 40
0.0
 40
0.0
 40
0.0
 40
0.126203087893552
 40
0.2488706359181618
 40
0.3716146718990927
 40
0.498900750144842
 40
0.6271692507533229
 40
0.7491750997940916
 40
0.872272274355635
 40
1.0
 40
1.0
 40
1.0
 40
1.0
 10
9.950897673129257
 20
31.98717948717954
 30
0.0
 10
9.961895749309654
 20
31.98649839104004
 30
0.0
 10
9.983583794020577
 20
31.98515527945546
 30
0.0
 10
10.01514587535714
 20
31.97640332868776
 30
0.0
 10
10.04351889814432
 20
31.96005897852028
 30
0.0
 10
10.06899941237545
 20
31.93893052457512
 30
0.0
 10
10.09057263557274
 20
31.91376916290174
 30
0.0
 10
10.10616804642514
 20
31.88495922599043
 30
0.0
 10
10.11573694006407
 20
31.85356320973959
 30
0.0
 10
10.11694775548068
 20
31.83166437715076
 30
0.0
 10
10.11756433979592
 20
31.82051282051287
 30
0.0
  0
SPLINE
  5
76
330
1F
100
AcDbEntity
  8
0
  6
Continuous
 62
     7
370
    15
100
AcDbSpline
210
0.0
220
0.0
230
1.0
 70
     8
 71
     3
 72
    15
 73
    11
 74
     0
 42
0.000000001
 43
0.00000001
 40
0.0
 40
0.0
 40
0.0
 40
0.0
 40
0.12778230131643
 40
0.2494645245764176
 40
0.3728714637825183
 40
0.5011947711261083
 40
0.6285352363362363
 40
0.7505932161980498
 40
0.8737429878836237
 40
1.0
 40
1.0
 40
1.0
 40
1.0
 10
10.11756433979592
 20
31.82051282051287
 30
0.0
 10
10.11697013783664
 20
31.80935323257886
 30
0.0
 10
10.1158100999617
 20
31.7875667936922
 30
0.0
 10
10.10597246372096
 20
31.75628782906997
 30
0.0
 10
10.09072145348928
 20
31.72730229448831
 30
0.0
 10
10.06896013949372
 20
31.70214747129728
 30
0.0
 10
10.04365069900139
 20
31.68084780023115
 30
0.0
 10
10.0149504730412
 20
31.66522857687336
 30
0.0
 10
9.983674246662126
 20
31.65571779520098
 30
0.0
 10
9.961913566293934
 20
31.65447519462089
 30
0.0
 10
9.950897673129257
 20
31.6538461538462
 30
0.0
  0
LINE
  5
77
330
1F
100
AcDbEntity
  8
0
  6
Continuous
 62
     7
370
    15
100
AcDbLine
 10
10.0919233142
 20
33.0641025641
 30
0.0
 11
8.0919233142
 21
33.0641025641
 31
0.0
  0
LINE
  5
78
330
1F
100
AcDbEntity
  8
0
  6
Continuous
 62
     7
370
    15
100
AcDbLine
 10
8.0919233142
 20
33.0641025641
 30
0.0
 11
8.0919233142
 21
33.2435897436
 31
0.0
  0
LINE
  5
79
330
1F
100
AcDbEntity
  8
0
  6
Continuous
 62
     7
370
    15
100
AcDbLine
 10
8.0919233142
 20
33.2435897436
 30
0.0
 11
10.0919233142
 21
33.2435897436
 31
0.0
  0
LINE
  5
7A
330
1F
100
AcDbEntity
  8
0
  6
Continuous
 62
     7
370
    15
100
AcDbLine
 10
10.0919233142
 20
33.2435897436
 30
0.0
 11
10.0919233142
 21
33.0641025641
 31
0.0
  0
LINE
  5
7B
330
1F
100
AcDbEntity
  8
0
  6
Continuous
 62
     7
370
    15
100
AcDbLine
 10
8.2970515193
 20
35.2692307692
 30
0.0
 11
8.2970515193
 21
34.8333333333
 31
0.0
  0
LINE
  5
7C
330
1F
100
AcDbEntity
  8
0
  6
Continuous
 62
     7
370
    15
100
AcDbLine
 10
8.2970515193
 20
34.8333333333
 30
0.0
 11
8.0919233142
 21
34.8333333333
 31
0.0
  0
LINE
  5
7D
330
1F
100
AcDbEntity
  8
0
  6
Continuous
 62
     7
370
    15
100
AcDbLine
 10
8.0919233142
 20
34.8333333333
 30
0.0
 11
8.0919233142
 21
35.8846153846
 31
0.0
  0
LINE
  5
7E
330
1F
100
AcDbEntity
  8
0
  6
Continuous
 62
     7
370
    15
100
AcDbLine
 10
8.0919233142
 20
35.8846153846
 30
0.0
 11
8.2970515193
 21
35.8846153846
 31
0.0
  0
LINE
  5
7F
330
1F
100
AcDbEntity
  8
0
  6
Continuous
 62
     7
370
    15
100
AcDbLine
 10
8.2970515193
 20
35.8846153846
 30
0.0
 11
8.2970515193
 21
35.4487179487
 31
0.0
  0
LINE
  5
80
330
1F
100
AcDbEntity
  8
0
  6
Continuous
 62
     7
370
    15
100
AcDbLine
 10
8.2970515193
 20
35.4487179487
 30
0.0
 11
10.0919233142
 21
35.4487179487
 31
0.0
  0
LINE
  5
81
330
1F
100
AcDbEntity
  8
0
  6
Continuous
 62
     7
370
    15
100
AcDbLine
 10
10.0919233142
 20
35.4487179487
 30
0.0
 11
10.0919233142
 21
35.2692307692
 31
0.0
  0
LINE
  5
82
330
1F
100
AcDbEntity
  8
0
  6
Continuous
 62
     7
370
    15
100
AcDbLine
 10
10.0919233142
 20
35.2692307692
 30
0.0
 11
8.2970515193
 21
35.2692307692
 31
0.0
  0
LINE
  5
83
330
1F
100
AcDbEntity
  8
0
  6
Continuous
 62
     7
370
    15
100
AcDbLine
 10
10.0919233142
 20
36.858974359
 30
0.0
 11
8.0919233142
 21
36.858974359
 31
0.0
  0
LINE
  5
84
330
1F
100
AcDbEntity
  8
0
  6
Continuous
 62
     7
370
    15
100
AcDbLine
 10
8.0919233142
 20
36.858974359
 30
0.0
 11
8.0919233142
 21
37.0384615385
 31
0.0
  0
LINE
  5
85
330
1F
100
AcDbEntity
  8
0
  6
Continuous
 62
     7
370
    15
100
AcDbLine
 10
8.0919233142
 20
37.0384615385
 30
0.0
 11
9.886795109
 21
37.0384615385
 31
0.0
  0
LINE
  5
86
330
1F
100
AcDbEntity
  8
0
  6
Continuous
 62
     7
370
    15
100
AcDbLine
 10
9.886795109
 20
37.0384615385
 30
0.0
 11
9.886795109
 21
37.8076923077
 31
0.0
  0
LINE
  5
87
330
1F
100
AcDbEntity
  8
0
  6
Continuous
 62
     7
370
    15
100
AcDbLine
 10
9.886795109
 20
37.8076923077
 30
0.0
 11
10.0919233142
 21
37.8076923077
 31
0.0
  0
LINE
  5
88
330
1F
100
AcDbEntity
  8
0
  6
Continuous
 62
     7
370
    15
100
AcDbLine
 10
10.0919233142
 20
37.8076923077
 30
0.0
 11
10.0919233142
 21
36.858974359
 31
0.0
  0
SPLINE
  5
89
330
1F
100
AcDbEntity
  8
0
  6
Continuous
 62
     7
370
    15
100
AcDbSpline
210
0.0
220
0.0
230
1.0
 70
     8
 71
     3
 72
    23
 73
    19
 74
     0
 42
0.000000001
 43
0.00000001
 40
0.0
 40
0.0
 40
0.0
 40
0.0
 40
0.0572071170734847
 40
0.1136937694502311
 40
0.1691745086254577
 40
0.2241547012871645
 40
0.2787142640590491
 40
0.3337874937492462
 40
0.3892336187550366
 40
0.4458130930916444
 40
0.5036941348717185
 40
0.5642825251108664
 40
0.6279627664343655
 40
0.6946433827524308
 40
0.7653774520050097
 40
0.8396146738362772
 40
0.9175394111348603
 40
0.9999999999999999
 40
0.9999999999999999
 40
0.9999999999999999
 40
0.9999999999999999
 10
10.14320536543695
 20
40.49278846153852
 30
0.0
 10
10.14291326163222
 20
40.47768255130444
 30
0.0
 10
10.14233273276922
 20
40.44766097421147
 30
0.0
 10
10.13720057303832
 20
40.40325555539999
 30
0.0
 10
10.12993936909095
 20
40.35974722093706
 30
0.0
 10
10.11841133608108
 20
40.31768190873897
 30
0.0
 10
10.10442446617302
 20
40.27651770385713
 30
0.0
 10
10.08720265938602
 20
40.23643345548554
 30
0.0
 10
10.06656388884498
 20
40.19741042952943
 30
0.0
 10
10.04296815177258
 20
40.15922728920299
 30
0.0
 10
10.01550105869145
 20
40.12199138001842
 30
0.0
 10
9.983538228921214
 20
40.08601157956401
 30
0.0
 10
9.947894705537593
 20
40.05034135962853
 30
0.0
 10
9.90801985676791
 20
40.01523375265136
 30
0.0
 10
9.863475197451978
 20
39.9814546959557
 30
0.0
 10
9.814924238429574
 20
39.94819326268413
 30
0.0
 10
9.76222259983164
 20
39.91561155091661
 30
0.0
 10
9.725160917613834
 20
39.89514042114098
 30
0.0
 10
9.706106006462594
 20
39.88461538461545
 30
0.0
  0
LINE
  5
8A
330
1F
100
AcDbEntity
  8
0
  6
Continuous
 62
     7
370
    15
100
AcDbLine
 10
9.7061060065
 20
39.8846153846
 30
0.0
 11
9.604743827
 21
40.0536858974
 31
0.0
  0
SPLINE
  5
8B
330
1F
100
AcDbEntity
  8
0
  6
Continuous
 62
     7
370
    15
100
AcDbSpline
210
0.0
220
0.0
230
1.0
 70
     8
 71
     3
 72
    15
 73
    11
 74
     0
 42
0.000000001
 43
0.00000001
 40
0.0
 40
0.0
 40
0.0
 40
0.0
 40
0.1590042985173744
 40
0.3046460998968167
 40
0.4385469045795878
 40
0.5623222987759262
 40
0.6774325425257258
 40
0.7868973929387483
 40
0.8936108891042617
 40
1.0
 40
1.0
 40
1.0
 40
1.0
 10
9.604743826975412
 20
40.05368589743595
 30
0.0
 10
9.631066332659476
 20
40.06941060443626
 30
0.0
 10
9.68149923775031
 20
40.09953853622383
 30
0.0
 10
9.749646689423885
 20
40.14979645573953
 30
0.0
 10
9.807567921857611
 20
40.20187240497721
 30
0.0
 10
9.85492598330893
 20
40.25615202414831
 30
0.0
 10
9.89221106145043
 20
40.31230399450396
 30
0.0
 10
9.918612336718178
 20
40.37069488235352
 30
0.0
 10
9.935078608358939
 20
40.43112791704576
 30
0.0
 10
9.937078657818745
 20
40.472255815034
 30
0.0
 10
9.938077160308746
 20
40.49278846153852
 30
0.0
  0
SPLINE
  5
8C
330
1F
100
AcDbEntity
  8
0
  6
Continuous
 62
     7
370
    15
100
AcDbSpline
210
0.0
220
0.0
230
1.0
 70
     8
 71
     3
 72
    19
 73
    15
 74
     0
 42
0.000000001
 43
0.00000001
 40
0.0
 40
0.0
 40
0.0
 40
0.0
 40
0.0912948867001661
 40
0.1809923273340758
 40
0.2703787729960481
 40
0.3604775585166238
 40
0.4486941846777386
 40
0.5326233456610097
 40
0.6143155523734037
 40
0.694490847272752
 40
0.7726380724942806
 40
0.8492835297065341
 40
0.9239412653742161
 40
1.0
 40
1.0
 40
1.0
 40
1.0
 10
9.938077160308746
 20
40.49278846153852
 30
0.0
 10
9.937577157124828
 20
40.5103202604031
 30
0.0
 10
9.936585899638201
 20
40.54507709283418
 30
0.0
 10
9.927446013241106
 20
40.59634503519344
 30
0.0
 10
9.912493177905432
 20
40.64588732684489
 30
0.0
 10
9.892222990838274
 20
40.69321148619145
 30
0.0
 10
9.867306523917337
 20
40.73706373298228
 30
0.0
 10
9.837925333382747
 20
40.77613453516784
 30
0.0
 10
9.803976419365945
 20
40.80912568536385
 30
0.0
 10
9.766717428836113
 20
40.83647574785508
 30
0.0
 10
9.726763295085028
 20
40.857639027434
 30
0.0
 10
9.685596235661134
 20
40.87363443984603
 30
0.0
 10
9.642651407541292
 20
40.88259273230082
 30
0.0
 10
9.613729984848979
 20
40.88393700191618
 30
0.0
 10
9.599134852616437
 20
40.88461538461544
 30
0.0
  0
SPLINE
  5
8D
330
1F
100
AcDbEntity
  8
0
  6
Continuous
 62
     7
370
    15
100
AcDbSpline
210
0.0
220
0.0
230
1.0
 70
     8
 71
     3
 72
    11
 73
     7
 74
     0
 42
0.000000001
 43
0.00000001
 40
0.0
 40
0.0
 40
0.0
 40
0.0
 40
0.2347481398291995
 40
0.4753905809434853
 40
0.7285276436074831
 40
0.9999999999999999
 40
0.9999999999999999
 40
0.9999999999999999
 40
0.9999999999999999
 10
9.599134852616437
 20
40.88461538461544
 30
0.0
 10
9.582477380579757
 20
40.88379101564915
 30
0.0
 10
9.548744183314259
 20
40.88212157860023
 30
0.0
 10
9.498889659348393
 20
40.86740871908469
 30
0.0
 10
9.449339795413199
 20
40.84494279832284
 30
0.0
 10
9.418684239521268
 20
40.82382735761892
 30
0.0
 10
9.402820750052335
 20
40.8129006410257
 30
0.0
  0
SPLINE
  5
8E
330
1F
100
AcDbEntity
  8
0
  6
Continuous
 62
     7
370
    15
100
AcDbSpline
210
0.0
220
0.0
230
1.0
 70
     8
 71
     3
 72
    15
 73
    11
 74
     0
 42
0.000000001
 43
0.00000001
 40
0.0
 40
0.0
 40
0.0
 40
0.0
 40
0.0902813137657217
 40
0.1895343252778124
 40
0.2992048291616554
 40
0.4183741499680104
 40
0.5483657845297591
 40
0.6881291182810547
 40
0.8390797601293789
 40
0.9999999999999999
 40
0.9999999999999999
 40
0.9999999999999999
 40
0.9999999999999999
 10
9.402820750052335
 20
40.8129006410257
 30
0.0
 10
9.391363973967547
 20
40.80394731707896
 30
0.0
 10
9.36731190566553
 20
40.78515093339274
 30
0.0
 10
9.33154005874939
 20
40.75280930494373
 30
0.0
 10
9.294566661448012
 20
40.71505181545442
 30
0.0
 10
9.25558001803897
 20
40.67239523643285
 30
0.0
 10
9.214903946166714
 20
40.62476801460156
 30
0.0
 10
9.172221030757411
 20
40.57215172286286
 30
0.0
 10
9.128403501104051
 20
40.5140973114271
 30
0.0
 10
9.099054232824985
 20
40.47334911590207
 30
0.0
 10
9.08391049364208
 20
40.45232371794877
 30
0.0
  0
SPLINE
  5
8F
330
1F
100
AcDbEntity
  8
0
  6
Continuous
 62
     7
370
    15
100
AcDbSpline
210
0.0
220
0.0
230
1.0
 70
     8
 71
     3
 72
    15
 73
    11
 74
     0
 42
0.000000001
 43
0.00000001
 40
0.0
 40
0.0
 40
0.0
 40
0.0
 40
0.1815353013762951
 40
0.3470816724816291
 40
0.4955678164315515
 40
0.6283573018772144
 40
0.7455196699921522
 40
0.8458307507576502
 40
0.9307818073847555
 40
1.0
 40
1.0
 40
1.0
 40
1.0
 10
9.08391049364208
 20
40.45232371794877
 30
0.0
 10
9.068922729288179
 20
40.43128143441788
 30
0.0
 10
9.040267265148287
 20
40.39105019065777
 30
0.0
 10
8.997739102854787
 20
40.33478814360272
 30
0.0
 10
8.958856891687986
 20
40.28447702188276
 30
0.0
 10
8.923254599057964
 20
40.24034044101229
 30
0.0
 10
8.890927396355185
 20
40.20239781424314
 30
0.0
 10
8.862185716845367
 20
40.17035015080644
 30
0.0
 10
8.83625225349202
 20
40.14501383246615
 30
0.0
 10
8.819428629637645
 20
40.13092492923271
 30
0.0
 10
8.81187523723182
 20
40.12459935897441
 30
0.0
  0
SPLINE
  5
90
330
1F
100
AcDbEntity
  8
0
  6
Continuous
 62
     7
370
    15
100
AcDbSpline
210
0.0
220
0.0
230
1.0
 70
     8
 71
     3
 72
    15
 73
    11
 74
     0
 42
0.000000001
 43
0.00000001
 40
0.0
 40
0.0
 40
0.0
 40
0.0
 40
0.1335024395772663
 40
0.2625504643424502
 40
0.3882518563240193
 40
0.5115309837160359
 40
0.6337341477948552
 40
0.7554017923417797
 40
0.877556915862836
 40
0.9999999999999999
 40
0.9999999999999999
 40
0.9999999999999999
 40
0.9999999999999999
 10
8.81187523723182
 20
40.12459935897441
 30
0.0
 10
8.800102631795257
 20
40.11575938647857
 30
0.0
 10
8.77695022324244
 20
40.09837439418252
 30
0.0
 10
8.740772917545904
 20
40.07540127382125
 30
0.0
 10
8.703810011348216
 20
40.05602797887524
 30
0.0
 10
8.665927542854472
 20
40.04043609851059
 30
0.0
 10
8.62741022135223
 20
40.02782753558382
 30
0.0
 10
8.587968873959896
 20
40.01906134980555
 30
0.0
 10
8.547871252083915
 20
40.01365805822819
 30
0.0
 10
8.520893042827868
 20
40.01309991365395
 30
0.0
 10
8.507388057744643
 20
40.01282051282057
 30
0.0
  0
SPLINE
  5
91
330
1F
100
AcDbEntity
  8
0
  6
Continuous
 62
     7
370
    15
100
AcDbSpline
210
0.0
220
0.0
230
1.0
 70
     8
 71
     3
 72
    19
 73
    15
 74
     0
 42
0.000000001
 43
0.00000001
 40
0.0
 40
0.0
 40
0.0
 40
0.0
 40
0.0837707315446633
 40
0.165750922604709
 40
0.2462369774708446
 40
0.3274037132585803
 40
0.4087255283984302
 40
0.4896296774295433
 40
0.5716098684895884
 40
0.65574245512684
 40
0.7412236787944382
 40
0.8265770665210039
 40
0.9120042290982664
 40
1.0
 40
1.0
 40
1.0
 40
1.0
 10
8.507388057744643
 20
40.01282051282057
 30
0.0
 10
8.486228145192873
 20
40.01356631332798
 30
0.0
 10
8.444360598341847
 20
40.01504197338136
 30
0.0
 10
8.383200724052143
 20
40.02752275069449
 30
0.0
 10
8.324806248680531
 20
40.04721975179307
 30
0.0
 10
8.269768745802342
 20
40.07482357368959
 30
0.0
 10
8.219471046329499
 20
40.110373984025
 30
0.0
 10
8.173460423293903
 20
40.1516935415585
 30
0.0
 10
8.134252678723088
 20
40.20045174500508
 30
0.0
 10
8.100529898961707
 20
40.25443070079574
 30
0.0
 10
8.073861769543784
 20
40.31320447164111
 30
0.0
 10
8.054535283158817
 20
40.37508047191971
 30
0.0
 10
8.043055593036161
 20
40.43961391688843
 30
0.0
 10
8.04145394704721
 20
40.48339447378768
 30
0.0
 10
8.040641262872848
 20
40.50560897435903
 30
0.0
  0
SPLINE
  5
92
330
1F
100
AcDbEntity
  8
0
  6
Continuous
 62
     7
370
    15
100
AcDbSpline
210
0.0
220
0.0
230
1.0
 70
     8
 71
     3
 72
    19
 73
    15
 74
     0
 42
0.000000001
 43
0.00000001
 40
0.0
 40
0.0
 40
0.0
 40
0.0
 40
0.1072089520953823
 40
0.2132043881836001
 40
0.3185615182410216
 40
0.4265005918967663
 40
0.4833403687614368
 40
0.5432849061016995
 40
0.607974344303759
 40
0.6771985633245916
 40
0.7507410804896134
 40
0.82875151048672
 40
0.9122098760173921
 40
1.0
 40
1.0
 40
1.0
 40
1.0
 10
8.040641262872848
 20
40.50560897435903
 30
0.0
 10
8.041443111729066
 20
40.52918084777671
 30
0.0
 10
8.043037733180574
 20
40.57605778064597
 30
0.0
 10
8.057247608308801
 20
40.64490104903739
 30
0.0
 10
8.079863267605196
 20
40.7114539706427
 30
0.0
 10
8.106397360971592
 20
40.76475410806759
 30
0.0
 10
8.132729894595835
 20
40.80655776536632
 30
0.0
 10
8.156766814161118
 20
40.83840639199497
 30
0.0
 10
8.184381837406027
 20
40.87085564029875
 30
0.0
 10
8.216157131627952
 20
40.90355677809156
 30
0.0
 10
8.251457158921003
 20
40.93683263348642
 30
0.0
 10
8.290580736809128
 20
40.97052992998932
 30
0.0
 10
8.333175298028362
 20
41.00496401658322
 30
0.0
 10
8.363590599037119
 20
41.02710897770192
 30
0.0
 10
8.379182929539514
 20
41.03846153846159
 30
0.0
  0
LINE
  5
93
330
1F
100
AcDbEntity
  8
0
  6
Continuous
 62
     7
370
    15
100
AcDbLine
 10
8.3791829295
 20
41.0384615385
 30
0.0
 11
8.5021797244
 21
40.8762019231
 31
0.0
  0
SPLINE
  5
94
330
1F
100
AcDbEntity
  8
0
  6
Continuous
 62
     7
370
    15
100
AcDbSpline
210
0.0
220
0.0
230
1.0
 70
     8
 71
     3
 72
    19
 73
    15
 74
     0
 42
0.000000001
 43
0.00000001
 40
0.0
 40
0.0
 40
0.0
 40
0.0
 40
0.0984493447892899
 40
0.1895904197429161
 40
0.2741281601374325
 40
0.3521113210661095
 40
0.4236872729721349
 40
0.4890260149802118
 40
0.5489361917676584
 40
0.6018922049485284
 40
0.7012590333813165
 40
0.7996326823014117
 40
0.8985657937081557
 40
1.0
 40
1.0
 40
1.0
 40
1.0
 10
8.50217972441131
 20
40.87620192307698
 30
0.0
 10
8.489556885121516
 20
40.86640496168591
 30
0.0
 10
8.465248247980039
 20
40.8475383046623
 30
0.0
 10
8.431217213148416
 20
40.81888338174517
 30
0.0
 10
8.400089154650187
 20
40.79191635283613
 30
0.0
 10
8.37312312031886
 20
40.76514399088302
 30
0.0
 10
8.348299787628006
 20
40.74062990263045
 30
0.0
 10
8.327424168932556
 20
40.71641494493143
 30
0.0
 10
8.309836693898989
 20
40.69343357628107
 30
0.0
 10
8.291033342608918
 20
40.66453514031317
 30
0.0
 10
8.272958017391476
 20
40.62792744175646
 30
0.0
 10
8.257080968968445
 20
40.58235674846832
 30
0.0
 10
8.247661856478226
 20
40.53457256133444
 30
0.0
 10
8.246405491705108
 20
40.50204414833382
 30
0.0
 10
8.245769468001052
 20
40.48557692307698
 30
0.0
  0
SPLINE
  5
95
330
1F
100
AcDbEntity
  8
0
  6
Continuous
 62
     7
370
    15
100
AcDbSpline
210
0.0
220
0.0
230
1.0
 70
     8
 71
     3
 72
    15
 73
    11
 74
     0
 42
0.000000001
 43
0.00000001
 40
0.0
 40
0.0
 40
0.0
 40
0.0
 40
0.1430311101154229
 40
0.2758220219306184
 40
0.4018686934691157
 40
0.5278745048828619
 40
0.650458954782067
 40
0.7659637659158578
 40
0.8808091083575627
 40
1.0
 40
1.0
 40
1.0
 40
1.0
 10
8.245769468001052
 20
40.48557692307698
 30
0.0
 10
8.246450530296958
 20
40.46491117743964
 30
0.0
 10
8.247763894776657
 20
40.42505923374856
 30
0.0
 10
8.262485251229867
 20
40.36861295314685
 30
0.0
 10
8.28486808174932
 20
40.31751498326225
 30
0.0
 10
8.317143890028426
 20
40.27371598023441
 30
0.0
 10
8.355622870245826
 20
40.23755182268651
 30
0.0
 10
8.399505437235657
 20
40.21106742480434
 30
0.0
 10
8.447972024925386
 20
40.19523286880604
 30
0.0
 10
8.48176458739242
 20
40.19329474672586
 30
0.0
 10
8.498974596206184
 20
40.19230769230776
 30
0.0
  0
SPLINE
  5
96
330
1F
100
AcDbEntity
  8
0
  6
Continuous
 62
     7
370
    15
100
AcDbSpline
210
0.0
220
0.0
230
1.0
 70
     8
 71
     3
 72
    15
 73
    11
 74
     0
 42
0.000000001
 43
0.00000001
 40
0.0
 40
0.0
 40
0.0
 40
0.0
 40
0.1072823902766756
 40
0.2160592675225428
 40
0.3229563813613356
 40
0.4341310578746607
 40
0.553424066172447
 40
0.6860812480879552
 40
0.8342603548210498
 40
1.0
 40
1.0
 40
1.0
 40
1.0
 10
8.498974596206182
 20
40.19230769230775
 30
0.0
 10
8.509687269675878
 20
40.19254516937316
 30
0.0
 10
8.531261848477692
 20
40.19302343165533
 30
0.0
 10
8.562984767859696
 20
40.19913485000561
 30
0.0
 10
8.594540422535825
 20
40.20739798985309
 30
0.0
 10
8.625817752936015
 20
40.22006577928322
 30
0.0
 10
8.657525013400688
 20
40.23770672527173
 30
0.0
 10
8.690110043038347
 20
40.26084786794961
 30
0.0
 10
8.723853510868425
 20
40.28999978041458
 30
0.0
 10
8.745800636500253
 20
40.31232928429954
 30
0.0
 10
8.757388057744642
 20
40.32411858974364
 30
0.0
  0
SPLINE
  5
97
330
1F
100
AcDbEntity
  8
0
  6
Continuous
 62
     7
370
    15
100
AcDbSpline
210
0.0
220
0.0
230
1.0
 70
     8
 71
     3
 72
    15
 73
    11
 74
     0
 42
0.000000001
 43
0.00000001
 40
0.0
 40
0.0
 40
0.0
 40
0.0
 40
0.0525942815291487
 40
0.1249519739750408
 40
0.2180938989285955
 40
0.3335024107325164
 40
0.4687891785044475
 40
0.6249375859645973
 40
0.8016830479282214
 40
1.0
 40
1.0
 40
1.0
 40
1.0
 10
8.757388057744642
 20
40.32411858974364
 30
0.0
 10
8.7612949296394
 20
40.32849651683375
 30
0.0
 10
8.770576762970402
 20
40.33889746948343
 30
0.0
 10
8.785772351909683
 20
40.3579122841918
 30
0.0
 10
8.804516793221264
 20
40.38302245460891
 30
0.0
 10
8.827709545492583
 20
40.41357228385284
 30
0.0
 10
8.85461323813101
 20
40.45012506198255
 30
0.0
 10
8.884883873653187
 20
40.49268480835092
 30
0.0
 10
8.919504135942836
 20
40.54077711282802
 30
0.0
 10
8.943708444862796
 20
40.5749039219135
 30
0.0
 10
8.956506647488233
 20
40.59294871794877
 30
0.0
  0
SPLINE
  5
98
330
1F
100
AcDbEntity
  8
0
  6
Continuous
 62
     7
370
    15
100
AcDbSpline
210
0.0
220
0.0
230
1.0
 70
     8
 71
     3
 72
    19
 73
    15
 74
     0
 42
0.000000001
 43
0.00000001
 40
0.0
 40
0.0
 40
0.0
 40
0.0
 40
0.096967003188639
 40
0.1877631623194254
 40
0.2723812310585954
 40
0.351301769945443
 40
0.424311551054151
 40
0.4918818623485189
 40
0.5542028871937643
 40
0.6108431885375953
 40
0.7159176243565469
 40
0.814550235848274
 40
0.9085004640969335
 40
1.0
 40
1.0
 40
1.0
 40
1.0
 10
8.956506647488233
 20
40.59294871794877
 30
0.0
 10
8.972301721261116
 20
40.61465493879034
 30
0.0
 10
9.002886692469268
 20
40.65668602702853
 30
0.0
 10
9.048838358693784
 20
40.71649056555133
 30
0.0
 10
9.093780457593871
 20
40.77071488940297
 30
0.0
 10
9.137423068418844
 20
40.81955338836819
 30
0.0
 10
9.17944490342496
 20
40.8634751151959
 30
0.0
 10
9.220318944060548
 20
40.9020373132612
 30
0.0
 10
9.259777144002705
 20
40.93541494858277
 30
0.0
 10
9.310021003578324
 20
40.97183909261398
 30
0.0
 10
9.372300106730403
 20
41.00861668064179
 30
0.0
 10
9.448638149523054
 20
41.04015043962913
 30
0.0
 10
9.525195258645802
 20
41.06021167716635
 30
0.0
 10
9.576584345913815
 20
41.06281707846012
 30
0.0
 10
9.601939339795926
 20
41.06410256410263
 30
0.0
  0
SPLINE
  5
99
330
1F
100
AcDbEntity
  8
0
  6
Continuous
 62
     7
370
    15
100
AcDbSpline
210
0.0
220
0.0
230
1.0
 70
     8
 71
     3
 72
    23
 73
    19
 74
     0
 42
0.000000001
 43
0.00000001
 40
0.0
 40
0.0
 40
0.0
 40
0.0
 40
0.0614951836190229
 40
0.1217961723239005
 40
0.1809517170762315
 40
0.240298819023158
 40
0.2997573776696866
 40
0.3607997288283878
 40
0.4231654467547495
 40
0.4883458089448699
 40
0.5536421562516367
 40
0.6172806219220629
 40
0.6801815912993815
 40
0.7421415642758011
 40
0.8046284919394333
 40
0.8682355732141448
 40
0.9330083519714519
 40
1.0
 40
1.0
 40
1.0
 40
1.0
 10
9.601939339795925
 20
41.06410256410262
 30
0.0
 10
9.61986964418983
 20
41.06372667386545
 30
0.0
 10
9.655382058581655
 20
41.06298219292552
 30
0.0
 10
9.707530578858142
 20
41.05443866482246
 30
0.0
 10
9.758166517810427
 20
41.04189244342875
 30
0.0
 10
9.806613895596197
 20
41.02313479936534
 30
0.0
 10
9.853650063482283
 20
40.99986706825224
 30
0.0
 10
9.898388951479063
 20
40.97076583621264
 30
0.0
 10
9.94169973975563
 20
40.93685739272807
 30
0.0
 10
9.982368202237552
 20
40.89798032264776
 30
0.0
 10
10.01974775902403
 20
40.85546165350605
 30
0.0
 10
10.05286119125166
 20
40.81036059594925
 30
0.0
 10
10.08110721442269
 20
40.76314796432479
 30
0.0
 10
10.10360240202286
 20
40.71331247765654
 30
0.0
 10
10.12131467889171
 20
40.66138950121181
 30
0.0
 10
10.13411217496509
 20
40.60720781222047
 30
0.0
 10
10.14197525564753
 20
40.55071252562985
 30
0.0
 10
10.14279075128175
 20
40.51231203342236
 30
0.0
 10
10.14320536543695
 20
40.49278846153852
 30
0.0
  0
LINE
  5
9A
330
1F
100
AcDbEntity
  8
0
  6
Continuous
 62
     7
370
    15
100
AcDbLine
 10
10.0919233142
 20
43.1153846154
 30
0.0
 11
8.0919233142
 21
43.1153846154
 31
0.0
  0
LINE
  5
9B
330
1F
100
AcDbEntity
  8
0
  6
Continuous
 62
     7
370
    15
100
AcDbLine
 10
8.0919233142
 20
43.1153846154
 30
0.0
 11
8.0919233142
 21
43.5076121795
 31
0.0
  0
SPLINE
  5
9C
330
1F
100
AcDbEntity
  8
0
  6
Continuous
 62
     7
370
    15
100
AcDbSpline
210
0.0
220
0.0
230
1.0
 70
     8
 71
     3
 72
    15
 73
    11
 74
     0
 42
0.000000001
 43
0.00000001
 40
0.0
 40
0.0
 40
0.0
 40
0.0
 40
0.1769557521312583
 40
0.3390550796425769
 40
0.4863182249420722
 40
0.6187809228353685
 40
0.7356188277673809
 40
0.838742476720113
 40
0.9264570678763059
 40
0.9999999999999999
 40
0.9999999999999999
 40
0.9999999999999999
 40
0.9999999999999999
 10
8.091923314154899
 20
43.50761217948722
 30
0.0
 10
8.091952969149665
 20
43.5345898401453
 30
0.0
 10
8.092009789436613
 20
43.58628023603713
 30
0.0
 10
8.093732501336985
 20
43.66040312501367
 30
0.0
 10
8.096033468247134
 20
43.72772297165726
 30
0.0
 10
8.099223121500346
 20
43.78809461790111
 30
0.0
 10
8.10299260164178
 20
43.84170381680773
 30
0.0
 10
8.10827948128602
 20
43.88830798797719
 30
0.0
 10
8.11379965017364
 20
43.92827344873938
 30
0.0
 10
8.119411882470436
 20
43.95221999128024
 30
0.0
 10
8.121971391077976
 20
43.96314102564107
 30
0.0
  0
SPLINE
  5
9D
330
1F
100
AcDbEntity
  8
0
  6
Continuous
 62
     7
370
    15
100
AcDbSpline
210
0.0
220
0.0
230
1.0
 70
     8
 71
     3
 72
    23
 73
    19
 74
     0
 42
0.000000001
 43
0.00000001
 40
0.0
 40
0.0
 40
0.0
 40
0.0
 40
0.0624718514428927
 40
0.1234716318564925
 40
0.1833832449898866
 40
0.2431163005141053
 40
0.3020808603235907
 40
0.3612864676158176
 40
0.4214099579157629
 40
0.4824902917959342
 40
0.5441012883206975
 40
0.6057205401879412
 40
0.6671855095049073
 40
0.730025386820367
 40
0.7945821167592388
 40
0.8603668248909623
 40
0.9289181510021454
 40
1.0
 40
1.0
 40
1.0
 40
1.0
 10
8.121971391077976
 20
43.96314102564107
 30
0.0
 10
8.125755510464344
 20
43.9769657815132
 30
0.0
 10
8.13323458119753
 20
44.00428953017954
 30
0.0
 10
8.148211709449807
 20
44.04366329952376
 30
0.0
 10
8.165980899517946
 20
44.08111616293838
 30
0.0
 10
8.186193750563264
 20
44.11681528308825
 30
0.0
 10
8.209845232383675
 20
44.15011045690501
 30
0.0
 10
8.235361912234204
 20
44.18211159756844
 30
0.0
 10
8.264392786476073
 20
44.21168906684508
 30
0.0
 10
8.296022212417745
 20
44.23924348782572
 30
0.0
 10
8.329849031017371
 20
44.26471127472254
 30
0.0
 10
8.36648783230994
 20
44.28610882071676
 30
0.0
 10
8.40484474886984
 20
44.30481816847568
 30
0.0
 10
8.445441082991572
 20
44.32013646092591
 30
0.0
 10
8.488316248181754
 20
44.33152777962413
 30
0.0
 10
8.53316554678903
 20
44.33998468608063
 30
0.0
 10
8.580039409614809
 20
44.34537712188585
 30
0.0
 10
8.61207405068871
 20
44.34589182878058
 30
0.0
 10
8.628381647488233
 20
44.34615384615389
 30
0.0
  0
SPLINE
  5
9E
330
1F
100
AcDbEntity
  8
0
  6
Continuous
 62
     7
370
    15
100
AcDbSpline
210
0.0
220
0.0
230
1.0
 70
     8
 71
     3
 72
    23
 73
    19
 74
     0
 42
0.000000001
 43
0.00000001
 40
0.0
 40
0.0
 40
0.0
 40
0.0
 40
0.0701188944197153
 40
0.1371923527859715
 40
0.2020161807247515
 40
0.2646314069747424
 40
0.326116547145817
 40
0.3860103046676395
 40
0.4458118469576809
 40
0.5052976967309616
 40
0.5646332777264895
 40
0.62428262533384
 40
0.6839020319037482
 40
0.7439527709382682
 40
0.8053877310076296
 40
0.8683880308962821
 40
0.9330840282524776
 40
1.0
 40
1.0
 40
1.0
 40
1.0
 10
8.628381647488233
 20
44.34615384615389
 30
0.0
 10
8.644826091366793
 20
44.34591303202304
 30
0.0
 10
8.677000756478494
 20
44.34544186291141
 30
0.0
 10
8.724070921157745
 20
44.33978684272349
 30
0.0
 10
8.769052858375801
 20
44.33216959036995
 30
0.0
 10
8.811846830072609
 20
44.32045698904012
 30
0.0
 10
8.852198698913051
 20
44.30511660441247
 30
0.0
 10
8.890725117210614
 20
44.28712114564349
 30
0.0
 10
8.926770644009812
 20
44.26541627114648
 30
0.0
 10
8.960466139747902
 20
44.24047636845477
 30
0.0
 10
8.991843232498853
 20
44.21273260023025
 30
0.0
 10
9.020674543637544
 20
44.18230234986039
 30
0.0
 10
9.046791308450418
 20
44.14930846843168
 30
0.0
 10
9.070252076267781
 20
44.11385581238803
 30
0.0
 10
9.090512807409318
 20
44.07559875591001
 30
0.0
 10
9.108659838795333
 20
44.03511752529805
 30
0.0
 10
9.12390044487447
 20
43.99206025877122
 30
0.0
 10
9.131917622832415
 20
43.96226453649958
 30
0.0
 10
9.135993826975412
 20
43.94711538461542
 30
0.0
  0
SPLINE
  5
9F
330
1F
100
AcDbEntity
  8
0
  6
Continuous
 62
     7
370
    15
100
AcDbSpline
210
0.0
220
0.0
230
1.0
 70
     8
 71
     3
 72
    15
 73
    11
 74
     0
 42
0.000000001
 43
0.00000001
 40
0.0
 40
0.0
 40
0.0
 40
0.0
 40
0.0751715905611795
 40
0.1647429114078622
 40
0.2680114373901255
 40
0.3859639562109126
 40
0.5177992732835617
 40
0.6636978076578735
 40
0.8244167868186472
 40
1.0
 40
1.0
 40
1.0
 40
1.0
 10
9.135993826975412
 20
43.94711538461542
 30
0.0
 10
9.138656401777425
 20
43.93458533680854
 30
0.0
 10
9.14449158926581
 20
43.90712500850663
 30
0.0
 10
9.151050176601572
 20
43.86190343145686
 30
0.0
 10
9.156428934832338
 20
43.80922536155036
 30
0.0
 10
9.161448435076467
 20
43.74927003295569
 30
0.0
 10
9.164108142669193
 20
43.68189763115573
 30
0.0
 10
9.167231073224707
 20
43.60726267620603
 30
0.0
 10
9.168704613506666
 20
43.52511257827214
 30
0.0
 10
9.168797759565416
 20
43.46781544618377
 30
0.0
 10
9.168846391077977
 20
43.43790064102568
 30
0.0
  0
LINE
  5
A0
330
1F
100
AcDbEntity
  8
0
  6
Continuous
 62
     7
370
    15
100
AcDbLine
 10
9.1688463911
 20
43.437900641
 30
0.0
 11
9.1688463911
 21
43.2948717949
 31
0.0
  0
LINE
  5
A1
330
1F
100
AcDbEntity
  8
0
  6
Continuous
 62
     7
370
    15
100
AcDbLine
 10
9.1688463911
 20
43.2948717949
 30
0.0
 11
10.0919233142
 21
43.2948717949
 31
0.0
  0
LINE
  5
A2
330
1F
100
AcDbEntity
  8
0
  6
Continuous
 62
     7
370
    15
100
AcDbLine
 10
10.0919233142
 20
43.2948717949
 30
0.0
 11
10.0919233142
 21
43.1153846154
 31
0.0
  0
LINE
  5
A3
330
1F
100
AcDbEntity
  8
0
  6
Continuous
 62
     7
370
    15
100
AcDbLine
 10
8.2970515193
 20
46.6538461538
 30
0.0
 11
8.2970515193
 21
46.2179487179
 31
0.0
  0
LINE
  5
A4
330
1F
100
AcDbEntity
  8
0
  6
Continuous
 62
     7
370
    15
100
AcDbLine
 10
8.2970515193
 20
46.2179487179
 30
0.0
 11
8.0919233142
 21
46.2179487179
 31
0.0
  0
LINE
  5
A5
330
1F
100
AcDbEntity
  8
0
  6
Continuous
 62
     7
370
    15
100
AcDbLine
 10
8.0919233142
 20
46.2179487179
 30
0.0
 11
8.0919233142
 21
47.2692307692
 31
0.0
  0
LINE
  5
A6
330
1F
100
AcDbEntity
  8
0
  6
Continuous
 62
     7
370
    15
100
AcDbLine
 10
8.0919233142
 20
47.2692307692
 30
0.0
 11
8.2970515193
 21
47.2692307692
 31
0.0
  0
LINE
  5
A7
330
1F
100
AcDbEntity
  8
0
  6
Continuous
 62
     7
370
    15
100
AcDbLine
 10
8.2970515193
 20
47.2692307692
 30
0.0
 11
8.2970515193
 21
46.8333333333
 31
0.0
  0
LINE
  5
A8
330
1F
100
AcDbEntity
  8
0
  6
Continuous
 62
     7
370
    15
100
AcDbLine
 10
8.2970515193
 20
46.8333333333
 30
0.0
 11
10.0919233142
 21
46.8333333333
 31
0.0
  0
LINE
  5
A9
330
1F
100
AcDbEntity
  8
0
  6
Continuous
 62
     7
370
    15
100
AcDbLine
 10
10.0919233142
 20
46.8333333333
 30
0.0
 11
10.0919233142
 21
46.6538461538
 31
0.0
  0
LINE
  5
AA
330
1F
100
AcDbEntity
  8
0
  6
Continuous
 62
     7
370
    15
100
AcDbLine
 10
10.0919233142
 20
46.6538461538
 30
0.0
 11
8.2970515193
 21
46.6538461538
 31
0.0
  0
LINE
  5
AB
330
1F
100
AcDbEntity
  8
0
  6
Continuous
 62
     7
370
    15
100
AcDbLine
 10
0.0
 20
4.582575695
 30
0.0
 11
0.0
 21
45.0
 31
0.0
  0
ARC
  5
AC
330
1F
100
AcDbEntity
  8
0
  6
Continuous
 62
     7
370
    15
100
AcDbCircle
 10
5.0
 20
4.582575695
 30
0.0
 40
5.000000000000001
100
AcDbArc
 50
180.0
 51
246.4218215218
  0
LINE
  5
AD
330
1F
100
AcDbEntity
  8
0
  6
Continuous
 62
     7
370
    15
100
AcDbLine
 10
3.0
 20
25.0
 30
0.0
 11
3.0
 21
0.0
 31
0.0
  0
LINE
  5
AE
330
1F
100
AcDbEntity
  8
0
  6
Continuous
 62
     7
370
    15
100
AcDbLine
 10
6.4
 20
25.0
 30
0.0
 11
3.0
 21
25.0
 31
0.0
  0
LINE
  5
AF
330
1F
100
AcDbEntity
  8
0
  6
Continuous
 62
     7
370
    15
100
AcDbLine
 10
6.4
 20
0.0
 30
0.0
 11
6.4
 21
25.0
 31
0.0
  0
LINE
  5
B0
330
1F
100
AcDbEntity
  8
0
  6
Continuous
 62
     7
370
    15
100
AcDbLine
 10
11.4
 20
0.0
 30
0.0
 11
6.4
 21
0.0
 31
0.0
  0
LINE
  5
B1
330
1F
100
AcDbEntity
  8
0
  6
Continuous
 62
     7
370
    15
100
AcDbLine
 10
11.4
 20
25.0
 30
0.0
 11
11.4
 21
0.0
 31
0.0
  0
LINE
  5
B2
330
1F
100
AcDbEntity
  8
0
  6
Continuous
 62
     7
370
    15
100
AcDbLine
 10
14.8
 20
25.0
 30
0.0
 11
11.4
 21
25.0
 31
0.0
  0
LINE
  5
B3
330
1F
100
AcDbEntity
  8
0
  6
Continuous
 62
     7
370
    15
100
AcDbLine
 10
14.8
 20
0.0
 30
0.0
 11
14.8
 21
25.0
 31
0.0
  0
ARC
  5
B4
330
1F
100
AcDbEntity
  8
0
  6
Continuous
 62
     7
370
    15
100
AcDbCircle
 10
12.8
 20
4.582575695
 30
0.0
 40
5.000000000000002
100
AcDbArc
 50
293.5781784782
 51
0.0
  0
LINE
  5
B5
330
1F
100
AcDbEntity
  8
0
  6
Continuous
 62
     7
370
    15
100
AcDbLine
 10
17.8
 20
45.0
 30
0.0
 11
17.8
 21
4.582575695
 31
0.0
  0
ARC
  5
B6
330
1F
100
AcDbEntity
  8
0
  6
Continuous
 62
     7
370
    15
100
AcDbCircle
 10
12.8
 20
45.0
 30
0.0
 40
5.000000000000002
100
AcDbArc
 50
0.0
 51
90.0
  0
LINE
  5
B7
330
1F
100
AcDbEntity
  8
0
  6
Continuous
 62
     7
370
    15
100
AcDbLine
 10
5.0
 20
50.0
 30
0.0
 11
12.8
 21
50.0
 31
0.0
  0
ARC
  5
B8
330
1F
100
AcDbEntity
  8
0
  6
Continuous
 62
     7
370
    15
100
AcDbCircle
 10
5.0
 20
45.0
 30
0.0
 40
5.0
100
AcDbArc
 50
90.0
 51
180.0
  0
LINE
  5
B9
330
1F
100
AcDbEntity
  8
0
  6
Continuous
 62
     7
370
    15
100
AcDbLine
 10
10.0919233142
 20
27.8345352564
 30
0.0
 11
10.0919233142
 21
27.6538461538
 31
0.0
  0
LINE
  5
BA
330
1F
100
AcDbEntity
  8
0
  6
Continuous
 62
     7
370
    15
100
AcDbLine
 10
10.0919233142
 20
27.6538461538
 30
0.0
 11
8.0919233142
 21
27.9178685897
 31
0.0
  0
LINE
  5
BB
330
1F
100
AcDbEntity
  8
0
  6
Continuous
 62
     7
370
    15
100
AcDbLine
 10
8.0919233142
 20
27.9178685897
 30
0.0
 11
8.0919233142
 21
27.9435096154
 31
0.0
  0
LINE
  5
BC
330
1F
100
AcDbEntity
  8
0
  6
Continuous
 62
     7
370
    15
100
AcDbLine
 10
8.0919233142
 20
27.9435096154
 30
0.0
 11
9.7329489552
 21
28.7692307692
 31
0.0
  0
LINE
  5
BD
330
1F
100
AcDbEntity
  8
0
  6
Continuous
 62
     7
370
    15
100
AcDbLine
 10
9.7329489552
 20
28.7692307692
 30
0.0
 11
8.0919233142
 21
29.5929487179
 31
0.0
  0
LINE
  5
BE
330
1F
100
AcDbEntity
  8
0
  6
Continuous
 62
     7
370
    15
100
AcDbLine
 10
8.0919233142
 20
29.5929487179
 30
0.0
 11
8.0919233142
 21
29.6189903846
 31
0.0
  0
LINE
  5
BF
330
1F
100
AcDbEntity
  8
0
  6
Continuous
 62
     7
370
    15
100
AcDbLine
 10
8.0919233142
 20
29.6189903846
 30
0.0
 11
10.0919233142
 21
29.8846153846
 31
0.0
  0
LINE
  5
C0
330
1F
100
AcDbEntity
  8
0
  6
Continuous
 62
     7
370
    15
100
AcDbLine
 10
10.0919233142
 20
29.8846153846
 30
0.0
 11
10.0919233142
 21
29.7043269231
 31
0.0
  0
LINE
  5
C1
330
1F
100
AcDbEntity
  8
0
  6
Continuous
 62
     7
370
    15
100
AcDbLine
 10
10.0919233142
 20
29.7043269231
 30
0.0
 11
8.6528207501
 21
29.5128205128
 31
0.0
  0
LINE
  5
C2
330
1F
100
AcDbEntity
  8
0
  6
Continuous
 62
     7
370
    15
100
AcDbLine
 10
8.6528207501
 20
29.5128205128
 30
0.0
 11
10.0919233142
 21
28.7908653846
 31
0.0
  0
LINE
  5
C3
330
1F
100
AcDbEntity
  8
0
  6
Continuous
 62
     7
370
    15
100
AcDbLine
 10
10.0919233142
 20
28.7908653846
 30
0.0
 11
10.0919233142
 21
28.750400641
 31
0.0
  0
LINE
  5
C4
330
1F
100
AcDbEntity
  8
0
  6
Continuous
 62
     7
370
    15
100
AcDbLine
 10
10.0919233142
 20
28.750400641
 30
0.0
 11
8.6496156218
 21
28.0256410256
 31
0.0
  0
LINE
  5
C5
330
1F
100
AcDbEntity
  8
0
  6
Continuous
 62
     7
370
    15
100
AcDbLine
 10
8.6496156218
 20
28.0256410256
 30
0.0
 11
10.0919233142
 21
27.8345352564
 31
0.0
  0
LINE
  5
C6
330
1F
100
AcDbEntity
  8
0
  6
Continuous
 62
     7
370
    15
100
AcDbLine
 10
10.0919233142
 20
44.7564102564
 30
0.0
 11
8.0919233142
 21
44.7564102564
 31
0.0
  0
LINE
  5
C7
330
1F
100
AcDbEntity
  8
0
  6
Continuous
 62
     7
370
    15
100
AcDbLine
 10
8.0919233142
 20
44.7564102564
 30
0.0
 11
8.0919233142
 21
45.156650641
 31
0.0
  0
SPLINE
  5
C8
330
1F
100
AcDbEntity
  8
0
  6
Continuous
 62
     7
370
    15
100
AcDbSpline
210
0.0
220
0.0
230
1.0
 70
     8
 71
     3
 72
    15
 73
    11
 74
     0
 42
0.000000001
 43
0.00000001
 40
0.0
 40
0.0
 40
0.0
 40
0.0
 40
0.1762577548178001
 40
0.3384344138804682
 40
0.484822050787836
 40
0.6171575782663319
 40
0.7346983606124717
 40
0.8373851838323624
 40
0.926372420929586
 40
1.0
 40
1.0
 40
1.0
 40
1.0
 10
8.0919233141549
 20
45.15665064102571
 30
0.0
 10
8.092012220433777
 20
45.18335985731918
 30
0.0
 10
8.092182930337652
 20
45.23464451126721
 30
0.0
 10
8.093134794856594
 20
45.30811495147272
 30
0.0
 10
8.095862998118438
 20
45.37487329261569
 30
0.0
 10
8.098210760105362
 20
45.43488462936832
 30
0.0
 10
8.102491869432875
 20
45.48814786078337
 30
0.0
 10
8.106583667787048
 20
45.53482631263933
 30
0.0
 10
8.111940045375022
 20
45.57470499692576
 30
0.0
 10
8.116914572783953
 20
45.59884548338437
 30
0.0
 10
8.119166903898488
 20
45.6097756410257
 30
0.0
  0
SPLINE
  5
C9
330
1F
100
AcDbEntity
  8
0
  6
Continuous
 62
     7
370
    15
100
AcDbSpline
210
0.0
220
0.0
230
1.0
 70
     8
 71
     3
 72
    23
 73
    19
 74
     0
 42
0.000000001
 43
0.00000001
 40
0.0
 40
0.0
 40
0.0
 40
0.0
 40
0.0642111524816862
 40
0.1270525067799878
 40
0.1887278140019758
 40
0.2491100276455421
 40
0.3094251126261704
 40
0.3697939065087839
 40
0.4306119826314421
 40
0.4918839808155459
 40
0.5540512746923694
 40
0.6151802932121818
 40
0.6762827973006769
 40
0.7384500911775014
 40
0.800776184539447
 40
0.8651964574921847
 40
0.9316473815698834
 40
0.9999999999999999
 40
0.9999999999999999
 40
0.9999999999999999
 40
0.9999999999999999
 10
8.119166903898488
 20
45.6097756410257
 30
0.0
 10
8.122782208129106
 20
45.6244079862982
 30
0.0
 10
8.129935692337371
 20
45.6533605291991
 30
0.0
 10
8.14505532298883
 20
45.6950464462785
 30
0.0
 10
8.162552772457294
 20
45.73476830815758
 30
0.0
 10
8.183101569789633
 20
45.77236471374083
 30
0.0
 10
8.206865642376677
 20
45.80763406377244
 30
0.0
 10
8.233392435765376
 20
45.84098968551047
 30
0.0
 10
8.262628371740949
 20
45.87232330516152
 30
0.0
 10
8.294837002601048
 20
45.90122599403764
 30
0.0
 10
8.329332076670486
 20
45.92747978364732
 30
0.0
 10
8.366018920838766
 20
45.95050840088609
 30
0.0
 10
8.404745842818658
 20
45.96996715906671
 30
0.0
 10
8.445573162573904
 20
45.98523728962568
 30
0.0
 10
8.488049880800856
 20
45.99805060707646
 30
0.0
 10
8.532609536385312
 20
46.00665957789999
 30
0.0
 10
8.57910337536512
 20
46.01202212558887
 30
0.0
 10
8.610738420559253
 20
46.01255189257516
 30
0.0
 10
8.626779083385667
 20
46.01282051282057
 30
0.0
  0
SPLINE
  5
CA
330
1F
100
AcDbEntity
  8
0
  6
Continuous
 62
     7
370
    15
100
AcDbSpline
210
0.0
220
0.0
230
1.0
 70
     8
 71
     3
 72
    23
 73
    19
 74
     0
 42
0.000000001
 43
0.00000001
 40
0.0
 40
0.0
 40
0.0
 40
0.0
 40
0.0787802355821399
 40
0.1537206442085845
 40
0.2267135303087819
 40
0.2991911660659367
 40
0.3711899968376671
 40
0.4430064143534095
 40
0.5166891732948782
 40
0.5932172166234123
 40
0.6338729178078428
 40
0.6769891422899788
 40
0.7228995063258258
 40
0.771958610506146
 40
0.8242113233348373
 40
0.8793786506272018
 40
0.9379481193304127
 40
1.0
 40
1.0
 40
1.0
 40
1.0
 10
8.626779083385667
 20
46.01282051282057
 30
0.0
 10
8.653427714591922
 20
46.01198108532999
 30
0.0
 10
8.705426096242242
 20
46.01034314487877
 30
0.0
 10
8.780889457047254
 20
45.99507165706161
 30
0.0
 10
8.85128335112751
 20
45.97005650293091
 30
0.0
 10
8.91651914422206
 20
45.93558605206843
 30
0.0
 10
8.975325227284994
 20
45.89168920880358
 30
0.0
 10
9.026976916030067
 20
45.83893218531596
 30
0.0
 10
9.070199723224821
 20
45.777285550179
 30
0.0
 10
9.100172754482823
 20
45.71989736964234
 30
0.0
 10
9.119368702268394
 20
45.66920354124425
 30
0.0
 10
9.132875193044992
 20
45.6274702196511
 30
0.0
 10
9.143310601774749
 20
45.58194623251061
 30
0.0
 10
9.1526592485008
 20
45.53306775559299
 30
0.0
 10
9.159717359593099
 20
45.48063138102608
 30
0.0
 10
9.16488684214701
 20
45.42476278708936
 30
0.0
 10
9.168117727117465
 20
45.36542212901504
 30
0.0
 10
9.168598872768284
 20
45.32465694652753
 30
0.0
 10
9.168846391077977
 20
45.30368589743595
 30
0.0
  0
LINE
  5
CB
330
1F
100
AcDbEntity
  8
0
  6
Continuous
 62
     7
370
    15
100
AcDbLine
 10
9.1688463911
 20
45.3036858974
 30
0.0
 11
10.0919233142
 21
46.0384615385
 31
0.0
  0
LINE
  5
CC
330
1F
100
AcDbEntity
  8
0
  6
Continuous
 62
     7
370
    15
100
AcDbLine
 10
10.0919233142
 20
46.0384615385
 30
0.0
 11
10.0919233142
 21
45.8165064103
 31
0.0
  0
LINE
  5
CD
330
1F
100
AcDbEntity
  8
0
  6
Continuous
 62
     7
370
    15
100
AcDbLine
 10
10.0919233142
 20
45.8165064103
 30
0.0
 11
9.1688463911
 21
45.0817307692
 31
0.0
  0
LINE
  5
CE
330
1F
100
AcDbEntity
  8
0
  6
Continuous
 62
     7
370
    15
100
AcDbLine
 10
9.1688463911
 20
45.0817307692
 30
0.0
 11
9.1688463911
 21
44.9358974359
 31
0.0
  0
LINE
  5
CF
330
1F
100
AcDbEntity
  8
0
  6
Continuous
 62
     7
370
    15
100
AcDbLine
 10
9.1688463911
 20
44.9358974359
 30
0.0
 11
10.0919233142
 21
44.9358974359
 31
0.0
  0
LINE
  5
D0
330
1F
100
AcDbEntity
  8
0
  6
Continuous
 62
     7
370
    15
100
AcDbLine
 10
10.0919233142
 20
44.9358974359
 30
0.0
 11
10.0919233142
 21
44.7564102564
 31
0.0
  0
LINE
  5
D1
330
1F
100
AcDbEntity
  8
0
  6
Continuous
 62
     7
370
    15
100
AcDbLine
 10
10.0919233142
 20
41.4743589744
 30
0.0
 11
8.0919233142
 21
41.4743589744
 31
0.0
  0
LINE
  5
D2
330
1F
100
AcDbEntity
  8
0
  6
Continuous
 62
     7
370
    15
100
AcDbLine
 10
8.0919233142
 20
41.4743589744
 30
0.0
 11
8.0919233142
 21
41.8665865385
 31
0.0
  0
SPLINE
  5
D3
330
1F
100
AcDbEntity
  8
0
  6
Continuous
 62
     7
370
    15
100
AcDbSpline
210
0.0
220
0.0
230
1.0
 70
     8
 71
     3
 72
    15
 73
    11
 74
     0
 42
0.000000001
 43
0.00000001
 40
0.0
 40
0.0
 40
0.0
 40
0.0
 40
0.1769557521312583
 40
0.3390550796425769
 40
0.4863182249420722
 40
0.6187809228353685
 40
0.7356188277673809
 40
0.838742476720113
 40
0.9264570678763059
 40
0.9999999999999999
 40
0.9999999999999999
 40
0.9999999999999999
 40
0.9999999999999999
 10
8.091923314154899
 20
41.86658653846158
 30
0.0
 10
8.091952969149665
 20
41.89356419911966
 30
0.0
 10
8.092009789436613
 20
41.94525459501148
 30
0.0
 10
8.093732501336985
 20
42.01937748398803
 30
0.0
 10
8.096033468247134
 20
42.08669733063162
 30
0.0
 10
8.099223121500346
 20
42.14706897687547
 30
0.0
 10
8.10299260164178
 20
42.2006781757821
 30
0.0
 10
8.10827948128602
 20
42.24728234695155
 30
0.0
 10
8.11379965017364
 20
42.28724780771375
 30
0.0
 10
8.119411882470436
 20
42.31119435025462
 30
0.0
 10
8.121971391077976
 20
42.32211538461544
 30
0.0
  0
SPLINE
  5
D4
330
1F
100
AcDbEntity
  8
0
  6
Continuous
 62
     7
370
    15
100
AcDbSpline
210
0.0
220
0.0
230
1.0
 70
     8
 71
     3
 72
    23
 73
    19
 74
     0
 42
0.000000001
 43
0.00000001
 40
0.0
 40
0.0
 40
0.0
 40
0.0
 40
0.0624718514428927
 40
0.1234716318564926
 40
0.1833832449898868
 40
0.2431163005141055
 40
0.302080860323591
 40
0.3612864676158178
 40
0.4214099579157631
 40
0.4824902917959346
 40
0.5441012883206979
 40
0.6057205401879364
 40
0.6671855095049071
 40
0.7300253868203668
 40
0.7945821167592387
 40
0.8603668248909622
 40
0.9289181510021454
 40
1.0
 40
1.0
 40
1.0
 40
1.0
 10
8.121971391077977
 20
42.32211538461544
 30
0.0
 10
8.125755510464344
 20
42.33594014048754
 30
0.0
 10
8.133234581197533
 20
42.3632638891539
 30
0.0
 10
8.148211709449807
 20
42.40263765849812
 30
0.0
 10
8.165980899517946
 20
42.44009052191275
 30
0.0
 10
8.186193750563262
 20
42.47578964206262
 30
0.0
 10
8.209845232383675
 20
42.50908481587938
 30
0.0
 10
8.2353619122342
 20
42.54108595654279
 30
0.0
 10
8.264392786476073
 20
42.57066342581945
 30
0.0
 10
8.296022212417741
 20
42.59821784680008
 30
0.0
 10
8.32984903101737
 20
42.62368563369691
 30
0.0
 10
8.36648783230994
 20
42.64508317969111
 30
0.0
 10
8.404844748869838
 20
42.66379252745004
 30
0.0
 10
8.445441082991573
 20
42.67911081990029
 30
0.0
 10
8.488316248181752
 20
42.69050213859848
 30
0.0
 10
8.53316554678903
 20
42.69895904505499
 30
0.0
 10
8.58003940961481
 20
42.70435148086022
 30
0.0
 10
8.61207405068871
 20
42.70486618775496
 30
0.0
 10
8.628381647488233
 20
42.70512820512825
 30
0.0
  0
SPLINE
  5
D5
330
1F
100
AcDbEntity
  8
0
  6
Continuous
 62
     7
370
    15
100
AcDbSpline
210
0.0
220
0.0
230
1.0
 70
     8
 71
     3
 72
    23
 73
    19
 74
     0
 42
0.000000001
 43
0.00000001
 40
0.0
 40
0.0
 40
0.0
 40
0.0
 40
0.0701188944197153
 40
0.1371923527859715
 40
0.2020161807247515
 40
0.2646314069747424
 40
0.326116547145817
 40
0.3860103046676395
 40
0.4458118469576809
 40
0.5052976967309616
 40
0.5646332777264895
 40
0.62428262533384
 40
0.6839020319037482
 40
0.7439527709382682
 40
0.8053877310076296
 40
0.8683880308962821
 40
0.9330840282524776
 40
1.0
 40
1.0
 40
1.0
 40
1.0
 10
8.628381647488233
 20
42.70512820512825
 30
0.0
 10
8.644826091366793
 20
42.70488739099742
 30
0.0
 10
8.677000756478494
 20
42.70441622188577
 30
0.0
 10
8.724070921157745
 20
42.69876120169788
 30
0.0
 10
8.769052858375801
 20
42.69114394934432
 30
0.0
 10
8.811846830072609
 20
42.67943134801448
 30
0.0
 10
8.852198698913051
 20
42.66409096338683
 30
0.0
 10
8.890725117210614
 20
42.64609550461785
 30
0.0
 10
8.926770644009812
 20
42.62439063012084
 30
0.0
 10
8.960466139747902
 20
42.59945072742914
 30
0.0
 10
8.991843232498853
 20
42.57170695920463
 30
0.0
 10
9.020674543637544
 20
42.54127670883475
 30
0.0
 10
9.046791308450418
 20
42.50828282740605
 30
0.0
 10
9.070252076267781
 20
42.4728301713624
 30
0.0
 10
9.090512807409318
 20
42.43457311488438
 30
0.0
 10
9.108659838795333
 20
42.39409188427241
 30
0.0
 10
9.12390044487447
 20
42.35103461774559
 30
0.0
 10
9.131917622832415
 20
42.32123889547395
 30
0.0
 10
9.135993826975412
 20
42.30608974358979
 30
0.0
  0
SPLINE
  5
D6
330
1F
100
AcDbEntity
  8
0
  6
Continuous
 62
     7
370
    15
100
AcDbSpline
210
0.0
220
0.0
230
1.0
 70
     8
 71
     3
 72
    15
 73
    11
 74
     0
 42
0.000000001
 43
0.00000001
 40
0.0
 40
0.0
 40
0.0
 40
0.0
 40
0.0751715905611806
 40
0.1647429114078644
 40
0.2680114373901292
 40
0.3859639562109179
 40
0.5177992732835687
 40
0.6636978076578824
 40
0.8244167868186584
 40
1.0
 40
1.0
 40
1.0
 40
1.0
 10
9.135993826975412
 20
42.30608974358979
 30
0.0
 10
9.138656401777427
 20
42.2935596957829
 30
0.0
 10
9.14449158926581
 20
42.26609936748099
 30
0.0
 10
9.151050176601577
 20
42.22087779043125
 30
0.0
 10
9.15642893483234
 20
42.16819972052473
 30
0.0
 10
9.161448435076467
 20
42.10824439193006
 30
0.0
 10
9.164108142669193
 20
42.04087199013009
 30
0.0
 10
9.167231073224704
 20
41.96623703518039
 30
0.0
 10
9.168704613506666
 20
41.88408693724651
 30
0.0
 10
9.168797759565416
 20
41.82678980515814
 30
0.0
 10
9.168846391077977
 20
41.79687500000005
 30
0.0
  0
LINE
  5
D7
330
1F
100
AcDbEntity
  8
0
  6
Continuous
 62
     7
370
    15
100
AcDbLine
 10
9.1688463911
 20
41.796875
 30
0.0
 11
9.1688463911
 21
41.6538461538
 31
0.0
  0
LINE
  5
D8
330
1F
100
AcDbEntity
  8
0
  6
Continuous
 62
     7
370
    15
100
AcDbLine
 10
9.1688463911
 20
41.6538461538
 30
0.0
 11
10.0919233142
 21
41.6538461538
 31
0.0
  0
LINE
  5
D9
330
1F
100
AcDbEntity
  8
0
  6
Continuous
 62
     7
370
    15
100
AcDbLine
 10
10.0919233142
 20
41.6538461538
 30
0.0
 11
10.0919233142
 21
41.4743589744
 31
0.0
  0
LINE
  5
DA
330
1F
100
AcDbEntity
  8
0
  6
Continuous
 62
     7
370
    15
100
AcDbLine
 10
8.2970515193
 20
38.3461538462
 30
0.0
 11
8.2970515193
 21
37.9102564103
 31
0.0
  0
LINE
  5
DB
330
1F
100
AcDbEntity
  8
0
  6
Continuous
 62
     7
370
    15
100
AcDbLine
 10
8.2970515193
 20
37.9102564103
 30
0.0
 11
8.0919233142
 21
37.9102564103
 31
0.0
  0
LINE
  5
DC
330
1F
100
AcDbEntity
  8
0
  6
Continuous
 62
     7
370
    15
100
AcDbLine
 10
8.0919233142
 20
37.9102564103
 30
0.0
 11
8.0919233142
 21
38.9615384615
 31
0.0
  0
LINE
  5
DD
330
1F
100
AcDbEntity
  8
0
  6
Continuous
 62
     7
370
    15
100
AcDbLine
 10
8.0919233142
 20
38.9615384615
 30
0.0
 11
8.2970515193
 21
38.9615384615
 31
0.0
  0
LINE
  5
DE
330
1F
100
AcDbEntity
  8
0
  6
Continuous
 62
     7
370
    15
100
AcDbLine
 10
8.2970515193
 20
38.9615384615
 30
0.0
 11
8.2970515193
 21
38.5256410256
 31
0.0
  0
LINE
  5
DF
330
1F
100
AcDbEntity
  8
0
  6
Continuous
 62
     7
370
    15
100
AcDbLine
 10
8.2970515193
 20
38.5256410256
 30
0.0
 11
10.0919233142
 21
38.5256410256
 31
0.0
  0
LINE
  5
E0
330
1F
100
AcDbEntity
  8
0
  6
Continuous
 62
     7
370
    15
100
AcDbLine
 10
10.0919233142
 20
38.5256410256
 30
0.0
 11
10.0919233142
 21
38.3461538462
 31
0.0
  0
LINE
  5
E1
330
1F
100
AcDbEntity
  8
0
  6
Continuous
 62
     7
370
    15
100
AcDbLine
 10
10.0919233142
 20
38.3461538462
 30
0.0
 11
8.2970515193
 21
38.3461538462
 31
0.0
  0
LINE
  5
E2
330
1F
100
AcDbEntity
  8
0
  6
Continuous
 62
     7
370
    15
100
AcDbLine
 10
10.0919233142
 20
36.2435897436
 30
0.0
 11
8.0919233142
 21
36.2435897436
 31
0.0
  0
LINE
  5
E3
330
1F
100
AcDbEntity
  8
0
  6
Continuous
 62
     7
370
    15
100
AcDbLine
 10
8.0919233142
 20
36.2435897436
 30
0.0
 11
8.0919233142
 21
36.4230769231
 31
0.0
  0
LINE
  5
E4
330
1F
100
AcDbEntity
  8
0
  6
Continuous
 62
     7
370
    15
100
AcDbLine
 10
8.0919233142
 20
36.4230769231
 30
0.0
 11
10.0919233142
 21
36.4230769231
 31
0.0
  0
LINE
  5
E5
330
1F
100
AcDbEntity
  8
0
  6
Continuous
 62
     7
370
    15
100
AcDbLine
 10
10.0919233142
 20
36.4230769231
 30
0.0
 11
10.0919233142
 21
36.2435897436
 31
0.0
  0
LINE
  5
E6
330
1F
100
AcDbEntity
  8
0
  6
Continuous
 62
     7
370
    15
100
AcDbLine
 10
10.0919233142
 20
33.6794871795
 30
0.0
 11
8.0919233142
 21
33.6794871795
 31
0.0
  0
LINE
  5
E7
330
1F
100
AcDbEntity
  8
0
  6
Continuous
 62
     7
370
    15
100
AcDbLine
 10
8.0919233142
 20
33.6794871795
 30
0.0
 11
8.0919233142
 21
33.858974359
 31
0.0
  0
LINE
  5
E8
330
1F
100
AcDbEntity
  8
0
  6
Continuous
 62
     7
370
    15
100
AcDbLine
 10
8.0919233142
 20
33.858974359
 30
0.0
 11
10.0919233142
 21
33.858974359
 31
0.0
  0
LINE
  5
E9
330
1F
100
AcDbEntity
  8
0
  6
Continuous
 62
     7
370
    15
100
AcDbLine
 10
10.0919233142
 20
33.858974359
 30
0.0
 11
10.0919233142
 21
33.6794871795
 31
0.0
  0
LINE
  5
EA
330
1F
100
AcDbEntity
  8
0
  6
Continuous
 62
     7
370
    15
100
AcDbLine
 10
10.0919233142
 20
32.4487179487
 30
0.0
 11
8.0919233142
 21
32.4487179487
 31
0.0
  0
LINE
  5
EB
330
1F
100
AcDbEntity
  8
0
  6
Continuous
 62
     7
370
    15
100
AcDbLine
 10
8.0919233142
 20
32.4487179487
 30
0.0
 11
8.0919233142
 21
32.6282051282
 31
0.0
  0
LINE
  5
EC
330
1F
100
AcDbEntity
  8
0
  6
Continuous
 62
     7
370
    15
100
AcDbLine
 10
8.0919233142
 20
32.6282051282
 30
0.0
 11
10.0919233142
 21
32.6282051282
 31
0.0
  0
LINE
  5
ED
330
1F
100
AcDbEntity
  8
0
  6
Continuous
 62
     7
370
    15
100
AcDbLine
 10
10.0919233142
 20
32.6282051282
 30
0.0
 11
10.0919233142
 21
32.4487179487
 31
0.0
  0
LINE
  5
EE
330
1F
100
AcDbEntity
  8
0
  6
Continuous
 62
     7
370
    15
100
AcDbLine
 10
10.0919233142
 20
30.2435897436
 30
0.0
 11
8.0406412629
 21
30.2435897436
 31
0.0
  0
LINE
  5
EF
330
1F
100
AcDbEntity
  8
0
  6
Continuous
 62
     7
370
    15
100
AcDbLine
 10
8.0406412629
 20
30.2435897436
 30
0.0
 11
8.0406412629
 21
30.4230769231
 31
0.0
  0
LINE
  5
F0
330
1F
100
AcDbEntity
  8
0
  6
Continuous
 62
     7
370
    15
100
AcDbLine
 10
8.0406412629
 20
30.4230769231
 30
0.0
 11
9.2265386988
 21
30.4230769231
 31
0.0
  0
LINE
  5
F1
330
1F
100
AcDbEntity
  8
0
  6
Continuous
 62
     7
370
    15
100
AcDbLine
 10
9.2265386988
 20
30.4230769231
 30
0.0
 11
8.6303848526
 21
31.0881410256
 31
0.0
  0
LINE
  5
F2
330
1F
100
AcDbEntity
  8
0
  6
Continuous
 62
     7
370
    15
100
AcDbLine
 10
8.6303848526
 20
31.0881410256
 30
0.0
 11
8.6303848526
 21
31.3461538462
 31
0.0
  0
LINE
  5
F3
330
1F
100
AcDbEntity
  8
0
  6
Continuous
 62
     7
370
    15
100
AcDbLine
 10
8.6303848526
 20
31.3461538462
 30
0.0
 11
9.3226925449
 21
30.5745192308
 31
0.0
  0
LINE
  5
F4
330
1F
100
AcDbEntity
  8
0
  6
Continuous
 62
     7
370
    15
100
AcDbLine
 10
9.3226925449
 20
30.5745192308
 30
0.0
 11
10.0919233142
 21
31.4230769231
 31
0.0
  0
LINE
  5
F5
330
1F
100
AcDbEntity
  8
0
  6
Continuous
 62
     7
370
    15
100
AcDbLine
 10
10.0919233142
 20
31.4230769231
 30
0.0
 11
10.0919233142
 21
31.1654647436
 31
0.0
  0
LINE
  5
F6
330
1F
100
AcDbEntity
  8
0
  6
Continuous
 62
     7
370
    15
100
AcDbLine
 10
10.0919233142
 20
31.1654647436
 30
0.0
 11
9.4184457501
 21
30.4230769231
 31
0.0
  0
LINE
  5
F7
330
1F
100
AcDbEntity
  8
0
  6
Continuous
 62
     7
370
    15
100
AcDbLine
 10
9.4184457501
 20
30.4230769231
 30
0.0
 11
10.0919233142
 21
30.4230769231
 31
0.0
  0
LINE
  5
F8
330
1F
100
AcDbEntity
  8
0
  6
Continuous
 62
     7
370
    15
100
AcDbLine
 10
10.0919233142
 20
30.4230769231
 30
0.0
 11
10.0919233142
 21
30.2435897436
 31
0.0
  0
MTEXT
  5
FA
330
1F
100
AcDbEntity
  8
0
  6
Continuous
 62
     7
100
AcDbMText
 10
0.0
 20
-1.0195663917
 30
0.0
 40
4.83362
 41
0.0
 71
     1
 72
     1
  1
SOLIDWORKS Educational Product.
  7
SLDTEXTSTYLE0
 73
     1
 44
1.0
  0
MTEXT
  5
FB
330
1F
100
AcDbEntity
  8
0
  6
Continuous
 62
     7
100
AcDbMText
 10
0.0
 20
-8.2699963917
 30
0.0
 40
4.83362
 41
0.0
 71
     1
 72
     1
  1
For Instructional Use Only.
  7
SLDTEXTSTYLE0
 73
     1
 44
1.0
  0
ENDSEC
  0
SECTION
  2
OBJECTS
  0
DICTIONARY
  5
C
330
0
100
AcDbDictionary
281
     1
  3
ACAD_GROUP
350
D
  3
ACAD_LAYOUT
350
1A
  3
ACAD_MLINESTYLE
350
17
  3
ACAD_PLOTSETTINGS
350
19
  3
ACAD_PLOTSTYLENAME
350
E
  3
ACAD_SCALELIST
350
47
  0
DICTIONARY
  5
D
102
{ACAD_REACTORS
330
C
102
}
330
C
100
AcDbDictionary
281
     1
  0
DICTIONARY
  5
1A
102
{ACAD_REACTORS
330
C
102
}
330
C
100
AcDbDictionary
281
     1
  3
Layout1
350
1E
  3
Layout2
350
26
  3
Model
350
22
  0
DICTIONARY
  5
17
102
{ACAD_REACTORS
330
C
102
}
330
C
100
AcDbDictionary
281
     1
  3
Standard
350
18
  0
DICTIONARY
  5
19
102
{ACAD_REACTORS
330
C
102
}
330
C
100
AcDbDictionary
281
     1
  0
ACDBDICTIONARYWDFLT
  5
E
102
{ACAD_REACTORS
330
C
102
}
330
C
100
AcDbDictionary
281
     1
  3
Normal
350
F
100
AcDbDictionaryWithDefault
340
F
  0
DICTIONARY
  5
47
102
{ACAD_REACTORS
330
C
102
}
330
C
100
AcDbDictionary
281
     1
  3
A0
350
48
  3
A1
350
49
  3
A2
350
4A
  3
A3
350
4B
  3
A4
350
4C
  3
A5
350
4D
  3
A6
350
4E
  3
A7
350
4F
  3
A8
350
50
  3
A9
350
51
  3
B0
350
52
  3
B1
350
53
  3
B2
350
54
  3
B3
350
55
  3
B4
350
56
  3
B5
350
57
  3
B6
350
58
  3
B7
350
59
  3
B8
350
5A
  3
B9
350
5B
  3
C0
350
5C
  3
C1
350
5D
  3
C2
350
5E
  3
C3
350
5F
  3
C4
350
60
  3
C5
350
61
  3
C6
350
62
  3
C7
350
63
  3
C8
350
64
  3
C9
350
65
  3
D0
350
66
  3
D1
350
67
  3
D2
350
68
  0
LAYOUT
  5
1E
102
{ACAD_REACTORS
330
1A
102
}
330
1A
100
AcDbPlotSettings
  1

  2
none_device
  4

  6

 40
0.0
 41
0.0
 42
0.0
 43
0.0
 44
0.0
 45
0.0
 46
0.0
 47
0.0
 48
0.0
 49
0.0
140
0.0
141
0.0
142
1.0
143
1.0
 70
   688
 72
     1
 73
     0
 74
     5
  7

 75
    16
147
1.0
148
0.0
149
0.0
100
AcDbLayout
  1
Layout1
 70
     1
 71
     1
 10
0.0
 20
0.0
 11
420.0
 21
297.0
 12
0.0
 22
0.0
 32
0.0
 14
1.0000000000E+20
 24
1.0000000000E+20
 34
1.0000000000E+20
 15
-1.0000000000E+20
 25
-1.0000000000E+20
 35
-1.0000000000E+20
146
0.0
 13
0.0
 23
0.0
 33
0.0
 16
1.0
 26
0.0
 36
0.0
 17
0.0
 27
1.0
 37
0.0
 76
     0
330
1B
  0
LAYOUT
  5
26
102
{ACAD_REACTORS
330
1A
102
}
330
1A
100
AcDbPlotSettings
  1

  2
none_device
  4

  6

 40
0.0
 41
0.0
 42
0.0
 43
0.0
 44
0.0
 45
0.0
 46
0.0
 47
0.0
 48
0.0
 49
0.0
140
0.0
141
0.0
142
1.0
143
1.0
 70
   688
 72
     1
 73
     0
 74
     5
  7

 75
    16
147
1.0
148
0.0
149
0.0
100
AcDbLayout
  1
Layout2
 70
     1
 71
     2
 10
0.0
 20
0.0
 11
0.0
 21
0.0
 12
0.0
 22
0.0
 32
0.0
 14
0.0
 24
0.0
 34
0.0
 15
0.0
 25
0.0
 35
0.0
146
0.0
 13
0.0
 23
0.0
 33
0.0
 16
1.0
 26
0.0
 36
0.0
 17
0.0
 27
1.0
 37
0.0
 76
     0
330
23
  0
LAYOUT
  5
22
102
{ACAD_REACTORS
330
1A
102
}
330
1A
100
AcDbPlotSettings
  1

  2
none_device
  4
ANSI_A_(11.00_x_8.50_Inches)
  6

 40
6.35
 41
19.05
 42
6.35000508
 43
19.05000254
 44
279.4
 45
215.9
 46
95.30409946
 47
-17.97050127
 48
0.0
 49
0.0
140
0.0
141
0.0
142
0.1683
143
1.0
 70
  1696
 72
     0
 73
     0
 74
     0
  7

 75
     0
147
0.0179189148
148
-1300.4909072572
149
0.0
100
AcDbLayout
  1
Model
 70
     1
 71
     0
 10
0.0
 20
0.0
 11
420.0
 21
297.0
 12
0.0
 22
0.0
 32
0.0
 14
0.0
 24
0.0
 34
0.0
 15
17.8
 25
50.0
 35
0.0
146
0.0
 13
0.0
 23
0.0
 33
0.0
 16
1.0
 26
0.0
 36
0.0
 17
0.0
 27
1.0
 37
0.0
 76
     0
330
1F
331
29
  0
MLINESTYLE
  5
18
102
{ACAD_REACTORS
330
17
102
}
330
17
100
AcDbMlineStyle
  2
Standard
 70
     0
  3

 62
   256
 51
90.0
 52
90.0
 71
     2
 49
0.5
 62
   256
  6
BYLAYER
 49
-0.5
 62
   256
  6
BYLAYER
  0
ACDBPLACEHOLDER
  5
F
102
{ACAD_REACTORS
330
E
102
}
330
E
  0
SCALE
  5
48
102
{ACAD_REACTORS
330
47
102
}
330
47
100
AcDbScale
 70
     0
300
1:1
140
1.0
141
1.0
290
     1
  0
SCALE
  5
49
102
{ACAD_REACTORS
330
47
102
}
330
47
100
AcDbScale
 70
     0
300
1:2
140
1.0
141
2.0
290
     0
  0
SCALE
  5
4A
102
{ACAD_REACTORS
330
47
102
}
330
47
100
AcDbScale
 70
     0
300
1:4
140
1.0
141
4.0
290
     0
  0
SCALE
  5
4B
102
{ACAD_REACTORS
330
47
102
}
330
47
100
AcDbScale
 70
     0
300
1:5
140
1.0
141
5.0
290
     0
  0
SCALE
  5
4C
102
{ACAD_REACTORS
330
47
102
}
330
47
100
AcDbScale
 70
     0
300
1:8
140
1.0
141
8.0
290
     0
  0
SCALE
  5
4D
102
{ACAD_REACTORS
330
47
102
}
330
47
100
AcDbScale
 70
     0
300
1:10
140
1.0
141
10.0
290
     0
  0
SCALE
  5
4E
102
{ACAD_REACTORS
330
47
102
}
330
47
100
AcDbScale
 70
     0
300
1:16
140
1.0
141
16.0
290
     0
  0
SCALE
  5
4F
102
{ACAD_REACTORS
330
47
102
}
330
47
100
AcDbScale
 70
     0
300
1:20
140
1.0
141
20.0
290
     0
  0
SCALE
  5
50
102
{ACAD_REACTORS
330
47
102
}
330
47
100
AcDbScale
 70
     0
300
1:30
140
1.0
141
30.0
290
     0
  0
SCALE
  5
51
102
{ACAD_REACTORS
330
47
102
}
330
47
100
AcDbScale
 70
     0
300
1:40
140
1.0
141
40.0
290
     0
  0
SCALE
  5
52
102
{ACAD_REACTORS
330
47
102
}
330
47
100
AcDbScale
 70
     0
300
1:50
140
1.0
141
50.0
290
     0
  0
SCALE
  5
53
102
{ACAD_REACTORS
330
47
102
}
330
47
100
AcDbScale
 70
     0
300
1:100
140
1.0
141
100.0
290
     0
  0
SCALE
  5
54
102
{ACAD_REACTORS
330
47
102
}
330
47
100
AcDbScale
 70
     0
300
2:1
140
2.0
141
1.0
290
     0
  0
SCALE
  5
55
102
{ACAD_REACTORS
330
47
102
}
330
47
100
AcDbScale
 70
     0
300
4:1
140
4.0
141
1.0
290
     0
  0
SCALE
  5
56
102
{ACAD_REACTORS
330
47
102
}
330
47
100
AcDbScale
 70
     0
300
8:1
140
8.0
141
1.0
290
     0
  0
SCALE
  5
57
102
{ACAD_REACTORS
330
47
102
}
330
47
100
AcDbScale
 70
     0
300
10:1
140
10.0
141
1.0
290
     0
  0
SCALE
  5
58
102
{ACAD_REACTORS
330
47
102
}
330
47
100
AcDbScale
 70
     0
300
100:1
140
100.0
141
1.0
290
     0
  0
SCALE
  5
59
102
{ACAD_REACTORS
330
47
102
}
330
47
100
AcDbScale
 70
     0
300
1/128" = 1'-0"
140
0.0078125
141
12.0
290
     0
  0
SCALE
  5
5A
102
{ACAD_REACTORS
330
47
102
}
330
47
100
AcDbScale
 70
     0
300
1/64" = 1'-0"
140
0.015625
141
12.0
290
     0
  0
SCALE
  5
5B
102
{ACAD_REACTORS
330
47
102
}
330
47
100
AcDbScale
 70
     0
300
1/32" = 1'-0"
140
0.03125
141
12.0
290
     0
  0
SCALE
  5
5C
102
{ACAD_REACTORS
330
47
102
}
330
47
100
AcDbScale
 70
     0
300
1/16" = 1'-0"
140
0.0625
141
12.0
290
     0
  0
SCALE
  5
5D
102
{ACAD_REACTORS
330
47
102
}
330
47
100
AcDbScale
 70
     0
300
3/32" = 1'-0"
140
0.09375
141
12.0
290
     0
  0
SCALE
  5
5E
102
{ACAD_REACTORS
330
47
102
}
330
47
100
AcDbScale
 70
     0
300
1/8" = 1'-0"
140
0.125
141
12.0
290
     0
  0
SCALE
  5
5F
102
{ACAD_REACTORS
330
47
102
}
330
47
100
AcDbScale
 70
     0
300
3/16" = 1'-0"
140
0.1875
141
12.0
290
     0
  0
SCALE
  5
60
102
{ACAD_REACTORS
330
47
102
}
330
47
100
AcDbScale
 70
     0
300
1/4" = 1'-0"
140
0.25
141
12.0
290
     0
  0
SCALE
  5
61
102
{ACAD_REACTORS
330
47
102
}
330
47
100
AcDbScale
 70
     0
300
3/8" = 1'-0"
140
0.375
141
12.0
290
     0
  0
SCALE
  5
62
102
{ACAD_REACTORS
330
47
102
}
330
47
100
AcDbScale
 70
     0
300
1/2" = 1'-0"
140
0.5
141
12.0
290
     0
  0
SCALE
  5
63
102
{ACAD_REACTORS
330
47
102
}
330
47
100
AcDbScale
 70
     0
300
3/4" = 1'-0"
140
0.75
141
12.0
290
     0
  0
SCALE
  5
64
102
{ACAD_REACTORS
330
47
102
}
330
47
100
AcDbScale
 70
     0
300
1" = 1'-0"
140
1.0
141
12.0
290
     0
  0
SCALE
  5
65
102
{ACAD_REACTORS
330
47
102
}
330
47
100
AcDbScale
 70
     0
300
1-1/2" = 1'-0"
140
1.5
141
12.0
290
     0
  0
SCALE
  5
66
102
{ACAD_REACTORS
330
47
102
}
330
47
100
AcDbScale
 70
     0
300
3" = 1'-0"
140
3.0
141
12.0
290
     0
  0
SCALE
  5
67
102
{ACAD_REACTORS
330
47
102
}
330
47
100
AcDbScale
 70
     0
300
6" = 1'-0"
140
6.0
141
12.0
290
     0
  0
SCALE
  5
68
102
{ACAD_REACTORS
330
47
102
}
330
47
100
AcDbScale
 70
     0
300
1'-0" = 1'-0"
140
12.0
141
12.0
290
     0
  0
ENDSEC
  0
EOF
