  0
SECTION
  2
HEADER
  9
$ACADVER
  1
AC1015
  9
$ACADMAINTVER
 70
     6
  9
$DWGCODEPAGE
  3
ANSI_1252
  9
$INSBASE
 10
0.0
 20
0.0
 30
0.0
  9
$EXTMIN
 10
0.0
 20
0.0
 30
0.0
  9
$EXTMAX
 10
338.8
 20
130.0
 30
0.0
  9
$LIMMIN
 10
0.0
 20
0.0
  9
$LIMMAX
 10
420.0
 20
297.0
  9
$ORTHOMODE
 70
     0
  9
$REGENMODE
 70
     1
  9
$FILLMODE
 70
     1
  9
$QTEXTMODE
 70
     0
  9
$MIRRTEXT
 70
     1
  9
$LTSCALE
 40
1.0
  9
$ATTMODE
 70
     1
  9
$TEXTSIZE
 40
6.35
  9
$TRACEWID
 40
1.0
  9
$TEXTSTYLE
  7
Standard
  9
$CLAYER
  8
0
  9
$CELTYPE
  6
ByLayer
  9
$CECOLOR
 62
   256
  9
$CELTSCALE
 40
1.0
  9
$DISPSILH
 70
     0
  9
$DIMSCALE
 40
1.0
  9
$DIMASZ
 40
5.9944
  9
$DIMEXO
 40
0.9906
  9
$DIMDLI
 40
3.75
  9
$DIMRND
 40
0.0
  9
$DIMDLE
 40
0.0
  9
$DIMEXE
 40
0.9906
  9
$DIMTP
 40
0.0
  9
$DIMTM
 40
0.0
  9
$DIMTXT
 40
6.35
  9
$DIMCEN
 40
2.5
  9
$DIMTSZ
 40
0.0
  9
$DIMTOL
 70
     0
  9
$DIMLIM
 70
     0
  9
$DIMTIH
 70
     1
  9
$DIMTOH
 70
     1
  9
$DIMSE1
 70
     0
  9
$DIMSE2
 70
     0
  9
$DIMTAD
 70
     1
  9
$DIMZIN
 70
     0
  9
$DIMBLK
  1

  9
$DIMASO
 70
     1
  9
$DIMSHO
 70
     1
  9
$DIMPOST
  1

  9
$DIMAPOST
  1

  9
$DIMALT
 70
     0
  9
$DIMALTD
 70
     3
  9
$DIMALTF
 40
0.0393700787
  9
$DIMLFAC
 40
1.0
  9
$DIMTOFL
 70
     1
  9
$DIMTVP
 40
0.0
  9
$DIMTIX
 70
     0
  9
$DIMSOXD
 70
     0
  9
$DIMSAH
 70
     0
  9
$DIMBLK1
  1

  9
$DIMBLK2
  1

  9
$DIMSTYLE
  2
ISO-25
  9
$DIMCLRD
 70
     0
  9
$DIMCLRE
 70
     0
  9
$DIMCLRT
 70
     0
  9
$DIMTFAC
 40
1.0
  9
$DIMGAP
 40
1.524
  9
$DIMJUST
 70
     0
  9
$DIMSD1
 70
     0
  9
$DIMSD2
 70
     0
  9
$DIMTOLJ
 70
     0
  9
$DIMTZIN
 70
     0
  9
$DIMALTZ
 70
     0
  9
$DIMALTTZ
 70
     0
  9
$DIMUPT
 70
     0
  9
$DIMDEC
 70
     2
  9
$DIMTDEC
 70
     2
  9
$DIMALTU
 70
     2
  9
$DIMALTTD
 70
     3
  9
$DIMTXSTY
  7
Standard
  9
$DIMAUNIT
 70
     0
  9
$DIMADEC
 70
     2
  9
$DIMALTRND
 40
0.0
  9
$DIMAZIN
 70
     0
  9
$DIMDSEP
 70
    44
  9
$DIMATFIT
 70
     3
  9
$DIMFRAC
 70
     0
  9
$DIMLDRBLK
  1

  9
$DIMLUNIT
 70
     2
  9
$DIMLWD
 70
    -2
  9
$DIMLWE
 70
    -2
  9
$DIMTMOVE
 70
     0
  9
$LUNITS
 70
     2
  9
$LUPREC
 70
     2
  9
$SKETCHINC
 40
1.0
  9
$FILLETRAD
 40
10.0
  9
$AUNITS
 70
     0
  9
$AUPREC
 70
     2
  9
$MENU
  1
.
  9
$ELEVATION
 40
0.0
  9
$PELEVATION
 40
0.0
  9
$THICKNESS
 40
0.0
  9
$LIMCHECK
 70
     0
  9
$CHAMFERA
 40
0.0
  9
$CHAMFERB
 40
0.0
  9
$CHAMFERC
 40
0.0
  9
$CHAMFERD
 40
0.0
  9
$SKPOLY
 70
     0
  9
$TDCREATE
 40
2457998.584400972
  9
$TDUCREATE
 40
2457998.542734305
  9
$TDUPDATE
 40
2457998.584425718
  9
$TDUUPDATE
 40
2457998.542759051
  9
$TDINDWG
 40
0.0000000116
  9
$TDUSRTIMER
 40
0.0000000116
  9
$USRTIMER
 70
     1
  9
$ANGBASE
 50
0.0
  9
$ANGDIR
 70
     0
  9
$PDMODE
 70
     0
  9
$PDSIZE
 40
-1.0
  9
$PLINEWID
 40
0.0
  9
$SPLFRAME
 70
     0
  9
$SPLINETYPE
 70
     6
  9
$SPLINESEGS
 70
     8
  9
$HANDSEED
  5
133
  9
$SURFTAB1
 70
     6
  9
$SURFTAB2
 70
     6
  9
$SURFTYPE
 70
     6
  9
$SURFU
 70
     6
  9
$SURFV
 70
     6
  9
$UCSBASE
  2

  9
$UCSNAME
  2

  9
$UCSORG
 10
0.0
 20
0.0
 30
0.0
  9
$UCSXDIR
 10
1.0
 20
0.0
 30
0.0
  9
$UCSYDIR
 10
0.0
 20
1.0
 30
0.0
  9
$UCSORTHOREF
  2

  9
$UCSORTHOVIEW
 70
     0
  9
$UCSORGTOP
 10
0.0
 20
0.0
 30
0.0
  9
$UCSORGBOTTOM
 10
0.0
 20
0.0
 30
0.0
  9
$UCSORGLEFT
 10
0.0
 20
0.0
 30
0.0
  9
$UCSORGRIGHT
 10
0.0
 20
0.0
 30
0.0
  9
$UCSORGFRONT
 10
0.0
 20
0.0
 30
0.0
  9
$UCSORGBACK
 10
0.0
 20
0.0
 30
0.0
  9
$PUCSBASE
  2

  9
$PUCSNAME
  2

  9
$PUCSORG
 10
0.0
 20
0.0
 30
0.0
  9
$PUCSXDIR
 10
1.0
 20
0.0
 30
0.0
  9
$PUCSYDIR
 10
0.0
 20
1.0
 30
0.0
  9
$PUCSORTHOREF
  2

  9
$PUCSORTHOVIEW
 70
     0
  9
$PUCSORGTOP
 10
0.0
 20
0.0
 30
0.0
  9
$PUCSORGBOTTOM
 10
0.0
 20
0.0
 30
0.0
  9
$PUCSORGLEFT
 10
0.0
 20
0.0
 30
0.0
  9
$PUCSORGRIGHT
 10
0.0
 20
0.0
 30
0.0
  9
$PUCSORGFRONT
 10
0.0
 20
0.0
 30
0.0
  9
$PUCSORGBACK
 10
0.0
 20
0.0
 30
0.0
  9
$USERI1
 70
     0
  9
$USERI2
 70
     0
  9
$USERI3
 70
     0
  9
$USERI4
 70
     0
  9
$USERI5
 70
     0
  9
$USERR1
 40
0.0
  9
$USERR2
 40
0.0
  9
$USERR3
 40
0.0
  9
$USERR4
 40
0.0
  9
$USERR5
 40
0.0
  9
$WORLDVIEW
 70
     1
  9
$SHADEDGE
 70
     3
  9
$SHADEDIF
 70
    70
  9
$TILEMODE
 70
     1
  9
$MAXACTVP
 70
    64
  9
$PINSBASE
 10
0.0
 20
0.0
 30
0.0
  9
$PLIMCHECK
 70
     0
  9
$PEXTMIN
 10
1.0000000000E+20
 20
1.0000000000E+20
 30
1.0000000000E+20
  9
$PEXTMAX
 10
-1.0000000000E+20
 20
-1.0000000000E+20
 30
-1.0000000000E+20
  9
$PLIMMIN
 10
0.0
 20
0.0
  9
$PLIMMAX
 10
420.0
 20
297.0
  9
$UNITMODE
 70
     0
  9
$VISRETAIN
 70
     1
  9
$PLINEGEN
 70
     0
  9
$PSLTSCALE
 70
     1
  9
$TREEDEPTH
 70
  3020
  9
$CMLSTYLE
  2
Standard
  9
$CMLJUST
 70
     0
  9
$CMLSCALE
 40
20.0
  9
$PROXYGRAPHICS
 70
     1
  9
$MEASUREMENT
 70
     1
  9
$CELWEIGHT
370
    -1
  9
$ENDCAPS
280
     0
  9
$JOINSTYLE
280
     0
  9
$LWDISPLAY
290
     1
  9
$INSUNITS
 70
     4
  9
$HYPERLINKBASE
  1

  9
$STYLESHEET
  1

  9
$XEDIT
290
     1
  9
$CEPSNTYPE
380
     0
  9
$PSTYLEMODE
290
     1
  9
$FINGERPRINTGUID
  2
{6966FBA3-2D33-4381-8ECC-C8380FC86C57}
  9
$VERSIONGUID
  2
{FAEB1C32-E019-11D5-929B-00C0DF256EC4}
  9
$EXTNAMES
290
     1
  9
$PSVPSCALE
 40
0.0
  9
$OLESTARTUP
290
     0
  0
ENDSEC
  0
SECTION
  2
CLASSES
  0
CLASS
  1
ACDBDICTIONARYWDFLT
  2
AcDbDictionaryWithDefault
  3
ObjectDBX Classes
 90
        0
280
     0
281
     0
  0
CLASS
  1
VISUALSTYLE
  2
AcDbVisualStyle
  3
ObjectDBX Classes
 90
     4095
280
     0
281
     0
  0
CLASS
  1
MATERIAL
  2
AcDbMaterial
  3
ObjectDBX Classes
 90
     1153
280
     0
281
     0
  0
CLASS
  1
SCALE
  2
AcDbScale
  3
ObjectDBX Classes
 90
     1153
280
     0
281
     0
  0
CLASS
  1
TABLESTYLE
  2
AcDbTableStyle
  3
ObjectDBX Classes
 90
     4095
280
     0
281
     0
  0
CLASS
  1
MLEADERSTYLE
  2
AcDbMLeaderStyle
  3
ACDB_MLEADERSTYLE_CLASS
 90
     4095
280
     0
281
     0
  0
CLASS
  1
SUN
  2
AcDbSun
  3
SCENEOE
 90
     1153
280
     0
281
     0
  0
CLASS
  1
ACDBPLACEHOLDER
  2
AcDbPlaceHolder
  3
ObjectDBX Classes
 90
        0
280
     0
281
     0
  0
CLASS
  1
LAYOUT
  2
AcDbLayout
  3
ObjectDBX Classes
 90
        0
280
     0
281
     0
  0
ENDSEC
  0
SECTION
  2
TABLES
  0
TABLE
  2
VPORT
  5
8
330
0
100
AcDbSymbolTable
 70
     1
  0
VPORT
  5
29
330
8
100
AcDbSymbolTableRecord
100
AcDbViewportTableRecord
  2
*Active
 70
     0
 10
0.0
 20
0.0
 11
1.0
 21
1.0
 12
169.4
 22
65.0
 13
0.0
 23
0.0
 14
10.0
 24
10.0
 15
10.0
 25
10.0
 16
0.0
 26
0.0
 36
1.0
 17
0.0
 27
0.0
 37
0.0
 40
132.6
 41
2.6061538462
 42
50.0
 43
0.0
 44
0.0
 50
0.0
 51
0.0
 71
     0
 72
   100
 73
     1
 74
     3
 75
     0
 76
     0
 77
     0
 78
     0
281
     0
 65
     1
110
0.0
120
0.0
130
0.0
111
1.0
121
0.0
131
0.0
112
0.0
122
1.0
132
0.0
 79
     0
146
0.0
  0
ENDTAB
  0
TABLE
  2
LTYPE
  5
5
330
0
100
AcDbSymbolTable
 70
     6
  0
LTYPE
  5
14
330
5
100
AcDbSymbolTableRecord
100
AcDbLinetypeTableRecord
  2
ByBlock
 70
     0
  3

 72
    65
 73
     0
 40
0.0
  0
LTYPE
  5
15
330
5
100
AcDbSymbolTableRecord
100
AcDbLinetypeTableRecord
  2
ByLayer
 70
     0
  3

 72
    65
 73
     0
 40
0.0
  0
LTYPE
  5
16
330
5
100
AcDbSymbolTableRecord
100
AcDbLinetypeTableRecord
  2
Continuous
 70
     0
  3
Solid line
 72
    65
 73
     0
 40
0.0
  0
LTYPE
  5
6E
330
5
100
AcDbSymbolTableRecord
100
AcDbLinetypeTableRecord
  2
HIDDEN
 70
     0
  3
Hidden __ __ __ __ __ __ __ __ __ __ __ __ __ __
 72
    65
 73
     2
 40
1.905
 49
1.27
 74
     0
 49
-0.635
 74
     0
  0
LTYPE
  5
6F
330
5
100
AcDbSymbolTableRecord
100
AcDbLinetypeTableRecord
  2
PHANTOM
 70
     0
  3
Phantom ______  __  __  ______  __  __  ______
 72
    65
 73
     6
 40
12.7
 49
6.35
 74
     0
 49
-1.27
 74
     0
 49
1.27
 74
     0
 49
-1.27
 74
     0
 49
1.27
 74
     0
 49
-1.27
 74
     0
  0
LTYPE
  5
70
330
5
100
AcDbSymbolTableRecord
100
AcDbLinetypeTableRecord
  2
CENTER
 70
     0
  3
Center ____ _ ____ _ ____ _ ____ _ ____ _ ____
 72
    65
 73
     4
 40
10.16
 49
6.35
 74
     0
 49
-1.27
 74
     0
 49
1.27
 74
     0
 49
-1.27
 74
     0
  0
LTYPE
  5
71
330
5
100
AcDbSymbolTableRecord
100
AcDbLinetypeTableRecord
  2
CENTERX2
 70
     0
  3
Center (2x) ________  __  ________  __  _____
 72
    65
 73
     4
 40
20.32
 49
12.7
 74
     0
 49
-2.54
 74
     0
 49
2.54
 74
     0
 49
-2.54
 74
     0
  0
LTYPE
  5
72
330
5
100
AcDbSymbolTableRecord
100
AcDbLinetypeTableRecord
  2
DOT2
 70
     0
  3
Dot (.5x) ........................................
 72
    65
 73
     2
 40
0.635
 49
0.0
 74
     0
 49
-0.635
 74
     0
  0
ENDTAB
  0
TABLE
  2
LAYER
  5
2
330
0
100
AcDbSymbolTable
 70
     1
  0
LAYER
  5
10
330
2
100
AcDbSymbolTableRecord
100
AcDbLayerTableRecord
  2
0
 70
     0
 62
     7
  6
Continuous
370
    -3
390
F
  0
ENDTAB
  0
TABLE
  2
STYLE
  5
3
330
0
100
AcDbSymbolTable
 70
     2
  0
STYLE
  5
11
330
3
100
AcDbSymbolTableRecord
100
AcDbTextStyleTableRecord
  2
Standard
 70
     0
 40
0.0
 41
1.0
 50
0.0
 71
     0
 42
6.35
  3
txt
  4

  0
STYLE
  5
130
330
3
100
AcDbSymbolTableRecord
100
AcDbTextStyleTableRecord
  2
SLDTEXTSTYLE0
 70
     0
 40
0.0
 41
0.7
 50
0.0
 71
     0
 42
6.35
  3
TXT
  4

  0
ENDTAB
  0
TABLE
  2
VIEW
  5
6
330
0
100
AcDbSymbolTable
 70
     0
  0
ENDTAB
  0
TABLE
  2
UCS
  5
7
330
0
100
AcDbSymbolTable
 70
     0
  0
ENDTAB
  0
TABLE
  2
APPID
  5
9
330
0
100
AcDbSymbolTable
 70
     1
  0
APPID
  5
12
330
9
100
AcDbSymbolTableRecord
100
AcDbRegAppTableRecord
  2
ACAD
 70
     0
  0
ENDTAB
  0
TABLE
  2
DIMSTYLE
  5
A
330
0
100
AcDbSymbolTable
 70
     1
100
AcDbDimStyleTable
  0
DIMSTYLE
105
27
330
A
100
AcDbSymbolTableRecord
100
AcDbDimStyleTableRecord
  2
ISO-25
 70
     0
 41
2.5
 42
0.625
 43
3.75
 44
1.25
 73
     0
 74
     0
 77
     1
 78
     8
140
2.5
141
2.5
143
0.0393700787
147
0.625
171
     3
172
     1
178
     0
271
     2
272
     2
274
     3
278
    44
283
     0
284
     8
340
11
  0
ENDTAB
  0
TABLE
  2
BLOCK_RECORD
  5
1
330
0
100
AcDbSymbolTable
 70
     1
  0
BLOCK_RECORD
  5
1F
330
1
100
AcDbSymbolTableRecord
100
AcDbBlockTableRecord
  2
*Model_Space
340
22
  0
BLOCK_RECORD
  5
1B
330
1
100
AcDbSymbolTableRecord
100
AcDbBlockTableRecord
  2
*Paper_Space
340
1E
  0
BLOCK_RECORD
  5
23
330
1
100
AcDbSymbolTableRecord
100
AcDbBlockTableRecord
  2
*Paper_Space0
340
26
  0
ENDTAB
  0
ENDSEC
  0
SECTION
  2
BLOCKS
  0
BLOCK
  5
20
330
1F
100
AcDbEntity
  8
0
100
AcDbBlockBegin
  2
*Model_Space
 70
     0
 10
0.0
 20
0.0
 30
0.0
  3
*Model_Space
  1

  0
ENDBLK
  5
21
330
1F
100
AcDbEntity
  8
0
100
AcDbBlockEnd
  0
BLOCK
  5
1C
330
1B
100
AcDbEntity
 67
     1
  8
0
100
AcDbBlockBegin
  2
*Paper_Space
 70
     0
 10
0.0
 20
0.0
 30
0.0
  3
*Paper_Space
  1

  0
ENDBLK
  5
1D
330
1B
100
AcDbEntity
 67
     1
  8
0
100
AcDbBlockEnd
  0
BLOCK
  5
24
330
23
100
AcDbEntity
  8
0
100
AcDbBlockBegin
  2
*Paper_Space0
 70
     0
 10
0.0
 20
0.0
 30
0.0
  3
*Paper_Space0
  1

  0
ENDBLK
  5
25
330
23
100
AcDbEntity
  8
0
100
AcDbBlockEnd
  0
ENDSEC
  0
SECTION
  2
ENTITIES
  0
SPLINE
  5
73
330
1F
100
AcDbEntity
  8
0
  6
Continuous
 62
     7
370
    15
100
AcDbSpline
210
0.0
220
0.0
230
1.0
 70
     8
 71
     3
 72
    23
 73
    19
 74
     0
 42
0.000000001
 43
0.00000001
 40
0.0
 40
0.0
 40
0.0
 40
0.0
 40
0.064557845929719
 40
0.1270135315497589
 40
0.1879548102020908
 40
0.2480139127896339
 40
0.3077476818488365
 40
0.3682345146974886
 40
0.4294698439426712
 40
0.4927434367465846
 40
0.5562577687060836
 40
0.6182167855431454
 40
0.6796554755875571
 40
0.7412455456206319
 40
0.8034152647056991
 40
0.8668154615439944
 40
0.9323283119492659
 40
1.0
 40
1.0
 40
1.0
 40
1.0
 10
164.5967948717948
 20
6.605944511217948
 30
0.0
 10
164.5982056545216
 20
6.663054101216108
 30
0.0
 10
164.600981281462
 20
6.775413654211757
 30
0.0
 10
164.62456318164
 20
6.940308597552598
 30
0.0
 10
164.6624988038993
 20
7.098288795083764
 30
0.0
 10
164.7163802671248
 20
7.249059334817057
 30
0.0
 10
164.7846929786661
 20
7.393413231884718
 30
0.0
 10
164.8690814069348
 20
7.530247753424261
 30
0.0
 10
164.9685651716642
 20
7.660437993112692
 30
0.0
 10
165.0823640366343
 20
7.782008517504032
 30
0.0
 10
165.2071572622278
 20
7.893169215954225
 30
0.0
 10
165.3407964719699
 20
7.990964843640203
 30
0.0
 10
165.4830200952951
 20
8.07235144743938
 30
0.0
 10
165.6322612893151
 20
8.140383680497354
 30
0.0
 10
165.7896375861648
 20
8.19267544348487
 30
0.0
 10
165.9548132138715
 20
8.229281548551793
 30
0.0
 10
166.1274778008516
 20
8.252066361186195
 30
0.0
 10
166.2452815726905
 20
8.254946728355186
 30
0.0
 10
166.3051382211538
 20
8.256410256410255
 30
0.0
  0
SPLINE
  5
74
330
1F
100
AcDbEntity
  8
0
  6
Continuous
 62
     7
370
    15
100
AcDbSpline
210
0.0
220
0.0
230
1.0
 70
     8
 71
     3
 72
    23
 73
    19
 74
     0
 42
0.000000001
 43
0.00000001
 40
0.0
 40
0.0
 40
0.0
 40
0.0
 40
0.0685475367089083
 40
0.1356829456230473
 40
0.2012149895263286
 40
0.2656822347547036
 40
0.329266834817262
 40
0.392395427844333
 40
0.4550697616521553
 40
0.5171268500645153
 40
0.578790035286651
 40
0.639739863343552
 40
0.7001915036663086
 40
0.7598062425966695
 40
0.819628319275013
 40
0.8793547910462807
 40
0.9395116077646719
 40
1.0
 40
1.0
 40
1.0
 40
1.0
 10
166.3051382211538
 20
8.256410256410255
 30
0.0
 10
166.3416184921337
 20
8.255972888194254
 30
0.0
 10
166.4138275146797
 20
8.255107161857202
 30
0.0
 10
166.5206459922253
 20
8.246665161510359
 30
0.0
 10
166.624642960238
 20
8.232592104432895
 30
0.0
 10
166.7258900653692
 20
8.213436812531008
 30
0.0
 10
166.8248798672104
 20
8.189663028055024
 30
0.0
 10
166.9208558000074
 20
8.158692900296412
 30
0.0
 10
167.0143810373775
 20
8.123281189745834
 30
0.0
 10
167.1048657326517
 20
8.082497438502175
 30
0.0
 10
167.1918757459934
 20
8.03671689451166
 30
0.0
 10
167.2753839777857
 20
7.98644700743754
 30
0.0
 10
167.3547270996134
 20
7.931750098158498
 30
0.0
 10
167.4304634121237
 20
7.873091360465467
 30
0.0
 10
167.5013259750284
 20
7.809229810247501
 30
0.0
 10
167.5693267448424
 20
7.741921991042798
 30
0.0
 10
167.6321564371748
 20
7.669229164842956
 30
0.0
 10
167.6709396926337
 20
7.618061831939835
 30
0.0
 10
167.6903846153845
 20
7.592407852564102
 30
0.0
  0
LINE
  5
75
330
1F
100
AcDbEntity
  8
0
  6
Continuous
 62
     7
370
    15
100
AcDbLine
 10
167.6903846154
 20
7.5924078526
 30
0.0
 11
167.4410657051
 21
7.4016025641
 31
0.0
  0
SPLINE
  5
76
330
1F
100
AcDbEntity
  8
0
  6
Continuous
 62
     7
370
    15
100
AcDbSpline
210
0.0
220
0.0
230
1.0
 70
     8
 71
     3
 72
    19
 73
    15
 74
     0
 42
0.000000001
 43
0.00000001
 40
0.0
 40
0.0
 40
0.0
 40
0.0
 40
0.0631632593634664
 40
0.1254749410306429
 40
0.187121219816036
 40
0.2482943461142971
 40
0.3092948562551238
 40
0.3698500660670964
 40
0.430973375547378
 40
0.4924559896728182
 40
0.6161479662918498
 40
0.7408436984673722
 40
0.868182648670048
 40
1.0
 40
1.0
 40
1.0
 40
1.0
 10
167.4410657051282
 20
7.401602564102563
 30
0.0
 10
167.4232803635479
 20
7.42279883673509
 30
0.0
 10
167.3879494653567
 20
7.464905610284113
 30
0.0
 10
167.3311086173528
 20
7.524032768486319
 30
0.0
 10
167.2718706984399
 20
7.579427684205496
 30
0.0
 10
167.2102583527654
 20
7.631354246440305
 30
0.0
 10
167.145162580088
 20
7.677996598213969
 30
0.0
 10
167.0781602841553
 20
7.721785384455046
 30
0.0
 10
167.0081306288608
 20
7.76103540387435
 30
0.0
 10
166.9112915552896
 20
7.808626826993802
 30
0.0
 10
166.7846110072067
 20
7.858289410469184
 30
0.0
 10
166.6251399746189
 20
7.899930198862922
 30
0.0
 10
166.4586691924221
 20
7.926437979662264
 30
0.0
 10
166.345097084189
 20
7.929308942985937
 30
0.0
 10
166.287329727564
 20
7.930769230769231
 30
0.0
  0
SPLINE
  5
77
330
1F
100
AcDbEntity
  8
0
  6
Continuous
 62
     7
370
    15
100
AcDbSpline
210
0.0
220
0.0
230
1.0
 70
     8
 71
     3
 72
    31
 73
    27
 74
     0
 42
0.000000001
 43
0.00000001
 40
0.0
 40
0.0
 40
0.0
 40
0.0
 40
0.0439549089061967
 40
0.0875018747976114
 40
0.1304626267314923
 40
0.1727520205665187
 40
0.215403067379605
 40
0.2576498297432459
 40
0.3001527489572958
 40
0.3431214895020865
 40
0.3859251632064358
 40
0.4276857274028032
 40
0.4688179504865863
 40
0.5094918001549932
 40
0.5498830310733527
 40
0.5899800229668852
 40
0.6304052300068388
 40
0.6708686260826416
 40
0.711383943838174
 40
0.7516272580635832
 40
0.7917755768651898
 40
0.8324589188037429
 40
0.8733190450172869
 40
0.9145429556263481
 40
0.9569235582098847
 40
1.0
 40
1.0
 40
1.0
 40
1.0
 10
166.2873297275641
 20
7.930769230769233
 30
0.0
 10
166.2555041631624
 20
7.930402779063877
 30
0.0
 10
166.192148405616
 20
7.929673276670645
 30
0.0
 10
166.0981244332262
 20
7.920049284520459
 30
0.0
 10
166.0058561654142
 20
7.906522686837173
 30
0.0
 10
165.9154036210587
 20
7.886451857913044
 30
0.0
 10
165.826881937241
 20
7.861076696321313
 30
0.0
 10
165.7397124010814
 20
7.83075507083339
 30
0.0
 10
165.6551570712654
 20
7.793240323246152
 30
0.0
 10
165.5720462408854
 20
7.751776401713816
 30
0.0
 10
165.4924179566253
 20
7.704942933982388
 30
0.0
 10
165.4170751632845
 20
7.653858679061291
 30
0.0
 10
165.3462926495275
 20
7.599095284433771
 30
0.0
 10
165.2800144228067
 20
7.540447495076767
 30
0.0
 10
165.2181727268166
 20
7.478179430931117
 30
0.0
 10
165.1612156663005
 20
7.411627492489579
 30
0.0
 10
165.1093403298454
 20
7.341004449370353
 30
0.0
 10
165.0615184571093
 20
7.267241572513868
 30
0.0
 10
165.0186897632804
 20
7.190553718673628
 30
0.0
 10
164.9828305155472
 20
7.110657047633002
 30
0.0
 10
164.951075868975
 20
7.028919754169094
 30
0.0
 10
164.9259486988603
 20
6.944418343988782
 30
0.0
 10
164.9060600300205
 20
6.857747406402404
 30
0.0
 10
164.8923370783367
 20
6.768674334476352
 30
0.0
 10
164.8828225366104
 20
6.677385210841711
 30
0.0
 10
164.8820966618505
 20
6.615509620112913
 30
0.0
 10
164.8817307692307
 20
6.584319911858975
 30
0.0
  0
SPLINE
  5
78
330
1F
100
AcDbEntity
  8
0
  6
Continuous
 62
     7
370
    15
100
AcDbSpline
210
0.0
220
0.0
230
1.0
 70
     8
 71
     3
 72
    23
 73
    19
 74
     0
 42
0.000000001
 43
0.00000001
 40
0.0
 40
0.0
 40
0.0
 40
0.0
 40
0.0643232165798418
 40
0.1262901037035565
 40
0.1867264692161324
 40
0.2461464323353439
 40
0.3055756426461343
 40
0.3654293856180515
 40
0.426326308948259
 40
0.4888399064006337
 40
0.5517249718140392
 40
0.6139185964661512
 40
0.6754837657683903
 40
0.7373338970992832
 40
0.8002290443945284
 40
0.8645022981233188
 40
0.931040739155688
 40
1.0
 40
1.0
 40
1.0
 40
1.0
 10
164.8817307692307
 20
6.584319911858974
 30
0.0
 10
164.8828754193452
 20
6.537392214500509
 30
0.0
 10
164.8851227880149
 20
6.445255905387092
 30
0.0
 10
164.9051237767879
 20
6.310299708681826
 30
0.0
 10
164.9355176810283
 20
6.181013097466861
 30
0.0
 10
164.9810703829628
 20
6.05820424051339
 30
0.0
 10
165.0372398073998
 20
5.9403588014179
 30
0.0
 10
165.1082152192654
 20
5.829470698684944
 30
0.0
 10
165.1904173638742
 20
5.723864243735185
 30
0.0
 10
165.2850091586712
 20
5.626035283991948
 30
0.0
 10
165.3887915774614
 20
5.536669261757253
 30
0.0
 10
165.500141468693
 20
5.457974091386269
 30
0.0
 10
165.6187815011828
 20
5.392374162291765
 30
0.0
 10
165.743401729995
 20
5.337785982237683
 30
0.0
 10
165.8749611333354
 20
5.295824522150151
 30
0.0
 10
166.0132231326681
 20
5.266284210115047
 30
0.0
 10
166.1578870140735
 20
5.24701451776658
 30
0.0
 10
166.2567378268308
 20
5.245169672161004
 30
0.0
 10
166.3070462740384
 20
5.244230769230769
 30
0.0
  0
SPLINE
  5
79
330
1F
100
AcDbEntity
  8
0
  6
Continuous
 62
     7
370
    15
100
AcDbSpline
210
0.0
220
0.0
230
1.0
 70
     8
 71
     3
 72
    15
 73
    11
 74
     0
 42
0.000000001
 43
0.00000001
 40
0.0
 40
0.0
 40
0.0
 40
0.0
 40
0.128515189511656
 40
0.2529486363526459
 40
0.3747547340060057
 40
0.4959397538670409
 40
0.6171806414298932
 40
0.740909469278127
 40
0.8678111481861991
 40
1.0
 40
1.0
 40
1.0
 40
1.0
 10
166.3070462740384
 20
5.244230769230769
 30
0.0
 10
166.3624751419111
 20
5.24576273371909
 30
0.0
 10
166.4715724135743
 20
5.248778006308537
 30
0.0
 10
166.6315634088981
 20
5.274322468012855
 30
0.0
 10
166.7847215677185
 20
5.315740722048899
 30
0.0
 10
166.9310551283668
 20
5.373705265867029
 30
0.0
 10
167.0701515574241
 20
5.449057348464491
 30
0.0
 10
167.2022285278472
 20
5.540404708684091
 30
0.0
 10
167.3273975239472
 20
5.648616267688351
 30
0.0
 10
167.402664329976
 20
5.731241676893088
 30
0.0
 10
167.4410657051282
 20
5.773397435897435
 30
0.0
  0
LINE
  5
7A
330
1F
100
AcDbEntity
  8
0
  6
Continuous
 62
     7
370
    15
100
AcDbLine
 10
167.4410657051
 20
5.7733974359
 30
0.0
 11
167.6903846154
 21
5.5845002003
 31
0.0
  0
SPLINE
  5
7B
330
1F
100
AcDbEntity
  8
0
  6
Continuous
 62
     7
370
    15
100
AcDbSpline
210
0.0
220
0.0
230
1.0
 70
     8
 71
     3
 72
    23
 73
    19
 74
     0
 42
0.000000001
 43
0.00000001
 40
0.0
 40
0.0
 40
0.0
 40
0.0
 40
0.0616742388774242
 40
0.1230530616347959
 40
0.1834750007317033
 40
0.2437265005106047
 40
0.3042789165122448
 40
0.3648629209606792
 40
0.4259462039686134
 40
0.4873912299654077
 40
0.549220384075476
 40
0.6111435886925968
 40
0.6735285303101505
 40
0.7369614566573004
 40
0.8007852828728471
 40
0.8660125956416248
 40
0.9321007477905874
 40
0.9999999999999999
 40
0.9999999999999999
 40
0.9999999999999999
 40
0.9999999999999999
 10
167.6903846153846
 20
5.584500200320512
 30
0.0
 10
167.6703203299924
 20
5.558611747504366
 30
0.0
 10
167.6302878660017
 20
5.506958846098542
 30
0.0
 10
167.5654652363069
 20
5.434140937991694
 30
0.0
 10
167.4971779736693
 20
5.365647991503226
 30
0.0
 10
167.424918865306
 20
5.302032220818275
 30
0.0
 10
167.3495191543638
 20
5.242020669876743
 30
0.0
 10
167.2696249853084
 20
5.187318294362366
 30
0.0
 10
167.1862866486786
 20
5.137161563620493
 30
0.0
 10
167.0997865142428
 20
5.091235710670247
 30
0.0
 10
167.0102164869173
 20
5.050489350869463
 30
0.0
 10
166.9176838923629
 20
5.015606290086704
 30
0.0
 10
166.8225875845842
 20
4.985557283153629
 30
0.0
 10
166.7249232162391
 20
4.960835883411246
 30
0.0
 10
166.6244882082602
 20
4.941539971611754
 30
0.0
 10
166.5216449924757
 20
4.928640695145441
 30
0.0
 10
166.4161716056699
 20
4.919803387050978
 30
0.0
 10
166.3450140307916
 20
4.918997920558284
 30
0.0
 10
166.308954326923
 20
4.918589743589743
 30
0.0
  0
SPLINE
  5
7C
330
1F
100
AcDbEntity
  8
0
  6
Continuous
 62
     7
370
    15
100
AcDbSpline
210
0.0
220
0.0
230
1.0
 70
     8
 71
     3
 72
    23
 73
    19
 74
     0
 42
0.000000001
 43
0.00000001
 40
0.0
 40
0.0
 40
0.0
 40
0.0
 40
0.0696628008990818
 40
0.1377495622582694
 40
0.2039167435177793
 40
0.2687798623293398
 40
0.3324137064772213
 40
0.394753540447139
 40
0.4561800316591765
 40
0.516995649196724
 40
0.5773959379659587
 40
0.6371983435092748
 40
0.6969991842614528
 40
0.7567561942255617
 40
0.8165539052726051
 40
0.876947996597868
 40
0.9381317879205976
 40
1.0
 40
1.0
 40
1.0
 40
1.0
 10
166.308954326923
 20
4.918589743589743
 30
0.0
 10
166.2748061432349
 20
4.918827408265352
 30
0.0
 10
166.2072823386472
 20
4.919297360730754
 30
0.0
 10
166.1075884711133
 20
4.926910255453551
 30
0.0
 10
166.0105336371005
 20
4.937296802507616
 30
0.0
 10
165.9163952264928
 20
4.9529360642585
 30
0.0
 10
165.8246595205578
 20
4.971391287021672
 30
0.0
 10
165.7361581331982
 20
4.996130212674552
 30
0.0
 10
165.650020192373
 20
5.023842670943904
 30
0.0
 10
165.5665917690273
 20
5.056413623205202
 30
0.0
 10
165.4858018984975
 20
5.093167588792676
 30
0.0
 10
165.4079111553281
 20
5.134707074367263
 30
0.0
 10
165.3329553630805
 20
5.180682765881431
 30
0.0
 10
165.2601975884473
 20
5.23008123962287
 30
0.0
 10
165.1907126375423
 20
5.284489220605355
 30
0.0
 10
165.1238983681198
 20
5.343151096190795
 30
0.0
 10
165.0593801218232
 20
5.405869148800948
 30
0.0
 10
165.0194634004378
 20
5.451094622904382
 30
0.0
 10
164.9993940304487
 20
5.473833133012819
 30
0.0
  0
SPLINE
  5
7D
330
1F
100
AcDbEntity
  8
0
  6
Continuous
 62
     7
370
    15
100
AcDbSpline
210
0.0
220
0.0
230
1.0
 70
     8
 71
     3
 72
    15
 73
    11
 74
     0
 42
0.000000001
 43
0.00000001
 40
0.0
 40
0.0
 40
0.0
 40
0.0
 40
0.1243285095938545
 40
0.2471560163611905
 40
0.3687797492913397
 40
0.4907338624016511
 40
0.6136137718478472
 40
0.7389575757222177
 40
0.8673105751912629
 40
1.0
 40
1.0
 40
1.0
 40
1.0
 10
164.9993940304487
 20
5.47383313301282
 30
0.0
 10
164.9672488395596
 20
5.513331211530497
 30
0.0
 10
164.9033465427229
 20
5.591850513114992
 30
0.0
 10
164.8215896726444
 20
5.719109938970871
 30
0.0
 10
164.7516058189903
 20
5.851977528451087
 30
0.0
 10
164.6950219479986
 20
5.991151320985701
 30
0.0
 10
164.6507871829227
 20
6.136319022268129
 30
0.0
 10
164.6201428131003
 20
6.287553810340687
 30
0.0
 10
164.6002295718955
 20
6.444714443624102
 30
0.0
 10
164.5979523813583
 20
6.551609244765576
 30
0.0
 10
164.5967948717948
 20
6.605944511217948
 30
0.0
  0
LINE
  5
7E
330
1F
100
AcDbEntity
  8
0
  6
Continuous
 62
     7
370
    15
100
AcDbLine
 10
170.3362179487
 20
6.8908804087
 30
0.0
 11
170.3362179487
 21
7.3201923077
 31
0.0
  0
LINE
  5
7F
330
1F
100
AcDbEntity
  8
0
  6
Continuous
 62
     7
370
    15
100
AcDbLine
 10
170.3362179487
 20
7.3201923077
 30
0.0
 11
170.6211538462
 21
7.3201923077
 31
0.0
  0
LINE
  5
80
330
1F
100
AcDbEntity
  8
0
  6
Continuous
 62
     7
370
    15
100
AcDbLine
 10
170.6211538462
 20
7.3201923077
 30
0.0
 11
170.6211538462
 21
5.0
 31
0.0
  0
LINE
  5
81
330
1F
100
AcDbEntity
  8
0
  6
Continuous
 62
     7
370
    15
100
AcDbLine
 10
170.6211538462
 20
5.0
 30
0.0
 11
170.3362179487
 21
5.0
 31
0.0
  0
LINE
  5
82
330
1F
100
AcDbEntity
  8
0
  6
Continuous
 62
     7
370
    15
100
AcDbLine
 10
170.3362179487
 20
5.0
 30
0.0
 11
170.3362179487
 21
5.4013271234
 31
0.0
  0
SPLINE
  5
83
330
1F
100
AcDbEntity
  8
0
  6
Continuous
 62
     7
370
    15
100
AcDbSpline
210
0.0
220
0.0
230
1.0
 70
     8
 71
     3
 72
    15
 73
    11
 74
     0
 42
0.000000001
 43
0.00000001
 40
0.0
 40
0.0
 40
0.0
 40
0.0
 40
0.1342983790141795
 40
0.2620849753822926
 40
0.3862699121344926
 40
0.5071645966228006
 40
0.6273002357254971
 40
0.7481449416029825
 40
0.8723701771613424
 40
1.0
 40
1.0
 40
1.0
 40
1.0
 10
170.3362179487179
 20
5.401327123397436
 30
0.0
 10
170.3040880457928
 20
5.365005491735688
 30
0.0
 10
170.2413861362166
 20
5.294123370821119
 30
0.0
 10
170.1366645506282
 20
5.201520257204487
 30
0.0
 10
170.0256591321023
 20
5.124977065521728
 30
0.0
 10
169.9089086479338
 20
5.06315535627924
 30
0.0
 10
169.7865185271855
 20
5.016716848030343
 30
0.0
 10
169.6587600765848
 20
4.983709403680512
 30
0.0
 10
169.5255811810854
 20
4.962487853202829
 30
0.0
 10
169.4346379735259
 20
4.960368747650209
 30
0.0
 10
169.3885516826923
 20
4.959294871794871
 30
0.0
  0
SPLINE
  5
84
330
1F
100
AcDbEntity
  8
0
  6
Continuous
 62
     7
370
    15
100
AcDbSpline
210
0.0
220
0.0
230
1.0
 70
     8
 71
     3
 72
    23
 73
    19
 74
     0
 42
0.000000001
 43
0.00000001
 40
0.0
 40
0.0
 40
0.0
 40
0.0
 40
0.064619991340761
 40
0.1274334841444646
 40
0.1890041265579311
 40
0.2499300706860425
 40
0.3106684537406677
 40
0.3723289611368265
 40
0.4349391099970016
 40
0.4995755441940359
 40
0.5641912077719244
 40
0.6267352169294734
 40
0.6881093335614032
 40
0.7492936065367489
 40
0.810330527810947
 40
0.8719011702244153
 40
0.935045914684531
 40
0.9999999999999999
 40
0.9999999999999999
 40
0.9999999999999999
 40
0.9999999999999999
 10
169.3885516826923
 20
4.959294871794871
 30
0.0
 10
169.3475778960014
 20
4.960407366639031
 30
0.0
 10
169.2667757744244
 20
4.962601255730356
 30
0.0
 10
169.1479136830198
 20
4.979621345441219
 30
0.0
 10
169.0335299995877
 20
5.006954123645108
 30
0.0
 10
168.9235166372446
 20
5.04496421625549
 30
0.0
 10
168.8185854767436
 20
5.095383961598711
 30
0.0
 10
168.7178381033337
 20
5.155746379464833
 30
0.0
 10
168.6217964470021
 20
5.227629132466594
 30
0.0
 10
168.5319244080849
 20
5.309805415329547
 30
0.0
 10
168.449163950601
 20
5.399063725131827
 30
0.0
 10
168.376536939008
 20
5.494264328368569
 30
0.0
 10
168.3159823594256
 20
5.594995561185463
 30
0.0
 10
168.2653455719268
 20
5.699982065070247
 30
0.0
 10
168.2263417451842
 20
5.810032027790387
 30
0.0
 10
168.1991513769644
 20
5.924764887278627
 30
0.0
 10
168.1821511146003
 20
6.044044986846913
 30
0.0
 10
168.1799581324075
 20
6.125270125655074
 30
0.0
 10
168.1788461538461
 20
6.166456330128204
 30
0.0
  0
SPLINE
  5
85
330
1F
100
AcDbEntity
  8
0
  6
Continuous
 62
     7
370
    15
100
AcDbSpline
210
0.0
220
0.0
230
1.0
 70
     8
 71
     3
 72
    23
 73
    19
 74
     0
 42
0.000000001
 43
0.00000001
 40
0.0
 40
0.0
 40
0.0
 40
0.0
 40
0.0637745323056322
 40
0.1260788099895052
 40
0.1869040927472074
 40
0.2475739349176179
 40
0.3080033561644465
 40
0.3691318984609757
 40
0.4320332277442043
 40
0.496790794437088
 40
0.5616108232295588
 40
0.6249138657484558
 40
0.6867263492419242
 40
0.7480788332577681
 40
0.8095822911398951
 40
0.8716307425688212
 40
0.9348858208285478
 40
0.9999999999999999
 40
0.9999999999999999
 40
0.9999999999999999
 40
0.9999999999999999
 10
168.1788461538461
 20
6.166456330128204
 30
0.0
 10
168.1799827778882
 20
6.206791261223329
 30
0.0
 10
168.1822298223029
 20
6.28653124409158
 30
0.0
 10
168.1989695288723
 20
6.403805491550184
 30
0.0
 10
168.2271190867275
 20
6.516761342358192
 30
0.0
 10
168.2666232056814
 20
6.625035140854036
 30
0.0
 10
168.3172798362552
 20
6.728757900631674
 30
0.0
 10
168.3789003151955
 20
6.828002980466667
 30
0.0
 10
168.4514890926009
 20
6.923043791021501
 30
0.0
 10
168.53517520468
 20
7.011645546778539
 30
0.0
 10
168.6258303176133
 20
7.093488532580052
 30
0.0
 10
168.7228118092293
 20
7.164616738088576
 30
0.0
 10
168.8237072144275
 20
7.226045593800243
 30
0.0
 10
168.93008151683
 20
7.274716961592442
 30
0.0
 10
169.0403602476256
 20
7.314095220714908
 30
0.0
 10
169.1555251591248
 20
7.341339413206096
 30
0.0
 10
169.2750970912091
 20
7.357393411759527
 30
0.0
 10
169.3562777518677
 20
7.359718204953727
 30
0.0
 10
169.3974559294872
 20
7.360897435897435
 30
0.0
  0
SPLINE
  5
86
330
1F
100
AcDbEntity
  8
0
  6
Continuous
 62
     7
370
    15
100
AcDbSpline
210
0.0
220
0.0
230
1.0
 70
     8
 71
     3
 72
    15
 73
    11
 74
     0
 42
0.000000001
 43
0.00000001
 40
0.0
 40
0.0
 40
0.0
 40
0.0
 40
0.1298621417207362
 40
0.2546535308972849
 40
0.3760145541937065
 40
0.4952552518175966
 40
0.6147977192994417
 40
0.7381055541683285
 40
0.8651963000723482
 40
1.0
 40
1.0
 40
1.0
 40
1.0
 10
169.3974559294872
 20
7.360897435897435
 30
0.0
 10
169.4448086587801
 20
7.359593189855892
 30
0.0
 10
169.537665126048
 20
7.357035624924056
 30
0.0
 10
169.6734898201686
 20
7.335751579427548
 30
0.0
 10
169.8019815965525
 20
7.299793827079942
 30
0.0
 10
169.9241323301798
 20
7.250882953872902
 30
0.0
 10
170.0395033811373
 20
7.185887321062872
 30
0.0
 10
170.1470025169095
 20
7.103899784991443
 30
0.0
 10
170.2477547767673
 20
7.005437422525668
 30
0.0
 10
170.3061568984868
 20
6.92980851932859
 30
0.0
 10
170.3362179487179
 20
6.890880408653845
 30
0.0
  0
LINE
  5
87
330
1F
100
AcDbEntity
  8
0
  6
Continuous
 62
     7
370
    15
100
AcDbLine
 10
174.2032051282
 20
5.0
 30
0.0
 11
173.9182692308
 21
5.0
 31
0.0
  0
LINE
  5
88
330
1F
100
AcDbEntity
  8
0
  6
Continuous
 62
     7
370
    15
100
AcDbLine
 10
173.9182692308
 20
5.0
 30
0.0
 11
173.9182692308
 21
7.3201923077
 31
0.0
  0
LINE
  5
89
330
1F
100
AcDbEntity
  8
0
  6
Continuous
 62
     7
370
    15
100
AcDbLine
 10
173.9182692308
 20
7.3201923077
 30
0.0
 11
174.2032051282
 21
7.3201923077
 31
0.0
  0
LINE
  5
8A
330
1F
100
AcDbEntity
  8
0
  6
Continuous
 62
     7
370
    15
100
AcDbLine
 10
174.2032051282
 20
7.3201923077
 30
0.0
 11
174.2032051282
 21
6.9016927083
 31
0.0
  0
SPLINE
  5
8B
330
1F
100
AcDbEntity
  8
0
  6
Continuous
 62
     7
370
    15
100
AcDbSpline
210
0.0
220
0.0
230
1.0
 70
     8
 71
     3
 72
    15
 73
    11
 74
     0
 42
0.000000001
 43
0.00000001
 40
0.0
 40
0.0
 40
0.0
 40
0.0
 40
0.1409759662687777
 40
0.2735687809631717
 40
0.3989883138042586
 40
0.519929781392423
 40
0.6381100215247323
 40
0.756588900740586
 40
0.8768597544106109
 40
1.0
 40
1.0
 40
1.0
 40
1.0
 10
174.2032051282051
 20
6.901692708333332
 30
0.0
 10
174.2336285543607
 20
6.939650035478892
 30
0.0
 10
174.2926662742387
 20
7.013307553073298
 30
0.0
 10
174.3909863479957
 20
7.11011835999567
 30
0.0
 10
174.4948940290025
 20
7.18989724271485
 30
0.0
 10
174.6037529893088
 20
7.253491398650068
 30
0.0
 10
174.7177110056137
 20
7.301430838084924
 30
0.0
 10
174.8360734362231
 20
7.336052789855498
 30
0.0
 10
174.9595489196028
 20
7.356812598602152
 30
0.0
 10
175.043518087338
 20
7.359525164659577
 30
0.0
 10
175.0859975961539
 20
7.360897435897436
 30
0.0
  0
SPLINE
  5
8C
330
1F
100
AcDbEntity
  8
0
  6
Continuous
 62
     7
370
    15
100
AcDbSpline
210
0.0
220
0.0
230
1.0
 70
     8
 71
     3
 72
    23
 73
    19
 74
     0
 42
0.000000001
 43
0.00000001
 40
0.0
 40
0.0
 40
0.0
 40
0.0
 40
0.0772404236164749
 40
0.1511781404663758
 40
0.2234879838003895
 40
0.2955426441988721
 40
0.3669762546197815
 40
0.4371305254863775
 40
0.5070436156432686
 40
0.5785597335236745
 40
0.6166135446965495
 40
0.6587562369775272
 40
0.7044912261144022
 40
0.7548031149051482
 40
0.809331625318564
 40
0.8682744554728196
 40
0.9320728834092934
 40
1.0
 40
1.0
 40
1.0
 40
1.0
 10
175.0859975961539
 20
7.360897435897435
 30
0.0
 10
175.1289332428167
 20
7.359314294318637
 30
0.0
 10
175.2129686600025
 20
7.356215704373483
 30
0.0
 10
175.3353223299705
 20
7.331707706008459
 30
0.0
 10
175.4495981942435
 20
7.289847367431087
 30
0.0
 10
175.5553887912797
 20
7.232504989279771
 30
0.0
 10
175.6507541919731
 20
7.161197688406304
 30
0.0
 10
175.7345060215264
 20
7.078123557810496
 30
0.0
 10
175.8037783959333
 20
6.98256868230393
 30
0.0
 10
175.850221718083
 20
6.893919819146426
 30
0.0
 10
175.8808156984884
 20
6.815280698627533
 30
0.0
 10
175.9000764618045
 20
6.747928289609297
 30
0.0
 10
175.9164331378426
 20
6.672891109620202
 30
0.0
 10
175.9306133664016
 20
6.590395910978005
 30
0.0
 10
175.9402083178813
 20
6.499864695534788
 30
0.0
 10
175.9477759680562
 20
6.401668574886785
 30
0.0
 10
175.9531994978748
 20
6.295839356508649
 30
0.0
 10
175.9534146784985
 20
6.222645058786826
 30
0.0
 10
175.9535256410256
 20
6.184900841346153
 30
0.0
  0
LINE
  5
8D
330
1F
100
AcDbEntity
  8
0
  6
Continuous
 62
     7
370
    15
100
AcDbLine
 10
175.953525641
 20
6.1849008413
 30
0.0
 11
175.953525641
 21
5.0
 31
0.0
  0
LINE
  5
8E
330
1F
100
AcDbEntity
  8
0
  6
Continuous
 62
     7
370
    15
100
AcDbLine
 10
175.953525641
 20
5.0
 30
0.0
 11
175.6685897436
 21
5.0
 31
0.0
  0
LINE
  5
8F
330
1F
100
AcDbEntity
  8
0
  6
Continuous
 62
     7
370
    15
100
AcDbLine
 10
175.6685897436
 20
5.0
 30
0.0
 11
175.6685897436
 21
6.09140625
 31
0.0
  0
SPLINE
  5
90
330
1F
100
AcDbEntity
  8
0
  6
Continuous
 62
     7
370
    15
100
AcDbSpline
210
0.0
220
0.0
230
1.0
 70
     8
 71
     3
 72
    15
 73
    11
 74
     0
 42
0.000000001
 43
0.00000001
 40
0.0
 40
0.0
 40
0.0
 40
0.0
 40
0.1788500194111603
 40
0.3421096489422994
 40
0.4898256633683922
 40
0.6232544282245632
 40
0.7400796760857921
 40
0.8414826730699866
 40
0.9289076721840666
 40
0.9999999999999999
 40
0.9999999999999999
 40
0.9999999999999999
 40
0.9999999999999999
 10
175.6685897435898
 20
6.091406249999999
 30
0.0
 10
175.6684144763154
 20
6.122995182185372
 30
0.0
 10
175.6680792198481
 20
6.183419433387471
 30
0.0
 10
175.6670218117843
 20
6.269932761567283
 30
0.0
 10
175.6644729157944
 20
6.348388443404087
 30
0.0
 10
175.6608912319349
 20
6.418598912407578
 30
0.0
 10
175.6556488256691
 20
6.480496749861477
 30
0.0
 10
175.6501854386587
 20
6.534208022331401
 30
0.0
 10
175.6435043525643
 20
6.579664535824027
 30
0.0
 10
175.6375508527899
 20
6.607028574843009
 30
0.0
 10
175.6348808092949
 20
6.619300881410255
 30
0.0
  0
SPLINE
  5
91
330
1F
100
AcDbEntity
  8
0
  6
Continuous
 62
     7
370
    15
100
AcDbSpline
210
0.0
220
0.0
230
1.0
 70
     8
 71
     3
 72
    15
 73
    11
 74
     0
 42
0.000000001
 43
0.00000001
 40
0.0
 40
0.0
 40
0.0
 40
0.0
 40
0.1355195283706031
 40
0.2608331631936759
 40
0.3784760291245067
 40
0.4931776464746733
 40
0.6092809649289375
 40
0.7299810378566298
 40
0.8592613089300506
 40
1.0
 40
1.0
 40
1.0
 40
1.0
 10
175.6348808092949
 20
6.619300881410255
 30
0.0
 10
175.6252419342856
 20
6.655324599184193
 30
0.0
 10
175.6066900821021
 20
6.72465911037934
 30
0.0
 10
175.5608485402672
 20
6.818706558828802
 30
0.0
 10
175.5029599619814
 20
6.898714914931081
 30
0.0
 10
175.4322954843431
 20
6.964189512404648
 30
0.0
 10
175.3495376800121
 20
7.015144485701329
 30
0.0
 10
175.2549162005014
 20
7.050499430346596
 30
0.0
 10
175.1493441478915
 20
7.072612188834176
 30
0.0
 10
175.0750905293233
 20
7.074813944305219
 30
0.0
 10
175.0363882211539
 20
7.075961538461538
 30
0.0
  0
SPLINE
  5
92
330
1F
100
AcDbEntity
  8
0
  6
Continuous
 62
     7
370
    15
100
AcDbSpline
210
0.0
220
0.0
230
1.0
 70
     8
 71
     3
 72
    23
 73
    19
 74
     0
 42
0.000000001
 43
0.00000001
 40
0.0
 40
0.0
 40
0.0
 40
0.0
 40
0.0639861098164609
 40
0.1266268580894718
 40
0.1889843719814867
 40
0.2502301939603864
 40
0.312351162962327
 40
0.3745736184579436
 40
0.4381475308782137
 40
0.5029204126073689
 40
0.5679740951402685
 40
0.6307713337491978
 40
0.6929346089254531
 40
0.7543975343123358
 40
0.8152183520172952
 40
0.8761169254810911
 40
0.9380146047939499
 40
1.0
 40
1.0
 40
1.0
 40
1.0
 10
175.0363882211539
 20
7.075961538461538
 30
0.0
 10
175.0134668224552
 20
7.075529734231042
 30
0.0
 10
174.9681059666607
 20
7.074675204815605
 30
0.0
 10
174.9008413492887
 20
7.06610152732332
 30
0.0
 10
174.8355958493344
 20
7.052078499744813
 30
0.0
 10
174.7717146597463
 20
7.033147664299146
 30
0.0
 10
174.7104754468581
 20
7.007146891504295
 30
0.0
 10
174.6499106970018
 20
6.977638105657405
 30
0.0
 10
174.5923009895411
 20
6.940855084785007
 30
0.0
 10
174.5364179078603
 20
6.899860735336075
 30
0.0
 10
174.4844270037749
 20
6.854431740235397
 30
0.0
 10
174.4360505825024
 20
6.806494220311015
 30
0.0
 10
174.3929268069889
 20
6.755444208295962
 30
0.0
 10
174.3538573658387
 20
6.70210425589462
 30
0.0
 10
174.3201313697747
 20
6.645741802854368
 30
0.0
 10
174.2906917827468
 20
6.586900610548613
 30
0.0
 10
174.2657129739
 20
6.525503232686951
 30
0.0
 10
174.2533008171595
 20
6.482890141427626
 30
0.0
 10
174.2470903445513
 20
6.461568509615383
 30
0.0
  0
SPLINE
  5
93
330
1F
100
AcDbEntity
  8
0
  6
Continuous
 62
     7
370
    15
100
AcDbSpline
210
0.0
220
0.0
230
1.0
 70
     8
 71
     3
 72
    15
 73
    11
 74
     0
 42
0.000000001
 43
0.00000001
 40
0.0
 40
0.0
 40
0.0
 40
0.0
 40
0.0769954547170535
 40
0.1676150771831752
 40
0.2710523936342355
 40
0.3894595025720755
 40
0.5208428024655765
 40
0.6663987586080743
 40
0.8260936125153153
 40
1.0
 40
1.0
 40
1.0
 40
1.0
 10
174.2470903445513
 20
6.461568509615383
 30
0.0
 10
174.2435165204863
 20
6.445915575416494
 30
0.0
 10
174.2357364924481
 20
6.411839956491565
 30
0.0
 10
174.2273334650046
 20
6.355919661764131
 30
0.0
 10
174.2197065930331
 20
6.291231327306955
 30
0.0
 10
174.2133230662863
 20
6.21785043969202
 30
0.0
 10
174.209417438488
 20
6.135520081549672
 30
0.0
 10
174.2051589499861
 20
6.044591857256052
 30
0.0
 10
174.2036085874474
 20
5.944703192818752
 30
0.0
 10
174.2033433805886
 20
5.875160085846997
 30
0.0
 10
174.2032051282051
 20
5.838907251602564
 30
0.0
  0
LINE
  5
94
330
1F
100
AcDbEntity
  8
0
  6
Continuous
 62
     7
370
    15
100
AcDbLine
 10
174.2032051282
 20
5.8389072516
 30
0.0
 11
174.2032051282
 21
5.0
 31
0.0
  0
LINE
  5
95
330
1F
100
AcDbEntity
  8
0
  6
Continuous
 62
     7
370
    15
100
AcDbLine
 10
173.2262820513
 20
5.0
 30
0.0
 11
172.9413461538
 21
5.0
 31
0.0
  0
LINE
  5
96
330
1F
100
AcDbEntity
  8
0
  6
Continuous
 62
     7
370
    15
100
AcDbLine
 10
172.9413461538
 20
5.0
 30
0.0
 11
172.9413461538
 21
7.3201923077
 31
0.0
  0
LINE
  5
97
330
1F
100
AcDbEntity
  8
0
  6
Continuous
 62
     7
370
    15
100
AcDbLine
 10
172.9413461538
 20
7.3201923077
 30
0.0
 11
173.2262820513
 21
7.3201923077
 31
0.0
  0
LINE
  5
98
330
1F
100
AcDbEntity
  8
0
  6
Continuous
 62
     7
370
    15
100
AcDbLine
 10
173.2262820513
 20
7.3201923077
 30
0.0
 11
173.2262820513
 21
5.0
 31
0.0
  0
SPLINE
  5
99
330
1F
100
AcDbEntity
  8
0
  6
Continuous
 62
     7
370
    15
100
AcDbSpline
210
0.0
220
0.0
230
1.0
 70
     8
 71
     3
 72
    15
 73
    11
 74
     0
 42
0.000000001
 43
0.00000001
 40
0.0
 40
0.0
 40
0.0
 40
0.0
 40
0.1318667517023361
 40
0.256661403453346
 40
0.3842132129424814
 40
0.5133652331526025
 40
0.6404431518253856
 40
0.7610850047778733
 40
0.8791455246531564
 40
1.0
 40
1.0
 40
1.0
 40
1.0
 10
173.0825420673076
 20
7.808653846153845
 30
0.0
 10
173.0650629891206
 20
7.809442806640655
 30
0.0
 10
173.0310422471169
 20
7.810978415148489
 30
0.0
 10
172.9817237544208
 20
7.825102645523598
 30
0.0
 10
172.9365221961853
 20
7.848158654693331
 30
0.0
 10
172.8960049574168
 20
7.879206694029699
 30
0.0
 10
172.862231853647
 20
7.916349565088054
 30
0.0
 10
172.8376498013229
 20
7.958375038801297
 30
0.0
 10
172.8221603716124
 20
8.003921914776182
 30
0.0
 10
172.8202148870833
 20
8.035592237070897
 30
0.0
 10
172.8192307692307
 20
8.051612580128204
 30
0.0
  0
SPLINE
  5
9A
330
1F
100
AcDbEntity
  8
0
  6
Continuous
 62
     7
370
    15
100
AcDbSpline
210
0.0
220
0.0
230
1.0
 70
     8
 71
     3
 72
    15
 73
    11
 74
     0
 42
0.000000001
 43
0.00000001
 40
0.0
 40
0.0
 40
0.0
 40
0.0
 40
0.123289868727805
 40
0.2421490813339831
 40
0.3634374760537356
 40
0.489745393341361
 40
0.6181148445930266
 40
0.7448937812572669
 40
0.868932266589181
 40
1.0
 40
1.0
 40
1.0
 40
1.0
 10
172.8192307692307
 20
8.051612580128204
 30
0.0
 10
172.8201933263761
 20
8.06805985083925
 30
0.0
 10
172.8220838493433
 20
8.100363328280071
 30
0.0
 10
172.8376614118403
 20
8.14671382242501
 30
0.0
 10
172.8620270945957
 20
8.189332756203584
 30
0.0
 10
172.8960273200868
 20
8.22654874496857
 30
0.0
 10
172.9365162447607
 20
8.257614246509085
 30
0.0
 10
172.9817252921617
 20
8.280665636871772
 30
0.0
 10
173.0310418408838
 20
8.294791066157673
 30
0.0
 10
173.0650628512448
 20
8.296326509160997
 30
0.0
 10
173.0825420673076
 20
8.297115384615383
 30
0.0
  0
SPLINE
  5
9B
330
1F
100
AcDbEntity
  8
0
  6
Continuous
 62
     7
370
    15
100
AcDbSpline
210
0.0
220
0.0
230
1.0
 70
     8
 71
     3
 72
    15
 73
    11
 74
     0
 42
0.000000001
 43
0.00000001
 40
0.0
 40
0.0
 40
0.0
 40
0.0
 40
0.1318992643310716
 40
0.2582840923169943
 40
0.3843411247791186
 40
0.5119796151257066
 40
0.6386320084211539
 40
0.759229763164583
 40
0.8774121680351996
 40
0.9999999999999999
 40
0.9999999999999999
 40
0.9999999999999999
 40
0.9999999999999999
 10
173.0825420673076
 20
8.297115384615383
 30
0.0
 10
173.1002234752011
 20
8.296295189227825
 30
0.0
 10
173.1348470677726
 20
8.294689089131117
 30
0.0
 10
173.1849152463074
 20
8.28093546349551
 30
0.0
 10
173.230505535833
 20
8.257622177413726
 30
0.0
 10
173.2709439078116
 20
8.226344181168175
 30
0.0
 10
173.3056438335865
 20
8.189560043173023
 30
0.0
 10
173.3299377637126
 20
8.146687593362323
 30
0.0
 10
173.345551865903
 20
8.100370113889579
 30
0.0
 10
173.3474374124762
 20
8.068062140132453
 30
0.0
 10
173.3483974358974
 20
8.051612580128205
 30
0.0
  0
SPLINE
  5
9C
330
1F
100
AcDbEntity
  8
0
  6
Continuous
 62
     7
370
    15
100
AcDbSpline
210
0.0
220
0.0
230
1.0
 70
     8
 71
     3
 72
    15
 73
    11
 74
     0
 42
0.000000001
 43
0.00000001
 40
0.0
 40
0.0
 40
0.0
 40
0.0
 40
0.1201621349925912
 40
0.2375463202768788
 40
0.3574970509273493
 40
0.4849171224652744
 40
0.6133292680851103
 40
0.7401503701286687
 40
0.8673012545632695
 40
1.0
 40
1.0
 40
1.0
 40
1.0
 10
173.3483974358974
 20
8.051612580128204
 30
0.0
 10
173.347415762342
 20
8.035590030473006
 30
0.0
 10
173.3454751098993
 20
8.003915345995404
 30
0.0
 10
173.3299498241284
 20
7.958400839205007
 30
0.0
 10
173.3054367940854
 20
7.916124096330797
 30
0.0
 10
173.2709661586962
 20
7.879411380638269
 30
0.0
 10
173.2304996397873
 20
7.848150675361145
 30
0.0
 10
173.1849168126232
 20
7.824832805068729
 30
0.0
 10
173.1348466557565
 20
7.811080394744115
 30
0.0
 10
173.1002233359214
 20
7.809474127102447
 30
0.0
 10
173.0825420673076
 20
7.808653846153845
 30
0.0
  0
SPLINE
  5
9D
330
1F
100
AcDbEntity
  8
0
  6
Continuous
 62
     7
370
    15
100
AcDbSpline
210
0.0
220
0.0
230
1.0
 70
     8
 71
     3
 72
    23
 73
    19
 74
     0
 42
0.000000001
 43
0.00000001
 40
0.0
 40
0.0
 40
0.0
 40
0.0
 40
0.0679784896192536
 40
0.1330435352439053
 40
0.1965074380533934
 40
0.2586134167685691
 40
0.3197283376065517
 40
0.3808728540495581
 40
0.4426356023162026
 40
0.5050793035048707
 40
0.5678805200585726
 40
0.6288138541554796
 40
0.6889100905404435
 40
0.7487650058898279
 40
0.8093857829631181
 40
0.8708843357532083
 40
0.9340374630736851
 40
1.0
 40
1.0
 40
1.0
 40
1.0
 10
171.1910256410256
 20
6.752228565705128
 30
0.0
 10
171.1915102324967
 20
6.773660176701216
 30
0.0
 10
171.1924586466614
 20
6.815604875809159
 30
0.0
 10
171.2000278934481
 20
6.877235091369887
 30
0.0
 10
171.2138089457473
 20
6.935789488075439
 30
0.0
 10
171.2310944826762
 20
6.992147428090263
 30
0.0
 10
171.2551183509935
 20
7.045217184824481
 30
0.0
 10
171.2838257078034
 20
7.095706462116148
 30
0.0
 10
171.3175600146988
 20
7.143545473446898
 30
0.0
 10
171.3564249999681
 20
7.187998314698196
 30
0.0
 10
171.3991574567249
 20
7.228374632133987
 30
0.0
 10
171.4453262835561
 20
7.263570530365168
 30
0.0
 10
171.4938931305973
 20
7.293602723644773
 30
0.0
 10
171.545063625483
 20
7.318789690752522
 30
0.0
 10
171.5993293402431
 20
7.337840944963492
 30
0.0
 10
171.6563109621343
 20
7.350955858561333
 30
0.0
 10
171.7158931526319
 20
7.35971450681643
 30
0.0
 10
171.7566248883256
 20
7.360497447571125
 30
0.0
 10
171.7774338942308
 20
7.360897435897435
 30
0.0
  0
SPLINE
  5
9E
330
1F
100
AcDbEntity
  8
0
  6
Continuous
 62
     7
370
    15
100
AcDbSpline
210
0.0
220
0.0
230
1.0
 70
     8
 71
     3
 72
    15
 73
    11
 74
     0
 42
0.000000001
 43
0.00000001
 40
0.0
 40
0.0
 40
0.0
 40
0.0
 40
0.1057142614175236
 40
0.2134116126389716
 40
0.3261267300734497
 40
0.4444516715568521
 40
0.5690610798550754
 40
0.7027122044812105
 40
0.8463179465861916
 40
1.0
 40
1.0
 40
1.0
 40
1.0
 10
171.7774338942308
 20
7.360897435897435
 30
0.0
 10
171.8021009803746
 20
7.359895641121953
 30
0.0
 10
171.8518978815918
 20
7.357873258940947
 30
0.0
 10
171.926605292364
 20
7.341811668178067
 30
0.0
 10
172.0012026812576
 20
7.315383780887839
 30
0.0
 10
172.0758817201569
 20
7.278883769216588
 30
0.0
 10
172.1500953398118
 20
7.231651674668133
 30
0.0
 10
172.2244963455105
 20
7.174565810241157
 30
0.0
 10
172.2999779158452
 20
7.108001740650691
 30
0.0
 10
172.3471097141585
 20
7.057111729019706
 30
0.0
 10
172.3714743589744
 20
7.030804286858974
 30
0.0
  0
LINE
  5
9F
330
1F
100
AcDbEntity
  8
0
  6
Continuous
 62
     7
370
    15
100
AcDbLine
 10
172.371474359
 20
7.0308042869
 30
0.0
 11
172.178125
 21
6.8317307692
 31
0.0
  0
SPLINE
  5
A0
330
1F
100
AcDbEntity
  8
0
  6
Continuous
 62
     7
370
    15
100
AcDbSpline
210
0.0
220
0.0
230
1.0
 70
     8
 71
     3
 72
    15
 73
    11
 74
     0
 42
0.000000001
 43
0.00000001
 40
0.0
 40
0.0
 40
0.0
 40
0.0
 40
0.1582230975562946
 40
0.3050355053581552
 40
0.4413089638879047
 40
0.5659632271047437
 40
0.683525114415045
 40
0.7933341296296075
 40
0.898517512161031
 40
1.0
 40
1.0
 40
1.0
 40
1.0
 10
172.178125
 20
6.831730769230769
 30
0.0
 10
172.1614421860853
 20
6.851064837691609
 30
0.0
 10
172.1292796848333
 20
6.888338645591134
 30
0.0
 10
172.0782696984953
 20
6.938174413062139
 30
0.0
 10
172.0274482866815
 20
6.980027207674133
 30
0.0
 10
171.9775111486543
 20
7.015362471113274
 30
0.0
 10
171.9272025759942
 20
7.042077054105717
 30
0.0
 10
171.8771129431169
 20
7.061575964580129
 30
0.0
 10
171.8271903874642
 20
7.073642602572353
 30
0.0
 10
171.793820198376
 20
7.075197843387708
 30
0.0
 10
171.7774338942308
 20
7.075961538461538
 30
0.0
  0
SPLINE
  5
A1
330
1F
100
AcDbEntity
  8
0
  6
Continuous
 62
     7
370
    15
100
AcDbSpline
210
0.0
220
0.0
230
1.0
 70
     8
 71
     3
 72
    15
 73
    11
 74
     0
 42
0.000000001
 43
0.00000001
 40
0.0
 40
0.0
 40
0.0
 40
0.0
 40
0.1249584925460573
 40
0.2459006286062905
 40
0.3691660295860963
 40
0.4985108411773664
 40
0.6285038663666076
 40
0.7510283288509991
 40
0.8737241742784349
 40
1.0
 40
1.0
 40
1.0
 40
1.0
 10
171.7774338942308
 20
7.075961538461538
 30
0.0
 10
171.7573503048743
 20
7.074986475117476
 30
0.0
 10
171.7178286433465
 20
7.073067688451992
 30
0.0
 10
171.661199508144
 20
7.053914790934025
 30
0.0
 10
171.608630012592
 20
7.024515435331087
 30
0.0
 10
171.5631304664435
 20
6.982815363106014
 30
0.0
 10
171.5245880709956
 20
6.934950633526268
 30
0.0
 10
171.4964542317861
 20
6.881432538808297
 30
0.0
 10
171.479249375208
 20
6.82387609916042
 30
0.0
 10
171.4770679397126
 20
6.783934728275548
 30
0.0
 10
171.4759615384615
 20
6.76367688301282
 30
0.0
  0
SPLINE
  5
A2
330
1F
100
AcDbEntity
  8
0
  6
Continuous
 62
     7
370
    15
100
AcDbSpline
210
0.0
220
0.0
230
1.0
 70
     8
 71
     3
 72
    11
 73
     7
 74
     0
 42
0.000000001
 43
0.00000001
 40
0.0
 40
0.0
 40
0.0
 40
0.0
 40
0.2400399314959816
 40
0.4794031936060911
 40
0.7317567388575391
 40
1.0
 40
1.0
 40
1.0
 40
1.0
 10
171.4759615384615
 20
6.76367688301282
 30
0.0
 10
171.4769692038737
 20
6.745341671532403
 30
0.0
 10
171.4789816941025
 20
6.708722935289757
 30
0.0
 10
171.4946268959584
 20
6.654704361734424
 30
0.0
 10
171.51954254715
 20
6.602038334230978
 30
0.0
 10
171.5428290805349
 20
6.569777697753271
 30
0.0
 10
171.554827724359
 20
6.553155048076922
 30
0.0
  0
SPLINE
  5
A3
330
1F
100
AcDbEntity
  8
0
  6
Continuous
 62
     7
370
    15
100
AcDbSpline
210
0.0
220
0.0
230
1.0
 70
     8
 71
     3
 72
    15
 73
    11
 74
     0
 42
0.000000001
 43
0.00000001
 40
0.0
 40
0.0
 40
0.0
 40
0.0
 40
0.0834251049856371
 40
0.1775598214659387
 40
0.2839823599504449
 40
0.4022167468072059
 40
0.5335684803800526
 40
0.6761209941988388
 40
0.8316493725539897
 40
1.0
 40
1.0
 40
1.0
 40
1.0
 10
171.554827724359
 20
6.553155048076922
 30
0.0
 10
171.5620517508519
 20
6.544279032289095
 30
0.0
 10
171.5774271807606
 20
6.525387551374725
 30
0.0
 10
171.6062820479181
 20
6.499167627203064
 30
0.0
 10
171.6389596040843
 20
6.470191442389895
 30
0.0
 10
171.67825697617
 20
6.44122016884508
 30
0.0
 10
171.7224811228934
 20
6.410711389550777
 30
0.0
 10
171.7725910450016
 20
6.379866597495242
 30
0.0
 10
171.8269964887968
 20
6.346334583489393
 30
0.0
 10
171.865946759799
 20
6.325067131246115
 30
0.0
 10
171.8861929086538
 20
6.314012419871794
 30
0.0
  0
SPLINE
  5
A4
330
1F
100
AcDbEntity
  8
0
  6
Continuous
 62
     7
370
    15
100
AcDbSpline
210
0.0
220
0.0
230
1.0
 70
     8
 71
     3
 72
    15
 73
    11
 74
     0
 42
0.000000001
 43
0.00000001
 40
0.0
 40
0.0
 40
0.0
 40
0.0
 40
0.1589891012268005
 40
0.3071145916055753
 40
0.446213158596206
 40
0.5748760724117438
 40
0.6941521095829494
 40
0.8045811801532385
 40
0.906593319045767
 40
1.0
 40
1.0
 40
1.0
 40
1.0
 10
171.8861929086538
 20
6.314012419871794
 30
0.0
 10
171.9108795107348
 20
6.300183115176123
 30
0.0
 10
171.9585658971457
 20
6.273469452220434
 30
0.0
 10
172.0263229074416
 20
6.232004221179615
 30
0.0
 10
172.0878154374653
 20
6.190791429160043
 30
0.0
 10
172.1435645074037
 20
6.150271830713939
 30
0.0
 10
172.192497433996
 20
6.109311729375822
 30
0.0
 10
172.2360988496158
 20
6.069481121263996
 30
0.0
 10
172.273281223749
 20
6.029576534463548
 30
0.0
 10
172.2941037143868
 20
6.001697209910906
 30
0.0
 10
172.3040564903846
 20
5.988371394230769
 30
0.0
  0
SPLINE
  5
A5
330
1F
100
AcDbEntity
  8
0
  6
Continuous
 62
     7
370
    15
100
AcDbSpline
210
0.0
220
0.0
230
1.0
 70
     8
 71
     3
 72
    11
 73
     7
 74
     0
 42
0.000000001
 43
0.00000001
 40
0.0
 40
0.0
 40
0.0
 40
0.0
 40
0.2488386141270928
 40
0.4952350254576713
 40
0.7433356038750085
 40
1.0
 40
1.0
 40
1.0
 40
1.0
 10
172.3040564903846
 20
5.988371394230769
 30
0.0
 10
172.3205760402512
 20
5.961460014356381
 30
0.0
 10
172.3534530104411
 20
5.907901373773423
 30
0.0
 10
172.387977295012
 20
5.81971037173599
 30
0.0
 10
172.4079891157621
 20
5.726174415953674
 30
0.0
 10
172.410766986965
 20
5.662191616276391
 30
0.0
 10
172.4121794871795
 20
5.629657451923076
 30
0.0
  0
SPLINE
  5
A6
330
1F
100
AcDbEntity
  8
0
  6
Continuous
 62
     7
370
    15
100
AcDbSpline
210
0.0
220
0.0
230
1.0
 70
     8
 71
     3
 72
    23
 73
    19
 74
     0
 42
0.000000001
 43
0.00000001
 40
0.0
 40
0.0
 40
0.0
 40
0.0
 40
0.0645481255642519
 40
0.1271991327555133
 40
0.1885973380874271
 40
0.2486395150940182
 40
0.3095246994640546
 40
0.3700369910533546
 40
0.4318892436070759
 40
0.4957042857252937
 40
0.5595193278435191
 40
0.6213715803972432
 40
0.682397107291657
 40
0.7435684819321835
 40
0.8054984835712246
 40
0.8686397008205408
 40
0.9330662250811784
 40
1.0
 40
1.0
 40
1.0
 40
1.0
 10
172.4121794871795
 20
5.629657451923076
 30
0.0
 10
172.4115267672184
 20
5.606734726400993
 30
0.0
 10
172.4102405112308
 20
5.561562991647839
 30
0.0
 10
172.401297836223
 20
5.495037824704765
 30
0.0
 10
172.3859172505583
 20
5.431415761796751
 30
0.0
 10
172.3649679166116
 20
5.3700064678175
 30
0.0
 10
172.3366792354774
 20
5.31198657259309
 30
0.0
 10
172.3035251623473
 20
5.255892261011451
 30
0.0
 10
172.2637243495584
 20
5.202936952366795
 30
0.0
 10
172.2182843159632
 20
5.153190181348276
 30
0.0
 10
172.1685316178537
 20
5.107755253331263
 30
0.0
 10
172.1154581923472
 20
5.067819238038357
 30
0.0
 10
172.0589986817227
 20
5.034641089293475
 30
0.0
 10
171.9995565118608
 20
5.007186097537396
 30
0.0
 10
171.9369966256665
 20
4.985352749257474
 30
0.0
 10
171.8713092418137
 20
4.970237453048685
 30
0.0
 10
171.8027031573094
 20
4.961190734056103
 30
0.0
 10
171.7560489742192
 20
4.959934816374392
 30
0.0
 10
171.7322766426282
 20
4.959294871794871
 30
0.0
  0
SPLINE
  5
A7
330
1F
100
AcDbEntity
  8
0
  6
Continuous
 62
     7
370
    15
100
AcDbSpline
210
0.0
220
0.0
230
1.0
 70
     8
 71
     3
 72
    15
 73
    11
 74
     0
 42
0.000000001
 43
0.00000001
 40
0.0
 40
0.0
 40
0.0
 40
0.0
 40
0.1267425189618462
 40
0.2517239612496193
 40
0.3772186880262417
 40
0.5046935492516225
 40
0.6314582385934971
 40
0.7554010672029496
 40
0.8777005336014617
 40
1.0
 40
1.0
 40
1.0
 40
1.0
 10
171.7322766426282
 20
4.959294871794871
 30
0.0
 10
171.7001935620524
 20
4.960195392804478
 30
0.0
 10
171.6364731926151
 20
4.961983922159773
 30
0.0
 10
171.5422303759588
 20
4.978771563358307
 30
0.0
 10
171.4501365448844
 20
5.004893099314604
 30
0.0
 10
171.3608886190351
 20
5.040921125300901
 30
0.0
 10
171.2764825014357
 20
5.086414986249989
 30
0.0
 10
171.1992565912621
 20
5.140900157574672
 30
0.0
 10
171.1289426217441
 20
5.202576798076769
 30
0.0
 10
171.0889210448549
 20
5.249850652777726
 30
0.0
 10
171.0689102564102
 20
5.273487580128204
 30
0.0
  0
LINE
  5
A8
330
1F
100
AcDbEntity
  8
0
  6
Continuous
 62
     7
370
    15
100
AcDbLine
 10
171.0689102564
 20
5.2734875801
 30
0.0
 11
171.257807492
 21
5.4884615385
 31
0.0
  0
SPLINE
  5
A9
330
1F
100
AcDbEntity
  8
0
  6
Continuous
 62
     7
370
    15
100
AcDbSpline
210
0.0
220
0.0
230
1.0
 70
     8
 71
     3
 72
    15
 73
    11
 74
     0
 42
0.000000001
 43
0.00000001
 40
0.0
 40
0.0
 40
0.0
 40
0.0
 40
0.1474758177483448
 40
0.2859041715443824
 40
0.4171716482444169
 40
0.5405007435864904
 40
0.6592377183802413
 40
0.7750060983159592
 40
0.8872285734285908
 40
1.0
 40
1.0
 40
1.0
 40
1.0
 10
171.2578074919872
 20
5.488461538461538
 30
0.0
 10
171.2757438951872
 20
5.469089716354171
 30
0.0
 10
171.310516324835
 20
5.431534510114441
 30
0.0
 10
171.3661252857868
 20
5.381528858219649
 30
0.0
 10
171.4227123139302
 20
5.339617705121301
 30
0.0
 10
171.4797123510371
 20
5.304562607417155
 30
0.0
 10
171.5379691508877
 20
5.277552063124234
 30
0.0
 10
171.5971562437996
 20
5.258575910077657
 30
0.0
 10
171.6571532427697
 20
5.246380107130351
 30
0.0
 10
171.6974504659776
 20
5.244948379597623
 30
0.0
 10
171.7176482371795
 20
5.244230769230769
 30
0.0
  0
SPLINE
  5
AA
330
1F
100
AcDbEntity
  8
0
  6
Continuous
 62
     7
370
    15
100
AcDbSpline
210
0.0
220
0.0
230
1.0
 70
     8
 71
     3
 72
    15
 73
    11
 74
     0
 42
0.000000001
 43
0.00000001
 40
0.0
 40
0.0
 40
0.0
 40
0.0
 40
0.1340420464623707
 40
0.2618956736507242
 40
0.3878360446910996
 40
0.5176862058208266
 40
0.6445086536782142
 40
0.7647182630567263
 40
0.8802907821585007
 40
1.0
 40
1.0
 40
1.0
 40
1.0
 10
171.7176482371795
 20
5.24423076923077
 30
0.0
 10
171.7451509271557
 20
5.245474303211093
 30
0.0
 10
171.7988865698785
 20
5.247903960009687
 30
0.0
 10
171.8758519794784
 20
5.269963036351023
 30
0.0
 10
171.9469163049012
 20
5.304552349792332
 30
0.0
 10
172.0086231969076
 20
5.353614897408999
 30
0.0
 10
172.0611487287332
 20
5.410724595410139
 30
0.0
 10
172.0991835726602
 20
5.475053832204027
 30
0.0
 10
172.1230198175426
 20
5.544714653629252
 30
0.0
 10
172.1258192591805
 20
5.593003956719422
 30
0.0
 10
172.1272435897436
 20
5.617573116987178
 30
0.0
  0
SPLINE
  5
AB
330
1F
100
AcDbEntity
  8
0
  6
Continuous
 62
     7
370
    15
100
AcDbSpline
210
0.0
220
0.0
230
1.0
 70
     8
 71
     3
 72
    11
 73
     7
 74
     0
 42
0.000000001
 43
0.00000001
 40
0.0
 40
0.0
 40
0.0
 40
0.0
 40
0.2534754346498636
 40
0.5004533151028979
 40
0.7455781350009623
 40
1.0
 40
1.0
 40
1.0
 40
1.0
 10
172.1272435897436
 20
5.617573116987178
 30
0.0
 10
172.1262581655934
 20
5.637811128202069
 30
0.0
 10
172.1243125775191
 20
5.677768372254422
 30
0.0
 10
172.1090333236295
 20
5.735599038773025
 30
0.0
 10
172.0848916647937
 20
5.790453314820614
 30
0.0
 10
172.0611203052157
 20
5.822556780532772
 30
0.0
 10
172.0490134214743
 20
5.838907251602564
 30
0.0
  0
SPLINE
  5
AC
330
1F
100
AcDbEntity
  8
0
  6
Continuous
 62
     7
370
    15
100
AcDbSpline
210
0.0
220
0.0
230
1.0
 70
     8
 71
     3
 72
    15
 73
    11
 74
     0
 42
0.000000001
 43
0.00000001
 40
0.0
 40
0.0
 40
0.0
 40
0.0
 40
0.0768750740350495
 40
0.1674616757257369
 40
0.2722700232466165
 40
0.3895508405125279
 40
0.520801368348045
 40
0.6662632933752073
 40
0.8255449152058482
 40
1.0
 40
1.0
 40
1.0
 40
1.0
 10
172.0490134214743
 20
5.838907251602564
 30
0.0
 10
172.0417359636724
 20
5.847103615840234
 30
0.0
 10
172.0258830322269
 20
5.864958257378182
 30
0.0
 10
171.9968043490788
 20
5.890743864631216
 30
0.0
 10
171.9619865169397
 20
5.918536997434586
 30
0.0
 10
171.9210379405654
 20
5.947866367400419
 30
0.0
 10
171.8738760715219
 20
5.978345102201165
 30
0.0
 10
171.8203097617041
 20
6.009813300313237
 30
0.0
 10
171.7610728318923
 20
6.043765594421324
 30
0.0
 10
171.7191894734825
 20
6.066280567482742
 30
0.0
 10
171.6972956730769
 20
6.078049879807692
 30
0.0
  0
SPLINE
  5
AD
330
1F
100
AcDbEntity
  8
0
  6
Continuous
 62
     7
370
    15
100
AcDbSpline
210
0.0
220
0.0
230
1.0
 70
     8
 71
     3
 72
    15
 73
    11
 74
     0
 42
0.000000001
 43
0.00000001
 40
0.0
 40
0.0
 40
0.0
 40
0.0
 40
0.1577616635135723
 40
0.3059502132085292
 40
0.4437754990007189
 40
0.5728243624015233
 40
0.6921541564432542
 40
0.8022957069908392
 40
0.9055643918329922
 40
1.0
 40
1.0
 40
1.0
 40
1.0
 10
171.6972956730769
 20
6.078049879807692
 30
0.0
 10
171.6736676496126
 20
6.091238949246
 30
0.0
 10
171.627845371528
 20
6.116816764012928
 30
0.0
 10
171.5629417576076
 20
6.156654922533001
 30
0.0
 10
171.5043880862806
 20
6.197174521707152
 30
0.0
 10
171.450775422213
 20
6.236102597312319
 30
0.0
 10
171.4034579384913
 20
6.275491596464703
 30
0.0
 10
171.362622042529
 20
6.315385246010193
 30
0.0
 10
171.3266599824531
 20
6.354174661953553
 30
0.0
 10
171.3067505446684
 20
6.381658638168359
 30
0.0
 10
171.2972405849359
 20
6.394786658653845
 30
0.0
  0
SPLINE
  5
AE
330
1F
100
AcDbEntity
  8
0
  6
Continuous
 62
     7
370
    15
100
AcDbSpline
210
0.0
220
0.0
230
1.0
 70
     8
 71
     3
 72
    11
 73
     7
 74
     0
 42
0.000000001
 43
0.00000001
 40
0.0
 40
0.0
 40
0.0
 40
0.0
 40
0.2462523706929746
 40
0.4925907964763823
 40
0.740569991118088
 40
1.0
 40
1.0
 40
1.0
 40
1.0
 10
171.2972405849359
 20
6.394786658653845
 30
0.0
 10
171.2807935409619
 20
6.421225895150504
 30
0.0
 10
171.2478937054477
 20
6.474113607571169
 30
0.0
 10
171.2159484963075
 20
6.562388111463839
 30
0.0
 10
171.1939901701119
 20
6.655320413469728
 30
0.0
 10
171.1920285733154
 20
6.719443488483668
 30
0.0
 10
171.1910256410256
 20
6.752228565705128
 30
0.0
  0
LINE
  5
AF
330
1F
100
AcDbEntity
  8
0
  6
Continuous
 62
     7
370
    15
100
AcDbLine
 10
181.5606570513
 20
5.0
 30
0.0
 11
181.5199519231
 21
5.0
 31
0.0
  0
LINE
  5
B0
330
1F
100
AcDbEntity
  8
0
  6
Continuous
 62
     7
370
    15
100
AcDbLine
 10
181.5199519231
 20
5.0
 30
0.0
 11
180.6753205128
 21
8.175
 31
0.0
  0
LINE
  5
B1
330
1F
100
AcDbEntity
  8
0
  6
Continuous
 62
     7
370
    15
100
AcDbLine
 10
180.6753205128
 20
8.175
 30
0.0
 11
180.9697966747
 21
8.175
 31
0.0
  0
LINE
  5
B2
330
1F
100
AcDbEntity
  8
0
  6
Continuous
 62
     7
370
    15
100
AcDbLine
 10
180.9697966747
 20
8.175
 30
0.0
 11
181.5911858974
 21
5.8465394631
 31
0.0
  0
LINE
  5
B3
330
1F
100
AcDbEntity
  8
0
  6
Continuous
 62
     7
370
    15
100
AcDbLine
 10
181.5911858974
 20
5.8465394631
 30
0.0
 11
182.5153195112
 21
8.175
 31
0.0
  0
LINE
  5
B4
330
1F
100
AcDbEntity
  8
0
  6
Continuous
 62
     7
370
    15
100
AcDbLine
 10
182.5153195112
 20
8.175
 30
0.0
 11
182.5566606571
 21
8.175
 31
0.0
  0
LINE
  5
B5
330
1F
100
AcDbEntity
  8
0
  6
Continuous
 62
     7
370
    15
100
AcDbLine
 10
182.5566606571
 20
8.175
 30
0.0
 11
183.4636217949
 21
5.8624399038
 31
0.0
  0
LINE
  5
B6
330
1F
100
AcDbEntity
  8
0
  6
Continuous
 62
     7
370
    15
100
AcDbLine
 10
183.4636217949
 20
5.8624399038
 30
0.0
 11
184.0881911058
 21
8.175
 31
0.0
  0
LINE
  5
B7
330
1F
100
AcDbEntity
  8
0
  6
Continuous
 62
     7
370
    15
100
AcDbLine
 10
184.0881911058
 20
8.175
 30
0.0
 11
184.3794871795
 21
8.175
 31
0.0
  0
LINE
  5
B8
330
1F
100
AcDbEntity
  8
0
  6
Continuous
 62
     7
370
    15
100
AcDbLine
 10
184.3794871795
 20
8.175
 30
0.0
 11
183.5234074519
 21
5.0
 31
0.0
  0
LINE
  5
B9
330
1F
100
AcDbEntity
  8
0
  6
Continuous
 62
     7
370
    15
100
AcDbLine
 10
183.5234074519
 20
5.0
 30
0.0
 11
183.4827023237
 21
5.0
 31
0.0
  0
LINE
  5
BA
330
1F
100
AcDbEntity
  8
0
  6
Continuous
 62
     7
370
    15
100
AcDbLine
 10
183.4827023237
 20
5.0
 30
0.0
 11
182.5274038462
 21
7.4283153045
 31
0.0
  0
LINE
  5
BB
330
1F
100
AcDbEntity
  8
0
  6
Continuous
 62
     7
370
    15
100
AcDbLine
 10
182.5274038462
 20
7.4283153045
 30
0.0
 11
181.5606570513
 21
5.0
 31
0.0
  0
LINE
  5
BC
330
1F
100
AcDbEntity
  8
0
  6
Continuous
 62
     7
370
    15
100
AcDbLine
 10
186.9439102564
 20
6.8908804087
 30
0.0
 11
186.9439102564
 21
7.3201923077
 31
0.0
  0
LINE
  5
BD
330
1F
100
AcDbEntity
  8
0
  6
Continuous
 62
     7
370
    15
100
AcDbLine
 10
186.9439102564
 20
7.3201923077
 30
0.0
 11
187.2288461538
 21
7.3201923077
 31
0.0
  0
LINE
  5
BE
330
1F
100
AcDbEntity
  8
0
  6
Continuous
 62
     7
370
    15
100
AcDbLine
 10
187.2288461538
 20
7.3201923077
 30
0.0
 11
187.2288461538
 21
5.0
 31
0.0
  0
LINE
  5
BF
330
1F
100
AcDbEntity
  8
0
  6
Continuous
 62
     7
370
    15
100
AcDbLine
 10
187.2288461538
 20
5.0
 30
0.0
 11
186.9439102564
 21
5.0
 31
0.0
  0
LINE
  5
C0
330
1F
100
AcDbEntity
  8
0
  6
Continuous
 62
     7
370
    15
100
AcDbLine
 10
186.9439102564
 20
5.0
 30
0.0
 11
186.9439102564
 21
5.4013271234
 31
0.0
  0
SPLINE
  5
C1
330
1F
100
AcDbEntity
  8
0
  6
Continuous
 62
     7
370
    15
100
AcDbSpline
210
0.0
220
0.0
230
1.0
 70
     8
 71
     3
 72
    15
 73
    11
 74
     0
 42
0.000000001
 43
0.00000001
 40
0.0
 40
0.0
 40
0.0
 40
0.0
 40
0.1342983790141795
 40
0.2620849753822926
 40
0.3862699121344926
 40
0.5071645966228006
 40
0.6273002357254971
 40
0.7481449416029825
 40
0.8723701771613424
 40
1.0
 40
1.0
 40
1.0
 40
1.0
 10
186.9439102564102
 20
5.401327123397436
 30
0.0
 10
186.9117803534851
 20
5.365005491735688
 30
0.0
 10
186.8490784439088
 20
5.294123370821119
 30
0.0
 10
186.7443568583205
 20
5.201520257204487
 30
0.0
 10
186.6333514397946
 20
5.124977065521728
 30
0.0
 10
186.5166009556261
 20
5.06315535627924
 30
0.0
 10
186.3942108348777
 20
5.016716848030343
 30
0.0
 10
186.2664523842771
 20
4.983709403680512
 30
0.0
 10
186.1332734887777
 20
4.962487853202829
 30
0.0
 10
186.0423302812182
 20
4.960368747650209
 30
0.0
 10
185.9962439903846
 20
4.959294871794871
 30
0.0
  0
SPLINE
  5
C2
330
1F
100
AcDbEntity
  8
0
  6
Continuous
 62
     7
370
    15
100
AcDbSpline
210
0.0
220
0.0
230
1.0
 70
     8
 71
     3
 72
    23
 73
    19
 74
     0
 42
0.000000001
 43
0.00000001
 40
0.0
 40
0.0
 40
0.0
 40
0.0
 40
0.064619991340761
 40
0.1274334841444646
 40
0.1890041265579311
 40
0.2499300706860425
 40
0.3106684537406677
 40
0.3723289611368265
 40
0.4349391099970016
 40
0.4995755441940359
 40
0.5641912077719244
 40
0.6267352169294734
 40
0.6881093335614032
 40
0.7492936065367489
 40
0.810330527810947
 40
0.8719011702244153
 40
0.935045914684531
 40
0.9999999999999999
 40
0.9999999999999999
 40
0.9999999999999999
 40
0.9999999999999999
 10
185.9962439903846
 20
4.959294871794871
 30
0.0
 10
185.9552702036937
 20
4.960407366639031
 30
0.0
 10
185.8744680821167
 20
4.962601255730356
 30
0.0
 10
185.7556059907121
 20
4.979621345441219
 30
0.0
 10
185.64122230728
 20
5.006954123645108
 30
0.0
 10
185.5312089449369
 20
5.04496421625549
 30
0.0
 10
185.4262777844359
 20
5.095383961598711
 30
0.0
 10
185.325530411026
 20
5.155746379464833
 30
0.0
 10
185.2294887546944
 20
5.227629132466594
 30
0.0
 10
185.1396167157772
 20
5.309805415329547
 30
0.0
 10
185.0568562582933
 20
5.399063725131827
 30
0.0
 10
184.9842292467004
 20
5.494264328368569
 30
0.0
 10
184.9236746671178
 20
5.594995561185463
 30
0.0
 10
184.8730378796191
 20
5.699982065070247
 30
0.0
 10
184.8340340528764
 20
5.810032027790387
 30
0.0
 10
184.8068436846568
 20
5.924764887278627
 30
0.0
 10
184.7898434222926
 20
6.044044986846913
 30
0.0
 10
184.7876504400998
 20
6.125270125655074
 30
0.0
 10
184.7865384615384
 20
6.166456330128204
 30
0.0
  0
SPLINE
  5
C3
330
1F
100
AcDbEntity
  8
0
  6
Continuous
 62
     7
370
    15
100
AcDbSpline
210
0.0
220
0.0
230
1.0
 70
     8
 71
     3
 72
    23
 73
    19
 74
     0
 42
0.000000001
 43
0.00000001
 40
0.0
 40
0.0
 40
0.0
 40
0.0
 40
0.0637745323056322
 40
0.1260788099895052
 40
0.1869040927472074
 40
0.2475739349176179
 40
0.3080033561644465
 40
0.3691318984609757
 40
0.4320332277442043
 40
0.496790794437088
 40
0.5616108232295588
 40
0.6249138657484558
 40
0.6867263492419242
 40
0.7480788332577681
 40
0.8095822911398951
 40
0.8716307425688212
 40
0.9348858208285478
 40
0.9999999999999999
 40
0.9999999999999999
 40
0.9999999999999999
 40
0.9999999999999999
 10
184.7865384615384
 20
6.166456330128204
 30
0.0
 10
184.7876750855805
 20
6.206791261223329
 30
0.0
 10
184.7899221299952
 20
6.28653124409158
 30
0.0
 10
184.8066618365646
 20
6.403805491550184
 30
0.0
 10
184.8348113944197
 20
6.516761342358192
 30
0.0
 10
184.8743155133737
 20
6.625035140854036
 30
0.0
 10
184.9249721439475
 20
6.728757900631674
 30
0.0
 10
184.9865926228878
 20
6.828002980466667
 30
0.0
 10
185.0591814002931
 20
6.923043791021501
 30
0.0
 10
185.1428675123723
 20
7.011645546778539
 30
0.0
 10
185.2335226253056
 20
7.093488532580052
 30
0.0
 10
185.3305041169216
 20
7.164616738088576
 30
0.0
 10
185.4313995221198
 20
7.226045593800243
 30
0.0
 10
185.5377738245223
 20
7.274716961592442
 30
0.0
 10
185.6480525553179
 20
7.314095220714908
 30
0.0
 10
185.7632174668171
 20
7.341339413206096
 30
0.0
 10
185.8827893989014
 20
7.357393411759527
 30
0.0
 10
185.96397005956
 20
7.359718204953727
 30
0.0
 10
186.0051482371795
 20
7.360897435897435
 30
0.0
  0
SPLINE
  5
C4
330
1F
100
AcDbEntity
  8
0
  6
Continuous
 62
     7
370
    15
100
AcDbSpline
210
0.0
220
0.0
230
1.0
 70
     8
 71
     3
 72
    15
 73
    11
 74
     0
 42
0.000000001
 43
0.00000001
 40
0.0
 40
0.0
 40
0.0
 40
0.0
 40
0.1298621417207362
 40
0.2546535308972849
 40
0.3760145541937065
 40
0.4952552518175966
 40
0.6147977192994417
 40
0.7381055541683285
 40
0.8651963000723482
 40
1.0
 40
1.0
 40
1.0
 40
1.0
 10
186.0051482371795
 20
7.360897435897435
 30
0.0
 10
186.0525009664724
 20
7.359593189855892
 30
0.0
 10
186.1453574337403
 20
7.357035624924056
 30
0.0
 10
186.2811821278608
 20
7.335751579427548
 30
0.0
 10
186.4096739042448
 20
7.299793827079942
 30
0.0
 10
186.531824637872
 20
7.250882953872902
 30
0.0
 10
186.6471956888296
 20
7.185887321062872
 30
0.0
 10
186.7546948246018
 20
7.103899784991443
 30
0.0
 10
186.8554470844596
 20
7.005437422525668
 30
0.0
 10
186.9138492061791
 20
6.92980851932859
 30
0.0
 10
186.9439102564102
 20
6.890880408653845
 30
0.0
  0
LINE
  5
C5
330
1F
100
AcDbEntity
  8
0
  6
Continuous
 62
     7
370
    15
100
AcDbLine
 10
146.5440705128
 20
7.2896634615
 30
0.0
 11
146.2406901042
 21
5.0
 31
0.0
  0
LINE
  5
C6
330
1F
100
AcDbEntity
  8
0
  6
Continuous
 62
     7
370
    15
100
AcDbLine
 10
146.2406901042
 20
5.0
 30
0.0
 11
145.9538461538
 21
5.0
 31
0.0
  0
LINE
  5
C7
330
1F
100
AcDbEntity
  8
0
  6
Continuous
 62
     7
370
    15
100
AcDbLine
 10
145.9538461538
 20
5.0
 30
0.0
 11
146.3729817708
 21
8.175
 31
0.0
  0
LINE
  5
C8
330
1F
100
AcDbEntity
  8
0
  6
Continuous
 62
     7
370
    15
100
AcDbLine
 10
146.3729817708
 20
8.175
 30
0.0
 11
146.413686899
 21
8.175
 31
0.0
  0
LINE
  5
C9
330
1F
100
AcDbEntity
  8
0
  6
Continuous
 62
     7
370
    15
100
AcDbLine
 10
146.413686899
 20
8.175
 30
0.0
 11
147.7245192308
 21
5.5698717949
 31
0.0
  0
LINE
  5
CA
330
1F
100
AcDbEntity
  8
0
  6
Continuous
 62
     7
370
    15
100
AcDbLine
 10
147.7245192308
 20
5.5698717949
 30
0.0
 11
149.0321714744
 21
8.175
 31
0.0
  0
LINE
  5
CB
330
1F
100
AcDbEntity
  8
0
  6
Continuous
 62
     7
370
    15
100
AcDbLine
 10
149.0321714744
 20
8.175
 30
0.0
 11
149.0735126202
 21
8.175
 31
0.0
  0
LINE
  5
CC
330
1F
100
AcDbEntity
  8
0
  6
Continuous
 62
     7
370
    15
100
AcDbLine
 10
149.0735126202
 20
8.175
 30
0.0
 11
149.4951923077
 21
5.0
 31
0.0
  0
LINE
  5
CD
330
1F
100
AcDbEntity
  8
0
  6
Continuous
 62
     7
370
    15
100
AcDbLine
 10
149.4951923077
 20
5.0
 30
0.0
 11
149.208984375
 21
5.0
 31
0.0
  0
LINE
  5
CE
330
1F
100
AcDbEntity
  8
0
  6
Continuous
 62
     7
370
    15
100
AcDbLine
 10
149.208984375
 20
5.0
 30
0.0
 11
148.9049679487
 21
7.2845753205
 31
0.0
  0
LINE
  5
CF
330
1F
100
AcDbEntity
  8
0
  6
Continuous
 62
     7
370
    15
100
AcDbLine
 10
148.9049679487
 20
7.2845753205
 30
0.0
 11
147.7588641827
 21
5.0
 31
0.0
  0
LINE
  5
D0
330
1F
100
AcDbEntity
  8
0
  6
Continuous
 62
     7
370
    15
100
AcDbLine
 10
147.7588641827
 20
5.0
 30
0.0
 11
147.6946264022
 21
5.0
 31
0.0
  0
LINE
  5
D1
330
1F
100
AcDbEntity
  8
0
  6
Continuous
 62
     7
370
    15
100
AcDbLine
 10
147.6946264022
 20
5.0
 30
0.0
 11
146.5440705128
 21
7.2896634615
 31
0.0
  0
CIRCLE
  5
D2
330
1F
100
AcDbEntity
  8
0
  6
Continuous
 62
     7
370
    15
100
AcDbCircle
 10
169.4
 20
40.0
 30
0.0
 40
2.0
  0
LINE
  5
D3
330
1F
100
AcDbEntity
  8
0
  6
Continuous
 62
     7
370
    15
100
AcDbLine
 10
0.0
 20
5.0
 30
0.0
 11
0.0
 21
125.0
 31
0.0
  0
ARC
  5
D4
330
1F
100
AcDbEntity
  8
0
  6
Continuous
 62
     7
370
    15
100
AcDbCircle
 10
5.0
 20
5.0
 30
0.0
 40
5.0
100
AcDbArc
 50
180.0
 51
270.0
  0
LINE
  5
D5
330
1F
100
AcDbEntity
  8
0
  6
Continuous
 62
     7
370
    15
100
AcDbLine
 10
5.0
 20
0.0
 30
0.0
 11
10.0
 21
0.0
 31
0.0
  0
LINE
  5
D6
330
1F
100
AcDbEntity
  8
0
  6
Continuous
 62
     7
370
    15
100
AcDbLine
 10
10.0
 20
65.0
 30
0.0
 11
10.0
 21
0.0
 31
0.0
  0
LINE
  5
D7
330
1F
100
AcDbEntity
  8
0
  6
Continuous
 62
     7
370
    15
100
AcDbLine
 10
10.0
 20
65.0
 30
0.0
 11
13.4
 21
65.0
 31
0.0
  0
LINE
  5
D8
330
1F
100
AcDbEntity
  8
0
  6
Continuous
 62
     7
370
    15
100
AcDbLine
 10
13.4
 20
65.0
 30
0.0
 11
13.4
 21
0.0
 31
0.0
  0
LINE
  5
D9
330
1F
100
AcDbEntity
  8
0
  6
Continuous
 62
     7
370
    15
100
AcDbLine
 10
13.4
 20
0.0
 30
0.0
 11
116.0
 21
0.0
 31
0.0
  0
LINE
  5
DA
330
1F
100
AcDbEntity
  8
0
  6
Continuous
 62
     7
370
    15
100
AcDbLine
 10
116.0
 20
0.0
 30
0.0
 11
116.0
 21
30.0
 31
0.0
  0
LINE
  5
DB
330
1F
100
AcDbEntity
  8
0
  6
Continuous
 62
     7
370
    15
100
AcDbLine
 10
116.0
 20
30.0
 30
0.0
 11
119.4
 21
30.0
 31
0.0
  0
LINE
  5
DC
330
1F
100
AcDbEntity
  8
0
  6
Continuous
 62
     7
370
    15
100
AcDbLine
 10
119.4
 20
0.0
 30
0.0
 11
119.4
 21
30.0
 31
0.0
  0
LINE
  5
DD
330
1F
100
AcDbEntity
  8
0
  6
Continuous
 62
     7
370
    15
100
AcDbLine
 10
119.4
 20
0.0
 30
0.0
 11
325.4
 21
0.0
 31
0.0
  0
LINE
  5
DE
330
1F
100
AcDbEntity
  8
0
  6
Continuous
 62
     7
370
    15
100
AcDbLine
 10
325.4
 20
65.0
 30
0.0
 11
325.4
 21
0.0
 31
0.0
  0
LINE
  5
DF
330
1F
100
AcDbEntity
  8
0
  6
Continuous
 62
     7
370
    15
100
AcDbLine
 10
328.8
 20
65.0
 30
0.0
 11
325.4
 21
65.0
 31
0.0
  0
LINE
  5
E0
330
1F
100
AcDbEntity
  8
0
  6
Continuous
 62
     7
370
    15
100
AcDbLine
 10
328.8
 20
65.0
 30
0.0
 11
328.8
 21
0.0
 31
0.0
  0
LINE
  5
E1
330
1F
100
AcDbEntity
  8
0
  6
Continuous
 62
     7
370
    15
100
AcDbLine
 10
328.8
 20
0.0
 30
0.0
 11
333.8
 21
0.0
 31
0.0
  0
ARC
  5
E2
330
1F
100
AcDbEntity
  8
0
  6
Continuous
 62
     7
370
    15
100
AcDbCircle
 10
333.8
 20
5.0
 30
0.0
 40
5.0
100
AcDbArc
 50
270.0
 51
0.0
  0
LINE
  5
E3
330
1F
100
AcDbEntity
  8
0
  6
Continuous
 62
     7
370
    15
100
AcDbLine
 10
338.8
 20
5.0
 30
0.0
 11
338.8
 21
125.0
 31
0.0
  0
ARC
  5
E4
330
1F
100
AcDbEntity
  8
0
  6
Continuous
 62
     7
370
    15
100
AcDbCircle
 10
333.8
 20
125.0
 30
0.0
 40
5.0
100
AcDbArc
 50
0.0
 51
90.0
  0
LINE
  5
E5
330
1F
100
AcDbEntity
  8
0
  6
Continuous
 62
     7
370
    15
100
AcDbLine
 10
5.0
 20
130.0
 30
0.0
 11
333.8
 21
130.0
 31
0.0
  0
ARC
  5
E6
330
1F
100
AcDbEntity
  8
0
  6
Continuous
 62
     7
370
    15
100
AcDbCircle
 10
5.0
 20
125.0
 30
0.0
 40
5.0
100
AcDbArc
 50
90.0
 51
180.0
  0
LINE
  5
E7
330
1F
100
AcDbEntity
  8
0
  6
Continuous
 62
     7
370
    15
100
AcDbLine
 10
191.8323417468
 20
5.0
 30
0.0
 11
190.9737179487
 21
5.0
 31
0.0
  0
LINE
  5
E8
330
1F
100
AcDbEntity
  8
0
  6
Continuous
 62
     7
370
    15
100
AcDbLine
 10
190.9737179487
 20
5.0
 30
0.0
 11
190.9737179487
 21
8.175
 31
0.0
  0
LINE
  5
E9
330
1F
100
AcDbEntity
  8
0
  6
Continuous
 62
     7
370
    15
100
AcDbLine
 10
190.9737179487
 20
8.175
 30
0.0
 11
191.5931991186
 21
8.175
 31
0.0
  0
SPLINE
  5
EA
330
1F
100
AcDbEntity
  8
0
  6
Continuous
 62
     7
370
    15
100
AcDbSpline
210
0.0
220
0.0
230
1.0
 70
     8
 71
     3
 72
    23
 73
    19
 74
     0
 42
0.000000001
 43
0.00000001
 40
0.0
 40
0.0
 40
0.0
 40
0.0
 40
0.0625940971873275
 40
0.1213229386347557
 40
0.1766801421977573
 40
0.2283650957096668
 40
0.2768684458368118
 40
0.3218791276660402
 40
0.3640986251098887
 40
0.4033556962426971
 40
0.4779679481633695
 40
0.5505354613647685
 40
0.6235844567403173
 40
0.698174882264203
 40
0.773353670340876
 40
0.8472811254977345
 40
0.9228183395566704
 40
1.0
 40
1.0
 40
1.0
 40
1.0
 10
191.5931991185898
 20
8.174999999999999
 30
0.0
 10
191.6235235238029
 20
8.174840569278398
 30
0.0
 10
191.6822997681796
 20
8.174531552861161
 30
0.0
 10
191.7677702618385
 20
8.169738998177825
 30
0.0
 10
191.8478245400624
 20
8.163204240502205
 30
0.0
 10
191.9224858192662
 20
8.152835513603536
 30
0.0
 10
191.9917195992923
 20
8.140324401478836
 30
0.0
 10
192.055734527358
 20
8.125173468311171
 30
0.0
 10
192.1143270407729
 20
8.107006468777643
 30
0.0
 10
192.1842793087984
 20
8.078117342231051
 30
0.0
 10
192.26403590831
 20
8.03518846808525
 30
0.0
 10
192.3503944502619
 20
7.971753269700059
 30
0.0
 10
192.424239724538
 20
7.894163106726577
 30
0.0
 10
192.4879087408922
 20
7.806639555020235
 30
0.0
 10
192.5385283279682
 20
7.710359247788952
 30
0.0
 10
192.575149047676
 20
7.607616983683631
 30
0.0
 10
192.5983336917513
 20
7.499737974942332
 30
0.0
 10
192.6007180570757
 20
7.425675949295019
 30
0.0
 10
192.6019230769231
 20
7.388246193910255
 30
0.0
  0
SPLINE
  5
EB
330
1F
100
AcDbEntity
  8
0
  6
Continuous
 62
     7
370
    15
100
AcDbSpline
210
0.0
220
0.0
230
1.0
 70
     8
 71
     3
 72
    15
 73
    11
 74
     0
 42
0.000000001
 43
0.00000001
 40
0.0
 40
0.0
 40
0.0
 40
0.0
 40
0.1305691070873067
 40
0.2565806086940832
 40
0.3805516168036842
 40
0.5036229172007012
 40
0.6257393231697805
 40
0.74754858195961
 40
0.8717661185648546
 40
1.0
 40
1.0
 40
1.0
 40
1.0
 10
192.6019230769231
 20
7.388246193910255
 30
0.0
 10
192.6009313716216
 20
7.353182804116681
 30
0.0
 10
192.5989825771818
 20
7.284279936533331
 30
0.0
 10
192.5803473597872
 20
7.183501708826022
 30
0.0
 10
192.5511730391313
 20
7.087570246032648
 30
0.0
 10
192.5106189916754
 20
6.996835653547309
 30
0.0
 10
192.4579121808386
 20
6.913348018765197
 30
0.0
 10
192.3954478489066
 20
6.836433855995755
 30
0.0
 10
192.3200853209327
 20
6.769349682864617
 30
0.0
 10
192.2636218103723
 20
6.731845764122179
 30
0.0
 10
192.2349409054487
 20
6.712795472756409
 30
0.0
  0
SPLINE
  5
EC
330
1F
100
AcDbEntity
  8
0
  6
Continuous
 62
     7
370
    15
100
AcDbSpline
210
0.0
220
0.0
230
1.0
 70
     8
 71
     3
 72
    19
 73
    15
 74
     0
 42
0.000000001
 43
0.00000001
 40
0.0
 40
0.0
 40
0.0
 40
0.0
 40
0.1060574933034092
 40
0.2029142570846057
 40
0.2903001653958361
 40
0.3702225656250357
 40
0.4463837207709677
 40
0.5213968999648274
 40
0.5982910828464572
 40
0.6761424688569273
 40
0.7555286995560215
 40
0.8348871724576573
 40
0.9166460487466421
 40
1.0
 40
1.0
 40
1.0
 40
1.0
 10
192.2349409054487
 20
6.712795472756409
 30
0.0
 10
192.2710092933383
 20
6.69894793800313
 30
0.0
 10
192.3400170541753
 20
6.672454173730609
 30
0.0
 10
192.4349822225957
 20
6.625613431390416
 30
0.0
 10
192.516801831985
 20
6.574666374106817
 30
0.0
 10
192.5861049572715
 20
6.519029624333608
 30
0.0
 10
192.6453755442316
 20
6.459059488831138
 30
0.0
 10
192.6971307126585
 20
6.393876635191561
 30
0.0
 10
192.7412916735045
 20
6.32263076197421
 30
0.0
 10
192.7791312541676
 20
6.246064697752606
 30
0.0
 10
192.8086576257056
 20
6.164960258600298
 30
0.0
 10
192.830770053241
 20
6.080078197426249
 30
0.0
 10
192.8434405249571
 20
5.991722886642797
 30
0.0
 10
192.8452435995452
 20
5.931592578242884
 30
0.0
 10
192.8461538461538
 20
5.901236979166666
 30
0.0
  0
SPLINE
  5
ED
330
1F
100
AcDbEntity
  8
0
  6
Continuous
 62
     7
370
    15
100
AcDbSpline
210
0.0
220
0.0
230
1.0
 70
     8
 71
     3
 72
    23
 73
    19
 74
     0
 42
0.000000001
 43
0.00000001
 40
0.0
 40
0.0
 40
0.0
 40
0.0
 40
0.0611602766365167
 40
0.1203345577262022
 40
0.1781802550631255
 40
0.2352351259863645
 40
0.292682961444179
 40
0.351186248215084
 40
0.4104566095096918
 40
0.4717198544629984
 40
0.5337612027725825
 40
0.5957390238870967
 40
0.6578875151248837
 40
0.7212951802914609
 40
0.7868225145418922
 40
0.8546861538286763
 40
0.9254779862700001
 40
1.0
 40
1.0
 40
1.0
 40
1.0
 10
192.8461538461538
 20
5.901236979166666
 30
0.0
 10
192.8452677072613
 20
5.870242745170388
 30
0.0
 10
192.8435242041645
 20
5.809260721459627
 30
0.0
 10
192.8306609440343
 20
5.719675706545956
 30
0.0
 10
192.8088812541213
 20
5.634064147832916
 30
0.0
 10
192.7788809999189
 20
5.551872303522641
 30
0.0
 10
192.7397266145334
 20
5.473259181538523
 30
0.0
 10
192.6920762468899
 20
5.398135720636487
 30
0.0
 10
192.6352604713176
 20
5.327256720723182
 30
0.0
 10
192.5717034401971
 20
5.259834576908334
 30
0.0
 10
192.4998013510752
 20
5.199212226964392
 30
0.0
 10
192.422226344824
 20
5.145222978760637
 30
0.0
 10
192.3380014689205
 20
5.100821908127305
 30
0.0
 10
192.2485100172055
 20
5.063523802906867
 30
0.0
 10
192.1527481018734
 20
5.035032987156441
 30
0.0
 10
192.0511457366255
 20
5.015100723690624
 30
0.0
 10
191.9437905485323
 20
5.001670440127618
 30
0.0
 10
191.8701217028812
 20
5.00056626140149
 30
0.0
 10
191.8323417467949
 20
4.999999999999999
 30
0.0
  0
LINE
  5
EE
330
1F
100
AcDbEntity
  8
0
  6
Continuous
 62
     7
370
    15
100
AcDbLine
 10
189.0198717949
 20
5.0
 30
0.0
 11
188.7349358974
 21
5.0
 31
0.0
  0
LINE
  5
EF
330
1F
100
AcDbEntity
  8
0
  6
Continuous
 62
     7
370
    15
100
AcDbLine
 10
188.7349358974
 20
5.0
 30
0.0
 11
188.7349358974
 21
8.2564102564
 31
0.0
  0
LINE
  5
F0
330
1F
100
AcDbEntity
  8
0
  6
Continuous
 62
     7
370
    15
100
AcDbLine
 10
188.7349358974
 20
8.2564102564
 30
0.0
 11
189.0198717949
 21
8.2564102564
 31
0.0
  0
LINE
  5
F1
330
1F
100
AcDbEntity
  8
0
  6
Continuous
 62
     7
370
    15
100
AcDbLine
 10
189.0198717949
 20
8.2564102564
 30
0.0
 11
189.0198717949
 21
5.0
 31
0.0
  0
LINE
  5
F2
330
1F
100
AcDbEntity
  8
0
  6
Continuous
 62
     7
370
    15
100
AcDbLine
 10
188.1243589744
 20
5.0
 30
0.0
 11
187.8394230769
 21
5.0
 31
0.0
  0
LINE
  5
F3
330
1F
100
AcDbEntity
  8
0
  6
Continuous
 62
     7
370
    15
100
AcDbLine
 10
187.8394230769
 20
5.0
 30
0.0
 11
187.8394230769
 21
8.2564102564
 31
0.0
  0
LINE
  5
F4
330
1F
100
AcDbEntity
  8
0
  6
Continuous
 62
     7
370
    15
100
AcDbLine
 10
187.8394230769
 20
8.2564102564
 30
0.0
 11
188.1243589744
 21
8.2564102564
 31
0.0
  0
LINE
  5
F5
330
1F
100
AcDbEntity
  8
0
  6
Continuous
 62
     7
370
    15
100
AcDbLine
 10
188.1243589744
 20
8.2564102564
 30
0.0
 11
188.1243589744
 21
5.0
 31
0.0
  0
SPLINE
  5
F6
330
1F
100
AcDbEntity
  8
0
  6
Continuous
 62
     7
370
    15
100
AcDbSpline
210
0.0
220
0.0
230
1.0
 70
     8
 71
     3
 72
    15
 73
    11
 74
     0
 42
0.000000001
 43
0.00000001
 40
0.0
 40
0.0
 40
0.0
 40
0.0
 40
0.1209110787487092
 40
0.2387622286387334
 40
0.3547548590848714
 40
0.470359399450219
 40
0.5891440987928731
 40
0.7163289048363523
 40
0.852445285857603
 40
1.0
 40
1.0
 40
1.0
 40
1.0
 10
177.7216546474359
 20
7.360897435897435
 30
0.0
 10
177.764336570653
 20
7.359666739420067
 30
0.0
 10
177.8486202542935
 20
7.357236492028716
 30
0.0
 10
177.9726548064965
 20
7.338167310145382
 30
0.0
 10
178.092345267047
 20
7.307765312319248
 30
0.0
 10
178.2083670384111
 20
7.264208276070718
 30
0.0
 10
178.3216652361052
 20
7.204745027009663
 30
0.0
 10
178.4318664519935
 20
7.126419638457483
 30
0.0
 10
178.5392895237094
 20
7.028529544557767
 30
0.0
 10
178.6055815557061
 20
6.953460874738941
 30
0.0
 10
178.6400641025641
 20
6.914413060897435
 30
0.0
  0
LINE
  5
F7
330
1F
100
AcDbEntity
  8
0
  6
Continuous
 62
     7
370
    15
100
AcDbLine
 10
178.6400641026
 20
6.9144130609
 30
0.0
 11
178.6400641026
 21
7.3201923077
 31
0.0
  0
LINE
  5
F8
330
1F
100
AcDbEntity
  8
0
  6
Continuous
 62
     7
370
    15
100
AcDbLine
 10
178.6400641026
 20
7.3201923077
 30
0.0
 11
178.925
 21
7.3201923077
 31
0.0
  0
LINE
  5
F9
330
1F
100
AcDbEntity
  8
0
  6
Continuous
 62
     7
370
    15
100
AcDbLine
 10
178.925
 20
7.3201923077
 30
0.0
 11
178.925
 21
5.478921274
 31
0.0
  0
SPLINE
  5
FA
330
1F
100
AcDbEntity
  8
0
  6
Continuous
 62
     7
370
    15
100
AcDbSpline
210
0.0
220
0.0
230
1.0
 70
     8
 71
     3
 72
    15
 73
    11
 74
     0
 42
0.000000001
 43
0.00000001
 40
0.0
 40
0.0
 40
0.0
 40
0.0
 40
0.1634452548497621
 40
0.3154887127129187
 40
0.4562908239366649
 40
0.5858641495747714
 40
0.7054286858067527
 40
0.8133707129824366
 40
0.9117182381600957
 40
0.9999999999999999
 40
0.9999999999999999
 40
0.9999999999999999
 40
0.9999999999999999
 10
178.925
 20
5.478921274038461
 30
0.0
 10
178.9247486828106
 20
5.439698598930842
 30
0.0
 10
178.9242635800977
 20
5.363989387976789
 30
0.0
 10
178.9207701990311
 20
5.254516948613654
 30
0.0
 10
178.9134035846953
 20
5.153401285309721
 30
0.0
 10
178.9050499951819
 20
5.060181236446639
 30
0.0
 10
178.8930333310919
 20
4.975288893749372
 30
0.0
 10
178.8783590550971
 20
4.898470943795118
 30
0.0
 10
178.8618166890092
 20
4.829653669361633
 30
0.0
 10
178.8472840631757
 20
4.787267563572379
 30
0.0
 10
178.8404096554487
 20
4.767217548076922
 30
0.0
  0
SPLINE
  5
FB
330
1F
100
AcDbEntity
  8
0
  6
Continuous
 62
     7
370
    15
100
AcDbSpline
210
0.0
220
0.0
230
1.0
 70
     8
 71
     3
 72
    23
 73
    19
 74
     0
 42
0.000000001
 43
0.00000001
 40
0.0
 40
0.0
 40
0.0
 40
0.0
 40
0.0613707062984567
 40
0.1209064680177752
 40
0.179423665000029
 40
0.237606687439777
 40
0.2959384682493643
 40
0.3542182268208507
 40
0.4135370665946777
 40
0.4740867825531828
 40
0.5351211890802668
 40
0.5969876649622163
 40
0.6600198335468003
 40
0.7242774964844803
 40
0.7900118502255273
 40
0.8577476843344293
 40
0.9278290322155331
 40
0.9999999999999999
 40
0.9999999999999999
 40
0.9999999999999999
 40
0.9999999999999999
 10
178.8404096554487
 20
4.767217548076922
 30
0.0
 10
178.830259417452
 20
4.74115540491902
 30
0.0
 10
178.8102624270352
 20
4.689810359892631
 30
0.0
 10
178.7728104595403
 20
4.61702636888695
 30
0.0
 10
178.7308697041147
 20
4.548495000955003
 30
0.0
 10
178.6829664374669
 20
4.484598170128645
 30
0.0
 10
178.6293172795238
 20
4.425656642485565
 30
0.0
 10
178.5711862116409
 20
4.370389871710389
 30
0.0
 10
178.5074411094227
 20
4.319967091296637
 30
0.0
 10
178.438118420493
 20
4.275258285746515
 30
0.0
 10
178.3648161675179
 20
4.234992886621617
 30
0.0
 10
178.2875764892145
 20
4.200116357819336
 30
0.0
 10
178.2068349344133
 20
4.169739006818775
 30
0.0
 10
178.1218330256056
 20
4.14698532783536
 30
0.0
 10
178.0339034557668
 20
4.127268831321082
 30
0.0
 10
177.9420122147152
 20
4.114437580636226
 30
0.0
 10
177.8466961776133
 20
4.105704463621035
 30
0.0
 10
177.7818850113975
 20
4.104896895132772
 30
0.0
 10
177.7490034054487
 20
4.104487179487179
 30
0.0
  0
SPLINE
  5
FC
330
1F
100
AcDbEntity
  8
0
  6
Continuous
 62
     7
370
    15
100
AcDbSpline
210
0.0
220
0.0
230
1.0
 70
     8
 71
     3
 72
    19
 73
    15
 74
     0
 42
0.000000001
 43
0.00000001
 40
0.0
 40
0.0
 40
0.0
 40
0.0
 40
0.0964914237691135
 40
0.1884736749922992
 40
0.2768399149587986
 40
0.3621365621714227
 40
0.4434367545654548
 40
0.5201655209986107
 40
0.5927096635689897
 40
0.6629173343528109
 40
0.7354188002027011
 40
0.8148809699994107
 40
0.903060555739981
 40
1.0
 40
1.0
 40
1.0
 40
1.0
 10
177.7490034054487
 20
4.104487179487179
 30
0.0
 10
177.7010293962028
 20
4.105264134472563
 30
0.0
 10
177.6073232669584
 20
4.106781736303679
 30
0.0
 10
177.4707030235944
 20
4.124462780708007
 30
0.0
 10
177.3409500990901
 20
4.149458533424569
 30
0.0
 10
177.2197789847979
 20
4.187291314205326
 30
0.0
 10
177.1079553969224
 20
4.23358915488989
 30
0.0
 10
177.00624302412
 20
4.286743147927154
 30
0.0
 10
176.9155549480147
 20
4.347693449482696
 30
0.0
 10
176.8337999017904
 20
4.417090423171211
 30
0.0
 10
176.7600114593099
 20
4.499607477227975
 30
0.0
 10
176.6905902748275
 20
4.596852142969722
 30
0.0
 10
176.6237692775707
 20
4.710305678128294
 30
0.0
 10
176.5846091560763
 20
4.793574782258581
 30
0.0
 10
176.5641025641025
 20
4.837179487179487
 30
0.0
  0
LINE
  5
FD
330
1F
100
AcDbEntity
  8
0
  6
Continuous
 62
     7
370
    15
100
AcDbLine
 10
176.5641025641
 20
4.8371794872
 30
0.0
 11
176.8490384615
 21
4.8371794872
 31
0.0
  0
SPLINE
  5
FE
330
1F
100
AcDbEntity
  8
0
  6
Continuous
 62
     7
370
    15
100
AcDbSpline
210
0.0
220
0.0
230
1.0
 70
     8
 71
     3
 72
    15
 73
    11
 74
     0
 42
0.000000001
 43
0.00000001
 40
0.0
 40
0.0
 40
0.0
 40
0.0
 40
0.1247164867022969
 40
0.243805373915499
 40
0.3600615340644482
 40
0.4751119996583978
 40
0.5935250978118934
 40
0.7193501703843507
 40
0.8538547713042717
 40
1.0
 40
1.0
 40
1.0
 40
1.0
 10
176.8490384615384
 20
4.837179487179487
 30
0.0
 10
176.8719548942654
 20
4.800797728443088
 30
0.0
 10
176.9167536983174
 20
4.729675870163002
 30
0.0
 10
177.0005269631946
 20
4.6375889358507
 30
0.0
 10
177.0923355592382
 20
4.558891240741393
 30
0.0
 10
177.1952778432698
 20
4.495472181411243
 30
0.0
 10
177.3097821458186
 20
4.447656870639688
 30
0.0
 10
177.4359173539867
 20
4.413570708872763
 30
0.0
 10
177.574709867989
 20
4.393163381081646
 30
0.0
 10
177.6713371051409
 20
4.390703849968594
 30
0.0
 10
177.7216546474359
 20
4.389423076923077
 30
0.0
  0
SPLINE
  5
FF
330
1F
100
AcDbEntity
  8
0
  6
Continuous
 62
     7
370
    15
100
AcDbSpline
210
0.0
220
0.0
230
1.0
 70
     8
 71
     3
 72
    23
 73
    19
 74
     0
 42
0.000000001
 43
0.00000001
 40
0.0
 40
0.0
 40
0.0
 40
0.0
 40
0.0981712978276954
 40
0.1892644356875807
 40
0.2744630560180387
 40
0.3550231712817349
 40
0.4309204620429266
 40
0.5010860453857563
 40
0.5666076270375995
 40
0.6297208634282995
 40
0.6627106951128607
 40
0.698765561631612
 40
0.7386105373889604
 40
0.7825812280784433
 40
0.8304087872491258
 40
0.8825778660702763
 40
0.9392286810451781
 40
1.0
 40
1.0
 40
1.0
 40
1.0
 10
177.7216546474359
 20
4.389423076923077
 30
0.0
 10
177.7713360408193
 20
4.390720426187166
 30
0.0
 10
177.8671167943688
 20
4.393221585709257
 30
0.0
 10
178.0048493548601
 20
4.413579816494474
 30
0.0
 10
178.1305747629644
 20
4.447664288549743
 30
0.0
 10
178.2435686592476
 20
4.495387610358744
 30
0.0
 10
178.3424978207065
 20
4.553853336286606
 30
0.0
 10
178.427780127086
 20
4.619167689501187
 30
0.0
 10
178.4968542261583
 20
4.692810456521561
 30
0.0
 10
178.5433117030658
 20
4.760648237761009
 30
0.0
 10
178.5721902490305
 20
4.821085841128927
 30
0.0
 10
178.5905800638108
 20
4.873112838890454
 30
0.0
 10
178.60552430753
 20
4.931943663627083
 30
0.0
 10
178.6180245887231
 20
4.997381081486119
 30
0.0
 10
178.6283396315673
 20
5.069518584682777
 30
0.0
 10
178.6348736748397
 20
5.148521114887106
 30
0.0
 10
178.639596089623
 20
5.234209123707672
 30
0.0
 10
178.6399044908429
 20
5.293620756226434
 30
0.0
 10
178.6400641025641
 20
5.324368990384615
 30
0.0
  0
LINE
  5
100
330
1F
100
AcDbEntity
  8
0
  6
Continuous
 62
     7
370
    15
100
AcDbLine
 10
178.6400641026
 20
5.3243689904
 30
0.0
 11
178.6400641026
 21
5.4445763221
 31
0.0
  0
SPLINE
  5
101
330
1F
100
AcDbEntity
  8
0
  6
Continuous
 62
     7
370
    15
100
AcDbSpline
210
0.0
220
0.0
230
1.0
 70
     8
 71
     3
 72
    15
 73
    11
 74
     0
 42
0.000000001
 43
0.00000001
 40
0.0
 40
0.0
 40
0.0
 40
0.0
 40
0.1265607130145274
 40
0.2508952618879497
 40
0.3747192653150376
 40
0.4998264235934758
 40
0.6249635314328795
 40
0.7490394747387523
 40
0.8731801199413541
 40
1.0
 40
1.0
 40
1.0
 40
1.0
 10
178.6400641025641
 20
5.444576322115385
 30
0.0
 10
178.6111433746346
 20
5.410157687301392
 30
0.0
 10
178.5538106255136
 20
5.341925830907766
 30
0.0
 10
178.4547984073288
 20
5.252516346193302
 30
0.0
 10
178.3466516338645
 20
5.175512499419886
 30
0.0
 10
178.2295544203996
 20
5.112358452397258
 30
0.0
 10
178.1063750864413
 20
5.061847445787407
 30
0.0
 10
177.9784477774198
 20
5.026520616968445
 30
0.0
 10
177.8469192702016
 20
5.003696993496486
 30
0.0
 10
177.7577905342892
 20
5.001241070911036
 30
0.0
 10
177.712750400641
 20
4.999999999999999
 30
0.0
  0
SPLINE
  5
102
330
1F
100
AcDbEntity
  8
0
  6
Continuous
 62
     7
370
    15
100
AcDbSpline
210
0.0
220
0.0
230
1.0
 70
     8
 71
     3
 72
    31
 73
    27
 74
     0
 42
0.000000001
 43
0.00000001
 40
0.0
 40
0.0
 40
0.0
 40
0.0
 40
0.0428647590311963
 40
0.0852222575672431
 40
0.127202284143743
 40
0.1690253126086035
 40
0.210882033099713
 40
0.2529626777271269
 40
0.2956282851000583
 40
0.3385532936306125
 40
0.3814632477171867
 40
0.4235815621432683
 40
0.4650661653954531
 40
0.5063122188418699
 40
0.5470395054616204
 40
0.5876758328931725
 40
0.6286747862975607
 40
0.669946464602765
 40
0.7110355744560748
 40
0.7519958286352201
 40
0.7926726074835051
 40
0.8334460178854428
 40
0.874190607042242
 40
0.9154935830294668
 40
0.9574778068391474
 40
1.0
 40
1.0
 40
1.0
 40
1.0
 10
177.712750400641
 20
5.0
 30
0.0
 10
177.6862289276658
 20
5.000467202583917
 30
0.0
 10
177.6334998361687
 20
5.001396078887961
 30
0.0
 10
177.5551637440364
 20
5.009522969837884
 30
0.0
 10
177.4779836321242
 20
5.021314686061913
 30
0.0
 10
177.402139500977
 20
5.038624277140015
 30
0.0
 10
177.3275219091234
 20
5.060841771928767
 30
0.0
 10
177.2542541648419
 20
5.088615527794391
 30
0.0
 10
177.1817430371706
 20
5.12001638507919
 30
0.0
 10
177.1113065712532
 20
5.15700314248452
 30
0.0
 10
177.0436462955155
 20
5.19815323513608
 30
0.0
 10
176.9792725489999
 20
5.242729228851671
 30
0.0
 10
176.9185225171134
 20
5.290497818899246
 30
0.0
 10
176.8619744159699
 20
5.341930042857175
 30
0.0
 10
176.8097024211555
 20
5.396951461862993
 30
0.0
 10
176.7610034837059
 20
5.454975542114009
 30
0.0
 10
176.7166828902951
 20
5.516812514620287
 30
0.0
 10
176.6758311729127
 20
5.581334826096788
 30
0.0
 10
176.6404003950742
 20
5.648972235554426
 30
0.0
 10
176.6092995720612
 20
5.718258079263848
 30
0.0
 10
176.5822581832029
 20
5.789044209404173
 30
0.0
 10
176.5606995687704
 20
5.861567616240762
 30
0.0
 10
176.5442339160186
 20
5.935782577997967
 30
0.0
 10
176.5319782101071
 20
6.011567513760307
 30
0.0
 10
176.5250268363909
 20
6.089155793967575
 30
0.0
 10
176.5239428695792
 20
6.141426589308463
 30
0.0
 10
176.5233974358974
 20
6.167728365384614
 30
0.0
  0
SPLINE
  5
103
330
1F
100
AcDbEntity
  8
0
  6
Continuous
 62
     7
370
    15
100
AcDbSpline
210
0.0
220
0.0
230
1.0
 70
     8
 71
     3
 72
    31
 73
    27
 74
     0
 42
0.000000001
 43
0.00000001
 40
0.0
 40
0.0
 40
0.0
 40
0.0
 40
0.0420341186638456
 40
0.0839054330862327
 40
0.1250689344486245
 40
0.1661584697031391
 40
0.2072102728707283
 40
0.2484907320562538
 40
0.2898781122327919
 40
0.332169514204085
 40
0.3744758421539223
 40
0.4162249804562081
 40
0.4576095869585081
 40
0.4990731704672244
 40
0.5405533615534514
 40
0.5822488491953596
 40
0.6245497501260037
 40
0.6674328009210374
 40
0.7103225433055266
 40
0.752467118569865
 40
0.7940647568438068
 40
0.8352157072950149
 40
0.876228344224686
 40
0.9174461887061485
 40
0.9586431404713152
 40
1.0
 40
1.0
 40
1.0
 40
1.0
 10
176.5233974358974
 20
6.167728365384614
 30
0.0
 10
176.5238683938759
 20
6.194038316755243
 30
0.0
 10
176.5248084857444
 20
6.246556317236817
 30
0.0
 10
176.5329283027274
 20
6.324461188266872
 30
0.0
 10
176.5445108745622
 20
6.401322890236298
 30
0.0
 10
176.5628422078655
 20
6.476349175914089
 30
0.0
 10
176.584906210429
 20
6.550394486442289
 30
0.0
 10
176.6122325941059
 20
6.6229119004727
 30
0.0
 10
176.6450881829331
 20
6.693923505162822
 30
0.0
 10
176.6822898844252
 20
6.763481887259735
 30
0.0
 10
176.724094739902
 20
6.830653652235987
 30
0.0
 10
176.7699349189197
 20
6.894449966735234
 30
0.0
 10
176.8198657619984
 20
6.954401379839424
 30
0.0
 10
176.8731984283109
 20
7.011112705391465
 30
0.0
 10
176.9305841194814
 20
7.064036774237833
 30
0.0
 10
176.9919931482518
 20
7.113045135239298
 30
0.0
 10
177.0568201896181
 20
7.158959287640927
 30
0.0
 10
177.1252661592571
 20
7.200788857779863
 30
0.0
 10
177.196274933126
 20
7.237784181408698
 30
0.0
 10
177.268042467838
 20
7.271541322904636
 30
0.0
 10
177.3415194381783
 20
7.298332988478403
 30
0.0
 10
177.4153359560844
 20
7.321939656889168
 30
0.0
 10
177.4907920216193
 20
7.338663012552888
 30
0.0
 10
177.5669624429769
 20
7.351564617721138
 30
0.0
 10
177.6441079922262
 20
7.359424757508368
 30
0.0
 10
177.6957724041623
 20
7.360405909599796
 30
0.0
 10
177.7216546474359
 20
7.360897435897435
 30
0.0
  0
LINE
  5
104
330
1F
100
AcDbEntity
  8
0
  6
Continuous
 62
     7
370
    15
100
AcDbLine
 10
162.3173076923
 20
5.7326923077
 30
0.0
 11
160.8112179487
 21
5.7326923077
 31
0.0
  0
LINE
  5
105
330
1F
100
AcDbEntity
  8
0
  6
Continuous
 62
     7
370
    15
100
AcDbLine
 10
160.8112179487
 20
5.7326923077
 30
0.0
 11
162.5443659856
 21
8.2564102564
 31
0.0
  0
LINE
  5
106
330
1F
100
AcDbEntity
  8
0
  6
Continuous
 62
     7
370
    15
100
AcDbLine
 10
162.5443659856
 20
8.2564102564
 30
0.0
 11
162.6022435897
 21
8.2564102564
 31
0.0
  0
LINE
  5
107
330
1F
100
AcDbEntity
  8
0
  6
Continuous
 62
     7
370
    15
100
AcDbLine
 10
162.6022435897
 20
8.2564102564
 30
0.0
 11
162.6022435897
 21
6.0583333333
 31
0.0
  0
LINE
  5
108
330
1F
100
AcDbEntity
  8
0
  6
Continuous
 62
     7
370
    15
100
AcDbLine
 10
162.6022435897
 20
6.0583333333
 30
0.0
 11
162.9685897436
 21
6.0583333333
 31
0.0
  0
LINE
  5
109
330
1F
100
AcDbEntity
  8
0
  6
Continuous
 62
     7
370
    15
100
AcDbLine
 10
162.9685897436
 20
6.0583333333
 30
0.0
 11
162.9685897436
 21
5.7326923077
 31
0.0
  0
LINE
  5
10A
330
1F
100
AcDbEntity
  8
0
  6
Continuous
 62
     7
370
    15
100
AcDbLine
 10
162.9685897436
 20
5.7326923077
 30
0.0
 11
162.6022435897
 21
5.7326923077
 31
0.0
  0
LINE
  5
10B
330
1F
100
AcDbEntity
  8
0
  6
Continuous
 62
     7
370
    15
100
AcDbLine
 10
162.6022435897
 20
5.7326923077
 30
0.0
 11
162.6022435897
 21
5.0
 31
0.0
  0
LINE
  5
10C
330
1F
100
AcDbEntity
  8
0
  6
Continuous
 62
     7
370
    15
100
AcDbLine
 10
162.6022435897
 20
5.0
 30
0.0
 11
162.3173076923
 21
5.0
 31
0.0
  0
LINE
  5
10D
330
1F
100
AcDbEntity
  8
0
  6
Continuous
 62
     7
370
    15
100
AcDbLine
 10
162.3173076923
 20
5.0
 30
0.0
 11
162.3173076923
 21
5.7326923077
 31
0.0
  0
LINE
  5
10E
330
1F
100
AcDbEntity
  8
0
  6
Continuous
 62
     7
370
    15
100
AcDbLine
 10
159.1830128205
 20
5.0
 30
0.0
 11
159.1423076923
 21
5.0
 31
0.0
  0
LINE
  5
10F
330
1F
100
AcDbEntity
  8
0
  6
Continuous
 62
     7
370
    15
100
AcDbLine
 10
159.1423076923
 20
5.0
 30
0.0
 11
157.7990384615
 21
8.175
 31
0.0
  0
LINE
  5
110
330
1F
100
AcDbEntity
  8
0
  6
Continuous
 62
     7
370
    15
100
AcDbLine
 10
157.7990384615
 20
8.175
 30
0.0
 11
158.1043269231
 21
8.175
 31
0.0
  0
LINE
  5
111
330
1F
100
AcDbEntity
  8
0
  6
Continuous
 62
     7
370
    15
100
AcDbLine
 10
158.1043269231
 20
8.175
 30
0.0
 11
159.1626602564
 21
5.6729066506
 31
0.0
  0
LINE
  5
112
330
1F
100
AcDbEntity
  8
0
  6
Continuous
 62
     7
370
    15
100
AcDbLine
 10
159.1626602564
 20
5.6729066506
 30
0.0
 11
160.2209935897
 21
8.175
 31
0.0
  0
LINE
  5
113
330
1F
100
AcDbEntity
  8
0
  6
Continuous
 62
     7
370
    15
100
AcDbLine
 10
160.2209935897
 20
8.175
 30
0.0
 11
160.5262820513
 21
8.175
 31
0.0
  0
LINE
  5
114
330
1F
100
AcDbEntity
  8
0
  6
Continuous
 62
     7
370
    15
100
AcDbLine
 10
160.5262820513
 20
8.175
 30
0.0
 11
159.1830128205
 21
5.0
 31
0.0
  0
LINE
  5
115
330
1F
100
AcDbEntity
  8
0
  6
Continuous
 62
     7
370
    15
100
AcDbLine
 10
156.0080128205
 20
5.0
 30
0.0
 11
155.7230769231
 21
5.0
 31
0.0
  0
LINE
  5
116
330
1F
100
AcDbEntity
  8
0
  6
Continuous
 62
     7
370
    15
100
AcDbLine
 10
155.7230769231
 20
5.0
 30
0.0
 11
155.7230769231
 21
8.175
 31
0.0
  0
LINE
  5
117
330
1F
100
AcDbEntity
  8
0
  6
Continuous
 62
     7
370
    15
100
AcDbLine
 10
155.7230769231
 20
8.175
 30
0.0
 11
156.0080128205
 21
8.175
 31
0.0
  0
LINE
  5
118
330
1F
100
AcDbEntity
  8
0
  6
Continuous
 62
     7
370
    15
100
AcDbLine
 10
156.0080128205
 20
8.175
 30
0.0
 11
156.0080128205
 21
5.0
 31
0.0
  0
LINE
  5
119
330
1F
100
AcDbEntity
  8
0
  6
Continuous
 62
     7
370
    15
100
AcDbLine
 10
154.908974359
 20
5.0
 30
0.0
 11
154.6240384615
 21
5.0
 31
0.0
  0
LINE
  5
11A
330
1F
100
AcDbEntity
  8
0
  6
Continuous
 62
     7
370
    15
100
AcDbLine
 10
154.6240384615
 20
5.0
 30
0.0
 11
154.6240384615
 21
8.175
 31
0.0
  0
LINE
  5
11B
330
1F
100
AcDbEntity
  8
0
  6
Continuous
 62
     7
370
    15
100
AcDbLine
 10
154.6240384615
 20
8.175
 30
0.0
 11
154.908974359
 21
8.175
 31
0.0
  0
LINE
  5
11C
330
1F
100
AcDbEntity
  8
0
  6
Continuous
 62
     7
370
    15
100
AcDbLine
 10
154.908974359
 20
8.175
 30
0.0
 11
154.908974359
 21
5.0
 31
0.0
  0
LINE
  5
11D
330
1F
100
AcDbEntity
  8
0
  6
Continuous
 62
     7
370
    15
100
AcDbLine
 10
153.8099358974
 20
5.0
 30
0.0
 11
153.525
 21
5.0
 31
0.0
  0
LINE
  5
11E
330
1F
100
AcDbEntity
  8
0
  6
Continuous
 62
     7
370
    15
100
AcDbLine
 10
153.525
 20
5.0
 30
0.0
 11
153.525
 21
8.175
 31
0.0
  0
LINE
  5
11F
330
1F
100
AcDbEntity
  8
0
  6
Continuous
 62
     7
370
    15
100
AcDbLine
 10
153.525
 20
8.175
 30
0.0
 11
153.8099358974
 21
8.175
 31
0.0
  0
LINE
  5
120
330
1F
100
AcDbEntity
  8
0
  6
Continuous
 62
     7
370
    15
100
AcDbLine
 10
153.8099358974
 20
8.175
 30
0.0
 11
153.8099358974
 21
5.0
 31
0.0
  0
SPLINE
  5
121
330
1F
100
AcDbEntity
  8
0
  6
Continuous
 62
     7
370
    15
100
AcDbSpline
210
0.0
220
0.0
230
1.0
 70
     8
 71
     3
 72
    15
 73
    11
 74
     0
 42
0.000000001
 43
0.00000001
 40
0.0
 40
0.0
 40
0.0
 40
0.0
 40
0.1277566033101213
 40
0.249414355336553
 40
0.3727964764554144
 40
0.5001113325158477
 40
0.6286099407651168
 40
0.7506433738258063
 40
0.8737683791425136
 40
0.9999999999999999
 40
0.9999999999999999
 40
0.9999999999999999
 40
0.9999999999999999
 10
152.5684294871794
 20
4.959294871794871
 30
0.0
 10
152.550716701338
 20
4.960241563518365
 30
0.0
 10
152.5161367035346
 20
4.962089753747287
 30
0.0
 10
152.4664379801974
 20
4.977658870871137
 30
0.0
 10
152.4207116587008
 20
5.001991581235169
 30
0.0
 10
152.3800828059109
 20
5.035797991980075
 30
0.0
 10
152.3469371923988
 20
5.076619550631865
 30
0.0
 10
152.3218770236679
 20
5.122159751680795
 30
0.0
 10
152.3068273885463
 20
5.171854341335772
 30
0.0
 10
152.3048481183414
 20
5.206393481626638
 30
0.0
 10
152.3038461538461
 20
5.223878205128205
 30
0.0
  0
SPLINE
  5
122
330
1F
100
AcDbEntity
  8
0
  6
Continuous
 62
     7
370
    15
100
AcDbSpline
210
0.0
220
0.0
230
1.0
 70
     8
 71
     3
 72
    15
 73
    11
 74
     0
 42
0.000000001
 43
0.00000001
 40
0.0
 40
0.0
 40
0.0
 40
0.0
 40
0.1290969581672236
 40
0.2520459672599783
 40
0.3739049644019861
 40
0.5010378352202106
 40
0.6281707060383911
 40
0.7513764634091692
 40
0.8724260133704629
 40
1.0
 40
1.0
 40
1.0
 40
1.0
 10
152.3038461538461
 20
5.223878205128205
 30
0.0
 10
152.3048096295993
 20
5.241793713808693
 30
0.0
 10
152.3066906977638
 20
5.276771545807484
 30
0.0
 10
152.321908618135
 20
5.326845021876268
 30
0.0
 10
152.34674275322
 20
5.372354963195957
 30
0.0
 10
152.380311932963
 20
5.412629003736655
 30
0.0
 10
152.4207018299475
 20
5.446363199726282
 30
0.0
 10
152.4663276732162
 20
5.470914833503011
 30
0.0
 10
152.5162563990633
 20
5.485465778842843
 30
0.0
 10
152.5507368431961
 20
5.487445633321417
 30
0.0
 10
152.5684294871794
 20
5.488461538461538
 30
0.0
  0
SPLINE
  5
123
330
1F
100
AcDbEntity
  8
0
  6
Continuous
 62
     7
370
    15
100
AcDbSpline
210
0.0
220
0.0
230
1.0
 70
     8
 71
     3
 72
    15
 73
    11
 74
     0
 42
0.000000001
 43
0.00000001
 40
0.0
 40
0.0
 40
0.0
 40
0.0
 40
0.1275189266999397
 40
0.2499859477487675
 40
0.3717923515057172
 40
0.4988703527764677
 40
0.6259483540471683
 40
0.7484917380160536
 40
0.8709587590649217
 40
1.0
 40
1.0
 40
1.0
 40
1.0
 10
152.5684294871794
 20
5.488461538461538
 30
0.0
 10
152.5861098939363
 20
5.487410915824547
 30
0.0
 10
152.6207702643934
 20
5.485351292971442
 30
0.0
 10
152.67088004508
 20
5.471221024632057
 30
0.0
 10
152.7162323435344
 20
5.44613066834708
 30
0.0
 10
152.7566294513053
 20
5.412690862261715
 30
0.0
 10
152.789927469295
 20
5.372145510707599
 30
0.0
 10
152.8159119887253
 20
5.327154936354114
 30
0.0
 10
152.8299191681676
 20
5.276625634514612
 30
0.0
 10
152.8319637881672
 20
5.24176442936959
 30
0.0
 10
152.8330128205127
 20
5.223878205128205
 30
0.0
  0
SPLINE
  5
124
330
1F
100
AcDbEntity
  8
0
  6
Continuous
 62
     7
370
    15
100
AcDbSpline
210
0.0
220
0.0
230
1.0
 70
     8
 71
     3
 72
    15
 73
    11
 74
     0
 42
0.000000001
 43
0.00000001
 40
0.0
 40
0.0
 40
0.0
 40
0.0
 40
0.1261777183170028
 40
0.2488206074857968
 40
0.3715399692351805
 40
0.4999837069108904
 40
0.6272441978754072
 40
0.7492255210763055
 40
0.8722979504176559
 40
1.0
 40
1.0
 40
1.0
 40
1.0
 10
152.8330128205127
 20
5.223878205128205
 30
0.0
 10
152.8319282398365
 20
5.206421755986521
 30
0.0
 10
152.829789462671
 20
5.171997894643064
 30
0.0
 10
152.8159440967254
 20
5.12184971069137
 30
0.0
 10
152.7897294368738
 20
5.076831018779251
 30
0.0
 10
152.7568591218658
 20
5.035735507762807
 30
0.0
 10
152.716222357138
 20
5.002224860853972
 30
0.0
 10
152.6707728250259
 20
4.97734796956109
 30
0.0
 10
152.6208878979834
 20
4.962205959214693
 30
0.0
 10
152.5861295189461
 20
4.960277103986368
 30
0.0
 10
152.5684294871794
 20
4.959294871794871
 30
0.0
  0
LINE
  5
125
330
1F
100
AcDbEntity
  8
0
  6
Continuous
 62
     7
370
    15
100
AcDbLine
 10
150.35
 20
5.0
 30
0.0
 11
150.0650641026
 21
5.0
 31
0.0
  0
LINE
  5
126
330
1F
100
AcDbEntity
  8
0
  6
Continuous
 62
     7
370
    15
100
AcDbLine
 10
150.0650641026
 20
5.0
 30
0.0
 11
150.0650641026
 21
8.2564102564
 31
0.0
  0
LINE
  5
127
330
1F
100
AcDbEntity
  8
0
  6
Continuous
 62
     7
370
    15
100
AcDbLine
 10
150.0650641026
 20
8.2564102564
 30
0.0
 11
150.35
 21
8.2564102564
 31
0.0
  0
LINE
  5
128
330
1F
100
AcDbEntity
  8
0
  6
Continuous
 62
     7
370
    15
100
AcDbLine
 10
150.35
 20
8.2564102564
 30
0.0
 11
150.35
 21
6.3737980769
 31
0.0
  0
LINE
  5
129
330
1F
100
AcDbEntity
  8
0
  6
Continuous
 62
     7
370
    15
100
AcDbLine
 10
150.35
 20
6.3737980769
 30
0.0
 11
151.4057892628
 21
7.3201923077
 31
0.0
  0
LINE
  5
12A
330
1F
100
AcDbEntity
  8
0
  6
Continuous
 62
     7
370
    15
100
AcDbLine
 10
151.4057892628
 20
7.3201923077
 30
0.0
 11
151.8153846154
 21
7.3201923077
 31
0.0
  0
LINE
  5
12B
330
1F
100
AcDbEntity
  8
0
  6
Continuous
 62
     7
370
    15
100
AcDbLine
 10
151.8153846154
 20
7.3201923077
 30
0.0
 11
150.5904146635
 21
6.2211538462
 31
0.0
  0
LINE
  5
12C
330
1F
100
AcDbEntity
  8
0
  6
Continuous
 62
     7
370
    15
100
AcDbLine
 10
150.5904146635
 20
6.2211538462
 30
0.0
 11
151.9375
 21
5.0
 31
0.0
  0
LINE
  5
12D
330
1F
100
AcDbEntity
  8
0
  6
Continuous
 62
     7
370
    15
100
AcDbLine
 10
151.9375
 20
5.0
 30
0.0
 11
151.5285406651
 21
5.0
 31
0.0
  0
LINE
  5
12E
330
1F
100
AcDbEntity
  8
0
  6
Continuous
 62
     7
370
    15
100
AcDbLine
 10
151.5285406651
 20
5.0
 30
0.0
 11
150.35
 21
6.069145633
 31
0.0
  0
LINE
  5
12F
330
1F
100
AcDbEntity
  8
0
  6
Continuous
 62
     7
370
    15
100
AcDbLine
 10
150.35
 20
6.069145633
 30
0.0
 11
150.35
 21
5.0
 31
0.0
  0
MTEXT
  5
131
330
1F
100
AcDbEntity
  8
0
  6
Continuous
 62
     7
100
AcDbMText
 10
0.0
 20
-1.0195663917
 30
0.0
 40
4.83362
 41
0.0
 71
     1
 72
     1
  1
SOLIDWORKS Educational Product.
  7
SLDTEXTSTYLE0
 73
     1
 44
1.0
  0
MTEXT
  5
132
330
1F
100
AcDbEntity
  8
0
  6
Continuous
 62
     7
100
AcDbMText
 10
0.0
 20
-8.2699963917
 30
0.0
 40
4.83362
 41
0.0
 71
     1
 72
     1
  1
For Instructional Use Only.
  7
SLDTEXTSTYLE0
 73
     1
 44
1.0
  0
ENDSEC
  0
SECTION
  2
OBJECTS
  0
DICTIONARY
  5
C
330
0
100
AcDbDictionary
281
     1
  3
ACAD_GROUP
350
D
  3
ACAD_LAYOUT
350
1A
  3
ACAD_MLINESTYLE
350
17
  3
ACAD_PLOTSETTINGS
350
19
  3
ACAD_PLOTSTYLENAME
350
E
  3
ACAD_SCALELIST
350
47
  0
DICTIONARY
  5
D
102
{ACAD_REACTORS
330
C
102
}
330
C
100
AcDbDictionary
281
     1
  0
DICTIONARY
  5
1A
102
{ACAD_REACTORS
330
C
102
}
330
C
100
AcDbDictionary
281
     1
  3
Layout1
350
1E
  3
Layout2
350
26
  3
Model
350
22
  0
DICTIONARY
  5
17
102
{ACAD_REACTORS
330
C
102
}
330
C
100
AcDbDictionary
281
     1
  3
Standard
350
18
  0
DICTIONARY
  5
19
102
{ACAD_REACTORS
330
C
102
}
330
C
100
AcDbDictionary
281
     1
  0
ACDBDICTIONARYWDFLT
  5
E
102
{ACAD_REACTORS
330
C
102
}
330
C
100
AcDbDictionary
281
     1
  3
Normal
350
F
100
AcDbDictionaryWithDefault
340
F
  0
DICTIONARY
  5
47
102
{ACAD_REACTORS
330
C
102
}
330
C
100
AcDbDictionary
281
     1
  3
A0
350
48
  3
A1
350
49
  3
A2
350
4A
  3
A3
350
4B
  3
A4
350
4C
  3
A5
350
4D
  3
A6
350
4E
  3
A7
350
4F
  3
A8
350
50
  3
A9
350
51
  3
B0
350
52
  3
B1
350
53
  3
B2
350
54
  3
B3
350
55
  3
B4
350
56
  3
B5
350
57
  3
B6
350
58
  3
B7
350
59
  3
B8
350
5A
  3
B9
350
5B
  3
C0
350
5C
  3
C1
350
5D
  3
C2
350
5E
  3
C3
350
5F
  3
C4
350
60
  3
C5
350
61
  3
C6
350
62
  3
C7
350
63
  3
C8
350
64
  3
C9
350
65
  3
D0
350
66
  3
D1
350
67
  3
D2
350
68
  0
LAYOUT
  5
1E
102
{ACAD_REACTORS
330
1A
102
}
330
1A
100
AcDbPlotSettings
  1

  2
none_device
  4

  6

 40
0.0
 41
0.0
 42
0.0
 43
0.0
 44
0.0
 45
0.0
 46
0.0
 47
0.0
 48
0.0
 49
0.0
140
0.0
141
0.0
142
1.0
143
1.0
 70
   688
 72
     1
 73
     0
 74
     5
  7

 75
    16
147
1.0
148
0.0
149
0.0
100
AcDbLayout
  1
Layout1
 70
     1
 71
     1
 10
0.0
 20
0.0
 11
420.0
 21
297.0
 12
0.0
 22
0.0
 32
0.0
 14
1.0000000000E+20
 24
1.0000000000E+20
 34
1.0000000000E+20
 15
-1.0000000000E+20
 25
-1.0000000000E+20
 35
-1.0000000000E+20
146
0.0
 13
0.0
 23
0.0
 33
0.0
 16
1.0
 26
0.0
 36
0.0
 17
0.0
 27
1.0
 37
0.0
 76
     0
330
1B
  0
LAYOUT
  5
26
102
{ACAD_REACTORS
330
1A
102
}
330
1A
100
AcDbPlotSettings
  1

  2
none_device
  4

  6

 40
0.0
 41
0.0
 42
0.0
 43
0.0
 44
0.0
 45
0.0
 46
0.0
 47
0.0
 48
0.0
 49
0.0
140
0.0
141
0.0
142
1.0
143
1.0
 70
   688
 72
     1
 73
     0
 74
     5
  7

 75
    16
147
1.0
148
0.0
149
0.0
100
AcDbLayout
  1
Layout2
 70
     1
 71
     2
 10
0.0
 20
0.0
 11
0.0
 21
0.0
 12
0.0
 22
0.0
 32
0.0
 14
0.0
 24
0.0
 34
0.0
 15
0.0
 25
0.0
 35
0.0
146
0.0
 13
0.0
 23
0.0
 33
0.0
 16
1.0
 26
0.0
 36
0.0
 17
0.0
 27
1.0
 37
0.0
 76
     0
330
23
  0
LAYOUT
  5
22
102
{ACAD_REACTORS
330
1A
102
}
330
1A
100
AcDbPlotSettings
  1

  2
none_device
  4
ANSI_A_(11.00_x_8.50_Inches)
  6

 40
6.35
 41
19.05
 42
6.35000508
 43
19.05000254
 44
279.4
 45
215.9
 46
-4.95300254
 47
35.8321415871
 48
0.0
 49
0.0
140
0.0
141
0.0
142
0.0321428571
143
1.0
 70
  1696
 72
     0
 73
     0
 74
     0
  7

 75
     0
147
0.0179189148
148
-1300.4909072572
149
0.0
100
AcDbLayout
  1
Model
 70
     1
 71
     0
 10
0.0
 20
0.0
 11
420.0
 21
297.0
 12
0.0
 22
0.0
 32
0.0
 14
0.0
 24
0.0
 34
0.0
 15
338.8
 25
130.0
 35
0.0
146
0.0
 13
0.0
 23
0.0
 33
0.0
 16
1.0
 26
0.0
 36
0.0
 17
0.0
 27
1.0
 37
0.0
 76
     0
330
1F
331
29
  0
MLINESTYLE
  5
18
102
{ACAD_REACTORS
330
17
102
}
330
17
100
AcDbMlineStyle
  2
Standard
 70
     0
  3

 62
   256
 51
90.0
 52
90.0
 71
     2
 49
0.5
 62
   256
  6
BYLAYER
 49
-0.5
 62
   256
  6
BYLAYER
  0
ACDBPLACEHOLDER
  5
F
102
{ACAD_REACTORS
330
E
102
}
330
E
  0
SCALE
  5
48
102
{ACAD_REACTORS
330
47
102
}
330
47
100
AcDbScale
 70
     0
300
1:1
140
1.0
141
1.0
290
     1
  0
SCALE
  5
49
102
{ACAD_REACTORS
330
47
102
}
330
47
100
AcDbScale
 70
     0
300
1:2
140
1.0
141
2.0
290
     0
  0
SCALE
  5
4A
102
{ACAD_REACTORS
330
47
102
}
330
47
100
AcDbScale
 70
     0
300
1:4
140
1.0
141
4.0
290
     0
  0
SCALE
  5
4B
102
{ACAD_REACTORS
330
47
102
}
330
47
100
AcDbScale
 70
     0
300
1:5
140
1.0
141
5.0
290
     0
  0
SCALE
  5
4C
102
{ACAD_REACTORS
330
47
102
}
330
47
100
AcDbScale
 70
     0
300
1:8
140
1.0
141
8.0
290
     0
  0
SCALE
  5
4D
102
{ACAD_REACTORS
330
47
102
}
330
47
100
AcDbScale
 70
     0
300
1:10
140
1.0
141
10.0
290
     0
  0
SCALE
  5
4E
102
{ACAD_REACTORS
330
47
102
}
330
47
100
AcDbScale
 70
     0
300
1:16
140
1.0
141
16.0
290
     0
  0
SCALE
  5
4F
102
{ACAD_REACTORS
330
47
102
}
330
47
100
AcDbScale
 70
     0
300
1:20
140
1.0
141
20.0
290
     0
  0
SCALE
  5
50
102
{ACAD_REACTORS
330
47
102
}
330
47
100
AcDbScale
 70
     0
300
1:30
140
1.0
141
30.0
290
     0
  0
SCALE
  5
51
102
{ACAD_REACTORS
330
47
102
}
330
47
100
AcDbScale
 70
     0
300
1:40
140
1.0
141
40.0
290
     0
  0
SCALE
  5
52
102
{ACAD_REACTORS
330
47
102
}
330
47
100
AcDbScale
 70
     0
300
1:50
140
1.0
141
50.0
290
     0
  0
SCALE
  5
53
102
{ACAD_REACTORS
330
47
102
}
330
47
100
AcDbScale
 70
     0
300
1:100
140
1.0
141
100.0
290
     0
  0
SCALE
  5
54
102
{ACAD_REACTORS
330
47
102
}
330
47
100
AcDbScale
 70
     0
300
2:1
140
2.0
141
1.0
290
     0
  0
SCALE
  5
55
102
{ACAD_REACTORS
330
47
102
}
330
47
100
AcDbScale
 70
     0
300
4:1
140
4.0
141
1.0
290
     0
  0
SCALE
  5
56
102
{ACAD_REACTORS
330
47
102
}
330
47
100
AcDbScale
 70
     0
300
8:1
140
8.0
141
1.0
290
     0
  0
SCALE
  5
57
102
{ACAD_REACTORS
330
47
102
}
330
47
100
AcDbScale
 70
     0
300
10:1
140
10.0
141
1.0
290
     0
  0
SCALE
  5
58
102
{ACAD_REACTORS
330
47
102
}
330
47
100
AcDbScale
 70
     0
300
100:1
140
100.0
141
1.0
290
     0
  0
SCALE
  5
59
102
{ACAD_REACTORS
330
47
102
}
330
47
100
AcDbScale
 70
     0
300
1/128" = 1'-0"
140
0.0078125
141
12.0
290
     0
  0
SCALE
  5
5A
102
{ACAD_REACTORS
330
47
102
}
330
47
100
AcDbScale
 70
     0
300
1/64" = 1'-0"
140
0.015625
141
12.0
290
     0
  0
SCALE
  5
5B
102
{ACAD_REACTORS
330
47
102
}
330
47
100
AcDbScale
 70
     0
300
1/32" = 1'-0"
140
0.03125
141
12.0
290
     0
  0
SCALE
  5
5C
102
{ACAD_REACTORS
330
47
102
}
330
47
100
AcDbScale
 70
     0
300
1/16" = 1'-0"
140
0.0625
141
12.0
290
     0
  0
SCALE
  5
5D
102
{ACAD_REACTORS
330
47
102
}
330
47
100
AcDbScale
 70
     0
300
3/32" = 1'-0"
140
0.09375
141
12.0
290
     0
  0
SCALE
  5
5E
102
{ACAD_REACTORS
330
47
102
}
330
47
100
AcDbScale
 70
     0
300
1/8" = 1'-0"
140
0.125
141
12.0
290
     0
  0
SCALE
  5
5F
102
{ACAD_REACTORS
330
47
102
}
330
47
100
AcDbScale
 70
     0
300
3/16" = 1'-0"
140
0.1875
141
12.0
290
     0
  0
SCALE
  5
60
102
{ACAD_REACTORS
330
47
102
}
330
47
100
AcDbScale
 70
     0
300
1/4" = 1'-0"
140
0.25
141
12.0
290
     0
  0
SCALE
  5
61
102
{ACAD_REACTORS
330
47
102
}
330
47
100
AcDbScale
 70
     0
300
3/8" = 1'-0"
140
0.375
141
12.0
290
     0
  0
SCALE
  5
62
102
{ACAD_REACTORS
330
47
102
}
330
47
100
AcDbScale
 70
     0
300
1/2" = 1'-0"
140
0.5
141
12.0
290
     0
  0
SCALE
  5
63
102
{ACAD_REACTORS
330
47
102
}
330
47
100
AcDbScale
 70
     0
300
3/4" = 1'-0"
140
0.75
141
12.0
290
     0
  0
SCALE
  5
64
102
{ACAD_REACTORS
330
47
102
}
330
47
100
AcDbScale
 70
     0
300
1" = 1'-0"
140
1.0
141
12.0
290
     0
  0
SCALE
  5
65
102
{ACAD_REACTORS
330
47
102
}
330
47
100
AcDbScale
 70
     0
300
1-1/2" = 1'-0"
140
1.5
141
12.0
290
     0
  0
SCALE
  5
66
102
{ACAD_REACTORS
330
47
102
}
330
47
100
AcDbScale
 70
     0
300
3" = 1'-0"
140
3.0
141
12.0
290
     0
  0
SCALE
  5
67
102
{ACAD_REACTORS
330
47
102
}
330
47
100
AcDbScale
 70
     0
300
6" = 1'-0"
140
6.0
141
12.0
290
     0
  0
SCALE
  5
68
102
{ACAD_REACTORS
330
47
102
}
330
47
100
AcDbScale
 70
     0
300
1'-0" = 1'-0"
140
12.0
141
12.0
290
     0
  0
ENDSEC
  0
EOF
